<?xml version="1.0" encoding="UTF-8"?>
<svg xmlns="http://www.w3.org/2000/svg" xmlns:xlink="http://www.w3.org/1999/xlink" width="360pt" height="120pt" viewBox="0 0 360 120" version="1.1">
<g id="surface1">
<path style="fill-rule:nonzero;fill:rgb(100%,100%,86.999313%);fill-opacity:1;stroke-width:1.5;stroke-linecap:square;stroke-linejoin:miter;stroke:rgb(0%,0%,0%);stroke-opacity:1;stroke-miterlimit:3.25;" d="M 351.820312 112.183594 L 351.820312 111.632812 L 351.8125 111.082031 L 351.808594 110.53125 L 351.796875 109.976562 L 351.785156 109.425781 L 351.769531 108.875 L 351.75 108.324219 L 351.703125 107.222656 L 351.675781 106.671875 L 351.613281 105.570312 L 351.578125 105.023438 L 351.539062 104.472656 L 351.496094 103.921875 L 351.449219 103.371094 L 351.402344 102.824219 L 351.351562 102.273438 L 351.300781 101.726562 L 351.242188 101.175781 L 351.183594 100.628906 L 351.058594 99.535156 L 350.847656 97.894531 L 350.691406 96.800781 L 350.609375 96.257812 L 350.523438 95.710938 L 350.4375 95.167969 L 350.34375 94.625 L 350.253906 94.082031 L 350.058594 92.996094 L 349.953125 92.453125 L 349.851562 91.914062 L 349.742188 91.371094 L 349.632812 90.832031 L 349.519531 90.292969 L 349.285156 89.214844 L 349.164062 88.675781 L 349.039062 88.140625 L 348.910156 87.605469 L 348.78125 87.066406 L 348.648438 86.53125 L 348.511719 86 L 348.375 85.464844 L 348.230469 84.933594 L 348.089844 84.398438 L 347.941406 83.867188 L 347.792969 83.339844 L 347.640625 82.808594 L 347.484375 82.277344 L 347.164062 81.222656 L 347 80.695312 L 346.835938 80.171875 L 346.667969 79.648438 L 346.496094 79.121094 L 346.320312 78.601562 L 346.144531 78.078125 L 345.964844 77.558594 L 345.78125 77.035156 L 345.59375 76.515625 L 345.40625 76 L 345.214844 75.480469 L 345.023438 74.964844 L 344.828125 74.449219 L 344.628906 73.9375 L 344.425781 73.421875 L 344.222656 72.910156 L 344.015625 72.398438 L 343.59375 71.382812 L 343.378906 70.875 L 343.160156 70.367188 L 342.941406 69.863281 L 342.71875 69.359375 L 342.492188 68.855469 L 342.261719 68.351562 L 341.800781 67.351562 L 341.324219 66.359375 L 340.839844 65.367188 L 340.59375 64.875 L 340.09375 63.890625 L 339.839844 63.402344 L 339.582031 62.914062 L 339.324219 62.429688 L 339.0625 61.941406 L 338.796875 61.460938 L 338.53125 60.976562 L 338.261719 60.496094 L 337.988281 60.015625 L 337.714844 59.539062 L 337.4375 59.0625 L 337.15625 58.585938 L 336.875 58.113281 L 336.304688 57.167969 L 336.015625 56.699219 L 335.722656 56.230469 L 335.429688 55.765625 L 335.132812 55.300781 L 334.832031 54.839844 L 334.53125 54.375 L 334.226562 53.917969 L 333.921875 53.457031 L 333.613281 53 L 332.988281 52.09375 L 332.671875 51.640625 L 332.355469 51.191406 L 332.035156 50.742188 L 331.386719 49.851562 L 331.058594 49.40625 L 330.730469 48.964844 L 330.398438 48.523438 L 329.726562 47.648438 L 329.046875 46.78125 L 328.703125 46.351562 L 328.355469 45.921875 L 328.007812 45.496094 L 327.304688 44.644531 L 326.59375 43.800781 L 326.234375 43.382812 L 325.144531 42.140625 L 324.777344 41.730469 L 324.40625 41.320312 L 324.035156 40.914062 L 323.660156 40.511719 L 323.28125 40.105469 L 322.90625 39.707031 L 322.140625 38.910156 L 321.757812 38.515625 L 321.371094 38.121094 L 320.980469 37.730469 L 320.199219 36.957031 L 319.800781 36.570312 L 319.40625 36.1875 L 319.007812 35.808594 L 318.605469 35.429688 L 318.203125 35.054688 L 317.796875 34.679688 L 316.984375 33.9375 L 316.570312 33.570312 L 316.160156 33.203125 L 315.746094 32.839844 L 314.910156 32.121094 L 314.488281 31.761719 L 314.066406 31.40625 L 313.644531 31.054688 L 313.21875 30.707031 L 312.789062 30.355469 L 312.363281 30.011719 L 311.929688 29.667969 L 311.0625 28.988281 L 310.1875 28.316406 L 309.304688 27.652344 L 308.863281 27.328125 L 308.417969 27 L 307.972656 26.679688 L 307.523438 26.359375 L 307.070312 26.039062 L 306.621094 25.722656 L 306.167969 25.410156 L 305.710938 25.097656 L 305.253906 24.789062 L 304.796875 24.484375 L 304.335938 24.179688 L 303.875 23.878906 L 302.480469 22.988281 L 301.074219 22.121094 L 300.601562 21.835938 L 300.125 21.554688 L 299.652344 21.277344 L 299.175781 21 L 298.695312 20.726562 L 298.21875 20.453125 L 297.734375 20.183594 L 297.253906 19.917969 L 296.769531 19.652344 L 296.285156 19.390625 L 295.308594 18.875 L 294.332031 18.367188 L 293.839844 18.121094 L 293.34375 17.875 L 292.851562 17.628906 L 292.355469 17.386719 L 291.859375 17.148438 L 290.859375 16.679688 L 290.359375 16.449219 L 289.859375 16.222656 L 289.355469 15.996094 L 288.851562 15.773438 L 288.34375 15.550781 L 287.839844 15.335938 L 286.824219 14.90625 L 285.289062 14.285156 L 284.777344 14.085938 L 284.261719 13.886719 L 283.230469 13.496094 L 282.714844 13.304688 L 282.195312 13.117188 L 281.15625 12.75 L 280.636719 12.570312 L 280.113281 12.390625 L 279.066406 12.046875 L 278.542969 11.878906 L 278.015625 11.710938 L 277.488281 11.546875 L 276.960938 11.386719 L 275.90625 11.074219 L 274.84375 10.769531 L 273.78125 10.480469 L 273.246094 10.339844 L 272.714844 10.199219 L 271.109375 9.800781 L 270.574219 9.675781 L 270.035156 9.550781 L 269.496094 9.429688 L 268.960938 9.308594 L 267.882812 9.082031 L 267.339844 8.96875 L 266.800781 8.863281 L 266.257812 8.757812 L 265.71875 8.65625 L 264.632812 8.460938 L 264.089844 8.367188 L 263.542969 8.277344 L 263 8.1875 L 262.457031 8.105469 L 261.363281 7.941406 L 260.820312 7.867188 L 260.273438 7.792969 L 259.726562 7.722656 L 258.632812 7.589844 L 258.082031 7.527344 L 257.535156 7.46875 L 256.988281 7.414062 L 256.4375 7.359375 L 255.890625 7.308594 L 255.339844 7.261719 L 254.789062 7.21875 L 254.242188 7.175781 L 253.691406 7.136719 L 252.589844 7.066406 L 252.039062 7.035156 L 251.488281 7.007812 L 250.9375 6.984375 L 249.835938 6.945312 L 248.734375 6.914062 L 247.632812 6.898438 L 247.082031 6.894531 L 111.917969 6.894531 L 111.367188 6.898438 L 110.265625 6.914062 L 109.714844 6.929688 L 109.160156 6.945312 L 108.058594 6.984375 L 107.507812 7.007812 L 106.957031 7.035156 L 106.410156 7.066406 L 105.308594 7.136719 L 104.757812 7.175781 L 104.207031 7.21875 L 103.660156 7.261719 L 103.109375 7.308594 L 102.558594 7.359375 L 101.464844 7.46875 L 100.914062 7.527344 L 100.367188 7.589844 L 99.273438 7.722656 L 98.726562 7.792969 L 97.632812 7.941406 L 97.089844 8.023438 L 96.542969 8.105469 L 96 8.1875 L 95.453125 8.277344 L 94.910156 8.367188 L 94.367188 8.460938 L 93.28125 8.65625 L 92.738281 8.757812 L 92.199219 8.863281 L 91.65625 8.96875 L 90.039062 9.308594 L 89.5 9.429688 L 88.964844 9.550781 L 88.425781 9.675781 L 87.890625 9.800781 L 86.285156 10.199219 L 85.75 10.339844 L 85.21875 10.480469 L 84.15625 10.769531 L 83.09375 11.074219 L 82.566406 11.230469 L 82.035156 11.386719 L 81.507812 11.546875 L 80.984375 11.710938 L 80.457031 11.878906 L 79.933594 12.046875 L 78.886719 12.390625 L 78.363281 12.570312 L 77.84375 12.75 L 76.804688 13.117188 L 76.285156 13.304688 L 75.769531 13.496094 L 75.25 13.691406 L 74.738281 13.886719 L 74.222656 14.085938 L 73.710938 14.285156 L 73.195312 14.492188 L 72.6875 14.699219 L 72.175781 14.90625 L 70.652344 15.550781 L 69.644531 15.996094 L 69.140625 16.222656 L 68.640625 16.449219 L 68.136719 16.679688 L 67.636719 16.914062 L 67.140625 17.148438 L 66.644531 17.386719 L 66.148438 17.628906 L 65.652344 17.875 L 64.667969 18.367188 L 64.175781 18.621094 L 63.6875 18.875 L 63.199219 19.132812 L 62.714844 19.390625 L 62.230469 19.652344 L 61.261719 20.183594 L 60.78125 20.453125 L 60.300781 20.726562 L 59.824219 21 L 58.871094 21.554688 L 58.398438 21.835938 L 57.925781 22.121094 L 57.453125 22.410156 L 56.984375 22.699219 L 56.519531 22.988281 L 56.050781 23.285156 L 55.585938 23.582031 L 55.125 23.878906 L 54.664062 24.179688 L 53.742188 24.789062 L 53.285156 25.097656 L 52.378906 25.722656 L 51.925781 26.039062 L 51.027344 26.679688 L 50.582031 27 L 50.136719 27.328125 L 49.691406 27.652344 L 49.25 27.984375 L 48.8125 28.316406 L 48.371094 28.652344 L 47.9375 28.988281 L 47.5 29.328125 L 47.066406 29.667969 L 46.207031 30.355469 L 45.78125 30.707031 L 45.355469 31.054688 L 44.929688 31.40625 L 44.507812 31.761719 L 43.253906 32.839844 L 42.839844 33.203125 L 42.425781 33.570312 L 42.015625 33.9375 L 41.605469 34.308594 L 41.199219 34.679688 L 40.394531 35.429688 L 39.992188 35.808594 L 39.59375 36.1875 L 39.195312 36.570312 L 38.800781 36.957031 L 38.410156 37.34375 L 38.015625 37.730469 L 37.628906 38.121094 L 36.855469 38.910156 L 36.472656 39.308594 L 35.714844 40.105469 L 35.339844 40.511719 L 34.964844 40.914062 L 34.59375 41.320312 L 34.222656 41.730469 L 33.855469 42.140625 L 33.488281 42.554688 L 33.125 42.96875 L 32.765625 43.382812 L 32.40625 43.800781 L 32.046875 44.222656 L 31.695312 44.644531 L 31.339844 45.070312 L 30.644531 45.921875 L 30.296875 46.351562 L 29.953125 46.78125 L 29.273438 47.648438 L 28.601562 48.523438 L 28.269531 48.964844 L 27.941406 49.40625 L 27.613281 49.851562 L 26.964844 50.742188 L 26.324219 51.640625 L 26.011719 52.09375 L 25.695312 52.546875 L 25.386719 53 L 25.078125 53.457031 L 24.769531 53.917969 L 24.464844 54.375 L 24.164062 54.839844 L 23.867188 55.300781 L 23.273438 56.230469 L 22.695312 57.167969 L 22.40625 57.640625 L 22.121094 58.113281 L 21.839844 58.585938 L 21.285156 59.539062 L 21.011719 60.015625 L 20.738281 60.496094 L 20.46875 60.976562 L 20.203125 61.460938 L 19.9375 61.941406 L 19.675781 62.429688 L 19.417969 62.914062 L 19.160156 63.402344 L 18.90625 63.890625 L 18.40625 64.875 L 18.160156 65.367188 L 17.914062 65.863281 L 17.675781 66.359375 L 17.433594 66.855469 L 17.199219 67.351562 L 16.964844 67.851562 L 16.734375 68.351562 L 16.28125 69.359375 L 16.058594 69.863281 L 15.839844 70.367188 L 15.621094 70.875 L 15.191406 71.890625 L 14.984375 72.398438 L 14.777344 72.910156 L 14.574219 73.421875 L 14.371094 73.9375 L 14.171875 74.449219 L 13.78125 75.480469 L 13.589844 76 L 13.402344 76.515625 L 13.21875 77.035156 L 13.035156 77.558594 L 12.855469 78.078125 L 12.679688 78.601562 L 12.503906 79.121094 L 12.332031 79.648438 L 11.996094 80.695312 L 11.832031 81.222656 L 11.671875 81.75 L 11.515625 82.277344 L 11.359375 82.808594 L 11.207031 83.339844 L 11.058594 83.867188 L 10.910156 84.398438 L 10.765625 84.933594 L 10.625 85.464844 L 10.488281 86 L 10.351562 86.53125 L 10.21875 87.066406 L 10.085938 87.605469 L 9.835938 88.675781 L 9.59375 89.753906 L 9.253906 91.371094 L 9.148438 91.914062 L 9.042969 92.453125 L 8.941406 92.996094 L 8.746094 94.082031 L 8.652344 94.625 L 8.5625 95.167969 L 8.476562 95.710938 L 8.390625 96.257812 L 8.308594 96.800781 L 8.152344 97.894531 L 8.078125 98.441406 L 8.007812 98.988281 L 7.875 100.082031 L 7.8125 100.628906 L 7.753906 101.175781 L 7.699219 101.726562 L 7.644531 102.273438 L 7.59375 102.824219 L 7.546875 103.371094 L 7.460938 104.472656 L 7.421875 105.023438 L 7.386719 105.570312 L 7.351562 106.121094 L 7.269531 107.773438 L 7.230469 108.875 L 7.214844 109.425781 L 7.203125 109.976562 L 7.191406 110.53125 L 7.183594 111.082031 L 7.179688 111.632812 L 112.46875 112.183594 L 112.476562 111.082031 L 112.503906 109.980469 L 112.550781 108.878906 L 112.613281 107.777344 L 112.695312 106.675781 L 112.796875 105.578125 L 112.914062 104.484375 L 113.046875 103.390625 L 113.203125 102.296875 L 113.375 101.207031 L 113.5625 100.121094 L 113.769531 99.039062 L 113.996094 97.960938 L 114.238281 96.882812 L 114.5 95.8125 L 114.777344 94.746094 L 115.074219 93.683594 L 115.386719 92.625 L 115.714844 91.574219 L 116.0625 90.527344 L 116.429688 89.488281 L 116.808594 88.453125 L 117.207031 87.425781 L 117.625 86.40625 L 118.058594 85.390625 L 118.503906 84.382812 L 118.972656 83.382812 L 119.453125 82.394531 L 119.953125 81.410156 L 120.464844 80.433594 L 120.996094 79.46875 L 121.542969 78.507812 L 122.101562 77.5625 L 122.679688 76.621094 L 123.273438 75.691406 L 123.882812 74.773438 L 124.503906 73.863281 L 125.140625 72.960938 L 125.792969 72.074219 L 126.460938 71.195312 L 127.140625 70.328125 L 127.835938 69.472656 L 128.546875 68.628906 L 129.269531 67.796875 L 130.007812 66.976562 L 130.757812 66.167969 L 131.519531 65.375 L 132.296875 64.589844 L 133.085938 63.820312 L 133.886719 63.066406 L 134.703125 62.320312 L 135.527344 61.589844 L 136.367188 60.875 L 137.214844 60.171875 L 138.078125 59.484375 L 138.949219 58.808594 L 139.832031 58.148438 L 140.726562 57.503906 L 141.632812 56.875 L 142.546875 56.257812 L 143.472656 55.660156 L 144.40625 55.074219 L 145.351562 54.503906 L 146.304688 53.949219 L 147.265625 53.414062 L 148.234375 52.890625 L 149.214844 52.382812 L 150.203125 51.894531 L 151.199219 51.421875 L 152.203125 50.964844 L 153.210938 50.523438 L 154.230469 50.097656 L 155.253906 49.691406 L 156.285156 49.300781 L 157.324219 48.929688 L 158.367188 48.570312 L 159.414062 48.234375 L 160.46875 47.910156 L 161.53125 47.605469 L 162.59375 47.320312 L 163.664062 47.050781 L 164.738281 46.800781 L 165.816406 46.566406 L 166.894531 46.347656 L 167.980469 46.152344 L 169.066406 45.96875 L 170.160156 45.808594 L 171.25 45.664062 L 172.347656 45.535156 L 173.445312 45.425781 L 174.542969 45.335938 L 175.644531 45.265625 L 176.742188 45.210938 L 177.84375 45.171875 L 178.949219 45.15625 L 180.050781 45.15625 L 181.152344 45.171875 L 182.253906 45.210938 L 183.355469 45.265625 L 184.457031 45.335938 L 185.554688 45.425781 L 186.652344 45.535156 L 187.746094 45.664062 L 188.839844 45.808594 L 189.929688 45.96875 L 191.019531 46.152344 L 192.101562 46.347656 L 193.183594 46.566406 L 194.261719 46.800781 L 195.335938 47.050781 L 196.402344 47.320312 L 197.46875 47.605469 L 198.527344 47.910156 L 199.582031 48.234375 L 200.632812 48.570312 L 201.675781 48.929688 L 202.710938 49.300781 L 203.742188 49.691406 L 204.769531 50.097656 L 205.785156 50.523438 L 206.796875 50.964844 L 207.800781 51.421875 L 208.796875 51.894531 L 209.78125 52.382812 L 210.761719 52.890625 L 211.734375 53.414062 L 212.695312 53.949219 L 213.648438 54.503906 L 214.59375 55.074219 L 215.527344 55.660156 L 216.453125 56.257812 L 217.367188 56.875 L 218.273438 57.503906 L 219.164062 58.148438 L 220.050781 58.808594 L 220.921875 59.484375 L 221.78125 60.171875 L 222.632812 60.875 L 223.46875 61.589844 L 224.296875 62.320312 L 225.109375 63.066406 L 225.914062 63.820312 L 226.703125 64.589844 L 227.476562 65.375 L 228.242188 66.167969 L 228.992188 66.976562 L 229.726562 67.796875 L 230.453125 68.628906 L 231.160156 69.472656 L 231.855469 70.328125 L 232.539062 71.195312 L 233.203125 72.074219 L 233.855469 72.960938 L 234.496094 73.863281 L 235.117188 74.773438 L 235.726562 75.691406 L 236.316406 76.621094 L 236.894531 77.5625 L 237.457031 78.507812 L 238.003906 79.46875 L 238.53125 80.433594 L 239.046875 81.410156 L 239.546875 82.394531 L 240.027344 83.382812 L 240.492188 84.382812 L 240.941406 85.390625 L 241.375 86.40625 L 241.789062 87.425781 L 242.1875 88.453125 L 242.570312 89.488281 L 242.933594 90.527344 L 243.28125 91.574219 L 243.613281 92.625 L 243.925781 93.683594 L 244.222656 94.746094 L 244.5 95.8125 L 244.761719 96.882812 L 245.003906 97.960938 L 245.226562 99.039062 L 245.433594 100.121094 L 245.625 101.207031 L 245.796875 102.296875 L 245.949219 103.390625 L 246.085938 104.484375 L 246.203125 105.578125 L 246.304688 106.675781 L 246.382812 107.777344 L 246.449219 108.878906 L 246.492188 109.980469 L 246.519531 111.082031 L 246.53125 112.183594 Z M 351.820312 112.183594 "/>
<path style="fill:none;stroke-width:1;stroke-linecap:butt;stroke-linejoin:miter;stroke:rgb(0%,0%,0%);stroke-opacity:1;stroke-dasharray:4,4;stroke-miterlimit:3.25;" d="M 246.53125 112.183594 L 246.53125 6.894531 "/>
<path style="fill:none;stroke-width:1;stroke-linecap:butt;stroke-linejoin:miter;stroke:rgb(0%,0%,0%);stroke-opacity:1;stroke-dasharray:4,4;stroke-miterlimit:3.25;" d="M 112.46875 112.183594 L 112.46875 6.894531 "/>
</g>
</svg>
