<?xml version="1.0" encoding="UTF-8"?>
<svg xmlns="http://www.w3.org/2000/svg" xmlns:xlink="http://www.w3.org/1999/xlink" width="283pt" height="75pt" viewBox="0 0 283 75" version="1.1">
<defs>
<clipPath id="clip1">
  <path d="M 7.921875 9 L 69 9 L 69 69.121094 L 7.921875 69.121094 Z M 7.921875 9 "/>
</clipPath>
<clipPath id="clip2">
  <path d="M 7.921875 23 L 55 23 L 55 69.121094 L 7.921875 69.121094 Z M 7.921875 23 "/>
</clipPath>
<clipPath id="clip3">
  <path d="M 7.921875 8 L 70 8 L 70 69.121094 L 7.921875 69.121094 Z M 7.921875 8 "/>
</clipPath>
<clipPath id="clip4">
  <path d="M 12 6 L 71.039062 6 L 71.039062 32 L 12 32 Z M 12 6 "/>
</clipPath>
<clipPath id="clip5">
  <path d="M 76.078125 9 L 137 9 L 137 69.121094 L 76.078125 69.121094 Z M 76.078125 9 "/>
</clipPath>
<clipPath id="clip6">
  <path d="M 76.078125 23 L 123 23 L 123 69.121094 L 76.078125 69.121094 Z M 76.078125 23 "/>
</clipPath>
<clipPath id="clip7">
  <path d="M 76.078125 8 L 138 8 L 138 69.121094 L 76.078125 69.121094 Z M 76.078125 8 "/>
</clipPath>
<clipPath id="clip8">
  <path d="M 85 6 L 139.199219 6 L 139.199219 49 L 85 49 Z M 85 6 "/>
</clipPath>
<clipPath id="clip9">
  <path d="M 144.238281 9 L 205 9 L 205 69.121094 L 144.238281 69.121094 Z M 144.238281 9 "/>
</clipPath>
<clipPath id="clip10">
  <path d="M 144.238281 23 L 191 23 L 191 69.121094 L 144.238281 69.121094 Z M 144.238281 23 "/>
</clipPath>
<clipPath id="clip11">
  <path d="M 144.238281 8 L 206 8 L 206 69.121094 L 144.238281 69.121094 Z M 144.238281 8 "/>
</clipPath>
<clipPath id="clip12">
  <path d="M 165 6 L 207.359375 6 L 207.359375 61 L 165 61 Z M 165 6 "/>
</clipPath>
<clipPath id="clip13">
  <path d="M 212.398438 9 L 273 9 L 273 69.121094 L 212.398438 69.121094 Z M 212.398438 9 "/>
</clipPath>
<clipPath id="clip14">
  <path d="M 212.398438 23 L 259 23 L 259 69.121094 L 212.398438 69.121094 Z M 212.398438 23 "/>
</clipPath>
<clipPath id="clip15">
  <path d="M 212.398438 8 L 274 8 L 274 69.121094 L 212.398438 69.121094 Z M 212.398438 8 "/>
</clipPath>
<clipPath id="clip16">
  <path d="M 250 6 L 275.519531 6 L 275.519531 65 L 250 65 Z M 250 6 "/>
</clipPath>
</defs>
<g id="surface103">
<g clip-path="url(#clip1)" clip-rule="nonzero">
<path style=" stroke:none;fill-rule:nonzero;fill:rgb(74.999619%,74.999619%,74.999619%);fill-opacity:1;" d="M -7.089844 24.144531 L 53.042969 24.144531 L 53.042969 84.28125 L 68.078125 84.28125 L 68.078125 9.109375 L -7.089844 9.109375 Z M -7.089844 24.144531 "/>
</g>
<g clip-path="url(#clip2)" clip-rule="nonzero">
<path style="fill:none;stroke-width:1.5;stroke-linecap:square;stroke-linejoin:miter;stroke:rgb(0%,0%,0%);stroke-opacity:1;stroke-miterlimit:3.25;" d="M -7.089844 24.144531 L 53.042969 24.144531 L 53.042969 84.28125 "/>
</g>
<g clip-path="url(#clip3)" clip-rule="nonzero">
<path style="fill:none;stroke-width:1.5;stroke-linecap:square;stroke-linejoin:miter;stroke:rgb(0%,0%,0%);stroke-opacity:1;stroke-miterlimit:3.25;" d="M -7.089844 9.109375 L 68.078125 9.109375 L 68.078125 84.28125 "/>
</g>
<path style=" stroke:none;fill-rule:nonzero;fill:rgb(100%,100%,86.999313%);fill-opacity:1;" d="M 53 23.316406 L 52.929688 22.785156 L 52.839844 22.261719 L 52.726562 21.746094 L 52.589844 21.242188 L 52.429688 20.75 L 52.253906 20.269531 L 52.050781 19.800781 L 51.832031 19.34375 L 51.59375 18.902344 L 51.335938 18.476562 L 51.058594 18.070312 L 50.765625 17.675781 L 50.457031 17.300781 L 50.132812 16.945312 L 49.789062 16.605469 L 49.433594 16.285156 L 49.066406 15.988281 L 48.683594 15.710938 L 48.289062 15.453125 L 47.886719 15.21875 L 47.472656 15.003906 L 47.050781 14.816406 L 46.617188 14.648438 L 46.179688 14.503906 L 45.734375 14.386719 L 45.285156 14.292969 L 44.832031 14.222656 L 44.378906 14.179688 L 43.921875 14.160156 L 43.464844 14.167969 L 43.011719 14.199219 L 42.558594 14.257812 L 42.105469 14.339844 L 41.660156 14.449219 L 41.21875 14.578125 L 40.785156 14.734375 L 40.355469 14.914062 L 39.9375 15.117188 L 39.527344 15.339844 L 39.128906 15.585938 L 38.742188 15.855469 L 38.367188 16.144531 L 38.007812 16.453125 L 37.660156 16.785156 L 37.324219 17.132812 L 37.007812 17.5 L 36.707031 17.882812 L 36.421875 18.285156 L 36.15625 18.703125 L 35.910156 19.136719 L 35.679688 19.585938 L 35.472656 20.046875 L 35.28125 20.523438 L 35.117188 21.011719 L 34.96875 21.511719 L 34.84375 22.019531 L 34.742188 22.539062 L 34.664062 23.066406 L 34.632812 23.316406 L 34.585938 23.355469 L 34.53125 23.394531 L 34.5 23.414062 L 34.46875 23.4375 L 34.433594 23.460938 L 34.398438 23.480469 L 34.363281 23.503906 L 34.285156 23.550781 L 34.242188 23.574219 L 34.195312 23.597656 L 34.152344 23.621094 L 34.105469 23.648438 L 34.003906 23.695312 L 33.839844 23.765625 L 33.777344 23.789062 L 33.71875 23.8125 L 33.65625 23.835938 L 33.589844 23.855469 L 33.523438 23.878906 L 33.457031 23.898438 L 33.386719 23.921875 L 33.316406 23.941406 L 33.242188 23.960938 L 33.164062 23.980469 L 33.085938 23.996094 L 33.007812 24.015625 L 32.84375 24.046875 L 32.757812 24.0625 L 32.671875 24.074219 L 32.492188 24.097656 L 32.398438 24.109375 L 32.210938 24.125 L 32.113281 24.132812 L 32.011719 24.136719 L 31.792969 24.144531 L 19.554688 24.144531 L 19.566406 23.894531 L 19.601562 23.367188 L 19.648438 22.839844 L 19.707031 22.324219 L 19.78125 21.816406 L 19.863281 21.3125 L 19.960938 20.820312 L 20.066406 20.335938 L 20.183594 19.859375 L 20.3125 19.390625 L 20.449219 18.933594 L 20.597656 18.488281 L 20.753906 18.050781 L 20.917969 17.625 L 21.09375 17.210938 L 21.273438 16.804688 L 21.460938 16.414062 L 21.65625 16.03125 L 21.859375 15.664062 L 22.0625 15.304688 L 22.273438 14.960938 L 22.492188 14.625 L 22.710938 14.304688 L 22.933594 13.996094 L 23.160156 13.699219 L 23.386719 13.417969 L 23.617188 13.144531 L 23.84375 12.886719 L 24.074219 12.644531 L 24.304688 12.410156 L 24.53125 12.191406 L 24.753906 11.988281 L 24.980469 11.792969 L 25.207031 11.605469 L 25.464844 11.402344 L 25.726562 11.207031 L 25.988281 11.023438 L 26.25 10.847656 L 26.511719 10.683594 L 26.773438 10.527344 L 27.039062 10.378906 L 27.300781 10.242188 L 27.558594 10.113281 L 27.820312 9.992188 L 28.078125 9.878906 L 28.332031 9.777344 L 28.585938 9.679688 L 28.839844 9.59375 L 29.085938 9.515625 L 29.332031 9.445312 L 29.578125 9.378906 L 29.816406 9.324219 L 30.054688 9.273438 L 30.289062 9.234375 L 30.515625 9.195312 L 30.742188 9.167969 L 30.964844 9.144531 L 31.179688 9.128906 L 31.390625 9.117188 L 55.945312 9.109375 L 56.140625 9.113281 L 56.339844 9.121094 L 56.554688 9.136719 L 56.773438 9.15625 L 56.996094 9.179688 L 57.222656 9.210938 L 57.453125 9.25 L 57.6875 9.296875 L 57.925781 9.347656 L 58.167969 9.410156 L 58.414062 9.476562 L 58.660156 9.550781 L 58.910156 9.632812 L 59.164062 9.726562 L 59.417969 9.824219 L 59.675781 9.929688 L 59.933594 10.046875 L 60.195312 10.171875 L 60.457031 10.304688 L 60.71875 10.445312 L 60.980469 10.597656 L 61.242188 10.757812 L 61.503906 10.929688 L 61.765625 11.109375 L 62.027344 11.296875 L 62.289062 11.496094 L 62.535156 11.695312 L 62.757812 11.882812 L 62.984375 12.082031 L 63.207031 12.292969 L 63.4375 12.519531 L 63.664062 12.753906 L 63.894531 13.007812 L 64.125 13.269531 L 64.351562 13.546875 L 64.578125 13.835938 L 64.804688 14.136719 L 65.027344 14.453125 L 65.242188 14.78125 L 65.457031 15.117188 L 65.667969 15.46875 L 65.871094 15.832031 L 66.066406 16.207031 L 66.257812 16.59375 L 66.445312 16.992188 L 66.621094 17.402344 L 66.792969 17.820312 L 66.953125 18.253906 L 67.105469 18.695312 L 67.25 19.144531 L 67.382812 19.609375 L 67.503906 20.078125 L 67.617188 20.558594 L 67.71875 21.046875 L 67.808594 21.546875 L 67.890625 22.050781 L 67.957031 22.5625 L 68.007812 23.085938 L 68.050781 23.613281 L 68.078125 24.144531 L 55.777344 24.144531 L 55.691406 24.140625 L 55.609375 24.136719 L 55.386719 24.125 L 55.238281 24.109375 L 55.097656 24.09375 L 55.03125 24.085938 L 54.960938 24.074219 L 54.894531 24.066406 L 54.828125 24.054688 L 54.640625 24.019531 L 54.578125 24.003906 L 54.515625 23.992188 L 54.398438 23.960938 L 54.34375 23.949219 L 54.125 23.886719 L 54.074219 23.867188 L 54.023438 23.851562 L 53.976562 23.835938 L 53.929688 23.816406 L 53.882812 23.800781 L 53.835938 23.78125 L 53.789062 23.765625 L 53.703125 23.726562 L 53.664062 23.710938 L 53.621094 23.691406 L 53.582031 23.671875 L 53.546875 23.65625 L 53.507812 23.636719 L 53.4375 23.597656 L 53.402344 23.582031 L 53.371094 23.5625 L 53.339844 23.546875 L 53.277344 23.507812 L 53.25 23.492188 L 53.222656 23.472656 L 53.167969 23.441406 L 53.144531 23.421875 L 53.097656 23.390625 L 53.078125 23.375 L 53.054688 23.359375 L 53.035156 23.34375 L 53.019531 23.328125 Z M 53 23.316406 "/>
<g clip-path="url(#clip4)" clip-rule="nonzero">
<path style="fill:none;stroke-width:1.5;stroke-linecap:square;stroke-linejoin:miter;stroke:rgb(0%,0%,0%);stroke-opacity:1;stroke-miterlimit:3.25;" d="M 53 23.316406 L 52.929688 22.785156 L 52.839844 22.261719 L 52.726562 21.746094 L 52.589844 21.242188 L 52.429688 20.75 L 52.253906 20.269531 L 52.050781 19.800781 L 51.832031 19.34375 L 51.59375 18.902344 L 51.335938 18.476562 L 51.058594 18.070312 L 50.765625 17.675781 L 50.457031 17.300781 L 50.132812 16.945312 L 49.789062 16.605469 L 49.433594 16.285156 L 49.066406 15.988281 L 48.683594 15.710938 L 48.289062 15.453125 L 47.886719 15.21875 L 47.472656 15.003906 L 47.050781 14.816406 L 46.617188 14.648438 L 46.179688 14.503906 L 45.734375 14.386719 L 45.285156 14.292969 L 44.832031 14.222656 L 44.378906 14.179688 L 43.921875 14.160156 L 43.464844 14.167969 L 43.011719 14.199219 L 42.558594 14.257812 L 42.105469 14.339844 L 41.660156 14.449219 L 41.21875 14.578125 L 40.785156 14.734375 L 40.355469 14.914062 L 39.9375 15.117188 L 39.527344 15.339844 L 39.128906 15.585938 L 38.742188 15.855469 L 38.367188 16.144531 L 38.007812 16.453125 L 37.660156 16.785156 L 37.324219 17.132812 L 37.007812 17.5 L 36.707031 17.882812 L 36.421875 18.285156 L 36.15625 18.703125 L 35.910156 19.136719 L 35.679688 19.585938 L 35.472656 20.046875 L 35.28125 20.523438 L 35.117188 21.011719 L 34.96875 21.511719 L 34.84375 22.019531 L 34.742188 22.539062 L 34.664062 23.066406 L 34.632812 23.316406 L 34.585938 23.355469 L 34.53125 23.394531 L 34.5 23.414062 L 34.46875 23.4375 L 34.433594 23.460938 L 34.398438 23.480469 L 34.363281 23.503906 L 34.285156 23.550781 L 34.242188 23.574219 L 34.195312 23.597656 L 34.152344 23.621094 L 34.105469 23.648438 L 34.003906 23.695312 L 33.839844 23.765625 L 33.777344 23.789062 L 33.71875 23.8125 L 33.65625 23.835938 L 33.589844 23.855469 L 33.523438 23.878906 L 33.457031 23.898438 L 33.386719 23.921875 L 33.316406 23.941406 L 33.242188 23.960938 L 33.164062 23.980469 L 33.085938 23.996094 L 33.007812 24.015625 L 32.84375 24.046875 L 32.757812 24.0625 L 32.671875 24.074219 L 32.492188 24.097656 L 32.398438 24.109375 L 32.210938 24.125 L 32.113281 24.132812 L 32.011719 24.136719 L 31.792969 24.144531 L 19.554688 24.144531 L 19.566406 23.894531 L 19.601562 23.367188 L 19.648438 22.839844 L 19.707031 22.324219 L 19.78125 21.816406 L 19.863281 21.3125 L 19.960938 20.820312 L 20.066406 20.335938 L 20.183594 19.859375 L 20.3125 19.390625 L 20.449219 18.933594 L 20.597656 18.488281 L 20.753906 18.050781 L 20.917969 17.625 L 21.09375 17.210938 L 21.273438 16.804688 L 21.460938 16.414062 L 21.65625 16.03125 L 21.859375 15.664062 L 22.0625 15.304688 L 22.273438 14.960938 L 22.492188 14.625 L 22.710938 14.304688 L 22.933594 13.996094 L 23.160156 13.699219 L 23.386719 13.417969 L 23.617188 13.144531 L 23.84375 12.886719 L 24.074219 12.644531 L 24.304688 12.410156 L 24.53125 12.191406 L 24.753906 11.988281 L 24.980469 11.792969 L 25.207031 11.605469 L 25.464844 11.402344 L 25.726562 11.207031 L 25.988281 11.023438 L 26.25 10.847656 L 26.511719 10.683594 L 26.773438 10.527344 L 27.039062 10.378906 L 27.300781 10.242188 L 27.558594 10.113281 L 27.820312 9.992188 L 28.078125 9.878906 L 28.332031 9.777344 L 28.585938 9.679688 L 28.839844 9.59375 L 29.085938 9.515625 L 29.332031 9.445312 L 29.578125 9.378906 L 29.816406 9.324219 L 30.054688 9.273438 L 30.289062 9.234375 L 30.515625 9.195312 L 30.742188 9.167969 L 30.964844 9.144531 L 31.179688 9.128906 L 31.390625 9.117188 L 55.945312 9.109375 L 56.140625 9.113281 L 56.339844 9.121094 L 56.554688 9.136719 L 56.773438 9.15625 L 56.996094 9.179688 L 57.222656 9.210938 L 57.453125 9.25 L 57.6875 9.296875 L 57.925781 9.347656 L 58.167969 9.410156 L 58.414062 9.476562 L 58.660156 9.550781 L 58.910156 9.632812 L 59.164062 9.726562 L 59.417969 9.824219 L 59.675781 9.929688 L 59.933594 10.046875 L 60.195312 10.171875 L 60.457031 10.304688 L 60.71875 10.445312 L 60.980469 10.597656 L 61.242188 10.757812 L 61.503906 10.929688 L 61.765625 11.109375 L 62.027344 11.296875 L 62.289062 11.496094 L 62.535156 11.695312 L 62.757812 11.882812 L 62.984375 12.082031 L 63.207031 12.292969 L 63.4375 12.519531 L 63.664062 12.753906 L 63.894531 13.007812 L 64.125 13.269531 L 64.351562 13.546875 L 64.578125 13.835938 L 64.804688 14.136719 L 65.027344 14.453125 L 65.242188 14.78125 L 65.457031 15.117188 L 65.667969 15.46875 L 65.871094 15.832031 L 66.066406 16.207031 L 66.257812 16.59375 L 66.445312 16.992188 L 66.621094 17.402344 L 66.792969 17.820312 L 66.953125 18.253906 L 67.105469 18.695312 L 67.25 19.144531 L 67.382812 19.609375 L 67.503906 20.078125 L 67.617188 20.558594 L 67.71875 21.046875 L 67.808594 21.546875 L 67.890625 22.050781 L 67.957031 22.5625 L 68.007812 23.085938 L 68.050781 23.613281 L 68.078125 24.144531 L 55.777344 24.144531 L 55.691406 24.140625 L 55.609375 24.136719 L 55.386719 24.125 L 55.238281 24.109375 L 55.097656 24.09375 L 55.03125 24.085938 L 54.960938 24.074219 L 54.894531 24.066406 L 54.828125 24.054688 L 54.640625 24.019531 L 54.578125 24.003906 L 54.515625 23.992188 L 54.398438 23.960938 L 54.34375 23.949219 L 54.125 23.886719 L 54.074219 23.867188 L 54.023438 23.851562 L 53.976562 23.835938 L 53.929688 23.816406 L 53.882812 23.800781 L 53.835938 23.78125 L 53.789062 23.765625 L 53.703125 23.726562 L 53.664062 23.710938 L 53.621094 23.691406 L 53.582031 23.671875 L 53.546875 23.65625 L 53.507812 23.636719 L 53.4375 23.597656 L 53.402344 23.582031 L 53.371094 23.5625 L 53.339844 23.546875 L 53.277344 23.507812 L 53.25 23.492188 L 53.222656 23.472656 L 53.167969 23.441406 L 53.144531 23.421875 L 53.097656 23.390625 L 53.078125 23.375 L 53.054688 23.359375 L 53.035156 23.34375 L 53.019531 23.328125 Z M 53 23.316406 "/>
</g>
<g clip-path="url(#clip5)" clip-rule="nonzero">
<path style=" stroke:none;fill-rule:nonzero;fill:rgb(74.999619%,74.999619%,74.999619%);fill-opacity:1;" d="M 61.101562 24.144531 L 121.238281 24.144531 L 121.238281 84.28125 L 136.269531 84.28125 L 136.269531 9.109375 L 61.101562 9.109375 Z M 61.101562 24.144531 "/>
</g>
<g clip-path="url(#clip6)" clip-rule="nonzero">
<path style="fill:none;stroke-width:1.5;stroke-linecap:square;stroke-linejoin:miter;stroke:rgb(0%,0%,0%);stroke-opacity:1;stroke-miterlimit:3.25;" d="M 61.101562 24.144531 L 121.238281 24.144531 L 121.238281 84.28125 "/>
</g>
<g clip-path="url(#clip7)" clip-rule="nonzero">
<path style="fill:none;stroke-width:1.5;stroke-linecap:square;stroke-linejoin:miter;stroke:rgb(0%,0%,0%);stroke-opacity:1;stroke-miterlimit:3.25;" d="M 61.101562 9.109375 L 136.269531 9.109375 L 136.269531 84.28125 "/>
</g>
<path style=" stroke:none;fill-rule:nonzero;fill:rgb(100%,100%,86.999313%);fill-opacity:1;" d="M 121.378906 33.296875 L 121.585938 32.804688 L 121.765625 32.304688 L 121.925781 31.800781 L 122.058594 31.296875 L 122.167969 30.792969 L 122.253906 30.285156 L 122.316406 29.78125 L 122.355469 29.277344 L 122.367188 28.773438 L 122.355469 28.277344 L 122.324219 27.785156 L 122.265625 27.296875 L 122.183594 26.820312 L 122.082031 26.347656 L 121.953125 25.882812 L 121.804688 25.429688 L 121.636719 24.984375 L 121.445312 24.554688 L 121.230469 24.136719 L 121 23.730469 L 120.746094 23.339844 L 120.476562 22.960938 L 120.183594 22.601562 L 119.878906 22.257812 L 119.550781 21.933594 L 119.210938 21.625 L 118.851562 21.339844 L 118.480469 21.074219 L 118.097656 20.832031 L 117.699219 20.609375 L 117.285156 20.410156 L 116.863281 20.230469 L 116.433594 20.078125 L 115.992188 19.949219 L 115.542969 19.84375 L 115.089844 19.761719 L 114.628906 19.703125 L 114.167969 19.667969 L 113.699219 19.65625 L 113.230469 19.671875 L 112.761719 19.710938 L 112.292969 19.773438 L 111.824219 19.859375 L 111.359375 19.972656 L 110.894531 20.105469 L 110.4375 20.265625 L 109.984375 20.449219 L 109.539062 20.65625 L 109.097656 20.882812 L 108.667969 21.136719 L 108.246094 21.410156 L 107.832031 21.707031 L 107.429688 22.023438 L 107.042969 22.359375 L 106.664062 22.71875 L 106.304688 23.097656 L 105.957031 23.496094 L 105.621094 23.914062 L 105.472656 24.117188 L 105.378906 24.128906 L 105.308594 24.136719 L 105.269531 24.136719 L 105.230469 24.140625 L 105.1875 24.144531 L 104.953125 24.144531 L 104.902344 24.140625 L 104.738281 24.128906 L 104.679688 24.121094 L 104.621094 24.117188 L 104.558594 24.109375 L 104.496094 24.097656 L 104.433594 24.089844 L 104.367188 24.078125 L 104.300781 24.0625 L 104.230469 24.050781 L 104.160156 24.035156 L 104.089844 24.015625 L 104.019531 24 L 103.945312 23.976562 L 103.871094 23.957031 L 103.714844 23.910156 L 103.558594 23.855469 L 103.394531 23.792969 L 103.308594 23.757812 L 103.226562 23.722656 L 103.140625 23.6875 L 103.054688 23.648438 L 102.96875 23.605469 L 102.878906 23.5625 L 102.792969 23.515625 L 102.597656 23.414062 L 92 17.296875 L 92.132812 17.085938 L 92.429688 16.640625 L 92.730469 16.210938 L 93.042969 15.792969 L 93.359375 15.390625 L 93.683594 14.996094 L 94.011719 14.617188 L 94.347656 14.25 L 94.6875 13.898438 L 95.03125 13.558594 L 95.378906 13.230469 L 95.730469 12.917969 L 96.085938 12.617188 L 96.441406 12.332031 L 96.800781 12.058594 L 97.15625 11.796875 L 97.515625 11.550781 L 97.875 11.320312 L 98.234375 11.101562 L 98.59375 10.894531 L 98.949219 10.699219 L 99.300781 10.519531 L 99.652344 10.351562 L 100 10.195312 L 100.34375 10.050781 L 100.683594 9.917969 L 101.015625 9.800781 L 101.34375 9.691406 L 101.664062 9.59375 L 101.976562 9.507812 L 102.285156 9.429688 L 102.582031 9.367188 L 102.875 9.308594 L 103.164062 9.261719 L 103.488281 9.214844 L 103.8125 9.175781 L 104.132812 9.148438 L 104.445312 9.128906 L 104.757812 9.117188 L 105.0625 9.109375 L 105.363281 9.113281 L 105.65625 9.125 L 105.949219 9.144531 L 106.234375 9.167969 L 106.511719 9.203125 L 106.785156 9.238281 L 107.054688 9.285156 L 107.316406 9.335938 L 107.570312 9.390625 L 107.820312 9.453125 L 108.0625 9.519531 L 108.296875 9.589844 L 108.527344 9.667969 L 108.75 9.746094 L 108.96875 9.828125 L 109.175781 9.917969 L 109.378906 10.007812 L 109.574219 10.101562 L 109.765625 10.199219 L 131.035156 22.472656 L 131.199219 22.570312 L 131.367188 22.675781 L 131.546875 22.796875 L 131.726562 22.921875 L 131.90625 23.054688 L 132.085938 23.195312 L 132.269531 23.347656 L 132.449219 23.503906 L 132.628906 23.667969 L 132.808594 23.839844 L 132.988281 24.019531 L 133.164062 24.210938 L 133.339844 24.40625 L 133.511719 24.613281 L 133.683594 24.824219 L 133.851562 25.046875 L 134.019531 25.277344 L 134.183594 25.511719 L 134.339844 25.757812 L 134.496094 26.011719 L 134.648438 26.277344 L 134.796875 26.546875 L 134.9375 26.824219 L 135.074219 27.109375 L 135.207031 27.40625 L 135.332031 27.707031 L 135.449219 28.003906 L 135.546875 28.277344 L 135.640625 28.5625 L 135.730469 28.859375 L 135.816406 29.167969 L 135.894531 29.488281 L 135.96875 29.816406 L 136.035156 30.160156 L 136.09375 30.515625 L 136.148438 30.878906 L 136.191406 31.253906 L 136.222656 31.636719 L 136.25 32.027344 L 136.265625 32.429688 L 136.269531 32.835938 L 136.265625 33.253906 L 136.25 33.675781 L 136.222656 34.109375 L 136.183594 34.546875 L 136.132812 34.988281 L 136.070312 35.4375 L 135.992188 35.890625 L 135.90625 36.351562 L 135.804688 36.8125 L 135.6875 37.277344 L 135.558594 37.75 L 135.417969 38.21875 L 135.261719 38.695312 L 135.089844 39.171875 L 134.90625 39.648438 L 134.707031 40.125 L 134.492188 40.601562 L 134.265625 41.082031 L 134.023438 41.554688 L 123.515625 35.492188 L 123.441406 35.449219 L 123.371094 35.402344 L 123.296875 35.359375 L 123.164062 35.273438 L 123.101562 35.234375 L 123.039062 35.191406 L 122.921875 35.105469 L 122.863281 35.066406 L 122.644531 34.894531 L 122.59375 34.851562 L 122.542969 34.8125 L 122.496094 34.769531 L 122.445312 34.726562 L 122.402344 34.683594 L 122.355469 34.644531 L 122.269531 34.558594 L 122.226562 34.519531 L 122.144531 34.4375 L 122.105469 34.394531 L 122 34.277344 L 121.964844 34.234375 L 121.933594 34.195312 L 121.898438 34.160156 L 121.867188 34.121094 L 121.839844 34.082031 L 121.808594 34.046875 L 121.78125 34.007812 L 121.757812 33.972656 L 121.730469 33.933594 L 121.707031 33.898438 L 121.679688 33.863281 L 121.660156 33.832031 L 121.636719 33.796875 L 121.617188 33.761719 L 121.59375 33.730469 L 121.574219 33.699219 L 121.558594 33.667969 L 121.539062 33.636719 L 121.523438 33.605469 L 121.507812 33.578125 L 121.492188 33.546875 L 121.476562 33.519531 L 121.464844 33.492188 L 121.449219 33.464844 L 121.4375 33.4375 L 121.414062 33.390625 L 121.40625 33.363281 L 121.394531 33.34375 Z M 121.378906 33.296875 "/>
<g clip-path="url(#clip8)" clip-rule="nonzero">
<path style="fill:none;stroke-width:1.5;stroke-linecap:square;stroke-linejoin:miter;stroke:rgb(0%,0%,0%);stroke-opacity:1;stroke-miterlimit:3.25;" d="M 121.378906 33.296875 L 121.585938 32.804688 L 121.765625 32.304688 L 121.925781 31.800781 L 122.058594 31.296875 L 122.167969 30.792969 L 122.253906 30.285156 L 122.316406 29.78125 L 122.355469 29.277344 L 122.367188 28.773438 L 122.355469 28.277344 L 122.324219 27.785156 L 122.265625 27.296875 L 122.183594 26.820312 L 122.082031 26.347656 L 121.953125 25.882812 L 121.804688 25.429688 L 121.636719 24.984375 L 121.445312 24.554688 L 121.230469 24.136719 L 121 23.730469 L 120.746094 23.339844 L 120.476562 22.960938 L 120.183594 22.601562 L 119.878906 22.257812 L 119.550781 21.933594 L 119.210938 21.625 L 118.851562 21.339844 L 118.480469 21.074219 L 118.097656 20.832031 L 117.699219 20.609375 L 117.285156 20.410156 L 116.863281 20.230469 L 116.433594 20.078125 L 115.992188 19.949219 L 115.542969 19.84375 L 115.089844 19.761719 L 114.628906 19.703125 L 114.167969 19.667969 L 113.699219 19.65625 L 113.230469 19.671875 L 112.761719 19.710938 L 112.292969 19.773438 L 111.824219 19.859375 L 111.359375 19.972656 L 110.894531 20.105469 L 110.4375 20.265625 L 109.984375 20.449219 L 109.539062 20.65625 L 109.097656 20.882812 L 108.667969 21.136719 L 108.246094 21.410156 L 107.832031 21.707031 L 107.429688 22.023438 L 107.042969 22.359375 L 106.664062 22.71875 L 106.304688 23.097656 L 105.957031 23.496094 L 105.621094 23.914062 L 105.472656 24.117188 L 105.378906 24.128906 L 105.308594 24.136719 L 105.269531 24.136719 L 105.230469 24.140625 L 105.1875 24.144531 L 104.953125 24.144531 L 104.902344 24.140625 L 104.738281 24.128906 L 104.679688 24.121094 L 104.621094 24.117188 L 104.558594 24.109375 L 104.496094 24.097656 L 104.433594 24.089844 L 104.367188 24.078125 L 104.300781 24.0625 L 104.230469 24.050781 L 104.160156 24.035156 L 104.089844 24.015625 L 104.019531 24 L 103.945312 23.976562 L 103.871094 23.957031 L 103.714844 23.910156 L 103.558594 23.855469 L 103.394531 23.792969 L 103.308594 23.757812 L 103.226562 23.722656 L 103.140625 23.6875 L 103.054688 23.648438 L 102.96875 23.605469 L 102.878906 23.5625 L 102.792969 23.515625 L 102.597656 23.414062 L 92 17.296875 L 92.132812 17.085938 L 92.429688 16.640625 L 92.730469 16.210938 L 93.042969 15.792969 L 93.359375 15.390625 L 93.683594 14.996094 L 94.011719 14.617188 L 94.347656 14.25 L 94.6875 13.898438 L 95.03125 13.558594 L 95.378906 13.230469 L 95.730469 12.917969 L 96.085938 12.617188 L 96.441406 12.332031 L 96.800781 12.058594 L 97.15625 11.796875 L 97.515625 11.550781 L 97.875 11.320312 L 98.234375 11.101562 L 98.59375 10.894531 L 98.949219 10.699219 L 99.300781 10.519531 L 99.652344 10.351562 L 100 10.195312 L 100.34375 10.050781 L 100.683594 9.917969 L 101.015625 9.800781 L 101.34375 9.691406 L 101.664062 9.59375 L 101.976562 9.507812 L 102.285156 9.429688 L 102.582031 9.367188 L 102.875 9.308594 L 103.164062 9.261719 L 103.488281 9.214844 L 103.8125 9.175781 L 104.132812 9.148438 L 104.445312 9.128906 L 104.757812 9.117188 L 105.0625 9.109375 L 105.363281 9.113281 L 105.65625 9.125 L 105.949219 9.144531 L 106.234375 9.167969 L 106.511719 9.203125 L 106.785156 9.238281 L 107.054688 9.285156 L 107.316406 9.335938 L 107.570312 9.390625 L 107.820312 9.453125 L 108.0625 9.519531 L 108.296875 9.589844 L 108.527344 9.667969 L 108.75 9.746094 L 108.96875 9.828125 L 109.175781 9.917969 L 109.378906 10.007812 L 109.574219 10.101562 L 109.765625 10.199219 L 131.035156 22.472656 L 131.199219 22.570312 L 131.367188 22.675781 L 131.546875 22.796875 L 131.726562 22.921875 L 131.90625 23.054688 L 132.085938 23.195312 L 132.269531 23.347656 L 132.449219 23.503906 L 132.628906 23.667969 L 132.808594 23.839844 L 132.988281 24.019531 L 133.164062 24.210938 L 133.339844 24.40625 L 133.511719 24.613281 L 133.683594 24.824219 L 133.851562 25.046875 L 134.019531 25.277344 L 134.183594 25.511719 L 134.339844 25.757812 L 134.496094 26.011719 L 134.648438 26.277344 L 134.796875 26.546875 L 134.9375 26.824219 L 135.074219 27.109375 L 135.207031 27.40625 L 135.332031 27.707031 L 135.449219 28.003906 L 135.546875 28.277344 L 135.640625 28.5625 L 135.730469 28.859375 L 135.816406 29.167969 L 135.894531 29.488281 L 135.96875 29.816406 L 136.035156 30.160156 L 136.09375 30.515625 L 136.148438 30.878906 L 136.191406 31.253906 L 136.222656 31.636719 L 136.25 32.027344 L 136.265625 32.429688 L 136.269531 32.835938 L 136.265625 33.253906 L 136.25 33.675781 L 136.222656 34.109375 L 136.183594 34.546875 L 136.132812 34.988281 L 136.070312 35.4375 L 135.992188 35.890625 L 135.90625 36.351562 L 135.804688 36.8125 L 135.6875 37.277344 L 135.558594 37.75 L 135.417969 38.21875 L 135.261719 38.695312 L 135.089844 39.171875 L 134.90625 39.648438 L 134.707031 40.125 L 134.492188 40.601562 L 134.265625 41.082031 L 134.023438 41.554688 L 123.515625 35.492188 L 123.441406 35.449219 L 123.371094 35.402344 L 123.296875 35.359375 L 123.164062 35.273438 L 123.101562 35.234375 L 123.039062 35.191406 L 122.921875 35.105469 L 122.863281 35.066406 L 122.644531 34.894531 L 122.59375 34.851562 L 122.542969 34.8125 L 122.496094 34.769531 L 122.445312 34.726562 L 122.402344 34.683594 L 122.355469 34.644531 L 122.269531 34.558594 L 122.226562 34.519531 L 122.144531 34.4375 L 122.105469 34.394531 L 122 34.277344 L 121.964844 34.234375 L 121.933594 34.195312 L 121.898438 34.160156 L 121.867188 34.121094 L 121.839844 34.082031 L 121.808594 34.046875 L 121.78125 34.007812 L 121.757812 33.972656 L 121.730469 33.933594 L 121.707031 33.898438 L 121.679688 33.863281 L 121.660156 33.832031 L 121.636719 33.796875 L 121.617188 33.761719 L 121.59375 33.730469 L 121.574219 33.699219 L 121.558594 33.667969 L 121.539062 33.636719 L 121.523438 33.605469 L 121.507812 33.578125 L 121.492188 33.546875 L 121.476562 33.519531 L 121.464844 33.492188 L 121.449219 33.464844 L 121.4375 33.4375 L 121.414062 33.390625 L 121.40625 33.363281 L 121.394531 33.34375 Z M 121.378906 33.296875 "/>
</g>
<g clip-path="url(#clip9)" clip-rule="nonzero">
<path style=" stroke:none;fill-rule:nonzero;fill:rgb(74.999619%,74.999619%,74.999619%);fill-opacity:1;" d="M 129.296875 24.144531 L 189.429688 24.144531 L 189.429688 84.28125 L 204.464844 84.28125 L 204.464844 9.109375 L 129.296875 9.109375 Z M 129.296875 24.144531 "/>
</g>
<g clip-path="url(#clip10)" clip-rule="nonzero">
<path style="fill:none;stroke-width:1.5;stroke-linecap:square;stroke-linejoin:miter;stroke:rgb(0%,0%,0%);stroke-opacity:1;stroke-miterlimit:3.25;" d="M 129.296875 24.144531 L 189.429688 24.144531 L 189.429688 84.28125 "/>
</g>
<g clip-path="url(#clip11)" clip-rule="nonzero">
<path style="fill:none;stroke-width:1.5;stroke-linecap:square;stroke-linejoin:miter;stroke:rgb(0%,0%,0%);stroke-opacity:1;stroke-miterlimit:3.25;" d="M 129.296875 9.109375 L 204.464844 9.109375 L 204.464844 84.28125 "/>
</g>
<path style=" stroke:none;fill-rule:nonzero;fill:rgb(100%,100%,86.999313%);fill-opacity:1;" d="M 189.460938 39.910156 L 189.886719 39.582031 L 190.292969 39.242188 L 190.679688 38.886719 L 191.050781 38.515625 L 191.398438 38.132812 L 191.726562 37.738281 L 192.03125 37.332031 L 192.316406 36.914062 L 192.578125 36.484375 L 192.816406 36.050781 L 193.035156 35.605469 L 193.226562 35.15625 L 193.398438 34.699219 L 193.542969 34.238281 L 193.667969 33.773438 L 193.765625 33.308594 L 193.839844 32.839844 L 193.886719 32.367188 L 193.914062 31.898438 L 193.914062 31.433594 L 193.890625 30.96875 L 193.84375 30.503906 L 193.773438 30.050781 L 193.679688 29.597656 L 193.558594 29.152344 L 193.417969 28.714844 L 193.25 28.289062 L 193.0625 27.875 L 192.851562 27.46875 L 192.617188 27.078125 L 192.359375 26.699219 L 192.085938 26.335938 L 191.785156 25.988281 L 191.46875 25.652344 L 191.132812 25.339844 L 190.78125 25.039062 L 190.414062 24.757812 L 190.027344 24.496094 L 189.628906 24.257812 L 189.21875 24.035156 L 188.792969 23.832031 L 188.355469 23.652344 L 187.90625 23.492188 L 187.445312 23.355469 L 186.976562 23.242188 L 186.5 23.152344 L 186.015625 23.082031 L 185.527344 23.039062 L 185.03125 23.015625 L 184.53125 23.019531 L 184.03125 23.046875 L 183.523438 23.09375 L 183.019531 23.167969 L 182.511719 23.269531 L 182.007812 23.390625 L 181.503906 23.539062 L 181.003906 23.710938 L 180.507812 23.90625 L 180.277344 24.003906 L 180.25 23.992188 L 180.1875 23.96875 L 180.15625 23.953125 L 180.121094 23.9375 L 180.050781 23.902344 L 180.015625 23.882812 L 179.976562 23.863281 L 179.898438 23.816406 L 179.855469 23.792969 L 179.769531 23.738281 L 179.722656 23.710938 L 179.679688 23.679688 L 179.632812 23.648438 L 179.539062 23.578125 L 179.4375 23.5 L 179.390625 23.460938 L 179.335938 23.417969 L 179.234375 23.324219 L 179.179688 23.277344 L 179.128906 23.226562 L 179.074219 23.175781 L 179.019531 23.121094 L 178.96875 23.0625 L 178.859375 22.945312 L 178.800781 22.882812 L 178.746094 22.820312 L 178.691406 22.753906 L 178.582031 22.613281 L 178.472656 22.464844 L 178.363281 22.308594 L 178.253906 22.144531 L 178.195312 22.054688 L 178.136719 21.957031 L 172.019531 11.359375 L 172.242188 11.246094 L 172.71875 11.007812 L 173.195312 10.789062 L 173.671875 10.582031 L 174.148438 10.390625 L 174.625 10.210938 L 175.101562 10.046875 L 175.574219 9.898438 L 176.046875 9.761719 L 176.511719 9.636719 L 176.976562 9.53125 L 177.4375 9.433594 L 177.894531 9.351562 L 178.347656 9.28125 L 178.792969 9.222656 L 179.234375 9.179688 L 179.667969 9.144531 L 180.09375 9.125 L 180.515625 9.113281 L 180.929688 9.113281 L 181.332031 9.121094 L 181.730469 9.144531 L 182.117188 9.171875 L 182.496094 9.210938 L 182.867188 9.257812 L 183.226562 9.3125 L 183.574219 9.375 L 183.914062 9.445312 L 184.238281 9.523438 L 184.554688 9.605469 L 184.855469 9.691406 L 185.148438 9.785156 L 185.429688 9.878906 L 185.703125 9.984375 L 186.007812 10.105469 L 186.308594 10.234375 L 186.597656 10.371094 L 186.882812 10.507812 L 187.15625 10.652344 L 187.421875 10.804688 L 187.679688 10.957031 L 187.929688 11.113281 L 188.171875 11.273438 L 188.40625 11.441406 L 188.632812 11.605469 L 188.851562 11.777344 L 189.058594 11.949219 L 189.261719 12.125 L 189.453125 12.300781 L 189.640625 12.476562 L 189.816406 12.65625 L 189.984375 12.835938 L 190.144531 13.015625 L 190.300781 13.199219 L 190.445312 13.378906 L 190.582031 13.558594 L 190.714844 13.738281 L 190.835938 13.917969 L 190.953125 14.097656 L 203.234375 35.359375 L 203.328125 35.527344 L 203.421875 35.703125 L 203.515625 35.898438 L 203.609375 36.097656 L 203.699219 36.300781 L 203.785156 36.515625 L 203.867188 36.734375 L 203.945312 36.960938 L 204.019531 37.191406 L 204.085938 37.433594 L 204.152344 37.679688 L 204.210938 37.929688 L 204.265625 38.1875 L 204.3125 38.453125 L 204.355469 38.722656 L 204.390625 39 L 204.417969 39.28125 L 204.441406 39.566406 L 204.457031 39.859375 L 204.464844 40.460938 L 204.457031 40.769531 L 204.4375 41.082031 L 204.414062 41.398438 L 204.382812 41.71875 L 204.339844 42.042969 L 204.292969 42.355469 L 204.242188 42.644531 L 204.179688 42.9375 L 204.109375 43.238281 L 204.027344 43.546875 L 203.9375 43.867188 L 203.835938 44.191406 L 203.722656 44.519531 L 203.597656 44.855469 L 203.457031 45.199219 L 203.308594 45.542969 L 203.148438 45.890625 L 202.972656 46.246094 L 202.785156 46.597656 L 202.585938 46.957031 L 202.375 47.3125 L 202.148438 47.671875 L 201.910156 48.03125 L 201.65625 48.390625 L 201.390625 48.75 L 201.113281 49.105469 L 200.820312 49.460938 L 200.515625 49.8125 L 200.195312 50.164062 L 199.863281 50.511719 L 199.515625 50.851562 L 199.15625 51.191406 L 198.785156 51.523438 L 198.398438 51.851562 L 198 52.171875 L 197.589844 52.484375 L 197.164062 52.792969 L 196.726562 53.089844 L 196.28125 53.382812 L 190.214844 42.875 L 190.171875 42.800781 L 190.132812 42.726562 L 190.089844 42.652344 L 190.019531 42.511719 L 189.984375 42.445312 L 189.890625 42.246094 L 189.863281 42.179688 L 189.835938 42.117188 L 189.808594 42.050781 L 189.78125 41.988281 L 189.710938 41.800781 L 189.691406 41.738281 L 189.632812 41.5625 L 189.617188 41.503906 L 189.597656 41.445312 L 189.582031 41.390625 L 189.570312 41.332031 L 189.554688 41.277344 L 189.53125 41.167969 L 189.507812 41.066406 L 189.5 41.015625 L 189.488281 40.964844 L 189.480469 40.914062 L 189.472656 40.867188 L 189.464844 40.816406 L 189.460938 40.769531 L 189.453125 40.726562 L 189.449219 40.679688 L 189.4375 40.550781 L 189.4375 40.507812 L 189.433594 40.46875 L 189.433594 40.429688 L 189.429688 40.390625 L 189.429688 40.246094 L 189.433594 40.214844 L 189.433594 40.148438 L 189.4375 40.117188 L 189.4375 40.089844 L 189.441406 40.058594 L 189.445312 40.03125 L 189.445312 40.003906 L 189.453125 39.957031 L 189.457031 39.929688 Z M 189.460938 39.910156 "/>
<g clip-path="url(#clip12)" clip-rule="nonzero">
<path style="fill:none;stroke-width:1.5;stroke-linecap:square;stroke-linejoin:miter;stroke:rgb(0%,0%,0%);stroke-opacity:1;stroke-miterlimit:3.25;" d="M 189.460938 39.910156 L 189.886719 39.582031 L 190.292969 39.242188 L 190.679688 38.886719 L 191.050781 38.515625 L 191.398438 38.132812 L 191.726562 37.738281 L 192.03125 37.332031 L 192.316406 36.914062 L 192.578125 36.484375 L 192.816406 36.050781 L 193.035156 35.605469 L 193.226562 35.15625 L 193.398438 34.699219 L 193.542969 34.238281 L 193.667969 33.773438 L 193.765625 33.308594 L 193.839844 32.839844 L 193.886719 32.367188 L 193.914062 31.898438 L 193.914062 31.433594 L 193.890625 30.96875 L 193.84375 30.503906 L 193.773438 30.050781 L 193.679688 29.597656 L 193.558594 29.152344 L 193.417969 28.714844 L 193.25 28.289062 L 193.0625 27.875 L 192.851562 27.46875 L 192.617188 27.078125 L 192.359375 26.699219 L 192.085938 26.335938 L 191.785156 25.988281 L 191.46875 25.652344 L 191.132812 25.339844 L 190.78125 25.039062 L 190.414062 24.757812 L 190.027344 24.496094 L 189.628906 24.257812 L 189.21875 24.035156 L 188.792969 23.832031 L 188.355469 23.652344 L 187.90625 23.492188 L 187.445312 23.355469 L 186.976562 23.242188 L 186.5 23.152344 L 186.015625 23.082031 L 185.527344 23.039062 L 185.03125 23.015625 L 184.53125 23.019531 L 184.03125 23.046875 L 183.523438 23.09375 L 183.019531 23.167969 L 182.511719 23.269531 L 182.007812 23.390625 L 181.503906 23.539062 L 181.003906 23.710938 L 180.507812 23.90625 L 180.277344 24.003906 L 180.25 23.992188 L 180.1875 23.96875 L 180.15625 23.953125 L 180.121094 23.9375 L 180.050781 23.902344 L 180.015625 23.882812 L 179.976562 23.863281 L 179.898438 23.816406 L 179.855469 23.792969 L 179.769531 23.738281 L 179.722656 23.710938 L 179.679688 23.679688 L 179.632812 23.648438 L 179.539062 23.578125 L 179.4375 23.5 L 179.390625 23.460938 L 179.335938 23.417969 L 179.234375 23.324219 L 179.179688 23.277344 L 179.128906 23.226562 L 179.074219 23.175781 L 179.019531 23.121094 L 178.96875 23.0625 L 178.859375 22.945312 L 178.800781 22.882812 L 178.746094 22.820312 L 178.691406 22.753906 L 178.582031 22.613281 L 178.472656 22.464844 L 178.363281 22.308594 L 178.253906 22.144531 L 178.195312 22.054688 L 178.136719 21.957031 L 172.019531 11.359375 L 172.242188 11.246094 L 172.71875 11.007812 L 173.195312 10.789062 L 173.671875 10.582031 L 174.148438 10.390625 L 174.625 10.210938 L 175.101562 10.046875 L 175.574219 9.898438 L 176.046875 9.761719 L 176.511719 9.636719 L 176.976562 9.53125 L 177.4375 9.433594 L 177.894531 9.351562 L 178.347656 9.28125 L 178.792969 9.222656 L 179.234375 9.179688 L 179.667969 9.144531 L 180.09375 9.125 L 180.515625 9.113281 L 180.929688 9.113281 L 181.332031 9.121094 L 181.730469 9.144531 L 182.117188 9.171875 L 182.496094 9.210938 L 182.867188 9.257812 L 183.226562 9.3125 L 183.574219 9.375 L 183.914062 9.445312 L 184.238281 9.523438 L 184.554688 9.605469 L 184.855469 9.691406 L 185.148438 9.785156 L 185.429688 9.878906 L 185.703125 9.984375 L 186.007812 10.105469 L 186.308594 10.234375 L 186.597656 10.371094 L 186.882812 10.507812 L 187.15625 10.652344 L 187.421875 10.804688 L 187.679688 10.957031 L 187.929688 11.113281 L 188.171875 11.273438 L 188.40625 11.441406 L 188.632812 11.605469 L 188.851562 11.777344 L 189.058594 11.949219 L 189.261719 12.125 L 189.453125 12.300781 L 189.640625 12.476562 L 189.816406 12.65625 L 189.984375 12.835938 L 190.144531 13.015625 L 190.300781 13.199219 L 190.445312 13.378906 L 190.582031 13.558594 L 190.714844 13.738281 L 190.835938 13.917969 L 190.953125 14.097656 L 203.234375 35.359375 L 203.328125 35.527344 L 203.421875 35.703125 L 203.515625 35.898438 L 203.609375 36.097656 L 203.699219 36.300781 L 203.785156 36.515625 L 203.867188 36.734375 L 203.945312 36.960938 L 204.019531 37.191406 L 204.085938 37.433594 L 204.152344 37.679688 L 204.210938 37.929688 L 204.265625 38.1875 L 204.3125 38.453125 L 204.355469 38.722656 L 204.390625 39 L 204.417969 39.28125 L 204.441406 39.566406 L 204.457031 39.859375 L 204.464844 40.460938 L 204.457031 40.769531 L 204.4375 41.082031 L 204.414062 41.398438 L 204.382812 41.71875 L 204.339844 42.042969 L 204.292969 42.355469 L 204.242188 42.644531 L 204.179688 42.9375 L 204.109375 43.238281 L 204.027344 43.546875 L 203.9375 43.867188 L 203.835938 44.191406 L 203.722656 44.519531 L 203.597656 44.855469 L 203.457031 45.199219 L 203.308594 45.542969 L 203.148438 45.890625 L 202.972656 46.246094 L 202.785156 46.597656 L 202.585938 46.957031 L 202.375 47.3125 L 202.148438 47.671875 L 201.910156 48.03125 L 201.65625 48.390625 L 201.390625 48.75 L 201.113281 49.105469 L 200.820312 49.460938 L 200.515625 49.8125 L 200.195312 50.164062 L 199.863281 50.511719 L 199.515625 50.851562 L 199.15625 51.191406 L 198.785156 51.523438 L 198.398438 51.851562 L 198 52.171875 L 197.589844 52.484375 L 197.164062 52.792969 L 196.726562 53.089844 L 196.28125 53.382812 L 190.214844 42.875 L 190.171875 42.800781 L 190.132812 42.726562 L 190.089844 42.652344 L 190.019531 42.511719 L 189.984375 42.445312 L 189.890625 42.246094 L 189.863281 42.179688 L 189.835938 42.117188 L 189.808594 42.050781 L 189.78125 41.988281 L 189.710938 41.800781 L 189.691406 41.738281 L 189.632812 41.5625 L 189.617188 41.503906 L 189.597656 41.445312 L 189.582031 41.390625 L 189.570312 41.332031 L 189.554688 41.277344 L 189.53125 41.167969 L 189.507812 41.066406 L 189.5 41.015625 L 189.488281 40.964844 L 189.480469 40.914062 L 189.472656 40.867188 L 189.464844 40.816406 L 189.460938 40.769531 L 189.453125 40.726562 L 189.449219 40.679688 L 189.4375 40.550781 L 189.4375 40.507812 L 189.433594 40.46875 L 189.433594 40.429688 L 189.429688 40.390625 L 189.429688 40.246094 L 189.433594 40.214844 L 189.433594 40.148438 L 189.4375 40.117188 L 189.4375 40.089844 L 189.441406 40.058594 L 189.445312 40.03125 L 189.445312 40.003906 L 189.453125 39.957031 L 189.457031 39.929688 Z M 189.460938 39.910156 "/>
</g>
<g clip-path="url(#clip13)" clip-rule="nonzero">
<path style=" stroke:none;fill-rule:nonzero;fill:rgb(74.999619%,74.999619%,74.999619%);fill-opacity:1;" d="M 197.488281 24.144531 L 257.625 24.144531 L 257.625 84.28125 L 272.65625 84.28125 L 272.65625 9.109375 L 197.488281 9.109375 Z M 197.488281 24.144531 "/>
</g>
<g clip-path="url(#clip14)" clip-rule="nonzero">
<path style="fill:none;stroke-width:1.5;stroke-linecap:square;stroke-linejoin:miter;stroke:rgb(0%,0%,0%);stroke-opacity:1;stroke-miterlimit:3.25;" d="M 197.488281 24.144531 L 257.625 24.144531 L 257.625 84.28125 "/>
</g>
<g clip-path="url(#clip15)" clip-rule="nonzero">
<path style="fill:none;stroke-width:1.5;stroke-linecap:square;stroke-linejoin:miter;stroke:rgb(0%,0%,0%);stroke-opacity:1;stroke-miterlimit:3.25;" d="M 197.488281 9.109375 L 272.65625 9.109375 L 272.65625 84.28125 "/>
</g>
<path style=" stroke:none;fill-rule:nonzero;fill:rgb(100%,100%,86.999313%);fill-opacity:1;" d="M 258.453125 42.554688 L 258.984375 42.488281 L 259.507812 42.394531 L 260.023438 42.28125 L 260.527344 42.144531 L 261.019531 41.988281 L 261.5 41.808594 L 261.96875 41.609375 L 262.425781 41.386719 L 262.863281 41.148438 L 263.289062 40.890625 L 263.699219 40.617188 L 264.09375 40.324219 L 264.46875 40.011719 L 264.824219 39.6875 L 265.164062 39.347656 L 265.480469 38.992188 L 265.78125 38.621094 L 266.058594 38.238281 L 266.316406 37.847656 L 266.550781 37.441406 L 266.761719 37.027344 L 266.953125 36.605469 L 267.121094 36.171875 L 267.261719 35.734375 L 267.382812 35.289062 L 267.476562 34.839844 L 267.546875 34.390625 L 267.589844 33.933594 L 267.609375 33.476562 L 267.601562 33.023438 L 267.570312 32.566406 L 267.511719 32.113281 L 267.429688 31.664062 L 267.320312 31.214844 L 267.1875 30.773438 L 267.03125 30.339844 L 266.855469 29.914062 L 266.652344 29.492188 L 266.425781 29.085938 L 266.179688 28.6875 L 265.914062 28.300781 L 265.625 27.925781 L 265.3125 27.5625 L 264.984375 27.214844 L 264.636719 26.882812 L 264.269531 26.5625 L 263.882812 26.261719 L 263.484375 25.980469 L 263.066406 25.710938 L 262.628906 25.464844 L 262.183594 25.234375 L 261.71875 25.027344 L 261.246094 24.839844 L 260.757812 24.671875 L 260.257812 24.523438 L 259.746094 24.398438 L 259.230469 24.296875 L 258.699219 24.21875 L 258.453125 24.1875 L 258.414062 24.140625 L 258.375 24.085938 L 258.351562 24.054688 L 258.332031 24.023438 L 258.261719 23.917969 L 258.214844 23.839844 L 258.167969 23.753906 L 258.121094 23.660156 L 258.074219 23.558594 L 258.003906 23.394531 L 257.980469 23.335938 L 257.910156 23.148438 L 257.890625 23.082031 L 257.867188 23.011719 L 257.828125 22.871094 L 257.808594 22.796875 L 257.789062 22.71875 L 257.769531 22.644531 L 257.722656 22.398438 L 257.691406 22.226562 L 257.667969 22.046875 L 257.660156 21.953125 L 257.648438 21.859375 L 257.640625 21.765625 L 257.636719 21.667969 L 257.628906 21.566406 L 257.625 21.460938 L 257.625 9.109375 L 257.871094 9.121094 L 258.402344 9.15625 L 258.925781 9.203125 L 259.445312 9.261719 L 259.953125 9.335938 L 260.457031 9.417969 L 260.949219 9.515625 L 261.433594 9.621094 L 261.910156 9.738281 L 262.375 9.867188 L 262.832031 10.003906 L 263.28125 10.152344 L 263.71875 10.308594 L 264.144531 10.476562 L 264.558594 10.648438 L 264.960938 10.828125 L 265.355469 11.015625 L 265.734375 11.210938 L 266.105469 11.414062 L 266.464844 11.621094 L 266.808594 11.832031 L 267.140625 12.046875 L 267.464844 12.265625 L 267.773438 12.488281 L 268.066406 12.714844 L 268.351562 12.941406 L 268.621094 13.171875 L 268.878906 13.402344 L 269.125 13.628906 L 269.355469 13.859375 L 269.574219 14.085938 L 269.78125 14.3125 L 269.976562 14.535156 L 270.164062 14.761719 L 270.367188 15.019531 L 270.558594 15.28125 L 270.746094 15.542969 L 270.917969 15.804688 L 271.085938 16.066406 L 271.242188 16.332031 L 271.386719 16.59375 L 271.527344 16.855469 L 271.65625 17.113281 L 271.777344 17.375 L 271.886719 17.632812 L 271.992188 17.886719 L 272.085938 18.140625 L 272.171875 18.394531 L 272.253906 18.644531 L 272.324219 18.890625 L 272.386719 19.132812 L 272.445312 19.371094 L 272.492188 19.609375 L 272.535156 19.84375 L 272.570312 20.070312 L 272.601562 20.296875 L 272.625 20.519531 L 272.640625 20.734375 L 272.652344 20.945312 L 272.65625 45.503906 L 272.65625 45.695312 L 272.648438 45.894531 L 272.632812 46.109375 L 272.613281 46.328125 L 272.585938 46.550781 L 272.554688 46.777344 L 272.515625 47.007812 L 272.472656 47.246094 L 272.417969 47.484375 L 272.359375 47.722656 L 272.292969 47.96875 L 272.21875 48.21875 L 272.132812 48.46875 L 272.042969 48.71875 L 271.945312 48.976562 L 271.835938 49.230469 L 271.722656 49.492188 L 271.597656 49.75 L 271.464844 50.011719 L 271.320312 50.273438 L 271.167969 50.535156 L 271.007812 50.796875 L 270.839844 51.0625 L 270.660156 51.324219 L 270.472656 51.585938 L 270.273438 51.84375 L 270.074219 52.09375 L 269.886719 52.3125 L 269.6875 52.539062 L 269.476562 52.765625 L 269.25 52.992188 L 269.011719 53.222656 L 268.761719 53.449219 L 268.5 53.679688 L 268.222656 53.90625 L 267.933594 54.136719 L 267.628906 54.359375 L 267.316406 54.582031 L 266.988281 54.800781 L 266.648438 55.011719 L 266.296875 55.222656 L 265.933594 55.425781 L 265.558594 55.625 L 265.171875 55.816406 L 264.777344 56 L 264.367188 56.175781 L 263.945312 56.347656 L 263.515625 56.507812 L 263.074219 56.660156 L 262.621094 56.804688 L 262.160156 56.9375 L 261.691406 57.0625 L 261.210938 57.175781 L 260.71875 57.277344 L 260.222656 57.367188 L 259.71875 57.445312 L 259.203125 57.511719 L 258.683594 57.5625 L 258.15625 57.605469 L 257.625 57.632812 L 257.625 45.332031 L 257.628906 45.246094 L 257.628906 45.164062 L 257.632812 45.089844 L 257.640625 45.015625 L 257.644531 44.941406 L 257.652344 44.867188 L 257.65625 44.796875 L 257.664062 44.722656 L 257.675781 44.652344 L 257.683594 44.585938 L 257.691406 44.515625 L 257.703125 44.449219 L 257.714844 44.386719 L 257.726562 44.320312 L 257.761719 44.132812 L 257.777344 44.074219 L 257.789062 44.015625 L 257.820312 43.898438 L 257.867188 43.734375 L 257.898438 43.632812 L 257.917969 43.582031 L 257.933594 43.53125 L 257.953125 43.484375 L 257.96875 43.4375 L 257.988281 43.390625 L 258.003906 43.347656 L 258.023438 43.300781 L 258.039062 43.261719 L 258.058594 43.21875 L 258.078125 43.179688 L 258.09375 43.140625 L 258.132812 43.0625 L 258.152344 43.027344 L 258.167969 42.992188 L 258.1875 42.957031 L 258.207031 42.925781 L 258.222656 42.894531 L 258.242188 42.863281 L 258.257812 42.832031 L 258.277344 42.804688 L 258.292969 42.777344 L 258.3125 42.75 L 258.328125 42.726562 L 258.34375 42.699219 L 258.359375 42.675781 L 258.378906 42.652344 L 258.410156 42.613281 L 258.421875 42.59375 Z M 258.453125 42.554688 "/>
<g clip-path="url(#clip16)" clip-rule="nonzero">
<path style="fill:none;stroke-width:1.5;stroke-linecap:square;stroke-linejoin:miter;stroke:rgb(0%,0%,0%);stroke-opacity:1;stroke-miterlimit:3.25;" d="M 258.453125 42.554688 L 258.984375 42.488281 L 259.507812 42.394531 L 260.023438 42.28125 L 260.527344 42.144531 L 261.019531 41.988281 L 261.5 41.808594 L 261.96875 41.609375 L 262.425781 41.386719 L 262.863281 41.148438 L 263.289062 40.890625 L 263.699219 40.617188 L 264.09375 40.324219 L 264.46875 40.011719 L 264.824219 39.6875 L 265.164062 39.347656 L 265.480469 38.992188 L 265.78125 38.621094 L 266.058594 38.238281 L 266.316406 37.847656 L 266.550781 37.441406 L 266.761719 37.027344 L 266.953125 36.605469 L 267.121094 36.171875 L 267.261719 35.734375 L 267.382812 35.289062 L 267.476562 34.839844 L 267.546875 34.390625 L 267.589844 33.933594 L 267.609375 33.476562 L 267.601562 33.023438 L 267.570312 32.566406 L 267.511719 32.113281 L 267.429688 31.664062 L 267.320312 31.214844 L 267.1875 30.773438 L 267.03125 30.339844 L 266.855469 29.914062 L 266.652344 29.492188 L 266.425781 29.085938 L 266.179688 28.6875 L 265.914062 28.300781 L 265.625 27.925781 L 265.3125 27.5625 L 264.984375 27.214844 L 264.636719 26.882812 L 264.269531 26.5625 L 263.882812 26.261719 L 263.484375 25.980469 L 263.066406 25.710938 L 262.628906 25.464844 L 262.183594 25.234375 L 261.71875 25.027344 L 261.246094 24.839844 L 260.757812 24.671875 L 260.257812 24.523438 L 259.746094 24.398438 L 259.230469 24.296875 L 258.699219 24.21875 L 258.453125 24.1875 L 258.414062 24.140625 L 258.375 24.085938 L 258.351562 24.054688 L 258.332031 24.023438 L 258.261719 23.917969 L 258.214844 23.839844 L 258.167969 23.753906 L 258.121094 23.660156 L 258.074219 23.558594 L 258.003906 23.394531 L 257.980469 23.335938 L 257.910156 23.148438 L 257.890625 23.082031 L 257.867188 23.011719 L 257.828125 22.871094 L 257.808594 22.796875 L 257.789062 22.71875 L 257.769531 22.644531 L 257.722656 22.398438 L 257.691406 22.226562 L 257.667969 22.046875 L 257.660156 21.953125 L 257.648438 21.859375 L 257.640625 21.765625 L 257.636719 21.667969 L 257.628906 21.566406 L 257.625 21.460938 L 257.625 9.109375 L 257.871094 9.121094 L 258.402344 9.15625 L 258.925781 9.203125 L 259.445312 9.261719 L 259.953125 9.335938 L 260.457031 9.417969 L 260.949219 9.515625 L 261.433594 9.621094 L 261.910156 9.738281 L 262.375 9.867188 L 262.832031 10.003906 L 263.28125 10.152344 L 263.71875 10.308594 L 264.144531 10.476562 L 264.558594 10.648438 L 264.960938 10.828125 L 265.355469 11.015625 L 265.734375 11.210938 L 266.105469 11.414062 L 266.464844 11.621094 L 266.808594 11.832031 L 267.140625 12.046875 L 267.464844 12.265625 L 267.773438 12.488281 L 268.066406 12.714844 L 268.351562 12.941406 L 268.621094 13.171875 L 268.878906 13.402344 L 269.125 13.628906 L 269.355469 13.859375 L 269.574219 14.085938 L 269.78125 14.3125 L 269.976562 14.535156 L 270.164062 14.761719 L 270.367188 15.019531 L 270.558594 15.28125 L 270.746094 15.542969 L 270.917969 15.804688 L 271.085938 16.066406 L 271.242188 16.332031 L 271.386719 16.59375 L 271.527344 16.855469 L 271.65625 17.113281 L 271.777344 17.375 L 271.886719 17.632812 L 271.992188 17.886719 L 272.085938 18.140625 L 272.171875 18.394531 L 272.253906 18.644531 L 272.324219 18.890625 L 272.386719 19.132812 L 272.445312 19.371094 L 272.492188 19.609375 L 272.535156 19.84375 L 272.570312 20.070312 L 272.601562 20.296875 L 272.625 20.519531 L 272.640625 20.734375 L 272.652344 20.945312 L 272.65625 45.503906 L 272.65625 45.695312 L 272.648438 45.894531 L 272.632812 46.109375 L 272.613281 46.328125 L 272.585938 46.550781 L 272.554688 46.777344 L 272.515625 47.007812 L 272.472656 47.246094 L 272.417969 47.484375 L 272.359375 47.722656 L 272.292969 47.96875 L 272.21875 48.21875 L 272.132812 48.46875 L 272.042969 48.71875 L 271.945312 48.976562 L 271.835938 49.230469 L 271.722656 49.492188 L 271.597656 49.75 L 271.464844 50.011719 L 271.320312 50.273438 L 271.167969 50.535156 L 271.007812 50.796875 L 270.839844 51.0625 L 270.660156 51.324219 L 270.472656 51.585938 L 270.273438 51.84375 L 270.074219 52.09375 L 269.886719 52.3125 L 269.6875 52.539062 L 269.476562 52.765625 L 269.25 52.992188 L 269.011719 53.222656 L 268.761719 53.449219 L 268.5 53.679688 L 268.222656 53.90625 L 267.933594 54.136719 L 267.628906 54.359375 L 267.316406 54.582031 L 266.988281 54.800781 L 266.648438 55.011719 L 266.296875 55.222656 L 265.933594 55.425781 L 265.558594 55.625 L 265.171875 55.816406 L 264.777344 56 L 264.367188 56.175781 L 263.945312 56.347656 L 263.515625 56.507812 L 263.074219 56.660156 L 262.621094 56.804688 L 262.160156 56.9375 L 261.691406 57.0625 L 261.210938 57.175781 L 260.71875 57.277344 L 260.222656 57.367188 L 259.71875 57.445312 L 259.203125 57.511719 L 258.683594 57.5625 L 258.15625 57.605469 L 257.625 57.632812 L 257.625 45.332031 L 257.628906 45.246094 L 257.628906 45.164062 L 257.632812 45.089844 L 257.640625 45.015625 L 257.644531 44.941406 L 257.652344 44.867188 L 257.65625 44.796875 L 257.664062 44.722656 L 257.675781 44.652344 L 257.683594 44.585938 L 257.691406 44.515625 L 257.703125 44.449219 L 257.714844 44.386719 L 257.726562 44.320312 L 257.761719 44.132812 L 257.777344 44.074219 L 257.789062 44.015625 L 257.820312 43.898438 L 257.867188 43.734375 L 257.898438 43.632812 L 257.917969 43.582031 L 257.933594 43.53125 L 257.953125 43.484375 L 257.96875 43.4375 L 257.988281 43.390625 L 258.003906 43.347656 L 258.023438 43.300781 L 258.039062 43.261719 L 258.058594 43.21875 L 258.078125 43.179688 L 258.09375 43.140625 L 258.132812 43.0625 L 258.152344 43.027344 L 258.167969 42.992188 L 258.1875 42.957031 L 258.207031 42.925781 L 258.222656 42.894531 L 258.242188 42.863281 L 258.257812 42.832031 L 258.277344 42.804688 L 258.292969 42.777344 L 258.3125 42.75 L 258.328125 42.726562 L 258.34375 42.699219 L 258.359375 42.675781 L 258.378906 42.652344 L 258.410156 42.613281 L 258.421875 42.59375 Z M 258.453125 42.554688 "/>
</g>
</g>
</svg>
