<?xml version="1.0" encoding="UTF-8"?>
<svg xmlns="http://www.w3.org/2000/svg" xmlns:xlink="http://www.w3.org/1999/xlink" width="852pt" height="227pt" viewBox="0 0 852 227" version="1.1">
<defs>
<clipPath id="clip1">
  <path d="M 18.71875 19 L 217 19 L 217 216.960938 L 18.71875 216.960938 Z M 18.71875 19 "/>
</clipPath>
<clipPath id="clip2">
  <path d="M 18.71875 68 L 168 68 L 168 216.960938 L 18.71875 216.960938 Z M 18.71875 68 "/>
</clipPath>
<clipPath id="clip3">
  <path d="M 18.71875 18 L 218 18 L 218 216.960938 L 18.71875 216.960938 Z M 18.71875 18 "/>
</clipPath>
<clipPath id="clip4">
  <path d="M 252.238281 187 L 613 187 L 613 188 L 252.238281 188 Z M 252.238281 187 "/>
</clipPath>
<clipPath id="clip5">
  <path d="M 611 187 L 613 187 L 613 216.960938 L 611 216.960938 Z M 611 187 "/>
</clipPath>
<clipPath id="clip6">
  <path d="M 611 187 L 613 187 L 613 216.960938 L 611 216.960938 Z M 611 187 "/>
</clipPath>
<clipPath id="clip7">
  <path d="M 252.238281 39 L 761 39 L 761 40 L 252.238281 40 Z M 252.238281 39 "/>
</clipPath>
<clipPath id="clip8">
  <path d="M 759 39 L 761 39 L 761 216.960938 L 759 216.960938 Z M 759 39 "/>
</clipPath>
<clipPath id="clip9">
  <path d="M 759 39 L 761 39 L 761 216.960938 L 759 216.960938 Z M 759 39 "/>
</clipPath>
<clipPath id="clip10">
  <path d="M 252.238281 167 L 613 167 L 613 216.960938 L 252.238281 216.960938 Z M 252.238281 167 "/>
</clipPath>
<clipPath id="clip11">
  <path d="M 607 167 L 635 167 L 635 216.960938 L 607 216.960938 Z M 607 167 "/>
</clipPath>
<clipPath id="clip12">
  <path d="M 607 167 L 635 167 L 635 216.960938 L 607 216.960938 Z M 607 167 "/>
</clipPath>
<clipPath id="clip13">
  <path d="M 252.238281 9.839844 L 747 9.839844 L 747 77 L 252.238281 77 Z M 252.238281 9.839844 "/>
</clipPath>
<clipPath id="clip14">
  <path d="M 742 9.839844 L 784 9.839844 L 784 216.960938 L 742 216.960938 Z M 742 9.839844 "/>
</clipPath>
<clipPath id="clip15">
  <path d="M 744 9.839844 L 745 9.839844 L 745 10 L 744 10 Z M 744 9.839844 "/>
</clipPath>
<clipPath id="clip16">
  <path d="M 742 9.839844 L 784 9.839844 L 784 216.960938 L 742 216.960938 Z M 742 9.839844 "/>
</clipPath>
<clipPath id="clip17">
  <path d="M 744 9.839844 L 745 9.839844 L 745 10 L 744 10 Z M 744 9.839844 "/>
</clipPath>
<clipPath id="clip18">
  <path d="M 252.238281 150 L 608 150 L 608 216.960938 L 252.238281 216.960938 Z M 252.238281 150 "/>
</clipPath>
<clipPath id="clip19">
  <path d="M 602 150 L 656 150 L 656 216.960938 L 602 216.960938 Z M 602 150 "/>
</clipPath>
<clipPath id="clip20">
  <path d="M 602 150 L 656 150 L 656 216.960938 L 602 216.960938 Z M 602 150 "/>
</clipPath>
<clipPath id="clip21">
  <path d="M 252.238281 9.839844 L 728 9.839844 L 728 112 L 252.238281 112 Z M 252.238281 9.839844 "/>
</clipPath>
<clipPath id="clip22">
  <path d="M 723 9.839844 L 806 9.839844 L 806 216.960938 L 723 216.960938 Z M 723 9.839844 "/>
</clipPath>
<clipPath id="clip23">
  <path d="M 252.238281 134 L 601 134 L 601 216.960938 L 252.238281 216.960938 Z M 252.238281 134 "/>
</clipPath>
<clipPath id="clip24">
  <path d="M 595 134 L 678 134 L 678 216.960938 L 595 216.960938 Z M 595 134 "/>
</clipPath>
<clipPath id="clip25">
  <path d="M 595 134 L 678 134 L 678 216.960938 L 595 216.960938 Z M 595 134 "/>
</clipPath>
<clipPath id="clip26">
  <path d="M 252.238281 9.839844 L 706 9.839844 L 706 150 L 252.238281 150 Z M 252.238281 9.839844 "/>
</clipPath>
<clipPath id="clip27">
  <path d="M 700 9.839844 L 831 9.839844 L 831 216.960938 L 700 216.960938 Z M 700 9.839844 "/>
</clipPath>
<clipPath id="clip28">
  <path d="M 252.238281 121 L 592 121 L 592 216.960938 L 252.238281 216.960938 Z M 252.238281 121 "/>
</clipPath>
<clipPath id="clip29">
  <path d="M 586 121 L 701 121 L 701 216.960938 L 586 216.960938 Z M 586 121 "/>
</clipPath>
<clipPath id="clip30">
  <path d="M 586 121 L 701 121 L 701 216.960938 L 586 216.960938 Z M 586 121 "/>
</clipPath>
<clipPath id="clip31">
  <path d="M 252.238281 9.839844 L 680 9.839844 L 680 190 L 252.238281 190 Z M 252.238281 9.839844 "/>
</clipPath>
<clipPath id="clip32">
  <path d="M 675 9.839844 L 833.28125 9.839844 L 833.28125 216.960938 L 675 216.960938 Z M 675 9.839844 "/>
</clipPath>
<clipPath id="clip33">
  <path d="M 252.238281 109 L 581 109 L 581 216.960938 L 252.238281 216.960938 Z M 252.238281 109 "/>
</clipPath>
<clipPath id="clip34">
  <path d="M 575 109 L 726 109 L 726 216.960938 L 575 216.960938 Z M 575 109 "/>
</clipPath>
<clipPath id="clip35">
  <path d="M 575 109 L 726 109 L 726 216.960938 L 575 216.960938 Z M 575 109 "/>
</clipPath>
<clipPath id="clip36">
  <path d="M 252.238281 9.839844 L 652 9.839844 L 652 216.960938 L 252.238281 216.960938 Z M 252.238281 9.839844 "/>
</clipPath>
<clipPath id="clip37">
  <path d="M 647 9.839844 L 833.28125 9.839844 L 833.28125 216.960938 L 647 216.960938 Z M 647 9.839844 "/>
</clipPath>
<clipPath id="clip38">
  <path d="M 252.238281 99 L 568 99 L 568 216.960938 L 252.238281 216.960938 Z M 252.238281 99 "/>
</clipPath>
<clipPath id="clip39">
  <path d="M 562 99 L 754 99 L 754 216.960938 L 562 216.960938 Z M 562 99 "/>
</clipPath>
<clipPath id="clip40">
  <path d="M 562 99 L 754 99 L 754 216.960938 L 562 216.960938 Z M 562 99 "/>
</clipPath>
<clipPath id="clip41">
  <path d="M 252.238281 9.839844 L 622 9.839844 L 622 216.960938 L 252.238281 216.960938 Z M 252.238281 9.839844 "/>
</clipPath>
<clipPath id="clip42">
  <path d="M 616 9.839844 L 833.28125 9.839844 L 833.28125 216.960938 L 616 216.960938 Z M 616 9.839844 "/>
</clipPath>
<clipPath id="clip43">
  <path d="M 252.238281 92 L 554 92 L 554 216.960938 L 252.238281 216.960938 Z M 252.238281 92 "/>
</clipPath>
<clipPath id="clip44">
  <path d="M 548 92 L 784 92 L 784 216.960938 L 548 216.960938 Z M 548 92 "/>
</clipPath>
<clipPath id="clip45">
  <path d="M 252.238281 9.839844 L 590 9.839844 L 590 216.960938 L 252.238281 216.960938 Z M 252.238281 9.839844 "/>
</clipPath>
<clipPath id="clip46">
  <path d="M 585 9.839844 L 833.28125 9.839844 L 833.28125 216.960938 L 585 216.960938 Z M 585 9.839844 "/>
</clipPath>
<clipPath id="clip47">
  <path d="M 252.238281 88 L 539 88 L 539 216.960938 L 252.238281 216.960938 Z M 252.238281 88 "/>
</clipPath>
<clipPath id="clip48">
  <path d="M 533 88 L 819 88 L 819 216.960938 L 533 216.960938 Z M 533 88 "/>
</clipPath>
<clipPath id="clip49">
  <path d="M 252.238281 9.839844 L 557 9.839844 L 557 216.960938 L 252.238281 216.960938 Z M 252.238281 9.839844 "/>
</clipPath>
<clipPath id="clip50">
  <path d="M 552 9.839844 L 833.28125 9.839844 L 833.28125 216.960938 L 552 216.960938 Z M 552 9.839844 "/>
</clipPath>
<clipPath id="clip51">
  <path d="M 252.238281 86 L 524 86 L 524 216.960938 L 252.238281 216.960938 Z M 252.238281 86 "/>
</clipPath>
<clipPath id="clip52">
  <path d="M 518 86 L 833.28125 86 L 833.28125 216.960938 L 518 216.960938 Z M 518 86 "/>
</clipPath>
<clipPath id="clip53">
  <path d="M 252.238281 9.839844 L 833.28125 9.839844 L 833.28125 216.960938 L 252.238281 216.960938 Z M 252.238281 9.839844 "/>
</clipPath>
<clipPath id="clip54">
  <path d="M 252.238281 88 L 508 88 L 508 216.960938 L 252.238281 216.960938 Z M 252.238281 88 "/>
</clipPath>
<clipPath id="clip55">
  <path d="M 503 88 L 833.28125 88 L 833.28125 216.960938 L 503 216.960938 Z M 503 88 "/>
</clipPath>
<clipPath id="clip56">
  <path d="M 252.238281 9.839844 L 490 9.839844 L 490 216.960938 L 252.238281 216.960938 Z M 252.238281 9.839844 "/>
</clipPath>
<clipPath id="clip57">
  <path d="M 485 9.839844 L 833.28125 9.839844 L 833.28125 216.960938 L 485 216.960938 Z M 485 9.839844 "/>
</clipPath>
<clipPath id="clip58">
  <path d="M 257 92 L 494 92 L 494 216.960938 L 257 216.960938 Z M 257 92 "/>
</clipPath>
<clipPath id="clip59">
  <path d="M 488 92 L 833.28125 92 L 833.28125 216.960938 L 488 216.960938 Z M 488 92 "/>
</clipPath>
<clipPath id="clip60">
  <path d="M 252.238281 9.839844 L 457 9.839844 L 457 216.960938 L 252.238281 216.960938 Z M 252.238281 9.839844 "/>
</clipPath>
<clipPath id="clip61">
  <path d="M 452 9.839844 L 833.28125 9.839844 L 833.28125 216.960938 L 452 216.960938 Z M 452 9.839844 "/>
</clipPath>
<clipPath id="clip62">
  <path d="M 288 99 L 480 99 L 480 216.960938 L 288 216.960938 Z M 288 99 "/>
</clipPath>
<clipPath id="clip63">
  <path d="M 474 99 L 833.28125 99 L 833.28125 216.960938 L 474 216.960938 Z M 474 99 "/>
</clipPath>
<clipPath id="clip64">
  <path d="M 252.238281 9.839844 L 425 9.839844 L 425 216.960938 L 252.238281 216.960938 Z M 252.238281 9.839844 "/>
</clipPath>
<clipPath id="clip65">
  <path d="M 420 9.839844 L 833.28125 9.839844 L 833.28125 216.960938 L 420 216.960938 Z M 420 9.839844 "/>
</clipPath>
<clipPath id="clip66">
  <path d="M 315 109 L 467 109 L 467 216.960938 L 315 216.960938 Z M 315 109 "/>
</clipPath>
<clipPath id="clip67">
  <path d="M 461 109 L 833.28125 109 L 833.28125 216.960938 L 461 216.960938 Z M 461 109 "/>
</clipPath>
<clipPath id="clip68">
  <path d="M 252.238281 9.839844 L 395 9.839844 L 395 216.960938 L 252.238281 216.960938 Z M 252.238281 9.839844 "/>
</clipPath>
<clipPath id="clip69">
  <path d="M 390 9.839844 L 833.28125 9.839844 L 833.28125 216.960938 L 390 216.960938 Z M 390 9.839844 "/>
</clipPath>
<clipPath id="clip70">
  <path d="M 341 121 L 456 121 L 456 216.960938 L 341 216.960938 Z M 341 121 "/>
</clipPath>
<clipPath id="clip71">
  <path d="M 450 121 L 833.28125 121 L 833.28125 216.960938 L 450 216.960938 Z M 450 121 "/>
</clipPath>
<clipPath id="clip72">
  <path d="M 252.238281 9.839844 L 367 9.839844 L 367 216.960938 L 252.238281 216.960938 Z M 252.238281 9.839844 "/>
</clipPath>
<clipPath id="clip73">
  <path d="M 362 9.839844 L 833.28125 9.839844 L 833.28125 190 L 362 190 Z M 362 9.839844 "/>
</clipPath>
<clipPath id="clip74">
  <path d="M 364 134 L 446 134 L 446 216.960938 L 364 216.960938 Z M 364 134 "/>
</clipPath>
<clipPath id="clip75">
  <path d="M 441 134 L 833.28125 134 L 833.28125 216.960938 L 441 216.960938 Z M 441 134 "/>
</clipPath>
<clipPath id="clip76">
  <path d="M 252.238281 9.839844 L 342 9.839844 L 342 216.960938 L 252.238281 216.960938 Z M 252.238281 9.839844 "/>
</clipPath>
<clipPath id="clip77">
  <path d="M 336 9.839844 L 833.28125 9.839844 L 833.28125 150 L 336 150 Z M 336 9.839844 "/>
</clipPath>
<clipPath id="clip78">
  <path d="M 386 150 L 439 150 L 439 216.960938 L 386 216.960938 Z M 386 150 "/>
</clipPath>
<clipPath id="clip79">
  <path d="M 434 150 L 833.28125 150 L 833.28125 216.960938 L 434 216.960938 Z M 434 150 "/>
</clipPath>
<clipPath id="clip80">
  <path d="M 252.238281 9.839844 L 319 9.839844 L 319 216.960938 L 252.238281 216.960938 Z M 252.238281 9.839844 "/>
</clipPath>
<clipPath id="clip81">
  <path d="M 314 9.839844 L 833.28125 9.839844 L 833.28125 112 L 314 112 Z M 314 9.839844 "/>
</clipPath>
<clipPath id="clip82">
  <path d="M 407 167 L 435 167 L 435 216.960938 L 407 216.960938 Z M 407 167 "/>
</clipPath>
<clipPath id="clip83">
  <path d="M 429 167 L 833.28125 167 L 833.28125 216.960938 L 429 216.960938 Z M 429 167 "/>
</clipPath>
<clipPath id="clip84">
  <path d="M 258 9.839844 L 300 9.839844 L 300 216.960938 L 258 216.960938 Z M 258 9.839844 "/>
</clipPath>
<clipPath id="clip85">
  <path d="M 297 9.839844 L 298 9.839844 L 298 10 L 297 10 Z M 297 9.839844 "/>
</clipPath>
<clipPath id="clip86">
  <path d="M 295 9.839844 L 833.28125 9.839844 L 833.28125 77 L 295 77 Z M 295 9.839844 "/>
</clipPath>
<clipPath id="clip87">
  <path d="M 429 187 L 431 187 L 431 216.960938 L 429 216.960938 Z M 429 187 "/>
</clipPath>
<clipPath id="clip88">
  <path d="M 429 187 L 833.28125 187 L 833.28125 188 L 429 188 Z M 429 187 "/>
</clipPath>
<clipPath id="clip89">
  <path d="M 281 39 L 283 39 L 283 216.960938 L 281 216.960938 Z M 281 39 "/>
</clipPath>
<clipPath id="clip90">
  <path d="M 281 39 L 833.28125 39 L 833.28125 40 L 281 40 Z M 281 39 "/>
</clipPath>
<clipPath id="clip91">
  <path d="M 252.238281 186 L 833.28125 186 L 833.28125 189 L 252.238281 189 Z M 252.238281 186 "/>
</clipPath>
<clipPath id="clip92">
  <path d="M 252.238281 38 L 833.28125 38 L 833.28125 41 L 252.238281 41 Z M 252.238281 38 "/>
</clipPath>
</defs>
<g id="surface22">
<g clip-path="url(#clip1)" clip-rule="nonzero">
<path style=" stroke:none;fill-rule:nonzero;fill:rgb(74.999619%,74.999619%,74.999619%);fill-opacity:1;" d="M -30.585938 69.105469 L 166.8125 69.105469 L 166.8125 266.503906 L 216.160156 266.503906 L 216.160156 19.753906 L -30.585938 19.753906 Z M -30.585938 69.105469 "/>
</g>
<g clip-path="url(#clip2)" clip-rule="nonzero">
<path style="fill:none;stroke-width:1.5;stroke-linecap:square;stroke-linejoin:miter;stroke:rgb(0%,0%,0%);stroke-opacity:1;stroke-miterlimit:3.25;" d="M -30.585938 69.105469 L 166.8125 69.105469 L 166.8125 266.503906 "/>
</g>
<g clip-path="url(#clip3)" clip-rule="nonzero">
<path style="fill:none;stroke-width:1.5;stroke-linecap:square;stroke-linejoin:miter;stroke:rgb(0%,0%,0%);stroke-opacity:1;stroke-miterlimit:3.25;" d="M -30.585938 19.753906 L 216.160156 19.753906 L 216.160156 266.503906 "/>
</g>
<path style="fill-rule:nonzero;fill:rgb(100%,100%,86.999313%);fill-opacity:1;stroke-width:1.5;stroke-linecap:square;stroke-linejoin:miter;stroke:rgb(0%,0%,0%);stroke-opacity:1;stroke-miterlimit:3.25;" d="M 167.277344 99.152344 L 167.953125 97.53125 L 168.550781 95.890625 L 169.070312 94.242188 L 169.511719 92.585938 L 169.871094 90.925781 L 170.152344 89.261719 L 170.355469 87.601562 L 170.476562 85.949219 L 170.523438 84.304688 L 170.488281 82.671875 L 170.375 81.054688 L 170.1875 79.457031 L 169.921875 77.882812 L 169.582031 76.332031 L 169.167969 74.808594 L 168.679688 73.320312 L 168.121094 71.867188 L 167.492188 70.449219 L 166.796875 69.074219 L 166.03125 67.742188 L 165.203125 66.457031 L 164.3125 65.222656 L 163.359375 64.042969 L 162.347656 62.914062 L 161.28125 61.847656 L 160.160156 60.839844 L 158.988281 59.898438 L 157.765625 59.027344 L 156.5 58.226562 L 155.195312 57.496094 L 153.847656 56.839844 L 152.460938 56.261719 L 151.042969 55.757812 L 149.59375 55.332031 L 148.125 54.980469 L 146.632812 54.710938 L 145.125 54.519531 L 143.601562 54.40625 L 142.070312 54.375 L 140.535156 54.421875 L 138.992188 54.546875 L 137.453125 54.753906 L 135.914062 55.039062 L 134.386719 55.40625 L 132.867188 55.847656 L 131.363281 56.371094 L 129.875 56.972656 L 128.410156 57.648438 L 126.964844 58.398438 L 125.550781 59.226562 L 124.164062 60.125 L 122.8125 61.097656 L 121.492188 62.140625 L 120.214844 63.25 L 118.980469 64.429688 L 117.792969 65.671875 L 116.648438 66.980469 L 115.554688 68.351562 L 115.066406 69.007812 L 114.96875 69.023438 L 114.863281 69.039062 L 114.753906 69.050781 L 114.640625 69.0625 L 114.519531 69.074219 L 114.394531 69.082031 L 114.261719 69.089844 L 114.125 69.097656 L 113.984375 69.101562 L 113.835938 69.105469 L 113.683594 69.105469 L 113.523438 69.101562 L 113.359375 69.097656 L 113.191406 69.089844 L 113.015625 69.082031 L 112.835938 69.070312 L 112.652344 69.050781 L 112.460938 69.03125 L 112.265625 69.011719 L 112.066406 68.984375 L 111.859375 68.953125 L 111.648438 68.917969 L 111.433594 68.878906 L 111.214844 68.839844 L 110.988281 68.792969 L 110.761719 68.742188 L 110.527344 68.683594 L 110.289062 68.625 L 110.046875 68.558594 L 109.800781 68.488281 L 109.550781 68.410156 L 109.296875 68.328125 L 109.039062 68.242188 L 108.777344 68.152344 L 108.511719 68.050781 L 108.242188 67.949219 L 107.96875 67.839844 L 107.691406 67.722656 L 107.410156 67.597656 L 107.128906 67.46875 L 106.84375 67.335938 L 106.554688 67.191406 L 106.265625 67.042969 L 105.949219 66.878906 L 105.628906 66.703125 L 70.839844 46.621094 L 71.28125 45.929688 L 72.25 44.476562 L 73.242188 43.066406 L 74.261719 41.691406 L 75.300781 40.363281 L 76.363281 39.074219 L 77.445312 37.828125 L 78.546875 36.625 L 79.664062 35.464844 L 80.792969 34.347656 L 81.933594 33.277344 L 83.089844 32.25 L 84.25 31.265625 L 85.417969 30.324219 L 86.59375 29.429688 L 87.769531 28.578125 L 88.949219 27.769531 L 90.128906 27.003906 L 91.304688 26.285156 L 92.480469 25.605469 L 93.648438 24.972656 L 94.808594 24.378906 L 95.960938 23.824219 L 97.101562 23.3125 L 98.226562 22.839844 L 99.34375 22.410156 L 100.4375 22.015625 L 101.511719 21.660156 L 102.5625 21.339844 L 103.59375 21.054688 L 104.597656 20.808594 L 105.578125 20.589844 L 106.53125 20.40625 L 107.484375 20.246094 L 108.554688 20.09375 L 109.617188 19.96875 L 110.664062 19.875 L 111.695312 19.808594 L 112.714844 19.769531 L 113.714844 19.753906 L 114.703125 19.769531 L 115.671875 19.804688 L 116.625 19.863281 L 117.558594 19.949219 L 118.476562 20.054688 L 119.375 20.179688 L 120.253906 20.324219 L 121.109375 20.492188 L 121.949219 20.675781 L 122.765625 20.878906 L 123.5625 21.09375 L 124.339844 21.328125 L 125.09375 21.578125 L 125.824219 21.839844 L 126.535156 22.117188 L 127.222656 22.402344 L 127.890625 22.699219 L 128.53125 23.007812 L 129.152344 23.324219 L 198.96875 63.609375 L 199.511719 63.933594 L 200.070312 64.285156 L 200.65625 64.675781 L 201.246094 65.089844 L 201.835938 65.527344 L 202.429688 65.992188 L 203.023438 66.480469 L 203.617188 66.996094 L 204.207031 67.539062 L 204.796875 68.105469 L 205.382812 68.699219 L 205.964844 69.316406 L 206.539062 69.964844 L 207.109375 70.636719 L 207.671875 71.335938 L 208.226562 72.0625 L 208.769531 72.816406 L 209.304688 73.597656 L 209.828125 74.40625 L 210.339844 75.238281 L 210.835938 76.097656 L 211.320312 76.988281 L 211.785156 77.902344 L 212.238281 78.839844 L 212.671875 79.804688 L 213.085938 80.796875 L 213.464844 81.765625 L 213.785156 82.664062 L 214.09375 83.601562 L 214.390625 84.574219 L 214.667969 85.589844 L 214.929688 86.640625 L 215.171875 87.726562 L 215.390625 88.851562 L 215.585938 90.015625 L 215.753906 91.210938 L 215.898438 92.441406 L 216.011719 93.695312 L 216.09375 94.984375 L 216.144531 96.296875 L 216.160156 97.640625 L 216.144531 99.007812 L 216.09375 100.398438 L 216.003906 101.8125 L 215.875 103.246094 L 215.707031 104.699219 L 215.5 106.171875 L 215.253906 107.664062 L 214.960938 109.167969 L 214.628906 110.6875 L 214.25 112.21875 L 213.828125 113.761719 L 213.359375 115.308594 L 212.847656 116.867188 L 212.285156 118.429688 L 211.679688 119.996094 L 211.027344 121.5625 L 210.324219 123.128906 L 209.574219 124.695312 L 208.777344 126.257812 L 174.292969 106.347656 L 174.054688 106.207031 L 173.8125 106.0625 L 173.574219 105.917969 L 173.351562 105.773438 L 173.140625 105.640625 L 172.933594 105.5 L 172.730469 105.363281 L 172.339844 105.089844 L 172.152344 104.949219 L 171.964844 104.8125 L 171.785156 104.671875 L 171.609375 104.535156 L 171.4375 104.394531 L 171.265625 104.257812 L 171.101562 104.117188 L 170.941406 103.980469 L 170.785156 103.839844 L 170.632812 103.703125 L 170.335938 103.429688 L 170.195312 103.292969 L 169.925781 103.023438 L 169.796875 102.886719 L 169.667969 102.753906 L 169.546875 102.621094 L 169.429688 102.492188 L 169.3125 102.359375 L 169.09375 102.101562 L 168.988281 101.976562 L 168.886719 101.851562 L 168.789062 101.726562 L 168.695312 101.601562 L 168.605469 101.480469 L 168.515625 101.363281 L 168.429688 101.242188 L 168.351562 101.128906 L 168.273438 101.011719 L 168.195312 100.898438 L 168.054688 100.679688 L 167.988281 100.570312 L 167.925781 100.464844 L 167.863281 100.363281 L 167.804688 100.261719 L 167.75 100.160156 L 167.699219 100.0625 L 167.648438 99.96875 L 167.601562 99.875 L 167.554688 99.785156 L 167.511719 99.699219 L 167.472656 99.613281 L 167.433594 99.53125 L 167.398438 99.449219 L 167.367188 99.371094 L 167.304688 99.222656 Z M 167.277344 99.152344 "/>
<g clip-path="url(#clip4)" clip-rule="nonzero">
<path style="fill:none;stroke-width:0.5;stroke-linecap:square;stroke-linejoin:miter;stroke:rgb(85.000381%,85.000381%,85.000381%);stroke-opacity:1;stroke-miterlimit:3.25;" d="M 19.617188 187.542969 L 611.8125 187.542969 "/>
</g>
<g clip-path="url(#clip5)" clip-rule="nonzero">
<path style="fill:none;stroke-width:0.5;stroke-linecap:square;stroke-linejoin:miter;stroke:rgb(85.000381%,85.000381%,85.000381%);stroke-opacity:1;stroke-miterlimit:3.25;" d="M 611.8125 424.226562 L 611.8125 187.542969 "/>
</g>
<path style=" stroke:none;fill-rule:nonzero;fill:rgb(85.000381%,85.000381%,85.000381%);fill-opacity:1;" d="M 611.8125 187.542969 L 612.0625 187.792969 L 612.0625 187.292969 L 611.8125 187.292969 Z M 611.8125 187.542969 "/>
<g clip-path="url(#clip6)" clip-rule="nonzero">
<path style="fill:none;stroke-width:0.5;stroke-linecap:square;stroke-linejoin:miter;stroke:rgb(85.000381%,85.000381%,85.000381%);stroke-opacity:1;stroke-miterlimit:3.25;" d="M 611.8125 424.226562 L 611.8125 187.542969 "/>
</g>
<path style=" stroke:none;fill-rule:nonzero;fill:rgb(85.000381%,85.000381%,85.000381%);fill-opacity:1;" d="M 611.8125 187.542969 L 612.0625 187.792969 L 612.0625 187.292969 L 611.8125 187.292969 Z M 611.8125 187.542969 "/>
<g clip-path="url(#clip7)" clip-rule="nonzero">
<path style="fill:none;stroke-width:0.5;stroke-linecap:square;stroke-linejoin:miter;stroke:rgb(85.000381%,85.000381%,85.000381%);stroke-opacity:1;stroke-miterlimit:3.25;" d="M 19.617188 39.496094 L 759.863281 39.496094 "/>
</g>
<g clip-path="url(#clip8)" clip-rule="nonzero">
<path style="fill:none;stroke-width:0.5;stroke-linecap:square;stroke-linejoin:miter;stroke:rgb(85.000381%,85.000381%,85.000381%);stroke-opacity:1;stroke-miterlimit:3.25;" d="M 759.863281 424.226562 L 759.863281 39.496094 "/>
</g>
<path style=" stroke:none;fill-rule:nonzero;fill:rgb(85.000381%,85.000381%,85.000381%);fill-opacity:1;" d="M 759.863281 39.496094 L 760.113281 39.746094 L 760.113281 39.246094 L 759.863281 39.246094 Z M 759.863281 39.496094 "/>
<g clip-path="url(#clip9)" clip-rule="nonzero">
<path style="fill:none;stroke-width:0.5;stroke-linecap:square;stroke-linejoin:miter;stroke:rgb(85.000381%,85.000381%,85.000381%);stroke-opacity:1;stroke-miterlimit:3.25;" d="M 759.863281 424.226562 L 759.863281 39.496094 "/>
</g>
<path style=" stroke:none;fill-rule:nonzero;fill:rgb(85.000381%,85.000381%,85.000381%);fill-opacity:1;" d="M 759.863281 39.496094 L 760.113281 39.746094 L 760.113281 39.246094 L 759.863281 39.246094 Z M 759.863281 39.496094 "/>
<g clip-path="url(#clip10)" clip-rule="nonzero">
<path style="fill:none;stroke-width:0.5;stroke-linecap:square;stroke-linejoin:miter;stroke:rgb(85.000381%,85.000381%,85.000381%);stroke-opacity:1;stroke-miterlimit:3.25;" d="M 19.972656 221.195312 L 609.914062 169.582031 "/>
</g>
<g clip-path="url(#clip11)" clip-rule="nonzero">
<path style="fill:none;stroke-width:0.5;stroke-linecap:square;stroke-linejoin:miter;stroke:rgb(85.000381%,85.000381%,85.000381%);stroke-opacity:1;stroke-miterlimit:3.25;" d="M 632.195312 424.226562 L 609.914062 169.582031 "/>
</g>
<path style=" stroke:none;fill-rule:nonzero;fill:rgb(85.000381%,85.000381%,85.000381%);fill-opacity:1;" d="M 609.914062 169.582031 L 610.164062 169.832031 L 610.144531 169.3125 L 609.894531 169.332031 Z M 609.914062 169.582031 "/>
<g clip-path="url(#clip12)" clip-rule="nonzero">
<path style="fill:none;stroke-width:0.5;stroke-linecap:square;stroke-linejoin:miter;stroke:rgb(85.000381%,85.000381%,85.000381%);stroke-opacity:1;stroke-miterlimit:3.25;" d="M 632.195312 424.226562 L 609.914062 169.582031 "/>
</g>
<path style=" stroke:none;fill-rule:nonzero;fill:rgb(85.000381%,85.000381%,85.000381%);fill-opacity:1;" d="M 609.914062 169.582031 L 610.164062 169.832031 L 610.144531 169.3125 L 609.894531 169.332031 Z M 609.914062 169.582031 "/>
<g clip-path="url(#clip13)" clip-rule="nonzero">
<path style="fill:none;stroke-width:0.5;stroke-linecap:square;stroke-linejoin:miter;stroke:rgb(85.000381%,85.000381%,85.000381%);stroke-opacity:1;stroke-miterlimit:3.25;" d="M 7.070312 73.710938 L 744.496094 9.195312 "/>
</g>
<g clip-path="url(#clip14)" clip-rule="nonzero">
<path style="fill:none;stroke-width:0.5;stroke-linecap:square;stroke-linejoin:miter;stroke:rgb(85.000381%,85.000381%,85.000381%);stroke-opacity:1;stroke-miterlimit:3.25;" d="M 780.808594 424.226562 L 744.496094 9.195312 "/>
</g>
<g clip-path="url(#clip15)" clip-rule="nonzero">
<path style=" stroke:none;fill-rule:nonzero;fill:rgb(85.000381%,85.000381%,85.000381%);fill-opacity:1;" d="M 744.496094 9.195312 L 744.746094 9.441406 L 744.726562 8.921875 L 744.476562 8.945312 Z M 744.496094 9.195312 "/>
</g>
<g clip-path="url(#clip16)" clip-rule="nonzero">
<path style="fill:none;stroke-width:0.5;stroke-linecap:square;stroke-linejoin:miter;stroke:rgb(85.000381%,85.000381%,85.000381%);stroke-opacity:1;stroke-miterlimit:3.25;" d="M 780.808594 424.226562 L 744.496094 9.195312 "/>
</g>
<g clip-path="url(#clip17)" clip-rule="nonzero">
<path style=" stroke:none;fill-rule:nonzero;fill:rgb(85.000381%,85.000381%,85.000381%);fill-opacity:1;" d="M 744.496094 9.195312 L 744.746094 9.441406 L 744.726562 8.921875 L 744.476562 8.945312 Z M 744.496094 9.195312 "/>
</g>
<g clip-path="url(#clip18)" clip-rule="nonzero">
<path style="fill:none;stroke-width:0.5;stroke-linecap:square;stroke-linejoin:miter;stroke:rgb(85.000381%,85.000381%,85.000381%);stroke-opacity:1;stroke-miterlimit:3.25;" d="M 22.070312 255.492188 L 605.269531 152.660156 "/>
</g>
<g clip-path="url(#clip19)" clip-rule="nonzero">
<path style="fill:none;stroke-width:0.5;stroke-linecap:square;stroke-linejoin:miter;stroke:rgb(85.000381%,85.000381%,85.000381%);stroke-opacity:1;stroke-miterlimit:3.25;" d="M 653.152344 424.226562 L 605.269531 152.660156 "/>
</g>
<path style=" stroke:none;fill-rule:nonzero;fill:rgb(85.000381%,85.000381%,85.000381%);fill-opacity:1;" d="M 605.269531 152.660156 L 605.515625 152.90625 L 605.46875 152.367188 L 605.222656 152.414062 Z M 605.269531 152.660156 "/>
<g clip-path="url(#clip20)" clip-rule="nonzero">
<path style="fill:none;stroke-width:0.5;stroke-linecap:square;stroke-linejoin:miter;stroke:rgb(85.000381%,85.000381%,85.000381%);stroke-opacity:1;stroke-miterlimit:3.25;" d="M 653.152344 424.226562 L 605.269531 152.660156 "/>
</g>
<path style=" stroke:none;fill-rule:nonzero;fill:rgb(85.000381%,85.000381%,85.000381%);fill-opacity:1;" d="M 605.269531 152.660156 L 605.515625 152.90625 L 605.46875 152.367188 L 605.222656 152.414062 Z M 605.269531 152.660156 "/>
<g clip-path="url(#clip21)" clip-rule="nonzero">
<path style="fill:none;stroke-width:0.5;stroke-linecap:square;stroke-linejoin:miter;stroke:rgb(85.000381%,85.000381%,85.000381%);stroke-opacity:1;stroke-miterlimit:3.25;" d="M -3.640625 109.691406 L 725.359375 -18.847656 "/>
</g>
<g clip-path="url(#clip22)" clip-rule="nonzero">
<path style="fill:none;stroke-width:0.5;stroke-linecap:square;stroke-linejoin:miter;stroke:rgb(85.000381%,85.000381%,85.000381%);stroke-opacity:1;stroke-miterlimit:3.25;" d="M 803.484375 424.226562 L 725.359375 -18.847656 "/>
<path style="fill:none;stroke-width:0.5;stroke-linecap:square;stroke-linejoin:miter;stroke:rgb(85.000381%,85.000381%,85.000381%);stroke-opacity:1;stroke-miterlimit:3.25;" d="M 803.484375 424.226562 L 725.359375 -18.847656 "/>
</g>
<g clip-path="url(#clip23)" clip-rule="nonzero">
<path style="fill:none;stroke-width:0.5;stroke-linecap:square;stroke-linejoin:miter;stroke:rgb(85.000381%,85.000381%,85.000381%);stroke-opacity:1;stroke-miterlimit:3.25;" d="M 26.195312 290.394531 L 598.210938 137.125 "/>
</g>
<g clip-path="url(#clip24)" clip-rule="nonzero">
<path style="fill:none;stroke-width:0.5;stroke-linecap:square;stroke-linejoin:miter;stroke:rgb(85.000381%,85.000381%,85.000381%);stroke-opacity:1;stroke-miterlimit:3.25;" d="M 675.140625 424.226562 L 598.210938 137.125 "/>
</g>
<path style=" stroke:none;fill-rule:nonzero;fill:rgb(85.000381%,85.000381%,85.000381%);fill-opacity:1;" d="M 598.210938 137.125 L 598.453125 137.367188 L 598.390625 136.820312 L 598.148438 136.882812 Z M 598.210938 137.125 "/>
<g clip-path="url(#clip25)" clip-rule="nonzero">
<path style="fill:none;stroke-width:0.5;stroke-linecap:square;stroke-linejoin:miter;stroke:rgb(85.000381%,85.000381%,85.000381%);stroke-opacity:1;stroke-miterlimit:3.25;" d="M 675.140625 424.226562 L 598.210938 137.125 "/>
</g>
<path style=" stroke:none;fill-rule:nonzero;fill:rgb(85.000381%,85.000381%,85.000381%);fill-opacity:1;" d="M 598.210938 137.125 L 598.453125 137.367188 L 598.390625 136.820312 L 598.148438 136.882812 Z M 598.210938 137.125 "/>
<g clip-path="url(#clip26)" clip-rule="nonzero">
<path style="fill:none;stroke-width:0.5;stroke-linecap:square;stroke-linejoin:miter;stroke:rgb(85.000381%,85.000381%,85.000381%);stroke-opacity:1;stroke-miterlimit:3.25;" d="M -12.121094 147.390625 L 702.898438 -44.195312 "/>
</g>
<g clip-path="url(#clip27)" clip-rule="nonzero">
<path style="fill:none;stroke-width:0.5;stroke-linecap:square;stroke-linejoin:miter;stroke:rgb(85.000381%,85.000381%,85.000381%);stroke-opacity:1;stroke-miterlimit:3.25;" d="M 828.414062 424.226562 L 702.898438 -44.195312 "/>
<path style="fill:none;stroke-width:0.5;stroke-linecap:square;stroke-linejoin:miter;stroke:rgb(85.000381%,85.000381%,85.000381%);stroke-opacity:1;stroke-miterlimit:3.25;" d="M 828.414062 424.226562 L 702.898438 -44.195312 "/>
</g>
<g clip-path="url(#clip28)" clip-rule="nonzero">
<path style="fill:none;stroke-width:0.5;stroke-linecap:square;stroke-linejoin:miter;stroke:rgb(85.000381%,85.000381%,85.000381%);stroke-opacity:1;stroke-miterlimit:3.25;" d="M 32.496094 325.855469 L 588.976562 123.3125 "/>
</g>
<g clip-path="url(#clip29)" clip-rule="nonzero">
<path style="fill:none;stroke-width:0.5;stroke-linecap:square;stroke-linejoin:miter;stroke:rgb(85.000381%,85.000381%,85.000381%);stroke-opacity:1;stroke-miterlimit:3.25;" d="M 698.503906 424.226562 L 588.976562 123.3125 "/>
</g>
<path style=" stroke:none;fill-rule:nonzero;fill:rgb(85.000381%,85.000381%,85.000381%);fill-opacity:1;" d="M 588.976562 123.3125 L 589.214844 123.546875 L 589.128906 122.992188 L 588.894531 123.078125 Z M 588.976562 123.3125 "/>
<g clip-path="url(#clip30)" clip-rule="nonzero">
<path style="fill:none;stroke-width:0.5;stroke-linecap:square;stroke-linejoin:miter;stroke:rgb(85.000381%,85.000381%,85.000381%);stroke-opacity:1;stroke-miterlimit:3.25;" d="M 698.503906 424.226562 L 588.976562 123.3125 "/>
</g>
<path style=" stroke:none;fill-rule:nonzero;fill:rgb(85.000381%,85.000381%,85.000381%);fill-opacity:1;" d="M 588.976562 123.3125 L 589.214844 123.546875 L 589.128906 122.992188 L 588.894531 123.078125 Z M 588.976562 123.3125 "/>
<g clip-path="url(#clip31)" clip-rule="nonzero">
<path style="fill:none;stroke-width:0.5;stroke-linecap:square;stroke-linejoin:miter;stroke:rgb(85.000381%,85.000381%,85.000381%);stroke-opacity:1;stroke-miterlimit:3.25;" d="M -18.140625 186.734375 L 677.464844 -66.445312 "/>
</g>
<g clip-path="url(#clip32)" clip-rule="nonzero">
<path style="fill:none;stroke-width:0.5;stroke-linecap:square;stroke-linejoin:miter;stroke:rgb(85.000381%,85.000381%,85.000381%);stroke-opacity:1;stroke-miterlimit:3.25;" d="M 856.054688 424.226562 L 677.464844 -66.445312 "/>
<path style="fill:none;stroke-width:0.5;stroke-linecap:square;stroke-linejoin:miter;stroke:rgb(85.000381%,85.000381%,85.000381%);stroke-opacity:1;stroke-miterlimit:3.25;" d="M 856.054688 424.226562 L 677.464844 -66.445312 "/>
</g>
<g clip-path="url(#clip33)" clip-rule="nonzero">
<path style="fill:none;stroke-width:0.5;stroke-linecap:square;stroke-linejoin:miter;stroke:rgb(85.000381%,85.000381%,85.000381%);stroke-opacity:1;stroke-miterlimit:3.25;" d="M 41.125 361.789062 L 577.835938 111.519531 "/>
</g>
<g clip-path="url(#clip34)" clip-rule="nonzero">
<path style="fill:none;stroke-width:0.5;stroke-linecap:square;stroke-linejoin:miter;stroke:rgb(85.000381%,85.000381%,85.000381%);stroke-opacity:1;stroke-miterlimit:3.25;" d="M 723.65625 424.226562 L 577.835938 111.519531 "/>
</g>
<path style=" stroke:none;fill-rule:nonzero;fill:rgb(85.000381%,85.000381%,85.000381%);fill-opacity:1;" d="M 577.835938 111.519531 L 578.0625 111.746094 L 577.957031 111.1875 L 577.730469 111.292969 Z M 577.835938 111.519531 "/>
<g clip-path="url(#clip35)" clip-rule="nonzero">
<path style="fill:none;stroke-width:0.5;stroke-linecap:square;stroke-linejoin:miter;stroke:rgb(85.000381%,85.000381%,85.000381%);stroke-opacity:1;stroke-miterlimit:3.25;" d="M 723.65625 424.226562 L 577.835938 111.519531 "/>
</g>
<path style=" stroke:none;fill-rule:nonzero;fill:rgb(85.000381%,85.000381%,85.000381%);fill-opacity:1;" d="M 577.835938 111.519531 L 578.0625 111.746094 L 577.957031 111.1875 L 577.730469 111.292969 Z M 577.835938 111.519531 "/>
<g clip-path="url(#clip36)" clip-rule="nonzero">
<path style="fill:none;stroke-width:0.5;stroke-linecap:square;stroke-linejoin:miter;stroke:rgb(85.000381%,85.000381%,85.000381%);stroke-opacity:1;stroke-miterlimit:3.25;" d="M -21.441406 227.613281 L 649.445312 -85.226562 "/>
</g>
<g clip-path="url(#clip37)" clip-rule="nonzero">
<path style="fill:none;stroke-width:0.5;stroke-linecap:square;stroke-linejoin:miter;stroke:rgb(85.000381%,85.000381%,85.000381%);stroke-opacity:1;stroke-miterlimit:3.25;" d="M 887.011719 424.226562 L 649.445312 -85.226562 "/>
<path style="fill:none;stroke-width:0.5;stroke-linecap:square;stroke-linejoin:miter;stroke:rgb(85.000381%,85.000381%,85.000381%);stroke-opacity:1;stroke-miterlimit:3.25;" d="M 887.011719 424.226562 L 649.445312 -85.226562 "/>
</g>
<g clip-path="url(#clip38)" clip-rule="nonzero">
<path style="fill:none;stroke-width:0.5;stroke-linecap:square;stroke-linejoin:miter;stroke:rgb(85.000381%,85.000381%,85.000381%);stroke-opacity:1;stroke-miterlimit:3.25;" d="M 52.242188 398.105469 L 565.101562 102.007812 "/>
</g>
<g clip-path="url(#clip39)" clip-rule="nonzero">
<path style="fill:none;stroke-width:0.5;stroke-linecap:square;stroke-linejoin:miter;stroke:rgb(85.000381%,85.000381%,85.000381%);stroke-opacity:1;stroke-miterlimit:3.25;" d="M 751.136719 424.226562 L 565.101562 102.007812 "/>
</g>
<path style=" stroke:none;fill-rule:nonzero;fill:rgb(85.000381%,85.000381%,85.000381%);fill-opacity:1;" d="M 565.101562 102.007812 L 565.316406 102.222656 L 565.191406 101.664062 L 564.976562 101.789062 Z M 565.101562 102.007812 "/>
<g clip-path="url(#clip40)" clip-rule="nonzero">
<path style="fill:none;stroke-width:0.5;stroke-linecap:square;stroke-linejoin:miter;stroke:rgb(85.000381%,85.000381%,85.000381%);stroke-opacity:1;stroke-miterlimit:3.25;" d="M 751.136719 424.226562 L 565.101562 102.007812 "/>
</g>
<path style=" stroke:none;fill-rule:nonzero;fill:rgb(85.000381%,85.000381%,85.000381%);fill-opacity:1;" d="M 565.101562 102.007812 L 565.316406 102.222656 L 565.191406 101.664062 L 564.976562 101.789062 Z M 565.101562 102.007812 "/>
<g clip-path="url(#clip41)" clip-rule="nonzero">
<path style="fill:none;stroke-width:0.5;stroke-linecap:square;stroke-linejoin:miter;stroke:rgb(85.000381%,85.000381%,85.000381%);stroke-opacity:1;stroke-miterlimit:3.25;" d="M -21.78125 269.890625 L 619.289062 -100.230469 "/>
</g>
<g clip-path="url(#clip42)" clip-rule="nonzero">
<path style="fill:none;stroke-width:0.5;stroke-linecap:square;stroke-linejoin:miter;stroke:rgb(85.000381%,85.000381%,85.000381%);stroke-opacity:1;stroke-miterlimit:3.25;" d="M 922.085938 424.226562 L 619.289062 -100.230469 "/>
<path style="fill:none;stroke-width:0.5;stroke-linecap:square;stroke-linejoin:miter;stroke:rgb(85.000381%,85.000381%,85.000381%);stroke-opacity:1;stroke-miterlimit:3.25;" d="M 922.085938 424.226562 L 619.289062 -100.230469 "/>
</g>
<g clip-path="url(#clip43)" clip-rule="nonzero">
<path style="fill:none;stroke-width:0.5;stroke-linecap:square;stroke-linejoin:miter;stroke:rgb(85.000381%,85.000381%,85.000381%);stroke-opacity:1;stroke-miterlimit:3.25;" d="M 80.917969 424.226562 L 551.109375 94.996094 "/>
<path style="fill:none;stroke-width:0.5;stroke-linecap:square;stroke-linejoin:miter;stroke:rgb(85.000381%,85.000381%,85.000381%);stroke-opacity:1;stroke-miterlimit:3.25;" d="M 80.917969 424.226562 L 551.109375 94.996094 "/>
</g>
<path style=" stroke:none;fill-rule:nonzero;fill:rgb(85.000381%,85.000381%,85.000381%);fill-opacity:1;" d="M 551.109375 94.996094 L 550.964844 94.851562 L 551.171875 94.648438 L 551.3125 94.851562 Z M 551.109375 94.996094 "/>
<g clip-path="url(#clip44)" clip-rule="nonzero">
<path style="fill:none;stroke-width:0.5;stroke-linecap:square;stroke-linejoin:miter;stroke:rgb(85.000381%,85.000381%,85.000381%);stroke-opacity:1;stroke-miterlimit:3.25;" d="M 781.640625 424.226562 L 551.109375 94.996094 "/>
<path style="fill:none;stroke-width:0.5;stroke-linecap:square;stroke-linejoin:miter;stroke:rgb(85.000381%,85.000381%,85.000381%);stroke-opacity:1;stroke-miterlimit:3.25;" d="M 781.640625 424.226562 L 551.109375 94.996094 "/>
</g>
<g clip-path="url(#clip45)" clip-rule="nonzero">
<path style="fill:none;stroke-width:0.5;stroke-linecap:square;stroke-linejoin:miter;stroke:rgb(85.000381%,85.000381%,85.000381%);stroke-opacity:1;stroke-miterlimit:3.25;" d="M -18.90625 313.390625 L 587.464844 -111.195312 "/>
</g>
<g clip-path="url(#clip46)" clip-rule="nonzero">
<path style="fill:none;stroke-width:0.5;stroke-linecap:square;stroke-linejoin:miter;stroke:rgb(85.000381%,85.000381%,85.000381%);stroke-opacity:1;stroke-miterlimit:3.25;" d="M 962.375 424.226562 L 587.464844 -111.195312 "/>
<path style="fill:none;stroke-width:0.5;stroke-linecap:square;stroke-linejoin:miter;stroke:rgb(85.000381%,85.000381%,85.000381%);stroke-opacity:1;stroke-miterlimit:3.25;" d="M 962.375 424.226562 L 587.464844 -111.195312 "/>
</g>
<g clip-path="url(#clip47)" clip-rule="nonzero">
<path style="fill:none;stroke-width:0.5;stroke-linecap:square;stroke-linejoin:miter;stroke:rgb(85.000381%,85.000381%,85.000381%);stroke-opacity:1;stroke-miterlimit:3.25;" d="M 138.714844 424.226562 L 536.242188 90.664062 "/>
<path style="fill:none;stroke-width:0.5;stroke-linecap:square;stroke-linejoin:miter;stroke:rgb(85.000381%,85.000381%,85.000381%);stroke-opacity:1;stroke-miterlimit:3.25;" d="M 138.714844 424.226562 L 536.242188 90.664062 "/>
</g>
<path style=" stroke:none;fill-rule:nonzero;fill:rgb(85.000381%,85.000381%,85.000381%);fill-opacity:1;" d="M 536.242188 90.664062 L 536.082031 90.503906 L 536.273438 90.3125 L 536.433594 90.503906 Z M 536.242188 90.664062 "/>
<g clip-path="url(#clip48)" clip-rule="nonzero">
<path style="fill:none;stroke-width:0.5;stroke-linecap:square;stroke-linejoin:miter;stroke:rgb(85.000381%,85.000381%,85.000381%);stroke-opacity:1;stroke-miterlimit:3.25;" d="M 816.132812 424.226562 L 536.242188 90.664062 "/>
<path style="fill:none;stroke-width:0.5;stroke-linecap:square;stroke-linejoin:miter;stroke:rgb(85.000381%,85.000381%,85.000381%);stroke-opacity:1;stroke-miterlimit:3.25;" d="M 816.132812 424.226562 L 536.242188 90.664062 "/>
</g>
<g clip-path="url(#clip49)" clip-rule="nonzero">
<path style="fill:none;stroke-width:0.5;stroke-linecap:square;stroke-linejoin:miter;stroke:rgb(85.000381%,85.000381%,85.000381%);stroke-opacity:1;stroke-miterlimit:3.25;" d="M -12.570312 357.910156 L 554.488281 -117.910156 "/>
</g>
<g clip-path="url(#clip50)" clip-rule="nonzero">
<path style="fill:none;stroke-width:0.5;stroke-linecap:square;stroke-linejoin:miter;stroke:rgb(85.000381%,85.000381%,85.000381%);stroke-opacity:1;stroke-miterlimit:3.25;" d="M 1009.398438 424.226562 L 554.488281 -117.910156 "/>
<path style="fill:none;stroke-width:0.5;stroke-linecap:square;stroke-linejoin:miter;stroke:rgb(85.000381%,85.000381%,85.000381%);stroke-opacity:1;stroke-miterlimit:3.25;" d="M 1009.398438 424.226562 L 554.488281 -117.910156 "/>
</g>
<g clip-path="url(#clip51)" clip-rule="nonzero">
<path style="fill:none;stroke-width:0.5;stroke-linecap:square;stroke-linejoin:miter;stroke:rgb(85.000381%,85.000381%,85.000381%);stroke-opacity:1;stroke-miterlimit:3.25;" d="M 185.917969 424.226562 L 520.945312 89.199219 "/>
<path style="fill:none;stroke-width:0.5;stroke-linecap:square;stroke-linejoin:miter;stroke:rgb(85.000381%,85.000381%,85.000381%);stroke-opacity:1;stroke-miterlimit:3.25;" d="M 185.917969 424.226562 L 520.945312 89.199219 "/>
</g>
<path style=" stroke:none;fill-rule:nonzero;fill:rgb(85.000381%,85.000381%,85.000381%);fill-opacity:1;" d="M 520.945312 89.199219 L 520.769531 89.023438 L 520.945312 88.847656 L 521.125 89.023438 Z M 520.945312 89.199219 "/>
<g clip-path="url(#clip52)" clip-rule="nonzero">
<path style="fill:none;stroke-width:0.5;stroke-linecap:square;stroke-linejoin:miter;stroke:rgb(85.000381%,85.000381%,85.000381%);stroke-opacity:1;stroke-miterlimit:3.25;" d="M 855.976562 424.226562 L 520.945312 89.199219 "/>
<path style="fill:none;stroke-width:0.5;stroke-linecap:square;stroke-linejoin:miter;stroke:rgb(85.000381%,85.000381%,85.000381%);stroke-opacity:1;stroke-miterlimit:3.25;" d="M 855.976562 424.226562 L 520.945312 89.199219 "/>
</g>
<g clip-path="url(#clip53)" clip-rule="nonzero">
<path style="fill:none;stroke-width:0.5;stroke-linecap:square;stroke-linejoin:miter;stroke:rgb(85.000381%,85.000381%,85.000381%);stroke-opacity:1;stroke-miterlimit:3.25;" d="M -2.484375 403.257812 L 520.945312 -120.171875 L 1044.378906 403.257812 "/>
</g>
<g clip-path="url(#clip54)" clip-rule="nonzero">
<path style="fill:none;stroke-width:0.5;stroke-linecap:square;stroke-linejoin:miter;stroke:rgb(85.000381%,85.000381%,85.000381%);stroke-opacity:1;stroke-miterlimit:3.25;" d="M 225.761719 424.226562 L 505.652344 90.664062 "/>
<path style="fill:none;stroke-width:0.5;stroke-linecap:square;stroke-linejoin:miter;stroke:rgb(85.000381%,85.000381%,85.000381%);stroke-opacity:1;stroke-miterlimit:3.25;" d="M 225.761719 424.226562 L 505.652344 90.664062 "/>
</g>
<path style=" stroke:none;fill-rule:nonzero;fill:rgb(85.000381%,85.000381%,85.000381%);fill-opacity:1;" d="M 505.652344 90.664062 L 505.460938 90.472656 L 505.621094 90.3125 L 505.8125 90.472656 Z M 505.652344 90.664062 "/>
<g clip-path="url(#clip55)" clip-rule="nonzero">
<path style="fill:none;stroke-width:0.5;stroke-linecap:square;stroke-linejoin:miter;stroke:rgb(85.000381%,85.000381%,85.000381%);stroke-opacity:1;stroke-miterlimit:3.25;" d="M 903.175781 424.226562 L 505.652344 90.664062 "/>
<path style="fill:none;stroke-width:0.5;stroke-linecap:square;stroke-linejoin:miter;stroke:rgb(85.000381%,85.000381%,85.000381%);stroke-opacity:1;stroke-miterlimit:3.25;" d="M 903.175781 424.226562 L 505.652344 90.664062 "/>
</g>
<g clip-path="url(#clip56)" clip-rule="nonzero">
<path style="fill:none;stroke-width:0.5;stroke-linecap:square;stroke-linejoin:miter;stroke:rgb(85.000381%,85.000381%,85.000381%);stroke-opacity:1;stroke-miterlimit:3.25;" d="M 32.496094 424.226562 L 487.40625 -117.910156 "/>
<path style="fill:none;stroke-width:0.5;stroke-linecap:square;stroke-linejoin:miter;stroke:rgb(85.000381%,85.000381%,85.000381%);stroke-opacity:1;stroke-miterlimit:3.25;" d="M 32.496094 424.226562 L 487.40625 -117.910156 "/>
</g>
<g clip-path="url(#clip57)" clip-rule="nonzero">
<path style="fill:none;stroke-width:0.5;stroke-linecap:square;stroke-linejoin:miter;stroke:rgb(85.000381%,85.000381%,85.000381%);stroke-opacity:1;stroke-miterlimit:3.25;" d="M 487.40625 -117.910156 L 1054.464844 357.910156 "/>
</g>
<g clip-path="url(#clip58)" clip-rule="nonzero">
<path style="fill:none;stroke-width:0.5;stroke-linecap:square;stroke-linejoin:miter;stroke:rgb(85.000381%,85.000381%,85.000381%);stroke-opacity:1;stroke-miterlimit:3.25;" d="M 260.253906 424.226562 L 490.785156 94.996094 "/>
<path style="fill:none;stroke-width:0.5;stroke-linecap:square;stroke-linejoin:miter;stroke:rgb(85.000381%,85.000381%,85.000381%);stroke-opacity:1;stroke-miterlimit:3.25;" d="M 260.253906 424.226562 L 490.785156 94.996094 "/>
</g>
<path style=" stroke:none;fill-rule:nonzero;fill:rgb(85.000381%,85.000381%,85.000381%);fill-opacity:1;" d="M 490.785156 94.996094 L 490.578125 94.792969 L 490.722656 94.648438 L 490.929688 94.792969 Z M 490.785156 94.996094 "/>
<g clip-path="url(#clip59)" clip-rule="nonzero">
<path style="fill:none;stroke-width:0.5;stroke-linecap:square;stroke-linejoin:miter;stroke:rgb(85.000381%,85.000381%,85.000381%);stroke-opacity:1;stroke-miterlimit:3.25;" d="M 960.976562 424.226562 L 490.785156 94.996094 "/>
<path style="fill:none;stroke-width:0.5;stroke-linecap:square;stroke-linejoin:miter;stroke:rgb(85.000381%,85.000381%,85.000381%);stroke-opacity:1;stroke-miterlimit:3.25;" d="M 960.976562 424.226562 L 490.785156 94.996094 "/>
</g>
<g clip-path="url(#clip60)" clip-rule="nonzero">
<path style="fill:none;stroke-width:0.5;stroke-linecap:square;stroke-linejoin:miter;stroke:rgb(85.000381%,85.000381%,85.000381%);stroke-opacity:1;stroke-miterlimit:3.25;" d="M 79.519531 424.226562 L 454.425781 -111.195312 "/>
<path style="fill:none;stroke-width:0.5;stroke-linecap:square;stroke-linejoin:miter;stroke:rgb(85.000381%,85.000381%,85.000381%);stroke-opacity:1;stroke-miterlimit:3.25;" d="M 79.519531 424.226562 L 454.425781 -111.195312 "/>
</g>
<g clip-path="url(#clip61)" clip-rule="nonzero">
<path style="fill:none;stroke-width:0.5;stroke-linecap:square;stroke-linejoin:miter;stroke:rgb(85.000381%,85.000381%,85.000381%);stroke-opacity:1;stroke-miterlimit:3.25;" d="M 454.425781 -111.195312 L 1060.800781 313.390625 "/>
</g>
<g clip-path="url(#clip62)" clip-rule="nonzero">
<path style="fill:none;stroke-width:0.5;stroke-linecap:square;stroke-linejoin:miter;stroke:rgb(85.000381%,85.000381%,85.000381%);stroke-opacity:1;stroke-miterlimit:3.25;" d="M 290.757812 424.226562 L 476.792969 102.007812 "/>
<path style="fill:none;stroke-width:0.5;stroke-linecap:square;stroke-linejoin:miter;stroke:rgb(85.000381%,85.000381%,85.000381%);stroke-opacity:1;stroke-miterlimit:3.25;" d="M 290.757812 424.226562 L 476.792969 102.007812 "/>
</g>
<path style=" stroke:none;fill-rule:nonzero;fill:rgb(85.000381%,85.000381%,85.000381%);fill-opacity:1;" d="M 476.792969 102.007812 L 476.578125 101.789062 L 476.703125 101.664062 L 476.917969 101.789062 Z M 476.792969 102.007812 "/>
<g clip-path="url(#clip63)" clip-rule="nonzero">
<path style="fill:none;stroke-width:0.5;stroke-linecap:square;stroke-linejoin:miter;stroke:rgb(85.000381%,85.000381%,85.000381%);stroke-opacity:1;stroke-miterlimit:3.25;" d="M 476.792969 102.007812 L 989.648438 398.105469 "/>
</g>
<g clip-path="url(#clip64)" clip-rule="nonzero">
<path style="fill:none;stroke-width:0.5;stroke-linecap:square;stroke-linejoin:miter;stroke:rgb(85.000381%,85.000381%,85.000381%);stroke-opacity:1;stroke-miterlimit:3.25;" d="M 119.808594 424.226562 L 422.605469 -100.230469 "/>
<path style="fill:none;stroke-width:0.5;stroke-linecap:square;stroke-linejoin:miter;stroke:rgb(85.000381%,85.000381%,85.000381%);stroke-opacity:1;stroke-miterlimit:3.25;" d="M 119.808594 424.226562 L 422.605469 -100.230469 "/>
</g>
<g clip-path="url(#clip65)" clip-rule="nonzero">
<path style="fill:none;stroke-width:0.5;stroke-linecap:square;stroke-linejoin:miter;stroke:rgb(85.000381%,85.000381%,85.000381%);stroke-opacity:1;stroke-miterlimit:3.25;" d="M 422.605469 -100.230469 L 1063.675781 269.890625 "/>
</g>
<g clip-path="url(#clip66)" clip-rule="nonzero">
<path style="fill:none;stroke-width:0.5;stroke-linecap:square;stroke-linejoin:miter;stroke:rgb(85.000381%,85.000381%,85.000381%);stroke-opacity:1;stroke-miterlimit:3.25;" d="M 318.238281 424.226562 L 464.058594 111.519531 "/>
<path style="fill:none;stroke-width:0.5;stroke-linecap:square;stroke-linejoin:miter;stroke:rgb(85.000381%,85.000381%,85.000381%);stroke-opacity:1;stroke-miterlimit:3.25;" d="M 318.238281 424.226562 L 464.058594 111.519531 "/>
</g>
<path style=" stroke:none;fill-rule:nonzero;fill:rgb(85.000381%,85.000381%,85.000381%);fill-opacity:1;" d="M 464.058594 111.519531 L 463.832031 111.292969 L 463.9375 111.1875 L 464.164062 111.292969 Z M 464.058594 111.519531 "/>
<g clip-path="url(#clip67)" clip-rule="nonzero">
<path style="fill:none;stroke-width:0.5;stroke-linecap:square;stroke-linejoin:miter;stroke:rgb(85.000381%,85.000381%,85.000381%);stroke-opacity:1;stroke-miterlimit:3.25;" d="M 464.058594 111.519531 L 1000.769531 361.789062 "/>
</g>
<g clip-path="url(#clip68)" clip-rule="nonzero">
<path style="fill:none;stroke-width:0.5;stroke-linecap:square;stroke-linejoin:miter;stroke:rgb(85.000381%,85.000381%,85.000381%);stroke-opacity:1;stroke-miterlimit:3.25;" d="M 154.882812 424.226562 L 392.445312 -85.226562 "/>
<path style="fill:none;stroke-width:0.5;stroke-linecap:square;stroke-linejoin:miter;stroke:rgb(85.000381%,85.000381%,85.000381%);stroke-opacity:1;stroke-miterlimit:3.25;" d="M 154.882812 424.226562 L 392.445312 -85.226562 "/>
</g>
<g clip-path="url(#clip69)" clip-rule="nonzero">
<path style="fill:none;stroke-width:0.5;stroke-linecap:square;stroke-linejoin:miter;stroke:rgb(85.000381%,85.000381%,85.000381%);stroke-opacity:1;stroke-miterlimit:3.25;" d="M 392.445312 -85.226562 L 1063.335938 227.613281 "/>
</g>
<g clip-path="url(#clip70)" clip-rule="nonzero">
<path style="fill:none;stroke-width:0.5;stroke-linecap:square;stroke-linejoin:miter;stroke:rgb(85.000381%,85.000381%,85.000381%);stroke-opacity:1;stroke-miterlimit:3.25;" d="M 343.390625 424.226562 L 452.914062 123.3125 "/>
<path style="fill:none;stroke-width:0.5;stroke-linecap:square;stroke-linejoin:miter;stroke:rgb(85.000381%,85.000381%,85.000381%);stroke-opacity:1;stroke-miterlimit:3.25;" d="M 343.390625 424.226562 L 452.914062 123.3125 "/>
</g>
<path style=" stroke:none;fill-rule:nonzero;fill:rgb(85.000381%,85.000381%,85.000381%);fill-opacity:1;" d="M 452.914062 123.3125 L 452.679688 123.078125 L 452.765625 122.992188 L 453 123.078125 Z M 452.914062 123.3125 "/>
<g clip-path="url(#clip71)" clip-rule="nonzero">
<path style="fill:none;stroke-width:0.5;stroke-linecap:square;stroke-linejoin:miter;stroke:rgb(85.000381%,85.000381%,85.000381%);stroke-opacity:1;stroke-miterlimit:3.25;" d="M 452.914062 123.3125 L 1009.398438 325.855469 "/>
</g>
<g clip-path="url(#clip72)" clip-rule="nonzero">
<path style="fill:none;stroke-width:0.5;stroke-linecap:square;stroke-linejoin:miter;stroke:rgb(85.000381%,85.000381%,85.000381%);stroke-opacity:1;stroke-miterlimit:3.25;" d="M 185.839844 424.226562 L 364.429688 -66.445312 "/>
<path style="fill:none;stroke-width:0.5;stroke-linecap:square;stroke-linejoin:miter;stroke:rgb(85.000381%,85.000381%,85.000381%);stroke-opacity:1;stroke-miterlimit:3.25;" d="M 185.839844 424.226562 L 364.429688 -66.445312 "/>
</g>
<g clip-path="url(#clip73)" clip-rule="nonzero">
<path style="fill:none;stroke-width:0.5;stroke-linecap:square;stroke-linejoin:miter;stroke:rgb(85.000381%,85.000381%,85.000381%);stroke-opacity:1;stroke-miterlimit:3.25;" d="M 364.429688 -66.445312 L 1060.03125 186.734375 "/>
</g>
<g clip-path="url(#clip74)" clip-rule="nonzero">
<path style="fill:none;stroke-width:0.5;stroke-linecap:square;stroke-linejoin:miter;stroke:rgb(85.000381%,85.000381%,85.000381%);stroke-opacity:1;stroke-miterlimit:3.25;" d="M 366.753906 424.226562 L 443.683594 137.125 "/>
<path style="fill:none;stroke-width:0.5;stroke-linecap:square;stroke-linejoin:miter;stroke:rgb(85.000381%,85.000381%,85.000381%);stroke-opacity:1;stroke-miterlimit:3.25;" d="M 366.753906 424.226562 L 443.683594 137.125 "/>
</g>
<path style=" stroke:none;fill-rule:nonzero;fill:rgb(85.000381%,85.000381%,85.000381%);fill-opacity:1;" d="M 443.683594 137.125 L 443.441406 136.882812 L 443.503906 136.820312 L 443.746094 136.882812 Z M 443.683594 137.125 "/>
<g clip-path="url(#clip75)" clip-rule="nonzero">
<path style="fill:none;stroke-width:0.5;stroke-linecap:square;stroke-linejoin:miter;stroke:rgb(85.000381%,85.000381%,85.000381%);stroke-opacity:1;stroke-miterlimit:3.25;" d="M 443.683594 137.125 L 1015.699219 290.394531 "/>
</g>
<g clip-path="url(#clip76)" clip-rule="nonzero">
<path style="fill:none;stroke-width:0.5;stroke-linecap:square;stroke-linejoin:miter;stroke:rgb(85.000381%,85.000381%,85.000381%);stroke-opacity:1;stroke-miterlimit:3.25;" d="M 213.480469 424.226562 L 338.996094 -44.195312 "/>
<path style="fill:none;stroke-width:0.5;stroke-linecap:square;stroke-linejoin:miter;stroke:rgb(85.000381%,85.000381%,85.000381%);stroke-opacity:1;stroke-miterlimit:3.25;" d="M 213.480469 424.226562 L 338.996094 -44.195312 "/>
</g>
<g clip-path="url(#clip77)" clip-rule="nonzero">
<path style="fill:none;stroke-width:0.5;stroke-linecap:square;stroke-linejoin:miter;stroke:rgb(85.000381%,85.000381%,85.000381%);stroke-opacity:1;stroke-miterlimit:3.25;" d="M 338.996094 -44.195312 L 1054.015625 147.390625 "/>
</g>
<g clip-path="url(#clip78)" clip-rule="nonzero">
<path style="fill:none;stroke-width:0.5;stroke-linecap:square;stroke-linejoin:miter;stroke:rgb(85.000381%,85.000381%,85.000381%);stroke-opacity:1;stroke-miterlimit:3.25;" d="M 388.742188 424.226562 L 436.625 152.660156 "/>
<path style="fill:none;stroke-width:0.5;stroke-linecap:square;stroke-linejoin:miter;stroke:rgb(85.000381%,85.000381%,85.000381%);stroke-opacity:1;stroke-miterlimit:3.25;" d="M 388.742188 424.226562 L 436.625 152.660156 "/>
</g>
<path style=" stroke:none;fill-rule:nonzero;fill:rgb(85.000381%,85.000381%,85.000381%);fill-opacity:1;" d="M 436.625 152.660156 L 436.378906 152.414062 L 436.421875 152.367188 L 436.667969 152.414062 Z M 436.625 152.660156 "/>
<g clip-path="url(#clip79)" clip-rule="nonzero">
<path style="fill:none;stroke-width:0.5;stroke-linecap:square;stroke-linejoin:miter;stroke:rgb(85.000381%,85.000381%,85.000381%);stroke-opacity:1;stroke-miterlimit:3.25;" d="M 436.625 152.660156 L 1019.824219 255.492188 "/>
</g>
<g clip-path="url(#clip80)" clip-rule="nonzero">
<path style="fill:none;stroke-width:0.5;stroke-linecap:square;stroke-linejoin:miter;stroke:rgb(85.000381%,85.000381%,85.000381%);stroke-opacity:1;stroke-miterlimit:3.25;" d="M 238.410156 424.226562 L 316.535156 -18.847656 "/>
<path style="fill:none;stroke-width:0.5;stroke-linecap:square;stroke-linejoin:miter;stroke:rgb(85.000381%,85.000381%,85.000381%);stroke-opacity:1;stroke-miterlimit:3.25;" d="M 238.410156 424.226562 L 316.535156 -18.847656 "/>
</g>
<g clip-path="url(#clip81)" clip-rule="nonzero">
<path style="fill:none;stroke-width:0.5;stroke-linecap:square;stroke-linejoin:miter;stroke:rgb(85.000381%,85.000381%,85.000381%);stroke-opacity:1;stroke-miterlimit:3.25;" d="M 316.535156 -18.847656 L 1045.53125 109.691406 "/>
</g>
<g clip-path="url(#clip82)" clip-rule="nonzero">
<path style="fill:none;stroke-width:0.5;stroke-linecap:square;stroke-linejoin:miter;stroke:rgb(85.000381%,85.000381%,85.000381%);stroke-opacity:1;stroke-miterlimit:3.25;" d="M 409.699219 424.226562 L 431.976562 169.582031 "/>
<path style="fill:none;stroke-width:0.5;stroke-linecap:square;stroke-linejoin:miter;stroke:rgb(85.000381%,85.000381%,85.000381%);stroke-opacity:1;stroke-miterlimit:3.25;" d="M 409.699219 424.226562 L 431.976562 169.582031 "/>
</g>
<path style=" stroke:none;fill-rule:nonzero;fill:rgb(85.000381%,85.000381%,85.000381%);fill-opacity:1;" d="M 431.976562 169.582031 L 431.730469 169.332031 L 431.75 169.3125 L 432 169.332031 Z M 431.976562 169.582031 "/>
<g clip-path="url(#clip83)" clip-rule="nonzero">
<path style="fill:none;stroke-width:0.5;stroke-linecap:square;stroke-linejoin:miter;stroke:rgb(85.000381%,85.000381%,85.000381%);stroke-opacity:1;stroke-miterlimit:3.25;" d="M 431.976562 169.582031 L 1021.921875 221.195312 "/>
</g>
<g clip-path="url(#clip84)" clip-rule="nonzero">
<path style="fill:none;stroke-width:0.5;stroke-linecap:square;stroke-linejoin:miter;stroke:rgb(85.000381%,85.000381%,85.000381%);stroke-opacity:1;stroke-miterlimit:3.25;" d="M 261.085938 424.226562 L 297.394531 9.195312 "/>
<path style="fill:none;stroke-width:0.5;stroke-linecap:square;stroke-linejoin:miter;stroke:rgb(85.000381%,85.000381%,85.000381%);stroke-opacity:1;stroke-miterlimit:3.25;" d="M 261.085938 424.226562 L 297.394531 9.195312 "/>
</g>
<g clip-path="url(#clip85)" clip-rule="nonzero">
<path style=" stroke:none;fill-rule:nonzero;fill:rgb(85.000381%,85.000381%,85.000381%);fill-opacity:1;" d="M 297.394531 9.195312 L 297.148438 8.945312 L 297.167969 8.921875 L 297.417969 8.945312 Z M 297.394531 9.195312 "/>
</g>
<g clip-path="url(#clip86)" clip-rule="nonzero">
<path style="fill:none;stroke-width:0.5;stroke-linecap:square;stroke-linejoin:miter;stroke:rgb(85.000381%,85.000381%,85.000381%);stroke-opacity:1;stroke-miterlimit:3.25;" d="M 297.394531 9.195312 L 1034.824219 73.710938 "/>
</g>
<g clip-path="url(#clip87)" clip-rule="nonzero">
<path style="fill:none;stroke-width:0.5;stroke-linecap:square;stroke-linejoin:miter;stroke:rgb(85.000381%,85.000381%,85.000381%);stroke-opacity:1;stroke-miterlimit:3.25;" d="M 430.082031 424.226562 L 430.082031 187.542969 "/>
<path style="fill:none;stroke-width:0.5;stroke-linecap:square;stroke-linejoin:miter;stroke:rgb(85.000381%,85.000381%,85.000381%);stroke-opacity:1;stroke-miterlimit:3.25;" d="M 430.082031 424.226562 L 430.082031 187.542969 "/>
</g>
<path style=" stroke:none;fill-rule:nonzero;fill:rgb(85.000381%,85.000381%,85.000381%);fill-opacity:1;" d="M 430.082031 187.542969 L 429.832031 187.292969 L 430.082031 187.292969 Z M 430.082031 187.542969 "/>
<g clip-path="url(#clip88)" clip-rule="nonzero">
<path style="fill:none;stroke-width:0.5;stroke-linecap:square;stroke-linejoin:miter;stroke:rgb(85.000381%,85.000381%,85.000381%);stroke-opacity:1;stroke-miterlimit:3.25;" d="M 430.082031 187.542969 L 1022.273438 187.542969 "/>
</g>
<g clip-path="url(#clip89)" clip-rule="nonzero">
<path style="fill:none;stroke-width:0.5;stroke-linecap:square;stroke-linejoin:miter;stroke:rgb(85.000381%,85.000381%,85.000381%);stroke-opacity:1;stroke-miterlimit:3.25;" d="M 282.03125 424.226562 L 282.03125 39.496094 "/>
<path style="fill:none;stroke-width:0.5;stroke-linecap:square;stroke-linejoin:miter;stroke:rgb(85.000381%,85.000381%,85.000381%);stroke-opacity:1;stroke-miterlimit:3.25;" d="M 282.03125 424.226562 L 282.03125 39.496094 "/>
</g>
<path style=" stroke:none;fill-rule:nonzero;fill:rgb(85.000381%,85.000381%,85.000381%);fill-opacity:1;" d="M 282.03125 39.496094 L 281.78125 39.246094 L 282.03125 39.246094 Z M 282.03125 39.496094 "/>
<g clip-path="url(#clip90)" clip-rule="nonzero">
<path style="fill:none;stroke-width:0.5;stroke-linecap:square;stroke-linejoin:miter;stroke:rgb(85.000381%,85.000381%,85.000381%);stroke-opacity:1;stroke-miterlimit:3.25;" d="M 282.03125 39.496094 L 1022.273438 39.496094 "/>
</g>
<path style="fill-rule:nonzero;fill:rgb(100%,100%,86.999313%);fill-opacity:1;stroke-width:1.5;stroke-linecap:square;stroke-linejoin:miter;stroke:rgb(0%,0%,0%);stroke-opacity:1;stroke-miterlimit:3.25;" d="M 611.378906 179.375 L 610.703125 174.140625 L 609.800781 168.988281 L 608.675781 163.925781 L 607.332031 158.960938 L 605.777344 154.105469 L 604.015625 149.363281 L 602.050781 144.75 L 599.890625 140.269531 L 597.535156 135.929688 L 595 131.738281 L 592.28125 127.707031 L 589.394531 123.839844 L 586.34375 120.140625 L 583.132812 116.625 L 579.773438 113.292969 L 576.273438 110.15625 L 572.640625 107.214844 L 568.882812 104.476562 L 565.007812 101.949219 L 561.027344 99.636719 L 556.949219 97.542969 L 552.78125 95.671875 L 548.53125 94.03125 L 544.214844 92.621094 L 539.839844 91.445312 L 535.414062 90.511719 L 530.960938 89.824219 L 526.480469 89.390625 L 521.992188 89.207031 L 517.5 89.273438 L 513.015625 89.59375 L 508.546875 90.160156 L 504.109375 90.980469 L 499.707031 92.042969 L 495.363281 93.347656 L 491.082031 94.878906 L 486.875 96.644531 L 482.753906 98.636719 L 478.726562 100.847656 L 474.800781 103.273438 L 470.988281 105.914062 L 467.292969 108.761719 L 463.730469 111.808594 L 460.304688 115.050781 L 457.027344 118.484375 L 453.898438 122.097656 L 450.933594 125.886719 L 448.136719 129.84375 L 445.515625 133.960938 L 443.074219 138.230469 L 440.824219 142.648438 L 438.765625 147.203125 L 436.910156 151.882812 L 435.257812 156.6875 L 433.816406 161.601562 L 432.589844 166.621094 L 431.585938 171.734375 L 430.800781 176.929688 L 430.515625 179.375 L 430.28125 179.558594 L 430.035156 179.75 L 429.769531 179.949219 L 429.492188 180.152344 L 429.195312 180.363281 L 428.882812 180.574219 L 428.554688 180.792969 L 428.207031 181.015625 L 427.84375 181.242188 L 427.464844 181.46875 L 427.066406 181.699219 L 426.648438 181.933594 L 426.214844 182.167969 L 425.765625 182.402344 L 425.296875 182.636719 L 424.808594 182.875 L 424.304688 183.109375 L 423.78125 183.34375 L 423.238281 183.578125 L 422.679688 183.8125 L 422.101562 184.039062 L 421.503906 184.265625 L 420.886719 184.488281 L 420.253906 184.710938 L 419.597656 184.925781 L 418.925781 185.132812 L 418.238281 185.339844 L 417.527344 185.539062 L 416.800781 185.730469 L 416.054688 185.917969 L 415.289062 186.09375 L 414.503906 186.265625 L 413.703125 186.429688 L 412.882812 186.582031 L 412.046875 186.726562 L 411.191406 186.859375 L 410.316406 186.980469 L 409.421875 187.09375 L 408.511719 187.195312 L 407.585938 187.285156 L 406.640625 187.359375 L 405.679688 187.425781 L 404.699219 187.476562 L 403.636719 187.511719 L 402.539062 187.535156 L 282.03125 187.542969 L 282.140625 185.09375 L 282.476562 179.867188 L 282.9375 174.707031 L 283.527344 169.613281 L 284.234375 164.59375 L 285.0625 159.652344 L 286.003906 154.792969 L 287.058594 150.015625 L 288.214844 145.332031 L 289.476562 140.734375 L 290.835938 136.234375 L 292.292969 131.835938 L 293.835938 127.535156 L 295.460938 123.339844 L 297.167969 119.253906 L 298.953125 115.273438 L 300.804688 111.40625 L 302.722656 107.652344 L 304.699219 104.015625 L 306.730469 100.492188 L 308.8125 97.089844 L 310.933594 93.808594 L 313.097656 90.644531 L 315.292969 87.605469 L 317.515625 84.683594 L 319.761719 81.890625 L 322.015625 79.222656 L 324.273438 76.6875 L 326.53125 74.277344 L 328.777344 72 L 331.015625 69.84375 L 333.234375 67.8125 L 335.433594 65.898438 L 337.667969 64.058594 L 340.226562 62.054688 L 342.792969 60.144531 L 345.371094 58.328125 L 347.957031 56.605469 L 350.542969 54.976562 L 353.128906 53.4375 L 355.707031 51.988281 L 358.285156 50.628906 L 360.847656 49.355469 L 363.402344 48.167969 L 365.941406 47.066406 L 368.464844 46.050781 L 370.964844 45.113281 L 373.441406 44.257812 L 375.898438 43.476562 L 378.324219 42.773438 L 380.71875 42.148438 L 383.085938 41.589844 L 385.417969 41.105469 L 387.714844 40.691406 L 389.972656 40.339844 L 392.191406 40.050781 L 394.367188 39.828125 L 396.5 39.660156 L 398.589844 39.550781 L 640.40625 39.496094 L 642.292969 39.519531 L 644.269531 39.597656 L 646.382812 39.730469 L 648.535156 39.925781 L 650.730469 40.175781 L 652.96875 40.492188 L 655.246094 40.875 L 657.558594 41.324219 L 659.90625 41.839844 L 662.285156 42.429688 L 664.695312 43.09375 L 667.136719 43.828125 L 669.601562 44.644531 L 672.089844 45.539062 L 674.601562 46.511719 L 677.132812 47.570312 L 679.675781 48.710938 L 682.238281 49.9375 L 684.808594 51.25 L 687.386719 52.652344 L 689.96875 54.140625 L 692.554688 55.722656 L 695.140625 57.394531 L 697.722656 59.160156 L 700.296875 61.019531 L 702.859375 62.972656 L 705.292969 64.925781 L 707.480469 66.773438 L 709.6875 68.742188 L 711.917969 70.832031 L 714.160156 73.042969 L 716.414062 75.382812 L 718.671875 77.851562 L 720.929688 80.445312 L 723.179688 83.175781 L 725.414062 86.027344 L 727.625 89.003906 L 729.808594 92.101562 L 731.953125 95.320312 L 734.058594 98.660156 L 736.117188 102.117188 L 738.121094 105.691406 L 740.070312 109.382812 L 741.960938 113.191406 L 743.78125 117.109375 L 745.527344 121.140625 L 747.199219 125.277344 L 748.789062 129.523438 L 750.289062 133.871094 L 751.699219 138.316406 L 753.015625 142.863281 L 754.230469 147.5 L 755.339844 152.226562 L 756.34375 157.042969 L 757.230469 161.941406 L 758.003906 166.921875 L 758.65625 171.972656 L 759.1875 177.097656 L 759.589844 182.289062 L 759.863281 187.542969 L 640.40625 187.542969 L 639.5625 187.539062 L 638.722656 187.523438 L 637.882812 187.5 L 637.089844 187.46875 L 636.339844 187.429688 L 635.597656 187.386719 L 634.867188 187.332031 L 634.148438 187.269531 L 633.4375 187.199219 L 632.738281 187.125 L 632.050781 187.042969 L 631.371094 186.953125 L 630.703125 186.859375 L 630.046875 186.757812 L 629.398438 186.648438 L 628.761719 186.535156 L 628.136719 186.417969 L 627.523438 186.292969 L 626.917969 186.164062 L 626.328125 186.03125 L 625.742188 185.894531 L 625.171875 185.75 L 624.613281 185.605469 L 624.0625 185.453125 L 623.523438 185.300781 L 622.996094 185.144531 L 622.480469 184.984375 L 621.972656 184.820312 L 621.476562 184.652344 L 620.992188 184.484375 L 620.519531 184.316406 L 620.058594 184.140625 L 619.605469 183.96875 L 619.167969 183.792969 L 618.738281 183.613281 L 618.320312 183.433594 L 617.910156 183.253906 L 617.511719 183.074219 L 617.125 182.894531 L 616.75 182.714844 L 616.386719 182.53125 L 616.03125 182.351562 L 615.6875 182.171875 L 615.351562 181.992188 L 615.03125 181.8125 L 614.71875 181.636719 L 614.414062 181.460938 L 614.121094 181.285156 L 613.839844 181.109375 L 613.566406 180.941406 L 613.304688 180.769531 L 613.054688 180.601562 L 612.8125 180.4375 L 612.578125 180.277344 L 612.355469 180.117188 L 612.140625 179.960938 L 611.9375 179.808594 L 611.742188 179.660156 L 611.554688 179.515625 Z M 611.378906 179.375 "/>
<path style="fill:none;stroke-width:1;stroke-linecap:square;stroke-linejoin:miter;stroke:rgb(0%,0%,0%);stroke-opacity:1;stroke-miterlimit:3.25;" d="M 614.175781 175.925781 L 611.378906 179.375 "/>
<path style="fill:none;stroke-width:1;stroke-linecap:square;stroke-linejoin:miter;stroke:rgb(0%,0%,0%);stroke-opacity:1;stroke-miterlimit:3.25;" d="M 540.128906 86.949219 L 539.15625 91.285156 "/>
<path style="fill:none;stroke-width:1;stroke-linecap:square;stroke-linejoin:miter;stroke:rgb(0%,0%,0%);stroke-opacity:1;stroke-miterlimit:3.25;" d="M 501.765625 86.949219 L 502.738281 91.285156 "/>
<path style="fill:none;stroke-width:1;stroke-linecap:square;stroke-linejoin:miter;stroke:rgb(0%,0%,0%);stroke-opacity:1;stroke-miterlimit:3.25;" d="M 427.71875 175.925781 L 430.515625 179.375 "/>
<path style="fill:none;stroke-width:1;stroke-linecap:square;stroke-linejoin:miter;stroke:rgb(0%,0%,0%);stroke-opacity:1;stroke-miterlimit:3.25;" d="M 637.679688 183.050781 L 637.503906 187.488281 "/>
<path style="fill:none;stroke-width:1;stroke-linecap:square;stroke-linejoin:miter;stroke:rgb(0%,0%,0%);stroke-opacity:1;stroke-miterlimit:3.25;" d="M 640.40625 183.101562 L 640.40625 187.542969 "/>
<path style="fill:none;stroke-width:1;stroke-linecap:square;stroke-linejoin:miter;stroke:rgb(0%,0%,0%);stroke-opacity:1;stroke-miterlimit:3.25;" d="M 404.214844 183.050781 L 404.386719 187.488281 "/>
<path style="fill:none;stroke-width:1;stroke-linecap:square;stroke-linejoin:miter;stroke:rgb(0%,0%,0%);stroke-opacity:1;stroke-miterlimit:3.25;" d="M 401.488281 183.101562 L 401.488281 187.542969 "/>
<path style="fill:none;stroke-width:1;stroke-linecap:square;stroke-linejoin:miter;stroke:rgb(0%,0%,0%);stroke-opacity:1;stroke-miterlimit:3.25;" d="M 719.382812 85.542969 L 722.832031 82.742188 "/>
<path style="fill:none;stroke-width:1;stroke-linecap:square;stroke-linejoin:miter;stroke:rgb(0%,0%,0%);stroke-opacity:1;stroke-miterlimit:3.25;" d="M 701.824219 67.828125 L 704.621094 64.375 "/>
<path style="fill:none;stroke-width:1;stroke-linecap:square;stroke-linejoin:miter;stroke:rgb(0%,0%,0%);stroke-opacity:1;stroke-miterlimit:3.25;" d="M 643.128906 43.992188 L 643.304688 39.550781 "/>
<path style="fill:none;stroke-width:1;stroke-linecap:square;stroke-linejoin:miter;stroke:rgb(0%,0%,0%);stroke-opacity:1;stroke-miterlimit:3.25;" d="M 640.40625 43.9375 L 640.40625 39.496094 "/>
<path style="fill:none;stroke-width:1;stroke-linecap:square;stroke-linejoin:miter;stroke:rgb(0%,0%,0%);stroke-opacity:1;stroke-miterlimit:3.25;" d="M 322.511719 85.542969 L 319.0625 82.742188 "/>
<path style="fill:none;stroke-width:1;stroke-linecap:square;stroke-linejoin:miter;stroke:rgb(0%,0%,0%);stroke-opacity:1;stroke-miterlimit:3.25;" d="M 340.070312 67.828125 L 337.273438 64.375 "/>
<path style="fill:none;stroke-width:1;stroke-linecap:square;stroke-linejoin:miter;stroke:rgb(0%,0%,0%);stroke-opacity:1;stroke-miterlimit:3.25;" d="M 398.765625 43.992188 L 398.589844 39.550781 "/>
<path style="fill:none;stroke-width:1;stroke-linecap:square;stroke-linejoin:miter;stroke:rgb(0%,0%,0%);stroke-opacity:1;stroke-miterlimit:3.25;" d="M 401.488281 43.9375 L 401.488281 39.496094 "/>
<path style="fill:none;stroke-width:1;stroke-linecap:square;stroke-linejoin:miter;stroke:rgb(0%,0%,0%);stroke-opacity:1;stroke-miterlimit:3.25;" d="M 756.722656 184.402344 L 759.863281 187.542969 "/>
<path style="fill:none;stroke-width:1;stroke-linecap:square;stroke-linejoin:miter;stroke:rgb(0%,0%,0%);stroke-opacity:1;stroke-miterlimit:3.25;" d="M 285.171875 184.402344 L 282.03125 187.542969 "/>
<path style="fill:none;stroke-width:1.5;stroke-linecap:square;stroke-linejoin:miter;stroke:rgb(100%,0%,0%);stroke-opacity:1;stroke-miterlimit:3.25;" d="M 430.515625 179.375 L 430.28125 179.558594 L 430.035156 179.75 L 429.769531 179.949219 L 429.492188 180.152344 L 429.195312 180.363281 L 428.882812 180.574219 L 428.554688 180.792969 L 428.207031 181.015625 L 427.84375 181.242188 L 427.464844 181.46875 L 427.066406 181.699219 L 426.648438 181.933594 L 426.214844 182.167969 L 425.765625 182.402344 L 425.296875 182.636719 L 424.808594 182.875 L 424.304688 183.109375 L 423.78125 183.34375 L 423.238281 183.578125 L 422.679688 183.8125 L 422.101562 184.039062 L 421.503906 184.265625 L 420.886719 184.488281 L 420.253906 184.710938 L 419.597656 184.925781 L 418.925781 185.132812 L 418.238281 185.339844 L 417.527344 185.539062 L 416.800781 185.730469 L 416.054688 185.917969 L 415.289062 186.09375 L 414.503906 186.265625 L 413.703125 186.429688 L 412.882812 186.582031 L 412.046875 186.726562 L 411.191406 186.859375 L 410.316406 186.980469 L 409.421875 187.09375 L 408.511719 187.195312 L 407.585938 187.285156 L 406.640625 187.359375 L 405.679688 187.425781 L 404.699219 187.476562 L 403.636719 187.511719 L 402.539062 187.535156 "/>
<path style="fill:none;stroke-width:1.5;stroke-linecap:square;stroke-linejoin:miter;stroke:rgb(100%,0%,0%);stroke-opacity:1;stroke-miterlimit:3.25;" d="M 640.40625 187.542969 L 639.5625 187.539062 L 638.722656 187.523438 L 637.882812 187.5 L 637.089844 187.46875 L 636.339844 187.429688 L 635.597656 187.386719 L 634.867188 187.332031 L 634.148438 187.269531 L 633.4375 187.199219 L 632.738281 187.125 L 632.050781 187.042969 L 631.371094 186.953125 L 630.703125 186.859375 L 630.046875 186.757812 L 629.398438 186.648438 L 628.761719 186.535156 L 628.136719 186.417969 L 627.523438 186.292969 L 626.917969 186.164062 L 626.328125 186.03125 L 625.742188 185.894531 L 625.171875 185.75 L 624.613281 185.605469 L 624.0625 185.453125 L 623.523438 185.300781 L 622.996094 185.144531 L 622.480469 184.984375 L 621.972656 184.820312 L 621.476562 184.652344 L 620.992188 184.484375 L 620.519531 184.316406 L 620.058594 184.140625 L 619.605469 183.96875 L 619.167969 183.792969 L 618.738281 183.613281 L 618.320312 183.433594 L 617.910156 183.253906 L 617.511719 183.074219 L 617.125 182.894531 L 616.75 182.714844 L 616.386719 182.53125 L 616.03125 182.351562 L 615.6875 182.171875 L 615.351562 181.992188 L 615.03125 181.8125 L 614.71875 181.636719 L 614.414062 181.460938 L 614.121094 181.285156 L 613.839844 181.109375 L 613.566406 180.941406 L 613.304688 180.769531 L 613.054688 180.601562 L 612.8125 180.4375 L 612.578125 180.277344 L 612.355469 180.117188 L 612.140625 179.960938 L 611.9375 179.808594 L 611.742188 179.660156 L 611.554688 179.515625 L 611.378906 179.375 "/>
<path style="fill:none;stroke-width:1.5;stroke-linecap:butt;stroke-linejoin:miter;stroke:rgb(0%,0%,100%);stroke-opacity:1;stroke-dasharray:1.744396;stroke-miterlimit:3.25;" d="M 611.8125 187.542969 L 611.8125 186.859375 L 611.808594 186.722656 L 611.808594 186.582031 L 611.804688 186.445312 L 611.804688 186.308594 L 611.800781 186.171875 L 611.800781 186.035156 L 611.761719 184.667969 L 611.753906 184.53125 L 611.746094 184.257812 L 611.730469 183.984375 L 611.726562 183.847656 L 611.71875 183.710938 L 611.710938 183.578125 L 611.707031 183.441406 L 611.675781 182.894531 L 611.664062 182.757812 L 611.65625 182.625 L 611.640625 182.351562 L 611.628906 182.214844 L 611.621094 182.082031 L 611.609375 181.945312 L 611.601562 181.808594 L 611.589844 181.671875 L 611.582031 181.539062 L 611.546875 181.128906 L 611.535156 180.996094 L 611.511719 180.722656 L 611.5 180.589844 L 611.488281 180.453125 L 611.476562 180.320312 L 611.460938 180.183594 L 611.449219 180.046875 L 611.4375 179.914062 L 611.421875 179.777344 L 611.410156 179.644531 L 611.394531 179.507812 L 611.378906 179.375 "/>
<path style="fill:none;stroke-width:1.5;stroke-linecap:butt;stroke-linejoin:miter;stroke:rgb(0%,0%,100%);stroke-opacity:1;stroke-dasharray:1.744396;stroke-miterlimit:3.25;" d="M 430.515625 179.375 L 430.5 179.507812 L 430.484375 179.644531 L 430.472656 179.777344 L 430.457031 179.914062 L 430.445312 180.046875 L 430.433594 180.183594 L 430.417969 180.320312 L 430.40625 180.453125 L 430.394531 180.589844 L 430.382812 180.722656 L 430.359375 180.996094 L 430.347656 181.128906 L 430.3125 181.539062 L 430.304688 181.671875 L 430.292969 181.808594 L 430.285156 181.945312 L 430.273438 182.082031 L 430.265625 182.214844 L 430.253906 182.351562 L 430.238281 182.625 L 430.226562 182.757812 L 430.1875 183.441406 L 430.183594 183.578125 L 430.175781 183.710938 L 430.160156 183.984375 L 430.15625 184.121094 L 430.148438 184.257812 L 430.140625 184.53125 L 430.132812 184.667969 L 430.121094 185.078125 L 430.113281 185.214844 L 430.109375 185.351562 L 430.109375 185.488281 L 430.09375 186.035156 L 430.09375 186.171875 L 430.089844 186.308594 L 430.089844 186.445312 L 430.085938 186.582031 L 430.085938 186.722656 L 430.082031 186.859375 L 430.082031 187.542969 "/>
<path style="fill:none;stroke-width:1.5;stroke-linecap:square;stroke-linejoin:miter;stroke:rgb(0%,0%,100%);stroke-opacity:1;stroke-miterlimit:3.25;" d="M 611.378906 179.375 L 610.703125 174.140625 L 609.800781 168.988281 L 608.675781 163.925781 L 607.332031 158.960938 L 605.777344 154.105469 L 604.015625 149.363281 L 602.050781 144.75 L 599.890625 140.269531 L 597.535156 135.929688 L 595 131.738281 L 592.28125 127.707031 L 589.394531 123.839844 L 586.34375 120.140625 L 583.132812 116.625 L 579.773438 113.292969 L 576.273438 110.15625 L 572.640625 107.214844 L 568.882812 104.476562 L 565.007812 101.949219 L 561.027344 99.636719 L 556.949219 97.542969 L 552.78125 95.671875 L 548.53125 94.03125 L 544.214844 92.621094 L 539.839844 91.445312 L 535.414062 90.511719 L 530.960938 89.824219 L 526.480469 89.390625 L 521.992188 89.207031 L 517.5 89.273438 L 513.015625 89.59375 L 508.546875 90.160156 L 504.109375 90.980469 L 499.707031 92.042969 L 495.363281 93.347656 L 491.082031 94.878906 L 486.875 96.644531 L 482.753906 98.636719 L 478.726562 100.847656 L 474.800781 103.273438 L 470.988281 105.914062 L 467.292969 108.761719 L 463.730469 111.808594 L 460.304688 115.050781 L 457.027344 118.484375 L 453.898438 122.097656 L 450.933594 125.886719 L 448.136719 129.84375 L 445.515625 133.960938 L 443.074219 138.230469 L 440.824219 142.648438 L 438.765625 147.203125 L 436.910156 151.882812 L 435.257812 156.6875 L 433.816406 161.601562 L 432.589844 166.621094 L 431.585938 171.734375 L 430.800781 176.929688 "/>
<path style=" stroke:none;fill-rule:evenodd;fill:rgb(0%,0%,100%);fill-opacity:1;" d="M 567.90625 102 C 567.90625 101.230469 567.601562 100.488281 567.054688 99.945312 C 566.511719 99.398438 565.769531 99.09375 565 99.09375 C 564.230469 99.09375 563.488281 99.398438 562.945312 99.945312 C 562.398438 100.488281 562.09375 101.230469 562.09375 102 C 562.09375 102.769531 562.398438 103.511719 562.945312 104.054688 C 563.488281 104.601562 564.230469 104.90625 565 104.90625 C 565.769531 104.90625 566.511719 104.601562 567.054688 104.054688 C 567.601562 103.511719 567.90625 102.769531 567.90625 102 Z M 567.90625 102 "/>
<path style=" stroke:none;fill-rule:evenodd;fill:rgb(0%,0%,0%);fill-opacity:1;" d="M 579.773438 92.488281 L 579.773438 91.542969 L 578.230469 91.542969 L 574.515625 87.054688 L 577.066406 84.128906 C 577.308594 83.839844 577.507812 83.664062 579.332031 83.664062 L 579.332031 82.71875 L 577.308594 82.761719 C 576.667969 82.761719 575.726562 82.761719 575.109375 82.71875 L 575.109375 83.664062 C 575.527344 83.664062 575.988281 83.773438 575.988281 83.929688 C 575.988281 83.929688 575.878906 84.128906 575.835938 84.171875 L 573.921875 86.328125 L 571.742188 83.664062 L 572.667969 83.664062 L 572.667969 82.71875 C 572.160156 82.761719 570.664062 82.761719 570.070312 82.761719 C 569.410156 82.761719 568.222656 82.761719 567.605469 82.71875 L 567.605469 83.664062 L 569.167969 83.664062 L 572.601562 87.84375 L 569.738281 91.078125 C 569.476562 91.386719 569.320312 91.542969 567.496094 91.542969 L 567.496094 92.488281 L 569.542969 92.445312 C 570.179688 92.445312 571.105469 92.445312 571.71875 92.488281 L 571.71875 91.542969 C 571.300781 91.542969 570.839844 91.433594 570.839844 91.28125 C 570.839844 91.28125 570.839844 91.234375 570.992188 91.058594 L 573.195312 88.570312 L 575.636719 91.542969 L 574.714844 91.542969 L 574.714844 92.488281 C 575.242188 92.445312 576.714844 92.445312 577.332031 92.445312 C 577.992188 92.445312 579.15625 92.445312 579.773438 92.488281 Z M 579.773438 92.488281 "/>
<path style=" stroke:none;fill-rule:evenodd;fill:rgb(0%,0%,0%);fill-opacity:1;" d="M 588.988281 92.171875 C 588.988281 91.46875 588.761719 90.921875 588.347656 90.492188 C 587.890625 89.988281 587.386719 89.867188 586.667969 89.683594 L 585.277344 89.34375 C 584.820312 89.238281 583.960938 88.933594 583.960938 87.863281 C 583.960938 86.671875 585.246094 85.390625 586.804688 85.390625 C 588.179688 85.390625 589.128906 86.109375 589.128906 87.757812 C 589.128906 88.125 589.066406 88.445312 589.066406 88.503906 C 589.066406 88.6875 589.207031 88.71875 589.3125 88.71875 C 589.496094 88.71875 589.511719 88.65625 589.570312 88.414062 L 590.347656 85.34375 C 590.363281 85.285156 590.394531 85.191406 590.394531 85.113281 C 590.394531 85.007812 590.304688 84.929688 590.199219 84.929688 C 590.089844 84.929688 590.0625 84.960938 589.894531 85.144531 C 589.722656 85.34375 589.328125 85.832031 589.160156 86.015625 C 588.5625 85.144531 587.597656 84.929688 586.820312 84.929688 C 584.695312 84.929688 582.878906 86.71875 582.878906 88.460938 C 582.878906 89.34375 583.351562 89.867188 583.429688 89.972656 C 583.933594 90.507812 584.375 90.628906 585.476562 90.890625 C 586.011719 91.027344 586.039062 91.027344 586.484375 91.136719 C 586.925781 91.242188 587.90625 91.484375 587.90625 92.753906 C 587.90625 94.085938 586.589844 95.503906 584.988281 95.503906 C 583.992188 95.503906 582.175781 95.199219 582.175781 93.304688 C 582.175781 93.257812 582.175781 92.9375 582.265625 92.570312 L 582.28125 92.417969 C 582.28125 92.234375 582.117188 92.21875 582.054688 92.21875 C 581.851562 92.21875 581.839844 92.277344 581.761719 92.632812 L 581.136719 95.121094 C 581.074219 95.351562 580.96875 95.761719 580.96875 95.808594 C 580.96875 95.933594 581.058594 96.011719 581.167969 96.011719 C 581.273438 96.011719 581.289062 95.996094 581.457031 95.792969 C 581.5625 95.671875 581.550781 95.671875 582.191406 94.9375 C 582.539062 95.398438 583.414062 96.011719 584.957031 96.011719 C 587.171875 96.011719 588.988281 94.007812 588.988281 92.171875 Z M 588.988281 92.171875 "/>
<path style=" stroke:none;fill-rule:evenodd;fill:rgb(0%,0%,0%);fill-opacity:1;" d="M 599.636719 95.003906 C 599.636719 94.90625 599.558594 94.839844 599.457031 94.839844 C 599.261719 94.839844 599.027344 94.871094 598.832031 94.871094 C 598.609375 94.871094 598.390625 94.886719 598.160156 94.886719 L 597.246094 94.871094 C 596.949219 94.871094 596.621094 94.839844 596.324219 94.839844 C 596.234375 94.839844 596.15625 94.839844 596.113281 94.917969 C 596.089844 94.949219 596.046875 95.082031 596.046875 95.125 C 596.078125 95.277344 596.15625 95.277344 596.519531 95.277344 C 596.730469 95.277344 596.949219 95.292969 597.160156 95.304688 C 597.523438 95.335938 597.542969 95.378906 597.542969 95.5 C 597.542969 95.566406 597.34375 96.3125 597.3125 96.445312 C 597.257812 96.6875 597.148438 97.117188 596.421875 97.414062 C 595.78125 97.679688 595.058594 97.679688 594.914062 97.679688 C 593.648438 97.679688 592.1875 97.09375 592.1875 95.246094 C 592.1875 94.523438 592.453125 93.046875 593.5625 91.878906 C 593.921875 91.507812 595.070312 90.582031 596.640625 90.582031 C 598.027344 90.582031 598.796875 91.558594 598.796875 92.75 C 598.796875 92.933594 598.765625 93.15625 598.765625 93.15625 C 598.765625 93.324219 598.929688 93.324219 598.984375 93.324219 C 599.128906 93.324219 599.183594 93.308594 599.238281 93.078125 L 599.886719 90.460938 C 599.910156 90.363281 599.917969 90.296875 599.917969 90.296875 C 599.917969 90.296875 599.910156 90.140625 599.757812 90.140625 C 599.667969 90.140625 599.65625 90.15625 599.546875 90.273438 L 598.832031 91.023438 L 598.722656 91.109375 C 598.722656 91.109375 598.699219 91.097656 598.667969 91.078125 C 598.390625 90.757812 597.796875 90.140625 596.519531 90.140625 C 593.75 90.140625 591.03125 92.464844 591.03125 94.960938 C 591.03125 96.699219 592.40625 98.117188 594.660156 98.117188 C 595.464844 98.117188 596.664062 97.988281 597.367188 97.273438 C 597.433594 97.414062 597.753906 97.886719 597.917969 97.886719 C 597.964844 97.886719 598.015625 97.851562 598.039062 97.820312 C 598.082031 97.734375 598.378906 96.511719 598.433594 96.28125 L 598.578125 95.71875 C 598.6875 95.292969 598.722656 95.292969 599.359375 95.277344 C 599.46875 95.277344 599.636719 95.277344 599.636719 95.003906 Z M 599.636719 95.003906 "/>
<path style=" stroke:none;fill-rule:evenodd;fill:rgb(0%,0%,0%);fill-opacity:1;" d="M 609.644531 97.835938 C 609.644531 97.769531 609.644531 97.726562 609.269531 97.351562 C 607.070312 95.128906 605.835938 91.496094 605.835938 87.007812 C 605.835938 82.738281 606.871094 79.066406 609.425781 76.46875 C 609.644531 76.273438 609.644531 76.230469 609.644531 76.164062 C 609.644531 76.027344 609.535156 75.984375 609.445312 75.984375 C 609.160156 75.984375 607.355469 77.570312 606.277344 79.726562 C 605.15625 81.949219 604.648438 84.300781 604.648438 87.007812 C 604.648438 88.96875 604.960938 91.585938 606.101562 93.941406 C 607.398438 96.582031 609.207031 98.011719 609.445312 98.011719 C 609.535156 98.011719 609.644531 97.96875 609.644531 97.835938 Z M 609.644531 97.835938 "/>
<path style=" stroke:none;fill-rule:evenodd;fill:rgb(0%,0%,0%);fill-opacity:1;" d="M 617.582031 89.34375 C 617.582031 89.210938 617.496094 89.144531 617.359375 89.144531 C 617.359375 89.144531 617.230469 89.144531 617.183594 89.234375 C 617.183594 89.234375 617.140625 89.277344 616.988281 89.628906 C 616.527344 90.730469 615.511719 92.269531 614.234375 92.269531 C 613.578125 92.269531 613.53125 91.71875 613.53125 91.234375 C 613.53125 91.234375 613.53125 90.796875 613.597656 90.53125 L 615.3125 83.644531 L 617.339844 83.644531 C 617.757812 83.644531 617.980469 83.644531 617.980469 83.246094 C 617.980469 83.003906 617.84375 83.003906 617.40625 83.003906 L 615.46875 83.003906 L 616.28125 79.792969 C 616.371094 79.484375 616.371094 79.441406 616.371094 79.289062 C 616.371094 78.933594 616.085938 78.738281 615.796875 78.738281 C 615.621094 78.738281 615.117188 78.804688 614.941406 79.507812 L 614.082031 83.003906 L 612.015625 83.003906 C 611.574219 83.003906 611.375 83.003906 611.375 83.425781 C 611.375 83.644531 611.53125 83.644531 611.949219 83.644531 L 613.90625 83.644531 L 612.453125 89.453125 C 612.28125 90.222656 612.214844 90.441406 612.214844 90.730469 C 612.214844 91.761719 612.9375 92.707031 614.171875 92.707031 C 616.394531 92.707031 617.582031 89.496094 617.582031 89.34375 Z M 617.582031 89.34375 "/>
<path style=" stroke:none;fill-rule:evenodd;fill:rgb(0%,0%,0%);fill-opacity:1;" d="M 624.695312 87.007812 C 624.695312 85.335938 624.472656 82.609375 623.242188 80.054688 C 621.945312 77.414062 620.140625 75.984375 619.898438 75.984375 C 619.8125 75.984375 619.699219 76.027344 619.699219 76.164062 C 619.699219 76.230469 619.699219 76.273438 620.074219 76.648438 C 622.273438 78.867188 623.507812 82.5 623.507812 86.984375 C 623.507812 91.257812 622.476562 94.933594 619.921875 97.527344 C 619.699219 97.726562 619.699219 97.769531 619.699219 97.835938 C 619.699219 97.96875 619.8125 98.011719 619.898438 98.011719 C 620.183594 98.011719 621.992188 96.429688 623.070312 94.269531 C 624.191406 92.027344 624.695312 89.652344 624.695312 87.007812 Z M 624.695312 87.007812 "/>
<g clip-path="url(#clip91)" clip-rule="nonzero">
<path style="fill:none;stroke-width:1;stroke-linecap:square;stroke-linejoin:miter;stroke:rgb(0%,0%,0%);stroke-opacity:1;stroke-miterlimit:3.25;" d="M -329.226562 187.542969 L 1414.746094 187.542969 "/>
<path style="fill:none;stroke-width:1;stroke-linecap:square;stroke-linejoin:miter;stroke:rgb(0%,0%,0%);stroke-opacity:1;stroke-miterlimit:3.25;" d="M -329.226562 187.542969 L 1414.746094 187.542969 "/>
</g>
<path style=" stroke:none;fill-rule:evenodd;fill:rgb(0%,0%,0%);fill-opacity:1;" d="M 789.3125 169.46875 C 789.332031 169.355469 789.378906 169.226562 789.378906 169.09375 C 789.378906 168.761719 789.113281 168.542969 788.785156 168.542969 C 788.585938 168.542969 788.125 168.632812 787.945312 169.289062 L 786.320312 175.761719 C 786.210938 176.15625 786.210938 176.199219 786.035156 176.441406 C 785.59375 177.058594 784.867188 177.808594 783.8125 177.808594 C 782.578125 177.808594 782.46875 176.597656 782.46875 176.003906 C 782.46875 174.75 783.0625 173.050781 783.65625 171.46875 C 783.898438 170.832031 784.03125 170.523438 784.03125 170.085938 C 784.03125 169.160156 783.371094 168.320312 782.292969 168.320312 C 780.269531 168.320312 779.453125 171.511719 779.453125 171.691406 C 779.453125 171.777344 779.542969 171.886719 779.699219 171.886719 C 779.894531 171.886719 779.917969 171.800781 780.003906 171.488281 C 780.53125 169.644531 781.367188 168.761719 782.226562 168.761719 C 782.425781 168.761719 782.800781 168.761719 782.800781 169.492188 C 782.800781 170.0625 782.554688 170.699219 782.226562 171.535156 C 781.148438 174.417969 781.148438 175.144531 781.148438 175.671875 C 781.148438 177.761719 782.644531 178.246094 783.742188 178.246094 C 784.382812 178.246094 785.175781 178.050781 785.945312 177.234375 L 785.96875 177.257812 C 785.636719 178.554688 785.417969 179.414062 784.648438 180.492188 C 784.054688 181.328125 783.195312 182.078125 782.117188 182.078125 C 781.851562 182.078125 780.796875 182.03125 780.464844 181.019531 C 780.53125 181.042969 780.6875 181.042969 780.6875 181.042969 C 781.347656 181.042969 781.789062 180.46875 781.789062 179.964844 C 781.789062 179.457031 781.367188 179.28125 781.039062 179.28125 C 780.6875 179.28125 779.917969 179.546875 779.917969 180.625 C 779.917969 181.746094 780.863281 182.515625 782.117188 182.515625 C 784.316406 182.515625 786.539062 180.492188 787.15625 178.050781 Z M 789.3125 169.46875 "/>
<path style=" stroke:none;fill-rule:evenodd;fill:rgb(0%,0%,0%);fill-opacity:1;" d="M 811.816406 170.503906 C 811.816406 170.085938 811.441406 170.085938 811.113281 170.085938 L 798.152344 170.085938 C 797.84375 170.085938 797.445312 170.085938 797.445312 170.480469 C 797.445312 170.894531 797.820312 170.894531 798.152344 170.894531 L 811.113281 170.894531 C 811.417969 170.894531 811.816406 170.894531 811.816406 170.503906 Z M 811.816406 174.59375 C 811.816406 174.175781 811.441406 174.175781 811.113281 174.175781 L 798.152344 174.175781 C 797.84375 174.175781 797.445312 174.175781 797.445312 174.570312 C 797.445312 174.988281 797.820312 174.988281 798.152344 174.988281 L 811.113281 174.988281 C 811.417969 174.988281 811.816406 174.988281 811.816406 174.59375 Z M 811.816406 174.59375 "/>
<path style=" stroke:none;fill-rule:evenodd;fill:rgb(0%,0%,0%);fill-opacity:1;" d="M 828.914062 170.984375 C 828.914062 169.160156 828.804688 167.378906 828.011719 165.703125 C 827.109375 163.878906 825.523438 163.394531 824.445312 163.394531 C 823.171875 163.394531 821.609375 164.03125 820.792969 165.859375 C 820.175781 167.242188 819.960938 168.609375 819.960938 170.984375 C 819.960938 173.121094 820.113281 174.726562 820.90625 176.289062 C 821.761719 177.960938 823.28125 178.488281 824.425781 178.488281 C 826.339844 178.488281 827.441406 177.347656 828.078125 176.066406 C 828.871094 174.417969 828.914062 172.261719 828.914062 170.984375 Z M 827.242188 170.722656 C 827.242188 172.195312 827.242188 173.867188 827 175.210938 C 826.582031 177.628906 825.195312 178.050781 824.425781 178.050781 C 823.722656 178.050781 822.289062 177.652344 821.871094 175.253906 C 821.628906 173.933594 821.628906 172.261719 821.628906 170.722656 C 821.628906 168.917969 821.628906 167.289062 821.984375 165.992188 C 822.355469 164.515625 823.476562 163.835938 824.425781 163.835938 C 825.261719 163.835938 826.535156 164.339844 826.957031 166.230469 C 827.242188 167.488281 827.242188 169.226562 827.242188 170.722656 Z M 827.242188 170.722656 "/>
<g clip-path="url(#clip92)" clip-rule="nonzero">
<path style="fill:none;stroke-width:1;stroke-linecap:square;stroke-linejoin:miter;stroke:rgb(0%,0%,0%);stroke-opacity:1;stroke-miterlimit:3.25;" d="M -329.226562 39.496094 L 1414.746094 39.496094 "/>
<path style="fill:none;stroke-width:1;stroke-linecap:square;stroke-linejoin:miter;stroke:rgb(0%,0%,0%);stroke-opacity:1;stroke-miterlimit:3.25;" d="M -329.226562 39.496094 L 1414.746094 39.496094 "/>
</g>
<path style=" stroke:none;fill-rule:evenodd;fill:rgb(0%,0%,0%);fill-opacity:1;" d="M 789.3125 21.417969 C 789.332031 21.308594 789.378906 21.175781 789.378906 21.042969 C 789.378906 20.714844 789.113281 20.496094 788.785156 20.496094 C 788.585938 20.496094 788.125 20.582031 787.945312 21.242188 L 786.320312 27.710938 C 786.210938 28.105469 786.210938 28.148438 786.035156 28.394531 C 785.59375 29.007812 784.867188 29.757812 783.8125 29.757812 C 782.578125 29.757812 782.46875 28.546875 782.46875 27.953125 C 782.46875 26.699219 783.0625 25.003906 783.65625 23.417969 C 783.898438 22.78125 784.03125 22.476562 784.03125 22.035156 C 784.03125 21.109375 783.371094 20.273438 782.292969 20.273438 C 780.269531 20.273438 779.453125 23.464844 779.453125 23.640625 C 779.453125 23.730469 779.542969 23.839844 779.699219 23.839844 C 779.894531 23.839844 779.917969 23.75 780.003906 23.441406 C 780.53125 21.59375 781.367188 20.714844 782.226562 20.714844 C 782.425781 20.714844 782.800781 20.714844 782.800781 21.441406 C 782.800781 22.011719 782.554688 22.652344 782.226562 23.488281 C 781.148438 26.371094 781.148438 27.09375 781.148438 27.621094 C 781.148438 29.710938 782.644531 30.195312 783.742188 30.195312 C 784.382812 30.195312 785.175781 30 785.945312 29.183594 L 785.96875 29.210938 C 785.636719 30.507812 785.417969 31.367188 784.648438 32.445312 C 784.054688 33.277344 783.195312 34.027344 782.117188 34.027344 C 781.851562 34.027344 780.796875 33.984375 780.464844 32.972656 C 780.53125 32.992188 780.6875 32.992188 780.6875 32.992188 C 781.347656 32.992188 781.789062 32.421875 781.789062 31.914062 C 781.789062 31.410156 781.367188 31.230469 781.039062 31.230469 C 780.6875 31.230469 779.917969 31.496094 779.917969 32.574219 C 779.917969 33.695312 780.863281 34.46875 782.117188 34.46875 C 784.316406 34.46875 786.539062 32.445312 787.15625 30 Z M 789.3125 21.417969 "/>
<path style=" stroke:none;fill-rule:evenodd;fill:rgb(0%,0%,0%);fill-opacity:1;" d="M 811.816406 22.453125 C 811.816406 22.035156 811.441406 22.035156 811.113281 22.035156 L 798.152344 22.035156 C 797.84375 22.035156 797.445312 22.035156 797.445312 22.433594 C 797.445312 22.847656 797.820312 22.847656 798.152344 22.847656 L 811.113281 22.847656 C 811.417969 22.847656 811.816406 22.847656 811.816406 22.453125 Z M 811.816406 26.542969 C 811.816406 26.128906 811.441406 26.128906 811.113281 26.128906 L 798.152344 26.128906 C 797.84375 26.128906 797.445312 26.128906 797.445312 26.523438 C 797.445312 26.941406 797.820312 26.941406 798.152344 26.941406 L 811.113281 26.941406 C 811.417969 26.941406 811.816406 26.941406 811.816406 26.542969 Z M 811.816406 26.542969 "/>
<path style=" stroke:none;fill-rule:evenodd;fill:rgb(0%,0%,0%);fill-opacity:1;" d="M 828.078125 29.976562 L 828.078125 29.339844 L 827.394531 29.339844 C 825.457031 29.339844 825.394531 29.074219 825.394531 28.285156 L 825.394531 15.875 C 825.394531 15.367188 825.394531 15.34375 824.953125 15.34375 C 824.425781 15.9375 823.324219 16.753906 821.058594 16.753906 L 821.058594 17.390625 C 821.566406 17.390625 822.664062 17.390625 823.875 16.820312 L 823.875 28.285156 C 823.875 29.074219 823.808594 29.339844 821.871094 29.339844 L 821.191406 29.339844 L 821.191406 29.976562 C 821.785156 29.933594 823.917969 29.933594 824.644531 29.933594 C 825.371094 29.933594 827.484375 29.933594 828.078125 29.976562 Z M 828.078125 29.976562 "/>
</g>
</svg>
