<?xml version="1.0" encoding="UTF-8"?>
<svg xmlns="http://www.w3.org/2000/svg" xmlns:xlink="http://www.w3.org/1999/xlink" width="1200pt" height="298pt" viewBox="0 0 1200 298" version="1.1">
<defs>
<clipPath id="clip1">
  <path d="M 16.558594 24 L 279 24 L 279 286.558594 L 16.558594 286.558594 Z M 16.558594 24 "/>
</clipPath>
<clipPath id="clip2">
  <path d="M 16.558594 89 L 215 89 L 215 286.558594 L 16.558594 286.558594 Z M 16.558594 89 "/>
</clipPath>
<clipPath id="clip3">
  <path d="M 16.558594 23 L 280 23 L 280 286.558594 L 16.558594 286.558594 Z M 16.558594 23 "/>
</clipPath>
<clipPath id="clip4">
  <path d="M 313.679688 24 L 576 24 L 576 286.558594 L 313.679688 286.558594 Z M 313.679688 24 "/>
</clipPath>
<clipPath id="clip5">
  <path d="M 313.679688 89 L 512 89 L 512 286.558594 L 313.679688 286.558594 Z M 313.679688 89 "/>
</clipPath>
<clipPath id="clip6">
  <path d="M 313.679688 23 L 578 23 L 578 286.558594 L 313.679688 286.558594 Z M 313.679688 23 "/>
</clipPath>
<clipPath id="clip7">
  <path d="M 611.039062 24 L 874 24 L 874 286.558594 L 611.039062 286.558594 Z M 611.039062 24 "/>
</clipPath>
<clipPath id="clip8">
  <path d="M 611.039062 89 L 809 89 L 809 286.558594 L 611.039062 286.558594 Z M 611.039062 89 "/>
</clipPath>
<clipPath id="clip9">
  <path d="M 611.039062 23 L 875 23 L 875 286.558594 L 611.039062 286.558594 Z M 611.039062 23 "/>
</clipPath>
<clipPath id="clip10">
  <path d="M 908.160156 24 L 1171 24 L 1171 286.558594 L 908.160156 286.558594 Z M 908.160156 24 "/>
</clipPath>
<clipPath id="clip11">
  <path d="M 908.160156 89 L 1107 89 L 1107 286.558594 L 908.160156 286.558594 Z M 908.160156 89 "/>
</clipPath>
<clipPath id="clip12">
  <path d="M 908.160156 23 L 1172 23 L 1172 286.558594 L 908.160156 286.558594 Z M 908.160156 23 "/>
</clipPath>
</defs>
<g id="surface6">
<g clip-path="url(#clip1)" clip-rule="nonzero">
<path style=" stroke:none;fill-rule:nonzero;fill:rgb(74.999619%,74.999619%,74.999619%);fill-opacity:1;" d="M -48.902344 90.21875 L 213.222656 90.21875 L 213.222656 352.34375 L 278.75 352.34375 L 278.75 24.6875 L -48.902344 24.6875 Z M -48.902344 90.21875 "/>
</g>
<g clip-path="url(#clip2)" clip-rule="nonzero">
<path style="fill:none;stroke-width:1.5;stroke-linecap:square;stroke-linejoin:miter;stroke:rgb(0%,0%,0%);stroke-opacity:1;stroke-miterlimit:3.25;" d="M -48.902344 90.21875 L 213.222656 90.21875 L 213.222656 352.34375 "/>
</g>
<g clip-path="url(#clip3)" clip-rule="nonzero">
<path style="fill:none;stroke-width:1.5;stroke-linecap:square;stroke-linejoin:miter;stroke:rgb(0%,0%,0%);stroke-opacity:1;stroke-miterlimit:3.25;" d="M -48.902344 24.6875 L 278.75 24.6875 L 278.75 352.34375 "/>
</g>
<path style="fill-rule:nonzero;fill:rgb(100%,100%,86.999313%);fill-opacity:1;stroke-width:1.5;stroke-linecap:square;stroke-linejoin:miter;stroke:rgb(0%,0%,0%);stroke-opacity:1;stroke-miterlimit:3.25;" d="M 213.027344 86.601562 L 212.730469 84.285156 L 212.328125 82.007812 L 211.832031 79.765625 L 211.238281 77.566406 L 210.550781 75.417969 L 209.769531 73.320312 L 208.898438 71.277344 L 207.941406 69.292969 L 206.902344 67.371094 L 205.777344 65.519531 L 204.574219 63.734375 L 203.296875 62.019531 L 201.945312 60.386719 L 200.527344 58.828125 L 199.039062 57.355469 L 197.488281 55.964844 L 195.882812 54.664062 L 194.21875 53.453125 L 192.503906 52.332031 L 190.742188 51.308594 L 188.9375 50.382812 L 187.089844 49.554688 L 185.210938 48.828125 L 183.300781 48.203125 L 181.363281 47.683594 L 179.40625 47.269531 L 177.433594 46.964844 L 175.449219 46.773438 L 173.464844 46.691406 L 171.476562 46.722656 L 169.488281 46.863281 L 167.511719 47.113281 L 165.546875 47.476562 L 163.597656 47.949219 L 161.675781 48.523438 L 159.78125 49.203125 L 157.917969 49.984375 L 156.09375 50.867188 L 154.3125 51.84375 L 152.574219 52.917969 L 150.886719 54.089844 L 149.253906 55.347656 L 147.675781 56.695312 L 146.160156 58.132812 L 144.707031 59.652344 L 143.324219 61.25 L 142.011719 62.925781 L 140.773438 64.679688 L 139.613281 66.5 L 138.53125 68.390625 L 137.535156 70.347656 L 136.625 72.363281 L 135.804688 74.433594 L 135.070312 76.5625 L 134.433594 78.738281 L 133.890625 80.957031 L 133.445312 83.222656 L 133.097656 85.519531 L 132.972656 86.601562 L 132.871094 86.683594 L 132.757812 86.769531 L 132.644531 86.859375 L 132.519531 86.949219 L 132.386719 87.039062 L 132.25 87.136719 L 132.105469 87.230469 L 131.949219 87.328125 L 131.789062 87.429688 L 131.621094 87.53125 L 131.445312 87.632812 L 131.261719 87.734375 L 131.070312 87.839844 L 130.871094 87.945312 L 130.664062 88.046875 L 130.445312 88.152344 L 130.222656 88.257812 L 129.992188 88.359375 L 129.753906 88.464844 L 129.503906 88.566406 L 129.246094 88.667969 L 128.984375 88.769531 L 128.710938 88.867188 L 128.429688 88.964844 L 128.140625 89.058594 L 127.84375 89.152344 L 127.539062 89.242188 L 127.222656 89.332031 L 126.902344 89.417969 L 126.570312 89.5 L 126.234375 89.578125 L 125.886719 89.652344 L 125.53125 89.726562 L 125.167969 89.792969 L 124.796875 89.855469 L 124.417969 89.914062 L 124.03125 89.96875 L 123.636719 90.019531 L 123.234375 90.066406 L 122.824219 90.105469 L 122.40625 90.136719 L 121.980469 90.167969 L 121.546875 90.1875 L 121.074219 90.207031 L 120.589844 90.214844 L 67.25 90.21875 L 67.296875 89.132812 L 67.445312 86.820312 L 67.652344 84.535156 L 67.910156 82.28125 L 68.222656 80.0625 L 68.589844 77.875 L 69.007812 75.722656 L 69.472656 73.609375 L 69.988281 71.535156 L 70.546875 69.5 L 71.148438 67.507812 L 71.789062 65.5625 L 72.472656 63.65625 L 73.195312 61.800781 L 73.949219 59.992188 L 74.738281 58.230469 L 75.558594 56.519531 L 76.40625 54.855469 L 77.28125 53.246094 L 78.179688 51.6875 L 79.101562 50.183594 L 80.042969 48.730469 L 81 47.328125 L 81.972656 45.984375 L 82.957031 44.691406 L 83.949219 43.453125 L 84.949219 42.273438 L 85.945312 41.152344 L 86.945312 40.085938 L 87.941406 39.074219 L 88.929688 38.121094 L 89.914062 37.222656 L 90.886719 36.375 L 91.875 35.5625 L 93.007812 34.671875 L 94.144531 33.828125 L 95.285156 33.023438 L 96.429688 32.261719 L 97.574219 31.539062 L 98.71875 30.859375 L 99.859375 30.21875 L 101 29.617188 L 102.136719 29.054688 L 103.265625 28.527344 L 104.390625 28.039062 L 105.507812 27.589844 L 106.613281 27.175781 L 107.710938 26.796875 L 108.796875 26.449219 L 109.871094 26.140625 L 110.933594 25.863281 L 111.980469 25.617188 L 113.011719 25.402344 L 114.027344 25.21875 L 115.027344 25.0625 L 116.007812 24.933594 L 116.972656 24.835938 L 117.917969 24.761719 L 118.839844 24.714844 L 225.875 24.6875 L 226.710938 24.699219 L 227.585938 24.734375 L 228.519531 24.792969 L 229.476562 24.878906 L 230.445312 24.992188 L 231.4375 25.128906 L 232.445312 25.300781 L 233.46875 25.496094 L 234.507812 25.726562 L 235.5625 25.988281 L 236.628906 26.28125 L 237.707031 26.605469 L 238.800781 26.96875 L 239.902344 27.363281 L 241.011719 27.792969 L 242.132812 28.261719 L 243.257812 28.765625 L 244.390625 29.308594 L 245.53125 29.890625 L 246.671875 30.511719 L 247.816406 31.171875 L 248.960938 31.871094 L 250.105469 32.613281 L 251.246094 33.394531 L 252.386719 34.214844 L 253.519531 35.082031 L 254.597656 35.945312 L 255.566406 36.761719 L 256.542969 37.632812 L 257.53125 38.558594 L 258.523438 39.539062 L 259.519531 40.574219 L 260.519531 41.664062 L 261.519531 42.816406 L 262.515625 44.023438 L 263.503906 45.285156 L 264.484375 46.601562 L 265.449219 47.972656 L 266.398438 49.398438 L 267.328125 50.875 L 268.242188 52.40625 L 269.128906 53.988281 L 269.992188 55.625 L 270.828125 57.308594 L 271.632812 59.042969 L 272.40625 60.828125 L 273.144531 62.660156 L 273.851562 64.539062 L 274.515625 66.460938 L 275.140625 68.429688 L 275.722656 70.441406 L 276.257812 72.496094 L 276.75 74.585938 L 277.195312 76.71875 L 277.585938 78.886719 L 277.929688 81.089844 L 278.21875 83.328125 L 278.453125 85.597656 L 278.628906 87.894531 L 278.75 90.21875 L 225.503906 90.21875 L 225.132812 90.210938 L 224.761719 90.199219 L 224.410156 90.1875 L 224.078125 90.167969 L 223.75 90.148438 L 223.425781 90.125 L 223.105469 90.097656 L 222.792969 90.066406 L 222.484375 90.035156 L 222.179688 89.996094 L 221.878906 89.957031 L 221.582031 89.914062 L 221.292969 89.871094 L 221.003906 89.824219 L 220.722656 89.773438 L 220.445312 89.722656 L 220.175781 89.664062 L 219.90625 89.609375 L 219.644531 89.550781 L 219.386719 89.488281 L 219.132812 89.425781 L 218.640625 89.292969 L 218.402344 89.226562 L 217.941406 89.085938 L 217.71875 89.011719 L 217.5 88.941406 L 217.285156 88.867188 L 217.074219 88.789062 L 216.871094 88.714844 L 216.671875 88.636719 L 216.476562 88.558594 L 216.285156 88.480469 L 216.101562 88.402344 L 215.917969 88.320312 L 215.742188 88.242188 L 215.574219 88.160156 L 215.40625 88.082031 L 215.246094 88 L 215.085938 87.921875 L 214.933594 87.839844 L 214.644531 87.683594 L 214.503906 87.605469 L 214.371094 87.527344 L 214.242188 87.449219 L 214.117188 87.371094 L 213.996094 87.296875 L 213.769531 87.148438 L 213.660156 87.074219 L 213.558594 87.003906 L 213.460938 86.933594 L 213.367188 86.863281 L 213.273438 86.796875 L 213.1875 86.730469 L 213.105469 86.664062 Z M 213.027344 86.601562 "/>
<g clip-path="url(#clip4)" clip-rule="nonzero">
<path style=" stroke:none;fill-rule:nonzero;fill:rgb(74.999619%,74.999619%,74.999619%);fill-opacity:1;" d="M 248.34375 90.21875 L 510.46875 90.21875 L 510.46875 352.34375 L 576 352.34375 L 576 24.6875 L 248.34375 24.6875 Z M 248.34375 90.21875 "/>
</g>
<g clip-path="url(#clip5)" clip-rule="nonzero">
<path style="fill:none;stroke-width:1.5;stroke-linecap:square;stroke-linejoin:miter;stroke:rgb(0%,0%,0%);stroke-opacity:1;stroke-miterlimit:3.25;" d="M 248.34375 90.21875 L 510.46875 90.21875 L 510.46875 352.34375 "/>
</g>
<g clip-path="url(#clip6)" clip-rule="nonzero">
<path style="fill:none;stroke-width:1.5;stroke-linecap:square;stroke-linejoin:miter;stroke:rgb(0%,0%,0%);stroke-opacity:1;stroke-miterlimit:3.25;" d="M 248.34375 24.6875 L 576 24.6875 L 576 352.34375 "/>
</g>
<path style="fill-rule:nonzero;fill:rgb(100%,100%,86.999313%);fill-opacity:1;stroke-width:1.5;stroke-linecap:square;stroke-linejoin:miter;stroke:rgb(0%,0%,0%);stroke-opacity:1;stroke-miterlimit:3.25;" d="M 511.085938 130.121094 L 511.984375 127.964844 L 512.777344 125.789062 L 513.46875 123.597656 L 514.054688 121.398438 L 514.53125 119.195312 L 514.90625 116.988281 L 515.171875 114.78125 L 515.335938 112.585938 L 515.394531 110.402344 L 515.347656 108.234375 L 515.199219 106.085938 L 514.949219 103.964844 L 514.597656 101.871094 L 514.144531 99.816406 L 513.59375 97.792969 L 512.949219 95.816406 L 512.207031 93.886719 L 511.371094 92.003906 L 510.445312 90.179688 L 509.433594 88.410156 L 508.332031 86.703125 L 507.148438 85.066406 L 505.882812 83.496094 L 504.539062 82 L 503.121094 80.582031 L 501.632812 79.242188 L 500.078125 77.996094 L 498.457031 76.835938 L 496.777344 75.773438 L 495.039062 74.804688 L 493.25 73.933594 L 491.414062 73.164062 L 489.527344 72.496094 L 487.605469 71.929688 L 485.652344 71.464844 L 483.671875 71.105469 L 481.667969 70.851562 L 479.648438 70.703125 L 477.613281 70.660156 L 475.574219 70.722656 L 473.527344 70.890625 L 471.480469 71.164062 L 469.441406 71.542969 L 467.410156 72.027344 L 465.394531 72.617188 L 463.394531 73.308594 L 461.421875 74.105469 L 459.472656 75.003906 L 457.554688 76.003906 L 455.675781 77.101562 L 453.835938 78.292969 L 452.039062 79.585938 L 450.289062 80.96875 L 448.59375 82.445312 L 446.953125 84.011719 L 445.375 85.660156 L 443.855469 87.398438 L 442.40625 89.21875 L 441.753906 90.089844 L 441.625 90.109375 L 441.488281 90.128906 L 441.34375 90.148438 L 441.191406 90.164062 L 441.03125 90.175781 L 440.863281 90.191406 L 440.6875 90.203125 L 440.507812 90.210938 L 440.320312 90.214844 L 440.121094 90.21875 L 439.917969 90.21875 L 439.707031 90.214844 L 439.488281 90.210938 L 439.265625 90.199219 L 439.03125 90.1875 L 438.792969 90.171875 L 438.546875 90.148438 L 438.296875 90.125 L 438.035156 90.09375 L 437.769531 90.058594 L 437.496094 90.015625 L 437.21875 89.972656 L 436.933594 89.921875 L 436.640625 89.863281 L 436.34375 89.804688 L 436.039062 89.734375 L 435.730469 89.660156 L 435.414062 89.578125 L 435.089844 89.492188 L 434.765625 89.398438 L 434.429688 89.296875 L 434.09375 89.191406 L 433.75 89.074219 L 433.402344 88.953125 L 433.050781 88.820312 L 432.691406 88.683594 L 432.328125 88.535156 L 431.960938 88.382812 L 431.589844 88.21875 L 431.214844 88.046875 L 430.835938 87.867188 L 430.453125 87.679688 L 430.066406 87.484375 L 429.652344 87.261719 L 429.226562 87.027344 L 383.03125 60.363281 L 383.613281 59.445312 L 384.898438 57.515625 L 386.21875 55.640625 L 387.570312 53.820312 L 388.953125 52.050781 L 390.363281 50.339844 L 391.800781 48.6875 L 393.261719 47.089844 L 394.742188 45.546875 L 396.242188 44.066406 L 397.761719 42.640625 L 399.292969 41.277344 L 400.835938 39.96875 L 402.386719 38.722656 L 403.945312 37.535156 L 405.511719 36.402344 L 407.078125 35.332031 L 408.640625 34.316406 L 410.203125 33.359375 L 411.761719 32.457031 L 413.3125 31.613281 L 414.855469 30.828125 L 416.382812 30.09375 L 417.898438 29.414062 L 419.394531 28.785156 L 420.875 28.210938 L 422.328125 27.6875 L 423.757812 27.214844 L 425.152344 26.792969 L 426.519531 26.414062 L 427.855469 26.085938 L 429.15625 25.796875 L 430.421875 25.550781 L 431.683594 25.339844 L 433.109375 25.136719 L 434.515625 24.972656 L 435.90625 24.847656 L 437.277344 24.757812 L 438.632812 24.707031 L 439.960938 24.6875 L 441.273438 24.703125 L 442.5625 24.753906 L 443.824219 24.832031 L 445.066406 24.945312 L 446.285156 25.082031 L 447.476562 25.25 L 448.640625 25.445312 L 449.78125 25.664062 L 450.894531 25.910156 L 451.980469 26.179688 L 453.039062 26.46875 L 454.066406 26.777344 L 455.070312 27.109375 L 456.042969 27.457031 L 456.984375 27.820312 L 457.898438 28.203125 L 458.78125 28.597656 L 459.636719 29.007812 L 460.460938 29.429688 L 553.167969 82.921875 L 553.886719 83.351562 L 554.628906 83.816406 L 555.410156 84.335938 L 556.191406 84.886719 L 556.976562 85.46875 L 557.765625 86.085938 L 558.550781 86.738281 L 559.339844 87.421875 L 560.125 88.136719 L 560.90625 88.890625 L 561.683594 89.679688 L 562.457031 90.5 L 563.222656 91.359375 L 563.976562 92.253906 L 564.726562 93.183594 L 565.460938 94.148438 L 566.183594 95.148438 L 566.894531 96.183594 L 567.589844 97.257812 L 568.265625 98.363281 L 568.929688 99.507812 L 569.570312 100.6875 L 570.191406 101.898438 L 570.789062 103.148438 L 571.363281 104.429688 L 571.914062 105.746094 L 572.414062 107.03125 L 572.84375 108.226562 L 573.253906 109.46875 L 573.648438 110.761719 L 574.015625 112.105469 L 574.363281 113.503906 L 574.683594 114.949219 L 574.972656 116.441406 L 575.234375 117.984375 L 575.457031 119.574219 L 575.648438 121.203125 L 575.796875 122.875 L 575.90625 124.582031 L 575.976562 126.328125 L 576 128.109375 L 575.976562 129.925781 L 575.90625 131.773438 L 575.789062 133.648438 L 575.617188 135.554688 L 575.398438 137.484375 L 575.121094 139.441406 L 574.792969 141.421875 L 574.40625 143.417969 L 573.960938 145.4375 L 573.460938 147.46875 L 572.898438 149.515625 L 572.277344 151.574219 L 571.597656 153.640625 L 570.851562 155.714844 L 570.046875 157.796875 L 569.179688 159.878906 L 568.25 161.960938 L 567.253906 164.039062 L 566.195312 166.113281 L 520.402344 139.675781 L 520.082031 139.488281 L 519.765625 139.296875 L 519.449219 139.101562 L 519.148438 138.914062 L 518.871094 138.730469 L 518.597656 138.550781 L 518.328125 138.367188 L 518.066406 138.183594 L 517.808594 138 L 517.558594 137.816406 L 517.3125 137.632812 L 516.835938 137.265625 L 516.609375 137.082031 L 516.382812 136.894531 L 516.164062 136.710938 L 515.742188 136.34375 L 515.539062 136.160156 L 515.34375 135.980469 L 515.148438 135.796875 L 514.960938 135.617188 L 514.601562 135.257812 L 514.429688 135.078125 L 514.261719 134.902344 L 514.097656 134.726562 L 513.941406 134.550781 L 513.789062 134.378906 L 513.640625 134.207031 L 513.496094 134.035156 L 513.222656 133.699219 L 513.09375 133.535156 L 512.96875 133.371094 L 512.847656 133.210938 L 512.730469 133.050781 L 512.617188 132.894531 L 512.40625 132.589844 L 512.304688 132.4375 L 512.210938 132.289062 L 512.117188 132.144531 L 511.945312 131.863281 L 511.863281 131.726562 L 511.789062 131.589844 L 511.714844 131.457031 L 511.644531 131.328125 L 511.578125 131.203125 L 511.515625 131.082031 L 511.457031 130.960938 L 511.398438 130.84375 L 511.347656 130.730469 L 511.246094 130.511719 L 511.160156 130.308594 L 511.121094 130.210938 Z M 511.085938 130.121094 "/>
<g clip-path="url(#clip7)" clip-rule="nonzero">
<path style=" stroke:none;fill-rule:nonzero;fill:rgb(74.999619%,74.999619%,74.999619%);fill-opacity:1;" d="M 545.59375 90.21875 L 807.714844 90.21875 L 807.714844 352.34375 L 873.246094 352.34375 L 873.246094 24.6875 L 545.59375 24.6875 Z M 545.59375 90.21875 "/>
</g>
<g clip-path="url(#clip8)" clip-rule="nonzero">
<path style="fill:none;stroke-width:1.5;stroke-linecap:square;stroke-linejoin:miter;stroke:rgb(0%,0%,0%);stroke-opacity:1;stroke-miterlimit:3.25;" d="M 545.59375 90.21875 L 807.714844 90.21875 L 807.714844 352.34375 "/>
</g>
<g clip-path="url(#clip9)" clip-rule="nonzero">
<path style="fill:none;stroke-width:1.5;stroke-linecap:square;stroke-linejoin:miter;stroke:rgb(0%,0%,0%);stroke-opacity:1;stroke-miterlimit:3.25;" d="M 545.59375 24.6875 L 873.246094 24.6875 L 873.246094 352.34375 "/>
</g>
<path style="fill-rule:nonzero;fill:rgb(100%,100%,86.999313%);fill-opacity:1;stroke-width:1.5;stroke-linecap:square;stroke-linejoin:miter;stroke:rgb(0%,0%,0%);stroke-opacity:1;stroke-miterlimit:3.25;" d="M 807.84375 158.933594 L 809.699219 157.515625 L 811.476562 156.027344 L 813.167969 154.476562 L 814.773438 152.863281 L 816.292969 151.191406 L 817.71875 149.46875 L 819.050781 147.695312 L 820.292969 145.875 L 821.433594 144.011719 L 822.480469 142.109375 L 823.425781 140.175781 L 824.269531 138.214844 L 825.007812 136.226562 L 825.648438 134.21875 L 826.179688 132.191406 L 826.609375 130.15625 L 826.933594 128.113281 L 827.148438 126.066406 L 827.261719 124.023438 L 827.265625 121.984375 L 827.167969 119.957031 L 826.960938 117.945312 L 826.648438 115.953125 L 826.234375 113.988281 L 825.71875 112.050781 L 825.097656 110.148438 L 824.371094 108.285156 L 823.546875 106.472656 L 822.625 104.710938 L 821.605469 103.003906 L 820.492188 101.355469 L 819.285156 99.769531 L 817.988281 98.25 L 816.605469 96.796875 L 815.144531 95.421875 L 813.609375 94.117188 L 812.003906 92.898438 L 810.328125 91.757812 L 808.585938 90.703125 L 806.789062 89.734375 L 804.933594 88.859375 L 803.023438 88.074219 L 801.066406 87.382812 L 799.066406 86.785156 L 797.023438 86.289062 L 794.949219 85.890625 L 792.839844 85.589844 L 790.703125 85.394531 L 788.542969 85.300781 L 786.367188 85.3125 L 784.175781 85.425781 L 781.976562 85.644531 L 779.769531 85.96875 L 777.5625 86.398438 L 775.359375 86.933594 L 773.164062 87.574219 L 770.980469 88.320312 L 768.816406 89.171875 L 767.816406 89.601562 L 767.695312 89.554688 L 767.566406 89.5 L 767.429688 89.445312 L 767.292969 89.382812 L 767.144531 89.316406 L 766.675781 89.082031 L 766.507812 88.992188 L 766.339844 88.894531 L 766.160156 88.792969 L 765.980469 88.6875 L 765.792969 88.574219 L 765.605469 88.453125 L 765.410156 88.324219 L 765.210938 88.191406 L 765.011719 88.046875 L 764.804688 87.898438 L 764.59375 87.742188 L 764.382812 87.578125 L 764.164062 87.410156 L 763.945312 87.230469 L 763.726562 87.042969 L 763.5 86.847656 L 763.273438 86.644531 L 763.042969 86.433594 L 762.8125 86.214844 L 762.578125 85.988281 L 762.34375 85.75 L 762.109375 85.507812 L 761.871094 85.253906 L 761.632812 84.992188 L 761.390625 84.71875 L 761.152344 84.4375 L 760.910156 84.148438 L 760.671875 83.851562 L 760.429688 83.542969 L 760.1875 83.226562 L 759.949219 82.898438 L 759.710938 82.5625 L 759.472656 82.21875 L 759.234375 81.863281 L 759 81.5 L 758.746094 81.101562 L 758.496094 80.683594 L 731.824219 34.492188 L 732.789062 33.992188 L 734.863281 32.964844 L 736.945312 32 L 739.027344 31.097656 L 741.109375 30.257812 L 743.183594 29.480469 L 745.257812 28.765625 L 747.320312 28.113281 L 749.375 27.519531 L 751.414062 26.988281 L 753.441406 26.511719 L 755.449219 26.097656 L 757.4375 25.734375 L 759.40625 25.429688 L 761.351562 25.179688 L 763.269531 24.984375 L 765.164062 24.839844 L 767.027344 24.742188 L 768.859375 24.695312 L 770.660156 24.695312 L 772.421875 24.738281 L 774.152344 24.828125 L 775.84375 24.957031 L 777.496094 25.125 L 779.105469 25.332031 L 780.671875 25.570312 L 782.195312 25.847656 L 783.667969 26.152344 L 785.089844 26.484375 L 786.460938 26.839844 L 787.78125 27.21875 L 789.050781 27.621094 L 790.273438 28.042969 L 791.472656 28.488281 L 792.804688 29.027344 L 794.105469 29.589844 L 795.375 30.175781 L 796.605469 30.785156 L 797.804688 31.414062 L 798.964844 32.066406 L 800.089844 32.734375 L 801.183594 33.421875 L 802.238281 34.121094 L 803.257812 34.839844 L 804.242188 35.566406 L 805.191406 36.308594 L 806.101562 37.058594 L 806.980469 37.820312 L 807.820312 38.589844 L 808.628906 39.363281 L 809.398438 40.144531 L 810.136719 40.929688 L 810.835938 41.714844 L 811.503906 42.503906 L 812.140625 43.289062 L 812.742188 44.078125 L 813.308594 44.863281 L 813.84375 45.644531 L 814.347656 46.417969 L 867.886719 139.101562 L 868.296875 139.832031 L 868.703125 140.605469 L 869.121094 141.445312 L 869.523438 142.3125 L 869.910156 143.210938 L 870.285156 144.136719 L 870.644531 145.09375 L 870.984375 146.082031 L 871.304688 147.09375 L 871.605469 148.136719 L 871.886719 149.210938 L 872.140625 150.308594 L 872.375 151.433594 L 872.585938 152.585938 L 872.765625 153.761719 L 872.921875 154.96875 L 873.046875 156.195312 L 873.144531 157.449219 L 873.210938 158.722656 L 873.242188 160.023438 L 873.242188 161.34375 L 873.210938 162.683594 L 873.140625 164.046875 L 873.035156 165.425781 L 872.890625 166.824219 L 872.710938 168.238281 L 872.5 169.605469 L 872.277344 170.851562 L 872.011719 172.132812 L 871.703125 173.449219 L 871.351562 174.800781 L 870.953125 176.179688 L 870.507812 177.589844 L 870.011719 179.03125 L 869.464844 180.5 L 868.863281 181.988281 L 868.214844 183.492188 L 867.507812 185.015625 L 866.75 186.550781 L 865.9375 188.09375 L 865.066406 189.648438 L 864.140625 191.210938 L 863.15625 192.773438 L 862.113281 194.339844 L 861.015625 195.90625 L 859.855469 197.46875 L 858.640625 199.023438 L 857.363281 200.574219 L 856.03125 202.109375 L 854.636719 203.636719 L 853.1875 205.144531 L 851.679688 206.636719 L 850.109375 208.109375 L 848.488281 209.558594 L 846.804688 210.984375 L 845.070312 212.382812 L 843.277344 213.75 L 841.429688 215.085938 L 839.527344 216.390625 L 837.574219 217.660156 L 811.136719 171.867188 L 810.953125 171.542969 L 810.773438 171.21875 L 810.59375 170.890625 L 810.429688 170.578125 L 810.28125 170.285156 L 810.132812 169.988281 L 809.992188 169.699219 L 809.855469 169.40625 L 809.726562 169.121094 L 809.601562 168.835938 L 809.480469 168.554688 L 809.363281 168.273438 L 809.253906 167.996094 L 809.144531 167.722656 L 809.042969 167.449219 L 808.945312 167.179688 L 808.855469 166.914062 L 808.765625 166.652344 L 808.679688 166.390625 L 808.523438 165.882812 L 808.382812 165.382812 L 808.320312 165.140625 L 808.261719 164.898438 L 808.203125 164.664062 L 808.152344 164.429688 L 808.101562 164.199219 L 808.054688 163.972656 L 808.011719 163.75 L 807.972656 163.53125 L 807.9375 163.316406 L 807.90625 163.101562 L 807.875 162.894531 L 807.847656 162.691406 L 807.824219 162.492188 L 807.800781 162.296875 L 807.785156 162.101562 L 807.765625 161.914062 L 807.753906 161.730469 L 807.742188 161.550781 L 807.730469 161.375 L 807.726562 161.203125 L 807.71875 161.035156 L 807.71875 160.871094 L 807.714844 160.710938 L 807.71875 160.558594 L 807.71875 160.40625 L 807.722656 160.261719 L 807.730469 160.117188 L 807.734375 159.980469 L 807.742188 159.847656 L 807.753906 159.71875 L 807.765625 159.59375 L 807.773438 159.472656 L 807.789062 159.355469 L 807.800781 159.242188 L 807.816406 159.136719 L 807.828125 159.03125 Z M 807.84375 158.933594 "/>
<g clip-path="url(#clip10)" clip-rule="nonzero">
<path style=" stroke:none;fill-rule:nonzero;fill:rgb(74.999619%,74.999619%,74.999619%);fill-opacity:1;" d="M 842.839844 90.21875 L 1104.964844 90.21875 L 1104.964844 352.34375 L 1170.496094 352.34375 L 1170.496094 24.6875 L 842.839844 24.6875 Z M 842.839844 90.21875 "/>
</g>
<g clip-path="url(#clip11)" clip-rule="nonzero">
<path style="fill:none;stroke-width:1.5;stroke-linecap:square;stroke-linejoin:miter;stroke:rgb(0%,0%,0%);stroke-opacity:1;stroke-miterlimit:3.25;" d="M 842.839844 90.21875 L 1104.964844 90.21875 L 1104.964844 352.34375 "/>
</g>
<g clip-path="url(#clip12)" clip-rule="nonzero">
<path style="fill:none;stroke-width:1.5;stroke-linecap:square;stroke-linejoin:miter;stroke:rgb(0%,0%,0%);stroke-opacity:1;stroke-miterlimit:3.25;" d="M 842.839844 24.6875 L 1170.496094 24.6875 L 1170.496094 352.34375 "/>
</g>
<path style="fill-rule:nonzero;fill:rgb(100%,100%,86.999313%);fill-opacity:1;stroke-width:1.5;stroke-linecap:square;stroke-linejoin:miter;stroke:rgb(0%,0%,0%);stroke-opacity:1;stroke-miterlimit:3.25;" d="M 1108.582031 170.46875 L 1110.898438 170.167969 L 1113.175781 169.769531 L 1115.417969 169.269531 L 1117.617188 168.675781 L 1119.765625 167.988281 L 1121.863281 167.210938 L 1123.90625 166.339844 L 1125.890625 165.382812 L 1127.808594 164.339844 L 1129.664062 163.21875 L 1131.449219 162.015625 L 1133.164062 160.738281 L 1134.796875 159.386719 L 1136.355469 157.964844 L 1137.828125 156.480469 L 1139.21875 154.929688 L 1140.519531 153.320312 L 1141.730469 151.65625 L 1142.851562 149.941406 L 1143.875 148.179688 L 1144.800781 146.375 L 1145.628906 144.53125 L 1146.355469 142.648438 L 1146.980469 140.738281 L 1147.5 138.800781 L 1147.914062 136.84375 L 1148.21875 134.871094 L 1148.410156 132.890625 L 1148.492188 130.902344 L 1148.460938 128.914062 L 1148.320312 126.929688 L 1148.070312 124.953125 L 1147.707031 122.988281 L 1147.234375 121.039062 L 1146.660156 119.113281 L 1145.980469 117.21875 L 1145.199219 115.359375 L 1144.316406 113.535156 L 1143.339844 111.75 L 1142.265625 110.015625 L 1141.09375 108.324219 L 1139.835938 106.691406 L 1138.488281 105.113281 L 1137.050781 103.597656 L 1135.53125 102.144531 L 1133.933594 100.761719 L 1132.257812 99.449219 L 1130.503906 98.210938 L 1128.683594 97.050781 L 1126.792969 95.972656 L 1124.835938 94.976562 L 1122.820312 94.0625 L 1120.746094 93.242188 L 1118.621094 92.511719 L 1116.445312 91.875 L 1114.226562 91.332031 L 1111.960938 90.886719 L 1109.664062 90.539062 L 1108.582031 90.410156 L 1108.5 90.308594 L 1108.414062 90.199219 L 1108.324219 90.082031 L 1108.234375 89.957031 L 1108.144531 89.828125 L 1108.046875 89.6875 L 1107.953125 89.542969 L 1107.855469 89.390625 L 1107.753906 89.230469 L 1107.652344 89.0625 L 1107.550781 88.886719 L 1107.449219 88.699219 L 1107.34375 88.507812 L 1107.238281 88.308594 L 1107.136719 88.101562 L 1107.03125 87.886719 L 1106.925781 87.664062 L 1106.824219 87.429688 L 1106.71875 87.191406 L 1106.617188 86.945312 L 1106.515625 86.6875 L 1106.414062 86.421875 L 1106.316406 86.148438 L 1106.21875 85.871094 L 1106.125 85.582031 L 1106.03125 85.28125 L 1105.941406 84.976562 L 1105.851562 84.664062 L 1105.765625 84.339844 L 1105.683594 84.011719 L 1105.605469 83.671875 L 1105.53125 83.324219 L 1105.457031 82.972656 L 1105.390625 82.609375 L 1105.328125 82.238281 L 1105.265625 81.859375 L 1105.214844 81.472656 L 1105.164062 81.074219 L 1105.117188 80.671875 L 1105.078125 80.261719 L 1105.046875 79.84375 L 1105.015625 79.417969 L 1104.996094 78.984375 L 1104.976562 78.515625 L 1104.96875 78.027344 L 1104.964844 24.6875 L 1106.050781 24.738281 L 1108.363281 24.886719 L 1110.648438 25.089844 L 1112.902344 25.351562 L 1115.121094 25.664062 L 1117.308594 26.03125 L 1119.460938 26.445312 L 1121.574219 26.914062 L 1123.648438 27.425781 L 1125.683594 27.984375 L 1127.675781 28.585938 L 1129.621094 29.230469 L 1131.527344 29.914062 L 1133.382812 30.632812 L 1135.191406 31.390625 L 1136.953125 32.179688 L 1138.664062 33 L 1140.328125 33.847656 L 1141.9375 34.722656 L 1143.496094 35.621094 L 1145 36.542969 L 1146.453125 37.480469 L 1147.855469 38.441406 L 1149.199219 39.410156 L 1150.492188 40.394531 L 1151.730469 41.390625 L 1152.910156 42.386719 L 1154.03125 43.386719 L 1155.097656 44.386719 L 1156.109375 45.378906 L 1157.0625 46.371094 L 1157.960938 47.351562 L 1158.808594 48.328125 L 1159.621094 49.316406 L 1160.511719 50.445312 L 1161.355469 51.585938 L 1162.160156 52.726562 L 1162.921875 53.867188 L 1163.644531 55.011719 L 1164.324219 56.15625 L 1164.964844 57.300781 L 1165.566406 58.441406 L 1166.128906 59.574219 L 1166.65625 60.707031 L 1167.144531 61.828125 L 1167.59375 62.945312 L 1168.007812 64.054688 L 1168.386719 65.148438 L 1168.730469 66.238281 L 1169.042969 67.308594 L 1169.320312 68.371094 L 1169.566406 69.417969 L 1169.78125 70.449219 L 1169.964844 71.464844 L 1170.121094 72.464844 L 1170.25 73.449219 L 1170.347656 74.410156 L 1170.421875 75.355469 L 1170.46875 76.28125 L 1170.496094 183.316406 L 1170.484375 184.152344 L 1170.449219 185.027344 L 1170.390625 185.960938 L 1170.304688 186.914062 L 1170.191406 187.886719 L 1170.054688 188.875 L 1169.882812 189.882812 L 1169.6875 190.90625 L 1169.457031 191.945312 L 1169.195312 193 L 1168.902344 194.066406 L 1168.578125 195.148438 L 1168.214844 196.238281 L 1167.820312 197.339844 L 1167.390625 198.453125 L 1166.921875 199.570312 L 1166.417969 200.699219 L 1165.875 201.832031 L 1165.292969 202.96875 L 1164.671875 204.109375 L 1164.011719 205.253906 L 1163.3125 206.398438 L 1162.570312 207.542969 L 1161.789062 208.6875 L 1160.96875 209.824219 L 1160.101562 210.960938 L 1159.238281 212.039062 L 1158.421875 213.003906 L 1157.550781 213.984375 L 1156.625 214.96875 L 1155.644531 215.960938 L 1154.609375 216.960938 L 1153.519531 217.957031 L 1152.367188 218.957031 L 1151.160156 219.953125 L 1149.898438 220.945312 L 1148.582031 221.921875 L 1147.210938 222.886719 L 1145.785156 223.835938 L 1144.308594 224.769531 L 1142.777344 225.679688 L 1141.195312 226.566406 L 1139.558594 227.429688 L 1137.875 228.265625 L 1136.140625 229.074219 L 1134.355469 229.847656 L 1132.523438 230.585938 L 1130.644531 231.289062 L 1128.722656 231.953125 L 1126.753906 232.578125 L 1124.742188 233.160156 L 1122.6875 233.699219 L 1120.597656 234.191406 L 1118.464844 234.632812 L 1116.296875 235.027344 L 1114.09375 235.367188 L 1111.855469 235.65625 L 1109.585938 235.890625 L 1107.289062 236.070312 L 1104.964844 236.191406 L 1104.964844 182.945312 L 1104.972656 182.570312 L 1104.984375 182.199219 L 1104.996094 181.847656 L 1105.015625 181.515625 L 1105.035156 181.1875 L 1105.058594 180.863281 L 1105.085938 180.546875 L 1105.117188 180.230469 L 1105.148438 179.921875 L 1105.1875 179.617188 L 1105.226562 179.316406 L 1105.3125 178.730469 L 1105.359375 178.445312 L 1105.410156 178.164062 L 1105.460938 177.886719 L 1105.515625 177.613281 L 1105.632812 177.082031 L 1105.695312 176.824219 L 1105.757812 176.574219 L 1105.824219 176.324219 L 1105.890625 176.082031 L 1105.957031 175.84375 L 1106.027344 175.609375 L 1106.097656 175.382812 L 1106.171875 175.15625 L 1106.242188 174.9375 L 1106.316406 174.722656 L 1106.394531 174.515625 L 1106.46875 174.308594 L 1106.546875 174.109375 L 1106.625 173.914062 L 1106.78125 173.539062 L 1106.863281 173.359375 L 1106.941406 173.183594 L 1107.023438 173.011719 L 1107.101562 172.84375 L 1107.183594 172.683594 L 1107.261719 172.527344 L 1107.34375 172.375 L 1107.421875 172.226562 L 1107.5 172.082031 L 1107.578125 171.945312 L 1107.65625 171.8125 L 1107.734375 171.683594 L 1107.8125 171.558594 L 1107.886719 171.4375 L 1107.960938 171.320312 L 1108.035156 171.207031 L 1108.109375 171.101562 L 1108.25 170.898438 L 1108.320312 170.804688 L 1108.386719 170.714844 L 1108.453125 170.628906 L 1108.519531 170.546875 Z M 1108.582031 170.46875 "/>
</g>
</svg>
