<?xml version="1.0" encoding="UTF-8"?>
<svg xmlns="http://www.w3.org/2000/svg" xmlns:xlink="http://www.w3.org/1999/xlink" width="425pt" height="365pt" viewBox="0 0 425 365" version="1.1">
<g id="surface266">
<path style=" stroke:none;fill-rule:nonzero;fill:rgb(100%,74.999619%,74.999619%);fill-opacity:1;" d="M 351.042969 210.789062 L 349.53125 208.796875 L 347.984375 206.835938 L 346.402344 204.902344 L 344.789062 202.996094 L 343.136719 201.121094 L 341.457031 199.273438 L 186.558594 32.234375 L 191.515625 31.65625 L 196.472656 31.171875 L 201.433594 30.78125 L 206.398438 30.484375 L 211.355469 30.28125 L 216.316406 30.167969 Z M 351.042969 210.789062 "/>
<path style=" stroke:none;fill-rule:nonzero;fill:rgb(100%,92.500191%,92.500191%);fill-opacity:1;" d="M 378.886719 336.789062 L 378.886719 294.691406 L 378.867188 292.191406 L 378.800781 289.695312 L 378.6875 287.199219 L 378.53125 284.707031 L 378.332031 282.214844 L 378.089844 279.730469 L 377.800781 277.25 L 377.46875 274.773438 L 377.089844 272.304688 L 376.671875 269.839844 L 376.207031 267.386719 L 375.699219 264.941406 L 375.148438 262.503906 L 374.550781 260.078125 L 373.914062 257.660156 L 373.234375 255.257812 L 372.511719 252.867188 L 371.746094 250.488281 L 370.9375 248.125 L 370.085938 245.777344 L 369.195312 243.441406 L 368.261719 241.125 L 367.289062 238.824219 L 366.273438 236.542969 L 365.21875 234.277344 L 364.121094 232.03125 L 362.988281 229.808594 L 361.8125 227.601562 L 360.597656 225.417969 L 359.347656 223.257812 L 358.054688 221.117188 L 356.726562 219.003906 L 355.359375 216.910156 L 353.957031 214.84375 L 352.519531 212.804688 L 351.042969 210.789062 L 349.53125 208.796875 L 347.984375 206.835938 L 346.402344 204.902344 L 344.789062 202.996094 L 343.136719 201.121094 L 341.457031 199.273438 L 339.742188 197.457031 L 337.996094 195.671875 L 336.214844 193.917969 L 334.40625 192.195312 L 332.566406 190.503906 L 330.699219 188.847656 L 328.796875 187.222656 L 326.871094 185.636719 L 324.914062 184.078125 L 322.933594 182.558594 L 320.921875 181.074219 L 318.886719 179.628906 L 316.828125 178.214844 L 314.742188 176.839844 L 312.632812 175.503906 L 310.496094 174.203125 L 308.339844 172.941406 L 306.164062 171.71875 L 303.964844 170.535156 L 301.742188 169.390625 L 299.503906 168.285156 L 297.242188 167.222656 L 294.964844 166.195312 L 292.667969 165.214844 L 290.355469 164.269531 L 288.023438 163.367188 L 285.679688 162.507812 L 283.320312 161.691406 L 280.945312 160.914062 L 278.554688 160.183594 L 224.753906 144.183594 L 224.753906 336.789062 Z M 378.886719 336.789062 "/>
<path style=" stroke:none;fill-rule:evenodd;fill:rgb(0%,0%,0%);fill-opacity:1;" d="M 257 311.984375 C 257 311.820312 256.835938 311.820312 256.703125 311.820312 C 256.089844 311.808594 255.894531 311.671875 255.671875 311.148438 L 253.546875 306.25 C 253.535156 306.203125 253.472656 306.082031 253.472656 306.039062 C 253.472656 306.039062 253.742188 305.816406 253.90625 305.695312 L 256.523438 303.679688 C 257.925781 302.648438 258.507812 302.585938 258.957031 302.542969 C 259.078125 302.527344 259.226562 302.511719 259.226562 302.242188 C 259.226562 302.183594 259.179688 302.078125 259.0625 302.078125 C 258.734375 302.078125 258.359375 302.125 258.003906 302.125 C 257.464844 302.125 256.878906 302.078125 256.34375 302.078125 C 256.238281 302.078125 256.058594 302.078125 256.058594 302.378906 C 256.058594 302.480469 256.132812 302.527344 256.238281 302.542969 C 256.566406 302.574219 256.703125 302.648438 256.703125 302.855469 C 256.703125 303.125 256.253906 303.46875 256.164062 303.542969 L 250.335938 308.027344 L 251.53125 303.230469 C 251.667969 302.691406 251.695312 302.542969 252.785156 302.542969 C 253.160156 302.542969 253.296875 302.542969 253.296875 302.242188 C 253.296875 302.109375 253.175781 302.078125 253.085938 302.078125 L 251.171875 302.125 L 249.246094 302.078125 C 249.140625 302.078125 248.945312 302.078125 248.945312 302.363281 C 248.945312 302.542969 249.082031 302.542969 249.378906 302.542969 C 249.574219 302.542969 249.84375 302.558594 250.023438 302.574219 C 250.261719 302.601562 250.351562 302.648438 250.351562 302.8125 C 250.351562 302.871094 250.335938 302.914062 250.292969 303.097656 L 248.289062 311.121094 C 248.136719 311.703125 248.109375 311.820312 246.929688 311.820312 C 246.675781 311.820312 246.511719 311.820312 246.511719 312.105469 C 246.511719 312.285156 246.691406 312.285156 246.734375 312.285156 L 248.632812 312.242188 L 249.589844 312.253906 C 249.917969 312.253906 250.246094 312.285156 250.5625 312.285156 C 250.664062 312.285156 250.859375 312.285156 250.859375 311.984375 C 250.859375 311.820312 250.726562 311.820312 250.441406 311.820312 C 249.886719 311.820312 249.46875 311.820312 249.46875 311.554688 C 249.46875 311.449219 249.558594 311.121094 249.601562 310.894531 L 250.203125 308.550781 L 252.429688 306.816406 L 254.164062 310.835938 C 254.339844 311.238281 254.339844 311.269531 254.339844 311.359375 C 254.339844 311.808594 253.699219 311.820312 253.5625 311.820312 C 253.398438 311.820312 253.234375 311.820312 253.234375 312.121094 C 253.234375 312.285156 253.441406 312.285156 253.441406 312.285156 C 254.042969 312.285156 254.667969 312.242188 255.269531 312.242188 C 255.597656 312.242188 256.402344 312.285156 256.730469 312.285156 C 256.804688 312.285156 257 312.285156 257 311.984375 Z M 257 311.984375 "/>
<path style="fill:none;stroke-width:1;stroke-linecap:square;stroke-linejoin:miter;stroke:rgb(70.000763%,70.000763%,70.000763%);stroke-opacity:1;stroke-miterlimit:3.25;" d="M 378.886719 294.691406 L 378.886719 84.199219 "/>
<path style="fill:none;stroke-width:1;stroke-linecap:square;stroke-linejoin:miter;stroke:rgb(70.000763%,70.000763%,70.000763%);stroke-opacity:1;stroke-miterlimit:3.25;" d="M 378.089844 279.730469 L 355.382812 67.976562 "/>
<path style="fill:none;stroke-width:1;stroke-linecap:square;stroke-linejoin:miter;stroke:rgb(70.000763%,70.000763%,70.000763%);stroke-opacity:1;stroke-miterlimit:3.25;" d="M 375.699219 264.941406 L 330.023438 54.398438 "/>
<path style="fill:none;stroke-width:1;stroke-linecap:square;stroke-linejoin:miter;stroke:rgb(70.000763%,70.000763%,70.000763%);stroke-opacity:1;stroke-miterlimit:3.25;" d="M 371.746094 250.488281 L 303.105469 43.667969 "/>
<path style="fill:none;stroke-width:1;stroke-linecap:square;stroke-linejoin:miter;stroke:rgb(70.000763%,70.000763%,70.000763%);stroke-opacity:1;stroke-miterlimit:3.25;" d="M 366.273438 236.542969 L 274.949219 35.96875 "/>
<path style="fill:none;stroke-width:1;stroke-linecap:square;stroke-linejoin:miter;stroke:rgb(70.000763%,70.000763%,70.000763%);stroke-opacity:1;stroke-miterlimit:3.25;" d="M 359.347656 223.257812 L 245.902344 31.433594 "/>
<path style="fill:none;stroke-width:1;stroke-linecap:square;stroke-linejoin:miter;stroke:rgb(70.000763%,70.000763%,70.000763%);stroke-opacity:1;stroke-miterlimit:3.25;" d="M 351.042969 210.789062 L 216.316406 30.167969 "/>
<path style="fill:none;stroke-width:1;stroke-linecap:square;stroke-linejoin:miter;stroke:rgb(70.000763%,70.000763%,70.000763%);stroke-opacity:1;stroke-miterlimit:3.25;" d="M 341.457031 199.273438 L 186.558594 32.234375 "/>
<path style="fill:none;stroke-width:1;stroke-linecap:square;stroke-linejoin:miter;stroke:rgb(70.000763%,70.000763%,70.000763%);stroke-opacity:1;stroke-miterlimit:3.25;" d="M 330.699219 188.847656 L 157.007812 37.648438 "/>
<path style="fill:none;stroke-width:1;stroke-linecap:square;stroke-linejoin:miter;stroke:rgb(70.000763%,70.000763%,70.000763%);stroke-opacity:1;stroke-miterlimit:3.25;" d="M 318.886719 179.628906 L 128.042969 46.394531 "/>
<path style="fill:none;stroke-width:1;stroke-linecap:square;stroke-linejoin:miter;stroke:rgb(70.000763%,70.000763%,70.000763%);stroke-opacity:1;stroke-miterlimit:3.25;" d="M 306.164062 171.71875 L 100.035156 58.398438 "/>
<path style="fill:none;stroke-width:1;stroke-linecap:square;stroke-linejoin:miter;stroke:rgb(70.000763%,70.000763%,70.000763%);stroke-opacity:1;stroke-miterlimit:3.25;" d="M 292.667969 165.214844 L 73.351562 73.558594 "/>
<path style="fill:none;stroke-width:1;stroke-linecap:square;stroke-linejoin:miter;stroke:rgb(70.000763%,70.000763%,70.000763%);stroke-opacity:1;stroke-miterlimit:3.25;" d="M 278.554688 160.183594 L 48.347656 91.730469 "/>
<path style="fill:none;stroke-width:1.275591;stroke-linecap:butt;stroke-linejoin:miter;stroke:rgb(100%,0%,0%);stroke-opacity:1;stroke-miterlimit:3.25;" d="M 351.042969 210.789062 L 225.546875 42.542969 "/>
<path style=" stroke:none;fill-rule:nonzero;fill:rgb(100%,0%,0%);fill-opacity:1;" d="M 222.894531 46.476562 L 223.15625 45.972656 L 223.808594 44.804688 L 224.222656 44.132812 L 224.667969 43.488281 L 225.117188 42.9375 L 225.546875 42.542969 L 226.003906 42.277344 L 226.652344 42.007812 L 227.414062 41.753906 L 228.214844 41.519531 L 229.609375 41.15625 L 230.214844 41.019531 L 216.316406 30.167969 Z M 222.894531 46.476562 "/>
<path style="fill:none;stroke-width:4;stroke-linecap:butt;stroke-linejoin:round;stroke:rgb(100%,100%,100%);stroke-opacity:0.666667;stroke-miterlimit:3.239307;" d="M 286.171875 117.984375 L 287.382812 116.816406 L 288.386719 115.941406 L 289.210938 115.3125 L 289.890625 114.890625 L 290.449219 114.636719 L 290.917969 114.503906 L 291.328125 114.457031 L 291.707031 114.449219 L 293.707031 114.449219 "/>
<path style="fill:none;stroke-width:1.25;stroke-linecap:square;stroke-linejoin:miter;stroke:rgb(66.666667%,66.666667%,66.666667%);stroke-opacity:1;stroke-miterlimit:3.25;" d="M 286.171875 117.984375 L 287.382812 116.816406 L 288.386719 115.941406 L 289.210938 115.3125 L 289.890625 114.890625 L 290.449219 114.636719 L 290.917969 114.503906 L 291.328125 114.457031 L 291.707031 114.449219 L 293.707031 114.449219 "/>
<path style=" stroke:none;fill-rule:nonzero;fill:rgb(100%,100%,100%);fill-opacity:0.666667;" d="M 341.707031 98.25 L 341.707031 125.25 L 293.707031 125.25 L 293.707031 98.25 Z M 341.707031 98.25 "/>
<path style=" stroke:none;fill-rule:evenodd;fill:rgb(0%,0%,0%);fill-opacity:1;" d="M 306.492188 105.785156 C 306.492188 105.09375 305.800781 104.75 305.1875 104.75 C 304.679688 104.75 303.734375 105.019531 303.285156 106.503906 C 303.191406 106.820312 303.148438 106.96875 302.785156 108.859375 L 301.753906 108.859375 C 301.46875 108.859375 301.304688 108.859375 301.304688 109.144531 C 301.304688 109.324219 301.4375 109.324219 301.722656 109.324219 L 302.710938 109.324219 L 301.585938 115.25 C 301.316406 116.707031 301.0625 118.070312 300.28125 118.070312 C 300.222656 118.070312 299.847656 118.070312 299.5625 117.800781 C 300.25 117.753906 300.386719 117.214844 300.386719 116.992188 C 300.386719 116.644531 300.117188 116.464844 299.832031 116.464844 C 299.441406 116.464844 299.007812 116.796875 299.007812 117.363281 C 299.007812 118.039062 299.667969 118.398438 300.28125 118.398438 C 301.109375 118.398438 301.707031 117.515625 301.976562 116.945312 C 302.457031 116 302.800781 114.183594 302.816406 114.082031 L 303.71875 109.324219 L 305.007812 109.324219 C 305.308594 109.324219 305.457031 109.324219 305.457031 109.023438 C 305.457031 108.859375 305.308594 108.859375 305.050781 108.859375 L 303.808594 108.859375 C 303.972656 107.988281 303.957031 108.019531 304.121094 107.148438 C 304.183594 106.832031 304.390625 105.769531 304.484375 105.589844 C 304.617188 105.304688 304.875 105.078125 305.1875 105.078125 C 305.246094 105.078125 305.636719 105.078125 305.921875 105.347656 C 305.261719 105.410156 305.113281 105.933594 305.113281 106.160156 C 305.113281 106.503906 305.382812 106.683594 305.667969 106.683594 C 306.054688 106.683594 306.492188 106.355469 306.492188 105.785156 Z M 306.492188 105.785156 "/>
<path style=" stroke:none;fill-rule:evenodd;fill:rgb(0%,0%,0%);fill-opacity:1;" d="M 312.058594 118.925781 C 312.058594 118.878906 312.058594 118.851562 311.804688 118.59375 C 309.929688 116.707031 309.449219 113.867188 309.449219 111.574219 C 309.449219 108.964844 310.019531 106.355469 311.863281 104.480469 C 312.058594 104.300781 312.058594 104.269531 312.058594 104.226562 C 312.058594 104.121094 311.996094 104.074219 311.910156 104.074219 C 311.757812 104.074219 310.40625 105.09375 309.523438 107 C 308.757812 108.648438 308.578125 110.316406 308.578125 111.574219 C 308.578125 112.746094 308.746094 114.5625 309.566406 116.253906 C 310.46875 118.101562 311.757812 119.074219 311.910156 119.074219 C 311.996094 119.074219 312.058594 119.03125 312.058594 118.925781 Z M 312.058594 118.925781 "/>
<path style=" stroke:none;fill-rule:evenodd;fill:rgb(0%,0%,0%);fill-opacity:1;" d="M 317.675781 113.179688 C 317.675781 113.03125 317.554688 113.03125 317.496094 113.03125 C 317.359375 113.03125 317.34375 113.074219 317.269531 113.242188 C 316.625 114.800781 315.828125 115.160156 315.320312 115.160156 C 315.003906 115.160156 314.855469 114.964844 314.855469 114.46875 C 314.855469 114.109375 314.882812 114.003906 314.945312 113.75 L 316.054688 109.324219 L 317.464844 109.324219 C 317.765625 109.324219 317.917969 109.324219 317.917969 109.023438 C 317.917969 108.859375 317.765625 108.859375 317.496094 108.859375 L 316.175781 108.859375 C 316.714844 106.730469 316.789062 106.429688 316.789062 106.339844 C 316.789062 106.085938 316.609375 105.933594 316.355469 105.933594 C 316.308594 105.933594 315.890625 105.949219 315.753906 106.472656 L 315.167969 108.859375 L 313.757812 108.859375 C 313.457031 108.859375 313.308594 108.859375 313.308594 109.144531 C 313.308594 109.324219 313.429688 109.324219 313.730469 109.324219 L 315.046875 109.324219 C 313.96875 113.585938 313.910156 113.839844 313.910156 114.109375 C 313.910156 114.921875 314.480469 115.488281 315.289062 115.488281 C 316.820312 115.488281 317.675781 113.300781 317.675781 113.179688 Z M 317.675781 113.179688 "/>
<path style=" stroke:none;fill-rule:evenodd;fill:rgb(0%,0%,0%);fill-opacity:1;" d="M 322.71875 111.574219 C 322.71875 110.40625 322.554688 108.589844 321.730469 106.894531 C 320.832031 105.046875 319.539062 104.074219 319.386719 104.074219 C 319.300781 104.074219 319.242188 104.132812 319.242188 104.226562 C 319.242188 104.269531 319.242188 104.300781 319.523438 104.570312 C 320.996094 106.054688 321.847656 108.441406 321.847656 111.574219 C 321.847656 114.140625 321.292969 116.78125 319.433594 118.667969 C 319.242188 118.851562 319.242188 118.878906 319.242188 118.925781 C 319.242188 119.015625 319.300781 119.074219 319.386719 119.074219 C 319.539062 119.074219 320.890625 118.054688 321.773438 116.152344 C 322.539062 114.5 322.71875 112.835938 322.71875 111.574219 Z M 322.71875 111.574219 "/>
<path style=" stroke:none;fill-rule:evenodd;fill:rgb(0%,0%,0%);fill-opacity:1;" d="M 331.277344 109.746094 C 331.277344 108.933594 330.886719 108.695312 330.617188 108.695312 C 330.242188 108.695312 329.882812 109.085938 329.882812 109.414062 C 329.882812 109.609375 329.953125 109.699219 330.121094 109.867188 C 330.433594 110.164062 330.628906 110.554688 330.628906 111.097656 C 330.628906 111.722656 329.714844 115.160156 327.960938 115.160156 C 327.195312 115.160156 326.847656 114.636719 326.847656 113.855469 C 326.847656 113.015625 327.253906 111.917969 327.71875 110.675781 C 327.824219 110.421875 327.902344 110.210938 327.902344 109.925781 C 327.902344 109.25 327.421875 108.695312 326.671875 108.695312 C 325.257812 108.695312 324.691406 110.871094 324.691406 111.003906 C 324.691406 111.15625 324.867188 111.15625 324.867188 111.15625 C 325.019531 111.15625 325.035156 111.125 325.113281 110.882812 C 325.542969 109.371094 326.191406 109.023438 326.625 109.023438 C 326.746094 109.023438 327 109.023438 327 109.503906 C 327 109.878906 326.847656 110.285156 326.746094 110.554688 C 326.085938 112.296875 325.890625 112.984375 325.890625 113.628906 C 325.890625 115.25 327.210938 115.488281 327.902344 115.488281 C 330.421875 115.488281 331.277344 110.523438 331.277344 109.746094 Z M 331.277344 109.746094 "/>
<path style=" stroke:none;fill-rule:evenodd;fill:rgb(0%,0%,0%);fill-opacity:1;" d="M 335.40625 116.082031 C 335.40625 115.945312 335.269531 115.945312 335.238281 115.945312 C 335.113281 115.945312 335.101562 115.96875 335.019531 116.144531 C 334.722656 116.808594 334.191406 117.394531 333.613281 117.394531 C 333.390625 117.394531 333.246094 117.257812 333.246094 116.878906 C 333.246094 116.773438 333.289062 116.554688 333.308594 116.449219 L 334.0625 113.4375 L 335.132812 113.4375 C 335.332031 113.4375 335.46875 113.4375 335.46875 113.207031 C 335.46875 113.058594 335.332031 113.058594 335.15625 113.058594 L 334.15625 113.058594 L 334.546875 111.503906 C 334.558594 111.449219 334.578125 111.398438 334.578125 111.355469 C 334.578125 111.167969 334.429688 111.023438 334.222656 111.023438 C 333.957031 111.023438 333.800781 111.199219 333.726562 111.472656 C 333.65625 111.734375 333.789062 111.230469 333.328125 113.058594 L 332.257812 113.058594 C 332.058594 113.058594 331.921875 113.058594 331.921875 113.289062 C 331.921875 113.4375 332.046875 113.4375 332.234375 113.4375 L 333.234375 113.4375 L 332.613281 115.914062 C 332.550781 116.175781 332.457031 116.554688 332.457031 116.691406 C 332.457031 117.308594 332.980469 117.6875 333.582031 117.6875 C 334.746094 117.6875 335.40625 116.21875 335.40625 116.082031 Z M 335.40625 116.082031 "/>
<path style="fill:none;stroke-width:2.551181;stroke-linecap:square;stroke-linejoin:miter;stroke:rgb(0%,0%,0%);stroke-opacity:1;stroke-miterlimit:3.25;" d="M 378.886719 336.789062 L 378.886719 294.691406 L 378.867188 292.191406 L 378.800781 289.695312 L 378.6875 287.199219 L 378.53125 284.707031 L 378.332031 282.214844 L 378.089844 279.730469 L 377.800781 277.25 L 377.46875 274.773438 L 377.089844 272.304688 L 376.671875 269.839844 L 376.207031 267.386719 L 375.699219 264.941406 L 375.148438 262.503906 L 374.550781 260.078125 L 373.914062 257.660156 L 373.234375 255.257812 L 372.511719 252.867188 L 371.746094 250.488281 L 370.9375 248.125 L 370.085938 245.777344 L 369.195312 243.441406 L 368.261719 241.125 L 367.289062 238.824219 L 366.273438 236.542969 L 365.21875 234.277344 L 364.121094 232.03125 L 362.988281 229.808594 L 361.8125 227.601562 L 360.597656 225.417969 L 359.347656 223.257812 L 358.054688 221.117188 L 356.726562 219.003906 L 355.359375 216.910156 L 353.957031 214.84375 L 352.519531 212.804688 L 351.042969 210.789062 L 349.53125 208.796875 L 347.984375 206.835938 L 346.402344 204.902344 L 344.789062 202.996094 L 343.136719 201.121094 L 341.457031 199.273438 L 339.742188 197.457031 L 337.996094 195.671875 L 336.214844 193.917969 L 334.40625 192.195312 L 332.566406 190.503906 L 330.699219 188.847656 L 328.796875 187.222656 L 326.871094 185.636719 L 324.914062 184.078125 L 322.933594 182.558594 L 320.921875 181.074219 L 318.886719 179.628906 L 316.828125 178.214844 L 314.742188 176.839844 L 312.632812 175.503906 L 310.496094 174.203125 L 308.339844 172.941406 L 306.164062 171.71875 L 303.964844 170.535156 L 301.742188 169.390625 L 299.503906 168.285156 L 297.242188 167.222656 L 294.964844 166.195312 L 292.667969 165.214844 L 290.355469 164.269531 L 288.023438 163.367188 L 285.679688 162.507812 L 283.320312 161.691406 L 280.945312 160.914062 L 278.554688 160.183594 L 224.753906 144.183594 "/>
<path style=" stroke:none;fill-rule:evenodd;fill:rgb(0%,0%,0%);fill-opacity:1;" d="M 382.5 337 C 382.5 336.070312 382.132812 335.179688 381.476562 334.523438 C 380.820312 333.867188 379.929688 333.5 379 333.5 C 378.070312 333.5 377.179688 333.867188 376.523438 334.523438 C 375.867188 335.179688 375.5 336.070312 375.5 337 C 375.5 337.929688 375.867188 338.820312 376.523438 339.476562 C 377.179688 340.132812 378.070312 340.5 379 340.5 C 379.929688 340.5 380.820312 340.132812 381.476562 339.476562 C 382.132812 338.820312 382.5 337.929688 382.5 337 Z M 382.5 337 "/>
<path style=" stroke:none;fill-rule:evenodd;fill:rgb(0%,0%,0%);fill-opacity:1;" d="M 382.453125 352.207031 C 382.453125 350.800781 381.601562 349.816406 380.464844 349.816406 C 379.71875 349.816406 379.003906 350.355469 378.507812 350.933594 C 378.359375 350.128906 377.714844 349.816406 377.164062 349.816406 C 376.476562 349.816406 376.195312 350.398438 376.058594 350.667969 C 375.792969 351.175781 375.597656 352.070312 375.597656 352.117188 C 375.597656 352.265625 375.773438 352.265625 375.773438 352.265625 C 375.925781 352.265625 375.9375 352.25 376.03125 351.921875 C 376.285156 350.863281 376.582031 350.144531 377.121094 350.144531 C 377.375 350.144531 377.582031 350.265625 377.582031 350.832031 C 377.582031 351.175781 377.539062 351.339844 377.476562 351.59375 L 375.804688 358.238281 C 375.6875 358.75 375.65625 358.851562 375 358.851562 C 374.820312 358.851562 374.65625 358.851562 374.65625 359.136719 C 374.65625 359.257812 374.730469 359.316406 374.851562 359.316406 C 375.253906 359.316406 375.6875 359.269531 376.105469 359.269531 C 376.597656 359.269531 377.105469 359.316406 377.582031 359.316406 C 377.660156 359.316406 377.851562 359.316406 377.851562 359.015625 C 377.851562 358.851562 377.703125 358.851562 377.496094 358.851562 C 376.746094 358.851562 376.746094 358.75 376.746094 358.613281 C 376.746094 358.433594 377.375 356 377.476562 355.625 C 377.671875 356.058594 378.089844 356.582031 378.851562 356.582031 C 380.585938 356.582031 382.453125 354.402344 382.453125 352.207031 Z M 380.617188 354.714844 C 380.109375 355.757812 379.390625 356.253906 378.839844 356.253906 C 377.851562 356.253906 377.660156 355.015625 377.660156 354.921875 C 377.660156 354.921875 377.660156 354.863281 377.703125 354.683594 L 378.433594 351.757812 C 378.539062 351.355469 378.941406 350.933594 379.210938 350.710938 C 379.734375 350.25 380.167969 350.144531 380.421875 350.144531 C 381.019531 350.144531 381.378906 350.667969 381.378906 351.546875 C 381.378906 352.429688 380.882812 354.148438 380.617188 354.714844 Z M 380.617188 354.714844 "/>
<path style=" stroke:none;fill-rule:evenodd;fill:rgb(0%,0%,0%);fill-opacity:1;" d="M 228.5 144 C 228.5 143.070312 228.132812 142.179688 227.476562 141.523438 C 226.820312 140.867188 225.929688 140.5 225 140.5 C 224.070312 140.5 223.179688 140.867188 222.523438 141.523438 C 221.867188 142.179688 221.5 143.070312 221.5 144 C 221.5 144.929688 221.867188 145.820312 222.523438 146.476562 C 223.179688 147.132812 224.070312 147.5 225 147.5 C 225.929688 147.5 226.820312 147.132812 227.476562 146.476562 C 228.132812 145.820312 228.5 144.929688 228.5 144 Z M 228.5 144 "/>
<path style=" stroke:none;fill-rule:evenodd;fill:rgb(0%,0%,0%);fill-opacity:1;" d="M 226.988281 160.804688 C 226.988281 160.640625 226.839844 160.640625 226.601562 160.640625 C 225.882812 160.640625 225.882812 160.535156 225.882812 160.398438 C 225.882812 160.296875 225.914062 160.207031 225.945312 160.070312 L 228.007812 151.761719 C 228.007812 151.703125 227.960938 151.617188 227.855469 151.617188 C 227.691406 151.617188 227.09375 152.210938 226.839844 152.644531 C 226.511719 151.839844 225.929688 151.597656 225.449219 151.597656 C 223.6875 151.597656 221.847656 153.8125 221.847656 155.976562 C 221.847656 157.441406 222.730469 158.367188 223.820312 158.367188 C 224.464844 158.367188 225.046875 158.007812 225.582031 157.472656 L 224.910156 160.144531 C 224.792969 160.566406 224.671875 160.625 223.835938 160.640625 C 223.640625 160.640625 223.492188 160.640625 223.492188 160.9375 C 223.492188 160.9375 223.492188 161.101562 223.6875 161.101562 C 224.167969 161.101562 224.6875 161.058594 225.179688 161.058594 C 225.6875 161.058594 226.226562 161.101562 226.71875 161.101562 C 226.796875 161.101562 226.988281 161.101562 226.988281 160.804688 Z M 226.632812 153.242188 C 226.632812 153.332031 225.808594 156.605469 225.765625 156.664062 C 225.539062 157.082031 224.703125 158.039062 223.867188 158.039062 C 222.96875 158.039062 222.910156 156.890625 222.910156 156.632812 C 222.910156 155.917969 223.34375 154.289062 223.597656 153.660156 C 224.0625 152.554688 224.839844 151.925781 225.449219 151.925781 C 226.421875 151.925781 226.632812 153.136719 226.632812 153.242188 Z M 226.632812 153.242188 "/>
<path style=" stroke:none;fill-rule:evenodd;fill:rgb(0%,0%,0%);fill-opacity:1;" d="M 354.5 211 C 354.5 210.070312 354.132812 209.179688 353.476562 208.523438 C 352.820312 207.867188 351.929688 207.5 351 207.5 C 350.070312 207.5 349.179688 207.867188 348.523438 208.523438 C 347.867188 209.179688 347.5 210.070312 347.5 211 C 347.5 211.929688 347.867188 212.820312 348.523438 213.476562 C 349.179688 214.132812 350.070312 214.5 351 214.5 C 351.929688 214.5 352.820312 214.132812 353.476562 213.476562 C 354.132812 212.820312 354.5 211.929688 354.5 211 Z M 354.5 211 "/>
<path style=" stroke:none;fill-rule:evenodd;fill:rgb(0%,0%,0%);fill-opacity:1;" d="M 315.152344 219.539062 C 315.152344 218.730469 314.761719 218.488281 314.492188 218.488281 C 314.121094 218.488281 313.761719 218.878906 313.761719 219.207031 C 313.761719 219.402344 313.835938 219.492188 314 219.65625 C 314.3125 219.953125 314.507812 220.34375 314.507812 220.882812 C 314.507812 221.507812 313.59375 224.933594 311.847656 224.933594 C 311.085938 224.933594 310.742188 224.410156 310.742188 223.632812 C 310.742188 222.796875 311.144531 221.703125 311.609375 220.464844 C 311.714844 220.210938 311.789062 220 311.789062 219.714844 C 311.789062 219.042969 311.308594 218.488281 310.5625 218.488281 C 309.15625 218.488281 308.589844 220.65625 308.589844 220.792969 C 308.589844 220.941406 308.765625 220.941406 308.765625 220.941406 C 308.917969 220.941406 308.933594 220.910156 309.007812 220.671875 C 309.441406 219.164062 310.085938 218.816406 310.519531 218.816406 C 310.636719 218.816406 310.890625 218.816406 310.890625 219.296875 C 310.890625 219.671875 310.742188 220.074219 310.636719 220.34375 C 309.980469 222.078125 309.785156 222.765625 309.785156 223.40625 C 309.785156 225.023438 311.097656 225.261719 311.789062 225.261719 C 314.296875 225.261719 315.152344 220.3125 315.152344 219.539062 Z M 315.152344 219.539062 "/>
<path style=" stroke:none;fill-rule:evenodd;fill:rgb(0%,0%,0%);fill-opacity:1;" d="M 324.386719 216.179688 C 324.386719 215.921875 324.144531 215.921875 324 215.921875 L 320.796875 215.921875 L 320.796875 212.707031 C 320.796875 212.574219 320.796875 212.320312 320.546875 212.320312 C 320.285156 212.320312 320.285156 212.5625 320.285156 212.707031 L 320.285156 215.921875 L 317.074219 215.921875 C 316.941406 215.921875 316.6875 215.921875 316.6875 216.171875 C 316.6875 216.433594 316.929688 216.433594 317.074219 216.433594 L 320.285156 216.433594 L 320.285156 219.644531 C 320.285156 219.78125 320.285156 220.03125 320.535156 220.03125 C 320.796875 220.03125 320.796875 219.789062 320.796875 219.644531 L 320.796875 216.433594 L 324 216.433594 C 324.132812 216.433594 324.386719 216.433594 324.386719 216.179688 Z M 324.386719 216.179688 "/>
<path style=" stroke:none;fill-rule:evenodd;fill:rgb(0%,0%,0%);fill-opacity:1;" d="M 324.058594 229.226562 C 324.058594 229.070312 323.921875 229.070312 323.816406 229.070312 C 323.628906 229.070312 323.304688 229.058594 323.125 228.726562 L 321.339844 225.242188 L 321.273438 225.117188 C 321.273438 225.117188 321.285156 225.085938 321.527344 224.917969 L 322.582031 224.175781 C 323.964844 223.199219 324.613281 222.742188 325.355469 222.679688 C 325.46875 222.667969 325.59375 222.65625 325.59375 222.449219 C 325.59375 222.363281 325.523438 222.3125 325.457031 222.3125 C 325.242188 222.3125 324.96875 222.34375 324.738281 222.34375 C 324.457031 222.34375 323.753906 222.304688 323.472656 222.304688 C 323.410156 222.304688 323.253906 222.304688 323.253906 222.53125 C 323.253906 222.53125 323.253906 222.667969 323.410156 222.679688 C 323.535156 222.691406 323.671875 222.710938 323.671875 222.824219 C 323.671875 223.011719 323.347656 223.242188 323.210938 223.335938 L 318.847656 226.414062 L 319.675781 223.117188 C 319.769531 222.761719 319.78125 222.679688 320.59375 222.679688 C 320.761719 222.679688 320.910156 222.679688 320.910156 222.460938 C 320.910156 222.363281 320.847656 222.304688 320.742188 222.304688 C 320.4375 222.304688 319.675781 222.34375 319.371094 222.34375 C 319.195312 222.34375 318.828125 222.34375 318.648438 222.332031 C 318.441406 222.324219 318.191406 222.304688 317.992188 222.304688 C 317.929688 222.304688 317.773438 222.304688 317.773438 222.53125 C 317.773438 222.679688 317.886719 222.679688 318.117188 222.679688 C 318.285156 222.679688 318.328125 222.679688 318.515625 222.699219 C 318.722656 222.71875 318.742188 222.742188 318.742188 222.847656 C 318.742188 222.847656 318.742188 222.917969 318.703125 223.078125 L 317.3125 228.632812 C 317.226562 228.988281 317.207031 229.070312 316.390625 229.070312 C 316.203125 229.070312 316.078125 229.070312 316.078125 229.300781 C 316.078125 229.300781 316.078125 229.445312 316.242188 229.445312 C 316.546875 229.445312 317.300781 229.40625 317.605469 229.40625 C 317.78125 229.40625 318.148438 229.40625 318.328125 229.417969 C 318.535156 229.425781 318.796875 229.445312 318.996094 229.445312 C 319.058594 229.445312 319.214844 229.445312 319.214844 229.21875 C 319.214844 229.070312 319.089844 229.070312 318.878906 229.070312 C 318.878906 229.070312 318.671875 229.070312 318.480469 229.046875 C 318.242188 229.027344 318.242188 228.996094 318.242188 228.890625 C 318.242188 228.808594 318.34375 228.421875 318.734375 226.886719 L 320.472656 225.660156 L 321.988281 228.597656 C 322.058594 228.738281 322.058594 228.746094 322.058594 228.796875 C 322.058594 229.039062 321.765625 229.070312 321.578125 229.070312 C 321.453125 229.070312 321.308594 229.070312 321.308594 229.300781 C 321.308594 229.300781 321.316406 229.445312 321.484375 229.445312 C 321.777344 229.445312 322.53125 229.40625 322.824219 229.40625 C 323.136719 229.40625 323.554688 229.445312 323.847656 229.445312 C 323.984375 229.445312 324.058594 229.375 324.058594 229.226562 Z M 324.058594 229.226562 "/>
<path style=" stroke:none;fill-rule:evenodd;fill:rgb(0%,0%,0%);fill-opacity:1;" d="M 331.851562 228.683594 C 331.851562 228.636719 331.851562 228.609375 331.597656 228.355469 C 329.730469 226.472656 329.25 223.644531 329.25 221.359375 C 329.25 218.757812 329.820312 216.160156 331.65625 214.289062 C 331.851562 214.113281 331.851562 214.082031 331.851562 214.039062 C 331.851562 213.933594 331.792969 213.886719 331.703125 213.886719 C 331.550781 213.886719 330.207031 214.90625 329.324219 216.804688 C 328.5625 218.445312 328.382812 220.105469 328.382812 221.359375 C 328.382812 222.527344 328.550781 224.335938 329.371094 226.023438 C 330.269531 227.863281 331.550781 228.832031 331.703125 228.832031 C 331.792969 228.832031 331.851562 228.789062 331.851562 228.683594 Z M 331.851562 228.683594 "/>
<path style=" stroke:none;fill-rule:evenodd;fill:rgb(0%,0%,0%);fill-opacity:1;" d="M 337.449219 222.960938 C 337.449219 222.808594 337.328125 222.808594 337.269531 222.808594 C 337.136719 222.808594 337.117188 222.855469 337.042969 223.019531 C 336.402344 224.574219 335.609375 224.933594 335.101562 224.933594 C 334.785156 224.933594 334.640625 224.738281 334.640625 224.242188 C 334.640625 223.886719 334.667969 223.78125 334.726562 223.527344 L 335.835938 219.117188 L 337.238281 219.117188 C 337.539062 219.117188 337.6875 219.117188 337.6875 218.816406 C 337.6875 218.652344 337.539062 218.652344 337.269531 218.652344 L 335.953125 218.652344 C 336.492188 216.53125 336.566406 216.234375 336.566406 216.144531 C 336.566406 215.890625 336.386719 215.742188 336.132812 215.742188 C 336.085938 215.742188 335.671875 215.753906 335.535156 216.277344 L 334.949219 218.652344 L 333.546875 218.652344 C 333.246094 218.652344 333.097656 218.652344 333.097656 218.941406 C 333.097656 219.117188 333.21875 219.117188 333.515625 219.117188 L 334.832031 219.117188 C 333.753906 223.363281 333.695312 223.617188 333.695312 223.886719 C 333.695312 224.695312 334.265625 225.261719 335.070312 225.261719 C 336.597656 225.261719 337.449219 223.078125 337.449219 222.960938 Z M 337.449219 222.960938 "/>
<path style=" stroke:none;fill-rule:evenodd;fill:rgb(0%,0%,0%);fill-opacity:1;" d="M 342.472656 221.359375 C 342.472656 220.195312 342.308594 218.386719 341.488281 216.699219 C 340.59375 214.859375 339.304688 213.886719 339.15625 213.886719 C 339.066406 213.886719 339.007812 213.945312 339.007812 214.039062 C 339.007812 214.082031 339.007812 214.113281 339.292969 214.378906 C 340.757812 215.859375 341.605469 218.238281 341.605469 221.359375 C 341.605469 223.914062 341.054688 226.546875 339.199219 228.429688 C 339.007812 228.609375 339.007812 228.636719 339.007812 228.683594 C 339.007812 228.773438 339.066406 228.832031 339.15625 228.832031 C 339.304688 228.832031 340.652344 227.816406 341.53125 225.917969 C 342.296875 224.273438 342.472656 222.613281 342.472656 221.359375 Z M 342.472656 221.359375 "/>
<path style="fill:none;stroke-width:2.551181;stroke-linecap:square;stroke-linejoin:miter;stroke:rgb(0%,0%,0%);stroke-opacity:1;stroke-miterlimit:3.25;" d="M 378.886719 84.199219 L 375.113281 81.320312 L 371.277344 78.511719 L 367.386719 75.773438 L 363.4375 73.101562 L 359.4375 70.503906 L 355.382812 67.976562 L 351.277344 65.523438 L 347.121094 63.144531 L 342.917969 60.84375 L 338.664062 58.617188 L 334.367188 56.46875 L 330.023438 54.398438 L 325.636719 52.40625 L 321.207031 50.496094 L 316.738281 48.664062 L 312.230469 46.917969 L 307.6875 45.25 L 303.105469 43.667969 L 298.488281 42.171875 L 293.839844 40.757812 L 289.160156 39.429688 L 284.453125 38.1875 L 279.714844 37.035156 L 274.949219 35.96875 L 270.160156 34.988281 L 265.351562 34.097656 L 260.515625 33.296875 L 255.664062 32.585938 L 250.789062 31.964844 L 245.902344 31.433594 L 240.996094 30.992188 L 236.082031 30.644531 L 231.152344 30.386719 L 226.214844 30.222656 L 221.269531 30.148438 L 216.316406 30.167969 L 211.355469 30.28125 L 206.398438 30.484375 L 201.433594 30.78125 L 196.472656 31.171875 L 191.515625 31.65625 L 186.558594 32.234375 L 181.609375 32.902344 L 176.667969 33.667969 L 171.734375 34.523438 L 166.8125 35.472656 L 161.902344 36.515625 L 157.007812 37.648438 L 152.128906 38.875 L 147.269531 40.195312 L 142.429688 41.609375 L 137.609375 43.113281 L 132.8125 44.707031 L 128.042969 46.394531 L 123.296875 48.167969 L 118.582031 50.035156 L 113.894531 51.992188 L 109.242188 54.039062 L 104.621094 56.175781 L 100.035156 58.398438 L 95.484375 60.710938 L 90.972656 63.109375 L 86.503906 65.59375 L 82.074219 68.164062 L 77.691406 70.820312 L 73.351562 73.558594 L 69.054688 76.382812 L 64.8125 79.289062 L 60.617188 82.28125 L 56.472656 85.347656 L 52.382812 88.5 L 48.347656 91.730469 "/>
<path style=" stroke:none;fill-rule:evenodd;fill:rgb(0%,0%,0%);fill-opacity:1;" d="M 382.5 84 C 382.5 83.070312 382.132812 82.179688 381.476562 81.523438 C 380.820312 80.867188 379.929688 80.5 379 80.5 C 378.070312 80.5 377.179688 80.867188 376.523438 81.523438 C 375.867188 82.179688 375.5 83.070312 375.5 84 C 375.5 84.929688 375.867188 85.820312 376.523438 86.476562 C 377.179688 87.132812 378.070312 87.5 379 87.5 C 379.929688 87.5 380.820312 87.132812 381.476562 86.476562 C 382.132812 85.820312 382.5 84.929688 382.5 84 Z M 382.5 84 "/>
<path style=" stroke:none;fill-rule:evenodd;fill:rgb(0%,0%,0%);fill-opacity:1;" d="M 398.878906 81.824219 L 398.878906 81.121094 C 398.519531 81.152344 398.074219 81.167969 397.699219 81.167969 L 396.339844 81.121094 L 396.339844 81.824219 C 396.339844 81.824219 397.039062 81.824219 397.039062 82.007812 L 396.96875 82.183594 L 395.246094 85.859375 L 393.347656 81.824219 L 394.15625 81.824219 L 394.15625 81.121094 L 392.304688 81.167969 L 390.601562 81.121094 L 390.601562 81.824219 L 391.554688 81.824219 L 394.351562 87.757812 L 394.007812 88.476562 C 393.679688 89.195312 393.199219 90.210938 392.140625 90.210938 C 391.929688 90.210938 391.902344 90.195312 391.78125 90.148438 C 391.914062 90.089844 392.257812 89.882812 392.257812 89.359375 C 392.257812 88.867188 391.902344 88.507812 391.390625 88.507812 C 390.972656 88.507812 390.539062 88.789062 390.539062 89.375 C 390.539062 90.136719 391.242188 90.746094 392.140625 90.746094 C 393.289062 90.746094 394.15625 89.820312 394.558594 88.972656 L 397.773438 82.140625 C 397.878906 81.929688 397.921875 81.824219 398.878906 81.824219 Z M 398.878906 81.824219 "/>
<path style=" stroke:none;fill-rule:evenodd;fill:rgb(0%,0%,0%);fill-opacity:1;" d="M 404.304688 91.347656 C 404.304688 91.300781 404.304688 91.273438 404.054688 91.015625 C 402.183594 89.136719 401.707031 86.308594 401.707031 84.023438 C 401.707031 81.421875 402.273438 78.820312 404.113281 76.953125 C 404.304688 76.777344 404.304688 76.746094 404.304688 76.699219 C 404.304688 76.59375 404.246094 76.550781 404.15625 76.550781 C 404.007812 76.550781 402.660156 77.566406 401.78125 79.464844 C 401.019531 81.109375 400.839844 82.769531 400.839844 84.023438 C 400.839844 85.1875 401.003906 86.996094 401.824219 88.683594 C 402.722656 90.523438 404.007812 91.496094 404.15625 91.496094 C 404.246094 91.496094 404.304688 91.449219 404.304688 91.347656 Z M 404.304688 91.347656 "/>
<path style=" stroke:none;fill-rule:evenodd;fill:rgb(0%,0%,0%);fill-opacity:1;" d="M 409.753906 85.621094 C 409.753906 85.472656 409.628906 85.472656 409.570312 85.472656 C 409.4375 85.472656 409.421875 85.515625 409.347656 85.683594 C 408.703125 87.238281 407.914062 87.59375 407.40625 87.59375 C 407.089844 87.59375 406.941406 87.402344 406.941406 86.90625 C 406.941406 86.546875 406.972656 86.445312 407.03125 86.1875 L 408.136719 81.78125 L 409.542969 81.78125 C 409.839844 81.78125 409.992188 81.78125 409.992188 81.480469 C 409.992188 81.316406 409.839844 81.316406 409.570312 81.316406 L 408.257812 81.316406 C 408.792969 79.195312 408.867188 78.898438 408.867188 78.808594 C 408.867188 78.554688 408.691406 78.40625 408.433594 78.40625 C 408.390625 78.40625 407.972656 78.417969 407.835938 78.941406 L 407.253906 81.316406 L 405.851562 81.316406 C 405.550781 81.316406 405.402344 81.316406 405.402344 81.601562 C 405.402344 81.78125 405.523438 81.78125 405.820312 81.78125 L 407.136719 81.78125 C 406.058594 86.023438 406 86.28125 406 86.546875 C 406 87.355469 406.566406 87.921875 407.375 87.921875 C 408.898438 87.921875 409.753906 85.742188 409.753906 85.621094 Z M 409.753906 85.621094 "/>
<path style=" stroke:none;fill-rule:evenodd;fill:rgb(0%,0%,0%);fill-opacity:1;" d="M 415.855469 86.671875 C 415.855469 85.519531 415.71875 84.695312 415.238281 83.964844 C 414.914062 83.484375 414.265625 83.0625 413.429688 83.0625 C 411 83.0625 411 85.917969 411 86.671875 C 411 87.425781 411 90.21875 413.429688 90.21875 C 415.855469 90.21875 415.855469 87.425781 415.855469 86.671875 Z M 414.902344 86.535156 C 414.902344 87.308594 414.902344 88.085938 414.765625 88.742188 C 414.558594 89.695312 413.847656 89.925781 413.429688 89.925781 C 412.945312 89.925781 412.308594 89.644531 412.101562 88.785156 C 411.953125 88.167969 411.953125 87.308594 411.953125 86.535156 C 411.953125 85.773438 411.953125 84.976562 412.109375 84.402344 C 412.328125 83.578125 413 83.355469 413.429688 83.355469 C 413.992188 83.355469 414.539062 83.703125 414.726562 84.308594 C 414.890625 84.875 414.902344 85.625 414.902344 86.535156 Z M 414.902344 86.535156 "/>
<path style=" stroke:none;fill-rule:evenodd;fill:rgb(0%,0%,0%);fill-opacity:1;" d="M 421.527344 84.023438 C 421.527344 82.855469 421.363281 81.050781 420.539062 79.359375 C 419.644531 77.519531 418.355469 76.550781 418.207031 76.550781 C 418.117188 76.550781 418.058594 76.609375 418.058594 76.699219 C 418.058594 76.746094 418.058594 76.777344 418.34375 77.042969 C 419.808594 78.523438 420.660156 80.898438 420.660156 84.023438 C 420.660156 86.578125 420.105469 89.210938 418.25 91.089844 C 418.058594 91.273438 418.058594 91.300781 418.058594 91.347656 C 418.058594 91.4375 418.117188 91.496094 418.207031 91.496094 C 418.355469 91.496094 419.703125 90.480469 420.582031 88.582031 C 421.347656 86.9375 421.527344 85.277344 421.527344 84.023438 Z M 421.527344 84.023438 "/>
<path style=" stroke:none;fill-rule:evenodd;fill:rgb(0%,0%,0%);fill-opacity:1;" d="M 51.5 92 C 51.5 91.070312 51.132812 90.179688 50.476562 89.523438 C 49.820312 88.867188 48.929688 88.5 48 88.5 C 47.070312 88.5 46.179688 88.867188 45.523438 89.523438 C 44.867188 90.179688 44.5 91.070312 44.5 92 C 44.5 92.929688 44.867188 93.820312 45.523438 94.476562 C 46.179688 95.132812 47.070312 95.5 48 95.5 C 48.929688 95.5 49.820312 95.132812 50.476562 94.476562 C 51.132812 93.820312 51.5 92.929688 51.5 92 Z M 51.5 92 "/>
<path style=" stroke:none;fill-rule:evenodd;fill:rgb(0%,0%,0%);fill-opacity:1;" d="M 12.90625 89.355469 L 12.90625 88.65625 C 12.546875 88.683594 12.101562 88.703125 11.726562 88.703125 L 10.367188 88.65625 L 10.367188 89.355469 C 10.367188 89.355469 11.066406 89.355469 11.066406 89.539062 L 10.996094 89.714844 L 9.273438 93.394531 L 7.375 89.355469 L 8.183594 89.355469 L 8.183594 88.65625 L 6.332031 88.703125 L 4.628906 88.65625 L 4.628906 89.355469 L 5.582031 89.355469 L 8.378906 95.289062 L 8.035156 96.007812 C 7.707031 96.726562 7.226562 97.742188 6.167969 97.742188 C 5.957031 97.742188 5.929688 97.726562 5.808594 97.679688 C 5.941406 97.621094 6.285156 97.414062 6.285156 96.890625 C 6.285156 96.398438 5.929688 96.039062 5.417969 96.039062 C 5 96.039062 4.566406 96.320312 4.566406 96.90625 C 4.566406 97.667969 5.269531 98.277344 6.167969 98.277344 C 7.316406 98.277344 8.183594 97.351562 8.585938 96.503906 L 11.800781 89.671875 C 11.90625 89.460938 11.949219 89.355469 12.90625 89.355469 Z M 12.90625 89.355469 "/>
<path style=" stroke:none;fill-rule:evenodd;fill:rgb(0%,0%,0%);fill-opacity:1;" d="M 18.332031 98.878906 C 18.332031 98.832031 18.332031 98.804688 18.082031 98.546875 C 16.210938 96.667969 15.734375 93.839844 15.734375 91.554688 C 15.734375 88.953125 16.300781 86.351562 18.140625 84.484375 C 18.332031 84.308594 18.332031 84.277344 18.332031 84.234375 C 18.332031 84.125 18.273438 84.082031 18.183594 84.082031 C 18.035156 84.082031 16.6875 85.097656 15.808594 86.996094 C 15.046875 88.640625 14.867188 90.300781 14.867188 91.554688 C 14.867188 92.71875 15.03125 94.527344 15.851562 96.214844 C 16.75 98.054688 18.035156 99.027344 18.183594 99.027344 C 18.273438 99.027344 18.332031 98.980469 18.332031 98.878906 Z M 18.332031 98.878906 "/>
<path style=" stroke:none;fill-rule:evenodd;fill:rgb(0%,0%,0%);fill-opacity:1;" d="M 23.78125 93.152344 C 23.78125 93.003906 23.65625 93.003906 23.597656 93.003906 C 23.464844 93.003906 23.449219 93.046875 23.375 93.214844 C 22.730469 94.769531 21.941406 95.125 21.433594 95.125 C 21.117188 95.125 20.96875 94.933594 20.96875 94.4375 C 20.96875 94.078125 21 93.976562 21.058594 93.722656 L 22.164062 89.3125 L 23.570312 89.3125 C 23.867188 89.3125 24.019531 89.3125 24.019531 89.011719 C 24.019531 88.847656 23.867188 88.847656 23.597656 88.847656 L 22.285156 88.847656 C 22.820312 86.726562 22.894531 86.429688 22.894531 86.339844 C 22.894531 86.085938 22.71875 85.9375 22.460938 85.9375 C 22.417969 85.9375 22 85.949219 21.863281 86.472656 L 21.28125 88.847656 L 19.878906 88.847656 C 19.578125 88.847656 19.429688 88.847656 19.429688 89.132812 C 19.429688 89.3125 19.550781 89.3125 19.847656 89.3125 L 21.164062 89.3125 C 20.085938 93.558594 20.027344 93.8125 20.027344 94.078125 C 20.027344 94.886719 20.59375 95.453125 21.402344 95.453125 C 22.925781 95.453125 23.78125 93.273438 23.78125 93.152344 Z M 23.78125 93.152344 "/>
<path style=" stroke:none;fill-rule:evenodd;fill:rgb(0%,0%,0%);fill-opacity:1;" d="M 29.433594 97.539062 L 29.433594 97.164062 L 29.035156 97.164062 C 27.988281 97.164062 27.988281 97.027344 27.988281 96.683594 L 27.988281 90.886719 C 27.988281 90.605469 27.96875 90.59375 27.675781 90.59375 C 27.007812 91.253906 26.050781 91.265625 25.625 91.265625 L 25.625 91.640625 C 25.875 91.640625 26.566406 91.640625 27.140625 91.347656 L 27.140625 96.683594 C 27.140625 97.027344 27.140625 97.164062 26.09375 97.164062 L 25.699219 97.164062 L 25.699219 97.539062 L 27.558594 97.5 Z M 29.433594 97.539062 "/>
<path style=" stroke:none;fill-rule:evenodd;fill:rgb(0%,0%,0%);fill-opacity:1;" d="M 35.550781 91.554688 C 35.550781 90.386719 35.386719 88.582031 34.566406 86.890625 C 33.671875 85.050781 32.382812 84.082031 32.234375 84.082031 C 32.144531 84.082031 32.085938 84.140625 32.085938 84.234375 C 32.085938 84.277344 32.085938 84.308594 32.371094 84.574219 C 33.835938 86.054688 34.6875 88.433594 34.6875 91.554688 C 34.6875 94.109375 34.132812 96.742188 32.277344 98.621094 C 32.085938 98.804688 32.085938 98.832031 32.085938 98.878906 C 32.085938 98.96875 32.144531 99.027344 32.234375 99.027344 C 32.382812 99.027344 33.730469 98.011719 34.609375 96.113281 C 35.375 94.46875 35.550781 92.808594 35.550781 91.554688 Z M 35.550781 91.554688 "/>
<path style=" stroke:none;fill-rule:evenodd;fill:rgb(0%,0%,0%);fill-opacity:1;" d="M 219.5 30 C 219.5 29.070312 219.132812 28.179688 218.476562 27.523438 C 217.820312 26.867188 216.929688 26.5 216 26.5 C 215.070312 26.5 214.179688 26.867188 213.523438 27.523438 C 212.867188 28.179688 212.5 29.070312 212.5 30 C 212.5 30.929688 212.867188 31.820312 213.523438 32.476562 C 214.179688 33.132812 215.070312 33.5 216 33.5 C 216.929688 33.5 217.820312 33.132812 218.476562 32.476562 C 219.132812 31.820312 219.5 30.929688 219.5 30 Z M 219.5 30 "/>
<path style=" stroke:none;fill-rule:evenodd;fill:rgb(0%,0%,0%);fill-opacity:1;" d="M 211.984375 7.511719 L 211.984375 6.808594 C 211.625 6.839844 211.179688 6.855469 210.804688 6.855469 L 209.445312 6.808594 L 209.445312 7.511719 C 209.445312 7.511719 210.144531 7.511719 210.144531 7.695312 L 210.074219 7.871094 L 208.351562 11.546875 L 206.457031 7.511719 L 207.261719 7.511719 L 207.261719 6.808594 L 205.410156 6.855469 L 203.707031 6.808594 L 203.707031 7.511719 L 204.664062 7.511719 L 207.457031 13.445312 L 207.113281 14.164062 C 206.785156 14.878906 206.304688 15.898438 205.246094 15.898438 C 205.035156 15.898438 205.007812 15.882812 204.886719 15.835938 C 205.019531 15.777344 205.367188 15.570312 205.367188 15.042969 C 205.367188 14.550781 205.007812 14.195312 204.5 14.195312 C 204.078125 14.195312 203.644531 14.476562 203.644531 15.0625 C 203.644531 15.824219 204.347656 16.433594 205.246094 16.433594 C 206.398438 16.433594 207.261719 15.507812 207.667969 14.65625 L 210.878906 7.828125 C 210.984375 7.617188 211.03125 7.511719 211.984375 7.511719 Z M 211.984375 7.511719 "/>
<path style=" stroke:none;fill-rule:evenodd;fill:rgb(0%,0%,0%);fill-opacity:1;" d="M 217.414062 17.035156 C 217.414062 16.988281 217.414062 16.960938 217.160156 16.703125 C 215.289062 14.820312 214.8125 11.996094 214.8125 9.710938 C 214.8125 7.109375 215.382812 4.507812 217.21875 2.640625 C 217.414062 2.464844 217.414062 2.433594 217.414062 2.386719 C 217.414062 2.28125 217.351562 2.238281 217.261719 2.238281 C 217.113281 2.238281 215.769531 3.253906 214.886719 5.152344 C 214.125 6.796875 213.945312 8.453125 213.945312 9.710938 C 213.945312 10.875 214.109375 12.683594 214.929688 14.371094 C 215.828125 16.210938 217.113281 17.179688 217.261719 17.179688 C 217.351562 17.179688 217.414062 17.136719 217.414062 17.035156 Z M 217.414062 17.035156 "/>
<path style=" stroke:none;fill-rule:evenodd;fill:rgb(0%,0%,0%);fill-opacity:1;" d="M 222.859375 11.308594 C 222.859375 11.160156 222.738281 11.160156 222.679688 11.160156 C 222.542969 11.160156 222.527344 11.203125 222.453125 11.371094 C 221.8125 12.921875 221.019531 13.28125 220.511719 13.28125 C 220.195312 13.28125 220.050781 13.085938 220.050781 12.59375 C 220.050781 12.234375 220.078125 12.132812 220.136719 11.875 L 221.242188 7.46875 L 222.648438 7.46875 C 222.949219 7.46875 223.097656 7.46875 223.097656 7.167969 C 223.097656 7.003906 222.949219 7.003906 222.679688 7.003906 L 221.363281 7.003906 C 221.898438 4.882812 221.976562 4.582031 221.976562 4.496094 C 221.976562 4.242188 221.796875 4.089844 221.542969 4.089844 C 221.496094 4.089844 221.082031 4.105469 220.945312 4.628906 L 220.359375 7.003906 L 218.957031 7.003906 C 218.65625 7.003906 218.507812 7.003906 218.507812 7.289062 C 218.507812 7.46875 218.628906 7.46875 218.925781 7.46875 L 220.242188 7.46875 C 219.164062 11.710938 219.105469 11.96875 219.105469 12.234375 C 219.105469 13.042969 219.675781 13.609375 220.480469 13.609375 C 222.003906 13.609375 222.859375 11.429688 222.859375 11.308594 Z M 222.859375 11.308594 "/>
<path style=" stroke:none;fill-rule:evenodd;fill:rgb(0%,0%,0%);fill-opacity:1;" d="M 227.882812 9.710938 C 227.882812 8.542969 227.71875 6.738281 226.894531 5.046875 C 226 3.207031 224.714844 2.238281 224.566406 2.238281 C 224.476562 2.238281 224.417969 2.296875 224.417969 2.386719 C 224.417969 2.433594 224.417969 2.464844 224.699219 2.730469 C 226.164062 4.210938 227.015625 6.585938 227.015625 9.710938 C 227.015625 12.265625 226.460938 14.898438 224.609375 16.777344 C 224.417969 16.960938 224.417969 16.988281 224.417969 17.035156 C 224.417969 17.125 224.476562 17.179688 224.566406 17.179688 C 224.714844 17.179688 226.058594 16.167969 226.941406 14.269531 C 227.703125 12.625 227.882812 10.964844 227.882812 9.710938 Z M 227.882812 9.710938 "/>
<path style=" stroke:none;fill-rule:evenodd;fill:rgb(0%,0%,0%);fill-opacity:1;" d="M 97.273438 207.34375 L 97.273438 206.878906 L 97.003906 206.878906 C 96.105469 206.878906 95.898438 206.773438 95.734375 206.28125 L 92.503906 196.9375 C 92.429688 196.742188 92.398438 196.640625 92.160156 196.640625 C 91.917969 196.640625 91.875 196.730469 91.800781 196.9375 L 88.707031 205.878906 C 88.4375 206.640625 87.839844 206.863281 87.03125 206.878906 L 87.03125 207.34375 L 88.558594 207.296875 L 90.277344 207.34375 L 90.277344 206.878906 C 89.527344 206.878906 89.15625 206.503906 89.15625 206.117188 C 89.15625 206.070312 89.171875 205.921875 89.183594 205.890625 L 89.875 203.933594 L 93.566406 203.933594 L 94.355469 206.222656 C 94.371094 206.28125 94.402344 206.371094 94.402344 206.429688 C 94.402344 206.878906 93.566406 206.878906 93.160156 206.878906 L 93.160156 207.34375 C 93.699219 207.296875 94.746094 207.296875 95.3125 207.296875 Z M 93.402344 203.46875 L 90.039062 203.46875 L 91.710938 198.613281 Z M 93.402344 203.46875 "/>
<path style=" stroke:none;fill-rule:evenodd;fill:rgb(0%,0%,0%);fill-opacity:1;" d="M 103.246094 201.648438 C 103.246094 201.167969 102.78125 200.734375 102.136719 200.734375 C 101.046875 200.734375 100.507812 201.734375 100.300781 202.378906 L 100.300781 200.734375 L 98.222656 200.898438 L 98.222656 201.363281 C 99.269531 201.363281 99.390625 201.46875 99.390625 202.199219 L 99.390625 206.207031 C 99.390625 206.878906 99.226562 206.878906 98.222656 206.878906 L 98.222656 207.34375 L 99.929688 207.296875 C 100.527344 207.296875 101.226562 207.296875 101.828125 207.34375 L 101.828125 206.878906 L 101.511719 206.878906 C 100.40625 206.878906 100.375 206.714844 100.375 206.175781 L 100.375 203.875 C 100.375 202.394531 101.003906 201.0625 102.136719 201.0625 C 102.242188 201.0625 102.273438 201.0625 102.304688 201.078125 C 102.257812 201.09375 101.960938 201.273438 101.960938 201.664062 C 101.960938 202.082031 102.273438 202.304688 102.601562 202.304688 C 102.871094 202.304688 103.246094 202.125 103.246094 201.648438 Z M 103.246094 201.648438 "/>
<path style=" stroke:none;fill-rule:evenodd;fill:rgb(0%,0%,0%);fill-opacity:1;" d="M 109.859375 205.5625 C 109.859375 205.414062 109.738281 205.386719 109.664062 205.386719 C 109.527344 205.386719 109.5 205.472656 109.46875 205.59375 C 108.945312 207.132812 107.601562 207.132812 107.453125 207.132812 C 106.703125 207.132812 106.105469 206.683594 105.761719 206.128906 C 105.3125 205.414062 105.3125 204.425781 105.3125 203.890625 L 109.484375 203.890625 C 109.8125 203.890625 109.859375 203.890625 109.859375 203.574219 C 109.859375 202.097656 109.050781 200.644531 107.183594 200.644531 C 105.449219 200.644531 104.074219 202.1875 104.074219 204.054688 C 104.074219 206.058594 105.640625 207.507812 107.363281 207.507812 C 109.1875 207.507812 109.859375 205.847656 109.859375 205.5625 Z M 108.871094 203.574219 L 105.328125 203.574219 C 105.417969 201.347656 106.671875 200.972656 107.183594 200.972656 C 108.722656 200.972656 108.871094 202.992188 108.871094 203.574219 Z M 108.871094 203.574219 "/>
<path style=" stroke:none;fill-rule:evenodd;fill:rgb(0%,0%,0%);fill-opacity:1;" d="M 117.472656 206.011719 L 117.472656 205.175781 L 117.101562 205.175781 L 117.101562 206.011719 C 117.101562 206.878906 116.726562 206.96875 116.5625 206.96875 C 116.070312 206.96875 116.007812 206.296875 116.007812 206.222656 L 116.007812 203.230469 C 116.007812 202.601562 116.007812 202.023438 115.472656 201.46875 C 114.886719 200.886719 114.140625 200.644531 113.421875 200.644531 C 112.195312 200.644531 111.164062 201.347656 111.164062 202.335938 C 111.164062 202.785156 111.464844 203.035156 111.851562 203.035156 C 112.273438 203.035156 112.542969 202.738281 112.542969 202.351562 C 112.542969 202.167969 112.464844 201.675781 111.777344 201.664062 C 112.183594 201.136719 112.914062 200.972656 113.390625 200.972656 C 114.125 200.972656 114.976562 201.558594 114.976562 202.890625 L 114.976562 203.441406 C 114.214844 203.488281 113.167969 203.53125 112.226562 203.980469 C 111.109375 204.488281 110.734375 205.265625 110.734375 205.921875 C 110.734375 207.132812 112.183594 207.507812 113.121094 207.507812 C 114.109375 207.507812 114.796875 206.910156 115.082031 206.207031 C 115.140625 206.804688 115.546875 207.429688 116.246094 207.429688 C 116.5625 207.429688 117.472656 207.222656 117.472656 206.011719 Z M 114.976562 205.25 C 114.976562 206.667969 113.902344 207.179688 113.226562 207.179688 C 112.496094 207.179688 111.882812 206.65625 111.882812 205.90625 C 111.882812 205.085938 112.511719 203.84375 114.976562 203.753906 Z M 114.976562 205.25 "/>
<path style=" stroke:none;fill-rule:evenodd;fill:rgb(0%,0%,0%);fill-opacity:1;" d="M 132.730469 202.15625 C 132.730469 201.855469 132.445312 201.855469 132.238281 201.855469 L 123.285156 201.855469 C 123.074219 201.855469 122.789062 201.855469 122.789062 202.15625 C 122.789062 202.457031 123.074219 202.457031 123.300781 202.457031 L 132.222656 202.457031 C 132.445312 202.457031 132.730469 202.457031 132.730469 202.15625 Z M 132.730469 205.054688 C 132.730469 204.757812 132.445312 204.757812 132.222656 204.757812 L 123.300781 204.757812 C 123.074219 204.757812 122.789062 204.757812 122.789062 205.054688 C 122.789062 205.355469 123.074219 205.355469 123.285156 205.355469 L 132.238281 205.355469 C 132.445312 205.355469 132.730469 205.355469 132.730469 205.054688 Z M 132.730469 205.054688 "/>
<path style=" stroke:none;fill-rule:evenodd;fill:rgb(0%,0%,0%);fill-opacity:1;" d="M 145.914062 197.140625 L 145.914062 196.679688 L 145.4375 196.679688 C 144.09375 196.679688 144.046875 196.515625 144.046875 195.960938 L 144.046875 187.574219 C 144.046875 187.214844 144.046875 187.1875 143.703125 187.1875 C 142.777344 188.144531 141.460938 188.144531 140.984375 188.144531 L 140.984375 188.605469 C 141.28125 188.605469 142.164062 188.605469 142.941406 188.21875 L 142.941406 195.960938 C 142.941406 196.5 142.898438 196.679688 141.550781 196.679688 L 141.074219 196.679688 L 141.074219 197.140625 C 141.597656 197.097656 142.898438 197.097656 143.496094 197.097656 C 144.09375 197.097656 145.394531 197.097656 145.914062 197.140625 Z M 145.914062 197.140625 "/>
<path style="fill:none;stroke-width:0.596983;stroke-linecap:square;stroke-linejoin:miter;stroke:rgb(0%,0%,0%);stroke-opacity:1;stroke-miterlimit:10;" d="M 139.601562 203.558594 L 147.074219 203.558594 "/>
<path style=" stroke:none;fill-rule:evenodd;fill:rgb(0%,0%,0%);fill-opacity:1;" d="M 146.363281 214.941406 L 145.992188 214.941406 C 145.914062 215.390625 145.808594 216.046875 145.664062 216.269531 C 145.558594 216.390625 144.570312 216.390625 144.242188 216.390625 L 141.550781 216.390625 L 143.136719 214.851562 C 145.46875 212.789062 146.363281 211.984375 146.363281 210.488281 C 146.363281 208.785156 145.019531 207.589844 143.195312 207.589844 C 141.507812 207.589844 140.402344 208.960938 140.402344 210.292969 C 140.402344 211.128906 141.148438 211.128906 141.191406 211.128906 C 141.445312 211.128906 141.96875 210.953125 141.96875 210.335938 C 141.96875 209.949219 141.703125 209.558594 141.175781 209.558594 C 141.058594 209.558594 141.027344 209.558594 140.984375 209.574219 C 141.328125 208.601562 142.136719 208.050781 143.003906 208.050781 C 144.363281 208.050781 145.003906 209.261719 145.003906 210.488281 C 145.003906 211.683594 144.257812 212.863281 143.433594 213.789062 L 140.566406 216.988281 C 140.402344 217.152344 140.402344 217.183594 140.402344 217.542969 L 145.945312 217.542969 Z M 146.363281 214.941406 "/>
<path style=" stroke:none;fill-rule:evenodd;fill:rgb(0%,0%,0%);fill-opacity:1;" d="M 157.054688 197.835938 C 157.054688 197.148438 156.367188 196.804688 155.753906 196.804688 C 155.246094 196.804688 154.304688 197.074219 153.855469 198.554688 C 153.765625 198.867188 153.71875 199.015625 153.363281 200.898438 L 152.332031 200.898438 C 152.046875 200.898438 151.882812 200.898438 151.882812 201.183594 C 151.882812 201.363281 152.015625 201.363281 152.300781 201.363281 L 153.285156 201.363281 L 152.167969 207.265625 C 151.898438 208.71875 151.644531 210.078125 150.867188 210.078125 C 150.808594 210.078125 150.433594 210.078125 150.148438 209.808594 C 150.835938 209.761719 150.972656 209.226562 150.972656 209 C 150.972656 208.65625 150.703125 208.480469 150.417969 208.480469 C 150.027344 208.480469 149.59375 208.808594 149.59375 209.375 C 149.59375 210.046875 150.253906 210.40625 150.867188 210.40625 C 151.6875 210.40625 152.285156 209.523438 152.554688 208.957031 C 153.035156 208.015625 153.375 206.207031 153.390625 206.101562 L 154.289062 201.363281 L 155.574219 201.363281 C 155.875 201.363281 156.023438 201.363281 156.023438 201.0625 C 156.023438 200.898438 155.875 200.898438 155.617188 200.898438 L 154.378906 200.898438 C 154.542969 200.03125 154.527344 200.0625 154.691406 199.195312 C 154.75 198.882812 154.960938 197.820312 155.050781 197.640625 C 155.183594 197.359375 155.441406 197.132812 155.753906 197.132812 C 155.8125 197.132812 156.203125 197.132812 156.484375 197.402344 C 155.828125 197.464844 155.679688 197.984375 155.679688 198.207031 C 155.679688 198.554688 155.945312 198.734375 156.234375 198.734375 C 156.621094 198.734375 157.054688 198.402344 157.054688 197.835938 Z M 157.054688 197.835938 "/>
<path style=" stroke:none;fill-rule:evenodd;fill:rgb(0%,0%,0%);fill-opacity:1;" d="M 162.75 210.929688 C 162.75 210.882812 162.75 210.855469 162.496094 210.601562 C 160.628906 208.71875 160.148438 205.890625 160.148438 203.605469 C 160.148438 201.003906 160.71875 198.402344 162.554688 196.535156 C 162.75 196.355469 162.75 196.328125 162.75 196.28125 C 162.75 196.175781 162.691406 196.132812 162.601562 196.132812 C 162.449219 196.132812 161.105469 197.148438 160.222656 199.046875 C 159.460938 200.691406 159.28125 202.351562 159.28125 203.605469 C 159.28125 204.769531 159.449219 206.582031 160.269531 208.269531 C 161.167969 210.109375 162.449219 211.078125 162.601562 211.078125 C 162.691406 211.078125 162.75 211.035156 162.75 210.929688 Z M 162.75 210.929688 "/>
<path style=" stroke:none;fill-rule:evenodd;fill:rgb(0%,0%,0%);fill-opacity:1;" d="M 168.347656 205.203125 C 168.347656 205.054688 168.226562 205.054688 168.167969 205.054688 C 168.03125 205.054688 168.015625 205.097656 167.941406 205.265625 C 167.300781 206.820312 166.507812 207.179688 166 207.179688 C 165.683594 207.179688 165.539062 206.984375 165.539062 206.488281 C 165.539062 206.128906 165.566406 206.027344 165.625 205.773438 L 166.730469 201.363281 L 168.136719 201.363281 C 168.4375 201.363281 168.585938 201.363281 168.585938 201.0625 C 168.585938 200.898438 168.4375 200.898438 168.167969 200.898438 L 166.851562 200.898438 C 167.386719 198.777344 167.464844 198.476562 167.464844 198.390625 C 167.464844 198.136719 167.285156 197.984375 167.03125 197.984375 C 166.984375 197.984375 166.566406 198 166.433594 198.523438 L 165.847656 200.898438 L 164.445312 200.898438 C 164.144531 200.898438 163.996094 200.898438 163.996094 201.183594 C 163.996094 201.363281 164.117188 201.363281 164.414062 201.363281 L 165.730469 201.363281 C 164.652344 205.609375 164.59375 205.863281 164.59375 206.128906 C 164.59375 206.9375 165.164062 207.507812 165.96875 207.507812 C 167.492188 207.507812 168.347656 205.324219 168.347656 205.203125 Z M 168.347656 205.203125 "/>
<path style=" stroke:none;fill-rule:evenodd;fill:rgb(0%,0%,0%);fill-opacity:1;" d="M 173.371094 203.605469 C 173.371094 202.4375 173.207031 200.632812 172.386719 198.941406 C 171.488281 197.101562 170.203125 196.132812 170.054688 196.132812 C 169.964844 196.132812 169.90625 196.191406 169.90625 196.28125 C 169.90625 196.328125 169.90625 196.355469 170.1875 196.625 C 171.652344 198.105469 172.503906 200.480469 172.503906 203.605469 C 172.503906 206.160156 171.953125 208.792969 170.097656 210.675781 C 169.90625 210.855469 169.90625 210.882812 169.90625 210.929688 C 169.90625 211.019531 169.964844 211.078125 170.054688 211.078125 C 170.203125 211.078125 171.546875 210.0625 172.429688 208.164062 C 173.195312 206.519531 173.371094 204.859375 173.371094 203.605469 Z M 173.371094 203.605469 "/>
<path style=" stroke:none;fill-rule:evenodd;fill:rgb(0%,0%,0%);fill-opacity:1;" d="M 180.035156 199.289062 L 179.679688 199.289062 C 179.648438 199.519531 179.542969 200.136719 179.40625 200.242188 C 179.324219 200.304688 178.519531 200.304688 178.371094 200.304688 L 176.445312 200.304688 C 177.546875 199.332031 177.910156 199.039062 178.539062 198.546875 C 179.3125 197.925781 180.035156 197.28125 180.035156 196.285156 C 180.035156 195.019531 178.925781 194.246094 177.589844 194.246094 C 176.289062 194.246094 175.410156 195.15625 175.410156 196.117188 C 175.410156 196.652344 175.859375 196.703125 175.964844 196.703125 C 176.21875 196.703125 176.519531 196.527344 176.519531 196.152344 C 176.519531 195.960938 176.445312 195.59375 175.902344 195.59375 C 176.226562 194.851562 176.9375 194.621094 177.429688 194.621094 C 178.476562 194.621094 179.019531 195.4375 179.019531 196.285156 C 179.019531 197.195312 178.371094 197.917969 178.035156 198.296875 L 175.515625 200.785156 C 175.410156 200.878906 175.410156 200.898438 175.410156 201.191406 L 179.722656 201.191406 Z M 180.035156 199.289062 "/>
<path style=" stroke:none;fill-rule:evenodd;fill:rgb(0%,0%,0%);fill-opacity:1;" d="M 188.945312 205.203125 C 188.945312 205.054688 188.8125 205.054688 188.765625 205.054688 C 188.617188 205.054688 188.601562 205.117188 188.558594 205.324219 C 188.304688 206.296875 188.035156 207.179688 187.421875 207.179688 C 187.015625 207.179688 186.972656 206.789062 186.972656 206.488281 C 186.972656 206.128906 187.003906 206.027344 187.0625 205.773438 L 189.214844 197.132812 C 189.214844 197.132812 189.214844 196.96875 189.019531 196.96875 C 188.796875 196.96875 187.375 197.101562 187.121094 197.132812 C 187.003906 197.148438 186.914062 197.222656 186.914062 197.417969 C 186.914062 197.597656 187.046875 197.597656 187.273438 197.597656 C 187.988281 197.597656 188.019531 197.703125 188.019531 197.851562 L 187.972656 198.148438 L 187.078125 201.691406 C 186.808594 201.136719 186.375 200.734375 185.703125 200.734375 C 183.953125 200.734375 182.101562 202.933594 182.101562 205.117188 C 182.101562 206.519531 182.921875 207.507812 184.085938 207.507812 C 184.386719 207.507812 185.136719 207.449219 186.03125 206.386719 C 186.148438 207.015625 186.675781 207.507812 187.390625 207.507812 C 187.914062 207.507812 188.257812 207.160156 188.5 206.683594 C 188.75 206.148438 188.945312 205.203125 188.945312 205.203125 Z M 186.851562 202.632812 L 186.105469 205.5625 C 186.03125 205.832031 186.03125 205.863281 185.808594 206.117188 C 185.148438 206.9375 184.539062 207.179688 184.117188 207.179688 C 183.371094 207.179688 183.160156 206.355469 183.160156 205.773438 C 183.160156 205.027344 183.640625 203.1875 183.984375 202.5 C 184.445312 201.617188 185.117188 201.0625 185.714844 201.0625 C 186.6875 201.0625 186.898438 202.289062 186.898438 202.378906 C 186.898438 202.46875 186.867188 202.558594 186.851562 202.632812 Z M 186.851562 202.632812 "/>
<path style=" stroke:none;fill-rule:evenodd;fill:rgb(0%,0%,0%);fill-opacity:1;" d="M 193.996094 205.203125 C 193.996094 205.054688 193.875 205.054688 193.816406 205.054688 C 193.683594 205.054688 193.664062 205.097656 193.589844 205.265625 C 192.949219 206.820312 192.15625 207.179688 191.648438 207.179688 C 191.335938 207.179688 191.1875 206.984375 191.1875 206.488281 C 191.1875 206.128906 191.214844 206.027344 191.273438 205.773438 L 192.382812 201.363281 L 193.785156 201.363281 C 194.085938 201.363281 194.234375 201.363281 194.234375 201.0625 C 194.234375 200.898438 194.085938 200.898438 193.816406 200.898438 L 192.5 200.898438 C 193.039062 198.777344 193.113281 198.476562 193.113281 198.390625 C 193.113281 198.136719 192.933594 197.984375 192.679688 197.984375 C 192.632812 197.984375 192.21875 198 192.082031 198.523438 L 191.5 200.898438 L 190.09375 200.898438 C 189.792969 200.898438 189.648438 200.898438 189.648438 201.183594 C 189.648438 201.363281 189.765625 201.363281 190.0625 201.363281 L 191.378906 201.363281 C 190.304688 205.609375 190.242188 205.863281 190.242188 206.128906 C 190.242188 206.9375 190.8125 207.507812 191.617188 207.507812 C 193.144531 207.507812 193.996094 205.324219 193.996094 205.203125 Z M 193.996094 205.203125 "/>
<path style="fill:none;stroke-width:1;stroke-linecap:butt;stroke-linejoin:miter;stroke:rgb(0%,0%,0%);stroke-opacity:1;stroke-dasharray:4,4;stroke-miterlimit:3.25;" d="M 249.703125 88.933594 L 140.554688 186.28125 "/>
</g>
</svg>
