<?xml version="1.0" encoding="UTF-8"?>
<svg xmlns="http://www.w3.org/2000/svg" xmlns:xlink="http://www.w3.org/1999/xlink" width="600pt" height="481pt" viewBox="0 0 600 481" version="1.1">
<g id="surface1">
<path style=" stroke:none;fill-rule:nonzero;fill:rgb(100%,74.999619%,74.999619%);fill-opacity:1;" d="M 535.527344 323.910156 L 532.914062 320.46875 L 530.238281 317.078125 L 527.503906 313.730469 L 524.707031 310.433594 L 521.855469 307.1875 L 518.945312 303.996094 L 251 15.042969 L 259.570312 14.042969 L 268.148438 13.207031 L 276.730469 12.53125 L 285.316406 12.015625 L 293.894531 11.664062 L 302.472656 11.46875 Z M 535.527344 323.910156 "/>
<path style=" stroke:none;fill-rule:nonzero;fill:rgb(100%,100%,85.000381%);fill-opacity:1;" d="M 583.699219 469.050781 L 583.660156 464.730469 L 583.542969 460.410156 L 583.351562 456.09375 L 583.082031 451.78125 L 582.734375 447.472656 L 582.3125 443.171875 L 581.816406 438.878906 L 581.238281 434.59375 L 580.589844 430.324219 L 579.859375 426.0625 L 579.058594 421.816406 L 578.179688 417.585938 L 577.226562 413.371094 L 576.195312 409.175781 L 575.09375 404.996094 L 573.917969 400.839844 L 572.664062 396.703125 L 571.339844 392.589844 L 569.941406 388.5 L 568.472656 384.4375 L 566.929688 380.398438 L 565.316406 376.390625 L 563.632812 372.410156 L 561.875 368.460938 L 560.050781 364.546875 L 558.15625 360.660156 L 556.191406 356.8125 L 554.160156 353 L 552.058594 349.222656 L 549.894531 345.484375 L 547.660156 341.78125 L 545.363281 338.125 L 543 334.503906 L 540.570312 330.929688 L 538.082031 327.398438 L 535.527344 323.910156 L 532.914062 320.46875 L 530.238281 317.078125 L 527.503906 313.730469 L 524.707031 310.433594 L 521.855469 307.1875 L 518.945312 303.996094 L 515.980469 300.851562 L 512.957031 297.761719 L 509.882812 294.726562 L 506.75 291.75 L 503.570312 288.824219 L 500.335938 285.957031 L 497.050781 283.152344 L 493.714844 280.402344 L 490.332031 277.710938 L 486.902344 275.082031 L 483.429688 272.515625 L 479.90625 270.011719 L 476.339844 267.566406 L 472.734375 265.191406 L 469.082031 262.875 L 465.394531 260.628906 L 461.664062 258.445312 L 457.894531 256.332031 L 454.089844 254.28125 L 450.25 252.300781 L 446.371094 250.390625 L 442.464844 248.550781 L 438.523438 246.777344 L 434.550781 245.074219 L 430.546875 243.445312 L 426.519531 241.886719 L 422.460938 240.398438 L 418.378906 238.984375 L 414.269531 237.640625 L 410.136719 236.371094 L 317.066406 208.699219 L 317.066406 469.050781 Z M 583.699219 469.050781 "/>
<path style="fill:none;stroke-width:1;stroke-linecap:square;stroke-linejoin:miter;stroke:rgb(70.000763%,70.000763%,70.000763%);stroke-opacity:1;stroke-miterlimit:3.25;" d="M 583.699219 469.050781 L 583.699219 104.929688 "/>
<path style="fill:none;stroke-width:1;stroke-linecap:square;stroke-linejoin:miter;stroke:rgb(70.000763%,70.000763%,70.000763%);stroke-opacity:1;stroke-miterlimit:3.25;" d="M 582.3125 443.171875 L 543.039062 76.871094 "/>
<path style="fill:none;stroke-width:1;stroke-linecap:square;stroke-linejoin:miter;stroke:rgb(70.000763%,70.000763%,70.000763%);stroke-opacity:1;stroke-miterlimit:3.25;" d="M 578.179688 417.585938 L 499.167969 53.382812 "/>
<path style="fill:none;stroke-width:1;stroke-linecap:square;stroke-linejoin:miter;stroke:rgb(70.000763%,70.000763%,70.000763%);stroke-opacity:1;stroke-miterlimit:3.25;" d="M 571.339844 392.589844 L 452.605469 34.824219 "/>
<path style="fill:none;stroke-width:1;stroke-linecap:square;stroke-linejoin:miter;stroke:rgb(70.000763%,70.000763%,70.000763%);stroke-opacity:1;stroke-miterlimit:3.25;" d="M 561.875 368.460938 L 403.902344 21.5 "/>
<path style="fill:none;stroke-width:1;stroke-linecap:square;stroke-linejoin:miter;stroke:rgb(70.000763%,70.000763%,70.000763%);stroke-opacity:1;stroke-miterlimit:3.25;" d="M 549.894531 345.484375 L 353.652344 13.65625 "/>
<path style="fill:none;stroke-width:1;stroke-linecap:square;stroke-linejoin:miter;stroke:rgb(70.000763%,70.000763%,70.000763%);stroke-opacity:1;stroke-miterlimit:3.25;" d="M 535.527344 323.910156 L 302.472656 11.46875 "/>
<path style="fill:none;stroke-width:1;stroke-linecap:square;stroke-linejoin:miter;stroke:rgb(70.000763%,70.000763%,70.000763%);stroke-opacity:1;stroke-miterlimit:3.25;" d="M 518.945312 303.996094 L 251 15.042969 "/>
<path style="fill:none;stroke-width:1;stroke-linecap:square;stroke-linejoin:miter;stroke:rgb(70.000763%,70.000763%,70.000763%);stroke-opacity:1;stroke-miterlimit:3.25;" d="M 500.335938 285.957031 L 199.882812 24.410156 "/>
<path style="fill:none;stroke-width:1;stroke-linecap:square;stroke-linejoin:miter;stroke:rgb(70.000763%,70.000763%,70.000763%);stroke-opacity:1;stroke-miterlimit:3.25;" d="M 479.90625 270.011719 L 149.773438 39.535156 "/>
<path style="fill:none;stroke-width:1;stroke-linecap:square;stroke-linejoin:miter;stroke:rgb(70.000763%,70.000763%,70.000763%);stroke-opacity:1;stroke-miterlimit:3.25;" d="M 457.894531 256.332031 L 101.324219 60.304688 "/>
<path style="fill:none;stroke-width:1;stroke-linecap:square;stroke-linejoin:miter;stroke:rgb(70.000763%,70.000763%,70.000763%);stroke-opacity:1;stroke-miterlimit:3.25;" d="M 434.550781 245.074219 L 55.164062 86.53125 "/>
<path style="fill:none;stroke-width:1;stroke-linecap:square;stroke-linejoin:miter;stroke:rgb(70.000763%,70.000763%,70.000763%);stroke-opacity:1;stroke-miterlimit:3.25;" d="M 410.136719 236.371094 L 11.914062 117.960938 "/>
<path style="fill:none;stroke-width:3.573657;stroke-linecap:square;stroke-linejoin:miter;stroke:rgb(100%,0%,0%);stroke-opacity:1;stroke-miterlimit:3.25;" d="M 535.527344 323.910156 L 302.472656 11.46875 "/>
<path style="fill:none;stroke-width:4;stroke-linecap:butt;stroke-linejoin:round;stroke:rgb(100%,100%,100%);stroke-opacity:0.666667;stroke-miterlimit:3.239307;" d="M 421.492188 165.199219 L 422.703125 164.03125 L 423.707031 163.152344 L 424.535156 162.523438 L 425.210938 162.105469 L 425.769531 161.847656 L 426.238281 161.71875 L 426.648438 161.667969 L 427.027344 161.660156 L 429.027344 161.660156 "/>
<path style="fill:none;stroke-width:1.25;stroke-linecap:square;stroke-linejoin:miter;stroke:rgb(66.666667%,66.666667%,66.666667%);stroke-opacity:1;stroke-miterlimit:3.25;" d="M 421.492188 165.199219 L 422.703125 164.03125 L 423.707031 163.152344 L 424.535156 162.523438 L 425.210938 162.105469 L 425.769531 161.847656 L 426.238281 161.71875 L 426.648438 161.667969 L 427.027344 161.660156 L 429.027344 161.660156 "/>
<path style=" stroke:none;fill-rule:nonzero;fill:rgb(100%,100%,100%);fill-opacity:0.666667;" d="M 491.027344 133.460938 L 491.027344 180.460938 L 429.027344 180.460938 L 429.027344 133.460938 Z M 491.027344 133.460938 "/>
<path style=" stroke:none;fill-rule:evenodd;fill:rgb(0%,0%,0%);fill-opacity:1;" d="M 450.824219 145.03125 C 450.824219 143.777344 449.570312 143.089844 448.257812 143.089844 C 446.972656 143.089844 445.722656 144.046875 445.125 145.210938 C 444.585938 146.253906 444.289062 147.328125 443.601562 151.238281 L 441.601562 151.238281 C 441.035156 151.238281 440.738281 151.238281 440.738281 151.773438 C 440.738281 152.101562 440.917969 152.101562 441.511719 152.101562 L 443.421875 152.101562 L 440.976562 164.816406 C 440.46875 167.414062 440.023438 169.589844 438.527344 169.589844 C 438.4375 169.589844 437.574219 169.589844 437.039062 169.023438 C 438.558594 168.902344 438.558594 167.5625 438.558594 167.5625 C 438.558594 166.960938 438.109375 166.605469 437.546875 166.605469 C 436.949219 166.605469 436.054688 167.113281 436.054688 168.246094 C 436.054688 169.527344 437.367188 170.183594 438.527344 170.183594 C 441.570312 170.183594 442.828125 164.726562 443.15625 163.234375 L 445.304688 152.101562 L 447.84375 152.101562 C 448.4375 152.101562 448.675781 152.101562 448.675781 151.535156 C 448.675781 151.238281 448.4375 151.238281 447.902344 151.238281 L 445.484375 151.238281 L 446.707031 145.089844 C 446.882812 144.375 447.515625 143.6875 448.289062 143.6875 C 448.914062 143.6875 449.539062 143.953125 449.839844 144.226562 C 448.675781 144.347656 448.320312 145.210938 448.320312 145.714844 C 448.320312 146.3125 448.765625 146.671875 449.332031 146.671875 C 449.929688 146.671875 450.824219 146.164062 450.824219 145.03125 Z M 450.824219 145.03125 "/>
<path style=" stroke:none;fill-rule:evenodd;fill:rgb(0%,0%,0%);fill-opacity:1;" d="M 461.75 171.351562 C 461.75 171.261719 461.75 171.203125 461.246094 170.695312 C 458.261719 167.679688 456.59375 162.757812 456.59375 156.667969 C 456.59375 150.878906 457.992188 145.894531 461.453125 142.375 C 461.75 142.105469 461.75 142.046875 461.75 141.957031 C 461.75 141.777344 461.601562 141.71875 461.484375 141.71875 C 461.097656 141.71875 458.648438 143.863281 457.1875 146.789062 C 455.664062 149.804688 454.980469 153 454.980469 156.667969 C 454.980469 159.324219 455.394531 162.875 456.949219 166.070312 C 458.707031 169.648438 461.15625 171.589844 461.484375 171.589844 C 461.601562 171.589844 461.75 171.53125 461.75 171.351562 Z M 461.75 171.351562 "/>
<path style=" stroke:none;fill-rule:evenodd;fill:rgb(0%,0%,0%);fill-opacity:1;" d="M 472.640625 159.832031 C 472.640625 159.652344 472.523438 159.5625 472.34375 159.5625 C 472.34375 159.5625 472.164062 159.5625 472.105469 159.683594 C 472.105469 159.683594 472.046875 159.742188 471.835938 160.21875 C 471.210938 161.714844 469.835938 163.800781 468.109375 163.800781 C 467.210938 163.800781 467.148438 163.054688 467.148438 162.398438 C 467.148438 162.398438 467.148438 161.804688 467.238281 161.441406 L 469.566406 152.101562 L 472.3125 152.101562 C 472.878906 152.101562 473.179688 152.101562 473.179688 151.566406 C 473.179688 151.238281 473 151.238281 472.402344 151.238281 L 469.777344 151.238281 L 470.882812 146.878906 C 471.003906 146.460938 471.003906 146.402344 471.003906 146.195312 C 471.003906 145.714844 470.609375 145.449219 470.222656 145.449219 C 469.984375 145.449219 469.300781 145.539062 469.0625 146.492188 L 467.894531 151.238281 L 465.09375 151.238281 C 464.496094 151.238281 464.226562 151.238281 464.226562 151.804688 C 464.226562 152.101562 464.433594 152.101562 465.003906 152.101562 L 467.65625 152.101562 L 465.691406 159.980469 C 465.453125 161.023438 465.363281 161.320312 465.363281 161.714844 C 465.363281 163.113281 466.347656 164.394531 468.019531 164.394531 C 471.03125 164.394531 472.640625 160.039062 472.640625 159.832031 Z M 472.640625 159.832031 "/>
<path style=" stroke:none;fill-rule:evenodd;fill:rgb(0%,0%,0%);fill-opacity:1;" d="M 482.496094 156.667969 C 482.496094 154.402344 482.199219 150.703125 480.53125 147.242188 C 478.769531 143.65625 476.320312 141.71875 475.992188 141.71875 C 475.875 141.71875 475.726562 141.777344 475.726562 141.957031 C 475.726562 142.046875 475.726562 142.105469 476.230469 142.613281 C 479.214844 145.628906 480.886719 150.550781 480.886719 156.640625 C 480.886719 162.429688 479.484375 167.414062 476.023438 170.933594 C 475.726562 171.203125 475.726562 171.261719 475.726562 171.351562 C 475.726562 171.53125 475.875 171.589844 475.992188 171.589844 C 476.378906 171.589844 478.828125 169.441406 480.292969 166.515625 C 481.8125 163.472656 482.496094 160.25 482.496094 156.667969 Z M 482.496094 156.667969 "/>
<path style="fill:none;stroke-width:3.573657;stroke-linecap:square;stroke-linejoin:miter;stroke:rgb(0%,0%,0%);stroke-opacity:1;stroke-miterlimit:3.25;" d="M 583.699219 469.050781 L 583.660156 464.730469 L 583.542969 460.410156 L 583.351562 456.09375 L 583.082031 451.78125 L 582.734375 447.472656 L 582.3125 443.171875 L 581.816406 438.878906 L 581.238281 434.59375 L 580.589844 430.324219 L 579.859375 426.0625 L 579.058594 421.816406 L 578.179688 417.585938 L 577.226562 413.371094 L 576.195312 409.175781 L 575.09375 404.996094 L 573.917969 400.839844 L 572.664062 396.703125 L 571.339844 392.589844 L 569.941406 388.5 L 568.472656 384.4375 L 566.929688 380.398438 L 565.316406 376.390625 L 563.632812 372.410156 L 561.875 368.460938 L 560.050781 364.546875 L 558.15625 360.660156 L 556.191406 356.8125 L 554.160156 353 L 552.058594 349.222656 L 549.894531 345.484375 L 547.660156 341.78125 L 545.363281 338.125 L 543 334.503906 L 540.570312 330.929688 L 538.082031 327.398438 L 535.527344 323.910156 L 532.914062 320.46875 L 530.238281 317.078125 L 527.503906 313.730469 L 524.707031 310.433594 L 521.855469 307.1875 L 518.945312 303.996094 L 515.980469 300.851562 L 512.957031 297.761719 L 509.882812 294.726562 L 506.75 291.75 L 503.570312 288.824219 L 500.335938 285.957031 L 497.050781 283.152344 L 493.714844 280.402344 L 490.332031 277.710938 L 486.902344 275.082031 L 483.429688 272.515625 L 479.90625 270.011719 L 476.339844 267.566406 L 472.734375 265.191406 L 469.082031 262.875 L 465.394531 260.628906 L 461.664062 258.445312 L 457.894531 256.332031 L 454.089844 254.28125 L 450.25 252.300781 L 446.371094 250.390625 L 442.464844 248.550781 L 438.523438 246.777344 L 434.550781 245.074219 L 430.546875 243.445312 L 426.519531 241.886719 L 422.460938 240.398438 L 418.378906 238.984375 L 414.269531 237.640625 L 410.136719 236.371094 L 317.066406 208.699219 "/>
<path style="fill:none;stroke-width:3.573657;stroke-linecap:square;stroke-linejoin:miter;stroke:rgb(0%,0%,0%);stroke-opacity:1;stroke-miterlimit:3.25;" d="M 583.699219 104.929688 L 577.164062 99.953125 L 570.53125 95.09375 L 563.800781 90.355469 L 556.972656 85.738281 L 550.050781 81.242188 L 543.039062 76.871094 L 535.9375 72.628906 L 528.746094 68.515625 L 521.472656 64.53125 L 514.117188 60.679688 L 506.683594 56.964844 L 499.167969 53.382812 L 491.582031 49.9375 L 483.921875 46.632812 L 476.191406 43.464844 L 468.390625 40.441406 L 460.53125 37.558594 L 452.605469 34.824219 L 444.621094 32.230469 L 436.578125 29.785156 L 428.484375 27.488281 L 420.339844 25.34375 L 412.144531 23.347656 L 403.902344 21.5 L 395.617188 19.808594 L 387.292969 18.265625 L 378.933594 16.882812 L 370.535156 15.652344 L 362.109375 14.574219 L 353.652344 13.65625 L 345.167969 12.894531 L 336.664062 12.292969 L 328.136719 11.847656 L 319.597656 11.5625 L 311.039062 11.4375 L 302.472656 11.46875 L 293.894531 11.664062 L 285.316406 12.015625 L 276.730469 12.53125 L 268.148438 13.207031 L 259.570312 14.042969 L 251 15.042969 L 242.4375 16.203125 L 233.886719 17.523438 L 225.355469 19.003906 L 216.839844 20.644531 L 208.347656 22.449219 L 199.882812 24.410156 L 191.441406 26.535156 L 183.035156 28.816406 L 174.660156 31.257812 L 166.324219 33.859375 L 158.027344 36.617188 L 149.773438 39.535156 L 141.566406 42.609375 L 133.410156 45.839844 L 125.300781 49.222656 L 117.25 52.765625 L 109.257812 56.457031 L 101.324219 60.304688 L 93.453125 64.300781 L 85.652344 68.449219 L 77.917969 72.75 L 70.257812 77.195312 L 62.671875 81.789062 L 55.164062 86.53125 L 47.738281 91.414062 L 40.394531 96.445312 L 33.136719 101.613281 L 25.96875 106.921875 L 18.894531 112.371094 L 11.914062 117.960938 "/>
<path style=" stroke:none;fill-rule:evenodd;fill:rgb(0%,0%,0%);fill-opacity:1;" d="M 132.136719 302.796875 L 132.136719 301.933594 L 131.210938 301.933594 C 128.589844 301.933594 128.5 301.574219 128.5 300.503906 L 128.5 283.695312 C 128.5 283.007812 128.5 282.980469 127.90625 282.980469 C 127.1875 283.785156 125.699219 284.886719 122.628906 284.886719 L 122.628906 285.75 C 123.316406 285.75 124.804688 285.75 126.445312 284.976562 L 126.445312 300.503906 C 126.445312 301.574219 126.355469 301.933594 123.734375 301.933594 L 122.808594 301.933594 L 122.808594 302.796875 C 123.613281 302.738281 126.503906 302.738281 127.488281 302.738281 C 128.472656 302.738281 131.332031 302.738281 132.136719 302.796875 Z M 132.136719 302.796875 "/>
<path style="fill:none;stroke-width:1.194917;stroke-linecap:square;stroke-linejoin:miter;stroke:rgb(0%,0%,0%);stroke-opacity:1;stroke-miterlimit:10;" d="M 119.898438 315.578125 L 134.53125 315.578125 "/>
<path style=" stroke:none;fill-rule:evenodd;fill:rgb(0%,0%,0%);fill-opacity:1;" d="M 133.03125 338.535156 L 132.375 338.535156 C 132.285156 339.042969 132.046875 340.683594 131.75 341.160156 C 131.539062 341.425781 129.839844 341.425781 128.949219 341.425781 L 123.433594 341.425781 C 124.238281 340.742188 126.058594 338.835938 126.832031 338.121094 C 131.363281 333.945312 133.03125 332.398438 133.03125 329.445312 C 133.03125 326.019531 130.320312 323.726562 126.863281 323.726562 C 123.40625 323.726562 121.378906 326.675781 121.378906 329.238281 C 121.378906 330.757812 122.691406 330.757812 122.777344 330.757812 C 123.40625 330.757812 124.179688 330.3125 124.179688 329.359375 C 124.179688 328.523438 123.613281 327.957031 122.777344 327.957031 C 122.511719 327.957031 122.449219 327.957031 122.363281 327.988281 C 122.929688 325.960938 124.539062 324.589844 126.472656 324.589844 C 129.007812 324.589844 130.558594 326.707031 130.558594 329.445312 C 130.558594 331.980469 129.097656 334.183594 127.398438 336.09375 L 121.378906 342.828125 L 121.378906 343.542969 L 132.253906 343.542969 Z M 133.03125 338.535156 "/>
<path style=" stroke:none;fill-rule:evenodd;fill:rgb(0%,0%,0%);fill-opacity:1;" d="M 153.6875 304.003906 C 153.6875 302.753906 152.4375 302.066406 151.125 302.066406 C 149.84375 302.066406 148.59375 303.019531 147.996094 304.183594 C 147.460938 305.226562 147.164062 306.296875 146.476562 310.199219 L 144.480469 310.199219 C 143.914062 310.199219 143.617188 310.199219 143.617188 310.734375 C 143.617188 311.0625 143.796875 311.0625 144.390625 311.0625 L 146.296875 311.0625 L 143.855469 323.757812 C 143.347656 326.351562 142.902344 328.527344 141.410156 328.527344 C 141.320312 328.527344 140.457031 328.527344 139.921875 327.960938 C 141.441406 327.839844 141.441406 326.5 141.441406 326.5 C 141.441406 325.902344 140.992188 325.546875 140.429688 325.546875 C 139.832031 325.546875 138.9375 326.054688 138.9375 327.183594 C 138.9375 328.464844 140.25 329.121094 141.410156 329.121094 C 144.449219 329.121094 145.703125 323.667969 146.03125 322.179688 L 148.175781 311.0625 L 150.710938 311.0625 C 151.304688 311.0625 151.542969 311.0625 151.542969 310.496094 C 151.542969 310.199219 151.304688 310.199219 150.769531 310.199219 L 148.355469 310.199219 L 149.578125 304.0625 C 149.753906 303.347656 150.382812 302.664062 151.15625 302.664062 C 151.78125 302.664062 152.40625 302.929688 152.707031 303.199219 C 151.542969 303.320312 151.1875 304.183594 151.1875 304.6875 C 151.1875 305.285156 151.632812 305.644531 152.199219 305.644531 C 152.796875 305.644531 153.6875 305.136719 153.6875 304.003906 Z M 153.6875 304.003906 "/>
<path style=" stroke:none;fill-rule:evenodd;fill:rgb(0%,0%,0%);fill-opacity:1;" d="M 164.847656 330.285156 C 164.847656 330.195312 164.847656 330.136719 164.34375 329.628906 C 161.367188 326.617188 159.699219 321.703125 159.699219 315.621094 C 159.699219 309.839844 161.097656 304.867188 164.550781 301.351562 C 164.847656 301.082031 164.847656 301.023438 164.847656 300.933594 C 164.847656 300.753906 164.699219 300.695312 164.582031 300.695312 C 164.195312 300.695312 161.753906 302.839844 160.292969 305.761719 C 158.773438 308.769531 158.089844 311.957031 158.089844 315.621094 C 158.089844 318.273438 158.503906 321.820312 160.054688 325.011719 C 161.808594 328.585938 164.253906 330.523438 164.582031 330.523438 C 164.699219 330.523438 164.847656 330.464844 164.847656 330.285156 Z M 164.847656 330.285156 "/>
<path style=" stroke:none;fill-rule:evenodd;fill:rgb(0%,0%,0%);fill-opacity:1;" d="M 175.472656 318.78125 C 175.472656 318.601562 175.355469 318.511719 175.175781 318.511719 C 175.175781 318.511719 174.996094 318.511719 174.9375 318.632812 C 174.9375 318.632812 174.878906 318.691406 174.667969 319.167969 C 174.042969 320.660156 172.671875 322.746094 170.945312 322.746094 C 170.050781 322.746094 169.988281 322 169.988281 321.34375 C 169.988281 321.34375 169.988281 320.75 170.078125 320.390625 L 172.402344 311.0625 L 175.144531 311.0625 C 175.710938 311.0625 176.011719 311.0625 176.011719 310.527344 C 176.011719 310.199219 175.832031 310.199219 175.234375 310.199219 L 172.613281 310.199219 L 173.714844 305.851562 C 173.835938 305.433594 173.835938 305.375 173.835938 305.167969 C 173.835938 304.6875 173.445312 304.421875 173.058594 304.421875 C 172.820312 304.421875 172.136719 304.511719 171.898438 305.464844 L 170.734375 310.199219 L 167.933594 310.199219 C 167.339844 310.199219 167.070312 310.199219 167.070312 310.765625 C 167.070312 311.0625 167.277344 311.0625 167.84375 311.0625 L 170.496094 311.0625 L 168.53125 318.929688 C 168.292969 319.972656 168.203125 320.269531 168.203125 320.660156 C 168.203125 322.058594 169.1875 323.339844 170.855469 323.339844 C 173.863281 323.339844 175.472656 318.988281 175.472656 318.78125 Z M 175.472656 318.78125 "/>
<path style=" stroke:none;fill-rule:evenodd;fill:rgb(0%,0%,0%);fill-opacity:1;" d="M 185.566406 315.621094 C 185.566406 313.359375 185.269531 309.664062 183.601562 306.210938 C 181.84375 302.632812 179.398438 300.695312 179.070312 300.695312 C 178.953125 300.695312 178.804688 300.753906 178.804688 300.933594 C 178.804688 301.023438 178.804688 301.082031 179.308594 301.589844 C 182.289062 304.601562 183.957031 309.511719 183.957031 315.59375 C 183.957031 321.375 182.558594 326.351562 179.101562 329.867188 C 178.804688 330.136719 178.804688 330.195312 178.804688 330.285156 C 178.804688 330.464844 178.953125 330.523438 179.070312 330.523438 C 179.457031 330.523438 181.902344 328.378906 183.363281 325.457031 C 184.882812 322.417969 185.566406 319.199219 185.566406 315.621094 Z M 185.566406 315.621094 "/>
<path style=" stroke:none;fill-rule:evenodd;fill:rgb(0%,0%,0%);fill-opacity:1;" d="M 197.890625 307.238281 L 197.273438 307.238281 C 197.214844 307.632812 197.054688 308.632812 196.816406 309.003906 C 196.699219 309.164062 195.1875 309.164062 194.871094 309.164062 L 191.335938 309.164062 L 194.015625 306.742188 C 194.335938 306.445312 195.167969 305.789062 195.488281 305.511719 C 196.71875 304.378906 197.890625 303.285156 197.890625 301.480469 C 197.890625 299.113281 195.902344 297.585938 193.421875 297.585938 C 191.035156 297.585938 189.46875 299.394531 189.46875 301.160156 C 189.46875 302.132812 190.242188 302.273438 190.519531 302.273438 C 190.9375 302.273438 191.554688 301.976562 191.554688 301.222656 C 191.554688 300.1875 190.558594 300.1875 190.320312 300.1875 C 190.898438 298.738281 192.230469 298.242188 193.203125 298.242188 C 195.050781 298.242188 196.003906 299.808594 196.003906 301.480469 C 196.003906 303.546875 194.554688 305.054688 192.207031 307.457031 L 189.707031 310.039062 C 189.46875 310.257812 189.46875 310.296875 189.46875 310.792969 L 197.316406 310.792969 Z M 197.890625 307.238281 "/>
<path style=" stroke:none;fill-rule:evenodd;fill:rgb(0%,0%,0%);fill-opacity:1;" d="M 214.867188 318.78125 C 214.867188 318.632812 214.75 318.511719 214.570312 318.511719 C 214.300781 318.511719 214.273438 318.664062 214.152344 319.109375 C 213.707031 320.867188 213.140625 322.746094 211.917969 322.746094 C 211.054688 322.746094 210.992188 321.96875 210.992188 321.375 C 210.992188 321.253906 210.992188 320.628906 211.203125 319.792969 L 215.402344 303.109375 C 215.433594 302.992188 215.492188 302.8125 215.492188 302.664062 C 215.492188 302.363281 215.136719 302.363281 215.136719 302.363281 C 215.136719 302.363281 213.644531 302.484375 213.496094 302.515625 C 212.988281 302.542969 212.542969 302.601562 212.007812 302.632812 C 211.261719 302.691406 211.054688 302.722656 211.054688 303.257812 C 211.054688 303.558594 211.292969 303.558594 211.707031 303.558594 C 213.167969 303.558594 213.199219 303.824219 213.199219 304.125 C 213.199219 304.300781 213.140625 304.539062 213.109375 304.628906 L 211.292969 311.867188 C 210.964844 311.09375 210.160156 309.902344 208.609375 309.902344 C 205.242188 309.902344 201.605469 314.25 201.605469 318.664062 C 201.605469 321.613281 203.335938 323.339844 205.359375 323.339844 C 207 323.339844 208.402344 322.058594 209.234375 321.074219 C 209.535156 322.835938 210.933594 323.339844 211.828125 323.339844 C 212.722656 323.339844 213.4375 322.804688 213.972656 321.730469 C 214.449219 320.71875 214.867188 318.902344 214.867188 318.78125 Z M 209.382812 319.496094 C 209.234375 320.003906 209.234375 320.0625 208.816406 320.628906 C 208.164062 321.464844 206.851562 322.746094 205.449219 322.746094 C 204.230469 322.746094 203.542969 321.640625 203.542969 319.882812 C 203.542969 318.246094 204.46875 314.90625 205.035156 313.65625 C 206.046875 311.570312 207.445312 310.496094 208.609375 310.496094 C 210.578125 310.496094 210.964844 312.941406 210.964844 313.179688 C 210.964844 313.179688 210.875 313.597656 210.84375 313.65625 Z M 209.382812 319.496094 "/>
<path style=" stroke:none;fill-rule:evenodd;fill:rgb(0%,0%,0%);fill-opacity:1;" d="M 224.46875 318.78125 C 224.46875 318.601562 224.351562 318.511719 224.171875 318.511719 C 224.171875 318.511719 223.992188 318.511719 223.933594 318.632812 C 223.933594 318.632812 223.875 318.691406 223.664062 319.167969 C 223.039062 320.660156 221.667969 322.746094 219.941406 322.746094 C 219.046875 322.746094 218.984375 322 218.984375 321.34375 C 218.984375 321.34375 218.984375 320.75 219.074219 320.390625 L 221.398438 311.0625 L 224.140625 311.0625 C 224.707031 311.0625 225.007812 311.0625 225.007812 310.527344 C 225.007812 310.199219 224.828125 310.199219 224.230469 310.199219 L 221.609375 310.199219 L 222.710938 305.851562 C 222.832031 305.433594 222.832031 305.375 222.832031 305.167969 C 222.832031 304.6875 222.441406 304.421875 222.054688 304.421875 C 221.816406 304.421875 221.132812 304.511719 220.894531 305.464844 L 219.730469 310.199219 L 216.933594 310.199219 C 216.339844 310.199219 216.070312 310.199219 216.070312 310.765625 C 216.070312 311.0625 216.277344 311.0625 216.84375 311.0625 L 219.492188 311.0625 L 217.53125 318.929688 C 217.292969 319.972656 217.203125 320.269531 217.203125 320.660156 C 217.203125 322.058594 218.1875 323.339844 219.851562 323.339844 C 222.859375 323.339844 224.46875 318.988281 224.46875 318.78125 Z M 224.46875 318.78125 "/>
<path style="fill:none;stroke-width:1;stroke-linecap:butt;stroke-linejoin:miter;stroke:rgb(0%,0%,0%);stroke-opacity:1;stroke-dasharray:4,4;stroke-miterlimit:3.25;" d="M 360.230469 113.121094 L 171.417969 281.523438 "/>
</g>
</svg>
