<?xml version="1.0" encoding="UTF-8"?>
<svg xmlns="http://www.w3.org/2000/svg" xmlns:xlink="http://www.w3.org/1999/xlink" width="800pt" height="310pt" viewBox="0 0 800 310" version="1.1">
<g id="surface26">
<path style="fill-rule:nonzero;fill:rgb(100%,100%,86.999313%);fill-opacity:1;stroke-width:1.5;stroke-linecap:square;stroke-linejoin:miter;stroke:rgb(0%,0%,0%);stroke-opacity:1;stroke-miterlimit:3.25;" d="M 216.570312 283.617188 L 257.691406 266.585938 L 281.628906 242.648438 L 306.867188 181.722656 L 332.101562 192.175781 L 384.96875 139.308594 L 437.6875 192.027344 L 477.554688 175.515625 L 516.007812 268.351562 L 552.863281 283.617188 L 776 283.617188 L 776 220.226562 L 736.667969 125.265625 L 659.09375 47.695312 L 604.304688 25 L 165.128906 25 L 111.195312 47.339844 L 62.382812 96.152344 L 23 191.230469 L 23 283.617188 Z M 216.570312 283.617188 "/>
<path style=" stroke:none;fill-rule:evenodd;fill:rgb(0%,0%,0%);fill-opacity:1;" d="M 778.5 284 C 778.5 283.335938 778.238281 282.699219 777.769531 282.230469 C 777.300781 281.761719 776.664062 281.5 776 281.5 C 775.335938 281.5 774.699219 281.761719 774.230469 282.230469 C 773.761719 282.699219 773.5 283.335938 773.5 284 C 773.5 284.664062 773.761719 285.300781 774.230469 285.769531 C 774.699219 286.238281 775.335938 286.5 776 286.5 C 776.664062 286.5 777.300781 286.238281 777.769531 285.769531 C 778.238281 285.300781 778.5 284.664062 778.5 284 Z M 778.5 284 "/>
<path style=" stroke:none;fill-rule:evenodd;fill:rgb(0%,0%,0%);fill-opacity:1;" d="M 790.121094 287.582031 C 790.121094 287.40625 789.960938 287.40625 789.695312 287.40625 C 788.710938 287.40625 788.691406 287.242188 788.640625 286.707031 L 787.550781 275.550781 C 787.511719 275.191406 787.441406 275.160156 787.246094 275.160156 C 787.066406 275.160156 786.957031 275.191406 786.796875 275.460938 L 780.539062 285.9375 C 779.914062 286.992188 779.308594 287.351562 778.445312 287.40625 C 778.25 287.421875 778.105469 287.421875 778.105469 287.746094 C 778.105469 287.851562 778.199219 287.921875 778.324219 287.921875 L 779.769531 287.886719 C 780.289062 287.886719 780.859375 287.921875 781.363281 287.921875 C 781.46875 287.921875 781.683594 287.921875 781.683594 287.582031 C 781.683594 287.421875 781.539062 287.40625 781.433594 287.40625 C 781.023438 287.367188 780.683594 287.226562 780.683594 286.796875 C 780.683594 286.546875 780.789062 286.351562 781.023438 285.957031 L 782.382812 283.707031 L 786.941406 283.707031 C 786.957031 283.863281 786.957031 284.007812 786.976562 284.167969 C 787.027344 284.632812 787.246094 286.492188 787.246094 286.832031 C 787.246094 287.367188 786.332031 287.40625 786.046875 287.40625 C 785.851562 287.40625 785.652344 287.40625 785.652344 287.726562 C 785.652344 287.921875 785.816406 287.921875 785.921875 287.921875 C 786.226562 287.921875 786.582031 287.886719 786.886719 287.886719 L 787.90625 287.886719 L 789.800781 287.921875 C 789.925781 287.921875 790.121094 287.921875 790.121094 287.582031 Z M 786.886719 283.183594 L 782.683594 283.183594 L 786.277344 277.179688 Z M 786.886719 283.183594 "/>
<path style=" stroke:none;fill-rule:evenodd;fill:rgb(0%,0%,0%);fill-opacity:1;" d="M 796.527344 286.820312 C 796.527344 285.542969 796.394531 284.773438 796.003906 284.007812 C 795.480469 282.960938 794.515625 282.699219 793.859375 282.699219 C 792.355469 282.699219 791.808594 283.816406 791.640625 284.152344 C 791.210938 285.023438 791.1875 286.199219 791.1875 286.820312 C 791.1875 287.605469 791.222656 288.8125 791.796875 289.765625 C 792.34375 290.648438 793.226562 290.875 793.859375 290.875 C 794.429688 290.875 795.453125 290.695312 796.050781 289.515625 C 796.492188 288.65625 796.527344 287.59375 796.527344 286.820312 Z M 795.464844 286.679688 C 795.464844 287.382812 795.464844 288.453125 795.324219 289.121094 C 795.074219 290.371094 794.25 290.539062 793.859375 290.539062 C 793.453125 290.539062 792.628906 290.347656 792.378906 289.097656 C 792.246094 288.417969 792.246094 287.296875 792.246094 286.679688 C 792.246094 285.855469 792.246094 285.023438 792.378906 284.367188 C 792.628906 283.148438 793.558594 283.03125 793.859375 283.03125 C 794.261719 283.03125 795.085938 283.234375 795.324219 284.316406 C 795.464844 284.972656 795.464844 285.867188 795.464844 286.679688 Z M 795.464844 286.679688 "/>
<path style=" stroke:none;fill-rule:evenodd;fill:rgb(0%,0%,0%);fill-opacity:1;" d="M 778.5 220 C 778.5 219.335938 778.238281 218.699219 777.769531 218.230469 C 777.300781 217.761719 776.664062 217.5 776 217.5 C 775.335938 217.5 774.699219 217.761719 774.230469 218.230469 C 773.761719 218.699219 773.5 219.335938 773.5 220 C 773.5 220.664062 773.761719 221.300781 774.230469 221.769531 C 774.699219 222.238281 775.335938 222.5 776 222.5 C 776.664062 222.5 777.300781 222.238281 777.769531 221.769531 C 778.238281 221.300781 778.5 220.664062 778.5 220 Z M 778.5 220 "/>
<path style=" stroke:none;fill-rule:evenodd;fill:rgb(0%,0%,0%);fill-opacity:1;" d="M 790.121094 224.191406 C 790.121094 224.011719 789.960938 224.011719 789.695312 224.011719 C 788.710938 224.011719 788.691406 223.851562 788.640625 223.3125 L 787.550781 212.160156 C 787.511719 211.800781 787.441406 211.765625 787.246094 211.765625 C 787.066406 211.765625 786.957031 211.800781 786.796875 212.070312 L 780.539062 222.546875 C 779.914062 223.601562 779.308594 223.957031 778.445312 224.011719 C 778.25 224.027344 778.105469 224.027344 778.105469 224.351562 C 778.105469 224.457031 778.199219 224.53125 778.324219 224.53125 L 779.769531 224.496094 C 780.289062 224.496094 780.859375 224.53125 781.363281 224.53125 C 781.46875 224.53125 781.683594 224.53125 781.683594 224.191406 C 781.683594 224.027344 781.539062 224.011719 781.433594 224.011719 C 781.023438 223.972656 780.683594 223.832031 780.683594 223.402344 C 780.683594 223.15625 780.789062 222.957031 781.023438 222.5625 L 782.382812 220.3125 L 786.941406 220.3125 C 786.957031 220.472656 786.957031 220.613281 786.976562 220.777344 C 787.027344 221.238281 787.246094 223.101562 787.246094 223.441406 C 787.246094 223.972656 786.332031 224.011719 786.046875 224.011719 C 785.851562 224.011719 785.652344 224.011719 785.652344 224.332031 C 785.652344 224.53125 785.816406 224.53125 785.921875 224.53125 C 786.226562 224.53125 786.582031 224.496094 786.886719 224.496094 L 787.90625 224.496094 L 789.800781 224.53125 C 789.925781 224.53125 790.121094 224.53125 790.121094 224.191406 Z M 786.886719 219.792969 L 782.683594 219.792969 L 786.277344 213.785156 Z M 786.886719 219.792969 "/>
<path style=" stroke:none;fill-rule:evenodd;fill:rgb(0%,0%,0%);fill-opacity:1;" d="M 796.027344 227.230469 L 796.027344 226.835938 L 795.609375 226.835938 C 794.476562 226.835938 794.441406 226.691406 794.441406 226.253906 L 794.441406 219.636719 C 794.441406 219.316406 794.417969 219.304688 794.097656 219.304688 C 793.605469 219.78125 792.972656 220.066406 791.84375 220.066406 L 791.84375 220.460938 C 792.164062 220.460938 792.808594 220.460938 793.5 220.136719 L 793.5 226.253906 C 793.5 226.691406 793.464844 226.835938 792.332031 226.835938 L 791.914062 226.835938 L 791.914062 227.230469 C 792.402344 227.195312 793.429688 227.195312 793.964844 227.195312 C 794.5 227.195312 795.539062 227.195312 796.027344 227.230469 Z M 796.027344 227.230469 "/>
<path style=" stroke:none;fill-rule:evenodd;fill:rgb(0%,0%,0%);fill-opacity:1;" d="M 739.5 125 C 739.5 124.335938 739.238281 123.699219 738.769531 123.230469 C 738.300781 122.761719 737.664062 122.5 737 122.5 C 736.335938 122.5 735.699219 122.761719 735.230469 123.230469 C 734.761719 123.699219 734.5 124.335938 734.5 125 C 734.5 125.664062 734.761719 126.300781 735.230469 126.769531 C 735.699219 127.238281 736.335938 127.5 737 127.5 C 737.664062 127.5 738.300781 127.238281 738.769531 126.769531 C 739.238281 126.300781 739.5 125.664062 739.5 125 Z M 739.5 125 "/>
<path style=" stroke:none;fill-rule:evenodd;fill:rgb(0%,0%,0%);fill-opacity:1;" d="M 750.789062 116.976562 C 750.789062 116.796875 750.625 116.796875 750.359375 116.796875 C 749.375 116.796875 749.359375 116.636719 749.304688 116.097656 L 748.214844 104.945312 C 748.179688 104.585938 748.109375 104.550781 747.910156 104.550781 C 747.734375 104.550781 747.625 104.585938 747.464844 104.855469 L 741.207031 115.332031 C 740.578125 116.386719 739.972656 116.742188 739.113281 116.796875 C 738.917969 116.8125 738.773438 116.8125 738.773438 117.136719 C 738.773438 117.242188 738.863281 117.316406 738.988281 117.316406 L 740.4375 117.28125 C 740.953125 117.28125 741.527344 117.316406 742.027344 117.316406 C 742.136719 117.316406 742.347656 117.316406 742.347656 116.976562 C 742.347656 116.8125 742.207031 116.796875 742.097656 116.796875 C 741.6875 116.761719 741.347656 116.617188 741.347656 116.1875 C 741.347656 115.941406 741.457031 115.742188 741.6875 115.347656 L 743.046875 113.097656 L 747.605469 113.097656 C 747.625 113.257812 747.625 113.398438 747.640625 113.5625 C 747.695312 114.027344 747.910156 115.886719 747.910156 116.226562 C 747.910156 116.761719 747 116.796875 746.714844 116.796875 C 746.515625 116.796875 746.320312 116.796875 746.320312 117.117188 C 746.320312 117.316406 746.480469 117.316406 746.585938 117.316406 C 746.890625 117.316406 747.25 117.28125 747.550781 117.28125 L 748.570312 117.28125 L 750.46875 117.316406 C 750.589844 117.316406 750.789062 117.316406 750.789062 116.976562 Z M 747.550781 112.578125 L 743.351562 112.578125 L 746.945312 106.570312 Z M 747.550781 112.578125 "/>
<path style=" stroke:none;fill-rule:evenodd;fill:rgb(0%,0%,0%);fill-opacity:1;" d="M 757.050781 117.882812 L 756.679688 117.882812 C 756.644531 118.121094 756.550781 118.71875 756.40625 118.941406 C 756.335938 119.039062 755.429688 119.039062 755.238281 119.039062 L 753.117188 119.039062 L 754.726562 117.582031 C 754.917969 117.40625 755.417969 117.011719 755.609375 116.84375 C 756.347656 116.164062 757.050781 115.507812 757.050781 114.425781 C 757.050781 113.007812 755.859375 112.089844 754.371094 112.089844 C 752.9375 112.089844 751.996094 113.175781 751.996094 114.234375 C 751.996094 114.816406 752.460938 114.902344 752.628906 114.902344 C 752.878906 114.902344 753.25 114.722656 753.25 114.273438 C 753.25 113.652344 752.652344 113.652344 752.507812 113.652344 C 752.855469 112.78125 753.65625 112.484375 754.238281 112.484375 C 755.347656 112.484375 755.917969 113.421875 755.917969 114.425781 C 755.917969 115.664062 755.050781 116.570312 753.640625 118.015625 L 752.140625 119.5625 C 751.996094 119.695312 751.996094 119.71875 751.996094 120.015625 L 756.707031 120.015625 Z M 757.050781 117.882812 "/>
<path style=" stroke:none;fill-rule:evenodd;fill:rgb(0%,0%,0%);fill-opacity:1;" d="M 661.5 48 C 661.5 47.335938 661.238281 46.699219 660.769531 46.230469 C 660.300781 45.761719 659.664062 45.5 659 45.5 C 658.335938 45.5 657.699219 45.761719 657.230469 46.230469 C 656.761719 46.699219 656.5 47.335938 656.5 48 C 656.5 48.664062 656.761719 49.300781 657.230469 49.769531 C 657.699219 50.238281 658.335938 50.5 659 50.5 C 659.664062 50.5 660.300781 50.238281 660.769531 49.769531 C 661.238281 49.300781 661.5 48.664062 661.5 48 Z M 661.5 48 "/>
<path style=" stroke:none;fill-rule:evenodd;fill:rgb(0%,0%,0%);fill-opacity:1;" d="M 673.21875 39.40625 C 673.21875 39.226562 673.054688 39.226562 672.789062 39.226562 C 671.804688 39.226562 671.789062 39.066406 671.734375 38.527344 L 670.644531 27.375 C 670.605469 27.015625 670.535156 26.980469 670.339844 26.980469 C 670.160156 26.980469 670.054688 27.015625 669.890625 27.285156 L 663.636719 37.761719 C 663.007812 38.816406 662.402344 39.171875 661.542969 39.226562 C 661.34375 39.242188 661.203125 39.242188 661.203125 39.566406 C 661.203125 39.671875 661.292969 39.746094 661.417969 39.746094 L 662.867188 39.710938 C 663.382812 39.710938 663.957031 39.746094 664.457031 39.746094 C 664.566406 39.746094 664.777344 39.746094 664.777344 39.40625 C 664.777344 39.242188 664.636719 39.226562 664.527344 39.226562 C 664.117188 39.191406 663.777344 39.046875 663.777344 38.617188 C 663.777344 38.371094 663.886719 38.171875 664.117188 37.777344 L 665.476562 35.527344 L 670.035156 35.527344 C 670.054688 35.6875 670.054688 35.828125 670.070312 35.992188 C 670.125 36.453125 670.339844 38.316406 670.339844 38.65625 C 670.339844 39.191406 669.429688 39.226562 669.140625 39.226562 C 668.945312 39.226562 668.75 39.226562 668.75 39.546875 C 668.75 39.746094 668.910156 39.746094 669.015625 39.746094 C 669.320312 39.746094 669.679688 39.710938 669.980469 39.710938 L 671 39.710938 L 672.898438 39.746094 C 673.019531 39.746094 673.21875 39.746094 673.21875 39.40625 Z M 669.980469 35.007812 L 665.78125 35.007812 L 669.375 29 Z M 669.980469 35.007812 "/>
<path style=" stroke:none;fill-rule:evenodd;fill:rgb(0%,0%,0%);fill-opacity:1;" d="M 679.585938 40.40625 C 679.585938 39.417969 678.800781 38.511719 677.582031 38.25 C 678.527344 37.914062 679.230469 37.105469 679.230469 36.152344 C 679.230469 35.199219 678.15625 34.519531 676.917969 34.519531 C 675.640625 34.519531 674.675781 35.210938 674.675781 36.113281 C 674.675781 36.554688 674.976562 36.746094 675.285156 36.746094 C 675.652344 36.746094 675.890625 36.484375 675.890625 36.136719 C 675.890625 35.699219 675.511719 35.53125 675.246094 35.519531 C 675.75 34.863281 676.667969 34.828125 676.878906 34.828125 C 677.191406 34.828125 678.097656 34.925781 678.097656 36.152344 C 678.097656 36.988281 677.753906 37.484375 677.582031 37.679688 C 677.226562 38.046875 676.953125 38.070312 676.226562 38.117188 C 676 38.128906 675.902344 38.140625 675.902344 38.296875 C 675.902344 38.464844 676.011719 38.464844 676.214844 38.464844 L 676.808594 38.464844 C 677.753906 38.464844 678.347656 39.15625 678.347656 40.40625 C 678.347656 41.898438 677.5 42.335938 676.867188 42.335938 C 676.214844 42.335938 675.320312 42.101562 674.902344 41.46875 C 675.332031 41.46875 675.628906 41.195312 675.628906 40.800781 C 675.628906 40.417969 675.355469 40.144531 674.976562 40.144531 C 674.652344 40.144531 674.320312 40.347656 674.320312 40.824219 C 674.320312 41.957031 675.535156 42.695312 676.890625 42.695312 C 678.480469 42.695312 679.585938 41.597656 679.585938 40.40625 Z M 679.585938 40.40625 "/>
<path style=" stroke:none;fill-rule:evenodd;fill:rgb(0%,0%,0%);fill-opacity:1;" d="M 606.5 25 C 606.5 24.335938 606.238281 23.699219 605.769531 23.230469 C 605.300781 22.761719 604.664062 22.5 604 22.5 C 603.335938 22.5 602.699219 22.761719 602.230469 23.230469 C 601.761719 23.699219 601.5 24.335938 601.5 25 C 601.5 25.664062 601.761719 26.300781 602.230469 26.769531 C 602.699219 27.238281 603.335938 27.5 604 27.5 C 604.664062 27.5 605.300781 27.238281 605.769531 26.769531 C 606.238281 26.300781 606.5 25.664062 606.5 25 Z M 606.5 25 "/>
<path style=" stroke:none;fill-rule:evenodd;fill:rgb(0%,0%,0%);fill-opacity:1;" d="M 618.429688 16.710938 C 618.429688 16.53125 618.265625 16.53125 618 16.53125 C 617.015625 16.53125 617 16.371094 616.945312 15.835938 L 615.855469 4.679688 C 615.816406 4.320312 615.746094 4.285156 615.550781 4.285156 C 615.371094 4.285156 615.265625 4.320312 615.101562 4.589844 L 608.84375 15.066406 C 608.21875 16.121094 607.613281 16.480469 606.753906 16.53125 C 606.554688 16.550781 606.414062 16.550781 606.414062 16.871094 C 606.414062 16.976562 606.503906 17.050781 606.628906 17.050781 L 608.078125 17.015625 C 608.59375 17.015625 609.167969 17.050781 609.667969 17.050781 C 609.777344 17.050781 609.988281 17.050781 609.988281 16.710938 C 609.988281 16.550781 609.847656 16.53125 609.738281 16.53125 C 609.328125 16.496094 608.988281 16.351562 608.988281 15.921875 C 608.988281 15.675781 609.097656 15.476562 609.328125 15.085938 L 610.6875 12.832031 L 615.246094 12.832031 C 615.265625 12.992188 615.265625 13.132812 615.28125 13.296875 C 615.335938 13.761719 615.550781 15.621094 615.550781 15.960938 C 615.550781 16.496094 614.640625 16.53125 614.351562 16.53125 C 614.15625 16.53125 613.960938 16.53125 613.960938 16.855469 C 613.960938 17.050781 614.121094 17.050781 614.226562 17.050781 C 614.53125 17.050781 614.890625 17.015625 615.191406 17.015625 L 616.210938 17.015625 L 618.105469 17.050781 C 618.230469 17.050781 618.429688 17.050781 618.429688 16.710938 Z M 615.191406 12.3125 L 610.988281 12.3125 L 614.585938 6.304688 Z M 615.191406 12.3125 "/>
<path style=" stroke:none;fill-rule:evenodd;fill:rgb(0%,0%,0%);fill-opacity:1;" d="M 624.964844 17.796875 L 624.964844 17.402344 L 623.703125 17.402344 L 623.703125 12.039062 C 623.703125 11.800781 623.703125 11.703125 623.449219 11.703125 C 623.296875 11.703125 623.285156 11.714844 623.164062 11.882812 L 619.363281 17.402344 L 619.363281 17.796875 L 622.722656 17.796875 L 622.722656 18.785156 C 622.722656 19.226562 622.6875 19.355469 621.769531 19.355469 L 621.496094 19.355469 L 621.496094 19.75 L 623.210938 19.714844 L 624.929688 19.75 L 624.929688 19.355469 L 624.65625 19.355469 C 623.738281 19.355469 623.703125 19.226562 623.703125 18.785156 L 623.703125 17.796875 Z M 622.804688 17.402344 L 619.78125 17.402344 L 622.804688 13.003906 Z M 622.804688 17.402344 "/>
<path style=" stroke:none;fill-rule:evenodd;fill:rgb(0%,0%,0%);fill-opacity:1;" d="M 167.5 25 C 167.5 24.335938 167.238281 23.699219 166.769531 23.230469 C 166.300781 22.761719 165.664062 22.5 165 22.5 C 164.335938 22.5 163.699219 22.761719 163.230469 23.230469 C 162.761719 23.699219 162.5 24.335938 162.5 25 C 162.5 25.664062 162.761719 26.300781 163.230469 26.769531 C 163.699219 27.238281 164.335938 27.5 165 27.5 C 165.664062 27.5 166.300781 27.238281 166.769531 26.769531 C 167.238281 26.300781 167.5 25.664062 167.5 25 Z M 167.5 25 "/>
<path style=" stroke:none;fill-rule:evenodd;fill:rgb(0%,0%,0%);fill-opacity:1;" d="M 155.316406 12.757812 C 155.316406 12.597656 155.171875 12.597656 155.117188 12.597656 C 154.957031 12.597656 154.941406 12.707031 154.902344 12.777344 C 154.082031 15.566406 151.667969 16.90625 149.882812 16.90625 C 147.984375 16.90625 146.339844 15.691406 146.339844 13.152344 C 146.339844 12.582031 146.519531 9.46875 148.539062 7.128906 C 149.523438 5.984375 151.203125 4.980469 152.902344 4.980469 C 154.867188 4.980469 155.746094 6.609375 155.746094 8.433594 C 155.746094 8.898438 155.691406 9.292969 155.691406 9.363281 C 155.691406 9.523438 155.867188 9.523438 155.921875 9.523438 C 156.121094 9.523438 156.136719 9.507812 156.207031 9.183594 L 157.335938 4.625 C 157.335938 4.464844 157.175781 4.464844 157.175781 4.464844 C 157.175781 4.464844 157.066406 4.464844 156.921875 4.640625 L 155.691406 6.144531 C 155.066406 5.074219 154.082031 4.464844 152.738281 4.464844 C 148.878906 4.464844 144.871094 8.378906 144.871094 12.582031 C 144.871094 15.566406 146.964844 17.425781 149.578125 17.425781 C 151.007812 17.425781 152.257812 16.820312 153.296875 15.941406 C 154.847656 14.636719 155.316406 12.902344 155.316406 12.757812 Z M 155.316406 12.757812 "/>
<path style=" stroke:none;fill-rule:evenodd;fill:rgb(0%,0%,0%);fill-opacity:1;" d="M 162.40625 15.949219 C 162.40625 14.671875 162.277344 13.898438 161.882812 13.132812 C 161.359375 12.085938 160.394531 11.824219 159.738281 11.824219 C 158.234375 11.824219 157.6875 12.945312 157.519531 13.277344 C 157.09375 14.148438 157.070312 15.328125 157.070312 15.949219 C 157.070312 16.734375 157.105469 17.9375 157.675781 18.894531 C 158.222656 19.773438 159.105469 20 159.738281 20 C 160.308594 20 161.332031 19.824219 161.933594 18.640625 C 162.371094 17.785156 162.40625 16.722656 162.40625 15.949219 Z M 161.34375 15.804688 C 161.34375 16.507812 161.34375 17.582031 161.203125 18.25 C 160.953125 19.5 160.132812 19.667969 159.738281 19.667969 C 159.332031 19.667969 158.511719 19.476562 158.257812 18.226562 C 158.128906 17.546875 158.128906 16.425781 158.128906 15.804688 C 158.128906 14.984375 158.128906 14.148438 158.257812 13.492188 C 158.511719 12.277344 159.441406 12.15625 159.738281 12.15625 C 160.144531 12.15625 160.964844 12.359375 161.203125 13.445312 C 161.34375 14.101562 161.34375 14.996094 161.34375 15.804688 Z M 161.34375 15.804688 "/>
<path style=" stroke:none;fill-rule:evenodd;fill:rgb(0%,0%,0%);fill-opacity:1;" d="M 113.5 47 C 113.5 46.335938 113.238281 45.699219 112.769531 45.230469 C 112.300781 44.761719 111.664062 44.5 111 44.5 C 110.335938 44.5 109.699219 44.761719 109.230469 45.230469 C 108.761719 45.699219 108.5 46.335938 108.5 47 C 108.5 47.664062 108.761719 48.300781 109.230469 48.769531 C 109.699219 49.238281 110.335938 49.5 111 49.5 C 111.664062 49.5 112.300781 49.238281 112.769531 48.769531 C 113.238281 48.300781 113.5 47.664062 113.5 47 Z M 113.5 47 "/>
<path style=" stroke:none;fill-rule:evenodd;fill:rgb(0%,0%,0%);fill-opacity:1;" d="M 101.382812 35.097656 C 101.382812 34.9375 101.242188 34.9375 101.1875 34.9375 C 101.023438 34.9375 101.007812 35.046875 100.972656 35.117188 C 100.148438 37.90625 97.738281 39.246094 95.949219 39.246094 C 94.050781 39.246094 92.40625 38.03125 92.40625 35.492188 C 92.40625 34.921875 92.585938 31.808594 94.605469 29.46875 C 95.589844 28.324219 97.269531 27.320312 98.96875 27.320312 C 100.9375 27.320312 101.8125 28.949219 101.8125 30.773438 C 101.8125 31.238281 101.757812 31.628906 101.757812 31.699219 C 101.757812 31.863281 101.9375 31.863281 101.992188 31.863281 C 102.1875 31.863281 102.207031 31.847656 102.277344 31.523438 L 103.402344 26.964844 C 103.402344 26.804688 103.242188 26.804688 103.242188 26.804688 C 103.242188 26.804688 103.132812 26.804688 102.992188 26.980469 L 101.757812 28.484375 C 101.132812 27.414062 100.148438 26.804688 98.808594 26.804688 C 94.945312 26.804688 90.941406 30.71875 90.941406 34.921875 C 90.941406 37.90625 93.03125 39.765625 95.644531 39.765625 C 97.074219 39.765625 98.324219 39.15625 99.363281 38.28125 C 100.917969 36.976562 101.382812 35.242188 101.382812 35.097656 Z M 101.382812 35.097656 "/>
<path style=" stroke:none;fill-rule:evenodd;fill:rgb(0%,0%,0%);fill-opacity:1;" d="M 107.972656 42.089844 L 107.972656 41.695312 L 107.554688 41.695312 C 106.425781 41.695312 106.390625 41.554688 106.390625 41.113281 L 106.390625 34.496094 C 106.390625 34.175781 106.367188 34.164062 106.042969 34.164062 C 105.554688 34.640625 104.921875 34.925781 103.789062 34.925781 L 103.789062 35.320312 C 104.113281 35.320312 104.753906 35.320312 105.445312 35 L 105.445312 41.113281 C 105.445312 41.554688 105.410156 41.695312 104.28125 41.695312 L 103.863281 41.695312 L 103.863281 42.089844 C 104.351562 42.054688 105.375 42.054688 105.914062 42.054688 C 106.449219 42.054688 107.484375 42.054688 107.972656 42.089844 Z M 107.972656 42.089844 "/>
<path style=" stroke:none;fill-rule:evenodd;fill:rgb(0%,0%,0%);fill-opacity:1;" d="M 64.5 96 C 64.5 95.335938 64.238281 94.699219 63.769531 94.230469 C 63.300781 93.761719 62.664062 93.5 62 93.5 C 61.335938 93.5 60.699219 93.761719 60.230469 94.230469 C 59.761719 94.699219 59.5 95.335938 59.5 96 C 59.5 96.664062 59.761719 97.300781 60.230469 97.769531 C 60.699219 98.238281 61.335938 98.5 62 98.5 C 62.664062 98.5 63.300781 98.238281 63.769531 97.769531 C 64.238281 97.300781 64.5 96.664062 64.5 96 Z M 64.5 96 "/>
<path style=" stroke:none;fill-rule:evenodd;fill:rgb(0%,0%,0%);fill-opacity:1;" d="M 52.570312 83.914062 C 52.570312 83.75 52.425781 83.75 52.375 83.75 C 52.210938 83.75 52.195312 83.859375 52.15625 83.929688 C 51.335938 86.71875 48.921875 88.058594 47.136719 88.058594 C 45.238281 88.058594 43.59375 86.84375 43.59375 84.304688 C 43.59375 83.734375 43.773438 80.621094 45.792969 78.28125 C 46.777344 77.136719 48.457031 76.132812 50.15625 76.132812 C 52.121094 76.132812 53 77.761719 53 79.585938 C 53 80.050781 52.945312 80.445312 52.945312 80.515625 C 52.945312 80.675781 53.125 80.675781 53.175781 80.675781 C 53.375 80.675781 53.390625 80.660156 53.460938 80.335938 L 54.589844 75.777344 C 54.589844 75.617188 54.429688 75.617188 54.429688 75.617188 C 54.429688 75.617188 54.320312 75.617188 54.175781 75.792969 L 52.945312 77.296875 C 52.320312 76.226562 51.335938 75.617188 49.996094 75.617188 C 46.132812 75.617188 42.128906 79.53125 42.128906 83.734375 C 42.128906 86.71875 44.21875 88.578125 46.832031 88.578125 C 48.261719 88.578125 49.511719 87.972656 50.550781 87.09375 C 52.105469 85.789062 52.570312 84.054688 52.570312 83.914062 Z M 52.570312 83.914062 "/>
<path style=" stroke:none;fill-rule:evenodd;fill:rgb(0%,0%,0%);fill-opacity:1;" d="M 59.519531 88.769531 L 59.148438 88.769531 C 59.113281 89.007812 59.015625 89.605469 58.875 89.828125 C 58.804688 89.925781 57.898438 89.925781 57.707031 89.925781 L 55.585938 89.925781 L 57.195312 88.46875 C 57.386719 88.292969 57.886719 87.898438 58.078125 87.734375 C 58.816406 87.054688 59.519531 86.398438 59.519531 85.3125 C 59.519531 83.894531 58.324219 82.976562 56.835938 82.976562 C 55.40625 82.976562 54.464844 84.0625 54.464844 85.121094 C 54.464844 85.707031 54.929688 85.789062 55.097656 85.789062 C 55.347656 85.789062 55.71875 85.613281 55.71875 85.160156 C 55.71875 84.539062 55.121094 84.539062 54.976562 84.539062 C 55.324219 83.667969 56.121094 83.371094 56.707031 83.371094 C 57.816406 83.371094 58.386719 84.3125 58.386719 85.3125 C 58.386719 86.554688 57.515625 87.457031 56.109375 88.902344 L 54.609375 90.449219 C 54.464844 90.582031 54.464844 90.605469 54.464844 90.902344 L 59.175781 90.902344 Z M 59.519531 88.769531 "/>
<path style=" stroke:none;fill-rule:evenodd;fill:rgb(0%,0%,0%);fill-opacity:1;" d="M 25.5 191 C 25.5 190.335938 25.238281 189.699219 24.769531 189.230469 C 24.300781 188.761719 23.664062 188.5 23 188.5 C 22.335938 188.5 21.699219 188.761719 21.230469 189.230469 C 20.761719 189.699219 20.5 190.335938 20.5 191 C 20.5 191.664062 20.761719 192.300781 21.230469 192.769531 C 21.699219 193.238281 22.335938 193.5 23 193.5 C 23.664062 193.5 24.300781 193.238281 24.769531 192.769531 C 25.238281 192.300781 25.5 191.664062 25.5 191 Z M 25.5 191 "/>
<path style=" stroke:none;fill-rule:evenodd;fill:rgb(0%,0%,0%);fill-opacity:1;" d="M 13.1875 191.246094 C 13.1875 191.082031 13.042969 191.082031 12.992188 191.082031 C 12.828125 191.082031 12.8125 191.191406 12.773438 191.261719 C 11.953125 194.050781 9.539062 195.390625 7.753906 195.390625 C 5.855469 195.390625 4.210938 194.175781 4.210938 191.636719 C 4.210938 191.066406 4.390625 187.953125 6.410156 185.613281 C 7.394531 184.46875 9.074219 183.464844 10.773438 183.464844 C 12.738281 183.464844 13.617188 185.09375 13.617188 186.917969 C 13.617188 187.382812 13.5625 187.777344 13.5625 187.847656 C 13.5625 188.007812 13.742188 188.007812 13.792969 188.007812 C 13.992188 188.007812 14.011719 187.992188 14.082031 187.667969 L 15.207031 183.109375 C 15.207031 182.949219 15.046875 182.949219 15.046875 182.949219 C 15.046875 182.949219 14.9375 182.949219 14.796875 183.125 L 13.5625 184.628906 C 12.9375 183.558594 11.953125 182.949219 10.613281 182.949219 C 6.75 182.949219 2.746094 186.863281 2.746094 191.066406 C 2.746094 194.050781 4.835938 195.910156 7.449219 195.910156 C 8.878906 195.910156 10.128906 195.304688 11.167969 194.425781 C 12.722656 193.121094 13.1875 191.386719 13.1875 191.246094 Z M 13.1875 191.246094 "/>
<path style=" stroke:none;fill-rule:evenodd;fill:rgb(0%,0%,0%);fill-opacity:1;" d="M 20.242188 196.195312 C 20.242188 195.207031 19.457031 194.300781 18.242188 194.039062 C 19.183594 193.703125 19.886719 192.894531 19.886719 191.941406 C 19.886719 190.988281 18.8125 190.308594 17.574219 190.308594 C 16.296875 190.308594 15.332031 191 15.332031 191.90625 C 15.332031 192.34375 15.632812 192.539062 15.941406 192.539062 C 16.308594 192.539062 16.546875 192.273438 16.546875 191.929688 C 16.546875 191.488281 16.167969 191.320312 15.902344 191.308594 C 16.40625 190.652344 17.324219 190.617188 17.539062 190.617188 C 17.847656 190.617188 18.753906 190.714844 18.753906 191.941406 C 18.753906 192.777344 18.410156 193.277344 18.242188 193.46875 C 17.882812 193.835938 17.609375 193.859375 16.882812 193.910156 C 16.65625 193.921875 16.558594 193.933594 16.558594 194.085938 C 16.558594 194.253906 16.667969 194.253906 16.871094 194.253906 L 17.464844 194.253906 C 18.410156 194.253906 19.003906 194.945312 19.003906 196.195312 C 19.003906 197.6875 18.160156 198.128906 17.527344 198.128906 C 16.871094 198.128906 15.976562 197.890625 15.558594 197.257812 C 15.988281 197.257812 16.285156 196.984375 16.285156 196.589844 C 16.285156 196.207031 16.011719 195.933594 15.632812 195.933594 C 15.308594 195.933594 14.976562 196.136719 14.976562 196.613281 C 14.976562 197.746094 16.191406 198.484375 17.550781 198.484375 C 19.136719 198.484375 20.242188 197.390625 20.242188 196.195312 Z M 20.242188 196.195312 "/>
<path style=" stroke:none;fill-rule:evenodd;fill:rgb(0%,0%,0%);fill-opacity:1;" d="M 25.5 284 C 25.5 283.335938 25.238281 282.699219 24.769531 282.230469 C 24.300781 281.761719 23.664062 281.5 23 281.5 C 22.335938 281.5 21.699219 281.761719 21.230469 282.230469 C 20.761719 282.699219 20.5 283.335938 20.5 284 C 20.5 284.664062 20.761719 285.300781 21.230469 285.769531 C 21.699219 286.238281 22.335938 286.5 23 286.5 C 23.664062 286.5 24.300781 286.238281 24.769531 285.769531 C 25.238281 285.300781 25.5 284.664062 25.5 284 Z M 25.5 284 "/>
<path style=" stroke:none;fill-rule:evenodd;fill:rgb(0%,0%,0%);fill-opacity:1;" d="M 13.1875 283.632812 C 13.1875 283.472656 13.042969 283.472656 12.992188 283.472656 C 12.828125 283.472656 12.8125 283.578125 12.773438 283.652344 C 11.953125 286.441406 9.539062 287.78125 7.753906 287.78125 C 5.855469 287.78125 4.210938 286.5625 4.210938 284.027344 C 4.210938 283.453125 4.390625 280.34375 6.410156 278 C 7.394531 276.855469 9.074219 275.855469 10.773438 275.855469 C 12.738281 275.855469 13.617188 277.484375 13.617188 279.304688 C 13.617188 279.769531 13.5625 280.164062 13.5625 280.234375 C 13.5625 280.394531 13.742188 280.394531 13.792969 280.394531 C 13.992188 280.394531 14.011719 280.378906 14.082031 280.054688 L 15.207031 275.496094 C 15.207031 275.335938 15.046875 275.335938 15.046875 275.335938 C 15.046875 275.335938 14.9375 275.335938 14.796875 275.515625 L 13.5625 277.015625 C 12.9375 275.945312 11.953125 275.335938 10.613281 275.335938 C 6.75 275.335938 2.746094 279.253906 2.746094 283.453125 C 2.746094 286.441406 4.835938 288.296875 7.449219 288.296875 C 8.878906 288.296875 10.128906 287.691406 11.167969 286.816406 C 12.722656 285.507812 13.1875 283.777344 13.1875 283.632812 Z M 13.1875 283.632812 "/>
<path style=" stroke:none;fill-rule:evenodd;fill:rgb(0%,0%,0%);fill-opacity:1;" d="M 20.410156 288.667969 L 20.410156 288.273438 L 19.148438 288.273438 L 19.148438 282.910156 C 19.148438 282.675781 19.148438 282.578125 18.894531 282.578125 C 18.742188 282.578125 18.730469 282.589844 18.609375 282.757812 L 14.808594 288.273438 L 14.808594 288.667969 L 18.171875 288.667969 L 18.171875 289.65625 C 18.171875 290.097656 18.136719 290.230469 17.214844 290.230469 L 16.941406 290.230469 L 16.941406 290.625 L 18.65625 290.589844 L 20.375 290.625 L 20.375 290.230469 L 20.101562 290.230469 C 19.183594 290.230469 19.148438 290.097656 19.148438 289.65625 L 19.148438 288.667969 Z M 18.253906 288.273438 L 15.226562 288.273438 L 18.253906 283.875 Z M 18.253906 288.273438 "/>
<path style=" stroke:none;fill-rule:evenodd;fill:rgb(0%,0%,0%);fill-opacity:1;" d="M 489.351562 167.566406 L 489.351562 166.796875 L 488.101562 166.796875 L 485.078125 163.152344 L 487.152344 160.773438 C 487.351562 160.539062 487.511719 160.398438 488.996094 160.398438 L 488.996094 159.628906 L 487.351562 159.664062 C 486.832031 159.664062 486.0625 159.664062 485.5625 159.628906 L 485.5625 160.398438 C 485.902344 160.398438 486.277344 160.488281 486.277344 160.609375 C 486.277344 160.609375 486.1875 160.773438 486.152344 160.808594 L 484.597656 162.5625 L 482.828125 160.398438 L 483.578125 160.398438 L 483.578125 159.628906 C 483.167969 159.664062 481.949219 159.664062 481.46875 159.664062 C 480.929688 159.664062 479.964844 159.664062 479.464844 159.628906 L 479.464844 160.398438 L 480.734375 160.398438 L 483.523438 163.792969 L 481.199219 166.421875 C 480.984375 166.675781 480.859375 166.796875 479.375 166.796875 L 479.375 167.566406 L 481.039062 167.53125 C 481.554688 167.53125 482.304688 167.53125 482.808594 167.566406 L 482.808594 166.796875 C 482.46875 166.796875 482.09375 166.710938 482.09375 166.582031 C 482.09375 166.582031 482.09375 166.546875 482.21875 166.40625 L 484.003906 164.382812 L 485.992188 166.796875 L 485.242188 166.796875 L 485.242188 167.566406 C 485.667969 167.53125 486.867188 167.53125 487.367188 167.53125 C 487.902344 167.53125 488.851562 167.53125 489.351562 167.566406 Z M 489.351562 167.566406 "/>
<path style=" stroke:none;fill-rule:evenodd;fill:rgb(0%,0%,0%);fill-opacity:1;" d="M 495.03125 170.265625 L 495.03125 169.871094 L 494.613281 169.871094 C 493.480469 169.871094 493.445312 169.730469 493.445312 169.289062 L 493.445312 162.671875 C 493.445312 162.351562 493.421875 162.339844 493.101562 162.339844 C 492.609375 162.816406 491.976562 163.101562 490.847656 163.101562 L 490.847656 163.496094 C 491.167969 163.496094 491.8125 163.496094 492.503906 163.175781 L 492.503906 169.289062 C 492.503906 169.730469 492.46875 169.871094 491.335938 169.871094 L 490.917969 169.871094 L 490.917969 170.265625 C 491.40625 170.230469 492.433594 170.230469 492.96875 170.230469 C 493.503906 170.230469 494.542969 170.230469 495.03125 170.265625 Z M 495.03125 170.265625 "/>
<path style=" stroke:none;fill-rule:evenodd;fill:rgb(0%,0%,0%);fill-opacity:1;" d="M 480.5 176 C 480.5 175.335938 480.238281 174.699219 479.769531 174.230469 C 479.300781 173.761719 478.664062 173.5 478 173.5 C 477.335938 173.5 476.699219 173.761719 476.230469 174.230469 C 475.761719 174.699219 475.5 175.335938 475.5 176 C 475.5 176.664062 475.761719 177.300781 476.230469 177.769531 C 476.699219 178.238281 477.335938 178.5 478 178.5 C 478.664062 178.5 479.300781 178.238281 479.769531 177.769531 C 480.238281 177.300781 480.5 176.664062 480.5 176 Z M 480.5 176 "/>
<path style=" stroke:none;fill-rule:evenodd;fill:rgb(0%,0%,0%);fill-opacity:1;" d="M 386.402344 131.359375 L 386.402344 130.589844 L 385.148438 130.589844 L 382.128906 126.945312 L 384.203125 124.566406 C 384.398438 124.335938 384.5625 124.191406 386.046875 124.191406 L 386.046875 123.421875 L 384.398438 123.457031 C 383.882812 123.457031 383.113281 123.457031 382.613281 123.421875 L 382.613281 124.191406 C 382.953125 124.191406 383.328125 124.28125 383.328125 124.40625 C 383.328125 124.40625 383.238281 124.566406 383.203125 124.601562 L 381.644531 126.355469 L 379.878906 124.191406 L 380.628906 124.191406 L 380.628906 123.421875 C 380.21875 123.457031 379 123.457031 378.519531 123.457031 C 377.980469 123.457031 377.015625 123.457031 376.515625 123.421875 L 376.515625 124.191406 L 377.785156 124.191406 L 380.574219 127.585938 L 378.25 130.214844 C 378.035156 130.46875 377.910156 130.589844 376.425781 130.589844 L 376.425781 131.359375 L 378.089844 131.324219 C 378.605469 131.324219 379.355469 131.324219 379.859375 131.359375 L 379.859375 130.589844 C 379.519531 130.589844 379.144531 130.503906 379.144531 130.375 C 379.144531 130.375 379.144531 130.339844 379.269531 130.199219 L 381.054688 128.175781 L 383.039062 130.589844 L 382.289062 130.589844 L 382.289062 131.359375 C 382.71875 131.324219 383.917969 131.324219 384.417969 131.324219 C 384.953125 131.324219 385.902344 131.324219 386.402344 131.359375 Z M 386.402344 131.359375 "/>
<path style=" stroke:none;fill-rule:evenodd;fill:rgb(0%,0%,0%);fill-opacity:1;" d="M 392.4375 131.925781 L 392.066406 131.925781 C 392.03125 132.164062 391.9375 132.761719 391.792969 132.988281 C 391.722656 133.082031 390.816406 133.082031 390.625 133.082031 L 388.507812 133.082031 L 390.113281 131.628906 C 390.304688 131.449219 390.804688 131.054688 390.996094 130.890625 C 391.734375 130.210938 392.4375 129.554688 392.4375 128.46875 C 392.4375 127.050781 391.246094 126.132812 389.757812 126.132812 C 388.324219 126.132812 387.386719 127.21875 387.386719 128.277344 C 387.386719 128.863281 387.851562 128.945312 388.015625 128.945312 C 388.265625 128.945312 388.636719 128.769531 388.636719 128.316406 C 388.636719 127.695312 388.039062 127.695312 387.898438 127.695312 C 388.242188 126.824219 389.042969 126.527344 389.625 126.527344 C 390.734375 126.527344 391.304688 127.46875 391.304688 128.46875 C 391.304688 129.710938 390.4375 130.613281 389.027344 132.058594 L 387.527344 133.609375 C 387.386719 133.738281 387.386719 133.761719 387.386719 134.058594 L 392.09375 134.058594 Z M 392.4375 131.925781 "/>
<path style=" stroke:none;fill-rule:evenodd;fill:rgb(0%,0%,0%);fill-opacity:1;" d="M 387.5 139 C 387.5 138.335938 387.238281 137.699219 386.769531 137.230469 C 386.300781 136.761719 385.664062 136.5 385 136.5 C 384.335938 136.5 383.699219 136.761719 383.230469 137.230469 C 382.761719 137.699219 382.5 138.335938 382.5 139 C 382.5 139.664062 382.761719 140.300781 383.230469 140.769531 C 383.699219 141.238281 384.335938 141.5 385 141.5 C 385.664062 141.5 386.300781 141.238281 386.769531 140.769531 C 387.238281 140.300781 387.5 139.664062 387.5 139 Z M 387.5 139 "/>
<path style=" stroke:none;fill-rule:evenodd;fill:rgb(0%,0%,0%);fill-opacity:1;" d="M 297.933594 173.773438 L 297.933594 173.003906 L 296.683594 173.003906 L 293.660156 169.359375 L 295.734375 166.980469 C 295.933594 166.746094 296.09375 166.605469 297.578125 166.605469 L 297.578125 165.835938 L 295.933594 165.871094 C 295.414062 165.871094 294.644531 165.871094 294.144531 165.835938 L 294.144531 166.605469 C 294.484375 166.605469 294.859375 166.695312 294.859375 166.816406 C 294.859375 166.816406 294.769531 166.980469 294.734375 167.015625 L 293.179688 168.769531 L 291.410156 166.605469 L 292.160156 166.605469 L 292.160156 165.835938 C 291.75 165.871094 290.535156 165.871094 290.050781 165.871094 C 289.515625 165.871094 288.546875 165.871094 288.046875 165.835938 L 288.046875 166.605469 L 289.316406 166.605469 L 292.105469 170 L 289.78125 172.628906 C 289.566406 172.878906 289.445312 173.003906 287.957031 173.003906 L 287.957031 173.773438 L 289.621094 173.738281 C 290.140625 173.738281 290.890625 173.738281 291.390625 173.773438 L 291.390625 173.003906 C 291.050781 173.003906 290.675781 172.914062 290.675781 172.789062 C 290.675781 172.789062 290.675781 172.753906 290.800781 172.609375 L 292.589844 170.589844 L 294.574219 173.003906 L 293.824219 173.003906 L 293.824219 173.773438 C 294.253906 173.738281 295.449219 173.738281 295.953125 173.738281 C 296.484375 173.738281 297.433594 173.738281 297.933594 173.773438 Z M 297.933594 173.773438 "/>
<path style=" stroke:none;fill-rule:evenodd;fill:rgb(0%,0%,0%);fill-opacity:1;" d="M 304.078125 174.433594 C 304.078125 173.445312 303.292969 172.539062 302.074219 172.277344 C 303.019531 171.945312 303.71875 171.132812 303.71875 170.179688 C 303.71875 169.226562 302.648438 168.546875 301.410156 168.546875 C 300.132812 168.546875 299.167969 169.238281 299.167969 170.144531 C 299.167969 170.585938 299.46875 170.777344 299.777344 170.777344 C 300.144531 170.777344 300.382812 170.515625 300.382812 170.167969 C 300.382812 169.726562 300 169.558594 299.738281 169.546875 C 300.242188 168.890625 301.160156 168.855469 301.371094 168.855469 C 301.683594 168.855469 302.589844 168.953125 302.589844 170.179688 C 302.589844 171.015625 302.246094 171.515625 302.074219 171.707031 C 301.71875 172.074219 301.445312 172.097656 300.71875 172.148438 C 300.492188 172.160156 300.394531 172.171875 300.394531 172.324219 C 300.394531 172.492188 300.503906 172.492188 300.703125 172.492188 L 301.300781 172.492188 C 302.246094 172.492188 302.839844 173.183594 302.839844 174.433594 C 302.839844 175.925781 301.992188 176.367188 301.359375 176.367188 C 300.703125 176.367188 299.8125 176.128906 299.394531 175.496094 C 299.824219 175.496094 300.121094 175.222656 300.121094 174.828125 C 300.121094 174.445312 299.847656 174.171875 299.46875 174.171875 C 299.144531 174.171875 298.8125 174.375 298.8125 174.851562 C 298.8125 175.984375 300.027344 176.722656 301.382812 176.722656 C 302.96875 176.722656 304.078125 175.628906 304.078125 174.433594 Z M 304.078125 174.433594 "/>
<path style=" stroke:none;fill-rule:evenodd;fill:rgb(0%,0%,0%);fill-opacity:1;" d="M 309.5 182 C 309.5 181.335938 309.238281 180.699219 308.769531 180.230469 C 308.300781 179.761719 307.664062 179.5 307 179.5 C 306.335938 179.5 305.699219 179.761719 305.230469 180.230469 C 304.761719 180.699219 304.5 181.335938 304.5 182 C 304.5 182.664062 304.761719 183.300781 305.230469 183.769531 C 305.699219 184.238281 306.335938 184.5 307 184.5 C 307.664062 184.5 308.300781 184.238281 308.769531 183.769531 C 309.238281 183.300781 309.5 182.664062 309.5 182 Z M 309.5 182 "/>
<path style=" stroke:none;fill-rule:evenodd;fill:rgb(0%,0%,0%);fill-opacity:1;" d="M 508.449219 300.175781 L 508.449219 299.410156 L 507.199219 299.410156 L 504.179688 295.761719 L 506.25 293.382812 C 506.449219 293.152344 506.609375 293.007812 508.09375 293.007812 L 508.09375 292.238281 L 506.449219 292.273438 C 505.929688 292.273438 505.164062 292.273438 504.660156 292.238281 L 504.660156 293.007812 C 505 293.007812 505.375 293.097656 505.375 293.222656 C 505.375 293.222656 505.285156 293.382812 505.25 293.417969 L 503.695312 295.171875 L 501.925781 293.007812 L 502.675781 293.007812 L 502.675781 292.238281 C 502.265625 292.273438 501.050781 292.273438 500.566406 292.273438 C 500.03125 292.273438 499.0625 292.273438 498.5625 292.238281 L 498.5625 293.007812 L 499.832031 293.007812 L 502.621094 296.40625 L 500.296875 299.035156 C 500.082031 299.285156 499.960938 299.410156 498.472656 299.410156 L 498.472656 300.175781 L 500.136719 300.140625 C 500.65625 300.140625 501.40625 300.140625 501.90625 300.175781 L 501.90625 299.410156 C 501.566406 299.410156 501.191406 299.320312 501.191406 299.191406 C 501.191406 299.191406 501.191406 299.15625 501.316406 299.015625 L 503.105469 296.996094 L 505.089844 299.410156 L 504.339844 299.410156 L 504.339844 300.175781 C 504.769531 300.140625 505.964844 300.140625 506.46875 300.140625 C 507 300.140625 507.949219 300.140625 508.449219 300.175781 Z M 508.449219 300.175781 "/>
<path style=" stroke:none;fill-rule:evenodd;fill:rgb(0%,0%,0%);fill-opacity:1;" d="M 514.628906 299.074219 C 514.628906 297.800781 514.5 297.027344 514.105469 296.261719 C 513.582031 295.214844 512.617188 294.953125 511.960938 294.953125 C 510.457031 294.953125 509.910156 296.070312 509.742188 296.40625 C 509.316406 297.277344 509.292969 298.457031 509.292969 299.074219 C 509.292969 299.859375 509.328125 301.066406 509.898438 302.019531 C 510.445312 302.902344 511.328125 303.128906 511.960938 303.128906 C 512.53125 303.128906 513.558594 302.949219 514.15625 301.769531 C 514.59375 300.910156 514.628906 299.847656 514.628906 299.074219 Z M 513.570312 298.933594 C 513.570312 299.636719 513.570312 300.707031 513.425781 301.375 C 513.175781 302.625 512.355469 302.792969 511.960938 302.792969 C 511.554688 302.792969 510.734375 302.601562 510.480469 301.351562 C 510.351562 300.671875 510.351562 299.550781 510.351562 298.933594 C 510.351562 298.109375 510.351562 297.277344 510.480469 296.621094 C 510.734375 295.402344 511.664062 295.285156 511.960938 295.285156 C 512.367188 295.285156 513.1875 295.488281 513.425781 296.570312 C 513.570312 297.226562 513.570312 298.121094 513.570312 298.933594 Z M 513.570312 298.933594 "/>
<path style=" stroke:none;fill-rule:evenodd;fill:rgb(0%,0%,0%);fill-opacity:1;" d="M 519.5 284 C 519.5 283.335938 519.238281 282.699219 518.769531 282.230469 C 518.300781 281.761719 517.664062 281.5 517 281.5 C 516.335938 281.5 515.699219 281.761719 515.230469 282.230469 C 514.761719 282.699219 514.5 283.335938 514.5 284 C 514.5 284.664062 514.761719 285.300781 515.230469 285.769531 C 515.699219 286.238281 516.335938 286.5 517 286.5 C 517.664062 286.5 518.300781 286.238281 518.769531 285.769531 C 519.238281 285.300781 519.5 284.664062 519.5 284 Z M 519.5 284 "/>
<path style=" stroke:none;fill-rule:evenodd;fill:rgb(0%,0%,0%);fill-opacity:1;" d="M 293.417969 300.175781 L 293.417969 299.410156 L 292.164062 299.410156 L 289.144531 295.761719 L 291.21875 293.382812 C 291.414062 293.152344 291.578125 293.007812 293.058594 293.007812 L 293.058594 292.238281 L 291.414062 292.273438 C 290.898438 292.273438 290.128906 292.273438 289.625 292.238281 L 289.625 293.007812 C 289.964844 293.007812 290.339844 293.097656 290.339844 293.222656 C 290.339844 293.222656 290.253906 293.382812 290.21875 293.417969 L 288.660156 295.171875 L 286.890625 293.007812 L 287.640625 293.007812 L 287.640625 292.238281 C 287.230469 292.273438 286.015625 292.273438 285.53125 292.273438 C 284.996094 292.273438 284.03125 292.273438 283.527344 292.238281 L 283.527344 293.007812 L 284.800781 293.007812 L 287.589844 296.40625 L 285.261719 299.035156 C 285.050781 299.285156 284.925781 299.410156 283.441406 299.410156 L 283.441406 300.175781 L 285.105469 300.140625 C 285.621094 300.140625 286.371094 300.140625 286.875 300.175781 L 286.875 299.410156 C 286.535156 299.410156 286.160156 299.320312 286.160156 299.191406 C 286.160156 299.191406 286.160156 299.15625 286.28125 299.015625 L 288.070312 296.996094 L 290.054688 299.410156 L 289.304688 299.410156 L 289.304688 300.175781 C 289.734375 300.140625 290.933594 300.140625 291.433594 300.140625 C 291.96875 300.140625 292.917969 300.140625 293.417969 300.175781 Z M 293.417969 300.175781 "/>
<path style=" stroke:none;fill-rule:evenodd;fill:rgb(0%,0%,0%);fill-opacity:1;" d="M 299.726562 300.921875 L 299.726562 300.527344 L 298.464844 300.527344 L 298.464844 295.164062 C 298.464844 294.929688 298.464844 294.832031 298.214844 294.832031 C 298.058594 294.832031 298.046875 294.84375 297.929688 295.011719 L 294.125 300.527344 L 294.125 300.921875 L 297.488281 300.921875 L 297.488281 301.910156 C 297.488281 302.351562 297.453125 302.484375 296.535156 302.484375 L 296.257812 302.484375 L 296.257812 302.878906 L 297.976562 302.84375 L 299.691406 302.878906 L 299.691406 302.484375 L 299.417969 302.484375 C 298.5 302.484375 298.464844 302.351562 298.464844 301.910156 L 298.464844 300.921875 Z M 297.570312 300.527344 L 294.542969 300.527344 L 297.570312 296.128906 Z M 297.570312 300.527344 "/>
<path style=" stroke:none;fill-rule:evenodd;fill:rgb(0%,0%,0%);fill-opacity:1;" d="M 284.5 284 C 284.5 283.335938 284.238281 282.699219 283.769531 282.230469 C 283.300781 281.761719 282.664062 281.5 282 281.5 C 281.335938 281.5 280.699219 281.761719 280.230469 282.230469 C 279.761719 282.699219 279.5 283.335938 279.5 284 C 279.5 284.664062 279.761719 285.300781 280.230469 285.769531 C 280.699219 286.238281 281.335938 286.5 282 286.5 C 282.664062 286.5 283.300781 286.238281 283.769531 285.769531 C 284.238281 285.300781 284.5 284.664062 284.5 284 Z M 284.5 284 "/>
<path style=" stroke:none;fill-rule:evenodd;fill:rgb(0%,0%,0%);fill-opacity:1;" d="M 118.242188 272.324219 C 118.242188 272.246094 118.179688 272.183594 118.085938 272.183594 C 117.949219 272.183594 117.933594 272.261719 117.871094 272.492188 C 117.59375 273.5625 117.3125 274.382812 116.695312 274.382812 C 116.230469 274.382812 116.230469 273.890625 116.230469 273.671875 C 116.230469 273.609375 116.230469 273.285156 116.335938 272.847656 L 118.523438 264.171875 C 118.535156 264.109375 118.570312 264.019531 118.570312 263.941406 C 118.570312 263.785156 118.382812 263.785156 118.382812 263.785156 L 117.53125 263.863281 C 117.265625 263.878906 117.035156 263.90625 116.753906 263.925781 C 116.382812 263.953125 116.277344 263.972656 116.277344 264.25 C 116.277344 264.40625 116.429688 264.40625 116.585938 264.40625 C 117.375 264.40625 117.375 264.542969 117.375 264.699219 C 117.375 264.761719 117.375 264.792969 117.296875 265.070312 L 115.375 272.757812 C 115.328125 272.929688 115.300781 273.050781 115.300781 273.300781 C 115.300781 274.074219 115.871094 274.691406 116.660156 274.691406 C 117.171875 274.691406 117.515625 274.351562 117.761719 273.871094 C 118.027344 273.359375 118.242188 272.386719 118.242188 272.324219 Z M 118.242188 272.324219 "/>
<path style=" stroke:none;fill-rule:evenodd;fill:rgb(0%,0%,0%);fill-opacity:1;" d="M 124.1875 273.585938 C 124.1875 272.476562 124.074219 271.808594 123.730469 271.144531 C 123.277344 270.238281 122.441406 270.007812 121.875 270.007812 C 120.570312 270.007812 120.097656 270.980469 119.953125 271.269531 C 119.582031 272.023438 119.558594 273.046875 119.558594 273.585938 C 119.558594 274.265625 119.589844 275.308594 120.085938 276.136719 C 120.5625 276.898438 121.324219 277.097656 121.875 277.097656 C 122.371094 277.097656 123.257812 276.941406 123.773438 275.917969 C 124.15625 275.175781 124.1875 274.253906 124.1875 273.585938 Z M 123.265625 273.460938 C 123.265625 274.070312 123.265625 274.996094 123.144531 275.578125 C 122.929688 276.660156 122.214844 276.804688 121.875 276.804688 C 121.523438 276.804688 120.808594 276.640625 120.59375 275.554688 C 120.476562 274.96875 120.476562 273.996094 120.476562 273.460938 C 120.476562 272.746094 120.476562 272.023438 120.59375 271.457031 C 120.808594 270.402344 121.617188 270.296875 121.875 270.296875 C 122.226562 270.296875 122.9375 270.476562 123.144531 271.414062 C 123.265625 271.980469 123.265625 272.757812 123.265625 273.460938 Z M 123.265625 273.460938 "/>
<path style=" stroke:none;fill-rule:evenodd;fill:rgb(0%,0%,0%);fill-opacity:1;" d="M 230.640625 264.789062 C 230.640625 264.714844 230.578125 264.652344 230.484375 264.652344 C 230.347656 264.652344 230.332031 264.730469 230.269531 264.960938 C 229.988281 266.03125 229.710938 266.851562 229.089844 266.851562 C 228.625 266.851562 228.625 266.355469 228.625 266.140625 C 228.625 266.078125 228.625 265.75 228.734375 265.316406 L 230.917969 256.640625 C 230.933594 256.578125 230.964844 256.484375 230.964844 256.410156 C 230.964844 256.253906 230.78125 256.253906 230.78125 256.253906 L 229.929688 256.332031 C 229.664062 256.34375 229.429688 256.375 229.152344 256.390625 C 228.78125 256.421875 228.671875 256.4375 228.671875 256.71875 C 228.671875 256.875 228.828125 256.875 228.980469 256.875 C 229.773438 256.875 229.773438 257.011719 229.773438 257.167969 C 229.773438 257.230469 229.773438 257.257812 229.695312 257.539062 L 227.773438 265.226562 C 227.726562 265.394531 227.695312 265.519531 227.695312 265.769531 C 227.695312 266.542969 228.269531 267.160156 229.058594 267.160156 C 229.570312 267.160156 229.914062 266.820312 230.160156 266.339844 C 230.425781 265.828125 230.640625 264.855469 230.640625 264.789062 Z M 230.640625 264.789062 "/>
<path style=" stroke:none;fill-rule:evenodd;fill:rgb(0%,0%,0%);fill-opacity:1;" d="M 236.148438 269.347656 L 236.148438 269.003906 L 235.789062 269.003906 C 234.808594 269.003906 234.777344 268.882812 234.777344 268.5 L 234.777344 262.765625 C 234.777344 262.488281 234.757812 262.476562 234.476562 262.476562 C 234.054688 262.890625 233.503906 263.136719 232.523438 263.136719 L 232.523438 263.480469 C 232.804688 263.480469 233.359375 263.480469 233.960938 263.199219 L 233.960938 268.5 C 233.960938 268.882812 233.929688 269.003906 232.949219 269.003906 L 232.585938 269.003906 L 232.585938 269.347656 C 233.007812 269.316406 233.898438 269.316406 234.363281 269.316406 C 234.828125 269.316406 235.726562 269.316406 236.148438 269.347656 Z M 236.148438 269.347656 "/>
<path style=" stroke:none;fill-rule:evenodd;fill:rgb(0%,0%,0%);fill-opacity:1;" d="M 258.972656 247.109375 C 258.972656 247.03125 258.914062 246.96875 258.820312 246.96875 C 258.679688 246.96875 258.664062 247.046875 258.601562 247.28125 C 258.324219 248.347656 258.046875 249.171875 257.425781 249.171875 C 256.960938 249.171875 256.960938 248.675781 256.960938 248.457031 C 256.960938 248.394531 256.960938 248.070312 257.066406 247.636719 L 259.253906 238.957031 C 259.269531 238.898438 259.300781 238.804688 259.300781 238.726562 C 259.300781 238.570312 259.113281 238.570312 259.113281 238.570312 L 258.261719 238.648438 C 258 238.664062 257.765625 238.695312 257.488281 238.710938 C 257.113281 238.742188 257.007812 238.757812 257.007812 239.035156 C 257.007812 239.191406 257.160156 239.191406 257.316406 239.191406 C 258.105469 239.191406 258.105469 239.328125 258.105469 239.484375 C 258.105469 239.546875 258.105469 239.578125 258.027344 239.859375 L 256.109375 247.542969 C 256.0625 247.714844 256.03125 247.839844 256.03125 248.085938 C 256.03125 248.859375 256.601562 249.480469 257.394531 249.480469 C 257.90625 249.480469 258.246094 249.136719 258.492188 248.660156 C 258.757812 248.148438 258.972656 247.171875 258.972656 247.109375 Z M 258.972656 247.109375 "/>
<path style=" stroke:none;fill-rule:evenodd;fill:rgb(0%,0%,0%);fill-opacity:1;" d="M 264.792969 249.816406 L 264.472656 249.816406 C 264.441406 250.019531 264.359375 250.539062 264.234375 250.734375 C 264.175781 250.816406 263.390625 250.816406 263.222656 250.816406 L 261.386719 250.816406 L 262.78125 249.554688 C 262.945312 249.402344 263.378906 249.0625 263.546875 248.917969 C 264.183594 248.328125 264.792969 247.757812 264.792969 246.820312 C 264.792969 245.589844 263.761719 244.796875 262.472656 244.796875 C 261.230469 244.796875 260.414062 245.734375 260.414062 246.652344 C 260.414062 247.160156 260.816406 247.234375 260.960938 247.234375 C 261.179688 247.234375 261.5 247.078125 261.5 246.6875 C 261.5 246.148438 260.980469 246.148438 260.859375 246.148438 C 261.160156 245.394531 261.851562 245.136719 262.355469 245.136719 C 263.316406 245.136719 263.8125 245.949219 263.8125 246.820312 C 263.8125 247.894531 263.058594 248.679688 261.839844 249.929688 L 260.539062 251.273438 C 260.414062 251.386719 260.414062 251.40625 260.414062 251.664062 L 264.496094 251.664062 Z M 264.792969 249.816406 "/>
<path style=" stroke:none;fill-rule:evenodd;fill:rgb(0%,0%,0%);fill-opacity:1;" d="M 280.757812 208.871094 C 280.757812 208.796875 280.695312 208.730469 280.601562 208.730469 C 280.464844 208.730469 280.449219 208.8125 280.386719 209.042969 C 280.105469 210.113281 279.828125 210.933594 279.210938 210.933594 C 278.746094 210.933594 278.746094 210.4375 278.746094 210.222656 C 278.746094 210.15625 278.746094 209.832031 278.851562 209.398438 L 281.039062 200.722656 C 281.050781 200.660156 281.085938 200.566406 281.085938 200.488281 C 281.085938 200.332031 280.898438 200.332031 280.898438 200.332031 L 280.046875 200.414062 C 279.78125 200.425781 279.546875 200.457031 279.269531 200.472656 C 278.898438 200.503906 278.792969 200.519531 278.792969 200.800781 C 278.792969 200.957031 278.945312 200.957031 279.101562 200.957031 C 279.890625 200.957031 279.890625 201.09375 279.890625 201.25 C 279.890625 201.3125 279.890625 201.339844 279.8125 201.621094 L 277.890625 209.308594 C 277.84375 209.476562 277.8125 209.601562 277.8125 209.847656 C 277.8125 210.625 278.386719 211.242188 279.175781 211.242188 C 279.6875 211.242188 280.03125 210.902344 280.277344 210.421875 C 280.542969 209.910156 280.757812 208.933594 280.757812 208.871094 Z M 280.757812 208.871094 "/>
<path style=" stroke:none;fill-rule:evenodd;fill:rgb(0%,0%,0%);fill-opacity:1;" d="M 286.671875 211.660156 C 286.671875 210.804688 285.988281 210.019531 284.933594 209.792969 C 285.75 209.503906 286.359375 208.800781 286.359375 207.976562 C 286.359375 207.148438 285.429688 206.558594 284.359375 206.558594 C 283.25 206.558594 282.414062 207.15625 282.414062 207.941406 C 282.414062 208.324219 282.675781 208.492188 282.941406 208.492188 C 283.261719 208.492188 283.46875 208.261719 283.46875 207.960938 C 283.46875 207.582031 283.136719 207.4375 282.910156 207.425781 C 283.34375 206.859375 284.140625 206.828125 284.324219 206.828125 C 284.597656 206.828125 285.378906 206.910156 285.378906 207.976562 C 285.378906 208.699219 285.082031 209.128906 284.933594 209.296875 C 284.625 209.617188 284.390625 209.636719 283.757812 209.679688 C 283.5625 209.6875 283.480469 209.699219 283.480469 209.832031 C 283.480469 209.976562 283.574219 209.976562 283.746094 209.976562 L 284.265625 209.976562 C 285.082031 209.976562 285.597656 210.578125 285.597656 211.660156 C 285.597656 212.953125 284.863281 213.335938 284.316406 213.335938 C 283.746094 213.335938 282.972656 213.128906 282.613281 212.582031 C 282.984375 212.582031 283.242188 212.34375 283.242188 212.003906 C 283.242188 211.671875 283.003906 211.433594 282.675781 211.433594 C 282.394531 211.433594 282.105469 211.609375 282.105469 212.023438 C 282.105469 213.003906 283.160156 213.644531 284.335938 213.644531 C 285.710938 213.644531 286.671875 212.695312 286.671875 211.660156 Z M 286.671875 211.660156 "/>
<path style=" stroke:none;fill-rule:evenodd;fill:rgb(0%,0%,0%);fill-opacity:1;" d="M 318.46875 176.636719 C 318.46875 176.5625 318.40625 176.496094 318.3125 176.496094 C 318.175781 176.496094 318.160156 176.578125 318.097656 176.808594 C 317.820312 177.875 317.539062 178.699219 316.921875 178.699219 C 316.457031 178.699219 316.457031 178.203125 316.457031 177.988281 C 316.457031 177.921875 316.457031 177.597656 316.5625 177.164062 L 318.75 168.488281 C 318.761719 168.425781 318.796875 168.332031 318.796875 168.253906 C 318.796875 168.097656 318.609375 168.097656 318.609375 168.097656 L 317.757812 168.179688 C 317.492188 168.191406 317.261719 168.222656 316.980469 168.238281 C 316.609375 168.269531 316.503906 168.285156 316.503906 168.566406 C 316.503906 168.722656 316.65625 168.722656 316.8125 168.722656 C 317.601562 168.722656 317.601562 168.859375 317.601562 169.015625 C 317.601562 169.078125 317.601562 169.105469 317.523438 169.386719 L 315.601562 177.074219 C 315.554688 177.242188 315.527344 177.367188 315.527344 177.613281 C 315.527344 178.386719 316.097656 179.007812 316.886719 179.007812 C 317.402344 179.007812 317.742188 178.667969 317.988281 178.1875 C 318.253906 177.675781 318.46875 176.699219 318.46875 176.636719 Z M 318.46875 176.636719 "/>
<path style=" stroke:none;fill-rule:evenodd;fill:rgb(0%,0%,0%);fill-opacity:1;" d="M 326.964844 178.609375 C 326.964844 178.375 326.738281 178.375 326.59375 178.375 L 320.652344 178.375 C 320.511719 178.375 320.28125 178.375 320.28125 178.609375 C 320.28125 178.847656 320.511719 178.847656 320.652344 178.847656 L 326.59375 178.847656 C 326.738281 178.847656 326.964844 178.847656 326.964844 178.609375 Z M 326.964844 178.609375 "/>
<path style=" stroke:none;fill-rule:evenodd;fill:rgb(0%,0%,0%);fill-opacity:1;" d="M 332.867188 179.34375 L 332.546875 179.34375 C 332.515625 179.550781 332.433594 180.066406 332.308594 180.261719 C 332.25 180.347656 331.464844 180.347656 331.296875 180.347656 L 329.460938 180.347656 L 330.855469 179.085938 C 331.019531 178.929688 331.453125 178.589844 331.621094 178.445312 C 332.257812 177.855469 332.867188 177.289062 332.867188 176.347656 C 332.867188 175.117188 331.835938 174.324219 330.546875 174.324219 C 329.304688 174.324219 328.488281 175.265625 328.488281 176.183594 C 328.488281 176.6875 328.890625 176.761719 329.035156 176.761719 C 329.253906 176.761719 329.574219 176.605469 329.574219 176.214844 C 329.574219 175.675781 329.054688 175.675781 328.933594 175.675781 C 329.234375 174.921875 329.925781 174.664062 330.429688 174.664062 C 331.390625 174.664062 331.886719 175.480469 331.886719 176.347656 C 331.886719 177.421875 331.132812 178.207031 329.914062 179.457031 L 328.613281 180.800781 C 328.488281 180.914062 328.488281 180.933594 328.488281 181.195312 L 332.570312 181.195312 Z M 332.867188 179.34375 "/>
<path style=" stroke:none;fill-rule:evenodd;fill:rgb(0%,0%,0%);fill-opacity:1;" d="M 347.847656 158.234375 C 347.847656 158.15625 347.785156 158.09375 347.695312 158.09375 C 347.554688 158.09375 347.539062 158.171875 347.476562 158.40625 C 347.199219 159.472656 346.917969 160.296875 346.300781 160.296875 C 345.835938 160.296875 345.835938 159.800781 345.835938 159.582031 C 345.835938 159.519531 345.835938 159.195312 345.941406 158.761719 L 348.128906 150.082031 C 348.140625 150.023438 348.175781 149.929688 348.175781 149.851562 C 348.175781 149.695312 347.988281 149.695312 347.988281 149.695312 L 347.136719 149.773438 C 346.871094 149.789062 346.640625 149.820312 346.359375 149.835938 C 345.988281 149.867188 345.882812 149.882812 345.882812 150.160156 C 345.882812 150.316406 346.035156 150.316406 346.191406 150.316406 C 346.980469 150.316406 346.980469 150.457031 346.980469 150.613281 C 346.980469 150.671875 346.980469 150.703125 346.902344 150.984375 L 344.980469 158.667969 C 344.933594 158.839844 344.90625 158.964844 344.90625 159.210938 C 344.90625 159.984375 345.476562 160.605469 346.269531 160.605469 C 346.78125 160.605469 347.121094 160.261719 347.367188 159.785156 C 347.632812 159.273438 347.847656 158.296875 347.847656 158.234375 Z M 347.847656 158.234375 "/>
<path style=" stroke:none;fill-rule:evenodd;fill:rgb(0%,0%,0%);fill-opacity:1;" d="M 353.667969 160.941406 L 353.347656 160.941406 C 353.316406 161.148438 353.234375 161.664062 353.109375 161.859375 C 353.050781 161.941406 352.261719 161.941406 352.097656 161.941406 L 350.261719 161.941406 L 351.652344 160.683594 C 351.820312 160.527344 352.253906 160.1875 352.417969 160.042969 C 353.058594 159.453125 353.667969 158.882812 353.667969 157.945312 C 353.667969 156.714844 352.636719 155.921875 351.34375 155.921875 C 350.105469 155.921875 349.289062 156.859375 349.289062 157.78125 C 349.289062 158.285156 349.691406 158.359375 349.835938 158.359375 C 350.054688 158.359375 350.375 158.203125 350.375 157.8125 C 350.375 157.273438 349.855469 157.273438 349.734375 157.273438 C 350.035156 156.519531 350.726562 156.261719 351.230469 156.261719 C 352.191406 156.261719 352.6875 157.078125 352.6875 157.945312 C 352.6875 159.019531 351.933594 159.804688 350.714844 161.054688 L 349.414062 162.398438 C 349.289062 162.511719 349.289062 162.53125 349.289062 162.789062 L 353.371094 162.789062 Z M 353.667969 160.941406 "/>
<path style=" stroke:none;fill-rule:evenodd;fill:rgb(0%,0%,0%);fill-opacity:1;" d="M 414.507812 158.160156 C 414.507812 158.082031 414.449219 158.019531 414.355469 158.019531 C 414.214844 158.019531 414.199219 158.101562 414.136719 158.332031 C 413.859375 159.398438 413.582031 160.222656 412.960938 160.222656 C 412.496094 160.222656 412.496094 159.726562 412.496094 159.507812 C 412.496094 159.445312 412.496094 159.121094 412.601562 158.6875 L 414.789062 150.011719 C 414.804688 149.949219 414.835938 149.855469 414.835938 149.777344 C 414.835938 149.621094 414.648438 149.621094 414.648438 149.621094 L 413.796875 149.703125 C 413.535156 149.714844 413.300781 149.746094 413.023438 149.761719 C 412.648438 149.792969 412.542969 149.808594 412.542969 150.085938 C 412.542969 150.242188 412.695312 150.242188 412.851562 150.242188 C 413.640625 150.242188 413.640625 150.382812 413.640625 150.539062 C 413.640625 150.597656 413.640625 150.628906 413.5625 150.910156 L 411.644531 158.59375 C 411.597656 158.765625 411.566406 158.890625 411.566406 159.136719 C 411.566406 159.910156 412.136719 160.53125 412.929688 160.53125 C 413.441406 160.53125 413.78125 160.191406 414.027344 159.710938 C 414.292969 159.199219 414.507812 158.222656 414.507812 158.160156 Z M 414.507812 158.160156 "/>
<path style=" stroke:none;fill-rule:evenodd;fill:rgb(0%,0%,0%);fill-opacity:1;" d="M 423.003906 160.132812 C 423.003906 159.898438 422.777344 159.898438 422.632812 159.898438 L 416.695312 159.898438 C 416.550781 159.898438 416.320312 159.898438 416.320312 160.132812 C 416.320312 160.371094 416.550781 160.371094 416.695312 160.371094 L 422.632812 160.371094 C 422.777344 160.371094 423.003906 160.371094 423.003906 160.132812 Z M 423.003906 160.132812 "/>
<path style=" stroke:none;fill-rule:evenodd;fill:rgb(0%,0%,0%);fill-opacity:1;" d="M 429 160.949219 C 429 160.09375 428.320312 159.308594 427.265625 159.082031 C 428.082031 158.789062 428.691406 158.085938 428.691406 157.261719 C 428.691406 156.4375 427.761719 155.847656 426.6875 155.847656 C 425.582031 155.847656 424.746094 156.445312 424.746094 157.230469 C 424.746094 157.613281 425.003906 157.777344 425.273438 157.777344 C 425.59375 157.777344 425.800781 157.550781 425.800781 157.25 C 425.800781 156.867188 425.46875 156.726562 425.242188 156.714844 C 425.675781 156.144531 426.472656 156.117188 426.65625 156.117188 C 426.925781 156.117188 427.710938 156.199219 427.710938 157.261719 C 427.710938 157.984375 427.410156 158.417969 427.265625 158.585938 C 426.957031 158.902344 426.71875 158.925781 426.089844 158.96875 C 425.890625 158.976562 425.808594 158.988281 425.808594 159.121094 C 425.808594 159.265625 425.902344 159.265625 426.078125 159.265625 L 426.59375 159.265625 C 427.410156 159.265625 427.925781 159.863281 427.925781 160.949219 C 427.925781 162.242188 427.195312 162.621094 426.644531 162.621094 C 426.078125 162.621094 425.304688 162.417969 424.941406 161.871094 C 425.3125 161.871094 425.570312 161.632812 425.570312 161.289062 C 425.570312 160.960938 425.332031 160.722656 425.003906 160.722656 C 424.722656 160.722656 424.4375 160.898438 424.4375 161.3125 C 424.4375 162.292969 425.488281 162.933594 426.667969 162.933594 C 428.042969 162.933594 429 161.984375 429 160.949219 Z M 429 160.949219 "/>
<path style=" stroke:none;fill-rule:evenodd;fill:rgb(0%,0%,0%);fill-opacity:1;" d="M 451.128906 173.460938 C 451.128906 173.382812 451.066406 173.320312 450.976562 173.320312 C 450.835938 173.320312 450.820312 173.398438 450.757812 173.632812 C 450.480469 174.699219 450.199219 175.523438 449.582031 175.523438 C 449.117188 175.523438 449.117188 175.027344 449.117188 174.808594 C 449.117188 174.746094 449.117188 174.421875 449.222656 173.988281 L 451.410156 165.308594 C 451.421875 165.25 451.457031 165.15625 451.457031 165.078125 C 451.457031 164.921875 451.269531 164.921875 451.269531 164.921875 L 450.417969 165 C 450.152344 165.015625 449.921875 165.046875 449.640625 165.0625 C 449.269531 165.09375 449.164062 165.109375 449.164062 165.386719 C 449.164062 165.542969 449.316406 165.542969 449.472656 165.542969 C 450.261719 165.542969 450.261719 165.683594 450.261719 165.839844 C 450.261719 165.898438 450.261719 165.929688 450.183594 166.210938 L 448.261719 173.894531 C 448.214844 174.066406 448.1875 174.191406 448.1875 174.4375 C 448.1875 175.210938 448.757812 175.832031 449.546875 175.832031 C 450.0625 175.832031 450.402344 175.488281 450.648438 175.011719 C 450.914062 174.5 451.128906 173.523438 451.128906 173.460938 Z M 451.128906 173.460938 "/>
<path style=" stroke:none;fill-rule:evenodd;fill:rgb(0%,0%,0%);fill-opacity:1;" d="M 456.640625 178.015625 L 456.640625 177.675781 L 456.277344 177.675781 C 455.296875 177.675781 455.265625 177.550781 455.265625 177.167969 L 455.265625 171.4375 C 455.265625 171.15625 455.246094 171.148438 454.96875 171.148438 C 454.542969 171.558594 453.996094 171.808594 453.015625 171.808594 L 453.015625 172.148438 C 453.292969 172.148438 453.851562 172.148438 454.449219 171.871094 L 454.449219 177.167969 C 454.449219 177.550781 454.417969 177.675781 453.4375 177.675781 L 453.078125 177.675781 L 453.078125 178.015625 C 453.5 177.984375 454.390625 177.984375 454.855469 177.984375 C 455.316406 177.984375 456.21875 177.984375 456.640625 178.015625 Z M 456.640625 178.015625 "/>
<path style=" stroke:none;fill-rule:evenodd;fill:rgb(0%,0%,0%);fill-opacity:1;" d="M 502.765625 218.621094 C 502.765625 218.542969 502.703125 218.480469 502.609375 218.480469 C 502.472656 218.480469 502.457031 218.558594 502.394531 218.792969 C 502.113281 219.859375 501.835938 220.683594 501.214844 220.683594 C 500.75 220.683594 500.75 220.1875 500.75 219.96875 C 500.75 219.90625 500.75 219.582031 500.859375 219.148438 L 503.042969 210.46875 C 503.058594 210.410156 503.089844 210.316406 503.089844 210.238281 C 503.089844 210.082031 502.90625 210.082031 502.90625 210.082031 L 502.054688 210.160156 C 501.789062 210.175781 501.554688 210.207031 501.277344 210.222656 C 500.90625 210.253906 500.796875 210.269531 500.796875 210.546875 C 500.796875 210.703125 500.953125 210.703125 501.105469 210.703125 C 501.898438 210.703125 501.898438 210.84375 501.898438 211 C 501.898438 211.058594 501.898438 211.089844 501.820312 211.371094 L 499.898438 219.054688 C 499.851562 219.226562 499.820312 219.351562 499.820312 219.597656 C 499.820312 220.371094 500.394531 220.992188 501.183594 220.992188 C 501.695312 220.992188 502.039062 220.648438 502.285156 220.171875 C 502.550781 219.660156 502.765625 218.683594 502.765625 218.621094 Z M 502.765625 218.621094 "/>
<path style=" stroke:none;fill-rule:evenodd;fill:rgb(0%,0%,0%);fill-opacity:1;" d="M 511.261719 220.59375 C 511.261719 220.355469 511.03125 220.355469 510.886719 220.355469 L 504.949219 220.355469 C 504.804688 220.355469 504.578125 220.355469 504.578125 220.59375 C 504.578125 220.832031 504.804688 220.832031 504.949219 220.832031 L 510.886719 220.832031 C 511.03125 220.832031 511.261719 220.832031 511.261719 220.59375 Z M 511.261719 220.59375 "/>
<path style=" stroke:none;fill-rule:evenodd;fill:rgb(0%,0%,0%);fill-opacity:1;" d="M 517.402344 221.484375 L 517.402344 221.140625 L 516.308594 221.140625 L 516.308594 216.492188 C 516.308594 216.289062 516.308594 216.203125 516.089844 216.203125 C 515.957031 216.203125 515.945312 216.214844 515.84375 216.359375 L 512.546875 221.140625 L 512.546875 221.484375 L 515.460938 221.484375 L 515.460938 222.339844 C 515.460938 222.722656 515.429688 222.835938 514.632812 222.835938 L 514.394531 222.835938 L 514.394531 223.175781 L 515.882812 223.144531 L 517.371094 223.175781 L 517.371094 222.835938 L 517.132812 222.835938 C 516.335938 222.835938 516.308594 222.722656 516.308594 222.339844 L 516.308594 221.484375 Z M 515.53125 221.140625 L 512.910156 221.140625 L 515.53125 217.328125 Z M 515.53125 221.140625 "/>
<path style=" stroke:none;fill-rule:evenodd;fill:rgb(0%,0%,0%);fill-opacity:1;" d="M 533.421875 265.675781 C 533.421875 265.597656 533.359375 265.535156 533.265625 265.535156 C 533.128906 265.535156 533.113281 265.613281 533.050781 265.84375 C 532.769531 266.914062 532.492188 267.734375 531.875 267.734375 C 531.410156 267.734375 531.410156 267.238281 531.410156 267.023438 C 531.410156 266.960938 531.410156 266.632812 531.515625 266.199219 L 533.703125 257.523438 C 533.714844 257.460938 533.75 257.367188 533.75 257.292969 C 533.75 257.136719 533.5625 257.136719 533.5625 257.136719 L 532.710938 257.214844 C 532.445312 257.230469 532.210938 257.257812 531.933594 257.277344 C 531.5625 257.304688 531.457031 257.324219 531.457031 257.601562 C 531.457031 257.757812 531.609375 257.757812 531.765625 257.757812 C 532.554688 257.757812 532.554688 257.894531 532.554688 258.050781 C 532.554688 258.113281 532.554688 258.144531 532.476562 258.421875 L 530.554688 266.109375 C 530.507812 266.277344 530.476562 266.402344 530.476562 266.652344 C 530.476562 267.425781 531.050781 268.042969 531.839844 268.042969 C 532.351562 268.042969 532.695312 267.703125 532.941406 267.222656 C 533.207031 266.710938 533.421875 265.738281 533.421875 265.675781 Z M 533.421875 265.675781 "/>
<path style=" stroke:none;fill-rule:evenodd;fill:rgb(0%,0%,0%);fill-opacity:1;" d="M 541.917969 267.644531 C 541.917969 267.410156 541.6875 267.410156 541.546875 267.410156 L 535.605469 267.410156 C 535.460938 267.410156 535.234375 267.410156 535.234375 267.644531 C 535.234375 267.882812 535.460938 267.882812 535.605469 267.882812 L 541.546875 267.882812 C 541.6875 267.882812 541.917969 267.882812 541.917969 267.644531 Z M 541.917969 267.644531 "/>
<path style=" stroke:none;fill-rule:evenodd;fill:rgb(0%,0%,0%);fill-opacity:1;" d="M 547.820312 268.382812 L 547.5 268.382812 C 547.46875 268.585938 547.386719 269.105469 547.261719 269.300781 C 547.203125 269.382812 546.414062 269.382812 546.25 269.382812 L 544.414062 269.382812 L 545.804688 268.121094 C 545.972656 267.96875 546.40625 267.625 546.570312 267.480469 C 547.210938 266.894531 547.820312 266.324219 547.820312 265.386719 C 547.820312 264.15625 546.789062 263.359375 545.496094 263.359375 C 544.257812 263.359375 543.441406 264.300781 543.441406 265.21875 C 543.441406 265.726562 543.84375 265.796875 543.988281 265.796875 C 544.207031 265.796875 544.527344 265.644531 544.527344 265.25 C 544.527344 264.714844 544.007812 264.714844 543.886719 264.714844 C 544.1875 263.960938 544.878906 263.703125 545.382812 263.703125 C 546.34375 263.703125 546.839844 264.515625 546.839844 265.386719 C 546.839844 266.460938 546.085938 267.242188 544.867188 268.496094 L 543.566406 269.835938 C 543.441406 269.953125 543.441406 269.972656 543.441406 270.230469 L 547.523438 270.230469 Z M 547.820312 268.382812 "/>
<path style=" stroke:none;fill-rule:evenodd;fill:rgb(0%,0%,0%);fill-opacity:1;" d="M 662.886719 272.324219 C 662.886719 272.246094 662.828125 272.183594 662.734375 272.183594 C 662.597656 272.183594 662.578125 272.261719 662.515625 272.492188 C 662.238281 273.5625 661.960938 274.382812 661.339844 274.382812 C 660.875 274.382812 660.875 273.890625 660.875 273.671875 C 660.875 273.609375 660.875 273.285156 660.984375 272.847656 L 663.167969 264.171875 C 663.183594 264.109375 663.214844 264.019531 663.214844 263.941406 C 663.214844 263.785156 663.027344 263.785156 663.027344 263.785156 L 662.175781 263.863281 C 661.914062 263.878906 661.679688 263.90625 661.402344 263.925781 C 661.03125 263.953125 660.921875 263.972656 660.921875 264.25 C 660.921875 264.40625 661.078125 264.40625 661.230469 264.40625 C 662.019531 264.40625 662.019531 264.542969 662.019531 264.699219 C 662.019531 264.761719 662.019531 264.792969 661.945312 265.070312 L 660.023438 272.757812 C 659.976562 272.929688 659.945312 273.050781 659.945312 273.300781 C 659.945312 274.074219 660.519531 274.691406 661.308594 274.691406 C 661.820312 274.691406 662.160156 274.351562 662.410156 273.871094 C 662.671875 273.359375 662.886719 272.386719 662.886719 272.324219 Z M 662.886719 272.324219 "/>
<path style=" stroke:none;fill-rule:evenodd;fill:rgb(0%,0%,0%);fill-opacity:1;" d="M 668.832031 273.585938 C 668.832031 272.476562 668.71875 271.808594 668.378906 271.144531 C 667.925781 270.238281 667.089844 270.007812 666.519531 270.007812 C 665.21875 270.007812 664.742188 270.980469 664.597656 271.269531 C 664.226562 272.023438 664.207031 273.046875 664.207031 273.585938 C 664.207031 274.265625 664.238281 275.308594 664.734375 276.136719 C 665.207031 276.898438 665.972656 277.097656 666.519531 277.097656 C 667.015625 277.097656 667.902344 276.941406 668.421875 275.917969 C 668.804688 275.175781 668.832031 274.253906 668.832031 273.585938 Z M 667.914062 273.460938 C 667.914062 274.070312 667.914062 274.996094 667.789062 275.578125 C 667.574219 276.660156 666.859375 276.804688 666.519531 276.804688 C 666.167969 276.804688 665.457031 276.640625 665.238281 275.554688 C 665.125 274.96875 665.125 273.996094 665.125 273.460938 C 665.125 272.746094 665.125 272.023438 665.238281 271.457031 C 665.457031 270.402344 666.261719 270.296875 666.519531 270.296875 C 666.871094 270.296875 667.585938 270.476562 667.789062 271.414062 C 667.914062 271.980469 667.914062 272.757812 667.914062 273.460938 Z M 667.914062 273.460938 "/>
</g>
</svg>
