<?xml version="1.0" encoding="UTF-8"?>
<svg xmlns="http://www.w3.org/2000/svg" xmlns:xlink="http://www.w3.org/1999/xlink" width="567pt" height="236pt" viewBox="0 0 567 236" version="1.1">
<defs>
<clipPath id="clip1">
  <path d="M 0 0 L 567 0 L 567 235.679688 L 0 235.679688 Z M 0 0 "/>
</clipPath>
<clipPath id="clip2">
  <path d="M 0 128 L 360 128 L 360 235.679688 L 0 235.679688 Z M 0 128 "/>
</clipPath>
<clipPath id="clip3">
  <path d="M 345 128 L 469 128 L 469 235.679688 L 345 235.679688 Z M 345 128 "/>
</clipPath>
<clipPath id="clip4">
  <path d="M 345 128 L 469 128 L 469 235.679688 L 345 235.679688 Z M 345 128 "/>
</clipPath>
<clipPath id="clip5">
  <path d="M 453 0 L 567 0 L 567 235.679688 L 453 235.679688 Z M 453 0 "/>
</clipPath>
<clipPath id="clip6">
  <path d="M 0 0 L 567 0 L 567 235.679688 L 0 235.679688 Z M 0 0 "/>
</clipPath>
<clipPath id="clip7">
  <path d="M 0 90 L 326 90 L 326 235.679688 L 0 235.679688 Z M 0 90 "/>
</clipPath>
<clipPath id="clip8">
  <path d="M 312 90 L 567 90 L 567 235.679688 L 312 235.679688 Z M 312 90 "/>
</clipPath>
<clipPath id="clip9">
  <path d="M 0 0 L 364 0 L 364 235.679688 L 0 235.679688 Z M 0 0 "/>
</clipPath>
<clipPath id="clip10">
  <path d="M 349 0 L 567 0 L 567 235.679688 L 349 235.679688 Z M 349 0 "/>
</clipPath>
<clipPath id="clip11">
  <path d="M 0 0 L 567 0 L 567 235.679688 L 0 235.679688 Z M 0 0 "/>
</clipPath>
<clipPath id="clip12">
  <path d="M 0 96 L 281 96 L 281 235.679688 L 0 235.679688 Z M 0 96 "/>
</clipPath>
<clipPath id="clip13">
  <path d="M 266 96 L 567 96 L 567 235.679688 L 266 235.679688 Z M 266 96 "/>
</clipPath>
<clipPath id="clip14">
  <path d="M 0 0 L 243 0 L 243 235.679688 L 0 235.679688 Z M 0 0 "/>
</clipPath>
<clipPath id="clip15">
  <path d="M 229 0 L 567 0 L 567 235.679688 L 229 235.679688 Z M 229 0 "/>
</clipPath>
<clipPath id="clip16">
  <path d="M 0 0 L 567 0 L 567 235.679688 L 0 235.679688 Z M 0 0 "/>
</clipPath>
<clipPath id="clip17">
  <path d="M 116 136 L 237 136 L 237 235.679688 L 116 235.679688 Z M 116 136 "/>
</clipPath>
<clipPath id="clip18">
  <path d="M 222 136 L 567 136 L 567 235.679688 L 222 235.679688 Z M 222 136 "/>
</clipPath>
<clipPath id="clip19">
  <path d="M 0 0 L 129 0 L 129 235.679688 L 0 235.679688 Z M 0 0 "/>
</clipPath>
</defs>
<g id="surface42">
<g clip-path="url(#clip1)" clip-rule="nonzero">
<path style=" stroke:none;fill-rule:nonzero;fill:rgb(74.999619%,74.999619%,74.999619%);fill-opacity:0.1;" d="M -287.757812 343.074219 L 352.546875 135.027344 L 560.589844 775.328125 L 720.667969 723.316406 L 460.609375 -77.0625 L -339.769531 182.996094 Z M -287.757812 343.074219 "/>
</g>
<g clip-path="url(#clip2)" clip-rule="nonzero">
<path style="fill:none;stroke-width:1.5;stroke-linecap:square;stroke-linejoin:miter;stroke:rgb(0%,0%,0%);stroke-opacity:0.1;stroke-miterlimit:3.25;" d="M -287.757812 343.074219 L 352.546875 135.027344 "/>
</g>
<g clip-path="url(#clip3)" clip-rule="nonzero">
<path style="fill:none;stroke-width:1.5;stroke-linecap:square;stroke-linejoin:miter;stroke:rgb(0%,0%,0%);stroke-opacity:0.1;stroke-miterlimit:3.25;" d="M 461.8125 471.320312 L 352.546875 135.027344 "/>
</g>
<path style=" stroke:none;fill-rule:nonzero;fill:rgb(0%,0%,0%);fill-opacity:0.1;" d="M 352.546875 135.027344 L 353.257812 135.738281 L 353.027344 134.082031 L 352.3125 134.3125 Z M 352.546875 135.027344 "/>
<g clip-path="url(#clip4)" clip-rule="nonzero">
<path style="fill:none;stroke-width:1.5;stroke-linecap:square;stroke-linejoin:miter;stroke:rgb(0%,0%,0%);stroke-opacity:0.1;stroke-miterlimit:3.25;" d="M 461.8125 471.320312 L 352.546875 135.027344 "/>
</g>
<path style=" stroke:none;fill-rule:nonzero;fill:rgb(0%,0%,0%);fill-opacity:0.1;" d="M 352.546875 135.027344 L 353.257812 135.738281 L 353.027344 134.082031 L 352.3125 134.3125 Z M 352.546875 135.027344 "/>
<path style="fill:none;stroke-width:1.5;stroke-linecap:square;stroke-linejoin:miter;stroke:rgb(0%,0%,0%);stroke-opacity:0.1;stroke-miterlimit:3.25;" d="M -339.769531 182.996094 L 460.609375 -77.0625 "/>
<g clip-path="url(#clip5)" clip-rule="nonzero">
<path style="fill:none;stroke-width:1.5;stroke-linecap:square;stroke-linejoin:miter;stroke:rgb(0%,0%,0%);stroke-opacity:0.1;stroke-miterlimit:3.25;" d="M 638.789062 471.320312 L 460.609375 -77.0625 "/>
<path style="fill:none;stroke-width:1.5;stroke-linecap:square;stroke-linejoin:miter;stroke:rgb(0%,0%,0%);stroke-opacity:0.1;stroke-miterlimit:3.25;" d="M 638.789062 471.320312 L 460.609375 -77.0625 "/>
</g>
<g clip-path="url(#clip6)" clip-rule="nonzero">
<path style=" stroke:none;fill-rule:nonzero;fill:rgb(74.999619%,74.999619%,74.999619%);fill-opacity:0.1;" d="M -225.65625 492.722656 L 319.019531 96.996094 L 714.746094 641.667969 L 850.914062 542.734375 L 356.253906 -138.105469 L -324.585938 356.554688 Z M -225.65625 492.722656 "/>
</g>
<g clip-path="url(#clip7)" clip-rule="nonzero">
<path style="fill:none;stroke-width:1.5;stroke-linecap:square;stroke-linejoin:miter;stroke:rgb(0%,0%,0%);stroke-opacity:0.1;stroke-miterlimit:3.25;" d="M -196.195312 471.320312 L 319.019531 96.996094 "/>
<path style="fill:none;stroke-width:1.5;stroke-linecap:square;stroke-linejoin:miter;stroke:rgb(0%,0%,0%);stroke-opacity:0.1;stroke-miterlimit:3.25;" d="M -196.195312 471.320312 L 319.019531 96.996094 "/>
</g>
<path style=" stroke:none;fill-rule:nonzero;fill:rgb(0%,0%,0%);fill-opacity:0.1;" d="M 319.019531 96.996094 L 318.578125 96.554688 L 319.183594 95.945312 L 319.625 96.554688 Z M 319.019531 96.996094 "/>
<g clip-path="url(#clip8)" clip-rule="nonzero">
<path style="fill:none;stroke-width:1.5;stroke-linecap:square;stroke-linejoin:miter;stroke:rgb(0%,0%,0%);stroke-opacity:0.1;stroke-miterlimit:3.25;" d="M 590.980469 471.320312 L 319.019531 96.996094 "/>
<path style="fill:none;stroke-width:1.5;stroke-linecap:square;stroke-linejoin:miter;stroke:rgb(0%,0%,0%);stroke-opacity:0.1;stroke-miterlimit:3.25;" d="M 590.980469 471.320312 L 319.019531 96.996094 "/>
</g>
<g clip-path="url(#clip9)" clip-rule="nonzero">
<path style="fill:none;stroke-width:1.5;stroke-linecap:square;stroke-linejoin:miter;stroke:rgb(0%,0%,0%);stroke-opacity:0.1;stroke-miterlimit:3.25;" d="M -324.585938 356.554688 L 356.253906 -138.105469 "/>
</g>
<g clip-path="url(#clip10)" clip-rule="nonzero">
<path style="fill:none;stroke-width:1.5;stroke-linecap:square;stroke-linejoin:miter;stroke:rgb(0%,0%,0%);stroke-opacity:0.1;stroke-miterlimit:3.25;" d="M 799.027344 471.320312 L 356.253906 -138.105469 "/>
<path style="fill:none;stroke-width:1.5;stroke-linecap:square;stroke-linejoin:miter;stroke:rgb(0%,0%,0%);stroke-opacity:0.1;stroke-miterlimit:3.25;" d="M 799.027344 471.320312 L 356.253906 -138.105469 "/>
</g>
<g clip-path="url(#clip11)" clip-rule="nonzero">
<path style=" stroke:none;fill-rule:nonzero;fill:rgb(74.999619%,74.999619%,74.999619%);fill-opacity:0.1;" d="M -122.507812 648.085938 L 273.21875 103.414062 L 817.894531 499.140625 L 916.824219 362.972656 L 235.984375 -131.6875 L -258.675781 549.15625 Z M -122.507812 648.085938 "/>
</g>
<g clip-path="url(#clip12)" clip-rule="nonzero">
<path style="fill:none;stroke-width:1.5;stroke-linecap:square;stroke-linejoin:miter;stroke:rgb(0%,0%,0%);stroke-opacity:0.1;stroke-miterlimit:3.25;" d="M 5.921875 471.320312 L 273.21875 103.414062 "/>
<path style="fill:none;stroke-width:1.5;stroke-linecap:square;stroke-linejoin:miter;stroke:rgb(0%,0%,0%);stroke-opacity:0.1;stroke-miterlimit:3.25;" d="M 5.921875 471.320312 L 273.21875 103.414062 "/>
</g>
<path style=" stroke:none;fill-rule:nonzero;fill:rgb(0%,0%,0%);fill-opacity:0.1;" d="M 273.21875 103.414062 L 272.613281 102.808594 L 273.054688 102.367188 L 273.660156 102.808594 Z M 273.21875 103.414062 "/>
<g clip-path="url(#clip13)" clip-rule="nonzero">
<path style="fill:none;stroke-width:1.5;stroke-linecap:square;stroke-linejoin:miter;stroke:rgb(0%,0%,0%);stroke-opacity:0.1;stroke-miterlimit:3.25;" d="M 779.597656 471.320312 L 273.21875 103.414062 "/>
<path style="fill:none;stroke-width:1.5;stroke-linecap:square;stroke-linejoin:miter;stroke:rgb(0%,0%,0%);stroke-opacity:0.1;stroke-miterlimit:3.25;" d="M 779.597656 471.320312 L 273.21875 103.414062 "/>
</g>
<g clip-path="url(#clip14)" clip-rule="nonzero">
<path style="fill:none;stroke-width:1.5;stroke-linecap:square;stroke-linejoin:miter;stroke:rgb(0%,0%,0%);stroke-opacity:0.1;stroke-miterlimit:3.25;" d="M -202.125 471.320312 L 235.984375 -131.6875 "/>
<path style="fill:none;stroke-width:1.5;stroke-linecap:square;stroke-linejoin:miter;stroke:rgb(0%,0%,0%);stroke-opacity:0.1;stroke-miterlimit:3.25;" d="M -202.125 471.320312 L 235.984375 -131.6875 "/>
</g>
<g clip-path="url(#clip15)" clip-rule="nonzero">
<path style="fill:none;stroke-width:1.5;stroke-linecap:square;stroke-linejoin:miter;stroke:rgb(0%,0%,0%);stroke-opacity:0.1;stroke-miterlimit:3.25;" d="M 235.984375 -131.6875 L 916.824219 362.972656 "/>
</g>
<g clip-path="url(#clip16)" clip-rule="nonzero">
<path style=" stroke:none;fill-rule:nonzero;fill:rgb(74.999619%,74.999619%,74.999619%);fill-opacity:0.1;" d="M 21.515625 783.355469 L 229.5625 143.054688 L 869.867188 351.101562 L 921.878906 191.023438 L 121.5 -69.035156 L -138.558594 731.34375 Z M 21.515625 783.355469 "/>
</g>
<g clip-path="url(#clip17)" clip-rule="nonzero">
<path style="fill:none;stroke-width:1.5;stroke-linecap:square;stroke-linejoin:miter;stroke:rgb(0%,0%,0%);stroke-opacity:0.1;stroke-miterlimit:3.25;" d="M 122.90625 471.320312 L 229.5625 143.054688 "/>
<path style="fill:none;stroke-width:1.5;stroke-linecap:square;stroke-linejoin:miter;stroke:rgb(0%,0%,0%);stroke-opacity:0.1;stroke-miterlimit:3.25;" d="M 122.90625 471.320312 L 229.5625 143.054688 "/>
</g>
<path style=" stroke:none;fill-rule:nonzero;fill:rgb(0%,0%,0%);fill-opacity:0.1;" d="M 229.5625 143.054688 L 228.851562 142.339844 L 229.082031 142.109375 L 229.796875 142.339844 Z M 229.5625 143.054688 "/>
<g clip-path="url(#clip18)" clip-rule="nonzero">
<path style="fill:none;stroke-width:1.5;stroke-linecap:square;stroke-linejoin:miter;stroke:rgb(0%,0%,0%);stroke-opacity:0.1;stroke-miterlimit:3.25;" d="M 229.5625 143.054688 L 869.867188 351.101562 "/>
</g>
<g clip-path="url(#clip19)" clip-rule="nonzero">
<path style="fill:none;stroke-width:1.5;stroke-linecap:square;stroke-linejoin:miter;stroke:rgb(0%,0%,0%);stroke-opacity:0.1;stroke-miterlimit:3.25;" d="M -54.070312 471.320312 L 121.5 -69.035156 "/>
<path style="fill:none;stroke-width:1.5;stroke-linecap:square;stroke-linejoin:miter;stroke:rgb(0%,0%,0%);stroke-opacity:0.1;stroke-miterlimit:3.25;" d="M -54.070312 471.320312 L 121.5 -69.035156 "/>
</g>
<path style="fill:none;stroke-width:1.5;stroke-linecap:square;stroke-linejoin:miter;stroke:rgb(0%,0%,0%);stroke-opacity:0.1;stroke-miterlimit:3.25;" d="M 121.5 -69.035156 L 921.878906 191.023438 "/>
<path style=" stroke:none;fill-rule:nonzero;fill:rgb(0%,0%,0%);fill-opacity:0.1;" d="M -1386.722656 201.976562 L -1386.722656 33.664062 L 1979.546875 33.664062 L 1979.546875 201.976562 Z M -1386.722656 201.976562 "/>
<path style="fill-rule:nonzero;fill:rgb(100%,92.500191%,92.500191%);fill-opacity:1;stroke-width:0.5;stroke-linecap:square;stroke-linejoin:miter;stroke:rgb(0%,0%,0%);stroke-opacity:1;stroke-miterlimit:3.25;" d="M 551.273438 201.976562 L 509.152344 72.339844 L 500.597656 60.566406 L 484.601562 48.945312 L 437.566406 33.664062 L 119.835938 33.664062 L 111.394531 39.792969 L 65.707031 102.679688 L 33.664062 201.300781 L 33.664062 201.976562 L 146.492188 201.976562 L 197.199219 185.5 L 221.511719 167.835938 L 229.5625 143.054688 L 241.582031 146.957031 L 273.21875 103.414062 L 291.703125 116.839844 L 319.019531 96.996094 L 347.773438 136.574219 L 352.546875 135.027344 L 357.316406 149.707031 L 380.097656 181.066406 L 407.238281 200.78125 L 410.910156 201.976562 Z M 551.273438 201.976562 "/>
<path style=" stroke:none;fill-rule:evenodd;fill:rgb(0%,0%,0%);fill-opacity:1;" d="M 160.214844 118.261719 C 160.214844 117.339844 159.996094 116.523438 159.160156 115.707031 C 158.699219 115.246094 158.300781 115.136719 156.277344 114.605469 C 154.800781 114.214844 154.605469 114.144531 154.207031 113.792969 C 153.835938 113.417969 153.546875 112.890625 153.546875 112.144531 C 153.546875 110.292969 155.417969 108.402344 157.511719 108.402344 C 159.667969 108.402344 160.679688 109.722656 160.679688 111.8125 C 160.679688 112.386719 160.566406 112.980469 160.566406 113.066406 C 160.566406 113.265625 160.746094 113.265625 160.808594 113.265625 C 161.007812 113.265625 161.027344 113.199219 161.121094 112.847656 L 162.308594 108.007812 C 162.308594 107.808594 162.105469 107.808594 162.105469 107.808594 C 162.019531 107.808594 161.996094 107.828125 161.734375 108.160156 L 160.679688 109.480469 C 159.949219 108.050781 158.5 107.808594 157.574219 107.808594 C 154.78125 107.808594 152.25 110.359375 152.25 112.847656 C 152.25 114.496094 153.238281 115.464844 154.316406 115.839844 C 154.5625 115.929688 155.855469 116.28125 156.519531 116.433594 C 157.640625 116.742188 157.925781 116.832031 158.386719 117.316406 C 158.476562 117.425781 158.917969 117.933594 158.917969 118.964844 C 158.917969 121.011719 157.027344 123.125 154.824219 123.125 C 153.019531 123.125 151.015625 122.355469 151.015625 119.886719 C 151.015625 119.472656 151.105469 118.945312 151.171875 118.722656 C 151.171875 118.65625 151.191406 118.503906 151.191406 118.503906 C 151.191406 118.417969 151.148438 118.304688 150.972656 118.304688 C 150.777344 118.304688 150.753906 118.347656 150.664062 118.722656 L 149.542969 123.234375 L 149.453125 123.566406 C 149.453125 123.761719 149.675781 123.761719 149.675781 123.761719 C 149.765625 123.761719 149.785156 123.742188 150.046875 123.410156 L 151.0625 122.089844 C 151.589844 122.882812 152.734375 123.761719 154.78125 123.761719 C 157.621094 123.761719 160.214844 121.011719 160.214844 118.261719 Z M 160.214844 118.261719 "/>
<path style=" stroke:none;fill-rule:evenodd;fill:rgb(0%,0%,0%);fill-opacity:1;" d="M 173.238281 121.320312 C 173.238281 118.246094 170.808594 115.742188 167.84375 115.742188 C 164.832031 115.742188 162.433594 118.261719 162.433594 121.320312 C 162.433594 124.4375 164.925781 126.820312 167.828125 126.820312 C 170.792969 126.820312 173.238281 124.40625 173.238281 121.320312 Z M 171.757812 121.320312 C 171.757812 125.019531 169.511719 126.363281 167.84375 126.363281 C 166.101562 126.363281 163.917969 124.957031 163.917969 121.320312 C 163.917969 117.652344 166.085938 116.167969 167.828125 116.167969 C 169.648438 116.167969 171.757812 117.714844 171.757812 121.320312 Z M 170.839844 122.386719 L 170.839844 120.144531 L 170.367188 120.144531 L 170.367188 120.664062 L 165.308594 120.664062 L 165.308594 120.144531 L 164.832031 120.144531 L 164.832031 122.386719 L 165.308594 122.386719 L 165.308594 121.871094 L 170.367188 121.871094 L 170.367188 122.386719 Z M 170.839844 122.386719 "/>
<path style=" stroke:none;fill-rule:evenodd;fill:rgb(0%,0%,0%);fill-opacity:1;" d="M 355.269531 135 C 355.269531 134.398438 355.027344 133.820312 354.605469 133.394531 C 354.179688 132.972656 353.601562 132.730469 353 132.730469 C 352.398438 132.730469 351.820312 132.972656 351.394531 133.394531 C 350.972656 133.820312 350.730469 134.398438 350.730469 135 C 350.730469 135.601562 350.972656 136.179688 351.394531 136.605469 C 351.820312 137.027344 352.398438 137.269531 353 137.269531 C 353.601562 137.269531 354.179688 137.027344 354.605469 136.605469 C 355.027344 136.179688 355.269531 135.601562 355.269531 135 Z M 355.269531 135 "/>
<path style=" stroke:none;fill-rule:evenodd;fill:rgb(0%,0%,0%);fill-opacity:1;" d="M 321.269531 97 C 321.269531 96.398438 321.027344 95.820312 320.605469 95.394531 C 320.179688 94.972656 319.601562 94.730469 319 94.730469 C 318.398438 94.730469 317.820312 94.972656 317.394531 95.394531 C 316.972656 95.820312 316.730469 96.398438 316.730469 97 C 316.730469 97.601562 316.972656 98.179688 317.394531 98.605469 C 317.820312 99.027344 318.398438 99.269531 319 99.269531 C 319.601562 99.269531 320.179688 99.027344 320.605469 98.605469 C 321.027344 98.179688 321.269531 97.601562 321.269531 97 Z M 321.269531 97 "/>
<path style=" stroke:none;fill-rule:evenodd;fill:rgb(0%,0%,0%);fill-opacity:1;" d="M 275.269531 103 C 275.269531 102.398438 275.027344 101.820312 274.605469 101.394531 C 274.179688 100.972656 273.601562 100.730469 273 100.730469 C 272.398438 100.730469 271.820312 100.972656 271.394531 101.394531 C 270.972656 101.820312 270.730469 102.398438 270.730469 103 C 270.730469 103.601562 270.972656 104.179688 271.394531 104.605469 C 271.820312 105.027344 272.398438 105.269531 273 105.269531 C 273.601562 105.269531 274.179688 105.027344 274.605469 104.605469 C 275.027344 104.179688 275.269531 103.601562 275.269531 103 Z M 275.269531 103 "/>
<path style=" stroke:none;fill-rule:evenodd;fill:rgb(0%,0%,0%);fill-opacity:1;" d="M 232.269531 143 C 232.269531 142.398438 232.027344 141.820312 231.605469 141.394531 C 231.179688 140.972656 230.601562 140.730469 230 140.730469 C 229.398438 140.730469 228.820312 140.972656 228.394531 141.394531 C 227.972656 141.820312 227.730469 142.398438 227.730469 143 C 227.730469 143.601562 227.972656 144.179688 228.394531 144.605469 C 228.820312 145.027344 229.398438 145.269531 230 145.269531 C 230.601562 145.269531 231.179688 145.027344 231.605469 144.605469 C 232.027344 144.179688 232.269531 143.601562 232.269531 143 Z M 232.269531 143 "/>
</g>
</svg>
