<?xml version="1.0" encoding="UTF-8"?>
<svg xmlns="http://www.w3.org/2000/svg" xmlns:xlink="http://www.w3.org/1999/xlink" width="600pt" height="409pt" viewBox="0 0 600 409" version="1.1">
<g id="surface1">
<path style="fill-rule:nonzero;fill:rgb(100%,100%,86.999313%);fill-opacity:1;stroke-width:1.5;stroke-linecap:square;stroke-linejoin:miter;stroke:rgb(0%,0%,0%);stroke-opacity:1;stroke-miterlimit:3.25;" d="M 569.160156 186.140625 L 569.15625 185.277344 L 569.148438 184.417969 L 569.136719 183.554688 L 569.121094 182.695312 L 569.101562 181.832031 L 569.078125 180.972656 L 569.046875 180.113281 L 569.015625 179.25 L 568.976562 178.390625 L 568.933594 177.53125 L 568.886719 176.671875 L 568.835938 175.8125 L 568.71875 174.09375 L 568.652344 173.234375 L 568.582031 172.378906 L 568.507812 171.519531 L 568.429688 170.660156 L 568.347656 169.804688 L 568.257812 168.949219 L 568.164062 168.089844 L 568.070312 167.234375 L 567.96875 166.382812 L 567.863281 165.527344 L 567.75 164.671875 L 567.636719 163.820312 L 567.519531 162.964844 L 567.394531 162.113281 L 567.265625 161.261719 L 567.132812 160.410156 L 566.996094 159.5625 L 566.855469 158.710938 L 566.710938 157.863281 L 566.40625 156.167969 L 566.246094 155.320312 L 566.082031 154.476562 L 565.914062 153.632812 L 565.742188 152.789062 L 565.566406 151.945312 L 565.382812 151.105469 L 565.199219 150.261719 L 565.007812 149.421875 L 564.8125 148.582031 L 564.613281 147.746094 L 564.410156 146.910156 L 564.203125 146.074219 L 563.992188 145.238281 L 563.777344 144.40625 L 563.554688 143.574219 L 563.101562 141.910156 L 562.867188 141.082031 L 562.628906 140.253906 L 562.386719 139.429688 L 562.140625 138.605469 L 561.632812 136.957031 L 561.375 136.136719 L 561.109375 135.316406 L 560.570312 133.683594 L 560.292969 132.867188 L 560.011719 132.054688 L 559.726562 131.242188 L 559.4375 130.429688 L 558.84375 128.8125 L 558.542969 128.007812 L 557.925781 126.398438 L 557.609375 125.597656 L 557.289062 124.796875 L 556.96875 124 L 556.640625 123.203125 L 556.308594 122.40625 L 555.972656 121.613281 L 555.632812 120.824219 L 555.289062 120.035156 L 554.941406 119.246094 L 554.589844 118.460938 L 554.230469 117.675781 L 553.871094 116.894531 L 553.507812 116.113281 L 552.765625 114.558594 L 552.007812 113.011719 L 551.621094 112.242188 L 551.234375 111.476562 L 550.839844 110.707031 L 550.445312 109.945312 L 550.042969 109.183594 L 549.636719 108.421875 L 549.230469 107.664062 L 548.816406 106.910156 L 547.980469 105.402344 L 547.554688 104.65625 L 547.125 103.910156 L 546.691406 103.164062 L 546.257812 102.421875 L 545.816406 101.679688 L 545.371094 100.945312 L 544.925781 100.207031 L 544.472656 99.476562 L 543.558594 98.015625 L 543.09375 97.289062 L 542.625 96.566406 L 542.15625 95.847656 L 541.203125 94.410156 L 540.234375 92.988281 L 539.746094 92.277344 L 538.753906 90.871094 L 538.253906 90.167969 L 537.75 89.472656 L 537.242188 88.777344 L 536.730469 88.082031 L 536.214844 87.394531 L 535.695312 86.707031 L 535.171875 86.019531 L 534.648438 85.339844 L 534.117188 84.660156 L 533.585938 83.984375 L 532.507812 82.640625 L 531.964844 81.972656 L 531.417969 81.308594 L 530.867188 80.644531 L 530.3125 79.984375 L 529.753906 79.328125 L 529.195312 78.675781 L 528.0625 77.378906 L 527.492188 76.734375 L 526.917969 76.09375 L 526.339844 75.453125 L 525.757812 74.820312 L 525.171875 74.1875 L 524.585938 73.558594 L 523.992188 72.929688 L 523.398438 72.308594 L 522.800781 71.6875 L 522.199219 71.070312 L 521.597656 70.457031 L 520.378906 69.238281 L 519.765625 68.636719 L 519.148438 68.035156 L 518.527344 67.4375 L 517.90625 66.84375 L 517.277344 66.25 L 516.019531 65.078125 L 515.382812 64.5 L 514.742188 63.921875 L 514.101562 63.347656 L 513.457031 62.773438 L 512.808594 62.207031 L 512.160156 61.644531 L 511.507812 61.082031 L 510.851562 60.523438 L 510.191406 59.96875 L 509.527344 59.417969 L 508.863281 58.871094 L 508.195312 58.328125 L 507.527344 57.789062 L 506.851562 57.25 L 506.175781 56.71875 L 505.496094 56.1875 L 504.816406 55.664062 L 504.132812 55.140625 L 503.445312 54.621094 L 502.753906 54.105469 L 502.0625 53.59375 L 501.367188 53.085938 L 500.667969 52.582031 L 499.96875 52.082031 L 499.265625 51.585938 L 497.851562 50.601562 L 497.140625 50.117188 L 496.425781 49.632812 L 495.710938 49.15625 L 494.992188 48.679688 L 493.546875 47.742188 L 492.09375 46.820312 L 491.363281 46.363281 L 489.894531 45.464844 L 489.15625 45.019531 L 487.671875 44.144531 L 486.929688 43.710938 L 486.179688 43.28125 L 485.433594 42.859375 L 484.679688 42.4375 L 483.925781 42.019531 L 483.171875 41.609375 L 482.414062 41.199219 L 481.652344 40.792969 L 480.128906 39.996094 L 479.363281 39.601562 L 477.824219 38.828125 L 476.277344 38.070312 L 475.5 37.699219 L 474.722656 37.332031 L 473.941406 36.964844 L 473.160156 36.605469 L 471.589844 35.894531 L 470.800781 35.546875 L 470.011719 35.203125 L 469.222656 34.863281 L 468.429688 34.527344 L 467.632812 34.195312 L 466.839844 33.871094 L 466.039062 33.546875 L 465.238281 33.226562 L 464.4375 32.910156 L 463.636719 32.601562 L 462.832031 32.292969 L 462.023438 31.992188 L 461.214844 31.695312 L 459.597656 31.109375 L 458.785156 30.824219 L 457.96875 30.542969 L 456.335938 29.996094 L 455.519531 29.726562 L 453.878906 29.203125 L 452.230469 28.695312 L 451.40625 28.449219 L 450.582031 28.207031 L 449.753906 27.96875 L 448.925781 27.734375 L 447.261719 27.28125 L 445.597656 26.84375 L 444.761719 26.632812 L 443.925781 26.425781 L 443.089844 26.222656 L 442.253906 26.023438 L 441.414062 25.828125 L 440.574219 25.636719 L 439.734375 25.453125 L 438.046875 25.09375 L 437.203125 24.921875 L 436.359375 24.753906 L 435.515625 24.589844 L 433.820312 24.277344 L 432.972656 24.125 L 432.125 23.980469 L 431.277344 23.839844 L 430.425781 23.703125 L 429.574219 23.570312 L 428.722656 23.441406 L 427.019531 23.199219 L 426.164062 23.085938 L 425.308594 22.976562 L 424.457031 22.867188 L 422.746094 22.671875 L 421.890625 22.578125 L 421.03125 22.492188 L 420.175781 22.40625 L 419.316406 22.328125 L 418.460938 22.253906 L 417.601562 22.183594 L 415.882812 22.058594 L 414.164062 21.949219 L 413.304688 21.902344 L 412.445312 21.859375 L 411.585938 21.820312 L 410.722656 21.789062 L 409.863281 21.757812 L 409.003906 21.734375 L 408.140625 21.714844 L 407.28125 21.699219 L 406.421875 21.6875 L 405.558594 21.679688 L 194.4375 21.679688 L 193.578125 21.6875 L 192.714844 21.699219 L 191.855469 21.714844 L 190.996094 21.734375 L 190.132812 21.757812 L 188.414062 21.820312 L 187.550781 21.859375 L 186.691406 21.902344 L 185.832031 21.949219 L 184.113281 22.058594 L 182.394531 22.183594 L 181.539062 22.253906 L 180.679688 22.328125 L 179.824219 22.40625 L 178.964844 22.492188 L 178.109375 22.578125 L 177.253906 22.671875 L 175.542969 22.867188 L 173.832031 23.085938 L 172.980469 23.199219 L 172.128906 23.320312 L 171.273438 23.441406 L 170.421875 23.570312 L 169.574219 23.703125 L 168.722656 23.839844 L 167.871094 23.980469 L 167.023438 24.125 L 166.175781 24.277344 L 165.328125 24.433594 L 164.484375 24.589844 L 163.636719 24.753906 L 162.792969 24.921875 L 161.949219 25.09375 L 161.105469 25.273438 L 160.265625 25.453125 L 159.421875 25.636719 L 158.582031 25.828125 L 157.746094 26.023438 L 156.90625 26.222656 L 156.070312 26.425781 L 155.234375 26.632812 L 154.398438 26.84375 L 152.734375 27.28125 L 151.902344 27.507812 L 151.074219 27.734375 L 150.246094 27.96875 L 149.417969 28.207031 L 148.589844 28.449219 L 147.765625 28.695312 L 146.941406 28.949219 L 146.121094 29.203125 L 145.296875 29.464844 L 144.480469 29.726562 L 143.660156 29.996094 L 142.027344 30.542969 L 141.214844 30.824219 L 140.402344 31.109375 L 139.589844 31.402344 L 138.78125 31.695312 L 137.972656 31.992188 L 137.167969 32.292969 L 135.558594 32.910156 L 134.757812 33.226562 L 133.957031 33.546875 L 132.363281 34.195312 L 131.570312 34.527344 L 130.777344 34.863281 L 129.984375 35.203125 L 129.195312 35.546875 L 128.40625 35.894531 L 126.835938 36.605469 L 126.054688 36.964844 L 125.277344 37.332031 L 124.496094 37.699219 L 123.722656 38.070312 L 122.945312 38.449219 L 122.175781 38.828125 L 120.636719 39.601562 L 119.871094 39.996094 L 119.105469 40.394531 L 118.34375 40.792969 L 117.582031 41.199219 L 116.824219 41.609375 L 116.070312 42.019531 L 115.316406 42.4375 L 113.816406 43.28125 L 113.070312 43.710938 L 112.324219 44.144531 L 111.582031 44.582031 L 110.84375 45.019531 L 110.105469 45.464844 L 108.636719 46.363281 L 107.90625 46.820312 L 107.175781 47.28125 L 106.453125 47.742188 L 105.726562 48.210938 L 105.007812 48.679688 L 104.289062 49.15625 L 103.574219 49.632812 L 102.859375 50.117188 L 102.148438 50.601562 L 100.734375 51.585938 L 100.03125 52.082031 L 99.328125 52.582031 L 98.632812 53.085938 L 97.9375 53.59375 L 97.242188 54.105469 L 96.554688 54.621094 L 95.867188 55.140625 L 94.5 56.1875 L 93.820312 56.71875 L 93.144531 57.25 L 91.800781 58.328125 L 91.132812 58.871094 L 90.46875 59.417969 L 89.804688 59.96875 L 89.148438 60.523438 L 88.492188 61.082031 L 87.835938 61.644531 L 87.1875 62.207031 L 86.539062 62.773438 L 85.894531 63.347656 L 85.253906 63.921875 L 83.980469 65.078125 L 83.347656 65.664062 L 82.71875 66.25 L 81.46875 67.4375 L 80.847656 68.035156 L 80.234375 68.636719 L 79.617188 69.238281 L 79.007812 69.847656 L 78.402344 70.457031 L 77.796875 71.070312 L 77.195312 71.6875 L 76.597656 72.308594 L 76.003906 72.929688 L 74.824219 74.1875 L 73.660156 75.453125 L 73.082031 76.09375 L 72.507812 76.734375 L 71.9375 77.378906 L 71.367188 78.027344 L 70.804688 78.675781 L 70.242188 79.328125 L 69.683594 79.984375 L 69.132812 80.644531 L 68.582031 81.308594 L 68.035156 81.972656 L 67.488281 82.640625 L 66.949219 83.3125 L 66.414062 83.984375 L 65.878906 84.660156 L 64.824219 86.019531 L 64.300781 86.707031 L 63.78125 87.394531 L 63.269531 88.082031 L 62.757812 88.777344 L 61.742188 90.167969 L 61.242188 90.871094 L 60.746094 91.574219 L 60.253906 92.277344 L 59.761719 92.988281 L 59.277344 93.699219 L 58.796875 94.410156 L 58.316406 95.128906 L 57.371094 96.566406 L 56.902344 97.289062 L 56.441406 98.015625 L 55.980469 98.746094 L 55.074219 100.207031 L 54.625 100.945312 L 54.183594 101.679688 L 53.742188 102.421875 L 53.304688 103.164062 L 52.871094 103.910156 L 52.019531 105.402344 L 51.597656 106.15625 L 51.179688 106.910156 L 50.769531 107.664062 L 50.359375 108.421875 L 49.953125 109.183594 L 49.15625 110.707031 L 48.765625 111.476562 L 48.375 112.242188 L 47.988281 113.011719 L 47.609375 113.785156 L 47.234375 114.558594 L 46.859375 115.335938 L 46.492188 116.113281 L 46.125 116.894531 L 45.765625 117.675781 L 45.410156 118.460938 L 45.058594 119.246094 L 44.363281 120.824219 L 44.023438 121.613281 L 43.6875 122.40625 L 43.03125 124 L 42.707031 124.796875 L 42.386719 125.597656 L 42.074219 126.398438 L 41.761719 127.203125 L 41.152344 128.8125 L 40.855469 129.621094 L 40.5625 130.429688 L 40.273438 131.242188 L 39.988281 132.054688 L 39.707031 132.867188 L 39.429688 133.683594 L 39.15625 134.5 L 38.886719 135.316406 L 38.363281 136.957031 L 38.109375 137.78125 L 37.859375 138.605469 L 37.367188 140.253906 L 36.898438 141.910156 L 36.667969 142.742188 L 36.441406 143.574219 L 36.003906 145.238281 L 35.792969 146.074219 L 35.585938 146.910156 L 35.382812 147.746094 L 35.183594 148.582031 L 34.988281 149.421875 L 34.800781 150.261719 L 34.613281 151.105469 L 34.433594 151.945312 L 34.082031 153.632812 L 33.914062 154.476562 L 33.75 155.320312 L 33.4375 157.015625 L 33.140625 158.710938 L 33 159.5625 L 32.863281 160.410156 L 32.730469 161.261719 L 32.601562 162.113281 L 32.480469 162.964844 L 32.359375 163.820312 L 32.246094 164.671875 L 32.136719 165.527344 L 32.03125 166.382812 L 31.929688 167.234375 L 31.832031 168.089844 L 31.738281 168.949219 L 31.652344 169.804688 L 31.570312 170.660156 L 31.488281 171.519531 L 31.414062 172.378906 L 31.347656 173.234375 L 31.28125 174.09375 L 31.21875 174.953125 L 31.164062 175.8125 L 31.0625 177.53125 L 31.019531 178.390625 L 30.984375 179.25 L 30.949219 180.113281 L 30.894531 181.832031 L 30.875 182.695312 L 30.859375 183.554688 L 30.847656 184.417969 L 30.839844 185.277344 L 195.300781 186.140625 L 195.3125 184.417969 L 195.355469 182.695312 L 195.425781 180.972656 L 195.527344 179.253906 L 195.652344 177.539062 L 195.808594 175.824219 L 195.992188 174.109375 L 196.203125 172.402344 L 196.445312 170.695312 L 196.710938 168.996094 L 197.007812 167.296875 L 197.332031 165.609375 L 197.683594 163.921875 L 198.0625 162.242188 L 198.46875 160.570312 L 198.90625 158.902344 L 199.367188 157.242188 L 199.855469 155.589844 L 200.371094 153.949219 L 200.914062 152.316406 L 201.484375 150.6875 L 202.078125 149.074219 L 202.703125 147.46875 L 203.351562 145.875 L 204.027344 144.289062 L 204.730469 142.714844 L 205.457031 141.15625 L 206.207031 139.605469 L 206.988281 138.070312 L 207.789062 136.546875 L 208.617188 135.035156 L 209.46875 133.539062 L 210.347656 132.058594 L 211.25 130.59375 L 212.175781 129.140625 L 213.125 127.703125 L 214.097656 126.28125 L 215.09375 124.878906 L 216.113281 123.488281 L 217.15625 122.117188 L 218.21875 120.765625 L 219.304688 119.425781 L 220.414062 118.109375 L 221.542969 116.808594 L 222.695312 115.527344 L 223.867188 114.265625 L 225.058594 113.023438 L 226.269531 111.800781 L 227.503906 110.597656 L 228.753906 109.417969 L 230.027344 108.253906 L 231.316406 107.113281 L 232.625 105.996094 L 233.953125 104.898438 L 235.296875 103.824219 L 236.660156 102.769531 L 238.042969 101.738281 L 239.4375 100.734375 L 240.851562 99.746094 L 242.28125 98.785156 L 243.722656 97.847656 L 245.183594 96.9375 L 246.660156 96.046875 L 248.148438 95.179688 L 249.648438 94.339844 L 251.167969 93.523438 L 252.695312 92.734375 L 254.238281 91.96875 L 255.792969 91.230469 L 257.363281 90.515625 L 258.941406 89.828125 L 260.53125 89.164062 L 262.128906 88.527344 L 263.742188 87.917969 L 265.359375 87.335938 L 266.992188 86.777344 L 268.628906 86.25 L 270.277344 85.746094 L 271.933594 85.273438 L 273.59375 84.824219 L 275.265625 84.402344 L 276.941406 84.011719 L 278.625 83.644531 L 280.3125 83.308594 L 282.007812 82.996094 L 283.707031 82.714844 L 285.410156 82.460938 L 287.117188 82.234375 L 288.828125 82.039062 L 290.539062 81.867188 L 292.257812 81.726562 L 293.976562 81.613281 L 295.695312 81.527344 L 297.414062 81.472656 L 299.136719 81.441406 L 300.859375 81.441406 L 302.582031 81.472656 L 304.304688 81.527344 L 306.023438 81.613281 L 307.742188 81.726562 L 309.457031 81.867188 L 311.171875 82.039062 L 312.882812 82.234375 L 314.589844 82.460938 L 316.292969 82.714844 L 317.992188 82.996094 L 319.683594 83.308594 L 321.375 83.644531 L 323.058594 84.011719 L 324.734375 84.402344 L 326.402344 84.824219 L 328.066406 85.273438 L 329.722656 85.746094 L 331.367188 86.25 L 333.007812 86.777344 L 334.636719 87.335938 L 336.257812 87.917969 L 337.867188 88.527344 L 339.46875 89.164062 L 341.058594 89.828125 L 342.636719 90.515625 L 344.203125 91.230469 L 345.757812 91.96875 L 347.300781 92.734375 L 348.832031 93.523438 L 350.347656 94.339844 L 351.851562 95.179688 L 353.339844 96.046875 L 354.8125 96.9375 L 356.273438 97.847656 L 357.71875 98.785156 L 359.148438 99.746094 L 360.558594 100.734375 L 361.957031 101.738281 L 363.335938 102.769531 L 364.699219 103.824219 L 366.042969 104.898438 L 367.371094 105.996094 L 368.679688 107.113281 L 369.972656 108.253906 L 371.242188 109.417969 L 372.496094 110.597656 L 373.726562 111.800781 L 374.941406 113.023438 L 376.132812 114.265625 L 377.304688 115.527344 L 378.453125 116.808594 L 379.585938 118.109375 L 380.691406 119.425781 L 381.777344 120.765625 L 382.84375 122.117188 L 383.886719 123.488281 L 384.902344 124.878906 L 385.898438 126.28125 L 386.875 127.703125 L 387.824219 129.140625 L 388.75 130.59375 L 389.648438 132.058594 L 390.527344 133.539062 L 391.378906 135.035156 L 392.207031 136.546875 L 393.011719 138.070312 L 393.789062 139.605469 L 394.542969 141.15625 L 395.269531 142.714844 L 395.96875 144.289062 L 396.644531 145.875 L 397.292969 147.46875 L 397.917969 149.074219 L 398.515625 150.6875 L 399.082031 152.316406 L 399.625 153.949219 L 400.144531 155.589844 L 400.632812 157.242188 L 401.09375 158.902344 L 401.527344 160.570312 L 401.933594 162.242188 L 402.3125 163.921875 L 402.664062 165.609375 L 402.988281 167.296875 L 403.285156 168.996094 L 403.554688 170.695312 L 403.792969 172.402344 L 404.003906 174.109375 L 404.1875 175.824219 L 404.34375 177.539062 L 404.472656 179.253906 L 404.570312 180.972656 L 404.640625 182.695312 L 404.683594 184.417969 L 404.699219 186.140625 Z M 569.160156 186.140625 "/>
<path style="fill:none;stroke-width:1;stroke-linecap:butt;stroke-linejoin:miter;stroke:rgb(0%,0%,0%);stroke-opacity:1;stroke-dasharray:4,4;stroke-miterlimit:3.25;" d="M 404.699219 186.140625 L 404.699219 21.679688 "/>
<path style="fill:none;stroke-width:1;stroke-linecap:butt;stroke-linejoin:miter;stroke:rgb(0%,0%,0%);stroke-opacity:1;stroke-dasharray:4,4;stroke-miterlimit:3.25;" d="M 195.300781 186.140625 L 195.300781 21.679688 "/>
<path style="fill-rule:nonzero;fill:rgb(100%,100%,86.999313%);fill-opacity:1;stroke-width:1.5;stroke-linecap:square;stroke-linejoin:miter;stroke:rgb(0%,0%,0%);stroke-opacity:1;stroke-miterlimit:3.25;" d="M 401.878906 377.894531 L 401.117188 372 L 400.101562 366.195312 L 398.832031 360.492188 L 397.320312 354.898438 L 395.570312 349.425781 L 393.585938 344.085938 L 391.371094 338.886719 L 388.9375 333.839844 L 386.285156 328.949219 L 383.425781 324.230469 L 380.367188 319.6875 L 377.113281 315.328125 L 373.671875 311.164062 L 370.058594 307.203125 L 366.273438 303.449219 L 362.332031 299.914062 L 358.238281 296.601562 L 354.003906 293.515625 L 349.640625 290.671875 L 345.152344 288.0625 L 340.558594 285.707031 L 335.863281 283.597656 L 331.078125 281.75 L 326.214844 280.160156 L 321.285156 278.835938 L 316.300781 277.78125 L 311.28125 277.011719 L 306.234375 276.519531 L 301.175781 276.3125 L 296.117188 276.390625 L 291.0625 276.75 L 286.03125 277.390625 L 281.03125 278.3125 L 276.070312 279.511719 L 271.175781 280.976562 L 266.351562 282.707031 L 261.613281 284.695312 L 256.972656 286.9375 L 252.433594 289.425781 L 248.011719 292.164062 L 243.714844 295.136719 L 239.554688 298.34375 L 235.542969 301.777344 L 231.683594 305.429688 L 227.988281 309.296875 L 224.464844 313.367188 L 221.125 317.636719 L 217.972656 322.09375 L 215.019531 326.730469 L 212.269531 331.542969 L 209.734375 336.519531 L 207.417969 341.648438 L 205.324219 346.925781 L 203.464844 352.335938 L 201.839844 357.875 L 200.457031 363.527344 L 199.324219 369.285156 L 198.441406 375.140625 L 198.121094 377.894531 L 197.859375 378.105469 L 197.578125 378.320312 L 197.28125 378.542969 L 196.964844 378.773438 L 196.632812 379.007812 L 196.28125 379.25 L 195.910156 379.496094 L 195.519531 379.746094 L 195.109375 380 L 194.683594 380.253906 L 194.234375 380.515625 L 193.765625 380.777344 L 193.277344 381.042969 L 192.769531 381.308594 L 192.242188 381.574219 L 191.691406 381.839844 L 191.125 382.105469 L 190.535156 382.367188 L 189.921875 382.632812 L 189.292969 382.894531 L 188.640625 383.152344 L 187.96875 383.40625 L 187.273438 383.660156 L 186.558594 383.90625 L 185.824219 384.148438 L 185.066406 384.382812 L 184.289062 384.617188 L 183.488281 384.839844 L 182.667969 385.058594 L 181.828125 385.265625 L 180.964844 385.46875 L 180.085938 385.660156 L 179.179688 385.839844 L 178.257812 386.015625 L 177.3125 386.175781 L 176.347656 386.328125 L 175.363281 386.464844 L 174.359375 386.59375 L 173.332031 386.707031 L 172.289062 386.804688 L 171.222656 386.894531 L 170.140625 386.964844 L 169.035156 387.019531 L 167.839844 387.0625 L 166.601562 387.089844 L 30.839844 387.097656 L 30.964844 384.335938 L 31.34375 378.449219 L 31.863281 372.636719 L 32.523438 366.898438 L 33.324219 361.246094 L 34.253906 355.679688 L 35.316406 350.203125 L 36.503906 344.820312 L 37.808594 339.542969 L 39.230469 334.367188 L 40.761719 329.296875 L 42.398438 324.339844 L 44.136719 319.496094 L 45.972656 314.769531 L 47.894531 310.164062 L 49.902344 305.679688 L 51.992188 301.324219 L 54.152344 297.09375 L 56.378906 292.996094 L 58.667969 289.027344 L 61.011719 285.195312 L 63.402344 281.496094 L 65.839844 277.933594 L 68.3125 274.507812 L 70.816406 271.21875 L 73.347656 268.070312 L 75.886719 265.066406 L 78.429688 262.207031 L 80.972656 259.496094 L 83.507812 256.929688 L 86.027344 254.5 L 88.527344 252.210938 L 91.003906 250.058594 L 93.519531 247.980469 L 96.402344 245.722656 L 99.296875 243.570312 L 102.199219 241.527344 L 105.109375 239.585938 L 108.023438 237.75 L 110.9375 236.015625 L 113.84375 234.382812 L 116.746094 232.851562 L 119.636719 231.417969 L 122.511719 230.082031 L 125.375 228.839844 L 128.214844 227.691406 L 131.03125 226.636719 L 133.824219 225.671875 L 136.589844 224.796875 L 139.324219 224.003906 L 142.023438 223.296875 L 144.6875 222.671875 L 147.316406 222.125 L 149.902344 221.65625 L 152.445312 221.257812 L 154.945312 220.9375 L 157.394531 220.683594 L 159.800781 220.496094 L 162.152344 220.375 L 434.578125 220.308594 L 436.707031 220.335938 L 438.933594 220.421875 L 441.3125 220.574219 L 443.738281 220.792969 L 446.214844 221.078125 L 448.734375 221.433594 L 451.296875 221.863281 L 453.902344 222.367188 L 456.546875 222.953125 L 459.230469 223.617188 L 461.945312 224.363281 L 464.695312 225.191406 L 467.472656 226.109375 L 470.277344 227.117188 L 473.105469 228.214844 L 475.957031 229.40625 L 478.824219 230.691406 L 481.707031 232.074219 L 484.601562 233.550781 L 487.507812 235.128906 L 490.417969 236.808594 L 493.332031 238.589844 L 496.242188 240.476562 L 499.152344 242.464844 L 502.050781 244.558594 L 504.941406 246.761719 L 507.683594 248.960938 L 510.144531 251.042969 L 512.632812 253.257812 L 515.144531 255.613281 L 517.671875 258.105469 L 520.210938 260.742188 L 522.753906 263.519531 L 525.296875 266.445312 L 527.832031 269.519531 L 530.351562 272.734375 L 532.839844 276.085938 L 535.296875 279.574219 L 537.714844 283.199219 L 540.085938 286.960938 L 542.40625 290.859375 L 544.667969 294.886719 L 546.863281 299.046875 L 548.988281 303.335938 L 551.039062 307.75 L 553.011719 312.289062 L 554.890625 316.953125 L 556.683594 321.734375 L 558.375 326.632812 L 559.964844 331.640625 L 561.445312 336.761719 L 562.8125 341.984375 L 564.0625 347.3125 L 565.191406 352.738281 L 566.195312 358.257812 L 567.066406 363.863281 L 567.800781 369.558594 L 568.398438 375.332031 L 568.851562 381.179688 L 569.160156 387.097656 L 434.578125 387.097656 L 433.632812 387.09375 L 432.6875 387.078125 L 431.738281 387.050781 L 430.84375 387.015625 L 430 386.972656 L 429.164062 386.921875 L 428.34375 386.859375 L 427.53125 386.789062 L 426.730469 386.710938 L 425.945312 386.628906 L 425.167969 386.535156 L 424.402344 386.433594 L 423.652344 386.328125 L 422.910156 386.210938 L 422.179688 386.089844 L 421.464844 385.964844 L 420.761719 385.828125 L 420.066406 385.691406 L 419.386719 385.546875 L 418.71875 385.394531 L 418.0625 385.238281 L 417.417969 385.078125 L 416.789062 384.914062 L 416.167969 384.746094 L 415.5625 384.570312 L 414.964844 384.394531 L 414.382812 384.214844 L 413.8125 384.03125 L 413.257812 383.84375 L 412.710938 383.652344 L 412.179688 383.460938 L 411.65625 383.265625 L 411.148438 383.070312 L 410.652344 382.871094 L 410.167969 382.671875 L 409.695312 382.46875 L 409.238281 382.269531 L 408.789062 382.066406 L 408.355469 381.859375 L 407.929688 381.65625 L 407.519531 381.453125 L 407.121094 381.25 L 406.730469 381.046875 L 406.355469 380.84375 L 405.992188 380.644531 L 405.640625 380.441406 L 405.300781 380.246094 L 404.96875 380.046875 L 404.652344 379.851562 L 404.34375 379.660156 L 404.050781 379.46875 L 403.765625 379.28125 L 403.492188 379.09375 L 403.230469 378.914062 L 402.980469 378.734375 L 402.738281 378.558594 L 402.507812 378.386719 L 402.289062 378.21875 L 402.078125 378.054688 Z M 401.878906 377.894531 "/>
<path style="fill:none;stroke-width:1;stroke-linecap:square;stroke-linejoin:miter;stroke:rgb(0%,0%,0%);stroke-opacity:1;stroke-miterlimit:3.25;" d="M 405.03125 374.007812 L 401.878906 377.894531 "/>
<path style="fill:none;stroke-width:1;stroke-linecap:square;stroke-linejoin:miter;stroke:rgb(0%,0%,0%);stroke-opacity:1;stroke-miterlimit:3.25;" d="M 321.609375 273.773438 L 320.515625 278.65625 "/>
<path style="fill:none;stroke-width:1;stroke-linecap:square;stroke-linejoin:miter;stroke:rgb(0%,0%,0%);stroke-opacity:1;stroke-miterlimit:3.25;" d="M 278.390625 273.773438 L 279.484375 278.65625 "/>
<path style="fill:none;stroke-width:1;stroke-linecap:square;stroke-linejoin:miter;stroke:rgb(0%,0%,0%);stroke-opacity:1;stroke-miterlimit:3.25;" d="M 194.96875 374.007812 L 198.121094 377.894531 "/>
<path style="fill:none;stroke-width:1;stroke-linecap:square;stroke-linejoin:miter;stroke:rgb(0%,0%,0%);stroke-opacity:1;stroke-miterlimit:3.25;" d="M 431.507812 382.035156 L 431.3125 387.035156 "/>
<path style="fill:none;stroke-width:1;stroke-linecap:square;stroke-linejoin:miter;stroke:rgb(0%,0%,0%);stroke-opacity:1;stroke-miterlimit:3.25;" d="M 434.578125 382.097656 L 434.578125 387.097656 "/>
<path style="fill:none;stroke-width:1;stroke-linecap:square;stroke-linejoin:miter;stroke:rgb(0%,0%,0%);stroke-opacity:1;stroke-miterlimit:3.25;" d="M 168.492188 382.035156 L 168.6875 387.035156 "/>
<path style="fill:none;stroke-width:1;stroke-linecap:square;stroke-linejoin:miter;stroke:rgb(0%,0%,0%);stroke-opacity:1;stroke-miterlimit:3.25;" d="M 165.421875 382.097656 L 165.421875 387.097656 "/>
<path style="fill:none;stroke-width:1;stroke-linecap:square;stroke-linejoin:miter;stroke:rgb(0%,0%,0%);stroke-opacity:1;stroke-miterlimit:3.25;" d="M 523.554688 272.183594 L 527.441406 269.03125 "/>
<path style="fill:none;stroke-width:1;stroke-linecap:square;stroke-linejoin:miter;stroke:rgb(0%,0%,0%);stroke-opacity:1;stroke-miterlimit:3.25;" d="M 503.773438 252.226562 L 506.925781 248.339844 "/>
<path style="fill:none;stroke-width:1;stroke-linecap:square;stroke-linejoin:miter;stroke:rgb(0%,0%,0%);stroke-opacity:1;stroke-miterlimit:3.25;" d="M 437.648438 225.375 L 437.847656 220.375 "/>
<path style="fill:none;stroke-width:1;stroke-linecap:square;stroke-linejoin:miter;stroke:rgb(0%,0%,0%);stroke-opacity:1;stroke-miterlimit:3.25;" d="M 434.578125 225.3125 L 434.578125 220.308594 "/>
<path style="fill:none;stroke-width:1;stroke-linecap:square;stroke-linejoin:miter;stroke:rgb(0%,0%,0%);stroke-opacity:1;stroke-miterlimit:3.25;" d="M 76.445312 272.183594 L 72.558594 269.03125 "/>
<path style="fill:none;stroke-width:1;stroke-linecap:square;stroke-linejoin:miter;stroke:rgb(0%,0%,0%);stroke-opacity:1;stroke-miterlimit:3.25;" d="M 96.226562 252.226562 L 93.074219 248.339844 "/>
<path style="fill:none;stroke-width:1;stroke-linecap:square;stroke-linejoin:miter;stroke:rgb(0%,0%,0%);stroke-opacity:1;stroke-miterlimit:3.25;" d="M 162.351562 225.375 L 162.152344 220.375 "/>
<path style="fill:none;stroke-width:1;stroke-linecap:square;stroke-linejoin:miter;stroke:rgb(0%,0%,0%);stroke-opacity:1;stroke-miterlimit:3.25;" d="M 165.421875 225.3125 L 165.421875 220.308594 "/>
<path style="fill:none;stroke-width:1;stroke-linecap:square;stroke-linejoin:miter;stroke:rgb(0%,0%,0%);stroke-opacity:1;stroke-miterlimit:3.25;" d="M 565.621094 383.5625 L 569.160156 387.097656 "/>
<path style="fill:none;stroke-width:1;stroke-linecap:square;stroke-linejoin:miter;stroke:rgb(0%,0%,0%);stroke-opacity:1;stroke-miterlimit:3.25;" d="M 34.378906 383.5625 L 30.839844 387.097656 "/>
<path style="fill:none;stroke-width:1.5;stroke-linecap:butt;stroke-linejoin:miter;stroke:rgb(0%,0%,0%);stroke-opacity:1;stroke-dasharray:1,3;stroke-miterlimit:3.25;" d="M 402.371094 387.097656 L 402.371094 386.945312 L 402.367188 386.789062 L 402.367188 386.328125 L 402.363281 386.171875 L 402.363281 386.015625 L 402.359375 385.863281 L 402.359375 385.707031 L 402.355469 385.554688 L 402.351562 385.398438 L 402.351562 385.246094 L 402.347656 385.089844 L 402.34375 384.9375 L 402.339844 384.78125 L 402.335938 384.628906 L 402.328125 384.476562 L 402.324219 384.320312 L 402.320312 384.167969 L 402.316406 384.011719 L 402.308594 383.859375 L 402.304688 383.703125 L 402.289062 383.398438 L 402.285156 383.242188 L 402.269531 382.9375 L 402.261719 382.78125 L 402.246094 382.476562 L 402.238281 382.320312 L 402.222656 382.015625 L 402.210938 381.863281 L 402.203125 381.707031 L 402.191406 381.554688 L 402.183594 381.402344 L 402.171875 381.25 L 402.164062 381.097656 L 402.152344 380.945312 L 402.140625 380.789062 L 402.070312 379.875 L 402.054688 379.722656 L 402.03125 379.417969 L 402 379.113281 L 401.988281 378.960938 L 401.941406 378.503906 L 401.929688 378.351562 L 401.898438 378.046875 L 401.878906 377.894531 "/>
<path style="fill:none;stroke-width:1.5;stroke-linecap:butt;stroke-linejoin:miter;stroke:rgb(0%,0%,0%);stroke-opacity:1;stroke-dasharray:1,3;stroke-miterlimit:3.25;" d="M 198.121094 377.894531 L 198.101562 378.046875 L 198.070312 378.351562 L 198.058594 378.503906 L 198.011719 378.960938 L 198 379.113281 L 197.96875 379.417969 L 197.945312 379.722656 L 197.929688 379.875 L 197.859375 380.789062 L 197.847656 380.945312 L 197.835938 381.097656 L 197.828125 381.25 L 197.816406 381.402344 L 197.808594 381.554688 L 197.796875 381.707031 L 197.789062 381.863281 L 197.777344 382.015625 L 197.761719 382.320312 L 197.753906 382.476562 L 197.738281 382.78125 L 197.730469 382.9375 L 197.714844 383.242188 L 197.710938 383.398438 L 197.695312 383.703125 L 197.691406 383.859375 L 197.683594 384.011719 L 197.679688 384.167969 L 197.675781 384.320312 L 197.671875 384.476562 L 197.664062 384.628906 L 197.660156 384.78125 L 197.65625 384.9375 L 197.652344 385.089844 L 197.648438 385.246094 L 197.648438 385.398438 L 197.644531 385.554688 L 197.640625 385.707031 L 197.640625 385.863281 L 197.636719 386.015625 L 197.636719 386.171875 L 197.632812 386.328125 L 197.632812 386.789062 L 197.628906 386.945312 L 197.628906 387.097656 "/>
</g>
</svg>
