<?xml version="1.0" encoding="UTF-8"?>
<svg xmlns="http://www.w3.org/2000/svg" xmlns:xlink="http://www.w3.org/1999/xlink" width="360pt" height="122pt" viewBox="0 0 360 122" version="1.1">
<g id="surface21">
<path style="fill-rule:nonzero;fill:rgb(100%,100%,86.999313%);fill-opacity:1;stroke-width:1.5;stroke-linecap:square;stroke-linejoin:miter;stroke:rgb(0%,0%,0%);stroke-opacity:1;stroke-miterlimit:3.25;" d="M 244.726562 107.78125 L 244.238281 104.007812 L 243.585938 100.289062 L 242.773438 96.640625 L 241.808594 93.058594 L 240.6875 89.554688 L 239.414062 86.136719 L 237.996094 82.808594 L 236.4375 79.578125 L 234.742188 76.445312 L 232.910156 73.425781 L 230.953125 70.515625 L 228.867188 67.726562 L 226.667969 65.058594 L 224.351562 62.523438 L 221.929688 60.121094 L 219.40625 57.855469 L 216.785156 55.734375 L 214.074219 53.761719 L 211.28125 51.9375 L 208.410156 50.269531 L 205.464844 48.761719 L 202.460938 47.410156 L 199.394531 46.226562 L 196.28125 45.210938 L 193.125 44.363281 L 189.933594 43.6875 L 186.722656 43.195312 L 183.492188 42.878906 L 180.253906 42.746094 L 177.015625 42.796875 L 173.777344 43.027344 L 170.558594 43.4375 L 167.355469 44.027344 L 164.179688 44.792969 L 161.046875 45.734375 L 157.957031 46.839844 L 154.925781 48.113281 L 151.953125 49.546875 L 149.046875 51.144531 L 146.214844 52.894531 L 143.464844 54.796875 L 140.800781 56.851562 L 138.234375 59.050781 L 135.761719 61.386719 L 133.394531 63.863281 L 131.140625 66.46875 L 129.003906 69.203125 L 126.984375 72.054688 L 125.09375 75.027344 L 123.335938 78.105469 L 121.710938 81.292969 L 120.226562 84.578125 L 118.886719 87.953125 L 117.695312 91.417969 L 116.65625 94.964844 L 115.773438 98.582031 L 115.046875 102.269531 L 114.480469 106.019531 L 114.273438 107.78125 L 114.105469 107.914062 L 113.929688 108.054688 L 113.738281 108.195312 L 113.535156 108.34375 L 113.324219 108.492188 L 113.097656 108.648438 L 112.859375 108.804688 L 112.609375 108.964844 L 112.347656 109.128906 L 112.074219 109.292969 L 111.785156 109.457031 L 111.488281 109.625 L 111.175781 109.796875 L 110.847656 109.964844 L 110.511719 110.136719 L 110.160156 110.304688 L 109.796875 110.476562 L 109.417969 110.644531 L 109.027344 110.8125 L 108.625 110.980469 L 108.207031 111.148438 L 107.773438 111.308594 L 107.332031 111.472656 L 106.871094 111.628906 L 106.402344 111.785156 L 105.917969 111.9375 L 105.417969 112.085938 L 104.90625 112.226562 L 104.382812 112.367188 L 103.84375 112.5 L 103.292969 112.628906 L 102.726562 112.753906 L 102.148438 112.867188 L 101.558594 112.980469 L 100.953125 113.082031 L 100.335938 113.179688 L 99.707031 113.269531 L 99.0625 113.347656 L 98.40625 113.421875 L 97.738281 113.488281 L 97.054688 113.542969 L 96.363281 113.585938 L 95.65625 113.625 L 94.886719 113.652344 L 94.097656 113.667969 L 7.179688 113.675781 L 7.261719 111.90625 L 7.5 108.136719 L 7.832031 104.414062 L 8.257812 100.742188 L 8.769531 97.121094 L 9.367188 93.558594 L 10.046875 90.050781 L 10.804688 86.609375 L 11.640625 83.226562 L 12.550781 79.914062 L 13.53125 76.667969 L 14.582031 73.492188 L 15.691406 70.390625 L 16.867188 67.367188 L 18.097656 64.417969 L 19.382812 61.546875 L 20.71875 58.757812 L 22.101562 56.050781 L 23.527344 53.425781 L 24.992188 50.886719 L 26.496094 48.433594 L 28.027344 46.066406 L 29.585938 43.785156 L 31.171875 41.589844 L 32.773438 39.484375 L 34.394531 37.46875 L 36.019531 35.546875 L 37.648438 33.71875 L 39.273438 31.980469 L 40.898438 30.335938 L 42.511719 28.78125 L 44.113281 27.316406 L 45.699219 25.9375 L 47.308594 24.609375 L 49.152344 23.164062 L 51.007812 21.785156 L 52.867188 20.476562 L 54.730469 19.234375 L 56.59375 18.058594 L 58.457031 16.949219 L 60.320312 15.902344 L 62.175781 14.921875 L 64.027344 14.003906 L 65.871094 13.148438 L 67.699219 12.355469 L 69.519531 11.621094 L 71.324219 10.945312 L 73.113281 10.328125 L 74.882812 9.765625 L 76.632812 9.257812 L 78.359375 8.804688 L 80.066406 8.40625 L 81.75 8.054688 L 83.402344 7.753906 L 85.03125 7.5 L 86.632812 7.292969 L 88.203125 7.132812 L 89.742188 7.011719 L 91.25 6.933594 L 265.660156 6.894531 L 267.023438 6.910156 L 268.449219 6.964844 L 269.96875 7.0625 L 271.523438 7.203125 L 273.109375 7.382812 L 274.722656 7.613281 L 276.363281 7.886719 L 278.03125 8.210938 L 279.722656 8.585938 L 281.441406 9.007812 L 283.179688 9.488281 L 284.941406 10.019531 L 286.71875 10.605469 L 288.515625 11.25 L 290.324219 11.953125 L 292.148438 12.714844 L 293.984375 13.539062 L 295.832031 14.421875 L 297.6875 15.371094 L 299.546875 16.382812 L 301.410156 17.457031 L 303.273438 18.597656 L 305.136719 19.804688 L 307 21.078125 L 308.855469 22.417969 L 310.707031 23.828125 L 312.460938 25.234375 L 314.039062 26.566406 L 315.632812 27.988281 L 317.238281 29.492188 L 318.855469 31.089844 L 320.480469 32.777344 L 322.109375 34.554688 L 323.738281 36.429688 L 325.363281 38.398438 L 326.972656 40.453125 L 328.570312 42.601562 L 330.140625 44.835938 L 331.691406 47.15625 L 333.207031 49.566406 L 334.691406 52.058594 L 336.140625 54.636719 L 337.546875 57.300781 L 338.90625 60.046875 L 340.21875 62.875 L 341.480469 65.78125 L 342.6875 68.765625 L 343.832031 71.824219 L 344.914062 74.960938 L 345.933594 78.167969 L 346.882812 81.445312 L 347.757812 84.792969 L 348.558594 88.203125 L 349.28125 91.675781 L 349.921875 95.207031 L 350.480469 98.800781 L 350.949219 102.445312 L 351.332031 106.140625 L 351.625 109.882812 L 351.820312 113.675781 L 265.660156 113.675781 L 265.054688 113.671875 L 264.449219 113.660156 L 263.839844 113.644531 L 263.269531 113.621094 L 262.726562 113.59375 L 262.195312 113.558594 L 261.667969 113.519531 L 261.148438 113.476562 L 260.636719 113.425781 L 260.132812 113.371094 L 259.632812 113.3125 L 259.144531 113.25 L 258.664062 113.179688 L 258.1875 113.105469 L 257.722656 113.027344 L 257.261719 112.945312 L 256.8125 112.863281 L 256.367188 112.773438 L 255.933594 112.679688 L 255.503906 112.582031 L 255.085938 112.484375 L 254.671875 112.382812 L 254.269531 112.273438 L 253.871094 112.167969 L 253.484375 112.054688 L 253.105469 111.941406 L 252.730469 111.828125 L 252.367188 111.710938 L 252.007812 111.589844 L 251.660156 111.46875 L 251.320312 111.34375 L 250.984375 111.21875 L 250.660156 111.09375 L 250.34375 110.96875 L 250.03125 110.839844 L 249.730469 110.710938 L 249.4375 110.582031 L 249.148438 110.449219 L 248.871094 110.320312 L 248.597656 110.191406 L 248.335938 110.058594 L 248.078125 109.929688 L 247.832031 109.800781 L 247.589844 109.667969 L 247.359375 109.539062 L 247.132812 109.414062 L 246.914062 109.285156 L 246.703125 109.160156 L 246.5 109.035156 L 246.304688 108.910156 L 246.113281 108.789062 L 245.933594 108.667969 L 245.757812 108.550781 L 245.589844 108.433594 L 245.429688 108.316406 L 245.273438 108.207031 L 245.128906 108.09375 L 244.988281 107.988281 L 244.851562 107.882812 Z M 244.726562 107.78125 "/>
<path style="fill:none;stroke-width:1;stroke-linecap:square;stroke-linejoin:miter;stroke:rgb(0%,0%,0%);stroke-opacity:1;stroke-miterlimit:3.25;" d="M 246.742188 105.292969 L 244.726562 107.78125 "/>
<path style="fill:none;stroke-width:1;stroke-linecap:square;stroke-linejoin:miter;stroke:rgb(0%,0%,0%);stroke-opacity:1;stroke-miterlimit:3.25;" d="M 193.335938 41.121094 L 192.632812 44.246094 "/>
<path style="fill:none;stroke-width:1;stroke-linecap:square;stroke-linejoin:miter;stroke:rgb(0%,0%,0%);stroke-opacity:1;stroke-miterlimit:3.25;" d="M 165.664062 41.121094 L 166.367188 44.246094 "/>
<path style="fill:none;stroke-width:1;stroke-linecap:square;stroke-linejoin:miter;stroke:rgb(0%,0%,0%);stroke-opacity:1;stroke-miterlimit:3.25;" d="M 112.257812 105.292969 L 114.273438 107.78125 "/>
<path style="fill:none;stroke-width:1;stroke-linecap:square;stroke-linejoin:miter;stroke:rgb(0%,0%,0%);stroke-opacity:1;stroke-miterlimit:3.25;" d="M 263.695312 110.433594 L 263.570312 113.632812 "/>
<path style="fill:none;stroke-width:1;stroke-linecap:square;stroke-linejoin:miter;stroke:rgb(0%,0%,0%);stroke-opacity:1;stroke-miterlimit:3.25;" d="M 265.660156 110.472656 L 265.660156 113.675781 "/>
<path style="fill:none;stroke-width:1;stroke-linecap:square;stroke-linejoin:miter;stroke:rgb(0%,0%,0%);stroke-opacity:1;stroke-miterlimit:3.25;" d="M 95.304688 110.433594 L 95.429688 113.632812 "/>
<path style="fill:none;stroke-width:1;stroke-linecap:square;stroke-linejoin:miter;stroke:rgb(0%,0%,0%);stroke-opacity:1;stroke-miterlimit:3.25;" d="M 93.339844 110.472656 L 93.339844 113.675781 "/>
<path style="fill:none;stroke-width:1;stroke-linecap:square;stroke-linejoin:miter;stroke:rgb(0%,0%,0%);stroke-opacity:1;stroke-miterlimit:3.25;" d="M 322.621094 40.105469 L 325.109375 38.085938 "/>
<path style="fill:none;stroke-width:1;stroke-linecap:square;stroke-linejoin:miter;stroke:rgb(0%,0%,0%);stroke-opacity:1;stroke-miterlimit:3.25;" d="M 309.960938 27.328125 L 311.976562 24.839844 "/>
<path style="fill:none;stroke-width:1;stroke-linecap:square;stroke-linejoin:miter;stroke:rgb(0%,0%,0%);stroke-opacity:1;stroke-miterlimit:3.25;" d="M 267.625 10.132812 L 267.75 6.933594 "/>
<path style="fill:none;stroke-width:1;stroke-linecap:square;stroke-linejoin:miter;stroke:rgb(0%,0%,0%);stroke-opacity:1;stroke-miterlimit:3.25;" d="M 265.660156 10.097656 L 265.660156 6.894531 "/>
<path style="fill:none;stroke-width:1;stroke-linecap:square;stroke-linejoin:miter;stroke:rgb(0%,0%,0%);stroke-opacity:1;stroke-miterlimit:3.25;" d="M 36.378906 40.105469 L 33.890625 38.085938 "/>
<path style="fill:none;stroke-width:1;stroke-linecap:square;stroke-linejoin:miter;stroke:rgb(0%,0%,0%);stroke-opacity:1;stroke-miterlimit:3.25;" d="M 49.039062 27.328125 L 47.023438 24.839844 "/>
<path style="fill:none;stroke-width:1;stroke-linecap:square;stroke-linejoin:miter;stroke:rgb(0%,0%,0%);stroke-opacity:1;stroke-miterlimit:3.25;" d="M 91.375 10.132812 L 91.25 6.933594 "/>
<path style="fill:none;stroke-width:1;stroke-linecap:square;stroke-linejoin:miter;stroke:rgb(0%,0%,0%);stroke-opacity:1;stroke-miterlimit:3.25;" d="M 93.339844 10.097656 L 93.339844 6.894531 "/>
<path style="fill:none;stroke-width:1;stroke-linecap:square;stroke-linejoin:miter;stroke:rgb(0%,0%,0%);stroke-opacity:1;stroke-miterlimit:3.25;" d="M 349.554688 111.410156 L 351.820312 113.675781 "/>
<path style="fill:none;stroke-width:1;stroke-linecap:square;stroke-linejoin:miter;stroke:rgb(0%,0%,0%);stroke-opacity:1;stroke-miterlimit:3.25;" d="M 9.445312 111.410156 L 7.179688 113.675781 "/>
<path style="fill:none;stroke-width:1.5;stroke-linecap:butt;stroke-linejoin:miter;stroke:rgb(0%,0%,0%);stroke-opacity:1;stroke-dasharray:1,3;stroke-miterlimit:3.25;" d="M 245.039062 113.675781 L 245.039062 113.277344 L 245.035156 113.179688 L 245.035156 112.980469 L 245.03125 112.882812 L 245.03125 112.683594 L 245.027344 112.585938 L 245.027344 112.488281 L 245.023438 112.386719 L 245.019531 112.289062 L 245.019531 112.191406 L 245.015625 112.09375 L 245.011719 111.992188 L 245.011719 111.894531 L 245.003906 111.699219 L 245 111.597656 L 244.984375 111.207031 L 244.980469 111.105469 L 244.976562 111.007812 L 244.96875 110.910156 L 244.960938 110.714844 L 244.953125 110.617188 L 244.949219 110.519531 L 244.945312 110.417969 L 244.9375 110.320312 L 244.933594 110.222656 L 244.917969 110.027344 L 244.914062 109.929688 L 244.890625 109.636719 L 244.886719 109.539062 L 244.878906 109.441406 L 244.871094 109.339844 L 244.839844 108.949219 L 244.828125 108.851562 L 244.804688 108.558594 L 244.792969 108.460938 L 244.785156 108.367188 L 244.777344 108.269531 L 244.765625 108.171875 L 244.757812 108.074219 L 244.734375 107.878906 L 244.726562 107.78125 "/>
<path style="fill:none;stroke-width:1.5;stroke-linecap:butt;stroke-linejoin:miter;stroke:rgb(0%,0%,0%);stroke-opacity:1;stroke-dasharray:1,3;stroke-miterlimit:3.25;" d="M 114.273438 107.78125 L 114.265625 107.878906 L 114.242188 108.074219 L 114.234375 108.171875 L 114.222656 108.269531 L 114.214844 108.367188 L 114.207031 108.460938 L 114.195312 108.558594 L 114.171875 108.851562 L 114.160156 108.949219 L 114.128906 109.339844 L 114.121094 109.441406 L 114.113281 109.539062 L 114.109375 109.636719 L 114.085938 109.929688 L 114.082031 110.027344 L 114.066406 110.222656 L 114.0625 110.320312 L 114.054688 110.417969 L 114.050781 110.519531 L 114.046875 110.617188 L 114.039062 110.714844 L 114.03125 110.910156 L 114.023438 111.007812 L 114.019531 111.105469 L 114.015625 111.207031 L 114 111.597656 L 113.996094 111.699219 L 113.988281 111.894531 L 113.988281 111.992188 L 113.984375 112.09375 L 113.980469 112.191406 L 113.980469 112.289062 L 113.976562 112.386719 L 113.972656 112.488281 L 113.972656 112.585938 L 113.96875 112.683594 L 113.96875 112.882812 L 113.964844 112.980469 L 113.964844 113.179688 L 113.960938 113.277344 L 113.960938 113.675781 "/>
</g>
</svg>
