<?xml version="1.0" encoding="UTF-8"?>
<svg xmlns="http://www.w3.org/2000/svg" xmlns:xlink="http://www.w3.org/1999/xlink" width="404pt" height="104pt" viewBox="0 0 404 104" version="1.1">
<defs>
<clipPath id="clip1">
  <path d="M 10.800781 68 L 169 68 L 169 97.679688 L 10.800781 97.679688 Z M 10.800781 68 "/>
</clipPath>
<clipPath id="clip2">
  <path d="M 159 68 L 189 68 L 189 97.679688 L 159 97.679688 Z M 159 68 "/>
</clipPath>
<clipPath id="clip3">
  <path d="M 10.800781 6.480469 L 225 6.480469 L 225 77 L 10.800781 77 Z M 10.800781 6.480469 "/>
</clipPath>
<clipPath id="clip4">
  <path d="M 214 6.480469 L 247.679688 6.480469 L 247.679688 97.679688 L 214 97.679688 Z M 214 6.480469 "/>
</clipPath>
<clipPath id="clip5">
  <path d="M 171 90 L 176 90 L 176 97.679688 L 171 97.679688 Z M 171 90 "/>
</clipPath>
<clipPath id="clip6">
  <path d="M 193 90 L 199 90 L 199 97.679688 L 193 97.679688 Z M 193 90 "/>
</clipPath>
<clipPath id="clip7">
  <path d="M 267.121094 16 L 381 16 L 381 50.878906 L 267.121094 50.878906 Z M 267.121094 16 "/>
</clipPath>
<clipPath id="clip8">
  <path d="M 267.121094 44 L 353 44 L 353 46 L 267.121094 46 Z M 267.121094 44 "/>
</clipPath>
<clipPath id="clip9">
  <path d="M 351 44 L 353 44 L 353 50.878906 L 351 50.878906 Z M 351 44 "/>
</clipPath>
<clipPath id="clip10">
  <path d="M 351 44 L 353 44 L 353 50.878906 L 351 50.878906 Z M 351 44 "/>
</clipPath>
<clipPath id="clip11">
  <path d="M 267.121094 16 L 381 16 L 381 18 L 267.121094 18 Z M 267.121094 16 "/>
</clipPath>
<clipPath id="clip12">
  <path d="M 379 16 L 381 16 L 381 50.878906 L 379 50.878906 Z M 379 16 "/>
</clipPath>
<clipPath id="clip13">
  <path d="M 379 16 L 381 16 L 381 50.878906 L 379 50.878906 Z M 379 16 "/>
</clipPath>
<clipPath id="clip14">
  <path d="M 322 35 L 347 35 L 347 50.878906 L 322 50.878906 Z M 322 35 "/>
</clipPath>
<clipPath id="clip15">
  <path d="M 267.121094 59 L 381 59 L 381 92.878906 L 267.121094 92.878906 Z M 267.121094 59 "/>
</clipPath>
<clipPath id="clip16">
  <path d="M 267.121094 86 L 353 86 L 353 89 L 267.121094 89 Z M 267.121094 86 "/>
</clipPath>
<clipPath id="clip17">
  <path d="M 351 86 L 353 86 L 353 92.878906 L 351 92.878906 Z M 351 86 "/>
</clipPath>
<clipPath id="clip18">
  <path d="M 351 86 L 353 86 L 353 92.878906 L 351 92.878906 Z M 351 86 "/>
</clipPath>
<clipPath id="clip19">
  <path d="M 267.121094 58 L 381 58 L 381 60 L 267.121094 60 Z M 267.121094 58 "/>
</clipPath>
<clipPath id="clip20">
  <path d="M 379 58 L 381 58 L 381 92.878906 L 379 92.878906 Z M 379 58 "/>
</clipPath>
<clipPath id="clip21">
  <path d="M 379 58 L 381 58 L 381 92.878906 L 379 92.878906 Z M 379 58 "/>
</clipPath>
<clipPath id="clip22">
  <path d="M 322 77 L 347 77 L 347 92.878906 L 322 92.878906 Z M 322 77 "/>
</clipPath>
</defs>
<g id="surface84">
<path style="fill-rule:nonzero;fill:rgb(100%,100%,86.999313%);fill-opacity:1;stroke-width:1;stroke-linecap:square;stroke-linejoin:miter;stroke:rgb(0%,0%,0%);stroke-opacity:1;stroke-miterlimit:3.25;" d="M 89.960938 77.851562 L 89.964844 77.832031 L 90.410156 75.578125 L 90.949219 73.363281 L 91.585938 71.199219 L 92.3125 69.082031 L 93.132812 67.015625 L 94.039062 65.011719 L 95.03125 63.0625 L 96.105469 61.179688 L 97.261719 59.367188 L 98.496094 57.621094 L 99.800781 55.953125 L 101.179688 54.359375 L 102.625 52.847656 L 104.136719 51.417969 L 105.707031 50.074219 L 107.332031 48.820312 L 109.015625 47.65625 L 110.746094 46.585938 L 112.519531 45.609375 L 114.335938 44.734375 L 116.191406 43.957031 L 118.078125 43.277344 L 119.992188 42.707031 L 121.933594 42.234375 L 123.890625 41.875 L 125.859375 41.625 L 127.835938 41.484375 L 129.816406 41.453125 L 131.792969 41.535156 L 133.769531 41.726562 L 135.730469 42.03125 L 137.683594 42.441406 L 139.609375 42.960938 L 141.515625 43.582031 L 143.386719 44.304688 L 145.222656 45.128906 L 147.019531 46.050781 L 148.777344 47.070312 L 150.484375 48.1875 L 152.140625 49.390625 L 153.742188 50.6875 L 155.285156 52.070312 L 156.765625 53.539062 L 158.179688 55.089844 L 159.523438 56.71875 L 160.796875 58.425781 L 161.996094 60.203125 L 163.113281 62.046875 L 164.152344 63.960938 L 165.105469 65.9375 L 165.96875 67.972656 L 166.746094 70.058594 L 167.433594 72.199219 L 168.023438 74.390625 L 168.519531 76.621094 L 168.917969 78.890625 L 169.214844 81.199219 L 169.292969 81.261719 L 169.375 81.324219 L 169.460938 81.390625 L 169.550781 81.457031 L 169.644531 81.527344 L 169.742188 81.597656 L 169.953125 81.738281 L 170.0625 81.8125 L 170.179688 81.886719 L 170.300781 81.964844 L 170.425781 82.039062 L 170.554688 82.117188 L 170.6875 82.195312 L 170.824219 82.273438 L 171.113281 82.429688 L 171.265625 82.511719 L 171.421875 82.589844 L 171.582031 82.671875 L 171.917969 82.828125 L 172.09375 82.910156 L 172.273438 82.988281 L 172.457031 83.066406 L 172.648438 83.144531 L 173.039062 83.300781 L 173.453125 83.449219 L 173.882812 83.597656 L 174.109375 83.671875 L 174.335938 83.742188 L 174.566406 83.808594 L 174.804688 83.878906 L 175.046875 83.945312 L 175.546875 84.070312 L 175.804688 84.132812 L 176.066406 84.191406 L 176.332031 84.25 L 176.601562 84.300781 L 176.878906 84.355469 L 177.160156 84.40625 L 177.441406 84.453125 L 178.027344 84.539062 L 178.328125 84.578125 L 178.628906 84.613281 L 178.9375 84.648438 L 179.25 84.679688 L 179.570312 84.707031 L 179.890625 84.730469 L 180.214844 84.75 L 180.546875 84.765625 L 180.898438 84.78125 L 181.269531 84.789062 L 181.636719 84.796875 L 182.007812 84.800781 L 234.664062 84.800781 L 234.542969 82.484375 L 234.363281 80.195312 L 234.132812 77.9375 L 233.84375 75.707031 L 233.503906 73.515625 L 233.109375 71.355469 L 232.667969 69.234375 L 232.179688 67.148438 L 231.644531 65.105469 L 231.066406 63.101562 L 230.445312 61.140625 L 229.78125 59.226562 L 229.082031 57.355469 L 228.34375 55.53125 L 227.574219 53.753906 L 226.773438 52.027344 L 225.941406 50.347656 L 225.082031 48.722656 L 224.195312 47.144531 L 223.289062 45.621094 L 222.359375 44.148438 L 221.414062 42.730469 L 220.453125 41.363281 L 219.480469 40.054688 L 218.492188 38.796875 L 217.5 37.59375 L 216.507812 36.449219 L 215.511719 35.363281 L 214.519531 34.332031 L 213.558594 33.382812 L 135.125 19.554688 L 75.421875 19.566406 L 74.503906 19.617188 L 73.5625 19.6875 L 72.601562 19.789062 L 71.625 19.914062 L 70.628906 20.070312 L 69.617188 20.253906 L 68.589844 20.46875 L 67.546875 20.710938 L 66.488281 20.988281 L 65.421875 21.296875 L 64.339844 21.640625 L 63.246094 22.019531 L 62.144531 22.433594 L 61.03125 22.878906 L 59.914062 23.367188 L 58.789062 23.890625 L 57.65625 24.449219 L 56.523438 25.050781 L 55.382812 25.6875 L 54.246094 26.367188 L 53.105469 27.085938 L 51.964844 27.84375 L 50.828125 28.644531 L 49.699219 29.484375 L 48.570312 30.371094 L 47.585938 31.179688 L 46.617188 32.023438 L 45.636719 32.921875 L 44.652344 33.871094 L 43.660156 34.875 L 42.667969 35.9375 L 41.671875 37.054688 L 40.675781 38.230469 L 39.6875 39.460938 L 38.707031 40.75 L 37.742188 42.089844 L 36.785156 43.480469 L 35.851562 44.929688 L 34.933594 46.429688 L 34.039062 47.980469 L 33.167969 49.585938 L 32.320312 51.238281 L 31.503906 52.945312 L 30.71875 54.699219 L 29.96875 56.5 L 29.25 58.347656 L 28.570312 60.242188 L 27.929688 62.183594 L 27.328125 64.167969 L 26.773438 66.191406 L 26.648438 66.691406 Z M 89.960938 77.851562 "/>
<path style=" stroke:none;fill-rule:evenodd;fill:rgb(0%,0%,0%);fill-opacity:1;" d="M 70.542969 52.402344 C 70.542969 51.945312 70.433594 51.539062 70.015625 51.132812 C 69.785156 50.902344 69.589844 50.847656 68.582031 50.585938 C 67.847656 50.386719 67.746094 50.355469 67.550781 50.179688 C 67.363281 49.992188 67.222656 49.730469 67.222656 49.359375 C 67.222656 48.4375 68.152344 47.496094 69.195312 47.496094 C 70.269531 47.496094 70.773438 48.152344 70.773438 49.195312 C 70.773438 49.476562 70.71875 49.773438 70.71875 49.816406 C 70.71875 49.914062 70.804688 49.914062 70.839844 49.914062 C 70.9375 49.914062 70.949219 49.882812 70.992188 49.707031 L 71.585938 47.296875 C 71.585938 47.199219 71.484375 47.199219 71.484375 47.199219 C 71.441406 47.199219 71.429688 47.207031 71.296875 47.375 L 70.773438 48.03125 C 70.410156 47.320312 69.6875 47.199219 69.226562 47.199219 C 67.835938 47.199219 66.574219 48.46875 66.574219 49.707031 C 66.574219 50.53125 67.070312 51.011719 67.605469 51.199219 C 67.726562 51.242188 68.371094 51.417969 68.703125 51.492188 C 69.261719 51.648438 69.402344 51.691406 69.632812 51.933594 C 69.675781 51.988281 69.894531 52.238281 69.894531 52.753906 C 69.894531 53.773438 68.953125 54.824219 67.859375 54.824219 C 66.960938 54.824219 65.960938 54.441406 65.960938 53.214844 C 65.960938 53.007812 66.007812 52.746094 66.039062 52.632812 C 66.039062 52.601562 66.050781 52.523438 66.050781 52.523438 C 66.050781 52.480469 66.027344 52.425781 65.9375 52.425781 C 65.839844 52.425781 65.828125 52.445312 65.785156 52.632812 L 65.226562 54.878906 L 65.183594 55.042969 C 65.183594 55.144531 65.292969 55.144531 65.292969 55.144531 C 65.335938 55.144531 65.347656 55.132812 65.480469 54.96875 L 65.984375 54.308594 C 66.246094 54.707031 66.816406 55.144531 67.835938 55.144531 C 69.25 55.144531 70.542969 53.773438 70.542969 52.402344 Z M 70.542969 52.402344 "/>
<path style=" stroke:none;fill-rule:evenodd;fill:rgb(0%,0%,0%);fill-opacity:1;" d="M 75.960938 54.679688 C 76.035156 54.363281 76.128906 54.003906 76.128906 53.707031 C 76.128906 53.492188 76.082031 53.308594 75.945312 53.191406 C 75.898438 53.152344 75.832031 53.128906 75.761719 53.128906 C 75.660156 53.128906 75.554688 53.175781 75.46875 53.269531 C 75.402344 53.34375 75.363281 53.4375 75.363281 53.519531 C 75.363281 53.605469 75.394531 53.683594 75.460938 53.738281 C 75.652344 53.890625 75.761719 54.121094 75.761719 54.378906 C 75.761719 54.464844 75.746094 54.550781 75.730469 54.632812 C 75.554688 55.316406 75.078125 56 74.472656 56 C 74.058594 56 73.789062 55.746094 73.695312 55.386719 C 73.804688 55.164062 73.890625 54.917969 73.941406 54.679688 C 73.957031 54.625 73.964844 54.566406 73.964844 54.511719 C 73.964844 54.371094 73.910156 54.265625 73.78125 54.265625 C 73.628906 54.265625 73.511719 54.449219 73.472656 54.632812 C 73.40625 54.886719 73.375 55.132812 73.382812 55.355469 C 73.121094 55.730469 72.746094 56 72.339844 56 C 71.863281 56 71.632812 55.609375 71.632812 55.117188 C 71.632812 54.980469 71.648438 54.832031 71.6875 54.679688 C 71.800781 54.234375 72.070312 53.8125 72.375 53.421875 C 72.398438 53.382812 72.414062 53.34375 72.414062 53.316406 C 72.414062 53.261719 72.382812 53.214844 72.339844 53.183594 C 72.316406 53.167969 72.292969 53.160156 72.261719 53.160156 C 72.207031 53.160156 72.148438 53.191406 72.109375 53.238281 C 71.785156 53.675781 71.578125 54.152344 71.457031 54.632812 C 71.386719 54.902344 71.351562 55.164062 71.351562 55.417969 C 71.351562 56.074219 71.609375 56.589844 72.238281 56.589844 C 72.722656 56.589844 73.128906 56.277344 73.445312 55.832031 C 73.558594 56.285156 73.859375 56.589844 74.363281 56.589844 C 75.175781 56.589844 75.730469 55.617188 75.960938 54.679688 Z M 75.960938 54.679688 "/>
<path style=" stroke:none;fill-rule:evenodd;fill:rgb(0%,0%,0%);fill-opacity:1;" d="M 130.5 85 C 130.5 84.601562 130.34375 84.21875 130.0625 83.9375 C 129.78125 83.65625 129.398438 83.5 129 83.5 C 128.601562 83.5 128.21875 83.65625 127.9375 83.9375 C 127.65625 84.21875 127.5 84.601562 127.5 85 C 127.5 85.398438 127.65625 85.78125 127.9375 86.0625 C 128.21875 86.34375 128.601562 86.5 129 86.5 C 129.398438 86.5 129.78125 86.34375 130.0625 86.0625 C 130.34375 85.78125 130.5 85.398438 130.5 85 Z M 130.5 85 "/>
<path style=" stroke:none;fill-rule:evenodd;fill:rgb(0%,0%,0%);fill-opacity:1;" d="M 128.3125 90.242188 C 128.3125 88.433594 127.128906 87.324219 125.59375 87.324219 C 123.246094 87.324219 120.882812 89.847656 120.882812 92.378906 C 120.882812 94.097656 122.019531 95.269531 123.609375 95.269531 C 125.910156 95.269531 128.3125 92.871094 128.3125 90.242188 Z M 127.433594 89.847656 C 127.433594 90.820312 127.015625 92.34375 126.285156 93.386719 C 125.484375 94.503906 124.488281 95.019531 123.675781 95.019531 C 122.777344 95.019531 121.824219 94.359375 121.824219 92.652344 C 121.824219 91.652344 122.183594 90.019531 123.082031 88.925781 C 123.882812 87.960938 124.804688 87.566406 125.539062 87.566406 C 126.503906 87.566406 127.433594 88.269531 127.433594 89.847656 Z M 127.433594 89.847656 "/>
<g clip-path="url(#clip1)" clip-rule="nonzero">
<path style="fill:none;stroke-width:1;stroke-linecap:butt;stroke-linejoin:miter;stroke:rgb(0%,0%,0%);stroke-opacity:1;stroke-dasharray:1,4;stroke-miterlimit:3.25;" d="M -225.917969 141.933594 L 163.871094 73.203125 "/>
<path style="fill:none;stroke-width:1;stroke-linecap:butt;stroke-linejoin:miter;stroke:rgb(0%,0%,0%);stroke-opacity:1;stroke-dasharray:1,4;stroke-miterlimit:3.25;" d="M -225.917969 141.933594 L 163.871094 73.203125 "/>
</g>
<path style=" stroke:none;fill-rule:nonzero;fill:rgb(0%,0%,0%);fill-opacity:1;" d="M 163.871094 73.203125 L 163.785156 73.117188 L 164.277344 72.625 L 164.363281 73.117188 Z M 163.871094 73.203125 "/>
<g clip-path="url(#clip2)" clip-rule="nonzero">
<path style="fill:none;stroke-width:1;stroke-linecap:butt;stroke-linejoin:miter;stroke:rgb(0%,0%,0%);stroke-opacity:1;stroke-dasharray:1,4;stroke-miterlimit:3.25;" d="M 184.296875 189.039062 L 163.871094 73.203125 "/>
<path style="fill:none;stroke-width:1;stroke-linecap:butt;stroke-linejoin:miter;stroke:rgb(0%,0%,0%);stroke-opacity:1;stroke-dasharray:1,4;stroke-miterlimit:3.25;" d="M 184.296875 189.039062 L 163.871094 73.203125 "/>
</g>
<g clip-path="url(#clip3)" clip-rule="nonzero">
<path style="fill:none;stroke-width:1;stroke-linecap:butt;stroke-linejoin:miter;stroke:rgb(0%,0%,0%);stroke-opacity:1;stroke-dasharray:1,4;stroke-miterlimit:3.25;" d="M -225.917969 72.359375 L 219.453125 -6.171875 "/>
<path style="fill:none;stroke-width:1;stroke-linecap:butt;stroke-linejoin:miter;stroke:rgb(0%,0%,0%);stroke-opacity:1;stroke-dasharray:1,4;stroke-miterlimit:3.25;" d="M -225.917969 72.359375 L 219.453125 -6.171875 "/>
</g>
<g clip-path="url(#clip4)" clip-rule="nonzero">
<path style="fill:none;stroke-width:1;stroke-linecap:butt;stroke-linejoin:miter;stroke:rgb(0%,0%,0%);stroke-opacity:1;stroke-dasharray:1,4;stroke-miterlimit:3.25;" d="M 253.875 189.039062 L 219.453125 -6.171875 "/>
<path style="fill:none;stroke-width:1;stroke-linecap:butt;stroke-linejoin:miter;stroke:rgb(0%,0%,0%);stroke-opacity:1;stroke-dasharray:1,4;stroke-miterlimit:3.25;" d="M 253.875 189.039062 L 219.453125 -6.171875 "/>
</g>
<path style=" stroke:none;fill-rule:evenodd;fill:rgb(0%,0%,0%);fill-opacity:1;" d="M 236.5 37 C 236.5 36.601562 236.34375 36.21875 236.0625 35.9375 C 235.78125 35.65625 235.398438 35.5 235 35.5 C 234.601562 35.5 234.21875 35.65625 233.9375 35.9375 C 233.65625 36.21875 233.5 36.601562 233.5 37 C 233.5 37.398438 233.65625 37.78125 233.9375 38.0625 C 234.21875 38.34375 234.601562 38.5 235 38.5 C 235.398438 38.5 235.78125 38.34375 236.0625 38.0625 C 236.34375 37.78125 236.5 37.398438 236.5 37 Z M 236.5 37 "/>
<path style=" stroke:none;fill-rule:evenodd;fill:rgb(0%,0%,0%);fill-opacity:1;" d="M 240.328125 28.171875 C 240.328125 27.824219 239.988281 27.515625 239.441406 27.515625 C 239.003906 27.515625 238.5 27.714844 238.039062 28.382812 C 237.960938 27.800781 237.523438 27.515625 237.085938 27.515625 C 236.660156 27.515625 236.441406 27.84375 236.308594 28.085938 C 236.125 28.480469 235.957031 29.136719 235.957031 29.191406 C 235.957031 29.234375 236 29.289062 236.078125 29.289062 C 236.167969 29.289062 236.179688 29.28125 236.242188 29.027344 C 236.40625 28.371094 236.613281 27.734375 237.054688 27.734375 C 237.316406 27.734375 237.394531 27.921875 237.394531 28.238281 C 237.394531 28.480469 237.285156 28.90625 237.207031 29.246094 L 236.898438 30.429688 L 236.679688 31.328125 C 236.605469 31.609375 236.484375 32.125 236.484375 32.179688 C 236.484375 32.335938 236.605469 32.453125 236.769531 32.453125 C 236.886719 32.453125 237.097656 32.378906 237.164062 32.160156 C 237.195312 32.070312 237.601562 30.417969 237.667969 30.167969 C 237.722656 29.925781 237.785156 29.695312 237.839844 29.453125 L 237.960938 28.984375 C 237.996094 28.882812 238.289062 28.347656 238.5625 28.105469 C 238.695312 27.988281 238.980469 27.734375 239.429688 27.734375 C 239.605469 27.734375 239.78125 27.769531 239.921875 27.867188 C 239.582031 27.933594 239.40625 28.171875 239.40625 28.414062 C 239.40625 28.675781 239.613281 28.765625 239.769531 28.765625 C 240.074219 28.765625 240.328125 28.503906 240.328125 28.171875 Z M 240.328125 28.171875 "/>
<path style="fill:none;stroke-width:1;stroke-linecap:butt;stroke-linejoin:miter;stroke:rgb(0%,0%,0%);stroke-opacity:1;stroke-dasharray:4,4;stroke-miterlimit:3.25;" d="M 135.0625 19.542969 L 234.664062 37.105469 L 234.664062 84.800781 "/>
<path style="fill:none;stroke-width:1;stroke-linecap:square;stroke-linejoin:miter;stroke:rgb(0%,66.666667%,0%);stroke-opacity:1;stroke-miterlimit:3.25;" d="M 190.125 84.800781 L 234.664062 37.105469 "/>
<path style=" stroke:none;fill-rule:evenodd;fill:rgb(0%,66.666667%,0%);fill-opacity:1;" d="M 210.882812 56.191406 L 210.882812 55.875 L 210.546875 55.875 C 209.582031 55.875 209.550781 55.746094 209.550781 55.347656 L 209.550781 49.171875 C 209.550781 48.921875 209.550781 48.910156 209.328125 48.910156 C 209.066406 49.203125 208.519531 49.609375 207.390625 49.609375 L 207.390625 49.925781 C 207.640625 49.925781 208.191406 49.925781 208.792969 49.644531 L 208.792969 55.347656 C 208.792969 55.746094 208.761719 55.875 207.796875 55.875 L 207.457031 55.875 L 207.457031 56.191406 C 207.753906 56.171875 208.816406 56.171875 209.175781 56.171875 C 209.535156 56.171875 210.589844 56.171875 210.882812 56.191406 Z M 210.882812 56.191406 "/>
<path style="fill:none;stroke-width:1;stroke-linecap:square;stroke-linejoin:miter;stroke:rgb(0%,0%,100%);stroke-opacity:1;stroke-miterlimit:3.25;" d="M 234.664062 84.800781 L 190.125 84.800781 "/>
<path style=" stroke:none;fill-rule:evenodd;fill:rgb(0%,0%,100%);fill-opacity:1;" d="M 213.335938 78.648438 C 213.292969 78.824219 213.273438 78.871094 213.128906 79.035156 C 212.679688 79.613281 212.21875 79.824219 211.878906 79.824219 C 211.519531 79.824219 211.179688 79.535156 211.179688 78.78125 C 211.179688 78.199219 211.507812 76.972656 211.746094 76.480469 C 212.066406 75.867188 212.558594 75.429688 213.019531 75.429688 C 213.742188 75.429688 213.886719 76.328125 213.886719 76.390625 L 213.851562 76.546875 Z M 213.5 80.777344 L 214.71875 75.867188 C 214.75 75.734375 214.75 75.691406 214.75 75.691406 C 214.75 75.539062 214.632812 75.417969 214.464844 75.417969 C 214.203125 75.417969 214.050781 75.636719 214.015625 75.929688 C 213.875 75.613281 213.566406 75.210938 213.019531 75.210938 C 211.824219 75.210938 210.464844 76.710938 210.464844 78.34375 C 210.464844 79.480469 211.15625 80.042969 211.855469 80.042969 C 212.4375 80.042969 212.953125 79.582031 213.152344 79.363281 C 212.964844 80.097656 212.964844 80.117188 212.910156 80.347656 C 212.757812 80.949219 212.691406 81.222656 212.296875 81.609375 C 211.847656 82.058594 211.429688 82.058594 211.191406 82.058594 C 210.859375 82.058594 210.585938 82.035156 210.3125 81.949219 C 210.664062 81.851562 210.75 81.542969 210.75 81.421875 C 210.75 81.246094 210.621094 81.070312 210.378906 81.070312 C 210.117188 81.070312 209.832031 81.289062 209.832031 81.652344 C 209.832031 82.101562 210.28125 82.277344 211.210938 82.277344 C 212.625 82.277344 213.359375 81.367188 213.5 80.777344 Z M 213.5 80.777344 "/>
<path style=" stroke:none;fill-rule:evenodd;fill:rgb(0%,0%,0%);fill-opacity:1;" d="M 236.5 85 C 236.5 84.601562 236.34375 84.21875 236.0625 83.9375 C 235.78125 83.65625 235.398438 83.5 235 83.5 C 234.601562 83.5 234.21875 83.65625 233.9375 83.9375 C 233.65625 84.21875 233.5 84.601562 233.5 85 C 233.5 85.398438 233.65625 85.78125 233.9375 86.0625 C 234.21875 86.34375 234.601562 86.5 235 86.5 C 235.398438 86.5 235.78125 86.34375 236.0625 86.0625 C 236.34375 85.78125 236.5 85.398438 236.5 85 Z M 236.5 85 "/>
<path style=" stroke:none;fill-rule:evenodd;fill:rgb(0%,0%,0%);fill-opacity:1;" d="M 241.6875 89.460938 C 241.6875 89.351562 241.597656 89.351562 241.433594 89.351562 C 240.921875 89.351562 240.886719 89.273438 240.886719 89.1875 C 240.886719 89.128906 240.898438 89.121094 240.929688 88.976562 L 242.453125 82.820312 C 242.453125 82.765625 242.410156 82.71875 242.355469 82.71875 C 242.265625 82.71875 241.839844 83.113281 241.632812 83.5 C 241.433594 83.003906 241.09375 82.710938 240.625 82.710938 C 239.386719 82.710938 238.046875 84.308594 238.046875 85.929688 C 238.046875 87.015625 238.683594 87.652344 239.429688 87.652344 C 240.011719 87.652344 240.492188 87.214844 240.722656 86.960938 L 240.734375 86.972656 L 240.316406 88.613281 L 240.21875 89.011719 C 240.121094 89.339844 239.957031 89.339844 239.441406 89.351562 C 239.320312 89.351562 239.210938 89.351562 239.210938 89.558594 C 239.210938 89.632812 239.277344 89.667969 239.351562 89.667969 C 239.503906 89.667969 239.703125 89.644531 239.855469 89.644531 L 240.976562 89.644531 C 241.140625 89.644531 241.324219 89.667969 241.488281 89.667969 C 241.554688 89.667969 241.6875 89.667969 241.6875 89.460938 Z M 240.910156 86.238281 C 240.855469 86.425781 240.855469 86.445312 240.699219 86.652344 C 240.457031 86.960938 239.976562 87.433594 239.460938 87.433594 C 239.011719 87.433594 238.761719 87.027344 238.761719 86.378906 C 238.761719 85.777344 239.101562 84.550781 239.308594 84.089844 C 239.679688 83.320312 240.195312 82.929688 240.625 82.929688 C 241.347656 82.929688 241.488281 83.828125 241.488281 83.914062 C 241.488281 83.914062 241.457031 84.066406 241.445312 84.089844 Z M 240.910156 86.238281 "/>
<path style=" stroke:none;fill-rule:evenodd;fill:rgb(0%,0%,0%);fill-opacity:1;" d="M 246.175781 86.695312 C 246.175781 85.875 246.089844 85.375 245.835938 84.882812 C 245.5 84.207031 244.878906 84.039062 244.457031 84.039062 C 243.488281 84.039062 243.136719 84.761719 243.027344 84.976562 C 242.75 85.535156 242.734375 86.296875 242.734375 86.695312 C 242.734375 87.199219 242.757812 87.976562 243.128906 88.589844 C 243.480469 89.15625 244.046875 89.304688 244.457031 89.304688 C 244.824219 89.304688 245.484375 89.1875 245.867188 88.425781 C 246.152344 87.875 246.175781 87.191406 246.175781 86.695312 Z M 245.492188 86.601562 C 245.492188 87.054688 245.492188 87.746094 245.398438 88.175781 C 245.238281 88.980469 244.707031 89.089844 244.457031 89.089844 C 244.195312 89.089844 243.664062 88.964844 243.503906 88.160156 C 243.417969 87.722656 243.417969 87 243.417969 86.601562 C 243.417969 86.074219 243.417969 85.535156 243.503906 85.113281 C 243.664062 84.332031 244.261719 84.253906 244.457031 84.253906 C 244.714844 84.253906 245.246094 84.382812 245.398438 85.082031 C 245.492188 85.503906 245.492188 86.082031 245.492188 86.601562 Z M 245.492188 86.601562 "/>
<path style=" stroke:none;fill-rule:evenodd;fill:rgb(0%,0%,0%);fill-opacity:1;" d="M 191.5 85 C 191.5 84.601562 191.34375 84.21875 191.0625 83.9375 C 190.78125 83.65625 190.398438 83.5 190 83.5 C 189.601562 83.5 189.21875 83.65625 188.9375 83.9375 C 188.65625 84.21875 188.5 84.601562 188.5 85 C 188.5 85.398438 188.65625 85.78125 188.9375 86.0625 C 189.21875 86.34375 189.601562 86.5 190 86.5 C 190.398438 86.5 190.78125 86.34375 191.0625 86.0625 C 191.34375 85.78125 191.5 85.398438 191.5 85 Z M 191.5 85 "/>
<g clip-path="url(#clip5)" clip-rule="nonzero">
<path style=" stroke:none;fill-rule:evenodd;fill:rgb(0%,0%,0%);fill-opacity:1;" d="M 174.726562 96.957031 C 174.726562 96.847656 174.636719 96.847656 174.472656 96.847656 C 173.957031 96.847656 173.925781 96.769531 173.925781 96.683594 C 173.925781 96.628906 173.9375 96.617188 173.96875 96.476562 L 175.492188 90.316406 C 175.492188 90.261719 175.449219 90.21875 175.394531 90.21875 C 175.304688 90.21875 174.878906 90.613281 174.667969 90.996094 C 174.472656 90.503906 174.132812 90.207031 173.660156 90.207031 C 172.425781 90.207031 171.085938 91.804688 171.085938 93.429688 C 171.085938 94.511719 171.722656 95.148438 172.46875 95.148438 C 173.050781 95.148438 173.53125 94.710938 173.761719 94.457031 L 173.769531 94.46875 L 173.355469 96.113281 L 173.257812 96.507812 C 173.160156 96.835938 172.996094 96.835938 172.480469 96.847656 C 172.359375 96.847656 172.25 96.847656 172.25 97.054688 C 172.25 97.132812 172.316406 97.164062 172.390625 97.164062 C 172.542969 97.164062 172.742188 97.140625 172.894531 97.140625 L 174.011719 97.140625 C 174.175781 97.140625 174.363281 97.164062 174.527344 97.164062 C 174.59375 97.164062 174.726562 97.164062 174.726562 96.957031 Z M 173.949219 93.734375 C 173.894531 93.921875 173.894531 93.945312 173.738281 94.152344 C 173.496094 94.457031 173.015625 94.929688 172.5 94.929688 C 172.050781 94.929688 171.800781 94.523438 171.800781 93.878906 C 171.800781 93.273438 172.140625 92.046875 172.347656 91.585938 C 172.71875 90.820312 173.234375 90.425781 173.660156 90.425781 C 174.386719 90.425781 174.527344 91.324219 174.527344 91.414062 C 174.527344 91.414062 174.496094 91.566406 174.484375 91.585938 Z M 173.949219 93.734375 "/>
</g>
<path style=" stroke:none;fill-rule:evenodd;fill:rgb(0%,0%,0%);fill-opacity:1;" d="M 179.210938 94.191406 C 179.210938 93.371094 179.128906 92.871094 178.875 92.382812 C 178.535156 91.707031 177.914062 91.539062 177.492188 91.539062 C 176.527344 91.539062 176.175781 92.257812 176.066406 92.472656 C 175.789062 93.035156 175.773438 93.792969 175.773438 94.191406 C 175.773438 94.699219 175.796875 95.472656 176.167969 96.085938 C 176.519531 96.65625 177.085938 96.800781 177.492188 96.800781 C 177.863281 96.800781 178.519531 96.683594 178.902344 95.925781 C 179.1875 95.375 179.210938 94.691406 179.210938 94.191406 Z M 178.527344 94.101562 C 178.527344 94.554688 178.527344 95.242188 178.4375 95.671875 C 178.277344 96.476562 177.746094 96.585938 177.492188 96.585938 C 177.230469 96.585938 176.703125 96.460938 176.542969 95.65625 C 176.457031 95.21875 176.457031 94.5 176.457031 94.101562 C 176.457031 93.570312 176.457031 93.035156 176.542969 92.613281 C 176.703125 91.828125 177.300781 91.753906 177.492188 91.753906 C 177.753906 91.753906 178.285156 91.882812 178.4375 92.582031 C 178.527344 93.003906 178.527344 93.578125 178.527344 94.101562 Z M 178.527344 94.101562 "/>
<path style=" stroke:none;fill-rule:evenodd;fill:rgb(0%,0%,0%);fill-opacity:1;" d="M 190.0625 92.300781 C 190.0625 92.082031 189.855469 92.082031 189.703125 92.082031 L 183.730469 92.082031 C 183.578125 92.082031 183.371094 92.082031 183.371094 92.300781 C 183.371094 92.519531 183.578125 92.519531 183.730469 92.519531 L 189.703125 92.519531 C 189.855469 92.519531 190.0625 92.519531 190.0625 92.300781 Z M 190.0625 92.300781 "/>
<g clip-path="url(#clip6)" clip-rule="nonzero">
<path style=" stroke:none;fill-rule:evenodd;fill:rgb(0%,0%,0%);fill-opacity:1;" d="M 197.0625 93.648438 C 197.019531 93.824219 196.996094 93.867188 196.855469 94.03125 C 196.40625 94.613281 195.945312 94.820312 195.605469 94.820312 C 195.246094 94.820312 194.90625 94.535156 194.90625 93.78125 C 194.90625 93.199219 195.234375 91.972656 195.472656 91.476562 C 195.792969 90.863281 196.285156 90.425781 196.746094 90.425781 C 197.46875 90.425781 197.613281 91.324219 197.613281 91.390625 L 197.578125 91.542969 Z M 197.226562 95.773438 L 198.445312 90.863281 C 198.476562 90.734375 198.476562 90.6875 198.476562 90.6875 C 198.476562 90.535156 198.355469 90.414062 198.191406 90.414062 C 197.929688 90.414062 197.777344 90.632812 197.742188 90.929688 C 197.601562 90.613281 197.292969 90.207031 196.746094 90.207031 C 195.550781 90.207031 194.191406 91.707031 194.191406 93.339844 C 194.191406 94.480469 194.882812 95.039062 195.582031 95.039062 C 196.164062 95.039062 196.679688 94.578125 196.878906 94.359375 C 196.691406 95.09375 196.691406 95.117188 196.636719 95.34375 C 196.480469 95.949219 196.417969 96.222656 196.023438 96.605469 C 195.574219 97.054688 195.15625 97.054688 194.917969 97.054688 C 194.585938 97.054688 194.3125 97.03125 194.039062 96.945312 C 194.390625 96.847656 194.476562 96.539062 194.476562 96.421875 C 194.476562 96.242188 194.347656 96.070312 194.105469 96.070312 C 193.84375 96.070312 193.558594 96.289062 193.558594 96.648438 C 193.558594 97.097656 194.007812 97.273438 194.9375 97.273438 C 196.351562 97.273438 197.085938 96.363281 197.226562 95.773438 Z M 197.226562 95.773438 "/>
</g>
<path style=" stroke:none;fill-rule:evenodd;fill:rgb(0%,0%,0%);fill-opacity:1;" d="M 204.746094 93.472656 C 204.746094 93.417969 204.699219 93.375 204.636719 93.375 C 204.535156 93.375 204.527344 93.429688 204.480469 93.59375 C 204.285156 94.347656 204.089844 94.929688 203.648438 94.929688 C 203.320312 94.929688 203.320312 94.566406 203.320312 94.425781 C 203.320312 94.171875 203.355469 94.0625 203.464844 93.601562 L 203.683594 92.703125 L 204.132812 90.917969 C 204.207031 90.644531 204.207031 90.625 204.207031 90.589844 C 204.207031 90.425781 204.078125 90.316406 203.914062 90.316406 C 203.59375 90.316406 203.519531 90.589844 203.453125 90.863281 L 202.675781 94.03125 C 202.675781 94.03125 202.238281 94.929688 201.4375 94.929688 C 200.867188 94.929688 200.757812 94.4375 200.757812 94.03125 C 200.757812 93.40625 201.0625 92.53125 201.347656 91.796875 C 201.480469 91.445312 201.535156 91.304688 201.535156 91.085938 C 201.535156 90.613281 201.195312 90.207031 200.667969 90.207031 C 199.660156 90.207031 199.253906 91.796875 199.253906 91.882812 C 199.253906 91.929688 199.300781 91.984375 199.375 91.984375 C 199.476562 91.984375 199.488281 91.9375 199.53125 91.785156 C 199.792969 90.84375 200.21875 90.425781 200.636719 90.425781 C 200.746094 90.425781 200.921875 90.4375 200.921875 90.789062 C 200.921875 91.074219 200.800781 91.390625 200.636719 91.804688 C 200.152344 93.109375 200.097656 93.527344 200.097656 93.855469 C 200.097656 94.972656 200.941406 95.148438 201.394531 95.148438 C 202.09375 95.148438 202.476562 94.667969 202.695312 94.402344 C 202.839844 95.015625 203.363281 95.148438 203.628906 95.148438 C 203.980469 95.148438 204.242188 94.917969 204.417969 94.546875 C 204.601562 94.152344 204.746094 93.503906 204.746094 93.472656 Z M 204.746094 93.472656 "/>
<path style=" stroke:none;fill-rule:evenodd;fill:rgb(0%,0%,0%);fill-opacity:1;" d="M 208.8125 94.191406 C 208.8125 93.371094 208.726562 92.871094 208.472656 92.382812 C 208.136719 91.707031 207.515625 91.539062 207.09375 91.539062 C 206.125 91.539062 205.773438 92.257812 205.667969 92.472656 C 205.390625 93.035156 205.375 93.792969 205.375 94.191406 C 205.375 94.699219 205.398438 95.472656 205.765625 96.085938 C 206.121094 96.65625 206.6875 96.800781 207.09375 96.800781 C 207.460938 96.800781 208.121094 96.683594 208.503906 95.925781 C 208.789062 95.375 208.8125 94.691406 208.8125 94.191406 Z M 208.128906 94.101562 C 208.128906 94.554688 208.128906 95.242188 208.035156 95.671875 C 207.875 96.476562 207.347656 96.585938 207.09375 96.585938 C 206.832031 96.585938 206.300781 96.460938 206.140625 95.65625 C 206.058594 95.21875 206.058594 94.5 206.058594 94.101562 C 206.058594 93.570312 206.058594 93.035156 206.140625 92.613281 C 206.300781 91.828125 206.902344 91.753906 207.09375 91.753906 C 207.355469 91.753906 207.882812 91.882812 208.035156 92.582031 C 208.128906 93.003906 208.128906 93.578125 208.128906 94.101562 Z M 208.128906 94.101562 "/>
<path style="fill:none;stroke-width:1;stroke-linecap:square;stroke-linejoin:miter;stroke:rgb(0%,0%,100%);stroke-opacity:1;stroke-miterlimit:3.25;" d="M 90.527344 19.542969 L 135.0625 19.542969 "/>
<path style=" stroke:none;fill-rule:evenodd;fill:rgb(0%,0%,100%);fill-opacity:1;" d="M 113.738281 28.394531 C 113.695312 28.570312 113.671875 28.613281 113.53125 28.777344 C 113.082031 29.359375 112.621094 29.566406 112.28125 29.566406 C 111.917969 29.566406 111.582031 29.28125 111.582031 28.527344 C 111.582031 27.945312 111.910156 26.71875 112.148438 26.222656 C 112.46875 25.609375 112.960938 25.171875 113.421875 25.171875 C 114.144531 25.171875 114.285156 26.070312 114.285156 26.136719 L 114.253906 26.289062 Z M 113.902344 30.519531 L 115.121094 25.609375 C 115.152344 25.476562 115.152344 25.433594 115.152344 25.433594 C 115.152344 25.28125 115.03125 25.160156 114.867188 25.160156 C 114.605469 25.160156 114.453125 25.378906 114.417969 25.675781 C 114.277344 25.359375 113.96875 24.953125 113.421875 24.953125 C 112.226562 24.953125 110.867188 26.453125 110.867188 28.085938 C 110.867188 29.226562 111.558594 29.785156 112.257812 29.785156 C 112.839844 29.785156 113.355469 29.324219 113.550781 29.105469 C 113.367188 29.839844 113.367188 29.863281 113.3125 30.089844 C 113.15625 30.695312 113.089844 30.96875 112.699219 31.351562 C 112.246094 31.800781 111.832031 31.800781 111.589844 31.800781 C 111.261719 31.800781 110.988281 31.78125 110.714844 31.691406 C 111.066406 31.59375 111.152344 31.289062 111.152344 31.167969 C 111.152344 30.992188 111.019531 30.816406 110.78125 30.816406 C 110.515625 30.816406 110.230469 31.035156 110.230469 31.398438 C 110.230469 31.84375 110.683594 32.019531 111.613281 32.019531 C 113.027344 32.019531 113.761719 31.109375 113.902344 30.519531 Z M 113.902344 30.519531 "/>
<path style=" stroke:none;fill-rule:evenodd;fill:rgb(0%,0%,0%);fill-opacity:1;" d="M 92.5 20 C 92.5 19.601562 92.34375 19.21875 92.0625 18.9375 C 91.78125 18.65625 91.398438 18.5 91 18.5 C 90.601562 18.5 90.21875 18.65625 89.9375 18.9375 C 89.65625 19.21875 89.5 19.601562 89.5 20 C 89.5 20.398438 89.65625 20.78125 89.9375 21.0625 C 90.21875 21.34375 90.601562 21.5 91 21.5 C 91.398438 21.5 91.78125 21.34375 92.0625 21.0625 C 92.34375 20.78125 92.5 20.398438 92.5 20 Z M 92.5 20 "/>
<path style=" stroke:none;fill-rule:evenodd;fill:rgb(0%,0%,0%);fill-opacity:1;" d="M 90.09375 31.703125 C 90.09375 31.59375 90.003906 31.59375 89.839844 31.59375 C 89.324219 31.59375 89.292969 31.515625 89.292969 31.429688 C 89.292969 31.375 89.304688 31.363281 89.335938 31.222656 L 90.859375 25.0625 C 90.859375 25.007812 90.816406 24.964844 90.761719 24.964844 C 90.671875 24.964844 90.246094 25.359375 90.035156 25.742188 C 89.839844 25.25 89.5 24.953125 89.027344 24.953125 C 87.792969 24.953125 86.453125 26.550781 86.453125 28.175781 C 86.453125 29.257812 87.089844 29.894531 87.835938 29.894531 C 88.417969 29.894531 88.898438 29.457031 89.128906 29.203125 L 89.136719 29.214844 L 88.722656 30.859375 L 88.625 31.253906 C 88.527344 31.582031 88.363281 31.582031 87.847656 31.59375 C 87.726562 31.59375 87.617188 31.59375 87.617188 31.800781 C 87.617188 31.878906 87.683594 31.910156 87.757812 31.910156 C 87.910156 31.910156 88.109375 31.890625 88.261719 31.890625 L 89.378906 31.890625 C 89.542969 31.890625 89.730469 31.910156 89.894531 31.910156 C 89.960938 31.910156 90.09375 31.910156 90.09375 31.703125 Z M 89.316406 28.480469 C 89.261719 28.667969 89.261719 28.691406 89.105469 28.898438 C 88.863281 29.203125 88.382812 29.675781 87.867188 29.675781 C 87.417969 29.675781 87.167969 29.269531 87.167969 28.625 C 87.167969 28.019531 87.507812 26.792969 87.714844 26.332031 C 88.085938 25.566406 88.601562 25.171875 89.027344 25.171875 C 89.753906 25.171875 89.894531 26.070312 89.894531 26.15625 C 89.894531 26.15625 89.863281 26.3125 89.851562 26.332031 Z M 89.316406 28.480469 "/>
<path style=" stroke:none;fill-rule:evenodd;fill:rgb(0%,0%,0%);fill-opacity:1;" d="M 94.257812 31.386719 L 94.257812 31.132812 L 93.988281 31.132812 C 93.257812 31.132812 93.238281 31.039062 93.238281 30.753906 L 93.238281 26.5 C 93.238281 26.289062 93.222656 26.28125 93.015625 26.28125 C 92.699219 26.589844 92.292969 26.773438 91.5625 26.773438 L 91.5625 27.027344 C 91.773438 27.027344 92.1875 27.027344 92.632812 26.820312 L 92.632812 30.753906 C 92.632812 31.039062 92.609375 31.132812 91.878906 31.132812 L 91.609375 31.132812 L 91.609375 31.386719 C 91.925781 31.363281 92.585938 31.363281 92.929688 31.363281 C 93.273438 31.363281 93.941406 31.363281 94.257812 31.386719 Z M 94.257812 31.386719 "/>
<path style=" stroke:none;fill-rule:evenodd;fill:rgb(0%,0%,0%);fill-opacity:1;" d="M 136.5 20 C 136.5 19.601562 136.34375 19.21875 136.0625 18.9375 C 135.78125 18.65625 135.398438 18.5 135 18.5 C 134.601562 18.5 134.21875 18.65625 133.9375 18.9375 C 133.65625 19.21875 133.5 19.601562 133.5 20 C 133.5 20.398438 133.65625 20.78125 133.9375 21.0625 C 134.21875 21.34375 134.601562 21.5 135 21.5 C 135.398438 21.5 135.78125 21.34375 136.0625 21.0625 C 136.34375 20.78125 136.5 20.398438 136.5 20 Z M 136.5 20 "/>
<path style=" stroke:none;fill-rule:evenodd;fill:rgb(0%,0%,0%);fill-opacity:1;" d="M 128.070312 26.773438 C 128.070312 25.730469 127.390625 24.953125 126.394531 24.953125 C 124.945312 24.953125 123.519531 26.53125 123.519531 28.074219 C 123.519531 29.117188 124.199219 29.894531 125.199219 29.894531 C 126.65625 29.894531 128.070312 28.316406 128.070312 26.773438 Z M 127.335938 26.375 C 127.335938 26.816406 127.105469 27.988281 126.6875 28.65625 C 126.238281 29.390625 125.636719 29.675781 125.207031 29.675781 C 124.660156 29.675781 124.253906 29.238281 124.253906 28.472656 C 124.253906 27.964844 124.519531 26.847656 124.824219 26.300781 C 125.316406 25.457031 125.933594 25.171875 126.382812 25.171875 C 126.917969 25.171875 127.335938 25.609375 127.335938 26.375 Z M 127.335938 26.375 "/>
<path style=" stroke:none;fill-rule:evenodd;fill:rgb(0%,0%,0%);fill-opacity:1;" d="M 133.007812 29.550781 C 133.082031 29.238281 133.175781 28.878906 133.175781 28.578125 C 133.175781 28.363281 133.128906 28.179688 132.992188 28.0625 C 132.945312 28.023438 132.875 28 132.808594 28 C 132.707031 28 132.601562 28.046875 132.515625 28.140625 C 132.445312 28.214844 132.40625 28.308594 132.40625 28.394531 C 132.40625 28.476562 132.4375 28.554688 132.507812 28.609375 C 132.699219 28.761719 132.808594 28.992188 132.808594 29.253906 C 132.808594 29.335938 132.792969 29.421875 132.777344 29.503906 C 132.601562 30.1875 132.125 30.871094 131.519531 30.871094 C 131.105469 30.871094 130.835938 30.617188 130.742188 30.257812 C 130.851562 30.035156 130.9375 29.789062 130.988281 29.550781 C 131.003906 29.496094 131.011719 29.4375 131.011719 29.382812 C 131.011719 29.246094 130.957031 29.136719 130.828125 29.136719 C 130.675781 29.136719 130.558594 29.320312 130.519531 29.503906 C 130.453125 29.757812 130.421875 30.003906 130.429688 30.226562 C 130.167969 30.601562 129.792969 30.871094 129.386719 30.871094 C 128.910156 30.871094 128.679688 30.480469 128.679688 29.988281 C 128.679688 29.851562 128.695312 29.707031 128.734375 29.550781 C 128.847656 29.105469 129.117188 28.683594 129.421875 28.292969 C 129.445312 28.253906 129.460938 28.214844 129.460938 28.1875 C 129.460938 28.132812 129.429688 28.085938 129.386719 28.054688 C 129.363281 28.039062 129.339844 28.03125 129.308594 28.03125 C 129.253906 28.03125 129.195312 28.0625 129.15625 28.109375 C 128.832031 28.546875 128.625 29.023438 128.503906 29.503906 C 128.433594 29.773438 128.394531 30.035156 128.394531 30.289062 C 128.394531 30.949219 128.65625 31.460938 129.285156 31.460938 C 129.769531 31.460938 130.175781 31.148438 130.492188 30.703125 C 130.605469 31.15625 130.90625 31.460938 131.410156 31.460938 C 132.222656 31.460938 132.777344 30.488281 133.007812 29.550781 Z M 133.007812 29.550781 "/>
<path style=" stroke:none;fill-rule:nonzero;fill:rgb(66.666667%,0%,0%);fill-opacity:1;" d="M 129.355469 84.800781 L 135.0625 84.800781 L 123.734375 83.808594 Z M 129.355469 84.800781 "/>
<path style=" stroke:none;fill-rule:evenodd;fill:rgb(66.666667%,0%,0%);fill-opacity:1;" d="M 118.738281 76.699219 C 118.738281 76.65625 118.71875 76.589844 118.695312 76.558594 L 115.035156 69.152344 C 114.960938 69 114.9375 68.957031 114.785156 68.957031 C 114.621094 68.957031 114.597656 69 114.523438 69.152344 L 110.863281 76.558594 C 110.84375 76.589844 110.820312 76.65625 110.820312 76.699219 C 110.820312 76.765625 110.832031 76.777344 111.050781 76.777344 L 118.507812 76.777344 C 118.726562 76.777344 118.738281 76.765625 118.738281 76.699219 Z M 117.4375 76.019531 L 111.464844 76.019531 L 114.445312 69.964844 Z M 117.4375 76.019531 "/>
<path style=" stroke:none;fill-rule:evenodd;fill:rgb(66.666667%,0%,0%);fill-opacity:1;" d="M 123.945312 76.542969 C 124.023438 76.230469 124.113281 75.871094 124.113281 75.570312 C 124.113281 75.355469 124.070312 75.171875 123.929688 75.054688 C 123.882812 75.019531 123.816406 74.996094 123.746094 74.996094 C 123.648438 74.996094 123.539062 75.039062 123.453125 75.132812 C 123.386719 75.210938 123.347656 75.300781 123.347656 75.386719 C 123.347656 75.46875 123.378906 75.546875 123.445312 75.601562 C 123.640625 75.753906 123.746094 75.984375 123.746094 76.246094 C 123.746094 76.328125 123.730469 76.414062 123.714844 76.496094 C 123.539062 77.179688 123.0625 77.863281 122.457031 77.863281 C 122.042969 77.863281 121.777344 77.609375 121.683594 77.25 C 121.792969 77.027344 121.875 76.78125 121.929688 76.542969 C 121.945312 76.488281 121.953125 76.429688 121.953125 76.375 C 121.953125 76.238281 121.898438 76.128906 121.769531 76.128906 C 121.613281 76.128906 121.5 76.3125 121.460938 76.496094 C 121.390625 76.75 121.363281 76.996094 121.371094 77.21875 C 121.109375 77.59375 120.730469 77.863281 120.324219 77.863281 C 119.847656 77.863281 119.621094 77.472656 119.621094 76.980469 C 119.621094 76.84375 119.636719 76.699219 119.675781 76.542969 C 119.789062 76.097656 120.058594 75.679688 120.363281 75.285156 C 120.386719 75.25 120.402344 75.210938 120.402344 75.179688 C 120.402344 75.125 120.371094 75.078125 120.324219 75.046875 C 120.300781 75.03125 120.277344 75.027344 120.25 75.027344 C 120.195312 75.027344 120.132812 75.054688 120.097656 75.101562 C 119.773438 75.539062 119.566406 76.015625 119.441406 76.496094 C 119.375 76.765625 119.335938 77.027344 119.335938 77.28125 C 119.335938 77.941406 119.597656 78.453125 120.226562 78.453125 C 120.707031 78.453125 121.117188 78.140625 121.429688 77.695312 C 121.542969 78.148438 121.84375 78.453125 122.351562 78.453125 C 123.164062 78.453125 123.714844 77.480469 123.945312 76.542969 Z M 123.945312 76.542969 "/>
<path style="fill:none;stroke-width:1;stroke-linecap:square;stroke-linejoin:miter;stroke:rgb(66.666667%,0%,0%);stroke-opacity:1;stroke-miterlimit:3.25;" d="M 129.355469 84.800781 L 126.09375 81.535156 "/>
<g clip-path="url(#clip7)" clip-rule="nonzero">
<path style=" stroke:none;fill-rule:nonzero;fill:rgb(74.999619%,74.999619%,74.999619%);fill-opacity:1;" d="M 238.9375 45.203125 L 351.949219 45.203125 L 351.949219 158.214844 L 380.199219 158.214844 L 380.199219 16.949219 L 238.9375 16.949219 Z M 238.9375 45.203125 "/>
</g>
<g clip-path="url(#clip8)" clip-rule="nonzero">
<path style="fill:none;stroke-width:1;stroke-linecap:square;stroke-linejoin:miter;stroke:rgb(0%,0%,0%);stroke-opacity:1;stroke-miterlimit:3.25;" d="M 238.9375 45.203125 L 351.949219 45.203125 "/>
</g>
<g clip-path="url(#clip9)" clip-rule="nonzero">
<path style="fill:none;stroke-width:1;stroke-linecap:square;stroke-linejoin:miter;stroke:rgb(0%,0%,0%);stroke-opacity:1;stroke-miterlimit:3.25;" d="M 351.949219 90.433594 L 351.949219 45.203125 "/>
</g>
<path style=" stroke:none;fill-rule:nonzero;fill:rgb(0%,0%,0%);fill-opacity:1;" d="M 351.949219 45.203125 L 352.449219 45.703125 L 352.449219 44.703125 L 351.949219 44.703125 Z M 351.949219 45.203125 "/>
<g clip-path="url(#clip10)" clip-rule="nonzero">
<path style="fill:none;stroke-width:1;stroke-linecap:square;stroke-linejoin:miter;stroke:rgb(0%,0%,0%);stroke-opacity:1;stroke-miterlimit:3.25;" d="M 351.949219 90.433594 L 351.949219 45.203125 "/>
</g>
<path style=" stroke:none;fill-rule:nonzero;fill:rgb(0%,0%,0%);fill-opacity:1;" d="M 351.949219 45.203125 L 352.449219 45.703125 L 352.449219 44.703125 L 351.949219 44.703125 Z M 351.949219 45.203125 "/>
<g clip-path="url(#clip11)" clip-rule="nonzero">
<path style="fill:none;stroke-width:1;stroke-linecap:square;stroke-linejoin:miter;stroke:rgb(0%,0%,0%);stroke-opacity:1;stroke-miterlimit:3.25;" d="M 238.9375 16.949219 L 380.199219 16.949219 "/>
</g>
<g clip-path="url(#clip12)" clip-rule="nonzero">
<path style="fill:none;stroke-width:1;stroke-linecap:square;stroke-linejoin:miter;stroke:rgb(0%,0%,0%);stroke-opacity:1;stroke-miterlimit:3.25;" d="M 380.199219 90.433594 L 380.199219 16.949219 "/>
</g>
<path style=" stroke:none;fill-rule:nonzero;fill:rgb(0%,0%,0%);fill-opacity:1;" d="M 380.199219 16.949219 L 380.699219 17.449219 L 380.699219 16.449219 L 380.199219 16.449219 Z M 380.199219 16.949219 "/>
<g clip-path="url(#clip13)" clip-rule="nonzero">
<path style="fill:none;stroke-width:1;stroke-linecap:square;stroke-linejoin:miter;stroke:rgb(0%,0%,0%);stroke-opacity:1;stroke-miterlimit:3.25;" d="M 380.199219 90.433594 L 380.199219 16.949219 "/>
</g>
<path style=" stroke:none;fill-rule:nonzero;fill:rgb(0%,0%,0%);fill-opacity:1;" d="M 380.199219 16.949219 L 380.699219 17.449219 L 380.699219 16.449219 L 380.199219 16.449219 Z M 380.199219 16.949219 "/>
<path style="fill-rule:nonzero;fill:rgb(100%,100%,86.999313%);fill-opacity:1;stroke-width:1;stroke-linecap:square;stroke-linejoin:miter;stroke:rgb(0%,0%,0%);stroke-opacity:1;stroke-miterlimit:3.25;" d="M 317.550781 42.195312 L 317.554688 42.183594 L 317.746094 41.210938 L 317.980469 40.25 L 318.253906 39.3125 L 318.570312 38.398438 L 318.925781 37.503906 L 319.316406 36.632812 L 319.746094 35.792969 L 320.210938 34.976562 L 320.714844 34.191406 L 321.246094 33.4375 L 321.8125 32.710938 L 322.410156 32.023438 L 323.035156 31.367188 L 323.6875 30.75 L 324.367188 30.167969 L 325.074219 29.625 L 325.800781 29.121094 L 326.550781 28.65625 L 327.320312 28.234375 L 328.105469 27.855469 L 328.90625 27.519531 L 329.726562 27.226562 L 330.554688 26.976562 L 331.394531 26.773438 L 332.242188 26.617188 L 333.09375 26.507812 L 333.949219 26.449219 L 334.808594 26.4375 L 335.664062 26.472656 L 336.519531 26.554688 L 337.367188 26.683594 L 338.210938 26.863281 L 339.046875 27.085938 L 339.871094 27.355469 L 340.683594 27.671875 L 341.476562 28.027344 L 342.257812 28.425781 L 343.015625 28.867188 L 343.753906 29.351562 L 344.472656 29.871094 L 345.164062 30.433594 L 345.832031 31.03125 L 346.476562 31.667969 L 347.085938 32.339844 L 347.667969 33.042969 L 348.222656 33.78125 L 348.738281 34.550781 L 349.222656 35.351562 L 349.671875 36.179688 L 350.085938 37.035156 L 350.460938 37.917969 L 350.796875 38.820312 L 351.09375 39.746094 L 351.347656 40.695312 L 351.5625 41.660156 L 351.734375 42.644531 L 351.867188 43.644531 L 351.898438 43.671875 L 351.933594 43.699219 L 352.011719 43.753906 L 352.050781 43.785156 L 352.136719 43.847656 L 352.183594 43.878906 L 352.234375 43.910156 L 352.28125 43.941406 L 352.335938 43.972656 L 352.386719 44.007812 L 352.445312 44.039062 L 352.5625 44.109375 L 352.625 44.144531 L 352.6875 44.175781 L 352.820312 44.246094 L 352.960938 44.316406 L 353.035156 44.347656 L 353.113281 44.382812 L 353.1875 44.417969 L 353.269531 44.453125 L 353.351562 44.484375 L 353.433594 44.519531 L 353.523438 44.554688 L 353.609375 44.585938 L 353.699219 44.617188 L 353.792969 44.652344 L 353.886719 44.683594 L 353.984375 44.714844 L 354.082031 44.742188 L 354.285156 44.804688 L 354.496094 44.859375 L 354.605469 44.886719 L 354.71875 44.914062 L 354.832031 44.9375 L 354.945312 44.964844 L 355.0625 44.988281 L 355.183594 45.011719 L 355.425781 45.050781 L 355.554688 45.070312 L 355.679688 45.089844 L 355.808594 45.105469 L 356.074219 45.136719 L 356.347656 45.160156 L 356.488281 45.171875 L 356.769531 45.1875 L 356.921875 45.195312 L 357.242188 45.203125 L 380.199219 45.203125 L 380.148438 44.199219 L 380.070312 43.207031 L 379.972656 42.230469 L 379.847656 41.265625 L 379.699219 40.316406 L 379.527344 39.382812 L 379.339844 38.460938 L 379.125 37.558594 L 378.894531 36.675781 L 378.644531 35.808594 L 378.375 34.960938 L 378.085938 34.128906 L 377.785156 33.320312 L 377.464844 32.53125 L 377.132812 31.761719 L 376.785156 31.011719 L 376.425781 30.285156 L 376.050781 29.582031 L 375.667969 28.898438 L 375.277344 28.238281 L 374.875 27.601562 L 374.464844 26.988281 L 374.050781 26.398438 L 373.628906 25.828125 L 373.199219 25.285156 L 372.769531 24.765625 L 372.339844 24.269531 L 371.910156 23.796875 L 371.480469 23.351562 L 371.0625 22.941406 L 337.105469 16.953125 L 311.257812 16.960938 L 310.859375 16.980469 L 310.453125 17.011719 L 310.035156 17.054688 L 309.613281 17.109375 L 309.183594 17.175781 L 308.742188 17.257812 L 308.300781 17.347656 L 307.847656 17.457031 L 307.390625 17.574219 L 306.925781 17.710938 L 306.457031 17.859375 L 305.984375 18.019531 L 305.507812 18.199219 L 305.027344 18.394531 L 304.542969 18.605469 L 304.054688 18.832031 L 303.566406 19.074219 L 303.074219 19.332031 L 302.582031 19.609375 L 302.089844 19.902344 L 301.59375 20.214844 L 301.101562 20.542969 L 300.609375 20.890625 L 300.121094 21.253906 L 299.632812 21.636719 L 299.207031 21.988281 L 298.785156 22.351562 L 298.363281 22.742188 L 297.933594 23.152344 L 297.507812 23.585938 L 297.074219 24.046875 L 296.644531 24.53125 L 296.214844 25.039062 L 295.785156 25.574219 L 295.363281 26.128906 L 294.941406 26.710938 L 294.53125 27.3125 L 294.125 27.941406 L 293.726562 28.589844 L 293.339844 29.261719 L 292.960938 29.957031 L 292.597656 30.671875 L 292.242188 31.410156 L 291.902344 32.167969 L 291.578125 32.949219 L 291.265625 33.75 L 290.972656 34.570312 L 290.695312 35.410156 L 290.433594 36.269531 L 290.195312 37.144531 L 290.140625 37.363281 Z M 317.550781 42.195312 "/>
<path style=" stroke:none;fill-rule:nonzero;fill:rgb(66.666667%,0%,0%);fill-opacity:1;" d="M 334.609375 45.203125 L 337.078125 45.203125 L 332.171875 44.773438 Z M 334.609375 45.203125 "/>
<g clip-path="url(#clip14)" clip-rule="nonzero">
<path style="fill:none;stroke-width:2;stroke-linecap:square;stroke-linejoin:miter;stroke:rgb(66.666667%,0%,0%);stroke-opacity:1;stroke-miterlimit:3.25;" d="M 334.609375 45.203125 L 337.078125 45.203125 L 332.171875 44.773438 Z M 334.609375 45.203125 "/>
</g>
<path style=" stroke:none;fill-rule:evenodd;fill:rgb(66.666667%,0%,0%);fill-opacity:1;" d="M 341.292969 42.214844 C 341.292969 42.171875 341.269531 42.105469 341.25 42.074219 L 337.589844 34.667969 C 337.515625 34.511719 337.492188 34.46875 337.339844 34.46875 C 337.175781 34.46875 337.152344 34.511719 337.078125 34.667969 L 333.417969 42.074219 C 333.394531 42.105469 333.375 42.171875 333.375 42.214844 C 333.375 42.28125 333.386719 42.292969 333.605469 42.292969 L 341.0625 42.292969 C 341.28125 42.292969 341.292969 42.28125 341.292969 42.214844 Z M 339.988281 41.535156 L 334.019531 41.535156 L 337 35.476562 Z M 339.988281 41.535156 "/>
<path style=" stroke:none;fill-rule:evenodd;fill:rgb(66.666667%,0%,0%);fill-opacity:1;" d="M 346.5 42.058594 C 346.578125 41.742188 346.667969 41.382812 346.667969 41.082031 C 346.667969 40.871094 346.625 40.683594 346.484375 40.570312 C 346.4375 40.53125 346.371094 40.507812 346.300781 40.507812 C 346.203125 40.507812 346.09375 40.554688 346.007812 40.644531 C 345.941406 40.722656 345.902344 40.816406 345.902344 40.898438 C 345.902344 40.984375 345.933594 41.058594 346 41.113281 C 346.195312 41.269531 346.300781 41.496094 346.300781 41.757812 C 346.300781 41.84375 346.285156 41.925781 346.269531 42.011719 C 346.09375 42.695312 345.617188 43.375 345.011719 43.375 C 344.597656 43.375 344.328125 43.125 344.238281 42.761719 C 344.34375 42.539062 344.429688 42.296875 344.484375 42.058594 C 344.5 42.003906 344.507812 41.941406 344.507812 41.890625 C 344.507812 41.75 344.453125 41.644531 344.320312 41.644531 C 344.167969 41.644531 344.054688 41.828125 344.015625 42.011719 C 343.945312 42.265625 343.914062 42.507812 343.921875 42.734375 C 343.664062 43.109375 343.285156 43.375 342.878906 43.375 C 342.402344 43.375 342.175781 42.984375 342.175781 42.492188 C 342.175781 42.355469 342.191406 42.210938 342.230469 42.058594 C 342.34375 41.613281 342.613281 41.191406 342.917969 40.800781 C 342.941406 40.761719 342.957031 40.722656 342.957031 40.691406 C 342.957031 40.636719 342.925781 40.59375 342.878906 40.5625 C 342.855469 40.546875 342.832031 40.539062 342.804688 40.539062 C 342.75 40.539062 342.6875 40.570312 342.652344 40.617188 C 342.328125 41.050781 342.121094 41.527344 341.996094 42.011719 C 341.929688 42.28125 341.890625 42.539062 341.890625 42.792969 C 341.890625 43.453125 342.152344 43.96875 342.78125 43.96875 C 343.261719 43.96875 343.671875 43.652344 343.984375 43.207031 C 344.097656 43.660156 344.398438 43.96875 344.90625 43.96875 C 345.71875 43.96875 346.269531 42.992188 346.5 42.058594 Z M 346.5 42.058594 "/>
<g clip-path="url(#clip15)" clip-rule="nonzero">
<path style=" stroke:none;fill-rule:nonzero;fill:rgb(74.999619%,74.999619%,74.999619%);fill-opacity:1;" d="M 238.9375 87.394531 L 351.949219 87.394531 L 351.949219 200.402344 L 380.199219 200.402344 L 380.199219 59.140625 L 238.9375 59.140625 Z M 238.9375 87.394531 "/>
</g>
<g clip-path="url(#clip16)" clip-rule="nonzero">
<path style="fill:none;stroke-width:1;stroke-linecap:square;stroke-linejoin:miter;stroke:rgb(0%,0%,0%);stroke-opacity:1;stroke-miterlimit:3.25;" d="M 238.9375 87.394531 L 351.949219 87.394531 "/>
</g>
<g clip-path="url(#clip17)" clip-rule="nonzero">
<path style="fill:none;stroke-width:1;stroke-linecap:square;stroke-linejoin:miter;stroke:rgb(0%,0%,0%);stroke-opacity:1;stroke-miterlimit:3.25;" d="M 351.949219 132.433594 L 351.949219 87.394531 "/>
</g>
<path style=" stroke:none;fill-rule:nonzero;fill:rgb(0%,0%,0%);fill-opacity:1;" d="M 351.949219 87.394531 L 352.449219 87.894531 L 352.449219 86.894531 L 351.949219 86.894531 Z M 351.949219 87.394531 "/>
<g clip-path="url(#clip18)" clip-rule="nonzero">
<path style="fill:none;stroke-width:1;stroke-linecap:square;stroke-linejoin:miter;stroke:rgb(0%,0%,0%);stroke-opacity:1;stroke-miterlimit:3.25;" d="M 351.949219 132.433594 L 351.949219 87.394531 "/>
</g>
<path style=" stroke:none;fill-rule:nonzero;fill:rgb(0%,0%,0%);fill-opacity:1;" d="M 351.949219 87.394531 L 352.449219 87.894531 L 352.449219 86.894531 L 351.949219 86.894531 Z M 351.949219 87.394531 "/>
<g clip-path="url(#clip19)" clip-rule="nonzero">
<path style="fill:none;stroke-width:1;stroke-linecap:square;stroke-linejoin:miter;stroke:rgb(0%,0%,0%);stroke-opacity:1;stroke-miterlimit:3.25;" d="M 238.9375 59.140625 L 380.199219 59.140625 "/>
</g>
<g clip-path="url(#clip20)" clip-rule="nonzero">
<path style="fill:none;stroke-width:1;stroke-linecap:square;stroke-linejoin:miter;stroke:rgb(0%,0%,0%);stroke-opacity:1;stroke-miterlimit:3.25;" d="M 380.199219 132.433594 L 380.199219 59.140625 "/>
</g>
<path style=" stroke:none;fill-rule:nonzero;fill:rgb(0%,0%,0%);fill-opacity:1;" d="M 380.199219 59.140625 L 380.699219 59.640625 L 380.699219 58.640625 L 380.199219 58.640625 Z M 380.199219 59.140625 "/>
<g clip-path="url(#clip21)" clip-rule="nonzero">
<path style="fill:none;stroke-width:1;stroke-linecap:square;stroke-linejoin:miter;stroke:rgb(0%,0%,0%);stroke-opacity:1;stroke-miterlimit:3.25;" d="M 380.199219 132.433594 L 380.199219 59.140625 "/>
</g>
<path style=" stroke:none;fill-rule:nonzero;fill:rgb(0%,0%,0%);fill-opacity:1;" d="M 380.199219 59.140625 L 380.699219 59.640625 L 380.699219 58.640625 L 380.199219 58.640625 Z M 380.199219 59.140625 "/>
<path style="fill-rule:nonzero;fill:rgb(100%,100%,86.999313%);fill-opacity:1;stroke-width:1;stroke-linecap:square;stroke-linejoin:miter;stroke:rgb(0%,0%,0%);stroke-opacity:1;stroke-miterlimit:3.25;" d="M 317.289062 87.394531 L 317.289062 87.382812 L 317.308594 86.390625 L 317.375 85.40625 L 317.480469 84.433594 L 317.632812 83.476562 L 317.824219 82.535156 L 318.0625 81.609375 L 318.339844 80.707031 L 318.65625 79.824219 L 319.011719 78.960938 L 319.40625 78.125 L 319.839844 77.316406 L 320.304688 76.53125 L 320.808594 75.777344 L 321.34375 75.054688 L 321.914062 74.363281 L 322.511719 73.707031 L 323.140625 73.085938 L 323.800781 72.5 L 324.484375 71.949219 L 325.191406 71.4375 L 325.925781 70.96875 L 326.675781 70.539062 L 327.453125 70.148438 L 328.242188 69.804688 L 329.050781 69.503906 L 329.871094 69.246094 L 330.703125 69.039062 L 331.546875 68.878906 L 332.394531 68.761719 L 333.25 68.695312 L 334.109375 68.675781 L 334.972656 68.707031 L 335.835938 68.78125 L 336.691406 68.90625 L 337.546875 69.074219 L 338.390625 69.285156 L 339.226562 69.542969 L 340.050781 69.847656 L 340.863281 70.195312 L 341.660156 70.582031 L 342.441406 71.015625 L 343.203125 71.488281 L 343.945312 72.003906 L 344.664062 72.558594 L 345.359375 73.152344 L 346.03125 73.785156 L 346.675781 74.453125 L 347.292969 75.15625 L 347.878906 75.890625 L 348.433594 76.664062 L 348.953125 77.464844 L 349.441406 78.296875 L 349.894531 79.160156 L 350.3125 80.046875 L 350.691406 80.960938 L 351.03125 81.898438 L 351.332031 82.859375 L 351.371094 82.882812 L 351.410156 82.902344 L 351.453125 82.925781 L 351.496094 82.945312 L 351.539062 82.96875 L 351.585938 82.992188 L 351.636719 83.011719 L 351.6875 83.035156 L 351.851562 83.105469 L 351.910156 83.128906 L 352.097656 83.199219 L 352.164062 83.222656 L 352.234375 83.242188 L 352.304688 83.265625 L 352.378906 83.289062 L 352.453125 83.308594 L 352.527344 83.332031 L 352.609375 83.351562 L 352.6875 83.375 L 352.769531 83.394531 L 352.941406 83.433594 L 353.03125 83.453125 L 353.121094 83.46875 L 353.214844 83.488281 L 353.308594 83.503906 L 353.503906 83.535156 L 353.707031 83.558594 L 353.917969 83.582031 L 354.027344 83.59375 L 354.246094 83.609375 L 354.363281 83.617188 L 354.476562 83.621094 L 354.59375 83.625 L 354.714844 83.628906 L 354.835938 83.628906 L 354.960938 83.632812 L 355.085938 83.628906 L 355.210938 83.628906 L 355.339844 83.621094 L 355.472656 83.617188 L 355.601562 83.609375 L 355.738281 83.601562 L 356.011719 83.578125 L 356.148438 83.5625 L 356.289062 83.546875 L 356.433594 83.53125 L 356.582031 83.511719 L 356.742188 83.488281 L 356.898438 83.460938 L 357.058594 83.433594 L 379.507812 79.476562 L 379.28125 78.496094 L 379.035156 77.535156 L 378.765625 76.589844 L 378.476562 75.660156 L 378.164062 74.75 L 377.835938 73.859375 L 377.488281 72.988281 L 377.121094 72.136719 L 376.742188 71.304688 L 376.34375 70.496094 L 375.929688 69.707031 L 375.503906 68.9375 L 375.066406 68.195312 L 374.613281 67.472656 L 374.152344 66.773438 L 373.679688 66.09375 L 373.199219 65.441406 L 372.710938 64.8125 L 372.214844 64.207031 L 371.714844 63.625 L 371.207031 63.070312 L 370.695312 62.535156 L 370.183594 62.023438 L 369.671875 61.539062 L 369.15625 61.078125 L 368.640625 60.640625 L 368.132812 60.226562 L 367.625 59.835938 L 367.125 59.472656 L 366.644531 59.140625 L 332.164062 59.140625 L 306.707031 63.636719 L 306.320312 63.722656 L 305.921875 63.828125 L 305.523438 63.941406 L 305.113281 64.066406 L 304.703125 64.207031 L 304.285156 64.363281 L 303.863281 64.53125 L 303.4375 64.714844 L 303.007812 64.910156 L 302.574219 65.125 L 302.136719 65.351562 L 301.699219 65.59375 L 301.261719 65.855469 L 300.820312 66.128906 L 300.382812 66.421875 L 299.941406 66.726562 L 299.5 67.050781 L 299.0625 67.394531 L 298.625 67.75 L 298.1875 68.125 L 297.757812 68.519531 L 297.328125 68.925781 L 296.90625 69.355469 L 296.484375 69.796875 L 296.070312 70.257812 L 295.710938 70.679688 L 295.363281 71.113281 L 295.011719 71.566406 L 294.664062 72.046875 L 294.316406 72.550781 L 293.972656 73.078125 L 293.632812 73.628906 L 293.296875 74.203125 L 292.96875 74.804688 L 292.644531 75.425781 L 292.335938 76.070312 L 292.03125 76.734375 L 291.742188 77.421875 L 291.464844 78.132812 L 291.199219 78.859375 L 290.949219 79.609375 L 290.710938 80.378906 L 290.492188 81.167969 L 290.289062 81.972656 L 290.101562 82.800781 L 289.9375 83.640625 L 289.789062 84.5 L 289.660156 85.375 L 289.554688 86.265625 L 289.46875 87.171875 L 289.457031 87.394531 Z M 317.289062 87.394531 "/>
<path style=" stroke:none;fill-rule:nonzero;fill:rgb(66.666667%,0%,0%);fill-opacity:1;" d="M 334.609375 87.394531 L 337.042969 86.964844 L 332.136719 87.394531 Z M 334.609375 87.394531 "/>
<g clip-path="url(#clip22)" clip-rule="nonzero">
<path style="fill:none;stroke-width:2;stroke-linecap:square;stroke-linejoin:miter;stroke:rgb(66.666667%,0%,0%);stroke-opacity:1;stroke-miterlimit:3.25;" d="M 334.609375 87.394531 L 337.042969 86.964844 L 332.136719 87.394531 Z M 334.609375 87.394531 "/>
</g>
<path style=" stroke:none;fill-rule:evenodd;fill:rgb(66.666667%,0%,0%);fill-opacity:1;" d="M 332.816406 84.40625 C 332.816406 84.363281 332.796875 84.296875 332.773438 84.261719 L 329.113281 76.859375 C 329.039062 76.703125 329.015625 76.660156 328.863281 76.660156 C 328.699219 76.660156 328.675781 76.703125 328.601562 76.859375 L 324.941406 84.261719 C 324.921875 84.296875 324.898438 84.363281 324.898438 84.40625 C 324.898438 84.472656 324.910156 84.480469 325.128906 84.480469 L 332.585938 84.480469 C 332.804688 84.480469 332.816406 84.472656 332.816406 84.40625 Z M 331.515625 83.726562 L 325.542969 83.726562 L 328.523438 77.667969 Z M 331.515625 83.726562 "/>
<path style=" stroke:none;fill-rule:evenodd;fill:rgb(66.666667%,0%,0%);fill-opacity:1;" d="M 338.023438 84.25 C 338.101562 83.933594 338.191406 83.574219 338.191406 83.273438 C 338.191406 83.058594 338.148438 82.875 338.007812 82.761719 C 337.964844 82.722656 337.894531 82.699219 337.824219 82.699219 C 337.726562 82.699219 337.617188 82.746094 337.535156 82.835938 C 337.464844 82.914062 337.425781 83.003906 337.425781 83.089844 C 337.425781 83.175781 337.457031 83.25 337.527344 83.304688 C 337.71875 83.457031 337.824219 83.6875 337.824219 83.949219 C 337.824219 84.035156 337.808594 84.117188 337.792969 84.203125 C 337.617188 84.886719 337.144531 85.566406 336.535156 85.566406 C 336.121094 85.566406 335.855469 85.316406 335.761719 84.953125 C 335.871094 84.730469 335.953125 84.488281 336.007812 84.25 C 336.023438 84.195312 336.03125 84.132812 336.03125 84.082031 C 336.03125 83.941406 335.976562 83.835938 335.847656 83.835938 C 335.691406 83.835938 335.578125 84.019531 335.539062 84.203125 C 335.46875 84.457031 335.441406 84.699219 335.449219 84.925781 C 335.1875 85.300781 334.808594 85.566406 334.402344 85.566406 C 333.929688 85.566406 333.699219 85.175781 333.699219 84.683594 C 333.699219 84.546875 333.714844 84.402344 333.753906 84.25 C 333.867188 83.804688 334.136719 83.382812 334.441406 82.988281 C 334.464844 82.953125 334.480469 82.914062 334.480469 82.882812 C 334.480469 82.828125 334.449219 82.785156 334.402344 82.753906 C 334.382812 82.738281 334.355469 82.730469 334.328125 82.730469 C 334.273438 82.730469 334.210938 82.761719 334.175781 82.808594 C 333.851562 83.242188 333.644531 83.71875 333.523438 84.203125 C 333.453125 84.472656 333.414062 84.730469 333.414062 84.984375 C 333.414062 85.644531 333.675781 86.15625 334.304688 86.15625 C 334.785156 86.15625 335.195312 85.84375 335.507812 85.398438 C 335.621094 85.851562 335.921875 86.15625 336.429688 86.15625 C 337.242188 86.15625 337.792969 85.183594 338.023438 84.25 Z M 338.023438 84.25 "/>
</g>
</svg>
