<?xml version="1.0" encoding="UTF-8"?>
<svg xmlns="http://www.w3.org/2000/svg" xmlns:xlink="http://www.w3.org/1999/xlink" width="202pt" height="82pt" viewBox="0 0 202 82" version="1.1">
<g id="surface416">
<path style=" stroke:none;fill-rule:nonzero;fill:rgb(74.999619%,74.999619%,74.999619%);fill-opacity:1;" d="M -26.929688 110.746094 L 120.679688 39.664062 L 191.761719 187.269531 L 240.964844 163.578125 L 146.1875 -33.230469 L -50.621094 61.546875 Z M -26.929688 110.746094 "/>
<path style="fill:none;stroke-width:1;stroke-linecap:square;stroke-linejoin:miter;stroke:rgb(0%,0%,0%);stroke-opacity:1;stroke-miterlimit:3.25;" d="M -26.929688 110.746094 L 120.679688 39.664062 "/>
<path style="fill:none;stroke-width:1;stroke-linecap:square;stroke-linejoin:miter;stroke:rgb(0%,0%,0%);stroke-opacity:1;stroke-miterlimit:3.25;" d="M 180.554688 163.996094 L 120.679688 39.664062 "/>
<path style=" stroke:none;fill-rule:nonzero;fill:rgb(0%,0%,0%);fill-opacity:1;" d="M 120.679688 39.664062 L 121.128906 40.113281 L 120.910156 38.996094 L 120.460938 39.214844 Z M 120.679688 39.664062 "/>
<path style="fill:none;stroke-width:1;stroke-linecap:square;stroke-linejoin:miter;stroke:rgb(0%,0%,0%);stroke-opacity:1;stroke-miterlimit:3.25;" d="M 180.554688 163.996094 L 120.679688 39.664062 "/>
<path style=" stroke:none;fill-rule:nonzero;fill:rgb(0%,0%,0%);fill-opacity:1;" d="M 120.679688 39.664062 L 121.128906 40.113281 L 120.910156 38.996094 L 120.460938 39.214844 Z M 120.679688 39.664062 "/>
<path style="fill:none;stroke-width:1;stroke-linecap:square;stroke-linejoin:miter;stroke:rgb(0%,0%,0%);stroke-opacity:1;stroke-miterlimit:3.25;" d="M -50.621094 61.546875 L 146.1875 -33.230469 L 240.964844 163.578125 "/>
<path style="fill-rule:nonzero;fill:rgb(100%,100%,86.999313%);fill-opacity:1;stroke-width:1;stroke-linecap:square;stroke-linejoin:miter;stroke:rgb(0%,0%,0%);stroke-opacity:1;stroke-miterlimit:3.25;" d="M 133.6875 65.25 L 133.4375 63.320312 L 133.105469 61.417969 L 132.691406 59.550781 L 132.195312 57.71875 L 131.625 55.929688 L 130.972656 54.179688 L 130.25 52.476562 L 129.449219 50.824219 L 128.582031 49.222656 L 127.648438 47.679688 L 126.644531 46.191406 L 125.578125 44.765625 L 124.453125 43.402344 L 123.269531 42.101562 L 122.03125 40.875 L 120.738281 39.714844 L 119.398438 38.632812 L 118.011719 37.621094 L 116.585938 36.691406 L 115.117188 35.835938 L 113.609375 35.066406 L 112.074219 34.375 L 110.507812 33.769531 L 108.914062 33.25 L 107.300781 32.816406 L 105.667969 32.46875 L 104.023438 32.21875 L 102.375 32.058594 L 100.71875 31.988281 L 99.058594 32.015625 L 97.40625 32.132812 L 95.757812 32.339844 L 94.121094 32.644531 L 92.496094 33.035156 L 90.894531 33.515625 L 89.316406 34.082031 L 87.761719 34.734375 L 86.242188 35.46875 L 84.757812 36.28125 L 83.308594 37.179688 L 81.902344 38.152344 L 80.539062 39.203125 L 79.226562 40.328125 L 77.960938 41.523438 L 76.753906 42.789062 L 75.601562 44.121094 L 74.507812 45.519531 L 73.472656 46.980469 L 72.507812 48.496094 L 71.605469 50.074219 L 70.777344 51.703125 L 70.019531 53.382812 L 69.332031 55.109375 L 68.722656 56.882812 L 68.191406 58.695312 L 67.738281 60.546875 L 67.367188 62.429688 L 67.078125 64.347656 L 66.972656 65.25 L 66.886719 65.316406 L 66.796875 65.386719 L 66.699219 65.460938 L 66.597656 65.535156 L 66.488281 65.613281 L 66.371094 65.691406 L 66.25 65.773438 L 66.121094 65.855469 L 65.988281 65.9375 L 65.847656 66.023438 L 65.703125 66.105469 L 65.546875 66.191406 L 65.386719 66.28125 L 65.222656 66.367188 L 65.050781 66.453125 L 64.871094 66.539062 L 64.683594 66.628906 L 64.488281 66.714844 L 64.289062 66.800781 L 64.082031 66.886719 L 63.871094 66.96875 L 63.648438 67.054688 L 63.421875 67.136719 L 63.1875 67.21875 L 62.949219 67.296875 L 62.699219 67.375 L 62.445312 67.449219 L 62.183594 67.523438 L 61.914062 67.59375 L 61.640625 67.664062 L 61.359375 67.726562 L 61.070312 67.792969 L 60.773438 67.851562 L 60.46875 67.90625 L 60.160156 67.960938 L 59.84375 68.011719 L 59.523438 68.054688 L 59.195312 68.097656 L 58.859375 68.132812 L 58.515625 68.167969 L 58.167969 68.195312 L 57.8125 68.21875 L 57.453125 68.238281 L 57.058594 68.25 L 56.65625 68.261719 L 12.203125 68.261719 L 12.246094 67.359375 L 12.367188 65.429688 L 12.539062 63.527344 L 12.753906 61.648438 L 13.015625 59.796875 L 13.320312 57.976562 L 13.667969 56.183594 L 14.058594 54.421875 L 14.484375 52.691406 L 14.949219 50.996094 L 15.453125 49.335938 L 15.988281 47.714844 L 16.558594 46.128906 L 17.15625 44.582031 L 17.789062 43.070312 L 18.445312 41.605469 L 19.128906 40.179688 L 19.835938 38.792969 L 20.566406 37.453125 L 21.3125 36.152344 L 22.082031 34.898438 L 22.863281 33.6875 L 23.664062 32.519531 L 24.472656 31.398438 L 25.292969 30.320312 L 26.121094 29.289062 L 26.953125 28.304688 L 27.785156 27.371094 L 28.617188 26.484375 L 29.445312 25.640625 L 30.273438 24.847656 L 31.089844 24.097656 L 31.902344 23.390625 L 32.726562 22.710938 L 33.667969 21.972656 L 34.617188 21.269531 L 35.566406 20.597656 L 36.519531 19.964844 L 37.476562 19.363281 L 38.429688 18.796875 L 39.378906 18.261719 L 40.332031 17.757812 L 41.277344 17.289062 L 42.21875 16.851562 L 43.15625 16.445312 L 44.085938 16.070312 L 45.007812 15.722656 L 45.921875 15.410156 L 46.828125 15.121094 L 47.722656 14.863281 L 48.605469 14.628906 L 49.480469 14.425781 L 50.339844 14.246094 L 51.1875 14.09375 L 52.019531 13.964844 L 52.835938 13.859375 L 53.640625 13.773438 L 54.425781 13.714844 L 55.199219 13.671875 L 144.394531 13.652344 L 145.09375 13.660156 L 145.820312 13.691406 L 146.601562 13.738281 L 147.394531 13.8125 L 148.203125 13.902344 L 149.03125 14.019531 L 149.871094 14.160156 L 150.722656 14.328125 L 151.589844 14.519531 L 152.464844 14.734375 L 153.355469 14.980469 L 154.253906 15.25 L 155.164062 15.550781 L 156.082031 15.882812 L 157.007812 16.242188 L 157.941406 16.628906 L 158.882812 17.050781 L 159.824219 17.503906 L 160.773438 17.988281 L 161.726562 18.503906 L 162.679688 19.054688 L 163.632812 19.636719 L 164.585938 20.253906 L 165.539062 20.90625 L 166.488281 21.59375 L 167.433594 22.3125 L 168.332031 23.035156 L 169.136719 23.714844 L 169.953125 24.441406 L 170.773438 25.210938 L 171.601562 26.027344 L 172.433594 26.890625 L 173.265625 27.800781 L 174.097656 28.757812 L 174.929688 29.765625 L 175.753906 30.816406 L 176.570312 31.914062 L 177.371094 33.058594 L 178.164062 34.246094 L 178.941406 35.476562 L 179.699219 36.75 L 180.441406 38.070312 L 181.160156 39.433594 L 181.855469 40.835938 L 182.527344 42.28125 L 183.171875 43.769531 L 183.789062 45.296875 L 184.375 46.859375 L 184.929688 48.464844 L 185.449219 50.105469 L 185.933594 51.78125 L 186.382812 53.492188 L 186.792969 55.234375 L 187.160156 57.011719 L 187.488281 58.820312 L 187.773438 60.65625 L 188.015625 62.519531 L 188.210938 64.410156 L 188.359375 66.324219 L 188.460938 68.261719 L 144.085938 68.261719 L 143.777344 68.253906 L 143.464844 68.246094 L 143.171875 68.234375 L 142.894531 68.222656 L 142.621094 68.203125 L 142.351562 68.183594 L 142.085938 68.160156 L 141.824219 68.136719 L 141.566406 68.109375 L 141.3125 68.078125 L 141.0625 68.046875 L 140.816406 68.011719 L 140.574219 67.972656 L 140.335938 67.933594 L 140.101562 67.890625 L 139.871094 67.847656 L 139.644531 67.800781 L 139.421875 67.753906 L 139.203125 67.703125 L 138.988281 67.652344 L 138.777344 67.601562 L 138.570312 67.546875 L 138.367188 67.492188 L 138.167969 67.433594 L 137.972656 67.378906 L 137.78125 67.316406 L 137.597656 67.257812 L 137.414062 67.195312 L 137.234375 67.132812 L 136.890625 67.007812 L 136.722656 66.945312 L 136.402344 66.8125 L 136.097656 66.679688 L 135.808594 66.546875 L 135.535156 66.414062 L 135.277344 66.28125 L 135.035156 66.148438 L 134.921875 66.082031 L 134.808594 66.019531 L 134.699219 65.953125 L 134.496094 65.828125 L 134.398438 65.765625 L 134.304688 65.703125 L 134.21875 65.640625 L 134.046875 65.523438 L 133.96875 65.464844 L 133.894531 65.410156 L 133.753906 65.300781 Z M 133.6875 65.25 "/>
<path style=" stroke:none;fill-rule:evenodd;fill:rgb(0%,0%,100%);fill-opacity:1;" d="M 122 40 C 122 39.734375 121.894531 39.480469 121.707031 39.292969 C 121.519531 39.105469 121.265625 39 121 39 C 120.734375 39 120.480469 39.105469 120.292969 39.292969 C 120.105469 39.480469 120 39.734375 120 40 C 120 40.265625 120.105469 40.519531 120.292969 40.707031 C 120.480469 40.894531 120.734375 41 121 41 C 121.265625 41 121.519531 40.894531 121.707031 40.707031 C 121.894531 40.519531 122 40.265625 122 40 Z M 122 40 "/>
<path style="fill:none;stroke-width:1;stroke-linecap:square;stroke-linejoin:miter;stroke:rgb(0%,0%,100%);stroke-opacity:1;stroke-miterlimit:3.25;" d="M 123.160156 38.46875 L 118.199219 40.859375 "/>
<path style=" stroke:none;fill-rule:evenodd;fill:rgb(0%,0%,100%);fill-opacity:1;" d="M 66 67 C 66 66.734375 65.894531 66.480469 65.707031 66.292969 C 65.519531 66.105469 65.265625 66 65 66 C 64.734375 66 64.480469 66.105469 64.292969 66.292969 C 64.105469 66.480469 64 66.734375 64 67 C 64 67.265625 64.105469 67.519531 64.292969 67.707031 C 64.480469 67.894531 64.734375 68 65 68 C 65.265625 68 65.519531 67.894531 65.707031 67.707031 C 65.894531 67.519531 66 67.265625 66 67 Z M 66 67 "/>
<path style="fill:none;stroke-width:1;stroke-linecap:square;stroke-linejoin:miter;stroke:rgb(0%,0%,100%);stroke-opacity:1;stroke-miterlimit:3.25;" d="M 63.707031 67.101562 L 66.148438 65.925781 "/>
<path style=" stroke:none;fill-rule:evenodd;fill:rgb(0%,0%,100%);fill-opacity:1;" d="M 42 17 C 42 16.734375 41.894531 16.480469 41.707031 16.292969 C 41.519531 16.105469 41.265625 16 41 16 C 40.734375 16 40.480469 16.105469 40.292969 16.292969 C 40.105469 16.480469 40 16.734375 40 17 C 40 17.265625 40.105469 17.519531 40.292969 17.707031 C 40.480469 17.894531 40.734375 18 41 18 C 41.265625 18 41.519531 17.894531 41.707031 17.707031 C 41.894531 17.519531 42 17.265625 42 17 Z M 42 17 "/>
<path style="fill:none;stroke-width:1;stroke-linecap:square;stroke-linejoin:miter;stroke:rgb(0%,0%,100%);stroke-opacity:1;stroke-miterlimit:3.25;" d="M 44.933594 15.527344 L 37.53125 19.09375 "/>
<path style=" stroke:none;fill-rule:evenodd;fill:rgb(0%,0%,0%);fill-opacity:1;" d="M 127.988281 34.90625 L 127.988281 34.433594 L 127.222656 34.433594 L 125.371094 32.199219 L 126.640625 30.742188 C 126.761719 30.601562 126.859375 30.511719 127.769531 30.511719 L 127.769531 30.042969 L 126.761719 30.0625 C 126.445312 30.0625 125.972656 30.0625 125.664062 30.042969 L 125.664062 30.511719 C 125.875 30.511719 126.105469 30.566406 126.105469 30.644531 C 126.105469 30.644531 126.050781 30.742188 126.027344 30.765625 L 125.074219 31.839844 L 123.992188 30.511719 L 124.449219 30.511719 L 124.449219 30.042969 C 124.199219 30.0625 123.453125 30.0625 123.15625 30.0625 C 122.828125 30.0625 122.238281 30.0625 121.929688 30.042969 L 121.929688 30.511719 L 122.707031 30.511719 L 124.417969 32.59375 L 122.992188 34.203125 C 122.859375 34.359375 122.785156 34.433594 121.875 34.433594 L 121.875 34.90625 L 122.894531 34.882812 C 123.210938 34.882812 123.671875 34.882812 123.980469 34.90625 L 123.980469 34.433594 C 123.769531 34.433594 123.539062 34.378906 123.539062 34.304688 C 123.539062 34.304688 123.539062 34.28125 123.617188 34.195312 L 124.710938 32.957031 L 125.929688 34.433594 L 125.46875 34.433594 L 125.46875 34.90625 C 125.734375 34.882812 126.464844 34.882812 126.773438 34.882812 C 127.101562 34.882812 127.683594 34.882812 127.988281 34.90625 Z M 127.988281 34.90625 "/>
<path style=" stroke:none;fill-rule:evenodd;fill:rgb(0%,0%,0%);fill-opacity:1;" d="M 131.839844 37.570312 C 131.839844 37.535156 131.839844 37.515625 131.652344 37.328125 C 130.558594 36.21875 129.945312 34.414062 129.945312 32.179688 C 129.945312 30.054688 130.457031 28.222656 131.730469 26.929688 C 131.839844 26.832031 131.839844 26.808594 131.839844 26.777344 C 131.839844 26.710938 131.785156 26.6875 131.742188 26.6875 C 131.597656 26.6875 130.699219 27.476562 130.164062 28.550781 C 129.601562 29.65625 129.351562 30.828125 129.351562 32.179688 C 129.351562 33.152344 129.503906 34.457031 130.074219 35.628906 C 130.722656 36.945312 131.621094 37.65625 131.742188 37.65625 C 131.785156 37.65625 131.839844 37.632812 131.839844 37.570312 Z M 131.839844 37.570312 "/>
<path style=" stroke:none;fill-rule:evenodd;fill:rgb(0%,0%,0%);fill-opacity:1;" d="M 135.808594 33.339844 C 135.808594 33.273438 135.765625 33.242188 135.699219 33.242188 C 135.699219 33.242188 135.632812 33.242188 135.609375 33.285156 C 135.609375 33.285156 135.589844 33.304688 135.511719 33.480469 C 135.28125 34.03125 134.78125 34.796875 134.144531 34.796875 C 133.8125 34.796875 133.792969 34.523438 133.792969 34.28125 C 133.792969 34.28125 133.792969 34.0625 133.824219 33.929688 L 134.679688 30.5 L 135.6875 30.5 C 135.898438 30.5 136.007812 30.5 136.007812 30.304688 C 136.007812 30.183594 135.941406 30.183594 135.722656 30.183594 L 134.757812 30.183594 L 135.164062 28.585938 C 135.207031 28.429688 135.207031 28.410156 135.207031 28.332031 C 135.207031 28.15625 135.0625 28.058594 134.921875 28.058594 C 134.835938 28.058594 134.582031 28.089844 134.492188 28.441406 L 134.066406 30.183594 L 133.039062 30.183594 C 132.816406 30.183594 132.71875 30.183594 132.71875 30.390625 C 132.71875 30.5 132.796875 30.5 133.003906 30.5 L 133.980469 30.5 L 133.257812 33.394531 C 133.167969 33.777344 133.136719 33.886719 133.136719 34.03125 C 133.136719 34.546875 133.496094 35.015625 134.109375 35.015625 C 135.21875 35.015625 135.808594 33.414062 135.808594 33.339844 Z M 135.808594 33.339844 "/>
<path style=" stroke:none;fill-rule:evenodd;fill:rgb(0%,0%,0%);fill-opacity:1;" d="M 139.46875 32.179688 C 139.46875 31.34375 139.359375 29.988281 138.746094 28.714844 C 138.097656 27.402344 137.199219 26.6875 137.078125 26.6875 C 137.035156 26.6875 136.980469 26.710938 136.980469 26.777344 C 136.980469 26.808594 136.980469 26.832031 137.167969 27.015625 C 138.261719 28.125 138.875 29.929688 138.875 32.167969 C 138.875 34.292969 138.359375 36.121094 137.089844 37.414062 C 136.980469 37.515625 136.980469 37.535156 136.980469 37.570312 C 136.980469 37.632812 137.035156 37.65625 137.078125 37.65625 C 137.222656 37.65625 138.121094 36.867188 138.65625 35.792969 C 139.214844 34.675781 139.46875 33.492188 139.46875 32.179688 Z M 139.46875 32.179688 "/>
<path style=" stroke:none;fill-rule:evenodd;fill:rgb(0%,0%,0%);fill-opacity:1;" d="M 27.4375 10.054688 C 27.4375 9.867188 27.371094 9.855469 27.207031 9.855469 C 27.097656 9.855469 26.988281 9.855469 26.976562 9.976562 C 26.878906 11.644531 25.464844 12.214844 24.480469 12.214844 C 23.769531 12.214844 22.804688 12.015625 22.191406 11.324219 C 21.808594 10.910156 21.457031 10.308594 21.457031 8.792969 C 21.457031 7.722656 21.621094 6.921875 22.136719 6.308594 C 22.835938 5.484375 23.933594 5.375 24.457031 5.375 C 25.28125 5.375 26.605469 5.835938 26.933594 7.765625 C 26.957031 7.863281 27.054688 7.863281 27.1875 7.863281 C 27.4375 7.863281 27.4375 7.839844 27.4375 7.578125 L 27.4375 5.191406 C 27.4375 4.9375 27.4375 4.90625 27.195312 4.90625 L 26.375 5.691406 C 25.761719 5.167969 25.027344 4.90625 24.21875 4.90625 C 21.597656 4.90625 19.910156 6.492188 19.910156 8.792969 C 19.910156 11.050781 21.542969 12.683594 24.230469 12.683594 C 26.179688 12.683594 27.4375 11.347656 27.4375 10.054688 Z M 27.4375 10.054688 "/>
<path style=" stroke:none;fill-rule:evenodd;fill:rgb(0%,0%,0%);fill-opacity:1;" d="M 31.691406 15.214844 C 31.691406 15.179688 31.691406 15.160156 31.507812 14.972656 C 30.410156 13.867188 29.796875 12.058594 29.796875 9.824219 C 29.796875 7.699219 30.3125 5.871094 31.582031 4.578125 C 31.691406 4.476562 31.691406 4.457031 31.691406 4.421875 C 31.691406 4.359375 31.636719 4.335938 31.59375 4.335938 C 31.453125 4.335938 30.554688 5.125 30.015625 6.199219 C 29.457031 7.304688 29.203125 8.476562 29.203125 9.824219 C 29.203125 10.800781 29.359375 12.105469 29.929688 13.273438 C 30.574219 14.589844 31.472656 15.300781 31.59375 15.300781 C 31.636719 15.300781 31.691406 15.28125 31.691406 15.214844 Z M 31.691406 15.214844 "/>
<path style=" stroke:none;fill-rule:evenodd;fill:rgb(0%,0%,0%);fill-opacity:1;" d="M 35.660156 10.984375 C 35.660156 10.917969 35.617188 10.886719 35.550781 10.886719 C 35.550781 10.886719 35.488281 10.886719 35.464844 10.929688 C 35.464844 10.929688 35.441406 10.953125 35.363281 11.128906 C 35.136719 11.675781 34.632812 12.441406 33.996094 12.441406 C 33.667969 12.441406 33.644531 12.167969 33.644531 11.925781 C 33.644531 11.925781 33.644531 11.707031 33.675781 11.578125 L 34.53125 8.148438 L 35.542969 8.148438 C 35.75 8.148438 35.859375 8.148438 35.859375 7.949219 C 35.859375 7.832031 35.792969 7.832031 35.574219 7.832031 L 34.609375 7.832031 L 35.015625 6.230469 C 35.058594 6.078125 35.058594 6.054688 35.058594 5.980469 C 35.058594 5.800781 34.917969 5.703125 34.773438 5.703125 C 34.6875 5.703125 34.433594 5.738281 34.347656 6.089844 L 33.917969 7.832031 L 32.890625 7.832031 C 32.671875 7.832031 32.570312 7.832031 32.570312 8.039062 C 32.570312 8.148438 32.648438 8.148438 32.859375 8.148438 L 33.832031 8.148438 L 33.109375 11.039062 C 33.023438 11.425781 32.988281 11.535156 32.988281 11.675781 C 32.988281 12.191406 33.351562 12.660156 33.964844 12.660156 C 35.070312 12.660156 35.660156 11.0625 35.660156 10.984375 Z M 35.660156 10.984375 "/>
<path style=" stroke:none;fill-rule:evenodd;fill:rgb(0%,0%,0%);fill-opacity:1;" d="M 39.21875 9.824219 C 39.21875 8.992188 39.109375 7.632812 38.496094 6.363281 C 37.851562 5.046875 36.953125 4.335938 36.832031 4.335938 C 36.789062 4.335938 36.734375 4.359375 36.734375 4.421875 C 36.734375 4.457031 36.734375 4.476562 36.917969 4.664062 C 38.015625 5.769531 38.628906 7.578125 38.628906 9.8125 C 38.628906 11.9375 38.113281 13.765625 36.84375 15.0625 C 36.734375 15.160156 36.734375 15.179688 36.734375 15.214844 C 36.734375 15.28125 36.789062 15.300781 36.832031 15.300781 C 36.972656 15.300781 37.871094 14.511719 38.410156 13.4375 C 38.96875 12.324219 39.21875 11.136719 39.21875 9.824219 Z M 39.21875 9.824219 "/>
<path style=" stroke:none;fill-rule:evenodd;fill:rgb(0%,0%,0%);fill-opacity:1;" d="M 74.683594 73.0625 C 74.683594 70.585938 73.015625 69.238281 70.957031 69.238281 L 66.34375 69.238281 L 66.34375 69.707031 L 67.503906 69.707031 L 67.503906 76.28125 L 66.34375 76.28125 L 66.34375 76.753906 L 70.957031 76.753906 C 73.0625 76.753906 74.683594 75.40625 74.683594 73.0625 Z M 73.191406 73.050781 C 73.191406 74.332031 73.027344 74.902344 72.644531 75.417969 C 72.261719 75.921875 71.527344 76.28125 70.539062 76.28125 L 68.894531 76.28125 L 68.894531 69.707031 L 70.539062 69.707031 C 71.492188 69.707031 72.261719 70.082031 72.664062 70.648438 C 72.984375 71.101562 73.191406 71.636719 73.191406 73.050781 Z M 73.191406 73.050781 "/>
<path style=" stroke:none;fill-rule:evenodd;fill:rgb(0%,0%,0%);fill-opacity:1;" d="M 78.890625 79.417969 C 78.890625 79.382812 78.890625 79.363281 78.703125 79.175781 C 77.609375 78.066406 76.992188 76.261719 76.992188 74.027344 C 76.992188 71.898438 77.507812 70.070312 78.78125 68.777344 C 78.890625 68.679688 78.890625 68.65625 78.890625 68.625 C 78.890625 68.558594 78.835938 68.535156 78.792969 68.535156 C 78.648438 68.535156 77.75 69.324219 77.210938 70.398438 C 76.652344 71.503906 76.402344 72.675781 76.402344 74.027344 C 76.402344 75 76.554688 76.304688 77.125 77.476562 C 77.773438 78.792969 78.671875 79.503906 78.792969 79.503906 C 78.835938 79.503906 78.890625 79.480469 78.890625 79.417969 Z M 78.890625 79.417969 "/>
<path style=" stroke:none;fill-rule:evenodd;fill:rgb(0%,0%,0%);fill-opacity:1;" d="M 82.859375 75.1875 C 82.859375 75.121094 82.816406 75.089844 82.75 75.089844 C 82.75 75.089844 82.683594 75.089844 82.660156 75.132812 C 82.660156 75.132812 82.640625 75.152344 82.5625 75.328125 C 82.332031 75.878906 81.832031 76.644531 81.195312 76.644531 C 80.863281 76.644531 80.84375 76.371094 80.84375 76.128906 C 80.84375 76.128906 80.84375 75.910156 80.875 75.777344 L 81.730469 72.347656 L 82.738281 72.347656 C 82.949219 72.347656 83.058594 72.347656 83.058594 72.152344 C 83.058594 72.03125 82.992188 72.03125 82.773438 72.03125 L 81.808594 72.03125 L 82.214844 70.429688 C 82.257812 70.277344 82.257812 70.257812 82.257812 70.179688 C 82.257812 70.003906 82.113281 69.90625 81.972656 69.90625 C 81.886719 69.90625 81.632812 69.9375 81.542969 70.289062 L 81.117188 72.03125 L 80.089844 72.03125 C 79.867188 72.03125 79.769531 72.03125 79.769531 72.238281 C 79.769531 72.347656 79.847656 72.347656 80.054688 72.347656 L 81.03125 72.347656 L 80.308594 75.242188 C 80.21875 75.625 80.1875 75.734375 80.1875 75.878906 C 80.1875 76.394531 80.546875 76.863281 81.160156 76.863281 C 82.269531 76.863281 82.859375 75.261719 82.859375 75.1875 Z M 82.859375 75.1875 "/>
<path style=" stroke:none;fill-rule:evenodd;fill:rgb(0%,0%,0%);fill-opacity:1;" d="M 86.519531 74.027344 C 86.519531 73.191406 86.410156 71.835938 85.796875 70.5625 C 85.148438 69.25 84.25 68.535156 84.128906 68.535156 C 84.085938 68.535156 84.03125 68.558594 84.03125 68.625 C 84.03125 68.65625 84.03125 68.679688 84.21875 68.863281 C 85.3125 69.96875 85.929688 71.777344 85.929688 74.015625 C 85.929688 76.140625 85.414062 77.96875 84.140625 79.261719 C 84.03125 79.363281 84.03125 79.382812 84.03125 79.417969 C 84.03125 79.480469 84.085938 79.503906 84.128906 79.503906 C 84.273438 79.503906 85.171875 78.714844 85.710938 77.640625 C 86.265625 76.523438 86.519531 75.339844 86.519531 74.027344 Z M 86.519531 74.027344 "/>
</g>
</svg>
