<?xml version="1.0" encoding="UTF-8"?>
<svg xmlns="http://www.w3.org/2000/svg" xmlns:xlink="http://www.w3.org/1999/xlink" width="202pt" height="84pt" viewBox="0 0 202 84" version="1.1">
<g id="surface540">
<path style=" stroke:none;fill-rule:nonzero;fill:rgb(74.999619%,74.999619%,74.999619%);fill-opacity:1;" d="M 6.339844 192.472656 L 79.402344 40.765625 L 231.109375 113.824219 L 255.460938 63.257812 L 53.183594 -34.15625 L -44.226562 168.121094 Z M 6.339844 192.472656 "/>
<path style="fill:none;stroke-width:1;stroke-linecap:square;stroke-linejoin:miter;stroke:rgb(0%,0%,0%);stroke-opacity:1;stroke-miterlimit:3.25;" d="M 18.035156 168.191406 L 79.402344 40.765625 "/>
<path style="fill:none;stroke-width:1;stroke-linecap:square;stroke-linejoin:miter;stroke:rgb(0%,0%,0%);stroke-opacity:1;stroke-miterlimit:3.25;" d="M 18.035156 168.191406 L 79.402344 40.765625 "/>
<path style=" stroke:none;fill-rule:nonzero;fill:rgb(0%,0%,0%);fill-opacity:1;" d="M 79.402344 40.765625 L 78.949219 40.316406 L 79.167969 40.097656 L 79.617188 40.316406 Z M 79.402344 40.765625 "/>
<path style="fill:none;stroke-width:1;stroke-linecap:square;stroke-linejoin:miter;stroke:rgb(0%,0%,0%);stroke-opacity:1;stroke-miterlimit:3.25;" d="M 79.402344 40.765625 L 231.109375 113.824219 "/>
<path style="fill:none;stroke-width:1;stroke-linecap:square;stroke-linejoin:miter;stroke:rgb(0%,0%,0%);stroke-opacity:1;stroke-miterlimit:3.25;" d="M -44.226562 168.121094 L 53.183594 -34.15625 L 255.460938 63.257812 "/>
<path style="fill-rule:nonzero;fill:rgb(100%,100%,86.999313%);fill-opacity:1;stroke-width:1;stroke-linecap:square;stroke-linejoin:miter;stroke:rgb(0%,0%,0%);stroke-opacity:1;stroke-miterlimit:3.25;" d="M 134.597656 67.0625 L 134.339844 65.078125 L 134 63.125 L 133.570312 61.207031 L 133.0625 59.324219 L 132.472656 57.480469 L 131.804688 55.683594 L 131.0625 53.9375 L 130.242188 52.238281 L 129.347656 50.589844 L 128.386719 49.003906 L 127.355469 47.472656 L 126.261719 46.007812 L 125.105469 44.605469 L 123.886719 43.273438 L 122.617188 42.011719 L 121.289062 40.820312 L 119.910156 39.707031 L 118.484375 38.667969 L 117.015625 37.710938 L 115.507812 36.832031 L 113.960938 36.039062 L 112.382812 35.328125 L 110.769531 34.707031 L 109.132812 34.171875 L 107.476562 33.726562 L 105.796875 33.371094 L 104.109375 33.113281 L 102.410156 32.949219 L 100.710938 32.878906 L 99.007812 32.902344 L 97.304688 33.023438 L 95.613281 33.238281 L 93.929688 33.550781 L 92.261719 33.953125 L 90.613281 34.449219 L 88.988281 35.03125 L 87.394531 35.699219 L 85.832031 36.453125 L 84.304688 37.292969 L 82.816406 38.210938 L 81.371094 39.210938 L 79.972656 40.292969 L 78.621094 41.449219 L 77.324219 42.675781 L 76.078125 43.976562 L 74.894531 45.347656 L 73.769531 46.785156 L 72.710938 48.285156 L 71.714844 49.84375 L 70.789062 51.464844 L 69.9375 53.136719 L 69.15625 54.863281 L 68.453125 56.640625 L 67.828125 58.460938 L 67.28125 60.324219 L 66.816406 62.226562 L 66.433594 64.164062 L 66.136719 66.136719 L 66.027344 67.0625 L 65.941406 67.132812 L 65.847656 67.207031 L 65.746094 67.28125 L 65.640625 67.359375 L 65.527344 67.4375 L 65.410156 67.519531 L 65.285156 67.601562 L 65.152344 67.683594 L 65.015625 67.769531 L 64.871094 67.855469 L 64.71875 67.945312 L 64.5625 68.03125 L 64.398438 68.121094 L 64.226562 68.210938 L 64.050781 68.300781 L 63.867188 68.390625 L 63.675781 68.480469 L 63.476562 68.566406 L 63.269531 68.65625 L 63.058594 68.746094 L 62.839844 68.832031 L 62.613281 68.917969 L 62.378906 69 L 62.136719 69.085938 L 61.890625 69.167969 L 61.636719 69.246094 L 61.375 69.324219 L 61.105469 69.398438 L 60.828125 69.472656 L 60.546875 69.542969 L 60.257812 69.609375 L 59.960938 69.675781 L 59.65625 69.738281 L 59.34375 69.792969 L 59.027344 69.847656 L 58.703125 69.898438 L 58.371094 69.945312 L 58.03125 69.988281 L 57.6875 70.027344 L 57.335938 70.0625 L 56.976562 70.089844 L 56.613281 70.113281 L 56.242188 70.132812 L 55.839844 70.148438 L 55.421875 70.15625 L 9.734375 70.160156 L 9.777344 69.230469 L 9.90625 67.25 L 10.078125 65.292969 L 10.300781 63.363281 L 10.570312 61.460938 L 10.886719 59.585938 L 11.242188 57.742188 L 11.640625 55.933594 L 12.082031 54.15625 L 12.558594 52.414062 L 13.074219 50.707031 L 13.625 49.039062 L 14.210938 47.410156 L 14.828125 45.820312 L 15.476562 44.269531 L 16.152344 42.761719 L 16.851562 41.292969 L 17.578125 39.871094 L 18.328125 38.492188 L 19.101562 37.15625 L 19.886719 35.867188 L 20.695312 34.621094 L 21.515625 33.421875 L 22.347656 32.269531 L 23.1875 31.164062 L 24.039062 30.105469 L 24.894531 29.09375 L 25.75 28.132812 L 26.605469 27.21875 L 27.457031 26.355469 L 28.308594 25.539062 L 29.148438 24.765625 L 29.980469 24.042969 L 30.828125 23.34375 L 31.796875 22.585938 L 32.773438 21.859375 L 33.75 21.171875 L 34.730469 20.519531 L 35.710938 19.902344 L 36.691406 19.316406 L 37.667969 18.769531 L 38.644531 18.253906 L 39.617188 17.769531 L 40.585938 17.320312 L 41.546875 16.902344 L 42.503906 16.515625 L 43.453125 16.160156 L 44.390625 15.835938 L 45.320312 15.542969 L 46.242188 15.273438 L 47.152344 15.039062 L 48.046875 14.828125 L 48.929688 14.644531 L 49.800781 14.484375 L 50.65625 14.351562 L 51.5 14.242188 L 52.324219 14.15625 L 53.132812 14.09375 L 53.925781 14.054688 L 145.601562 14.03125 L 146.316406 14.042969 L 147.066406 14.070312 L 147.867188 14.121094 L 148.683594 14.195312 L 149.515625 14.289062 L 150.363281 14.410156 L 151.226562 14.554688 L 152.105469 14.726562 L 152.992188 14.921875 L 153.894531 15.144531 L 154.808594 15.394531 L 155.734375 15.675781 L 156.671875 15.984375 L 157.613281 16.324219 L 158.566406 16.691406 L 159.523438 17.09375 L 160.488281 17.523438 L 161.460938 17.988281 L 162.433594 18.488281 L 163.414062 19.019531 L 164.390625 19.585938 L 165.371094 20.183594 L 166.351562 20.816406 L 167.332031 21.488281 L 168.308594 22.191406 L 169.28125 22.933594 L 170.203125 23.671875 L 171.03125 24.375 L 171.867188 25.121094 L 172.710938 25.910156 L 173.5625 26.75 L 174.417969 27.636719 L 175.273438 28.574219 L 176.128906 29.558594 L 176.984375 30.589844 L 177.828125 31.671875 L 178.667969 32.800781 L 179.496094 33.976562 L 180.308594 35.195312 L 181.105469 36.460938 L 181.886719 37.773438 L 182.648438 39.128906 L 183.386719 40.527344 L 184.101562 41.972656 L 184.792969 43.457031 L 185.457031 44.984375 L 186.089844 46.554688 L 186.691406 48.164062 L 187.261719 49.8125 L 187.796875 51.496094 L 188.292969 53.21875 L 188.753906 54.976562 L 189.175781 56.769531 L 189.554688 58.597656 L 189.890625 60.453125 L 190.183594 62.339844 L 190.433594 64.257812 L 190.632812 66.199219 L 190.785156 68.167969 L 190.890625 70.160156 L 145.601562 70.160156 L 145.28125 70.15625 L 144.964844 70.152344 L 144.644531 70.144531 L 144.34375 70.132812 L 144.058594 70.117188 L 143.777344 70.097656 L 143.503906 70.078125 L 143.230469 70.054688 L 142.960938 70.03125 L 142.695312 70 L 142.433594 69.96875 L 142.175781 69.9375 L 141.921875 69.898438 L 141.429688 69.820312 L 141.1875 69.777344 L 140.949219 69.734375 L 140.71875 69.683594 L 140.488281 69.636719 L 140.042969 69.535156 L 139.613281 69.425781 L 139.40625 69.367188 L 139 69.25 L 138.804688 69.1875 L 138.613281 69.125 L 138.425781 69.0625 L 138.242188 69 L 138.0625 68.933594 L 137.886719 68.871094 L 137.714844 68.804688 L 137.550781 68.738281 L 137.386719 68.667969 L 137.226562 68.601562 L 137.074219 68.535156 L 136.921875 68.464844 L 136.777344 68.398438 L 136.632812 68.328125 L 136.496094 68.257812 L 136.359375 68.191406 L 136.230469 68.121094 L 135.980469 67.988281 L 135.863281 67.917969 L 135.746094 67.851562 L 135.636719 67.785156 L 135.53125 67.71875 L 135.425781 67.65625 L 135.328125 67.589844 L 135.230469 67.527344 L 135.140625 67.464844 L 135.050781 67.40625 L 134.96875 67.34375 L 134.886719 67.285156 L 134.808594 67.226562 L 134.734375 67.171875 L 134.664062 67.117188 Z M 134.597656 67.0625 "/>
<path style=" stroke:none;fill-rule:evenodd;fill:rgb(0%,66.666667%,0%);fill-opacity:1;" d="M 80 41 C 80 40.734375 79.894531 40.480469 79.707031 40.292969 C 79.519531 40.105469 79.265625 40 79 40 C 78.734375 40 78.480469 40.105469 78.292969 40.292969 C 78.105469 40.480469 78 40.734375 78 41 C 78 41.265625 78.105469 41.519531 78.292969 41.707031 C 78.480469 41.894531 78.734375 42 79 42 C 79.265625 42 79.519531 41.894531 79.707031 41.707031 C 79.894531 41.519531 80 41.265625 80 41 Z M 80 41 "/>
<path style="fill:none;stroke-width:1;stroke-linecap:square;stroke-linejoin:miter;stroke:rgb(0%,66.666667%,0%);stroke-opacity:1;stroke-miterlimit:3.25;" d="M 81.949219 41.992188 L 76.851562 39.539062 "/>
<path style=" stroke:none;fill-rule:evenodd;fill:rgb(0%,66.666667%,0%);fill-opacity:1;" d="M 138 68 C 138 67.734375 137.894531 67.480469 137.707031 67.292969 C 137.519531 67.105469 137.265625 67 137 67 C 136.734375 67 136.480469 67.105469 136.292969 67.292969 C 136.105469 67.480469 136 67.734375 136 68 C 136 68.265625 136.105469 68.519531 136.292969 68.707031 C 136.480469 68.894531 136.734375 69 137 69 C 137.265625 69 137.519531 68.894531 137.707031 68.707031 C 137.894531 68.519531 138 68.265625 138 68 Z M 138 68 "/>
<path style="fill:none;stroke-width:1;stroke-linecap:square;stroke-linejoin:miter;stroke:rgb(0%,66.666667%,0%);stroke-opacity:1;stroke-miterlimit:3.25;" d="M 135.445312 67.757812 L 137.953125 68.964844 "/>
<path style=" stroke:none;fill-rule:evenodd;fill:rgb(0%,66.666667%,0%);fill-opacity:1;" d="M 162 18 C 162 17.734375 161.894531 17.480469 161.707031 17.292969 C 161.519531 17.105469 161.265625 17 161 17 C 160.734375 17 160.480469 17.105469 160.292969 17.292969 C 160.105469 17.480469 160 17.734375 160 18 C 160 18.265625 160.105469 18.519531 160.292969 18.707031 C 160.480469 18.894531 160.734375 19 161 19 C 161.265625 19 161.519531 18.894531 161.707031 18.707031 C 161.894531 18.519531 162 18.265625 162 18 Z M 162 18 "/>
<path style="fill:none;stroke-width:1;stroke-linecap:square;stroke-linejoin:miter;stroke:rgb(0%,66.666667%,0%);stroke-opacity:1;stroke-miterlimit:3.25;" d="M 164.855469 19.621094 L 157.25 15.960938 "/>
<path style=" stroke:none;fill-rule:evenodd;fill:rgb(0%,0%,0%);fill-opacity:1;" d="M 65.90625 36.007812 L 65.90625 35.535156 L 65.136719 35.535156 L 63.277344 33.289062 L 64.554688 31.828125 C 64.675781 31.683594 64.773438 31.59375 65.6875 31.59375 L 65.6875 31.121094 L 64.675781 31.144531 C 64.355469 31.144531 63.882812 31.144531 63.574219 31.121094 L 63.574219 31.59375 C 63.785156 31.59375 64.015625 31.648438 64.015625 31.726562 C 64.015625 31.726562 63.960938 31.828125 63.9375 31.847656 L 62.980469 32.925781 L 61.890625 31.59375 L 62.355469 31.59375 L 62.355469 31.121094 C 62.101562 31.144531 61.351562 31.144531 61.054688 31.144531 C 60.726562 31.144531 60.132812 31.144531 59.824219 31.121094 L 59.824219 31.59375 L 60.605469 31.59375 L 62.320312 33.6875 L 60.890625 35.304688 C 60.757812 35.457031 60.679688 35.535156 59.769531 35.535156 L 59.769531 36.007812 L 60.792969 35.984375 C 61.109375 35.984375 61.574219 35.984375 61.882812 36.007812 L 61.882812 35.535156 C 61.671875 35.535156 61.441406 35.480469 61.441406 35.402344 C 61.441406 35.402344 61.441406 35.382812 61.515625 35.292969 L 62.617188 34.046875 L 63.839844 35.535156 L 63.378906 35.535156 L 63.378906 36.007812 C 63.640625 35.984375 64.378906 35.984375 64.6875 35.984375 C 65.015625 35.984375 65.601562 35.984375 65.90625 36.007812 Z M 65.90625 36.007812 "/>
<path style=" stroke:none;fill-rule:evenodd;fill:rgb(0%,0%,0%);fill-opacity:1;" d="M 69.746094 38.679688 C 69.746094 38.648438 69.746094 38.625 69.558594 38.4375 C 68.460938 37.328125 67.84375 35.511719 67.84375 33.265625 C 67.84375 31.132812 68.359375 29.296875 69.636719 27.996094 C 69.746094 27.898438 69.746094 27.875 69.746094 27.84375 C 69.746094 27.777344 69.691406 27.753906 69.648438 27.753906 C 69.503906 27.753906 68.601562 28.546875 68.0625 29.625 C 67.5 30.738281 67.25 31.914062 67.25 33.265625 C 67.25 34.246094 67.402344 35.554688 67.976562 36.734375 C 68.625 38.054688 69.527344 38.769531 69.648438 38.769531 C 69.691406 38.769531 69.746094 38.75 69.746094 38.679688 Z M 69.746094 38.679688 "/>
<path style=" stroke:none;fill-rule:evenodd;fill:rgb(0%,0%,0%);fill-opacity:1;" d="M 73.714844 34.433594 C 73.714844 34.367188 73.671875 34.335938 73.605469 34.335938 C 73.605469 34.335938 73.539062 34.335938 73.515625 34.378906 C 73.515625 34.378906 73.496094 34.402344 73.417969 34.578125 C 73.1875 35.128906 72.679688 35.898438 72.042969 35.898438 C 71.710938 35.898438 71.691406 35.625 71.691406 35.382812 C 71.691406 35.382812 71.691406 35.160156 71.722656 35.027344 L 72.582031 31.585938 L 73.59375 31.585938 C 73.804688 31.585938 73.914062 31.585938 73.914062 31.386719 C 73.914062 31.265625 73.847656 31.265625 73.628906 31.265625 L 72.660156 31.265625 L 73.066406 29.660156 C 73.109375 29.503906 73.109375 29.484375 73.109375 29.40625 C 73.109375 29.230469 72.96875 29.132812 72.824219 29.132812 C 72.734375 29.132812 72.484375 29.164062 72.394531 29.515625 L 71.964844 31.265625 L 70.929688 31.265625 C 70.710938 31.265625 70.613281 31.265625 70.613281 31.476562 C 70.613281 31.585938 70.6875 31.585938 70.898438 31.585938 L 71.878906 31.585938 L 71.152344 34.488281 C 71.0625 34.875 71.03125 34.984375 71.03125 35.128906 C 71.03125 35.644531 71.394531 36.117188 72.007812 36.117188 C 73.121094 36.117188 73.714844 34.511719 73.714844 34.433594 Z M 73.714844 34.433594 "/>
<path style=" stroke:none;fill-rule:evenodd;fill:rgb(0%,0%,0%);fill-opacity:1;" d="M 77.375 33.265625 C 77.375 32.429688 77.261719 31.066406 76.648438 29.789062 C 76 28.46875 75.09375 27.753906 74.976562 27.753906 C 74.929688 27.753906 74.875 27.777344 74.875 27.84375 C 74.875 27.875 74.875 27.898438 75.0625 28.085938 C 76.164062 29.195312 76.78125 31.011719 76.78125 33.257812 C 76.78125 35.390625 76.261719 37.230469 74.984375 38.527344 C 74.875 38.625 74.875 38.648438 74.875 38.679688 C 74.875 38.75 74.929688 38.769531 74.976562 38.769531 C 75.117188 38.769531 76.019531 37.976562 76.558594 36.898438 C 77.121094 35.777344 77.375 34.589844 77.375 33.265625 Z M 77.375 33.265625 "/>
<path style=" stroke:none;fill-rule:evenodd;fill:rgb(0%,0%,0%);fill-opacity:1;" d="M 170.96875 13.035156 L 170.96875 12.558594 L 169.921875 12.558594 L 167.09375 5.582031 C 167.015625 5.386719 166.996094 5.328125 166.730469 5.328125 C 166.457031 5.328125 166.433594 5.386719 166.359375 5.582031 L 163.628906 12.296875 C 163.550781 12.472656 163.550781 12.496094 163.242188 12.527344 C 162.96875 12.558594 162.921875 12.558594 162.679688 12.558594 L 162.484375 12.558594 L 162.484375 13.035156 C 162.769531 13.011719 163.429688 13.011719 163.75 13.011719 C 164.046875 13.011719 164.847656 13.011719 165.101562 13.035156 L 165.101562 12.558594 C 164.859375 12.558594 164.441406 12.558594 164.132812 12.441406 C 164.167969 12.339844 164.167969 12.316406 164.1875 12.273438 L 164.769531 10.84375 L 167.722656 10.84375 L 168.414062 12.558594 L 167.378906 12.558594 L 167.378906 13.035156 C 167.734375 13.011719 168.800781 13.011719 169.21875 13.011719 C 169.570312 13.011719 170.691406 13.011719 170.96875 13.035156 Z M 167.523438 10.371094 L 164.957031 10.371094 L 166.246094 7.203125 Z M 167.523438 10.371094 "/>
<path style=" stroke:none;fill-rule:evenodd;fill:rgb(0%,0%,0%);fill-opacity:1;" d="M 174.933594 15.707031 C 174.933594 15.675781 174.933594 15.652344 174.746094 15.464844 C 173.644531 14.355469 173.027344 12.539062 173.027344 10.292969 C 173.027344 8.15625 173.542969 6.320312 174.820312 5.023438 C 174.933594 4.921875 174.933594 4.902344 174.933594 4.867188 C 174.933594 4.800781 174.878906 4.78125 174.832031 4.78125 C 174.691406 4.78125 173.785156 5.570312 173.246094 6.652344 C 172.6875 7.761719 172.433594 8.9375 172.433594 10.292969 C 172.433594 11.273438 172.589844 12.582031 173.160156 13.761719 C 173.808594 15.082031 174.710938 15.796875 174.832031 15.796875 C 174.878906 15.796875 174.933594 15.773438 174.933594 15.707031 Z M 174.933594 15.707031 "/>
<path style=" stroke:none;fill-rule:evenodd;fill:rgb(0%,0%,0%);fill-opacity:1;" d="M 178.902344 11.460938 C 178.902344 11.394531 178.859375 11.363281 178.789062 11.363281 C 178.789062 11.363281 178.726562 11.363281 178.703125 11.40625 C 178.703125 11.40625 178.679688 11.425781 178.605469 11.605469 C 178.371094 12.152344 177.867188 12.925781 177.226562 12.925781 C 176.898438 12.925781 176.875 12.648438 176.875 12.40625 C 176.875 12.40625 176.875 12.1875 176.910156 12.054688 L 177.765625 8.609375 L 178.777344 8.609375 C 178.988281 8.609375 179.101562 8.609375 179.101562 8.410156 C 179.101562 8.289062 179.03125 8.289062 178.8125 8.289062 L 177.84375 8.289062 L 178.25 6.683594 C 178.296875 6.53125 178.296875 6.507812 178.296875 6.429688 C 178.296875 6.253906 178.152344 6.15625 178.007812 6.15625 C 177.921875 6.15625 177.667969 6.1875 177.582031 6.539062 L 177.152344 8.289062 L 176.117188 8.289062 C 175.894531 8.289062 175.796875 8.289062 175.796875 8.5 C 175.796875 8.609375 175.875 8.609375 176.082031 8.609375 L 177.0625 8.609375 L 176.335938 11.515625 C 176.25 11.902344 176.214844 12.011719 176.214844 12.152344 C 176.214844 12.671875 176.578125 13.144531 177.195312 13.144531 C 178.308594 13.144531 178.902344 11.535156 178.902344 11.460938 Z M 178.902344 11.460938 "/>
<path style=" stroke:none;fill-rule:evenodd;fill:rgb(0%,0%,0%);fill-opacity:1;" d="M 182.558594 10.292969 C 182.558594 9.457031 182.449219 8.09375 181.832031 6.816406 C 181.183594 5.496094 180.28125 4.78125 180.160156 4.78125 C 180.117188 4.78125 180.0625 4.800781 180.0625 4.867188 C 180.0625 4.902344 180.0625 4.921875 180.25 5.109375 C 181.347656 6.222656 181.964844 8.039062 181.964844 10.28125 C 181.964844 12.417969 181.449219 14.253906 180.171875 15.554688 C 180.0625 15.652344 180.0625 15.675781 180.0625 15.707031 C 180.0625 15.773438 180.117188 15.796875 180.160156 15.796875 C 180.304688 15.796875 181.207031 15.003906 181.746094 13.925781 C 182.304688 12.800781 182.558594 11.613281 182.558594 10.292969 Z M 182.558594 10.292969 "/>
<path style=" stroke:none;fill-rule:evenodd;fill:rgb(0%,0%,0%);fill-opacity:1;" d="M 122.832031 76.5625 C 122.832031 75.519531 121.917969 74.757812 120.589844 74.660156 C 122.171875 74.363281 122.480469 73.460938 122.480469 72.945312 C 122.480469 71.933594 121.554688 71.050781 119.792969 71.050781 L 115.152344 71.050781 L 115.152344 71.527344 L 116.316406 71.527344 L 116.316406 78.125 L 115.152344 78.125 L 115.152344 78.601562 L 120.125 78.601562 C 121.941406 78.601562 122.832031 77.621094 122.832031 76.5625 Z M 121.027344 72.933594 C 121.027344 73.703125 120.597656 74.496094 119.3125 74.496094 L 117.671875 74.496094 L 117.671875 71.527344 L 119.664062 71.527344 C 120.796875 71.527344 121.027344 72.382812 121.027344 72.933594 Z M 121.335938 76.542969 C 121.335938 77.234375 120.960938 78.125 119.695312 78.125 L 117.671875 78.125 L 117.671875 74.859375 L 119.863281 74.859375 C 121.148438 74.859375 121.335938 76.046875 121.335938 76.542969 Z M 121.335938 76.542969 "/>
<path style=" stroke:none;fill-rule:evenodd;fill:rgb(0%,0%,0%);fill-opacity:1;" d="M 127.097656 81.273438 C 127.097656 81.238281 127.097656 81.21875 126.910156 81.03125 C 125.8125 79.921875 125.195312 78.105469 125.195312 75.859375 C 125.195312 73.726562 125.710938 71.886719 126.988281 70.589844 C 127.097656 70.492188 127.097656 70.46875 127.097656 70.4375 C 127.097656 70.371094 127.042969 70.347656 127 70.347656 C 126.855469 70.347656 125.953125 71.140625 125.414062 72.21875 C 124.851562 73.332031 124.601562 74.507812 124.601562 75.859375 C 124.601562 76.839844 124.753906 78.148438 125.328125 79.328125 C 125.976562 80.648438 126.878906 81.363281 127 81.363281 C 127.042969 81.363281 127.097656 81.339844 127.097656 81.273438 Z M 127.097656 81.273438 "/>
<path style=" stroke:none;fill-rule:evenodd;fill:rgb(0%,0%,0%);fill-opacity:1;" d="M 130.964844 77.027344 C 130.964844 76.960938 130.921875 76.929688 130.855469 76.929688 C 130.855469 76.929688 130.789062 76.929688 130.769531 76.972656 C 130.769531 76.972656 130.746094 76.992188 130.667969 77.171875 C 130.4375 77.71875 129.933594 78.492188 129.292969 78.492188 C 128.964844 78.492188 128.941406 78.214844 128.941406 77.972656 C 128.941406 77.972656 128.941406 77.753906 128.976562 77.621094 L 129.832031 74.175781 L 130.84375 74.175781 C 131.054688 74.175781 131.164062 74.175781 131.164062 73.976562 C 131.164062 73.859375 131.097656 73.859375 130.878906 73.859375 L 129.910156 73.859375 L 130.316406 72.253906 C 130.363281 72.097656 130.363281 72.074219 130.363281 72 C 130.363281 71.824219 130.21875 71.722656 130.074219 71.722656 C 129.988281 71.722656 129.734375 71.757812 129.648438 72.109375 L 129.21875 73.859375 L 128.183594 73.859375 C 127.960938 73.859375 127.863281 73.859375 127.863281 74.066406 C 127.863281 74.175781 127.941406 74.175781 128.148438 74.175781 L 129.128906 74.175781 L 128.402344 77.082031 C 128.316406 77.46875 128.28125 77.578125 128.28125 77.71875 C 128.28125 78.238281 128.644531 78.710938 129.261719 78.710938 C 130.375 78.710938 130.964844 77.101562 130.964844 77.027344 Z M 130.964844 77.027344 "/>
<path style=" stroke:none;fill-rule:evenodd;fill:rgb(0%,0%,0%);fill-opacity:1;" d="M 134.625 75.859375 C 134.625 75.023438 134.511719 73.660156 133.898438 72.382812 C 133.25 71.0625 132.347656 70.347656 132.226562 70.347656 C 132.183594 70.347656 132.125 70.371094 132.125 70.4375 C 132.125 70.46875 132.125 70.492188 132.3125 70.679688 C 133.414062 71.789062 134.03125 73.605469 134.03125 75.847656 C 134.03125 77.984375 133.511719 79.820312 132.238281 81.121094 C 132.125 81.21875 132.125 81.238281 132.125 81.273438 C 132.125 81.339844 132.183594 81.363281 132.226562 81.363281 C 132.367188 81.363281 133.269531 80.570312 133.808594 79.492188 C 134.371094 78.367188 134.625 77.179688 134.625 75.859375 Z M 134.625 75.859375 "/>
<path style="fill:none;stroke-width:1;stroke-linecap:square;stroke-linejoin:miter;stroke:rgb(0%,0%,100%);stroke-opacity:1;stroke-miterlimit:3.25;" d="M 145.601562 14.03125 L 55.023438 14.03125 "/>
<path style="fill:none;stroke-width:1;stroke-linecap:square;stroke-linejoin:miter;stroke:rgb(0%,0%,100%);stroke-opacity:1;stroke-miterlimit:3.25;" d="M 55.023438 70.160156 L 9.734375 70.160156 "/>
<path style="fill:none;stroke-width:1;stroke-linecap:square;stroke-linejoin:miter;stroke:rgb(0%,0%,100%);stroke-opacity:1;stroke-miterlimit:3.25;" d="M 145.601562 70.160156 L 190.890625 70.160156 "/>
</g>
</svg>
