<?xml version="1.0" encoding="UTF-8"?>
<svg xmlns="http://www.w3.org/2000/svg" xmlns:xlink="http://www.w3.org/1999/xlink" width="269pt" height="295pt" viewBox="0 0 269 295" version="1.1">
<defs>
<clipPath id="clip1">
  <path d="M 10.558594 20 L 154 20 L 154 80.160156 L 10.558594 80.160156 Z M 10.558594 20 "/>
</clipPath>
<clipPath id="clip2">
  <path d="M 151 20 L 231 20 L 231 80.160156 L 151 80.160156 Z M 151 20 "/>
</clipPath>
<clipPath id="clip3">
  <path d="M 151 20 L 231 20 L 231 80.160156 L 151 80.160156 Z M 151 20 "/>
</clipPath>
<clipPath id="clip4">
  <path d="M 10.558594 6.71875 L 174 6.71875 L 174 80.160156 L 10.558594 80.160156 Z M 10.558594 6.71875 "/>
</clipPath>
<clipPath id="clip5">
  <path d="M 171 6.71875 L 258.71875 6.71875 L 258.71875 80.160156 L 171 80.160156 Z M 171 6.71875 "/>
</clipPath>
<clipPath id="clip6">
  <path d="M 10.558594 110 L 163 110 L 163 175.679688 L 10.558594 175.679688 Z M 10.558594 110 "/>
</clipPath>
<clipPath id="clip7">
  <path d="M 160 110 L 244 110 L 244 175.679688 L 160 175.679688 Z M 160 110 "/>
</clipPath>
<clipPath id="clip8">
  <path d="M 160 110 L 244 110 L 244 175.679688 L 160 175.679688 Z M 160 110 "/>
</clipPath>
<clipPath id="clip9">
  <path d="M 10.558594 102.238281 L 183 102.238281 L 183 174 L 10.558594 174 Z M 10.558594 102.238281 "/>
</clipPath>
<clipPath id="clip10">
  <path d="M 180 102.238281 L 258.71875 102.238281 L 258.71875 175.679688 L 180 175.679688 Z M 180 102.238281 "/>
</clipPath>
<clipPath id="clip11">
  <path d="M 16 106 L 258.71875 106 L 258.71875 170 L 16 170 Z M 16 106 "/>
</clipPath>
<clipPath id="clip12">
  <path d="M 221 110 L 258.71875 110 L 258.71875 170 L 221 170 Z M 221 110 "/>
</clipPath>
<clipPath id="clip13">
  <path d="M 10.558594 204 L 166 204 L 166 270.960938 L 10.558594 270.960938 Z M 10.558594 204 "/>
</clipPath>
<clipPath id="clip14">
  <path d="M 163 204 L 247 204 L 247 270.960938 L 163 270.960938 Z M 163 204 "/>
</clipPath>
<clipPath id="clip15">
  <path d="M 163 204 L 247 204 L 247 270.960938 L 163 270.960938 Z M 163 204 "/>
</clipPath>
<clipPath id="clip16">
  <path d="M 10.558594 197.519531 L 185 197.519531 L 185 268 L 10.558594 268 Z M 10.558594 197.519531 "/>
</clipPath>
<clipPath id="clip17">
  <path d="M 182 197.519531 L 258.71875 197.519531 L 258.71875 270.960938 L 182 270.960938 Z M 182 197.519531 "/>
</clipPath>
<clipPath id="clip18">
  <path d="M 20 205 L 258.71875 205 L 258.71875 261 L 20 261 Z M 20 205 "/>
</clipPath>
<clipPath id="clip19">
  <path d="M 16 200 L 258.71875 200 L 258.71875 266 L 16 266 Z M 16 200 "/>
</clipPath>
<clipPath id="clip20">
  <path d="M 226 209 L 258.71875 209 L 258.71875 266 L 226 266 Z M 226 209 "/>
</clipPath>
</defs>
<g id="surface441">
<g clip-path="url(#clip1)" clip-rule="nonzero">
<path style="fill:none;stroke-width:0.2;stroke-linecap:square;stroke-linejoin:miter;stroke:rgb(30.000763%,76.665904%,30.000763%);stroke-opacity:1;stroke-miterlimit:3.25;" d="M -34.164062 129.15625 L 152.4375 21.421875 "/>
</g>
<g clip-path="url(#clip2)" clip-rule="nonzero">
<path style="fill:none;stroke-width:0.2;stroke-linecap:square;stroke-linejoin:miter;stroke:rgb(30.000763%,76.665904%,30.000763%);stroke-opacity:1;stroke-miterlimit:3.25;" d="M 229.886719 155.574219 L 152.4375 21.421875 "/>
</g>
<path style=" stroke:none;fill-rule:nonzero;fill:rgb(30.000763%,76.665904%,30.000763%);fill-opacity:1;" d="M 152.4375 21.421875 L 152.523438 21.511719 L 152.472656 21.285156 L 152.386719 21.335938 Z M 152.4375 21.421875 "/>
<g clip-path="url(#clip3)" clip-rule="nonzero">
<path style="fill:none;stroke-width:0.2;stroke-linecap:square;stroke-linejoin:miter;stroke:rgb(30.000763%,76.665904%,30.000763%);stroke-opacity:1;stroke-miterlimit:3.25;" d="M 229.886719 155.574219 L 152.4375 21.421875 "/>
</g>
<path style=" stroke:none;fill-rule:nonzero;fill:rgb(30.000763%,76.665904%,30.000763%);fill-opacity:1;" d="M 152.4375 21.421875 L 152.523438 21.511719 L 152.472656 21.285156 L 152.386719 21.335938 Z M 152.4375 21.421875 "/>
<g clip-path="url(#clip4)" clip-rule="nonzero">
<path style="fill:none;stroke-width:0.2;stroke-linecap:square;stroke-linejoin:miter;stroke:rgb(30.000763%,76.665904%,30.000763%);stroke-opacity:1;stroke-miterlimit:3.25;" d="M -61.097656 82.507812 L 172.152344 -52.160156 "/>
</g>
<g clip-path="url(#clip5)" clip-rule="nonzero">
<path style="fill:none;stroke-width:0.2;stroke-linecap:square;stroke-linejoin:miter;stroke:rgb(30.000763%,76.665904%,30.000763%);stroke-opacity:1;stroke-miterlimit:3.25;" d="M 292.089844 155.574219 L 172.152344 -52.160156 "/>
<path style="fill:none;stroke-width:0.2;stroke-linecap:square;stroke-linejoin:miter;stroke:rgb(30.000763%,76.665904%,30.000763%);stroke-opacity:1;stroke-miterlimit:3.25;" d="M 292.089844 155.574219 L 172.152344 -52.160156 "/>
</g>
<path style="fill-rule:nonzero;fill:rgb(100%,100%,86.999313%);fill-opacity:1;stroke-width:1;stroke-linecap:square;stroke-linejoin:miter;stroke:rgb(0%,0%,0%);stroke-opacity:1;stroke-miterlimit:3.25;" d="M 242.625 69.902344 L 211.527344 16.035156 L 54.035156 16.035156 L 50.546875 18.050781 L 20.609375 69.902344 L 68.46875 69.902344 L 89.980469 57.484375 L 113.285156 17.113281 L 136.59375 30.570312 L 152.4375 21.421875 L 168.28125 48.863281 L 204.71875 69.902344 Z M 242.625 69.902344 "/>
<path style="fill:none;stroke-width:1;stroke-linecap:square;stroke-linejoin:miter;stroke:rgb(0%,66.666667%,0%);stroke-opacity:1;stroke-miterlimit:3.25;" d="M 152.4375 21.421875 L 168.28125 48.863281 "/>
<path style="fill:none;stroke-width:1;stroke-linecap:square;stroke-linejoin:miter;stroke:rgb(0%,66.666667%,0%);stroke-opacity:1;stroke-miterlimit:3.25;" d="M 242.625 69.902344 L 211.527344 16.035156 "/>
<path style=" stroke:none;fill-rule:evenodd;fill:rgb(0%,0%,0%);fill-opacity:1;" d="M 153 21 C 153 20.734375 152.894531 20.480469 152.707031 20.292969 C 152.519531 20.105469 152.265625 20 152 20 C 151.734375 20 151.480469 20.105469 151.292969 20.292969 C 151.105469 20.480469 151 20.734375 151 21 C 151 21.265625 151.105469 21.519531 151.292969 21.707031 C 151.480469 21.894531 151.734375 22 152 22 C 152.265625 22 152.519531 21.894531 152.707031 21.707031 C 152.894531 21.519531 153 21.265625 153 21 Z M 153 21 "/>
<path style=" stroke:none;fill-rule:evenodd;fill:rgb(0%,0%,0%);fill-opacity:1;" d="M 114 17 C 114 16.734375 113.894531 16.480469 113.707031 16.292969 C 113.519531 16.105469 113.265625 16 113 16 C 112.734375 16 112.480469 16.105469 112.292969 16.292969 C 112.105469 16.480469 112 16.734375 112 17 C 112 17.265625 112.105469 17.519531 112.292969 17.707031 C 112.480469 17.894531 112.734375 18 113 18 C 113.265625 18 113.519531 17.894531 113.707031 17.707031 C 113.894531 17.519531 114 17.265625 114 17 Z M 114 17 "/>
<path style=" stroke:none;fill-rule:evenodd;fill:rgb(0%,0%,0%);fill-opacity:1;" d="M 132 47.824219 L 132 47.347656 L 131.230469 47.347656 L 129.371094 45.105469 L 130.648438 43.640625 C 130.769531 43.496094 130.867188 43.410156 131.78125 43.410156 L 131.78125 42.9375 L 130.769531 42.957031 C 130.449219 42.957031 129.976562 42.957031 129.667969 42.9375 L 129.667969 43.410156 C 129.875 43.410156 130.109375 43.464844 130.109375 43.542969 C 130.109375 43.542969 130.054688 43.640625 130.03125 43.664062 L 129.074219 44.742188 L 127.984375 43.410156 L 128.445312 43.410156 L 128.445312 42.9375 C 128.195312 42.957031 127.445312 42.957031 127.148438 42.957031 C 126.816406 42.957031 126.222656 42.957031 125.917969 42.9375 L 125.917969 43.410156 L 126.699219 43.410156 L 128.414062 45.5 L 126.984375 47.117188 C 126.851562 47.273438 126.773438 47.347656 125.863281 47.347656 L 125.863281 47.824219 L 126.886719 47.800781 C 127.203125 47.800781 127.667969 47.800781 127.972656 47.824219 L 127.972656 47.347656 C 127.765625 47.347656 127.535156 47.292969 127.535156 47.21875 C 127.535156 47.21875 127.535156 47.195312 127.609375 47.105469 L 128.710938 45.863281 L 129.929688 47.347656 L 129.46875 47.347656 L 129.46875 47.824219 C 129.734375 47.800781 130.46875 47.800781 130.78125 47.800781 C 131.109375 47.800781 131.691406 47.800781 132 47.824219 Z M 132 47.824219 "/>
<path style=" stroke:none;fill-rule:evenodd;fill:rgb(0%,0%,0%);fill-opacity:1;" d="M 135.839844 50.496094 C 135.839844 50.460938 135.839844 50.441406 135.652344 50.253906 C 134.550781 49.140625 133.933594 47.328125 133.933594 45.082031 C 133.933594 42.949219 134.453125 41.109375 135.726562 39.8125 C 135.839844 39.714844 135.839844 39.691406 135.839844 39.660156 C 135.839844 39.59375 135.785156 39.570312 135.738281 39.570312 C 135.597656 39.570312 134.695312 40.363281 134.15625 41.441406 C 133.59375 42.554688 133.339844 43.730469 133.339844 45.082031 C 133.339844 46.0625 133.496094 47.371094 134.066406 48.550781 C 134.714844 49.867188 135.617188 50.585938 135.738281 50.585938 C 135.785156 50.585938 135.839844 50.5625 135.839844 50.496094 Z M 135.839844 50.496094 "/>
<path style=" stroke:none;fill-rule:evenodd;fill:rgb(0%,0%,0%);fill-opacity:1;" d="M 142.546875 43.324219 C 142.546875 43.082031 142.335938 43.082031 142.140625 43.082031 L 138.519531 43.082031 C 138.265625 43.082031 137.890625 43.082031 137.386719 43.621094 C 137.097656 43.9375 136.746094 44.519531 136.746094 44.589844 C 136.746094 44.652344 136.800781 44.675781 136.871094 44.675781 C 136.945312 44.675781 136.957031 44.644531 137.011719 44.578125 C 137.582031 43.675781 138.15625 43.675781 138.433594 43.675781 L 139.058594 43.675781 C 138.816406 44.5 138.542969 45.457031 137.640625 47.382812 C 137.550781 47.558594 137.550781 47.582031 137.550781 47.644531 C 137.550781 47.878906 137.75 47.933594 137.847656 47.933594 C 138.167969 47.933594 138.253906 47.644531 138.386719 47.183594 C 138.5625 46.621094 138.5625 46.601562 138.671875 46.160156 L 139.3125 43.675781 L 140.554688 43.675781 C 140.257812 44.90625 140.070312 45.710938 140.070312 46.589844 C 140.070312 46.746094 140.070312 47.933594 140.523438 47.933594 C 140.753906 47.933594 140.949219 47.722656 140.949219 47.535156 C 140.949219 47.480469 140.949219 47.460938 140.875 47.292969 C 140.578125 46.535156 140.578125 45.589844 140.578125 45.511719 C 140.578125 45.445312 140.578125 44.664062 140.808594 43.675781 L 142.039062 43.675781 C 142.183594 43.675781 142.546875 43.675781 142.546875 43.324219 Z M 142.546875 43.324219 "/>
<path style=" stroke:none;fill-rule:evenodd;fill:rgb(0%,0%,0%);fill-opacity:1;" d="M 147.746094 39.78125 C 147.746094 39.648438 147.636719 39.570312 147.550781 39.570312 C 147.492188 39.570312 147.394531 39.570312 147.308594 39.8125 L 143.621094 50.164062 L 143.554688 50.363281 C 143.554688 50.496094 143.664062 50.574219 143.753906 50.574219 C 143.820312 50.574219 143.917969 50.5625 143.996094 50.332031 L 147.679688 39.976562 Z M 147.746094 39.78125 "/>
<path style=" stroke:none;fill-rule:evenodd;fill:rgb(0%,0%,0%);fill-opacity:1;" d="M 153.191406 45.578125 C 153.191406 44.113281 152.167969 43.136719 151.066406 43.136719 C 150.085938 43.136719 149.722656 43.980469 149.613281 44.289062 L 149.613281 43.992188 C 149.613281 41.210938 150.964844 40.769531 151.5625 40.769531 C 151.957031 40.769531 152.355469 40.890625 152.5625 41.222656 C 152.429688 41.222656 152.011719 41.222656 152.011719 41.671875 C 152.011719 41.914062 152.175781 42.125 152.464844 42.125 C 152.738281 42.125 152.925781 41.957031 152.925781 41.640625 C 152.925781 41.066406 152.507812 40.507812 151.550781 40.507812 C 150.164062 40.507812 148.710938 41.925781 148.710938 44.347656 C 148.710938 47.371094 150.03125 48.054688 150.964844 48.054688 C 152.167969 48.054688 153.191406 47.007812 153.191406 45.578125 Z M 152.285156 45.566406 C 152.285156 46.128906 152.285156 46.621094 152.078125 47.042969 C 151.804688 47.570312 151.40625 47.757812 150.964844 47.757812 C 150.273438 47.757812 149.941406 47.140625 149.84375 46.910156 C 149.746094 46.621094 149.636719 46.082031 149.636719 45.3125 C 149.636719 44.445312 150.03125 43.355469 151.023438 43.355469 C 151.628906 43.355469 151.945312 43.761719 152.113281 44.136719 C 152.285156 44.542969 152.285156 45.09375 152.285156 45.566406 Z M 152.285156 45.566406 "/>
<path style=" stroke:none;fill-rule:evenodd;fill:rgb(0%,0%,0%);fill-opacity:1;" d="M 156.761719 45.082031 C 156.761719 44.246094 156.652344 42.882812 156.035156 41.605469 C 155.386719 40.285156 154.484375 39.570312 154.363281 39.570312 C 154.320312 39.570312 154.265625 39.59375 154.265625 39.660156 C 154.265625 39.691406 154.265625 39.714844 154.453125 39.902344 C 155.550781 41.011719 156.167969 42.828125 156.167969 45.070312 C 156.167969 47.207031 155.652344 49.042969 154.375 50.34375 C 154.265625 50.441406 154.265625 50.460938 154.265625 50.496094 C 154.265625 50.5625 154.320312 50.585938 154.363281 50.585938 C 154.507812 50.585938 155.410156 49.792969 155.949219 48.714844 C 156.507812 47.589844 156.761719 46.402344 156.761719 45.082031 Z M 156.761719 45.082031 "/>
<path style="fill:none;stroke-width:0.2;stroke-linecap:square;stroke-linejoin:miter;stroke:rgb(0%,0%,0%);stroke-opacity:1;stroke-miterlimit:3.25;" d="M 141.664062 37.582031 L 152.4375 21.421875 "/>
<path style=" stroke:none;fill-rule:evenodd;fill:rgb(0%,0%,0%);fill-opacity:1;" d="M 75.851562 30.046875 L 75.851562 29.574219 L 75.078125 29.574219 L 73.21875 27.328125 L 74.496094 25.867188 C 74.617188 25.722656 74.71875 25.632812 75.628906 25.632812 L 75.628906 25.160156 L 74.617188 25.183594 C 74.296875 25.183594 73.828125 25.183594 73.515625 25.160156 L 73.515625 25.632812 C 73.726562 25.632812 73.957031 25.6875 73.957031 25.765625 C 73.957031 25.765625 73.902344 25.867188 73.882812 25.886719 L 72.921875 26.964844 L 71.835938 25.632812 L 72.296875 25.632812 L 72.296875 25.160156 C 72.042969 25.183594 71.296875 25.183594 71 25.183594 C 70.667969 25.183594 70.074219 25.183594 69.765625 25.160156 L 69.765625 25.632812 L 70.546875 25.632812 L 72.265625 27.726562 L 70.832031 29.339844 C 70.703125 29.496094 70.625 29.574219 69.710938 29.574219 L 69.710938 30.046875 L 70.734375 30.023438 C 71.054688 30.023438 71.515625 30.023438 71.824219 30.046875 L 71.824219 29.574219 C 71.613281 29.574219 71.382812 29.519531 71.382812 29.441406 C 71.382812 29.441406 71.382812 29.417969 71.460938 29.332031 L 72.5625 28.085938 L 73.78125 29.574219 L 73.320312 29.574219 L 73.320312 30.046875 C 73.585938 30.023438 74.320312 30.023438 74.628906 30.023438 C 74.960938 30.023438 75.542969 30.023438 75.851562 30.046875 Z M 75.851562 30.046875 "/>
<path style=" stroke:none;fill-rule:evenodd;fill:rgb(0%,0%,0%);fill-opacity:1;" d="M 79.6875 32.71875 C 79.6875 32.6875 79.6875 32.664062 79.5 32.476562 C 78.402344 31.367188 77.785156 29.550781 77.785156 27.304688 C 77.785156 25.171875 78.300781 23.335938 79.578125 22.035156 C 79.6875 21.9375 79.6875 21.917969 79.6875 21.882812 C 79.6875 21.816406 79.632812 21.792969 79.589844 21.792969 C 79.445312 21.792969 78.542969 22.585938 78.003906 23.664062 C 77.445312 24.777344 77.191406 25.953125 77.191406 27.304688 C 77.191406 28.285156 77.34375 29.59375 77.917969 30.773438 C 78.566406 32.09375 79.46875 32.808594 79.589844 32.808594 C 79.632812 32.808594 79.6875 32.785156 79.6875 32.71875 Z M 79.6875 32.71875 "/>
<path style=" stroke:none;fill-rule:evenodd;fill:rgb(0%,0%,0%);fill-opacity:1;" d="M 86.394531 25.546875 C 86.394531 25.304688 86.1875 25.304688 85.988281 25.304688 L 82.371094 25.304688 C 82.117188 25.304688 81.742188 25.304688 81.238281 25.84375 C 80.949219 26.164062 80.597656 26.746094 80.597656 26.8125 C 80.597656 26.878906 80.652344 26.898438 80.71875 26.898438 C 80.796875 26.898438 80.808594 26.867188 80.863281 26.800781 C 81.433594 25.898438 82.007812 25.898438 82.28125 25.898438 L 82.910156 25.898438 C 82.667969 26.722656 82.390625 27.679688 81.488281 29.605469 C 81.402344 29.78125 81.402344 29.804688 81.402344 29.871094 C 81.402344 30.101562 81.597656 30.15625 81.699219 30.15625 C 82.019531 30.15625 82.105469 29.871094 82.238281 29.410156 C 82.414062 28.847656 82.414062 28.824219 82.523438 28.386719 L 83.160156 25.898438 L 84.40625 25.898438 C 84.109375 27.132812 83.921875 27.933594 83.921875 28.8125 C 83.921875 28.96875 83.921875 30.15625 84.371094 30.15625 C 84.601562 30.15625 84.800781 29.949219 84.800781 29.761719 C 84.800781 29.707031 84.800781 29.683594 84.722656 29.519531 C 84.425781 28.757812 84.425781 27.8125 84.425781 27.734375 C 84.425781 27.671875 84.425781 26.890625 84.660156 25.898438 L 85.890625 25.898438 C 86.03125 25.898438 86.394531 25.898438 86.394531 25.546875 Z M 86.394531 25.546875 "/>
<path style=" stroke:none;fill-rule:evenodd;fill:rgb(0%,0%,0%);fill-opacity:1;" d="M 91.597656 22.003906 C 91.597656 21.871094 91.488281 21.792969 91.398438 21.792969 C 91.34375 21.792969 91.246094 21.792969 91.15625 22.035156 L 87.472656 32.390625 L 87.40625 32.589844 C 87.40625 32.71875 87.515625 32.796875 87.601562 32.796875 C 87.667969 32.796875 87.769531 32.785156 87.84375 32.554688 L 91.53125 22.203125 Z M 91.597656 22.003906 "/>
<path style=" stroke:none;fill-rule:evenodd;fill:rgb(0%,0%,0%);fill-opacity:1;" d="M 97.039062 28.164062 C 97.039062 27.152344 96.226562 26.359375 95.167969 26.171875 C 96.125 25.898438 96.742188 25.09375 96.742188 24.238281 C 96.742188 23.367188 95.839844 22.730469 94.773438 22.730469 C 93.671875 22.730469 92.859375 23.398438 92.859375 24.203125 C 92.859375 24.644531 93.199219 24.734375 93.363281 24.734375 C 93.597656 24.734375 93.859375 24.566406 93.859375 24.238281 C 93.859375 23.882812 93.597656 23.730469 93.355469 23.730469 C 93.289062 23.730469 93.265625 23.730469 93.230469 23.742188 C 93.652344 22.996094 94.683594 22.996094 94.738281 22.996094 C 95.101562 22.996094 95.816406 23.160156 95.816406 24.238281 C 95.816406 24.445312 95.785156 25.0625 95.464844 25.535156 C 95.136719 26.019531 94.761719 26.054688 94.464844 26.0625 L 94.136719 26.097656 C 93.949219 26.109375 93.902344 26.117188 93.902344 26.21875 C 93.902344 26.328125 93.957031 26.328125 94.15625 26.328125 L 94.664062 26.328125 C 95.597656 26.328125 96.015625 27.097656 96.015625 28.15625 C 96.015625 29.59375 95.269531 29.980469 94.730469 29.980469 C 94.199219 29.980469 93.300781 29.726562 92.980469 29 C 93.332031 29.054688 93.652344 28.859375 93.652344 28.460938 C 93.652344 28.144531 93.417969 27.921875 93.113281 27.921875 C 92.847656 27.921875 92.5625 28.078125 92.5625 28.496094 C 92.5625 29.472656 93.539062 30.277344 94.761719 30.277344 C 96.070312 30.277344 97.039062 29.277344 97.039062 28.164062 Z M 97.039062 28.164062 "/>
<path style=" stroke:none;fill-rule:evenodd;fill:rgb(0%,0%,0%);fill-opacity:1;" d="M 100.613281 27.304688 C 100.613281 26.46875 100.5 25.105469 99.886719 23.828125 C 99.238281 22.511719 98.335938 21.792969 98.214844 21.792969 C 98.171875 21.792969 98.113281 21.816406 98.113281 21.882812 C 98.113281 21.917969 98.113281 21.9375 98.300781 22.125 C 99.402344 23.238281 100.019531 25.050781 100.019531 27.296875 C 100.019531 29.429688 99.5 31.269531 98.226562 32.566406 C 98.113281 32.664062 98.113281 32.6875 98.113281 32.71875 C 98.113281 32.785156 98.171875 32.808594 98.214844 32.808594 C 98.355469 32.808594 99.257812 32.015625 99.796875 30.9375 C 100.359375 29.816406 100.613281 28.628906 100.613281 27.304688 Z M 100.613281 27.304688 "/>
<path style="fill:none;stroke-width:0.2;stroke-linecap:square;stroke-linejoin:miter;stroke:rgb(0%,0%,0%);stroke-opacity:1;stroke-miterlimit:3.25;" d="M 102.511719 19.808594 L 113.285156 17.113281 "/>
<path style=" stroke:none;fill-rule:evenodd;fill:rgb(0%,0%,0%);fill-opacity:1;" d="M 122.226562 93.613281 C 122.226562 93.558594 122.183594 93.515625 122.128906 93.515625 C 122.074219 93.515625 122.050781 93.546875 122.007812 93.613281 C 121.886719 93.824219 121.597656 94.261719 120.289062 94.261719 C 119.609375 94.261719 118.707031 94.085938 118.707031 93.304688 C 118.707031 92.933594 118.980469 92.371094 119.695312 91.996094 C 120.046875 92.140625 120.421875 92.140625 120.628906 92.140625 C 120.917969 92.140625 121.488281 92.140625 121.488281 91.820312 C 121.488281 91.621094 121.28125 91.546875 120.71875 91.546875 C 120.445312 91.546875 120.113281 91.578125 119.730469 91.742188 C 119.386719 91.578125 119.253906 91.324219 119.253906 91.082031 C 119.253906 90.402344 120.332031 90.003906 121.3125 90.003906 C 121.5 90.003906 121.894531 90.003906 122.359375 90.347656 C 122.425781 90.390625 122.457031 90.421875 122.535156 90.421875 C 122.667969 90.421875 122.808594 90.28125 122.808594 90.148438 C 122.808594 89.949219 122.171875 89.53125 121.410156 89.53125 C 120.179688 89.53125 119.011719 90.269531 119.011719 91.082031 C 119.011719 91.488281 119.277344 91.742188 119.464844 91.875 C 118.828125 92.238281 118.453125 92.832031 118.453125 93.371094 C 118.453125 94.132812 119.136719 94.738281 120.191406 94.738281 C 121.644531 94.738281 122.226562 93.769531 122.226562 93.613281 Z M 121.238281 91.832031 C 121.050781 91.917969 121.027344 91.917969 120.628906 91.917969 C 120.433594 91.917969 120.257812 91.917969 120.035156 91.863281 C 120.332031 91.765625 120.621094 91.765625 120.699219 91.765625 C 121.003906 91.765625 121.058594 91.789062 121.238281 91.832031 Z M 121.238281 91.832031 "/>
<path style=" stroke:none;fill-rule:evenodd;fill:rgb(0%,0%,0%);fill-opacity:1;" d="M 134.046875 90.742188 C 134.046875 90.535156 133.859375 90.535156 133.695312 90.535156 L 127.214844 90.535156 C 127.058594 90.535156 126.859375 90.535156 126.859375 90.730469 C 126.859375 90.941406 127.046875 90.941406 127.214844 90.941406 L 133.695312 90.941406 C 133.847656 90.941406 134.046875 90.941406 134.046875 90.742188 Z M 134.046875 92.789062 C 134.046875 92.582031 133.859375 92.582031 133.695312 92.582031 L 127.214844 92.582031 C 127.058594 92.582031 126.859375 92.582031 126.859375 92.777344 C 126.859375 92.988281 127.046875 92.988281 127.214844 92.988281 L 133.695312 92.988281 C 133.847656 92.988281 134.046875 92.988281 134.046875 92.789062 Z M 134.046875 92.789062 "/>
<path style=" stroke:none;fill-rule:evenodd;fill:rgb(0%,0%,0%);fill-opacity:1;" d="M 142.597656 90.984375 C 142.597656 90.070312 142.542969 89.179688 142.144531 88.34375 C 141.691406 87.429688 140.902344 87.1875 140.363281 87.1875 C 139.722656 87.1875 138.941406 87.507812 138.535156 88.421875 C 138.226562 89.113281 138.117188 89.796875 138.117188 90.984375 C 138.117188 92.050781 138.195312 92.855469 138.589844 93.636719 C 139.019531 94.472656 139.777344 94.738281 140.351562 94.738281 C 141.308594 94.738281 141.859375 94.164062 142.175781 93.527344 C 142.574219 92.699219 142.597656 91.621094 142.597656 90.984375 Z M 141.761719 90.851562 C 141.761719 91.589844 141.761719 92.425781 141.636719 93.097656 C 141.429688 94.308594 140.738281 94.515625 140.351562 94.515625 C 140 94.515625 139.285156 94.316406 139.074219 93.121094 C 138.953125 92.457031 138.953125 91.621094 138.953125 90.851562 C 138.953125 89.949219 138.953125 89.136719 139.128906 88.488281 C 139.316406 87.75 139.878906 87.410156 140.351562 87.410156 C 140.769531 87.410156 141.40625 87.660156 141.617188 88.605469 C 141.761719 89.234375 141.761719 90.105469 141.761719 90.851562 Z M 141.761719 90.851562 "/>
<path style=" stroke:none;fill-rule:evenodd;fill:rgb(0%,0%,0%);fill-opacity:1;" d="M 144.992188 93.976562 C 144.992188 93.660156 144.726562 93.4375 144.464844 93.4375 C 144.144531 93.4375 143.925781 93.703125 143.925781 93.964844 C 143.925781 94.285156 144.1875 94.503906 144.453125 94.503906 C 144.769531 94.503906 144.992188 94.242188 144.992188 93.976562 Z M 144.992188 93.976562 "/>
<path style=" stroke:none;fill-rule:evenodd;fill:rgb(0%,0%,0%);fill-opacity:1;" d="M 150.808594 92.65625 L 150.566406 92.65625 C 150.535156 92.84375 150.445312 93.449219 150.335938 93.625 C 150.257812 93.722656 149.628906 93.722656 149.300781 93.722656 L 147.265625 93.722656 C 147.5625 93.472656 148.234375 92.765625 148.519531 92.503906 C 150.191406 90.960938 150.808594 90.390625 150.808594 89.300781 C 150.808594 88.035156 149.808594 87.1875 148.53125 87.1875 C 147.253906 87.1875 146.503906 88.277344 146.503906 89.222656 C 146.503906 89.785156 146.988281 89.785156 147.023438 89.785156 C 147.253906 89.785156 147.539062 89.621094 147.539062 89.269531 C 147.539062 88.960938 147.332031 88.75 147.023438 88.75 C 146.925781 88.75 146.902344 88.75 146.867188 88.761719 C 147.078125 88.011719 147.671875 87.507812 148.386719 87.507812 C 149.324219 87.507812 149.894531 88.289062 149.894531 89.300781 C 149.894531 90.238281 149.355469 91.050781 148.730469 91.753906 L 146.503906 94.242188 L 146.503906 94.503906 L 150.519531 94.503906 Z M 150.808594 92.65625 "/>
<g clip-path="url(#clip6)" clip-rule="nonzero">
<path style="fill:none;stroke-width:0.2;stroke-linecap:square;stroke-linejoin:miter;stroke:rgb(30.000763%,76.665904%,30.000763%);stroke-opacity:1;stroke-miterlimit:3.25;" d="M -24.832031 219.152344 L 161.765625 111.417969 "/>
</g>
<g clip-path="url(#clip7)" clip-rule="nonzero">
<path style="fill:none;stroke-width:0.2;stroke-linecap:square;stroke-linejoin:miter;stroke:rgb(30.000763%,76.665904%,30.000763%);stroke-opacity:1;stroke-miterlimit:3.25;" d="M 242.410156 251.09375 L 161.765625 111.417969 "/>
</g>
<path style=" stroke:none;fill-rule:nonzero;fill:rgb(30.000763%,76.665904%,30.000763%);fill-opacity:1;" d="M 161.765625 111.417969 L 161.851562 111.503906 L 161.804688 111.28125 L 161.714844 111.332031 Z M 161.765625 111.417969 "/>
<g clip-path="url(#clip8)" clip-rule="nonzero">
<path style="fill:none;stroke-width:0.2;stroke-linecap:square;stroke-linejoin:miter;stroke:rgb(30.000763%,76.665904%,30.000763%);stroke-opacity:1;stroke-miterlimit:3.25;" d="M 242.410156 251.09375 L 161.765625 111.417969 "/>
</g>
<path style=" stroke:none;fill-rule:nonzero;fill:rgb(30.000763%,76.665904%,30.000763%);fill-opacity:1;" d="M 161.765625 111.417969 L 161.851562 111.503906 L 161.804688 111.28125 L 161.714844 111.332031 Z M 161.765625 111.417969 "/>
<g clip-path="url(#clip9)" clip-rule="nonzero">
<path style="fill:none;stroke-width:0.2;stroke-linecap:square;stroke-linejoin:miter;stroke:rgb(30.000763%,76.665904%,30.000763%);stroke-opacity:1;stroke-miterlimit:3.25;" d="M -51.765625 172.5 L 181.484375 37.835938 "/>
</g>
<g clip-path="url(#clip10)" clip-rule="nonzero">
<path style="fill:none;stroke-width:0.2;stroke-linecap:square;stroke-linejoin:miter;stroke:rgb(30.000763%,76.665904%,30.000763%);stroke-opacity:1;stroke-miterlimit:3.25;" d="M 304.609375 251.09375 L 181.484375 37.835938 "/>
<path style="fill:none;stroke-width:0.2;stroke-linecap:square;stroke-linejoin:miter;stroke:rgb(30.000763%,76.665904%,30.000763%);stroke-opacity:1;stroke-miterlimit:3.25;" d="M 304.609375 251.09375 L 181.484375 37.835938 "/>
</g>
<path style=" stroke:none;fill-rule:nonzero;fill:rgb(100%,100%,86.999313%);fill-opacity:1;" d="M 255.066406 165.285156 L 226.371094 115.585938 L 219.152344 111.417969 L 54.035156 111.417969 L 50.546875 113.429688 L 20.609375 165.285156 L 68.46875 165.285156 L 89.980469 152.863281 L 113.285156 112.496094 L 136.59375 125.949219 L 161.765625 111.417969 L 186.941406 155.019531 L 204.71875 165.285156 Z M 255.066406 165.285156 "/>
<g clip-path="url(#clip11)" clip-rule="nonzero">
<path style="fill:none;stroke-width:1;stroke-linecap:square;stroke-linejoin:miter;stroke:rgb(0%,0%,0%);stroke-opacity:1;stroke-miterlimit:3.25;" d="M 255.066406 165.285156 L 226.371094 115.585938 L 219.152344 111.417969 L 54.035156 111.417969 L 50.546875 113.429688 L 20.609375 165.285156 L 68.46875 165.285156 L 89.980469 152.863281 L 113.285156 112.496094 L 136.59375 125.949219 L 161.765625 111.417969 L 186.941406 155.019531 L 204.71875 165.285156 Z M 255.066406 165.285156 "/>
</g>
<path style="fill:none;stroke-width:1;stroke-linecap:square;stroke-linejoin:miter;stroke:rgb(0%,66.666667%,0%);stroke-opacity:1;stroke-miterlimit:3.25;" d="M 161.765625 111.417969 L 186.941406 155.019531 "/>
<g clip-path="url(#clip12)" clip-rule="nonzero">
<path style="fill:none;stroke-width:1;stroke-linecap:square;stroke-linejoin:miter;stroke:rgb(0%,66.666667%,0%);stroke-opacity:1;stroke-miterlimit:3.25;" d="M 255.066406 165.285156 L 226.371094 115.585938 "/>
</g>
<path style=" stroke:none;fill-rule:evenodd;fill:rgb(0%,0%,0%);fill-opacity:1;" d="M 163 111 C 163 110.734375 162.894531 110.480469 162.707031 110.292969 C 162.519531 110.105469 162.265625 110 162 110 C 161.734375 110 161.480469 110.105469 161.292969 110.292969 C 161.105469 110.480469 161 110.734375 161 111 C 161 111.265625 161.105469 111.519531 161.292969 111.707031 C 161.480469 111.894531 161.734375 112 162 112 C 162.265625 112 162.519531 111.894531 162.707031 111.707031 C 162.894531 111.519531 163 111.265625 163 111 Z M 163 111 "/>
<path style=" stroke:none;fill-rule:evenodd;fill:rgb(0%,0%,0%);fill-opacity:1;" d="M 114 112 C 114 111.734375 113.894531 111.480469 113.707031 111.292969 C 113.519531 111.105469 113.265625 111 113 111 C 112.734375 111 112.480469 111.105469 112.292969 111.292969 C 112.105469 111.480469 112 111.734375 112 112 C 112 112.265625 112.105469 112.519531 112.292969 112.707031 C 112.480469 112.894531 112.734375 113 113 113 C 113.265625 113 113.519531 112.894531 113.707031 112.707031 C 113.894531 112.519531 114 112.265625 114 112 Z M 114 112 "/>
<path style=" stroke:none;fill-rule:evenodd;fill:rgb(0%,0%,0%);fill-opacity:1;" d="M 141.328125 137.816406 L 141.328125 137.34375 L 140.558594 137.34375 L 138.699219 135.097656 L 139.976562 133.636719 C 140.097656 133.492188 140.195312 133.402344 141.109375 133.402344 L 141.109375 132.929688 L 140.097656 132.953125 C 139.777344 132.953125 139.308594 132.953125 138.996094 132.929688 L 138.996094 133.402344 C 139.207031 133.402344 139.4375 133.457031 139.4375 133.535156 C 139.4375 133.535156 139.382812 133.636719 139.363281 133.65625 L 138.402344 134.734375 L 137.316406 133.402344 L 137.777344 133.402344 L 137.777344 132.929688 C 137.523438 132.953125 136.777344 132.953125 136.480469 132.953125 C 136.148438 132.953125 135.554688 132.953125 135.246094 132.929688 L 135.246094 133.402344 L 136.027344 133.402344 L 137.746094 135.496094 L 136.3125 137.113281 C 136.183594 137.265625 136.105469 137.34375 135.191406 137.34375 L 135.191406 137.816406 L 136.214844 137.792969 C 136.535156 137.792969 136.996094 137.792969 137.304688 137.816406 L 137.304688 137.34375 C 137.09375 137.34375 136.863281 137.289062 136.863281 137.210938 C 136.863281 137.210938 136.863281 137.191406 136.941406 137.101562 L 138.042969 135.855469 L 139.261719 137.34375 L 138.800781 137.34375 L 138.800781 137.816406 C 139.066406 137.792969 139.800781 137.792969 140.109375 137.792969 C 140.4375 137.792969 141.023438 137.792969 141.328125 137.816406 Z M 141.328125 137.816406 "/>
<path style=" stroke:none;fill-rule:evenodd;fill:rgb(0%,0%,0%);fill-opacity:1;" d="M 145.167969 140.488281 C 145.167969 140.457031 145.167969 140.433594 144.980469 140.246094 C 143.882812 139.136719 143.265625 137.320312 143.265625 135.074219 C 143.265625 132.941406 143.78125 131.105469 145.058594 129.804688 C 145.167969 129.707031 145.167969 129.6875 145.167969 129.652344 C 145.167969 129.585938 145.113281 129.5625 145.070312 129.5625 C 144.925781 129.5625 144.023438 130.355469 143.484375 131.433594 C 142.921875 132.546875 142.671875 133.722656 142.671875 135.074219 C 142.671875 136.054688 142.824219 137.363281 143.398438 138.542969 C 144.046875 139.863281 144.949219 140.578125 145.070312 140.578125 C 145.113281 140.578125 145.167969 140.554688 145.167969 140.488281 Z M 145.167969 140.488281 "/>
<path style=" stroke:none;fill-rule:evenodd;fill:rgb(0%,0%,0%);fill-opacity:1;" d="M 151.875 133.316406 C 151.875 133.074219 151.667969 133.074219 151.46875 133.074219 L 147.847656 133.074219 C 147.597656 133.074219 147.222656 133.074219 146.714844 133.613281 C 146.429688 133.933594 146.078125 134.515625 146.078125 134.582031 C 146.078125 134.648438 146.132812 134.667969 146.199219 134.667969 C 146.277344 134.667969 146.285156 134.636719 146.34375 134.570312 C 146.914062 133.667969 147.488281 133.667969 147.761719 133.667969 L 148.386719 133.667969 C 148.144531 134.492188 147.871094 135.449219 146.96875 137.375 C 146.878906 137.550781 146.878906 137.574219 146.878906 137.640625 C 146.878906 137.871094 147.078125 137.925781 147.175781 137.925781 C 147.496094 137.925781 147.585938 137.640625 147.714844 137.179688 C 147.894531 136.617188 147.894531 136.59375 148.003906 136.15625 L 148.640625 133.667969 L 149.886719 133.667969 C 149.589844 134.902344 149.402344 135.703125 149.402344 136.582031 C 149.402344 136.738281 149.402344 137.925781 149.851562 137.925781 C 150.082031 137.925781 150.28125 137.71875 150.28125 137.53125 C 150.28125 137.476562 150.28125 137.453125 150.203125 137.289062 C 149.90625 136.527344 149.90625 135.582031 149.90625 135.503906 C 149.90625 135.441406 149.90625 134.660156 150.136719 133.667969 L 151.371094 133.667969 C 151.511719 133.667969 151.875 133.667969 151.875 133.316406 Z M 151.875 133.316406 "/>
<path style=" stroke:none;fill-rule:evenodd;fill:rgb(0%,0%,0%);fill-opacity:1;" d="M 157.078125 129.773438 C 157.078125 129.640625 156.96875 129.5625 156.878906 129.5625 C 156.824219 129.5625 156.726562 129.5625 156.636719 129.804688 L 152.953125 140.160156 L 152.886719 140.359375 C 152.886719 140.488281 152.996094 140.566406 153.082031 140.566406 C 153.148438 140.566406 153.25 140.554688 153.324219 140.324219 L 157.011719 129.972656 Z M 157.078125 129.773438 "/>
<path style=" stroke:none;fill-rule:evenodd;fill:rgb(0%,0%,0%);fill-opacity:1;" d="M 162.519531 135.570312 C 162.519531 134.109375 161.496094 133.128906 160.394531 133.128906 C 159.417969 133.128906 159.054688 133.976562 158.941406 134.285156 L 158.941406 133.988281 C 158.941406 131.203125 160.296875 130.765625 160.890625 130.765625 C 161.285156 130.765625 161.683594 130.882812 161.894531 131.214844 C 161.761719 131.214844 161.339844 131.214844 161.339844 131.664062 C 161.339844 131.90625 161.507812 132.117188 161.792969 132.117188 C 162.066406 132.117188 162.253906 131.949219 162.253906 131.632812 C 162.253906 131.0625 161.835938 130.5 160.878906 130.5 C 159.492188 130.5 158.042969 131.917969 158.042969 134.339844 C 158.042969 137.363281 159.363281 138.046875 160.296875 138.046875 C 161.496094 138.046875 162.519531 137.003906 162.519531 135.570312 Z M 161.617188 135.558594 C 161.617188 136.121094 161.617188 136.617188 161.410156 137.035156 C 161.132812 137.5625 160.738281 137.75 160.296875 137.75 C 159.605469 137.75 159.273438 137.132812 159.175781 136.902344 C 159.074219 136.617188 158.964844 136.078125 158.964844 135.308594 C 158.964844 134.4375 159.363281 133.347656 160.351562 133.347656 C 160.957031 133.347656 161.277344 133.753906 161.441406 134.128906 C 161.617188 134.535156 161.617188 135.089844 161.617188 135.558594 Z M 161.617188 135.558594 "/>
<path style=" stroke:none;fill-rule:evenodd;fill:rgb(0%,0%,0%);fill-opacity:1;" d="M 166.09375 135.074219 C 166.09375 134.238281 165.980469 132.875 165.367188 131.597656 C 164.71875 130.28125 163.816406 129.5625 163.695312 129.5625 C 163.652344 129.5625 163.59375 129.585938 163.59375 129.652344 C 163.59375 129.6875 163.59375 129.707031 163.78125 129.894531 C 164.882812 131.007812 165.5 132.820312 165.5 135.066406 C 165.5 137.199219 164.980469 139.039062 163.707031 140.335938 C 163.59375 140.433594 163.59375 140.457031 163.59375 140.488281 C 163.59375 140.554688 163.652344 140.578125 163.695312 140.578125 C 163.835938 140.578125 164.738281 139.785156 165.277344 138.707031 C 165.839844 137.585938 166.09375 136.398438 166.09375 135.074219 Z M 166.09375 135.074219 "/>
<path style="fill:none;stroke-width:0.2;stroke-linecap:square;stroke-linejoin:miter;stroke:rgb(0%,0%,0%);stroke-opacity:1;stroke-miterlimit:3.25;" d="M 150.992188 127.578125 L 161.765625 111.417969 "/>
<path style=" stroke:none;fill-rule:evenodd;fill:rgb(0%,0%,0%);fill-opacity:1;" d="M 75.851562 125.425781 L 75.851562 124.953125 L 75.078125 124.953125 L 73.21875 122.710938 L 74.496094 121.246094 C 74.617188 121.101562 74.71875 121.015625 75.628906 121.015625 L 75.628906 120.542969 L 74.617188 120.5625 C 74.296875 120.5625 73.828125 120.5625 73.515625 120.542969 L 73.515625 121.015625 C 73.726562 121.015625 73.957031 121.070312 73.957031 121.148438 C 73.957031 121.148438 73.902344 121.246094 73.882812 121.269531 L 72.921875 122.347656 L 71.835938 121.015625 L 72.296875 121.015625 L 72.296875 120.542969 C 72.042969 120.5625 71.296875 120.5625 71 120.5625 C 70.667969 120.5625 70.074219 120.5625 69.765625 120.542969 L 69.765625 121.015625 L 70.546875 121.015625 L 72.265625 123.105469 L 70.832031 124.722656 C 70.703125 124.875 70.625 124.953125 69.710938 124.953125 L 69.710938 125.425781 L 70.734375 125.40625 C 71.054688 125.40625 71.515625 125.40625 71.824219 125.425781 L 71.824219 124.953125 C 71.613281 124.953125 71.382812 124.898438 71.382812 124.820312 C 71.382812 124.820312 71.382812 124.800781 71.460938 124.710938 L 72.5625 123.46875 L 73.78125 124.953125 L 73.320312 124.953125 L 73.320312 125.425781 C 73.585938 125.40625 74.320312 125.40625 74.628906 125.40625 C 74.960938 125.40625 75.542969 125.40625 75.851562 125.425781 Z M 75.851562 125.425781 "/>
<path style=" stroke:none;fill-rule:evenodd;fill:rgb(0%,0%,0%);fill-opacity:1;" d="M 79.6875 128.101562 C 79.6875 128.066406 79.6875 128.046875 79.5 127.859375 C 78.402344 126.746094 77.785156 124.929688 77.785156 122.6875 C 77.785156 120.550781 78.300781 118.714844 79.578125 117.417969 C 79.6875 117.316406 79.6875 117.296875 79.6875 117.261719 C 79.6875 117.195312 79.632812 117.175781 79.589844 117.175781 C 79.445312 117.175781 78.542969 117.964844 78.003906 119.046875 C 77.445312 120.15625 77.191406 121.332031 77.191406 122.6875 C 77.191406 123.664062 77.34375 124.976562 77.917969 126.152344 C 78.566406 127.472656 79.46875 128.1875 79.589844 128.1875 C 79.632812 128.1875 79.6875 128.167969 79.6875 128.101562 Z M 79.6875 128.101562 "/>
<path style=" stroke:none;fill-rule:evenodd;fill:rgb(0%,0%,0%);fill-opacity:1;" d="M 86.394531 120.925781 C 86.394531 120.683594 86.1875 120.683594 85.988281 120.683594 L 82.371094 120.683594 C 82.117188 120.683594 81.742188 120.683594 81.238281 121.222656 C 80.949219 121.542969 80.597656 122.125 80.597656 122.191406 C 80.597656 122.257812 80.652344 122.28125 80.71875 122.28125 C 80.796875 122.28125 80.808594 122.246094 80.863281 122.183594 C 81.433594 121.277344 82.007812 121.277344 82.28125 121.277344 L 82.910156 121.277344 C 82.667969 122.105469 82.390625 123.0625 81.488281 124.984375 C 81.402344 125.164062 81.402344 125.183594 81.402344 125.25 C 81.402344 125.480469 81.597656 125.535156 81.699219 125.535156 C 82.019531 125.535156 82.105469 125.25 82.238281 124.789062 C 82.414062 124.226562 82.414062 124.203125 82.523438 123.765625 L 83.160156 121.277344 L 84.40625 121.277344 C 84.109375 122.511719 83.921875 123.316406 83.921875 124.195312 C 83.921875 124.347656 83.921875 125.535156 84.371094 125.535156 C 84.601562 125.535156 84.800781 125.328125 84.800781 125.140625 C 84.800781 125.085938 84.800781 125.0625 84.722656 124.898438 C 84.425781 124.140625 84.425781 123.191406 84.425781 123.117188 C 84.425781 123.050781 84.425781 122.269531 84.660156 121.277344 L 85.890625 121.277344 C 86.03125 121.277344 86.394531 121.277344 86.394531 120.925781 Z M 86.394531 120.925781 "/>
<path style=" stroke:none;fill-rule:evenodd;fill:rgb(0%,0%,0%);fill-opacity:1;" d="M 91.597656 117.382812 C 91.597656 117.253906 91.488281 117.175781 91.398438 117.175781 C 91.34375 117.175781 91.246094 117.175781 91.15625 117.417969 L 87.472656 127.769531 L 87.40625 127.96875 C 87.40625 128.101562 87.515625 128.179688 87.601562 128.179688 C 87.667969 128.179688 87.769531 128.167969 87.84375 127.9375 L 91.53125 117.582031 Z M 91.597656 117.382812 "/>
<path style=" stroke:none;fill-rule:evenodd;fill:rgb(0%,0%,0%);fill-opacity:1;" d="M 97.039062 123.546875 C 97.039062 122.535156 96.226562 121.742188 95.167969 121.554688 C 96.125 121.277344 96.742188 120.476562 96.742188 119.617188 C 96.742188 118.746094 95.839844 118.109375 94.773438 118.109375 C 93.671875 118.109375 92.859375 118.78125 92.859375 119.585938 C 92.859375 120.023438 93.199219 120.113281 93.363281 120.113281 C 93.597656 120.113281 93.859375 119.949219 93.859375 119.617188 C 93.859375 119.265625 93.597656 119.113281 93.355469 119.113281 C 93.289062 119.113281 93.265625 119.113281 93.230469 119.121094 C 93.652344 118.375 94.683594 118.375 94.738281 118.375 C 95.101562 118.375 95.816406 118.539062 95.816406 119.617188 C 95.816406 119.828125 95.785156 120.441406 95.464844 120.917969 C 95.136719 121.402344 94.761719 121.433594 94.464844 121.445312 L 94.136719 121.476562 C 93.949219 121.488281 93.902344 121.5 93.902344 121.597656 C 93.902344 121.707031 93.957031 121.707031 94.15625 121.707031 L 94.664062 121.707031 C 95.597656 121.707031 96.015625 122.480469 96.015625 123.535156 C 96.015625 124.976562 95.269531 125.359375 94.730469 125.359375 C 94.199219 125.359375 93.300781 125.109375 92.980469 124.382812 C 93.332031 124.4375 93.652344 124.238281 93.652344 123.84375 C 93.652344 123.523438 93.417969 123.304688 93.113281 123.304688 C 92.847656 123.304688 92.5625 123.457031 92.5625 123.875 C 92.5625 124.855469 93.539062 125.65625 94.761719 125.65625 C 96.070312 125.65625 97.039062 124.65625 97.039062 123.546875 Z M 97.039062 123.546875 "/>
<path style=" stroke:none;fill-rule:evenodd;fill:rgb(0%,0%,0%);fill-opacity:1;" d="M 100.613281 122.6875 C 100.613281 121.851562 100.5 120.488281 99.886719 119.210938 C 99.238281 117.890625 98.335938 117.175781 98.214844 117.175781 C 98.171875 117.175781 98.113281 117.195312 98.113281 117.261719 C 98.113281 117.296875 98.113281 117.316406 98.300781 117.503906 C 99.402344 118.617188 100.019531 120.433594 100.019531 122.675781 C 100.019531 124.8125 99.5 126.648438 98.226562 127.945312 C 98.113281 128.046875 98.113281 128.066406 98.113281 128.101562 C 98.113281 128.167969 98.171875 128.1875 98.214844 128.1875 C 98.355469 128.1875 99.257812 127.398438 99.796875 126.316406 C 100.359375 125.195312 100.613281 124.007812 100.613281 122.6875 Z M 100.613281 122.6875 "/>
<path style="fill:none;stroke-width:0.2;stroke-linecap:square;stroke-linejoin:miter;stroke:rgb(0%,0%,0%);stroke-opacity:1;stroke-miterlimit:3.25;" d="M 102.511719 115.1875 L 113.285156 112.496094 "/>
<path style=" stroke:none;fill-rule:evenodd;fill:rgb(0%,0%,0%);fill-opacity:1;" d="M 126.226562 188.996094 C 126.226562 188.9375 126.183594 188.894531 126.128906 188.894531 C 126.074219 188.894531 126.050781 188.929688 126.007812 188.996094 C 125.886719 189.203125 125.601562 189.644531 124.289062 189.644531 C 123.609375 189.644531 122.707031 189.46875 122.707031 188.6875 C 122.707031 188.3125 122.980469 187.75 123.695312 187.375 C 124.046875 187.519531 124.421875 187.519531 124.632812 187.519531 C 124.917969 187.519531 125.492188 187.519531 125.492188 187.203125 C 125.492188 187.003906 125.28125 186.925781 124.71875 186.925781 C 124.445312 186.925781 124.113281 186.957031 123.730469 187.125 C 123.390625 186.957031 123.257812 186.707031 123.257812 186.464844 C 123.257812 185.78125 124.335938 185.386719 125.3125 185.386719 C 125.5 185.386719 125.898438 185.386719 126.359375 185.726562 C 126.425781 185.769531 126.457031 185.800781 126.535156 185.800781 C 126.667969 185.800781 126.8125 185.660156 126.8125 185.527344 C 126.8125 185.332031 126.171875 184.910156 125.414062 184.910156 C 124.179688 184.910156 123.015625 185.648438 123.015625 186.464844 C 123.015625 186.871094 123.277344 187.125 123.464844 187.257812 C 122.828125 187.617188 122.453125 188.214844 122.453125 188.753906 C 122.453125 189.511719 123.136719 190.117188 124.191406 190.117188 C 125.644531 190.117188 126.226562 189.148438 126.226562 188.996094 Z M 125.238281 187.210938 C 125.050781 187.300781 125.027344 187.300781 124.632812 187.300781 C 124.433594 187.300781 124.257812 187.300781 124.039062 187.246094 C 124.335938 187.144531 124.621094 187.144531 124.699219 187.144531 C 125.007812 187.144531 125.0625 187.167969 125.238281 187.210938 Z M 125.238281 187.210938 "/>
<path style=" stroke:none;fill-rule:evenodd;fill:rgb(0%,0%,0%);fill-opacity:1;" d="M 138.046875 186.121094 C 138.046875 185.914062 137.859375 185.914062 137.695312 185.914062 L 131.214844 185.914062 C 131.058594 185.914062 130.863281 185.914062 130.863281 186.113281 C 130.863281 186.320312 131.050781 186.320312 131.214844 186.320312 L 137.695312 186.320312 C 137.851562 186.320312 138.046875 186.320312 138.046875 186.121094 Z M 138.046875 188.167969 C 138.046875 187.960938 137.859375 187.960938 137.695312 187.960938 L 131.214844 187.960938 C 131.058594 187.960938 130.863281 187.960938 130.863281 188.15625 C 130.863281 188.367188 131.050781 188.367188 131.214844 188.367188 L 137.695312 188.367188 C 137.851562 188.367188 138.046875 188.367188 138.046875 188.167969 Z M 138.046875 188.167969 "/>
<path style=" stroke:none;fill-rule:evenodd;fill:rgb(0%,0%,0%);fill-opacity:1;" d="M 146.601562 186.363281 C 146.601562 185.449219 146.546875 184.558594 146.148438 183.722656 C 145.695312 182.808594 144.902344 182.566406 144.363281 182.566406 C 143.726562 182.566406 142.945312 182.886719 142.539062 183.800781 C 142.230469 184.492188 142.121094 185.175781 142.121094 186.363281 C 142.121094 187.433594 142.199219 188.234375 142.59375 189.015625 C 143.023438 189.851562 143.78125 190.117188 144.355469 190.117188 C 145.3125 190.117188 145.863281 189.546875 146.179688 188.90625 C 146.578125 188.082031 146.601562 187.003906 146.601562 186.363281 Z M 145.765625 186.230469 C 145.765625 186.96875 145.765625 187.804688 145.640625 188.476562 C 145.433594 189.6875 144.738281 189.898438 144.355469 189.898438 C 144.003906 189.898438 143.285156 189.699219 143.078125 188.5 C 142.957031 187.839844 142.957031 187.003906 142.957031 186.230469 C 142.957031 185.332031 142.957031 184.515625 143.132812 183.867188 C 143.320312 183.128906 143.878906 182.789062 144.355469 182.789062 C 144.773438 182.789062 145.410156 183.042969 145.621094 183.988281 C 145.765625 184.613281 145.765625 185.484375 145.765625 186.230469 Z M 145.765625 186.230469 "/>
<g clip-path="url(#clip13)" clip-rule="nonzero">
<path style="fill:none;stroke-width:0.2;stroke-linecap:square;stroke-linejoin:miter;stroke:rgb(30.000763%,76.665904%,30.000763%);stroke-opacity:1;stroke-miterlimit:3.25;" d="M -22.5 313.183594 L 164.097656 205.449219 "/>
</g>
<g clip-path="url(#clip14)" clip-rule="nonzero">
<path style="fill:none;stroke-width:0.2;stroke-linecap:square;stroke-linejoin:miter;stroke:rgb(30.000763%,76.665904%,30.000763%);stroke-opacity:1;stroke-miterlimit:3.25;" d="M 245.460938 346.375 L 164.097656 205.449219 "/>
</g>
<path style=" stroke:none;fill-rule:nonzero;fill:rgb(30.000763%,76.665904%,30.000763%);fill-opacity:1;" d="M 164.097656 205.449219 L 164.1875 205.539062 L 164.136719 205.3125 L 164.050781 205.363281 Z M 164.097656 205.449219 "/>
<g clip-path="url(#clip15)" clip-rule="nonzero">
<path style="fill:none;stroke-width:0.2;stroke-linecap:square;stroke-linejoin:miter;stroke:rgb(30.000763%,76.665904%,30.000763%);stroke-opacity:1;stroke-miterlimit:3.25;" d="M 245.460938 346.375 L 164.097656 205.449219 "/>
</g>
<path style=" stroke:none;fill-rule:nonzero;fill:rgb(30.000763%,76.665904%,30.000763%);fill-opacity:1;" d="M 164.097656 205.449219 L 164.1875 205.539062 L 164.136719 205.3125 L 164.050781 205.363281 Z M 164.097656 205.449219 "/>
<g clip-path="url(#clip16)" clip-rule="nonzero">
<path style="fill:none;stroke-width:0.2;stroke-linecap:square;stroke-linejoin:miter;stroke:rgb(30.000763%,76.665904%,30.000763%);stroke-opacity:1;stroke-miterlimit:3.25;" d="M -49.433594 266.535156 L 183.816406 131.867188 "/>
</g>
<g clip-path="url(#clip17)" clip-rule="nonzero">
<path style="fill:none;stroke-width:0.2;stroke-linecap:square;stroke-linejoin:miter;stroke:rgb(30.000763%,76.665904%,30.000763%);stroke-opacity:1;stroke-miterlimit:3.25;" d="M 307.660156 346.375 L 183.816406 131.867188 "/>
<path style="fill:none;stroke-width:0.2;stroke-linecap:square;stroke-linejoin:miter;stroke:rgb(30.000763%,76.665904%,30.000763%);stroke-opacity:1;stroke-miterlimit:3.25;" d="M 307.660156 346.375 L 183.816406 131.867188 "/>
</g>
<g clip-path="url(#clip18)" clip-rule="nonzero">
<path style=" stroke:none;fill-rule:nonzero;fill:rgb(100%,100%,86.999313%);fill-opacity:1;" d="M 258.175781 260.664062 L 231.039062 213.660156 L 219.152344 206.796875 L 54.035156 206.796875 L 50.546875 208.8125 L 20.609375 260.664062 L 68.46875 260.664062 L 89.980469 248.242188 L 113.285156 207.875 L 136.59375 221.332031 L 164.097656 205.449219 L 191.605469 253.09375 L 204.71875 260.664062 Z M 258.175781 260.664062 "/>
</g>
<g clip-path="url(#clip19)" clip-rule="nonzero">
<path style="fill:none;stroke-width:1;stroke-linecap:square;stroke-linejoin:miter;stroke:rgb(0%,0%,0%);stroke-opacity:1;stroke-miterlimit:3.25;" d="M 258.175781 260.664062 L 231.039062 213.660156 L 219.152344 206.796875 L 54.035156 206.796875 L 50.546875 208.8125 L 20.609375 260.664062 L 68.46875 260.664062 L 89.980469 248.242188 L 113.285156 207.875 L 136.59375 221.332031 L 164.097656 205.449219 L 191.605469 253.09375 L 204.71875 260.664062 Z M 258.175781 260.664062 "/>
</g>
<path style="fill:none;stroke-width:1;stroke-linecap:square;stroke-linejoin:miter;stroke:rgb(0%,66.666667%,0%);stroke-opacity:1;stroke-miterlimit:3.25;" d="M 164.097656 205.449219 L 191.605469 253.09375 "/>
<g clip-path="url(#clip20)" clip-rule="nonzero">
<path style="fill:none;stroke-width:1;stroke-linecap:square;stroke-linejoin:miter;stroke:rgb(0%,66.666667%,0%);stroke-opacity:1;stroke-miterlimit:3.25;" d="M 258.175781 260.664062 L 231.039062 213.660156 "/>
</g>
<path style=" stroke:none;fill-rule:evenodd;fill:rgb(0%,0%,0%);fill-opacity:1;" d="M 165 205 C 165 204.734375 164.894531 204.480469 164.707031 204.292969 C 164.519531 204.105469 164.265625 204 164 204 C 163.734375 204 163.480469 204.105469 163.292969 204.292969 C 163.105469 204.480469 163 204.734375 163 205 C 163 205.265625 163.105469 205.519531 163.292969 205.707031 C 163.480469 205.894531 163.734375 206 164 206 C 164.265625 206 164.519531 205.894531 164.707031 205.707031 C 164.894531 205.519531 165 205.265625 165 205 Z M 165 205 "/>
<path style=" stroke:none;fill-rule:evenodd;fill:rgb(0%,0%,0%);fill-opacity:1;" d="M 114 208 C 114 207.734375 113.894531 207.480469 113.707031 207.292969 C 113.519531 207.105469 113.265625 207 113 207 C 112.734375 207 112.480469 207.105469 112.292969 207.292969 C 112.105469 207.480469 112 207.734375 112 208 C 112 208.265625 112.105469 208.519531 112.292969 208.707031 C 112.480469 208.894531 112.734375 209 113 209 C 113.265625 209 113.519531 208.894531 113.707031 208.707031 C 113.894531 208.519531 114 208.265625 114 208 Z M 114 208 "/>
<path style=" stroke:none;fill-rule:evenodd;fill:rgb(0%,0%,0%);fill-opacity:1;" d="M 143.664062 231.851562 L 143.664062 231.375 L 142.890625 231.375 L 141.03125 229.132812 L 142.308594 227.667969 C 142.429688 227.523438 142.53125 227.4375 143.441406 227.4375 L 143.441406 226.964844 L 142.429688 226.984375 C 142.109375 226.984375 141.640625 226.984375 141.328125 226.964844 L 141.328125 227.4375 C 141.539062 227.4375 141.769531 227.492188 141.769531 227.570312 C 141.769531 227.570312 141.714844 227.667969 141.695312 227.691406 L 140.734375 228.769531 L 139.648438 227.4375 L 140.109375 227.4375 L 140.109375 226.964844 C 139.855469 226.984375 139.109375 226.984375 138.8125 226.984375 C 138.480469 226.984375 137.886719 226.984375 137.578125 226.964844 L 137.578125 227.4375 L 138.359375 227.4375 L 140.078125 229.527344 L 138.644531 231.144531 C 138.515625 231.300781 138.4375 231.375 137.523438 231.375 L 137.523438 231.851562 L 138.546875 231.828125 C 138.867188 231.828125 139.328125 231.828125 139.636719 231.851562 L 139.636719 231.375 C 139.425781 231.375 139.195312 231.320312 139.195312 231.246094 C 139.195312 231.246094 139.195312 231.222656 139.273438 231.132812 L 140.375 229.890625 L 141.59375 231.375 L 141.132812 231.375 L 141.132812 231.851562 C 141.398438 231.828125 142.132812 231.828125 142.441406 231.828125 C 142.773438 231.828125 143.355469 231.828125 143.664062 231.851562 Z M 143.664062 231.851562 "/>
<path style=" stroke:none;fill-rule:evenodd;fill:rgb(0%,0%,0%);fill-opacity:1;" d="M 147.5 234.523438 C 147.5 234.488281 147.5 234.46875 147.3125 234.28125 C 146.214844 233.167969 145.597656 231.355469 145.597656 229.109375 C 145.597656 226.976562 146.113281 225.136719 147.390625 223.839844 C 147.5 223.742188 147.5 223.71875 147.5 223.6875 C 147.5 223.621094 147.445312 223.597656 147.402344 223.597656 C 147.257812 223.597656 146.355469 224.390625 145.816406 225.46875 C 145.257812 226.578125 145.003906 227.757812 145.003906 229.109375 C 145.003906 230.089844 145.15625 231.398438 145.730469 232.574219 C 146.378906 233.894531 147.28125 234.613281 147.402344 234.613281 C 147.445312 234.613281 147.5 234.589844 147.5 234.523438 Z M 147.5 234.523438 "/>
<path style=" stroke:none;fill-rule:evenodd;fill:rgb(0%,0%,0%);fill-opacity:1;" d="M 154.207031 227.351562 C 154.207031 227.109375 154 227.109375 153.800781 227.109375 L 150.183594 227.109375 C 149.929688 227.109375 149.554688 227.109375 149.050781 227.648438 C 148.761719 227.964844 148.410156 228.546875 148.410156 228.617188 C 148.410156 228.679688 148.464844 228.703125 148.53125 228.703125 C 148.609375 228.703125 148.621094 228.671875 148.675781 228.605469 C 149.246094 227.703125 149.820312 227.703125 150.09375 227.703125 L 150.722656 227.703125 C 150.480469 228.527344 150.203125 229.484375 149.300781 231.410156 C 149.214844 231.585938 149.214844 231.609375 149.214844 231.671875 C 149.214844 231.90625 149.410156 231.960938 149.511719 231.960938 C 149.832031 231.960938 149.917969 231.671875 150.050781 231.210938 C 150.226562 230.648438 150.226562 230.628906 150.335938 230.1875 L 150.972656 227.703125 L 152.21875 227.703125 C 151.921875 228.933594 151.734375 229.738281 151.734375 230.617188 C 151.734375 230.773438 151.734375 231.960938 152.183594 231.960938 C 152.414062 231.960938 152.613281 231.75 152.613281 231.5625 C 152.613281 231.507812 152.613281 231.488281 152.535156 231.320312 C 152.238281 230.5625 152.238281 229.617188 152.238281 229.539062 C 152.238281 229.472656 152.238281 228.691406 152.472656 227.703125 L 153.703125 227.703125 C 153.84375 227.703125 154.207031 227.703125 154.207031 227.351562 Z M 154.207031 227.351562 "/>
<path style=" stroke:none;fill-rule:evenodd;fill:rgb(0%,0%,0%);fill-opacity:1;" d="M 159.410156 223.808594 C 159.410156 223.675781 159.300781 223.597656 159.210938 223.597656 C 159.15625 223.597656 159.058594 223.597656 158.96875 223.839844 L 155.285156 234.191406 L 155.21875 234.390625 C 155.21875 234.523438 155.328125 234.601562 155.414062 234.601562 C 155.480469 234.601562 155.582031 234.589844 155.65625 234.359375 L 159.34375 224.003906 Z M 159.410156 223.808594 "/>
<path style=" stroke:none;fill-rule:evenodd;fill:rgb(0%,0%,0%);fill-opacity:1;" d="M 164.851562 229.605469 C 164.851562 228.140625 163.828125 227.164062 162.730469 227.164062 C 161.75 227.164062 161.386719 228.007812 161.277344 228.316406 L 161.277344 228.019531 C 161.277344 225.238281 162.628906 224.796875 163.222656 224.796875 C 163.621094 224.796875 164.015625 224.917969 164.226562 225.25 C 164.09375 225.25 163.675781 225.25 163.675781 225.699219 C 163.675781 225.941406 163.839844 226.148438 164.125 226.148438 C 164.402344 226.148438 164.589844 225.984375 164.589844 225.667969 C 164.589844 225.09375 164.167969 224.535156 163.214844 224.535156 C 161.824219 224.535156 160.375 225.953125 160.375 228.375 C 160.375 231.398438 161.695312 232.082031 162.628906 232.082031 C 163.828125 232.082031 164.851562 231.035156 164.851562 229.605469 Z M 163.949219 229.59375 C 163.949219 230.15625 163.949219 230.648438 163.742188 231.070312 C 163.464844 231.597656 163.070312 231.785156 162.628906 231.785156 C 161.9375 231.785156 161.605469 231.167969 161.507812 230.9375 C 161.410156 230.648438 161.296875 230.109375 161.296875 229.339844 C 161.296875 228.472656 161.695312 227.382812 162.683594 227.382812 C 163.289062 227.382812 163.609375 227.789062 163.773438 228.164062 C 163.949219 228.570312 163.949219 229.121094 163.949219 229.59375 Z M 163.949219 229.59375 "/>
<path style=" stroke:none;fill-rule:evenodd;fill:rgb(0%,0%,0%);fill-opacity:1;" d="M 168.425781 229.109375 C 168.425781 228.273438 168.3125 226.910156 167.699219 225.632812 C 167.050781 224.3125 166.148438 223.597656 166.027344 223.597656 C 165.984375 223.597656 165.925781 223.621094 165.925781 223.6875 C 165.925781 223.71875 165.925781 223.742188 166.113281 223.929688 C 167.214844 225.039062 167.832031 226.855469 167.832031 229.097656 C 167.832031 231.234375 167.3125 233.070312 166.039062 234.371094 C 165.925781 234.46875 165.925781 234.488281 165.925781 234.523438 C 165.925781 234.589844 165.984375 234.613281 166.027344 234.613281 C 166.167969 234.613281 167.070312 233.820312 167.609375 232.738281 C 168.171875 231.617188 168.425781 230.429688 168.425781 229.109375 Z M 168.425781 229.109375 "/>
<path style="fill:none;stroke-width:0.2;stroke-linecap:square;stroke-linejoin:miter;stroke:rgb(0%,0%,0%);stroke-opacity:1;stroke-miterlimit:3.25;" d="M 153.324219 221.609375 L 164.097656 205.449219 "/>
<path style=" stroke:none;fill-rule:evenodd;fill:rgb(0%,0%,0%);fill-opacity:1;" d="M 75.851562 220.808594 L 75.851562 220.332031 L 75.078125 220.332031 L 73.21875 218.089844 L 74.496094 216.625 C 74.617188 216.484375 74.71875 216.394531 75.628906 216.394531 L 75.628906 215.921875 L 74.617188 215.945312 C 74.296875 215.945312 73.828125 215.945312 73.515625 215.921875 L 73.515625 216.394531 C 73.726562 216.394531 73.957031 216.449219 73.957031 216.527344 C 73.957031 216.527344 73.902344 216.625 73.882812 216.648438 L 72.921875 217.726562 L 71.835938 216.394531 L 72.296875 216.394531 L 72.296875 215.921875 C 72.042969 215.945312 71.296875 215.945312 71 215.945312 C 70.667969 215.945312 70.074219 215.945312 69.765625 215.921875 L 69.765625 216.394531 L 70.546875 216.394531 L 72.265625 218.484375 L 70.832031 220.101562 C 70.703125 220.257812 70.625 220.332031 69.710938 220.332031 L 69.710938 220.808594 L 70.734375 220.785156 C 71.054688 220.785156 71.515625 220.785156 71.824219 220.808594 L 71.824219 220.332031 C 71.613281 220.332031 71.382812 220.277344 71.382812 220.203125 C 71.382812 220.203125 71.382812 220.179688 71.460938 220.089844 L 72.5625 218.847656 L 73.78125 220.332031 L 73.320312 220.332031 L 73.320312 220.808594 C 73.585938 220.785156 74.320312 220.785156 74.628906 220.785156 C 74.960938 220.785156 75.542969 220.785156 75.851562 220.808594 Z M 75.851562 220.808594 "/>
<path style=" stroke:none;fill-rule:evenodd;fill:rgb(0%,0%,0%);fill-opacity:1;" d="M 79.6875 223.480469 C 79.6875 223.449219 79.6875 223.425781 79.5 223.238281 C 78.402344 222.128906 77.785156 220.3125 77.785156 218.066406 C 77.785156 215.933594 78.300781 214.09375 79.578125 212.796875 C 79.6875 212.699219 79.6875 212.675781 79.6875 212.644531 C 79.6875 212.578125 79.632812 212.554688 79.589844 212.554688 C 79.445312 212.554688 78.542969 213.347656 78.003906 214.425781 C 77.445312 215.539062 77.191406 216.714844 77.191406 218.066406 C 77.191406 219.046875 77.34375 220.355469 77.917969 221.535156 C 78.566406 222.855469 79.46875 223.570312 79.589844 223.570312 C 79.632812 223.570312 79.6875 223.546875 79.6875 223.480469 Z M 79.6875 223.480469 "/>
<path style=" stroke:none;fill-rule:evenodd;fill:rgb(0%,0%,0%);fill-opacity:1;" d="M 86.394531 216.308594 C 86.394531 216.066406 86.1875 216.066406 85.988281 216.066406 L 82.371094 216.066406 C 82.117188 216.066406 81.742188 216.066406 81.238281 216.605469 C 80.949219 216.921875 80.597656 217.507812 80.597656 217.574219 C 80.597656 217.636719 80.652344 217.660156 80.71875 217.660156 C 80.796875 217.660156 80.808594 217.628906 80.863281 217.5625 C 81.433594 216.660156 82.007812 216.660156 82.28125 216.660156 L 82.910156 216.660156 C 82.667969 217.484375 82.390625 218.441406 81.488281 220.367188 C 81.402344 220.542969 81.402344 220.566406 81.402344 220.628906 C 81.402344 220.863281 81.597656 220.917969 81.699219 220.917969 C 82.019531 220.917969 82.105469 220.628906 82.238281 220.167969 C 82.414062 219.605469 82.414062 219.585938 82.523438 219.144531 L 83.160156 216.660156 L 84.40625 216.660156 C 84.109375 217.890625 83.921875 218.695312 83.921875 219.574219 C 83.921875 219.730469 83.921875 220.917969 84.371094 220.917969 C 84.601562 220.917969 84.800781 220.707031 84.800781 220.519531 C 84.800781 220.464844 84.800781 220.445312 84.722656 220.277344 C 84.425781 219.519531 84.425781 218.574219 84.425781 218.496094 C 84.425781 218.429688 84.425781 217.648438 84.660156 216.660156 L 85.890625 216.660156 C 86.03125 216.660156 86.394531 216.660156 86.394531 216.308594 Z M 86.394531 216.308594 "/>
<path style=" stroke:none;fill-rule:evenodd;fill:rgb(0%,0%,0%);fill-opacity:1;" d="M 91.597656 212.765625 C 91.597656 212.632812 91.488281 212.554688 91.398438 212.554688 C 91.34375 212.554688 91.246094 212.554688 91.15625 212.796875 L 87.472656 223.152344 L 87.40625 223.347656 C 87.40625 223.480469 87.515625 223.558594 87.601562 223.558594 C 87.667969 223.558594 87.769531 223.546875 87.84375 223.316406 L 91.53125 212.960938 Z M 91.597656 212.765625 "/>
<path style=" stroke:none;fill-rule:evenodd;fill:rgb(0%,0%,0%);fill-opacity:1;" d="M 97.039062 218.925781 C 97.039062 217.914062 96.226562 217.121094 95.167969 216.933594 C 96.125 216.660156 96.742188 215.855469 96.742188 215 C 96.742188 214.128906 95.839844 213.492188 94.773438 213.492188 C 93.671875 213.492188 92.859375 214.160156 92.859375 214.964844 C 92.859375 215.40625 93.199219 215.492188 93.363281 215.492188 C 93.597656 215.492188 93.859375 215.328125 93.859375 215 C 93.859375 214.644531 93.597656 214.492188 93.355469 214.492188 C 93.289062 214.492188 93.265625 214.492188 93.230469 214.503906 C 93.652344 213.753906 94.683594 213.753906 94.738281 213.753906 C 95.101562 213.753906 95.816406 213.921875 95.816406 215 C 95.816406 215.207031 95.785156 215.824219 95.464844 216.296875 C 95.136719 216.78125 94.761719 216.8125 94.464844 216.824219 L 94.136719 216.859375 C 93.949219 216.867188 93.902344 216.878906 93.902344 216.976562 C 93.902344 217.089844 93.957031 217.089844 94.15625 217.089844 L 94.664062 217.089844 C 95.597656 217.089844 96.015625 217.859375 96.015625 218.914062 C 96.015625 220.355469 95.269531 220.742188 94.730469 220.742188 C 94.199219 220.742188 93.300781 220.488281 92.980469 219.761719 C 93.332031 219.816406 93.652344 219.617188 93.652344 219.222656 C 93.652344 218.902344 93.417969 218.683594 93.113281 218.683594 C 92.847656 218.683594 92.5625 218.835938 92.5625 219.253906 C 92.5625 220.234375 93.539062 221.039062 94.761719 221.039062 C 96.070312 221.039062 97.039062 220.035156 97.039062 218.925781 Z M 97.039062 218.925781 "/>
<path style=" stroke:none;fill-rule:evenodd;fill:rgb(0%,0%,0%);fill-opacity:1;" d="M 100.613281 218.066406 C 100.613281 217.230469 100.5 215.867188 99.886719 214.589844 C 99.238281 213.269531 98.335938 212.554688 98.214844 212.554688 C 98.171875 212.554688 98.113281 212.578125 98.113281 212.644531 C 98.113281 212.675781 98.113281 212.699219 98.300781 212.886719 C 99.402344 213.996094 100.019531 215.8125 100.019531 218.054688 C 100.019531 220.191406 99.5 222.027344 98.226562 223.328125 C 98.113281 223.425781 98.113281 223.449219 98.113281 223.480469 C 98.113281 223.546875 98.171875 223.570312 98.214844 223.570312 C 98.355469 223.570312 99.257812 222.777344 99.796875 221.699219 C 100.359375 220.574219 100.613281 219.386719 100.613281 218.066406 Z M 100.613281 218.066406 "/>
<path style="fill:none;stroke-width:0.2;stroke-linecap:square;stroke-linejoin:miter;stroke:rgb(0%,0%,0%);stroke-opacity:1;stroke-miterlimit:3.25;" d="M 102.511719 210.566406 L 113.285156 207.875 "/>
<path style=" stroke:none;fill-rule:evenodd;fill:rgb(0%,0%,0%);fill-opacity:1;" d="M 115.226562 284.375 C 115.226562 284.320312 115.183594 284.273438 115.128906 284.273438 C 115.074219 284.273438 115.050781 284.308594 115.007812 284.375 C 114.886719 284.582031 114.597656 285.023438 113.289062 285.023438 C 112.609375 285.023438 111.707031 284.847656 111.707031 284.066406 C 111.707031 283.691406 111.980469 283.132812 112.695312 282.757812 C 113.046875 282.898438 113.421875 282.898438 113.628906 282.898438 C 113.917969 282.898438 114.488281 282.898438 114.488281 282.582031 C 114.488281 282.382812 114.28125 282.304688 113.71875 282.304688 C 113.445312 282.304688 113.113281 282.339844 112.730469 282.503906 C 112.386719 282.339844 112.253906 282.085938 112.253906 281.84375 C 112.253906 281.160156 113.332031 280.765625 114.3125 280.765625 C 114.5 280.765625 114.894531 280.765625 115.359375 281.105469 C 115.425781 281.148438 115.457031 281.183594 115.535156 281.183594 C 115.667969 281.183594 115.808594 281.039062 115.808594 280.90625 C 115.808594 280.710938 115.171875 280.292969 114.410156 280.292969 C 113.179688 280.292969 112.011719 281.03125 112.011719 281.84375 C 112.011719 282.25 112.277344 282.503906 112.464844 282.636719 C 111.828125 283 111.453125 283.59375 111.453125 284.132812 C 111.453125 284.890625 112.136719 285.496094 113.191406 285.496094 C 114.644531 285.496094 115.226562 284.527344 115.226562 284.375 Z M 114.238281 282.59375 C 114.050781 282.679688 114.027344 282.679688 113.628906 282.679688 C 113.433594 282.679688 113.257812 282.679688 113.035156 282.625 C 113.332031 282.523438 113.621094 282.523438 113.699219 282.523438 C 114.003906 282.523438 114.058594 282.546875 114.238281 282.59375 Z M 114.238281 282.59375 "/>
<path style=" stroke:none;fill-rule:evenodd;fill:rgb(0%,0%,0%);fill-opacity:1;" d="M 127.046875 281.503906 C 127.046875 281.292969 126.859375 281.292969 126.695312 281.292969 L 120.214844 281.292969 C 120.058594 281.292969 119.859375 281.292969 119.859375 281.492188 C 119.859375 281.699219 120.046875 281.699219 120.214844 281.699219 L 126.695312 281.699219 C 126.847656 281.699219 127.046875 281.699219 127.046875 281.503906 Z M 127.046875 283.546875 C 127.046875 283.339844 126.859375 283.339844 126.695312 283.339844 L 120.214844 283.339844 C 120.058594 283.339844 119.859375 283.339844 119.859375 283.539062 C 119.859375 283.746094 120.046875 283.746094 120.214844 283.746094 L 126.695312 283.746094 C 126.847656 283.746094 127.046875 283.746094 127.046875 283.546875 Z M 127.046875 283.546875 "/>
<path style=" stroke:none;fill-rule:evenodd;fill:rgb(0%,0%,0%);fill-opacity:1;" d="M 138.300781 282.515625 C 138.300781 282.296875 138.09375 282.296875 137.9375 282.296875 L 131.941406 282.296875 C 131.789062 282.296875 131.582031 282.296875 131.582031 282.515625 C 131.582031 282.734375 131.789062 282.734375 131.941406 282.734375 L 137.9375 282.734375 C 138.09375 282.734375 138.300781 282.734375 138.300781 282.515625 Z M 138.300781 282.515625 "/>
<path style=" stroke:none;fill-rule:evenodd;fill:rgb(0%,0%,0%);fill-opacity:1;" d="M 144.09375 281.742188 C 144.09375 280.832031 144.039062 279.941406 143.644531 279.101562 C 143.191406 278.191406 142.398438 277.949219 141.859375 277.949219 C 141.222656 277.949219 140.441406 278.269531 140.035156 279.179688 C 139.726562 279.875 139.617188 280.554688 139.617188 281.742188 C 139.617188 282.8125 139.695312 283.617188 140.089844 284.398438 C 140.519531 285.234375 141.277344 285.496094 141.851562 285.496094 C 142.808594 285.496094 143.359375 284.925781 143.675781 284.285156 C 144.074219 283.460938 144.09375 282.382812 144.09375 281.742188 Z M 143.257812 281.613281 C 143.257812 282.351562 143.257812 283.1875 143.136719 283.859375 C 142.929688 285.066406 142.234375 285.277344 141.851562 285.277344 C 141.5 285.277344 140.78125 285.078125 140.574219 283.878906 C 140.453125 283.21875 140.453125 282.382812 140.453125 281.613281 C 140.453125 280.710938 140.453125 279.894531 140.628906 279.246094 C 140.816406 278.507812 141.375 278.167969 141.851562 278.167969 C 142.269531 278.167969 142.90625 278.421875 143.117188 279.367188 C 143.257812 279.996094 143.257812 280.863281 143.257812 281.613281 Z M 143.257812 281.613281 "/>
<path style=" stroke:none;fill-rule:evenodd;fill:rgb(0%,0%,0%);fill-opacity:1;" d="M 146.492188 284.738281 C 146.492188 284.417969 146.226562 284.199219 145.960938 284.199219 C 145.644531 284.199219 145.421875 284.460938 145.421875 284.726562 C 145.421875 285.046875 145.6875 285.265625 145.953125 285.265625 C 146.269531 285.265625 146.492188 285 146.492188 284.738281 Z M 146.492188 284.738281 "/>
<path style=" stroke:none;fill-rule:evenodd;fill:rgb(0%,0%,0%);fill-opacity:1;" d="M 152.394531 281.742188 C 152.394531 280.832031 152.339844 279.941406 151.945312 279.101562 C 151.492188 278.191406 150.699219 277.949219 150.160156 277.949219 C 149.523438 277.949219 148.742188 278.269531 148.335938 279.179688 C 148.027344 279.875 147.917969 280.554688 147.917969 281.742188 C 147.917969 282.8125 147.992188 283.617188 148.390625 284.398438 C 148.820312 285.234375 149.578125 285.496094 150.148438 285.496094 C 151.109375 285.496094 151.65625 284.925781 151.976562 284.285156 C 152.375 283.460938 152.394531 282.382812 152.394531 281.742188 Z M 151.558594 281.613281 C 151.558594 282.351562 151.558594 283.1875 151.4375 283.859375 C 151.226562 285.066406 150.535156 285.277344 150.148438 285.277344 C 149.796875 285.277344 149.082031 285.078125 148.875 283.878906 C 148.753906 283.21875 148.753906 282.382812 148.753906 281.613281 C 148.753906 280.710938 148.753906 279.894531 148.929688 279.246094 C 149.117188 278.507812 149.675781 278.167969 150.148438 278.167969 C 150.570312 278.167969 151.207031 278.421875 151.414062 279.367188 C 151.558594 279.996094 151.558594 280.863281 151.558594 281.613281 Z M 151.558594 281.613281 "/>
<path style=" stroke:none;fill-rule:evenodd;fill:rgb(0%,0%,0%);fill-opacity:1;" d="M 157.707031 283.054688 C 157.707031 281.742188 156.824219 280.65625 155.671875 280.65625 C 155.042969 280.65625 154.5625 280.929688 154.273438 281.238281 L 154.273438 278.960938 C 154.746094 279.113281 155.132812 279.125 155.253906 279.125 C 156.496094 279.125 157.289062 278.214844 157.289062 278.058594 C 157.289062 278.015625 157.265625 277.960938 157.199219 277.960938 C 157.199219 277.960938 157.15625 277.960938 157.058594 278.003906 C 156.441406 278.269531 155.914062 278.300781 155.628906 278.300781 C 154.902344 278.300781 154.382812 278.082031 154.175781 277.992188 C 154.097656 277.960938 154.066406 277.960938 154.066406 277.960938 C 153.976562 277.960938 153.976562 278.027344 153.976562 278.203125 L 153.976562 281.46875 C 153.976562 281.667969 153.976562 281.734375 154.109375 281.734375 C 154.164062 281.734375 154.175781 281.722656 154.285156 281.589844 C 154.59375 281.140625 155.109375 280.875 155.660156 280.875 C 156.242188 280.875 156.53125 281.414062 156.617188 281.601562 C 156.804688 282.03125 156.816406 282.570312 156.816406 282.988281 C 156.816406 283.40625 156.816406 284.03125 156.507812 284.527344 C 156.265625 284.925781 155.835938 285.199219 155.351562 285.199219 C 154.625 285.199219 153.910156 284.703125 153.710938 283.902344 C 153.765625 283.921875 153.835938 283.933594 153.890625 283.933594 C 154.078125 283.933594 154.375 283.824219 154.375 283.449219 C 154.375 283.140625 154.164062 282.964844 153.890625 282.964844 C 153.691406 282.964844 153.40625 283.066406 153.40625 283.492188 C 153.40625 284.429688 154.152344 285.496094 155.375 285.496094 C 156.617188 285.496094 157.707031 284.453125 157.707031 283.054688 Z M 157.707031 283.054688 "/>
</g>
</svg>
