<?xml version="1.0" encoding="UTF-8"?>
<svg xmlns="http://www.w3.org/2000/svg" xmlns:xlink="http://www.w3.org/1999/xlink" width="404pt" height="157pt" viewBox="0 0 404 157" version="1.1">
<g id="surface144">
<path style=" stroke:none;fill-rule:nonzero;fill:rgb(100%,100%,86.999313%);fill-opacity:1;" d="M 381.550781 134.707031 L 373.148438 99.253906 L 359.953125 72.984375 L 345.453125 55.707031 L 332.703125 46.214844 L 324.058594 42.484375 L 210.445312 22.449219 L 95.082031 22.449219 L 85.921875 24.621094 L 71.714844 31.757812 L 54.4375 46.253906 L 36.882812 69.835938 L 22.449219 103.289062 L 136.0625 123.324219 L 150.492188 89.867188 L 159.140625 93.597656 L 176.695312 70.015625 L 189.445312 79.507812 L 206.722656 65.011719 L 221.222656 82.289062 L 235.425781 75.15625 L 248.621094 101.425781 L 257.78125 99.253906 L 266.183594 134.707031 Z M 381.550781 134.707031 "/>
<path style="fill:none;stroke-width:1;stroke-linecap:square;stroke-linejoin:miter;stroke:rgb(70.370031%,90.122835%,70.370031%);stroke-opacity:1;stroke-miterlimit:3.25;" d="M -5.210938 314.359375 L 176.695312 70.015625 "/>
<path style="fill:none;stroke-width:1;stroke-linecap:square;stroke-linejoin:miter;stroke:rgb(70.370031%,90.122835%,70.370031%);stroke-opacity:1;stroke-miterlimit:3.25;" d="M -5.210938 314.359375 L 176.695312 70.015625 "/>
<path style=" stroke:none;fill-rule:nonzero;fill:rgb(70.370031%,90.122835%,70.370031%);fill-opacity:1;" d="M 176.695312 70.015625 L 176.292969 69.617188 L 176.59375 69.316406 L 176.992188 69.617188 Z M 176.695312 70.015625 "/>
<path style="fill:none;stroke-width:1;stroke-linecap:square;stroke-linejoin:miter;stroke:rgb(70.370031%,90.122835%,70.370031%);stroke-opacity:1;stroke-miterlimit:3.25;" d="M 504.902344 314.359375 L 176.695312 70.015625 "/>
<path style="fill:none;stroke-width:1;stroke-linecap:square;stroke-linejoin:miter;stroke:rgb(70.370031%,90.122835%,70.370031%);stroke-opacity:1;stroke-miterlimit:3.25;" d="M 504.902344 314.359375 L 176.695312 70.015625 "/>
<path style="fill:none;stroke-width:1;stroke-linecap:square;stroke-linejoin:miter;stroke:rgb(70.370031%,90.122835%,70.370031%);stroke-opacity:1;stroke-miterlimit:3.25;" d="M -145.15625 314.359375 L 153.6875 -87.058594 "/>
<path style="fill:none;stroke-width:1;stroke-linecap:square;stroke-linejoin:miter;stroke:rgb(70.370031%,90.122835%,70.370031%);stroke-opacity:1;stroke-miterlimit:3.25;" d="M -145.15625 314.359375 L 153.6875 -87.058594 "/>
<path style="fill:none;stroke-width:1;stroke-linecap:square;stroke-linejoin:miter;stroke:rgb(70.370031%,90.122835%,70.370031%);stroke-opacity:1;stroke-miterlimit:3.25;" d="M 153.6875 -87.058594 L 603.898438 248.109375 "/>
<path style="fill:none;stroke-width:1;stroke-linecap:square;stroke-linejoin:miter;stroke:rgb(0%,0%,0%);stroke-opacity:1;stroke-miterlimit:3.25;" d="M 381.550781 134.707031 L 373.148438 99.253906 L 359.953125 72.984375 L 345.453125 55.707031 L 332.703125 46.214844 L 324.058594 42.484375 L 210.445312 22.449219 L 95.082031 22.449219 L 85.921875 24.621094 L 71.714844 31.757812 L 54.4375 46.253906 L 36.882812 69.835938 L 22.449219 103.289062 L 136.0625 123.324219 L 150.492188 89.867188 L 159.140625 93.597656 L 176.695312 70.015625 L 189.445312 79.507812 L 206.722656 65.011719 L 221.222656 82.289062 L 235.425781 75.15625 L 248.621094 101.425781 L 257.78125 99.253906 L 266.183594 134.707031 Z M 381.550781 134.707031 "/>
<path style="fill:none;stroke-width:2;stroke-linecap:square;stroke-linejoin:miter;stroke:rgb(0%,0%,100%);stroke-opacity:1;stroke-miterlimit:3.25;" d="M 95.082031 22.449219 L 210.445312 22.449219 "/>
<path style="fill:none;stroke-width:2;stroke-linecap:square;stroke-linejoin:miter;stroke:rgb(0%,0%,100%);stroke-opacity:1;stroke-miterlimit:3.25;" d="M 381.550781 134.707031 L 266.183594 134.707031 "/>
<path style="fill:none;stroke-width:2;stroke-linecap:square;stroke-linejoin:miter;stroke:rgb(0%,66.666667%,0%);stroke-opacity:1;stroke-miterlimit:3.25;" d="M 54.4375 46.253906 L 36.882812 69.835938 "/>
<path style="fill:none;stroke-width:2;stroke-linecap:square;stroke-linejoin:miter;stroke:rgb(0%,66.666667%,0%);stroke-opacity:1;stroke-miterlimit:3.25;" d="M 176.695312 70.015625 L 159.140625 93.597656 "/>
<path style="fill:none;stroke-width:0.2;stroke-linecap:square;stroke-linejoin:miter;stroke:rgb(50.000763%,50.000763%,50.000763%);stroke-opacity:0.5;stroke-miterlimit:3.25;" d="M -135.816406 134.707031 L 313.207031 134.707031 "/>
<path style="fill:none;stroke-width:0.2;stroke-linecap:square;stroke-linejoin:miter;stroke:rgb(50.000763%,50.000763%,50.000763%);stroke-opacity:0.5;stroke-miterlimit:3.25;" d="M 313.207031 314.359375 L 313.207031 134.707031 "/>
<path style=" stroke:none;fill-rule:nonzero;fill:rgb(50.000763%,50.000763%,50.000763%);fill-opacity:0.5;" d="M 313.207031 134.707031 L 313.304688 134.804688 L 313.304688 134.605469 L 313.207031 134.605469 Z M 313.207031 134.707031 "/>
<path style="fill:none;stroke-width:0.2;stroke-linecap:square;stroke-linejoin:miter;stroke:rgb(50.000763%,50.000763%,50.000763%);stroke-opacity:0.5;stroke-miterlimit:3.25;" d="M 313.207031 314.359375 L 313.207031 134.707031 "/>
<path style=" stroke:none;fill-rule:nonzero;fill:rgb(50.000763%,50.000763%,50.000763%);fill-opacity:0.5;" d="M 313.207031 134.707031 L 313.304688 134.804688 L 313.304688 134.605469 L 313.207031 134.605469 Z M 313.207031 134.707031 "/>
<path style="fill:none;stroke-width:0.2;stroke-linecap:square;stroke-linejoin:miter;stroke:rgb(50.000763%,50.000763%,50.000763%);stroke-opacity:0.5;stroke-miterlimit:3.25;" d="M -135.816406 22.449219 L 425.460938 22.449219 "/>
<path style="fill:none;stroke-width:0.2;stroke-linecap:square;stroke-linejoin:miter;stroke:rgb(50.000763%,50.000763%,50.000763%);stroke-opacity:0.5;stroke-miterlimit:3.25;" d="M -179.136719 202.808594 L 257.78125 99.253906 "/>
<path style="fill:none;stroke-width:0.2;stroke-linecap:square;stroke-linejoin:miter;stroke:rgb(50.000763%,50.000763%,50.000763%);stroke-opacity:0.5;stroke-miterlimit:3.25;" d="M 308.761719 314.359375 L 257.78125 99.253906 "/>
<path style=" stroke:none;fill-rule:nonzero;fill:rgb(50.000763%,50.000763%,50.000763%);fill-opacity:0.5;" d="M 257.78125 99.253906 L 257.878906 99.351562 L 257.855469 99.136719 L 257.757812 99.160156 Z M 257.78125 99.253906 "/>
<path style="fill:none;stroke-width:0.2;stroke-linecap:square;stroke-linejoin:miter;stroke:rgb(50.000763%,50.000763%,50.000763%);stroke-opacity:0.5;stroke-miterlimit:3.25;" d="M 308.761719 314.359375 L 257.78125 99.253906 "/>
<path style=" stroke:none;fill-rule:nonzero;fill:rgb(50.000763%,50.000763%,50.000763%);fill-opacity:0.5;" d="M 257.78125 99.253906 L 257.878906 99.351562 L 257.855469 99.136719 L 257.757812 99.160156 Z M 257.78125 99.253906 "/>
<path style="fill:none;stroke-width:0.2;stroke-linecap:square;stroke-linejoin:miter;stroke:rgb(50.000763%,50.000763%,50.000763%);stroke-opacity:0.5;stroke-miterlimit:3.25;" d="M -205.023438 93.578125 L 341.125 -35.863281 "/>
<path style="fill:none;stroke-width:0.2;stroke-linecap:square;stroke-linejoin:miter;stroke:rgb(50.000763%,50.000763%,50.000763%);stroke-opacity:0.5;stroke-miterlimit:3.25;" d="M 424.128906 314.359375 L 341.125 -35.863281 "/>
<path style="fill:none;stroke-width:0.2;stroke-linecap:square;stroke-linejoin:miter;stroke:rgb(50.000763%,50.000763%,50.000763%);stroke-opacity:0.5;stroke-miterlimit:3.25;" d="M 424.128906 314.359375 L 341.125 -35.863281 "/>
<path style="fill:none;stroke-width:0.2;stroke-linecap:square;stroke-linejoin:miter;stroke:rgb(50.000763%,50.000763%,50.000763%);stroke-opacity:0.5;stroke-miterlimit:3.25;" d="M -165.835938 276.675781 L 235.425781 75.15625 "/>
<path style="fill:none;stroke-width:0.2;stroke-linecap:square;stroke-linejoin:miter;stroke:rgb(50.000763%,50.000763%,50.000763%);stroke-opacity:0.5;stroke-miterlimit:3.25;" d="M 355.558594 314.359375 L 235.425781 75.15625 "/>
<path style=" stroke:none;fill-rule:nonzero;fill:rgb(50.000763%,50.000763%,50.000763%);fill-opacity:0.5;" d="M 235.425781 75.15625 L 235.515625 75.242188 L 235.46875 75.019531 L 235.382812 75.066406 Z M 235.425781 75.15625 "/>
<path style="fill:none;stroke-width:0.2;stroke-linecap:square;stroke-linejoin:miter;stroke:rgb(50.000763%,50.000763%,50.000763%);stroke-opacity:0.5;stroke-miterlimit:3.25;" d="M 355.558594 314.359375 L 235.425781 75.15625 "/>
<path style=" stroke:none;fill-rule:nonzero;fill:rgb(50.000763%,50.000763%,50.000763%);fill-opacity:0.5;" d="M 235.425781 75.15625 L 235.515625 75.242188 L 235.46875 75.019531 L 235.382812 75.066406 Z M 235.425781 75.15625 "/>
<path style="fill:none;stroke-width:0.2;stroke-linecap:square;stroke-linejoin:miter;stroke:rgb(50.000763%,50.000763%,50.000763%);stroke-opacity:0.5;stroke-miterlimit:3.25;" d="M -216.214844 176.359375 L 285.359375 -75.539062 "/>
<path style="fill:none;stroke-width:0.2;stroke-linecap:square;stroke-linejoin:miter;stroke:rgb(50.000763%,50.000763%,50.000763%);stroke-opacity:0.5;stroke-miterlimit:3.25;" d="M 481.175781 314.359375 L 285.359375 -75.539062 "/>
<path style="fill:none;stroke-width:0.2;stroke-linecap:square;stroke-linejoin:miter;stroke:rgb(50.000763%,50.000763%,50.000763%);stroke-opacity:0.5;stroke-miterlimit:3.25;" d="M 481.175781 314.359375 L 285.359375 -75.539062 "/>
<path style="fill:none;stroke-width:0.2;stroke-linecap:square;stroke-linejoin:miter;stroke:rgb(50.000763%,50.000763%,50.000763%);stroke-opacity:0.5;stroke-miterlimit:3.25;" d="M -90.4375 314.359375 L 206.722656 65.011719 "/>
<path style="fill:none;stroke-width:0.2;stroke-linecap:square;stroke-linejoin:miter;stroke:rgb(50.000763%,50.000763%,50.000763%);stroke-opacity:0.5;stroke-miterlimit:3.25;" d="M -90.4375 314.359375 L 206.722656 65.011719 "/>
<path style=" stroke:none;fill-rule:nonzero;fill:rgb(50.000763%,50.000763%,50.000763%);fill-opacity:0.5;" d="M 206.722656 65.011719 L 206.660156 64.945312 L 206.734375 64.871094 L 206.800781 64.945312 Z M 206.722656 65.011719 "/>
<path style="fill:none;stroke-width:0.2;stroke-linecap:square;stroke-linejoin:miter;stroke:rgb(50.000763%,50.000763%,50.000763%);stroke-opacity:0.5;stroke-miterlimit:3.25;" d="M 415.949219 314.359375 L 206.722656 65.011719 "/>
<path style="fill:none;stroke-width:0.2;stroke-linecap:square;stroke-linejoin:miter;stroke:rgb(50.000763%,50.000763%,50.000763%);stroke-opacity:0.5;stroke-miterlimit:3.25;" d="M 415.949219 314.359375 L 206.722656 65.011719 "/>
<path style="fill:none;stroke-width:0.2;stroke-linecap:square;stroke-linejoin:miter;stroke:rgb(50.000763%,50.000763%,50.000763%);stroke-opacity:0.5;stroke-miterlimit:3.25;" d="M -209.402344 267.644531 L 220.558594 -93.136719 "/>
<path style="fill:none;stroke-width:0.2;stroke-linecap:square;stroke-linejoin:miter;stroke:rgb(50.000763%,50.000763%,50.000763%);stroke-opacity:0.5;stroke-miterlimit:3.25;" d="M 562.488281 314.359375 L 220.558594 -93.136719 "/>
<path style="fill:none;stroke-width:0.2;stroke-linecap:square;stroke-linejoin:miter;stroke:rgb(50.000763%,50.000763%,50.000763%);stroke-opacity:0.5;stroke-miterlimit:3.25;" d="M 562.488281 314.359375 L 220.558594 -93.136719 "/>
<path style="fill:none;stroke-width:0.2;stroke-linecap:square;stroke-linejoin:miter;stroke:rgb(50.000763%,50.000763%,50.000763%);stroke-opacity:0.5;stroke-miterlimit:3.25;" d="M -5.210938 314.359375 L 176.695312 70.015625 "/>
<path style="fill:none;stroke-width:0.2;stroke-linecap:square;stroke-linejoin:miter;stroke:rgb(50.000763%,50.000763%,50.000763%);stroke-opacity:0.5;stroke-miterlimit:3.25;" d="M -5.210938 314.359375 L 176.695312 70.015625 "/>
<path style=" stroke:none;fill-rule:nonzero;fill:rgb(50.000763%,50.000763%,50.000763%);fill-opacity:0.5;" d="M 176.695312 70.015625 L 176.613281 69.9375 L 176.675781 69.875 L 176.753906 69.9375 Z M 176.695312 70.015625 "/>
<path style="fill:none;stroke-width:0.2;stroke-linecap:square;stroke-linejoin:miter;stroke:rgb(50.000763%,50.000763%,50.000763%);stroke-opacity:0.5;stroke-miterlimit:3.25;" d="M 504.902344 314.359375 L 176.695312 70.015625 "/>
<path style="fill:none;stroke-width:0.2;stroke-linecap:square;stroke-linejoin:miter;stroke:rgb(50.000763%,50.000763%,50.000763%);stroke-opacity:0.5;stroke-miterlimit:3.25;" d="M 504.902344 314.359375 L 176.695312 70.015625 "/>
<path style="fill:none;stroke-width:0.2;stroke-linecap:square;stroke-linejoin:miter;stroke:rgb(50.000763%,50.000763%,50.000763%);stroke-opacity:0.5;stroke-miterlimit:3.25;" d="M -145.15625 314.359375 L 153.6875 -87.058594 "/>
<path style="fill:none;stroke-width:0.2;stroke-linecap:square;stroke-linejoin:miter;stroke:rgb(50.000763%,50.000763%,50.000763%);stroke-opacity:0.5;stroke-miterlimit:3.25;" d="M -145.15625 314.359375 L 153.6875 -87.058594 "/>
<path style="fill:none;stroke-width:0.2;stroke-linecap:square;stroke-linejoin:miter;stroke:rgb(50.000763%,50.000763%,50.000763%);stroke-opacity:0.5;stroke-miterlimit:3.25;" d="M 153.6875 -87.058594 L 603.898438 248.109375 "/>
<path style="fill:none;stroke-width:0.2;stroke-linecap:square;stroke-linejoin:miter;stroke:rgb(50.000763%,50.000763%,50.000763%);stroke-opacity:0.5;stroke-miterlimit:3.25;" d="M 53.660156 314.359375 L 150.492188 89.867188 "/>
<path style="fill:none;stroke-width:0.2;stroke-linecap:square;stroke-linejoin:miter;stroke:rgb(50.000763%,50.000763%,50.000763%);stroke-opacity:0.5;stroke-miterlimit:3.25;" d="M 53.660156 314.359375 L 150.492188 89.867188 "/>
<path style=" stroke:none;fill-rule:nonzero;fill:rgb(50.000763%,50.000763%,50.000763%);fill-opacity:0.5;" d="M 150.492188 89.867188 L 150.402344 89.777344 L 150.441406 89.738281 L 150.535156 89.777344 Z M 150.492188 89.867188 "/>
<path style="fill:none;stroke-width:0.2;stroke-linecap:square;stroke-linejoin:miter;stroke:rgb(50.000763%,50.000763%,50.000763%);stroke-opacity:0.5;stroke-miterlimit:3.25;" d="M 150.492188 89.867188 L 562.792969 267.71875 "/>
<path style="fill:none;stroke-width:0.2;stroke-linecap:square;stroke-linejoin:miter;stroke:rgb(50.000763%,50.000763%,50.000763%);stroke-opacity:0.5;stroke-miterlimit:3.25;" d="M -68.59375 314.359375 L 91.882812 -57.667969 "/>
<path style="fill:none;stroke-width:0.2;stroke-linecap:square;stroke-linejoin:miter;stroke:rgb(50.000763%,50.000763%,50.000763%);stroke-opacity:0.5;stroke-miterlimit:3.25;" d="M -68.59375 314.359375 L 91.882812 -57.667969 "/>
<path style="fill:none;stroke-width:0.2;stroke-linecap:square;stroke-linejoin:miter;stroke:rgb(50.000763%,50.000763%,50.000763%);stroke-opacity:0.5;stroke-miterlimit:3.25;" d="M 91.882812 -57.667969 L 607.253906 164.644531 "/>
<path style="fill:none;stroke-width:0.2;stroke-linecap:square;stroke-linejoin:miter;stroke:rgb(50.000763%,50.000763%,50.000763%);stroke-opacity:0.5;stroke-miterlimit:3.25;" d="M 54.632812 314.359375 L 89.757812 115.15625 "/>
<path style="fill:none;stroke-width:0.2;stroke-linecap:square;stroke-linejoin:miter;stroke:rgb(50.000763%,50.000763%,50.000763%);stroke-opacity:0.5;stroke-miterlimit:3.25;" d="M 54.632812 314.359375 L 89.757812 115.15625 "/>
<path style=" stroke:none;fill-rule:nonzero;fill:rgb(50.000763%,50.000763%,50.000763%);fill-opacity:0.5;" d="M 89.757812 115.15625 L 89.65625 115.058594 L 89.675781 115.042969 L 89.773438 115.058594 Z M 89.757812 115.15625 "/>
<path style="fill:none;stroke-width:0.2;stroke-linecap:square;stroke-linejoin:miter;stroke:rgb(50.000763%,50.000763%,50.000763%);stroke-opacity:0.5;stroke-miterlimit:3.25;" d="M 89.757812 115.15625 L 531.957031 193.128906 "/>
<path style="fill:none;stroke-width:0.2;stroke-linecap:square;stroke-linejoin:miter;stroke:rgb(50.000763%,50.000763%,50.000763%);stroke-opacity:0.5;stroke-miterlimit:3.25;" d="M -1.300781 -14.886719 L 551.449219 82.578125 "/>
</g>
</svg>
