<?xml version="1.0" encoding="UTF-8"?>
<svg xmlns="http://www.w3.org/2000/svg" xmlns:xlink="http://www.w3.org/1999/xlink" width="404pt" height="90pt" viewBox="0 0 404 90" version="1.1">
<defs>
<clipPath id="clip1">
  <path d="M 11.519531 14 L 195.601562 14 L 195.601562 76 L 11.519531 76 Z M 11.519531 14 "/>
</clipPath>
<clipPath id="clip2">
  <path d="M 22 39 L 82 39 L 82 83.28125 L 22 83.28125 Z M 22 39 "/>
</clipPath>
<clipPath id="clip3">
  <path d="M 80 39 L 195.601562 39 L 195.601562 83.28125 L 80 83.28125 Z M 80 39 "/>
</clipPath>
<clipPath id="clip4">
  <path d="M 11.519531 6.480469 L 59 6.480469 L 59 83.28125 L 11.519531 83.28125 Z M 11.519531 6.480469 "/>
</clipPath>
<clipPath id="clip5">
  <path d="M 56 6.480469 L 195.601562 6.480469 L 195.601562 83.28125 L 56 83.28125 Z M 56 6.480469 "/>
</clipPath>
<clipPath id="clip6">
  <path d="M 11.519531 70 L 155 70 L 155 71 L 11.519531 71 Z M 11.519531 70 "/>
</clipPath>
<clipPath id="clip7">
  <path d="M 154 70 L 155 70 L 155 83.28125 L 154 83.28125 Z M 154 70 "/>
</clipPath>
<clipPath id="clip8">
  <path d="M 154 70 L 155 70 L 155 83.28125 L 154 83.28125 Z M 154 70 "/>
</clipPath>
<clipPath id="clip9">
  <path d="M 11.519531 19 L 195.601562 19 L 195.601562 20 L 11.519531 20 Z M 11.519531 19 "/>
</clipPath>
<clipPath id="clip10">
  <path d="M 11.519531 52 L 138 52 L 138 83.28125 L 11.519531 83.28125 Z M 11.519531 52 "/>
</clipPath>
<clipPath id="clip11">
  <path d="M 135 52 L 162 52 L 162 83.28125 L 135 83.28125 Z M 135 52 "/>
</clipPath>
<clipPath id="clip12">
  <path d="M 135 52 L 162 52 L 162 83.28125 L 135 83.28125 Z M 135 52 "/>
</clipPath>
<clipPath id="clip13">
  <path d="M 11.519531 6.480469 L 176 6.480469 L 176 50 L 11.519531 50 Z M 11.519531 6.480469 "/>
</clipPath>
<clipPath id="clip14">
  <path d="M 173 6.480469 L 195.601562 6.480469 L 195.601562 83.28125 L 173 83.28125 Z M 173 6.480469 "/>
</clipPath>
<clipPath id="clip15">
  <path d="M 11.519531 39 L 127 39 L 127 83.28125 L 11.519531 83.28125 Z M 11.519531 39 "/>
</clipPath>
<clipPath id="clip16">
  <path d="M 124 39 L 184 39 L 184 83.28125 L 124 83.28125 Z M 124 39 "/>
</clipPath>
<clipPath id="clip17">
  <path d="M 124 39 L 184 39 L 184 83.28125 L 124 83.28125 Z M 124 39 "/>
</clipPath>
<clipPath id="clip18">
  <path d="M 11.519531 6.480469 L 151 6.480469 L 151 83.28125 L 11.519531 83.28125 Z M 11.519531 6.480469 "/>
</clipPath>
<clipPath id="clip19">
  <path d="M 148 6.480469 L 195.601562 6.480469 L 195.601562 83.28125 L 148 83.28125 Z M 148 6.480469 "/>
</clipPath>
<clipPath id="clip20">
  <path d="M 11.519531 32 L 112 32 L 112 83.28125 L 11.519531 83.28125 Z M 11.519531 32 "/>
</clipPath>
<clipPath id="clip21">
  <path d="M 110 32 L 195.601562 32 L 195.601562 83.28125 L 110 83.28125 Z M 110 32 "/>
</clipPath>
<clipPath id="clip22">
  <path d="M 11.519531 6.480469 L 121 6.480469 L 121 83.28125 L 11.519531 83.28125 Z M 11.519531 6.480469 "/>
</clipPath>
<clipPath id="clip23">
  <path d="M 118 6.480469 L 195.601562 6.480469 L 195.601562 83.28125 L 118 83.28125 Z M 118 6.480469 "/>
</clipPath>
<clipPath id="clip24">
  <path d="M 11.519531 32 L 97 32 L 97 83.28125 L 11.519531 83.28125 Z M 11.519531 32 "/>
</clipPath>
<clipPath id="clip25">
  <path d="M 94 32 L 195.601562 32 L 195.601562 83.28125 L 94 83.28125 Z M 94 32 "/>
</clipPath>
<clipPath id="clip26">
  <path d="M 11.519531 6.480469 L 89 6.480469 L 89 83.28125 L 11.519531 83.28125 Z M 11.519531 6.480469 "/>
</clipPath>
<clipPath id="clip27">
  <path d="M 86 6.480469 L 195.601562 6.480469 L 195.601562 83.28125 L 86 83.28125 Z M 86 6.480469 "/>
</clipPath>
<clipPath id="clip28">
  <path d="M 22 39 L 82 39 L 82 83.28125 L 22 83.28125 Z M 22 39 "/>
</clipPath>
<clipPath id="clip29">
  <path d="M 80 39 L 195.601562 39 L 195.601562 83.28125 L 80 83.28125 Z M 80 39 "/>
</clipPath>
<clipPath id="clip30">
  <path d="M 11.519531 6.480469 L 59 6.480469 L 59 83.28125 L 11.519531 83.28125 Z M 11.519531 6.480469 "/>
</clipPath>
<clipPath id="clip31">
  <path d="M 56 6.480469 L 195.601562 6.480469 L 195.601562 83.28125 L 56 83.28125 Z M 56 6.480469 "/>
</clipPath>
<clipPath id="clip32">
  <path d="M 44 52 L 72 52 L 72 83.28125 L 44 83.28125 Z M 44 52 "/>
</clipPath>
<clipPath id="clip33">
  <path d="M 69 52 L 195.601562 52 L 195.601562 83.28125 L 69 83.28125 Z M 69 52 "/>
</clipPath>
<clipPath id="clip34">
  <path d="M 11.519531 6.480469 L 33 6.480469 L 33 83.28125 L 11.519531 83.28125 Z M 11.519531 6.480469 "/>
</clipPath>
<clipPath id="clip35">
  <path d="M 30 6.480469 L 195.601562 6.480469 L 195.601562 50 L 30 50 Z M 30 6.480469 "/>
</clipPath>
<clipPath id="clip36">
  <path d="M 51 70 L 52 70 L 52 83.28125 L 51 83.28125 Z M 51 70 "/>
</clipPath>
<clipPath id="clip37">
  <path d="M 51 70 L 195.601562 70 L 195.601562 71 L 51 71 Z M 51 70 "/>
</clipPath>
<clipPath id="clip38">
  <path d="M 11.519531 19 L 195.601562 19 L 195.601562 20 L 11.519531 20 Z M 11.519531 19 "/>
</clipPath>
<clipPath id="clip39">
  <path d="M 208.078125 6.480469 L 392.160156 6.480469 L 392.160156 83.28125 L 208.078125 83.28125 Z M 208.078125 6.480469 "/>
</clipPath>
<clipPath id="clip40">
  <path d="M 220 39 L 286 39 L 286 83.28125 L 220 83.28125 Z M 220 39 "/>
</clipPath>
<clipPath id="clip41">
  <path d="M 276 39 L 392.160156 39 L 392.160156 83.28125 L 276 83.28125 Z M 276 39 "/>
</clipPath>
<clipPath id="clip42">
  <path d="M 208.078125 6.480469 L 392.160156 6.480469 L 392.160156 83.28125 L 208.078125 83.28125 Z M 208.078125 6.480469 "/>
</clipPath>
</defs>
<g id="surface551">
<path style=" stroke:none;fill-rule:nonzero;fill:rgb(100%,100%,86.999313%);fill-opacity:1;" d="M 192.726562 70.472656 L 189.195312 55.015625 L 182.542969 41.195312 L 174.550781 31.175781 L 166.785156 24.984375 L 158.617188 21.046875 L 150.863281 19.277344 L 55.601562 19.277344 L 47.847656 21.046875 L 39.675781 24.984375 L 31.914062 31.175781 L 23.921875 41.195312 L 17.265625 55.015625 L 13.738281 70.472656 L 61.367188 70.472656 L 64.863281 69.675781 L 66.625 68.828125 L 70.152344 53.367188 L 74.410156 54.339844 L 81.066406 40.523438 L 87.476562 43.609375 L 95.46875 33.589844 L 103.230469 39.78125 L 110.996094 33.589844 L 118.988281 43.609375 L 125.398438 40.523438 L 132.050781 54.339844 L 136.3125 53.367188 L 139.839844 68.828125 L 141.601562 69.675781 L 145.09375 70.472656 Z M 192.726562 70.472656 "/>
<g clip-path="url(#clip1)" clip-rule="nonzero">
<path style="fill:none;stroke-width:1;stroke-linecap:square;stroke-linejoin:miter;stroke:rgb(0%,0%,0%);stroke-opacity:1;stroke-miterlimit:3.25;" d="M 192.726562 70.472656 L 189.195312 55.015625 L 182.542969 41.195312 L 174.550781 31.175781 L 166.785156 24.984375 L 158.617188 21.046875 L 150.863281 19.277344 L 55.601562 19.277344 L 47.847656 21.046875 L 39.675781 24.984375 L 31.914062 31.175781 L 23.921875 41.195312 L 17.265625 55.015625 L 13.738281 70.472656 L 61.367188 70.472656 L 64.863281 69.675781 L 66.625 68.828125 L 70.152344 53.367188 L 74.410156 54.339844 L 81.066406 40.523438 L 87.476562 43.609375 L 95.46875 33.589844 L 103.230469 39.78125 L 110.996094 33.589844 L 118.988281 43.609375 L 125.398438 40.523438 L 132.050781 54.339844 L 136.3125 53.367188 L 139.839844 68.828125 L 141.601562 69.675781 L 145.09375 70.472656 Z M 192.726562 70.472656 "/>
</g>
<g clip-path="url(#clip2)" clip-rule="nonzero">
<path style="fill:none;stroke-width:0.2;stroke-linecap:square;stroke-linejoin:miter;stroke:rgb(30.000763%,76.665904%,30.000763%);stroke-opacity:1;stroke-miterlimit:3.25;" d="M 23.496094 160.070312 L 81.066406 40.523438 "/>
<path style="fill:none;stroke-width:0.2;stroke-linecap:square;stroke-linejoin:miter;stroke:rgb(30.000763%,76.665904%,30.000763%);stroke-opacity:1;stroke-miterlimit:3.25;" d="M 23.496094 160.070312 L 81.066406 40.523438 "/>
</g>
<path style=" stroke:none;fill-rule:nonzero;fill:rgb(30.000763%,76.665904%,30.000763%);fill-opacity:1;" d="M 81.066406 40.523438 L 80.976562 40.433594 L 81.019531 40.390625 L 81.109375 40.433594 Z M 81.066406 40.523438 "/>
<g clip-path="url(#clip3)" clip-rule="nonzero">
<path style="fill:none;stroke-width:0.2;stroke-linecap:square;stroke-linejoin:miter;stroke:rgb(30.000763%,76.665904%,30.000763%);stroke-opacity:1;stroke-miterlimit:3.25;" d="M 81.066406 40.523438 L 265.5625 129.371094 "/>
</g>
<g clip-path="url(#clip4)" clip-rule="nonzero">
<path style="fill:none;stroke-width:0.2;stroke-linecap:square;stroke-linejoin:miter;stroke:rgb(30.000763%,76.665904%,30.000763%);stroke-opacity:1;stroke-miterlimit:3.25;" d="M -33.328125 160.070312 L 57.152344 -27.8125 "/>
<path style="fill:none;stroke-width:0.2;stroke-linecap:square;stroke-linejoin:miter;stroke:rgb(30.000763%,76.665904%,30.000763%);stroke-opacity:1;stroke-miterlimit:3.25;" d="M -33.328125 160.070312 L 57.152344 -27.8125 "/>
</g>
<g clip-path="url(#clip5)" clip-rule="nonzero">
<path style="fill:none;stroke-width:0.2;stroke-linecap:square;stroke-linejoin:miter;stroke:rgb(30.000763%,76.665904%,30.000763%);stroke-opacity:1;stroke-miterlimit:3.25;" d="M 57.152344 -27.8125 L 287.777344 83.25 "/>
</g>
<path style="fill:none;stroke-width:1;stroke-linecap:square;stroke-linejoin:miter;stroke:rgb(0%,0%,100%);stroke-opacity:1;stroke-miterlimit:3.25;" d="M 55.601562 19.277344 L 150.863281 19.277344 "/>
<path style="fill:none;stroke-width:1;stroke-linecap:square;stroke-linejoin:miter;stroke:rgb(0%,0%,100%);stroke-opacity:1;stroke-miterlimit:3.25;" d="M 192.726562 70.472656 L 145.09375 70.472656 "/>
<path style="fill:none;stroke-width:1;stroke-linecap:square;stroke-linejoin:miter;stroke:rgb(0%,0%,100%);stroke-opacity:1;stroke-miterlimit:3.25;" d="M 61.367188 70.472656 L 13.738281 70.472656 "/>
<path style="fill:none;stroke-width:1;stroke-linecap:square;stroke-linejoin:miter;stroke:rgb(0%,66.666667%,0%);stroke-opacity:1;stroke-miterlimit:3.25;" d="M 166.785156 24.984375 L 158.617188 21.046875 "/>
<path style="fill:none;stroke-width:1;stroke-linecap:square;stroke-linejoin:miter;stroke:rgb(0%,66.666667%,0%);stroke-opacity:1;stroke-miterlimit:3.25;" d="M 139.839844 68.828125 L 141.601562 69.675781 "/>
<path style="fill:none;stroke-width:1;stroke-linecap:square;stroke-linejoin:miter;stroke:rgb(0%,66.666667%,0%);stroke-opacity:1;stroke-miterlimit:3.25;" d="M 81.066406 40.523438 L 87.476562 43.609375 "/>
<g clip-path="url(#clip6)" clip-rule="nonzero">
<path style="fill:none;stroke-width:0.2;stroke-linecap:square;stroke-linejoin:miter;stroke:rgb(50.000763%,50.000763%,50.000763%);stroke-opacity:0.5;stroke-miterlimit:3.25;" d="M -50.03125 70.472656 L 154.746094 70.472656 "/>
</g>
<g clip-path="url(#clip7)" clip-rule="nonzero">
<path style="fill:none;stroke-width:0.2;stroke-linecap:square;stroke-linejoin:miter;stroke:rgb(50.000763%,50.000763%,50.000763%);stroke-opacity:0.5;stroke-miterlimit:3.25;" d="M 154.746094 160.070312 L 154.746094 70.472656 "/>
</g>
<path style=" stroke:none;fill-rule:nonzero;fill:rgb(50.000763%,50.000763%,50.000763%);fill-opacity:0.5;" d="M 154.746094 70.472656 L 154.84375 70.574219 L 154.84375 70.371094 L 154.746094 70.371094 Z M 154.746094 70.472656 "/>
<g clip-path="url(#clip8)" clip-rule="nonzero">
<path style="fill:none;stroke-width:0.2;stroke-linecap:square;stroke-linejoin:miter;stroke:rgb(50.000763%,50.000763%,50.000763%);stroke-opacity:0.5;stroke-miterlimit:3.25;" d="M 154.746094 160.070312 L 154.746094 70.472656 "/>
</g>
<path style=" stroke:none;fill-rule:nonzero;fill:rgb(50.000763%,50.000763%,50.000763%);fill-opacity:0.5;" d="M 154.746094 70.472656 L 154.84375 70.574219 L 154.84375 70.371094 L 154.746094 70.371094 Z M 154.746094 70.472656 "/>
<g clip-path="url(#clip9)" clip-rule="nonzero">
<path style="fill:none;stroke-width:0.2;stroke-linecap:square;stroke-linejoin:miter;stroke:rgb(50.000763%,50.000763%,50.000763%);stroke-opacity:0.5;stroke-miterlimit:3.25;" d="M -50.03125 19.277344 L 205.9375 19.277344 "/>
</g>
<g clip-path="url(#clip10)" clip-rule="nonzero">
<path style="fill:none;stroke-width:0.2;stroke-linecap:square;stroke-linejoin:miter;stroke:rgb(50.000763%,50.000763%,50.000763%);stroke-opacity:0.5;stroke-miterlimit:3.25;" d="M -63.332031 98.933594 L 136.3125 53.367188 "/>
</g>
<g clip-path="url(#clip11)" clip-rule="nonzero">
<path style="fill:none;stroke-width:0.2;stroke-linecap:square;stroke-linejoin:miter;stroke:rgb(50.000763%,50.000763%,50.000763%);stroke-opacity:0.5;stroke-miterlimit:3.25;" d="M 160.664062 160.070312 L 136.3125 53.367188 "/>
</g>
<path style=" stroke:none;fill-rule:nonzero;fill:rgb(50.000763%,50.000763%,50.000763%);fill-opacity:0.5;" d="M 136.3125 53.367188 L 136.410156 53.464844 L 136.386719 53.25 L 136.289062 53.269531 Z M 136.3125 53.367188 "/>
<g clip-path="url(#clip12)" clip-rule="nonzero">
<path style="fill:none;stroke-width:0.2;stroke-linecap:square;stroke-linejoin:miter;stroke:rgb(50.000763%,50.000763%,50.000763%);stroke-opacity:0.5;stroke-miterlimit:3.25;" d="M 160.664062 160.070312 L 136.3125 53.367188 "/>
</g>
<path style=" stroke:none;fill-rule:nonzero;fill:rgb(50.000763%,50.000763%,50.000763%);fill-opacity:0.5;" d="M 136.3125 53.367188 L 136.410156 53.464844 L 136.386719 53.25 L 136.289062 53.269531 Z M 136.3125 53.367188 "/>
<g clip-path="url(#clip13)" clip-rule="nonzero">
<path style="fill:none;stroke-width:0.2;stroke-linecap:square;stroke-linejoin:miter;stroke:rgb(50.000763%,50.000763%,50.000763%);stroke-opacity:0.5;stroke-miterlimit:3.25;" d="M -74.722656 49.023438 L 174.828125 -7.933594 "/>
</g>
<g clip-path="url(#clip14)" clip-rule="nonzero">
<path style="fill:none;stroke-width:0.2;stroke-linecap:square;stroke-linejoin:miter;stroke:rgb(50.000763%,50.000763%,50.000763%);stroke-opacity:0.5;stroke-miterlimit:3.25;" d="M 213.175781 160.070312 L 174.828125 -7.933594 "/>
<path style="fill:none;stroke-width:0.2;stroke-linecap:square;stroke-linejoin:miter;stroke:rgb(50.000763%,50.000763%,50.000763%);stroke-opacity:0.5;stroke-miterlimit:3.25;" d="M 213.175781 160.070312 L 174.828125 -7.933594 "/>
</g>
<g clip-path="url(#clip15)" clip-rule="nonzero">
<path style="fill:none;stroke-width:0.2;stroke-linecap:square;stroke-linejoin:miter;stroke:rgb(50.000763%,50.000763%,50.000763%);stroke-opacity:0.5;stroke-miterlimit:3.25;" d="M -59.101562 129.371094 L 125.398438 40.523438 "/>
</g>
<g clip-path="url(#clip16)" clip-rule="nonzero">
<path style="fill:none;stroke-width:0.2;stroke-linecap:square;stroke-linejoin:miter;stroke:rgb(50.000763%,50.000763%,50.000763%);stroke-opacity:0.5;stroke-miterlimit:3.25;" d="M 182.96875 160.070312 L 125.398438 40.523438 "/>
</g>
<path style=" stroke:none;fill-rule:nonzero;fill:rgb(50.000763%,50.000763%,50.000763%);fill-opacity:0.5;" d="M 125.398438 40.523438 L 125.488281 40.613281 L 125.445312 40.390625 L 125.355469 40.433594 Z M 125.398438 40.523438 "/>
<g clip-path="url(#clip17)" clip-rule="nonzero">
<path style="fill:none;stroke-width:0.2;stroke-linecap:square;stroke-linejoin:miter;stroke:rgb(50.000763%,50.000763%,50.000763%);stroke-opacity:0.5;stroke-miterlimit:3.25;" d="M 182.96875 160.070312 L 125.398438 40.523438 "/>
</g>
<path style=" stroke:none;fill-rule:nonzero;fill:rgb(50.000763%,50.000763%,50.000763%);fill-opacity:0.5;" d="M 125.398438 40.523438 L 125.488281 40.613281 L 125.445312 40.390625 L 125.355469 40.433594 Z M 125.398438 40.523438 "/>
<g clip-path="url(#clip18)" clip-rule="nonzero">
<path style="fill:none;stroke-width:0.2;stroke-linecap:square;stroke-linejoin:miter;stroke:rgb(50.000763%,50.000763%,50.000763%);stroke-opacity:0.5;stroke-miterlimit:3.25;" d="M -81.3125 83.25 L 149.308594 -27.8125 "/>
</g>
<g clip-path="url(#clip19)" clip-rule="nonzero">
<path style="fill:none;stroke-width:0.2;stroke-linecap:square;stroke-linejoin:miter;stroke:rgb(50.000763%,50.000763%,50.000763%);stroke-opacity:0.5;stroke-miterlimit:3.25;" d="M 239.789062 160.070312 L 149.308594 -27.8125 "/>
<path style="fill:none;stroke-width:0.2;stroke-linecap:square;stroke-linejoin:miter;stroke:rgb(50.000763%,50.000763%,50.000763%);stroke-opacity:0.5;stroke-miterlimit:3.25;" d="M 239.789062 160.070312 L 149.308594 -27.8125 "/>
</g>
<g clip-path="url(#clip20)" clip-rule="nonzero">
<path style="fill:none;stroke-width:0.2;stroke-linecap:square;stroke-linejoin:miter;stroke:rgb(50.000763%,50.000763%,50.000763%);stroke-opacity:0.5;stroke-miterlimit:3.25;" d="M -47.609375 160.070312 L 110.996094 33.589844 "/>
<path style="fill:none;stroke-width:0.2;stroke-linecap:square;stroke-linejoin:miter;stroke:rgb(50.000763%,50.000763%,50.000763%);stroke-opacity:0.5;stroke-miterlimit:3.25;" d="M -47.609375 160.070312 L 110.996094 33.589844 "/>
</g>
<path style=" stroke:none;fill-rule:nonzero;fill:rgb(50.000763%,50.000763%,50.000763%);fill-opacity:0.5;" d="M 110.996094 33.589844 L 110.933594 33.527344 L 111.011719 33.449219 L 111.074219 33.527344 Z M 110.996094 33.589844 "/>
<g clip-path="url(#clip21)" clip-rule="nonzero">
<path style="fill:none;stroke-width:0.2;stroke-linecap:square;stroke-linejoin:miter;stroke:rgb(50.000763%,50.000763%,50.000763%);stroke-opacity:0.5;stroke-miterlimit:3.25;" d="M 211.863281 160.070312 L 110.996094 33.589844 "/>
<path style="fill:none;stroke-width:0.2;stroke-linecap:square;stroke-linejoin:miter;stroke:rgb(50.000763%,50.000763%,50.000763%);stroke-opacity:0.5;stroke-miterlimit:3.25;" d="M 211.863281 160.070312 L 110.996094 33.589844 "/>
</g>
<g clip-path="url(#clip22)" clip-rule="nonzero">
<path style="fill:none;stroke-width:0.2;stroke-linecap:square;stroke-linejoin:miter;stroke:rgb(50.000763%,50.000763%,50.000763%);stroke-opacity:0.5;stroke-miterlimit:3.25;" d="M -81.023438 121.238281 L 119.101562 -38.355469 "/>
</g>
<g clip-path="url(#clip23)" clip-rule="nonzero">
<path style="fill:none;stroke-width:0.2;stroke-linecap:square;stroke-linejoin:miter;stroke:rgb(50.000763%,50.000763%,50.000763%);stroke-opacity:0.5;stroke-miterlimit:3.25;" d="M 277.34375 160.070312 L 119.101562 -38.355469 "/>
<path style="fill:none;stroke-width:0.2;stroke-linecap:square;stroke-linejoin:miter;stroke:rgb(50.000763%,50.000763%,50.000763%);stroke-opacity:0.5;stroke-miterlimit:3.25;" d="M 277.34375 160.070312 L 119.101562 -38.355469 "/>
</g>
<g clip-path="url(#clip24)" clip-rule="nonzero">
<path style="fill:none;stroke-width:0.2;stroke-linecap:square;stroke-linejoin:miter;stroke:rgb(50.000763%,50.000763%,50.000763%);stroke-opacity:0.5;stroke-miterlimit:3.25;" d="M -5.398438 160.070312 L 95.46875 33.589844 "/>
<path style="fill:none;stroke-width:0.2;stroke-linecap:square;stroke-linejoin:miter;stroke:rgb(50.000763%,50.000763%,50.000763%);stroke-opacity:0.5;stroke-miterlimit:3.25;" d="M -5.398438 160.070312 L 95.46875 33.589844 "/>
</g>
<path style=" stroke:none;fill-rule:nonzero;fill:rgb(50.000763%,50.000763%,50.000763%);fill-opacity:0.5;" d="M 95.46875 33.589844 L 95.390625 33.511719 L 95.453125 33.449219 L 95.53125 33.511719 Z M 95.46875 33.589844 "/>
<g clip-path="url(#clip25)" clip-rule="nonzero">
<path style="fill:none;stroke-width:0.2;stroke-linecap:square;stroke-linejoin:miter;stroke:rgb(50.000763%,50.000763%,50.000763%);stroke-opacity:0.5;stroke-miterlimit:3.25;" d="M 254.074219 160.070312 L 95.46875 33.589844 "/>
<path style="fill:none;stroke-width:0.2;stroke-linecap:square;stroke-linejoin:miter;stroke:rgb(50.000763%,50.000763%,50.000763%);stroke-opacity:0.5;stroke-miterlimit:3.25;" d="M 254.074219 160.070312 L 95.46875 33.589844 "/>
</g>
<g clip-path="url(#clip26)" clip-rule="nonzero">
<path style="fill:none;stroke-width:0.2;stroke-linecap:square;stroke-linejoin:miter;stroke:rgb(50.000763%,50.000763%,50.000763%);stroke-opacity:0.5;stroke-miterlimit:3.25;" d="M -70.878906 160.070312 L 87.363281 -38.355469 "/>
<path style="fill:none;stroke-width:0.2;stroke-linecap:square;stroke-linejoin:miter;stroke:rgb(50.000763%,50.000763%,50.000763%);stroke-opacity:0.5;stroke-miterlimit:3.25;" d="M -70.878906 160.070312 L 87.363281 -38.355469 "/>
</g>
<g clip-path="url(#clip27)" clip-rule="nonzero">
<path style="fill:none;stroke-width:0.2;stroke-linecap:square;stroke-linejoin:miter;stroke:rgb(50.000763%,50.000763%,50.000763%);stroke-opacity:0.5;stroke-miterlimit:3.25;" d="M 87.363281 -38.355469 L 287.488281 121.238281 "/>
</g>
<g clip-path="url(#clip28)" clip-rule="nonzero">
<path style="fill:none;stroke-width:0.2;stroke-linecap:square;stroke-linejoin:miter;stroke:rgb(50.000763%,50.000763%,50.000763%);stroke-opacity:0.5;stroke-miterlimit:3.25;" d="M 23.496094 160.070312 L 81.066406 40.523438 "/>
<path style="fill:none;stroke-width:0.2;stroke-linecap:square;stroke-linejoin:miter;stroke:rgb(50.000763%,50.000763%,50.000763%);stroke-opacity:0.5;stroke-miterlimit:3.25;" d="M 23.496094 160.070312 L 81.066406 40.523438 "/>
</g>
<path style=" stroke:none;fill-rule:nonzero;fill:rgb(50.000763%,50.000763%,50.000763%);fill-opacity:0.5;" d="M 81.066406 40.523438 L 80.976562 40.433594 L 81.019531 40.390625 L 81.109375 40.433594 Z M 81.066406 40.523438 "/>
<g clip-path="url(#clip29)" clip-rule="nonzero">
<path style="fill:none;stroke-width:0.2;stroke-linecap:square;stroke-linejoin:miter;stroke:rgb(50.000763%,50.000763%,50.000763%);stroke-opacity:0.5;stroke-miterlimit:3.25;" d="M 81.066406 40.523438 L 265.5625 129.371094 "/>
</g>
<g clip-path="url(#clip30)" clip-rule="nonzero">
<path style="fill:none;stroke-width:0.2;stroke-linecap:square;stroke-linejoin:miter;stroke:rgb(50.000763%,50.000763%,50.000763%);stroke-opacity:0.5;stroke-miterlimit:3.25;" d="M -33.328125 160.070312 L 57.152344 -27.8125 "/>
<path style="fill:none;stroke-width:0.2;stroke-linecap:square;stroke-linejoin:miter;stroke:rgb(50.000763%,50.000763%,50.000763%);stroke-opacity:0.5;stroke-miterlimit:3.25;" d="M -33.328125 160.070312 L 57.152344 -27.8125 "/>
</g>
<g clip-path="url(#clip31)" clip-rule="nonzero">
<path style="fill:none;stroke-width:0.2;stroke-linecap:square;stroke-linejoin:miter;stroke:rgb(50.000763%,50.000763%,50.000763%);stroke-opacity:0.5;stroke-miterlimit:3.25;" d="M 57.152344 -27.8125 L 287.777344 83.25 "/>
</g>
<g clip-path="url(#clip32)" clip-rule="nonzero">
<path style="fill:none;stroke-width:0.2;stroke-linecap:square;stroke-linejoin:miter;stroke:rgb(50.000763%,50.000763%,50.000763%);stroke-opacity:0.5;stroke-miterlimit:3.25;" d="M 45.796875 160.070312 L 70.152344 53.367188 "/>
<path style="fill:none;stroke-width:0.2;stroke-linecap:square;stroke-linejoin:miter;stroke:rgb(50.000763%,50.000763%,50.000763%);stroke-opacity:0.5;stroke-miterlimit:3.25;" d="M 45.796875 160.070312 L 70.152344 53.367188 "/>
</g>
<path style=" stroke:none;fill-rule:nonzero;fill:rgb(50.000763%,50.000763%,50.000763%);fill-opacity:0.5;" d="M 70.152344 53.367188 L 70.054688 53.269531 L 70.078125 53.25 L 70.175781 53.269531 Z M 70.152344 53.367188 "/>
<g clip-path="url(#clip33)" clip-rule="nonzero">
<path style="fill:none;stroke-width:0.2;stroke-linecap:square;stroke-linejoin:miter;stroke:rgb(50.000763%,50.000763%,50.000763%);stroke-opacity:0.5;stroke-miterlimit:3.25;" d="M 70.152344 53.367188 L 269.796875 98.933594 "/>
</g>
<g clip-path="url(#clip34)" clip-rule="nonzero">
<path style="fill:none;stroke-width:0.2;stroke-linecap:square;stroke-linejoin:miter;stroke:rgb(50.000763%,50.000763%,50.000763%);stroke-opacity:0.5;stroke-miterlimit:3.25;" d="M -6.710938 160.070312 L 31.632812 -7.933594 "/>
<path style="fill:none;stroke-width:0.2;stroke-linecap:square;stroke-linejoin:miter;stroke:rgb(50.000763%,50.000763%,50.000763%);stroke-opacity:0.5;stroke-miterlimit:3.25;" d="M -6.710938 160.070312 L 31.632812 -7.933594 "/>
</g>
<g clip-path="url(#clip35)" clip-rule="nonzero">
<path style="fill:none;stroke-width:0.2;stroke-linecap:square;stroke-linejoin:miter;stroke:rgb(50.000763%,50.000763%,50.000763%);stroke-opacity:0.5;stroke-miterlimit:3.25;" d="M 31.632812 -7.933594 L 281.1875 49.023438 "/>
</g>
<g clip-path="url(#clip36)" clip-rule="nonzero">
<path style="fill:none;stroke-width:0.2;stroke-linecap:square;stroke-linejoin:miter;stroke:rgb(50.000763%,50.000763%,50.000763%);stroke-opacity:0.5;stroke-miterlimit:3.25;" d="M 51.71875 160.070312 L 51.71875 70.472656 "/>
<path style="fill:none;stroke-width:0.2;stroke-linecap:square;stroke-linejoin:miter;stroke:rgb(50.000763%,50.000763%,50.000763%);stroke-opacity:0.5;stroke-miterlimit:3.25;" d="M 51.71875 160.070312 L 51.71875 70.472656 "/>
</g>
<path style=" stroke:none;fill-rule:nonzero;fill:rgb(50.000763%,50.000763%,50.000763%);fill-opacity:0.5;" d="M 51.71875 70.472656 L 51.617188 70.371094 L 51.617188 64 L 51.71875 70.371094 Z M 51.71875 70.472656 "/>
<g clip-path="url(#clip37)" clip-rule="nonzero">
<path style="fill:none;stroke-width:0.2;stroke-linecap:square;stroke-linejoin:miter;stroke:rgb(50.000763%,50.000763%,50.000763%);stroke-opacity:0.5;stroke-miterlimit:3.25;" d="M 51.71875 70.472656 L 256.496094 70.472656 "/>
</g>
<g clip-path="url(#clip38)" clip-rule="nonzero">
<path style="fill:none;stroke-width:0.2;stroke-linecap:square;stroke-linejoin:miter;stroke:rgb(50.000763%,50.000763%,50.000763%);stroke-opacity:0.5;stroke-miterlimit:3.25;" d="M 0.523438 19.277344 L 256.496094 19.277344 "/>
</g>
<g clip-path="url(#clip39)" clip-rule="nonzero">
<path style=" stroke:none;fill-rule:nonzero;fill:rgb(74.999619%,74.999619%,74.999619%);fill-opacity:1;" d="M 214.046875 182.035156 L 280.683594 43.664062 L 419.058594 110.300781 L 441.269531 64.175781 L 256.773438 -24.671875 L 167.921875 159.824219 Z M 214.046875 182.035156 "/>
</g>
<g clip-path="url(#clip40)" clip-rule="nonzero">
<path style="fill:none;stroke-width:1;stroke-linecap:square;stroke-linejoin:miter;stroke:rgb(0%,0%,0%);stroke-opacity:1;stroke-miterlimit:3.25;" d="M 224.625 160.070312 L 280.683594 43.664062 "/>
<path style="fill:none;stroke-width:1;stroke-linecap:square;stroke-linejoin:miter;stroke:rgb(0%,0%,0%);stroke-opacity:1;stroke-miterlimit:3.25;" d="M 224.625 160.070312 L 280.683594 43.664062 "/>
</g>
<path style=" stroke:none;fill-rule:nonzero;fill:rgb(0%,0%,0%);fill-opacity:1;" d="M 280.683594 43.664062 L 280.234375 43.214844 L 280.453125 42.996094 L 280.902344 43.214844 Z M 280.683594 43.664062 "/>
<g clip-path="url(#clip41)" clip-rule="nonzero">
<path style="fill:none;stroke-width:1;stroke-linecap:square;stroke-linejoin:miter;stroke:rgb(0%,0%,0%);stroke-opacity:1;stroke-miterlimit:3.25;" d="M 280.683594 43.664062 L 419.058594 110.300781 "/>
</g>
<g clip-path="url(#clip42)" clip-rule="nonzero">
<path style="fill:none;stroke-width:1;stroke-linecap:square;stroke-linejoin:miter;stroke:rgb(0%,0%,0%);stroke-opacity:1;stroke-miterlimit:3.25;" d="M 167.921875 159.824219 L 256.773438 -24.671875 L 441.269531 64.175781 "/>
</g>
<path style="fill-rule:nonzero;fill:rgb(100%,100%,86.999313%);fill-opacity:1;stroke-width:1;stroke-linecap:square;stroke-linejoin:miter;stroke:rgb(0%,0%,0%);stroke-opacity:1;stroke-miterlimit:3.25;" d="M 331.03125 67.648438 L 330.796875 65.839844 L 330.484375 64.054688 L 330.09375 62.304688 L 329.632812 60.589844 L 329.09375 58.910156 L 328.484375 57.269531 L 327.804688 55.675781 L 327.058594 54.125 L 326.242188 52.625 L 325.367188 51.175781 L 324.425781 49.78125 L 323.429688 48.445312 L 322.371094 47.164062 L 321.261719 45.949219 L 320.101562 44.796875 L 318.890625 43.710938 L 317.632812 42.695312 L 316.335938 41.75 L 314.996094 40.875 L 313.617188 40.074219 L 312.207031 39.351562 L 310.765625 38.703125 L 309.296875 38.136719 L 307.804688 37.648438 L 306.292969 37.242188 L 304.761719 36.917969 L 303.222656 36.683594 L 301.671875 36.53125 L 300.121094 36.46875 L 298.566406 36.492188 L 297.015625 36.601562 L 295.472656 36.796875 L 293.9375 37.082031 L 292.414062 37.449219 L 290.910156 37.898438 L 289.433594 38.429688 L 287.976562 39.039062 L 286.550781 39.730469 L 285.160156 40.492188 L 283.800781 41.332031 L 282.484375 42.246094 L 281.207031 43.230469 L 279.972656 44.285156 L 278.789062 45.40625 L 277.65625 46.59375 L 276.574219 47.839844 L 275.550781 49.152344 L 274.582031 50.519531 L 273.675781 51.945312 L 272.832031 53.421875 L 272.054688 54.949219 L 271.34375 56.523438 L 270.699219 58.140625 L 270.128906 59.804688 L 269.628906 61.503906 L 269.207031 63.238281 L 268.859375 65.003906 L 268.585938 66.800781 L 268.488281 67.648438 L 268.40625 67.710938 L 268.320312 67.777344 L 268.230469 67.847656 L 268.132812 67.917969 L 268.03125 67.988281 L 267.921875 68.0625 L 267.808594 68.140625 L 267.691406 68.214844 L 267.566406 68.292969 L 267.433594 68.371094 L 267.296875 68.453125 L 267.152344 68.53125 L 267.003906 68.613281 L 266.847656 68.695312 L 266.683594 68.777344 L 266.515625 68.859375 L 266.339844 68.941406 L 266.160156 69.019531 L 265.972656 69.101562 L 265.777344 69.183594 L 265.578125 69.261719 L 265.371094 69.339844 L 265.160156 69.417969 L 264.941406 69.492188 L 264.714844 69.566406 L 264.480469 69.640625 L 264.242188 69.710938 L 263.996094 69.78125 L 263.746094 69.847656 L 263.488281 69.910156 L 263.222656 69.972656 L 262.953125 70.03125 L 262.675781 70.085938 L 262.390625 70.140625 L 262.101562 70.191406 L 261.804688 70.234375 L 261.503906 70.277344 L 261.195312 70.316406 L 260.878906 70.351562 L 260.558594 70.382812 L 260.234375 70.410156 L 259.5625 70.449219 L 259.195312 70.460938 L 258.816406 70.46875 L 217.144531 70.472656 L 217.183594 69.625 L 217.296875 67.816406 L 217.457031 66.035156 L 217.660156 64.273438 L 217.90625 62.539062 L 218.191406 60.828125 L 218.519531 59.148438 L 218.882812 57.496094 L 219.28125 55.875 L 219.71875 54.285156 L 220.1875 52.730469 L 220.691406 51.210938 L 221.226562 49.722656 L 221.789062 48.273438 L 222.378906 46.859375 L 222.996094 45.480469 L 223.636719 44.144531 L 224.296875 42.847656 L 224.980469 41.589844 L 225.683594 40.371094 L 226.402344 39.195312 L 227.136719 38.058594 L 227.886719 36.964844 L 228.644531 35.914062 L 229.414062 34.90625 L 230.191406 33.9375 L 230.96875 33.015625 L 231.75 32.140625 L 232.53125 31.308594 L 233.308594 30.519531 L 234.082031 29.773438 L 234.851562 29.070312 L 235.609375 28.410156 L 236.382812 27.773438 L 237.265625 27.078125 L 238.15625 26.417969 L 239.046875 25.792969 L 239.941406 25.195312 L 240.835938 24.632812 L 241.726562 24.097656 L 242.621094 23.597656 L 243.511719 23.128906 L 244.398438 22.6875 L 245.28125 22.277344 L 246.160156 21.898438 L 247.03125 21.546875 L 247.894531 21.222656 L 248.753906 20.925781 L 249.601562 20.65625 L 250.441406 20.414062 L 251.269531 20.195312 L 252.085938 20.003906 L 252.894531 19.835938 L 253.6875 19.691406 L 254.46875 19.570312 L 255.234375 19.472656 L 255.988281 19.394531 L 256.726562 19.335938 L 257.449219 19.296875 L 341.066406 19.277344 L 341.71875 19.289062 L 342.402344 19.3125 L 343.132812 19.359375 L 343.878906 19.425781 L 344.636719 19.515625 L 345.410156 19.625 L 346.199219 19.753906 L 346.996094 19.910156 L 347.808594 20.089844 L 348.632812 20.292969 L 349.464844 20.523438 L 350.308594 20.777344 L 351.164062 21.058594 L 352.023438 21.367188 L 352.890625 21.707031 L 353.765625 22.070312 L 354.648438 22.464844 L 355.53125 22.890625 L 356.421875 23.34375 L 357.3125 23.828125 L 358.207031 24.34375 L 359.101562 24.890625 L 359.992188 25.46875 L 360.886719 26.078125 L 361.777344 26.722656 L 362.664062 27.398438 L 363.503906 28.074219 L 364.261719 28.710938 L 365.023438 29.390625 L 365.796875 30.113281 L 366.570312 30.878906 L 367.351562 31.6875 L 368.128906 32.542969 L 368.910156 33.441406 L 369.691406 34.382812 L 370.460938 35.371094 L 371.226562 36.398438 L 371.980469 37.46875 L 372.722656 38.582031 L 373.449219 39.738281 L 374.164062 40.933594 L 374.855469 42.167969 L 375.53125 43.445312 L 376.183594 44.761719 L 376.8125 46.117188 L 377.417969 47.511719 L 377.996094 48.941406 L 378.542969 50.410156 L 379.0625 51.914062 L 379.550781 53.449219 L 380.007812 55.023438 L 380.425781 56.625 L 380.8125 58.261719 L 381.15625 59.925781 L 381.464844 61.621094 L 381.730469 63.339844 L 381.957031 65.089844 L 382.140625 66.859375 L 382.28125 68.65625 L 382.375 70.472656 L 340.777344 70.472656 L 340.484375 70.464844 L 340.195312 70.457031 L 339.921875 70.445312 L 339.660156 70.433594 L 339.40625 70.417969 L 339.152344 70.398438 L 338.902344 70.378906 L 338.65625 70.355469 L 338.179688 70.300781 L 337.941406 70.269531 L 337.710938 70.234375 L 337.484375 70.199219 L 337.261719 70.164062 L 337.042969 70.125 L 336.824219 70.082031 L 336.402344 69.996094 L 335.996094 69.902344 L 335.605469 69.800781 L 335.414062 69.75 L 335.230469 69.695312 L 335.046875 69.644531 L 334.867188 69.585938 L 334.691406 69.53125 L 334.355469 69.414062 L 334.191406 69.355469 L 334.03125 69.296875 L 333.875 69.234375 L 333.722656 69.175781 L 333.574219 69.113281 L 333.429688 69.050781 L 333.289062 68.988281 L 333.015625 68.863281 L 332.886719 68.800781 L 332.519531 68.617188 L 332.402344 68.554688 L 332.183594 68.429688 L 332.078125 68.367188 L 331.976562 68.308594 L 331.878906 68.25 L 331.785156 68.1875 L 331.695312 68.128906 L 331.609375 68.074219 L 331.523438 68.015625 L 331.367188 67.90625 L 331.292969 67.851562 L 331.222656 67.796875 L 331.089844 67.695312 Z M 331.03125 67.648438 "/>
<path style=" stroke:none;fill-rule:evenodd;fill:rgb(0%,66.666667%,0%);fill-opacity:1;" d="M 282 44 C 282 43.734375 281.894531 43.480469 281.707031 43.292969 C 281.519531 43.105469 281.265625 43 281 43 C 280.734375 43 280.480469 43.105469 280.292969 43.292969 C 280.105469 43.480469 280 43.734375 280 44 C 280 44.265625 280.105469 44.519531 280.292969 44.707031 C 280.480469 44.894531 280.734375 45 281 45 C 281.265625 45 281.519531 44.894531 281.707031 44.707031 C 281.894531 44.519531 282 44.265625 282 44 Z M 282 44 "/>
<path style="fill:none;stroke-width:1;stroke-linecap:square;stroke-linejoin:miter;stroke:rgb(0%,66.666667%,0%);stroke-opacity:1;stroke-miterlimit:3.25;" d="M 283.011719 44.78125 L 278.359375 42.542969 "/>
<path style=" stroke:none;fill-rule:evenodd;fill:rgb(0%,66.666667%,0%);fill-opacity:1;" d="M 334 69 C 334 68.734375 333.894531 68.480469 333.707031 68.292969 C 333.519531 68.105469 333.265625 68 333 68 C 332.734375 68 332.480469 68.105469 332.292969 68.292969 C 332.105469 68.480469 332 68.734375 332 69 C 332 69.265625 332.105469 69.519531 332.292969 69.707031 C 332.480469 69.894531 332.734375 70 333 70 C 333.265625 70 333.519531 69.894531 333.707031 69.707031 C 333.894531 69.519531 334 69.265625 334 69 Z M 334 69 "/>
<path style="fill:none;stroke-width:1;stroke-linecap:square;stroke-linejoin:miter;stroke:rgb(0%,66.666667%,0%);stroke-opacity:1;stroke-miterlimit:3.25;" d="M 331.804688 68.28125 L 334.09375 69.382812 "/>
<path style=" stroke:none;fill-rule:evenodd;fill:rgb(0%,66.666667%,0%);fill-opacity:1;" d="M 356 23 C 356 22.734375 355.894531 22.480469 355.707031 22.292969 C 355.519531 22.105469 355.265625 22 355 22 C 354.734375 22 354.480469 22.105469 354.292969 22.292969 C 354.105469 22.480469 354 22.734375 354 23 C 354 23.265625 354.105469 23.519531 354.292969 23.707031 C 354.480469 23.894531 354.734375 24 355 24 C 355.265625 24 355.519531 23.894531 355.707031 23.707031 C 355.894531 23.519531 356 23.265625 356 23 Z M 356 23 "/>
<path style="fill:none;stroke-width:1;stroke-linecap:square;stroke-linejoin:miter;stroke:rgb(0%,66.666667%,0%);stroke-opacity:1;stroke-miterlimit:3.25;" d="M 358.628906 24.378906 L 351.691406 21.039062 "/>
<path style=" stroke:none;fill-rule:evenodd;fill:rgb(0%,0%,0%);fill-opacity:1;" d="M 267.191406 38.90625 L 267.191406 38.433594 L 266.421875 38.433594 L 264.5625 36.1875 L 265.839844 34.722656 C 265.960938 34.582031 266.058594 34.492188 266.972656 34.492188 L 266.972656 34.019531 L 265.960938 34.042969 C 265.640625 34.042969 265.167969 34.042969 264.859375 34.019531 L 264.859375 34.492188 C 265.070312 34.492188 265.300781 34.546875 265.300781 34.625 C 265.300781 34.625 265.246094 34.722656 265.222656 34.746094 L 264.265625 35.824219 L 263.175781 34.492188 L 263.640625 34.492188 L 263.640625 34.019531 C 263.386719 34.042969 262.636719 34.042969 262.339844 34.042969 C 262.007812 34.042969 261.414062 34.042969 261.109375 34.019531 L 261.109375 34.492188 L 261.890625 34.492188 L 263.605469 36.582031 L 262.175781 38.199219 C 262.042969 38.355469 261.964844 38.433594 261.054688 38.433594 L 261.054688 38.90625 L 262.078125 38.882812 C 262.394531 38.882812 262.859375 38.882812 263.164062 38.90625 L 263.164062 38.433594 C 262.957031 38.433594 262.726562 38.378906 262.726562 38.300781 C 262.726562 38.300781 262.726562 38.277344 262.800781 38.191406 L 263.902344 36.945312 L 265.125 38.433594 L 264.664062 38.433594 L 264.664062 38.90625 C 264.925781 38.882812 265.664062 38.882812 265.972656 38.882812 C 266.300781 38.882812 266.882812 38.882812 267.191406 38.90625 Z M 267.191406 38.90625 "/>
<path style=" stroke:none;fill-rule:evenodd;fill:rgb(0%,0%,0%);fill-opacity:1;" d="M 271.03125 41.578125 C 271.03125 41.546875 271.03125 41.523438 270.84375 41.335938 C 269.742188 40.226562 269.125 38.410156 269.125 36.164062 C 269.125 34.03125 269.644531 32.191406 270.921875 30.894531 C 271.03125 30.796875 271.03125 30.773438 271.03125 30.742188 C 271.03125 30.671875 270.976562 30.652344 270.929688 30.652344 C 270.789062 30.652344 269.886719 31.445312 269.347656 32.523438 C 268.785156 33.636719 268.53125 34.8125 268.53125 36.164062 C 268.53125 37.144531 268.6875 38.453125 269.257812 39.632812 C 269.90625 40.953125 270.8125 41.667969 270.929688 41.667969 C 270.976562 41.667969 271.03125 41.644531 271.03125 41.578125 Z M 271.03125 41.578125 "/>
<path style=" stroke:none;fill-rule:evenodd;fill:rgb(0%,0%,0%);fill-opacity:1;" d="M 275 37.332031 C 275 37.265625 274.957031 37.234375 274.890625 37.234375 C 274.890625 37.234375 274.824219 37.234375 274.800781 37.277344 C 274.800781 37.277344 274.78125 37.300781 274.703125 37.476562 C 274.472656 38.027344 273.964844 38.796875 273.328125 38.796875 C 272.996094 38.796875 272.976562 38.519531 272.976562 38.277344 C 272.976562 38.277344 272.976562 38.058594 273.007812 37.925781 L 273.867188 34.480469 L 274.878906 34.480469 C 275.085938 34.480469 275.199219 34.480469 275.199219 34.285156 C 275.199219 34.164062 275.132812 34.164062 274.914062 34.164062 L 273.945312 34.164062 L 274.351562 32.558594 C 274.394531 32.402344 274.394531 32.378906 274.394531 32.304688 C 274.394531 32.128906 274.25 32.027344 274.109375 32.027344 C 274.019531 32.027344 273.765625 32.0625 273.679688 32.414062 L 273.25 34.164062 L 272.214844 34.164062 C 271.996094 34.164062 271.898438 34.164062 271.898438 34.371094 C 271.898438 34.480469 271.972656 34.480469 272.183594 34.480469 L 273.164062 34.480469 L 272.4375 37.386719 C 272.347656 37.773438 272.316406 37.882812 272.316406 38.027344 C 272.316406 38.542969 272.679688 39.015625 273.292969 39.015625 C 274.40625 39.015625 275 37.410156 275 37.332031 Z M 275 37.332031 "/>
<path style=" stroke:none;fill-rule:evenodd;fill:rgb(0%,0%,0%);fill-opacity:1;" d="M 278.65625 36.164062 C 278.65625 35.328125 278.546875 33.964844 277.929688 32.6875 C 277.28125 31.367188 276.378906 30.652344 276.257812 30.652344 C 276.214844 30.652344 276.160156 30.671875 276.160156 30.742188 C 276.160156 30.773438 276.160156 30.796875 276.347656 30.984375 C 277.445312 32.09375 278.0625 33.910156 278.0625 36.152344 C 278.0625 38.289062 277.546875 40.128906 276.269531 41.425781 C 276.160156 41.523438 276.160156 41.546875 276.160156 41.578125 C 276.160156 41.644531 276.214844 41.667969 276.257812 41.667969 C 276.402344 41.667969 277.304688 40.875 277.84375 39.796875 C 278.40625 38.675781 278.65625 37.488281 278.65625 36.164062 Z M 278.65625 36.164062 "/>
<path style=" stroke:none;fill-rule:evenodd;fill:rgb(0%,0%,0%);fill-opacity:1;" d="M 365.074219 17.949219 L 365.074219 17.476562 L 364.027344 17.476562 L 361.199219 10.5 C 361.125 10.300781 361.101562 10.246094 360.839844 10.246094 C 360.5625 10.246094 360.542969 10.300781 360.464844 10.5 L 357.734375 17.210938 C 357.65625 17.390625 357.65625 17.410156 357.351562 17.445312 C 357.074219 17.476562 357.03125 17.476562 356.789062 17.476562 L 356.589844 17.476562 L 356.589844 17.949219 C 356.875 17.929688 357.535156 17.929688 357.855469 17.929688 C 358.152344 17.929688 358.957031 17.929688 359.210938 17.949219 L 359.210938 17.476562 C 358.96875 17.476562 358.550781 17.476562 358.242188 17.355469 C 358.273438 17.257812 358.273438 17.234375 358.296875 17.191406 L 358.878906 15.761719 L 361.828125 15.761719 L 362.519531 17.476562 L 361.488281 17.476562 L 361.488281 17.949219 C 361.839844 17.929688 362.90625 17.929688 363.324219 17.929688 C 363.675781 17.929688 364.800781 17.929688 365.074219 17.949219 Z M 361.628906 15.289062 L 359.066406 15.289062 L 360.355469 12.117188 Z M 361.628906 15.289062 "/>
<path style=" stroke:none;fill-rule:evenodd;fill:rgb(0%,0%,0%);fill-opacity:1;" d="M 369.039062 20.625 C 369.039062 20.589844 369.039062 20.570312 368.851562 20.382812 C 367.75 19.269531 367.132812 17.453125 367.132812 15.210938 C 367.132812 13.074219 367.652344 11.238281 368.929688 9.9375 C 369.039062 9.839844 369.039062 9.816406 369.039062 9.785156 C 369.039062 9.71875 368.984375 9.695312 368.9375 9.695312 C 368.796875 9.695312 367.894531 10.488281 367.355469 11.566406 C 366.792969 12.679688 366.539062 13.855469 366.539062 15.210938 C 366.539062 16.1875 366.695312 17.5 367.265625 18.675781 C 367.914062 19.996094 368.820312 20.710938 368.9375 20.710938 C 368.984375 20.710938 369.039062 20.691406 369.039062 20.625 Z M 369.039062 20.625 "/>
<path style=" stroke:none;fill-rule:evenodd;fill:rgb(0%,0%,0%);fill-opacity:1;" d="M 373.007812 16.375 C 373.007812 16.3125 372.964844 16.277344 372.898438 16.277344 C 372.898438 16.277344 372.832031 16.277344 372.808594 16.320312 C 372.808594 16.320312 372.789062 16.34375 372.710938 16.519531 C 372.480469 17.070312 371.972656 17.839844 371.335938 17.839844 C 371.003906 17.839844 370.984375 17.566406 370.984375 17.324219 C 370.984375 17.324219 370.984375 17.101562 371.015625 16.96875 L 371.875 13.527344 L 372.886719 13.527344 C 373.097656 13.527344 373.207031 13.527344 373.207031 13.328125 C 373.207031 13.207031 373.140625 13.207031 372.921875 13.207031 L 371.953125 13.207031 L 372.359375 11.601562 C 372.402344 11.445312 372.402344 11.425781 372.402344 11.347656 C 372.402344 11.171875 372.261719 11.074219 372.117188 11.074219 C 372.027344 11.074219 371.777344 11.105469 371.6875 11.457031 L 371.257812 13.207031 L 370.222656 13.207031 C 370.003906 13.207031 369.90625 13.207031 369.90625 13.417969 C 369.90625 13.527344 369.980469 13.527344 370.191406 13.527344 L 371.171875 13.527344 L 370.445312 16.429688 C 370.355469 16.816406 370.324219 16.925781 370.324219 17.070312 C 370.324219 17.585938 370.6875 18.058594 371.300781 18.058594 C 372.414062 18.058594 373.007812 16.453125 373.007812 16.375 Z M 373.007812 16.375 "/>
<path style=" stroke:none;fill-rule:evenodd;fill:rgb(0%,0%,0%);fill-opacity:1;" d="M 376.667969 15.210938 C 376.667969 14.371094 376.554688 13.007812 375.941406 11.730469 C 375.292969 10.410156 374.386719 9.695312 374.269531 9.695312 C 374.222656 9.695312 374.167969 9.71875 374.167969 9.785156 C 374.167969 9.816406 374.167969 9.839844 374.355469 10.027344 C 375.457031 11.136719 376.074219 12.953125 376.074219 15.199219 C 376.074219 17.335938 375.554688 19.171875 374.277344 20.46875 C 374.167969 20.570312 374.167969 20.589844 374.167969 20.625 C 374.167969 20.691406 374.222656 20.710938 374.269531 20.710938 C 374.410156 20.710938 375.3125 19.921875 375.851562 18.839844 C 376.414062 17.71875 376.667969 16.53125 376.667969 15.210938 Z M 376.667969 15.210938 "/>
<path style=" stroke:none;fill-rule:evenodd;fill:rgb(0%,0%,0%);fill-opacity:1;" d="M 319.078125 77.035156 C 319.078125 75.992188 318.167969 75.230469 316.835938 75.132812 C 318.421875 74.835938 318.726562 73.933594 318.726562 73.414062 C 318.726562 72.402344 317.804688 71.523438 316.042969 71.523438 L 311.402344 71.523438 L 311.402344 71.996094 L 312.566406 71.996094 L 312.566406 78.597656 L 311.402344 78.597656 L 311.402344 79.070312 L 316.375 79.070312 C 318.1875 79.070312 319.078125 78.089844 319.078125 77.035156 Z M 317.273438 73.40625 C 317.273438 74.175781 316.847656 74.96875 315.558594 74.96875 L 313.917969 74.96875 L 313.917969 71.996094 L 315.910156 71.996094 C 317.042969 71.996094 317.273438 72.855469 317.273438 73.40625 Z M 317.582031 77.015625 C 317.582031 77.707031 317.210938 78.597656 315.945312 78.597656 L 313.917969 78.597656 L 313.917969 75.332031 L 316.109375 75.332031 C 317.398438 75.332031 317.582031 76.519531 317.582031 77.015625 Z M 317.582031 77.015625 "/>
<path style=" stroke:none;fill-rule:evenodd;fill:rgb(0%,0%,0%);fill-opacity:1;" d="M 323.347656 81.746094 C 323.347656 81.710938 323.347656 81.691406 323.160156 81.503906 C 322.058594 80.390625 321.441406 78.574219 321.441406 76.332031 C 321.441406 74.195312 321.957031 72.359375 323.234375 71.0625 C 323.347656 70.960938 323.347656 70.941406 323.347656 70.90625 C 323.347656 70.839844 323.292969 70.820312 323.246094 70.820312 C 323.105469 70.820312 322.199219 71.609375 321.660156 72.691406 C 321.101562 73.800781 320.847656 74.976562 320.847656 76.332031 C 320.847656 77.3125 321.003906 78.621094 321.574219 79.796875 C 322.222656 81.117188 323.125 81.832031 323.246094 81.832031 C 323.292969 81.832031 323.347656 81.8125 323.347656 81.746094 Z M 323.347656 81.746094 "/>
<path style=" stroke:none;fill-rule:evenodd;fill:rgb(0%,0%,0%);fill-opacity:1;" d="M 327.214844 77.5 C 327.214844 77.433594 327.171875 77.398438 327.105469 77.398438 C 327.105469 77.398438 327.039062 77.398438 327.015625 77.445312 C 327.015625 77.445312 326.996094 77.464844 326.917969 77.640625 C 326.6875 78.191406 326.179688 78.960938 325.542969 78.960938 C 325.210938 78.960938 325.191406 78.6875 325.191406 78.445312 C 325.191406 78.445312 325.191406 78.222656 325.222656 78.089844 L 326.082031 74.648438 L 327.09375 74.648438 C 327.300781 74.648438 327.414062 74.648438 327.414062 74.449219 C 327.414062 74.328125 327.347656 74.328125 327.128906 74.328125 L 326.160156 74.328125 L 326.566406 72.722656 C 326.609375 72.570312 326.609375 72.546875 326.609375 72.46875 C 326.609375 72.292969 326.464844 72.195312 326.324219 72.195312 C 326.234375 72.195312 325.980469 72.226562 325.894531 72.578125 L 325.464844 74.328125 L 324.429688 74.328125 C 324.210938 74.328125 324.113281 74.328125 324.113281 74.539062 C 324.113281 74.648438 324.1875 74.648438 324.398438 74.648438 L 325.378906 74.648438 L 324.652344 77.550781 C 324.5625 77.9375 324.53125 78.046875 324.53125 78.191406 C 324.53125 78.707031 324.894531 79.179688 325.507812 79.179688 C 326.621094 79.179688 327.214844 77.574219 327.214844 77.5 Z M 327.214844 77.5 "/>
<path style=" stroke:none;fill-rule:evenodd;fill:rgb(0%,0%,0%);fill-opacity:1;" d="M 330.871094 76.332031 C 330.871094 75.496094 330.761719 74.132812 330.144531 72.855469 C 329.496094 71.535156 328.59375 70.820312 328.472656 70.820312 C 328.429688 70.820312 328.375 70.839844 328.375 70.90625 C 328.375 70.941406 328.375 70.960938 328.5625 71.148438 C 329.660156 72.261719 330.277344 74.078125 330.277344 76.320312 C 330.277344 78.457031 329.761719 80.292969 328.484375 81.589844 C 328.375 81.691406 328.375 81.710938 328.375 81.746094 C 328.375 81.8125 328.429688 81.832031 328.472656 81.832031 C 328.617188 81.832031 329.519531 81.042969 330.058594 79.960938 C 330.617188 78.839844 330.871094 77.652344 330.871094 76.332031 Z M 330.871094 76.332031 "/>
<path style="fill:none;stroke-width:1;stroke-linecap:square;stroke-linejoin:miter;stroke:rgb(0%,0%,100%);stroke-opacity:1;stroke-miterlimit:3.25;" d="M 341.066406 19.277344 L 258.453125 19.277344 "/>
<path style="fill:none;stroke-width:1;stroke-linecap:square;stroke-linejoin:miter;stroke:rgb(0%,0%,100%);stroke-opacity:1;stroke-miterlimit:3.25;" d="M 258.453125 70.472656 L 217.144531 70.472656 "/>
<path style="fill:none;stroke-width:1;stroke-linecap:square;stroke-linejoin:miter;stroke:rgb(0%,0%,100%);stroke-opacity:1;stroke-miterlimit:3.25;" d="M 341.066406 70.472656 L 382.375 70.472656 "/>
</g>
</svg>
