<?xml version="1.0" encoding="UTF-8"?>
<svg xmlns="http://www.w3.org/2000/svg" xmlns:xlink="http://www.w3.org/1999/xlink" width="404pt" height="90pt" viewBox="0 0 404 90" version="1.1">
<defs>
<clipPath id="clip1">
  <path d="M 11.519531 35 L 130 35 L 130 83.28125 L 11.519531 83.28125 Z M 11.519531 35 "/>
</clipPath>
<clipPath id="clip2">
  <path d="M 120 35 L 188 35 L 188 83.28125 L 120 83.28125 Z M 120 35 "/>
</clipPath>
<clipPath id="clip3">
  <path d="M 120 35 L 188 35 L 188 83.28125 L 120 83.28125 Z M 120 35 "/>
</clipPath>
<clipPath id="clip4">
  <path d="M 11.519531 6.480469 L 154 6.480469 L 154 83.28125 L 11.519531 83.28125 Z M 11.519531 6.480469 "/>
</clipPath>
<clipPath id="clip5">
  <path d="M 144 6.480469 L 195.601562 6.480469 L 195.601562 83.28125 L 144 83.28125 Z M 144 6.480469 "/>
</clipPath>
<clipPath id="clip6">
  <path d="M 11.519531 14 L 195.601562 14 L 195.601562 76 L 11.519531 76 Z M 11.519531 14 "/>
</clipPath>
<clipPath id="clip7">
  <path d="M 11.519531 70 L 155 70 L 155 71 L 11.519531 71 Z M 11.519531 70 "/>
</clipPath>
<clipPath id="clip8">
  <path d="M 154 70 L 155 70 L 155 83.28125 L 154 83.28125 Z M 154 70 "/>
</clipPath>
<clipPath id="clip9">
  <path d="M 154 70 L 155 70 L 155 83.28125 L 154 83.28125 Z M 154 70 "/>
</clipPath>
<clipPath id="clip10">
  <path d="M 11.519531 19 L 195.601562 19 L 195.601562 20 L 11.519531 20 Z M 11.519531 19 "/>
</clipPath>
<clipPath id="clip11">
  <path d="M 11.519531 52 L 138 52 L 138 83.28125 L 11.519531 83.28125 Z M 11.519531 52 "/>
</clipPath>
<clipPath id="clip12">
  <path d="M 135 52 L 162 52 L 162 83.28125 L 135 83.28125 Z M 135 52 "/>
</clipPath>
<clipPath id="clip13">
  <path d="M 135 52 L 162 52 L 162 83.28125 L 135 83.28125 Z M 135 52 "/>
</clipPath>
<clipPath id="clip14">
  <path d="M 11.519531 6.480469 L 176 6.480469 L 176 50 L 11.519531 50 Z M 11.519531 6.480469 "/>
</clipPath>
<clipPath id="clip15">
  <path d="M 173 6.480469 L 195.601562 6.480469 L 195.601562 83.28125 L 173 83.28125 Z M 173 6.480469 "/>
</clipPath>
<clipPath id="clip16">
  <path d="M 11.519531 39 L 127 39 L 127 83.28125 L 11.519531 83.28125 Z M 11.519531 39 "/>
</clipPath>
<clipPath id="clip17">
  <path d="M 124 39 L 184 39 L 184 83.28125 L 124 83.28125 Z M 124 39 "/>
</clipPath>
<clipPath id="clip18">
  <path d="M 124 39 L 184 39 L 184 83.28125 L 124 83.28125 Z M 124 39 "/>
</clipPath>
<clipPath id="clip19">
  <path d="M 11.519531 6.480469 L 151 6.480469 L 151 83.28125 L 11.519531 83.28125 Z M 11.519531 6.480469 "/>
</clipPath>
<clipPath id="clip20">
  <path d="M 148 6.480469 L 195.601562 6.480469 L 195.601562 83.28125 L 148 83.28125 Z M 148 6.480469 "/>
</clipPath>
<clipPath id="clip21">
  <path d="M 11.519531 32 L 112 32 L 112 83.28125 L 11.519531 83.28125 Z M 11.519531 32 "/>
</clipPath>
<clipPath id="clip22">
  <path d="M 110 32 L 195.601562 32 L 195.601562 83.28125 L 110 83.28125 Z M 110 32 "/>
</clipPath>
<clipPath id="clip23">
  <path d="M 11.519531 6.480469 L 121 6.480469 L 121 83.28125 L 11.519531 83.28125 Z M 11.519531 6.480469 "/>
</clipPath>
<clipPath id="clip24">
  <path d="M 118 6.480469 L 195.601562 6.480469 L 195.601562 83.28125 L 118 83.28125 Z M 118 6.480469 "/>
</clipPath>
<clipPath id="clip25">
  <path d="M 11.519531 32 L 97 32 L 97 83.28125 L 11.519531 83.28125 Z M 11.519531 32 "/>
</clipPath>
<clipPath id="clip26">
  <path d="M 94 32 L 195.601562 32 L 195.601562 83.28125 L 94 83.28125 Z M 94 32 "/>
</clipPath>
<clipPath id="clip27">
  <path d="M 11.519531 6.480469 L 89 6.480469 L 89 83.28125 L 11.519531 83.28125 Z M 11.519531 6.480469 "/>
</clipPath>
<clipPath id="clip28">
  <path d="M 86 6.480469 L 195.601562 6.480469 L 195.601562 83.28125 L 86 83.28125 Z M 86 6.480469 "/>
</clipPath>
<clipPath id="clip29">
  <path d="M 22 39 L 82 39 L 82 83.28125 L 22 83.28125 Z M 22 39 "/>
</clipPath>
<clipPath id="clip30">
  <path d="M 80 39 L 195.601562 39 L 195.601562 83.28125 L 80 83.28125 Z M 80 39 "/>
</clipPath>
<clipPath id="clip31">
  <path d="M 11.519531 6.480469 L 59 6.480469 L 59 83.28125 L 11.519531 83.28125 Z M 11.519531 6.480469 "/>
</clipPath>
<clipPath id="clip32">
  <path d="M 56 6.480469 L 195.601562 6.480469 L 195.601562 83.28125 L 56 83.28125 Z M 56 6.480469 "/>
</clipPath>
<clipPath id="clip33">
  <path d="M 44 52 L 72 52 L 72 83.28125 L 44 83.28125 Z M 44 52 "/>
</clipPath>
<clipPath id="clip34">
  <path d="M 69 52 L 195.601562 52 L 195.601562 83.28125 L 69 83.28125 Z M 69 52 "/>
</clipPath>
<clipPath id="clip35">
  <path d="M 11.519531 6.480469 L 33 6.480469 L 33 83.28125 L 11.519531 83.28125 Z M 11.519531 6.480469 "/>
</clipPath>
<clipPath id="clip36">
  <path d="M 30 6.480469 L 195.601562 6.480469 L 195.601562 50 L 30 50 Z M 30 6.480469 "/>
</clipPath>
<clipPath id="clip37">
  <path d="M 51 70 L 52 70 L 52 83.28125 L 51 83.28125 Z M 51 70 "/>
</clipPath>
<clipPath id="clip38">
  <path d="M 51 70 L 195.601562 70 L 195.601562 71 L 51 71 Z M 51 70 "/>
</clipPath>
<clipPath id="clip39">
  <path d="M 11.519531 19 L 195.601562 19 L 195.601562 20 L 11.519531 20 Z M 11.519531 19 "/>
</clipPath>
<clipPath id="clip40">
  <path d="M 208.078125 7.441406 L 392.160156 7.441406 L 392.160156 82.320312 L 208.078125 82.320312 Z M 208.078125 7.441406 "/>
</clipPath>
<clipPath id="clip41">
  <path d="M 208.078125 39 L 323 39 L 323 82.320312 L 208.078125 82.320312 Z M 208.078125 39 "/>
</clipPath>
<clipPath id="clip42">
  <path d="M 313 39 L 378 39 L 378 82.320312 L 313 82.320312 Z M 313 39 "/>
</clipPath>
<clipPath id="clip43">
  <path d="M 313 39 L 378 39 L 378 82.320312 L 313 82.320312 Z M 313 39 "/>
</clipPath>
<clipPath id="clip44">
  <path d="M 208.078125 7.441406 L 392.160156 7.441406 L 392.160156 82.320312 L 208.078125 82.320312 Z M 208.078125 7.441406 "/>
</clipPath>
</defs>
<g id="surface254">
<path style=" stroke:none;fill-rule:nonzero;fill:rgb(100%,100%,86.999313%);fill-opacity:1;" d="M 192.726562 70.472656 L 189.195312 55.015625 L 182.542969 41.195312 L 174.550781 31.175781 L 166.785156 24.984375 L 158.617188 21.046875 L 150.863281 19.277344 L 55.601562 19.277344 L 47.847656 21.046875 L 39.675781 24.984375 L 31.914062 31.175781 L 23.921875 41.195312 L 17.265625 55.015625 L 13.738281 70.472656 L 61.367188 70.472656 L 64.863281 69.675781 L 66.625 68.828125 L 70.152344 53.367188 L 74.410156 54.339844 L 81.066406 40.523438 L 87.476562 43.609375 L 95.46875 33.589844 L 103.230469 39.78125 L 110.996094 33.589844 L 118.988281 43.609375 L 125.398438 40.523438 L 132.050781 54.339844 L 136.3125 53.367188 L 139.839844 68.828125 L 141.601562 69.675781 L 145.09375 70.472656 Z M 192.726562 70.472656 "/>
<g clip-path="url(#clip1)" clip-rule="nonzero">
<path style="fill:none;stroke-width:1;stroke-linecap:square;stroke-linejoin:miter;stroke:rgb(74.999619%,91.667048%,74.999619%);stroke-opacity:1;stroke-miterlimit:3.25;" d="M -59.101562 129.371094 L 125.398438 40.523438 "/>
</g>
<g clip-path="url(#clip2)" clip-rule="nonzero">
<path style="fill:none;stroke-width:1;stroke-linecap:square;stroke-linejoin:miter;stroke:rgb(74.999619%,91.667048%,74.999619%);stroke-opacity:1;stroke-miterlimit:3.25;" d="M 182.96875 160.070312 L 125.398438 40.523438 "/>
</g>
<path style=" stroke:none;fill-rule:nonzero;fill:rgb(74.999619%,91.667048%,74.999619%);fill-opacity:1;" d="M 125.398438 40.523438 L 125.847656 40.972656 L 125.632812 39.855469 L 125.179688 40.074219 Z M 125.398438 40.523438 "/>
<g clip-path="url(#clip3)" clip-rule="nonzero">
<path style="fill:none;stroke-width:1;stroke-linecap:square;stroke-linejoin:miter;stroke:rgb(74.999619%,91.667048%,74.999619%);stroke-opacity:1;stroke-miterlimit:3.25;" d="M 182.96875 160.070312 L 125.398438 40.523438 "/>
</g>
<path style=" stroke:none;fill-rule:nonzero;fill:rgb(74.999619%,91.667048%,74.999619%);fill-opacity:1;" d="M 125.398438 40.523438 L 125.847656 40.972656 L 125.632812 39.855469 L 125.179688 40.074219 Z M 125.398438 40.523438 "/>
<g clip-path="url(#clip4)" clip-rule="nonzero">
<path style="fill:none;stroke-width:1;stroke-linecap:square;stroke-linejoin:miter;stroke:rgb(74.999619%,91.667048%,74.999619%);stroke-opacity:1;stroke-miterlimit:3.25;" d="M -81.3125 83.25 L 149.308594 -27.8125 "/>
</g>
<g clip-path="url(#clip5)" clip-rule="nonzero">
<path style="fill:none;stroke-width:1;stroke-linecap:square;stroke-linejoin:miter;stroke:rgb(74.999619%,91.667048%,74.999619%);stroke-opacity:1;stroke-miterlimit:3.25;" d="M 239.789062 160.070312 L 149.308594 -27.8125 "/>
<path style="fill:none;stroke-width:1;stroke-linecap:square;stroke-linejoin:miter;stroke:rgb(74.999619%,91.667048%,74.999619%);stroke-opacity:1;stroke-miterlimit:3.25;" d="M 239.789062 160.070312 L 149.308594 -27.8125 "/>
</g>
<g clip-path="url(#clip6)" clip-rule="nonzero">
<path style="fill:none;stroke-width:1;stroke-linecap:square;stroke-linejoin:miter;stroke:rgb(0%,0%,0%);stroke-opacity:1;stroke-miterlimit:3.25;" d="M 192.726562 70.472656 L 189.195312 55.015625 L 182.542969 41.195312 L 174.550781 31.175781 L 166.785156 24.984375 L 158.617188 21.046875 L 150.863281 19.277344 L 55.601562 19.277344 L 47.847656 21.046875 L 39.675781 24.984375 L 31.914062 31.175781 L 23.921875 41.195312 L 17.265625 55.015625 L 13.738281 70.472656 L 61.367188 70.472656 L 64.863281 69.675781 L 66.625 68.828125 L 70.152344 53.367188 L 74.410156 54.339844 L 81.066406 40.523438 L 87.476562 43.609375 L 95.46875 33.589844 L 103.230469 39.78125 L 110.996094 33.589844 L 118.988281 43.609375 L 125.398438 40.523438 L 132.050781 54.339844 L 136.3125 53.367188 L 139.839844 68.828125 L 141.601562 69.675781 L 145.09375 70.472656 Z M 192.726562 70.472656 "/>
</g>
<path style="fill:none;stroke-width:1;stroke-linecap:square;stroke-linejoin:miter;stroke:rgb(0%,0%,100%);stroke-opacity:1;stroke-miterlimit:3.25;" d="M 55.601562 19.277344 L 150.863281 19.277344 "/>
<path style="fill:none;stroke-width:1;stroke-linecap:square;stroke-linejoin:miter;stroke:rgb(0%,0%,100%);stroke-opacity:1;stroke-miterlimit:3.25;" d="M 192.726562 70.472656 L 145.09375 70.472656 "/>
<path style="fill:none;stroke-width:1;stroke-linecap:square;stroke-linejoin:miter;stroke:rgb(0%,0%,100%);stroke-opacity:1;stroke-miterlimit:3.25;" d="M 61.367188 70.472656 L 13.738281 70.472656 "/>
<path style="fill:none;stroke-width:1;stroke-linecap:square;stroke-linejoin:miter;stroke:rgb(0%,66.666667%,0%);stroke-opacity:1;stroke-miterlimit:3.25;" d="M 47.847656 21.046875 L 39.675781 24.984375 "/>
<path style="fill:none;stroke-width:1;stroke-linecap:square;stroke-linejoin:miter;stroke:rgb(0%,66.666667%,0%);stroke-opacity:1;stroke-miterlimit:3.25;" d="M 66.625 68.828125 L 64.863281 69.675781 "/>
<path style="fill:none;stroke-width:1;stroke-linecap:square;stroke-linejoin:miter;stroke:rgb(0%,66.666667%,0%);stroke-opacity:1;stroke-miterlimit:3.25;" d="M 125.398438 40.523438 L 118.988281 43.609375 "/>
<g clip-path="url(#clip7)" clip-rule="nonzero">
<path style="fill:none;stroke-width:0.2;stroke-linecap:square;stroke-linejoin:miter;stroke:rgb(50.000763%,50.000763%,50.000763%);stroke-opacity:0.5;stroke-miterlimit:3.25;" d="M -50.03125 70.472656 L 154.746094 70.472656 "/>
</g>
<g clip-path="url(#clip8)" clip-rule="nonzero">
<path style="fill:none;stroke-width:0.2;stroke-linecap:square;stroke-linejoin:miter;stroke:rgb(50.000763%,50.000763%,50.000763%);stroke-opacity:0.5;stroke-miterlimit:3.25;" d="M 154.746094 160.070312 L 154.746094 70.472656 "/>
</g>
<path style=" stroke:none;fill-rule:nonzero;fill:rgb(50.000763%,50.000763%,50.000763%);fill-opacity:0.5;" d="M 154.746094 70.472656 L 154.84375 70.574219 L 154.84375 70.371094 L 154.746094 70.371094 Z M 154.746094 70.472656 "/>
<g clip-path="url(#clip9)" clip-rule="nonzero">
<path style="fill:none;stroke-width:0.2;stroke-linecap:square;stroke-linejoin:miter;stroke:rgb(50.000763%,50.000763%,50.000763%);stroke-opacity:0.5;stroke-miterlimit:3.25;" d="M 154.746094 160.070312 L 154.746094 70.472656 "/>
</g>
<path style=" stroke:none;fill-rule:nonzero;fill:rgb(50.000763%,50.000763%,50.000763%);fill-opacity:0.5;" d="M 154.746094 70.472656 L 154.84375 70.574219 L 154.84375 70.371094 L 154.746094 70.371094 Z M 154.746094 70.472656 "/>
<g clip-path="url(#clip10)" clip-rule="nonzero">
<path style="fill:none;stroke-width:0.2;stroke-linecap:square;stroke-linejoin:miter;stroke:rgb(50.000763%,50.000763%,50.000763%);stroke-opacity:0.5;stroke-miterlimit:3.25;" d="M -50.03125 19.277344 L 205.9375 19.277344 "/>
</g>
<g clip-path="url(#clip11)" clip-rule="nonzero">
<path style="fill:none;stroke-width:0.2;stroke-linecap:square;stroke-linejoin:miter;stroke:rgb(50.000763%,50.000763%,50.000763%);stroke-opacity:0.5;stroke-miterlimit:3.25;" d="M -63.332031 98.933594 L 136.3125 53.367188 "/>
</g>
<g clip-path="url(#clip12)" clip-rule="nonzero">
<path style="fill:none;stroke-width:0.2;stroke-linecap:square;stroke-linejoin:miter;stroke:rgb(50.000763%,50.000763%,50.000763%);stroke-opacity:0.5;stroke-miterlimit:3.25;" d="M 160.664062 160.070312 L 136.3125 53.367188 "/>
</g>
<path style=" stroke:none;fill-rule:nonzero;fill:rgb(50.000763%,50.000763%,50.000763%);fill-opacity:0.5;" d="M 136.3125 53.367188 L 136.410156 53.464844 L 136.386719 53.25 L 136.289062 53.269531 Z M 136.3125 53.367188 "/>
<g clip-path="url(#clip13)" clip-rule="nonzero">
<path style="fill:none;stroke-width:0.2;stroke-linecap:square;stroke-linejoin:miter;stroke:rgb(50.000763%,50.000763%,50.000763%);stroke-opacity:0.5;stroke-miterlimit:3.25;" d="M 160.664062 160.070312 L 136.3125 53.367188 "/>
</g>
<path style=" stroke:none;fill-rule:nonzero;fill:rgb(50.000763%,50.000763%,50.000763%);fill-opacity:0.5;" d="M 136.3125 53.367188 L 136.410156 53.464844 L 136.386719 53.25 L 136.289062 53.269531 Z M 136.3125 53.367188 "/>
<g clip-path="url(#clip14)" clip-rule="nonzero">
<path style="fill:none;stroke-width:0.2;stroke-linecap:square;stroke-linejoin:miter;stroke:rgb(50.000763%,50.000763%,50.000763%);stroke-opacity:0.5;stroke-miterlimit:3.25;" d="M -74.722656 49.023438 L 174.828125 -7.933594 "/>
</g>
<g clip-path="url(#clip15)" clip-rule="nonzero">
<path style="fill:none;stroke-width:0.2;stroke-linecap:square;stroke-linejoin:miter;stroke:rgb(50.000763%,50.000763%,50.000763%);stroke-opacity:0.5;stroke-miterlimit:3.25;" d="M 213.175781 160.070312 L 174.828125 -7.933594 "/>
<path style="fill:none;stroke-width:0.2;stroke-linecap:square;stroke-linejoin:miter;stroke:rgb(50.000763%,50.000763%,50.000763%);stroke-opacity:0.5;stroke-miterlimit:3.25;" d="M 213.175781 160.070312 L 174.828125 -7.933594 "/>
</g>
<g clip-path="url(#clip16)" clip-rule="nonzero">
<path style="fill:none;stroke-width:0.2;stroke-linecap:square;stroke-linejoin:miter;stroke:rgb(50.000763%,50.000763%,50.000763%);stroke-opacity:0.5;stroke-miterlimit:3.25;" d="M -59.101562 129.371094 L 125.398438 40.523438 "/>
</g>
<g clip-path="url(#clip17)" clip-rule="nonzero">
<path style="fill:none;stroke-width:0.2;stroke-linecap:square;stroke-linejoin:miter;stroke:rgb(50.000763%,50.000763%,50.000763%);stroke-opacity:0.5;stroke-miterlimit:3.25;" d="M 182.96875 160.070312 L 125.398438 40.523438 "/>
</g>
<path style=" stroke:none;fill-rule:nonzero;fill:rgb(50.000763%,50.000763%,50.000763%);fill-opacity:0.5;" d="M 125.398438 40.523438 L 125.488281 40.613281 L 125.445312 40.390625 L 125.355469 40.433594 Z M 125.398438 40.523438 "/>
<g clip-path="url(#clip18)" clip-rule="nonzero">
<path style="fill:none;stroke-width:0.2;stroke-linecap:square;stroke-linejoin:miter;stroke:rgb(50.000763%,50.000763%,50.000763%);stroke-opacity:0.5;stroke-miterlimit:3.25;" d="M 182.96875 160.070312 L 125.398438 40.523438 "/>
</g>
<path style=" stroke:none;fill-rule:nonzero;fill:rgb(50.000763%,50.000763%,50.000763%);fill-opacity:0.5;" d="M 125.398438 40.523438 L 125.488281 40.613281 L 125.445312 40.390625 L 125.355469 40.433594 Z M 125.398438 40.523438 "/>
<g clip-path="url(#clip19)" clip-rule="nonzero">
<path style="fill:none;stroke-width:0.2;stroke-linecap:square;stroke-linejoin:miter;stroke:rgb(50.000763%,50.000763%,50.000763%);stroke-opacity:0.5;stroke-miterlimit:3.25;" d="M -81.3125 83.25 L 149.308594 -27.8125 "/>
</g>
<g clip-path="url(#clip20)" clip-rule="nonzero">
<path style="fill:none;stroke-width:0.2;stroke-linecap:square;stroke-linejoin:miter;stroke:rgb(50.000763%,50.000763%,50.000763%);stroke-opacity:0.5;stroke-miterlimit:3.25;" d="M 239.789062 160.070312 L 149.308594 -27.8125 "/>
<path style="fill:none;stroke-width:0.2;stroke-linecap:square;stroke-linejoin:miter;stroke:rgb(50.000763%,50.000763%,50.000763%);stroke-opacity:0.5;stroke-miterlimit:3.25;" d="M 239.789062 160.070312 L 149.308594 -27.8125 "/>
</g>
<g clip-path="url(#clip21)" clip-rule="nonzero">
<path style="fill:none;stroke-width:0.2;stroke-linecap:square;stroke-linejoin:miter;stroke:rgb(50.000763%,50.000763%,50.000763%);stroke-opacity:0.5;stroke-miterlimit:3.25;" d="M -47.609375 160.070312 L 110.996094 33.589844 "/>
<path style="fill:none;stroke-width:0.2;stroke-linecap:square;stroke-linejoin:miter;stroke:rgb(50.000763%,50.000763%,50.000763%);stroke-opacity:0.5;stroke-miterlimit:3.25;" d="M -47.609375 160.070312 L 110.996094 33.589844 "/>
</g>
<path style=" stroke:none;fill-rule:nonzero;fill:rgb(50.000763%,50.000763%,50.000763%);fill-opacity:0.5;" d="M 110.996094 33.589844 L 110.933594 33.527344 L 111.011719 33.449219 L 111.074219 33.527344 Z M 110.996094 33.589844 "/>
<g clip-path="url(#clip22)" clip-rule="nonzero">
<path style="fill:none;stroke-width:0.2;stroke-linecap:square;stroke-linejoin:miter;stroke:rgb(50.000763%,50.000763%,50.000763%);stroke-opacity:0.5;stroke-miterlimit:3.25;" d="M 211.863281 160.070312 L 110.996094 33.589844 "/>
<path style="fill:none;stroke-width:0.2;stroke-linecap:square;stroke-linejoin:miter;stroke:rgb(50.000763%,50.000763%,50.000763%);stroke-opacity:0.5;stroke-miterlimit:3.25;" d="M 211.863281 160.070312 L 110.996094 33.589844 "/>
</g>
<g clip-path="url(#clip23)" clip-rule="nonzero">
<path style="fill:none;stroke-width:0.2;stroke-linecap:square;stroke-linejoin:miter;stroke:rgb(50.000763%,50.000763%,50.000763%);stroke-opacity:0.5;stroke-miterlimit:3.25;" d="M -81.023438 121.238281 L 119.101562 -38.355469 "/>
</g>
<g clip-path="url(#clip24)" clip-rule="nonzero">
<path style="fill:none;stroke-width:0.2;stroke-linecap:square;stroke-linejoin:miter;stroke:rgb(50.000763%,50.000763%,50.000763%);stroke-opacity:0.5;stroke-miterlimit:3.25;" d="M 277.34375 160.070312 L 119.101562 -38.355469 "/>
<path style="fill:none;stroke-width:0.2;stroke-linecap:square;stroke-linejoin:miter;stroke:rgb(50.000763%,50.000763%,50.000763%);stroke-opacity:0.5;stroke-miterlimit:3.25;" d="M 277.34375 160.070312 L 119.101562 -38.355469 "/>
</g>
<g clip-path="url(#clip25)" clip-rule="nonzero">
<path style="fill:none;stroke-width:0.2;stroke-linecap:square;stroke-linejoin:miter;stroke:rgb(50.000763%,50.000763%,50.000763%);stroke-opacity:0.5;stroke-miterlimit:3.25;" d="M -5.398438 160.070312 L 95.46875 33.589844 "/>
<path style="fill:none;stroke-width:0.2;stroke-linecap:square;stroke-linejoin:miter;stroke:rgb(50.000763%,50.000763%,50.000763%);stroke-opacity:0.5;stroke-miterlimit:3.25;" d="M -5.398438 160.070312 L 95.46875 33.589844 "/>
</g>
<path style=" stroke:none;fill-rule:nonzero;fill:rgb(50.000763%,50.000763%,50.000763%);fill-opacity:0.5;" d="M 95.46875 33.589844 L 95.390625 33.511719 L 95.453125 33.449219 L 95.53125 33.511719 Z M 95.46875 33.589844 "/>
<g clip-path="url(#clip26)" clip-rule="nonzero">
<path style="fill:none;stroke-width:0.2;stroke-linecap:square;stroke-linejoin:miter;stroke:rgb(50.000763%,50.000763%,50.000763%);stroke-opacity:0.5;stroke-miterlimit:3.25;" d="M 254.074219 160.070312 L 95.46875 33.589844 "/>
<path style="fill:none;stroke-width:0.2;stroke-linecap:square;stroke-linejoin:miter;stroke:rgb(50.000763%,50.000763%,50.000763%);stroke-opacity:0.5;stroke-miterlimit:3.25;" d="M 254.074219 160.070312 L 95.46875 33.589844 "/>
</g>
<g clip-path="url(#clip27)" clip-rule="nonzero">
<path style="fill:none;stroke-width:0.2;stroke-linecap:square;stroke-linejoin:miter;stroke:rgb(50.000763%,50.000763%,50.000763%);stroke-opacity:0.5;stroke-miterlimit:3.25;" d="M -70.878906 160.070312 L 87.363281 -38.355469 "/>
<path style="fill:none;stroke-width:0.2;stroke-linecap:square;stroke-linejoin:miter;stroke:rgb(50.000763%,50.000763%,50.000763%);stroke-opacity:0.5;stroke-miterlimit:3.25;" d="M -70.878906 160.070312 L 87.363281 -38.355469 "/>
</g>
<g clip-path="url(#clip28)" clip-rule="nonzero">
<path style="fill:none;stroke-width:0.2;stroke-linecap:square;stroke-linejoin:miter;stroke:rgb(50.000763%,50.000763%,50.000763%);stroke-opacity:0.5;stroke-miterlimit:3.25;" d="M 87.363281 -38.355469 L 287.488281 121.238281 "/>
</g>
<g clip-path="url(#clip29)" clip-rule="nonzero">
<path style="fill:none;stroke-width:0.2;stroke-linecap:square;stroke-linejoin:miter;stroke:rgb(50.000763%,50.000763%,50.000763%);stroke-opacity:0.5;stroke-miterlimit:3.25;" d="M 23.496094 160.070312 L 81.066406 40.523438 "/>
<path style="fill:none;stroke-width:0.2;stroke-linecap:square;stroke-linejoin:miter;stroke:rgb(50.000763%,50.000763%,50.000763%);stroke-opacity:0.5;stroke-miterlimit:3.25;" d="M 23.496094 160.070312 L 81.066406 40.523438 "/>
</g>
<path style=" stroke:none;fill-rule:nonzero;fill:rgb(50.000763%,50.000763%,50.000763%);fill-opacity:0.5;" d="M 81.066406 40.523438 L 80.976562 40.433594 L 81.019531 40.390625 L 81.109375 40.433594 Z M 81.066406 40.523438 "/>
<g clip-path="url(#clip30)" clip-rule="nonzero">
<path style="fill:none;stroke-width:0.2;stroke-linecap:square;stroke-linejoin:miter;stroke:rgb(50.000763%,50.000763%,50.000763%);stroke-opacity:0.5;stroke-miterlimit:3.25;" d="M 81.066406 40.523438 L 265.5625 129.371094 "/>
</g>
<g clip-path="url(#clip31)" clip-rule="nonzero">
<path style="fill:none;stroke-width:0.2;stroke-linecap:square;stroke-linejoin:miter;stroke:rgb(50.000763%,50.000763%,50.000763%);stroke-opacity:0.5;stroke-miterlimit:3.25;" d="M -33.328125 160.070312 L 57.152344 -27.8125 "/>
<path style="fill:none;stroke-width:0.2;stroke-linecap:square;stroke-linejoin:miter;stroke:rgb(50.000763%,50.000763%,50.000763%);stroke-opacity:0.5;stroke-miterlimit:3.25;" d="M -33.328125 160.070312 L 57.152344 -27.8125 "/>
</g>
<g clip-path="url(#clip32)" clip-rule="nonzero">
<path style="fill:none;stroke-width:0.2;stroke-linecap:square;stroke-linejoin:miter;stroke:rgb(50.000763%,50.000763%,50.000763%);stroke-opacity:0.5;stroke-miterlimit:3.25;" d="M 57.152344 -27.8125 L 287.777344 83.25 "/>
</g>
<g clip-path="url(#clip33)" clip-rule="nonzero">
<path style="fill:none;stroke-width:0.2;stroke-linecap:square;stroke-linejoin:miter;stroke:rgb(50.000763%,50.000763%,50.000763%);stroke-opacity:0.5;stroke-miterlimit:3.25;" d="M 45.796875 160.070312 L 70.152344 53.367188 "/>
<path style="fill:none;stroke-width:0.2;stroke-linecap:square;stroke-linejoin:miter;stroke:rgb(50.000763%,50.000763%,50.000763%);stroke-opacity:0.5;stroke-miterlimit:3.25;" d="M 45.796875 160.070312 L 70.152344 53.367188 "/>
</g>
<path style=" stroke:none;fill-rule:nonzero;fill:rgb(50.000763%,50.000763%,50.000763%);fill-opacity:0.5;" d="M 70.152344 53.367188 L 70.054688 53.269531 L 70.078125 53.25 L 70.175781 53.269531 Z M 70.152344 53.367188 "/>
<g clip-path="url(#clip34)" clip-rule="nonzero">
<path style="fill:none;stroke-width:0.2;stroke-linecap:square;stroke-linejoin:miter;stroke:rgb(50.000763%,50.000763%,50.000763%);stroke-opacity:0.5;stroke-miterlimit:3.25;" d="M 70.152344 53.367188 L 269.796875 98.933594 "/>
</g>
<g clip-path="url(#clip35)" clip-rule="nonzero">
<path style="fill:none;stroke-width:0.2;stroke-linecap:square;stroke-linejoin:miter;stroke:rgb(50.000763%,50.000763%,50.000763%);stroke-opacity:0.5;stroke-miterlimit:3.25;" d="M -6.710938 160.070312 L 31.632812 -7.933594 "/>
<path style="fill:none;stroke-width:0.2;stroke-linecap:square;stroke-linejoin:miter;stroke:rgb(50.000763%,50.000763%,50.000763%);stroke-opacity:0.5;stroke-miterlimit:3.25;" d="M -6.710938 160.070312 L 31.632812 -7.933594 "/>
</g>
<g clip-path="url(#clip36)" clip-rule="nonzero">
<path style="fill:none;stroke-width:0.2;stroke-linecap:square;stroke-linejoin:miter;stroke:rgb(50.000763%,50.000763%,50.000763%);stroke-opacity:0.5;stroke-miterlimit:3.25;" d="M 31.632812 -7.933594 L 281.1875 49.023438 "/>
</g>
<g clip-path="url(#clip37)" clip-rule="nonzero">
<path style="fill:none;stroke-width:0.2;stroke-linecap:square;stroke-linejoin:miter;stroke:rgb(50.000763%,50.000763%,50.000763%);stroke-opacity:0.5;stroke-miterlimit:3.25;" d="M 51.71875 160.070312 L 51.71875 70.472656 "/>
<path style="fill:none;stroke-width:0.2;stroke-linecap:square;stroke-linejoin:miter;stroke:rgb(50.000763%,50.000763%,50.000763%);stroke-opacity:0.5;stroke-miterlimit:3.25;" d="M 51.71875 160.070312 L 51.71875 70.472656 "/>
</g>
<path style=" stroke:none;fill-rule:nonzero;fill:rgb(50.000763%,50.000763%,50.000763%);fill-opacity:0.5;" d="M 51.71875 70.472656 L 51.617188 70.371094 L 51.617188 64 L 51.71875 70.371094 Z M 51.71875 70.472656 "/>
<g clip-path="url(#clip38)" clip-rule="nonzero">
<path style="fill:none;stroke-width:0.2;stroke-linecap:square;stroke-linejoin:miter;stroke:rgb(50.000763%,50.000763%,50.000763%);stroke-opacity:0.5;stroke-miterlimit:3.25;" d="M 51.71875 70.472656 L 256.496094 70.472656 "/>
</g>
<g clip-path="url(#clip39)" clip-rule="nonzero">
<path style="fill:none;stroke-width:0.2;stroke-linecap:square;stroke-linejoin:miter;stroke:rgb(50.000763%,50.000763%,50.000763%);stroke-opacity:0.5;stroke-miterlimit:3.25;" d="M 0.523438 19.277344 L 256.496094 19.277344 "/>
</g>
<g clip-path="url(#clip40)" clip-rule="nonzero">
<path style=" stroke:none;fill-rule:nonzero;fill:rgb(74.999619%,74.999619%,74.999619%);fill-opacity:1;" d="M 183.703125 108.53125 L 318.335938 43.695312 L 383.171875 178.328125 L 428.046875 156.714844 L 341.601562 -22.792969 L 162.089844 63.65625 Z M 183.703125 108.53125 "/>
</g>
<g clip-path="url(#clip41)" clip-rule="nonzero">
<path style="fill:none;stroke-width:1;stroke-linecap:square;stroke-linejoin:miter;stroke:rgb(0%,0%,0%);stroke-opacity:1;stroke-miterlimit:3.25;" d="M 183.703125 108.53125 L 318.335938 43.695312 "/>
</g>
<g clip-path="url(#clip42)" clip-rule="nonzero">
<path style="fill:none;stroke-width:1;stroke-linecap:square;stroke-linejoin:miter;stroke:rgb(0%,0%,0%);stroke-opacity:1;stroke-miterlimit:3.25;" d="M 372.914062 157.035156 L 318.335938 43.695312 "/>
</g>
<path style=" stroke:none;fill-rule:nonzero;fill:rgb(0%,0%,0%);fill-opacity:1;" d="M 318.335938 43.695312 L 318.785156 44.148438 L 318.566406 43.027344 L 318.117188 43.246094 Z M 318.335938 43.695312 "/>
<g clip-path="url(#clip43)" clip-rule="nonzero">
<path style="fill:none;stroke-width:1;stroke-linecap:square;stroke-linejoin:miter;stroke:rgb(0%,0%,0%);stroke-opacity:1;stroke-miterlimit:3.25;" d="M 372.914062 157.035156 L 318.335938 43.695312 "/>
</g>
<path style=" stroke:none;fill-rule:nonzero;fill:rgb(0%,0%,0%);fill-opacity:1;" d="M 318.335938 43.695312 L 318.785156 44.148438 L 318.566406 43.027344 L 318.117188 43.246094 Z M 318.335938 43.695312 "/>
<g clip-path="url(#clip44)" clip-rule="nonzero">
<path style="fill:none;stroke-width:1;stroke-linecap:square;stroke-linejoin:miter;stroke:rgb(0%,0%,0%);stroke-opacity:1;stroke-miterlimit:3.25;" d="M 162.089844 63.65625 L 341.601562 -22.792969 L 428.046875 156.714844 "/>
</g>
<path style="fill-rule:nonzero;fill:rgb(100%,100%,86.999313%);fill-opacity:1;stroke-width:1;stroke-linecap:square;stroke-linejoin:miter;stroke:rgb(0%,0%,0%);stroke-opacity:1;stroke-miterlimit:3.25;" d="M 330.203125 67.03125 L 329.972656 65.273438 L 329.671875 63.539062 L 329.292969 61.835938 L 328.839844 60.164062 L 328.316406 58.53125 L 327.722656 56.9375 L 327.0625 55.382812 L 326.335938 53.875 L 325.542969 52.414062 L 324.691406 51.003906 L 323.777344 49.648438 L 322.804688 48.347656 L 321.777344 47.105469 L 320.699219 45.921875 L 319.566406 44.800781 L 318.390625 43.742188 L 317.167969 42.753906 L 315.902344 41.832031 L 314.601562 40.984375 L 313.261719 40.203125 L 311.886719 39.5 L 310.484375 38.871094 L 309.058594 38.320312 L 307.605469 37.84375 L 306.132812 37.449219 L 304.644531 37.132812 L 303.144531 36.902344 L 301.636719 36.757812 L 300.128906 36.695312 L 298.617188 36.71875 L 297.109375 36.824219 L 295.605469 37.015625 L 294.109375 37.292969 L 292.628906 37.652344 L 291.167969 38.089844 L 289.726562 38.605469 L 288.3125 39.199219 L 286.925781 39.867188 L 285.570312 40.613281 L 284.25 41.429688 L 282.96875 42.316406 L 281.726562 43.273438 L 280.527344 44.300781 L 279.375 45.390625 L 278.269531 46.546875 L 277.21875 47.761719 L 276.21875 49.035156 L 275.28125 50.367188 L 274.398438 51.753906 L 273.578125 53.191406 L 272.820312 54.675781 L 272.128906 56.207031 L 271.503906 57.785156 L 270.945312 59.398438 L 270.460938 61.054688 L 270.050781 62.742188 L 269.710938 64.460938 L 269.445312 66.210938 L 269.351562 67.03125 L 269.273438 67.09375 L 269.101562 67.226562 L 269.007812 67.292969 L 268.90625 67.363281 L 268.800781 67.4375 L 268.691406 67.511719 L 268.574219 67.585938 L 268.453125 67.660156 L 268.324219 67.738281 L 268.191406 67.816406 L 268.050781 67.894531 L 267.90625 67.972656 L 267.753906 68.050781 L 267.59375 68.128906 L 267.429688 68.210938 L 267.261719 68.289062 L 267.085938 68.367188 L 266.902344 68.445312 L 266.714844 68.523438 L 266.519531 68.601562 L 266.320312 68.679688 L 266.113281 68.753906 L 265.898438 68.828125 L 265.679688 68.898438 L 265.453125 68.96875 L 265.21875 69.039062 L 264.980469 69.105469 L 264.738281 69.171875 L 264.484375 69.234375 L 264.226562 69.292969 L 263.964844 69.351562 L 263.695312 69.40625 L 263.417969 69.457031 L 263.136719 69.503906 L 262.847656 69.550781 L 262.554688 69.589844 L 262.253906 69.628906 L 261.949219 69.664062 L 261.636719 69.695312 L 261.320312 69.71875 L 260.996094 69.742188 L 260.664062 69.757812 L 260.308594 69.769531 L 259.9375 69.777344 L 219.394531 69.78125 L 219.429688 68.957031 L 219.542969 67.199219 L 219.699219 65.460938 L 219.898438 63.75 L 220.136719 62.058594 L 220.414062 60.398438 L 220.730469 58.761719 L 221.085938 57.15625 L 221.476562 55.578125 L 221.898438 54.03125 L 222.355469 52.519531 L 222.847656 51.039062 L 223.367188 49.589844 L 223.914062 48.179688 L 224.488281 46.804688 L 225.085938 45.464844 L 225.710938 44.164062 L 226.355469 42.902344 L 227.019531 41.679688 L 227.703125 40.492188 L 228.402344 39.347656 L 229.117188 38.242188 L 229.847656 37.179688 L 230.585938 36.15625 L 231.332031 35.175781 L 232.089844 34.234375 L 232.847656 33.335938 L 233.605469 32.484375 L 234.367188 31.671875 L 235.121094 30.90625 L 235.875 30.179688 L 236.621094 29.496094 L 237.363281 28.855469 L 238.113281 28.234375 L 238.972656 27.558594 L 239.835938 26.917969 L 240.707031 26.308594 L 241.574219 25.726562 L 242.445312 25.179688 L 243.3125 24.660156 L 244.183594 24.171875 L 245.050781 23.714844 L 245.914062 23.289062 L 246.769531 22.890625 L 247.625 22.519531 L 248.472656 22.175781 L 249.316406 21.859375 L 250.148438 21.574219 L 250.976562 21.308594 L 251.792969 21.074219 L 252.597656 20.863281 L 253.394531 20.675781 L 254.179688 20.511719 L 254.949219 20.371094 L 255.710938 20.253906 L 256.457031 20.15625 L 257.1875 20.082031 L 257.90625 20.027344 L 258.609375 19.988281 L 339.96875 19.972656 L 340.601562 19.980469 L 341.265625 20.003906 L 341.976562 20.050781 L 342.703125 20.113281 L 343.441406 20.199219 L 344.195312 20.308594 L 344.960938 20.433594 L 345.738281 20.585938 L 346.527344 20.761719 L 347.328125 20.957031 L 348.140625 21.179688 L 348.960938 21.429688 L 349.789062 21.703125 L 350.628906 22.003906 L 351.472656 22.332031 L 352.324219 22.6875 L 353.179688 23.070312 L 354.042969 23.484375 L 354.90625 23.925781 L 355.773438 24.398438 L 356.644531 24.898438 L 357.511719 25.429688 L 358.382812 25.992188 L 359.25 26.585938 L 360.117188 27.210938 L 360.980469 27.871094 L 361.796875 28.527344 L 362.535156 29.148438 L 363.277344 29.8125 L 364.027344 30.511719 L 364.78125 31.257812 L 365.539062 32.046875 L 366.300781 32.875 L 367.058594 33.75 L 367.816406 34.667969 L 368.566406 35.625 L 369.3125 36.628906 L 370.046875 37.667969 L 370.769531 38.753906 L 371.476562 39.875 L 372.167969 41.039062 L 372.84375 42.242188 L 373.5 43.484375 L 374.132812 44.765625 L 374.746094 46.085938 L 375.335938 47.441406 L 375.898438 48.832031 L 376.433594 50.261719 L 376.9375 51.722656 L 377.410156 53.21875 L 377.855469 54.746094 L 378.261719 56.308594 L 378.636719 57.898438 L 378.972656 59.519531 L 379.273438 61.167969 L 379.53125 62.84375 L 379.753906 64.542969 L 379.929688 66.265625 L 380.066406 68.011719 L 380.15625 69.78125 L 339.683594 69.78125 L 339.402344 69.773438 L 339.117188 69.765625 L 338.851562 69.757812 L 338.597656 69.742188 L 338.105469 69.710938 L 337.863281 69.6875 L 337.386719 69.640625 L 337.15625 69.613281 L 336.703125 69.550781 L 336.480469 69.515625 L 336.265625 69.480469 L 336.050781 69.441406 L 335.839844 69.402344 L 335.632812 69.359375 L 335.429688 69.316406 L 335.230469 69.273438 L 335.035156 69.226562 L 334.84375 69.175781 L 334.652344 69.128906 L 334.46875 69.078125 L 334.289062 69.027344 L 334.109375 68.972656 L 333.765625 68.863281 L 333.597656 68.808594 L 333.4375 68.75 L 333.277344 68.695312 L 333.121094 68.636719 L 332.96875 68.578125 L 332.820312 68.519531 L 332.675781 68.457031 L 332.535156 68.398438 L 332.398438 68.339844 L 332.265625 68.277344 L 332.136719 68.214844 L 332.007812 68.15625 L 331.886719 68.09375 L 331.765625 68.035156 L 331.652344 67.972656 L 331.539062 67.914062 L 331.429688 67.851562 L 331.324219 67.792969 L 331.222656 67.734375 L 331.125 67.675781 L 330.9375 67.558594 L 330.847656 67.5 L 330.683594 67.390625 L 330.605469 67.335938 L 330.53125 67.28125 L 330.457031 67.230469 L 330.324219 67.128906 L 330.261719 67.078125 Z M 330.203125 67.03125 "/>
<path style=" stroke:none;fill-rule:evenodd;fill:rgb(0%,66.666667%,0%);fill-opacity:1;" d="M 319 44 C 319 43.734375 318.894531 43.480469 318.707031 43.292969 C 318.519531 43.105469 318.265625 43 318 43 C 317.734375 43 317.480469 43.105469 317.292969 43.292969 C 317.105469 43.480469 317 43.734375 317 44 C 317 44.265625 317.105469 44.519531 317.292969 44.707031 C 317.480469 44.894531 317.734375 45 318 45 C 318.265625 45 318.519531 44.894531 318.707031 44.707031 C 318.894531 44.519531 319 44.265625 319 44 Z M 319 44 "/>
<path style="fill:none;stroke-width:1;stroke-linecap:square;stroke-linejoin:miter;stroke:rgb(0%,66.666667%,0%);stroke-opacity:1;stroke-miterlimit:3.25;" d="M 320.597656 42.605469 L 316.074219 44.785156 "/>
<path style=" stroke:none;fill-rule:evenodd;fill:rgb(0%,66.666667%,0%);fill-opacity:1;" d="M 268 68 C 268 67.734375 267.894531 67.480469 267.707031 67.292969 C 267.519531 67.105469 267.265625 67 267 67 C 266.734375 67 266.480469 67.105469 266.292969 67.292969 C 266.105469 67.480469 266 67.734375 266 68 C 266 68.265625 266.105469 68.519531 266.292969 68.707031 C 266.480469 68.894531 266.734375 69 267 69 C 267.265625 69 267.519531 68.894531 267.707031 68.707031 C 267.894531 68.519531 268 68.265625 268 68 Z M 268 68 "/>
<path style="fill:none;stroke-width:1;stroke-linecap:square;stroke-linejoin:miter;stroke:rgb(0%,66.666667%,0%);stroke-opacity:1;stroke-miterlimit:3.25;" d="M 266.371094 68.71875 L 268.597656 67.648438 "/>
<path style=" stroke:none;fill-rule:evenodd;fill:rgb(0%,66.666667%,0%);fill-opacity:1;" d="M 247 23 C 247 22.734375 246.894531 22.480469 246.707031 22.292969 C 246.519531 22.105469 246.265625 22 246 22 C 245.734375 22 245.480469 22.105469 245.292969 22.292969 C 245.105469 22.480469 245 22.734375 245 23 C 245 23.265625 245.105469 23.519531 245.292969 23.707031 C 245.480469 23.894531 245.734375 24 246 24 C 246.265625 24 246.519531 23.894531 246.707031 23.707031 C 246.894531 23.519531 247 23.265625 247 23 Z M 247 23 "/>
<path style="fill:none;stroke-width:1;stroke-linecap:square;stroke-linejoin:miter;stroke:rgb(0%,66.666667%,0%);stroke-opacity:1;stroke-miterlimit:3.25;" d="M 249.246094 21.683594 L 242.496094 24.933594 "/>
<path style=" stroke:none;fill-rule:evenodd;fill:rgb(0%,0%,0%);fill-opacity:1;" d="M 325.671875 38.9375 L 325.671875 38.464844 L 324.902344 38.464844 L 323.042969 36.21875 L 324.320312 34.757812 C 324.441406 34.613281 324.539062 34.523438 325.453125 34.523438 L 325.453125 34.050781 L 324.441406 34.074219 C 324.121094 34.074219 323.648438 34.074219 323.339844 34.050781 L 323.339844 34.523438 C 323.546875 34.523438 323.78125 34.578125 323.78125 34.65625 C 323.78125 34.65625 323.726562 34.757812 323.703125 34.777344 L 322.746094 35.855469 L 321.65625 34.523438 L 322.117188 34.523438 L 322.117188 34.050781 C 321.867188 34.074219 321.117188 34.074219 320.820312 34.074219 C 320.488281 34.074219 319.894531 34.074219 319.585938 34.050781 L 319.585938 34.523438 L 320.367188 34.523438 L 322.085938 36.617188 L 320.65625 38.234375 C 320.523438 38.386719 320.445312 38.464844 319.53125 38.464844 L 319.53125 38.9375 L 320.554688 38.914062 C 320.875 38.914062 321.335938 38.914062 321.644531 38.9375 L 321.644531 38.464844 C 321.4375 38.464844 321.203125 38.410156 321.203125 38.332031 C 321.203125 38.332031 321.203125 38.3125 321.28125 38.222656 L 322.382812 36.976562 L 323.601562 38.464844 L 323.140625 38.464844 L 323.140625 38.9375 C 323.40625 38.914062 324.140625 38.914062 324.453125 38.914062 C 324.78125 38.914062 325.363281 38.914062 325.671875 38.9375 Z M 325.671875 38.9375 "/>
<path style=" stroke:none;fill-rule:evenodd;fill:rgb(0%,0%,0%);fill-opacity:1;" d="M 329.511719 41.609375 C 329.511719 41.578125 329.511719 41.554688 329.324219 41.367188 C 328.222656 40.257812 327.605469 38.441406 327.605469 36.195312 C 327.605469 34.0625 328.125 32.226562 329.398438 30.925781 C 329.511719 30.828125 329.511719 30.804688 329.511719 30.773438 C 329.511719 30.707031 329.457031 30.683594 329.410156 30.683594 C 329.269531 30.683594 328.367188 31.476562 327.828125 32.554688 C 327.265625 33.667969 327.011719 34.84375 327.011719 36.195312 C 327.011719 37.175781 327.167969 38.484375 327.738281 39.664062 C 328.386719 40.984375 329.289062 41.699219 329.410156 41.699219 C 329.457031 41.699219 329.511719 41.679688 329.511719 41.609375 Z M 329.511719 41.609375 "/>
<path style=" stroke:none;fill-rule:evenodd;fill:rgb(0%,0%,0%);fill-opacity:1;" d="M 333.480469 37.363281 C 333.480469 37.296875 333.4375 37.265625 333.367188 37.265625 C 333.367188 37.265625 333.304688 37.265625 333.28125 37.308594 C 333.28125 37.308594 333.257812 37.332031 333.183594 37.507812 C 332.953125 38.058594 332.445312 38.828125 331.804688 38.828125 C 331.476562 38.828125 331.453125 38.554688 331.453125 38.3125 C 331.453125 38.3125 331.453125 38.089844 331.488281 37.957031 L 332.34375 34.515625 L 333.359375 34.515625 C 333.566406 34.515625 333.679688 34.515625 333.679688 34.316406 C 333.679688 34.195312 333.609375 34.195312 333.390625 34.195312 L 332.421875 34.195312 L 332.828125 32.589844 C 332.875 32.433594 332.875 32.414062 332.875 32.335938 C 332.875 32.160156 332.730469 32.0625 332.585938 32.0625 C 332.5 32.0625 332.246094 32.09375 332.160156 32.445312 L 331.730469 34.195312 L 330.695312 34.195312 C 330.476562 34.195312 330.375 34.195312 330.375 34.40625 C 330.375 34.515625 330.453125 34.515625 330.664062 34.515625 L 331.640625 34.515625 L 330.914062 37.417969 C 330.828125 37.804688 330.796875 37.914062 330.796875 38.058594 C 330.796875 38.574219 331.15625 39.046875 331.773438 39.046875 C 332.886719 39.046875 333.480469 37.441406 333.480469 37.363281 Z M 333.480469 37.363281 "/>
<path style=" stroke:none;fill-rule:evenodd;fill:rgb(0%,0%,0%);fill-opacity:1;" d="M 337.136719 36.195312 C 337.136719 35.359375 337.027344 33.996094 336.410156 32.71875 C 335.761719 31.398438 334.859375 30.683594 334.738281 30.683594 C 334.695312 30.683594 334.640625 30.707031 334.640625 30.773438 C 334.640625 30.804688 334.640625 30.828125 334.828125 31.015625 C 335.925781 32.128906 336.542969 33.941406 336.542969 36.1875 C 336.542969 38.320312 336.027344 40.160156 334.75 41.457031 C 334.640625 41.554688 334.640625 41.578125 334.640625 41.609375 C 334.640625 41.679688 334.695312 41.699219 334.738281 41.699219 C 334.882812 41.699219 335.785156 40.90625 336.324219 39.828125 C 336.882812 38.707031 337.136719 37.519531 337.136719 36.195312 Z M 337.136719 36.195312 "/>
<path style=" stroke:none;fill-rule:evenodd;fill:rgb(0%,0%,0%);fill-opacity:1;" d="M 232.113281 16.039062 C 232.113281 15.855469 232.046875 15.84375 231.882812 15.84375 C 231.769531 15.84375 231.660156 15.84375 231.652344 15.964844 C 231.550781 17.632812 230.132812 18.207031 229.140625 18.207031 C 228.425781 18.207031 227.457031 18.007812 226.84375 17.316406 C 226.457031 16.898438 226.105469 16.292969 226.105469 14.777344 C 226.105469 13.695312 226.269531 12.894531 226.789062 12.277344 C 227.492188 11.453125 228.589844 11.339844 229.121094 11.339844 C 229.945312 11.339844 231.277344 11.804688 231.605469 13.742188 C 231.628906 13.839844 231.726562 13.839844 231.859375 13.839844 C 232.113281 13.839844 232.113281 13.816406 232.113281 13.554688 L 232.113281 11.15625 C 232.113281 10.902344 232.113281 10.871094 231.871094 10.871094 L 231.046875 11.660156 C 230.429688 11.132812 229.691406 10.871094 228.878906 10.871094 C 226.25 10.871094 224.554688 12.464844 224.554688 14.777344 C 224.554688 17.042969 226.195312 18.679688 228.886719 18.679688 C 230.847656 18.679688 232.113281 17.335938 232.113281 16.039062 Z M 232.113281 16.039062 "/>
<path style=" stroke:none;fill-rule:evenodd;fill:rgb(0%,0%,0%);fill-opacity:1;" d="M 236.347656 21.222656 C 236.347656 21.1875 236.347656 21.167969 236.160156 20.980469 C 235.058594 19.867188 234.441406 18.054688 234.441406 15.808594 C 234.441406 13.675781 234.960938 11.835938 236.234375 10.539062 C 236.347656 10.441406 236.347656 10.417969 236.347656 10.386719 C 236.347656 10.316406 236.292969 10.296875 236.246094 10.296875 C 236.105469 10.296875 235.203125 11.089844 234.664062 12.167969 C 234.101562 13.277344 233.847656 14.457031 233.847656 15.808594 C 233.847656 16.789062 234.003906 18.097656 234.574219 19.273438 C 235.222656 20.59375 236.125 21.3125 236.246094 21.3125 C 236.292969 21.3125 236.347656 21.289062 236.347656 21.222656 Z M 236.347656 21.222656 "/>
<path style=" stroke:none;fill-rule:evenodd;fill:rgb(0%,0%,0%);fill-opacity:1;" d="M 240.316406 16.976562 C 240.316406 16.910156 240.273438 16.878906 240.203125 16.878906 C 240.203125 16.878906 240.140625 16.878906 240.117188 16.921875 C 240.117188 16.921875 240.09375 16.941406 240.019531 17.117188 C 239.789062 17.667969 239.28125 18.4375 238.640625 18.4375 C 238.3125 18.4375 238.289062 18.164062 238.289062 17.921875 C 238.289062 17.921875 238.289062 17.703125 238.324219 17.570312 L 239.179688 14.125 L 240.195312 14.125 C 240.402344 14.125 240.515625 14.125 240.515625 13.925781 C 240.515625 13.808594 240.445312 13.808594 240.226562 13.808594 L 239.257812 13.808594 L 239.664062 12.199219 C 239.710938 12.046875 239.710938 12.023438 239.710938 11.949219 C 239.710938 11.769531 239.566406 11.671875 239.421875 11.671875 C 239.335938 11.671875 239.082031 11.707031 238.996094 12.058594 L 238.566406 13.808594 L 237.53125 13.808594 C 237.3125 13.808594 237.210938 13.808594 237.210938 14.015625 C 237.210938 14.125 237.289062 14.125 237.5 14.125 L 238.476562 14.125 L 237.75 17.03125 C 237.664062 17.414062 237.632812 17.523438 237.632812 17.667969 C 237.632812 18.1875 237.992188 18.65625 238.609375 18.65625 C 239.722656 18.65625 240.316406 17.050781 240.316406 16.976562 Z M 240.316406 16.976562 "/>
<path style=" stroke:none;fill-rule:evenodd;fill:rgb(0%,0%,0%);fill-opacity:1;" d="M 243.871094 15.808594 C 243.871094 14.972656 243.761719 13.609375 243.144531 12.332031 C 242.496094 11.011719 241.59375 10.296875 241.472656 10.296875 C 241.429688 10.296875 241.375 10.316406 241.375 10.386719 C 241.375 10.417969 241.375 10.441406 241.5625 10.628906 C 242.660156 11.738281 243.277344 13.554688 243.277344 15.796875 C 243.277344 17.933594 242.761719 19.769531 241.484375 21.070312 C 241.375 21.167969 241.375 21.1875 241.375 21.222656 C 241.375 21.289062 241.429688 21.3125 241.472656 21.3125 C 241.617188 21.3125 242.519531 20.519531 243.058594 19.4375 C 243.621094 18.316406 243.871094 17.128906 243.871094 15.808594 Z M 243.871094 15.808594 "/>
<path style=" stroke:none;fill-rule:evenodd;fill:rgb(0%,0%,0%);fill-opacity:1;" d="M 277.277344 74.71875 C 277.277344 72.230469 275.601562 70.875 273.535156 70.875 L 268.902344 70.875 L 268.902344 71.351562 L 270.070312 71.351562 L 270.070312 77.953125 L 268.902344 77.953125 L 268.902344 78.425781 L 273.535156 78.425781 C 275.648438 78.425781 277.277344 77.074219 277.277344 74.71875 Z M 275.78125 74.707031 C 275.78125 75.996094 275.613281 76.566406 275.230469 77.082031 C 274.84375 77.589844 274.109375 77.953125 273.117188 77.953125 L 271.464844 77.953125 L 271.464844 71.351562 L 273.117188 71.351562 C 274.074219 71.351562 274.84375 71.722656 275.25 72.296875 C 275.570312 72.746094 275.78125 73.285156 275.78125 74.707031 Z M 275.78125 74.707031 "/>
<path style=" stroke:none;fill-rule:evenodd;fill:rgb(0%,0%,0%);fill-opacity:1;" d="M 281.460938 81.097656 C 281.460938 81.066406 281.460938 81.042969 281.273438 80.855469 C 280.175781 79.746094 279.558594 77.929688 279.558594 75.683594 C 279.558594 73.550781 280.074219 71.710938 281.351562 70.414062 C 281.460938 70.316406 281.460938 70.292969 281.460938 70.261719 C 281.460938 70.195312 281.40625 70.171875 281.363281 70.171875 C 281.21875 70.171875 280.316406 70.964844 279.777344 72.042969 C 279.214844 73.15625 278.964844 74.332031 278.964844 75.683594 C 278.964844 76.664062 279.117188 77.972656 279.691406 79.152344 C 280.339844 80.472656 281.242188 81.1875 281.363281 81.1875 C 281.40625 81.1875 281.460938 81.167969 281.460938 81.097656 Z M 281.460938 81.097656 "/>
<path style=" stroke:none;fill-rule:evenodd;fill:rgb(0%,0%,0%);fill-opacity:1;" d="M 285.429688 76.851562 C 285.429688 76.785156 285.386719 76.753906 285.320312 76.753906 C 285.320312 76.753906 285.253906 76.753906 285.234375 76.796875 C 285.234375 76.796875 285.210938 76.820312 285.132812 76.996094 C 284.902344 77.546875 284.398438 78.316406 283.757812 78.316406 C 283.425781 78.316406 283.40625 78.042969 283.40625 77.800781 C 283.40625 77.800781 283.40625 77.578125 283.4375 77.445312 L 284.296875 74 L 285.308594 74 C 285.519531 74 285.628906 74 285.628906 73.804688 C 285.628906 73.683594 285.5625 73.683594 285.34375 73.683594 L 284.375 73.683594 L 284.78125 72.078125 C 284.828125 71.921875 284.828125 71.898438 284.828125 71.824219 C 284.828125 71.648438 284.683594 71.546875 284.539062 71.546875 C 284.453125 71.546875 284.199219 71.582031 284.109375 71.933594 L 283.679688 73.683594 L 282.644531 73.683594 C 282.425781 73.683594 282.328125 73.683594 282.328125 73.890625 C 282.328125 74 282.402344 74 282.613281 74 L 283.59375 74 L 282.867188 76.90625 C 282.777344 77.292969 282.746094 77.402344 282.746094 77.546875 C 282.746094 78.0625 283.109375 78.535156 283.726562 78.535156 C 284.835938 78.535156 285.429688 76.929688 285.429688 76.851562 Z M 285.429688 76.851562 "/>
<path style=" stroke:none;fill-rule:evenodd;fill:rgb(0%,0%,0%);fill-opacity:1;" d="M 289.089844 75.683594 C 289.089844 74.847656 288.976562 73.484375 288.363281 72.207031 C 287.714844 70.886719 286.8125 70.171875 286.691406 70.171875 C 286.648438 70.171875 286.589844 70.195312 286.589844 70.261719 C 286.589844 70.292969 286.589844 70.316406 286.777344 70.503906 C 287.878906 71.613281 288.496094 73.429688 288.496094 75.675781 C 288.496094 77.808594 287.976562 79.648438 286.703125 80.945312 C 286.589844 81.042969 286.589844 81.066406 286.589844 81.097656 C 286.589844 81.167969 286.648438 81.1875 286.691406 81.1875 C 286.832031 81.1875 287.734375 80.394531 288.273438 79.316406 C 288.835938 78.195312 289.089844 77.007812 289.089844 75.683594 Z M 289.089844 75.683594 "/>
</g>
</svg>
