<?xml version="1.0" encoding="UTF-8"?>
<svg xmlns="http://www.w3.org/2000/svg" xmlns:xlink="http://www.w3.org/1999/xlink" width="404pt" height="90pt" viewBox="0 0 404 90" version="1.1">
<defs>
<clipPath id="clip1">
  <path d="M 11.519531 31 L 135 31 L 135 83.28125 L 11.519531 83.28125 Z M 11.519531 31 "/>
</clipPath>
<clipPath id="clip2">
  <path d="M 116 31 L 193 31 L 193 83.28125 L 116 83.28125 Z M 116 31 "/>
</clipPath>
<clipPath id="clip3">
  <path d="M 116 31 L 193 31 L 193 83.28125 L 116 83.28125 Z M 116 31 "/>
</clipPath>
<clipPath id="clip4">
  <path d="M 11.519531 6.480469 L 159 6.480469 L 159 83.28125 L 11.519531 83.28125 Z M 11.519531 6.480469 "/>
</clipPath>
<clipPath id="clip5">
  <path d="M 140 6.480469 L 195.601562 6.480469 L 195.601562 83.28125 L 140 83.28125 Z M 140 6.480469 "/>
</clipPath>
<clipPath id="clip6">
  <path d="M 11.519531 14 L 195.601562 14 L 195.601562 76 L 11.519531 76 Z M 11.519531 14 "/>
</clipPath>
<clipPath id="clip7">
  <path d="M 11.519531 70 L 155 70 L 155 71 L 11.519531 71 Z M 11.519531 70 "/>
</clipPath>
<clipPath id="clip8">
  <path d="M 154 70 L 155 70 L 155 83.28125 L 154 83.28125 Z M 154 70 "/>
</clipPath>
<clipPath id="clip9">
  <path d="M 154 70 L 155 70 L 155 83.28125 L 154 83.28125 Z M 154 70 "/>
</clipPath>
<clipPath id="clip10">
  <path d="M 11.519531 19 L 195.601562 19 L 195.601562 20 L 11.519531 20 Z M 11.519531 19 "/>
</clipPath>
<clipPath id="clip11">
  <path d="M 11.519531 52 L 138 52 L 138 83.28125 L 11.519531 83.28125 Z M 11.519531 52 "/>
</clipPath>
<clipPath id="clip12">
  <path d="M 135 52 L 162 52 L 162 83.28125 L 135 83.28125 Z M 135 52 "/>
</clipPath>
<clipPath id="clip13">
  <path d="M 135 52 L 162 52 L 162 83.28125 L 135 83.28125 Z M 135 52 "/>
</clipPath>
<clipPath id="clip14">
  <path d="M 11.519531 6.480469 L 176 6.480469 L 176 50 L 11.519531 50 Z M 11.519531 6.480469 "/>
</clipPath>
<clipPath id="clip15">
  <path d="M 173 6.480469 L 195.601562 6.480469 L 195.601562 83.28125 L 173 83.28125 Z M 173 6.480469 "/>
</clipPath>
<clipPath id="clip16">
  <path d="M 11.519531 39 L 127 39 L 127 83.28125 L 11.519531 83.28125 Z M 11.519531 39 "/>
</clipPath>
<clipPath id="clip17">
  <path d="M 124 39 L 184 39 L 184 83.28125 L 124 83.28125 Z M 124 39 "/>
</clipPath>
<clipPath id="clip18">
  <path d="M 124 39 L 184 39 L 184 83.28125 L 124 83.28125 Z M 124 39 "/>
</clipPath>
<clipPath id="clip19">
  <path d="M 11.519531 6.480469 L 151 6.480469 L 151 83.28125 L 11.519531 83.28125 Z M 11.519531 6.480469 "/>
</clipPath>
<clipPath id="clip20">
  <path d="M 148 6.480469 L 195.601562 6.480469 L 195.601562 83.28125 L 148 83.28125 Z M 148 6.480469 "/>
</clipPath>
<clipPath id="clip21">
  <path d="M 11.519531 32 L 112 32 L 112 83.28125 L 11.519531 83.28125 Z M 11.519531 32 "/>
</clipPath>
<clipPath id="clip22">
  <path d="M 110 32 L 195.601562 32 L 195.601562 83.28125 L 110 83.28125 Z M 110 32 "/>
</clipPath>
<clipPath id="clip23">
  <path d="M 11.519531 6.480469 L 121 6.480469 L 121 83.28125 L 11.519531 83.28125 Z M 11.519531 6.480469 "/>
</clipPath>
<clipPath id="clip24">
  <path d="M 118 6.480469 L 195.601562 6.480469 L 195.601562 83.28125 L 118 83.28125 Z M 118 6.480469 "/>
</clipPath>
<clipPath id="clip25">
  <path d="M 11.519531 32 L 97 32 L 97 83.28125 L 11.519531 83.28125 Z M 11.519531 32 "/>
</clipPath>
<clipPath id="clip26">
  <path d="M 94 32 L 195.601562 32 L 195.601562 83.28125 L 94 83.28125 Z M 94 32 "/>
</clipPath>
<clipPath id="clip27">
  <path d="M 11.519531 6.480469 L 89 6.480469 L 89 83.28125 L 11.519531 83.28125 Z M 11.519531 6.480469 "/>
</clipPath>
<clipPath id="clip28">
  <path d="M 86 6.480469 L 195.601562 6.480469 L 195.601562 83.28125 L 86 83.28125 Z M 86 6.480469 "/>
</clipPath>
<clipPath id="clip29">
  <path d="M 22 39 L 82 39 L 82 83.28125 L 22 83.28125 Z M 22 39 "/>
</clipPath>
<clipPath id="clip30">
  <path d="M 80 39 L 195.601562 39 L 195.601562 83.28125 L 80 83.28125 Z M 80 39 "/>
</clipPath>
<clipPath id="clip31">
  <path d="M 11.519531 6.480469 L 59 6.480469 L 59 83.28125 L 11.519531 83.28125 Z M 11.519531 6.480469 "/>
</clipPath>
<clipPath id="clip32">
  <path d="M 56 6.480469 L 195.601562 6.480469 L 195.601562 83.28125 L 56 83.28125 Z M 56 6.480469 "/>
</clipPath>
<clipPath id="clip33">
  <path d="M 44 52 L 72 52 L 72 83.28125 L 44 83.28125 Z M 44 52 "/>
</clipPath>
<clipPath id="clip34">
  <path d="M 69 52 L 195.601562 52 L 195.601562 83.28125 L 69 83.28125 Z M 69 52 "/>
</clipPath>
<clipPath id="clip35">
  <path d="M 11.519531 6.480469 L 33 6.480469 L 33 83.28125 L 11.519531 83.28125 Z M 11.519531 6.480469 "/>
</clipPath>
<clipPath id="clip36">
  <path d="M 30 6.480469 L 195.601562 6.480469 L 195.601562 50 L 30 50 Z M 30 6.480469 "/>
</clipPath>
<clipPath id="clip37">
  <path d="M 51 70 L 52 70 L 52 83.28125 L 51 83.28125 Z M 51 70 "/>
</clipPath>
<clipPath id="clip38">
  <path d="M 51 70 L 195.601562 70 L 195.601562 71 L 51 71 Z M 51 70 "/>
</clipPath>
<clipPath id="clip39">
  <path d="M 11.519531 19 L 195.601562 19 L 195.601562 20 L 11.519531 20 Z M 11.519531 19 "/>
</clipPath>
<clipPath id="clip40">
  <path d="M 208.078125 7.441406 L 392.160156 7.441406 L 392.160156 82.320312 L 208.078125 82.320312 Z M 208.078125 7.441406 "/>
</clipPath>
<clipPath id="clip41">
  <path d="M 208.078125 39 L 323 39 L 323 82.320312 L 208.078125 82.320312 Z M 208.078125 39 "/>
</clipPath>
<clipPath id="clip42">
  <path d="M 313 39 L 378 39 L 378 82.320312 L 313 82.320312 Z M 313 39 "/>
</clipPath>
<clipPath id="clip43">
  <path d="M 313 39 L 378 39 L 378 82.320312 L 313 82.320312 Z M 313 39 "/>
</clipPath>
<clipPath id="clip44">
  <path d="M 208.078125 7.441406 L 392.160156 7.441406 L 392.160156 82.320312 L 208.078125 82.320312 Z M 208.078125 7.441406 "/>
</clipPath>
</defs>
<g id="surface427">
<path style=" stroke:none;fill-rule:nonzero;fill:rgb(100%,100%,86.999313%);fill-opacity:1;" d="M 192.726562 70.472656 L 189.195312 55.015625 L 182.542969 41.195312 L 174.550781 31.175781 L 166.785156 24.984375 L 158.617188 21.046875 L 150.863281 19.277344 L 55.601562 19.277344 L 47.847656 21.046875 L 39.675781 24.984375 L 31.914062 31.175781 L 23.921875 41.195312 L 17.265625 55.015625 L 13.738281 70.472656 L 61.367188 70.472656 L 64.863281 69.675781 L 66.625 68.828125 L 70.152344 53.367188 L 74.410156 54.339844 L 81.066406 40.523438 L 87.476562 43.609375 L 95.46875 33.589844 L 103.230469 39.78125 L 110.996094 33.589844 L 118.988281 43.609375 L 125.398438 40.523438 L 132.050781 54.339844 L 136.3125 53.367188 L 139.839844 68.828125 L 141.601562 69.675781 L 145.09375 70.472656 Z M 192.726562 70.472656 "/>
<g clip-path="url(#clip1)" clip-rule="nonzero">
<path style="fill:none;stroke-width:2;stroke-linecap:square;stroke-linejoin:miter;stroke:rgb(86.999313%,94.000153%,100%);stroke-opacity:1;stroke-miterlimit:3.25;" d="M -59.101562 129.371094 L 125.398438 40.523438 "/>
</g>
<g clip-path="url(#clip2)" clip-rule="nonzero">
<path style="fill:none;stroke-width:2;stroke-linecap:square;stroke-linejoin:miter;stroke:rgb(86.999313%,94.000153%,100%);stroke-opacity:1;stroke-miterlimit:3.25;" d="M 182.96875 160.070312 L 125.398438 40.523438 "/>
</g>
<path style=" stroke:none;fill-rule:nonzero;fill:rgb(86.999313%,94.000153%,100%);fill-opacity:1;" d="M 125.398438 40.523438 L 126.296875 41.425781 L 125.863281 39.1875 L 124.964844 39.621094 Z M 125.398438 40.523438 "/>
<g clip-path="url(#clip3)" clip-rule="nonzero">
<path style="fill:none;stroke-width:2;stroke-linecap:square;stroke-linejoin:miter;stroke:rgb(86.999313%,94.000153%,100%);stroke-opacity:1;stroke-miterlimit:3.25;" d="M 182.96875 160.070312 L 125.398438 40.523438 "/>
</g>
<path style=" stroke:none;fill-rule:nonzero;fill:rgb(86.999313%,94.000153%,100%);fill-opacity:1;" d="M 125.398438 40.523438 L 126.296875 41.425781 L 125.863281 39.1875 L 124.964844 39.621094 Z M 125.398438 40.523438 "/>
<g clip-path="url(#clip4)" clip-rule="nonzero">
<path style="fill:none;stroke-width:2;stroke-linecap:square;stroke-linejoin:miter;stroke:rgb(86.999313%,94.000153%,100%);stroke-opacity:1;stroke-miterlimit:3.25;" d="M -81.3125 83.25 L 149.308594 -27.8125 "/>
</g>
<g clip-path="url(#clip5)" clip-rule="nonzero">
<path style="fill:none;stroke-width:2;stroke-linecap:square;stroke-linejoin:miter;stroke:rgb(86.999313%,94.000153%,100%);stroke-opacity:1;stroke-miterlimit:3.25;" d="M 239.789062 160.070312 L 149.308594 -27.8125 "/>
<path style="fill:none;stroke-width:2;stroke-linecap:square;stroke-linejoin:miter;stroke:rgb(86.999313%,94.000153%,100%);stroke-opacity:1;stroke-miterlimit:3.25;" d="M 239.789062 160.070312 L 149.308594 -27.8125 "/>
</g>
<g clip-path="url(#clip6)" clip-rule="nonzero">
<path style="fill:none;stroke-width:1;stroke-linecap:square;stroke-linejoin:miter;stroke:rgb(0%,0%,0%);stroke-opacity:1;stroke-miterlimit:3.25;" d="M 192.726562 70.472656 L 189.195312 55.015625 L 182.542969 41.195312 L 174.550781 31.175781 L 166.785156 24.984375 L 158.617188 21.046875 L 150.863281 19.277344 L 55.601562 19.277344 L 47.847656 21.046875 L 39.675781 24.984375 L 31.914062 31.175781 L 23.921875 41.195312 L 17.265625 55.015625 L 13.738281 70.472656 L 61.367188 70.472656 L 64.863281 69.675781 L 66.625 68.828125 L 70.152344 53.367188 L 74.410156 54.339844 L 81.066406 40.523438 L 87.476562 43.609375 L 95.46875 33.589844 L 103.230469 39.78125 L 110.996094 33.589844 L 118.988281 43.609375 L 125.398438 40.523438 L 132.050781 54.339844 L 136.3125 53.367188 L 139.839844 68.828125 L 141.601562 69.675781 L 145.09375 70.472656 Z M 192.726562 70.472656 "/>
</g>
<path style="fill:none;stroke-width:1;stroke-linecap:square;stroke-linejoin:miter;stroke:rgb(0%,66.666667%,0%);stroke-opacity:1;stroke-miterlimit:3.25;" d="M 55.601562 19.277344 L 150.863281 19.277344 "/>
<path style="fill:none;stroke-width:1;stroke-linecap:square;stroke-linejoin:miter;stroke:rgb(0%,66.666667%,0%);stroke-opacity:1;stroke-miterlimit:3.25;" d="M 192.726562 70.472656 L 145.09375 70.472656 "/>
<path style="fill:none;stroke-width:1;stroke-linecap:square;stroke-linejoin:miter;stroke:rgb(0%,66.666667%,0%);stroke-opacity:1;stroke-miterlimit:3.25;" d="M 61.367188 70.472656 L 13.738281 70.472656 "/>
<path style="fill:none;stroke-width:1;stroke-linecap:square;stroke-linejoin:miter;stroke:rgb(0%,0%,100%);stroke-opacity:1;stroke-miterlimit:3.25;" d="M 47.847656 21.046875 L 39.675781 24.984375 "/>
<path style="fill:none;stroke-width:1;stroke-linecap:square;stroke-linejoin:miter;stroke:rgb(0%,0%,100%);stroke-opacity:1;stroke-miterlimit:3.25;" d="M 66.625 68.828125 L 64.863281 69.675781 "/>
<path style="fill:none;stroke-width:1;stroke-linecap:square;stroke-linejoin:miter;stroke:rgb(0%,0%,100%);stroke-opacity:1;stroke-miterlimit:3.25;" d="M 125.398438 40.523438 L 118.988281 43.609375 "/>
<g clip-path="url(#clip7)" clip-rule="nonzero">
<path style="fill:none;stroke-width:0.2;stroke-linecap:square;stroke-linejoin:miter;stroke:rgb(50.000763%,50.000763%,50.000763%);stroke-opacity:0.5;stroke-miterlimit:3.25;" d="M -50.03125 70.472656 L 154.746094 70.472656 "/>
</g>
<g clip-path="url(#clip8)" clip-rule="nonzero">
<path style="fill:none;stroke-width:0.2;stroke-linecap:square;stroke-linejoin:miter;stroke:rgb(50.000763%,50.000763%,50.000763%);stroke-opacity:0.5;stroke-miterlimit:3.25;" d="M 154.746094 160.070312 L 154.746094 70.472656 "/>
</g>
<path style=" stroke:none;fill-rule:nonzero;fill:rgb(50.000763%,50.000763%,50.000763%);fill-opacity:0.5;" d="M 154.746094 70.472656 L 154.84375 70.574219 L 154.84375 70.371094 L 154.746094 70.371094 Z M 154.746094 70.472656 "/>
<g clip-path="url(#clip9)" clip-rule="nonzero">
<path style="fill:none;stroke-width:0.2;stroke-linecap:square;stroke-linejoin:miter;stroke:rgb(50.000763%,50.000763%,50.000763%);stroke-opacity:0.5;stroke-miterlimit:3.25;" d="M 154.746094 160.070312 L 154.746094 70.472656 "/>
</g>
<path style=" stroke:none;fill-rule:nonzero;fill:rgb(50.000763%,50.000763%,50.000763%);fill-opacity:0.5;" d="M 154.746094 70.472656 L 154.84375 70.574219 L 154.84375 70.371094 L 154.746094 70.371094 Z M 154.746094 70.472656 "/>
<g clip-path="url(#clip10)" clip-rule="nonzero">
<path style="fill:none;stroke-width:0.2;stroke-linecap:square;stroke-linejoin:miter;stroke:rgb(50.000763%,50.000763%,50.000763%);stroke-opacity:0.5;stroke-miterlimit:3.25;" d="M -50.03125 19.277344 L 205.9375 19.277344 "/>
</g>
<g clip-path="url(#clip11)" clip-rule="nonzero">
<path style="fill:none;stroke-width:0.2;stroke-linecap:square;stroke-linejoin:miter;stroke:rgb(50.000763%,50.000763%,50.000763%);stroke-opacity:0.5;stroke-miterlimit:3.25;" d="M -63.332031 98.933594 L 136.3125 53.367188 "/>
</g>
<g clip-path="url(#clip12)" clip-rule="nonzero">
<path style="fill:none;stroke-width:0.2;stroke-linecap:square;stroke-linejoin:miter;stroke:rgb(50.000763%,50.000763%,50.000763%);stroke-opacity:0.5;stroke-miterlimit:3.25;" d="M 160.664062 160.070312 L 136.3125 53.367188 "/>
</g>
<path style=" stroke:none;fill-rule:nonzero;fill:rgb(50.000763%,50.000763%,50.000763%);fill-opacity:0.5;" d="M 136.3125 53.367188 L 136.410156 53.464844 L 136.386719 53.25 L 136.289062 53.269531 Z M 136.3125 53.367188 "/>
<g clip-path="url(#clip13)" clip-rule="nonzero">
<path style="fill:none;stroke-width:0.2;stroke-linecap:square;stroke-linejoin:miter;stroke:rgb(50.000763%,50.000763%,50.000763%);stroke-opacity:0.5;stroke-miterlimit:3.25;" d="M 160.664062 160.070312 L 136.3125 53.367188 "/>
</g>
<path style=" stroke:none;fill-rule:nonzero;fill:rgb(50.000763%,50.000763%,50.000763%);fill-opacity:0.5;" d="M 136.3125 53.367188 L 136.410156 53.464844 L 136.386719 53.25 L 136.289062 53.269531 Z M 136.3125 53.367188 "/>
<g clip-path="url(#clip14)" clip-rule="nonzero">
<path style="fill:none;stroke-width:0.2;stroke-linecap:square;stroke-linejoin:miter;stroke:rgb(50.000763%,50.000763%,50.000763%);stroke-opacity:0.5;stroke-miterlimit:3.25;" d="M -74.722656 49.023438 L 174.828125 -7.933594 "/>
</g>
<g clip-path="url(#clip15)" clip-rule="nonzero">
<path style="fill:none;stroke-width:0.2;stroke-linecap:square;stroke-linejoin:miter;stroke:rgb(50.000763%,50.000763%,50.000763%);stroke-opacity:0.5;stroke-miterlimit:3.25;" d="M 213.175781 160.070312 L 174.828125 -7.933594 "/>
<path style="fill:none;stroke-width:0.2;stroke-linecap:square;stroke-linejoin:miter;stroke:rgb(50.000763%,50.000763%,50.000763%);stroke-opacity:0.5;stroke-miterlimit:3.25;" d="M 213.175781 160.070312 L 174.828125 -7.933594 "/>
</g>
<g clip-path="url(#clip16)" clip-rule="nonzero">
<path style="fill:none;stroke-width:0.2;stroke-linecap:square;stroke-linejoin:miter;stroke:rgb(50.000763%,50.000763%,50.000763%);stroke-opacity:0.5;stroke-miterlimit:3.25;" d="M -59.101562 129.371094 L 125.398438 40.523438 "/>
</g>
<g clip-path="url(#clip17)" clip-rule="nonzero">
<path style="fill:none;stroke-width:0.2;stroke-linecap:square;stroke-linejoin:miter;stroke:rgb(50.000763%,50.000763%,50.000763%);stroke-opacity:0.5;stroke-miterlimit:3.25;" d="M 182.96875 160.070312 L 125.398438 40.523438 "/>
</g>
<path style=" stroke:none;fill-rule:nonzero;fill:rgb(50.000763%,50.000763%,50.000763%);fill-opacity:0.5;" d="M 125.398438 40.523438 L 125.488281 40.613281 L 125.445312 40.390625 L 125.355469 40.433594 Z M 125.398438 40.523438 "/>
<g clip-path="url(#clip18)" clip-rule="nonzero">
<path style="fill:none;stroke-width:0.2;stroke-linecap:square;stroke-linejoin:miter;stroke:rgb(50.000763%,50.000763%,50.000763%);stroke-opacity:0.5;stroke-miterlimit:3.25;" d="M 182.96875 160.070312 L 125.398438 40.523438 "/>
</g>
<path style=" stroke:none;fill-rule:nonzero;fill:rgb(50.000763%,50.000763%,50.000763%);fill-opacity:0.5;" d="M 125.398438 40.523438 L 125.488281 40.613281 L 125.445312 40.390625 L 125.355469 40.433594 Z M 125.398438 40.523438 "/>
<g clip-path="url(#clip19)" clip-rule="nonzero">
<path style="fill:none;stroke-width:0.2;stroke-linecap:square;stroke-linejoin:miter;stroke:rgb(50.000763%,50.000763%,50.000763%);stroke-opacity:0.5;stroke-miterlimit:3.25;" d="M -81.3125 83.25 L 149.308594 -27.8125 "/>
</g>
<g clip-path="url(#clip20)" clip-rule="nonzero">
<path style="fill:none;stroke-width:0.2;stroke-linecap:square;stroke-linejoin:miter;stroke:rgb(50.000763%,50.000763%,50.000763%);stroke-opacity:0.5;stroke-miterlimit:3.25;" d="M 239.789062 160.070312 L 149.308594 -27.8125 "/>
<path style="fill:none;stroke-width:0.2;stroke-linecap:square;stroke-linejoin:miter;stroke:rgb(50.000763%,50.000763%,50.000763%);stroke-opacity:0.5;stroke-miterlimit:3.25;" d="M 239.789062 160.070312 L 149.308594 -27.8125 "/>
</g>
<g clip-path="url(#clip21)" clip-rule="nonzero">
<path style="fill:none;stroke-width:0.2;stroke-linecap:square;stroke-linejoin:miter;stroke:rgb(50.000763%,50.000763%,50.000763%);stroke-opacity:0.5;stroke-miterlimit:3.25;" d="M -47.609375 160.070312 L 110.996094 33.589844 "/>
<path style="fill:none;stroke-width:0.2;stroke-linecap:square;stroke-linejoin:miter;stroke:rgb(50.000763%,50.000763%,50.000763%);stroke-opacity:0.5;stroke-miterlimit:3.25;" d="M -47.609375 160.070312 L 110.996094 33.589844 "/>
</g>
<path style=" stroke:none;fill-rule:nonzero;fill:rgb(50.000763%,50.000763%,50.000763%);fill-opacity:0.5;" d="M 110.996094 33.589844 L 110.933594 33.527344 L 111.011719 33.449219 L 111.074219 33.527344 Z M 110.996094 33.589844 "/>
<g clip-path="url(#clip22)" clip-rule="nonzero">
<path style="fill:none;stroke-width:0.2;stroke-linecap:square;stroke-linejoin:miter;stroke:rgb(50.000763%,50.000763%,50.000763%);stroke-opacity:0.5;stroke-miterlimit:3.25;" d="M 211.863281 160.070312 L 110.996094 33.589844 "/>
<path style="fill:none;stroke-width:0.2;stroke-linecap:square;stroke-linejoin:miter;stroke:rgb(50.000763%,50.000763%,50.000763%);stroke-opacity:0.5;stroke-miterlimit:3.25;" d="M 211.863281 160.070312 L 110.996094 33.589844 "/>
</g>
<g clip-path="url(#clip23)" clip-rule="nonzero">
<path style="fill:none;stroke-width:0.2;stroke-linecap:square;stroke-linejoin:miter;stroke:rgb(50.000763%,50.000763%,50.000763%);stroke-opacity:0.5;stroke-miterlimit:3.25;" d="M -81.023438 121.238281 L 119.101562 -38.355469 "/>
</g>
<g clip-path="url(#clip24)" clip-rule="nonzero">
<path style="fill:none;stroke-width:0.2;stroke-linecap:square;stroke-linejoin:miter;stroke:rgb(50.000763%,50.000763%,50.000763%);stroke-opacity:0.5;stroke-miterlimit:3.25;" d="M 277.34375 160.070312 L 119.101562 -38.355469 "/>
<path style="fill:none;stroke-width:0.2;stroke-linecap:square;stroke-linejoin:miter;stroke:rgb(50.000763%,50.000763%,50.000763%);stroke-opacity:0.5;stroke-miterlimit:3.25;" d="M 277.34375 160.070312 L 119.101562 -38.355469 "/>
</g>
<g clip-path="url(#clip25)" clip-rule="nonzero">
<path style="fill:none;stroke-width:0.2;stroke-linecap:square;stroke-linejoin:miter;stroke:rgb(50.000763%,50.000763%,50.000763%);stroke-opacity:0.5;stroke-miterlimit:3.25;" d="M -5.398438 160.070312 L 95.46875 33.589844 "/>
<path style="fill:none;stroke-width:0.2;stroke-linecap:square;stroke-linejoin:miter;stroke:rgb(50.000763%,50.000763%,50.000763%);stroke-opacity:0.5;stroke-miterlimit:3.25;" d="M -5.398438 160.070312 L 95.46875 33.589844 "/>
</g>
<path style=" stroke:none;fill-rule:nonzero;fill:rgb(50.000763%,50.000763%,50.000763%);fill-opacity:0.5;" d="M 95.46875 33.589844 L 95.390625 33.511719 L 95.453125 33.449219 L 95.53125 33.511719 Z M 95.46875 33.589844 "/>
<g clip-path="url(#clip26)" clip-rule="nonzero">
<path style="fill:none;stroke-width:0.2;stroke-linecap:square;stroke-linejoin:miter;stroke:rgb(50.000763%,50.000763%,50.000763%);stroke-opacity:0.5;stroke-miterlimit:3.25;" d="M 254.074219 160.070312 L 95.46875 33.589844 "/>
<path style="fill:none;stroke-width:0.2;stroke-linecap:square;stroke-linejoin:miter;stroke:rgb(50.000763%,50.000763%,50.000763%);stroke-opacity:0.5;stroke-miterlimit:3.25;" d="M 254.074219 160.070312 L 95.46875 33.589844 "/>
</g>
<g clip-path="url(#clip27)" clip-rule="nonzero">
<path style="fill:none;stroke-width:0.2;stroke-linecap:square;stroke-linejoin:miter;stroke:rgb(50.000763%,50.000763%,50.000763%);stroke-opacity:0.5;stroke-miterlimit:3.25;" d="M -70.878906 160.070312 L 87.363281 -38.355469 "/>
<path style="fill:none;stroke-width:0.2;stroke-linecap:square;stroke-linejoin:miter;stroke:rgb(50.000763%,50.000763%,50.000763%);stroke-opacity:0.5;stroke-miterlimit:3.25;" d="M -70.878906 160.070312 L 87.363281 -38.355469 "/>
</g>
<g clip-path="url(#clip28)" clip-rule="nonzero">
<path style="fill:none;stroke-width:0.2;stroke-linecap:square;stroke-linejoin:miter;stroke:rgb(50.000763%,50.000763%,50.000763%);stroke-opacity:0.5;stroke-miterlimit:3.25;" d="M 87.363281 -38.355469 L 287.488281 121.238281 "/>
</g>
<g clip-path="url(#clip29)" clip-rule="nonzero">
<path style="fill:none;stroke-width:0.2;stroke-linecap:square;stroke-linejoin:miter;stroke:rgb(50.000763%,50.000763%,50.000763%);stroke-opacity:0.5;stroke-miterlimit:3.25;" d="M 23.496094 160.070312 L 81.066406 40.523438 "/>
<path style="fill:none;stroke-width:0.2;stroke-linecap:square;stroke-linejoin:miter;stroke:rgb(50.000763%,50.000763%,50.000763%);stroke-opacity:0.5;stroke-miterlimit:3.25;" d="M 23.496094 160.070312 L 81.066406 40.523438 "/>
</g>
<path style=" stroke:none;fill-rule:nonzero;fill:rgb(50.000763%,50.000763%,50.000763%);fill-opacity:0.5;" d="M 81.066406 40.523438 L 80.976562 40.433594 L 81.019531 40.390625 L 81.109375 40.433594 Z M 81.066406 40.523438 "/>
<g clip-path="url(#clip30)" clip-rule="nonzero">
<path style="fill:none;stroke-width:0.2;stroke-linecap:square;stroke-linejoin:miter;stroke:rgb(50.000763%,50.000763%,50.000763%);stroke-opacity:0.5;stroke-miterlimit:3.25;" d="M 81.066406 40.523438 L 265.5625 129.371094 "/>
</g>
<g clip-path="url(#clip31)" clip-rule="nonzero">
<path style="fill:none;stroke-width:0.2;stroke-linecap:square;stroke-linejoin:miter;stroke:rgb(50.000763%,50.000763%,50.000763%);stroke-opacity:0.5;stroke-miterlimit:3.25;" d="M -33.328125 160.070312 L 57.152344 -27.8125 "/>
<path style="fill:none;stroke-width:0.2;stroke-linecap:square;stroke-linejoin:miter;stroke:rgb(50.000763%,50.000763%,50.000763%);stroke-opacity:0.5;stroke-miterlimit:3.25;" d="M -33.328125 160.070312 L 57.152344 -27.8125 "/>
</g>
<g clip-path="url(#clip32)" clip-rule="nonzero">
<path style="fill:none;stroke-width:0.2;stroke-linecap:square;stroke-linejoin:miter;stroke:rgb(50.000763%,50.000763%,50.000763%);stroke-opacity:0.5;stroke-miterlimit:3.25;" d="M 57.152344 -27.8125 L 287.777344 83.25 "/>
</g>
<g clip-path="url(#clip33)" clip-rule="nonzero">
<path style="fill:none;stroke-width:0.2;stroke-linecap:square;stroke-linejoin:miter;stroke:rgb(50.000763%,50.000763%,50.000763%);stroke-opacity:0.5;stroke-miterlimit:3.25;" d="M 45.796875 160.070312 L 70.152344 53.367188 "/>
<path style="fill:none;stroke-width:0.2;stroke-linecap:square;stroke-linejoin:miter;stroke:rgb(50.000763%,50.000763%,50.000763%);stroke-opacity:0.5;stroke-miterlimit:3.25;" d="M 45.796875 160.070312 L 70.152344 53.367188 "/>
</g>
<path style=" stroke:none;fill-rule:nonzero;fill:rgb(50.000763%,50.000763%,50.000763%);fill-opacity:0.5;" d="M 70.152344 53.367188 L 70.054688 53.269531 L 70.078125 53.25 L 70.175781 53.269531 Z M 70.152344 53.367188 "/>
<g clip-path="url(#clip34)" clip-rule="nonzero">
<path style="fill:none;stroke-width:0.2;stroke-linecap:square;stroke-linejoin:miter;stroke:rgb(50.000763%,50.000763%,50.000763%);stroke-opacity:0.5;stroke-miterlimit:3.25;" d="M 70.152344 53.367188 L 269.796875 98.933594 "/>
</g>
<g clip-path="url(#clip35)" clip-rule="nonzero">
<path style="fill:none;stroke-width:0.2;stroke-linecap:square;stroke-linejoin:miter;stroke:rgb(50.000763%,50.000763%,50.000763%);stroke-opacity:0.5;stroke-miterlimit:3.25;" d="M -6.710938 160.070312 L 31.632812 -7.933594 "/>
<path style="fill:none;stroke-width:0.2;stroke-linecap:square;stroke-linejoin:miter;stroke:rgb(50.000763%,50.000763%,50.000763%);stroke-opacity:0.5;stroke-miterlimit:3.25;" d="M -6.710938 160.070312 L 31.632812 -7.933594 "/>
</g>
<g clip-path="url(#clip36)" clip-rule="nonzero">
<path style="fill:none;stroke-width:0.2;stroke-linecap:square;stroke-linejoin:miter;stroke:rgb(50.000763%,50.000763%,50.000763%);stroke-opacity:0.5;stroke-miterlimit:3.25;" d="M 31.632812 -7.933594 L 281.1875 49.023438 "/>
</g>
<g clip-path="url(#clip37)" clip-rule="nonzero">
<path style="fill:none;stroke-width:0.2;stroke-linecap:square;stroke-linejoin:miter;stroke:rgb(50.000763%,50.000763%,50.000763%);stroke-opacity:0.5;stroke-miterlimit:3.25;" d="M 51.71875 160.070312 L 51.71875 70.472656 "/>
<path style="fill:none;stroke-width:0.2;stroke-linecap:square;stroke-linejoin:miter;stroke:rgb(50.000763%,50.000763%,50.000763%);stroke-opacity:0.5;stroke-miterlimit:3.25;" d="M 51.71875 160.070312 L 51.71875 70.472656 "/>
</g>
<path style=" stroke:none;fill-rule:nonzero;fill:rgb(50.000763%,50.000763%,50.000763%);fill-opacity:0.5;" d="M 51.71875 70.472656 L 51.617188 70.371094 L 51.617188 64 L 51.71875 70.371094 Z M 51.71875 70.472656 "/>
<g clip-path="url(#clip38)" clip-rule="nonzero">
<path style="fill:none;stroke-width:0.2;stroke-linecap:square;stroke-linejoin:miter;stroke:rgb(50.000763%,50.000763%,50.000763%);stroke-opacity:0.5;stroke-miterlimit:3.25;" d="M 51.71875 70.472656 L 256.496094 70.472656 "/>
</g>
<g clip-path="url(#clip39)" clip-rule="nonzero">
<path style="fill:none;stroke-width:0.2;stroke-linecap:square;stroke-linejoin:miter;stroke:rgb(50.000763%,50.000763%,50.000763%);stroke-opacity:0.5;stroke-miterlimit:3.25;" d="M 0.523438 19.277344 L 256.496094 19.277344 "/>
</g>
<g clip-path="url(#clip40)" clip-rule="nonzero">
<path style=" stroke:none;fill-rule:nonzero;fill:rgb(74.999619%,74.999619%,74.999619%);fill-opacity:1;" d="M 183.703125 108.53125 L 318.335938 43.695312 L 383.171875 178.328125 L 428.046875 156.714844 L 341.601562 -22.792969 L 162.089844 63.65625 Z M 183.703125 108.53125 "/>
</g>
<g clip-path="url(#clip41)" clip-rule="nonzero">
<path style="fill:none;stroke-width:1;stroke-linecap:square;stroke-linejoin:miter;stroke:rgb(0%,0%,0%);stroke-opacity:1;stroke-miterlimit:3.25;" d="M 183.703125 108.53125 L 318.335938 43.695312 "/>
</g>
<g clip-path="url(#clip42)" clip-rule="nonzero">
<path style="fill:none;stroke-width:1;stroke-linecap:square;stroke-linejoin:miter;stroke:rgb(0%,0%,0%);stroke-opacity:1;stroke-miterlimit:3.25;" d="M 372.914062 157.035156 L 318.335938 43.695312 "/>
</g>
<path style=" stroke:none;fill-rule:nonzero;fill:rgb(0%,0%,0%);fill-opacity:1;" d="M 318.335938 43.695312 L 318.785156 44.148438 L 318.566406 43.027344 L 318.117188 43.246094 Z M 318.335938 43.695312 "/>
<g clip-path="url(#clip43)" clip-rule="nonzero">
<path style="fill:none;stroke-width:1;stroke-linecap:square;stroke-linejoin:miter;stroke:rgb(0%,0%,0%);stroke-opacity:1;stroke-miterlimit:3.25;" d="M 372.914062 157.035156 L 318.335938 43.695312 "/>
</g>
<path style=" stroke:none;fill-rule:nonzero;fill:rgb(0%,0%,0%);fill-opacity:1;" d="M 318.335938 43.695312 L 318.785156 44.148438 L 318.566406 43.027344 L 318.117188 43.246094 Z M 318.335938 43.695312 "/>
<g clip-path="url(#clip44)" clip-rule="nonzero">
<path style="fill:none;stroke-width:1;stroke-linecap:square;stroke-linejoin:miter;stroke:rgb(0%,0%,0%);stroke-opacity:1;stroke-miterlimit:3.25;" d="M 162.089844 63.65625 L 341.601562 -22.792969 L 428.046875 156.714844 "/>
</g>
<path style="fill-rule:nonzero;fill:rgb(100%,100%,86.999313%);fill-opacity:1;stroke-width:1;stroke-linecap:square;stroke-linejoin:miter;stroke:rgb(0%,0%,0%);stroke-opacity:1;stroke-miterlimit:3.25;" d="M 330.203125 67.03125 L 329.972656 65.273438 L 329.671875 63.539062 L 329.292969 61.835938 L 328.839844 60.164062 L 328.316406 58.53125 L 327.722656 56.9375 L 327.0625 55.382812 L 326.335938 53.875 L 325.542969 52.414062 L 324.691406 51.003906 L 323.777344 49.648438 L 322.804688 48.347656 L 321.777344 47.105469 L 320.699219 45.921875 L 319.566406 44.800781 L 318.390625 43.742188 L 317.167969 42.753906 L 315.902344 41.832031 L 314.601562 40.984375 L 313.261719 40.203125 L 311.886719 39.5 L 310.484375 38.871094 L 309.058594 38.320312 L 307.605469 37.84375 L 306.132812 37.449219 L 304.644531 37.132812 L 303.144531 36.902344 L 301.636719 36.757812 L 300.128906 36.695312 L 298.617188 36.71875 L 297.109375 36.824219 L 295.605469 37.015625 L 294.109375 37.292969 L 292.628906 37.652344 L 291.167969 38.089844 L 289.726562 38.605469 L 288.3125 39.199219 L 286.925781 39.867188 L 285.570312 40.613281 L 284.25 41.429688 L 282.96875 42.316406 L 281.726562 43.273438 L 280.527344 44.300781 L 279.375 45.390625 L 278.269531 46.546875 L 277.21875 47.761719 L 276.21875 49.035156 L 275.28125 50.367188 L 274.398438 51.753906 L 273.578125 53.191406 L 272.820312 54.675781 L 272.128906 56.207031 L 271.503906 57.785156 L 270.945312 59.398438 L 270.460938 61.054688 L 270.050781 62.742188 L 269.710938 64.460938 L 269.445312 66.210938 L 269.351562 67.03125 L 269.273438 67.09375 L 269.101562 67.226562 L 269.007812 67.292969 L 268.90625 67.363281 L 268.800781 67.4375 L 268.691406 67.511719 L 268.574219 67.585938 L 268.453125 67.660156 L 268.324219 67.738281 L 268.191406 67.816406 L 268.050781 67.894531 L 267.90625 67.972656 L 267.753906 68.050781 L 267.59375 68.128906 L 267.429688 68.210938 L 267.261719 68.289062 L 267.085938 68.367188 L 266.902344 68.445312 L 266.714844 68.523438 L 266.519531 68.601562 L 266.320312 68.679688 L 266.113281 68.753906 L 265.898438 68.828125 L 265.679688 68.898438 L 265.453125 68.96875 L 265.21875 69.039062 L 264.980469 69.105469 L 264.738281 69.171875 L 264.484375 69.234375 L 264.226562 69.292969 L 263.964844 69.351562 L 263.695312 69.40625 L 263.417969 69.457031 L 263.136719 69.503906 L 262.847656 69.550781 L 262.554688 69.589844 L 262.253906 69.628906 L 261.949219 69.664062 L 261.636719 69.695312 L 261.320312 69.71875 L 260.996094 69.742188 L 260.664062 69.757812 L 260.308594 69.769531 L 259.9375 69.777344 L 219.394531 69.78125 L 219.429688 68.957031 L 219.542969 67.199219 L 219.699219 65.460938 L 219.898438 63.75 L 220.136719 62.058594 L 220.414062 60.398438 L 220.730469 58.761719 L 221.085938 57.15625 L 221.476562 55.578125 L 221.898438 54.03125 L 222.355469 52.519531 L 222.847656 51.039062 L 223.367188 49.589844 L 223.914062 48.179688 L 224.488281 46.804688 L 225.085938 45.464844 L 225.710938 44.164062 L 226.355469 42.902344 L 227.019531 41.679688 L 227.703125 40.492188 L 228.402344 39.347656 L 229.117188 38.242188 L 229.847656 37.179688 L 230.585938 36.15625 L 231.332031 35.175781 L 232.089844 34.234375 L 232.847656 33.335938 L 233.605469 32.484375 L 234.367188 31.671875 L 235.121094 30.90625 L 235.875 30.179688 L 236.621094 29.496094 L 237.363281 28.855469 L 238.113281 28.234375 L 238.972656 27.558594 L 239.835938 26.917969 L 240.707031 26.308594 L 241.574219 25.726562 L 242.445312 25.179688 L 243.3125 24.660156 L 244.183594 24.171875 L 245.050781 23.714844 L 245.914062 23.289062 L 246.769531 22.890625 L 247.625 22.519531 L 248.472656 22.175781 L 249.316406 21.859375 L 250.148438 21.574219 L 250.976562 21.308594 L 251.792969 21.074219 L 252.597656 20.863281 L 253.394531 20.675781 L 254.179688 20.511719 L 254.949219 20.371094 L 255.710938 20.253906 L 256.457031 20.15625 L 257.1875 20.082031 L 257.90625 20.027344 L 258.609375 19.988281 L 339.96875 19.972656 L 340.601562 19.980469 L 341.265625 20.003906 L 341.976562 20.050781 L 342.703125 20.113281 L 343.441406 20.199219 L 344.195312 20.308594 L 344.960938 20.433594 L 345.738281 20.585938 L 346.527344 20.761719 L 347.328125 20.957031 L 348.140625 21.179688 L 348.960938 21.429688 L 349.789062 21.703125 L 350.628906 22.003906 L 351.472656 22.332031 L 352.324219 22.6875 L 353.179688 23.070312 L 354.042969 23.484375 L 354.90625 23.925781 L 355.773438 24.398438 L 356.644531 24.898438 L 357.511719 25.429688 L 358.382812 25.992188 L 359.25 26.585938 L 360.117188 27.210938 L 360.980469 27.871094 L 361.796875 28.527344 L 362.535156 29.148438 L 363.277344 29.8125 L 364.027344 30.511719 L 364.78125 31.257812 L 365.539062 32.046875 L 366.300781 32.875 L 367.058594 33.75 L 367.816406 34.667969 L 368.566406 35.625 L 369.3125 36.628906 L 370.046875 37.667969 L 370.769531 38.753906 L 371.476562 39.875 L 372.167969 41.039062 L 372.84375 42.242188 L 373.5 43.484375 L 374.132812 44.765625 L 374.746094 46.085938 L 375.335938 47.441406 L 375.898438 48.832031 L 376.433594 50.261719 L 376.9375 51.722656 L 377.410156 53.21875 L 377.855469 54.746094 L 378.261719 56.308594 L 378.636719 57.898438 L 378.972656 59.519531 L 379.273438 61.167969 L 379.53125 62.84375 L 379.753906 64.542969 L 379.929688 66.265625 L 380.066406 68.011719 L 380.15625 69.78125 L 339.683594 69.78125 L 339.402344 69.773438 L 339.117188 69.765625 L 338.851562 69.757812 L 338.597656 69.742188 L 338.105469 69.710938 L 337.863281 69.6875 L 337.386719 69.640625 L 337.15625 69.613281 L 336.703125 69.550781 L 336.480469 69.515625 L 336.265625 69.480469 L 336.050781 69.441406 L 335.839844 69.402344 L 335.632812 69.359375 L 335.429688 69.316406 L 335.230469 69.273438 L 335.035156 69.226562 L 334.84375 69.175781 L 334.652344 69.128906 L 334.46875 69.078125 L 334.289062 69.027344 L 334.109375 68.972656 L 333.765625 68.863281 L 333.597656 68.808594 L 333.4375 68.75 L 333.277344 68.695312 L 333.121094 68.636719 L 332.96875 68.578125 L 332.820312 68.519531 L 332.675781 68.457031 L 332.535156 68.398438 L 332.398438 68.339844 L 332.265625 68.277344 L 332.136719 68.214844 L 332.007812 68.15625 L 331.886719 68.09375 L 331.765625 68.035156 L 331.652344 67.972656 L 331.539062 67.914062 L 331.429688 67.851562 L 331.324219 67.792969 L 331.222656 67.734375 L 331.125 67.675781 L 330.9375 67.558594 L 330.847656 67.5 L 330.683594 67.390625 L 330.605469 67.335938 L 330.53125 67.28125 L 330.457031 67.230469 L 330.324219 67.128906 L 330.261719 67.078125 Z M 330.203125 67.03125 "/>
<path style=" stroke:none;fill-rule:evenodd;fill:rgb(0%,0%,100%);fill-opacity:1;" d="M 319 44 C 319 43.734375 318.894531 43.480469 318.707031 43.292969 C 318.519531 43.105469 318.265625 43 318 43 C 317.734375 43 317.480469 43.105469 317.292969 43.292969 C 317.105469 43.480469 317 43.734375 317 44 C 317 44.265625 317.105469 44.519531 317.292969 44.707031 C 317.480469 44.894531 317.734375 45 318 45 C 318.265625 45 318.519531 44.894531 318.707031 44.707031 C 318.894531 44.519531 319 44.265625 319 44 Z M 319 44 "/>
<path style="fill:none;stroke-width:1;stroke-linecap:square;stroke-linejoin:miter;stroke:rgb(0%,0%,100%);stroke-opacity:1;stroke-miterlimit:3.25;" d="M 320.597656 42.605469 L 316.074219 44.785156 "/>
<path style=" stroke:none;fill-rule:evenodd;fill:rgb(0%,0%,100%);fill-opacity:1;" d="M 268 68 C 268 67.734375 267.894531 67.480469 267.707031 67.292969 C 267.519531 67.105469 267.265625 67 267 67 C 266.734375 67 266.480469 67.105469 266.292969 67.292969 C 266.105469 67.480469 266 67.734375 266 68 C 266 68.265625 266.105469 68.519531 266.292969 68.707031 C 266.480469 68.894531 266.734375 69 267 69 C 267.265625 69 267.519531 68.894531 267.707031 68.707031 C 267.894531 68.519531 268 68.265625 268 68 Z M 268 68 "/>
<path style="fill:none;stroke-width:1;stroke-linecap:square;stroke-linejoin:miter;stroke:rgb(0%,0%,100%);stroke-opacity:1;stroke-miterlimit:3.25;" d="M 266.371094 68.71875 L 268.597656 67.648438 "/>
<path style=" stroke:none;fill-rule:evenodd;fill:rgb(0%,0%,100%);fill-opacity:1;" d="M 247 23 C 247 22.734375 246.894531 22.480469 246.707031 22.292969 C 246.519531 22.105469 246.265625 22 246 22 C 245.734375 22 245.480469 22.105469 245.292969 22.292969 C 245.105469 22.480469 245 22.734375 245 23 C 245 23.265625 245.105469 23.519531 245.292969 23.707031 C 245.480469 23.894531 245.734375 24 246 24 C 246.265625 24 246.519531 23.894531 246.707031 23.707031 C 246.894531 23.519531 247 23.265625 247 23 Z M 247 23 "/>
<path style="fill:none;stroke-width:1;stroke-linecap:square;stroke-linejoin:miter;stroke:rgb(0%,0%,100%);stroke-opacity:1;stroke-miterlimit:3.25;" d="M 249.246094 21.683594 L 242.496094 24.933594 "/>
<path style=" stroke:none;fill-rule:evenodd;fill:rgb(0%,0%,0%);fill-opacity:1;" d="M 325.644531 38.9375 L 325.644531 38.464844 L 324.878906 38.464844 L 323.027344 36.230469 L 324.296875 34.773438 C 324.417969 34.632812 324.515625 34.542969 325.425781 34.542969 L 325.425781 34.074219 L 324.417969 34.09375 C 324.101562 34.09375 323.628906 34.09375 323.320312 34.074219 L 323.320312 34.542969 C 323.53125 34.542969 323.761719 34.597656 323.761719 34.675781 C 323.761719 34.675781 323.707031 34.773438 323.683594 34.796875 L 322.730469 35.871094 L 321.648438 34.542969 L 322.105469 34.542969 L 322.105469 34.074219 C 321.855469 34.09375 321.109375 34.09375 320.8125 34.09375 C 320.484375 34.09375 319.894531 34.09375 319.585938 34.074219 L 319.585938 34.542969 L 320.363281 34.542969 L 322.074219 36.625 L 320.648438 38.234375 C 320.515625 38.390625 320.441406 38.464844 319.53125 38.464844 L 319.53125 38.9375 L 320.550781 38.914062 C 320.867188 38.914062 321.328125 38.914062 321.636719 38.9375 L 321.636719 38.464844 C 321.425781 38.464844 321.195312 38.410156 321.195312 38.335938 C 321.195312 38.335938 321.195312 38.3125 321.273438 38.226562 L 322.367188 36.988281 L 323.585938 38.464844 L 323.125 38.464844 L 323.125 38.9375 C 323.390625 38.914062 324.121094 38.914062 324.429688 38.914062 C 324.757812 38.914062 325.339844 38.914062 325.644531 38.9375 Z M 325.644531 38.9375 "/>
<path style=" stroke:none;fill-rule:evenodd;fill:rgb(0%,0%,0%);fill-opacity:1;" d="M 329.496094 41.601562 C 329.496094 41.566406 329.496094 41.546875 329.308594 41.359375 C 328.214844 40.25 327.601562 38.445312 327.601562 36.210938 C 327.601562 34.085938 328.113281 32.253906 329.386719 30.960938 C 329.496094 30.863281 329.496094 30.839844 329.496094 30.808594 C 329.496094 30.742188 329.441406 30.71875 329.398438 30.71875 C 329.253906 30.71875 328.355469 31.511719 327.820312 32.582031 C 327.257812 33.691406 327.007812 34.859375 327.007812 36.210938 C 327.007812 37.183594 327.160156 38.488281 327.730469 39.660156 C 328.378906 40.976562 329.277344 41.6875 329.398438 41.6875 C 329.441406 41.6875 329.496094 41.664062 329.496094 41.601562 Z M 329.496094 41.601562 "/>
<path style=" stroke:none;fill-rule:evenodd;fill:rgb(0%,0%,0%);fill-opacity:1;" d="M 333.464844 37.371094 C 333.464844 37.304688 333.421875 37.273438 333.355469 37.273438 C 333.355469 37.273438 333.289062 37.273438 333.265625 37.316406 C 333.265625 37.316406 333.246094 37.335938 333.167969 37.511719 C 332.9375 38.0625 332.4375 38.828125 331.800781 38.828125 C 331.46875 38.828125 331.449219 38.554688 331.449219 38.3125 C 331.449219 38.3125 331.449219 38.09375 331.480469 37.960938 L 332.335938 34.53125 L 333.34375 34.53125 C 333.554688 34.53125 333.664062 34.53125 333.664062 34.335938 C 333.664062 34.214844 333.597656 34.214844 333.378906 34.214844 L 332.414062 34.214844 L 332.820312 32.617188 C 332.863281 32.460938 332.863281 32.441406 332.863281 32.363281 C 332.863281 32.1875 332.71875 32.089844 332.578125 32.089844 C 332.492188 32.089844 332.238281 32.121094 332.148438 32.472656 L 331.722656 34.214844 L 330.695312 34.214844 C 330.472656 34.214844 330.375 34.214844 330.375 34.421875 C 330.375 34.53125 330.453125 34.53125 330.660156 34.53125 L 331.636719 34.53125 L 330.914062 37.425781 C 330.824219 37.808594 330.792969 37.917969 330.792969 38.0625 C 330.792969 38.578125 331.152344 39.046875 331.765625 39.046875 C 332.875 39.046875 333.464844 37.445312 333.464844 37.371094 Z M 333.464844 37.371094 "/>
<path style=" stroke:none;fill-rule:evenodd;fill:rgb(0%,0%,0%);fill-opacity:1;" d="M 337.125 36.210938 C 337.125 35.375 337.015625 34.019531 336.402344 32.746094 C 335.753906 31.433594 334.855469 30.71875 334.734375 30.71875 C 334.691406 30.71875 334.636719 30.742188 334.636719 30.808594 C 334.636719 30.839844 334.636719 30.863281 334.824219 31.046875 C 335.917969 32.15625 336.53125 33.960938 336.53125 36.199219 C 336.53125 38.324219 336.015625 40.152344 334.746094 41.445312 C 334.636719 41.546875 334.636719 41.566406 334.636719 41.601562 C 334.636719 41.664062 334.691406 41.6875 334.734375 41.6875 C 334.878906 41.6875 335.777344 40.898438 336.3125 39.824219 C 336.871094 38.707031 337.125 37.523438 337.125 36.210938 Z M 337.125 36.210938 "/>
<path style=" stroke:none;fill-rule:evenodd;fill:rgb(0%,0%,0%);fill-opacity:1;" d="M 232.078125 16.050781 C 232.078125 15.863281 232.011719 15.855469 231.847656 15.855469 C 231.738281 15.855469 231.628906 15.855469 231.617188 15.972656 C 231.519531 17.640625 230.105469 18.210938 229.121094 18.210938 C 228.40625 18.210938 227.445312 18.011719 226.828125 17.320312 C 226.445312 16.90625 226.09375 16.304688 226.09375 14.792969 C 226.09375 13.71875 226.261719 12.917969 226.773438 12.304688 C 227.476562 11.480469 228.570312 11.371094 229.097656 11.371094 C 229.917969 11.371094 231.246094 11.832031 231.574219 13.761719 C 231.597656 13.859375 231.695312 13.859375 231.824219 13.859375 C 232.078125 13.859375 232.078125 13.839844 232.078125 13.574219 L 232.078125 11.1875 C 232.078125 10.933594 232.078125 10.902344 231.835938 10.902344 L 231.015625 11.691406 C 230.402344 11.164062 229.667969 10.902344 228.855469 10.902344 C 226.238281 10.902344 224.550781 12.488281 224.550781 14.792969 C 224.550781 17.046875 226.183594 18.679688 228.867188 18.679688 C 230.816406 18.679688 232.078125 17.34375 232.078125 16.050781 Z M 232.078125 16.050781 "/>
<path style=" stroke:none;fill-rule:evenodd;fill:rgb(0%,0%,0%);fill-opacity:1;" d="M 236.332031 21.210938 C 236.332031 21.179688 236.332031 21.15625 236.144531 20.96875 C 235.050781 19.863281 234.4375 18.054688 234.4375 15.820312 C 234.4375 13.695312 234.949219 11.867188 236.222656 10.574219 C 236.332031 10.472656 236.332031 10.453125 236.332031 10.417969 C 236.332031 10.355469 236.277344 10.332031 236.234375 10.332031 C 236.089844 10.332031 235.191406 11.121094 234.65625 12.195312 C 234.097656 13.300781 233.84375 14.472656 233.84375 15.820312 C 233.84375 16.796875 233.996094 18.101562 234.566406 19.273438 C 235.214844 20.585938 236.113281 21.296875 236.234375 21.296875 C 236.277344 21.296875 236.332031 21.277344 236.332031 21.210938 Z M 236.332031 21.210938 "/>
<path style=" stroke:none;fill-rule:evenodd;fill:rgb(0%,0%,0%);fill-opacity:1;" d="M 240.300781 16.980469 C 240.300781 16.917969 240.257812 16.882812 240.191406 16.882812 C 240.191406 16.882812 240.125 16.882812 240.101562 16.925781 C 240.101562 16.925781 240.082031 16.949219 240.003906 17.125 C 239.773438 17.671875 239.273438 18.4375 238.636719 18.4375 C 238.304688 18.4375 238.285156 18.164062 238.285156 17.921875 C 238.285156 17.921875 238.285156 17.703125 238.316406 17.574219 L 239.171875 14.144531 L 240.179688 14.144531 C 240.390625 14.144531 240.5 14.144531 240.5 13.949219 C 240.5 13.828125 240.433594 13.828125 240.214844 13.828125 L 239.25 13.828125 L 239.65625 12.226562 C 239.699219 12.074219 239.699219 12.050781 239.699219 11.976562 C 239.699219 11.800781 239.554688 11.699219 239.414062 11.699219 C 239.328125 11.699219 239.074219 11.734375 238.984375 12.085938 L 238.558594 13.828125 L 237.53125 13.828125 C 237.308594 13.828125 237.210938 13.828125 237.210938 14.035156 C 237.210938 14.144531 237.289062 14.144531 237.496094 14.144531 L 238.472656 14.144531 L 237.75 17.035156 C 237.660156 17.421875 237.628906 17.53125 237.628906 17.671875 C 237.628906 18.1875 237.988281 18.65625 238.601562 18.65625 C 239.710938 18.65625 240.300781 17.058594 240.300781 16.980469 Z M 240.300781 16.980469 "/>
<path style=" stroke:none;fill-rule:evenodd;fill:rgb(0%,0%,0%);fill-opacity:1;" d="M 243.859375 15.820312 C 243.859375 14.988281 243.75 13.628906 243.136719 12.359375 C 242.488281 11.042969 241.589844 10.332031 241.472656 10.332031 C 241.425781 10.332031 241.371094 10.355469 241.371094 10.417969 C 241.371094 10.453125 241.371094 10.472656 241.558594 10.660156 C 242.652344 11.765625 243.269531 13.574219 243.269531 15.808594 C 243.269531 17.933594 242.753906 19.765625 241.480469 21.058594 C 241.371094 21.15625 241.371094 21.179688 241.371094 21.210938 C 241.371094 21.277344 241.425781 21.296875 241.472656 21.296875 C 241.613281 21.296875 242.511719 20.507812 243.050781 19.4375 C 243.605469 18.320312 243.859375 17.132812 243.859375 15.820312 Z M 243.859375 15.820312 "/>
<path style=" stroke:none;fill-rule:evenodd;fill:rgb(0%,0%,0%);fill-opacity:1;" d="M 277.238281 74.734375 C 277.238281 72.257812 275.574219 70.910156 273.515625 70.910156 L 268.898438 70.910156 L 268.898438 71.378906 L 270.0625 71.378906 L 270.0625 77.953125 L 268.898438 77.953125 L 268.898438 78.425781 L 273.515625 78.425781 C 275.617188 78.425781 277.238281 77.078125 277.238281 74.734375 Z M 275.75 74.722656 C 275.75 76.003906 275.585938 76.574219 275.199219 77.089844 C 274.816406 77.59375 274.082031 77.953125 273.097656 77.953125 L 271.453125 77.953125 L 271.453125 71.378906 L 273.097656 71.378906 C 274.050781 71.378906 274.816406 71.753906 275.222656 72.320312 C 275.539062 72.773438 275.75 73.308594 275.75 74.722656 Z M 275.75 74.722656 "/>
<path style=" stroke:none;fill-rule:evenodd;fill:rgb(0%,0%,0%);fill-opacity:1;" d="M 281.445312 81.089844 C 281.445312 81.054688 281.445312 81.035156 281.261719 80.847656 C 280.164062 79.738281 279.550781 77.933594 279.550781 75.699219 C 279.550781 73.570312 280.066406 71.742188 281.335938 70.449219 C 281.445312 70.351562 281.445312 70.328125 281.445312 70.296875 C 281.445312 70.230469 281.390625 70.207031 281.347656 70.207031 C 281.207031 70.207031 280.308594 70.996094 279.769531 72.070312 C 279.210938 73.175781 278.957031 74.347656 278.957031 75.699219 C 278.957031 76.671875 279.113281 77.976562 279.683594 79.148438 C 280.328125 80.464844 281.226562 81.175781 281.347656 81.175781 C 281.390625 81.175781 281.445312 81.152344 281.445312 81.089844 Z M 281.445312 81.089844 "/>
<path style=" stroke:none;fill-rule:evenodd;fill:rgb(0%,0%,0%);fill-opacity:1;" d="M 285.417969 76.859375 C 285.417969 76.792969 285.375 76.761719 285.308594 76.761719 C 285.308594 76.761719 285.242188 76.761719 285.21875 76.804688 C 285.21875 76.804688 285.195312 76.824219 285.121094 77 C 284.890625 77.550781 284.386719 78.316406 283.75 78.316406 C 283.421875 78.316406 283.398438 78.042969 283.398438 77.800781 C 283.398438 77.800781 283.398438 77.582031 283.433594 77.449219 L 284.289062 74.019531 L 285.296875 74.019531 C 285.503906 74.019531 285.613281 74.019531 285.613281 73.824219 C 285.613281 73.703125 285.546875 73.703125 285.328125 73.703125 L 284.367188 73.703125 L 284.769531 72.101562 C 284.8125 71.949219 284.8125 71.929688 284.8125 71.851562 C 284.8125 71.675781 284.671875 71.578125 284.53125 71.578125 C 284.441406 71.578125 284.1875 71.609375 284.101562 71.960938 L 283.675781 73.703125 L 282.644531 73.703125 C 282.425781 73.703125 282.324219 73.703125 282.324219 73.910156 C 282.324219 74.019531 282.402344 74.019531 282.613281 74.019531 L 283.585938 74.019531 L 282.863281 76.914062 C 282.777344 77.296875 282.742188 77.40625 282.742188 77.550781 C 282.742188 78.066406 283.105469 78.535156 283.71875 78.535156 C 284.824219 78.535156 285.417969 76.933594 285.417969 76.859375 Z M 285.417969 76.859375 "/>
<path style=" stroke:none;fill-rule:evenodd;fill:rgb(0%,0%,0%);fill-opacity:1;" d="M 289.074219 75.699219 C 289.074219 74.863281 288.964844 73.507812 288.351562 72.234375 C 287.707031 70.921875 286.808594 70.207031 286.6875 70.207031 C 286.644531 70.207031 286.589844 70.230469 286.589844 70.296875 C 286.589844 70.328125 286.589844 70.351562 286.773438 70.535156 C 287.871094 71.640625 288.484375 73.449219 288.484375 75.6875 C 288.484375 77.8125 287.96875 79.640625 286.699219 80.933594 C 286.589844 81.035156 286.589844 81.054688 286.589844 81.089844 C 286.589844 81.152344 286.644531 81.175781 286.6875 81.175781 C 286.828125 81.175781 287.726562 80.386719 288.265625 79.3125 C 288.824219 78.195312 289.074219 77.011719 289.074219 75.699219 Z M 289.074219 75.699219 "/>
</g>
</svg>
