<?xml version="1.0" encoding="UTF-8"?>
<svg xmlns="http://www.w3.org/2000/svg" xmlns:xlink="http://www.w3.org/1999/xlink" width="202pt" height="82pt" viewBox="0 0 202 82" version="1.1">
<g id="surface243">
<path style=" stroke:none;fill-rule:nonzero;fill:rgb(74.999619%,74.999619%,74.999619%);fill-opacity:1;" d="M -26.929688 110.746094 L 120.679688 39.664062 L 191.761719 187.269531 L 240.964844 163.578125 L 146.1875 -33.230469 L -50.621094 61.546875 Z M -26.929688 110.746094 "/>
<path style="fill:none;stroke-width:1;stroke-linecap:square;stroke-linejoin:miter;stroke:rgb(0%,0%,0%);stroke-opacity:1;stroke-miterlimit:3.25;" d="M -26.929688 110.746094 L 120.679688 39.664062 "/>
<path style="fill:none;stroke-width:1;stroke-linecap:square;stroke-linejoin:miter;stroke:rgb(0%,0%,0%);stroke-opacity:1;stroke-miterlimit:3.25;" d="M 180.554688 163.996094 L 120.679688 39.664062 "/>
<path style=" stroke:none;fill-rule:nonzero;fill:rgb(0%,0%,0%);fill-opacity:1;" d="M 120.679688 39.664062 L 121.128906 40.113281 L 120.910156 38.996094 L 120.460938 39.214844 Z M 120.679688 39.664062 "/>
<path style="fill:none;stroke-width:1;stroke-linecap:square;stroke-linejoin:miter;stroke:rgb(0%,0%,0%);stroke-opacity:1;stroke-miterlimit:3.25;" d="M 180.554688 163.996094 L 120.679688 39.664062 "/>
<path style=" stroke:none;fill-rule:nonzero;fill:rgb(0%,0%,0%);fill-opacity:1;" d="M 120.679688 39.664062 L 121.128906 40.113281 L 120.910156 38.996094 L 120.460938 39.214844 Z M 120.679688 39.664062 "/>
<path style="fill:none;stroke-width:1;stroke-linecap:square;stroke-linejoin:miter;stroke:rgb(0%,0%,0%);stroke-opacity:1;stroke-miterlimit:3.25;" d="M -50.621094 61.546875 L 146.1875 -33.230469 L 240.964844 163.578125 "/>
<path style="fill-rule:nonzero;fill:rgb(100%,100%,86.999313%);fill-opacity:1;stroke-width:1;stroke-linecap:square;stroke-linejoin:miter;stroke:rgb(0%,0%,0%);stroke-opacity:1;stroke-miterlimit:3.25;" d="M 133.6875 65.25 L 133.4375 63.320312 L 133.105469 61.417969 L 132.691406 59.550781 L 132.195312 57.71875 L 131.625 55.929688 L 130.972656 54.179688 L 130.25 52.476562 L 129.449219 50.824219 L 128.582031 49.222656 L 127.648438 47.679688 L 126.644531 46.191406 L 125.578125 44.765625 L 124.453125 43.402344 L 123.269531 42.101562 L 122.03125 40.875 L 120.738281 39.714844 L 119.398438 38.632812 L 118.011719 37.621094 L 116.585938 36.691406 L 115.117188 35.835938 L 113.609375 35.066406 L 112.074219 34.375 L 110.507812 33.769531 L 108.914062 33.25 L 107.300781 32.816406 L 105.667969 32.46875 L 104.023438 32.21875 L 102.375 32.058594 L 100.71875 31.988281 L 99.058594 32.015625 L 97.40625 32.132812 L 95.757812 32.339844 L 94.121094 32.644531 L 92.496094 33.035156 L 90.894531 33.515625 L 89.316406 34.082031 L 87.761719 34.734375 L 86.242188 35.46875 L 84.757812 36.28125 L 83.308594 37.179688 L 81.902344 38.152344 L 80.539062 39.203125 L 79.226562 40.328125 L 77.960938 41.523438 L 76.753906 42.789062 L 75.601562 44.121094 L 74.507812 45.519531 L 73.472656 46.980469 L 72.507812 48.496094 L 71.605469 50.074219 L 70.777344 51.703125 L 70.019531 53.382812 L 69.332031 55.109375 L 68.722656 56.882812 L 68.191406 58.695312 L 67.738281 60.546875 L 67.367188 62.429688 L 67.078125 64.347656 L 66.972656 65.25 L 66.886719 65.316406 L 66.796875 65.386719 L 66.699219 65.460938 L 66.597656 65.535156 L 66.488281 65.613281 L 66.371094 65.691406 L 66.25 65.773438 L 66.121094 65.855469 L 65.988281 65.9375 L 65.847656 66.023438 L 65.703125 66.105469 L 65.546875 66.191406 L 65.386719 66.28125 L 65.222656 66.367188 L 65.050781 66.453125 L 64.871094 66.539062 L 64.683594 66.628906 L 64.488281 66.714844 L 64.289062 66.800781 L 64.082031 66.886719 L 63.871094 66.96875 L 63.648438 67.054688 L 63.421875 67.136719 L 63.1875 67.21875 L 62.949219 67.296875 L 62.699219 67.375 L 62.445312 67.449219 L 62.183594 67.523438 L 61.914062 67.59375 L 61.640625 67.664062 L 61.359375 67.726562 L 61.070312 67.792969 L 60.773438 67.851562 L 60.46875 67.90625 L 60.160156 67.960938 L 59.84375 68.011719 L 59.523438 68.054688 L 59.195312 68.097656 L 58.859375 68.132812 L 58.515625 68.167969 L 58.167969 68.195312 L 57.8125 68.21875 L 57.453125 68.238281 L 57.058594 68.25 L 56.65625 68.261719 L 12.203125 68.261719 L 12.246094 67.359375 L 12.367188 65.429688 L 12.539062 63.527344 L 12.753906 61.648438 L 13.015625 59.796875 L 13.320312 57.976562 L 13.667969 56.183594 L 14.058594 54.421875 L 14.484375 52.691406 L 14.949219 50.996094 L 15.453125 49.335938 L 15.988281 47.714844 L 16.558594 46.128906 L 17.15625 44.582031 L 17.789062 43.070312 L 18.445312 41.605469 L 19.128906 40.179688 L 19.835938 38.792969 L 20.566406 37.453125 L 21.3125 36.152344 L 22.082031 34.898438 L 22.863281 33.6875 L 23.664062 32.519531 L 24.472656 31.398438 L 25.292969 30.320312 L 26.121094 29.289062 L 26.953125 28.304688 L 27.785156 27.371094 L 28.617188 26.484375 L 29.445312 25.640625 L 30.273438 24.847656 L 31.089844 24.097656 L 31.902344 23.390625 L 32.726562 22.710938 L 33.667969 21.972656 L 34.617188 21.269531 L 35.566406 20.597656 L 36.519531 19.964844 L 37.476562 19.363281 L 38.429688 18.796875 L 39.378906 18.261719 L 40.332031 17.757812 L 41.277344 17.289062 L 42.21875 16.851562 L 43.15625 16.445312 L 44.085938 16.070312 L 45.007812 15.722656 L 45.921875 15.410156 L 46.828125 15.121094 L 47.722656 14.863281 L 48.605469 14.628906 L 49.480469 14.425781 L 50.339844 14.246094 L 51.1875 14.09375 L 52.019531 13.964844 L 52.835938 13.859375 L 53.640625 13.773438 L 54.425781 13.714844 L 55.199219 13.671875 L 144.394531 13.652344 L 145.09375 13.660156 L 145.820312 13.691406 L 146.601562 13.738281 L 147.394531 13.8125 L 148.203125 13.902344 L 149.03125 14.019531 L 149.871094 14.160156 L 150.722656 14.328125 L 151.589844 14.519531 L 152.464844 14.734375 L 153.355469 14.980469 L 154.253906 15.25 L 155.164062 15.550781 L 156.082031 15.882812 L 157.007812 16.242188 L 157.941406 16.628906 L 158.882812 17.050781 L 159.824219 17.503906 L 160.773438 17.988281 L 161.726562 18.503906 L 162.679688 19.054688 L 163.632812 19.636719 L 164.585938 20.253906 L 165.539062 20.90625 L 166.488281 21.59375 L 167.433594 22.3125 L 168.332031 23.035156 L 169.136719 23.714844 L 169.953125 24.441406 L 170.773438 25.210938 L 171.601562 26.027344 L 172.433594 26.890625 L 173.265625 27.800781 L 174.097656 28.757812 L 174.929688 29.765625 L 175.753906 30.816406 L 176.570312 31.914062 L 177.371094 33.058594 L 178.164062 34.246094 L 178.941406 35.476562 L 179.699219 36.75 L 180.441406 38.070312 L 181.160156 39.433594 L 181.855469 40.835938 L 182.527344 42.28125 L 183.171875 43.769531 L 183.789062 45.296875 L 184.375 46.859375 L 184.929688 48.464844 L 185.449219 50.105469 L 185.933594 51.78125 L 186.382812 53.492188 L 186.792969 55.234375 L 187.160156 57.011719 L 187.488281 58.820312 L 187.773438 60.65625 L 188.015625 62.519531 L 188.210938 64.410156 L 188.359375 66.324219 L 188.460938 68.261719 L 144.085938 68.261719 L 143.777344 68.253906 L 143.464844 68.246094 L 143.171875 68.234375 L 142.894531 68.222656 L 142.621094 68.203125 L 142.351562 68.183594 L 142.085938 68.160156 L 141.824219 68.136719 L 141.566406 68.109375 L 141.3125 68.078125 L 141.0625 68.046875 L 140.816406 68.011719 L 140.574219 67.972656 L 140.335938 67.933594 L 140.101562 67.890625 L 139.871094 67.847656 L 139.644531 67.800781 L 139.421875 67.753906 L 139.203125 67.703125 L 138.988281 67.652344 L 138.777344 67.601562 L 138.570312 67.546875 L 138.367188 67.492188 L 138.167969 67.433594 L 137.972656 67.378906 L 137.78125 67.316406 L 137.597656 67.257812 L 137.414062 67.195312 L 137.234375 67.132812 L 136.890625 67.007812 L 136.722656 66.945312 L 136.402344 66.8125 L 136.097656 66.679688 L 135.808594 66.546875 L 135.535156 66.414062 L 135.277344 66.28125 L 135.035156 66.148438 L 134.921875 66.082031 L 134.808594 66.019531 L 134.699219 65.953125 L 134.496094 65.828125 L 134.398438 65.765625 L 134.304688 65.703125 L 134.21875 65.640625 L 134.046875 65.523438 L 133.96875 65.464844 L 133.894531 65.410156 L 133.753906 65.300781 Z M 133.6875 65.25 "/>
<path style=" stroke:none;fill-rule:evenodd;fill:rgb(0%,66.666667%,0%);fill-opacity:1;" d="M 122 40 C 122 39.734375 121.894531 39.480469 121.707031 39.292969 C 121.519531 39.105469 121.265625 39 121 39 C 120.734375 39 120.480469 39.105469 120.292969 39.292969 C 120.105469 39.480469 120 39.734375 120 40 C 120 40.265625 120.105469 40.519531 120.292969 40.707031 C 120.480469 40.894531 120.734375 41 121 41 C 121.265625 41 121.519531 40.894531 121.707031 40.707031 C 121.894531 40.519531 122 40.265625 122 40 Z M 122 40 "/>
<path style="fill:none;stroke-width:1;stroke-linecap:square;stroke-linejoin:miter;stroke:rgb(0%,66.666667%,0%);stroke-opacity:1;stroke-miterlimit:3.25;" d="M 123.160156 38.46875 L 118.199219 40.859375 "/>
<path style=" stroke:none;fill-rule:evenodd;fill:rgb(0%,66.666667%,0%);fill-opacity:1;" d="M 66 67 C 66 66.734375 65.894531 66.480469 65.707031 66.292969 C 65.519531 66.105469 65.265625 66 65 66 C 64.734375 66 64.480469 66.105469 64.292969 66.292969 C 64.105469 66.480469 64 66.734375 64 67 C 64 67.265625 64.105469 67.519531 64.292969 67.707031 C 64.480469 67.894531 64.734375 68 65 68 C 65.265625 68 65.519531 67.894531 65.707031 67.707031 C 65.894531 67.519531 66 67.265625 66 67 Z M 66 67 "/>
<path style="fill:none;stroke-width:1;stroke-linecap:square;stroke-linejoin:miter;stroke:rgb(0%,66.666667%,0%);stroke-opacity:1;stroke-miterlimit:3.25;" d="M 63.707031 67.101562 L 66.148438 65.925781 "/>
<path style=" stroke:none;fill-rule:evenodd;fill:rgb(0%,66.666667%,0%);fill-opacity:1;" d="M 42 17 C 42 16.734375 41.894531 16.480469 41.707031 16.292969 C 41.519531 16.105469 41.265625 16 41 16 C 40.734375 16 40.480469 16.105469 40.292969 16.292969 C 40.105469 16.480469 40 16.734375 40 17 C 40 17.265625 40.105469 17.519531 40.292969 17.707031 C 40.480469 17.894531 40.734375 18 41 18 C 41.265625 18 41.519531 17.894531 41.707031 17.707031 C 41.894531 17.519531 42 17.265625 42 17 Z M 42 17 "/>
<path style="fill:none;stroke-width:1;stroke-linecap:square;stroke-linejoin:miter;stroke:rgb(0%,66.666667%,0%);stroke-opacity:1;stroke-miterlimit:3.25;" d="M 44.933594 15.527344 L 37.53125 19.09375 "/>
<path style=" stroke:none;fill-rule:evenodd;fill:rgb(0%,0%,0%);fill-opacity:1;" d="M 128.015625 34.90625 L 128.015625 34.433594 L 127.246094 34.433594 L 125.386719 32.1875 L 126.664062 30.726562 C 126.785156 30.582031 126.882812 30.492188 127.796875 30.492188 L 127.796875 30.019531 L 126.785156 30.042969 C 126.464844 30.042969 125.992188 30.042969 125.683594 30.019531 L 125.683594 30.492188 C 125.890625 30.492188 126.125 30.546875 126.125 30.625 C 126.125 30.625 126.070312 30.726562 126.046875 30.746094 L 125.089844 31.824219 L 124 30.492188 L 124.460938 30.492188 L 124.460938 30.019531 C 124.210938 30.042969 123.460938 30.042969 123.164062 30.042969 C 122.832031 30.042969 122.238281 30.042969 121.929688 30.019531 L 121.929688 30.492188 L 122.710938 30.492188 L 124.429688 32.585938 L 123 34.203125 C 122.867188 34.355469 122.789062 34.433594 121.875 34.433594 L 121.875 34.90625 L 122.898438 34.882812 C 123.21875 34.882812 123.679688 34.882812 123.988281 34.90625 L 123.988281 34.433594 C 123.78125 34.433594 123.546875 34.378906 123.546875 34.300781 C 123.546875 34.300781 123.546875 34.28125 123.625 34.191406 L 124.726562 32.945312 L 125.945312 34.433594 L 125.484375 34.433594 L 125.484375 34.90625 C 125.75 34.882812 126.484375 34.882812 126.796875 34.882812 C 127.125 34.882812 127.707031 34.882812 128.015625 34.90625 Z M 128.015625 34.90625 "/>
<path style=" stroke:none;fill-rule:evenodd;fill:rgb(0%,0%,0%);fill-opacity:1;" d="M 131.855469 37.578125 C 131.855469 37.546875 131.855469 37.523438 131.667969 37.335938 C 130.566406 36.226562 129.949219 34.410156 129.949219 32.164062 C 129.949219 30.03125 130.46875 28.195312 131.742188 26.894531 C 131.855469 26.796875 131.855469 26.773438 131.855469 26.742188 C 131.855469 26.675781 131.800781 26.652344 131.753906 26.652344 C 131.613281 26.652344 130.710938 27.445312 130.171875 28.523438 C 129.609375 29.636719 129.355469 30.8125 129.355469 32.164062 C 129.355469 33.144531 129.511719 34.453125 130.082031 35.632812 C 130.730469 36.953125 131.632812 37.667969 131.753906 37.667969 C 131.800781 37.667969 131.855469 37.648438 131.855469 37.578125 Z M 131.855469 37.578125 "/>
<path style=" stroke:none;fill-rule:evenodd;fill:rgb(0%,0%,0%);fill-opacity:1;" d="M 135.824219 33.332031 C 135.824219 33.265625 135.78125 33.234375 135.710938 33.234375 C 135.710938 33.234375 135.648438 33.234375 135.625 33.277344 C 135.625 33.277344 135.601562 33.300781 135.527344 33.476562 C 135.296875 34.027344 134.789062 34.796875 134.148438 34.796875 C 133.820312 34.796875 133.796875 34.523438 133.796875 34.28125 C 133.796875 34.28125 133.796875 34.058594 133.832031 33.925781 L 134.6875 30.484375 L 135.703125 30.484375 C 135.910156 30.484375 136.023438 30.484375 136.023438 30.285156 C 136.023438 30.164062 135.953125 30.164062 135.734375 30.164062 L 134.765625 30.164062 L 135.171875 28.558594 C 135.21875 28.402344 135.21875 28.382812 135.21875 28.304688 C 135.21875 28.128906 135.074219 28.03125 134.929688 28.03125 C 134.84375 28.03125 134.589844 28.0625 134.503906 28.414062 L 134.074219 30.164062 L 133.039062 30.164062 C 132.820312 30.164062 132.71875 30.164062 132.71875 30.375 C 132.71875 30.484375 132.796875 30.484375 133.007812 30.484375 L 133.984375 30.484375 L 133.257812 33.386719 C 133.171875 33.773438 133.140625 33.882812 133.140625 34.027344 C 133.140625 34.542969 133.5 35.015625 134.117188 35.015625 C 135.230469 35.015625 135.824219 33.410156 135.824219 33.332031 Z M 135.824219 33.332031 "/>
<path style=" stroke:none;fill-rule:evenodd;fill:rgb(0%,0%,0%);fill-opacity:1;" d="M 139.480469 32.164062 C 139.480469 31.328125 139.371094 29.964844 138.753906 28.6875 C 138.105469 27.367188 137.203125 26.652344 137.082031 26.652344 C 137.039062 26.652344 136.984375 26.675781 136.984375 26.742188 C 136.984375 26.773438 136.984375 26.796875 137.171875 26.984375 C 138.269531 28.09375 138.886719 29.910156 138.886719 32.15625 C 138.886719 34.289062 138.371094 36.128906 137.09375 37.425781 C 136.984375 37.523438 136.984375 37.546875 136.984375 37.578125 C 136.984375 37.648438 137.039062 37.667969 137.082031 37.667969 C 137.226562 37.667969 138.128906 36.875 138.667969 35.796875 C 139.226562 34.675781 139.480469 33.488281 139.480469 32.164062 Z M 139.480469 32.164062 "/>
<path style=" stroke:none;fill-rule:evenodd;fill:rgb(0%,0%,0%);fill-opacity:1;" d="M 27.472656 10.042969 C 27.472656 9.855469 27.40625 9.847656 27.242188 9.847656 C 27.132812 9.847656 27.023438 9.847656 27.011719 9.964844 C 26.910156 11.636719 25.492188 12.210938 24.503906 12.210938 C 23.785156 12.210938 22.820312 12.011719 22.203125 11.320312 C 21.816406 10.902344 21.464844 10.296875 21.464844 8.777344 C 21.464844 7.699219 21.628906 6.894531 22.148438 6.28125 C 22.851562 5.457031 23.953125 5.34375 24.480469 5.34375 C 25.304688 5.34375 26.636719 5.808594 26.96875 7.746094 C 26.988281 7.84375 27.085938 7.84375 27.21875 7.84375 C 27.472656 7.84375 27.472656 7.820312 27.472656 7.558594 L 27.472656 5.160156 C 27.472656 4.90625 27.472656 4.875 27.230469 4.875 L 26.40625 5.664062 C 25.789062 5.136719 25.050781 4.875 24.238281 4.875 C 21.609375 4.875 19.914062 6.46875 19.914062 8.777344 C 19.914062 11.042969 21.554688 12.683594 24.25 12.683594 C 26.207031 12.683594 27.472656 11.339844 27.472656 10.042969 Z M 27.472656 10.042969 "/>
<path style=" stroke:none;fill-rule:evenodd;fill:rgb(0%,0%,0%);fill-opacity:1;" d="M 31.707031 15.226562 C 31.707031 15.191406 31.707031 15.171875 31.519531 14.984375 C 30.421875 13.871094 29.804688 12.058594 29.804688 9.8125 C 29.804688 7.675781 30.320312 5.839844 31.597656 4.542969 C 31.707031 4.445312 31.707031 4.421875 31.707031 4.390625 C 31.707031 4.320312 31.652344 4.300781 31.609375 4.300781 C 31.464844 4.300781 30.5625 5.09375 30.023438 6.171875 C 29.460938 7.28125 29.210938 8.457031 29.210938 9.8125 C 29.210938 10.792969 29.363281 12.101562 29.9375 13.277344 C 30.585938 14.597656 31.488281 15.3125 31.609375 15.3125 C 31.652344 15.3125 31.707031 15.292969 31.707031 15.226562 Z M 31.707031 15.226562 "/>
<path style=" stroke:none;fill-rule:evenodd;fill:rgb(0%,0%,0%);fill-opacity:1;" d="M 35.675781 10.980469 C 35.675781 10.914062 35.632812 10.878906 35.566406 10.878906 C 35.566406 10.878906 35.5 10.878906 35.476562 10.925781 C 35.476562 10.925781 35.457031 10.945312 35.378906 11.121094 C 35.148438 11.671875 34.640625 12.441406 34.003906 12.441406 C 33.671875 12.441406 33.652344 12.167969 33.652344 11.925781 C 33.652344 11.925781 33.652344 11.707031 33.683594 11.574219 L 34.542969 8.128906 L 35.554688 8.128906 C 35.761719 8.128906 35.875 8.128906 35.875 7.929688 C 35.875 7.808594 35.808594 7.808594 35.589844 7.808594 L 34.621094 7.808594 L 35.027344 6.203125 C 35.070312 6.050781 35.070312 6.027344 35.070312 5.949219 C 35.070312 5.773438 34.925781 5.675781 34.785156 5.675781 C 34.695312 5.675781 34.441406 5.707031 34.355469 6.058594 L 33.925781 7.808594 L 32.890625 7.808594 C 32.671875 7.808594 32.574219 7.808594 32.574219 8.019531 C 32.574219 8.128906 32.648438 8.128906 32.859375 8.128906 L 33.839844 8.128906 L 33.113281 11.035156 C 33.023438 11.417969 32.992188 11.527344 32.992188 11.671875 C 32.992188 12.191406 33.355469 12.660156 33.96875 12.660156 C 35.082031 12.660156 35.675781 11.054688 35.675781 10.980469 Z M 35.675781 10.980469 "/>
<path style=" stroke:none;fill-rule:evenodd;fill:rgb(0%,0%,0%);fill-opacity:1;" d="M 39.234375 9.8125 C 39.234375 8.976562 39.121094 7.613281 38.507812 6.335938 C 37.859375 5.015625 36.957031 4.300781 36.835938 4.300781 C 36.792969 4.300781 36.734375 4.320312 36.734375 4.390625 C 36.734375 4.421875 36.734375 4.445312 36.921875 4.632812 C 38.023438 5.742188 38.640625 7.558594 38.640625 9.800781 C 38.640625 11.9375 38.121094 13.773438 36.847656 15.070312 C 36.734375 15.171875 36.734375 15.191406 36.734375 15.226562 C 36.734375 15.292969 36.792969 15.3125 36.835938 15.3125 C 36.976562 15.3125 37.878906 14.523438 38.417969 13.441406 C 38.980469 12.320312 39.234375 11.132812 39.234375 9.8125 Z M 39.234375 9.8125 "/>
<path style=" stroke:none;fill-rule:evenodd;fill:rgb(0%,0%,0%);fill-opacity:1;" d="M 74.71875 73.046875 C 74.71875 70.558594 73.046875 69.203125 70.976562 69.203125 L 66.347656 69.203125 L 66.347656 69.679688 L 67.511719 69.679688 L 67.511719 76.28125 L 66.347656 76.28125 L 66.347656 76.753906 L 70.976562 76.753906 C 73.089844 76.753906 74.71875 75.402344 74.71875 73.046875 Z M 73.222656 73.035156 C 73.222656 74.324219 73.058594 74.894531 72.671875 75.410156 C 72.289062 75.917969 71.550781 76.28125 70.5625 76.28125 L 68.910156 76.28125 L 68.910156 69.679688 L 70.5625 69.679688 C 71.515625 69.679688 72.289062 70.050781 72.695312 70.625 C 73.015625 71.074219 73.222656 71.613281 73.222656 73.035156 Z M 73.222656 73.035156 "/>
<path style=" stroke:none;fill-rule:evenodd;fill:rgb(0%,0%,0%);fill-opacity:1;" d="M 78.90625 79.425781 C 78.90625 79.394531 78.90625 79.371094 78.71875 79.183594 C 77.617188 78.074219 77 76.257812 77 74.011719 C 77 71.878906 77.519531 70.039062 78.792969 68.742188 C 78.90625 68.644531 78.90625 68.621094 78.90625 68.589844 C 78.90625 68.523438 78.851562 68.5 78.804688 68.5 C 78.664062 68.5 77.761719 69.292969 77.21875 70.371094 C 76.660156 71.484375 76.40625 72.660156 76.40625 74.011719 C 76.40625 74.992188 76.5625 76.300781 77.132812 77.480469 C 77.78125 78.800781 78.683594 79.515625 78.804688 79.515625 C 78.851562 79.515625 78.90625 79.496094 78.90625 79.425781 Z M 78.90625 79.425781 "/>
<path style=" stroke:none;fill-rule:evenodd;fill:rgb(0%,0%,0%);fill-opacity:1;" d="M 82.875 75.179688 C 82.875 75.113281 82.832031 75.082031 82.761719 75.082031 C 82.761719 75.082031 82.699219 75.082031 82.675781 75.125 C 82.675781 75.125 82.652344 75.148438 82.578125 75.324219 C 82.347656 75.875 81.839844 76.644531 81.199219 76.644531 C 80.871094 76.644531 80.847656 76.371094 80.847656 76.128906 C 80.847656 76.128906 80.847656 75.90625 80.882812 75.773438 L 81.738281 72.328125 L 82.753906 72.328125 C 82.960938 72.328125 83.074219 72.328125 83.074219 72.132812 C 83.074219 72.011719 83.003906 72.011719 82.785156 72.011719 L 81.816406 72.011719 L 82.222656 70.40625 C 82.269531 70.25 82.269531 70.226562 82.269531 70.152344 C 82.269531 69.976562 82.125 69.875 81.980469 69.875 C 81.894531 69.875 81.640625 69.910156 81.554688 70.261719 L 81.125 72.011719 L 80.089844 72.011719 C 79.871094 72.011719 79.769531 72.011719 79.769531 72.21875 C 79.769531 72.328125 79.847656 72.328125 80.058594 72.328125 L 81.035156 72.328125 L 80.308594 75.234375 C 80.222656 75.621094 80.191406 75.730469 80.191406 75.875 C 80.191406 76.390625 80.550781 76.863281 81.167969 76.863281 C 82.28125 76.863281 82.875 75.257812 82.875 75.179688 Z M 82.875 75.179688 "/>
<path style=" stroke:none;fill-rule:evenodd;fill:rgb(0%,0%,0%);fill-opacity:1;" d="M 86.53125 74.011719 C 86.53125 73.175781 86.421875 71.8125 85.804688 70.535156 C 85.15625 69.214844 84.253906 68.5 84.132812 68.5 C 84.089844 68.5 84.035156 68.523438 84.035156 68.589844 C 84.035156 68.621094 84.035156 68.644531 84.222656 68.832031 C 85.320312 69.941406 85.9375 71.757812 85.9375 74.003906 C 85.9375 76.136719 85.421875 77.976562 84.144531 79.273438 C 84.035156 79.371094 84.035156 79.394531 84.035156 79.425781 C 84.035156 79.496094 84.089844 79.515625 84.132812 79.515625 C 84.277344 79.515625 85.179688 78.722656 85.71875 77.644531 C 86.28125 76.523438 86.53125 75.335938 86.53125 74.011719 Z M 86.53125 74.011719 "/>
</g>
</svg>
