<?xml version="1.0" encoding="UTF-8"?>
<svg xmlns="http://www.w3.org/2000/svg" xmlns:xlink="http://www.w3.org/1999/xlink" width="567pt" height="95pt" viewBox="0 0 567 95" version="1.1">
<defs>
<clipPath id="clip1">
  <path d="M 37.199219 10.320312 L 180.960938 10.320312 L 180.960938 84.480469 L 37.199219 84.480469 Z M 37.199219 10.320312 "/>
</clipPath>
<clipPath id="clip2">
  <path d="M 409.441406 10.320312 L 553.199219 10.320312 L 553.199219 84.480469 L 409.441406 84.480469 Z M 409.441406 10.320312 "/>
</clipPath>
</defs>
<g id="surface600">
<path style=" stroke:none;fill-rule:evenodd;fill:rgb(0%,0%,0%);fill-opacity:1;" d="M 25.289062 40.796875 L 25.289062 40.257812 L 24.714844 40.257812 C 23.078125 40.257812 23.023438 40.035156 23.023438 39.367188 L 23.023438 28.890625 C 23.023438 28.460938 23.023438 28.441406 22.652344 28.441406 C 22.207031 28.945312 21.277344 29.632812 19.367188 29.632812 L 19.367188 30.171875 C 19.792969 30.171875 20.722656 30.171875 21.742188 29.6875 L 21.742188 39.367188 C 21.742188 40.035156 21.6875 40.257812 20.050781 40.257812 L 19.476562 40.257812 L 19.476562 40.796875 C 19.976562 40.761719 21.777344 40.761719 22.394531 40.761719 C 23.007812 40.761719 24.789062 40.761719 25.289062 40.796875 Z M 25.289062 40.796875 "/>
<path style="fill:none;stroke-width:0.739542;stroke-linecap:square;stroke-linejoin:miter;stroke:rgb(0%,0%,0%);stroke-opacity:1;stroke-miterlimit:10;" d="M 17.660156 48.644531 L 26.71875 48.644531 "/>
<path style=" stroke:none;fill-rule:evenodd;fill:rgb(0%,0%,0%);fill-opacity:1;" d="M 25.851562 62.835938 L 25.441406 62.835938 C 25.386719 63.152344 25.234375 64.171875 25.050781 64.46875 C 24.917969 64.636719 23.859375 64.636719 23.304688 64.636719 L 19.867188 64.636719 C 20.367188 64.207031 21.503906 63.019531 21.984375 62.574219 C 24.808594 59.972656 25.851562 59.007812 25.851562 57.167969 C 25.851562 55.03125 24.160156 53.601562 22.003906 53.601562 C 19.847656 53.601562 18.585938 55.441406 18.585938 57.039062 C 18.585938 57.984375 19.402344 57.984375 19.457031 57.984375 C 19.847656 57.984375 20.332031 57.707031 20.332031 57.113281 C 20.332031 56.59375 19.976562 56.238281 19.457031 56.238281 C 19.292969 56.238281 19.253906 56.238281 19.195312 56.257812 C 19.550781 54.992188 20.554688 54.140625 21.761719 54.140625 C 23.339844 54.140625 24.308594 55.457031 24.308594 57.167969 C 24.308594 58.746094 23.394531 60.121094 22.339844 61.308594 L 18.585938 65.507812 L 18.585938 65.957031 L 25.363281 65.957031 Z M 25.851562 62.835938 "/>
<path style=" stroke:none;fill-rule:evenodd;fill:rgb(100%,100%,86.999313%);fill-opacity:1;" d="M 109.183594 82.210938 L 178.113281 82.210938 C 178.113281 63.929688 170.851562 46.398438 157.925781 33.472656 C 145 20.546875 127.464844 13.28125 109.183594 13.28125 C 90.902344 13.28125 73.371094 20.546875 60.445312 33.472656 C 47.519531 46.398438 40.253906 63.929688 40.253906 82.210938 Z M 109.183594 82.210938 "/>
<g clip-path="url(#clip1)" clip-rule="nonzero">
<path style="fill:none;stroke-width:1.5;stroke-linecap:square;stroke-linejoin:miter;stroke:rgb(0%,0%,0%);stroke-opacity:1;stroke-miterlimit:3.25;" d="M 109.183594 82.210938 L 178.113281 82.210938 C 178.113281 63.929688 170.851562 46.398438 157.925781 33.472656 C 145 20.546875 127.464844 13.28125 109.183594 13.28125 C 90.902344 13.28125 73.371094 20.546875 60.445312 33.472656 C 47.519531 46.398438 40.253906 63.929688 40.253906 82.210938 Z M 109.183594 82.210938 "/>
</g>
<path style=" stroke:none;fill-rule:evenodd;fill:rgb(0%,0%,0%);fill-opacity:1;" d="M 207.054688 48.664062 C 207.054688 48.3125 206.738281 48.3125 206.460938 48.3125 L 201.332031 48.3125 L 201.332031 43.183594 C 201.332031 42.925781 201.332031 42.59375 200.996094 42.59375 C 200.644531 42.59375 200.644531 42.90625 200.644531 43.183594 L 200.644531 48.3125 L 195.519531 48.3125 C 195.257812 48.3125 194.921875 48.3125 194.921875 48.644531 C 194.921875 49 195.238281 49 195.519531 49 L 200.644531 49 L 200.644531 54.128906 C 200.644531 54.386719 200.644531 54.722656 200.976562 54.722656 C 201.332031 54.722656 201.332031 54.40625 201.332031 54.128906 L 201.332031 49 L 206.460938 49 C 206.71875 49 207.054688 49 207.054688 48.664062 Z M 207.054688 48.664062 "/>
<path style=" stroke:none;fill-rule:evenodd;fill:rgb(0%,0%,0%);fill-opacity:1;" d="M 221.792969 40.796875 L 221.792969 40.261719 L 221.21875 40.261719 C 219.585938 40.261719 219.527344 40.035156 219.527344 39.367188 L 219.527344 28.890625 C 219.527344 28.460938 219.527344 28.445312 219.15625 28.445312 C 218.710938 28.945312 217.78125 29.632812 215.871094 29.632812 L 215.871094 30.171875 C 216.296875 30.171875 217.226562 30.171875 218.246094 29.6875 L 218.246094 39.367188 C 218.246094 40.035156 218.191406 40.261719 216.554688 40.261719 L 215.980469 40.261719 L 215.980469 40.796875 C 216.480469 40.761719 218.285156 40.761719 218.898438 40.761719 C 219.511719 40.761719 221.292969 40.761719 221.792969 40.796875 Z M 221.792969 40.796875 "/>
<path style="fill:none;stroke-width:0.739485;stroke-linecap:square;stroke-linejoin:miter;stroke:rgb(0%,0%,0%);stroke-opacity:1;stroke-miterlimit:10;" d="M 214.191406 48.644531 L 223.25 48.644531 "/>
<path style=" stroke:none;fill-rule:evenodd;fill:rgb(0%,0%,0%);fill-opacity:1;" d="M 222.355469 62.832031 L 221.945312 62.832031 C 221.890625 63.148438 221.738281 64.171875 221.554688 64.46875 C 221.421875 64.636719 220.363281 64.636719 219.808594 64.636719 L 216.371094 64.636719 C 216.871094 64.207031 218.007812 63.019531 218.488281 62.570312 C 221.3125 59.972656 222.355469 59.003906 222.355469 57.167969 C 222.355469 55.03125 220.664062 53.601562 218.507812 53.601562 C 216.351562 53.601562 215.089844 55.4375 215.089844 57.039062 C 215.089844 57.984375 215.90625 57.984375 215.960938 57.984375 C 216.351562 57.984375 216.835938 57.703125 216.835938 57.113281 C 216.835938 56.589844 216.480469 56.238281 215.960938 56.238281 C 215.796875 56.238281 215.757812 56.238281 215.699219 56.257812 C 216.054688 54.992188 217.058594 54.136719 218.265625 54.136719 C 219.84375 54.136719 220.8125 55.457031 220.8125 57.167969 C 220.8125 58.746094 219.902344 60.121094 218.84375 61.308594 L 215.089844 65.507812 L 215.089844 65.953125 L 221.867188 65.953125 Z M 222.355469 62.832031 "/>
<path style="fill-rule:nonzero;fill:rgb(100%,100%,86.999313%);fill-opacity:1;stroke-width:1.5;stroke-linecap:square;stroke-linejoin:miter;stroke:rgb(0%,0%,0%);stroke-opacity:1;stroke-miterlimit:3.25;" d="M 237.023438 82.210938 L 237.023438 13.28125 L 374.882812 13.28125 L 374.882812 82.210938 Z M 237.023438 82.210938 "/>
<path style=" stroke:none;fill-rule:evenodd;fill:rgb(0%,0%,0%);fill-opacity:1;" d="M 400 45.679688 C 400 45.328125 399.683594 45.328125 399.40625 45.328125 L 388.464844 45.328125 C 388.203125 45.328125 387.867188 45.328125 387.867188 45.664062 C 387.867188 46.015625 388.183594 46.015625 388.464844 46.015625 L 399.40625 46.015625 C 399.664062 46.015625 400 46.015625 400 45.679688 Z M 400 49.132812 C 400 48.785156 399.683594 48.785156 399.40625 48.785156 L 388.464844 48.785156 C 388.203125 48.785156 387.867188 48.785156 387.867188 49.117188 C 387.867188 49.46875 388.183594 49.46875 388.464844 49.46875 L 399.40625 49.46875 C 399.664062 49.46875 400 49.46875 400 49.132812 Z M 400 49.132812 "/>
<path style=" stroke:none;fill-rule:nonzero;fill:rgb(100%,100%,86.999313%);fill-opacity:1;" d="M 550.328125 82.210938 L 550.328125 47.746094 L 550.324219 47.207031 L 550.3125 46.664062 L 550.289062 46.125 L 550.261719 45.582031 L 550.222656 45.042969 L 550.175781 44.503906 L 550.121094 43.964844 L 550.058594 43.429688 L 549.984375 42.890625 L 549.90625 42.355469 L 549.816406 41.820312 L 549.71875 41.289062 L 549.613281 40.757812 L 549.5 40.230469 L 549.375 39.703125 L 549.246094 39.175781 L 549.105469 38.652344 L 548.960938 38.132812 L 548.804688 37.613281 L 548.640625 37.097656 L 548.46875 36.582031 L 548.292969 36.074219 L 548.105469 35.566406 L 547.910156 35.058594 L 547.707031 34.558594 L 547.496094 34.058594 L 547.273438 33.566406 L 547.046875 33.074219 L 546.8125 32.585938 L 546.574219 32.101562 L 546.324219 31.621094 L 546.066406 31.144531 L 545.800781 30.671875 L 545.527344 30.203125 L 545.25 29.738281 L 544.964844 29.28125 L 544.667969 28.824219 L 544.367188 28.375 L 544.0625 27.929688 L 543.746094 27.488281 L 543.425781 27.054688 L 543.097656 26.625 L 542.761719 26.199219 L 542.417969 25.777344 L 542.070312 25.363281 L 541.714844 24.957031 L 541.355469 24.550781 L 540.988281 24.15625 L 540.613281 23.761719 L 540.234375 23.378906 L 539.847656 22.996094 L 539.457031 22.625 L 539.058594 22.257812 L 538.65625 21.894531 L 538.246094 21.539062 L 537.832031 21.191406 L 537.414062 20.851562 L 536.988281 20.515625 L 536.558594 20.1875 L 536.121094 19.867188 L 535.679688 19.550781 L 535.234375 19.242188 L 534.785156 18.941406 L 534.332031 18.648438 L 533.871094 18.363281 L 533.40625 18.082031 L 532.941406 17.8125 L 532.46875 17.546875 L 531.992188 17.289062 L 531.511719 17.039062 L 531.027344 16.796875 L 530.539062 16.5625 L 530.046875 16.335938 L 529.550781 16.117188 L 529.054688 15.90625 L 528.550781 15.703125 L 528.046875 15.507812 L 527.539062 15.320312 L 527.027344 15.140625 L 526.515625 14.96875 L 526 14.808594 L 525.480469 14.652344 L 524.957031 14.503906 L 524.433594 14.367188 L 523.910156 14.234375 L 523.382812 14.113281 L 522.851562 14 L 522.320312 13.894531 L 521.789062 13.796875 L 521.253906 13.707031 L 520.71875 13.628906 L 520.183594 13.554688 L 519.644531 13.492188 L 519.109375 13.4375 L 518.566406 13.390625 L 518.027344 13.351562 L 517.488281 13.320312 L 516.945312 13.300781 L 516.40625 13.289062 L 515.863281 13.28125 L 446.933594 13.28125 L 446.394531 13.289062 L 445.851562 13.300781 L 445.3125 13.320312 L 444.769531 13.351562 L 444.230469 13.390625 L 443.691406 13.4375 L 443.152344 13.492188 L 442.617188 13.554688 L 442.078125 13.628906 L 441.542969 13.707031 L 441.011719 13.796875 L 440.476562 13.894531 L 439.945312 14 L 439.417969 14.113281 L 438.890625 14.234375 L 438.363281 14.367188 L 437.839844 14.503906 L 437.320312 14.652344 L 436.800781 14.808594 L 436.285156 14.96875 L 435.773438 15.140625 L 435.261719 15.320312 L 434.753906 15.507812 L 434.25 15.703125 L 433.746094 15.90625 L 433.246094 16.117188 L 432.753906 16.335938 L 432.261719 16.5625 L 431.773438 16.796875 L 431.289062 17.039062 L 430.808594 17.289062 L 430.332031 17.546875 L 429.859375 17.8125 L 429.390625 18.082031 L 428.925781 18.363281 L 428.46875 18.648438 L 428.011719 18.941406 L 427.5625 19.242188 L 427.117188 19.550781 L 426.675781 19.867188 L 426.242188 20.1875 L 425.8125 20.515625 L 425.386719 20.851562 L 424.964844 21.191406 L 424.550781 21.539062 L 424.144531 21.894531 L 423.742188 22.257812 L 423.34375 22.625 L 422.949219 22.996094 L 422.183594 23.761719 L 421.8125 24.15625 L 421.445312 24.550781 L 421.082031 24.957031 L 420.726562 25.363281 L 420.378906 25.777344 L 420.039062 26.199219 L 419.703125 26.625 L 419.375 27.054688 L 419.054688 27.488281 L 418.738281 27.929688 L 418.429688 28.375 L 418.128906 28.824219 L 417.835938 29.28125 L 417.550781 29.738281 L 417.269531 30.203125 L 417 30.671875 L 416.734375 31.144531 L 416.476562 31.621094 L 416.226562 32.101562 L 415.984375 32.585938 L 415.75 33.074219 L 415.523438 33.566406 L 415.304688 34.058594 L 415.09375 34.558594 L 414.890625 35.058594 L 414.695312 35.566406 L 414.507812 36.074219 L 414.328125 36.582031 L 414.15625 37.097656 L 413.996094 37.613281 L 413.839844 38.132812 L 413.691406 38.652344 L 413.554688 39.175781 L 413.421875 39.703125 L 413.300781 40.230469 L 413.1875 40.757812 L 413.082031 41.289062 L 412.984375 41.820312 L 412.894531 42.355469 L 412.816406 42.890625 L 412.742188 43.429688 L 412.679688 43.964844 L 412.625 44.503906 L 412.578125 45.042969 L 412.539062 45.582031 L 412.507812 46.125 L 412.488281 46.664062 L 412.476562 47.207031 L 412.472656 47.746094 L 412.472656 82.210938 Z M 550.328125 82.210938 "/>
<g clip-path="url(#clip2)" clip-rule="nonzero">
<path style="fill:none;stroke-width:1.5;stroke-linecap:square;stroke-linejoin:miter;stroke:rgb(0%,0%,0%);stroke-opacity:1;stroke-miterlimit:3.25;" d="M 550.328125 82.210938 L 550.328125 47.746094 L 550.324219 47.207031 L 550.3125 46.664062 L 550.289062 46.125 L 550.261719 45.582031 L 550.222656 45.042969 L 550.175781 44.503906 L 550.121094 43.964844 L 550.058594 43.429688 L 549.984375 42.890625 L 549.90625 42.355469 L 549.816406 41.820312 L 549.71875 41.289062 L 549.613281 40.757812 L 549.5 40.230469 L 549.375 39.703125 L 549.246094 39.175781 L 549.105469 38.652344 L 548.960938 38.132812 L 548.804688 37.613281 L 548.640625 37.097656 L 548.46875 36.582031 L 548.292969 36.074219 L 548.105469 35.566406 L 547.910156 35.058594 L 547.707031 34.558594 L 547.496094 34.058594 L 547.273438 33.566406 L 547.046875 33.074219 L 546.8125 32.585938 L 546.574219 32.101562 L 546.324219 31.621094 L 546.066406 31.144531 L 545.800781 30.671875 L 545.527344 30.203125 L 545.25 29.738281 L 544.964844 29.28125 L 544.667969 28.824219 L 544.367188 28.375 L 544.0625 27.929688 L 543.746094 27.488281 L 543.425781 27.054688 L 543.097656 26.625 L 542.761719 26.199219 L 542.417969 25.777344 L 542.070312 25.363281 L 541.714844 24.957031 L 541.355469 24.550781 L 540.988281 24.15625 L 540.613281 23.761719 L 540.234375 23.378906 L 539.847656 22.996094 L 539.457031 22.625 L 539.058594 22.257812 L 538.65625 21.894531 L 538.246094 21.539062 L 537.832031 21.191406 L 537.414062 20.851562 L 536.988281 20.515625 L 536.558594 20.1875 L 536.121094 19.867188 L 535.679688 19.550781 L 535.234375 19.242188 L 534.785156 18.941406 L 534.332031 18.648438 L 533.871094 18.363281 L 533.40625 18.082031 L 532.941406 17.8125 L 532.46875 17.546875 L 531.992188 17.289062 L 531.511719 17.039062 L 531.027344 16.796875 L 530.539062 16.5625 L 530.046875 16.335938 L 529.550781 16.117188 L 529.054688 15.90625 L 528.550781 15.703125 L 528.046875 15.507812 L 527.539062 15.320312 L 527.027344 15.140625 L 526.515625 14.96875 L 526 14.808594 L 525.480469 14.652344 L 524.957031 14.503906 L 524.433594 14.367188 L 523.910156 14.234375 L 523.382812 14.113281 L 522.851562 14 L 522.320312 13.894531 L 521.789062 13.796875 L 521.253906 13.707031 L 520.71875 13.628906 L 520.183594 13.554688 L 519.644531 13.492188 L 519.109375 13.4375 L 518.566406 13.390625 L 518.027344 13.351562 L 517.488281 13.320312 L 516.945312 13.300781 L 516.40625 13.289062 L 515.863281 13.28125 L 446.933594 13.28125 L 446.394531 13.289062 L 445.851562 13.300781 L 445.3125 13.320312 L 444.769531 13.351562 L 444.230469 13.390625 L 443.691406 13.4375 L 443.152344 13.492188 L 442.617188 13.554688 L 442.078125 13.628906 L 441.542969 13.707031 L 441.011719 13.796875 L 440.476562 13.894531 L 439.945312 14 L 439.417969 14.113281 L 438.890625 14.234375 L 438.363281 14.367188 L 437.839844 14.503906 L 437.320312 14.652344 L 436.800781 14.808594 L 436.285156 14.96875 L 435.773438 15.140625 L 435.261719 15.320312 L 434.753906 15.507812 L 434.25 15.703125 L 433.746094 15.90625 L 433.246094 16.117188 L 432.753906 16.335938 L 432.261719 16.5625 L 431.773438 16.796875 L 431.289062 17.039062 L 430.808594 17.289062 L 430.332031 17.546875 L 429.859375 17.8125 L 429.390625 18.082031 L 428.925781 18.363281 L 428.46875 18.648438 L 428.011719 18.941406 L 427.5625 19.242188 L 427.117188 19.550781 L 426.675781 19.867188 L 426.242188 20.1875 L 425.8125 20.515625 L 425.386719 20.851562 L 424.964844 21.191406 L 424.550781 21.539062 L 424.144531 21.894531 L 423.742188 22.257812 L 423.34375 22.625 L 422.949219 22.996094 L 422.183594 23.761719 L 421.8125 24.15625 L 421.445312 24.550781 L 421.082031 24.957031 L 420.726562 25.363281 L 420.378906 25.777344 L 420.039062 26.199219 L 419.703125 26.625 L 419.375 27.054688 L 419.054688 27.488281 L 418.738281 27.929688 L 418.429688 28.375 L 418.128906 28.824219 L 417.835938 29.28125 L 417.550781 29.738281 L 417.269531 30.203125 L 417 30.671875 L 416.734375 31.144531 L 416.476562 31.621094 L 416.226562 32.101562 L 415.984375 32.585938 L 415.75 33.074219 L 415.523438 33.566406 L 415.304688 34.058594 L 415.09375 34.558594 L 414.890625 35.058594 L 414.695312 35.566406 L 414.507812 36.074219 L 414.328125 36.582031 L 414.15625 37.097656 L 413.996094 37.613281 L 413.839844 38.132812 L 413.691406 38.652344 L 413.554688 39.175781 L 413.421875 39.703125 L 413.300781 40.230469 L 413.1875 40.757812 L 413.082031 41.289062 L 412.984375 41.820312 L 412.894531 42.355469 L 412.816406 42.890625 L 412.742188 43.429688 L 412.679688 43.964844 L 412.625 44.503906 L 412.578125 45.042969 L 412.539062 45.582031 L 412.507812 46.125 L 412.488281 46.664062 L 412.476562 47.207031 L 412.472656 47.746094 L 412.472656 82.210938 Z M 550.328125 82.210938 "/>
</g>
</g>
</svg>
