<?xml version="1.0" encoding="UTF-8"?>
<svg xmlns="http://www.w3.org/2000/svg" xmlns:xlink="http://www.w3.org/1999/xlink" width="404pt" height="91pt" viewBox="0 0 404 91" version="1.1">
<defs>
<clipPath id="clip1">
  <path d="M 8.640625 5.519531 L 216.480469 5.519531 L 216.480469 85.679688 L 8.640625 85.679688 Z M 8.640625 5.519531 "/>
</clipPath>
<clipPath id="clip2">
  <path d="M 225.601562 9 L 303 9 L 303 85.679688 L 225.601562 85.679688 Z M 225.601562 9 "/>
</clipPath>
<clipPath id="clip3">
  <path d="M 225.601562 27 L 284 27 L 284 85.679688 L 225.601562 85.679688 Z M 225.601562 27 "/>
</clipPath>
<clipPath id="clip4">
  <path d="M 225.601562 8 L 303 8 L 303 85.679688 L 225.601562 85.679688 Z M 225.601562 8 "/>
</clipPath>
<clipPath id="clip5">
  <path d="M 236 5.519531 L 305.761719 5.519531 L 305.761719 34 L 236 34 Z M 236 5.519531 "/>
</clipPath>
<clipPath id="clip6">
  <path d="M 314.878906 9 L 392 9 L 392 85.679688 L 314.878906 85.679688 Z M 314.878906 9 "/>
</clipPath>
<clipPath id="clip7">
  <path d="M 314.878906 27 L 374 27 L 374 85.679688 L 314.878906 85.679688 Z M 314.878906 27 "/>
</clipPath>
<clipPath id="clip8">
  <path d="M 314.878906 8 L 393 8 L 393 85.679688 L 314.878906 85.679688 Z M 314.878906 8 "/>
</clipPath>
<clipPath id="clip9">
  <path d="M 367 5.519531 L 395.039062 5.519531 L 395.039062 75 L 367 75 Z M 367 5.519531 "/>
</clipPath>
</defs>
<g id="surface224">
<path style="fill:none;stroke-width:0.2;stroke-linecap:square;stroke-linejoin:miter;stroke:rgb(0%,0%,0%);stroke-opacity:1;stroke-miterlimit:3.25;" d="M 164.179688 22.78125 L 178.492188 17.054688 "/>
<path style=" stroke:none;fill-rule:nonzero;fill:rgb(100%,92.500191%,92.500191%);fill-opacity:1;" d="M 147.628906 71.136719 L 147.367188 69.113281 L 147.015625 67.121094 L 146.582031 65.164062 L 146.0625 63.246094 L 145.460938 61.367188 L 144.78125 59.535156 L 144.023438 57.75 L 143.1875 56.019531 L 142.277344 54.339844 L 141.292969 52.71875 L 140.246094 51.160156 L 139.128906 49.664062 L 137.949219 48.238281 L 136.707031 46.875 L 135.410156 45.589844 L 134.054688 44.375 L 132.648438 43.238281 L 131.195312 42.179688 L 129.699219 41.203125 L 128.160156 40.308594 L 126.582031 39.5 L 124.972656 38.777344 L 123.328125 38.140625 L 121.660156 37.59375 L 119.96875 37.140625 L 118.257812 36.78125 L 116.535156 36.515625 L 114.804688 36.347656 L 113.066406 36.277344 L 111.332031 36.300781 L 109.597656 36.425781 L 107.871094 36.644531 L 106.152344 36.960938 L 104.449219 37.371094 L 102.769531 37.875 L 101.117188 38.46875 L 99.488281 39.152344 L 97.894531 39.921875 L 96.339844 40.777344 L 94.820312 41.714844 L 93.347656 42.734375 L 91.917969 43.835938 L 90.539062 45.015625 L 89.214844 46.269531 L 87.949219 47.59375 L 86.738281 48.992188 L 85.59375 50.457031 L 84.511719 51.988281 L 83.496094 53.578125 L 82.554688 55.230469 L 81.683594 56.9375 L 80.890625 58.699219 L 80.171875 60.507812 L 79.53125 62.367188 L 78.976562 64.265625 L 78.5 66.207031 L 78.113281 68.183594 L 77.808594 70.191406 L 77.699219 71.136719 L 77.609375 71.210938 L 77.511719 71.285156 L 77.410156 71.359375 L 77.300781 71.4375 L 77.1875 71.519531 L 77.066406 71.601562 L 76.941406 71.6875 L 76.804688 71.773438 L 76.664062 71.859375 L 76.519531 71.949219 L 76.363281 72.039062 L 76.203125 72.128906 L 76.035156 72.21875 L 75.863281 72.308594 L 75.679688 72.398438 L 75.492188 72.492188 L 75.296875 72.582031 L 75.09375 72.671875 L 74.886719 72.765625 L 74.667969 72.855469 L 74.445312 72.941406 L 74.214844 73.03125 L 73.976562 73.117188 L 73.730469 73.199219 L 73.476562 73.285156 L 73.21875 73.367188 L 72.949219 73.445312 L 72.675781 73.523438 L 72.394531 73.597656 L 72.105469 73.667969 L 71.8125 73.738281 L 71.507812 73.804688 L 71.199219 73.867188 L 70.882812 73.925781 L 70.558594 73.980469 L 70.226562 74.03125 L 69.886719 74.078125 L 69.542969 74.125 L 69.191406 74.164062 L 68.832031 74.195312 L 68.46875 74.226562 L 68.09375 74.25 L 67.71875 74.269531 L 67.304688 74.285156 L 66.882812 74.292969 L 20.289062 74.296875 L 20.332031 73.347656 L 20.460938 71.328125 L 20.640625 69.332031 L 20.867188 67.363281 L 21.140625 65.425781 L 21.460938 63.511719 L 21.824219 61.632812 L 22.230469 59.789062 L 22.679688 57.976562 L 23.167969 56.199219 L 23.691406 54.460938 L 24.253906 52.757812 L 24.851562 51.09375 L 25.480469 49.472656 L 26.140625 47.890625 L 26.832031 46.355469 L 27.546875 44.859375 L 28.289062 43.40625 L 29.050781 42 L 29.835938 40.640625 L 30.640625 39.324219 L 31.464844 38.054688 L 32.300781 36.832031 L 33.148438 35.65625 L 34.007812 34.527344 L 34.875 33.445312 L 35.746094 32.414062 L 36.621094 31.433594 L 37.492188 30.503906 L 38.363281 29.621094 L 39.226562 28.789062 L 40.085938 28.003906 L 40.9375 27.265625 L 41.800781 26.550781 L 42.789062 25.777344 L 43.78125 25.039062 L 44.777344 24.335938 L 45.777344 23.671875 L 46.777344 23.039062 L 47.777344 22.445312 L 48.773438 21.886719 L 49.769531 21.359375 L 50.761719 20.867188 L 51.75 20.410156 L 52.730469 19.984375 L 53.707031 19.589844 L 54.671875 19.226562 L 55.632812 18.894531 L 56.582031 18.59375 L 57.519531 18.324219 L 58.445312 18.082031 L 59.359375 17.867188 L 60.261719 17.679688 L 61.148438 17.515625 L 62.023438 17.382812 L 62.878906 17.269531 L 63.722656 17.183594 L 64.546875 17.121094 L 65.355469 17.078125 L 158.851562 17.054688 L 159.582031 17.066406 L 160.34375 17.09375 L 161.160156 17.144531 L 161.992188 17.222656 L 162.84375 17.320312 L 163.707031 17.441406 L 164.589844 17.589844 L 165.480469 17.761719 L 166.390625 17.960938 L 167.308594 18.191406 L 168.242188 18.445312 L 169.1875 18.730469 L 170.140625 19.046875 L 171.101562 19.390625 L 172.074219 19.769531 L 173.050781 20.175781 L 174.035156 20.617188 L 175.023438 21.09375 L 176.019531 21.601562 L 177.015625 22.140625 L 178.015625 22.71875 L 179.015625 23.328125 L 180.015625 23.976562 L 181.011719 24.660156 L 182.007812 25.378906 L 183 26.132812 L 183.941406 26.886719 L 184.785156 27.601562 L 185.640625 28.363281 L 186.5 29.171875 L 187.367188 30.027344 L 188.238281 30.929688 L 189.113281 31.882812 L 189.984375 32.890625 L 190.855469 33.941406 L 191.71875 35.046875 L 192.574219 36.195312 L 193.417969 37.394531 L 194.246094 38.640625 L 195.0625 39.929688 L 195.855469 41.265625 L 196.632812 42.648438 L 197.386719 44.078125 L 198.117188 45.550781 L 198.820312 47.066406 L 199.496094 48.621094 L 200.140625 50.222656 L 200.757812 51.863281 L 201.335938 53.542969 L 201.882812 55.265625 L 202.390625 57.019531 L 202.859375 58.8125 L 203.289062 60.640625 L 203.675781 62.503906 L 204.019531 64.398438 L 204.320312 66.324219 L 204.570312 68.277344 L 204.777344 70.257812 L 204.933594 72.265625 L 205.039062 74.296875 L 158.527344 74.296875 L 158.199219 74.289062 L 157.875 74.28125 L 157.570312 74.269531 L 157.277344 74.253906 L 156.992188 74.234375 L 156.710938 74.214844 L 156.433594 74.191406 L 156.15625 74.164062 L 155.886719 74.136719 L 155.621094 74.101562 L 155.359375 74.070312 L 154.84375 73.992188 L 154.59375 73.949219 L 154.347656 73.90625 L 154.109375 73.863281 L 153.871094 73.8125 L 153.636719 73.765625 L 153.40625 73.710938 L 153.183594 73.660156 L 152.960938 73.605469 L 152.53125 73.488281 L 152.324219 73.429688 L 152.121094 73.367188 L 151.917969 73.308594 L 151.722656 73.242188 L 151.53125 73.179688 L 151.34375 73.113281 L 150.984375 72.980469 L 150.808594 72.914062 L 150.640625 72.847656 L 150.472656 72.777344 L 150.3125 72.707031 L 150.152344 72.640625 L 150 72.570312 L 149.703125 72.429688 L 149.5625 72.359375 L 149.425781 72.289062 L 149.292969 72.21875 L 149.164062 72.152344 L 149.039062 72.082031 L 148.917969 72.011719 L 148.800781 71.945312 L 148.6875 71.875 L 148.578125 71.808594 L 148.472656 71.742188 L 148.371094 71.679688 L 148.273438 71.613281 L 148.179688 71.550781 L 148.089844 71.488281 L 148.003906 71.425781 L 147.921875 71.367188 L 147.84375 71.304688 L 147.769531 71.25 L 147.695312 71.191406 Z M 147.628906 71.136719 "/>
<path style=" stroke:none;fill-rule:evenodd;fill:rgb(0%,0%,0%);fill-opacity:1;" d="M 187.71875 14.425781 C 187.71875 13.964844 187.609375 13.558594 187.195312 13.15625 C 186.964844 12.925781 186.765625 12.867188 185.757812 12.605469 C 185.023438 12.410156 184.925781 12.375 184.726562 12.203125 C 184.542969 12.015625 184.398438 11.75 184.398438 11.378906 C 184.398438 10.457031 185.332031 9.515625 186.371094 9.515625 C 187.445312 9.515625 187.949219 10.171875 187.949219 11.214844 C 187.949219 11.5 187.894531 11.796875 187.894531 11.839844 C 187.894531 11.9375 187.984375 11.9375 188.015625 11.9375 C 188.113281 11.9375 188.125 11.90625 188.167969 11.730469 L 188.761719 9.320312 C 188.761719 9.21875 188.664062 9.21875 188.664062 9.21875 C 188.617188 9.21875 188.609375 9.230469 188.476562 9.394531 L 187.949219 10.050781 C 187.585938 9.339844 186.867188 9.21875 186.40625 9.21875 C 185.011719 9.21875 183.753906 10.492188 183.753906 11.730469 C 183.753906 12.550781 184.246094 13.035156 184.78125 13.21875 C 184.902344 13.265625 185.550781 13.4375 185.878906 13.515625 C 186.4375 13.667969 186.578125 13.710938 186.8125 13.953125 C 186.855469 14.007812 187.074219 14.261719 187.074219 14.777344 C 187.074219 15.796875 186.128906 16.847656 185.035156 16.847656 C 184.136719 16.847656 183.136719 16.460938 183.136719 15.234375 C 183.136719 15.027344 183.183594 14.765625 183.214844 14.65625 C 183.214844 14.621094 183.226562 14.546875 183.226562 14.546875 C 183.226562 14.5 183.207031 14.445312 183.117188 14.445312 C 183.019531 14.445312 183.007812 14.46875 182.964844 14.65625 L 182.40625 16.902344 L 182.363281 17.066406 C 182.363281 17.164062 182.472656 17.164062 182.472656 17.164062 C 182.515625 17.164062 182.527344 17.152344 182.65625 16.988281 L 183.160156 16.332031 C 183.425781 16.726562 183.992188 17.164062 185.011719 17.164062 C 186.425781 17.164062 187.71875 15.796875 187.71875 14.425781 Z M 187.71875 14.425781 "/>
<path style=" stroke:none;fill-rule:evenodd;fill:rgb(0%,0%,0%);fill-opacity:1;" d="M 194.976562 18.535156 L 194.976562 18.28125 C 194.488281 18.28125 194.394531 18.28125 194.394531 17.9375 L 194.394531 16.210938 C 194.394531 15.589844 194.125 15.152344 193.289062 15.152344 C 192.585938 15.152344 192.230469 15.632812 192.109375 15.859375 C 191.972656 15.304688 191.535156 15.152344 191.035156 15.152344 C 190.289062 15.152344 189.9375 15.679688 189.835938 15.886719 L 189.828125 15.886719 L 189.828125 15.152344 L 188.71875 15.234375 L 188.71875 15.488281 C 189.238281 15.488281 189.300781 15.542969 189.300781 15.917969 L 189.300781 17.9375 C 189.300781 18.28125 189.207031 18.28125 188.71875 18.28125 L 188.71875 18.535156 C 189.046875 18.511719 189.382812 18.511719 189.59375 18.511719 C 189.8125 18.511719 190.136719 18.511719 190.46875 18.535156 L 190.46875 18.28125 C 189.976562 18.28125 189.882812 18.28125 189.882812 17.9375 L 189.882812 16.546875 C 189.882812 15.742188 190.488281 15.367188 190.972656 15.367188 C 191.472656 15.367188 191.554688 15.757812 191.554688 16.179688 L 191.554688 17.9375 C 191.554688 18.28125 191.464844 18.28125 190.972656 18.28125 L 190.972656 18.535156 C 191.304688 18.511719 191.640625 18.511719 191.847656 18.511719 C 192.070312 18.511719 192.394531 18.511719 192.722656 18.535156 L 192.722656 18.28125 C 192.230469 18.28125 192.140625 18.28125 192.140625 17.9375 L 192.140625 16.546875 C 192.140625 15.742188 192.746094 15.367188 193.230469 15.367188 C 193.726562 15.367188 193.8125 15.757812 193.8125 16.179688 L 193.8125 17.9375 C 193.8125 18.28125 193.71875 18.28125 193.230469 18.28125 L 193.230469 18.535156 C 193.558594 18.511719 193.894531 18.511719 194.105469 18.511719 C 194.324219 18.511719 194.648438 18.511719 194.976562 18.535156 Z M 194.976562 18.535156 "/>
<path style=" stroke:none;fill-rule:evenodd;fill:rgb(0%,0%,0%);fill-opacity:1;" d="M 199.148438 17.84375 L 199.148438 17.421875 L 198.910156 17.421875 L 198.910156 17.84375 C 198.910156 18.160156 198.796875 18.28125 198.632812 18.28125 C 198.351562 18.28125 198.351562 17.929688 198.351562 17.84375 L 198.351562 16.25 C 198.351562 15.496094 197.621094 15.113281 196.921875 15.113281 C 196.285156 15.113281 195.71875 15.359375 195.71875 15.863281 C 195.71875 16.09375 195.878906 16.234375 196.078125 16.234375 C 196.292969 16.234375 196.4375 16.078125 196.4375 15.871094 C 196.4375 15.6875 196.324219 15.558594 196.15625 15.519531 C 196.4375 15.328125 196.855469 15.328125 196.90625 15.328125 C 197.335938 15.328125 197.765625 15.625 197.765625 16.257812 L 197.765625 16.492188 C 197.320312 16.515625 196.808594 16.539062 196.269531 16.761719 C 195.59375 17.054688 195.464844 17.5 195.464844 17.753906 C 195.464844 18.410156 196.238281 18.613281 196.769531 18.613281 C 197.328125 18.613281 197.675781 18.296875 197.84375 17.988281 C 197.882812 18.28125 198.082031 18.574219 198.417969 18.574219 C 198.496094 18.574219 199.148438 18.542969 199.148438 17.84375 Z M 197.765625 17.453125 C 197.765625 18.199219 197.136719 18.398438 196.832031 18.398438 C 196.433594 18.398438 196.09375 18.128906 196.09375 17.761719 C 196.09375 17.253906 196.570312 16.730469 197.765625 16.695312 Z M 197.765625 17.453125 "/>
<path style=" stroke:none;fill-rule:evenodd;fill:rgb(0%,0%,0%);fill-opacity:1;" d="M 203.480469 18.535156 L 203.480469 18.28125 C 203.003906 18.28125 202.925781 18.242188 202.726562 18.003906 L 201.667969 16.738281 C 201.882812 16.46875 202.105469 16.210938 202.335938 15.957031 C 202.589844 15.6875 202.855469 15.488281 203.339844 15.480469 L 203.339844 15.226562 C 203.042969 15.25 203.027344 15.25 202.679688 15.25 C 202.644531 15.25 202.191406 15.25 201.953125 15.226562 L 201.953125 15.480469 C 202.097656 15.496094 202.128906 15.589844 202.128906 15.6875 C 202.128906 15.789062 202.089844 15.878906 201.996094 15.988281 L 201.515625 16.554688 L 200.90625 15.835938 C 200.816406 15.726562 200.816406 15.65625 200.816406 15.65625 C 200.816406 15.605469 200.863281 15.488281 201.054688 15.480469 L 201.054688 15.226562 C 200.746094 15.25 200.316406 15.25 200.234375 15.25 C 200.09375 15.25 199.703125 15.25 199.472656 15.226562 L 199.472656 15.480469 C 199.996094 15.480469 200.003906 15.488281 200.402344 15.957031 L 201.191406 16.917969 L 200.492188 17.738281 C 200.300781 17.953125 200.019531 18.265625 199.433594 18.28125 L 199.433594 18.535156 C 199.71875 18.511719 199.773438 18.511719 200.09375 18.511719 C 200.09375 18.511719 200.578125 18.511719 200.824219 18.535156 L 200.824219 18.28125 C 200.722656 18.265625 200.640625 18.214844 200.640625 18.074219 C 200.640625 17.9375 200.730469 17.828125 200.753906 17.792969 L 201.351562 17.109375 L 201.980469 17.859375 C 202.136719 18.035156 202.136719 18.050781 202.136719 18.105469 C 202.136719 18.167969 202.082031 18.273438 201.898438 18.28125 L 201.898438 18.535156 C 202.230469 18.511719 202.574219 18.511719 202.71875 18.511719 C 202.855469 18.511719 203.246094 18.511719 203.480469 18.535156 Z M 203.480469 18.535156 "/>
<g clip-path="url(#clip1)" clip-rule="nonzero">
<path style=" stroke:none;fill-rule:nonzero;fill:rgb(86.999313%,94.000153%,100%);fill-opacity:1;" d="M -451.058594 -25.101562 L -441.121094 -81.476562 L 686.328125 117.324219 L 676.386719 173.695312 Z M -451.058594 -25.101562 "/>
</g>
<path style=" stroke:none;fill-rule:evenodd;fill:rgb(0%,0%,0%);fill-opacity:1;" d="M 114.914062 52.492188 C 114.914062 52.449219 114.890625 52.382812 114.792969 52.382812 C 114.59375 52.382812 114.125 52.40625 113.925781 52.40625 C 113.609375 52.40625 113.28125 52.382812 112.972656 52.382812 C 112.886719 52.382812 112.777344 52.382812 112.777344 52.589844 C 112.777344 52.6875 112.875 52.699219 112.917969 52.699219 C 113.324219 52.734375 113.367188 52.929688 113.367188 53.0625 C 113.367188 53.226562 113.203125 53.488281 113.203125 53.488281 L 109.761719 58.945312 L 108.996094 53.039062 C 108.996094 52.722656 109.566406 52.699219 109.6875 52.699219 C 109.851562 52.699219 109.949219 52.699219 109.949219 52.492188 C 109.949219 52.382812 109.832031 52.382812 109.796875 52.382812 C 109.609375 52.382812 109.390625 52.40625 109.207031 52.40625 L 108.589844 52.40625 C 107.792969 52.40625 107.453125 52.382812 107.453125 52.382812 C 107.386719 52.382812 107.253906 52.382812 107.253906 52.578125 C 107.253906 52.699219 107.332031 52.699219 107.507812 52.699219 C 108.066406 52.699219 108.097656 52.796875 108.132812 53.070312 L 109.007812 59.832031 C 109.042969 60.0625 109.042969 60.09375 109.195312 60.09375 C 109.324219 60.09375 109.378906 60.0625 109.488281 59.886719 L 113.445312 53.597656 C 113.816406 53.007812 114.15625 52.742188 114.714844 52.699219 C 114.824219 52.6875 114.914062 52.6875 114.914062 52.492188 Z M 114.914062 52.492188 "/>
<path style=" stroke:none;fill-rule:evenodd;fill:rgb(0%,0%,0%);fill-opacity:1;" d="M 117.695312 59.632812 C 117.773438 59.316406 117.863281 58.957031 117.863281 58.65625 C 117.863281 58.441406 117.820312 58.257812 117.679688 58.144531 C 117.632812 58.105469 117.566406 58.082031 117.496094 58.082031 C 117.398438 58.082031 117.289062 58.128906 117.203125 58.21875 C 117.136719 58.296875 117.097656 58.386719 117.097656 58.472656 C 117.097656 58.558594 117.128906 58.632812 117.195312 58.6875 C 117.390625 58.839844 117.496094 59.070312 117.496094 59.332031 C 117.496094 59.417969 117.480469 59.5 117.464844 59.585938 C 117.289062 60.269531 116.8125 60.949219 116.207031 60.949219 C 115.792969 60.949219 115.523438 60.699219 115.433594 60.335938 C 115.539062 60.113281 115.625 59.871094 115.679688 59.632812 C 115.695312 59.578125 115.703125 59.515625 115.703125 59.464844 C 115.703125 59.324219 115.648438 59.21875 115.515625 59.21875 C 115.363281 59.21875 115.25 59.402344 115.210938 59.585938 C 115.140625 59.839844 115.109375 60.082031 115.117188 60.308594 C 114.859375 60.683594 114.480469 60.949219 114.074219 60.949219 C 113.597656 60.949219 113.367188 60.558594 113.367188 60.066406 C 113.367188 59.929688 113.382812 59.785156 113.421875 59.632812 C 113.539062 59.1875 113.804688 58.765625 114.113281 58.371094 C 114.136719 58.335938 114.152344 58.296875 114.152344 58.265625 C 114.152344 58.210938 114.121094 58.167969 114.074219 58.136719 C 114.050781 58.121094 114.027344 58.113281 114 58.113281 C 113.945312 58.113281 113.882812 58.144531 113.84375 58.191406 C 113.523438 58.625 113.316406 59.101562 113.191406 59.585938 C 113.125 59.855469 113.085938 60.113281 113.085938 60.367188 C 113.085938 61.027344 113.34375 61.542969 113.976562 61.542969 C 114.457031 61.542969 114.867188 61.226562 115.179688 60.78125 C 115.292969 61.234375 115.59375 61.542969 116.101562 61.542969 C 116.914062 61.542969 117.464844 60.566406 117.695312 59.632812 Z M 117.695312 59.632812 "/>
<path style="fill-rule:nonzero;fill:rgb(100%,100%,86.999313%);fill-opacity:1;stroke-width:1;stroke-linecap:square;stroke-linejoin:miter;stroke:rgb(0%,0%,0%);stroke-opacity:1;stroke-miterlimit:3.25;" d="M 78.109375 68.203125 L 78.113281 68.183594 L 78.5 66.207031 L 78.976562 64.265625 L 79.53125 62.367188 L 80.171875 60.507812 L 80.890625 58.699219 L 81.683594 56.9375 L 82.554688 55.230469 L 83.496094 53.578125 L 84.511719 51.988281 L 85.59375 50.457031 L 86.738281 48.992188 L 87.949219 47.59375 L 89.214844 46.269531 L 90.539062 45.015625 L 91.917969 43.835938 L 93.347656 42.734375 L 94.820312 41.714844 L 96.339844 40.777344 L 97.894531 39.921875 L 99.488281 39.152344 L 101.117188 38.46875 L 102.769531 37.875 L 104.449219 37.371094 L 106.152344 36.960938 L 107.871094 36.644531 L 109.597656 36.425781 L 111.332031 36.300781 L 113.066406 36.277344 L 114.804688 36.347656 L 116.535156 36.515625 L 118.257812 36.78125 L 119.96875 37.140625 L 121.660156 37.59375 L 123.328125 38.140625 L 124.972656 38.777344 L 126.582031 39.5 L 128.160156 40.308594 L 129.699219 41.203125 L 131.195312 42.179688 L 132.648438 43.238281 L 134.054688 44.375 L 135.410156 45.589844 L 136.707031 46.875 L 137.949219 48.238281 L 139.128906 49.664062 L 140.246094 51.160156 L 141.292969 52.71875 L 142.277344 54.339844 L 143.1875 56.019531 L 144.023438 57.75 L 144.78125 59.535156 L 145.460938 61.367188 L 146.0625 63.246094 L 146.582031 65.164062 L 147.015625 67.121094 L 147.367188 69.113281 L 147.628906 71.136719 L 147.695312 71.191406 L 147.769531 71.25 L 147.84375 71.304688 L 147.921875 71.367188 L 148.003906 71.425781 L 148.089844 71.488281 L 148.179688 71.550781 L 148.273438 71.613281 L 148.371094 71.679688 L 148.472656 71.742188 L 148.578125 71.808594 L 148.6875 71.875 L 148.800781 71.945312 L 148.917969 72.011719 L 149.039062 72.082031 L 149.164062 72.152344 L 149.292969 72.21875 L 149.425781 72.289062 L 149.5625 72.359375 L 149.703125 72.429688 L 150 72.570312 L 150.152344 72.640625 L 150.3125 72.707031 L 150.472656 72.777344 L 150.640625 72.847656 L 150.808594 72.914062 L 150.984375 72.980469 L 151.34375 73.113281 L 151.53125 73.179688 L 151.722656 73.242188 L 151.917969 73.308594 L 152.121094 73.367188 L 152.324219 73.429688 L 152.53125 73.488281 L 152.960938 73.605469 L 153.183594 73.660156 L 153.40625 73.710938 L 153.636719 73.765625 L 153.871094 73.8125 L 154.109375 73.863281 L 154.347656 73.90625 L 154.59375 73.949219 L 154.84375 73.992188 L 155.359375 74.070312 L 155.621094 74.101562 L 155.886719 74.136719 L 156.15625 74.164062 L 156.433594 74.191406 L 156.710938 74.214844 L 156.992188 74.234375 L 157.277344 74.253906 L 157.570312 74.269531 L 157.875 74.28125 L 158.199219 74.289062 L 158.527344 74.296875 L 205.039062 74.296875 L 204.933594 72.265625 L 204.777344 70.257812 L 204.570312 68.277344 L 204.320312 66.324219 L 204.019531 64.398438 L 203.675781 62.503906 L 203.289062 60.640625 L 202.859375 58.8125 L 202.390625 57.019531 L 201.882812 55.265625 L 201.335938 53.542969 L 200.757812 51.863281 L 200.140625 50.222656 L 199.496094 48.621094 L 198.820312 47.066406 L 198.117188 45.550781 L 197.386719 44.078125 L 196.632812 42.648438 L 195.855469 41.265625 L 195.0625 39.929688 L 194.246094 38.640625 L 193.417969 37.394531 L 192.574219 36.195312 L 191.71875 35.046875 L 190.855469 33.941406 L 189.984375 32.890625 L 189.113281 31.882812 L 188.238281 30.929688 L 187.367188 30.027344 L 186.527344 29.195312 L 117.726562 17.066406 L 65.355469 17.078125 L 64.546875 17.121094 L 63.722656 17.183594 L 62.878906 17.269531 L 62.023438 17.382812 L 61.148438 17.515625 L 60.261719 17.679688 L 59.359375 17.867188 L 58.445312 18.082031 L 57.519531 18.324219 L 56.582031 18.59375 L 55.632812 18.894531 L 54.671875 19.226562 L 53.707031 19.589844 L 52.730469 19.984375 L 51.75 20.410156 L 50.761719 20.867188 L 49.769531 21.359375 L 48.773438 21.886719 L 47.777344 22.445312 L 46.777344 23.039062 L 45.777344 23.671875 L 44.777344 24.335938 L 43.78125 25.039062 L 42.789062 25.777344 L 41.800781 26.550781 L 40.9375 27.265625 L 40.085938 28.003906 L 39.226562 28.789062 L 38.363281 29.621094 L 37.492188 30.503906 L 36.621094 31.433594 L 35.746094 32.414062 L 34.875 33.445312 L 34.007812 34.527344 L 33.148438 35.65625 L 32.300781 36.832031 L 31.464844 38.054688 L 30.640625 39.324219 L 29.835938 40.640625 L 29.050781 42 L 28.289062 43.40625 L 27.546875 44.859375 L 26.832031 46.355469 L 26.140625 47.890625 L 25.480469 49.472656 L 24.851562 51.09375 L 24.253906 52.757812 L 23.691406 54.460938 L 23.167969 56.199219 L 22.679688 57.976562 L 22.570312 58.410156 Z M 78.109375 68.203125 "/>
<path style=" stroke:none;fill-rule:evenodd;fill:rgb(0%,0%,0%);fill-opacity:1;" d="M 39.746094 45.90625 C 39.746094 45.449219 39.636719 45.042969 39.21875 44.636719 C 38.992188 44.40625 38.792969 44.351562 37.785156 44.089844 C 37.050781 43.890625 36.953125 43.859375 36.753906 43.683594 C 36.570312 43.5 36.425781 43.234375 36.425781 42.863281 C 36.425781 41.941406 37.359375 41 38.398438 41 C 39.472656 41 39.976562 41.65625 39.976562 42.699219 C 39.976562 42.984375 39.921875 43.277344 39.921875 43.320312 C 39.921875 43.421875 40.007812 43.421875 40.042969 43.421875 C 40.140625 43.421875 40.152344 43.386719 40.195312 43.210938 L 40.789062 40.804688 C 40.789062 40.703125 40.6875 40.703125 40.6875 40.703125 C 40.644531 40.703125 40.632812 40.714844 40.5 40.878906 L 39.976562 41.535156 C 39.613281 40.824219 38.890625 40.703125 38.429688 40.703125 C 37.039062 40.703125 35.78125 41.976562 35.78125 43.210938 C 35.78125 44.035156 36.273438 44.515625 36.808594 44.703125 C 36.929688 44.746094 37.578125 44.921875 37.90625 44.996094 C 38.464844 45.152344 38.605469 45.195312 38.835938 45.4375 C 38.882812 45.492188 39.101562 45.742188 39.101562 46.257812 C 39.101562 47.277344 38.15625 48.328125 37.0625 48.328125 C 36.164062 48.328125 35.164062 47.945312 35.164062 46.71875 C 35.164062 46.511719 35.210938 46.246094 35.242188 46.136719 C 35.242188 46.105469 35.253906 46.027344 35.253906 46.027344 C 35.253906 45.984375 35.234375 45.929688 35.144531 45.929688 C 35.046875 45.929688 35.035156 45.949219 34.992188 46.136719 L 34.433594 48.382812 L 34.390625 48.546875 C 34.390625 48.644531 34.5 48.644531 34.5 48.644531 C 34.542969 48.644531 34.554688 48.636719 34.683594 48.472656 L 35.1875 47.8125 C 35.453125 48.207031 36.019531 48.644531 37.039062 48.644531 C 38.453125 48.644531 39.746094 47.277344 39.746094 45.90625 Z M 39.746094 45.90625 "/>
<path style=" stroke:none;fill-rule:evenodd;fill:rgb(0%,0%,0%);fill-opacity:1;" d="M 47.003906 50.015625 L 47.003906 49.761719 C 46.511719 49.761719 46.417969 49.761719 46.417969 49.417969 L 46.417969 47.691406 C 46.417969 47.070312 46.152344 46.632812 45.316406 46.632812 C 44.609375 46.632812 44.257812 47.117188 44.132812 47.339844 C 43.996094 46.785156 43.558594 46.632812 43.058594 46.632812 C 42.316406 46.632812 41.964844 47.164062 41.863281 47.371094 L 41.855469 47.371094 L 41.855469 46.632812 L 40.742188 46.71875 L 40.742188 46.972656 C 41.265625 46.972656 41.328125 47.023438 41.328125 47.402344 L 41.328125 49.417969 C 41.328125 49.761719 41.234375 49.761719 40.742188 49.761719 L 40.742188 50.015625 C 41.074219 49.992188 41.410156 49.992188 41.617188 49.992188 C 41.839844 49.992188 42.164062 49.992188 42.492188 50.015625 L 42.492188 49.761719 C 42 49.761719 41.910156 49.761719 41.910156 49.417969 L 41.910156 48.027344 C 41.910156 47.222656 42.515625 46.847656 43 46.847656 C 43.496094 46.847656 43.582031 47.238281 43.582031 47.660156 L 43.582031 49.417969 C 43.582031 49.761719 43.488281 49.761719 43 49.761719 L 43 50.015625 C 43.328125 49.992188 43.667969 49.992188 43.871094 49.992188 C 44.097656 49.992188 44.417969 49.992188 44.746094 50.015625 L 44.746094 49.761719 C 44.257812 49.761719 44.164062 49.761719 44.164062 49.417969 L 44.164062 48.027344 C 44.164062 47.222656 44.769531 46.847656 45.253906 46.847656 C 45.753906 46.847656 45.835938 47.238281 45.835938 47.660156 L 45.835938 49.417969 C 45.835938 49.761719 45.746094 49.761719 45.253906 49.761719 L 45.253906 50.015625 C 45.582031 49.992188 45.921875 49.992188 46.128906 49.992188 C 46.351562 49.992188 46.671875 49.992188 47.003906 50.015625 Z M 47.003906 50.015625 "/>
<path style=" stroke:none;fill-rule:evenodd;fill:rgb(0%,0%,0%);fill-opacity:1;" d="M 51.171875 49.324219 L 51.171875 48.902344 L 50.933594 48.902344 L 50.933594 49.324219 C 50.933594 49.640625 50.820312 49.761719 50.660156 49.761719 C 50.375 49.761719 50.375 49.410156 50.375 49.324219 L 50.375 47.730469 C 50.375 46.980469 49.644531 46.59375 48.949219 46.59375 C 48.308594 46.59375 47.742188 46.839844 47.742188 47.347656 C 47.742188 47.578125 47.902344 47.714844 48.105469 47.714844 C 48.316406 47.714844 48.464844 47.5625 48.464844 47.355469 C 48.464844 47.171875 48.347656 47.039062 48.179688 47.003906 C 48.464844 46.808594 48.878906 46.808594 48.933594 46.808594 C 49.363281 46.808594 49.792969 47.109375 49.792969 47.738281 L 49.792969 47.976562 C 49.347656 48 48.832031 48.023438 48.292969 48.246094 C 47.621094 48.535156 47.488281 48.980469 47.488281 49.234375 C 47.488281 49.894531 48.265625 50.09375 48.792969 50.09375 C 49.355469 50.09375 49.699219 49.777344 49.867188 49.472656 C 49.90625 49.761719 50.105469 50.054688 50.441406 50.054688 C 50.519531 50.054688 51.171875 50.023438 51.171875 49.324219 Z M 49.792969 48.933594 C 49.792969 49.679688 49.160156 49.878906 48.855469 49.878906 C 48.457031 49.878906 48.121094 49.609375 48.121094 49.242188 C 48.121094 48.734375 48.59375 48.214844 49.792969 48.175781 Z M 49.792969 48.933594 "/>
<path style=" stroke:none;fill-rule:evenodd;fill:rgb(0%,0%,0%);fill-opacity:1;" d="M 55.5 50.015625 L 55.5 49.761719 C 55.027344 49.761719 54.949219 49.722656 54.75 49.488281 L 53.691406 48.222656 C 53.90625 47.953125 54.128906 47.691406 54.359375 47.4375 C 54.613281 47.171875 54.878906 46.972656 55.363281 46.964844 L 55.363281 46.710938 C 55.0625 46.734375 55.046875 46.734375 54.703125 46.734375 C 54.667969 46.734375 54.214844 46.734375 53.976562 46.710938 L 53.976562 46.964844 C 54.121094 46.980469 54.152344 47.070312 54.152344 47.171875 C 54.152344 47.269531 54.113281 47.363281 54.019531 47.46875 L 53.539062 48.035156 L 52.933594 47.316406 C 52.839844 47.207031 52.839844 47.140625 52.839844 47.140625 C 52.839844 47.085938 52.886719 46.972656 53.078125 46.964844 L 53.078125 46.710938 C 52.769531 46.734375 52.339844 46.734375 52.257812 46.734375 C 52.121094 46.734375 51.726562 46.734375 51.496094 46.710938 L 51.496094 46.964844 C 52.019531 46.964844 52.027344 46.972656 52.425781 47.4375 L 53.214844 48.398438 L 52.519531 49.21875 C 52.324219 49.433594 52.042969 49.746094 51.457031 49.761719 L 51.457031 50.015625 C 51.742188 49.992188 51.796875 49.992188 52.121094 49.992188 C 52.121094 49.992188 52.601562 49.992188 52.847656 50.015625 L 52.847656 49.761719 C 52.746094 49.746094 52.664062 49.695312 52.664062 49.554688 C 52.664062 49.417969 52.753906 49.308594 52.777344 49.273438 L 53.378906 48.589844 L 54.003906 49.339844 C 54.160156 49.519531 54.160156 49.535156 54.160156 49.585938 C 54.160156 49.648438 54.105469 49.753906 53.921875 49.761719 L 53.921875 50.015625 C 54.253906 49.992188 54.597656 49.992188 54.742188 49.992188 C 54.878906 49.992188 55.269531 49.992188 55.5 50.015625 Z M 55.5 50.015625 "/>
<path style=" stroke:none;fill-rule:evenodd;fill:rgb(0%,0%,0%);fill-opacity:1;" d="M 65.3125 48.296875 L 65.3125 44.242188 C 65.3125 42.644531 63.710938 41.867188 62.277344 41.867188 C 60.839844 41.867188 59.242188 42.65625 59.242188 44.242188 L 59.242188 48.296875 C 59.242188 48.449219 59.242188 48.65625 59.460938 48.65625 C 59.679688 48.65625 59.679688 48.449219 59.679688 48.296875 L 59.679688 44.273438 C 59.679688 42.820312 61.226562 42.304688 62.277344 42.304688 C 63.316406 42.304688 64.875 42.808594 64.875 44.273438 L 64.875 48.296875 C 64.875 48.449219 64.875 48.65625 65.09375 48.65625 C 65.3125 48.65625 65.3125 48.449219 65.3125 48.296875 Z M 65.3125 48.296875 "/>
<path style=" stroke:none;fill-rule:evenodd;fill:rgb(0%,0%,0%);fill-opacity:1;" d="M 76.578125 41.042969 C 76.578125 41 76.554688 40.933594 76.457031 40.933594 C 76.261719 40.933594 75.789062 40.957031 75.589844 40.957031 C 75.273438 40.957031 74.945312 40.933594 74.636719 40.933594 C 74.550781 40.933594 74.441406 40.933594 74.441406 41.140625 C 74.441406 41.242188 74.539062 41.25 74.582031 41.25 C 74.988281 41.285156 75.03125 41.480469 75.03125 41.613281 C 75.03125 41.777344 74.867188 42.039062 74.867188 42.039062 L 71.425781 47.496094 L 70.660156 41.589844 C 70.660156 41.273438 71.230469 41.25 71.351562 41.25 C 71.515625 41.25 71.613281 41.25 71.613281 41.042969 C 71.613281 40.933594 71.496094 40.933594 71.460938 40.933594 C 71.273438 40.933594 71.054688 40.957031 70.871094 40.957031 L 70.253906 40.957031 C 69.457031 40.957031 69.117188 40.933594 69.117188 40.933594 C 69.050781 40.933594 68.921875 40.933594 68.921875 41.132812 C 68.921875 41.25 68.996094 41.25 69.171875 41.25 C 69.730469 41.25 69.761719 41.351562 69.796875 41.625 L 70.671875 48.382812 C 70.707031 48.613281 70.707031 48.644531 70.859375 48.644531 C 70.988281 48.644531 71.042969 48.613281 71.152344 48.4375 L 75.109375 42.148438 C 75.480469 41.558594 75.820312 41.296875 76.378906 41.25 C 76.488281 41.242188 76.578125 41.242188 76.578125 41.042969 Z M 76.578125 41.042969 "/>
<path style=" stroke:none;fill-rule:evenodd;fill:rgb(0%,0%,0%);fill-opacity:1;" d="M 79.359375 48.183594 C 79.4375 47.867188 79.527344 47.507812 79.527344 47.207031 C 79.527344 46.996094 79.484375 46.808594 79.34375 46.695312 C 79.300781 46.65625 79.230469 46.632812 79.160156 46.632812 C 79.0625 46.632812 78.953125 46.679688 78.871094 46.769531 C 78.800781 46.847656 78.761719 46.941406 78.761719 47.023438 C 78.761719 47.109375 78.792969 47.183594 78.863281 47.238281 C 79.054688 47.394531 79.160156 47.621094 79.160156 47.882812 C 79.160156 47.96875 79.144531 48.050781 79.128906 48.136719 C 78.953125 48.820312 78.480469 49.503906 77.871094 49.503906 C 77.457031 49.503906 77.191406 49.25 77.097656 48.886719 C 77.207031 48.667969 77.289062 48.421875 77.34375 48.183594 C 77.359375 48.128906 77.367188 48.066406 77.367188 48.015625 C 77.367188 47.875 77.3125 47.769531 77.183594 47.769531 C 77.027344 47.769531 76.914062 47.953125 76.875 48.136719 C 76.804688 48.390625 76.777344 48.636719 76.785156 48.859375 C 76.523438 49.234375 76.144531 49.503906 75.738281 49.503906 C 75.261719 49.503906 75.035156 49.113281 75.035156 48.621094 C 75.035156 48.480469 75.050781 48.335938 75.089844 48.183594 C 75.203125 47.738281 75.472656 47.316406 75.777344 46.925781 C 75.800781 46.886719 75.816406 46.847656 75.816406 46.816406 C 75.816406 46.761719 75.785156 46.71875 75.738281 46.6875 C 75.714844 46.671875 75.691406 46.664062 75.664062 46.664062 C 75.609375 46.664062 75.546875 46.695312 75.511719 46.742188 C 75.1875 47.175781 74.980469 47.652344 74.855469 48.136719 C 74.789062 48.40625 74.75 48.667969 74.75 48.917969 C 74.75 49.578125 75.011719 50.09375 75.640625 50.09375 C 76.121094 50.09375 76.53125 49.777344 76.84375 49.332031 C 76.957031 49.785156 77.257812 50.09375 77.765625 50.09375 C 78.578125 50.09375 79.128906 49.121094 79.359375 48.183594 Z M 79.359375 48.183594 "/>
<g clip-path="url(#clip2)" clip-rule="nonzero">
<path style=" stroke:none;fill-rule:nonzero;fill:rgb(74.999619%,74.999619%,74.999619%);fill-opacity:1;" d="M 206.671875 28.503906 L 282.996094 28.503906 L 282.996094 104.828125 L 302.078125 104.828125 L 302.078125 9.421875 L 206.671875 9.421875 Z M 206.671875 28.503906 "/>
</g>
<g clip-path="url(#clip3)" clip-rule="nonzero">
<path style="fill:none;stroke-width:1;stroke-linecap:square;stroke-linejoin:miter;stroke:rgb(0%,0%,0%);stroke-opacity:1;stroke-miterlimit:3.25;" d="M 206.671875 28.503906 L 282.996094 28.503906 L 282.996094 104.828125 "/>
</g>
<g clip-path="url(#clip4)" clip-rule="nonzero">
<path style="fill:none;stroke-width:1;stroke-linecap:square;stroke-linejoin:miter;stroke:rgb(0%,0%,0%);stroke-opacity:1;stroke-miterlimit:3.25;" d="M 206.671875 9.421875 L 302.078125 9.421875 L 302.078125 104.828125 "/>
</g>
<path style=" stroke:none;fill-rule:nonzero;fill:rgb(100%,100%,86.999313%);fill-opacity:1;" d="M 259.765625 26.472656 L 259.769531 26.464844 L 259.898438 25.808594 L 260.054688 25.160156 L 260.242188 24.527344 L 260.453125 23.90625 L 260.695312 23.304688 L 260.957031 22.71875 L 261.25 22.148438 L 261.5625 21.597656 L 261.902344 21.066406 L 262.261719 20.558594 L 262.644531 20.070312 L 263.046875 19.601562 L 263.46875 19.160156 L 263.910156 18.742188 L 264.371094 18.351562 L 264.847656 17.984375 L 265.335938 17.644531 L 265.84375 17.328125 L 266.363281 17.042969 L 266.894531 16.789062 L 267.4375 16.5625 L 267.988281 16.363281 L 268.546875 16.195312 L 269.113281 16.058594 L 269.6875 15.953125 L 270.261719 15.878906 L 270.839844 15.839844 L 271.417969 15.828125 L 272 15.851562 L 272.574219 15.910156 L 273.148438 15.996094 L 273.71875 16.117188 L 274.285156 16.269531 L 274.839844 16.453125 L 275.386719 16.664062 L 275.925781 16.902344 L 276.449219 17.175781 L 276.964844 17.472656 L 277.464844 17.796875 L 277.949219 18.152344 L 278.414062 18.53125 L 278.867188 18.933594 L 279.300781 19.363281 L 279.714844 19.816406 L 280.105469 20.292969 L 280.480469 20.792969 L 280.828125 21.3125 L 281.15625 21.851562 L 281.460938 22.410156 L 281.738281 22.988281 L 281.992188 23.582031 L 282.21875 24.195312 L 282.417969 24.820312 L 282.589844 25.460938 L 282.738281 26.113281 L 282.851562 26.777344 L 282.941406 27.449219 L 282.960938 27.46875 L 282.988281 27.488281 L 283.011719 27.507812 L 283.09375 27.566406 L 283.125 27.585938 L 283.15625 27.609375 L 283.1875 27.628906 L 283.257812 27.675781 L 283.292969 27.695312 L 283.410156 27.765625 L 283.539062 27.835938 L 283.679688 27.90625 L 283.730469 27.925781 L 283.78125 27.949219 L 283.835938 27.972656 L 283.886719 27.996094 L 283.945312 28.019531 L 284 28.042969 L 284.058594 28.066406 L 284.117188 28.085938 L 284.242188 28.132812 L 284.304688 28.152344 L 284.371094 28.171875 L 284.4375 28.195312 L 284.503906 28.214844 L 284.644531 28.253906 L 284.71875 28.273438 L 284.792969 28.289062 L 284.867188 28.308594 L 284.941406 28.324219 L 285.019531 28.34375 L 285.101562 28.359375 L 285.179688 28.375 L 285.261719 28.386719 L 285.347656 28.402344 L 285.429688 28.414062 L 285.515625 28.425781 L 285.605469 28.4375 L 285.691406 28.449219 L 285.78125 28.460938 L 286.0625 28.484375 L 286.15625 28.488281 L 286.253906 28.492188 L 286.355469 28.496094 L 286.574219 28.503906 L 302.078125 28.503906 L 302.042969 27.828125 L 301.988281 27.15625 L 301.921875 26.496094 L 301.835938 25.84375 L 301.738281 25.203125 L 301.621094 24.574219 L 301.492188 23.953125 L 301.351562 23.34375 L 301.195312 22.746094 L 301.023438 22.160156 L 300.84375 21.585938 L 300.648438 21.027344 L 300.445312 20.480469 L 300.230469 19.945312 L 300.003906 19.425781 L 299.769531 18.921875 L 299.527344 18.429688 L 299.273438 17.953125 L 299.015625 17.492188 L 298.75 17.046875 L 298.480469 16.617188 L 298.203125 16.203125 L 297.921875 15.804688 L 297.636719 15.421875 L 297.347656 15.050781 L 297.058594 14.699219 L 296.769531 14.367188 L 296.476562 14.046875 L 296.1875 13.746094 L 295.90625 13.46875 L 272.972656 9.425781 L 255.515625 9.429688 L 255.246094 9.445312 L 254.972656 9.464844 L 254.691406 9.496094 L 254.40625 9.53125 L 254.113281 9.578125 L 253.816406 9.628906 L 253.515625 9.691406 L 253.210938 9.765625 L 252.902344 9.84375 L 252.589844 9.9375 L 252.273438 10.035156 L 251.953125 10.148438 L 251.632812 10.265625 L 251.308594 10.398438 L 250.980469 10.539062 L 250.652344 10.695312 L 250.320312 10.859375 L 249.988281 11.03125 L 249.65625 11.21875 L 249.324219 11.417969 L 248.988281 11.628906 L 248.65625 11.851562 L 248.324219 12.085938 L 247.992188 12.332031 L 247.664062 12.589844 L 247.375 12.824219 L 247.09375 13.074219 L 246.804688 13.335938 L 246.519531 13.613281 L 246.226562 13.90625 L 245.9375 14.214844 L 245.648438 14.542969 L 245.355469 14.886719 L 245.066406 15.246094 L 244.78125 15.625 L 244.496094 16.015625 L 244.21875 16.421875 L 243.945312 16.847656 L 243.675781 17.285156 L 243.414062 17.738281 L 243.160156 18.207031 L 242.914062 18.691406 L 242.675781 19.1875 L 242.445312 19.703125 L 242.222656 20.230469 L 242.015625 20.769531 L 241.816406 21.324219 L 241.628906 21.890625 L 241.453125 22.472656 L 241.289062 23.0625 L 241.253906 23.207031 Z M 259.765625 26.472656 "/>
<g clip-path="url(#clip5)" clip-rule="nonzero">
<path style="fill:none;stroke-width:1;stroke-linecap:square;stroke-linejoin:miter;stroke:rgb(0%,0%,0%);stroke-opacity:1;stroke-miterlimit:3.25;" d="M 259.765625 26.472656 L 259.769531 26.464844 L 259.898438 25.808594 L 260.054688 25.160156 L 260.242188 24.527344 L 260.453125 23.90625 L 260.695312 23.304688 L 260.957031 22.71875 L 261.25 22.148438 L 261.5625 21.597656 L 261.902344 21.066406 L 262.261719 20.558594 L 262.644531 20.070312 L 263.046875 19.601562 L 263.46875 19.160156 L 263.910156 18.742188 L 264.371094 18.351562 L 264.847656 17.984375 L 265.335938 17.644531 L 265.84375 17.328125 L 266.363281 17.042969 L 266.894531 16.789062 L 267.4375 16.5625 L 267.988281 16.363281 L 268.546875 16.195312 L 269.113281 16.058594 L 269.6875 15.953125 L 270.261719 15.878906 L 270.839844 15.839844 L 271.417969 15.828125 L 272 15.851562 L 272.574219 15.910156 L 273.148438 15.996094 L 273.71875 16.117188 L 274.285156 16.269531 L 274.839844 16.453125 L 275.386719 16.664062 L 275.925781 16.902344 L 276.449219 17.175781 L 276.964844 17.472656 L 277.464844 17.796875 L 277.949219 18.152344 L 278.414062 18.53125 L 278.867188 18.933594 L 279.300781 19.363281 L 279.714844 19.816406 L 280.105469 20.292969 L 280.480469 20.792969 L 280.828125 21.3125 L 281.15625 21.851562 L 281.460938 22.410156 L 281.738281 22.988281 L 281.992188 23.582031 L 282.21875 24.195312 L 282.417969 24.820312 L 282.589844 25.460938 L 282.738281 26.113281 L 282.851562 26.777344 L 282.941406 27.449219 L 282.960938 27.46875 L 282.988281 27.488281 L 283.011719 27.507812 L 283.09375 27.566406 L 283.125 27.585938 L 283.15625 27.609375 L 283.1875 27.628906 L 283.257812 27.675781 L 283.292969 27.695312 L 283.410156 27.765625 L 283.539062 27.835938 L 283.679688 27.90625 L 283.730469 27.925781 L 283.78125 27.949219 L 283.835938 27.972656 L 283.886719 27.996094 L 283.945312 28.019531 L 284 28.042969 L 284.058594 28.066406 L 284.117188 28.085938 L 284.242188 28.132812 L 284.304688 28.152344 L 284.371094 28.171875 L 284.4375 28.195312 L 284.503906 28.214844 L 284.644531 28.253906 L 284.71875 28.273438 L 284.792969 28.289062 L 284.867188 28.308594 L 284.941406 28.324219 L 285.019531 28.34375 L 285.101562 28.359375 L 285.179688 28.375 L 285.261719 28.386719 L 285.347656 28.402344 L 285.429688 28.414062 L 285.515625 28.425781 L 285.605469 28.4375 L 285.691406 28.449219 L 285.78125 28.460938 L 286.0625 28.484375 L 286.15625 28.488281 L 286.253906 28.492188 L 286.355469 28.496094 L 286.574219 28.503906 L 302.078125 28.503906 L 302.042969 27.828125 L 301.988281 27.15625 L 301.921875 26.496094 L 301.835938 25.84375 L 301.738281 25.203125 L 301.621094 24.574219 L 301.492188 23.953125 L 301.351562 23.34375 L 301.195312 22.746094 L 301.023438 22.160156 L 300.84375 21.585938 L 300.648438 21.027344 L 300.445312 20.480469 L 300.230469 19.945312 L 300.003906 19.425781 L 299.769531 18.921875 L 299.527344 18.429688 L 299.273438 17.953125 L 299.015625 17.492188 L 298.75 17.046875 L 298.480469 16.617188 L 298.203125 16.203125 L 297.921875 15.804688 L 297.636719 15.421875 L 297.347656 15.050781 L 297.058594 14.699219 L 296.769531 14.367188 L 296.476562 14.046875 L 296.1875 13.746094 L 295.90625 13.46875 L 272.972656 9.425781 L 255.515625 9.429688 L 255.246094 9.445312 L 254.972656 9.464844 L 254.691406 9.496094 L 254.40625 9.53125 L 254.113281 9.578125 L 253.816406 9.628906 L 253.515625 9.691406 L 253.210938 9.765625 L 252.902344 9.84375 L 252.589844 9.9375 L 252.273438 10.035156 L 251.953125 10.148438 L 251.632812 10.265625 L 251.308594 10.398438 L 250.980469 10.539062 L 250.652344 10.695312 L 250.320312 10.859375 L 249.988281 11.03125 L 249.65625 11.21875 L 249.324219 11.417969 L 248.988281 11.628906 L 248.65625 11.851562 L 248.324219 12.085938 L 247.992188 12.332031 L 247.664062 12.589844 L 247.375 12.824219 L 247.09375 13.074219 L 246.804688 13.335938 L 246.519531 13.613281 L 246.226562 13.90625 L 245.9375 14.214844 L 245.648438 14.542969 L 245.355469 14.886719 L 245.066406 15.246094 L 244.78125 15.625 L 244.496094 16.015625 L 244.21875 16.421875 L 243.945312 16.847656 L 243.675781 17.285156 L 243.414062 17.738281 L 243.160156 18.207031 L 242.914062 18.691406 L 242.675781 19.1875 L 242.445312 19.703125 L 242.222656 20.230469 L 242.015625 20.769531 L 241.816406 21.324219 L 241.628906 21.890625 L 241.453125 22.472656 L 241.289062 23.0625 L 241.253906 23.207031 Z M 259.765625 26.472656 "/>
</g>
<g clip-path="url(#clip6)" clip-rule="nonzero">
<path style=" stroke:none;fill-rule:nonzero;fill:rgb(74.999619%,74.999619%,74.999619%);fill-opacity:1;" d="M 372.332031 104.828125 L 372.332031 28.503906 L 296.011719 28.503906 L 296.011719 9.421875 L 391.414062 9.421875 L 391.414062 104.828125 Z M 372.332031 104.828125 "/>
</g>
<g clip-path="url(#clip7)" clip-rule="nonzero">
<path style="fill:none;stroke-width:1;stroke-linecap:square;stroke-linejoin:miter;stroke:rgb(0%,0%,0%);stroke-opacity:1;stroke-miterlimit:3.25;" d="M 372.332031 104.828125 L 372.332031 28.503906 L 296.011719 28.503906 "/>
</g>
<g clip-path="url(#clip8)" clip-rule="nonzero">
<path style="fill:none;stroke-width:1;stroke-linecap:square;stroke-linejoin:miter;stroke:rgb(0%,0%,0%);stroke-opacity:1;stroke-miterlimit:3.25;" d="M 391.414062 104.828125 L 391.414062 9.421875 L 296.011719 9.421875 "/>
</g>
<path style=" stroke:none;fill-rule:nonzero;fill:rgb(100%,100%,86.999313%);fill-opacity:1;" d="M 374.363281 51.734375 L 374.371094 51.730469 L 375.03125 51.601562 L 375.675781 51.445312 L 376.308594 51.257812 L 376.929688 51.046875 L 377.53125 50.804688 L 378.121094 50.539062 L 378.6875 50.25 L 379.238281 49.9375 L 379.769531 49.597656 L 380.28125 49.238281 L 380.769531 48.855469 L 381.234375 48.453125 L 381.675781 48.03125 L 382.09375 47.589844 L 382.488281 47.128906 L 382.851562 46.652344 L 383.195312 46.160156 L 383.507812 45.65625 L 383.792969 45.136719 L 384.046875 44.605469 L 384.277344 44.0625 L 384.472656 43.511719 L 384.640625 42.953125 L 384.777344 42.382812 L 384.882812 41.8125 L 384.957031 41.238281 L 384.996094 40.660156 L 385.007812 40.078125 L 384.984375 39.5 L 384.925781 38.925781 L 384.839844 38.351562 L 384.71875 37.78125 L 384.566406 37.214844 L 384.386719 36.660156 L 384.171875 36.113281 L 383.933594 35.574219 L 383.664062 35.050781 L 383.363281 34.535156 L 383.039062 34.035156 L 382.6875 33.550781 L 382.308594 33.082031 L 381.902344 32.632812 L 381.472656 32.199219 L 381.019531 31.785156 L 380.542969 31.394531 L 380.042969 31.019531 L 379.523438 30.671875 L 378.984375 30.34375 L 378.425781 30.039062 L 377.847656 29.761719 L 377.253906 29.507812 L 376.640625 29.28125 L 376.015625 29.082031 L 375.375 28.90625 L 374.722656 28.761719 L 374.058594 28.648438 L 373.386719 28.558594 L 373.328125 28.488281 L 373.269531 28.40625 L 373.25 28.375 L 373.226562 28.34375 L 373.207031 28.3125 L 373.160156 28.242188 L 373.140625 28.207031 L 373.070312 28.089844 L 373.023438 28.003906 L 373.003906 27.960938 L 372.933594 27.820312 L 372.886719 27.71875 L 372.792969 27.5 L 372.769531 27.441406 L 372.75 27.382812 L 372.726562 27.320312 L 372.707031 27.257812 L 372.683594 27.195312 L 372.664062 27.128906 L 372.640625 27.0625 L 372.621094 26.996094 L 372.582031 26.855469 L 372.5625 26.78125 L 372.546875 26.707031 L 372.527344 26.632812 L 372.511719 26.558594 L 372.492188 26.480469 L 372.476562 26.398438 L 372.460938 26.320312 L 372.449219 26.238281 L 372.433594 26.152344 L 372.421875 26.070312 L 372.410156 25.984375 L 372.386719 25.804688 L 372.378906 25.714844 L 372.367188 25.625 L 372.351562 25.4375 L 372.347656 25.34375 L 372.34375 25.246094 L 372.339844 25.144531 L 372.332031 24.925781 L 372.332031 9.421875 L 373.011719 9.457031 L 373.679688 9.511719 L 374.339844 9.578125 L 374.992188 9.664062 L 375.632812 9.761719 L 376.265625 9.875 L 376.882812 10.003906 L 377.492188 10.148438 L 378.089844 10.304688 L 378.675781 10.476562 L 379.25 10.65625 L 379.8125 10.851562 L 380.359375 11.054688 L 380.890625 11.269531 L 381.410156 11.496094 L 381.914062 11.730469 L 382.40625 11.972656 L 382.882812 12.226562 L 383.34375 12.484375 L 383.789062 12.75 L 384.21875 13.019531 L 384.632812 13.296875 L 385.03125 13.578125 L 385.417969 13.863281 L 385.785156 14.152344 L 386.136719 14.441406 L 386.46875 14.730469 L 386.789062 15.023438 L 387.089844 15.3125 L 387.367188 15.59375 L 391.410156 38.527344 L 391.40625 55.984375 L 391.390625 56.253906 L 391.371094 56.527344 L 391.34375 56.808594 L 391.304688 57.09375 L 391.257812 57.386719 L 391.207031 57.683594 L 391.144531 57.980469 L 391.070312 58.285156 L 390.992188 58.597656 L 390.898438 58.910156 L 390.800781 59.226562 L 390.691406 59.542969 L 390.570312 59.867188 L 390.4375 60.191406 L 390.296875 60.519531 L 390.144531 60.847656 L 389.980469 61.179688 L 389.804688 61.511719 L 389.617188 61.84375 L 389.417969 62.175781 L 389.207031 62.511719 L 388.984375 62.84375 L 388.753906 63.175781 L 388.507812 63.507812 L 388.246094 63.835938 L 388.011719 64.125 L 387.765625 64.40625 L 387.503906 64.691406 L 387.222656 64.980469 L 386.929688 65.269531 L 386.621094 65.5625 L 386.292969 65.851562 L 385.949219 66.144531 L 385.589844 66.433594 L 385.214844 66.71875 L 384.820312 67.003906 L 384.414062 67.28125 L 383.992188 67.554688 L 383.550781 67.824219 L 383.097656 68.085938 L 382.628906 68.339844 L 382.144531 68.585938 L 381.648438 68.824219 L 381.132812 69.054688 L 380.609375 69.273438 L 380.066406 69.484375 L 379.511719 69.683594 L 378.945312 69.871094 L 378.367188 70.046875 L 377.773438 70.210938 L 377.628906 70.246094 Z M 374.363281 51.734375 "/>
<g clip-path="url(#clip9)" clip-rule="nonzero">
<path style="fill:none;stroke-width:1;stroke-linecap:square;stroke-linejoin:miter;stroke:rgb(0%,0%,0%);stroke-opacity:1;stroke-miterlimit:3.25;" d="M 374.363281 51.734375 L 374.371094 51.730469 L 375.03125 51.601562 L 375.675781 51.445312 L 376.308594 51.257812 L 376.929688 51.046875 L 377.53125 50.804688 L 378.121094 50.539062 L 378.6875 50.25 L 379.238281 49.9375 L 379.769531 49.597656 L 380.28125 49.238281 L 380.769531 48.855469 L 381.234375 48.453125 L 381.675781 48.03125 L 382.09375 47.589844 L 382.488281 47.128906 L 382.851562 46.652344 L 383.195312 46.160156 L 383.507812 45.65625 L 383.792969 45.136719 L 384.046875 44.605469 L 384.277344 44.0625 L 384.472656 43.511719 L 384.640625 42.953125 L 384.777344 42.382812 L 384.882812 41.8125 L 384.957031 41.238281 L 384.996094 40.660156 L 385.007812 40.078125 L 384.984375 39.5 L 384.925781 38.925781 L 384.839844 38.351562 L 384.71875 37.78125 L 384.566406 37.214844 L 384.386719 36.660156 L 384.171875 36.113281 L 383.933594 35.574219 L 383.664062 35.050781 L 383.363281 34.535156 L 383.039062 34.035156 L 382.6875 33.550781 L 382.308594 33.082031 L 381.902344 32.632812 L 381.472656 32.199219 L 381.019531 31.785156 L 380.542969 31.394531 L 380.042969 31.019531 L 379.523438 30.671875 L 378.984375 30.34375 L 378.425781 30.039062 L 377.847656 29.761719 L 377.253906 29.507812 L 376.640625 29.28125 L 376.015625 29.082031 L 375.375 28.90625 L 374.722656 28.761719 L 374.058594 28.648438 L 373.386719 28.558594 L 373.328125 28.488281 L 373.269531 28.40625 L 373.25 28.375 L 373.226562 28.34375 L 373.207031 28.3125 L 373.160156 28.242188 L 373.140625 28.207031 L 373.070312 28.089844 L 373.023438 28.003906 L 373.003906 27.960938 L 372.933594 27.820312 L 372.886719 27.71875 L 372.792969 27.5 L 372.769531 27.441406 L 372.75 27.382812 L 372.726562 27.320312 L 372.707031 27.257812 L 372.683594 27.195312 L 372.664062 27.128906 L 372.640625 27.0625 L 372.621094 26.996094 L 372.582031 26.855469 L 372.5625 26.78125 L 372.546875 26.707031 L 372.527344 26.632812 L 372.511719 26.558594 L 372.492188 26.480469 L 372.476562 26.398438 L 372.460938 26.320312 L 372.449219 26.238281 L 372.433594 26.152344 L 372.421875 26.070312 L 372.410156 25.984375 L 372.386719 25.804688 L 372.378906 25.714844 L 372.367188 25.625 L 372.351562 25.4375 L 372.347656 25.34375 L 372.34375 25.246094 L 372.339844 25.144531 L 372.332031 24.925781 L 372.332031 9.421875 L 373.011719 9.457031 L 373.679688 9.511719 L 374.339844 9.578125 L 374.992188 9.664062 L 375.632812 9.761719 L 376.265625 9.875 L 376.882812 10.003906 L 377.492188 10.148438 L 378.089844 10.304688 L 378.675781 10.476562 L 379.25 10.65625 L 379.8125 10.851562 L 380.359375 11.054688 L 380.890625 11.269531 L 381.410156 11.496094 L 381.914062 11.730469 L 382.40625 11.972656 L 382.882812 12.226562 L 383.34375 12.484375 L 383.789062 12.75 L 384.21875 13.019531 L 384.632812 13.296875 L 385.03125 13.578125 L 385.417969 13.863281 L 385.785156 14.152344 L 386.136719 14.441406 L 386.46875 14.730469 L 386.789062 15.023438 L 387.089844 15.3125 L 387.367188 15.59375 L 391.410156 38.527344 L 391.40625 55.984375 L 391.390625 56.253906 L 391.371094 56.527344 L 391.34375 56.808594 L 391.304688 57.09375 L 391.257812 57.386719 L 391.207031 57.683594 L 391.144531 57.980469 L 391.070312 58.285156 L 390.992188 58.597656 L 390.898438 58.910156 L 390.800781 59.226562 L 390.691406 59.542969 L 390.570312 59.867188 L 390.4375 60.191406 L 390.296875 60.519531 L 390.144531 60.847656 L 389.980469 61.179688 L 389.804688 61.511719 L 389.617188 61.84375 L 389.417969 62.175781 L 389.207031 62.511719 L 388.984375 62.84375 L 388.753906 63.175781 L 388.507812 63.507812 L 388.246094 63.835938 L 388.011719 64.125 L 387.765625 64.40625 L 387.503906 64.691406 L 387.222656 64.980469 L 386.929688 65.269531 L 386.621094 65.5625 L 386.292969 65.851562 L 385.949219 66.144531 L 385.589844 66.433594 L 385.214844 66.71875 L 384.820312 67.003906 L 384.414062 67.28125 L 383.992188 67.554688 L 383.550781 67.824219 L 383.097656 68.085938 L 382.628906 68.339844 L 382.144531 68.585938 L 381.648438 68.824219 L 381.132812 69.054688 L 380.609375 69.273438 L 380.066406 69.484375 L 379.511719 69.683594 L 378.945312 69.871094 L 378.367188 70.046875 L 377.773438 70.210938 L 377.628906 70.246094 Z M 374.363281 51.734375 "/>
</g>
</g>
</svg>
