<?xml version="1.0" encoding="UTF-8"?>
<svg xmlns="http://www.w3.org/2000/svg" xmlns:xlink="http://www.w3.org/1999/xlink" width="340pt" height="131pt" viewBox="0 0 340 131" version="1.1">
<defs>
<clipPath id="clip1">
  <path d="M 161 115 L 169.921875 115 L 169.921875 123 L 161 123 Z M 161 115 "/>
</clipPath>
</defs>
<g id="surface22">
<path style="fill-rule:nonzero;fill:rgb(100%,100%,86.999313%);fill-opacity:1;stroke-width:1;stroke-linecap:square;stroke-linejoin:miter;stroke:rgb(0%,0%,0%);stroke-opacity:1;stroke-miterlimit:3.25;" d="M 113.472656 102.542969 L 113.476562 102.511719 L 114.117188 99.273438 L 114.890625 96.09375 L 115.804688 92.980469 L 116.851562 89.9375 L 118.027344 86.972656 L 119.332031 84.089844 L 120.757812 81.292969 L 122.300781 78.585938 L 123.960938 75.976562 L 125.734375 73.472656 L 127.613281 71.070312 L 129.59375 68.785156 L 131.667969 66.609375 L 133.839844 64.554688 L 136.097656 62.625 L 138.433594 60.824219 L 140.851562 59.152344 L 143.335938 57.613281 L 145.886719 56.210938 L 148.496094 54.953125 L 151.160156 53.835938 L 153.875 52.863281 L 156.625 52.039062 L 159.414062 51.363281 L 162.226562 50.84375 L 165.054688 50.484375 L 167.894531 50.28125 L 170.742188 50.242188 L 173.585938 50.355469 L 176.421875 50.632812 L 179.242188 51.066406 L 182.042969 51.65625 L 184.816406 52.402344 L 187.550781 53.296875 L 190.242188 54.335938 L 192.882812 55.519531 L 195.464844 56.847656 L 197.988281 58.3125 L 200.441406 59.914062 L 202.820312 61.644531 L 205.121094 63.507812 L 207.339844 65.496094 L 209.464844 67.605469 L 211.5 69.835938 L 213.433594 72.175781 L 215.261719 74.625 L 216.980469 77.179688 L 218.589844 79.832031 L 220.078125 82.582031 L 221.449219 85.421875 L 222.695312 88.34375 L 223.808594 91.34375 L 224.792969 94.421875 L 225.644531 97.566406 L 226.355469 100.773438 L 226.929688 104.035156 L 227.355469 107.351562 L 227.46875 107.441406 L 227.585938 107.53125 L 227.710938 107.625 L 227.839844 107.722656 L 227.976562 107.820312 L 228.117188 107.921875 L 228.261719 108.023438 L 228.417969 108.128906 L 228.578125 108.234375 L 228.742188 108.34375 L 228.914062 108.449219 L 229.09375 108.558594 L 229.277344 108.671875 L 229.472656 108.78125 L 229.667969 108.894531 L 229.875 109.007812 L 230.085938 109.121094 L 230.304688 109.238281 L 230.527344 109.351562 L 230.757812 109.464844 L 230.996094 109.582031 L 231.242188 109.695312 L 231.492188 109.808594 L 231.75 109.921875 L 232.015625 110.035156 L 232.289062 110.148438 L 232.566406 110.257812 L 232.855469 110.371094 L 233.148438 110.480469 L 233.445312 110.585938 L 233.753906 110.695312 L 234.066406 110.800781 L 234.386719 110.902344 L 234.714844 111.003906 L 235.046875 111.105469 L 235.390625 111.203125 L 235.738281 111.296875 L 236.09375 111.390625 L 236.453125 111.480469 L 236.824219 111.566406 L 237.199219 111.652344 L 237.582031 111.734375 L 237.972656 111.8125 L 238.367188 111.886719 L 238.769531 111.957031 L 239.179688 112.027344 L 239.597656 112.089844 L 240.019531 112.152344 L 240.449219 112.207031 L 240.886719 112.261719 L 241.328125 112.308594 L 241.777344 112.351562 L 242.234375 112.390625 L 242.695312 112.425781 L 243.164062 112.453125 L 243.640625 112.476562 L 244.144531 112.5 L 245.207031 112.523438 L 245.742188 112.527344 L 321.402344 112.527344 L 321.230469 109.199219 L 320.976562 105.910156 L 320.640625 102.664062 L 320.226562 99.460938 L 319.738281 96.308594 L 319.171875 93.207031 L 318.539062 90.15625 L 317.835938 87.160156 L 317.066406 84.222656 L 316.234375 81.347656 L 315.339844 78.527344 L 314.390625 75.777344 L 313.382812 73.089844 L 312.324219 70.46875 L 311.21875 67.914062 L 310.0625 65.433594 L 308.867188 63.019531 L 307.632812 60.683594 L 306.363281 58.417969 L 305.058594 56.226562 L 303.726562 54.113281 L 302.367188 52.074219 L 300.984375 50.113281 L 299.585938 48.226562 L 298.167969 46.417969 L 296.742188 44.691406 L 295.3125 43.046875 L 293.882812 41.484375 L 292.457031 40.003906 L 291.078125 38.644531 L 178.371094 18.769531 L 92.582031 18.789062 L 91.257812 18.859375 L 89.90625 18.964844 L 88.527344 19.105469 L 87.121094 19.289062 L 85.691406 19.511719 L 84.238281 19.773438 L 82.761719 20.082031 L 81.261719 20.433594 L 79.742188 20.832031 L 78.207031 21.277344 L 76.652344 21.769531 L 75.082031 22.3125 L 73.5 22.90625 L 71.902344 23.550781 L 70.292969 24.246094 L 68.675781 25 L 67.050781 25.804688 L 65.421875 26.667969 L 63.785156 27.585938 L 62.148438 28.558594 L 60.507812 29.589844 L 58.875 30.683594 L 57.242188 31.832031 L 55.613281 33.042969 L 53.992188 34.3125 L 52.578125 35.476562 L 51.1875 36.6875 L 49.78125 37.976562 L 48.363281 39.339844 L 46.9375 40.785156 L 45.507812 42.308594 L 44.078125 43.917969 L 42.652344 45.605469 L 41.230469 47.375 L 39.820312 49.226562 L 38.429688 51.152344 L 37.0625 53.152344 L 35.714844 55.234375 L 34.398438 57.390625 L 33.109375 59.617188 L 31.859375 61.921875 L 30.644531 64.300781 L 29.472656 66.75 L 28.34375 69.269531 L 27.261719 71.859375 L 26.230469 74.515625 L 25.253906 77.242188 L 24.332031 80.027344 L 23.46875 82.878906 L 22.671875 85.789062 L 22.496094 86.503906 Z M 113.472656 102.542969 "/>
<path style=" stroke:none;fill-rule:evenodd;fill:rgb(0%,0%,0%);fill-opacity:1;" d="M 85.628906 65.859375 C 85.628906 65.398438 85.515625 64.992188 85.101562 64.585938 C 84.867188 64.355469 84.671875 64.296875 83.65625 64.035156 C 82.921875 63.835938 82.820312 63.804688 82.625 63.628906 C 82.4375 63.441406 82.292969 63.175781 82.292969 62.800781 C 82.292969 61.878906 83.230469 60.929688 84.273438 60.929688 C 85.351562 60.929688 85.859375 61.589844 85.859375 62.636719 C 85.859375 62.921875 85.804688 63.21875 85.804688 63.265625 C 85.804688 63.363281 85.890625 63.363281 85.925781 63.363281 C 86.023438 63.363281 86.035156 63.332031 86.078125 63.152344 L 86.675781 60.734375 C 86.675781 60.632812 86.574219 60.632812 86.574219 60.632812 C 86.53125 60.632812 86.519531 60.644531 86.386719 60.808594 L 85.859375 61.46875 C 85.496094 60.753906 84.769531 60.632812 84.308594 60.632812 C 82.910156 60.632812 81.644531 61.910156 81.644531 63.152344 C 81.644531 63.980469 82.136719 64.464844 82.679688 64.652344 C 82.800781 64.695312 83.449219 64.871094 83.78125 64.949219 C 84.339844 65.101562 84.484375 65.148438 84.714844 65.390625 C 84.757812 65.445312 84.976562 65.695312 84.976562 66.214844 C 84.976562 67.238281 84.03125 68.292969 82.929688 68.292969 C 82.027344 68.292969 81.027344 67.910156 81.027344 66.675781 C 81.027344 66.46875 81.070312 66.203125 81.105469 66.09375 C 81.105469 66.058594 81.113281 65.984375 81.113281 65.984375 C 81.113281 65.9375 81.09375 65.882812 81.003906 65.882812 C 80.90625 65.882812 80.894531 65.90625 80.851562 66.09375 L 80.289062 68.347656 L 80.246094 68.515625 C 80.246094 68.613281 80.355469 68.613281 80.355469 68.613281 C 80.402344 68.613281 80.410156 68.601562 80.542969 68.4375 L 81.050781 67.777344 C 81.3125 68.171875 81.886719 68.613281 82.910156 68.613281 C 84.328125 68.613281 85.628906 67.238281 85.628906 65.859375 Z M 85.628906 65.859375 "/>
<path style=" stroke:none;fill-rule:evenodd;fill:rgb(0%,0%,0%);fill-opacity:1;" d="M 91 68.15625 C 91.078125 67.84375 91.171875 67.484375 91.171875 67.183594 C 91.171875 66.972656 91.125 66.789062 90.988281 66.671875 C 90.941406 66.632812 90.871094 66.609375 90.804688 66.609375 C 90.703125 66.609375 90.597656 66.65625 90.511719 66.75 C 90.445312 66.824219 90.40625 66.917969 90.40625 67.003906 C 90.40625 67.085938 90.4375 67.160156 90.507812 67.214844 C 90.695312 67.367188 90.804688 67.597656 90.804688 67.855469 C 90.804688 67.941406 90.789062 68.027344 90.773438 68.109375 C 90.597656 68.789062 90.121094 69.46875 89.519531 69.46875 C 89.105469 69.46875 88.839844 69.21875 88.746094 68.859375 C 88.855469 68.636719 88.9375 68.394531 88.992188 68.15625 C 89.007812 68.101562 89.015625 68.042969 89.015625 67.988281 C 89.015625 67.851562 88.960938 67.742188 88.832031 67.742188 C 88.679688 67.742188 88.5625 67.925781 88.527344 68.109375 C 88.457031 68.363281 88.425781 68.605469 88.433594 68.828125 C 88.175781 69.203125 87.800781 69.46875 87.394531 69.46875 C 86.921875 69.46875 86.691406 69.082031 86.691406 68.589844 C 86.691406 68.453125 86.707031 68.308594 86.746094 68.15625 C 86.859375 67.714844 87.128906 67.292969 87.433594 66.902344 C 87.457031 66.863281 87.472656 66.824219 87.472656 66.796875 C 87.472656 66.742188 87.441406 66.695312 87.394531 66.664062 C 87.371094 66.648438 87.347656 66.640625 87.316406 66.640625 C 87.265625 66.640625 87.203125 66.671875 87.164062 66.71875 C 86.84375 67.15625 86.636719 67.628906 86.515625 68.109375 C 86.449219 68.378906 86.410156 68.636719 86.410156 68.890625 C 86.410156 69.546875 86.667969 70.058594 87.296875 70.058594 C 87.777344 70.058594 88.183594 69.746094 88.496094 69.300781 C 88.609375 69.753906 88.90625 70.058594 89.410156 70.058594 C 90.222656 70.058594 90.773438 69.089844 91 68.15625 Z M 91 68.15625 "/>
<path style=" stroke:none;fill-rule:evenodd;fill:rgb(0%,0%,0%);fill-opacity:1;" d="M 179.5 19 C 179.5 18.601562 179.34375 18.21875 179.0625 17.9375 C 178.78125 17.65625 178.398438 17.5 178 17.5 C 177.601562 17.5 177.21875 17.65625 176.9375 17.9375 C 176.65625 18.21875 176.5 18.601562 176.5 19 C 176.5 19.398438 176.65625 19.78125 176.9375 20.0625 C 177.21875 20.34375 177.601562 20.5 178 20.5 C 178.398438 20.5 178.78125 20.34375 179.0625 20.0625 C 179.34375 19.78125 179.5 19.398438 179.5 19 Z M 179.5 19 "/>
<path style=" stroke:none;fill-rule:evenodd;fill:rgb(0%,0%,0%);fill-opacity:1;" d="M 184.300781 10.96875 C 184.300781 9.921875 183.621094 9.140625 182.617188 9.140625 C 181.164062 9.140625 179.734375 10.726562 179.734375 12.277344 C 179.734375 13.324219 180.414062 14.105469 181.417969 14.105469 C 182.882812 14.105469 184.300781 12.519531 184.300781 10.96875 Z M 183.5625 10.574219 C 183.5625 11.015625 183.332031 12.191406 182.914062 12.863281 C 182.464844 13.597656 181.859375 13.886719 181.429688 13.886719 C 180.878906 13.886719 180.472656 13.445312 180.472656 12.675781 C 180.472656 12.167969 180.734375 11.046875 181.042969 10.496094 C 181.539062 9.648438 182.15625 9.363281 182.605469 9.363281 C 183.144531 9.363281 183.5625 9.804688 183.5625 10.574219 Z M 183.5625 10.574219 "/>
<path style=" stroke:none;fill-rule:evenodd;fill:rgb(0%,0%,0%);fill-opacity:1;" d="M 189.199219 13.769531 C 189.273438 13.457031 189.367188 13.097656 189.367188 12.800781 C 189.367188 12.585938 189.320312 12.402344 189.183594 12.285156 C 189.136719 12.25 189.070312 12.226562 189 12.226562 C 188.902344 12.226562 188.792969 12.273438 188.710938 12.363281 C 188.640625 12.441406 188.601562 12.53125 188.601562 12.617188 C 188.601562 12.699219 188.632812 12.777344 188.703125 12.832031 C 188.894531 12.980469 189 13.210938 189 13.472656 C 189 13.554688 188.984375 13.640625 188.96875 13.722656 C 188.792969 14.402344 188.320312 15.085938 187.71875 15.085938 C 187.304688 15.085938 187.035156 14.832031 186.945312 14.472656 C 187.050781 14.25 187.136719 14.007812 187.1875 13.769531 C 187.203125 13.714844 187.210938 13.65625 187.210938 13.601562 C 187.210938 13.464844 187.160156 13.355469 187.03125 13.355469 C 186.875 13.355469 186.761719 13.539062 186.722656 13.722656 C 186.65625 13.976562 186.625 14.222656 186.632812 14.441406 C 186.371094 14.816406 185.996094 15.085938 185.59375 15.085938 C 185.117188 15.085938 184.886719 14.695312 184.886719 14.207031 C 184.886719 14.066406 184.902344 13.921875 184.941406 13.769531 C 185.058594 13.328125 185.324219 12.90625 185.632812 12.515625 C 185.652344 12.480469 185.667969 12.441406 185.667969 12.410156 C 185.667969 12.355469 185.636719 12.308594 185.59375 12.28125 C 185.570312 12.265625 185.546875 12.257812 185.515625 12.257812 C 185.460938 12.257812 185.402344 12.285156 185.363281 12.332031 C 185.042969 12.769531 184.835938 13.242188 184.714844 13.722656 C 184.644531 13.992188 184.605469 14.25 184.605469 14.503906 C 184.605469 15.160156 184.867188 15.671875 185.492188 15.671875 C 185.976562 15.671875 186.378906 15.359375 186.691406 14.917969 C 186.808594 15.367188 187.105469 15.671875 187.609375 15.671875 C 188.421875 15.671875 188.96875 14.703125 189.199219 13.769531 Z M 189.199219 13.769531 "/>
<path style=" stroke:none;fill-rule:evenodd;fill:rgb(0%,0%,0%);fill-opacity:1;" d="M 171.5 113 C 171.5 112.601562 171.34375 112.21875 171.0625 111.9375 C 170.78125 111.65625 170.398438 111.5 170 111.5 C 169.601562 111.5 169.21875 111.65625 168.9375 111.9375 C 168.65625 112.21875 168.5 112.601562 168.5 113 C 168.5 113.398438 168.65625 113.78125 168.9375 114.0625 C 169.21875 114.34375 169.601562 114.5 170 114.5 C 170.398438 114.5 170.78125 114.34375 171.0625 114.0625 C 171.34375 113.78125 171.5 113.398438 171.5 113 Z M 171.5 113 "/>
<g clip-path="url(#clip1)" clip-rule="nonzero">
<path style=" stroke:none;fill-rule:evenodd;fill:rgb(0%,0%,0%);fill-opacity:1;" d="M 169.070312 117.949219 C 169.070312 116.132812 167.878906 115.019531 166.339844 115.019531 C 163.984375 115.019531 161.605469 117.550781 161.605469 120.09375 C 161.605469 121.820312 162.75 122.996094 164.347656 122.996094 C 166.65625 122.996094 169.070312 120.589844 169.070312 117.949219 Z M 168.1875 117.550781 C 168.1875 118.53125 167.769531 120.058594 167.03125 121.105469 C 166.230469 122.226562 165.226562 122.746094 164.414062 122.746094 C 163.511719 122.746094 162.554688 122.082031 162.554688 120.367188 C 162.554688 119.367188 162.917969 117.726562 163.820312 116.625 C 164.621094 115.65625 165.546875 115.261719 166.285156 115.261719 C 167.253906 115.261719 168.1875 115.964844 168.1875 117.550781 Z M 168.1875 117.550781 "/>
</g>
<path style=" stroke:none;fill-rule:evenodd;fill:rgb(0%,0%,0%);fill-opacity:1;" d="M 322.5 44 C 322.5 43.601562 322.34375 43.21875 322.0625 42.9375 C 321.78125 42.65625 321.398438 42.5 321 42.5 C 320.601562 42.5 320.21875 42.65625 319.9375 42.9375 C 319.65625 43.21875 319.5 43.601562 319.5 44 C 319.5 44.398438 319.65625 44.78125 319.9375 45.0625 C 320.21875 45.34375 320.601562 45.5 321 45.5 C 321.398438 45.5 321.78125 45.34375 322.0625 45.0625 C 322.34375 44.78125 322.5 44.398438 322.5 44 Z M 322.5 44 "/>
<path style=" stroke:none;fill-rule:evenodd;fill:rgb(0%,0%,0%);fill-opacity:1;" d="M 327.085938 35.039062 C 327.085938 34.6875 326.746094 34.378906 326.199219 34.378906 C 325.757812 34.378906 325.25 34.578125 324.789062 35.25 C 324.710938 34.664062 324.273438 34.378906 323.832031 34.378906 C 323.402344 34.378906 323.183594 34.710938 323.050781 34.953125 C 322.863281 35.347656 322.699219 36.007812 322.699219 36.0625 C 322.699219 36.105469 322.742188 36.160156 322.820312 36.160156 C 322.910156 36.160156 322.917969 36.152344 322.984375 35.898438 C 323.152344 35.238281 323.359375 34.601562 323.800781 34.601562 C 324.0625 34.601562 324.140625 34.789062 324.140625 35.105469 C 324.140625 35.347656 324.03125 35.777344 323.953125 36.117188 L 323.644531 37.304688 L 323.425781 38.207031 C 323.347656 38.492188 323.226562 39.011719 323.226562 39.066406 C 323.226562 39.21875 323.347656 39.339844 323.511719 39.339844 C 323.636719 39.339844 323.84375 39.261719 323.910156 39.042969 C 323.941406 38.957031 324.347656 37.296875 324.414062 37.042969 C 324.46875 36.800781 324.535156 36.570312 324.589844 36.328125 L 324.710938 35.855469 C 324.746094 35.753906 325.042969 35.21875 325.316406 34.976562 C 325.449219 34.851562 325.734375 34.601562 326.1875 34.601562 C 326.363281 34.601562 326.539062 34.632812 326.679688 34.734375 C 326.339844 34.796875 326.164062 35.039062 326.164062 35.28125 C 326.164062 35.546875 326.371094 35.632812 326.527344 35.632812 C 326.835938 35.632812 327.085938 35.371094 327.085938 35.039062 Z M 327.085938 35.039062 "/>
<path style=" stroke:none;fill-rule:evenodd;fill:rgb(0%,0%,0%);fill-opacity:1;" d="M 326.488281 124.691406 C 326.488281 124.582031 326.398438 124.582031 326.234375 124.582031 C 325.714844 124.582031 325.683594 124.507812 325.683594 124.417969 C 325.683594 124.363281 325.695312 124.351562 325.726562 124.210938 L 327.257812 118.023438 C 327.257812 117.96875 327.210938 117.925781 327.15625 117.925781 C 327.070312 117.925781 326.640625 118.320312 326.429688 118.707031 C 326.234375 118.210938 325.890625 117.914062 325.417969 117.914062 C 324.175781 117.914062 322.832031 119.523438 322.832031 121.148438 C 322.832031 122.238281 323.472656 122.878906 324.21875 122.878906 C 324.800781 122.878906 325.285156 122.4375 325.519531 122.183594 L 325.527344 122.195312 L 325.109375 123.847656 L 325.011719 124.242188 C 324.914062 124.574219 324.746094 124.574219 324.230469 124.582031 C 324.109375 124.582031 324 124.582031 324 124.792969 C 324 124.871094 324.066406 124.902344 324.144531 124.902344 C 324.296875 124.902344 324.496094 124.878906 324.648438 124.878906 L 325.769531 124.878906 C 325.9375 124.878906 326.121094 124.902344 326.289062 124.902344 C 326.355469 124.902344 326.488281 124.902344 326.488281 124.691406 Z M 325.707031 121.457031 C 325.648438 121.644531 325.648438 121.667969 325.496094 121.875 C 325.253906 122.183594 324.769531 122.65625 324.253906 122.65625 C 323.800781 122.65625 323.546875 122.25 323.546875 121.601562 C 323.546875 120.996094 323.890625 119.761719 324.097656 119.300781 C 324.472656 118.53125 324.988281 118.132812 325.417969 118.132812 C 326.144531 118.132812 326.289062 119.039062 326.289062 119.125 C 326.289062 119.125 326.253906 119.28125 326.246094 119.300781 Z M 325.707031 121.457031 "/>
<path style=" stroke:none;fill-rule:evenodd;fill:rgb(0%,0%,0%);fill-opacity:1;" d="M 330.941406 121.929688 C 330.941406 121.113281 330.859375 120.617188 330.605469 120.125 C 330.269531 119.453125 329.648438 119.285156 329.230469 119.285156 C 328.265625 119.285156 327.914062 120.003906 327.808594 120.21875 C 327.53125 120.773438 327.519531 121.53125 327.519531 121.929688 C 327.519531 122.433594 327.539062 123.207031 327.90625 123.816406 C 328.257812 124.382812 328.824219 124.527344 329.230469 124.527344 C 329.597656 124.527344 330.253906 124.414062 330.636719 123.65625 C 330.917969 123.105469 330.941406 122.425781 330.941406 121.929688 Z M 330.261719 121.835938 C 330.261719 122.289062 330.261719 122.976562 330.167969 123.40625 C 330.007812 124.207031 329.480469 124.316406 329.230469 124.316406 C 328.96875 124.316406 328.441406 124.191406 328.28125 123.390625 C 328.199219 122.953125 328.199219 122.234375 328.199219 121.835938 C 328.199219 121.3125 328.199219 120.773438 328.28125 120.355469 C 328.441406 119.578125 329.039062 119.5 329.230469 119.5 C 329.488281 119.5 330.015625 119.628906 330.167969 120.324219 C 330.261719 120.746094 330.261719 121.320312 330.261719 121.835938 Z M 330.261719 121.835938 "/>
<path style=" stroke:none;fill-rule:evenodd;fill:rgb(0%,0%,0%);fill-opacity:1;" d="M 258.5 113 C 258.5 112.601562 258.34375 112.21875 258.0625 111.9375 C 257.78125 111.65625 257.398438 111.5 257 111.5 C 256.601562 111.5 256.21875 111.65625 255.9375 111.9375 C 255.65625 112.21875 255.5 112.601562 255.5 113 C 255.5 113.398438 255.65625 113.78125 255.9375 114.0625 C 256.21875 114.34375 256.601562 114.5 257 114.5 C 257.398438 114.5 257.78125 114.34375 258.0625 114.0625 C 258.34375 113.78125 258.5 113.398438 258.5 113 Z M 258.5 113 "/>
<path style=" stroke:none;fill-rule:evenodd;fill:rgb(0%,0%,0%);fill-opacity:1;" d="M 242.019531 124.691406 C 242.019531 124.582031 241.933594 124.582031 241.769531 124.582031 C 241.25 124.582031 241.21875 124.503906 241.21875 124.414062 C 241.21875 124.359375 241.230469 124.351562 241.261719 124.207031 L 242.792969 118.023438 C 242.792969 117.96875 242.746094 117.921875 242.691406 117.921875 C 242.605469 117.921875 242.175781 118.320312 241.964844 118.703125 C 241.769531 118.210938 241.425781 117.914062 240.953125 117.914062 C 239.710938 117.914062 238.367188 119.519531 238.367188 121.148438 C 238.367188 122.238281 239.003906 122.875 239.753906 122.875 C 240.335938 122.875 240.820312 122.4375 241.050781 122.183594 L 241.0625 122.195312 L 240.644531 123.84375 L 240.546875 124.242188 C 240.449219 124.570312 240.28125 124.570312 239.765625 124.582031 C 239.644531 124.582031 239.535156 124.582031 239.535156 124.789062 C 239.535156 124.867188 239.597656 124.898438 239.675781 124.898438 C 239.832031 124.898438 240.027344 124.878906 240.183594 124.878906 L 241.304688 124.878906 C 241.472656 124.878906 241.65625 124.898438 241.824219 124.898438 C 241.886719 124.898438 242.019531 124.898438 242.019531 124.691406 Z M 241.238281 121.457031 C 241.183594 121.644531 241.183594 121.664062 241.03125 121.875 C 240.789062 122.183594 240.304688 122.65625 239.785156 122.65625 C 239.335938 122.65625 239.082031 122.25 239.082031 121.601562 C 239.082031 120.992188 239.425781 119.761719 239.632812 119.300781 C 240.007812 118.53125 240.523438 118.132812 240.953125 118.132812 C 241.679688 118.132812 241.824219 119.035156 241.824219 119.125 C 241.824219 119.125 241.789062 119.277344 241.777344 119.300781 Z M 241.238281 121.457031 "/>
<path style=" stroke:none;fill-rule:evenodd;fill:rgb(0%,0%,0%);fill-opacity:1;" d="M 246.472656 121.929688 C 246.472656 121.109375 246.390625 120.613281 246.136719 120.125 C 245.800781 119.453125 245.183594 119.285156 244.761719 119.285156 C 243.800781 119.285156 243.449219 120.003906 243.339844 120.214844 C 243.066406 120.773438 243.050781 121.53125 243.050781 121.929688 C 243.050781 122.433594 243.074219 123.203125 243.441406 123.816406 C 243.792969 124.382812 244.359375 124.527344 244.761719 124.527344 C 245.128906 124.527344 245.785156 124.410156 246.167969 123.65625 C 246.453125 123.105469 246.472656 122.425781 246.472656 121.929688 Z M 245.792969 121.835938 C 245.792969 122.289062 245.792969 122.976562 245.703125 123.402344 C 245.542969 124.203125 245.015625 124.3125 244.761719 124.3125 C 244.503906 124.3125 243.976562 124.191406 243.816406 123.386719 C 243.730469 122.953125 243.730469 122.234375 243.730469 121.835938 C 243.730469 121.308594 243.730469 120.773438 243.816406 120.355469 C 243.976562 119.574219 244.574219 119.5 244.761719 119.5 C 245.023438 119.5 245.550781 119.628906 245.703125 120.324219 C 245.792969 120.742188 245.792969 121.316406 245.792969 121.835938 Z M 245.792969 121.835938 "/>
<path style=" stroke:none;fill-rule:evenodd;fill:rgb(0%,0%,0%);fill-opacity:1;" d="M 257.375 120.015625 C 257.375 119.796875 257.167969 119.796875 257.011719 119.796875 L 251.015625 119.796875 C 250.859375 119.796875 250.652344 119.796875 250.652344 120.015625 C 250.652344 120.234375 250.859375 120.234375 251.015625 120.234375 L 257.011719 120.234375 C 257.167969 120.234375 257.375 120.234375 257.375 120.015625 Z M 257.375 120.015625 "/>
<path style=" stroke:none;fill-rule:evenodd;fill:rgb(0%,0%,0%);fill-opacity:1;" d="M 264.355469 121.367188 C 264.3125 121.542969 264.292969 121.585938 264.148438 121.753906 C 263.699219 122.335938 263.234375 122.546875 262.894531 122.546875 C 262.53125 122.546875 262.191406 122.257812 262.191406 121.5 C 262.191406 120.917969 262.519531 119.683594 262.761719 119.1875 C 263.082031 118.574219 263.574219 118.132812 264.039062 118.132812 C 264.765625 118.132812 264.90625 119.035156 264.90625 119.101562 L 264.875 119.257812 Z M 264.523438 123.503906 L 265.746094 118.574219 C 265.777344 118.441406 265.777344 118.398438 265.777344 118.398438 C 265.777344 118.242188 265.65625 118.121094 265.492188 118.121094 C 265.226562 118.121094 265.074219 118.34375 265.039062 118.640625 C 264.894531 118.320312 264.589844 117.914062 264.039062 117.914062 C 262.839844 117.914062 261.472656 119.421875 261.472656 121.058594 C 261.472656 122.203125 262.167969 122.765625 262.871094 122.765625 C 263.457031 122.765625 263.972656 122.304688 264.171875 122.082031 C 263.984375 122.820312 263.984375 122.84375 263.929688 123.074219 C 263.773438 123.679688 263.707031 123.953125 263.3125 124.339844 C 262.863281 124.789062 262.441406 124.789062 262.199219 124.789062 C 261.871094 124.789062 261.597656 124.769531 261.320312 124.679688 C 261.671875 124.582031 261.761719 124.273438 261.761719 124.152344 C 261.761719 123.976562 261.628906 123.800781 261.386719 123.800781 C 261.121094 123.800781 260.835938 124.019531 260.835938 124.382812 C 260.835938 124.835938 261.285156 125.011719 262.222656 125.011719 C 263.644531 125.011719 264.378906 124.097656 264.523438 123.503906 Z M 264.523438 123.503906 "/>
<path style=" stroke:none;fill-rule:evenodd;fill:rgb(0%,0%,0%);fill-opacity:1;" d="M 272.046875 121.191406 C 272.046875 121.136719 272.003906 121.09375 271.9375 121.09375 C 271.839844 121.09375 271.828125 121.148438 271.785156 121.3125 C 271.585938 122.070312 271.386719 122.65625 270.949219 122.65625 C 270.617188 122.65625 270.617188 122.292969 270.617188 122.148438 C 270.617188 121.898438 270.652344 121.785156 270.761719 121.324219 L 270.980469 120.421875 L 271.433594 118.628906 C 271.507812 118.351562 271.507812 118.332031 271.507812 118.296875 C 271.507812 118.132812 271.378906 118.023438 271.210938 118.023438 C 270.894531 118.023438 270.816406 118.296875 270.75 118.574219 L 269.96875 121.753906 C 269.96875 121.753906 269.527344 122.65625 268.726562 122.65625 C 268.152344 122.65625 268.042969 122.160156 268.042969 121.753906 C 268.042969 121.125 268.351562 120.246094 268.636719 119.507812 C 268.769531 119.15625 268.824219 119.015625 268.824219 118.792969 C 268.824219 118.320312 268.484375 117.914062 267.957031 117.914062 C 266.941406 117.914062 266.535156 119.507812 266.535156 119.597656 C 266.535156 119.640625 266.578125 119.695312 266.65625 119.695312 C 266.753906 119.695312 266.765625 119.652344 266.808594 119.496094 C 267.074219 118.550781 267.503906 118.132812 267.921875 118.132812 C 268.03125 118.132812 268.207031 118.144531 268.207031 118.496094 C 268.207031 118.78125 268.085938 119.101562 267.921875 119.519531 C 267.4375 120.828125 267.382812 121.246094 267.382812 121.578125 C 267.382812 122.699219 268.230469 122.875 268.679688 122.875 C 269.386719 122.875 269.769531 122.390625 269.988281 122.128906 C 270.132812 122.742188 270.660156 122.875 270.925781 122.875 C 271.277344 122.875 271.542969 122.644531 271.71875 122.269531 C 271.90625 121.875 272.046875 121.226562 272.046875 121.191406 Z M 272.046875 121.191406 "/>
<path style=" stroke:none;fill-rule:evenodd;fill:rgb(0%,0%,0%);fill-opacity:1;" d="M 276.074219 121.929688 C 276.074219 121.109375 275.992188 120.613281 275.738281 120.125 C 275.402344 119.453125 274.785156 119.285156 274.363281 119.285156 C 273.402344 119.285156 273.050781 120.003906 272.941406 120.214844 C 272.667969 120.773438 272.652344 121.53125 272.652344 121.929688 C 272.652344 122.433594 272.675781 123.203125 273.042969 123.816406 C 273.394531 124.382812 273.957031 124.527344 274.363281 124.527344 C 274.730469 124.527344 275.386719 124.410156 275.769531 123.65625 C 276.050781 123.105469 276.074219 122.425781 276.074219 121.929688 Z M 275.394531 121.835938 C 275.394531 122.289062 275.394531 122.976562 275.300781 123.402344 C 275.144531 124.203125 274.613281 124.3125 274.363281 124.3125 C 274.105469 124.3125 273.574219 124.191406 273.417969 123.386719 C 273.332031 122.953125 273.332031 122.234375 273.332031 121.835938 C 273.332031 121.308594 273.332031 120.773438 273.417969 120.355469 C 273.574219 119.574219 274.171875 119.5 274.363281 119.5 C 274.621094 119.5 275.152344 119.628906 275.300781 120.324219 C 275.394531 120.742188 275.394531 121.316406 275.394531 121.835938 Z M 275.394531 121.835938 "/>
<path style="fill:none;stroke-width:1;stroke-linecap:butt;stroke-linejoin:miter;stroke:rgb(0%,0%,0%);stroke-opacity:1;stroke-dasharray:4,4;stroke-miterlimit:3.25;" d="M 257.402344 112.527344 L 321.402344 43.992188 "/>
<path style=" stroke:none;fill-rule:evenodd;fill:rgb(0%,0%,0%);fill-opacity:1;" d="M 115.5 19 C 115.5 18.601562 115.34375 18.21875 115.0625 17.9375 C 114.78125 17.65625 114.398438 17.5 114 17.5 C 113.601562 17.5 113.21875 17.65625 112.9375 17.9375 C 112.65625 18.21875 112.5 18.601562 112.5 19 C 112.5 19.398438 112.65625 19.78125 112.9375 20.0625 C 113.21875 20.34375 113.601562 20.5 114 20.5 C 114.398438 20.5 114.78125 20.34375 115.0625 20.0625 C 115.34375 19.78125 115.5 19.398438 115.5 19 Z M 115.5 19 "/>
<path style=" stroke:none;fill-rule:evenodd;fill:rgb(0%,0%,0%);fill-opacity:1;" d="M 113.867188 15.921875 C 113.867188 15.8125 113.777344 15.8125 113.613281 15.8125 C 113.097656 15.8125 113.0625 15.734375 113.0625 15.648438 C 113.0625 15.59375 113.074219 15.582031 113.109375 15.4375 L 114.636719 9.253906 C 114.636719 9.199219 114.59375 9.152344 114.539062 9.152344 C 114.449219 9.152344 114.019531 9.550781 113.8125 9.933594 C 113.613281 9.441406 113.273438 9.140625 112.800781 9.140625 C 111.554688 9.140625 110.214844 10.75 110.214844 12.378906 C 110.214844 13.46875 110.851562 14.105469 111.597656 14.105469 C 112.183594 14.105469 112.667969 13.667969 112.898438 13.414062 L 112.910156 13.425781 L 112.492188 15.074219 L 112.390625 15.472656 C 112.292969 15.800781 112.128906 15.800781 111.609375 15.8125 C 111.488281 15.8125 111.378906 15.8125 111.378906 16.023438 C 111.378906 16.097656 111.445312 16.132812 111.523438 16.132812 C 111.675781 16.132812 111.875 16.109375 112.027344 16.109375 L 113.152344 16.109375 C 113.316406 16.109375 113.503906 16.132812 113.667969 16.132812 C 113.734375 16.132812 113.867188 16.132812 113.867188 15.921875 Z M 113.085938 12.6875 C 113.03125 12.875 113.03125 12.894531 112.875 13.105469 C 112.632812 13.414062 112.148438 13.886719 111.632812 13.886719 C 111.179688 13.886719 110.925781 13.480469 110.925781 12.832031 C 110.925781 12.222656 111.269531 10.992188 111.480469 10.53125 C 111.851562 9.757812 112.371094 9.363281 112.800781 9.363281 C 113.523438 9.363281 113.667969 10.265625 113.667969 10.351562 C 113.667969 10.351562 113.636719 10.507812 113.625 10.53125 Z M 113.085938 12.6875 "/>
<path style=" stroke:none;fill-rule:evenodd;fill:rgb(0%,0%,0%);fill-opacity:1;" d="M 118 15.597656 L 118 15.34375 L 117.734375 15.34375 C 117.007812 15.34375 116.984375 15.253906 116.984375 14.96875 L 116.984375 10.730469 C 116.984375 10.523438 116.96875 10.515625 116.761719 10.515625 C 116.449219 10.820312 116.042969 11.003906 115.316406 11.003906 L 115.316406 11.253906 C 115.523438 11.253906 115.9375 11.253906 116.378906 11.050781 L 116.378906 14.96875 C 116.378906 15.253906 116.359375 15.34375 115.632812 15.34375 L 115.363281 15.34375 L 115.363281 15.597656 C 115.675781 15.574219 116.335938 15.574219 116.679688 15.574219 C 117.023438 15.574219 117.6875 15.574219 118 15.597656 Z M 118 15.597656 "/>
</g>
</svg>
