<?xml version="1.0" encoding="UTF-8"?>
<svg xmlns="http://www.w3.org/2000/svg" xmlns:xlink="http://www.w3.org/1999/xlink" width="404pt" height="156pt" viewBox="0 0 404 156" version="1.1">
<g id="surface289">
<path style="fill-rule:nonzero;fill:rgb(100%,100%,86.999313%);fill-opacity:1;stroke-width:1;stroke-linecap:square;stroke-linejoin:miter;stroke:rgb(0%,0%,0%);stroke-opacity:1;stroke-miterlimit:3.25;" d="M 134.769531 121.789062 L 134.777344 121.75 L 135.53125 117.90625 L 136.457031 114.128906 L 137.539062 110.433594 L 138.78125 106.820312 L 140.179688 103.296875 L 141.726562 99.871094 L 143.421875 96.546875 L 145.257812 93.335938 L 147.226562 90.238281 L 149.332031 87.261719 L 151.5625 84.410156 L 153.914062 81.691406 L 156.382812 79.113281 L 158.957031 76.671875 L 161.640625 74.378906 L 164.417969 72.238281 L 167.285156 70.253906 L 170.238281 68.425781 L 173.269531 66.761719 L 176.367188 65.265625 L 179.53125 63.9375 L 182.753906 62.785156 L 186.023438 61.804688 L 189.332031 61.003906 L 192.671875 60.386719 L 196.035156 59.960938 L 199.40625 59.71875 L 202.785156 59.671875 L 206.164062 59.808594 L 209.53125 60.136719 L 212.882812 60.652344 L 216.210938 61.351562 L 219.503906 62.238281 L 222.75 63.300781 L 225.945312 64.535156 L 229.082031 65.941406 L 232.152344 67.515625 L 235.144531 69.257812 L 238.058594 71.15625 L 240.886719 73.214844 L 243.621094 75.429688 L 246.253906 77.789062 L 248.78125 80.296875 L 251.195312 82.941406 L 253.492188 85.722656 L 255.664062 88.632812 L 257.707031 91.664062 L 259.617188 94.816406 L 261.386719 98.082031 L 263.011719 101.453125 L 264.488281 104.925781 L 265.816406 108.488281 L 266.984375 112.144531 L 267.992188 115.878906 L 268.839844 119.6875 L 269.519531 123.5625 L 270.027344 127.5 L 270.160156 127.605469 L 270.300781 127.714844 L 270.449219 127.828125 L 270.601562 127.941406 L 270.761719 128.058594 L 270.929688 128.179688 L 271.105469 128.300781 L 271.289062 128.421875 L 271.476562 128.550781 L 271.675781 128.675781 L 271.878906 128.804688 L 272.089844 128.9375 L 272.3125 129.066406 L 272.539062 129.199219 L 272.773438 129.332031 L 273.019531 129.46875 L 273.269531 129.601562 L 273.527344 129.738281 L 273.792969 129.875 L 274.070312 130.011719 L 274.351562 130.148438 L 274.640625 130.28125 L 274.941406 130.417969 L 275.25 130.554688 L 275.5625 130.6875 L 275.886719 130.820312 L 276.21875 130.953125 L 276.558594 131.085938 L 276.90625 131.214844 L 277.261719 131.34375 L 277.625 131.46875 L 277.996094 131.59375 L 278.378906 131.71875 L 278.765625 131.839844 L 279.164062 131.957031 L 279.570312 132.074219 L 279.984375 132.1875 L 280.402344 132.296875 L 280.835938 132.402344 L 281.273438 132.507812 L 281.71875 132.605469 L 282.171875 132.703125 L 282.636719 132.796875 L 283.105469 132.886719 L 283.585938 132.972656 L 284.070312 133.050781 L 284.566406 133.128906 L 285.066406 133.199219 L 285.578125 133.265625 L 286.097656 133.328125 L 286.621094 133.386719 L 287.15625 133.4375 L 287.699219 133.484375 L 288.246094 133.523438 L 288.804688 133.558594 L 289.367188 133.589844 L 289.964844 133.613281 L 290.597656 133.628906 L 291.230469 133.640625 L 291.863281 133.644531 L 381.726562 133.644531 L 381.519531 129.691406 L 381.21875 125.785156 L 380.820312 121.933594 L 380.328125 118.128906 L 379.746094 114.386719 L 379.078125 110.699219 L 378.324219 107.078125 L 377.488281 103.519531 L 376.574219 100.03125 L 375.585938 96.613281 L 374.523438 93.269531 L 373.394531 89.996094 L 372.199219 86.804688 L 370.941406 83.691406 L 369.628906 80.660156 L 368.257812 77.710938 L 366.839844 74.847656 L 365.371094 72.070312 L 363.863281 69.382812 L 362.3125 66.78125 L 360.730469 64.269531 L 359.117188 61.847656 L 357.476562 59.515625 L 355.8125 57.277344 L 354.128906 55.132812 L 352.4375 53.078125 L 350.738281 51.125 L 349.039062 49.269531 L 347.347656 47.511719 L 345.707031 45.894531 L 211.847656 22.292969 L 109.957031 22.316406 L 108.382812 22.398438 L 106.777344 22.523438 L 105.140625 22.691406 L 103.472656 22.910156 L 101.773438 23.171875 L 100.046875 23.484375 L 98.292969 23.851562 L 96.515625 24.269531 L 94.710938 24.742188 L 92.886719 25.269531 L 91.039062 25.855469 L 89.175781 26.5 L 87.292969 27.203125 L 85.394531 27.96875 L 83.484375 28.796875 L 81.566406 29.691406 L 79.636719 30.648438 L 77.699219 31.671875 L 75.757812 32.761719 L 73.8125 33.917969 L 71.867188 35.144531 L 69.921875 36.441406 L 67.984375 37.808594 L 66.050781 39.242188 L 64.125 40.75 L 62.445312 42.136719 L 60.792969 43.574219 L 59.121094 45.105469 L 57.441406 46.726562 L 55.75 48.441406 L 54.050781 50.25 L 52.351562 52.160156 L 50.65625 54.164062 L 48.96875 56.269531 L 47.296875 58.464844 L 45.644531 60.75 L 44.015625 63.128906 L 42.417969 65.601562 L 40.855469 68.160156 L 39.324219 70.808594 L 37.839844 73.546875 L 36.394531 76.371094 L 35.003906 79.277344 L 33.664062 82.273438 L 32.378906 85.347656 L 31.152344 88.503906 L 29.992188 91.738281 L 28.898438 95.046875 L 27.875 98.433594 L 26.925781 101.890625 L 26.714844 102.738281 Z M 134.769531 121.789062 "/>
<path style=" stroke:none;fill-rule:evenodd;fill:rgb(0%,0%,0%);fill-opacity:1;" d="M 101.710938 78.179688 C 101.710938 77.71875 101.597656 77.3125 101.183594 76.902344 C 100.949219 76.675781 100.753906 76.617188 99.738281 76.355469 C 99 76.15625 98.902344 76.121094 98.703125 75.949219 C 98.519531 75.761719 98.375 75.496094 98.375 75.121094 C 98.375 74.195312 99.3125 73.25 100.355469 73.25 C 101.433594 73.25 101.941406 73.910156 101.941406 74.957031 C 101.941406 75.242188 101.886719 75.539062 101.886719 75.582031 C 101.886719 75.683594 101.972656 75.683594 102.007812 75.683594 C 102.105469 75.683594 102.117188 75.652344 102.160156 75.472656 L 102.753906 73.054688 C 102.753906 72.953125 102.65625 72.953125 102.65625 72.953125 C 102.613281 72.953125 102.601562 72.964844 102.46875 73.128906 L 101.941406 73.789062 C 101.578125 73.074219 100.851562 72.953125 100.390625 72.953125 C 98.992188 72.953125 97.726562 74.230469 97.726562 75.472656 C 97.726562 76.300781 98.21875 76.785156 98.757812 76.972656 C 98.882812 77.015625 99.53125 77.191406 99.859375 77.269531 C 100.421875 77.421875 100.566406 77.464844 100.796875 77.707031 C 100.839844 77.761719 101.058594 78.015625 101.058594 78.535156 C 101.058594 79.558594 100.113281 80.613281 99.011719 80.613281 C 98.109375 80.613281 97.109375 80.226562 97.109375 78.996094 C 97.109375 78.789062 97.152344 78.523438 97.1875 78.410156 C 97.1875 78.378906 97.195312 78.300781 97.195312 78.300781 C 97.195312 78.257812 97.175781 78.203125 97.085938 78.203125 C 96.988281 78.203125 96.976562 78.222656 96.933594 78.410156 L 96.371094 80.667969 L 96.328125 80.835938 C 96.328125 80.933594 96.4375 80.933594 96.4375 80.933594 C 96.484375 80.933594 96.492188 80.921875 96.625 80.757812 L 97.132812 80.097656 C 97.394531 80.492188 97.96875 80.933594 98.992188 80.933594 C 100.410156 80.933594 101.710938 79.558594 101.710938 78.179688 Z M 101.710938 78.179688 "/>
<path style=" stroke:none;fill-rule:evenodd;fill:rgb(0%,0%,0%);fill-opacity:1;" d="M 107.082031 80.476562 C 107.160156 80.164062 107.25 79.804688 107.25 79.503906 C 107.25 79.289062 107.207031 79.109375 107.070312 78.992188 C 107.023438 78.953125 106.953125 78.929688 106.882812 78.929688 C 106.785156 78.929688 106.679688 78.976562 106.59375 79.070312 C 106.523438 79.144531 106.488281 79.238281 106.488281 79.320312 C 106.488281 79.40625 106.519531 79.480469 106.585938 79.535156 C 106.777344 79.6875 106.882812 79.917969 106.882812 80.175781 C 106.882812 80.261719 106.867188 80.34375 106.855469 80.429688 C 106.679688 81.109375 106.203125 81.789062 105.601562 81.789062 C 105.1875 81.789062 104.921875 81.539062 104.828125 81.179688 C 104.9375 80.957031 105.019531 80.710938 105.074219 80.476562 C 105.089844 80.421875 105.097656 80.359375 105.097656 80.308594 C 105.097656 80.171875 105.042969 80.0625 104.914062 80.0625 C 104.761719 80.0625 104.644531 80.246094 104.609375 80.429688 C 104.539062 80.679688 104.507812 80.925781 104.515625 81.148438 C 104.257812 81.523438 103.882812 81.789062 103.476562 81.789062 C 103.003906 81.789062 102.773438 81.398438 102.773438 80.910156 C 102.773438 80.773438 102.789062 80.628906 102.824219 80.476562 C 102.941406 80.03125 103.207031 79.613281 103.515625 79.222656 C 103.535156 79.183594 103.550781 79.144531 103.550781 79.117188 C 103.550781 79.0625 103.519531 79.015625 103.476562 78.984375 C 103.453125 78.96875 103.429688 78.960938 103.398438 78.960938 C 103.347656 78.960938 103.285156 78.992188 103.246094 79.039062 C 102.925781 79.476562 102.71875 79.949219 102.597656 80.429688 C 102.527344 80.695312 102.488281 80.957031 102.488281 81.210938 C 102.488281 81.867188 102.75 82.378906 103.378906 82.378906 C 103.859375 82.378906 104.265625 82.0625 104.578125 81.621094 C 104.691406 82.070312 104.988281 82.378906 105.492188 82.378906 C 106.304688 82.378906 106.855469 81.40625 107.082031 80.476562 Z M 107.082031 80.476562 "/>
<path style=" stroke:none;fill-rule:evenodd;fill:rgb(0%,0%,0%);fill-opacity:1;" d="M 203.5 134 C 203.5 133.601562 203.34375 133.21875 203.0625 132.9375 C 202.78125 132.65625 202.398438 132.5 202 132.5 C 201.601562 132.5 201.21875 132.65625 200.9375 132.9375 C 200.65625 133.21875 200.5 133.601562 200.5 134 C 200.5 134.398438 200.65625 134.78125 200.9375 135.0625 C 201.21875 135.34375 201.601562 135.5 202 135.5 C 202.398438 135.5 202.78125 135.34375 203.0625 135.0625 C 203.34375 134.78125 203.5 134.398438 203.5 134 Z M 203.5 134 "/>
<path style=" stroke:none;fill-rule:evenodd;fill:rgb(0%,0%,0%);fill-opacity:1;" d="M 200.988281 139.066406 C 200.988281 137.25 199.800781 136.136719 198.261719 136.136719 C 195.90625 136.136719 193.527344 138.667969 193.527344 141.210938 C 193.527344 142.9375 194.671875 144.117188 196.269531 144.117188 C 198.578125 144.117188 200.988281 141.707031 200.988281 139.066406 Z M 200.109375 138.667969 C 200.109375 139.648438 199.691406 141.179688 198.953125 142.226562 C 198.152344 143.347656 197.148438 143.863281 196.335938 143.863281 C 195.429688 143.863281 194.476562 143.203125 194.476562 141.488281 C 194.476562 140.484375 194.835938 138.847656 195.742188 137.746094 C 196.542969 136.777344 197.46875 136.378906 198.207031 136.378906 C 199.175781 136.378906 200.109375 137.085938 200.109375 138.667969 Z M 200.109375 138.667969 "/>
<path style="fill:none;stroke-width:1;stroke-linecap:butt;stroke-linejoin:miter;stroke:rgb(0%,0%,0%);stroke-opacity:1;stroke-dasharray:1,4;stroke-miterlimit:3.25;" d="M -404 231.097656 L 260.910156 113.855469 "/>
<path style="fill:none;stroke-width:1;stroke-linecap:butt;stroke-linejoin:miter;stroke:rgb(0%,0%,0%);stroke-opacity:1;stroke-dasharray:1,4;stroke-miterlimit:3.25;" d="M -404 231.097656 L 260.910156 113.855469 "/>
<path style=" stroke:none;fill-rule:nonzero;fill:rgb(0%,0%,0%);fill-opacity:1;" d="M 260.910156 113.855469 L 260.824219 113.769531 L 261.316406 113.277344 L 261.402344 113.769531 Z M 260.910156 113.855469 "/>
<path style="fill:none;stroke-width:1;stroke-linecap:butt;stroke-linejoin:miter;stroke:rgb(0%,0%,0%);stroke-opacity:1;stroke-dasharray:1,4;stroke-miterlimit:3.25;" d="M 295.832031 311.917969 L 260.910156 113.855469 "/>
<path style="fill:none;stroke-width:1;stroke-linecap:butt;stroke-linejoin:miter;stroke:rgb(0%,0%,0%);stroke-opacity:1;stroke-dasharray:1,4;stroke-miterlimit:3.25;" d="M 295.832031 311.917969 L 260.910156 113.855469 "/>
<path style="fill:none;stroke-width:1;stroke-linecap:butt;stroke-linejoin:miter;stroke:rgb(0%,0%,0%);stroke-opacity:1;stroke-dasharray:1,4;stroke-miterlimit:3.25;" d="M -404 112.355469 L 355.765625 -21.613281 "/>
<path style="fill:none;stroke-width:1;stroke-linecap:butt;stroke-linejoin:miter;stroke:rgb(0%,0%,0%);stroke-opacity:1;stroke-dasharray:1,4;stroke-miterlimit:3.25;" d="M -404 112.355469 L 355.765625 -21.613281 "/>
<path style="fill:none;stroke-width:1;stroke-linecap:butt;stroke-linejoin:miter;stroke:rgb(0%,0%,0%);stroke-opacity:1;stroke-dasharray:1,4;stroke-miterlimit:3.25;" d="M 414.578125 311.917969 L 355.765625 -21.613281 "/>
<path style="fill:none;stroke-width:1;stroke-linecap:butt;stroke-linejoin:miter;stroke:rgb(0%,0%,0%);stroke-opacity:1;stroke-dasharray:1,4;stroke-miterlimit:3.25;" d="M 414.578125 311.917969 L 355.765625 -21.613281 "/>
<path style=" stroke:none;fill-rule:evenodd;fill:rgb(0%,0%,0%);fill-opacity:1;" d="M 383.5 52 C 383.5 51.601562 383.34375 51.21875 383.0625 50.9375 C 382.78125 50.65625 382.398438 50.5 382 50.5 C 381.601562 50.5 381.21875 50.65625 380.9375 50.9375 C 380.65625 51.21875 380.5 51.601562 380.5 52 C 380.5 52.398438 380.65625 52.78125 380.9375 53.0625 C 381.21875 53.34375 381.601562 53.5 382 53.5 C 382.398438 53.5 382.78125 53.34375 383.0625 53.0625 C 383.34375 52.78125 383.5 52.398438 383.5 52 Z M 383.5 52 "/>
<path style=" stroke:none;fill-rule:evenodd;fill:rgb(0%,0%,0%);fill-opacity:1;" d="M 387.410156 43.296875 C 387.410156 42.945312 387.070312 42.636719 386.519531 42.636719 C 386.078125 42.636719 385.574219 42.835938 385.113281 43.507812 C 385.035156 42.921875 384.59375 42.636719 384.152344 42.636719 C 383.726562 42.636719 383.507812 42.96875 383.375 43.210938 C 383.1875 43.605469 383.023438 44.265625 383.023438 44.320312 C 383.023438 44.363281 383.066406 44.417969 383.144531 44.417969 C 383.230469 44.417969 383.242188 44.40625 383.308594 44.152344 C 383.472656 43.496094 383.683594 42.855469 384.121094 42.855469 C 384.386719 42.855469 384.464844 43.042969 384.464844 43.363281 C 384.464844 43.605469 384.351562 44.035156 384.277344 44.375 L 383.96875 45.5625 L 383.75 46.464844 C 383.671875 46.75 383.550781 47.265625 383.550781 47.320312 C 383.550781 47.476562 383.671875 47.597656 383.835938 47.597656 C 383.957031 47.597656 384.167969 47.519531 384.230469 47.300781 C 384.265625 47.210938 384.671875 45.550781 384.738281 45.300781 C 384.792969 45.058594 384.859375 44.824219 384.914062 44.582031 L 385.035156 44.109375 C 385.066406 44.011719 385.363281 43.472656 385.640625 43.230469 C 385.773438 43.109375 386.058594 42.855469 386.507812 42.855469 C 386.683594 42.855469 386.859375 42.890625 387.003906 42.988281 C 386.664062 43.054688 386.484375 43.296875 386.484375 43.539062 C 386.484375 43.804688 386.695312 43.890625 386.851562 43.890625 C 387.15625 43.890625 387.410156 43.625 387.410156 43.296875 Z M 387.410156 43.296875 "/>
<path style="fill:none;stroke-width:1;stroke-linecap:butt;stroke-linejoin:miter;stroke:rgb(0%,0%,0%);stroke-opacity:1;stroke-dasharray:4,4;stroke-miterlimit:3.25;" d="M 211.742188 22.273438 L 381.726562 52.246094 L 381.726562 133.644531 "/>
<path style="fill:none;stroke-width:1;stroke-linecap:square;stroke-linejoin:miter;stroke:rgb(0%,66.666667%,0%);stroke-opacity:1;stroke-miterlimit:3.25;" d="M 305.714844 133.644531 L 381.726562 52.246094 "/>
<path style=" stroke:none;fill-rule:evenodd;fill:rgb(0%,66.666667%,0%);fill-opacity:1;" d="M 342.230469 88.1875 L 342.230469 87.867188 L 341.890625 87.867188 C 340.921875 87.867188 340.886719 87.734375 340.886719 87.339844 L 340.886719 81.136719 C 340.886719 80.882812 340.886719 80.871094 340.667969 80.871094 C 340.402344 81.167969 339.855469 81.574219 338.722656 81.574219 L 338.722656 81.894531 C 338.972656 81.894531 339.523438 81.894531 340.128906 81.609375 L 340.128906 87.339844 C 340.128906 87.734375 340.09375 87.867188 339.128906 87.867188 L 338.785156 87.867188 L 338.785156 88.1875 C 339.082031 88.164062 340.148438 88.164062 340.515625 88.164062 C 340.875 88.164062 341.933594 88.164062 342.230469 88.1875 Z M 342.230469 88.1875 "/>
<path style="fill:none;stroke-width:1;stroke-linecap:square;stroke-linejoin:miter;stroke:rgb(0%,0%,100%);stroke-opacity:1;stroke-miterlimit:3.25;" d="M 381.726562 133.644531 L 305.714844 133.644531 "/>
<path style=" stroke:none;fill-rule:evenodd;fill:rgb(0%,0%,100%);fill-opacity:1;" d="M 344.679688 127.488281 C 344.636719 127.664062 344.613281 127.707031 344.46875 127.875 C 344.019531 128.457031 343.558594 128.667969 343.214844 128.667969 C 342.851562 128.667969 342.511719 128.378906 342.511719 127.621094 C 342.511719 127.039062 342.839844 125.804688 343.082031 125.308594 C 343.402344 124.695312 343.898438 124.253906 344.359375 124.253906 C 345.085938 124.253906 345.230469 125.15625 345.230469 125.222656 L 345.195312 125.375 Z M 344.84375 129.625 L 346.066406 124.695312 C 346.101562 124.5625 346.101562 124.515625 346.101562 124.515625 C 346.101562 124.363281 345.976562 124.242188 345.8125 124.242188 C 345.550781 124.242188 345.394531 124.460938 345.363281 124.757812 C 345.21875 124.441406 344.910156 124.03125 344.359375 124.03125 C 343.160156 124.03125 341.796875 125.539062 341.796875 127.179688 C 341.796875 128.324219 342.488281 128.886719 343.195312 128.886719 C 343.777344 128.886719 344.292969 128.425781 344.492188 128.203125 C 344.304688 128.941406 344.304688 128.964844 344.25 129.195312 C 344.097656 129.800781 344.03125 130.078125 343.632812 130.460938 C 343.183594 130.914062 342.765625 130.914062 342.523438 130.914062 C 342.191406 130.914062 341.917969 130.890625 341.640625 130.800781 C 341.992188 130.703125 342.082031 130.394531 342.082031 130.273438 C 342.082031 130.097656 341.949219 129.921875 341.707031 129.921875 C 341.445312 129.921875 341.15625 130.140625 341.15625 130.503906 C 341.15625 130.957031 341.609375 131.132812 342.542969 131.132812 C 343.964844 131.132812 344.699219 130.21875 344.84375 129.625 Z M 344.84375 129.625 "/>
<path style=" stroke:none;fill-rule:evenodd;fill:rgb(0%,0%,0%);fill-opacity:1;" d="M 383.5 134 C 383.5 133.601562 383.34375 133.21875 383.0625 132.9375 C 382.78125 132.65625 382.398438 132.5 382 132.5 C 381.601562 132.5 381.21875 132.65625 380.9375 132.9375 C 380.65625 133.21875 380.5 133.601562 380.5 134 C 380.5 134.398438 380.65625 134.78125 380.9375 135.0625 C 381.21875 135.34375 381.601562 135.5 382 135.5 C 382.398438 135.5 382.78125 135.34375 383.0625 135.0625 C 383.34375 134.78125 383.5 134.398438 383.5 134 Z M 383.5 134 "/>
<path style=" stroke:none;fill-rule:evenodd;fill:rgb(0%,0%,0%);fill-opacity:1;" d="M 390.152344 138.3125 C 390.152344 138.203125 390.0625 138.203125 389.898438 138.203125 C 389.378906 138.203125 389.347656 138.125 389.347656 138.039062 C 389.347656 137.984375 389.359375 137.972656 389.390625 137.828125 L 390.921875 131.644531 C 390.921875 131.589844 390.875 131.542969 390.820312 131.542969 C 390.734375 131.542969 390.304688 131.941406 390.09375 132.324219 C 389.898438 131.832031 389.554688 131.53125 389.082031 131.53125 C 387.839844 131.53125 386.496094 133.140625 386.496094 134.769531 C 386.496094 135.859375 387.132812 136.496094 387.882812 136.496094 C 388.464844 136.496094 388.949219 136.058594 389.183594 135.804688 L 389.191406 135.816406 L 388.773438 137.464844 L 388.675781 137.863281 C 388.578125 138.191406 388.410156 138.191406 387.894531 138.203125 C 387.773438 138.203125 387.664062 138.203125 387.664062 138.414062 C 387.664062 138.488281 387.726562 138.523438 387.804688 138.523438 C 387.960938 138.523438 388.160156 138.5 388.3125 138.5 L 389.433594 138.5 C 389.601562 138.5 389.785156 138.523438 389.953125 138.523438 C 390.019531 138.523438 390.152344 138.523438 390.152344 138.3125 Z M 389.371094 135.078125 C 389.3125 135.265625 389.3125 135.285156 389.160156 135.496094 C 388.917969 135.804688 388.433594 136.277344 387.917969 136.277344 C 387.464844 136.277344 387.210938 135.871094 387.210938 135.222656 C 387.210938 134.613281 387.554688 133.382812 387.761719 132.921875 C 388.136719 132.148438 388.652344 131.753906 389.082031 131.753906 C 389.808594 131.753906 389.953125 132.65625 389.953125 132.742188 C 389.953125 132.742188 389.917969 132.898438 389.910156 132.921875 Z M 389.371094 135.078125 "/>
<path style=" stroke:none;fill-rule:evenodd;fill:rgb(0%,0%,0%);fill-opacity:1;" d="M 394.605469 135.550781 C 394.605469 134.730469 394.523438 134.234375 394.269531 133.746094 C 393.933594 133.070312 393.3125 132.90625 392.894531 132.90625 C 391.929688 132.90625 391.578125 133.625 391.472656 133.835938 C 391.195312 134.394531 391.183594 135.152344 391.183594 135.550781 C 391.183594 136.054688 391.203125 136.824219 391.570312 137.4375 C 391.921875 138.003906 392.488281 138.148438 392.894531 138.148438 C 393.261719 138.148438 393.917969 138.03125 394.300781 137.277344 C 394.582031 136.726562 394.605469 136.046875 394.605469 135.550781 Z M 393.925781 135.457031 C 393.925781 135.910156 393.925781 136.597656 393.832031 137.023438 C 393.671875 137.828125 393.144531 137.933594 392.894531 137.933594 C 392.632812 137.933594 392.105469 137.8125 391.945312 137.007812 C 391.863281 136.574219 391.863281 135.855469 391.863281 135.457031 C 391.863281 134.929688 391.863281 134.394531 391.945312 133.976562 C 392.105469 133.195312 392.703125 133.117188 392.894531 133.117188 C 393.152344 133.117188 393.679688 133.25 393.832031 133.945312 C 393.925781 134.363281 393.925781 134.9375 393.925781 135.457031 Z M 393.925781 135.457031 "/>
<path style=" stroke:none;fill-rule:evenodd;fill:rgb(0%,0%,0%);fill-opacity:1;" d="M 307.5 134 C 307.5 133.601562 307.34375 133.21875 307.0625 132.9375 C 306.78125 132.65625 306.398438 132.5 306 132.5 C 305.601562 132.5 305.21875 132.65625 304.9375 132.9375 C 304.65625 133.21875 304.5 133.601562 304.5 134 C 304.5 134.398438 304.65625 134.78125 304.9375 135.0625 C 305.21875 135.34375 305.601562 135.5 306 135.5 C 306.398438 135.5 306.78125 135.34375 307.0625 135.0625 C 307.34375 134.78125 307.5 134.398438 307.5 134 Z M 307.5 134 "/>
<path style=" stroke:none;fill-rule:evenodd;fill:rgb(0%,0%,0%);fill-opacity:1;" d="M 290.332031 145.808594 C 290.332031 145.699219 290.242188 145.699219 290.078125 145.699219 C 289.5625 145.699219 289.527344 145.625 289.527344 145.535156 C 289.527344 145.480469 289.539062 145.46875 289.574219 145.328125 L 291.101562 139.144531 C 291.101562 139.085938 291.058594 139.042969 291.003906 139.042969 C 290.914062 139.042969 290.484375 139.441406 290.277344 139.824219 C 290.078125 139.332031 289.738281 139.03125 289.265625 139.03125 C 288.019531 139.03125 286.679688 140.640625 286.679688 142.265625 C 286.679688 143.355469 287.316406 143.992188 288.066406 143.992188 C 288.648438 143.992188 289.132812 143.554688 289.363281 143.300781 L 289.375 143.3125 L 288.957031 144.960938 L 288.855469 145.359375 C 288.757812 145.6875 288.59375 145.6875 288.074219 145.699219 C 287.957031 145.699219 287.84375 145.699219 287.84375 145.910156 C 287.84375 145.984375 287.910156 146.019531 287.988281 146.019531 C 288.140625 146.019531 288.339844 145.996094 288.496094 145.996094 L 289.617188 145.996094 C 289.78125 145.996094 289.96875 146.019531 290.132812 146.019531 C 290.199219 146.019531 290.332031 146.019531 290.332031 145.808594 Z M 289.550781 142.574219 C 289.496094 142.761719 289.496094 142.785156 289.339844 142.992188 C 289.097656 143.300781 288.613281 143.773438 288.097656 143.773438 C 287.644531 143.773438 287.394531 143.367188 287.394531 142.71875 C 287.394531 142.113281 287.734375 140.878906 287.945312 140.417969 C 288.316406 139.648438 288.835938 139.253906 289.265625 139.253906 C 289.988281 139.253906 290.132812 140.15625 290.132812 140.242188 C 290.132812 140.242188 290.101562 140.398438 290.089844 140.417969 Z M 289.550781 142.574219 "/>
<path style=" stroke:none;fill-rule:evenodd;fill:rgb(0%,0%,0%);fill-opacity:1;" d="M 294.785156 143.046875 C 294.785156 142.230469 294.703125 141.734375 294.449219 141.242188 C 294.113281 140.570312 293.496094 140.402344 293.074219 140.402344 C 292.113281 140.402344 291.761719 141.121094 291.652344 141.335938 C 291.378906 141.890625 291.363281 142.648438 291.363281 143.046875 C 291.363281 143.550781 291.386719 144.324219 291.753906 144.933594 C 292.105469 145.5 292.667969 145.644531 293.074219 145.644531 C 293.441406 145.644531 294.097656 145.53125 294.480469 144.773438 C 294.761719 144.222656 294.785156 143.542969 294.785156 143.046875 Z M 294.105469 142.953125 C 294.105469 143.40625 294.105469 144.09375 294.011719 144.523438 C 293.855469 145.324219 293.324219 145.429688 293.074219 145.429688 C 292.816406 145.429688 292.285156 145.308594 292.128906 144.507812 C 292.042969 144.070312 292.042969 143.351562 292.042969 142.953125 C 292.042969 142.429688 292.042969 141.890625 292.128906 141.472656 C 292.285156 140.695312 292.882812 140.617188 293.074219 140.617188 C 293.332031 140.617188 293.863281 140.746094 294.011719 141.441406 C 294.105469 141.863281 294.105469 142.4375 294.105469 142.953125 Z M 294.105469 142.953125 "/>
<path style=" stroke:none;fill-rule:evenodd;fill:rgb(0%,0%,0%);fill-opacity:1;" d="M 305.683594 141.132812 C 305.683594 140.914062 305.476562 140.914062 305.324219 140.914062 L 299.324219 140.914062 C 299.171875 140.914062 298.964844 140.914062 298.964844 141.132812 C 298.964844 141.351562 299.171875 141.351562 299.324219 141.351562 L 305.324219 141.351562 C 305.476562 141.351562 305.683594 141.351562 305.683594 141.132812 Z M 305.683594 141.132812 "/>
<path style=" stroke:none;fill-rule:evenodd;fill:rgb(0%,0%,0%);fill-opacity:1;" d="M 312.667969 142.488281 C 312.625 142.664062 312.601562 142.707031 312.457031 142.871094 C 312.007812 143.453125 311.546875 143.664062 311.207031 143.664062 C 310.839844 143.664062 310.5 143.378906 310.5 142.617188 C 310.5 142.035156 310.832031 140.804688 311.074219 140.308594 C 311.390625 139.691406 311.886719 139.253906 312.347656 139.253906 C 313.074219 139.253906 313.21875 140.15625 313.21875 140.222656 L 313.183594 140.375 Z M 312.832031 144.621094 L 314.054688 139.691406 C 314.089844 139.558594 314.089844 139.515625 314.089844 139.515625 C 314.089844 139.363281 313.964844 139.242188 313.800781 139.242188 C 313.539062 139.242188 313.382812 139.460938 313.351562 139.757812 C 313.207031 139.441406 312.898438 139.03125 312.347656 139.03125 C 311.148438 139.03125 309.785156 140.539062 309.785156 142.179688 C 309.785156 143.324219 310.480469 143.882812 311.183594 143.882812 C 311.765625 143.882812 312.285156 143.421875 312.480469 143.203125 C 312.292969 143.9375 312.292969 143.960938 312.238281 144.191406 C 312.085938 144.796875 312.019531 145.074219 311.621094 145.457031 C 311.171875 145.910156 310.753906 145.910156 310.511719 145.910156 C 310.183594 145.910156 309.90625 145.886719 309.632812 145.796875 C 309.984375 145.699219 310.070312 145.390625 310.070312 145.269531 C 310.070312 145.09375 309.941406 144.917969 309.699219 144.917969 C 309.433594 144.917969 309.148438 145.140625 309.148438 145.5 C 309.148438 145.953125 309.597656 146.128906 310.535156 146.128906 C 311.953125 146.128906 312.691406 145.214844 312.832031 144.621094 Z M 312.832031 144.621094 "/>
<path style=" stroke:none;fill-rule:evenodd;fill:rgb(0%,0%,0%);fill-opacity:1;" d="M 320.359375 142.3125 C 320.359375 142.257812 320.316406 142.210938 320.25 142.210938 C 320.148438 142.210938 320.136719 142.265625 320.09375 142.429688 C 319.898438 143.191406 319.699219 143.773438 319.257812 143.773438 C 318.929688 143.773438 318.929688 143.410156 318.929688 143.269531 C 318.929688 143.015625 318.960938 142.90625 319.070312 142.441406 L 319.292969 141.539062 L 319.742188 139.746094 C 319.820312 139.472656 319.820312 139.449219 319.820312 139.417969 C 319.820312 139.253906 319.6875 139.144531 319.523438 139.144531 C 319.203125 139.144531 319.128906 139.417969 319.058594 139.691406 L 318.277344 142.871094 C 318.277344 142.871094 317.839844 143.773438 317.035156 143.773438 C 316.464844 143.773438 316.355469 143.28125 316.355469 142.871094 C 316.355469 142.246094 316.660156 141.363281 316.949219 140.628906 C 317.082031 140.273438 317.136719 140.132812 317.136719 139.914062 C 317.136719 139.441406 316.792969 139.03125 316.265625 139.03125 C 315.253906 139.03125 314.847656 140.628906 314.847656 140.714844 C 314.847656 140.757812 314.890625 140.816406 314.96875 140.816406 C 315.066406 140.816406 315.078125 140.769531 315.121094 140.617188 C 315.386719 139.671875 315.816406 139.253906 316.230469 139.253906 C 316.34375 139.253906 316.519531 139.261719 316.519531 139.617188 C 316.519531 139.902344 316.398438 140.222656 316.230469 140.640625 C 315.75 141.949219 315.691406 142.367188 315.691406 142.695312 C 315.691406 143.820312 316.542969 143.992188 316.992188 143.992188 C 317.695312 143.992188 318.082031 143.511719 318.300781 143.246094 C 318.445312 143.863281 318.972656 143.992188 319.238281 143.992188 C 319.589844 143.992188 319.851562 143.765625 320.027344 143.390625 C 320.214844 142.992188 320.359375 142.34375 320.359375 142.3125 Z M 320.359375 142.3125 "/>
<path style=" stroke:none;fill-rule:evenodd;fill:rgb(0%,0%,0%);fill-opacity:1;" d="M 324.386719 143.046875 C 324.386719 142.230469 324.300781 141.734375 324.050781 141.242188 C 323.714844 140.570312 323.09375 140.402344 322.675781 140.402344 C 321.710938 140.402344 321.359375 141.121094 321.253906 141.335938 C 320.976562 141.890625 320.964844 142.648438 320.964844 143.046875 C 320.964844 143.550781 320.984375 144.324219 321.351562 144.933594 C 321.703125 145.5 322.269531 145.644531 322.675781 145.644531 C 323.042969 145.644531 323.699219 145.53125 324.082031 144.773438 C 324.363281 144.222656 324.386719 143.542969 324.386719 143.046875 Z M 323.707031 142.953125 C 323.707031 143.40625 323.707031 144.09375 323.613281 144.523438 C 323.453125 145.324219 322.925781 145.429688 322.675781 145.429688 C 322.414062 145.429688 321.886719 145.308594 321.726562 144.507812 C 321.644531 144.070312 321.644531 143.351562 321.644531 142.953125 C 321.644531 142.429688 321.644531 141.890625 321.726562 141.472656 C 321.886719 140.695312 322.484375 140.617188 322.675781 140.617188 C 322.933594 140.617188 323.460938 140.746094 323.613281 141.441406 C 323.707031 141.863281 323.707031 142.4375 323.707031 142.953125 Z M 323.707031 142.953125 "/>
<path style="fill:none;stroke-width:1;stroke-linecap:square;stroke-linejoin:miter;stroke:rgb(0%,0%,100%);stroke-opacity:1;stroke-miterlimit:3.25;" d="M 135.730469 22.273438 L 211.742188 22.273438 "/>
<path style=" stroke:none;fill-rule:evenodd;fill:rgb(0%,0%,100%);fill-opacity:1;" d="M 174.695312 31.117188 C 174.652344 31.292969 174.632812 31.339844 174.488281 31.503906 C 174.039062 32.085938 173.574219 32.296875 173.234375 32.296875 C 172.871094 32.296875 172.527344 32.011719 172.527344 31.25 C 172.527344 30.667969 172.859375 29.433594 173.101562 28.9375 C 173.421875 28.324219 173.914062 27.882812 174.378906 27.882812 C 175.105469 27.882812 175.246094 28.785156 175.246094 28.851562 L 175.214844 29.007812 Z M 174.863281 33.253906 L 176.085938 28.324219 C 176.117188 28.191406 176.117188 28.148438 176.117188 28.148438 C 176.117188 27.992188 175.996094 27.871094 175.832031 27.871094 C 175.566406 27.871094 175.414062 28.09375 175.378906 28.390625 C 175.234375 28.070312 174.929688 27.664062 174.378906 27.664062 C 173.179688 27.664062 171.8125 29.171875 171.8125 30.808594 C 171.8125 31.957031 172.507812 32.515625 173.210938 32.515625 C 173.796875 32.515625 174.3125 32.054688 174.511719 31.832031 C 174.324219 32.570312 174.324219 32.59375 174.269531 32.824219 C 174.113281 33.429688 174.046875 33.707031 173.652344 34.089844 C 173.203125 34.542969 172.78125 34.542969 172.539062 34.542969 C 172.210938 34.542969 171.933594 34.519531 171.660156 34.429688 C 172.011719 34.332031 172.097656 34.023438 172.097656 33.902344 C 172.097656 33.726562 171.96875 33.550781 171.726562 33.550781 C 171.460938 33.550781 171.175781 33.769531 171.175781 34.132812 C 171.175781 34.585938 171.625 34.761719 172.5625 34.761719 C 173.984375 34.761719 174.71875 33.847656 174.863281 33.253906 Z M 174.863281 33.253906 "/>
<path style=" stroke:none;fill-rule:evenodd;fill:rgb(0%,0%,0%);fill-opacity:1;" d="M 137.5 22 C 137.5 21.601562 137.34375 21.21875 137.0625 20.9375 C 136.78125 20.65625 136.398438 20.5 136 20.5 C 135.601562 20.5 135.21875 20.65625 134.9375 20.9375 C 134.65625 21.21875 134.5 21.601562 134.5 22 C 134.5 22.398438 134.65625 22.78125 134.9375 23.0625 C 135.21875 23.34375 135.601562 23.5 136 23.5 C 136.398438 23.5 136.78125 23.34375 137.0625 23.0625 C 137.34375 22.78125 137.5 22.398438 137.5 22 Z M 137.5 22 "/>
<path style=" stroke:none;fill-rule:evenodd;fill:rgb(0%,0%,0%);fill-opacity:1;" d="M 135.316406 34.441406 C 135.316406 34.332031 135.226562 34.332031 135.0625 34.332031 C 134.546875 34.332031 134.511719 34.253906 134.511719 34.167969 C 134.511719 34.113281 134.523438 34.101562 134.558594 33.957031 L 136.085938 27.773438 C 136.085938 27.71875 136.042969 27.671875 135.988281 27.671875 C 135.898438 27.671875 135.46875 28.070312 135.261719 28.453125 C 135.0625 27.960938 134.722656 27.664062 134.25 27.664062 C 133.003906 27.664062 131.664062 29.269531 131.664062 30.898438 C 131.664062 31.988281 132.300781 32.625 133.046875 32.625 C 133.632812 32.625 134.117188 32.1875 134.347656 31.933594 L 134.359375 31.945312 L 133.941406 33.59375 L 133.839844 33.992188 C 133.742188 34.320312 133.578125 34.320312 133.058594 34.332031 C 132.9375 34.332031 132.828125 34.332031 132.828125 34.542969 C 132.828125 34.617188 132.894531 34.652344 132.972656 34.652344 C 133.125 34.652344 133.324219 34.628906 133.476562 34.628906 L 134.601562 34.628906 C 134.765625 34.628906 134.953125 34.652344 135.117188 34.652344 C 135.183594 34.652344 135.316406 34.652344 135.316406 34.441406 Z M 134.535156 31.207031 C 134.480469 31.394531 134.480469 31.417969 134.324219 31.625 C 134.082031 31.933594 133.597656 32.40625 133.082031 32.40625 C 132.628906 32.40625 132.375 32 132.375 31.351562 C 132.375 30.742188 132.71875 29.511719 132.929688 29.050781 C 133.300781 28.28125 133.820312 27.882812 134.25 27.882812 C 134.972656 27.882812 135.117188 28.785156 135.117188 28.875 C 135.117188 28.875 135.085938 29.027344 135.074219 29.050781 Z M 134.535156 31.207031 "/>
<path style=" stroke:none;fill-rule:evenodd;fill:rgb(0%,0%,0%);fill-opacity:1;" d="M 139.449219 34.117188 L 139.449219 33.863281 L 139.183594 33.863281 C 138.457031 33.863281 138.433594 33.773438 138.433594 33.488281 L 138.433594 29.25 C 138.433594 29.042969 138.417969 29.035156 138.210938 29.035156 C 137.898438 29.339844 137.492188 29.523438 136.765625 29.523438 L 136.765625 29.773438 C 136.972656 29.773438 137.386719 29.773438 137.828125 29.570312 L 137.828125 33.488281 C 137.828125 33.773438 137.808594 33.863281 137.082031 33.863281 L 136.8125 33.863281 L 136.8125 34.117188 C 137.125 34.09375 137.785156 34.09375 138.128906 34.09375 C 138.472656 34.09375 139.136719 34.09375 139.449219 34.117188 Z M 139.449219 34.117188 "/>
<path style=" stroke:none;fill-rule:evenodd;fill:rgb(0%,0%,0%);fill-opacity:1;" d="M 213.5 22 C 213.5 21.601562 213.34375 21.21875 213.0625 20.9375 C 212.78125 20.65625 212.398438 20.5 212 20.5 C 211.601562 20.5 211.21875 20.65625 210.9375 20.9375 C 210.65625 21.21875 210.5 21.601562 210.5 22 C 210.5 22.398438 210.65625 22.78125 210.9375 23.0625 C 211.21875 23.34375 211.601562 23.5 212 23.5 C 212.398438 23.5 212.78125 23.34375 213.0625 23.0625 C 213.34375 22.78125 213.5 22.398438 213.5 22 Z M 213.5 22 "/>
<path style=" stroke:none;fill-rule:evenodd;fill:rgb(0%,0%,0%);fill-opacity:1;" d="M 204.769531 29.488281 C 204.769531 28.445312 204.089844 27.660156 203.085938 27.660156 C 201.632812 27.660156 200.203125 29.246094 200.203125 30.796875 C 200.203125 31.84375 200.882812 32.625 201.886719 32.625 C 203.351562 32.625 204.769531 31.039062 204.769531 29.488281 Z M 204.03125 29.09375 C 204.03125 29.535156 203.800781 30.710938 203.382812 31.382812 C 202.933594 32.117188 202.328125 32.40625 201.898438 32.40625 C 201.347656 32.40625 200.941406 31.964844 200.941406 31.195312 C 200.941406 30.6875 201.203125 29.566406 201.511719 29.015625 C 202.007812 28.167969 202.625 27.882812 203.074219 27.882812 C 203.613281 27.882812 204.03125 28.324219 204.03125 29.09375 Z M 204.03125 29.09375 "/>
<path style=" stroke:none;fill-rule:evenodd;fill:rgb(0%,0%,0%);fill-opacity:1;" d="M 209.667969 32.289062 C 209.742188 31.976562 209.835938 31.617188 209.835938 31.320312 C 209.835938 31.105469 209.789062 30.921875 209.652344 30.804688 C 209.605469 30.769531 209.539062 30.746094 209.46875 30.746094 C 209.371094 30.746094 209.261719 30.792969 209.179688 30.882812 C 209.109375 30.960938 209.070312 31.050781 209.070312 31.136719 C 209.070312 31.21875 209.101562 31.296875 209.171875 31.351562 C 209.363281 31.5 209.46875 31.730469 209.46875 31.992188 C 209.46875 32.074219 209.453125 32.160156 209.4375 32.242188 C 209.261719 32.925781 208.789062 33.605469 208.1875 33.605469 C 207.773438 33.605469 207.503906 33.351562 207.414062 32.992188 C 207.519531 32.769531 207.605469 32.527344 207.65625 32.289062 C 207.671875 32.234375 207.679688 32.175781 207.679688 32.121094 C 207.679688 31.984375 207.628906 31.875 207.5 31.875 C 207.34375 31.875 207.230469 32.058594 207.191406 32.242188 C 207.125 32.496094 207.09375 32.742188 207.101562 32.964844 C 206.839844 33.335938 206.464844 33.605469 206.058594 33.605469 C 205.585938 33.605469 205.355469 33.214844 205.355469 32.726562 C 205.355469 32.589844 205.371094 32.441406 205.410156 32.289062 C 205.527344 31.847656 205.792969 31.425781 206.097656 31.035156 C 206.121094 31 206.136719 30.960938 206.136719 30.929688 C 206.136719 30.875 206.105469 30.828125 206.058594 30.800781 C 206.035156 30.785156 206.015625 30.777344 205.984375 30.777344 C 205.929688 30.777344 205.871094 30.804688 205.832031 30.851562 C 205.511719 31.289062 205.304688 31.761719 205.183594 32.242188 C 205.113281 32.511719 205.074219 32.769531 205.074219 33.023438 C 205.074219 33.679688 205.335938 34.191406 205.960938 34.191406 C 206.441406 34.191406 206.847656 33.878906 207.160156 33.4375 C 207.277344 33.886719 207.574219 34.191406 208.078125 34.191406 C 208.890625 34.191406 209.4375 33.222656 209.667969 32.289062 Z M 209.667969 32.289062 "/>
<path style=" stroke:none;fill-rule:nonzero;fill:rgb(66.666667%,0%,0%);fill-opacity:1;" d="M 202 133.644531 L 211.742188 133.644531 L 192.40625 131.953125 Z M 202 133.644531 "/>
<path style=" stroke:none;fill-rule:evenodd;fill:rgb(66.666667%,0%,0%);fill-opacity:1;" d="M 217.027344 149.375 C 217.027344 149.332031 217.003906 149.261719 216.984375 149.230469 L 213.308594 141.796875 C 213.234375 141.640625 213.210938 141.597656 213.054688 141.597656 C 212.890625 141.597656 212.871094 141.640625 212.792969 141.796875 L 209.117188 149.230469 C 209.097656 149.261719 209.074219 149.332031 209.074219 149.375 C 209.074219 149.441406 209.085938 149.449219 209.304688 149.449219 L 216.796875 149.449219 C 217.015625 149.449219 217.027344 149.441406 217.027344 149.375 Z M 215.71875 148.691406 L 209.722656 148.691406 L 212.714844 142.609375 Z M 215.71875 148.691406 "/>
<path style=" stroke:none;fill-rule:evenodd;fill:rgb(66.666667%,0%,0%);fill-opacity:1;" d="M 222.179688 149.222656 C 222.257812 148.914062 222.347656 148.554688 222.347656 148.253906 C 222.347656 148.039062 222.304688 147.859375 222.164062 147.742188 C 222.117188 147.703125 222.050781 147.679688 221.980469 147.679688 C 221.882812 147.679688 221.773438 147.726562 221.691406 147.820312 C 221.621094 147.894531 221.585938 147.988281 221.585938 148.070312 C 221.585938 148.15625 221.617188 148.230469 221.683594 148.285156 C 221.875 148.4375 221.980469 148.667969 221.980469 148.925781 C 221.980469 149.011719 221.964844 149.09375 221.953125 149.179688 C 221.773438 149.859375 221.300781 150.539062 220.699219 150.539062 C 220.285156 150.539062 220.015625 150.285156 219.925781 149.925781 C 220.03125 149.707031 220.117188 149.460938 220.171875 149.222656 C 220.1875 149.171875 220.195312 149.109375 220.195312 149.058594 C 220.195312 148.921875 220.140625 148.8125 220.011719 148.8125 C 219.859375 148.8125 219.742188 148.996094 219.703125 149.179688 C 219.636719 149.429688 219.605469 149.675781 219.613281 149.898438 C 219.351562 150.269531 218.980469 150.539062 218.574219 150.539062 C 218.101562 150.539062 217.871094 150.148438 217.871094 149.660156 C 217.871094 149.523438 217.886719 149.378906 217.925781 149.222656 C 218.039062 148.78125 218.308594 148.363281 218.613281 147.972656 C 218.636719 147.933594 218.652344 147.894531 218.652344 147.867188 C 218.652344 147.8125 218.621094 147.765625 218.574219 147.734375 C 218.550781 147.71875 218.527344 147.710938 218.496094 147.710938 C 218.445312 147.710938 218.382812 147.742188 218.34375 147.789062 C 218.023438 148.226562 217.816406 148.699219 217.695312 149.179688 C 217.628906 149.445312 217.589844 149.707031 217.589844 149.957031 C 217.589844 150.613281 217.847656 151.128906 218.476562 151.128906 C 218.957031 151.128906 219.359375 150.8125 219.671875 150.371094 C 219.789062 150.820312 220.085938 151.128906 220.589844 151.128906 C 221.402344 151.128906 221.953125 150.15625 222.179688 149.222656 Z M 222.179688 149.222656 "/>
<path style="fill:none;stroke-width:1;stroke-linecap:square;stroke-linejoin:miter;stroke:rgb(66.666667%,0%,0%);stroke-opacity:1;stroke-miterlimit:3.25;" d="M 202 133.644531 L 207.570312 139.214844 "/>
</g>
</svg>
