<?xml version="1.0" encoding="UTF-8"?>
<svg xmlns="http://www.w3.org/2000/svg" xmlns:xlink="http://www.w3.org/1999/xlink" width="404pt" height="156pt" viewBox="0 0 404 156" version="1.1">
<g id="surface62">
<path style="fill-rule:nonzero;fill:rgb(100%,100%,86.999313%);fill-opacity:1;stroke-width:1;stroke-linecap:square;stroke-linejoin:miter;stroke:rgb(0%,0%,0%);stroke-opacity:1;stroke-miterlimit:3.25;" d="M 134.769531 121.789062 L 134.777344 121.75 L 135.53125 117.90625 L 136.457031 114.128906 L 137.539062 110.433594 L 138.78125 106.820312 L 140.179688 103.296875 L 141.726562 99.871094 L 143.421875 96.546875 L 145.257812 93.335938 L 147.226562 90.238281 L 149.332031 87.261719 L 151.5625 84.410156 L 153.914062 81.691406 L 156.382812 79.113281 L 158.957031 76.671875 L 161.640625 74.378906 L 164.417969 72.238281 L 167.285156 70.253906 L 170.238281 68.425781 L 173.269531 66.761719 L 176.367188 65.265625 L 179.53125 63.9375 L 182.753906 62.785156 L 186.023438 61.804688 L 189.332031 61.003906 L 192.671875 60.386719 L 196.035156 59.960938 L 199.40625 59.71875 L 202.785156 59.671875 L 206.164062 59.808594 L 209.53125 60.136719 L 212.882812 60.652344 L 216.210938 61.351562 L 219.503906 62.238281 L 222.75 63.300781 L 225.945312 64.535156 L 229.082031 65.941406 L 232.152344 67.515625 L 235.144531 69.257812 L 238.058594 71.15625 L 240.886719 73.214844 L 243.621094 75.429688 L 246.253906 77.789062 L 248.78125 80.296875 L 251.195312 82.941406 L 253.492188 85.722656 L 255.664062 88.632812 L 257.707031 91.664062 L 259.617188 94.816406 L 261.386719 98.082031 L 263.011719 101.453125 L 264.488281 104.925781 L 265.816406 108.488281 L 266.984375 112.144531 L 267.992188 115.878906 L 268.839844 119.6875 L 269.519531 123.5625 L 270.027344 127.5 L 270.160156 127.605469 L 270.300781 127.714844 L 270.449219 127.828125 L 270.601562 127.941406 L 270.761719 128.058594 L 270.929688 128.179688 L 271.105469 128.300781 L 271.289062 128.421875 L 271.476562 128.550781 L 271.675781 128.675781 L 271.878906 128.804688 L 272.089844 128.9375 L 272.3125 129.066406 L 272.539062 129.199219 L 272.773438 129.332031 L 273.019531 129.46875 L 273.269531 129.601562 L 273.527344 129.738281 L 273.792969 129.875 L 274.070312 130.011719 L 274.351562 130.148438 L 274.640625 130.28125 L 274.941406 130.417969 L 275.25 130.554688 L 275.5625 130.6875 L 275.886719 130.820312 L 276.21875 130.953125 L 276.558594 131.085938 L 276.90625 131.214844 L 277.261719 131.34375 L 277.625 131.46875 L 277.996094 131.59375 L 278.378906 131.71875 L 278.765625 131.839844 L 279.164062 131.957031 L 279.570312 132.074219 L 279.984375 132.1875 L 280.402344 132.296875 L 280.835938 132.402344 L 281.273438 132.507812 L 281.71875 132.605469 L 282.171875 132.703125 L 282.636719 132.796875 L 283.105469 132.886719 L 283.585938 132.972656 L 284.070312 133.050781 L 284.566406 133.128906 L 285.066406 133.199219 L 285.578125 133.265625 L 286.097656 133.328125 L 286.621094 133.386719 L 287.15625 133.4375 L 287.699219 133.484375 L 288.246094 133.523438 L 288.804688 133.558594 L 289.367188 133.589844 L 289.964844 133.613281 L 290.597656 133.628906 L 291.230469 133.640625 L 291.863281 133.644531 L 381.726562 133.644531 L 381.519531 129.691406 L 381.21875 125.785156 L 380.820312 121.933594 L 380.328125 118.128906 L 379.746094 114.386719 L 379.078125 110.699219 L 378.324219 107.078125 L 377.488281 103.519531 L 376.574219 100.03125 L 375.585938 96.613281 L 374.523438 93.269531 L 373.394531 89.996094 L 372.199219 86.804688 L 370.941406 83.691406 L 369.628906 80.660156 L 368.257812 77.710938 L 366.839844 74.847656 L 365.371094 72.070312 L 363.863281 69.382812 L 362.3125 66.78125 L 360.730469 64.269531 L 359.117188 61.847656 L 357.476562 59.515625 L 355.8125 57.277344 L 354.128906 55.132812 L 352.4375 53.078125 L 350.738281 51.125 L 349.039062 49.269531 L 347.347656 47.511719 L 345.707031 45.894531 L 211.847656 22.292969 L 109.957031 22.316406 L 108.382812 22.398438 L 106.777344 22.523438 L 105.140625 22.691406 L 103.472656 22.910156 L 101.773438 23.171875 L 100.046875 23.484375 L 98.292969 23.851562 L 96.515625 24.269531 L 94.710938 24.742188 L 92.886719 25.269531 L 91.039062 25.855469 L 89.175781 26.5 L 87.292969 27.203125 L 85.394531 27.96875 L 83.484375 28.796875 L 81.566406 29.691406 L 79.636719 30.648438 L 77.699219 31.671875 L 75.757812 32.761719 L 73.8125 33.917969 L 71.867188 35.144531 L 69.921875 36.441406 L 67.984375 37.808594 L 66.050781 39.242188 L 64.125 40.75 L 62.445312 42.136719 L 60.792969 43.574219 L 59.121094 45.105469 L 57.441406 46.726562 L 55.75 48.441406 L 54.050781 50.25 L 52.351562 52.160156 L 50.65625 54.164062 L 48.96875 56.269531 L 47.296875 58.464844 L 45.644531 60.75 L 44.015625 63.128906 L 42.417969 65.601562 L 40.855469 68.160156 L 39.324219 70.808594 L 37.839844 73.546875 L 36.394531 76.371094 L 35.003906 79.277344 L 33.664062 82.273438 L 32.378906 85.347656 L 31.152344 88.503906 L 29.992188 91.738281 L 28.898438 95.046875 L 27.875 98.433594 L 26.925781 101.890625 L 26.714844 102.738281 Z M 134.769531 121.789062 "/>
<path style=" stroke:none;fill-rule:evenodd;fill:rgb(0%,0%,0%);fill-opacity:1;" d="M 101.683594 78.191406 C 101.683594 77.730469 101.574219 77.324219 101.160156 76.921875 C 100.929688 76.691406 100.730469 76.636719 99.722656 76.371094 C 98.988281 76.175781 98.890625 76.144531 98.691406 75.96875 C 98.507812 75.78125 98.363281 75.519531 98.363281 75.144531 C 98.363281 74.226562 99.296875 73.28125 100.335938 73.28125 C 101.410156 73.28125 101.914062 73.9375 101.914062 74.980469 C 101.914062 75.265625 101.859375 75.5625 101.859375 75.605469 C 101.859375 75.703125 101.949219 75.703125 101.980469 75.703125 C 102.078125 75.703125 102.089844 75.671875 102.132812 75.496094 L 102.726562 73.085938 C 102.726562 72.984375 102.628906 72.984375 102.628906 72.984375 C 102.582031 72.984375 102.574219 72.996094 102.441406 73.164062 L 101.914062 73.820312 C 101.550781 73.109375 100.832031 72.984375 100.371094 72.984375 C 98.976562 72.984375 97.71875 74.257812 97.71875 75.496094 C 97.71875 76.316406 98.210938 76.800781 98.746094 76.988281 C 98.867188 77.03125 99.515625 77.207031 99.84375 77.28125 C 100.402344 77.433594 100.542969 77.480469 100.777344 77.722656 C 100.820312 77.777344 101.039062 78.027344 101.039062 78.542969 C 101.039062 79.5625 100.097656 80.613281 99 80.613281 C 98.101562 80.613281 97.101562 80.230469 97.101562 79.003906 C 97.101562 78.796875 97.148438 78.53125 97.179688 78.421875 C 97.179688 78.386719 97.191406 78.3125 97.191406 78.3125 C 97.191406 78.269531 97.171875 78.214844 97.082031 78.214844 C 96.984375 78.214844 96.972656 78.234375 96.929688 78.421875 L 96.371094 80.667969 L 96.328125 80.832031 C 96.328125 80.929688 96.4375 80.929688 96.4375 80.929688 C 96.480469 80.929688 96.492188 80.921875 96.621094 80.757812 L 97.125 80.097656 C 97.390625 80.492188 97.957031 80.929688 98.976562 80.929688 C 100.390625 80.929688 101.683594 79.5625 101.683594 78.191406 Z M 101.683594 78.191406 "/>
<path style=" stroke:none;fill-rule:evenodd;fill:rgb(0%,0%,0%);fill-opacity:1;" d="M 107.101562 80.46875 C 107.179688 80.152344 107.269531 79.792969 107.269531 79.492188 C 107.269531 79.28125 107.226562 79.09375 107.085938 78.980469 C 107.039062 78.941406 106.972656 78.917969 106.902344 78.917969 C 106.804688 78.917969 106.695312 78.964844 106.609375 79.054688 C 106.542969 79.132812 106.503906 79.226562 106.503906 79.308594 C 106.503906 79.394531 106.535156 79.46875 106.601562 79.523438 C 106.796875 79.679688 106.902344 79.90625 106.902344 80.167969 C 106.902344 80.253906 106.886719 80.335938 106.871094 80.421875 C 106.695312 81.105469 106.21875 81.789062 105.613281 81.789062 C 105.199219 81.789062 104.929688 81.535156 104.839844 81.171875 C 104.945312 80.953125 105.03125 80.707031 105.085938 80.46875 C 105.101562 80.414062 105.109375 80.351562 105.109375 80.300781 C 105.109375 80.160156 105.054688 80.054688 104.921875 80.054688 C 104.769531 80.054688 104.65625 80.238281 104.617188 80.421875 C 104.546875 80.675781 104.515625 80.921875 104.523438 81.144531 C 104.265625 81.519531 103.886719 81.789062 103.480469 81.789062 C 103.003906 81.789062 102.773438 81.398438 102.773438 80.90625 C 102.773438 80.765625 102.789062 80.621094 102.828125 80.46875 C 102.941406 80.023438 103.210938 79.601562 103.519531 79.210938 C 103.542969 79.171875 103.558594 79.132812 103.558594 79.101562 C 103.558594 79.046875 103.527344 79.003906 103.480469 78.972656 C 103.457031 78.957031 103.433594 78.949219 103.402344 78.949219 C 103.347656 78.949219 103.289062 78.980469 103.25 79.027344 C 102.925781 79.460938 102.722656 79.9375 102.597656 80.421875 C 102.527344 80.691406 102.492188 80.953125 102.492188 81.203125 C 102.492188 81.863281 102.75 82.378906 103.378906 82.378906 C 103.863281 82.378906 104.273438 82.0625 104.585938 81.617188 C 104.699219 82.070312 105 82.378906 105.507812 82.378906 C 106.320312 82.378906 106.871094 81.40625 107.101562 80.46875 Z M 107.101562 80.46875 "/>
<path style=" stroke:none;fill-rule:evenodd;fill:rgb(0%,0%,0%);fill-opacity:1;" d="M 203.5 134 C 203.5 133.601562 203.34375 133.21875 203.0625 132.9375 C 202.78125 132.65625 202.398438 132.5 202 132.5 C 201.601562 132.5 201.21875 132.65625 200.9375 132.9375 C 200.65625 133.21875 200.5 133.601562 200.5 134 C 200.5 134.398438 200.65625 134.78125 200.9375 135.0625 C 201.21875 135.34375 201.601562 135.5 202 135.5 C 202.398438 135.5 202.78125 135.34375 203.0625 135.0625 C 203.34375 134.78125 203.5 134.398438 203.5 134 Z M 203.5 134 "/>
<path style=" stroke:none;fill-rule:evenodd;fill:rgb(0%,0%,0%);fill-opacity:1;" d="M 200.957031 139.085938 C 200.957031 137.277344 199.773438 136.171875 198.238281 136.171875 C 195.894531 136.171875 193.527344 138.691406 193.527344 141.222656 C 193.527344 142.945312 194.664062 144.117188 196.253906 144.117188 C 198.554688 144.117188 200.957031 141.71875 200.957031 139.085938 Z M 200.078125 138.691406 C 200.078125 139.667969 199.660156 141.191406 198.929688 142.230469 C 198.128906 143.347656 197.132812 143.863281 196.320312 143.863281 C 195.421875 143.863281 194.46875 143.207031 194.46875 141.496094 C 194.46875 140.5 194.828125 138.867188 195.730469 137.769531 C 196.527344 136.808594 197.449219 136.414062 198.183594 136.414062 C 199.148438 136.414062 200.078125 137.113281 200.078125 138.691406 Z M 200.078125 138.691406 "/>
<path style="fill:none;stroke-width:1;stroke-linecap:butt;stroke-linejoin:miter;stroke:rgb(0%,0%,0%);stroke-opacity:1;stroke-dasharray:1,4;stroke-miterlimit:3.25;" d="M -404 231.097656 L 260.910156 113.855469 "/>
<path style="fill:none;stroke-width:1;stroke-linecap:butt;stroke-linejoin:miter;stroke:rgb(0%,0%,0%);stroke-opacity:1;stroke-dasharray:1,4;stroke-miterlimit:3.25;" d="M -404 231.097656 L 260.910156 113.855469 "/>
<path style=" stroke:none;fill-rule:nonzero;fill:rgb(0%,0%,0%);fill-opacity:1;" d="M 260.910156 113.855469 L 260.824219 113.769531 L 261.316406 113.277344 L 261.402344 113.769531 Z M 260.910156 113.855469 "/>
<path style="fill:none;stroke-width:1;stroke-linecap:butt;stroke-linejoin:miter;stroke:rgb(0%,0%,0%);stroke-opacity:1;stroke-dasharray:1,4;stroke-miterlimit:3.25;" d="M 295.832031 311.917969 L 260.910156 113.855469 "/>
<path style="fill:none;stroke-width:1;stroke-linecap:butt;stroke-linejoin:miter;stroke:rgb(0%,0%,0%);stroke-opacity:1;stroke-dasharray:1,4;stroke-miterlimit:3.25;" d="M 295.832031 311.917969 L 260.910156 113.855469 "/>
<path style="fill:none;stroke-width:1;stroke-linecap:butt;stroke-linejoin:miter;stroke:rgb(0%,0%,0%);stroke-opacity:1;stroke-dasharray:1,4;stroke-miterlimit:3.25;" d="M -404 112.355469 L 355.765625 -21.613281 "/>
<path style="fill:none;stroke-width:1;stroke-linecap:butt;stroke-linejoin:miter;stroke:rgb(0%,0%,0%);stroke-opacity:1;stroke-dasharray:1,4;stroke-miterlimit:3.25;" d="M -404 112.355469 L 355.765625 -21.613281 "/>
<path style="fill:none;stroke-width:1;stroke-linecap:butt;stroke-linejoin:miter;stroke:rgb(0%,0%,0%);stroke-opacity:1;stroke-dasharray:1,4;stroke-miterlimit:3.25;" d="M 414.578125 311.917969 L 355.765625 -21.613281 "/>
<path style="fill:none;stroke-width:1;stroke-linecap:butt;stroke-linejoin:miter;stroke:rgb(0%,0%,0%);stroke-opacity:1;stroke-dasharray:1,4;stroke-miterlimit:3.25;" d="M 414.578125 311.917969 L 355.765625 -21.613281 "/>
<path style=" stroke:none;fill-rule:evenodd;fill:rgb(0%,0%,0%);fill-opacity:1;" d="M 383.5 52 C 383.5 51.601562 383.34375 51.21875 383.0625 50.9375 C 382.78125 50.65625 382.398438 50.5 382 50.5 C 381.601562 50.5 381.21875 50.65625 380.9375 50.9375 C 380.65625 51.21875 380.5 51.601562 380.5 52 C 380.5 52.398438 380.65625 52.78125 380.9375 53.0625 C 381.21875 53.34375 381.601562 53.5 382 53.5 C 382.398438 53.5 382.78125 53.34375 383.0625 53.0625 C 383.34375 52.78125 383.5 52.398438 383.5 52 Z M 383.5 52 "/>
<path style=" stroke:none;fill-rule:evenodd;fill:rgb(0%,0%,0%);fill-opacity:1;" d="M 387.390625 43.3125 C 387.390625 42.964844 387.050781 42.65625 386.503906 42.65625 C 386.066406 42.65625 385.5625 42.855469 385.101562 43.523438 C 385.027344 42.941406 384.585938 42.65625 384.148438 42.65625 C 383.722656 42.65625 383.503906 42.984375 383.371094 43.226562 C 383.1875 43.621094 383.019531 44.277344 383.019531 44.332031 C 383.019531 44.378906 383.0625 44.433594 383.140625 44.433594 C 383.230469 44.433594 383.242188 44.421875 383.304688 44.167969 C 383.46875 43.511719 383.679688 42.875 384.117188 42.875 C 384.378906 42.875 384.457031 43.0625 384.457031 43.378906 C 384.457031 43.621094 384.347656 44.046875 384.269531 44.386719 L 383.960938 45.570312 L 383.742188 46.46875 C 383.667969 46.753906 383.546875 47.269531 383.546875 47.324219 C 383.546875 47.476562 383.667969 47.597656 383.832031 47.597656 C 383.953125 47.597656 384.160156 47.519531 384.226562 47.300781 C 384.257812 47.214844 384.664062 45.558594 384.730469 45.308594 C 384.785156 45.066406 384.847656 44.835938 384.902344 44.597656 L 385.027344 44.125 C 385.058594 44.027344 385.355469 43.492188 385.628906 43.25 C 385.757812 43.128906 386.042969 42.875 386.492188 42.875 C 386.667969 42.875 386.84375 42.910156 386.984375 43.007812 C 386.644531 43.074219 386.46875 43.3125 386.46875 43.554688 C 386.46875 43.820312 386.679688 43.90625 386.832031 43.90625 C 387.136719 43.90625 387.390625 43.644531 387.390625 43.3125 Z M 387.390625 43.3125 "/>
<path style="fill:none;stroke-width:1;stroke-linecap:butt;stroke-linejoin:miter;stroke:rgb(0%,0%,0%);stroke-opacity:1;stroke-dasharray:4,4;stroke-miterlimit:3.25;" d="M 211.742188 22.273438 L 381.726562 52.246094 L 381.726562 133.644531 "/>
<path style="fill:none;stroke-width:1;stroke-linecap:square;stroke-linejoin:miter;stroke:rgb(0%,66.666667%,0%);stroke-opacity:1;stroke-miterlimit:3.25;" d="M 305.714844 133.644531 L 381.726562 52.246094 "/>
<path style=" stroke:none;fill-rule:evenodd;fill:rgb(0%,66.666667%,0%);fill-opacity:1;" d="M 342.210938 88.1875 L 342.210938 87.871094 L 341.871094 87.871094 C 340.90625 87.871094 340.875 87.738281 340.875 87.34375 L 340.875 81.164062 C 340.875 80.914062 340.875 80.902344 340.65625 80.902344 C 340.390625 81.199219 339.84375 81.605469 338.714844 81.605469 L 338.714844 81.921875 C 338.96875 81.921875 339.515625 81.921875 340.117188 81.636719 L 340.117188 87.34375 C 340.117188 87.738281 340.085938 87.871094 339.121094 87.871094 L 338.78125 87.871094 L 338.78125 88.1875 C 339.078125 88.164062 340.140625 88.164062 340.5 88.164062 C 340.863281 88.164062 341.914062 88.164062 342.210938 88.1875 Z M 342.210938 88.1875 "/>
<path style="fill:none;stroke-width:1;stroke-linecap:square;stroke-linejoin:miter;stroke:rgb(0%,0%,100%);stroke-opacity:1;stroke-miterlimit:3.25;" d="M 381.726562 133.644531 L 305.714844 133.644531 "/>
<path style=" stroke:none;fill-rule:evenodd;fill:rgb(0%,0%,100%);fill-opacity:1;" d="M 344.664062 127.496094 C 344.621094 127.671875 344.597656 127.714844 344.457031 127.878906 C 344.003906 128.460938 343.546875 128.667969 343.207031 128.667969 C 342.84375 128.667969 342.503906 128.382812 342.503906 127.628906 C 342.503906 127.046875 342.832031 125.820312 343.074219 125.324219 C 343.394531 124.710938 343.886719 124.273438 344.347656 124.273438 C 345.070312 124.273438 345.210938 125.171875 345.210938 125.238281 L 345.179688 125.390625 Z M 344.828125 129.621094 L 346.046875 124.710938 C 346.078125 124.578125 346.078125 124.535156 346.078125 124.535156 C 346.078125 124.382812 345.957031 124.261719 345.792969 124.261719 C 345.527344 124.261719 345.375 124.480469 345.34375 124.777344 C 345.199219 124.460938 344.894531 124.054688 344.347656 124.054688 C 343.152344 124.054688 341.792969 125.554688 341.792969 127.1875 C 341.792969 128.328125 342.484375 128.886719 343.183594 128.886719 C 343.765625 128.886719 344.28125 128.425781 344.476562 128.207031 C 344.292969 128.941406 344.292969 128.964844 344.238281 129.191406 C 344.082031 129.796875 344.015625 130.070312 343.621094 130.453125 C 343.171875 130.902344 342.757812 130.902344 342.515625 130.902344 C 342.1875 130.902344 341.914062 130.882812 341.640625 130.792969 C 341.988281 130.695312 342.078125 130.390625 342.078125 130.269531 C 342.078125 130.09375 341.945312 129.917969 341.703125 129.917969 C 341.441406 129.917969 341.15625 130.136719 341.15625 130.5 C 341.15625 130.945312 341.605469 131.121094 342.539062 131.121094 C 343.949219 131.121094 344.683594 130.210938 344.828125 129.621094 Z M 344.828125 129.621094 "/>
<path style=" stroke:none;fill-rule:evenodd;fill:rgb(0%,0%,0%);fill-opacity:1;" d="M 383.5 134 C 383.5 133.601562 383.34375 133.21875 383.0625 132.9375 C 382.78125 132.65625 382.398438 132.5 382 132.5 C 381.601562 132.5 381.21875 132.65625 380.9375 132.9375 C 380.65625 133.21875 380.5 133.601562 380.5 134 C 380.5 134.398438 380.65625 134.78125 380.9375 135.0625 C 381.21875 135.34375 381.601562 135.5 382 135.5 C 382.398438 135.5 382.78125 135.34375 383.0625 135.0625 C 383.34375 134.78125 383.5 134.398438 383.5 134 Z M 383.5 134 "/>
<path style=" stroke:none;fill-rule:evenodd;fill:rgb(0%,0%,0%);fill-opacity:1;" d="M 390.132812 138.304688 C 390.132812 138.195312 390.042969 138.195312 389.878906 138.195312 C 389.367188 138.195312 389.332031 138.117188 389.332031 138.03125 C 389.332031 137.976562 389.34375 137.964844 389.378906 137.824219 L 390.898438 131.664062 C 390.898438 131.609375 390.855469 131.566406 390.800781 131.566406 C 390.714844 131.566406 390.285156 131.960938 390.078125 132.34375 C 389.878906 131.851562 389.542969 131.554688 389.070312 131.554688 C 387.832031 131.554688 386.492188 133.152344 386.492188 134.777344 C 386.492188 135.859375 387.128906 136.496094 387.875 136.496094 C 388.457031 136.496094 388.9375 136.058594 389.167969 135.804688 L 389.179688 135.816406 L 388.761719 137.460938 L 388.664062 137.855469 C 388.566406 138.183594 388.402344 138.183594 387.886719 138.195312 C 387.765625 138.195312 387.65625 138.195312 387.65625 138.402344 C 387.65625 138.480469 387.722656 138.511719 387.796875 138.511719 C 387.953125 138.511719 388.148438 138.492188 388.300781 138.492188 L 389.421875 138.492188 C 389.585938 138.492188 389.769531 138.511719 389.933594 138.511719 C 390 138.511719 390.132812 138.511719 390.132812 138.304688 Z M 389.355469 135.082031 C 389.300781 135.269531 389.300781 135.292969 389.144531 135.5 C 388.90625 135.804688 388.425781 136.277344 387.910156 136.277344 C 387.460938 136.277344 387.207031 135.871094 387.207031 135.226562 C 387.207031 134.621094 387.546875 133.394531 387.753906 132.933594 C 388.128906 132.167969 388.644531 131.773438 389.070312 131.773438 C 389.792969 131.773438 389.933594 132.671875 389.933594 132.757812 C 389.933594 132.757812 389.902344 132.914062 389.890625 132.933594 Z M 389.355469 135.082031 "/>
<path style=" stroke:none;fill-rule:evenodd;fill:rgb(0%,0%,0%);fill-opacity:1;" d="M 394.621094 135.539062 C 394.621094 134.71875 394.535156 134.21875 394.28125 133.730469 C 393.945312 133.054688 393.324219 132.882812 392.902344 132.882812 C 391.933594 132.882812 391.582031 133.605469 391.472656 133.820312 C 391.199219 134.382812 391.183594 135.140625 391.183594 135.539062 C 391.183594 136.046875 391.207031 136.820312 391.574219 137.4375 C 391.929688 138.003906 392.496094 138.148438 392.902344 138.148438 C 393.269531 138.148438 393.929688 138.03125 394.3125 137.273438 C 394.597656 136.722656 394.621094 136.039062 394.621094 135.539062 Z M 393.9375 135.449219 C 393.9375 135.902344 393.9375 136.589844 393.84375 137.019531 C 393.683594 137.828125 393.15625 137.933594 392.902344 137.933594 C 392.640625 137.933594 392.109375 137.8125 391.949219 137.003906 C 391.867188 136.566406 391.867188 135.847656 391.867188 135.449219 C 391.867188 134.917969 391.867188 134.382812 391.949219 133.960938 C 392.109375 133.175781 392.710938 133.101562 392.902344 133.101562 C 393.164062 133.101562 393.691406 133.230469 393.84375 133.929688 C 393.9375 134.351562 393.9375 134.925781 393.9375 135.449219 Z M 393.9375 135.449219 "/>
<path style=" stroke:none;fill-rule:evenodd;fill:rgb(0%,0%,0%);fill-opacity:1;" d="M 307.5 134 C 307.5 133.601562 307.34375 133.21875 307.0625 132.9375 C 306.78125 132.65625 306.398438 132.5 306 132.5 C 305.601562 132.5 305.21875 132.65625 304.9375 132.9375 C 304.65625 133.21875 304.5 133.601562 304.5 134 C 304.5 134.398438 304.65625 134.78125 304.9375 135.0625 C 305.21875 135.34375 305.601562 135.5 306 135.5 C 306.398438 135.5 306.78125 135.34375 307.0625 135.0625 C 307.34375 134.78125 307.5 134.398438 307.5 134 Z M 307.5 134 "/>
<path style=" stroke:none;fill-rule:evenodd;fill:rgb(0%,0%,0%);fill-opacity:1;" d="M 290.316406 145.800781 C 290.316406 145.691406 290.226562 145.691406 290.0625 145.691406 C 289.546875 145.691406 289.515625 145.617188 289.515625 145.527344 C 289.515625 145.472656 289.527344 145.460938 289.558594 145.320312 L 291.082031 139.164062 C 291.082031 139.109375 291.035156 139.066406 290.980469 139.066406 C 290.894531 139.066406 290.46875 139.457031 290.257812 139.84375 C 290.0625 139.347656 289.722656 139.054688 289.25 139.054688 C 288.011719 139.054688 286.675781 140.652344 286.675781 142.273438 C 286.675781 143.359375 287.3125 143.992188 288.058594 143.992188 C 288.636719 143.992188 289.121094 143.554688 289.347656 143.304688 L 289.359375 143.3125 L 288.945312 144.957031 L 288.847656 145.351562 C 288.746094 145.679688 288.582031 145.679688 288.066406 145.691406 C 287.949219 145.691406 287.839844 145.691406 287.839844 145.898438 C 287.839844 145.976562 287.902344 146.007812 287.980469 146.007812 C 288.132812 146.007812 288.332031 145.988281 288.484375 145.988281 L 289.601562 145.988281 C 289.765625 145.988281 289.953125 146.007812 290.117188 146.007812 C 290.183594 146.007812 290.316406 146.007812 290.316406 145.800781 Z M 289.535156 142.582031 C 289.480469 142.765625 289.480469 142.789062 289.328125 142.996094 C 289.085938 143.304688 288.605469 143.773438 288.089844 143.773438 C 287.640625 143.773438 287.386719 143.367188 287.386719 142.722656 C 287.386719 142.121094 287.730469 140.894531 287.9375 140.433594 C 288.308594 139.667969 288.824219 139.273438 289.25 139.273438 C 289.972656 139.273438 290.117188 140.171875 290.117188 140.257812 C 290.117188 140.257812 290.082031 140.410156 290.074219 140.433594 Z M 289.535156 142.582031 "/>
<path style=" stroke:none;fill-rule:evenodd;fill:rgb(0%,0%,0%);fill-opacity:1;" d="M 294.800781 143.039062 C 294.800781 142.21875 294.714844 141.71875 294.464844 141.226562 C 294.125 140.550781 293.503906 140.382812 293.082031 140.382812 C 292.113281 140.382812 291.761719 141.105469 291.65625 141.320312 C 291.378906 141.878906 291.363281 142.640625 291.363281 143.039062 C 291.363281 143.542969 291.386719 144.320312 291.753906 144.933594 C 292.109375 145.5 292.675781 145.644531 293.082031 145.644531 C 293.449219 145.644531 294.109375 145.53125 294.492188 144.769531 C 294.777344 144.21875 294.800781 143.535156 294.800781 143.039062 Z M 294.117188 142.945312 C 294.117188 143.398438 294.117188 144.085938 294.027344 144.515625 C 293.863281 145.324219 293.335938 145.429688 293.082031 145.429688 C 292.820312 145.429688 292.292969 145.308594 292.128906 144.503906 C 292.046875 144.066406 292.046875 143.34375 292.046875 142.945312 C 292.046875 142.414062 292.046875 141.878906 292.128906 141.457031 C 292.292969 140.675781 292.890625 140.597656 293.082031 140.597656 C 293.34375 140.597656 293.871094 140.726562 294.027344 141.425781 C 294.117188 141.847656 294.117188 142.421875 294.117188 142.945312 Z M 294.117188 142.945312 "/>
<path style=" stroke:none;fill-rule:evenodd;fill:rgb(0%,0%,0%);fill-opacity:1;" d="M 305.652344 141.144531 C 305.652344 140.925781 305.445312 140.925781 305.292969 140.925781 L 299.320312 140.925781 C 299.167969 140.925781 298.957031 140.925781 298.957031 141.144531 C 298.957031 141.363281 299.167969 141.363281 299.320312 141.363281 L 305.292969 141.363281 C 305.445312 141.363281 305.652344 141.363281 305.652344 141.144531 Z M 305.652344 141.144531 "/>
<path style=" stroke:none;fill-rule:evenodd;fill:rgb(0%,0%,0%);fill-opacity:1;" d="M 312.652344 142.492188 C 312.609375 142.667969 312.585938 142.710938 312.445312 142.875 C 311.996094 143.457031 311.535156 143.664062 311.195312 143.664062 C 310.832031 143.664062 310.496094 143.378906 310.496094 142.625 C 310.496094 142.042969 310.824219 140.816406 311.0625 140.324219 C 311.382812 139.710938 311.875 139.273438 312.335938 139.273438 C 313.058594 139.273438 313.199219 140.171875 313.199219 140.234375 L 313.167969 140.390625 Z M 312.816406 144.617188 L 314.035156 139.710938 C 314.066406 139.578125 314.066406 139.535156 314.066406 139.535156 C 314.066406 139.382812 313.945312 139.261719 313.78125 139.261719 C 313.519531 139.261719 313.363281 139.480469 313.332031 139.773438 C 313.191406 139.457031 312.882812 139.054688 312.335938 139.054688 C 311.140625 139.054688 309.78125 140.554688 309.78125 142.1875 C 309.78125 143.324219 310.472656 143.882812 311.171875 143.882812 C 311.753906 143.882812 312.269531 143.421875 312.464844 143.203125 C 312.28125 143.9375 312.28125 143.960938 312.226562 144.191406 C 312.070312 144.792969 312.003906 145.066406 311.613281 145.453125 C 311.160156 145.898438 310.746094 145.898438 310.503906 145.898438 C 310.175781 145.898438 309.902344 145.878906 309.628906 145.789062 C 309.980469 145.691406 310.066406 145.386719 310.066406 145.265625 C 310.066406 145.089844 309.933594 144.914062 309.695312 144.914062 C 309.433594 144.914062 309.144531 145.132812 309.144531 145.496094 C 309.144531 145.945312 309.597656 146.117188 310.527344 146.117188 C 311.941406 146.117188 312.675781 145.210938 312.816406 144.617188 Z M 312.816406 144.617188 "/>
<path style=" stroke:none;fill-rule:evenodd;fill:rgb(0%,0%,0%);fill-opacity:1;" d="M 320.332031 142.316406 C 320.332031 142.261719 320.289062 142.21875 320.222656 142.21875 C 320.125 142.21875 320.113281 142.273438 320.070312 142.4375 C 319.875 143.195312 319.675781 143.773438 319.238281 143.773438 C 318.910156 143.773438 318.910156 143.414062 318.910156 143.269531 C 318.910156 143.019531 318.941406 142.910156 319.050781 142.449219 L 319.269531 141.550781 L 319.722656 139.765625 C 319.796875 139.492188 319.796875 139.46875 319.796875 139.4375 C 319.796875 139.273438 319.667969 139.164062 319.503906 139.164062 C 319.183594 139.164062 319.105469 139.4375 319.042969 139.710938 L 318.261719 142.875 C 318.261719 142.875 317.824219 143.773438 317.027344 143.773438 C 316.457031 143.773438 316.347656 143.28125 316.347656 142.875 C 316.347656 142.25 316.652344 141.375 316.9375 140.640625 C 317.070312 140.292969 317.125 140.148438 317.125 139.929688 C 317.125 139.457031 316.785156 139.054688 316.257812 139.054688 C 315.25 139.054688 314.84375 140.640625 314.84375 140.726562 C 314.84375 140.773438 314.886719 140.828125 314.964844 140.828125 C 315.066406 140.828125 315.074219 140.785156 315.121094 140.628906 C 315.382812 139.6875 315.808594 139.273438 316.226562 139.273438 C 316.335938 139.273438 316.511719 139.285156 316.511719 139.632812 C 316.511719 139.917969 316.390625 140.234375 316.226562 140.652344 C 315.742188 141.957031 315.6875 142.371094 315.6875 142.703125 C 315.6875 143.820312 316.53125 143.992188 316.980469 143.992188 C 317.683594 143.992188 318.066406 143.511719 318.285156 143.25 C 318.425781 143.863281 318.953125 143.992188 319.214844 143.992188 C 319.566406 143.992188 319.832031 143.765625 320.003906 143.390625 C 320.191406 142.996094 320.332031 142.351562 320.332031 142.316406 Z M 320.332031 142.316406 "/>
<path style=" stroke:none;fill-rule:evenodd;fill:rgb(0%,0%,0%);fill-opacity:1;" d="M 324.402344 143.039062 C 324.402344 142.21875 324.316406 141.71875 324.0625 141.226562 C 323.726562 140.550781 323.105469 140.382812 322.683594 140.382812 C 321.714844 140.382812 321.363281 141.105469 321.253906 141.320312 C 320.980469 141.878906 320.964844 142.640625 320.964844 143.039062 C 320.964844 143.542969 320.988281 144.320312 321.355469 144.933594 C 321.707031 145.5 322.277344 145.644531 322.683594 145.644531 C 323.050781 145.644531 323.710938 145.53125 324.09375 144.769531 C 324.378906 144.21875 324.402344 143.535156 324.402344 143.039062 Z M 323.71875 142.945312 C 323.71875 143.398438 323.71875 144.085938 323.625 144.515625 C 323.464844 145.324219 322.933594 145.429688 322.683594 145.429688 C 322.421875 145.429688 321.890625 145.308594 321.730469 144.503906 C 321.644531 144.066406 321.644531 143.34375 321.644531 142.945312 C 321.644531 142.414062 321.644531 141.878906 321.730469 141.457031 C 321.890625 140.675781 322.488281 140.597656 322.683594 140.597656 C 322.941406 140.597656 323.472656 140.726562 323.625 141.425781 C 323.71875 141.847656 323.71875 142.421875 323.71875 142.945312 Z M 323.71875 142.945312 "/>
<path style="fill:none;stroke-width:1;stroke-linecap:square;stroke-linejoin:miter;stroke:rgb(0%,0%,100%);stroke-opacity:1;stroke-miterlimit:3.25;" d="M 135.730469 22.273438 L 211.742188 22.273438 "/>
<path style=" stroke:none;fill-rule:evenodd;fill:rgb(0%,0%,100%);fill-opacity:1;" d="M 174.679688 31.125 C 174.636719 31.300781 174.617188 31.34375 174.472656 31.507812 C 174.023438 32.089844 173.5625 32.296875 173.222656 32.296875 C 172.863281 32.296875 172.523438 32.011719 172.523438 31.257812 C 172.523438 30.675781 172.851562 29.449219 173.09375 28.953125 C 173.410156 28.339844 173.902344 27.902344 174.363281 27.902344 C 175.085938 27.902344 175.230469 28.800781 175.230469 28.867188 L 175.195312 29.019531 Z M 174.84375 33.25 L 176.0625 28.339844 C 176.09375 28.210938 176.09375 28.164062 176.09375 28.164062 C 176.09375 28.011719 175.976562 27.890625 175.808594 27.890625 C 175.546875 27.890625 175.394531 28.109375 175.359375 28.40625 C 175.21875 28.089844 174.910156 27.683594 174.363281 27.683594 C 173.167969 27.683594 171.808594 29.183594 171.808594 30.816406 C 171.808594 31.957031 172.5 32.515625 173.203125 32.515625 C 173.78125 32.515625 174.296875 32.054688 174.496094 31.835938 C 174.308594 32.570312 174.308594 32.59375 174.253906 32.824219 C 174.101562 33.425781 174.035156 33.699219 173.640625 34.082031 C 173.191406 34.53125 172.773438 34.53125 172.535156 34.53125 C 172.203125 34.53125 171.929688 34.511719 171.65625 34.421875 C 172.007812 34.324219 172.09375 34.019531 172.09375 33.898438 C 172.09375 33.722656 171.964844 33.546875 171.722656 33.546875 C 171.460938 33.546875 171.175781 33.765625 171.175781 34.128906 C 171.175781 34.574219 171.625 34.75 172.554688 34.75 C 173.96875 34.75 174.703125 33.839844 174.84375 33.25 Z M 174.84375 33.25 "/>
<path style=" stroke:none;fill-rule:evenodd;fill:rgb(0%,0%,0%);fill-opacity:1;" d="M 137.5 22 C 137.5 21.601562 137.34375 21.21875 137.0625 20.9375 C 136.78125 20.65625 136.398438 20.5 136 20.5 C 135.601562 20.5 135.21875 20.65625 134.9375 20.9375 C 134.65625 21.21875 134.5 21.601562 134.5 22 C 134.5 22.398438 134.65625 22.78125 134.9375 23.0625 C 135.21875 23.34375 135.601562 23.5 136 23.5 C 136.398438 23.5 136.78125 23.34375 137.0625 23.0625 C 137.34375 22.78125 137.5 22.398438 137.5 22 Z M 137.5 22 "/>
<path style=" stroke:none;fill-rule:evenodd;fill:rgb(0%,0%,0%);fill-opacity:1;" d="M 135.300781 34.433594 C 135.300781 34.324219 135.210938 34.324219 135.046875 34.324219 C 134.53125 34.324219 134.5 34.246094 134.5 34.160156 C 134.5 34.105469 134.511719 34.09375 134.542969 33.953125 L 136.066406 27.792969 C 136.066406 27.738281 136.019531 27.695312 135.964844 27.695312 C 135.878906 27.695312 135.453125 28.089844 135.242188 28.472656 C 135.046875 27.980469 134.707031 27.683594 134.234375 27.683594 C 132.996094 27.683594 131.660156 29.28125 131.660156 30.90625 C 131.660156 31.988281 132.296875 32.625 133.039062 32.625 C 133.621094 32.625 134.105469 32.1875 134.332031 31.933594 L 134.34375 31.945312 L 133.929688 33.589844 L 133.832031 33.984375 C 133.730469 34.3125 133.566406 34.3125 133.050781 34.324219 C 132.929688 34.324219 132.820312 34.324219 132.820312 34.53125 C 132.820312 34.609375 132.886719 34.640625 132.964844 34.640625 C 133.117188 34.640625 133.3125 34.621094 133.46875 34.621094 L 134.585938 34.621094 C 134.75 34.621094 134.9375 34.640625 135.101562 34.640625 C 135.167969 34.640625 135.300781 34.640625 135.300781 34.433594 Z M 134.519531 31.210938 C 134.464844 31.398438 134.464844 31.421875 134.3125 31.628906 C 134.070312 31.933594 133.589844 32.40625 133.074219 32.40625 C 132.625 32.40625 132.371094 32 132.371094 31.355469 C 132.371094 30.75 132.710938 29.523438 132.921875 29.0625 C 133.292969 28.296875 133.808594 27.902344 134.234375 27.902344 C 134.957031 27.902344 135.101562 28.800781 135.101562 28.890625 C 135.101562 28.890625 135.066406 29.042969 135.058594 29.0625 Z M 134.519531 31.210938 "/>
<path style=" stroke:none;fill-rule:evenodd;fill:rgb(0%,0%,0%);fill-opacity:1;" d="M 139.464844 34.117188 L 139.464844 33.863281 L 139.195312 33.863281 C 138.464844 33.863281 138.445312 33.769531 138.445312 33.488281 L 138.445312 29.230469 C 138.445312 29.023438 138.429688 29.015625 138.21875 29.015625 C 137.90625 29.320312 137.5 29.503906 136.769531 29.503906 L 136.769531 29.757812 C 136.976562 29.757812 137.390625 29.757812 137.835938 29.550781 L 137.835938 33.488281 C 137.835938 33.769531 137.8125 33.863281 137.085938 33.863281 L 136.816406 33.863281 L 136.816406 34.117188 C 137.128906 34.09375 137.789062 34.09375 138.136719 34.09375 C 138.480469 34.09375 139.148438 34.09375 139.464844 34.117188 Z M 139.464844 34.117188 "/>
<path style=" stroke:none;fill-rule:evenodd;fill:rgb(0%,0%,0%);fill-opacity:1;" d="M 213.5 22 C 213.5 21.601562 213.34375 21.21875 213.0625 20.9375 C 212.78125 20.65625 212.398438 20.5 212 20.5 C 211.601562 20.5 211.21875 20.65625 210.9375 20.9375 C 210.65625 21.21875 210.5 21.601562 210.5 22 C 210.5 22.398438 210.65625 22.78125 210.9375 23.0625 C 211.21875 23.34375 211.601562 23.5 212 23.5 C 212.398438 23.5 212.78125 23.34375 213.0625 23.0625 C 213.34375 22.78125 213.5 22.398438 213.5 22 Z M 213.5 22 "/>
<path style=" stroke:none;fill-rule:evenodd;fill:rgb(0%,0%,0%);fill-opacity:1;" d="M 204.75 29.503906 C 204.75 28.460938 204.070312 27.683594 203.074219 27.683594 C 201.625 27.683594 200.199219 29.261719 200.199219 30.804688 C 200.199219 31.847656 200.878906 32.625 201.875 32.625 C 203.335938 32.625 204.75 31.046875 204.75 29.503906 Z M 204.015625 29.109375 C 204.015625 29.546875 203.785156 30.71875 203.367188 31.386719 C 202.917969 32.121094 202.316406 32.40625 201.886719 32.40625 C 201.339844 32.40625 200.933594 31.96875 200.933594 31.203125 C 200.933594 30.695312 201.199219 29.578125 201.503906 29.03125 C 201.996094 28.1875 202.613281 27.902344 203.0625 27.902344 C 203.597656 27.902344 204.015625 28.339844 204.015625 29.109375 Z M 204.015625 29.109375 "/>
<path style=" stroke:none;fill-rule:evenodd;fill:rgb(0%,0%,0%);fill-opacity:1;" d="M 209.6875 32.28125 C 209.761719 31.96875 209.855469 31.609375 209.855469 31.308594 C 209.855469 31.09375 209.808594 30.910156 209.671875 30.792969 C 209.625 30.757812 209.554688 30.734375 209.488281 30.734375 C 209.386719 30.734375 209.28125 30.777344 209.195312 30.871094 C 209.125 30.945312 209.085938 31.039062 209.085938 31.125 C 209.085938 31.207031 209.117188 31.285156 209.1875 31.339844 C 209.378906 31.492188 209.488281 31.722656 209.488281 31.984375 C 209.488281 32.066406 209.472656 32.152344 209.457031 32.234375 C 209.28125 32.917969 208.804688 33.601562 208.199219 33.601562 C 207.785156 33.601562 207.515625 33.347656 207.421875 32.988281 C 207.53125 32.765625 207.617188 32.519531 207.667969 32.28125 C 207.683594 32.226562 207.691406 32.167969 207.691406 32.113281 C 207.691406 31.976562 207.636719 31.867188 207.507812 31.867188 C 207.355469 31.867188 207.238281 32.050781 207.199219 32.234375 C 207.132812 32.488281 207.101562 32.734375 207.109375 32.957031 C 206.847656 33.332031 206.472656 33.601562 206.066406 33.601562 C 205.589844 33.601562 205.359375 33.210938 205.359375 32.71875 C 205.359375 32.582031 205.375 32.4375 205.414062 32.28125 C 205.527344 31.835938 205.796875 31.414062 206.101562 31.023438 C 206.125 30.984375 206.140625 30.945312 206.140625 30.917969 C 206.140625 30.863281 206.109375 30.816406 206.066406 30.785156 C 206.042969 30.769531 206.019531 30.765625 205.988281 30.765625 C 205.933594 30.765625 205.871094 30.792969 205.835938 30.839844 C 205.511719 31.277344 205.304688 31.753906 205.183594 32.234375 C 205.113281 32.503906 205.074219 32.765625 205.074219 33.019531 C 205.074219 33.679688 205.335938 34.191406 205.964844 34.191406 C 206.449219 34.191406 206.855469 33.878906 207.171875 33.433594 C 207.285156 33.886719 207.585938 34.191406 208.089844 34.191406 C 208.902344 34.191406 209.457031 33.21875 209.6875 32.28125 Z M 209.6875 32.28125 "/>
<path style=" stroke:none;fill-rule:nonzero;fill:rgb(66.666667%,0%,0%);fill-opacity:1;" d="M 202 133.644531 L 211.742188 133.644531 L 192.40625 131.953125 Z M 202 133.644531 "/>
<path style=" stroke:none;fill-rule:evenodd;fill:rgb(66.666667%,0%,0%);fill-opacity:1;" d="M 216.992188 149.375 C 216.992188 149.332031 216.96875 149.265625 216.949219 149.230469 L 213.289062 141.828125 C 213.210938 141.671875 213.191406 141.628906 213.039062 141.628906 C 212.875 141.628906 212.851562 141.671875 212.773438 141.828125 L 209.117188 149.230469 C 209.09375 149.265625 209.074219 149.332031 209.074219 149.375 C 209.074219 149.441406 209.082031 149.449219 209.300781 149.449219 L 216.761719 149.449219 C 216.980469 149.449219 216.992188 149.441406 216.992188 149.375 Z M 215.6875 148.695312 L 209.71875 148.695312 L 212.699219 142.636719 Z M 215.6875 148.695312 "/>
<path style=" stroke:none;fill-rule:evenodd;fill:rgb(66.666667%,0%,0%);fill-opacity:1;" d="M 222.199219 149.21875 C 222.273438 148.902344 222.367188 148.542969 222.367188 148.242188 C 222.367188 148.03125 222.320312 147.84375 222.183594 147.730469 C 222.136719 147.691406 222.070312 147.667969 222 147.667969 C 221.898438 147.667969 221.792969 147.714844 221.707031 147.804688 C 221.640625 147.882812 221.601562 147.976562 221.601562 148.058594 C 221.601562 148.144531 221.632812 148.21875 221.699219 148.273438 C 221.890625 148.429688 222 148.65625 222 148.917969 C 222 149.003906 221.984375 149.085938 221.96875 149.171875 C 221.792969 149.855469 221.316406 150.535156 220.710938 150.535156 C 220.296875 150.535156 220.027344 150.285156 219.9375 149.921875 C 220.042969 149.699219 220.128906 149.457031 220.179688 149.21875 C 220.195312 149.164062 220.203125 149.101562 220.203125 149.050781 C 220.203125 148.910156 220.148438 148.804688 220.019531 148.804688 C 219.867188 148.804688 219.75 148.988281 219.710938 149.171875 C 219.644531 149.425781 219.613281 149.667969 219.621094 149.894531 C 219.359375 150.269531 218.984375 150.535156 218.578125 150.535156 C 218.101562 150.535156 217.871094 150.144531 217.871094 149.652344 C 217.871094 149.515625 217.886719 149.371094 217.925781 149.21875 C 218.042969 148.773438 218.308594 148.351562 218.617188 147.960938 C 218.640625 147.921875 218.65625 147.882812 218.65625 147.851562 C 218.65625 147.796875 218.625 147.753906 218.578125 147.722656 C 218.554688 147.707031 218.53125 147.699219 218.503906 147.699219 C 218.449219 147.699219 218.386719 147.730469 218.347656 147.777344 C 218.027344 148.210938 217.820312 148.6875 217.695312 149.171875 C 217.628906 149.441406 217.589844 149.699219 217.589844 149.953125 C 217.589844 150.613281 217.847656 151.128906 218.480469 151.128906 C 218.960938 151.128906 219.367188 150.8125 219.683594 150.367188 C 219.796875 150.820312 220.097656 151.128906 220.601562 151.128906 C 221.414062 151.128906 221.96875 150.152344 222.199219 149.21875 Z M 222.199219 149.21875 "/>
<path style="fill:none;stroke-width:1;stroke-linecap:square;stroke-linejoin:miter;stroke:rgb(66.666667%,0%,0%);stroke-opacity:1;stroke-miterlimit:3.25;" d="M 202 133.644531 L 207.570312 139.214844 "/>
</g>
</svg>
