<?xml version="1.0" encoding="UTF-8"?>
<svg xmlns="http://www.w3.org/2000/svg" xmlns:xlink="http://www.w3.org/1999/xlink" width="294pt" height="113pt" viewBox="0 0 294 113" version="1.1">
<g id="surface213">
<path style="fill:none;stroke-width:0.2;stroke-linecap:square;stroke-linejoin:miter;stroke:rgb(0%,0%,0%);stroke-opacity:1;stroke-miterlimit:3.25;" d="M 219.789062 24.296875 L 240.035156 16.199219 "/>
<path style=" stroke:none;fill-rule:nonzero;fill:rgb(100%,92.500191%,92.500191%);fill-opacity:1;" d="M 196.367188 92.71875 L 195.996094 89.855469 L 195.503906 87.035156 L 194.886719 84.265625 L 194.152344 81.550781 L 193.304688 78.894531 L 192.339844 76.300781 L 191.265625 73.777344 L 190.082031 71.324219 L 188.792969 68.953125 L 187.40625 66.660156 L 185.921875 64.453125 L 184.339844 62.335938 L 182.671875 60.316406 L 180.914062 58.390625 L 179.078125 56.570312 L 177.164062 54.851562 L 175.175781 53.242188 L 173.121094 51.746094 L 171 50.363281 L 168.824219 49.097656 L 166.589844 47.953125 L 164.3125 46.929688 L 161.988281 46.03125 L 159.625 45.261719 L 157.230469 44.617188 L 154.8125 44.105469 L 152.375 43.730469 L 149.925781 43.492188 L 147.46875 43.394531 L 145.011719 43.429688 L 142.558594 43.601562 L 140.113281 43.914062 L 137.683594 44.363281 L 135.277344 44.945312 L 132.898438 45.65625 L 130.558594 46.496094 L 128.257812 47.460938 L 126.003906 48.550781 L 123.800781 49.761719 L 121.652344 51.089844 L 119.566406 52.53125 L 117.546875 54.089844 L 115.597656 55.757812 L 113.722656 57.53125 L 111.929688 59.40625 L 110.21875 61.386719 L 108.597656 63.457031 L 107.066406 65.621094 L 105.632812 67.875 L 104.296875 70.210938 L 103.066406 72.628906 L 101.941406 75.117188 L 100.921875 77.679688 L 100.019531 80.308594 L 99.230469 82.996094 L 98.5625 85.742188 L 98.011719 88.539062 L 97.582031 91.382812 L 97.425781 92.71875 L 97.296875 92.820312 L 97.164062 92.925781 L 97.019531 93.03125 L 96.867188 93.144531 L 96.703125 93.257812 L 96.53125 93.375 L 96.351562 93.496094 L 96.164062 93.617188 L 95.964844 93.738281 L 95.757812 93.863281 L 95.539062 93.992188 L 95.3125 94.117188 L 95.074219 94.246094 L 94.828125 94.375 L 94.570312 94.503906 L 94.304688 94.632812 L 94.027344 94.761719 L 93.742188 94.890625 L 93.445312 95.019531 L 93.140625 95.144531 L 92.820312 95.269531 L 92.496094 95.394531 L 92.160156 95.515625 L 91.8125 95.636719 L 91.453125 95.753906 L 91.085938 95.871094 L 90.707031 95.980469 L 90.320312 96.089844 L 89.921875 96.195312 L 89.515625 96.296875 L 89.097656 96.394531 L 88.667969 96.488281 L 88.230469 96.578125 L 87.78125 96.660156 L 87.320312 96.738281 L 86.855469 96.8125 L 86.375 96.878906 L 85.886719 96.941406 L 85.390625 96.996094 L 84.882812 97.046875 L 84.367188 97.085938 L 83.839844 97.121094 L 83.304688 97.148438 L 82.722656 97.171875 L 82.121094 97.183594 L 16.199219 97.1875 L 16.257812 95.847656 L 16.441406 92.988281 L 16.695312 90.164062 L 17.015625 87.378906 L 17.402344 84.632812 L 17.855469 81.929688 L 18.371094 79.269531 L 18.945312 76.660156 L 19.582031 74.09375 L 20.273438 71.582031 L 21.015625 69.121094 L 21.8125 66.710938 L 22.65625 64.359375 L 23.546875 62.066406 L 24.480469 59.828125 L 25.453125 57.652344 L 26.46875 55.535156 L 27.515625 53.484375 L 28.597656 51.492188 L 29.710938 49.566406 L 30.847656 47.707031 L 32.007812 45.910156 L 33.191406 44.179688 L 34.394531 42.515625 L 35.609375 40.917969 L 36.835938 39.390625 L 38.070312 37.929688 L 39.304688 36.542969 L 40.539062 35.226562 L 41.769531 33.980469 L 42.996094 32.800781 L 44.210938 31.6875 L 45.410156 30.640625 L 46.632812 29.636719 L 48.03125 28.539062 L 49.4375 27.492188 L 50.847656 26.5 L 52.261719 25.558594 L 53.675781 24.667969 L 55.089844 23.824219 L 56.503906 23.03125 L 57.910156 22.289062 L 59.316406 21.589844 L 60.710938 20.941406 L 62.101562 20.339844 L 63.480469 19.78125 L 64.847656 19.269531 L 66.203125 18.800781 L 67.546875 18.375 L 68.875 17.992188 L 70.1875 17.648438 L 71.480469 17.34375 L 72.753906 17.078125 L 74.011719 16.851562 L 75.246094 16.660156 L 76.460938 16.503906 L 77.652344 16.378906 L 78.816406 16.289062 L 79.960938 16.230469 L 212.246094 16.199219 L 213.28125 16.210938 L 214.359375 16.253906 L 215.515625 16.328125 L 216.691406 16.433594 L 217.894531 16.570312 L 219.117188 16.742188 L 220.363281 16.953125 L 221.628906 17.199219 L 222.914062 17.480469 L 224.214844 17.804688 L 225.535156 18.164062 L 226.867188 18.570312 L 228.21875 19.015625 L 229.578125 19.503906 L 230.953125 20.035156 L 232.335938 20.613281 L 233.730469 21.238281 L 235.128906 21.910156 L 236.535156 22.628906 L 237.945312 23.394531 L 239.359375 24.210938 L 240.773438 25.074219 L 242.1875 25.992188 L 243.601562 26.957031 L 245.007812 27.972656 L 246.414062 29.042969 L 247.742188 30.109375 L 248.9375 31.121094 L 250.148438 32.195312 L 251.367188 33.339844 L 252.59375 34.550781 L 253.824219 35.832031 L 255.0625 37.179688 L 256.296875 38.601562 L 257.527344 40.09375 L 258.75 41.652344 L 259.960938 43.28125 L 261.152344 44.976562 L 262.328125 46.738281 L 263.476562 48.5625 L 264.605469 50.453125 L 265.703125 52.410156 L 266.769531 54.429688 L 267.800781 56.511719 L 268.796875 58.65625 L 269.753906 60.863281 L 270.667969 63.125 L 271.535156 65.449219 L 272.359375 67.824219 L 273.128906 70.257812 L 273.847656 72.746094 L 274.515625 75.28125 L 275.121094 77.867188 L 275.667969 80.503906 L 276.15625 83.183594 L 276.578125 85.90625 L 276.933594 88.671875 L 277.226562 91.472656 L 277.445312 94.3125 L 277.59375 97.1875 L 212.246094 97.1875 L 211.785156 97.183594 L 211.324219 97.175781 L 210.867188 97.164062 L 210.433594 97.148438 L 210.019531 97.125 L 209.617188 97.101562 L 209.21875 97.070312 L 208.824219 97.039062 L 208.433594 97 L 208.050781 96.957031 L 207.675781 96.914062 L 207.304688 96.863281 L 206.9375 96.8125 L 206.578125 96.757812 L 206.226562 96.699219 L 205.878906 96.636719 L 205.535156 96.570312 L 205.199219 96.503906 L 204.867188 96.433594 L 204.542969 96.359375 L 204.226562 96.285156 L 203.914062 96.207031 L 203.605469 96.125 L 203.304688 96.042969 L 203.011719 95.960938 L 202.722656 95.875 L 202.4375 95.785156 L 202.164062 95.699219 L 201.890625 95.605469 L 201.628906 95.515625 L 201.367188 95.421875 L 201.117188 95.328125 L 200.867188 95.230469 L 200.628906 95.132812 L 200.390625 95.039062 L 200.164062 94.941406 L 199.941406 94.839844 L 199.722656 94.742188 L 199.511719 94.644531 L 199.304688 94.546875 L 199.105469 94.445312 L 198.910156 94.347656 L 198.722656 94.25 L 198.363281 94.054688 L 198.191406 93.957031 L 198.027344 93.859375 L 197.867188 93.761719 L 197.5625 93.574219 L 197.421875 93.480469 L 197.28125 93.390625 L 197.148438 93.300781 L 197.023438 93.210938 L 196.902344 93.125 L 196.785156 93.039062 L 196.671875 92.957031 L 196.566406 92.875 L 196.464844 92.796875 Z M 196.367188 92.71875 "/>
<path style=" stroke:none;fill-rule:evenodd;fill:rgb(0%,0%,0%);fill-opacity:1;" d="M 255.199219 12.378906 C 255.199219 11.921875 255.089844 11.515625 254.675781 11.109375 C 254.445312 10.878906 254.246094 10.824219 253.238281 10.5625 C 252.503906 10.363281 252.40625 10.332031 252.207031 10.15625 C 252.023438 9.972656 251.878906 9.707031 251.878906 9.335938 C 251.878906 8.414062 252.8125 7.472656 253.851562 7.472656 C 254.925781 7.472656 255.429688 8.128906 255.429688 9.171875 C 255.429688 9.453125 255.375 9.75 255.375 9.792969 C 255.375 9.894531 255.464844 9.894531 255.496094 9.894531 C 255.59375 9.894531 255.605469 9.859375 255.648438 9.683594 L 256.242188 7.273438 C 256.242188 7.175781 256.144531 7.175781 256.144531 7.175781 C 256.097656 7.175781 256.089844 7.1875 255.957031 7.351562 L 255.429688 8.007812 C 255.066406 7.296875 254.347656 7.175781 253.882812 7.175781 C 252.492188 7.175781 251.234375 8.445312 251.234375 9.683594 C 251.234375 10.507812 251.726562 10.988281 252.261719 11.175781 C 252.382812 11.21875 253.03125 11.394531 253.359375 11.472656 C 253.917969 11.625 254.058594 11.667969 254.289062 11.910156 C 254.335938 11.964844 254.554688 12.214844 254.554688 12.730469 C 254.554688 13.75 253.609375 14.804688 252.515625 14.804688 C 251.617188 14.804688 250.617188 14.417969 250.617188 13.191406 C 250.617188 12.984375 250.664062 12.722656 250.695312 12.609375 C 250.695312 12.578125 250.707031 12.5 250.707031 12.5 C 250.707031 12.457031 250.6875 12.402344 250.597656 12.402344 C 250.5 12.402344 250.488281 12.425781 250.445312 12.609375 L 249.886719 14.859375 L 249.84375 15.023438 C 249.84375 15.121094 249.953125 15.121094 249.953125 15.121094 C 249.996094 15.121094 250.007812 15.109375 250.136719 14.945312 L 250.640625 14.285156 C 250.90625 14.683594 251.472656 15.121094 252.492188 15.121094 C 253.90625 15.121094 255.199219 13.75 255.199219 12.378906 Z M 255.199219 12.378906 "/>
<path style=" stroke:none;fill-rule:evenodd;fill:rgb(0%,0%,0%);fill-opacity:1;" d="M 262.457031 16.492188 L 262.457031 16.238281 C 261.96875 16.238281 261.875 16.238281 261.875 15.890625 L 261.875 14.164062 C 261.875 13.542969 261.605469 13.105469 260.769531 13.105469 C 260.066406 13.105469 259.710938 13.589844 259.589844 13.8125 C 259.453125 13.261719 259.011719 13.105469 258.515625 13.105469 C 257.769531 13.105469 257.417969 13.636719 257.316406 13.84375 L 257.308594 13.84375 L 257.308594 13.105469 L 256.199219 13.191406 L 256.199219 13.445312 C 256.71875 13.445312 256.78125 13.496094 256.78125 13.875 L 256.78125 15.890625 C 256.78125 16.238281 256.6875 16.238281 256.199219 16.238281 L 256.199219 16.492188 C 256.527344 16.46875 256.863281 16.46875 257.074219 16.46875 C 257.292969 16.46875 257.617188 16.46875 257.949219 16.492188 L 257.949219 16.238281 C 257.457031 16.238281 257.363281 16.238281 257.363281 15.890625 L 257.363281 14.503906 C 257.363281 13.699219 257.96875 13.320312 258.453125 13.320312 C 258.953125 13.320312 259.035156 13.714844 259.035156 14.136719 L 259.035156 15.890625 C 259.035156 16.238281 258.945312 16.238281 258.453125 16.238281 L 258.453125 16.492188 C 258.785156 16.46875 259.121094 16.46875 259.328125 16.46875 C 259.550781 16.46875 259.875 16.46875 260.203125 16.492188 L 260.203125 16.238281 C 259.710938 16.238281 259.621094 16.238281 259.621094 15.890625 L 259.621094 14.503906 C 259.621094 13.699219 260.226562 13.320312 260.710938 13.320312 C 261.207031 13.320312 261.292969 13.714844 261.292969 14.136719 L 261.292969 15.890625 C 261.292969 16.238281 261.199219 16.238281 260.710938 16.238281 L 260.710938 16.492188 C 261.039062 16.46875 261.375 16.46875 261.585938 16.46875 C 261.804688 16.46875 262.128906 16.46875 262.457031 16.492188 Z M 262.457031 16.492188 "/>
<path style=" stroke:none;fill-rule:evenodd;fill:rgb(0%,0%,0%);fill-opacity:1;" d="M 266.628906 15.800781 L 266.628906 15.378906 L 266.390625 15.378906 L 266.390625 15.800781 C 266.390625 16.113281 266.277344 16.238281 266.113281 16.238281 C 265.832031 16.238281 265.832031 15.882812 265.832031 15.800781 L 265.832031 14.203125 C 265.832031 13.453125 265.101562 13.066406 264.402344 13.066406 C 263.765625 13.066406 263.199219 13.3125 263.199219 13.820312 C 263.199219 14.050781 263.359375 14.1875 263.558594 14.1875 C 263.773438 14.1875 263.917969 14.035156 263.917969 13.828125 C 263.917969 13.644531 263.804688 13.511719 263.636719 13.476562 C 263.917969 13.285156 264.335938 13.285156 264.386719 13.285156 C 264.816406 13.285156 265.246094 13.582031 265.246094 14.210938 L 265.246094 14.449219 C 264.800781 14.472656 264.289062 14.496094 263.75 14.71875 C 263.074219 15.007812 262.945312 15.453125 262.945312 15.707031 C 262.945312 16.367188 263.71875 16.566406 264.25 16.566406 C 264.808594 16.566406 265.15625 16.253906 265.324219 15.945312 C 265.363281 16.238281 265.5625 16.53125 265.898438 16.53125 C 265.976562 16.53125 266.628906 16.5 266.628906 15.800781 Z M 265.246094 15.410156 C 265.246094 16.152344 264.617188 16.351562 264.3125 16.351562 C 263.914062 16.351562 263.574219 16.085938 263.574219 15.714844 C 263.574219 15.210938 264.050781 14.6875 265.246094 14.648438 Z M 265.246094 15.410156 "/>
<path style=" stroke:none;fill-rule:evenodd;fill:rgb(0%,0%,0%);fill-opacity:1;" d="M 270.960938 16.492188 L 270.960938 16.238281 C 270.484375 16.238281 270.40625 16.199219 270.207031 15.960938 L 269.148438 14.695312 C 269.363281 14.425781 269.585938 14.164062 269.816406 13.910156 C 270.070312 13.644531 270.335938 13.445312 270.820312 13.4375 L 270.820312 13.183594 C 270.523438 13.207031 270.507812 13.207031 270.160156 13.207031 C 270.125 13.207031 269.671875 13.207031 269.433594 13.183594 L 269.433594 13.4375 C 269.578125 13.453125 269.609375 13.542969 269.609375 13.644531 C 269.609375 13.742188 269.570312 13.835938 269.476562 13.941406 L 268.996094 14.511719 L 268.386719 13.789062 C 268.296875 13.683594 268.296875 13.613281 268.296875 13.613281 C 268.296875 13.558594 268.34375 13.445312 268.535156 13.4375 L 268.535156 13.183594 C 268.226562 13.207031 267.796875 13.207031 267.714844 13.207031 C 267.574219 13.207031 267.183594 13.207031 266.953125 13.183594 L 266.953125 13.4375 C 267.476562 13.4375 267.484375 13.445312 267.882812 13.910156 L 268.671875 14.871094 L 267.972656 15.691406 C 267.78125 15.90625 267.5 16.222656 266.914062 16.238281 L 266.914062 16.492188 C 267.199219 16.46875 267.253906 16.46875 267.574219 16.46875 C 267.574219 16.46875 268.058594 16.46875 268.304688 16.492188 L 268.304688 16.238281 C 268.203125 16.222656 268.121094 16.167969 268.121094 16.03125 C 268.121094 15.890625 268.210938 15.785156 268.234375 15.746094 L 268.832031 15.0625 L 269.460938 15.816406 C 269.617188 15.992188 269.617188 16.007812 269.617188 16.0625 C 269.617188 16.121094 269.5625 16.230469 269.378906 16.238281 L 269.378906 16.492188 C 269.707031 16.46875 270.054688 16.46875 270.199219 16.46875 C 270.335938 16.46875 270.726562 16.46875 270.960938 16.492188 Z M 270.960938 16.492188 "/>
<path style=" stroke:none;fill-rule:nonzero;fill:rgb(86.999313%,94.000153%,100%);fill-opacity:1;" d="M -650.699219 -43.449219 L -636.632812 -123.210938 L 958.554688 158.066406 L 944.492188 237.824219 Z M -650.699219 -43.449219 "/>
<path style=" stroke:none;fill-rule:evenodd;fill:rgb(0%,0%,0%);fill-opacity:1;" d="M 149.144531 68.257812 C 149.144531 68.214844 149.125 68.148438 149.027344 68.148438 C 148.828125 68.148438 148.355469 68.171875 148.160156 68.171875 C 147.84375 68.171875 147.511719 68.148438 147.207031 68.148438 C 147.121094 68.148438 147.011719 68.148438 147.011719 68.355469 C 147.011719 68.457031 147.109375 68.464844 147.152344 68.464844 C 147.558594 68.5 147.601562 68.695312 147.601562 68.828125 C 147.601562 68.992188 147.4375 69.253906 147.4375 69.253906 L 143.996094 74.710938 L 143.230469 68.804688 C 143.230469 68.488281 143.800781 68.464844 143.917969 68.464844 C 144.085938 68.464844 144.183594 68.464844 144.183594 68.257812 C 144.183594 68.148438 144.0625 68.148438 144.027344 68.148438 C 143.84375 68.148438 143.625 68.171875 143.4375 68.171875 L 142.824219 68.171875 C 142.023438 68.171875 141.683594 68.148438 141.683594 68.148438 C 141.621094 68.148438 141.488281 68.148438 141.488281 68.347656 C 141.488281 68.464844 141.566406 68.464844 141.738281 68.464844 C 142.300781 68.464844 142.332031 68.566406 142.363281 68.839844 L 143.242188 75.597656 C 143.273438 75.828125 143.273438 75.859375 143.425781 75.859375 C 143.558594 75.859375 143.613281 75.828125 143.722656 75.652344 L 147.679688 69.363281 C 148.050781 68.773438 148.390625 68.511719 148.949219 68.464844 C 149.058594 68.457031 149.144531 68.457031 149.144531 68.257812 Z M 149.144531 68.257812 "/>
<path style=" stroke:none;fill-rule:evenodd;fill:rgb(0%,0%,0%);fill-opacity:1;" d="M 151.929688 75.398438 C 152.003906 75.082031 152.097656 74.722656 152.097656 74.421875 C 152.097656 74.210938 152.050781 74.023438 151.914062 73.910156 C 151.867188 73.871094 151.800781 73.847656 151.730469 73.847656 C 151.628906 73.847656 151.523438 73.894531 151.4375 73.984375 C 151.371094 74.0625 151.332031 74.15625 151.332031 74.238281 C 151.332031 74.324219 151.363281 74.398438 151.429688 74.453125 C 151.621094 74.609375 151.730469 74.835938 151.730469 75.097656 C 151.730469 75.183594 151.714844 75.265625 151.699219 75.351562 C 151.523438 76.035156 151.046875 76.71875 150.441406 76.71875 C 150.027344 76.71875 149.757812 76.464844 149.667969 76.101562 C 149.773438 75.882812 149.859375 75.636719 149.910156 75.398438 C 149.925781 75.34375 149.933594 75.28125 149.933594 75.230469 C 149.933594 75.089844 149.878906 74.984375 149.75 74.984375 C 149.597656 74.984375 149.480469 75.167969 149.441406 75.351562 C 149.375 75.605469 149.34375 75.851562 149.351562 76.074219 C 149.089844 76.449219 148.714844 76.71875 148.308594 76.71875 C 147.832031 76.71875 147.601562 76.328125 147.601562 75.835938 C 147.601562 75.695312 147.617188 75.550781 147.65625 75.398438 C 147.769531 74.953125 148.039062 74.53125 148.347656 74.140625 C 148.371094 74.101562 148.386719 74.0625 148.386719 74.03125 C 148.386719 73.976562 148.355469 73.933594 148.308594 73.902344 C 148.285156 73.886719 148.261719 73.878906 148.230469 73.878906 C 148.175781 73.878906 148.117188 73.910156 148.078125 73.957031 C 147.753906 74.390625 147.550781 74.867188 147.425781 75.351562 C 147.355469 75.621094 147.320312 75.882812 147.320312 76.132812 C 147.320312 76.792969 147.578125 77.308594 148.207031 77.308594 C 148.691406 77.308594 149.097656 76.992188 149.414062 76.546875 C 149.527344 77 149.828125 77.308594 150.332031 77.308594 C 151.144531 77.308594 151.699219 76.335938 151.929688 75.398438 Z M 151.929688 75.398438 "/>
<path style="fill-rule:nonzero;fill:rgb(100%,100%,86.999313%);fill-opacity:1;stroke-width:1;stroke-linecap:square;stroke-linejoin:miter;stroke:rgb(0%,0%,0%);stroke-opacity:1;stroke-miterlimit:3.25;" d="M 98.007812 88.566406 L 98.011719 88.539062 L 98.5625 85.742188 L 99.230469 82.996094 L 100.019531 80.308594 L 100.921875 77.679688 L 101.941406 75.117188 L 103.066406 72.628906 L 104.296875 70.210938 L 105.632812 67.875 L 107.066406 65.621094 L 108.597656 63.457031 L 110.21875 61.386719 L 111.929688 59.40625 L 113.722656 57.53125 L 115.597656 55.757812 L 117.546875 54.089844 L 119.566406 52.53125 L 121.652344 51.089844 L 123.800781 49.761719 L 126.003906 48.550781 L 128.257812 47.460938 L 130.558594 46.496094 L 132.898438 45.65625 L 135.277344 44.945312 L 137.683594 44.363281 L 140.113281 43.914062 L 142.558594 43.601562 L 145.011719 43.429688 L 147.46875 43.394531 L 149.925781 43.492188 L 152.375 43.730469 L 154.8125 44.105469 L 157.230469 44.617188 L 159.625 45.261719 L 161.988281 46.03125 L 164.3125 46.929688 L 166.589844 47.953125 L 168.824219 49.097656 L 171 50.363281 L 173.121094 51.746094 L 175.175781 53.242188 L 177.164062 54.851562 L 179.078125 56.570312 L 180.914062 58.390625 L 182.671875 60.316406 L 184.339844 62.335938 L 185.921875 64.453125 L 187.40625 66.660156 L 188.792969 68.953125 L 190.082031 71.324219 L 191.265625 73.777344 L 192.339844 76.300781 L 193.304688 78.894531 L 194.152344 81.550781 L 194.886719 84.265625 L 195.503906 87.035156 L 195.996094 89.855469 L 196.367188 92.71875 L 196.464844 92.796875 L 196.566406 92.875 L 196.671875 92.957031 L 196.785156 93.039062 L 196.902344 93.125 L 197.023438 93.210938 L 197.148438 93.300781 L 197.28125 93.390625 L 197.421875 93.480469 L 197.5625 93.574219 L 197.867188 93.761719 L 198.027344 93.859375 L 198.191406 93.957031 L 198.363281 94.054688 L 198.722656 94.25 L 198.910156 94.347656 L 199.105469 94.445312 L 199.304688 94.546875 L 199.511719 94.644531 L 199.722656 94.742188 L 199.941406 94.839844 L 200.164062 94.941406 L 200.390625 95.039062 L 200.628906 95.132812 L 200.867188 95.230469 L 201.117188 95.328125 L 201.367188 95.421875 L 201.628906 95.515625 L 201.890625 95.605469 L 202.164062 95.699219 L 202.4375 95.785156 L 202.722656 95.875 L 203.011719 95.960938 L 203.304688 96.042969 L 203.605469 96.125 L 203.914062 96.207031 L 204.226562 96.285156 L 204.542969 96.359375 L 204.867188 96.433594 L 205.199219 96.503906 L 205.535156 96.570312 L 205.878906 96.636719 L 206.226562 96.699219 L 206.578125 96.757812 L 206.9375 96.8125 L 207.304688 96.863281 L 207.675781 96.914062 L 208.050781 96.957031 L 208.433594 97 L 208.824219 97.039062 L 209.21875 97.070312 L 209.617188 97.101562 L 210.019531 97.125 L 210.433594 97.148438 L 210.867188 97.164062 L 211.324219 97.175781 L 211.785156 97.183594 L 212.246094 97.1875 L 277.59375 97.1875 L 277.445312 94.3125 L 277.226562 91.472656 L 276.933594 88.671875 L 276.578125 85.90625 L 276.15625 83.183594 L 275.667969 80.503906 L 275.121094 77.867188 L 274.515625 75.28125 L 273.847656 72.746094 L 273.128906 70.257812 L 272.359375 67.824219 L 271.535156 65.449219 L 270.667969 63.125 L 269.753906 60.863281 L 268.796875 58.65625 L 267.800781 56.511719 L 266.769531 54.429688 L 265.703125 52.410156 L 264.605469 50.453125 L 263.476562 48.5625 L 262.328125 46.738281 L 261.152344 44.976562 L 259.960938 43.28125 L 258.75 41.652344 L 257.527344 40.09375 L 256.296875 38.601562 L 255.0625 37.179688 L 253.824219 35.832031 L 252.59375 34.550781 L 251.402344 33.375 L 154.058594 16.210938 L 79.960938 16.230469 L 78.816406 16.289062 L 77.652344 16.378906 L 76.460938 16.503906 L 75.246094 16.660156 L 74.011719 16.851562 L 72.753906 17.078125 L 71.480469 17.34375 L 70.1875 17.648438 L 68.875 17.992188 L 67.546875 18.375 L 66.203125 18.800781 L 64.847656 19.269531 L 63.480469 19.78125 L 62.101562 20.339844 L 60.710938 20.941406 L 59.316406 21.589844 L 57.910156 22.289062 L 56.503906 23.03125 L 55.089844 23.824219 L 53.675781 24.667969 L 52.261719 25.558594 L 50.847656 26.5 L 49.4375 27.492188 L 48.03125 28.539062 L 46.632812 29.636719 L 45.410156 30.640625 L 44.210938 31.6875 L 42.996094 32.800781 L 41.769531 33.980469 L 40.539062 35.226562 L 39.304688 36.542969 L 38.070312 37.929688 L 36.835938 39.390625 L 35.609375 40.917969 L 34.394531 42.515625 L 33.191406 44.179688 L 32.007812 45.910156 L 30.847656 47.707031 L 29.710938 49.566406 L 28.597656 51.492188 L 27.515625 53.484375 L 26.46875 55.535156 L 25.453125 57.652344 L 24.480469 59.828125 L 23.546875 62.066406 L 22.65625 64.359375 L 21.8125 66.710938 L 21.015625 69.121094 L 20.273438 71.582031 L 19.582031 74.09375 L 19.429688 74.710938 Z M 98.007812 88.566406 "/>
<path style=" stroke:none;fill-rule:evenodd;fill:rgb(0%,0%,0%);fill-opacity:1;" d="M 50.945312 56.925781 C 50.945312 56.464844 50.832031 56.058594 50.417969 55.652344 C 50.1875 55.425781 49.992188 55.367188 48.980469 55.105469 C 48.25 54.910156 48.148438 54.875 47.953125 54.699219 C 47.765625 54.515625 47.625 54.25 47.625 53.878906 C 47.625 52.957031 48.554688 52.015625 49.597656 52.015625 C 50.667969 52.015625 51.175781 52.671875 51.175781 53.714844 C 51.175781 54 51.121094 54.292969 51.121094 54.339844 C 51.121094 54.4375 51.207031 54.4375 51.238281 54.4375 C 51.339844 54.4375 51.347656 54.402344 51.394531 54.230469 L 51.984375 51.820312 C 51.984375 51.71875 51.886719 51.71875 51.886719 51.71875 C 51.84375 51.71875 51.832031 51.730469 51.699219 51.894531 L 51.175781 52.550781 C 50.8125 51.839844 50.089844 51.71875 49.628906 51.71875 C 48.238281 51.71875 46.976562 52.992188 46.976562 54.230469 C 46.976562 55.050781 47.472656 55.535156 48.007812 55.71875 C 48.128906 55.761719 48.773438 55.9375 49.105469 56.015625 C 49.660156 56.167969 49.804688 56.210938 50.035156 56.453125 C 50.078125 56.507812 50.296875 56.761719 50.296875 57.277344 C 50.296875 58.292969 49.355469 59.347656 48.261719 59.347656 C 47.363281 59.347656 46.363281 58.960938 46.363281 57.734375 C 46.363281 57.527344 46.410156 57.265625 46.441406 57.152344 C 46.441406 57.121094 46.453125 57.042969 46.453125 57.042969 C 46.453125 57 46.429688 56.945312 46.339844 56.945312 C 46.242188 56.945312 46.230469 56.96875 46.1875 57.152344 L 45.628906 59.402344 L 45.585938 59.566406 C 45.585938 59.664062 45.695312 59.664062 45.695312 59.664062 C 45.738281 59.664062 45.75 59.652344 45.882812 59.488281 L 46.386719 58.832031 C 46.648438 59.226562 47.21875 59.664062 48.238281 59.664062 C 49.652344 59.664062 50.945312 58.292969 50.945312 56.925781 Z M 50.945312 56.925781 "/>
<path style=" stroke:none;fill-rule:evenodd;fill:rgb(0%,0%,0%);fill-opacity:1;" d="M 58.199219 61.035156 L 58.199219 60.78125 C 57.710938 60.78125 57.617188 60.78125 57.617188 60.433594 L 57.617188 58.707031 C 57.617188 58.089844 57.347656 57.652344 56.511719 57.652344 C 55.808594 57.652344 55.457031 58.132812 55.332031 58.355469 C 55.195312 57.804688 54.757812 57.652344 54.257812 57.652344 C 53.515625 57.652344 53.160156 58.179688 53.0625 58.386719 L 53.054688 58.386719 L 53.054688 57.652344 L 51.941406 57.734375 L 51.941406 57.988281 C 52.464844 57.988281 52.523438 58.042969 52.523438 58.417969 L 52.523438 60.433594 C 52.523438 60.78125 52.433594 60.78125 51.941406 60.78125 L 51.941406 61.035156 C 52.269531 61.011719 52.609375 61.011719 52.816406 61.011719 C 53.039062 61.011719 53.363281 61.011719 53.691406 61.035156 L 53.691406 60.78125 C 53.199219 60.78125 53.109375 60.78125 53.109375 60.433594 L 53.109375 59.046875 C 53.109375 58.242188 53.714844 57.863281 54.199219 57.863281 C 54.695312 57.863281 54.78125 58.257812 54.78125 58.679688 L 54.78125 60.433594 C 54.78125 60.78125 54.6875 60.78125 54.199219 60.78125 L 54.199219 61.035156 C 54.527344 61.011719 54.863281 61.011719 55.070312 61.011719 C 55.292969 61.011719 55.617188 61.011719 55.945312 61.035156 L 55.945312 60.78125 C 55.457031 60.78125 55.363281 60.78125 55.363281 60.433594 L 55.363281 59.046875 C 55.363281 58.242188 55.96875 57.863281 56.453125 57.863281 C 56.949219 57.863281 57.035156 58.257812 57.035156 58.679688 L 57.035156 60.433594 C 57.035156 60.78125 56.941406 60.78125 56.453125 60.78125 L 56.453125 61.035156 C 56.78125 61.011719 57.117188 61.011719 57.328125 61.011719 C 57.546875 61.011719 57.871094 61.011719 58.199219 61.035156 Z M 58.199219 61.035156 "/>
<path style=" stroke:none;fill-rule:evenodd;fill:rgb(0%,0%,0%);fill-opacity:1;" d="M 62.367188 60.34375 L 62.367188 59.921875 L 62.132812 59.921875 L 62.132812 60.34375 C 62.132812 60.65625 62.015625 60.78125 61.855469 60.78125 C 61.570312 60.78125 61.570312 60.425781 61.570312 60.34375 L 61.570312 58.746094 C 61.570312 57.996094 60.84375 57.613281 60.144531 57.613281 C 59.507812 57.613281 58.941406 57.855469 58.941406 58.363281 C 58.941406 58.59375 59.101562 58.730469 59.300781 58.730469 C 59.515625 58.730469 59.660156 58.578125 59.660156 58.371094 C 59.660156 58.1875 59.546875 58.058594 59.378906 58.019531 C 59.660156 57.828125 60.078125 57.828125 60.128906 57.828125 C 60.558594 57.828125 60.988281 58.125 60.988281 58.753906 L 60.988281 58.992188 C 60.542969 59.015625 60.03125 59.039062 59.492188 59.261719 C 58.816406 59.550781 58.6875 59.996094 58.6875 60.25 C 58.6875 60.910156 59.460938 61.109375 59.992188 61.109375 C 60.550781 61.109375 60.898438 60.796875 61.066406 60.488281 C 61.101562 60.78125 61.304688 61.074219 61.640625 61.074219 C 61.71875 61.074219 62.367188 61.042969 62.367188 60.34375 Z M 60.988281 59.953125 C 60.988281 60.695312 60.359375 60.894531 60.054688 60.894531 C 59.65625 60.894531 59.316406 60.628906 59.316406 60.257812 C 59.316406 59.753906 59.792969 59.230469 60.988281 59.191406 Z M 60.988281 59.953125 "/>
<path style=" stroke:none;fill-rule:evenodd;fill:rgb(0%,0%,0%);fill-opacity:1;" d="M 66.699219 61.035156 L 66.699219 60.78125 C 66.222656 60.78125 66.148438 60.742188 65.949219 60.503906 L 64.890625 59.238281 C 65.105469 58.96875 65.328125 58.707031 65.554688 58.457031 C 65.808594 58.1875 66.078125 57.988281 66.5625 57.980469 L 66.5625 57.726562 C 66.261719 57.75 66.246094 57.75 65.902344 57.75 C 65.863281 57.75 65.410156 57.75 65.171875 57.726562 L 65.171875 57.980469 C 65.320312 57.996094 65.351562 58.089844 65.351562 58.1875 C 65.351562 58.285156 65.3125 58.378906 65.21875 58.488281 L 64.734375 59.054688 L 64.128906 58.332031 C 64.039062 58.226562 64.039062 58.15625 64.039062 58.15625 C 64.039062 58.105469 64.085938 57.988281 64.273438 57.980469 L 64.273438 57.726562 C 63.96875 57.75 63.539062 57.75 63.453125 57.75 C 63.316406 57.75 62.925781 57.75 62.695312 57.726562 L 62.695312 57.980469 C 63.21875 57.980469 63.226562 57.988281 63.625 58.457031 L 64.414062 59.414062 L 63.714844 60.234375 C 63.523438 60.449219 63.242188 60.765625 62.65625 60.78125 L 62.65625 61.035156 C 62.941406 61.011719 62.992188 61.011719 63.316406 61.011719 C 63.316406 61.011719 63.800781 61.011719 64.046875 61.035156 L 64.046875 60.78125 C 63.945312 60.765625 63.859375 60.710938 63.859375 60.574219 C 63.859375 60.433594 63.953125 60.328125 63.976562 60.289062 L 64.574219 59.605469 L 65.203125 60.359375 C 65.359375 60.535156 65.359375 60.550781 65.359375 60.605469 C 65.359375 60.664062 65.304688 60.773438 65.117188 60.78125 L 65.117188 61.035156 C 65.449219 61.011719 65.792969 61.011719 65.941406 61.011719 C 66.078125 61.011719 66.46875 61.011719 66.699219 61.035156 Z M 66.699219 61.035156 "/>
<path style=" stroke:none;fill-rule:evenodd;fill:rgb(0%,0%,0%);fill-opacity:1;" d="M 76.507812 59.3125 L 76.507812 55.257812 C 76.507812 53.660156 74.910156 52.882812 73.472656 52.882812 C 72.039062 52.882812 70.441406 53.671875 70.441406 55.257812 L 70.441406 59.3125 C 70.441406 59.464844 70.441406 59.675781 70.660156 59.675781 C 70.878906 59.675781 70.878906 59.464844 70.878906 59.3125 L 70.878906 55.292969 C 70.878906 53.835938 72.421875 53.320312 73.472656 53.320312 C 74.515625 53.320312 76.070312 53.824219 76.070312 55.292969 L 76.070312 59.3125 C 76.070312 59.464844 76.070312 59.675781 76.289062 59.675781 C 76.507812 59.675781 76.507812 59.464844 76.507812 59.3125 Z M 76.507812 59.3125 "/>
<path style=" stroke:none;fill-rule:evenodd;fill:rgb(0%,0%,0%);fill-opacity:1;" d="M 87.773438 52.058594 C 87.773438 52.015625 87.753906 51.949219 87.65625 51.949219 C 87.457031 51.949219 86.984375 51.972656 86.789062 51.972656 C 86.472656 51.972656 86.140625 51.949219 85.835938 51.949219 C 85.75 51.949219 85.640625 51.949219 85.640625 52.160156 C 85.640625 52.257812 85.738281 52.269531 85.78125 52.269531 C 86.1875 52.300781 86.230469 52.496094 86.230469 52.628906 C 86.230469 52.792969 86.066406 53.058594 86.066406 53.058594 L 82.625 58.511719 L 81.859375 52.605469 C 81.859375 52.289062 82.429688 52.269531 82.550781 52.269531 C 82.714844 52.269531 82.8125 52.269531 82.8125 52.058594 C 82.8125 51.949219 82.691406 51.949219 82.660156 51.949219 C 82.472656 51.949219 82.253906 51.972656 82.066406 51.972656 L 81.453125 51.972656 C 80.652344 51.972656 80.316406 51.949219 80.316406 51.949219 C 80.25 51.949219 80.117188 51.949219 80.117188 52.148438 C 80.117188 52.269531 80.195312 52.269531 80.371094 52.269531 C 80.929688 52.269531 80.960938 52.367188 80.996094 52.640625 L 81.871094 59.402344 C 81.902344 59.628906 81.902344 59.664062 82.058594 59.664062 C 82.1875 59.664062 82.242188 59.628906 82.351562 59.457031 L 86.308594 53.167969 C 86.679688 52.574219 87.019531 52.3125 87.578125 52.269531 C 87.6875 52.257812 87.773438 52.257812 87.773438 52.058594 Z M 87.773438 52.058594 "/>
<path style=" stroke:none;fill-rule:evenodd;fill:rgb(0%,0%,0%);fill-opacity:1;" d="M 90.558594 59.199219 C 90.632812 58.886719 90.726562 58.527344 90.726562 58.226562 C 90.726562 58.011719 90.679688 57.828125 90.542969 57.710938 C 90.496094 57.675781 90.429688 57.652344 90.359375 57.652344 C 90.257812 57.652344 90.152344 57.695312 90.066406 57.789062 C 90 57.863281 89.960938 57.957031 89.960938 58.042969 C 89.960938 58.125 89.992188 58.203125 90.058594 58.257812 C 90.25 58.410156 90.359375 58.640625 90.359375 58.902344 C 90.359375 58.984375 90.34375 59.070312 90.328125 59.152344 C 90.152344 59.835938 89.675781 60.519531 89.070312 60.519531 C 88.65625 60.519531 88.386719 60.265625 88.296875 59.90625 C 88.402344 59.683594 88.488281 59.4375 88.539062 59.199219 C 88.554688 59.144531 88.5625 59.085938 88.5625 59.03125 C 88.5625 58.894531 88.507812 58.785156 88.378906 58.785156 C 88.226562 58.785156 88.109375 58.96875 88.070312 59.152344 C 88.003906 59.40625 87.972656 59.652344 87.980469 59.875 C 87.71875 60.25 87.34375 60.519531 86.9375 60.519531 C 86.460938 60.519531 86.230469 60.128906 86.230469 59.636719 C 86.230469 59.5 86.246094 59.355469 86.285156 59.199219 C 86.398438 58.753906 86.667969 58.332031 86.976562 57.941406 C 87 57.902344 87.015625 57.863281 87.015625 57.835938 C 87.015625 57.78125 86.984375 57.734375 86.9375 57.703125 C 86.914062 57.6875 86.890625 57.683594 86.859375 57.683594 C 86.804688 57.683594 86.746094 57.710938 86.707031 57.757812 C 86.382812 58.195312 86.179688 58.671875 86.054688 59.152344 C 85.984375 59.421875 85.949219 59.683594 85.949219 59.9375 C 85.949219 60.597656 86.207031 61.109375 86.835938 61.109375 C 87.320312 61.109375 87.726562 60.796875 88.042969 60.351562 C 88.15625 60.804688 88.457031 61.109375 88.960938 61.109375 C 89.773438 61.109375 90.328125 60.136719 90.558594 59.199219 Z M 90.558594 59.199219 "/>
</g>
</svg>
