<?xml version="1.0" encoding="UTF-8"?>
<svg xmlns="http://www.w3.org/2000/svg" xmlns:xlink="http://www.w3.org/1999/xlink" width="340pt" height="131pt" viewBox="0 0 340 131" version="1.1">
<defs>
<clipPath id="clip1">
  <path d="M 161 115 L 169.921875 115 L 169.921875 123 L 161 123 Z M 161 115 "/>
</clipPath>
</defs>
<g id="surface85">
<path style="fill-rule:nonzero;fill:rgb(100%,100%,86.999313%);fill-opacity:1;stroke-width:1;stroke-linecap:square;stroke-linejoin:miter;stroke:rgb(0%,0%,0%);stroke-opacity:1;stroke-miterlimit:3.25;" d="M 113.472656 102.542969 L 113.476562 102.511719 L 114.117188 99.273438 L 114.890625 96.09375 L 115.804688 92.980469 L 116.851562 89.9375 L 118.027344 86.972656 L 119.332031 84.089844 L 120.757812 81.292969 L 122.300781 78.585938 L 123.960938 75.976562 L 125.734375 73.472656 L 127.613281 71.070312 L 129.59375 68.785156 L 131.667969 66.609375 L 133.839844 64.554688 L 136.097656 62.625 L 138.433594 60.824219 L 140.851562 59.152344 L 143.335938 57.613281 L 145.886719 56.210938 L 148.496094 54.953125 L 151.160156 53.835938 L 153.875 52.863281 L 156.625 52.039062 L 159.414062 51.363281 L 162.226562 50.84375 L 165.054688 50.484375 L 167.894531 50.28125 L 170.742188 50.242188 L 173.585938 50.355469 L 176.421875 50.632812 L 179.242188 51.066406 L 182.042969 51.65625 L 184.816406 52.402344 L 187.550781 53.296875 L 190.242188 54.335938 L 192.882812 55.519531 L 195.464844 56.847656 L 197.988281 58.3125 L 200.441406 59.914062 L 202.820312 61.644531 L 205.121094 63.507812 L 207.339844 65.496094 L 209.464844 67.605469 L 211.5 69.835938 L 213.433594 72.175781 L 215.261719 74.625 L 216.980469 77.179688 L 218.589844 79.832031 L 220.078125 82.582031 L 221.449219 85.421875 L 222.695312 88.34375 L 223.808594 91.34375 L 224.792969 94.421875 L 225.644531 97.566406 L 226.355469 100.773438 L 226.929688 104.035156 L 227.355469 107.351562 L 227.46875 107.441406 L 227.585938 107.53125 L 227.710938 107.625 L 227.839844 107.722656 L 227.976562 107.820312 L 228.117188 107.921875 L 228.261719 108.023438 L 228.417969 108.128906 L 228.578125 108.234375 L 228.742188 108.34375 L 228.914062 108.449219 L 229.09375 108.558594 L 229.277344 108.671875 L 229.472656 108.78125 L 229.667969 108.894531 L 229.875 109.007812 L 230.085938 109.121094 L 230.304688 109.238281 L 230.527344 109.351562 L 230.757812 109.464844 L 230.996094 109.582031 L 231.242188 109.695312 L 231.492188 109.808594 L 231.75 109.921875 L 232.015625 110.035156 L 232.289062 110.148438 L 232.566406 110.257812 L 232.855469 110.371094 L 233.148438 110.480469 L 233.445312 110.585938 L 233.753906 110.695312 L 234.066406 110.800781 L 234.386719 110.902344 L 234.714844 111.003906 L 235.046875 111.105469 L 235.390625 111.203125 L 235.738281 111.296875 L 236.09375 111.390625 L 236.453125 111.480469 L 236.824219 111.566406 L 237.199219 111.652344 L 237.582031 111.734375 L 237.972656 111.8125 L 238.367188 111.886719 L 238.769531 111.957031 L 239.179688 112.027344 L 239.597656 112.089844 L 240.019531 112.152344 L 240.449219 112.207031 L 240.886719 112.261719 L 241.328125 112.308594 L 241.777344 112.351562 L 242.234375 112.390625 L 242.695312 112.425781 L 243.164062 112.453125 L 243.640625 112.476562 L 244.144531 112.5 L 245.207031 112.523438 L 245.742188 112.527344 L 321.402344 112.527344 L 321.230469 109.199219 L 320.976562 105.910156 L 320.640625 102.664062 L 320.226562 99.460938 L 319.738281 96.308594 L 319.171875 93.207031 L 318.539062 90.15625 L 317.835938 87.160156 L 317.066406 84.222656 L 316.234375 81.347656 L 315.339844 78.527344 L 314.390625 75.777344 L 313.382812 73.089844 L 312.324219 70.46875 L 311.21875 67.914062 L 310.0625 65.433594 L 308.867188 63.019531 L 307.632812 60.683594 L 306.363281 58.417969 L 305.058594 56.226562 L 303.726562 54.113281 L 302.367188 52.074219 L 300.984375 50.113281 L 299.585938 48.226562 L 298.167969 46.417969 L 296.742188 44.691406 L 295.3125 43.046875 L 293.882812 41.484375 L 292.457031 40.003906 L 291.078125 38.644531 L 178.371094 18.769531 L 92.582031 18.789062 L 91.257812 18.859375 L 89.90625 18.964844 L 88.527344 19.105469 L 87.121094 19.289062 L 85.691406 19.511719 L 84.238281 19.773438 L 82.761719 20.082031 L 81.261719 20.433594 L 79.742188 20.832031 L 78.207031 21.277344 L 76.652344 21.769531 L 75.082031 22.3125 L 73.5 22.90625 L 71.902344 23.550781 L 70.292969 24.246094 L 68.675781 25 L 67.050781 25.804688 L 65.421875 26.667969 L 63.785156 27.585938 L 62.148438 28.558594 L 60.507812 29.589844 L 58.875 30.683594 L 57.242188 31.832031 L 55.613281 33.042969 L 53.992188 34.3125 L 52.578125 35.476562 L 51.1875 36.6875 L 49.78125 37.976562 L 48.363281 39.339844 L 46.9375 40.785156 L 45.507812 42.308594 L 44.078125 43.917969 L 42.652344 45.605469 L 41.230469 47.375 L 39.820312 49.226562 L 38.429688 51.152344 L 37.0625 53.152344 L 35.714844 55.234375 L 34.398438 57.390625 L 33.109375 59.617188 L 31.859375 61.921875 L 30.644531 64.300781 L 29.472656 66.75 L 28.34375 69.269531 L 27.261719 71.859375 L 26.230469 74.515625 L 25.253906 77.242188 L 24.332031 80.027344 L 23.46875 82.878906 L 22.671875 85.789062 L 22.496094 86.503906 Z M 113.472656 102.542969 "/>
<path style=" stroke:none;fill-rule:evenodd;fill:rgb(0%,0%,0%);fill-opacity:1;" d="M 85.601562 65.871094 C 85.601562 65.414062 85.492188 65.007812 85.078125 64.601562 C 84.847656 64.371094 84.648438 64.316406 83.640625 64.054688 C 82.90625 63.855469 82.808594 63.824219 82.609375 63.648438 C 82.425781 63.460938 82.28125 63.199219 82.28125 62.824219 C 82.28125 61.90625 83.214844 60.964844 84.253906 60.964844 C 85.328125 60.964844 85.832031 61.621094 85.832031 62.660156 C 85.832031 62.945312 85.777344 63.242188 85.777344 63.285156 C 85.777344 63.382812 85.867188 63.382812 85.898438 63.382812 C 85.996094 63.382812 86.007812 63.351562 86.050781 63.175781 L 86.644531 60.765625 C 86.644531 60.667969 86.546875 60.667969 86.546875 60.667969 C 86.503906 60.667969 86.492188 60.675781 86.359375 60.84375 L 85.832031 61.5 C 85.46875 60.789062 84.75 60.667969 84.289062 60.667969 C 82.898438 60.667969 81.636719 61.9375 81.636719 63.175781 C 81.636719 64 82.128906 64.480469 82.664062 64.667969 C 82.785156 64.710938 83.433594 64.886719 83.761719 64.960938 C 84.320312 65.117188 84.460938 65.160156 84.695312 65.402344 C 84.738281 65.457031 84.957031 65.707031 84.957031 66.222656 C 84.957031 67.242188 84.015625 68.292969 82.917969 68.292969 C 82.019531 68.292969 81.019531 67.910156 81.019531 66.683594 C 81.019531 66.476562 81.066406 66.210938 81.097656 66.101562 C 81.097656 66.070312 81.109375 65.992188 81.109375 65.992188 C 81.109375 65.949219 81.089844 65.894531 81 65.894531 C 80.902344 65.894531 80.890625 65.914062 80.847656 66.101562 L 80.289062 68.347656 L 80.246094 68.511719 C 80.246094 68.613281 80.355469 68.613281 80.355469 68.613281 C 80.398438 68.613281 80.410156 68.601562 80.539062 68.4375 L 81.042969 67.777344 C 81.308594 68.175781 81.875 68.613281 82.898438 68.613281 C 84.308594 68.613281 85.601562 67.242188 85.601562 65.871094 Z M 85.601562 65.871094 "/>
<path style=" stroke:none;fill-rule:evenodd;fill:rgb(0%,0%,0%);fill-opacity:1;" d="M 91.019531 68.148438 C 91.097656 67.832031 91.1875 67.472656 91.1875 67.175781 C 91.1875 66.960938 91.144531 66.777344 91.003906 66.660156 C 90.960938 66.621094 90.890625 66.597656 90.820312 66.597656 C 90.722656 66.597656 90.613281 66.644531 90.53125 66.738281 C 90.460938 66.8125 90.421875 66.90625 90.421875 66.988281 C 90.421875 67.074219 90.453125 67.152344 90.523438 67.207031 C 90.714844 67.359375 90.820312 67.589844 90.820312 67.847656 C 90.820312 67.933594 90.804688 68.019531 90.789062 68.101562 C 90.613281 68.785156 90.140625 69.46875 89.53125 69.46875 C 89.117188 69.46875 88.847656 69.214844 88.757812 68.855469 C 88.863281 68.632812 88.949219 68.386719 89.003906 68.148438 C 89.019531 68.09375 89.027344 68.035156 89.027344 67.980469 C 89.027344 67.839844 88.972656 67.734375 88.839844 67.734375 C 88.6875 67.734375 88.574219 67.917969 88.535156 68.101562 C 88.464844 68.355469 88.433594 68.601562 88.441406 68.824219 C 88.183594 69.199219 87.804688 69.46875 87.398438 69.46875 C 86.921875 69.46875 86.691406 69.078125 86.691406 68.585938 C 86.691406 68.449219 86.707031 68.300781 86.746094 68.148438 C 86.863281 67.703125 87.128906 67.28125 87.4375 66.890625 C 87.460938 66.851562 87.476562 66.8125 87.476562 66.785156 C 87.476562 66.726562 87.445312 66.683594 87.398438 66.652344 C 87.375 66.636719 87.351562 66.628906 87.324219 66.628906 C 87.269531 66.628906 87.207031 66.660156 87.167969 66.707031 C 86.847656 67.144531 86.640625 67.621094 86.515625 68.101562 C 86.449219 68.371094 86.410156 68.632812 86.410156 68.886719 C 86.410156 69.542969 86.667969 70.058594 87.300781 70.058594 C 87.78125 70.058594 88.191406 69.746094 88.503906 69.300781 C 88.617188 69.753906 88.917969 70.058594 89.425781 70.058594 C 90.238281 70.058594 90.789062 69.085938 91.019531 68.148438 Z M 91.019531 68.148438 "/>
<path style=" stroke:none;fill-rule:evenodd;fill:rgb(0%,0%,0%);fill-opacity:1;" d="M 171.5 113 C 171.5 112.601562 171.34375 112.21875 171.0625 111.9375 C 170.78125 111.65625 170.398438 111.5 170 111.5 C 169.601562 111.5 169.21875 111.65625 168.9375 111.9375 C 168.65625 112.21875 168.5 112.601562 168.5 113 C 168.5 113.398438 168.65625 113.78125 168.9375 114.0625 C 169.21875 114.34375 169.601562 114.5 170 114.5 C 170.398438 114.5 170.78125 114.34375 171.0625 114.0625 C 171.34375 113.78125 171.5 113.398438 171.5 113 Z M 171.5 113 "/>
<g clip-path="url(#clip1)" clip-rule="nonzero">
<path style=" stroke:none;fill-rule:evenodd;fill:rgb(0%,0%,0%);fill-opacity:1;" d="M 169.035156 117.96875 C 169.035156 116.160156 167.851562 115.050781 166.316406 115.050781 C 163.972656 115.050781 161.605469 117.570312 161.605469 120.105469 C 161.605469 121.824219 162.746094 122.996094 164.332031 122.996094 C 166.632812 122.996094 169.035156 120.597656 169.035156 117.96875 Z M 168.15625 117.570312 C 168.15625 118.546875 167.742188 120.070312 167.007812 121.113281 C 166.207031 122.230469 165.210938 122.746094 164.398438 122.746094 C 163.5 122.746094 162.546875 122.085938 162.546875 120.378906 C 162.546875 119.378906 162.910156 117.746094 163.808594 116.652344 C 164.605469 115.6875 165.527344 115.292969 166.261719 115.292969 C 167.226562 115.292969 168.15625 115.992188 168.15625 117.570312 Z M 168.15625 117.570312 "/>
</g>
<path style="fill:none;stroke-width:1;stroke-linecap:butt;stroke-linejoin:miter;stroke:rgb(0%,0%,0%);stroke-opacity:1;stroke-dasharray:1,4;stroke-miterlimit:3.25;" d="M -340.15625 198.863281 L 219.253906 100.222656 "/>
<path style="fill:none;stroke-width:1;stroke-linecap:butt;stroke-linejoin:miter;stroke:rgb(0%,0%,0%);stroke-opacity:1;stroke-dasharray:1,4;stroke-miterlimit:3.25;" d="M -340.15625 198.863281 L 219.253906 100.222656 "/>
<path style=" stroke:none;fill-rule:nonzero;fill:rgb(0%,0%,0%);fill-opacity:1;" d="M 219.253906 100.222656 L 219.167969 100.136719 L 219.660156 99.644531 L 219.746094 100.136719 Z M 219.253906 100.222656 "/>
<path style="fill:none;stroke-width:1;stroke-linecap:butt;stroke-linejoin:miter;stroke:rgb(0%,0%,0%);stroke-opacity:1;stroke-dasharray:1,4;stroke-miterlimit:3.25;" d="M 247.835938 262.320312 L 219.253906 100.222656 "/>
<path style="fill:none;stroke-width:1;stroke-linecap:butt;stroke-linejoin:miter;stroke:rgb(0%,0%,0%);stroke-opacity:1;stroke-dasharray:1,4;stroke-miterlimit:3.25;" d="M 247.835938 262.320312 L 219.253906 100.222656 "/>
<path style="fill:none;stroke-width:1;stroke-linecap:butt;stroke-linejoin:miter;stroke:rgb(0%,0%,0%);stroke-opacity:1;stroke-dasharray:1,4;stroke-miterlimit:3.25;" d="M -340.15625 98.882812 L 299.121094 -13.835938 "/>
<path style="fill:none;stroke-width:1;stroke-linecap:butt;stroke-linejoin:miter;stroke:rgb(0%,0%,0%);stroke-opacity:1;stroke-dasharray:1,4;stroke-miterlimit:3.25;" d="M -340.15625 98.882812 L 299.121094 -13.835938 "/>
<path style="fill:none;stroke-width:1;stroke-linecap:butt;stroke-linejoin:miter;stroke:rgb(0%,0%,0%);stroke-opacity:1;stroke-dasharray:1,4;stroke-miterlimit:3.25;" d="M 347.816406 262.320312 L 299.121094 -13.835938 "/>
<path style="fill:none;stroke-width:1;stroke-linecap:butt;stroke-linejoin:miter;stroke:rgb(0%,0%,0%);stroke-opacity:1;stroke-dasharray:1,4;stroke-miterlimit:3.25;" d="M 347.816406 262.320312 L 299.121094 -13.835938 "/>
<path style=" stroke:none;fill-rule:evenodd;fill:rgb(0%,0%,0%);fill-opacity:1;" d="M 322.5 44 C 322.5 43.601562 322.34375 43.21875 322.0625 42.9375 C 321.78125 42.65625 321.398438 42.5 321 42.5 C 320.601562 42.5 320.21875 42.65625 319.9375 42.9375 C 319.65625 43.21875 319.5 43.601562 319.5 44 C 319.5 44.398438 319.65625 44.78125 319.9375 45.0625 C 320.21875 45.34375 320.601562 45.5 321 45.5 C 321.398438 45.5 321.78125 45.34375 322.0625 45.0625 C 322.34375 44.78125 322.5 44.398438 322.5 44 Z M 322.5 44 "/>
<path style=" stroke:none;fill-rule:evenodd;fill:rgb(0%,0%,0%);fill-opacity:1;" d="M 327.066406 35.058594 C 327.066406 34.707031 326.730469 34.402344 326.179688 34.402344 C 325.742188 34.402344 325.238281 34.597656 324.78125 35.265625 C 324.703125 34.6875 324.265625 34.402344 323.828125 34.402344 C 323.398438 34.402344 323.179688 34.730469 323.050781 34.96875 C 322.863281 35.367188 322.699219 36.019531 322.699219 36.074219 C 322.699219 36.121094 322.742188 36.175781 322.816406 36.175781 C 322.90625 36.175781 322.917969 36.164062 322.984375 35.910156 C 323.148438 35.257812 323.355469 34.621094 323.792969 34.621094 C 324.054688 34.621094 324.132812 34.804688 324.132812 35.125 C 324.132812 35.367188 324.023438 35.792969 323.945312 36.132812 L 323.640625 37.3125 L 323.421875 38.210938 C 323.34375 38.496094 323.222656 39.011719 323.222656 39.066406 C 323.222656 39.21875 323.34375 39.339844 323.507812 39.339844 C 323.628906 39.339844 323.839844 39.261719 323.902344 39.042969 C 323.9375 38.957031 324.339844 37.304688 324.40625 37.050781 C 324.460938 36.808594 324.527344 36.582031 324.582031 36.339844 L 324.703125 35.867188 C 324.734375 35.769531 325.03125 35.234375 325.304688 34.992188 C 325.433594 34.871094 325.722656 34.621094 326.167969 34.621094 C 326.34375 34.621094 326.519531 34.652344 326.664062 34.75 C 326.324219 34.816406 326.148438 35.058594 326.148438 35.300781 C 326.148438 35.5625 326.355469 35.648438 326.511719 35.648438 C 326.816406 35.648438 327.066406 35.386719 327.066406 35.058594 Z M 327.066406 35.058594 "/>
<path style="fill:none;stroke-width:1;stroke-linecap:butt;stroke-linejoin:miter;stroke:rgb(0%,0%,0%);stroke-opacity:1;stroke-dasharray:4,4;stroke-miterlimit:3.25;" d="M 178.28125 18.753906 L 321.402344 43.992188 L 321.402344 112.527344 "/>
<path style="fill:none;stroke-width:1;stroke-linecap:square;stroke-linejoin:miter;stroke:rgb(0%,66.666667%,0%);stroke-opacity:1;stroke-miterlimit:3.25;" d="M 257.402344 112.527344 L 321.402344 43.992188 "/>
<path style=" stroke:none;fill-rule:evenodd;fill:rgb(0%,66.666667%,0%);fill-opacity:1;" d="M 287.894531 73.5 L 287.894531 73.179688 L 287.554688 73.179688 C 286.589844 73.179688 286.558594 73.050781 286.558594 72.65625 L 286.558594 66.476562 C 286.558594 66.226562 286.558594 66.214844 286.339844 66.214844 C 286.074219 66.511719 285.527344 66.917969 284.398438 66.917969 L 284.398438 67.234375 C 284.652344 67.234375 285.199219 67.234375 285.800781 66.949219 L 285.800781 72.65625 C 285.800781 73.050781 285.769531 73.179688 284.804688 73.179688 L 284.464844 73.179688 L 284.464844 73.5 C 284.761719 73.476562 285.824219 73.476562 286.183594 73.476562 C 286.546875 73.476562 287.597656 73.476562 287.894531 73.5 Z M 287.894531 73.5 "/>
<path style="fill:none;stroke-width:1;stroke-linecap:square;stroke-linejoin:miter;stroke:rgb(0%,0%,100%);stroke-opacity:1;stroke-miterlimit:3.25;" d="M 321.402344 112.527344 L 257.402344 112.527344 "/>
<path style=" stroke:none;fill-rule:evenodd;fill:rgb(0%,0%,100%);fill-opacity:1;" d="M 290.347656 106.375 C 290.304688 106.550781 290.28125 106.59375 290.140625 106.757812 C 289.6875 107.339844 289.230469 107.546875 288.886719 107.546875 C 288.527344 107.546875 288.1875 107.261719 288.1875 106.507812 C 288.1875 105.925781 288.515625 104.699219 288.757812 104.207031 C 289.074219 103.589844 289.570312 103.152344 290.03125 103.152344 C 290.753906 103.152344 290.894531 104.054688 290.894531 104.117188 L 290.863281 104.273438 Z M 290.511719 108.503906 L 291.726562 103.589844 C 291.761719 103.460938 291.761719 103.417969 291.761719 103.417969 C 291.761719 103.261719 291.640625 103.144531 291.476562 103.144531 C 291.210938 103.144531 291.058594 103.363281 291.027344 103.65625 C 290.882812 103.339844 290.578125 102.933594 290.03125 102.933594 C 288.832031 102.933594 287.476562 104.4375 287.476562 106.070312 C 287.476562 107.207031 288.167969 107.769531 288.867188 107.769531 C 289.449219 107.769531 289.964844 107.304688 290.160156 107.085938 C 289.976562 107.824219 289.976562 107.84375 289.921875 108.074219 C 289.765625 108.675781 289.699219 108.949219 289.304688 109.335938 C 288.855469 109.785156 288.441406 109.785156 288.199219 109.785156 C 287.871094 109.785156 287.597656 109.761719 287.324219 109.675781 C 287.671875 109.574219 287.761719 109.269531 287.761719 109.148438 C 287.761719 108.972656 287.628906 108.796875 287.386719 108.796875 C 287.125 108.796875 286.839844 109.015625 286.839844 109.378906 C 286.839844 109.828125 287.289062 110.003906 288.222656 110.003906 C 289.632812 110.003906 290.367188 109.09375 290.511719 108.503906 Z M 290.511719 108.503906 "/>
<path style=" stroke:none;fill-rule:evenodd;fill:rgb(0%,0%,0%);fill-opacity:1;" d="M 322.5 113 C 322.5 112.601562 322.34375 112.21875 322.0625 111.9375 C 321.78125 111.65625 321.398438 111.5 321 111.5 C 320.601562 111.5 320.21875 111.65625 319.9375 111.9375 C 319.65625 112.21875 319.5 112.601562 319.5 113 C 319.5 113.398438 319.65625 113.78125 319.9375 114.0625 C 320.21875 114.34375 320.601562 114.5 321 114.5 C 321.398438 114.5 321.78125 114.34375 322.0625 114.0625 C 322.34375 113.78125 322.5 113.398438 322.5 113 Z M 322.5 113 "/>
<path style=" stroke:none;fill-rule:evenodd;fill:rgb(0%,0%,0%);fill-opacity:1;" d="M 326.46875 124.683594 C 326.46875 124.574219 326.378906 124.574219 326.214844 124.574219 C 325.703125 124.574219 325.667969 124.5 325.667969 124.410156 C 325.667969 124.355469 325.679688 124.347656 325.714844 124.203125 L 327.234375 118.042969 C 327.234375 117.988281 327.191406 117.945312 327.136719 117.945312 C 327.050781 117.945312 326.625 118.339844 326.414062 118.722656 C 326.214844 118.230469 325.878906 117.933594 325.40625 117.933594 C 324.167969 117.933594 322.832031 119.535156 322.832031 121.15625 C 322.832031 122.242188 323.464844 122.878906 324.210938 122.878906 C 324.792969 122.878906 325.273438 122.4375 325.503906 122.1875 L 325.515625 122.195312 L 325.097656 123.839844 L 325 124.238281 C 324.902344 124.566406 324.738281 124.566406 324.222656 124.574219 C 324.101562 124.574219 323.992188 124.574219 323.992188 124.785156 C 323.992188 124.859375 324.058594 124.894531 324.136719 124.894531 C 324.289062 124.894531 324.484375 124.871094 324.636719 124.871094 L 325.757812 124.871094 C 325.921875 124.871094 326.105469 124.894531 326.269531 124.894531 C 326.335938 124.894531 326.46875 124.894531 326.46875 124.683594 Z M 325.691406 121.464844 C 325.636719 121.648438 325.636719 121.671875 325.480469 121.878906 C 325.242188 122.1875 324.761719 122.65625 324.246094 122.65625 C 323.796875 122.65625 323.542969 122.25 323.542969 121.605469 C 323.542969 121.003906 323.882812 119.777344 324.089844 119.316406 C 324.464844 118.546875 324.980469 118.152344 325.40625 118.152344 C 326.128906 118.152344 326.269531 119.054688 326.269531 119.140625 C 326.269531 119.140625 326.238281 119.292969 326.226562 119.316406 Z M 325.691406 121.464844 "/>
<path style=" stroke:none;fill-rule:evenodd;fill:rgb(0%,0%,0%);fill-opacity:1;" d="M 330.957031 121.921875 C 330.957031 121.101562 330.871094 120.601562 330.621094 120.109375 C 330.28125 119.433594 329.660156 119.265625 329.238281 119.265625 C 328.269531 119.265625 327.917969 119.988281 327.8125 120.203125 C 327.535156 120.761719 327.519531 121.523438 327.519531 121.921875 C 327.519531 122.425781 327.542969 123.203125 327.910156 123.816406 C 328.265625 124.382812 328.832031 124.527344 329.238281 124.527344 C 329.605469 124.527344 330.265625 124.414062 330.648438 123.652344 C 330.933594 123.101562 330.957031 122.417969 330.957031 121.921875 Z M 330.273438 121.828125 C 330.273438 122.28125 330.273438 122.972656 330.183594 123.402344 C 330.019531 124.207031 329.492188 124.316406 329.238281 124.316406 C 328.976562 124.316406 328.445312 124.191406 328.285156 123.386719 C 328.203125 122.949219 328.203125 122.226562 328.203125 121.828125 C 328.203125 121.296875 328.203125 120.761719 328.285156 120.339844 C 328.445312 119.558594 329.046875 119.480469 329.238281 119.480469 C 329.5 119.480469 330.027344 119.609375 330.183594 120.308594 C 330.273438 120.730469 330.273438 121.304688 330.273438 121.828125 Z M 330.273438 121.828125 "/>
<path style=" stroke:none;fill-rule:evenodd;fill:rgb(0%,0%,0%);fill-opacity:1;" d="M 258.5 113 C 258.5 112.601562 258.34375 112.21875 258.0625 111.9375 C 257.78125 111.65625 257.398438 111.5 257 111.5 C 256.601562 111.5 256.21875 111.65625 255.9375 111.9375 C 255.65625 112.21875 255.5 112.601562 255.5 113 C 255.5 113.398438 255.65625 113.78125 255.9375 114.0625 C 256.21875 114.34375 256.601562 114.5 257 114.5 C 257.398438 114.5 257.78125 114.34375 258.0625 114.0625 C 258.34375 113.78125 258.5 113.398438 258.5 113 Z M 258.5 113 "/>
<path style=" stroke:none;fill-rule:evenodd;fill:rgb(0%,0%,0%);fill-opacity:1;" d="M 242.003906 124.683594 C 242.003906 124.574219 241.914062 124.574219 241.75 124.574219 C 241.238281 124.574219 241.203125 124.496094 241.203125 124.410156 C 241.203125 124.355469 241.214844 124.34375 241.246094 124.203125 L 242.769531 118.042969 C 242.769531 117.988281 242.726562 117.945312 242.671875 117.945312 C 242.582031 117.945312 242.15625 118.339844 241.949219 118.722656 C 241.75 118.230469 241.410156 117.933594 240.941406 117.933594 C 239.703125 117.933594 238.363281 119.53125 238.363281 121.15625 C 238.363281 122.238281 239 122.875 239.746094 122.875 C 240.328125 122.875 240.808594 122.4375 241.039062 122.183594 L 241.050781 122.195312 L 240.632812 123.839844 L 240.535156 124.234375 C 240.4375 124.5625 240.273438 124.5625 239.757812 124.574219 C 239.636719 124.574219 239.527344 124.574219 239.527344 124.78125 C 239.527344 124.859375 239.59375 124.890625 239.667969 124.890625 C 239.824219 124.890625 240.019531 124.867188 240.171875 124.867188 L 241.292969 124.867188 C 241.457031 124.867188 241.640625 124.890625 241.804688 124.890625 C 241.871094 124.890625 242.003906 124.890625 242.003906 124.683594 Z M 241.226562 121.460938 C 241.171875 121.648438 241.171875 121.671875 241.015625 121.878906 C 240.777344 122.183594 240.292969 122.65625 239.777344 122.65625 C 239.332031 122.65625 239.078125 122.25 239.078125 121.605469 C 239.078125 121 239.417969 119.773438 239.625 119.3125 C 239.996094 118.546875 240.511719 118.152344 240.941406 118.152344 C 241.664062 118.152344 241.804688 119.050781 241.804688 119.140625 C 241.804688 119.140625 241.773438 119.292969 241.761719 119.3125 Z M 241.226562 121.460938 "/>
<path style=" stroke:none;fill-rule:evenodd;fill:rgb(0%,0%,0%);fill-opacity:1;" d="M 246.488281 121.917969 C 246.488281 121.097656 246.40625 120.597656 246.152344 120.109375 C 245.816406 119.433594 245.191406 119.265625 244.769531 119.265625 C 243.804688 119.265625 243.453125 119.984375 243.34375 120.199219 C 243.066406 120.761719 243.050781 121.519531 243.050781 121.917969 C 243.050781 122.425781 243.074219 123.199219 243.445312 123.8125 C 243.796875 124.382812 244.363281 124.527344 244.769531 124.527344 C 245.140625 124.527344 245.800781 124.410156 246.183594 123.652344 C 246.464844 123.101562 246.488281 122.417969 246.488281 121.917969 Z M 245.808594 121.828125 C 245.808594 122.28125 245.808594 122.96875 245.714844 123.398438 C 245.554688 124.203125 245.023438 124.3125 244.769531 124.3125 C 244.511719 124.3125 243.980469 124.1875 243.820312 123.382812 C 243.734375 122.945312 243.734375 122.226562 243.734375 121.828125 C 243.734375 121.296875 243.734375 120.761719 243.820312 120.339844 C 243.980469 119.554688 244.578125 119.480469 244.769531 119.480469 C 245.03125 119.480469 245.5625 119.609375 245.714844 120.308594 C 245.808594 120.730469 245.808594 121.304688 245.808594 121.828125 Z M 245.808594 121.828125 "/>
<path style=" stroke:none;fill-rule:evenodd;fill:rgb(0%,0%,0%);fill-opacity:1;" d="M 257.339844 120.027344 C 257.339844 119.808594 257.132812 119.808594 256.980469 119.808594 L 251.007812 119.808594 C 250.855469 119.808594 250.648438 119.808594 250.648438 120.027344 C 250.648438 120.246094 250.855469 120.246094 251.007812 120.246094 L 256.980469 120.246094 C 257.132812 120.246094 257.339844 120.246094 257.339844 120.027344 Z M 257.339844 120.027344 "/>
<path style=" stroke:none;fill-rule:evenodd;fill:rgb(0%,0%,0%);fill-opacity:1;" d="M 264.339844 121.375 C 264.296875 121.550781 264.277344 121.59375 264.132812 121.757812 C 263.683594 122.339844 263.222656 122.546875 262.882812 122.546875 C 262.523438 122.546875 262.183594 122.261719 262.183594 121.507812 C 262.183594 120.925781 262.511719 119.699219 262.753906 119.203125 C 263.070312 118.589844 263.5625 118.152344 264.023438 118.152344 C 264.746094 118.152344 264.890625 119.050781 264.890625 119.117188 L 264.855469 119.269531 Z M 264.503906 123.5 L 265.722656 118.589844 C 265.753906 118.460938 265.753906 118.414062 265.753906 118.414062 C 265.753906 118.261719 265.636719 118.140625 265.46875 118.140625 C 265.207031 118.140625 265.054688 118.359375 265.019531 118.65625 C 264.878906 118.339844 264.570312 117.933594 264.023438 117.933594 C 262.828125 117.933594 261.472656 119.433594 261.472656 121.066406 C 261.472656 122.207031 262.160156 122.765625 262.863281 122.765625 C 263.441406 122.765625 263.957031 122.304688 264.15625 122.085938 C 263.96875 122.820312 263.96875 122.84375 263.914062 123.070312 C 263.761719 123.675781 263.695312 123.949219 263.300781 124.332031 C 262.851562 124.78125 262.433594 124.78125 262.195312 124.78125 C 261.863281 124.78125 261.589844 124.757812 261.316406 124.671875 C 261.667969 124.574219 261.753906 124.265625 261.753906 124.148438 C 261.753906 123.96875 261.625 123.796875 261.382812 123.796875 C 261.121094 123.796875 260.835938 124.015625 260.835938 124.375 C 260.835938 124.824219 261.285156 125 262.214844 125 C 263.628906 125 264.363281 124.089844 264.503906 123.5 Z M 264.503906 123.5 "/>
<path style=" stroke:none;fill-rule:evenodd;fill:rgb(0%,0%,0%);fill-opacity:1;" d="M 272.023438 121.199219 C 272.023438 121.144531 271.980469 121.101562 271.914062 121.101562 C 271.816406 121.101562 271.804688 121.15625 271.761719 121.320312 C 271.5625 122.074219 271.367188 122.65625 270.925781 122.65625 C 270.597656 122.65625 270.597656 122.292969 270.597656 122.152344 C 270.597656 121.898438 270.632812 121.789062 270.742188 121.328125 L 270.960938 120.429688 L 271.410156 118.644531 C 271.488281 118.371094 271.488281 118.351562 271.488281 118.316406 C 271.488281 118.152344 271.355469 118.042969 271.191406 118.042969 C 270.871094 118.042969 270.796875 118.316406 270.730469 118.589844 L 269.953125 121.757812 C 269.953125 121.757812 269.515625 122.65625 268.714844 122.65625 C 268.144531 122.65625 268.035156 122.164062 268.035156 121.757812 C 268.035156 121.132812 268.339844 120.257812 268.628906 119.523438 C 268.757812 119.171875 268.8125 119.03125 268.8125 118.8125 C 268.8125 118.339844 268.472656 117.933594 267.949219 117.933594 C 266.941406 117.933594 266.535156 119.523438 266.535156 119.609375 C 266.535156 119.65625 266.578125 119.710938 266.652344 119.710938 C 266.753906 119.710938 266.765625 119.664062 266.808594 119.511719 C 267.070312 118.570312 267.496094 118.152344 267.914062 118.152344 C 268.023438 118.152344 268.199219 118.164062 268.199219 118.515625 C 268.199219 118.800781 268.078125 119.117188 267.914062 119.53125 C 267.433594 120.835938 267.378906 121.253906 267.378906 121.582031 C 267.378906 122.699219 268.222656 122.875 268.671875 122.875 C 269.371094 122.875 269.753906 122.394531 269.972656 122.128906 C 270.117188 122.742188 270.644531 122.875 270.90625 122.875 C 271.257812 122.875 271.519531 122.644531 271.695312 122.273438 C 271.878906 121.878906 272.023438 121.230469 272.023438 121.199219 Z M 272.023438 121.199219 "/>
<path style=" stroke:none;fill-rule:evenodd;fill:rgb(0%,0%,0%);fill-opacity:1;" d="M 276.089844 121.917969 C 276.089844 121.097656 276.003906 120.597656 275.753906 120.109375 C 275.414062 119.433594 274.792969 119.265625 274.371094 119.265625 C 273.402344 119.265625 273.050781 119.984375 272.945312 120.199219 C 272.667969 120.761719 272.652344 121.519531 272.652344 121.917969 C 272.652344 122.425781 272.675781 123.199219 273.042969 123.8125 C 273.398438 124.382812 273.964844 124.527344 274.371094 124.527344 C 274.738281 124.527344 275.398438 124.410156 275.78125 123.652344 C 276.066406 123.101562 276.089844 122.417969 276.089844 121.917969 Z M 275.40625 121.828125 C 275.40625 122.28125 275.40625 122.96875 275.316406 123.398438 C 275.152344 124.203125 274.625 124.3125 274.371094 124.3125 C 274.109375 124.3125 273.582031 124.1875 273.417969 123.382812 C 273.335938 122.945312 273.335938 122.226562 273.335938 121.828125 C 273.335938 121.296875 273.335938 120.761719 273.417969 120.339844 C 273.582031 119.554688 274.179688 119.480469 274.371094 119.480469 C 274.632812 119.480469 275.160156 119.609375 275.316406 120.308594 C 275.40625 120.730469 275.40625 121.304688 275.40625 121.828125 Z M 275.40625 121.828125 "/>
<path style="fill:none;stroke-width:1;stroke-linecap:square;stroke-linejoin:miter;stroke:rgb(0%,0%,100%);stroke-opacity:1;stroke-miterlimit:3.25;" d="M 114.28125 18.753906 L 178.28125 18.753906 "/>
<path style=" stroke:none;fill-rule:evenodd;fill:rgb(0%,0%,100%);fill-opacity:1;" d="M 147.226562 12.605469 C 147.183594 12.78125 147.160156 12.824219 147.019531 12.988281 C 146.566406 13.570312 146.109375 13.777344 145.769531 13.777344 C 145.40625 13.777344 145.066406 13.492188 145.066406 12.738281 C 145.066406 12.15625 145.394531 10.929688 145.636719 10.433594 C 145.957031 9.820312 146.449219 9.382812 146.910156 9.382812 C 147.632812 9.382812 147.773438 10.28125 147.773438 10.347656 L 147.742188 10.5 Z M 147.390625 14.730469 L 148.609375 9.820312 C 148.640625 9.6875 148.640625 9.644531 148.640625 9.644531 C 148.640625 9.492188 148.519531 9.371094 148.355469 9.371094 C 148.09375 9.371094 147.9375 9.589844 147.90625 9.886719 C 147.765625 9.570312 147.457031 9.164062 146.910156 9.164062 C 145.714844 9.164062 144.355469 10.664062 144.355469 12.296875 C 144.355469 13.4375 145.046875 13.996094 145.746094 13.996094 C 146.328125 13.996094 146.84375 13.535156 147.039062 13.316406 C 146.855469 14.050781 146.855469 14.074219 146.800781 14.300781 C 146.644531 14.90625 146.578125 15.179688 146.183594 15.5625 C 145.734375 16.011719 145.320312 16.011719 145.078125 16.011719 C 144.75 16.011719 144.476562 15.992188 144.203125 15.902344 C 144.550781 15.804688 144.640625 15.5 144.640625 15.378906 C 144.640625 15.203125 144.507812 15.027344 144.269531 15.027344 C 144.003906 15.027344 143.71875 15.246094 143.71875 15.609375 C 143.71875 16.054688 144.167969 16.230469 145.101562 16.230469 C 146.511719 16.230469 147.246094 15.320312 147.390625 14.730469 Z M 147.390625 14.730469 "/>
<path style=" stroke:none;fill-rule:evenodd;fill:rgb(0%,0%,0%);fill-opacity:1;" d="M 115.5 19 C 115.5 18.601562 115.34375 18.21875 115.0625 17.9375 C 114.78125 17.65625 114.398438 17.5 114 17.5 C 113.601562 17.5 113.21875 17.65625 112.9375 17.9375 C 112.65625 18.21875 112.5 18.601562 112.5 19 C 112.5 19.398438 112.65625 19.78125 112.9375 20.0625 C 113.21875 20.34375 113.601562 20.5 114 20.5 C 114.398438 20.5 114.78125 20.34375 115.0625 20.0625 C 115.34375 19.78125 115.5 19.398438 115.5 19 Z M 115.5 19 "/>
<path style=" stroke:none;fill-rule:evenodd;fill:rgb(0%,0%,0%);fill-opacity:1;" d="M 113.851562 15.914062 C 113.851562 15.804688 113.761719 15.804688 113.597656 15.804688 C 113.082031 15.804688 113.050781 15.726562 113.050781 15.640625 C 113.050781 15.585938 113.0625 15.574219 113.09375 15.433594 L 114.617188 9.273438 C 114.617188 9.21875 114.570312 9.175781 114.515625 9.175781 C 114.429688 9.175781 114.003906 9.570312 113.792969 9.953125 C 113.597656 9.460938 113.257812 9.164062 112.785156 9.164062 C 111.546875 9.164062 110.210938 10.761719 110.210938 12.386719 C 110.210938 13.46875 110.847656 14.105469 111.589844 14.105469 C 112.171875 14.105469 112.65625 13.667969 112.882812 13.414062 L 112.894531 13.425781 L 112.480469 15.070312 L 112.382812 15.464844 C 112.28125 15.792969 112.117188 15.792969 111.601562 15.804688 C 111.480469 15.804688 111.371094 15.804688 111.371094 16.011719 C 111.371094 16.089844 111.4375 16.121094 111.515625 16.121094 C 111.667969 16.121094 111.863281 16.101562 112.019531 16.101562 L 113.136719 16.101562 C 113.300781 16.101562 113.488281 16.121094 113.652344 16.121094 C 113.71875 16.121094 113.851562 16.121094 113.851562 15.914062 Z M 113.070312 12.691406 C 113.015625 12.878906 113.015625 12.902344 112.863281 13.109375 C 112.621094 13.414062 112.140625 13.886719 111.625 13.886719 C 111.175781 13.886719 110.921875 13.480469 110.921875 12.835938 C 110.921875 12.230469 111.261719 11.003906 111.472656 10.542969 C 111.84375 9.777344 112.359375 9.382812 112.785156 9.382812 C 113.507812 9.382812 113.652344 10.28125 113.652344 10.367188 C 113.652344 10.367188 113.617188 10.523438 113.609375 10.542969 Z M 113.070312 12.691406 "/>
<path style=" stroke:none;fill-rule:evenodd;fill:rgb(0%,0%,0%);fill-opacity:1;" d="M 118.015625 15.597656 L 118.015625 15.34375 L 117.746094 15.34375 C 117.015625 15.34375 116.996094 15.25 116.996094 14.96875 L 116.996094 10.710938 C 116.996094 10.5 116.980469 10.492188 116.769531 10.492188 C 116.457031 10.800781 116.050781 10.984375 115.320312 10.984375 L 115.320312 11.238281 C 115.527344 11.238281 115.941406 11.238281 116.386719 11.03125 L 116.386719 14.96875 C 116.386719 15.25 116.363281 15.34375 115.636719 15.34375 L 115.367188 15.34375 L 115.367188 15.597656 C 115.679688 15.574219 116.339844 15.574219 116.6875 15.574219 C 117.03125 15.574219 117.699219 15.574219 118.015625 15.597656 Z M 118.015625 15.597656 "/>
<path style=" stroke:none;fill-rule:evenodd;fill:rgb(0%,0%,0%);fill-opacity:1;" d="M 179.5 19 C 179.5 18.601562 179.34375 18.21875 179.0625 17.9375 C 178.78125 17.65625 178.398438 17.5 178 17.5 C 177.601562 17.5 177.21875 17.65625 176.9375 17.9375 C 176.65625 18.21875 176.5 18.601562 176.5 19 C 176.5 19.398438 176.65625 19.78125 176.9375 20.0625 C 177.21875 20.34375 177.601562 20.5 178 20.5 C 178.398438 20.5 178.78125 20.34375 179.0625 20.0625 C 179.34375 19.78125 179.5 19.398438 179.5 19 Z M 179.5 19 "/>
<path style=" stroke:none;fill-rule:evenodd;fill:rgb(0%,0%,0%);fill-opacity:1;" d="M 184.28125 10.984375 C 184.28125 9.941406 183.601562 9.164062 182.605469 9.164062 C 181.15625 9.164062 179.730469 10.742188 179.730469 12.285156 C 179.730469 13.328125 180.410156 14.105469 181.410156 14.105469 C 182.867188 14.105469 184.28125 12.527344 184.28125 10.984375 Z M 183.546875 10.585938 C 183.546875 11.027344 183.316406 12.199219 182.898438 12.867188 C 182.449219 13.601562 181.847656 13.886719 181.417969 13.886719 C 180.871094 13.886719 180.464844 13.449219 180.464844 12.683594 C 180.464844 12.175781 180.730469 11.058594 181.035156 10.511719 C 181.527344 9.667969 182.144531 9.382812 182.59375 9.382812 C 183.128906 9.382812 183.546875 9.820312 183.546875 10.585938 Z M 183.546875 10.585938 "/>
<path style=" stroke:none;fill-rule:evenodd;fill:rgb(0%,0%,0%);fill-opacity:1;" d="M 189.21875 13.761719 C 189.292969 13.449219 189.386719 13.089844 189.386719 12.789062 C 189.386719 12.574219 189.339844 12.390625 189.203125 12.273438 C 189.15625 12.238281 189.085938 12.214844 189.019531 12.214844 C 188.917969 12.214844 188.8125 12.257812 188.726562 12.351562 C 188.65625 12.425781 188.617188 12.519531 188.617188 12.605469 C 188.617188 12.6875 188.648438 12.765625 188.71875 12.820312 C 188.910156 12.972656 189.019531 13.203125 189.019531 13.464844 C 189.019531 13.546875 189.003906 13.632812 188.988281 13.714844 C 188.8125 14.398438 188.335938 15.082031 187.730469 15.082031 C 187.316406 15.082031 187.046875 14.828125 186.953125 14.46875 C 187.0625 14.246094 187.148438 14 187.199219 13.761719 C 187.214844 13.707031 187.222656 13.648438 187.222656 13.59375 C 187.222656 13.457031 187.167969 13.347656 187.039062 13.347656 C 186.886719 13.347656 186.769531 13.53125 186.730469 13.714844 C 186.664062 13.96875 186.632812 14.214844 186.640625 14.4375 C 186.378906 14.8125 186.003906 15.082031 185.597656 15.082031 C 185.121094 15.082031 184.890625 14.691406 184.890625 14.199219 C 184.890625 14.0625 184.90625 13.917969 184.945312 13.761719 C 185.058594 13.316406 185.328125 12.894531 185.632812 12.503906 C 185.65625 12.464844 185.671875 12.425781 185.671875 12.398438 C 185.671875 12.34375 185.640625 12.296875 185.597656 12.265625 C 185.574219 12.25 185.550781 12.246094 185.519531 12.246094 C 185.464844 12.246094 185.402344 12.273438 185.367188 12.320312 C 185.042969 12.757812 184.835938 13.234375 184.714844 13.714844 C 184.644531 13.984375 184.605469 14.246094 184.605469 14.5 C 184.605469 15.160156 184.867188 15.671875 185.496094 15.671875 C 185.980469 15.671875 186.386719 15.359375 186.703125 14.914062 C 186.816406 15.367188 187.117188 15.671875 187.621094 15.671875 C 188.433594 15.671875 188.988281 14.699219 189.21875 13.761719 Z M 189.21875 13.761719 "/>
<path style=" stroke:none;fill-rule:nonzero;fill:rgb(66.666667%,0%,0%);fill-opacity:1;" d="M 170.078125 112.527344 L 178.28125 112.527344 L 162 111.101562 Z M 170.078125 112.527344 "/>
<path style=" stroke:none;fill-rule:evenodd;fill:rgb(66.666667%,0%,0%);fill-opacity:1;" d="M 184.191406 127.375 C 184.191406 127.332031 184.167969 127.265625 184.148438 127.234375 L 180.488281 119.828125 C 180.410156 119.671875 180.390625 119.628906 180.238281 119.628906 C 180.074219 119.628906 180.050781 119.671875 179.972656 119.828125 L 176.316406 127.234375 C 176.292969 127.265625 176.273438 127.332031 176.273438 127.375 C 176.273438 127.441406 176.28125 127.453125 176.5 127.453125 L 183.960938 127.453125 C 184.179688 127.453125 184.191406 127.441406 184.191406 127.375 Z M 182.886719 126.695312 L 176.917969 126.695312 L 179.898438 120.636719 Z M 182.886719 126.695312 "/>
<path style=" stroke:none;fill-rule:evenodd;fill:rgb(66.666667%,0%,0%);fill-opacity:1;" d="M 189.398438 127.21875 C 189.472656 126.902344 189.566406 126.542969 189.566406 126.246094 C 189.566406 126.03125 189.519531 125.847656 189.382812 125.730469 C 189.335938 125.691406 189.265625 125.667969 189.199219 125.667969 C 189.097656 125.667969 188.992188 125.714844 188.90625 125.808594 C 188.835938 125.882812 188.796875 125.976562 188.796875 126.058594 C 188.796875 126.144531 188.828125 126.222656 188.898438 126.277344 C 189.089844 126.429688 189.199219 126.660156 189.199219 126.917969 C 189.199219 127.003906 189.183594 127.085938 189.167969 127.171875 C 188.992188 127.855469 188.515625 128.539062 187.910156 128.539062 C 187.496094 128.539062 187.226562 128.285156 187.136719 127.921875 C 187.242188 127.703125 187.328125 127.457031 187.378906 127.21875 C 187.394531 127.164062 187.402344 127.101562 187.402344 127.050781 C 187.402344 126.910156 187.347656 126.804688 187.21875 126.804688 C 187.066406 126.804688 186.949219 126.988281 186.910156 127.171875 C 186.84375 127.425781 186.8125 127.671875 186.820312 127.894531 C 186.558594 128.269531 186.183594 128.539062 185.777344 128.539062 C 185.300781 128.539062 185.070312 128.148438 185.070312 127.65625 C 185.070312 127.515625 185.085938 127.371094 185.125 127.21875 C 185.238281 126.773438 185.507812 126.351562 185.816406 125.960938 C 185.839844 125.921875 185.855469 125.882812 185.855469 125.855469 C 185.855469 125.800781 185.824219 125.753906 185.777344 125.722656 C 185.753906 125.707031 185.730469 125.699219 185.699219 125.699219 C 185.644531 125.699219 185.585938 125.730469 185.546875 125.777344 C 185.222656 126.214844 185.019531 126.6875 184.894531 127.171875 C 184.824219 127.441406 184.789062 127.703125 184.789062 127.953125 C 184.789062 128.613281 185.046875 129.128906 185.675781 129.128906 C 186.160156 129.128906 186.566406 128.8125 186.882812 128.367188 C 186.996094 128.820312 187.296875 129.128906 187.800781 129.128906 C 188.613281 129.128906 189.167969 128.15625 189.398438 127.21875 Z M 189.398438 127.21875 "/>
<path style="fill:none;stroke-width:1;stroke-linecap:square;stroke-linejoin:miter;stroke:rgb(66.666667%,0%,0%);stroke-opacity:1;stroke-miterlimit:3.25;" d="M 170.078125 112.527344 L 174.765625 117.214844 "/>
</g>
</svg>
