<?xml version="1.0" encoding="UTF-8"?>
<svg xmlns="http://www.w3.org/2000/svg" xmlns:xlink="http://www.w3.org/1999/xlink" width="202pt" height="157pt" viewBox="0 0 202 157" version="1.1">
<defs>
<clipPath id="clip1">
  <path d="M 54 0 L 188 0 L 188 156.71875 L 54 156.71875 Z M 54 0 "/>
</clipPath>
<clipPath id="clip2">
  <path d="M 0 0 L 183 0 L 183 156.71875 L 0 156.71875 Z M 0 0 "/>
</clipPath>
</defs>
<g id="surface95">
<g clip-path="url(#clip1)" clip-rule="nonzero">
<path style="fill:none;stroke-width:1;stroke-linecap:square;stroke-linejoin:miter;stroke:rgb(0%,0%,0%);stroke-opacity:1;stroke-miterlimit:3.25;" d="M 182.660156 156.550781 L 59.132812 0 "/>
</g>
<path style="fill:none;stroke-width:2;stroke-linecap:square;stroke-linejoin:miter;stroke:rgb(0%,0%,0%);stroke-opacity:1;stroke-miterlimit:3.25;" d="M 135.507812 96.792969 L 93.003906 42.925781 "/>
<path style="fill:none;stroke-width:4;stroke-linecap:butt;stroke-linejoin:round;stroke:rgb(100%,100%,100%);stroke-opacity:0.666667;stroke-miterlimit:3.239307;" d="M 123.125 75.445312 L 124.335938 74.277344 L 125.339844 73.402344 L 126.164062 72.773438 L 126.84375 72.351562 L 127.402344 72.097656 L 127.871094 71.964844 L 128.28125 71.917969 L 128.660156 71.910156 L 130.660156 71.910156 "/>
<path style="fill:none;stroke-width:1.25;stroke-linecap:square;stroke-linejoin:miter;stroke:rgb(66.666667%,66.666667%,66.666667%);stroke-opacity:1;stroke-miterlimit:3.25;" d="M 123.125 75.445312 L 124.335938 74.277344 L 125.339844 73.402344 L 126.164062 72.773438 L 126.84375 72.351562 L 127.402344 72.097656 L 127.871094 71.964844 L 128.28125 71.917969 L 128.660156 71.910156 L 130.660156 71.910156 "/>
<path style=" stroke:none;fill-rule:nonzero;fill:rgb(100%,100%,100%);fill-opacity:0.666667;" d="M 164.660156 58.710938 L 164.660156 80.710938 L 130.660156 80.710938 L 130.660156 58.710938 Z M 164.660156 58.710938 "/>
<path style=" stroke:none;fill-rule:evenodd;fill:rgb(0%,0%,0%);fill-opacity:1;" d="M 139.445312 71.050781 C 139.445312 70.984375 139.375 70.925781 139.332031 70.925781 C 139.296875 70.925781 139.285156 70.9375 139.183594 71.039062 C 138.457031 72.007812 137.375 72.175781 136.945312 72.175781 C 136.296875 72.175781 135.957031 71.664062 135.957031 70.824219 C 135.957031 70.664062 135.957031 70.378906 136.125 69.652344 L 136.730469 69.652344 C 137.035156 69.652344 137.808594 69.628906 138.355469 69.425781 C 139.21875 69.09375 139.296875 68.4375 139.296875 68.230469 C 139.296875 67.730469 138.867188 67.277344 138.117188 67.277344 C 136.921875 67.277344 135.203125 68.355469 135.203125 70.378906 C 135.203125 71.574219 135.886719 72.402344 136.921875 72.402344 C 138.46875 72.402344 139.445312 71.199219 139.445312 71.050781 Z M 138.957031 68.230469 C 138.957031 69.425781 137.136719 69.425781 136.660156 69.425781 L 136.183594 69.425781 C 136.671875 67.675781 137.75 67.503906 138.117188 67.503906 C 138.617188 67.503906 138.957031 67.800781 138.957031 68.230469 Z M 138.957031 68.230469 "/>
<path style=" stroke:none;fill-rule:evenodd;fill:rgb(0%,0%,0%);fill-opacity:1;" d="M 146.046875 73.792969 C 146.046875 73.683594 145.9375 73.683594 145.890625 73.683594 C 145.582031 73.675781 145.480469 73.617188 145.355469 73.351562 L 144.097656 70.769531 L 144.050781 70.667969 C 144.050781 70.667969 144.1875 70.554688 144.265625 70.5 C 144.886719 70.042969 145.742188 69.429688 146.003906 69.261719 C 146.402344 69.007812 146.695312 68.84375 147.050781 68.8125 C 147.113281 68.804688 147.226562 68.796875 147.226562 68.652344 C 147.21875 68.597656 147.171875 68.550781 147.113281 68.550781 C 147.113281 68.550781 146.886719 68.574219 146.832031 68.574219 L 146.515625 68.574219 C 146.382812 68.574219 146.183594 68.574219 146.113281 68.566406 C 146.058594 68.566406 145.75 68.550781 145.695312 68.550781 C 145.640625 68.550781 145.527344 68.550781 145.527344 68.703125 C 145.527344 68.703125 145.535156 68.804688 145.65625 68.8125 C 145.71875 68.820312 145.84375 68.835938 145.84375 68.929688 C 145.84375 69.058594 145.6875 69.191406 145.667969 69.199219 L 145.605469 69.253906 C 145.582031 69.277344 145.550781 69.308594 145.511719 69.332031 L 142.289062 71.671875 L 142.914062 69.167969 C 142.984375 68.882812 143 68.8125 143.578125 68.8125 C 143.734375 68.8125 143.832031 68.8125 143.832031 68.660156 C 143.832031 68.660156 143.824219 68.550781 143.695312 68.550781 C 143.546875 68.550781 143.355469 68.566406 143.207031 68.574219 L 142.707031 68.574219 C 141.953125 68.574219 141.746094 68.550781 141.691406 68.550781 C 141.652344 68.550781 141.535156 68.550781 141.535156 68.703125 C 141.535156 68.8125 141.628906 68.8125 141.761719 68.8125 C 142.023438 68.8125 142.25 68.8125 142.25 68.9375 C 142.25 68.96875 142.242188 68.976562 142.21875 69.078125 L 141.160156 73.320312 C 141.089844 73.617188 141.074219 73.683594 140.492188 73.683594 C 140.339844 73.683594 140.246094 73.683594 140.246094 73.832031 C 140.246094 73.863281 140.269531 73.945312 140.371094 73.945312 C 140.523438 73.945312 140.710938 73.925781 140.863281 73.917969 L 141.878906 73.917969 C 142.007812 73.925781 142.269531 73.945312 142.386719 73.945312 C 142.425781 73.945312 142.542969 73.945312 142.542969 73.800781 C 142.542969 73.683594 142.449219 73.683594 142.316406 73.683594 C 142.261719 73.683594 142.148438 73.683594 142.015625 73.667969 C 141.847656 73.652344 141.824219 73.636719 141.824219 73.554688 C 141.824219 73.507812 141.878906 73.3125 141.90625 73.1875 C 141.988281 72.835938 141.886719 73.273438 142.203125 71.992188 L 143.476562 71.078125 L 144.421875 73.027344 L 144.574219 73.335938 C 144.621094 73.414062 144.621094 73.429688 144.621094 73.460938 C 144.621094 73.675781 144.328125 73.683594 144.242188 73.683594 C 144.160156 73.683594 144.050781 73.683594 144.050781 73.832031 C 144.050781 73.832031 144.058594 73.945312 144.1875 73.945312 C 144.265625 73.945312 144.566406 73.925781 144.636719 73.917969 L 145.09375 73.917969 C 145.820312 73.917969 145.796875 73.945312 145.898438 73.945312 C 145.929688 73.945312 146.046875 73.945312 146.046875 73.792969 Z M 146.046875 73.792969 "/>
<path style=" stroke:none;fill-rule:evenodd;fill:rgb(0%,0%,0%);fill-opacity:1;" d="M 151.71875 75.050781 C 151.71875 75.019531 151.71875 74.996094 151.523438 74.800781 C 150.386719 73.65625 149.75 71.777344 149.75 69.457031 C 149.75 67.253906 150.285156 65.355469 151.601562 64.011719 C 151.71875 63.910156 151.71875 63.890625 151.71875 63.855469 C 151.71875 63.785156 151.660156 63.761719 151.613281 63.761719 C 151.464844 63.761719 150.535156 64.582031 149.976562 65.695312 C 149.398438 66.84375 149.136719 68.0625 149.136719 69.457031 C 149.136719 70.472656 149.296875 71.824219 149.886719 73.039062 C 150.554688 74.40625 151.488281 75.144531 151.613281 75.144531 C 151.660156 75.144531 151.71875 75.121094 151.71875 75.050781 Z M 151.71875 75.050781 "/>
<path style=" stroke:none;fill-rule:evenodd;fill:rgb(0%,0%,0%);fill-opacity:1;" d="M 155.816406 70.664062 C 155.816406 70.597656 155.773438 70.5625 155.703125 70.5625 C 155.703125 70.5625 155.636719 70.5625 155.613281 70.609375 C 155.613281 70.609375 155.589844 70.628906 155.511719 70.8125 C 155.273438 71.382812 154.75 72.175781 154.089844 72.175781 C 153.746094 72.175781 153.726562 71.894531 153.726562 71.644531 C 153.726562 71.644531 153.726562 71.414062 153.757812 71.277344 L 154.644531 67.71875 L 155.691406 67.71875 C 155.90625 67.71875 156.023438 67.71875 156.023438 67.515625 C 156.023438 67.390625 155.953125 67.390625 155.726562 67.390625 L 154.726562 67.390625 L 155.144531 65.730469 C 155.191406 65.570312 155.191406 65.546875 155.191406 65.46875 C 155.191406 65.289062 155.042969 65.183594 154.894531 65.183594 C 154.804688 65.183594 154.542969 65.21875 154.453125 65.582031 L 154.007812 67.390625 L 152.941406 67.390625 C 152.714844 67.390625 152.609375 67.390625 152.609375 67.605469 C 152.609375 67.71875 152.691406 67.71875 152.90625 67.71875 L 153.917969 67.71875 L 153.167969 70.722656 C 153.078125 71.121094 153.042969 71.234375 153.042969 71.382812 C 153.042969 71.914062 153.417969 72.402344 154.054688 72.402344 C 155.203125 72.402344 155.816406 70.742188 155.816406 70.664062 Z M 155.816406 70.664062 "/>
<path style=" stroke:none;fill-rule:evenodd;fill:rgb(0%,0%,0%);fill-opacity:1;" d="M 159.492188 69.457031 C 159.492188 68.59375 159.378906 67.1875 158.742188 65.867188 C 158.074219 64.503906 157.140625 63.761719 157.015625 63.761719 C 156.96875 63.761719 156.910156 63.785156 156.910156 63.855469 C 156.910156 63.890625 156.910156 63.910156 157.105469 64.105469 C 158.242188 65.253906 158.878906 67.128906 158.878906 69.449219 C 158.878906 71.652344 158.34375 73.554688 157.027344 74.894531 C 156.910156 74.996094 156.910156 75.019531 156.910156 75.050781 C 156.910156 75.121094 156.96875 75.144531 157.015625 75.144531 C 157.164062 75.144531 158.09375 74.324219 158.652344 73.210938 C 159.230469 72.050781 159.492188 70.824219 159.492188 69.457031 Z M 159.492188 69.457031 "/>
<g clip-path="url(#clip2)" clip-rule="nonzero">
<path style=" stroke:none;fill-rule:nonzero;fill:rgb(96.00061%,96.00061%,96.00061%);fill-opacity:1;" d="M 59.132812 0 L 0 0 L 0 156.550781 L 182.660156 156.550781 Z M 59.132812 0 "/>
</g>
<path style=" stroke:none;fill-rule:evenodd;fill:rgb(0%,0%,0%);fill-opacity:1;" d="M 30.710938 14.707031 C 30.710938 14.582031 30.613281 14.582031 30.546875 14.582031 C 30.347656 14.582031 30.117188 14.605469 29.90625 14.605469 L 28.609375 14.605469 C 28.398438 14.605469 28.167969 14.582031 27.960938 14.582031 C 27.882812 14.582031 27.75 14.582031 27.75 14.792969 C 27.75 14.902344 27.828125 14.902344 28.039062 14.902344 C 28.699219 14.902344 28.699219 14.992188 28.699219 15.113281 C 28.699219 15.113281 28.699219 15.199219 28.652344 15.363281 L 27.984375 18.027344 L 24.660156 18.027344 L 25.320312 15.386719 C 25.417969 15.011719 25.441406 14.902344 26.222656 14.902344 C 26.421875 14.902344 26.53125 14.902344 26.53125 14.707031 C 26.53125 14.582031 26.429688 14.582031 26.367188 14.582031 C 26.167969 14.582031 25.9375 14.605469 25.726562 14.605469 L 24.429688 14.605469 C 24.21875 14.605469 23.988281 14.582031 23.78125 14.582031 C 23.703125 14.582031 23.570312 14.582031 23.570312 14.792969 C 23.570312 14.902344 23.648438 14.902344 23.855469 14.902344 C 24.515625 14.902344 24.515625 14.992188 24.515625 15.113281 C 24.515625 15.113281 24.515625 15.199219 24.472656 15.363281 L 22.988281 21.285156 C 22.886719 21.667969 22.867188 21.78125 22.105469 21.78125 C 21.855469 21.78125 21.777344 21.78125 21.777344 21.988281 C 21.777344 22.097656 21.898438 22.097656 21.933594 22.097656 C 22.128906 22.097656 22.359375 22.078125 22.570312 22.078125 L 23.867188 22.078125 C 24.078125 22.078125 24.308594 22.097656 24.515625 22.097656 C 24.605469 22.097656 24.726562 22.097656 24.726562 21.890625 C 24.726562 21.78125 24.625 21.78125 24.460938 21.78125 C 23.789062 21.78125 23.789062 21.691406 23.789062 21.582031 C 23.789062 21.582031 23.789062 21.492188 23.8125 21.40625 L 24.570312 18.347656 L 27.90625 18.347656 L 27.136719 21.4375 C 27.015625 21.769531 26.835938 21.769531 26.1875 21.78125 C 26.054688 21.78125 25.957031 21.78125 25.957031 21.988281 C 25.957031 22.097656 26.078125 22.097656 26.113281 22.097656 C 26.308594 22.097656 26.539062 22.078125 26.75 22.078125 L 28.046875 22.078125 C 28.257812 22.078125 28.488281 22.097656 28.699219 22.097656 C 28.785156 22.097656 28.90625 22.097656 28.90625 21.890625 C 28.90625 21.78125 28.808594 21.78125 28.640625 21.78125 C 27.972656 21.78125 27.972656 21.691406 27.972656 21.582031 C 27.972656 21.582031 27.972656 21.492188 27.992188 21.40625 L 29.5 15.386719 C 29.601562 15.011719 29.621094 14.902344 30.402344 14.902344 C 30.601562 14.902344 30.710938 14.902344 30.710938 14.707031 Z M 30.710938 14.707031 "/>
<path style=" stroke:none;fill-rule:evenodd;fill:rgb(0%,0%,0%);fill-opacity:1;" d="M 36.160156 23.554688 C 36.160156 23.445312 36.054688 23.445312 36.007812 23.445312 C 35.710938 23.4375 35.609375 23.382812 35.488281 23.125 L 34.273438 20.625 L 34.226562 20.527344 C 34.226562 20.527344 34.355469 20.421875 34.433594 20.367188 C 35.035156 19.921875 35.863281 19.328125 36.113281 19.167969 C 36.503906 18.921875 36.785156 18.761719 37.128906 18.730469 C 37.191406 18.722656 37.300781 18.714844 37.300781 18.578125 C 37.292969 18.527344 37.246094 18.480469 37.191406 18.480469 C 37.191406 18.480469 36.96875 18.503906 36.917969 18.503906 L 36.613281 18.503906 C 36.480469 18.503906 36.289062 18.503906 36.222656 18.496094 C 36.167969 18.496094 35.871094 18.480469 35.816406 18.480469 C 35.761719 18.480469 35.65625 18.480469 35.65625 18.625 C 35.65625 18.625 35.664062 18.722656 35.777344 18.730469 C 35.839844 18.738281 35.960938 18.753906 35.960938 18.847656 C 35.960938 18.96875 35.808594 19.097656 35.792969 19.105469 L 35.730469 19.160156 C 35.710938 19.183594 35.679688 19.214844 35.640625 19.238281 L 32.523438 21.5 L 33.128906 19.074219 C 33.195312 18.800781 33.210938 18.730469 33.769531 18.730469 C 33.921875 18.730469 34.011719 18.730469 34.011719 18.585938 C 34.011719 18.585938 34.003906 18.480469 33.882812 18.480469 C 33.738281 18.480469 33.554688 18.496094 33.410156 18.503906 L 32.925781 18.503906 C 32.195312 18.503906 31.996094 18.480469 31.941406 18.480469 C 31.90625 18.480469 31.789062 18.480469 31.789062 18.625 C 31.789062 18.730469 31.878906 18.730469 32.011719 18.730469 C 32.265625 18.730469 32.484375 18.730469 32.484375 18.855469 C 32.484375 18.886719 32.476562 18.894531 32.453125 18.992188 L 31.429688 23.09375 C 31.363281 23.382812 31.347656 23.445312 30.78125 23.445312 C 30.636719 23.445312 30.546875 23.445312 30.546875 23.59375 C 30.546875 23.621094 30.566406 23.699219 30.667969 23.699219 C 30.8125 23.699219 30.996094 23.683594 31.140625 23.675781 L 32.125 23.675781 C 32.246094 23.683594 32.5 23.699219 32.613281 23.699219 C 32.652344 23.699219 32.769531 23.699219 32.769531 23.5625 C 32.769531 23.445312 32.675781 23.445312 32.546875 23.445312 C 32.492188 23.445312 32.386719 23.445312 32.253906 23.429688 C 32.09375 23.414062 32.074219 23.398438 32.074219 23.324219 C 32.074219 23.277344 32.125 23.085938 32.148438 22.964844 C 32.234375 22.628906 32.132812 23.046875 32.4375 21.8125 L 33.667969 20.925781 L 34.585938 22.8125 L 34.730469 23.109375 C 34.777344 23.1875 34.777344 23.203125 34.777344 23.234375 C 34.777344 23.4375 34.496094 23.445312 34.410156 23.445312 C 34.332031 23.445312 34.226562 23.445312 34.226562 23.59375 C 34.226562 23.59375 34.234375 23.699219 34.355469 23.699219 C 34.433594 23.699219 34.722656 23.683594 34.792969 23.675781 L 35.234375 23.675781 C 35.9375 23.675781 35.917969 23.699219 36.015625 23.699219 C 36.046875 23.699219 36.160156 23.699219 36.160156 23.554688 Z M 36.160156 23.554688 "/>
<path style=" stroke:none;fill-rule:evenodd;fill:rgb(0%,0%,0%);fill-opacity:1;" d="M 41.644531 24.773438 C 41.644531 24.738281 41.644531 24.71875 41.457031 24.53125 C 40.359375 23.417969 39.742188 21.601562 39.742188 19.359375 C 39.742188 17.222656 40.257812 15.386719 41.535156 14.089844 C 41.644531 13.988281 41.644531 13.96875 41.644531 13.933594 C 41.644531 13.867188 41.589844 13.847656 41.546875 13.847656 C 41.402344 13.847656 40.5 14.636719 39.960938 15.71875 C 39.402344 16.828125 39.148438 18.003906 39.148438 19.359375 C 39.148438 20.335938 39.300781 21.648438 39.875 22.824219 C 40.523438 24.144531 41.425781 24.859375 41.546875 24.859375 C 41.589844 24.859375 41.644531 24.839844 41.644531 24.773438 Z M 41.644531 24.773438 "/>
<path style=" stroke:none;fill-rule:evenodd;fill:rgb(0%,0%,0%);fill-opacity:1;" d="M 45.613281 20.523438 C 45.613281 20.460938 45.570312 20.425781 45.503906 20.425781 C 45.503906 20.425781 45.4375 20.425781 45.414062 20.46875 C 45.414062 20.46875 45.394531 20.492188 45.316406 20.667969 C 45.085938 21.21875 44.578125 21.988281 43.941406 21.988281 C 43.609375 21.988281 43.589844 21.714844 43.589844 21.472656 C 43.589844 21.472656 43.589844 21.25 43.621094 21.117188 L 44.480469 17.675781 L 45.492188 17.675781 C 45.703125 17.675781 45.8125 17.675781 45.8125 17.476562 C 45.8125 17.355469 45.746094 17.355469 45.527344 17.355469 L 44.558594 17.355469 L 44.964844 15.75 C 45.007812 15.597656 45.007812 15.574219 45.007812 15.496094 C 45.007812 15.320312 44.867188 15.222656 44.722656 15.222656 C 44.632812 15.222656 44.382812 15.253906 44.292969 15.605469 L 43.863281 17.355469 L 42.828125 17.355469 C 42.609375 17.355469 42.511719 17.355469 42.511719 17.566406 C 42.511719 17.675781 42.589844 17.675781 42.796875 17.675781 L 43.777344 17.675781 L 43.050781 20.578125 C 42.964844 20.964844 42.929688 21.074219 42.929688 21.21875 C 42.929688 21.734375 43.292969 22.207031 43.90625 22.207031 C 45.019531 22.207031 45.613281 20.601562 45.613281 20.523438 Z M 45.613281 20.523438 "/>
<path style=" stroke:none;fill-rule:evenodd;fill:rgb(0%,0%,0%);fill-opacity:1;" d="M 49.171875 19.359375 C 49.171875 18.523438 49.0625 17.160156 48.445312 15.882812 C 47.796875 14.5625 46.894531 13.847656 46.773438 13.847656 C 46.730469 13.847656 46.671875 13.867188 46.671875 13.933594 C 46.671875 13.96875 46.671875 13.988281 46.859375 14.175781 C 47.960938 15.289062 48.578125 17.105469 48.578125 19.347656 C 48.578125 21.484375 48.0625 23.320312 46.785156 24.617188 C 46.671875 24.71875 46.671875 24.738281 46.671875 24.773438 C 46.671875 24.839844 46.730469 24.859375 46.773438 24.859375 C 46.914062 24.859375 47.820312 24.070312 48.359375 22.988281 C 48.917969 21.867188 49.171875 20.679688 49.171875 19.359375 Z M 49.171875 19.359375 "/>
<path style="fill-rule:nonzero;fill:rgb(100%,100%,86.999313%);fill-opacity:1;stroke-width:1;stroke-linecap:square;stroke-linejoin:miter;stroke:rgb(0%,0%,0%);stroke-opacity:1;stroke-miterlimit:3.25;" d="M 93.003906 42.925781 L 91.789062 42.410156 L 90.582031 41.914062 L 89.386719 41.433594 L 88.195312 40.96875 L 87.019531 40.519531 L 85.851562 40.085938 L 84.691406 39.667969 L 83.539062 39.265625 L 82.398438 38.882812 L 81.265625 38.515625 L 80.144531 38.164062 L 79.03125 37.828125 L 77.929688 37.507812 L 76.832031 37.203125 L 75.75 36.914062 L 74.671875 36.644531 L 73.605469 36.390625 L 72.550781 36.148438 L 71.503906 35.925781 L 70.464844 35.71875 L 69.433594 35.53125 L 68.414062 35.355469 L 67.40625 35.195312 L 66.40625 35.054688 L 65.414062 34.929688 L 64.429688 34.820312 L 63.457031 34.726562 L 62.496094 34.648438 L 61.539062 34.585938 L 60.597656 34.542969 L 59.660156 34.511719 L 58.734375 34.5 L 57.816406 34.503906 L 56.910156 34.523438 L 56.011719 34.558594 L 55.125 34.609375 L 54.242188 34.679688 L 53.375 34.761719 L 52.511719 34.863281 L 51.660156 34.980469 L 50.820312 35.113281 L 49.988281 35.261719 L 49.164062 35.425781 L 48.347656 35.605469 L 47.542969 35.804688 L 46.75 36.019531 L 45.964844 36.246094 L 45.1875 36.492188 L 44.417969 36.753906 L 43.660156 37.035156 L 42.914062 37.328125 L 42.171875 37.636719 L 41.445312 37.964844 L 40.722656 38.308594 L 40.011719 38.667969 L 39.308594 39.042969 L 38.617188 39.433594 L 37.933594 39.839844 L 37.261719 40.261719 L 36.59375 40.703125 L 35.941406 41.160156 L 35.292969 41.628906 L 34.65625 42.117188 L 34.03125 42.625 L 33.414062 43.144531 L 32.804688 43.679688 L 32.207031 44.234375 L 31.617188 44.800781 L 31.035156 45.386719 L 30.464844 45.988281 L 29.902344 46.605469 L 29.351562 47.238281 L 28.808594 47.890625 L 28.273438 48.554688 L 27.75 49.238281 L 27.234375 49.9375 L 26.726562 50.648438 L 26.230469 51.378906 L 25.746094 52.128906 L 25.265625 52.890625 L 24.796875 53.667969 L 24.339844 54.464844 L 23.890625 55.277344 L 23.449219 56.101562 L 23.019531 56.945312 L 22.597656 57.808594 L 22.183594 58.683594 L 21.78125 59.574219 L 21.386719 60.484375 L 21.003906 61.40625 L 20.628906 62.347656 L 20.261719 63.304688 L 19.90625 64.277344 L 19.558594 65.265625 L 19.222656 66.273438 L 18.894531 67.292969 L 18.574219 68.332031 L 18.265625 69.386719 L 17.964844 70.457031 L 17.675781 71.542969 L 12.625 111.101562 L 12.898438 112.695312 L 13.242188 114.253906 L 13.648438 115.769531 L 14.121094 117.25 L 14.660156 118.691406 L 15.257812 120.089844 L 15.914062 121.453125 L 16.632812 122.777344 L 17.40625 124.0625 L 18.234375 125.3125 L 19.121094 126.519531 L 20.058594 127.691406 L 21.046875 128.824219 L 22.085938 129.921875 L 23.171875 130.980469 L 24.308594 132 L 25.488281 132.984375 L 26.710938 133.929688 L 27.976562 134.839844 L 29.285156 135.710938 L 30.628906 136.546875 L 32.015625 137.34375 L 33.4375 138.105469 L 34.890625 138.832031 L 36.382812 139.519531 L 37.90625 140.171875 L 39.457031 140.789062 L 41.039062 141.367188 L 42.648438 141.914062 L 44.285156 142.421875 L 45.945312 142.894531 L 47.628906 143.332031 L 49.335938 143.734375 L 51.058594 144.105469 L 52.804688 144.4375 L 54.566406 144.734375 L 56.34375 144.996094 L 58.136719 145.222656 L 59.941406 145.417969 L 61.757812 145.574219 L 63.585938 145.699219 L 65.417969 145.789062 L 67.261719 145.84375 L 69.109375 145.867188 L 70.957031 145.855469 L 72.8125 145.808594 L 74.667969 145.730469 L 76.519531 145.617188 L 78.371094 145.472656 L 80.222656 145.292969 L 82.066406 145.082031 L 83.902344 144.835938 L 85.730469 144.558594 L 87.550781 144.246094 L 89.359375 143.902344 L 91.15625 143.527344 L 92.941406 143.121094 L 94.707031 142.679688 L 96.460938 142.207031 L 98.191406 141.703125 L 99.90625 141.167969 L 101.597656 140.597656 L 103.265625 140 L 104.910156 139.371094 L 106.53125 138.707031 L 108.121094 138.015625 L 109.683594 137.289062 L 111.21875 136.535156 L 112.71875 135.75 L 114.1875 134.933594 L 115.621094 134.085938 L 117.019531 133.207031 L 118.378906 132.300781 L 119.703125 131.359375 L 120.984375 130.390625 L 122.222656 129.394531 L 123.417969 128.367188 L 124.566406 127.308594 L 125.671875 126.222656 L 126.726562 125.105469 L 127.734375 123.960938 L 128.691406 122.785156 L 129.59375 121.582031 L 130.445312 120.347656 L 131.238281 119.085938 L 131.976562 117.796875 L 132.65625 116.476562 L 133.273438 115.128906 L 133.832031 113.753906 L 134.328125 112.351562 L 134.761719 110.917969 L 135.125 109.457031 L 135.425781 107.972656 L 135.652344 106.457031 L 135.8125 104.914062 L 135.902344 103.34375 L 135.917969 101.746094 L 135.855469 100.121094 L 135.722656 98.46875 L 135.507812 96.792969 Z M 93.003906 42.925781 "/>
<path style=" stroke:none;fill-rule:evenodd;fill:rgb(0%,0%,0%);fill-opacity:1;" d="M 73.140625 96.007812 C 73.140625 95.898438 73.039062 95.898438 72.929688 95.898438 C 72.523438 95.886719 72.382812 95.796875 72.214844 95.402344 L 70.6875 91.773438 C 70.675781 91.738281 70.632812 91.648438 70.632812 91.617188 C 70.632812 91.617188 70.644531 91.59375 70.832031 91.453125 L 71.898438 90.617188 C 73.371094 89.472656 73.855469 89.085938 74.613281 89.019531 C 74.691406 89.007812 74.800781 89.007812 74.800781 88.824219 C 74.800781 88.757812 74.769531 88.703125 74.679688 88.703125 C 74.558594 88.703125 74.425781 88.722656 74.304688 88.722656 L 73.886719 88.722656 C 73.546875 88.722656 73.183594 88.703125 72.851562 88.703125 C 72.777344 88.703125 72.644531 88.703125 72.644531 88.898438 C 72.644531 89.007812 72.722656 89.019531 72.789062 89.019531 C 72.910156 89.03125 73.050781 89.078125 73.050781 89.230469 C 73.050781 89.449219 72.722656 89.714844 72.632812 89.78125 L 68.320312 93.136719 L 69.234375 89.503906 C 69.332031 89.132812 69.355469 89.019531 70.136719 89.019531 C 70.347656 89.019531 70.445312 89.019531 70.445312 88.8125 C 70.445312 88.703125 70.335938 88.703125 70.28125 88.703125 C 70.082031 88.703125 69.851562 88.722656 69.640625 88.722656 L 68.34375 88.722656 C 68.144531 88.722656 67.902344 88.703125 67.707031 88.703125 C 67.617188 88.703125 67.496094 88.703125 67.496094 88.910156 C 67.496094 89.019531 67.59375 89.019531 67.761719 89.019531 C 68.429688 89.019531 68.429688 89.109375 68.429688 89.230469 C 68.429688 89.230469 68.429688 89.320312 68.386719 89.484375 L 66.902344 95.402344 C 66.800781 95.785156 66.78125 95.898438 66.011719 95.898438 C 65.800781 95.898438 65.691406 95.898438 65.691406 96.097656 C 65.691406 96.214844 65.789062 96.214844 65.855469 96.214844 C 66.066406 96.214844 66.285156 96.195312 66.496094 96.195312 L 67.78125 96.195312 C 67.992188 96.195312 68.222656 96.214844 68.429688 96.214844 C 68.519531 96.214844 68.640625 96.214844 68.640625 96.007812 C 68.640625 95.898438 68.542969 95.898438 68.375 95.898438 C 67.707031 95.898438 67.707031 95.808594 67.707031 95.699219 C 67.707031 95.625 67.769531 95.347656 67.816406 95.171875 L 68.246094 93.464844 L 69.917969 92.15625 L 71.269531 95.347656 C 71.300781 95.414062 71.324219 95.480469 71.324219 95.554688 C 71.324219 95.886719 70.886719 95.898438 70.785156 95.898438 C 70.6875 95.898438 70.578125 95.898438 70.578125 96.105469 C 70.578125 96.214844 70.699219 96.214844 70.730469 96.214844 C 71.117188 96.214844 71.523438 96.195312 71.90625 96.195312 L 72.4375 96.195312 C 72.601562 96.195312 72.789062 96.214844 72.953125 96.214844 C 73.019531 96.214844 73.140625 96.214844 73.140625 96.007812 Z M 73.140625 96.007812 "/>
<path style=" stroke:none;fill-rule:evenodd;fill:rgb(0%,0%,0%);fill-opacity:1;" d="M 137.5 97 C 137.5 96.601562 137.34375 96.21875 137.0625 95.9375 C 136.78125 95.65625 136.398438 95.5 136 95.5 C 135.601562 95.5 135.21875 95.65625 134.9375 95.9375 C 134.65625 96.21875 134.5 96.601562 134.5 97 C 134.5 97.398438 134.65625 97.78125 134.9375 98.0625 C 135.21875 98.34375 135.601562 98.5 136 98.5 C 136.398438 98.5 136.78125 98.34375 137.0625 98.0625 C 137.34375 97.78125 137.5 97.398438 137.5 97 Z M 137.5 97 "/>
<path style=" stroke:none;fill-rule:evenodd;fill:rgb(0%,0%,0%);fill-opacity:1;" d="M 138.535156 84.777344 C 138.535156 84.085938 138.183594 84.042969 138.097656 84.042969 C 137.832031 84.042969 137.589844 84.304688 137.589844 84.527344 C 137.589844 84.660156 137.667969 84.734375 137.710938 84.777344 C 137.820312 84.878906 138.109375 85.175781 138.109375 85.746094 C 138.109375 86.210938 137.445312 88.785156 136.125 88.785156 C 135.457031 88.785156 135.324219 88.222656 135.324219 87.816406 C 135.324219 87.265625 135.578125 86.496094 135.875 85.703125 C 136.050781 85.253906 136.09375 85.144531 136.09375 84.921875 C 136.09375 84.460938 135.765625 84.042969 135.226562 84.042969 C 134.214844 84.042969 133.804688 85.636719 133.804688 85.726562 C 133.804688 85.769531 133.847656 85.824219 133.925781 85.824219 C 134.027344 85.824219 134.035156 85.78125 134.082031 85.625 C 134.34375 84.679688 134.773438 84.261719 135.191406 84.261719 C 135.292969 84.261719 135.480469 84.261719 135.480469 84.625 C 135.480469 84.910156 135.355469 85.230469 135.191406 85.648438 C 134.664062 87.054688 134.664062 87.398438 134.664062 87.660156 C 134.664062 87.902344 134.699219 88.355469 135.039062 88.664062 C 135.433594 89.003906 135.984375 89.003906 136.082031 89.003906 C 137.910156 89.003906 138.535156 85.40625 138.535156 84.777344 Z M 138.535156 84.777344 "/>
<path style=" stroke:none;fill-rule:evenodd;fill:rgb(0%,0%,0%);fill-opacity:1;" d="M 144.730469 82.382812 C 144.730469 82.210938 144.5625 82.210938 144.453125 82.210938 L 140.0625 82.210938 C 139.957031 82.210938 139.785156 82.210938 139.785156 82.382812 C 139.785156 82.5625 139.957031 82.5625 140.0625 82.5625 L 144.453125 82.5625 C 144.5625 82.5625 144.730469 82.5625 144.730469 82.382812 Z M 144.730469 82.382812 "/>
<path style=" stroke:none;fill-rule:evenodd;fill:rgb(0%,0%,0%);fill-opacity:1;" d="M 144.695312 91.949219 C 144.695312 91.839844 144.589844 91.839844 144.542969 91.839844 C 144.246094 91.832031 144.148438 91.777344 144.023438 91.519531 L 142.808594 89.023438 L 142.765625 88.921875 C 142.765625 88.921875 142.894531 88.816406 142.96875 88.761719 C 143.574219 88.320312 144.398438 87.722656 144.652344 87.5625 C 145.039062 87.316406 145.324219 87.15625 145.667969 87.125 C 145.726562 87.117188 145.835938 87.109375 145.835938 86.972656 C 145.828125 86.921875 145.78125 86.875 145.726562 86.875 C 145.726562 86.875 145.507812 86.898438 145.453125 86.898438 L 145.148438 86.898438 C 145.019531 86.898438 144.828125 86.898438 144.757812 86.890625 C 144.703125 86.890625 144.40625 86.875 144.351562 86.875 C 144.300781 86.875 144.191406 86.875 144.191406 87.019531 C 144.191406 87.019531 144.199219 87.117188 144.316406 87.125 C 144.375 87.132812 144.5 87.148438 144.5 87.242188 C 144.5 87.363281 144.34375 87.492188 144.328125 87.5 L 144.269531 87.554688 C 144.246094 87.578125 144.214844 87.609375 144.179688 87.632812 L 141.058594 89.894531 L 141.664062 87.46875 C 141.734375 87.195312 141.746094 87.125 142.304688 87.125 C 142.457031 87.125 142.550781 87.125 142.550781 86.980469 C 142.550781 86.980469 142.542969 86.875 142.421875 86.875 C 142.277344 86.875 142.089844 86.890625 141.949219 86.898438 L 141.464844 86.898438 C 140.730469 86.898438 140.535156 86.875 140.480469 86.875 C 140.441406 86.875 140.328125 86.875 140.328125 87.019531 C 140.328125 87.125 140.417969 87.125 140.550781 87.125 C 140.800781 87.125 141.023438 87.125 141.023438 87.25 C 141.023438 87.28125 141.015625 87.289062 140.992188 87.386719 L 139.96875 91.488281 C 139.898438 91.777344 139.882812 91.839844 139.316406 91.839844 C 139.171875 91.839844 139.082031 91.839844 139.082031 91.988281 C 139.082031 92.015625 139.105469 92.09375 139.203125 92.09375 C 139.347656 92.09375 139.53125 92.078125 139.675781 92.070312 L 140.664062 92.070312 C 140.785156 92.078125 141.039062 92.09375 141.152344 92.09375 C 141.191406 92.09375 141.304688 92.09375 141.304688 91.957031 C 141.304688 91.839844 141.214844 91.839844 141.082031 91.839844 C 141.03125 91.839844 140.921875 91.839844 140.792969 91.824219 C 140.632812 91.808594 140.609375 91.792969 140.609375 91.71875 C 140.609375 91.671875 140.664062 91.480469 140.6875 91.359375 C 140.769531 91.023438 140.671875 91.441406 140.976562 90.207031 L 142.207031 89.320312 L 143.125 91.207031 L 143.269531 91.503906 C 143.3125 91.582031 143.3125 91.597656 143.3125 91.628906 C 143.3125 91.832031 143.03125 91.839844 142.945312 91.839844 C 142.871094 91.839844 142.765625 91.839844 142.765625 91.988281 C 142.765625 91.988281 142.773438 92.09375 142.894531 92.09375 C 142.96875 92.09375 143.261719 92.078125 143.328125 92.070312 L 143.773438 92.070312 C 144.476562 92.070312 144.453125 92.09375 144.550781 92.09375 C 144.582031 92.09375 144.695312 92.09375 144.695312 91.949219 Z M 144.695312 91.949219 "/>
<path style=" stroke:none;fill-rule:evenodd;fill:rgb(0%,0%,0%);fill-opacity:1;" d="M 150.179688 91.566406 C 150.179688 91.535156 150.179688 91.511719 149.992188 91.324219 C 148.894531 90.214844 148.277344 88.398438 148.277344 86.152344 C 148.277344 84.019531 148.792969 82.183594 150.070312 80.882812 C 150.179688 80.785156 150.179688 80.765625 150.179688 80.730469 C 150.179688 80.664062 150.125 80.640625 150.082031 80.640625 C 149.9375 80.640625 149.035156 81.433594 148.496094 82.515625 C 147.9375 83.625 147.683594 84.800781 147.683594 86.152344 C 147.683594 87.132812 147.839844 88.441406 148.410156 89.621094 C 149.058594 90.941406 149.960938 91.65625 150.082031 91.65625 C 150.125 91.65625 150.179688 91.632812 150.179688 91.566406 Z M 150.179688 91.566406 "/>
<path style=" stroke:none;fill-rule:evenodd;fill:rgb(0%,0%,0%);fill-opacity:1;" d="M 154.148438 87.320312 C 154.148438 87.253906 154.105469 87.222656 154.039062 87.222656 C 154.039062 87.222656 153.972656 87.222656 153.949219 87.265625 C 153.949219 87.265625 153.929688 87.289062 153.851562 87.464844 C 153.621094 88.015625 153.113281 88.785156 152.476562 88.785156 C 152.148438 88.785156 152.125 88.507812 152.125 88.265625 C 152.125 88.265625 152.125 88.046875 152.15625 87.914062 L 153.015625 84.472656 L 154.027344 84.472656 C 154.238281 84.472656 154.347656 84.472656 154.347656 84.273438 C 154.347656 84.152344 154.28125 84.152344 154.0625 84.152344 L 153.09375 84.152344 L 153.5 82.546875 C 153.542969 82.390625 153.542969 82.371094 153.542969 82.292969 C 153.542969 82.117188 153.402344 82.019531 153.257812 82.019531 C 153.167969 82.019531 152.917969 82.050781 152.828125 82.402344 L 152.398438 84.152344 L 151.367188 84.152344 C 151.144531 84.152344 151.046875 84.152344 151.046875 84.363281 C 151.046875 84.472656 151.125 84.472656 151.332031 84.472656 L 152.3125 84.472656 L 151.585938 87.375 C 151.5 87.761719 151.464844 87.871094 151.464844 88.015625 C 151.464844 88.53125 151.828125 89.003906 152.441406 89.003906 C 153.554688 89.003906 154.148438 87.398438 154.148438 87.320312 Z M 154.148438 87.320312 "/>
<path style=" stroke:none;fill-rule:evenodd;fill:rgb(0%,0%,0%);fill-opacity:1;" d="M 157.707031 86.152344 C 157.707031 85.316406 157.59375 83.953125 156.980469 82.679688 C 156.332031 81.359375 155.429688 80.640625 155.308594 80.640625 C 155.265625 80.640625 155.207031 80.664062 155.207031 80.730469 C 155.207031 80.765625 155.207031 80.785156 155.394531 80.972656 C 156.496094 82.085938 157.113281 83.898438 157.113281 86.144531 C 157.113281 88.277344 156.59375 90.113281 155.320312 91.414062 C 155.207031 91.511719 155.207031 91.535156 155.207031 91.566406 C 155.207031 91.632812 155.265625 91.65625 155.308594 91.65625 C 155.449219 91.65625 156.351562 90.863281 156.890625 89.785156 C 157.453125 88.664062 157.707031 87.476562 157.707031 86.152344 Z M 157.707031 86.152344 "/>
<path style=" stroke:none;fill-rule:evenodd;fill:rgb(0%,0%,0%);fill-opacity:1;" d="M 94.5 43 C 94.5 42.601562 94.34375 42.21875 94.0625 41.9375 C 93.78125 41.65625 93.398438 41.5 93 41.5 C 92.601562 41.5 92.21875 41.65625 91.9375 41.9375 C 91.65625 42.21875 91.5 42.601562 91.5 43 C 91.5 43.398438 91.65625 43.78125 91.9375 44.0625 C 92.21875 44.34375 92.601562 44.5 93 44.5 C 93.398438 44.5 93.78125 44.34375 94.0625 44.0625 C 94.34375 43.78125 94.5 43.398438 94.5 43 Z M 94.5 43 "/>
<path style=" stroke:none;fill-rule:evenodd;fill:rgb(0%,0%,0%);fill-opacity:1;" d="M 96.03125 30.910156 C 96.03125 30.21875 95.679688 30.175781 95.59375 30.175781 C 95.328125 30.175781 95.085938 30.4375 95.085938 30.660156 C 95.085938 30.792969 95.164062 30.867188 95.207031 30.910156 C 95.316406 31.011719 95.605469 31.308594 95.605469 31.878906 C 95.605469 32.34375 94.941406 34.917969 93.621094 34.917969 C 92.949219 34.917969 92.820312 34.355469 92.820312 33.949219 C 92.820312 33.398438 93.074219 32.628906 93.371094 31.835938 C 93.546875 31.386719 93.589844 31.277344 93.589844 31.054688 C 93.589844 30.59375 93.261719 30.175781 92.722656 30.175781 C 91.710938 30.175781 91.300781 31.769531 91.300781 31.859375 C 91.300781 31.902344 91.34375 31.957031 91.421875 31.957031 C 91.523438 31.957031 91.53125 31.914062 91.578125 31.757812 C 91.839844 30.8125 92.269531 30.394531 92.6875 30.394531 C 92.785156 30.394531 92.972656 30.394531 92.972656 30.757812 C 92.972656 31.042969 92.851562 31.363281 92.6875 31.78125 C 92.160156 33.1875 92.160156 33.53125 92.160156 33.792969 C 92.160156 34.035156 92.195312 34.488281 92.535156 34.796875 C 92.929688 35.136719 93.480469 35.136719 93.578125 35.136719 C 95.40625 35.136719 96.03125 31.539062 96.03125 30.910156 Z M 96.03125 30.910156 "/>
<path style=" stroke:none;fill-rule:evenodd;fill:rgb(0%,0%,0%);fill-opacity:1;" d="M 102.457031 28.515625 C 102.457031 28.34375 102.285156 28.34375 102.179688 28.34375 L 99.933594 28.34375 L 99.933594 26.085938 C 99.933594 25.980469 99.933594 25.8125 99.757812 25.8125 C 99.582031 25.8125 99.582031 25.980469 99.582031 26.085938 L 99.582031 28.34375 L 97.328125 28.34375 C 97.222656 28.34375 97.054688 28.34375 97.054688 28.515625 C 97.054688 28.695312 97.222656 28.695312 97.328125 28.695312 L 99.582031 28.695312 L 99.582031 30.949219 C 99.582031 31.054688 99.582031 31.222656 99.757812 31.222656 C 99.933594 31.222656 99.933594 31.054688 99.933594 30.949219 L 99.933594 28.695312 L 102.179688 28.695312 C 102.285156 28.695312 102.457031 28.695312 102.457031 28.515625 Z M 102.457031 28.515625 "/>
<path style=" stroke:none;fill-rule:evenodd;fill:rgb(0%,0%,0%);fill-opacity:1;" d="M 102.191406 38.082031 C 102.191406 37.972656 102.085938 37.972656 102.039062 37.972656 C 101.742188 37.964844 101.644531 37.910156 101.519531 37.652344 L 100.304688 35.15625 L 100.261719 35.054688 C 100.261719 35.054688 100.390625 34.949219 100.464844 34.894531 C 101.070312 34.453125 101.894531 33.855469 102.148438 33.695312 C 102.535156 33.449219 102.820312 33.289062 103.164062 33.257812 C 103.222656 33.25 103.332031 33.242188 103.332031 33.105469 C 103.324219 33.054688 103.277344 33.007812 103.222656 33.007812 C 103.222656 33.007812 103.003906 33.03125 102.949219 33.03125 L 102.644531 33.03125 C 102.515625 33.03125 102.324219 33.03125 102.253906 33.023438 C 102.199219 33.023438 101.902344 33.007812 101.847656 33.007812 C 101.796875 33.007812 101.6875 33.007812 101.6875 33.152344 C 101.6875 33.152344 101.695312 33.25 101.8125 33.257812 C 101.871094 33.265625 101.996094 33.28125 101.996094 33.375 C 101.996094 33.496094 101.839844 33.625 101.824219 33.632812 L 101.765625 33.6875 C 101.742188 33.710938 101.710938 33.742188 101.675781 33.765625 L 98.554688 36.027344 L 99.160156 33.601562 C 99.230469 33.328125 99.242188 33.257812 99.800781 33.257812 C 99.953125 33.257812 100.046875 33.257812 100.046875 33.113281 C 100.046875 33.113281 100.039062 33.007812 99.917969 33.007812 C 99.773438 33.007812 99.585938 33.023438 99.445312 33.03125 L 98.960938 33.03125 C 98.226562 33.03125 98.03125 33.007812 97.976562 33.007812 C 97.9375 33.007812 97.824219 33.007812 97.824219 33.152344 C 97.824219 33.257812 97.914062 33.257812 98.046875 33.257812 C 98.296875 33.257812 98.519531 33.257812 98.519531 33.382812 C 98.519531 33.414062 98.511719 33.421875 98.488281 33.519531 L 97.464844 37.621094 C 97.394531 37.910156 97.378906 37.972656 96.8125 37.972656 C 96.667969 37.972656 96.578125 37.972656 96.578125 38.121094 C 96.578125 38.148438 96.601562 38.226562 96.699219 38.226562 C 96.84375 38.226562 97.027344 38.210938 97.171875 38.203125 L 98.160156 38.203125 C 98.28125 38.210938 98.535156 38.226562 98.648438 38.226562 C 98.6875 38.226562 98.800781 38.226562 98.800781 38.089844 C 98.800781 37.972656 98.710938 37.972656 98.578125 37.972656 C 98.527344 37.972656 98.417969 37.972656 98.289062 37.957031 C 98.128906 37.941406 98.105469 37.925781 98.105469 37.851562 C 98.105469 37.804688 98.160156 37.613281 98.183594 37.492188 C 98.265625 37.15625 98.167969 37.574219 98.472656 36.339844 L 99.703125 35.453125 L 100.621094 37.339844 L 100.765625 37.636719 C 100.808594 37.714844 100.808594 37.730469 100.808594 37.761719 C 100.808594 37.964844 100.527344 37.972656 100.441406 37.972656 C 100.367188 37.972656 100.261719 37.972656 100.261719 38.121094 C 100.261719 38.121094 100.269531 38.226562 100.390625 38.226562 C 100.464844 38.226562 100.757812 38.210938 100.824219 38.203125 L 101.269531 38.203125 C 101.972656 38.203125 101.949219 38.226562 102.046875 38.226562 C 102.078125 38.226562 102.191406 38.226562 102.191406 38.082031 Z M 102.191406 38.082031 "/>
<path style=" stroke:none;fill-rule:evenodd;fill:rgb(0%,0%,0%);fill-opacity:1;" d="M 107.679688 37.699219 C 107.679688 37.667969 107.679688 37.644531 107.492188 37.457031 C 106.390625 36.347656 105.773438 34.53125 105.773438 32.285156 C 105.773438 30.152344 106.289062 28.316406 107.566406 27.015625 C 107.679688 26.917969 107.679688 26.898438 107.679688 26.863281 C 107.679688 26.796875 107.625 26.773438 107.578125 26.773438 C 107.4375 26.773438 106.53125 27.566406 105.992188 28.648438 C 105.433594 29.757812 105.179688 30.933594 105.179688 32.285156 C 105.179688 33.265625 105.335938 34.574219 105.90625 35.753906 C 106.554688 37.074219 107.457031 37.789062 107.578125 37.789062 C 107.625 37.789062 107.679688 37.765625 107.679688 37.699219 Z M 107.679688 37.699219 "/>
<path style=" stroke:none;fill-rule:evenodd;fill:rgb(0%,0%,0%);fill-opacity:1;" d="M 111.644531 33.453125 C 111.644531 33.386719 111.601562 33.355469 111.535156 33.355469 C 111.535156 33.355469 111.46875 33.355469 111.449219 33.398438 C 111.449219 33.398438 111.425781 33.421875 111.347656 33.597656 C 111.117188 34.148438 110.613281 34.917969 109.972656 34.917969 C 109.644531 34.917969 109.621094 34.640625 109.621094 34.398438 C 109.621094 34.398438 109.621094 34.179688 109.652344 34.046875 L 110.511719 30.605469 L 111.523438 30.605469 C 111.734375 30.605469 111.84375 30.605469 111.84375 30.40625 C 111.84375 30.285156 111.777344 30.285156 111.558594 30.285156 L 110.589844 30.285156 L 110.996094 28.679688 C 111.042969 28.523438 111.042969 28.503906 111.042969 28.425781 C 111.042969 28.25 110.898438 28.152344 110.753906 28.152344 C 110.667969 28.152344 110.414062 28.183594 110.324219 28.535156 L 109.894531 30.285156 L 108.863281 30.285156 C 108.640625 30.285156 108.542969 30.285156 108.542969 30.496094 C 108.542969 30.605469 108.621094 30.605469 108.828125 30.605469 L 109.808594 30.605469 L 109.082031 33.507812 C 108.996094 33.894531 108.960938 34.003906 108.960938 34.148438 C 108.960938 34.664062 109.324219 35.136719 109.941406 35.136719 C 111.050781 35.136719 111.644531 33.53125 111.644531 33.453125 Z M 111.644531 33.453125 "/>
<path style=" stroke:none;fill-rule:evenodd;fill:rgb(0%,0%,0%);fill-opacity:1;" d="M 115.203125 32.285156 C 115.203125 31.449219 115.09375 30.085938 114.476562 28.8125 C 113.828125 27.492188 112.925781 26.773438 112.804688 26.773438 C 112.761719 26.773438 112.703125 26.796875 112.703125 26.863281 C 112.703125 26.898438 112.703125 26.917969 112.890625 27.105469 C 113.992188 28.21875 114.609375 30.03125 114.609375 32.277344 C 114.609375 34.410156 114.09375 36.25 112.816406 37.546875 C 112.703125 37.644531 112.703125 37.667969 112.703125 37.699219 C 112.703125 37.765625 112.761719 37.789062 112.804688 37.789062 C 112.945312 37.789062 113.851562 36.996094 114.390625 35.917969 C 114.949219 34.796875 115.203125 33.609375 115.203125 32.285156 Z M 115.203125 32.285156 "/>
<path style="fill:none;stroke-width:4;stroke-linecap:butt;stroke-linejoin:round;stroke:rgb(100%,100%,100%);stroke-opacity:0.666667;stroke-miterlimit:3.239307;" d="M 159.253906 121.234375 L 160.464844 120.066406 L 161.46875 119.1875 L 162.292969 118.558594 L 162.972656 118.140625 L 163.53125 117.882812 L 164 117.753906 L 164.410156 117.703125 L 164.789062 117.695312 L 166.789062 117.695312 "/>
<path style="fill:none;stroke-width:1.25;stroke-linecap:square;stroke-linejoin:miter;stroke:rgb(66.666667%,66.666667%,66.666667%);stroke-opacity:1;stroke-miterlimit:3.25;" d="M 159.253906 121.234375 L 160.464844 120.066406 L 161.46875 119.1875 L 162.292969 118.558594 L 162.972656 118.140625 L 163.53125 117.882812 L 164 117.753906 L 164.410156 117.703125 L 164.789062 117.695312 L 166.789062 117.695312 "/>
<path style=" stroke:none;fill-rule:nonzero;fill:rgb(100%,100%,100%);fill-opacity:0.666667;" d="M 198.789062 104.496094 L 198.789062 126.496094 L 166.789062 126.496094 L 166.789062 104.496094 Z M 198.789062 104.496094 "/>
<path style=" stroke:none;fill-rule:evenodd;fill:rgb(0%,0%,0%);fill-opacity:1;" d="M 173.480469 116.394531 C 173.480469 116.339844 173.4375 116.296875 173.371094 116.296875 C 173.265625 116.296875 173.253906 116.351562 173.210938 116.519531 C 173.007812 117.300781 172.804688 117.898438 172.351562 117.898438 C 172.011719 117.898438 172.011719 117.535156 172.011719 117.378906 C 172.011719 117.332031 172.011719 117.097656 172.09375 116.78125 L 173.6875 110.453125 C 173.695312 110.410156 173.71875 110.339844 173.71875 110.28125 C 173.71875 110.171875 173.582031 110.171875 173.582031 110.171875 L 172.960938 110.226562 C 172.769531 110.238281 172.601562 110.261719 172.398438 110.273438 C 172.125 110.292969 172.046875 110.304688 172.046875 110.507812 C 172.046875 110.621094 172.160156 110.621094 172.273438 110.621094 C 172.851562 110.621094 172.851562 110.722656 172.851562 110.835938 C 172.851562 110.882812 172.851562 110.902344 172.792969 111.109375 L 171.390625 116.710938 C 171.359375 116.835938 171.335938 116.925781 171.335938 117.109375 C 171.335938 117.671875 171.753906 118.125 172.328125 118.125 C 172.703125 118.125 172.949219 117.875 173.132812 117.527344 C 173.324219 117.152344 173.480469 116.441406 173.480469 116.394531 Z M 173.480469 116.394531 "/>
<path style=" stroke:none;fill-rule:evenodd;fill:rgb(0%,0%,0%);fill-opacity:1;" d="M 180.253906 119.503906 C 180.253906 119.398438 180.144531 119.398438 180.09375 119.398438 C 179.789062 119.386719 179.6875 119.332031 179.5625 119.066406 L 178.316406 116.5 L 178.269531 116.398438 C 178.269531 116.398438 178.402344 116.289062 178.480469 116.234375 C 179.097656 115.777344 179.945312 115.167969 180.207031 115 C 180.605469 114.75 180.894531 114.585938 181.25 114.554688 C 181.3125 114.546875 181.421875 114.539062 181.421875 114.398438 C 181.414062 114.34375 181.367188 114.296875 181.3125 114.296875 C 181.3125 114.296875 181.082031 114.320312 181.03125 114.320312 L 180.714844 114.320312 C 180.582031 114.320312 180.386719 114.320312 180.316406 114.3125 C 180.261719 114.3125 179.953125 114.296875 179.898438 114.296875 C 179.84375 114.296875 179.734375 114.296875 179.734375 114.445312 C 179.734375 114.445312 179.742188 114.546875 179.859375 114.554688 C 179.925781 114.5625 180.050781 114.578125 180.050781 114.671875 C 180.050781 114.796875 179.890625 114.929688 179.875 114.9375 L 179.8125 114.992188 C 179.789062 115.019531 179.757812 115.046875 179.71875 115.074219 L 176.519531 117.394531 L 177.136719 114.90625 C 177.210938 114.625 177.222656 114.554688 177.796875 114.554688 C 177.953125 114.554688 178.046875 114.554688 178.046875 114.40625 C 178.046875 114.40625 178.039062 114.296875 177.914062 114.296875 C 177.765625 114.296875 177.578125 114.3125 177.429688 114.320312 L 176.933594 114.320312 C 176.179688 114.320312 175.976562 114.296875 175.921875 114.296875 C 175.882812 114.296875 175.765625 114.296875 175.765625 114.445312 C 175.765625 114.554688 175.859375 114.554688 175.992188 114.554688 C 176.25 114.554688 176.480469 114.554688 176.480469 114.679688 C 176.480469 114.710938 176.472656 114.71875 176.445312 114.820312 L 175.394531 119.035156 C 175.324219 119.332031 175.308594 119.398438 174.730469 119.398438 C 174.578125 119.398438 174.488281 119.398438 174.488281 119.546875 C 174.488281 119.578125 174.507812 119.65625 174.613281 119.65625 C 174.761719 119.65625 174.949219 119.640625 175.097656 119.628906 L 176.109375 119.628906 C 176.234375 119.640625 176.496094 119.65625 176.613281 119.65625 C 176.652344 119.65625 176.769531 119.65625 176.769531 119.515625 C 176.769531 119.398438 176.675781 119.398438 176.542969 119.398438 C 176.488281 119.398438 176.375 119.398438 176.242188 119.378906 C 176.078125 119.363281 176.054688 119.347656 176.054688 119.269531 C 176.054688 119.222656 176.109375 119.027344 176.132812 118.902344 C 176.21875 118.554688 176.117188 118.988281 176.429688 117.714844 L 177.695312 116.808594 L 178.636719 118.746094 L 178.785156 119.050781 C 178.832031 119.128906 178.832031 119.144531 178.832031 119.175781 C 178.832031 119.386719 178.542969 119.398438 178.457031 119.398438 C 178.378906 119.398438 178.269531 119.398438 178.269531 119.546875 C 178.269531 119.546875 178.277344 119.65625 178.402344 119.65625 C 178.480469 119.65625 178.777344 119.640625 178.847656 119.628906 L 179.304688 119.628906 C 180.023438 119.628906 180.003906 119.65625 180.105469 119.65625 C 180.136719 119.65625 180.253906 119.65625 180.253906 119.503906 Z M 180.253906 119.503906 "/>
<path style=" stroke:none;fill-rule:evenodd;fill:rgb(0%,0%,0%);fill-opacity:1;" d="M 185.886719 120.757812 C 185.886719 120.722656 185.886719 120.699219 185.695312 120.507812 C 184.5625 119.367188 183.929688 117.503906 183.929688 115.199219 C 183.929688 113.007812 184.460938 111.121094 185.773438 109.785156 C 185.886719 109.683594 185.886719 109.664062 185.886719 109.628906 C 185.886719 109.558594 185.828125 109.539062 185.785156 109.539062 C 185.636719 109.539062 184.710938 110.351562 184.15625 111.460938 C 183.582031 112.601562 183.320312 113.808594 183.320312 115.199219 C 183.320312 116.203125 183.480469 117.546875 184.066406 118.757812 C 184.734375 120.113281 185.660156 120.847656 185.785156 120.847656 C 185.828125 120.847656 185.886719 120.824219 185.886719 120.757812 Z M 185.886719 120.757812 "/>
<path style=" stroke:none;fill-rule:evenodd;fill:rgb(0%,0%,0%);fill-opacity:1;" d="M 189.960938 116.394531 C 189.960938 116.328125 189.917969 116.296875 189.847656 116.296875 C 189.847656 116.296875 189.78125 116.296875 189.757812 116.339844 C 189.757812 116.339844 189.734375 116.363281 189.65625 116.542969 C 189.417969 117.109375 188.898438 117.898438 188.242188 117.898438 C 187.90625 117.898438 187.882812 117.617188 187.882812 117.367188 C 187.882812 117.367188 187.882812 117.140625 187.914062 117.007812 L 188.796875 113.46875 L 189.835938 113.46875 C 190.050781 113.46875 190.164062 113.46875 190.164062 113.265625 C 190.164062 113.140625 190.097656 113.140625 189.871094 113.140625 L 188.875 113.140625 L 189.292969 111.492188 C 189.339844 111.335938 189.339844 111.3125 189.339844 111.234375 C 189.339844 111.050781 189.191406 110.949219 189.046875 110.949219 C 188.957031 110.949219 188.695312 110.984375 188.605469 111.34375 L 188.164062 113.140625 L 187.101562 113.140625 C 186.875 113.140625 186.773438 113.140625 186.773438 113.355469 C 186.773438 113.46875 186.855469 113.46875 187.070312 113.46875 L 188.074219 113.46875 L 187.328125 116.453125 C 187.238281 116.847656 187.203125 116.960938 187.203125 117.109375 C 187.203125 117.640625 187.578125 118.125 188.210938 118.125 C 189.351562 118.125 189.960938 116.476562 189.960938 116.394531 Z M 189.960938 116.394531 "/>
<path style=" stroke:none;fill-rule:evenodd;fill:rgb(0%,0%,0%);fill-opacity:1;" d="M 193.71875 115.199219 C 193.71875 114.339844 193.605469 112.9375 192.972656 111.628906 C 192.304688 110.273438 191.378906 109.539062 191.253906 109.539062 C 191.210938 109.539062 191.152344 109.558594 191.152344 109.628906 C 191.152344 109.664062 191.152344 109.683594 191.34375 109.878906 C 192.472656 111.019531 193.109375 112.882812 193.109375 115.1875 C 193.109375 117.378906 192.578125 119.265625 191.265625 120.601562 C 191.152344 120.699219 191.152344 120.722656 191.152344 120.757812 C 191.152344 120.824219 191.210938 120.847656 191.253906 120.847656 C 191.402344 120.847656 192.328125 120.035156 192.882812 118.925781 C 193.457031 117.773438 193.71875 116.554688 193.71875 115.199219 Z M 193.71875 115.199219 "/>
<path style=" stroke:none;fill-rule:evenodd;fill:rgb(0%,0%,0%);fill-opacity:1;" d="M 128.375 50.722656 C 128.375 50.027344 128.023438 49.984375 127.933594 49.984375 C 127.671875 49.984375 127.429688 50.246094 127.429688 50.46875 C 127.429688 50.601562 127.503906 50.675781 127.550781 50.722656 C 127.660156 50.820312 127.945312 51.117188 127.945312 51.691406 C 127.945312 52.152344 127.285156 54.726562 125.964844 54.726562 C 125.292969 54.726562 125.160156 54.164062 125.160156 53.757812 C 125.160156 53.210938 125.414062 52.4375 125.710938 51.644531 C 125.886719 51.195312 125.933594 51.085938 125.933594 50.863281 C 125.933594 50.402344 125.601562 49.984375 125.0625 49.984375 C 124.050781 49.984375 123.640625 51.578125 123.640625 51.667969 C 123.640625 51.710938 123.6875 51.765625 123.765625 51.765625 C 123.863281 51.765625 123.875 51.722656 123.917969 51.566406 C 124.179688 50.621094 124.613281 50.203125 125.027344 50.203125 C 125.128906 50.203125 125.316406 50.203125 125.316406 50.566406 C 125.316406 50.855469 125.195312 51.171875 125.027344 51.589844 C 124.5 53 124.5 53.339844 124.5 53.605469 C 124.5 53.847656 124.535156 54.296875 124.875 54.605469 C 125.269531 54.945312 125.824219 54.945312 125.921875 54.945312 C 127.746094 54.945312 128.375 51.347656 128.375 50.722656 Z M 128.375 50.722656 "/>
<path style=" stroke:none;fill-rule:evenodd;fill:rgb(0%,0%,0%);fill-opacity:1;" d="M 131.144531 55.34375 C 131.144531 55.261719 131.078125 55.246094 131.03125 55.246094 C 130.945312 55.246094 130.9375 55.277344 130.882812 55.390625 C 130.734375 55.757812 130.351562 56.300781 129.882812 56.300781 C 129.722656 56.300781 129.632812 56.195312 129.632812 55.941406 C 129.632812 55.796875 129.65625 55.710938 129.679688 55.613281 L 130.234375 53.398438 L 130.984375 53.398438 C 131.128906 53.398438 131.222656 53.398438 131.222656 53.25 C 131.222656 53.144531 131.121094 53.144531 130.992188 53.144531 L 130.296875 53.144531 L 130.570312 52.058594 C 130.601562 51.941406 130.601562 51.898438 130.601562 51.898438 C 130.601562 51.738281 130.480469 51.660156 130.351562 51.660156 C 130.089844 51.660156 130.039062 51.867188 129.953125 52.210938 L 129.714844 53.144531 L 128.980469 53.144531 C 128.835938 53.144531 128.738281 53.144531 128.738281 53.289062 C 128.738281 53.398438 128.835938 53.398438 128.964844 53.398438 L 129.65625 53.398438 L 129.195312 55.230469 C 129.148438 55.421875 129.082031 55.6875 129.082031 55.796875 C 129.082031 56.253906 129.457031 56.515625 129.859375 56.515625 C 130.679688 56.515625 131.144531 55.4375 131.144531 55.34375 Z M 131.144531 55.34375 "/>
<path style=" stroke:none;fill-rule:evenodd;fill:rgb(0%,0%,0%);fill-opacity:1;" d="M 111.515625 52.476562 C 111.515625 52.421875 111.46875 52.378906 111.40625 52.378906 C 111.304688 52.378906 111.292969 52.433594 111.25 52.597656 C 111.054688 53.355469 110.855469 53.941406 110.414062 53.941406 C 110.085938 53.941406 110.085938 53.578125 110.085938 53.433594 C 110.085938 53.179688 110.117188 53.070312 110.226562 52.609375 L 110.445312 51.707031 L 110.898438 49.914062 C 110.976562 49.636719 110.976562 49.617188 110.976562 49.582031 C 110.976562 49.417969 110.84375 49.308594 110.679688 49.308594 C 110.359375 49.308594 110.28125 49.582031 110.214844 49.859375 L 109.433594 53.039062 C 109.433594 53.039062 108.996094 53.941406 108.191406 53.941406 C 107.617188 53.941406 107.507812 53.445312 107.507812 53.039062 C 107.507812 52.410156 107.816406 51.53125 108.101562 50.792969 C 108.234375 50.441406 108.289062 50.296875 108.289062 50.078125 C 108.289062 49.605469 107.949219 49.195312 107.421875 49.195312 C 106.410156 49.195312 106 50.792969 106 50.882812 C 106 50.925781 106.042969 50.980469 106.121094 50.980469 C 106.222656 50.980469 106.230469 50.9375 106.277344 50.78125 C 106.539062 49.835938 106.96875 49.417969 107.386719 49.417969 C 107.5 49.417969 107.675781 49.429688 107.675781 49.78125 C 107.675781 50.066406 107.554688 50.386719 107.386719 50.804688 C 106.902344 52.113281 106.847656 52.53125 106.847656 52.859375 C 106.847656 53.984375 107.695312 54.160156 108.148438 54.160156 C 108.851562 54.160156 109.238281 53.675781 109.457031 53.414062 C 109.601562 54.027344 110.128906 54.160156 110.390625 54.160156 C 110.742188 54.160156 111.007812 53.929688 111.183594 53.554688 C 111.371094 53.160156 111.515625 52.507812 111.515625 52.476562 Z M 111.515625 52.476562 "/>
<path style=" stroke:none;fill-rule:evenodd;fill:rgb(0%,0%,0%);fill-opacity:1;" d="M 114.402344 54.558594 C 114.402344 54.472656 114.335938 54.457031 114.289062 54.457031 C 114.203125 54.457031 114.195312 54.488281 114.140625 54.601562 C 113.992188 54.96875 113.609375 55.511719 113.140625 55.511719 C 112.980469 55.511719 112.890625 55.40625 112.890625 55.152344 C 112.890625 55.007812 112.914062 54.921875 112.9375 54.824219 L 113.492188 52.609375 L 114.242188 52.609375 C 114.386719 52.609375 114.480469 52.609375 114.480469 52.464844 C 114.480469 52.355469 114.378906 52.355469 114.25 52.355469 L 113.554688 52.355469 L 113.828125 51.273438 C 113.859375 51.15625 113.859375 51.109375 113.859375 51.109375 C 113.859375 50.949219 113.738281 50.875 113.609375 50.875 C 113.347656 50.875 113.296875 51.082031 113.210938 51.425781 L 112.972656 52.355469 L 112.242188 52.355469 C 112.09375 52.355469 111.996094 52.355469 111.996094 52.5 C 111.996094 52.609375 112.09375 52.609375 112.226562 52.609375 L 112.914062 52.609375 L 112.453125 54.441406 C 112.40625 54.632812 112.339844 54.902344 112.339844 55.007812 C 112.339844 55.46875 112.714844 55.726562 113.117188 55.726562 C 113.9375 55.726562 114.402344 54.648438 114.402344 54.558594 Z M 114.402344 54.558594 "/>
<path style=" stroke:none;fill-rule:evenodd;fill:rgb(0%,0%,100%);fill-opacity:1;" d="M 113.5 67 C 113.5 66.601562 113.34375 66.21875 113.0625 65.9375 C 112.78125 65.65625 112.398438 65.5 112 65.5 C 111.601562 65.5 111.21875 65.65625 110.9375 65.9375 C 110.65625 66.21875 110.5 66.601562 110.5 67 C 110.5 67.398438 110.65625 67.78125 110.9375 68.0625 C 111.21875 68.34375 111.601562 68.5 112 68.5 C 112.398438 68.5 112.78125 68.34375 113.0625 68.0625 C 113.34375 67.78125 113.5 67.398438 113.5 67 Z M 113.5 67 "/>
<path style="fill:none;stroke-width:1;stroke-linecap:butt;stroke-linejoin:miter;stroke:rgb(0%,0%,100%);stroke-opacity:1;stroke-dasharray:1,2;stroke-miterlimit:3.25;" d="M 112.132812 67.164062 L 119.589844 61.28125 "/>
<path style=" stroke:none;fill-rule:nonzero;fill:rgb(0%,0%,100%);fill-opacity:1;" d="M 117.6875 60.074219 L 117.929688 60.191406 L 118.492188 60.484375 L 118.816406 60.671875 L 119.128906 60.875 L 119.394531 61.082031 L 119.589844 61.28125 L 119.71875 61.496094 L 119.855469 61.800781 L 119.988281 62.160156 L 120.109375 62.535156 L 120.296875 63.195312 L 120.371094 63.480469 L 125.347656 56.738281 Z M 117.6875 60.074219 "/>
<path style="fill:none;stroke-width:1;stroke-linecap:butt;stroke-linejoin:miter;stroke:rgb(0%,0%,100%);stroke-opacity:1;stroke-dasharray:1,2;stroke-miterlimit:3.25;" d="M 112.132812 67.164062 L 106.246094 59.707031 "/>
<path style=" stroke:none;fill-rule:nonzero;fill:rgb(0%,0%,100%);fill-opacity:1;" d="M 105.039062 61.609375 L 105.15625 61.367188 L 105.449219 60.804688 L 105.640625 60.480469 L 105.84375 60.167969 L 106.046875 59.902344 L 106.246094 59.707031 L 106.460938 59.574219 L 106.765625 59.441406 L 107.125 59.308594 L 107.5 59.1875 L 108.160156 58.996094 L 108.445312 58.921875 L 101.703125 53.949219 Z M 105.039062 61.609375 "/>
</g>
</svg>
