<?xml version="1.0" encoding="UTF-8"?>
<svg xmlns="http://www.w3.org/2000/svg" xmlns:xlink="http://www.w3.org/1999/xlink" width="202pt" height="157pt" viewBox="0 0 202 157" version="1.1">
<defs>
<clipPath id="clip1">
  <path d="M 54 0 L 188 0 L 188 156.71875 L 54 156.71875 Z M 54 0 "/>
</clipPath>
<clipPath id="clip2">
  <path d="M 0 0 L 183 0 L 183 156.71875 L 0 156.71875 Z M 0 0 "/>
</clipPath>
</defs>
<g id="surface127">
<g clip-path="url(#clip1)" clip-rule="nonzero">
<path style="fill:none;stroke-width:1;stroke-linecap:square;stroke-linejoin:miter;stroke:rgb(0%,0%,0%);stroke-opacity:1;stroke-miterlimit:3.25;" d="M 182.660156 156.550781 L 59.132812 0 "/>
</g>
<path style="fill:none;stroke-width:2;stroke-linecap:square;stroke-linejoin:miter;stroke:rgb(0%,0%,0%);stroke-opacity:1;stroke-miterlimit:3.25;" d="M 135.507812 96.792969 L 93.003906 42.925781 "/>
<path style="fill:none;stroke-width:4;stroke-linecap:butt;stroke-linejoin:round;stroke:rgb(100%,100%,100%);stroke-opacity:0.666667;stroke-miterlimit:3.239307;" d="M 123.125 75.445312 L 124.335938 74.277344 L 125.339844 73.402344 L 126.164062 72.773438 L 126.84375 72.351562 L 127.402344 72.097656 L 127.871094 71.964844 L 128.28125 71.917969 L 128.660156 71.910156 L 130.660156 71.910156 "/>
<path style="fill:none;stroke-width:1.25;stroke-linecap:square;stroke-linejoin:miter;stroke:rgb(66.666667%,66.666667%,66.666667%);stroke-opacity:1;stroke-miterlimit:3.25;" d="M 123.125 75.445312 L 124.335938 74.277344 L 125.339844 73.402344 L 126.164062 72.773438 L 126.84375 72.351562 L 127.402344 72.097656 L 127.871094 71.964844 L 128.28125 71.917969 L 128.660156 71.910156 L 130.660156 71.910156 "/>
<path style=" stroke:none;fill-rule:nonzero;fill:rgb(100%,100%,100%);fill-opacity:0.666667;" d="M 164.660156 58.710938 L 164.660156 80.710938 L 130.660156 80.710938 L 130.660156 58.710938 Z M 164.660156 58.710938 "/>
<path style=" stroke:none;fill-rule:evenodd;fill:rgb(0%,0%,0%);fill-opacity:1;" d="M 139.425781 71.058594 C 139.425781 70.988281 139.355469 70.933594 139.3125 70.933594 C 139.277344 70.933594 139.265625 70.945312 139.164062 71.046875 C 138.441406 72.007812 137.363281 72.175781 136.933594 72.175781 C 136.289062 72.175781 135.949219 71.667969 135.949219 70.828125 C 135.949219 70.671875 135.949219 70.386719 136.121094 69.664062 L 136.71875 69.664062 C 137.027344 69.664062 137.792969 69.640625 138.339844 69.4375 C 139.199219 69.109375 139.277344 68.453125 139.277344 68.25 C 139.277344 67.75 138.847656 67.296875 138.101562 67.296875 C 136.910156 67.296875 135.203125 68.375 135.203125 70.386719 C 135.203125 71.578125 135.882812 72.402344 136.910156 72.402344 C 138.453125 72.402344 139.425781 71.203125 139.425781 71.058594 Z M 138.9375 68.25 C 138.9375 69.4375 137.128906 69.4375 136.652344 69.4375 L 136.175781 69.4375 C 136.664062 67.695312 137.738281 67.523438 138.101562 67.523438 C 138.597656 67.523438 138.9375 67.820312 138.9375 68.25 Z M 138.9375 68.25 "/>
<path style=" stroke:none;fill-rule:evenodd;fill:rgb(0%,0%,0%);fill-opacity:1;" d="M 146.074219 73.792969 C 146.074219 73.683594 145.960938 73.683594 145.914062 73.683594 C 145.605469 73.675781 145.503906 73.617188 145.375 73.347656 L 144.113281 70.757812 L 144.066406 70.65625 C 144.066406 70.65625 144.203125 70.542969 144.28125 70.488281 C 144.90625 70.027344 145.765625 69.410156 146.027344 69.242188 C 146.429688 68.992188 146.722656 68.824219 147.082031 68.792969 C 147.144531 68.785156 147.253906 68.777344 147.253906 68.632812 C 147.246094 68.578125 147.199219 68.53125 147.144531 68.53125 C 147.144531 68.53125 146.914062 68.554688 146.859375 68.554688 L 146.542969 68.554688 C 146.40625 68.554688 146.207031 68.554688 146.136719 68.546875 C 146.082031 68.546875 145.769531 68.53125 145.714844 68.53125 C 145.660156 68.53125 145.550781 68.53125 145.550781 68.679688 C 145.550781 68.679688 145.558594 68.785156 145.675781 68.792969 C 145.742188 68.800781 145.867188 68.816406 145.867188 68.910156 C 145.867188 69.039062 145.707031 69.171875 145.691406 69.179688 L 145.628906 69.234375 C 145.605469 69.257812 145.574219 69.289062 145.535156 69.316406 L 142.300781 71.660156 L 142.925781 69.148438 C 142.996094 68.863281 143.015625 68.792969 143.589844 68.792969 C 143.75 68.792969 143.84375 68.792969 143.84375 68.640625 C 143.84375 68.640625 143.839844 68.53125 143.710938 68.53125 C 143.5625 68.53125 143.371094 68.546875 143.21875 68.554688 L 142.71875 68.554688 C 141.960938 68.554688 141.753906 68.53125 141.699219 68.53125 C 141.65625 68.53125 141.539062 68.53125 141.539062 68.679688 C 141.539062 68.792969 141.636719 68.792969 141.769531 68.792969 C 142.03125 68.792969 142.261719 68.792969 142.261719 68.917969 C 142.261719 68.949219 142.253906 68.957031 142.230469 69.0625 L 141.167969 73.316406 C 141.097656 73.617188 141.078125 73.683594 140.492188 73.683594 C 140.34375 73.683594 140.25 73.683594 140.25 73.832031 C 140.25 73.863281 140.269531 73.945312 140.375 73.945312 C 140.523438 73.945312 140.714844 73.925781 140.867188 73.917969 L 141.886719 73.917969 C 142.015625 73.925781 142.277344 73.945312 142.394531 73.945312 C 142.4375 73.945312 142.554688 73.945312 142.554688 73.800781 C 142.554688 73.683594 142.457031 73.683594 142.324219 73.683594 C 142.269531 73.683594 142.15625 73.683594 142.023438 73.664062 C 141.855469 73.648438 141.832031 73.636719 141.832031 73.554688 C 141.832031 73.507812 141.886719 73.308594 141.914062 73.183594 C 142 72.835938 141.898438 73.269531 142.214844 71.984375 L 143.488281 71.066406 L 144.441406 73.023438 L 144.589844 73.332031 C 144.636719 73.414062 144.636719 73.429688 144.636719 73.460938 C 144.636719 73.675781 144.34375 73.683594 144.257812 73.683594 C 144.179688 73.683594 144.066406 73.683594 144.066406 73.832031 C 144.066406 73.832031 144.074219 73.945312 144.203125 73.945312 C 144.28125 73.945312 144.582031 73.925781 144.652344 73.917969 L 145.113281 73.917969 C 145.84375 73.917969 145.820312 73.945312 145.921875 73.945312 C 145.953125 73.945312 146.074219 73.945312 146.074219 73.792969 Z M 146.074219 73.792969 "/>
<path style=" stroke:none;fill-rule:evenodd;fill:rgb(0%,0%,0%);fill-opacity:1;" d="M 151.699219 75.042969 C 151.699219 75.007812 151.699219 74.984375 151.507812 74.792969 C 150.378906 73.648438 149.742188 71.78125 149.742188 69.472656 C 149.742188 67.277344 150.273438 65.386719 151.585938 64.046875 C 151.699219 63.945312 151.699219 63.925781 151.699219 63.890625 C 151.699219 63.824219 151.644531 63.800781 151.597656 63.800781 C 151.453125 63.800781 150.523438 64.617188 149.96875 65.722656 C 149.390625 66.867188 149.128906 68.078125 149.128906 69.472656 C 149.128906 70.480469 149.289062 71.828125 149.878906 73.039062 C 150.546875 74.394531 151.476562 75.132812 151.597656 75.132812 C 151.644531 75.132812 151.699219 75.109375 151.699219 75.042969 Z M 151.699219 75.042969 "/>
<path style=" stroke:none;fill-rule:evenodd;fill:rgb(0%,0%,0%);fill-opacity:1;" d="M 155.804688 70.671875 C 155.804688 70.601562 155.757812 70.570312 155.691406 70.570312 C 155.691406 70.570312 155.621094 70.570312 155.597656 70.613281 C 155.597656 70.613281 155.574219 70.636719 155.496094 70.816406 C 155.257812 71.382812 154.738281 72.175781 154.082031 72.175781 C 153.742188 72.175781 153.71875 71.894531 153.71875 71.644531 C 153.71875 71.644531 153.71875 71.417969 153.753906 71.28125 L 154.636719 67.738281 L 155.679688 67.738281 C 155.894531 67.738281 156.007812 67.738281 156.007812 67.535156 C 156.007812 67.410156 155.9375 67.410156 155.710938 67.410156 L 154.714844 67.410156 L 155.132812 65.757812 C 155.179688 65.601562 155.179688 65.578125 155.179688 65.5 C 155.179688 65.316406 155.03125 65.214844 154.886719 65.214844 C 154.796875 65.214844 154.535156 65.25 154.445312 65.613281 L 154.003906 67.410156 L 152.9375 67.410156 C 152.710938 67.410156 152.609375 67.410156 152.609375 67.625 C 152.609375 67.738281 152.6875 67.738281 152.90625 67.738281 L 153.914062 67.738281 L 153.164062 70.726562 C 153.074219 71.125 153.039062 71.238281 153.039062 71.382812 C 153.039062 71.917969 153.414062 72.402344 154.046875 72.402344 C 155.191406 72.402344 155.804688 70.75 155.804688 70.671875 Z M 155.804688 70.671875 "/>
<path style=" stroke:none;fill-rule:evenodd;fill:rgb(0%,0%,0%);fill-opacity:1;" d="M 159.480469 69.472656 C 159.480469 68.609375 159.367188 67.207031 158.734375 65.894531 C 158.066406 64.535156 157.136719 63.800781 157.011719 63.800781 C 156.96875 63.800781 156.910156 63.824219 156.910156 63.890625 C 156.910156 63.925781 156.910156 63.945312 157.101562 64.140625 C 158.234375 65.28125 158.867188 67.148438 158.867188 69.460938 C 158.867188 71.65625 158.335938 73.546875 157.023438 74.882812 C 156.910156 74.984375 156.910156 75.007812 156.910156 75.042969 C 156.910156 75.109375 156.96875 75.132812 157.011719 75.132812 C 157.160156 75.132812 158.085938 74.316406 158.644531 73.207031 C 159.21875 72.054688 159.480469 70.828125 159.480469 69.472656 Z M 159.480469 69.472656 "/>
<g clip-path="url(#clip2)" clip-rule="nonzero">
<path style=" stroke:none;fill-rule:nonzero;fill:rgb(96.00061%,96.00061%,96.00061%);fill-opacity:1;" d="M 59.132812 0 L 0 0 L 0 156.550781 L 182.660156 156.550781 Z M 59.132812 0 "/>
</g>
<path style=" stroke:none;fill-rule:evenodd;fill:rgb(0%,0%,0%);fill-opacity:1;" d="M 30.671875 14.738281 C 30.671875 14.617188 30.570312 14.617188 30.507812 14.617188 C 30.308594 14.617188 30.078125 14.636719 29.871094 14.636719 L 28.578125 14.636719 C 28.371094 14.636719 28.140625 14.617188 27.929688 14.617188 C 27.855469 14.617188 27.722656 14.617188 27.722656 14.824219 C 27.722656 14.933594 27.800781 14.933594 28.007812 14.933594 C 28.664062 14.933594 28.664062 15.019531 28.664062 15.140625 C 28.664062 15.140625 28.664062 15.230469 28.621094 15.394531 L 27.953125 18.042969 L 24.644531 18.042969 L 25.300781 15.417969 C 25.402344 15.042969 25.421875 14.933594 26.199219 14.933594 C 26.398438 14.933594 26.507812 14.933594 26.507812 14.738281 C 26.507812 14.617188 26.410156 14.617188 26.34375 14.617188 C 26.144531 14.617188 25.914062 14.636719 25.707031 14.636719 L 24.414062 14.636719 C 24.207031 14.636719 23.976562 14.617188 23.769531 14.617188 C 23.691406 14.617188 23.5625 14.617188 23.5625 14.824219 C 23.5625 14.933594 23.636719 14.933594 23.84375 14.933594 C 24.503906 14.933594 24.503906 15.019531 24.503906 15.140625 C 24.503906 15.140625 24.503906 15.230469 24.460938 15.394531 L 22.980469 21.289062 C 22.882812 21.671875 22.859375 21.78125 22.101562 21.78125 C 21.851562 21.78125 21.777344 21.78125 21.777344 21.988281 C 21.777344 22.097656 21.894531 22.097656 21.929688 22.097656 C 22.125 22.097656 22.355469 22.078125 22.5625 22.078125 L 23.855469 22.078125 C 24.0625 22.078125 24.292969 22.097656 24.503906 22.097656 C 24.589844 22.097656 24.710938 22.097656 24.710938 21.890625 C 24.710938 21.78125 24.613281 21.78125 24.449219 21.78125 C 23.78125 21.78125 23.78125 21.695312 23.78125 21.582031 C 23.78125 21.582031 23.78125 21.496094 23.800781 21.40625 L 24.558594 18.363281 L 27.875 18.363281 L 27.109375 21.441406 C 26.988281 21.769531 26.8125 21.769531 26.167969 21.78125 C 26.035156 21.78125 25.9375 21.78125 25.9375 21.988281 C 25.9375 22.097656 26.058594 22.097656 26.089844 22.097656 C 26.289062 22.097656 26.519531 22.078125 26.726562 22.078125 L 28.019531 22.078125 C 28.226562 22.078125 28.457031 22.097656 28.664062 22.097656 C 28.753906 22.097656 28.875 22.097656 28.875 21.890625 C 28.875 21.78125 28.773438 21.78125 28.609375 21.78125 C 27.941406 21.78125 27.941406 21.695312 27.941406 21.582031 C 27.941406 21.582031 27.941406 21.496094 27.964844 21.40625 L 29.464844 15.417969 C 29.5625 15.042969 29.585938 14.933594 30.363281 14.933594 C 30.5625 14.933594 30.671875 14.933594 30.671875 14.738281 Z M 30.671875 14.738281 "/>
<path style=" stroke:none;fill-rule:evenodd;fill:rgb(0%,0%,0%);fill-opacity:1;" d="M 36.183594 23.554688 C 36.183594 23.445312 36.074219 23.445312 36.03125 23.445312 C 35.730469 23.4375 35.632812 23.382812 35.507812 23.125 L 34.289062 20.613281 L 34.242188 20.515625 C 34.242188 20.515625 34.371094 20.40625 34.449219 20.351562 C 35.054688 19.910156 35.886719 19.3125 36.136719 19.152344 C 36.527344 18.90625 36.8125 18.742188 37.160156 18.714844 C 37.21875 18.707031 37.328125 18.699219 37.328125 18.558594 C 37.320312 18.503906 37.273438 18.460938 37.21875 18.460938 C 37.21875 18.460938 36.996094 18.484375 36.941406 18.484375 L 36.636719 18.484375 C 36.503906 18.484375 36.316406 18.484375 36.246094 18.476562 C 36.191406 18.476562 35.890625 18.460938 35.839844 18.460938 C 35.785156 18.460938 35.675781 18.460938 35.675781 18.605469 C 35.675781 18.605469 35.683594 18.707031 35.800781 18.714844 C 35.863281 18.722656 35.984375 18.738281 35.984375 18.828125 C 35.984375 18.949219 35.832031 19.082031 35.816406 19.089844 L 35.753906 19.144531 C 35.730469 19.164062 35.699219 19.195312 35.660156 19.21875 L 32.53125 21.488281 L 33.136719 19.058594 C 33.207031 18.78125 33.222656 18.714844 33.78125 18.714844 C 33.9375 18.714844 34.027344 18.714844 34.027344 18.566406 C 34.027344 18.566406 34.019531 18.460938 33.898438 18.460938 C 33.753906 18.460938 33.566406 18.476562 33.421875 18.484375 L 32.9375 18.484375 C 32.203125 18.484375 32.003906 18.460938 31.949219 18.460938 C 31.910156 18.460938 31.796875 18.460938 31.796875 18.605469 C 31.796875 18.714844 31.890625 18.714844 32.019531 18.714844 C 32.273438 18.714844 32.496094 18.714844 32.496094 18.835938 C 32.496094 18.867188 32.488281 18.875 32.464844 18.972656 L 31.4375 23.09375 C 31.367188 23.382812 31.351562 23.445312 30.785156 23.445312 C 30.636719 23.445312 30.546875 23.445312 30.546875 23.589844 C 30.546875 23.621094 30.570312 23.699219 30.667969 23.699219 C 30.8125 23.699219 31 23.683594 31.144531 23.675781 L 32.132812 23.675781 C 32.253906 23.683594 32.507812 23.699219 32.625 23.699219 C 32.664062 23.699219 32.777344 23.699219 32.777344 23.5625 C 32.777344 23.445312 32.683594 23.445312 32.554688 23.445312 C 32.5 23.445312 32.394531 23.445312 32.265625 23.429688 C 32.101562 23.414062 32.078125 23.398438 32.078125 23.320312 C 32.078125 23.277344 32.132812 23.085938 32.15625 22.960938 C 32.242188 22.625 32.140625 23.046875 32.449219 21.804688 L 33.683594 20.914062 L 34.605469 22.808594 L 34.75 23.109375 C 34.792969 23.183594 34.792969 23.199219 34.792969 23.230469 C 34.792969 23.4375 34.511719 23.445312 34.425781 23.445312 C 34.351562 23.445312 34.242188 23.445312 34.242188 23.589844 C 34.242188 23.589844 34.25 23.699219 34.371094 23.699219 C 34.449219 23.699219 34.742188 23.683594 34.808594 23.675781 L 35.253906 23.675781 C 35.960938 23.675781 35.9375 23.699219 36.039062 23.699219 C 36.066406 23.699219 36.183594 23.699219 36.183594 23.554688 Z M 36.183594 23.554688 "/>
<path style=" stroke:none;fill-rule:evenodd;fill:rgb(0%,0%,0%);fill-opacity:1;" d="M 41.628906 24.761719 C 41.628906 24.726562 41.628906 24.707031 41.445312 24.519531 C 40.347656 23.414062 39.734375 21.605469 39.734375 19.371094 C 39.734375 17.246094 40.25 15.417969 41.519531 14.121094 C 41.628906 14.023438 41.628906 14.003906 41.628906 13.96875 C 41.628906 13.902344 41.574219 13.882812 41.53125 13.882812 C 41.390625 13.882812 40.492188 14.671875 39.953125 15.746094 C 39.394531 16.851562 39.144531 18.023438 39.144531 19.371094 C 39.144531 20.34375 39.296875 21.648438 39.867188 22.820312 C 40.511719 24.136719 41.410156 24.847656 41.53125 24.847656 C 41.574219 24.847656 41.628906 24.828125 41.628906 24.761719 Z M 41.628906 24.761719 "/>
<path style=" stroke:none;fill-rule:evenodd;fill:rgb(0%,0%,0%);fill-opacity:1;" d="M 45.601562 20.53125 C 45.601562 20.464844 45.554688 20.433594 45.492188 20.433594 C 45.492188 20.433594 45.425781 20.433594 45.402344 20.476562 C 45.402344 20.476562 45.378906 20.5 45.304688 20.671875 C 45.074219 21.222656 44.570312 21.988281 43.933594 21.988281 C 43.605469 21.988281 43.582031 21.714844 43.582031 21.472656 C 43.582031 21.472656 43.582031 21.253906 43.617188 21.125 L 44.46875 17.695312 L 45.480469 17.695312 C 45.6875 17.695312 45.796875 17.695312 45.796875 17.496094 C 45.796875 17.378906 45.730469 17.378906 45.511719 17.378906 L 44.546875 17.378906 L 44.953125 15.777344 C 44.996094 15.625 44.996094 15.601562 44.996094 15.527344 C 44.996094 15.347656 44.855469 15.25 44.710938 15.25 C 44.625 15.25 44.371094 15.285156 44.285156 15.636719 L 43.859375 17.378906 L 42.828125 17.378906 C 42.609375 17.378906 42.507812 17.378906 42.507812 17.585938 C 42.507812 17.695312 42.585938 17.695312 42.796875 17.695312 L 43.769531 17.695312 L 43.046875 20.585938 C 42.960938 20.96875 42.925781 21.078125 42.925781 21.222656 C 42.925781 21.738281 43.289062 22.207031 43.902344 22.207031 C 45.007812 22.207031 45.601562 20.609375 45.601562 20.53125 Z M 45.601562 20.53125 "/>
<path style=" stroke:none;fill-rule:evenodd;fill:rgb(0%,0%,0%);fill-opacity:1;" d="M 49.15625 19.371094 C 49.15625 18.539062 49.046875 17.179688 48.4375 15.910156 C 47.789062 14.59375 46.890625 13.882812 46.769531 13.882812 C 46.726562 13.882812 46.671875 13.902344 46.671875 13.96875 C 46.671875 14.003906 46.671875 14.023438 46.859375 14.210938 C 47.953125 15.316406 48.566406 17.125 48.566406 19.359375 C 48.566406 21.484375 48.050781 23.3125 46.78125 24.609375 C 46.671875 24.707031 46.671875 24.726562 46.671875 24.761719 C 46.671875 24.828125 46.726562 24.847656 46.769531 24.847656 C 46.914062 24.847656 47.8125 24.058594 48.347656 22.984375 C 48.90625 21.867188 49.15625 20.683594 49.15625 19.371094 Z M 49.15625 19.371094 "/>
<path style="fill-rule:nonzero;fill:rgb(100%,100%,86.999313%);fill-opacity:1;stroke-width:1;stroke-linecap:square;stroke-linejoin:miter;stroke:rgb(0%,0%,0%);stroke-opacity:1;stroke-miterlimit:3.25;" d="M 93.003906 42.925781 L 91.789062 42.410156 L 90.582031 41.914062 L 89.386719 41.433594 L 88.195312 40.96875 L 87.019531 40.519531 L 85.851562 40.085938 L 84.691406 39.667969 L 83.539062 39.265625 L 82.398438 38.882812 L 81.265625 38.515625 L 80.144531 38.164062 L 79.03125 37.828125 L 77.929688 37.507812 L 76.832031 37.203125 L 75.75 36.914062 L 74.671875 36.644531 L 73.605469 36.390625 L 72.550781 36.148438 L 71.503906 35.925781 L 70.464844 35.71875 L 69.433594 35.53125 L 68.414062 35.355469 L 67.40625 35.195312 L 66.40625 35.054688 L 65.414062 34.929688 L 64.429688 34.820312 L 63.457031 34.726562 L 62.496094 34.648438 L 61.539062 34.585938 L 60.597656 34.542969 L 59.660156 34.511719 L 58.734375 34.5 L 57.816406 34.503906 L 56.910156 34.523438 L 56.011719 34.558594 L 55.125 34.609375 L 54.242188 34.679688 L 53.375 34.761719 L 52.511719 34.863281 L 51.660156 34.980469 L 50.820312 35.113281 L 49.988281 35.261719 L 49.164062 35.425781 L 48.347656 35.605469 L 47.542969 35.804688 L 46.75 36.019531 L 45.964844 36.246094 L 45.1875 36.492188 L 44.417969 36.753906 L 43.660156 37.035156 L 42.914062 37.328125 L 42.171875 37.636719 L 41.445312 37.964844 L 40.722656 38.308594 L 40.011719 38.667969 L 39.308594 39.042969 L 38.617188 39.433594 L 37.933594 39.839844 L 37.261719 40.261719 L 36.59375 40.703125 L 35.941406 41.160156 L 35.292969 41.628906 L 34.65625 42.117188 L 34.03125 42.625 L 33.414062 43.144531 L 32.804688 43.679688 L 32.207031 44.234375 L 31.617188 44.800781 L 31.035156 45.386719 L 30.464844 45.988281 L 29.902344 46.605469 L 29.351562 47.238281 L 28.808594 47.890625 L 28.273438 48.554688 L 27.75 49.238281 L 27.234375 49.9375 L 26.726562 50.648438 L 26.230469 51.378906 L 25.746094 52.128906 L 25.265625 52.890625 L 24.796875 53.667969 L 24.339844 54.464844 L 23.890625 55.277344 L 23.449219 56.101562 L 23.019531 56.945312 L 22.597656 57.808594 L 22.183594 58.683594 L 21.78125 59.574219 L 21.386719 60.484375 L 21.003906 61.40625 L 20.628906 62.347656 L 20.261719 63.304688 L 19.90625 64.277344 L 19.558594 65.265625 L 19.222656 66.273438 L 18.894531 67.292969 L 18.574219 68.332031 L 18.265625 69.386719 L 17.964844 70.457031 L 17.675781 71.542969 L 12.625 111.101562 L 12.898438 112.695312 L 13.242188 114.253906 L 13.648438 115.769531 L 14.121094 117.25 L 14.660156 118.691406 L 15.257812 120.089844 L 15.914062 121.453125 L 16.632812 122.777344 L 17.40625 124.0625 L 18.234375 125.3125 L 19.121094 126.519531 L 20.058594 127.691406 L 21.046875 128.824219 L 22.085938 129.921875 L 23.171875 130.980469 L 24.308594 132 L 25.488281 132.984375 L 26.710938 133.929688 L 27.976562 134.839844 L 29.285156 135.710938 L 30.628906 136.546875 L 32.015625 137.34375 L 33.4375 138.105469 L 34.890625 138.832031 L 36.382812 139.519531 L 37.90625 140.171875 L 39.457031 140.789062 L 41.039062 141.367188 L 42.648438 141.914062 L 44.285156 142.421875 L 45.945312 142.894531 L 47.628906 143.332031 L 49.335938 143.734375 L 51.058594 144.105469 L 52.804688 144.4375 L 54.566406 144.734375 L 56.34375 144.996094 L 58.136719 145.222656 L 59.941406 145.417969 L 61.757812 145.574219 L 63.585938 145.699219 L 65.417969 145.789062 L 67.261719 145.84375 L 69.109375 145.867188 L 70.957031 145.855469 L 72.8125 145.808594 L 74.667969 145.730469 L 76.519531 145.617188 L 78.371094 145.472656 L 80.222656 145.292969 L 82.066406 145.082031 L 83.902344 144.835938 L 85.730469 144.558594 L 87.550781 144.246094 L 89.359375 143.902344 L 91.15625 143.527344 L 92.941406 143.121094 L 94.707031 142.679688 L 96.460938 142.207031 L 98.191406 141.703125 L 99.90625 141.167969 L 101.597656 140.597656 L 103.265625 140 L 104.910156 139.371094 L 106.53125 138.707031 L 108.121094 138.015625 L 109.683594 137.289062 L 111.21875 136.535156 L 112.71875 135.75 L 114.1875 134.933594 L 115.621094 134.085938 L 117.019531 133.207031 L 118.378906 132.300781 L 119.703125 131.359375 L 120.984375 130.390625 L 122.222656 129.394531 L 123.417969 128.367188 L 124.566406 127.308594 L 125.671875 126.222656 L 126.726562 125.105469 L 127.734375 123.960938 L 128.691406 122.785156 L 129.59375 121.582031 L 130.445312 120.347656 L 131.238281 119.085938 L 131.976562 117.796875 L 132.65625 116.476562 L 133.273438 115.128906 L 133.832031 113.753906 L 134.328125 112.351562 L 134.761719 110.917969 L 135.125 109.457031 L 135.425781 107.972656 L 135.652344 106.457031 L 135.8125 104.914062 L 135.902344 103.34375 L 135.917969 101.746094 L 135.855469 100.121094 L 135.722656 98.46875 L 135.507812 96.792969 Z M 93.003906 42.925781 "/>
<path style=" stroke:none;fill-rule:evenodd;fill:rgb(0%,0%,0%);fill-opacity:1;" d="M 73.105469 96.007812 C 73.105469 95.898438 73.007812 95.898438 72.898438 95.898438 C 72.492188 95.886719 72.351562 95.800781 72.1875 95.40625 L 70.664062 91.789062 C 70.652344 91.757812 70.609375 91.671875 70.609375 91.636719 C 70.609375 91.636719 70.621094 91.617188 70.804688 91.472656 L 71.867188 90.640625 C 73.335938 89.5 73.820312 89.117188 74.574219 89.050781 C 74.652344 89.039062 74.761719 89.039062 74.761719 88.855469 C 74.761719 88.789062 74.726562 88.734375 74.640625 88.734375 C 74.519531 88.734375 74.386719 88.757812 74.265625 88.757812 L 73.851562 88.757812 C 73.511719 88.757812 73.148438 88.734375 72.820312 88.734375 C 72.742188 88.734375 72.613281 88.734375 72.613281 88.929688 C 72.613281 89.039062 72.6875 89.050781 72.753906 89.050781 C 72.875 89.0625 73.019531 89.105469 73.019531 89.257812 C 73.019531 89.480469 72.6875 89.742188 72.601562 89.808594 L 68.308594 93.148438 L 69.214844 89.535156 C 69.316406 89.160156 69.339844 89.050781 70.113281 89.050781 C 70.324219 89.050781 70.421875 89.050781 70.421875 88.84375 C 70.421875 88.734375 70.3125 88.734375 70.257812 88.734375 C 70.058594 88.734375 69.832031 88.757812 69.621094 88.757812 L 68.328125 88.757812 C 68.132812 88.757812 67.890625 88.734375 67.695312 88.734375 C 67.605469 88.734375 67.488281 88.734375 67.488281 88.941406 C 67.488281 89.050781 67.585938 89.050781 67.75 89.050781 C 68.417969 89.050781 68.417969 89.140625 68.417969 89.257812 C 68.417969 89.257812 68.417969 89.347656 68.375 89.511719 L 66.894531 95.40625 C 66.796875 95.789062 66.773438 95.898438 66.007812 95.898438 C 65.800781 95.898438 65.691406 95.898438 65.691406 96.097656 C 65.691406 96.214844 65.789062 96.214844 65.855469 96.214844 C 66.0625 96.214844 66.28125 96.195312 66.488281 96.195312 L 67.769531 96.195312 C 67.980469 96.195312 68.207031 96.214844 68.417969 96.214844 C 68.503906 96.214844 68.625 96.214844 68.625 96.007812 C 68.625 95.898438 68.527344 95.898438 68.363281 95.898438 C 67.695312 95.898438 67.695312 95.8125 67.695312 95.699219 C 67.695312 95.625 67.761719 95.351562 67.804688 95.175781 L 68.230469 93.476562 L 69.894531 92.175781 L 71.242188 95.351562 C 71.277344 95.417969 71.296875 95.484375 71.296875 95.558594 C 71.296875 95.886719 70.859375 95.898438 70.761719 95.898438 C 70.664062 95.898438 70.554688 95.898438 70.554688 96.105469 C 70.554688 96.214844 70.675781 96.214844 70.707031 96.214844 C 71.089844 96.214844 71.496094 96.195312 71.878906 96.195312 L 72.40625 96.195312 C 72.570312 96.195312 72.753906 96.214844 72.921875 96.214844 C 72.984375 96.214844 73.105469 96.214844 73.105469 96.007812 Z M 73.105469 96.007812 "/>
<path style=" stroke:none;fill-rule:evenodd;fill:rgb(0%,0%,0%);fill-opacity:1;" d="M 137.5 97 C 137.5 96.601562 137.34375 96.21875 137.0625 95.9375 C 136.78125 95.65625 136.398438 95.5 136 95.5 C 135.601562 95.5 135.21875 95.65625 134.9375 95.9375 C 134.65625 96.21875 134.5 96.601562 134.5 97 C 134.5 97.398438 134.65625 97.78125 134.9375 98.0625 C 135.21875 98.34375 135.601562 98.5 136 98.5 C 136.398438 98.5 136.78125 98.34375 137.0625 98.0625 C 137.34375 97.78125 137.5 97.398438 137.5 97 Z M 137.5 97 "/>
<path style=" stroke:none;fill-rule:evenodd;fill:rgb(0%,0%,0%);fill-opacity:1;" d="M 138.515625 84.796875 C 138.515625 84.105469 138.164062 84.0625 138.078125 84.0625 C 137.8125 84.0625 137.574219 84.324219 137.574219 84.542969 C 137.574219 84.675781 137.648438 84.753906 137.695312 84.796875 C 137.804688 84.894531 138.085938 85.191406 138.085938 85.761719 C 138.085938 86.222656 137.429688 88.785156 136.117188 88.785156 C 135.449219 88.785156 135.316406 88.226562 135.316406 87.820312 C 135.316406 87.273438 135.566406 86.503906 135.863281 85.714844 C 136.039062 85.269531 136.082031 85.160156 136.082031 84.941406 C 136.082031 84.480469 135.753906 84.0625 135.21875 84.0625 C 134.210938 84.0625 133.804688 85.652344 133.804688 85.738281 C 133.804688 85.785156 133.847656 85.839844 133.925781 85.839844 C 134.023438 85.839844 134.035156 85.792969 134.078125 85.640625 C 134.339844 84.699219 134.769531 84.28125 135.183594 84.28125 C 135.285156 84.28125 135.46875 84.28125 135.46875 84.644531 C 135.46875 84.929688 135.347656 85.246094 135.183594 85.660156 C 134.660156 87.0625 134.660156 87.402344 134.660156 87.667969 C 134.660156 87.90625 134.691406 88.355469 135.03125 88.664062 C 135.425781 89.003906 135.972656 89.003906 136.070312 89.003906 C 137.890625 89.003906 138.515625 85.421875 138.515625 84.796875 Z M 138.515625 84.796875 "/>
<path style=" stroke:none;fill-rule:evenodd;fill:rgb(0%,0%,0%);fill-opacity:1;" d="M 144.75 82.378906 C 144.75 82.203125 144.582031 82.203125 144.476562 82.203125 L 140.066406 82.203125 C 139.957031 82.203125 139.789062 82.203125 139.789062 82.378906 C 139.789062 82.554688 139.957031 82.554688 140.066406 82.554688 L 144.476562 82.554688 C 144.582031 82.554688 144.75 82.554688 144.75 82.378906 Z M 144.75 82.378906 "/>
<path style=" stroke:none;fill-rule:evenodd;fill:rgb(0%,0%,0%);fill-opacity:1;" d="M 144.71875 91.949219 C 144.71875 91.839844 144.613281 91.839844 144.566406 91.839844 C 144.265625 91.832031 144.167969 91.777344 144.046875 91.519531 L 142.824219 89.007812 L 142.78125 88.910156 C 142.78125 88.910156 142.910156 88.804688 142.988281 88.75 C 143.59375 88.304688 144.421875 87.707031 144.675781 87.546875 C 145.066406 87.300781 145.351562 87.136719 145.695312 87.109375 C 145.753906 87.101562 145.863281 87.09375 145.863281 86.953125 C 145.855469 86.898438 145.808594 86.855469 145.753906 86.855469 C 145.753906 86.855469 145.53125 86.878906 145.480469 86.878906 L 145.171875 86.878906 C 145.042969 86.878906 144.851562 86.878906 144.78125 86.871094 C 144.726562 86.871094 144.429688 86.855469 144.375 86.855469 C 144.320312 86.855469 144.214844 86.855469 144.214844 87 C 144.214844 87 144.222656 87.101562 144.335938 87.109375 C 144.398438 87.117188 144.519531 87.132812 144.519531 87.222656 C 144.519531 87.34375 144.367188 87.476562 144.351562 87.484375 L 144.289062 87.539062 C 144.265625 87.558594 144.238281 87.589844 144.199219 87.613281 L 141.070312 89.882812 L 141.675781 87.453125 C 141.746094 87.175781 141.761719 87.109375 142.320312 87.109375 C 142.472656 87.109375 142.5625 87.109375 142.5625 86.960938 C 142.5625 86.960938 142.558594 86.855469 142.433594 86.855469 C 142.289062 86.855469 142.105469 86.871094 141.960938 86.878906 L 141.476562 86.878906 C 140.738281 86.878906 140.539062 86.855469 140.488281 86.855469 C 140.449219 86.855469 140.332031 86.855469 140.332031 87 C 140.332031 87.109375 140.425781 87.109375 140.554688 87.109375 C 140.808594 87.109375 141.03125 87.109375 141.03125 87.230469 C 141.03125 87.261719 141.023438 87.269531 141 87.367188 L 139.972656 91.488281 C 139.902344 91.777344 139.886719 91.839844 139.320312 91.839844 C 139.175781 91.839844 139.085938 91.839844 139.085938 91.984375 C 139.085938 92.015625 139.105469 92.09375 139.207031 92.09375 C 139.351562 92.09375 139.535156 92.078125 139.683594 92.070312 L 140.671875 92.070312 C 140.792969 92.078125 141.046875 92.09375 141.160156 92.09375 C 141.199219 92.09375 141.316406 92.09375 141.316406 91.957031 C 141.316406 91.839844 141.222656 91.839844 141.09375 91.839844 C 141.039062 91.839844 140.933594 91.839844 140.800781 91.824219 C 140.640625 91.808594 140.617188 91.792969 140.617188 91.714844 C 140.617188 91.671875 140.671875 91.480469 140.695312 91.355469 C 140.777344 91.019531 140.679688 91.441406 140.984375 90.199219 L 142.222656 89.308594 L 143.140625 91.203125 L 143.285156 91.503906 C 143.332031 91.578125 143.332031 91.59375 143.332031 91.625 C 143.332031 91.832031 143.046875 91.839844 142.964844 91.839844 C 142.886719 91.839844 142.78125 91.839844 142.78125 91.984375 C 142.78125 91.984375 142.789062 92.09375 142.910156 92.09375 C 142.988281 92.09375 143.277344 92.078125 143.347656 92.070312 L 143.792969 92.070312 C 144.5 92.070312 144.476562 92.09375 144.574219 92.09375 C 144.605469 92.09375 144.71875 92.09375 144.71875 91.949219 Z M 144.71875 91.949219 "/>
<path style=" stroke:none;fill-rule:evenodd;fill:rgb(0%,0%,0%);fill-opacity:1;" d="M 150.164062 91.554688 C 150.164062 91.523438 150.164062 91.5 149.980469 91.316406 C 148.886719 90.207031 148.269531 88.398438 148.269531 86.167969 C 148.269531 84.042969 148.785156 82.210938 150.054688 80.917969 C 150.164062 80.820312 150.164062 80.796875 150.164062 80.765625 C 150.164062 80.699219 150.109375 80.679688 150.066406 80.679688 C 149.925781 80.679688 149.027344 81.46875 148.488281 82.539062 C 147.929688 83.644531 147.679688 84.816406 147.679688 86.167969 C 147.679688 87.140625 147.832031 88.445312 148.402344 89.617188 C 149.050781 90.929688 149.945312 91.644531 150.066406 91.644531 C 150.109375 91.644531 150.164062 91.621094 150.164062 91.554688 Z M 150.164062 91.554688 "/>
<path style=" stroke:none;fill-rule:evenodd;fill:rgb(0%,0%,0%);fill-opacity:1;" d="M 154.136719 87.328125 C 154.136719 87.261719 154.089844 87.226562 154.027344 87.226562 C 154.027344 87.226562 153.960938 87.226562 153.9375 87.273438 C 153.9375 87.273438 153.914062 87.292969 153.839844 87.46875 C 153.609375 88.015625 153.105469 88.785156 152.46875 88.785156 C 152.140625 88.785156 152.117188 88.511719 152.117188 88.269531 C 152.117188 88.269531 152.117188 88.050781 152.152344 87.917969 L 153.003906 84.488281 L 154.015625 84.488281 C 154.222656 84.488281 154.332031 84.488281 154.332031 84.292969 C 154.332031 84.171875 154.265625 84.171875 154.046875 84.171875 L 153.082031 84.171875 L 153.488281 82.574219 C 153.53125 82.421875 153.53125 82.398438 153.53125 82.320312 C 153.53125 82.144531 153.390625 82.046875 153.246094 82.046875 C 153.160156 82.046875 152.90625 82.078125 152.820312 82.429688 L 152.394531 84.171875 L 151.363281 84.171875 C 151.144531 84.171875 151.046875 84.171875 151.046875 84.378906 C 151.046875 84.488281 151.121094 84.488281 151.332031 84.488281 L 152.304688 84.488281 L 151.582031 87.382812 C 151.496094 87.765625 151.460938 87.875 151.460938 88.015625 C 151.460938 88.53125 151.824219 89.003906 152.4375 89.003906 C 153.542969 89.003906 154.136719 87.402344 154.136719 87.328125 Z M 154.136719 87.328125 "/>
<path style=" stroke:none;fill-rule:evenodd;fill:rgb(0%,0%,0%);fill-opacity:1;" d="M 157.691406 86.167969 C 157.691406 85.332031 157.582031 83.976562 156.96875 82.703125 C 156.324219 81.390625 155.425781 80.679688 155.304688 80.679688 C 155.261719 80.679688 155.207031 80.699219 155.207031 80.765625 C 155.207031 80.796875 155.207031 80.820312 155.394531 81.007812 C 156.488281 82.113281 157.101562 83.917969 157.101562 86.15625 C 157.101562 88.28125 156.585938 90.109375 155.316406 91.402344 C 155.207031 91.5 155.207031 91.523438 155.207031 91.554688 C 155.207031 91.621094 155.261719 91.644531 155.304688 91.644531 C 155.449219 91.644531 156.34375 90.855469 156.882812 89.78125 C 157.441406 88.664062 157.691406 87.480469 157.691406 86.167969 Z M 157.691406 86.167969 "/>
<path style=" stroke:none;fill-rule:evenodd;fill:rgb(0%,0%,0%);fill-opacity:1;" d="M 94.5 43 C 94.5 42.601562 94.34375 42.21875 94.0625 41.9375 C 93.78125 41.65625 93.398438 41.5 93 41.5 C 92.601562 41.5 92.21875 41.65625 91.9375 41.9375 C 91.65625 42.21875 91.5 42.601562 91.5 43 C 91.5 43.398438 91.65625 43.78125 91.9375 44.0625 C 92.21875 44.34375 92.601562 44.5 93 44.5 C 93.398438 44.5 93.78125 44.34375 94.0625 44.0625 C 94.34375 43.78125 94.5 43.398438 94.5 43 Z M 94.5 43 "/>
<path style=" stroke:none;fill-rule:evenodd;fill:rgb(0%,0%,0%);fill-opacity:1;" d="M 96.011719 30.929688 C 96.011719 30.238281 95.660156 30.195312 95.574219 30.195312 C 95.308594 30.195312 95.070312 30.457031 95.070312 30.675781 C 95.070312 30.808594 95.144531 30.886719 95.191406 30.929688 C 95.300781 31.027344 95.582031 31.324219 95.582031 31.894531 C 95.582031 32.355469 94.925781 34.917969 93.613281 34.917969 C 92.941406 34.917969 92.8125 34.359375 92.8125 33.953125 C 92.8125 33.40625 93.0625 32.636719 93.359375 31.847656 C 93.535156 31.402344 93.578125 31.292969 93.578125 31.074219 C 93.578125 30.613281 93.25 30.195312 92.714844 30.195312 C 91.707031 30.195312 91.300781 31.785156 91.300781 31.871094 C 91.300781 31.917969 91.34375 31.972656 91.421875 31.972656 C 91.519531 31.972656 91.53125 31.925781 91.574219 31.773438 C 91.835938 30.832031 92.265625 30.414062 92.679688 30.414062 C 92.777344 30.414062 92.964844 30.414062 92.964844 30.777344 C 92.964844 31.0625 92.84375 31.378906 92.679688 31.792969 C 92.15625 33.195312 92.15625 33.535156 92.15625 33.800781 C 92.15625 34.039062 92.1875 34.488281 92.527344 34.796875 C 92.921875 35.136719 93.46875 35.136719 93.566406 35.136719 C 95.386719 35.136719 96.011719 31.554688 96.011719 30.929688 Z M 96.011719 30.929688 "/>
<path style=" stroke:none;fill-rule:evenodd;fill:rgb(0%,0%,0%);fill-opacity:1;" d="M 102.480469 28.511719 C 102.480469 28.335938 102.308594 28.335938 102.203125 28.335938 L 99.949219 28.335938 L 99.949219 26.070312 C 99.949219 25.964844 99.949219 25.796875 99.773438 25.796875 C 99.59375 25.796875 99.59375 25.964844 99.59375 26.070312 L 99.59375 28.335938 L 97.332031 28.335938 C 97.226562 28.335938 97.054688 28.335938 97.054688 28.511719 C 97.054688 28.6875 97.226562 28.6875 97.332031 28.6875 L 99.59375 28.6875 L 99.59375 30.949219 C 99.59375 31.058594 99.59375 31.226562 99.773438 31.226562 C 99.949219 31.226562 99.949219 31.058594 99.949219 30.949219 L 99.949219 28.6875 L 102.203125 28.6875 C 102.308594 28.6875 102.480469 28.6875 102.480469 28.511719 Z M 102.480469 28.511719 "/>
<path style=" stroke:none;fill-rule:evenodd;fill:rgb(0%,0%,0%);fill-opacity:1;" d="M 102.214844 38.082031 C 102.214844 37.972656 102.109375 37.972656 102.0625 37.972656 C 101.761719 37.964844 101.664062 37.910156 101.542969 37.652344 L 100.320312 35.140625 L 100.277344 35.042969 C 100.277344 35.042969 100.40625 34.9375 100.484375 34.882812 C 101.089844 34.4375 101.917969 33.839844 102.171875 33.679688 C 102.5625 33.433594 102.847656 33.269531 103.191406 33.242188 C 103.253906 33.234375 103.359375 33.226562 103.359375 33.089844 C 103.351562 33.035156 103.304688 32.988281 103.253906 32.988281 C 103.253906 32.988281 103.027344 33.011719 102.976562 33.011719 L 102.667969 33.011719 C 102.539062 33.011719 102.347656 33.011719 102.277344 33.003906 C 102.222656 33.003906 101.925781 32.988281 101.871094 32.988281 C 101.816406 32.988281 101.710938 32.988281 101.710938 33.132812 C 101.710938 33.132812 101.71875 33.234375 101.832031 33.242188 C 101.894531 33.25 102.015625 33.265625 102.015625 33.355469 C 102.015625 33.476562 101.863281 33.609375 101.847656 33.617188 L 101.785156 33.671875 C 101.761719 33.691406 101.734375 33.722656 101.695312 33.746094 L 98.566406 36.015625 L 99.171875 33.585938 C 99.242188 33.308594 99.257812 33.242188 99.816406 33.242188 C 99.96875 33.242188 100.0625 33.242188 100.0625 33.097656 C 100.0625 33.097656 100.054688 32.988281 99.929688 32.988281 C 99.785156 32.988281 99.601562 33.003906 99.457031 33.011719 L 98.972656 33.011719 C 98.234375 33.011719 98.035156 32.988281 97.984375 32.988281 C 97.945312 32.988281 97.828125 32.988281 97.828125 33.132812 C 97.828125 33.242188 97.921875 33.242188 98.050781 33.242188 C 98.304688 33.242188 98.527344 33.242188 98.527344 33.363281 C 98.527344 33.394531 98.519531 33.402344 98.496094 33.5 L 97.46875 37.621094 C 97.398438 37.910156 97.382812 37.972656 96.816406 37.972656 C 96.671875 37.972656 96.578125 37.972656 96.578125 38.117188 C 96.578125 38.148438 96.601562 38.226562 96.703125 38.226562 C 96.847656 38.226562 97.03125 38.210938 97.179688 38.203125 L 98.167969 38.203125 C 98.289062 38.210938 98.542969 38.226562 98.65625 38.226562 C 98.695312 38.226562 98.8125 38.226562 98.8125 38.089844 C 98.8125 37.972656 98.71875 37.972656 98.589844 37.972656 C 98.535156 37.972656 98.429688 37.972656 98.296875 37.957031 C 98.136719 37.941406 98.113281 37.925781 98.113281 37.847656 C 98.113281 37.804688 98.167969 37.613281 98.191406 37.488281 C 98.273438 37.152344 98.175781 37.574219 98.480469 36.332031 L 99.71875 35.441406 L 100.636719 37.335938 L 100.78125 37.636719 C 100.828125 37.710938 100.828125 37.726562 100.828125 37.757812 C 100.828125 37.964844 100.542969 37.972656 100.460938 37.972656 C 100.382812 37.972656 100.277344 37.972656 100.277344 38.117188 C 100.277344 38.117188 100.285156 38.226562 100.40625 38.226562 C 100.484375 38.226562 100.773438 38.210938 100.84375 38.203125 L 101.289062 38.203125 C 101.996094 38.203125 101.972656 38.226562 102.070312 38.226562 C 102.101562 38.226562 102.214844 38.226562 102.214844 38.082031 Z M 102.214844 38.082031 "/>
<path style=" stroke:none;fill-rule:evenodd;fill:rgb(0%,0%,0%);fill-opacity:1;" d="M 107.664062 37.6875 C 107.664062 37.65625 107.664062 37.632812 107.476562 37.449219 C 106.382812 36.339844 105.765625 34.53125 105.765625 32.300781 C 105.765625 30.175781 106.28125 28.34375 107.554688 27.050781 C 107.664062 26.953125 107.664062 26.929688 107.664062 26.898438 C 107.664062 26.832031 107.609375 26.8125 107.5625 26.8125 C 107.421875 26.8125 106.523438 27.601562 105.984375 28.671875 C 105.425781 29.777344 105.175781 30.949219 105.175781 32.300781 C 105.175781 33.273438 105.328125 34.578125 105.898438 35.75 C 106.546875 37.0625 107.445312 37.777344 107.5625 37.777344 C 107.609375 37.777344 107.664062 37.753906 107.664062 37.6875 Z M 107.664062 37.6875 "/>
<path style=" stroke:none;fill-rule:evenodd;fill:rgb(0%,0%,0%);fill-opacity:1;" d="M 111.632812 33.460938 C 111.632812 33.394531 111.589844 33.359375 111.523438 33.359375 C 111.523438 33.359375 111.457031 33.359375 111.433594 33.40625 C 111.433594 33.40625 111.410156 33.425781 111.335938 33.601562 C 111.105469 34.148438 110.601562 34.917969 109.964844 34.917969 C 109.636719 34.917969 109.613281 34.644531 109.613281 34.402344 C 109.613281 34.402344 109.613281 34.183594 109.648438 34.050781 L 110.503906 30.621094 L 111.511719 30.621094 C 111.71875 30.621094 111.828125 30.621094 111.828125 30.425781 C 111.828125 30.304688 111.761719 30.304688 111.542969 30.304688 L 110.582031 30.304688 L 110.984375 28.707031 C 111.027344 28.554688 111.027344 28.53125 111.027344 28.453125 C 111.027344 28.277344 110.886719 28.179688 110.746094 28.179688 C 110.65625 28.179688 110.402344 28.210938 110.316406 28.5625 L 109.890625 30.304688 L 108.859375 30.304688 C 108.640625 30.304688 108.542969 30.304688 108.542969 30.511719 C 108.542969 30.621094 108.617188 30.621094 108.828125 30.621094 L 109.800781 30.621094 L 109.078125 33.515625 C 108.992188 33.898438 108.957031 34.007812 108.957031 34.148438 C 108.957031 34.664062 109.320312 35.136719 109.933594 35.136719 C 111.039062 35.136719 111.632812 33.535156 111.632812 33.460938 Z M 111.632812 33.460938 "/>
<path style=" stroke:none;fill-rule:evenodd;fill:rgb(0%,0%,0%);fill-opacity:1;" d="M 115.1875 32.300781 C 115.1875 31.464844 115.078125 30.109375 114.46875 28.835938 C 113.820312 27.523438 112.921875 26.8125 112.800781 26.8125 C 112.757812 26.8125 112.703125 26.832031 112.703125 26.898438 C 112.703125 26.929688 112.703125 26.953125 112.890625 27.140625 C 113.984375 28.246094 114.597656 30.050781 114.597656 32.289062 C 114.597656 34.414062 114.082031 36.242188 112.8125 37.535156 C 112.703125 37.632812 112.703125 37.65625 112.703125 37.6875 C 112.703125 37.753906 112.757812 37.777344 112.800781 37.777344 C 112.945312 37.777344 113.84375 36.988281 114.378906 35.914062 C 114.9375 34.796875 115.1875 33.613281 115.1875 32.300781 Z M 115.1875 32.300781 "/>
<path style="fill:none;stroke-width:4;stroke-linecap:butt;stroke-linejoin:round;stroke:rgb(100%,100%,100%);stroke-opacity:0.666667;stroke-miterlimit:3.239307;" d="M 159.253906 121.234375 L 160.464844 120.066406 L 161.46875 119.1875 L 162.292969 118.558594 L 162.972656 118.140625 L 163.53125 117.882812 L 164 117.753906 L 164.410156 117.703125 L 164.789062 117.695312 L 166.789062 117.695312 "/>
<path style="fill:none;stroke-width:1.25;stroke-linecap:square;stroke-linejoin:miter;stroke:rgb(66.666667%,66.666667%,66.666667%);stroke-opacity:1;stroke-miterlimit:3.25;" d="M 159.253906 121.234375 L 160.464844 120.066406 L 161.46875 119.1875 L 162.292969 118.558594 L 162.972656 118.140625 L 163.53125 117.882812 L 164 117.753906 L 164.410156 117.703125 L 164.789062 117.695312 L 166.789062 117.695312 "/>
<path style=" stroke:none;fill-rule:nonzero;fill:rgb(100%,100%,100%);fill-opacity:0.666667;" d="M 198.789062 104.496094 L 198.789062 126.496094 L 166.789062 126.496094 L 166.789062 104.496094 Z M 198.789062 104.496094 "/>
<path style=" stroke:none;fill-rule:evenodd;fill:rgb(0%,0%,0%);fill-opacity:1;" d="M 173.472656 116.402344 C 173.472656 116.347656 173.425781 116.300781 173.359375 116.300781 C 173.257812 116.300781 173.246094 116.359375 173.203125 116.527344 C 172.996094 117.304688 172.796875 117.898438 172.347656 117.898438 C 172.007812 117.898438 172.007812 117.539062 172.007812 117.382812 C 172.007812 117.335938 172.007812 117.101562 172.085938 116.785156 L 173.671875 110.484375 C 173.683594 110.441406 173.707031 110.371094 173.707031 110.316406 C 173.707031 110.203125 173.570312 110.203125 173.570312 110.203125 L 172.953125 110.261719 C 172.761719 110.273438 172.59375 110.292969 172.390625 110.304688 C 172.121094 110.328125 172.042969 110.339844 172.042969 110.542969 C 172.042969 110.652344 172.152344 110.652344 172.265625 110.652344 C 172.839844 110.652344 172.839844 110.753906 172.839844 110.867188 C 172.839844 110.914062 172.839844 110.933594 172.785156 111.136719 L 171.390625 116.71875 C 171.355469 116.84375 171.332031 116.933594 171.332031 117.113281 C 171.332031 117.675781 171.75 118.125 172.324219 118.125 C 172.695312 118.125 172.941406 117.878906 173.121094 117.527344 C 173.3125 117.15625 173.472656 116.449219 173.472656 116.402344 Z M 173.472656 116.402344 "/>
<path style=" stroke:none;fill-rule:evenodd;fill:rgb(0%,0%,0%);fill-opacity:1;" d="M 180.277344 119.503906 C 180.277344 119.394531 180.167969 119.394531 180.121094 119.394531 C 179.8125 119.386719 179.710938 119.332031 179.582031 119.0625 L 178.332031 116.488281 L 178.285156 116.386719 C 178.285156 116.386719 178.417969 116.277344 178.496094 116.21875 C 179.117188 115.765625 179.96875 115.148438 180.230469 114.984375 C 180.632812 114.730469 180.921875 114.566406 181.277344 114.535156 C 181.339844 114.527344 181.453125 114.519531 181.453125 114.378906 C 181.441406 114.320312 181.394531 114.273438 181.339844 114.273438 C 181.339844 114.273438 181.109375 114.300781 181.054688 114.300781 L 180.742188 114.300781 C 180.605469 114.300781 180.410156 114.300781 180.339844 114.292969 C 180.285156 114.292969 179.976562 114.273438 179.921875 114.273438 C 179.867188 114.273438 179.757812 114.273438 179.757812 114.425781 C 179.757812 114.425781 179.765625 114.527344 179.882812 114.535156 C 179.945312 114.542969 180.070312 114.558594 180.070312 114.652344 C 180.070312 114.777344 179.914062 114.910156 179.898438 114.921875 L 179.835938 114.976562 C 179.8125 115 179.78125 115.03125 179.742188 115.054688 L 176.527344 117.386719 L 177.148438 114.890625 C 177.21875 114.605469 177.238281 114.535156 177.8125 114.535156 C 177.96875 114.535156 178.0625 114.535156 178.0625 114.386719 C 178.0625 114.386719 178.054688 114.273438 177.929688 114.273438 C 177.78125 114.273438 177.589844 114.292969 177.441406 114.300781 L 176.945312 114.300781 C 176.1875 114.300781 175.984375 114.273438 175.929688 114.273438 C 175.890625 114.273438 175.773438 114.273438 175.773438 114.425781 C 175.773438 114.535156 175.867188 114.535156 176 114.535156 C 176.257812 114.535156 176.488281 114.535156 176.488281 114.660156 C 176.488281 114.691406 176.480469 114.699219 176.457031 114.804688 L 175.402344 119.03125 C 175.332031 119.332031 175.3125 119.394531 174.730469 119.394531 C 174.582031 119.394531 174.488281 119.394531 174.488281 119.542969 C 174.488281 119.578125 174.511719 119.65625 174.613281 119.65625 C 174.761719 119.65625 174.953125 119.640625 175.101562 119.628906 L 176.117188 119.628906 C 176.242188 119.640625 176.503906 119.65625 176.621094 119.65625 C 176.660156 119.65625 176.777344 119.65625 176.777344 119.515625 C 176.777344 119.394531 176.683594 119.394531 176.550781 119.394531 C 176.496094 119.394531 176.386719 119.394531 176.25 119.378906 C 176.085938 119.363281 176.0625 119.347656 176.0625 119.269531 C 176.0625 119.222656 176.117188 119.023438 176.140625 118.898438 C 176.230469 118.550781 176.125 118.984375 176.441406 117.707031 L 177.710938 116.796875 L 178.65625 118.742188 L 178.804688 119.046875 C 178.851562 119.128906 178.851562 119.144531 178.851562 119.175781 C 178.851562 119.386719 178.558594 119.394531 178.472656 119.394531 C 178.394531 119.394531 178.285156 119.394531 178.285156 119.542969 C 178.285156 119.542969 178.292969 119.65625 178.417969 119.65625 C 178.496094 119.65625 178.796875 119.640625 178.867188 119.628906 L 179.324219 119.628906 C 180.050781 119.628906 180.023438 119.65625 180.128906 119.65625 C 180.15625 119.65625 180.277344 119.65625 180.277344 119.503906 Z M 180.277344 119.503906 "/>
<path style=" stroke:none;fill-rule:evenodd;fill:rgb(0%,0%,0%);fill-opacity:1;" d="M 185.871094 120.746094 C 185.871094 120.710938 185.871094 120.691406 185.679688 120.5 C 184.554688 119.359375 183.921875 117.503906 183.921875 115.210938 C 183.921875 113.027344 184.453125 111.148438 185.757812 109.820312 C 185.871094 109.71875 185.871094 109.699219 185.871094 109.664062 C 185.871094 109.597656 185.8125 109.574219 185.769531 109.574219 C 185.621094 109.574219 184.699219 110.382812 184.148438 111.488281 C 183.574219 112.621094 183.316406 113.824219 183.316406 115.210938 C 183.316406 116.210938 183.472656 117.550781 184.058594 118.753906 C 184.722656 120.105469 185.644531 120.835938 185.769531 120.835938 C 185.8125 120.835938 185.871094 120.8125 185.871094 120.746094 Z M 185.871094 120.746094 "/>
<path style=" stroke:none;fill-rule:evenodd;fill:rgb(0%,0%,0%);fill-opacity:1;" d="M 189.945312 116.402344 C 189.945312 116.335938 189.902344 116.300781 189.835938 116.300781 C 189.835938 116.300781 189.765625 116.300781 189.742188 116.347656 C 189.742188 116.347656 189.722656 116.367188 189.640625 116.546875 C 189.40625 117.113281 188.890625 117.898438 188.238281 117.898438 C 187.898438 117.898438 187.875 117.617188 187.875 117.371094 C 187.875 117.371094 187.875 117.144531 187.910156 117.011719 L 188.785156 113.488281 L 189.824219 113.488281 C 190.035156 113.488281 190.148438 113.488281 190.148438 113.285156 C 190.148438 113.164062 190.082031 113.164062 189.855469 113.164062 L 188.867188 113.164062 L 189.28125 111.519531 C 189.328125 111.363281 189.328125 111.339844 189.328125 111.261719 C 189.328125 111.082031 189.179688 110.980469 189.035156 110.980469 C 188.945312 110.980469 188.6875 111.011719 188.597656 111.375 L 188.15625 113.164062 L 187.101562 113.164062 C 186.875 113.164062 186.773438 113.164062 186.773438 113.375 C 186.773438 113.488281 186.851562 113.488281 187.066406 113.488281 L 188.066406 113.488281 L 187.324219 116.457031 C 187.234375 116.851562 187.203125 116.964844 187.203125 117.113281 C 187.203125 117.640625 187.574219 118.125 188.203125 118.125 C 189.339844 118.125 189.945312 116.480469 189.945312 116.402344 Z M 189.945312 116.402344 "/>
<path style=" stroke:none;fill-rule:evenodd;fill:rgb(0%,0%,0%);fill-opacity:1;" d="M 193.703125 115.210938 C 193.703125 114.355469 193.589844 112.960938 192.960938 111.65625 C 192.296875 110.304688 191.375 109.574219 191.25 109.574219 C 191.207031 109.574219 191.148438 109.597656 191.148438 109.664062 C 191.148438 109.699219 191.148438 109.71875 191.339844 109.910156 C 192.464844 111.046875 193.097656 112.902344 193.097656 115.199219 C 193.097656 117.382812 192.566406 119.261719 191.261719 120.589844 C 191.148438 120.691406 191.148438 120.710938 191.148438 120.746094 C 191.148438 120.8125 191.207031 120.835938 191.25 120.835938 C 191.398438 120.835938 192.320312 120.027344 192.871094 118.921875 C 193.445312 117.777344 193.703125 116.558594 193.703125 115.210938 Z M 193.703125 115.210938 "/>
<path style=" stroke:none;fill-rule:evenodd;fill:rgb(0%,0%,0%);fill-opacity:1;" d="M 128.355469 50.738281 C 128.355469 50.050781 128.003906 50.003906 127.914062 50.003906 C 127.652344 50.003906 127.410156 50.269531 127.410156 50.488281 C 127.410156 50.617188 127.488281 50.695312 127.53125 50.738281 C 127.640625 50.839844 127.925781 51.132812 127.925781 51.703125 C 127.925781 52.164062 127.269531 54.726562 125.953125 54.726562 C 125.285156 54.726562 125.152344 54.167969 125.152344 53.765625 C 125.152344 53.214844 125.40625 52.449219 125.703125 51.660156 C 125.878906 51.210938 125.921875 51.101562 125.921875 50.882812 C 125.921875 50.421875 125.589844 50.003906 125.054688 50.003906 C 124.046875 50.003906 123.640625 51.59375 123.640625 51.679688 C 123.640625 51.726562 123.683594 51.78125 123.761719 51.78125 C 123.859375 51.78125 123.871094 51.738281 123.914062 51.582031 C 124.179688 50.640625 124.605469 50.222656 125.023438 50.222656 C 125.121094 50.222656 125.308594 50.222656 125.308594 50.585938 C 125.308594 50.871094 125.1875 51.1875 125.023438 51.605469 C 124.496094 53.007812 124.496094 53.347656 124.496094 53.609375 C 124.496094 53.851562 124.527344 54.300781 124.871094 54.609375 C 125.261719 54.945312 125.8125 54.945312 125.910156 54.945312 C 127.730469 54.945312 128.355469 51.363281 128.355469 50.738281 Z M 128.355469 50.738281 "/>
<path style=" stroke:none;fill-rule:evenodd;fill:rgb(0%,0%,0%);fill-opacity:1;" d="M 131.15625 55.339844 C 131.15625 55.257812 131.085938 55.242188 131.039062 55.242188 C 130.957031 55.242188 130.949219 55.273438 130.894531 55.386719 C 130.742188 55.753906 130.359375 56.300781 129.890625 56.300781 C 129.726562 56.300781 129.636719 56.191406 129.636719 55.9375 C 129.636719 55.792969 129.660156 55.710938 129.683594 55.609375 L 130.242188 53.382812 L 130.992188 53.382812 C 131.140625 53.382812 131.230469 53.382812 131.230469 53.238281 C 131.230469 53.132812 131.132812 53.132812 131 53.132812 L 130.304688 53.132812 L 130.578125 52.042969 C 130.609375 51.925781 130.609375 51.878906 130.609375 51.878906 C 130.609375 51.71875 130.488281 51.644531 130.359375 51.644531 C 130.097656 51.644531 130.042969 51.847656 129.957031 52.195312 L 129.71875 53.132812 L 128.984375 53.132812 C 128.839844 53.132812 128.738281 53.132812 128.738281 53.277344 C 128.738281 53.382812 128.839844 53.382812 128.96875 53.382812 L 129.660156 53.382812 L 129.199219 55.226562 C 129.152344 55.417969 129.082031 55.6875 129.082031 55.792969 C 129.082031 56.253906 129.460938 56.515625 129.867188 56.515625 C 130.6875 56.515625 131.15625 55.433594 131.15625 55.339844 Z M 131.15625 55.339844 "/>
<path style=" stroke:none;fill-rule:evenodd;fill:rgb(0%,0%,0%);fill-opacity:1;" d="M 111.488281 52.484375 C 111.488281 52.429688 111.445312 52.382812 111.378906 52.382812 C 111.28125 52.382812 111.269531 52.4375 111.226562 52.601562 C 111.03125 53.359375 110.832031 53.941406 110.394531 53.941406 C 110.066406 53.941406 110.066406 53.578125 110.066406 53.4375 C 110.066406 53.183594 110.097656 53.074219 110.207031 52.613281 L 110.425781 51.714844 L 110.875 49.929688 C 110.953125 49.65625 110.953125 49.632812 110.953125 49.601562 C 110.953125 49.4375 110.820312 49.328125 110.65625 49.328125 C 110.339844 49.328125 110.261719 49.601562 110.195312 49.875 L 109.417969 53.042969 C 109.417969 53.042969 108.980469 53.941406 108.179688 53.941406 C 107.609375 53.941406 107.5 53.445312 107.5 53.042969 C 107.5 52.417969 107.808594 51.539062 108.09375 50.804688 C 108.226562 50.457031 108.28125 50.3125 108.28125 50.09375 C 108.28125 49.625 107.9375 49.21875 107.414062 49.21875 C 106.40625 49.21875 106 50.804688 106 50.894531 C 106 50.9375 106.042969 50.992188 106.121094 50.992188 C 106.21875 50.992188 106.230469 50.949219 106.273438 50.796875 C 106.535156 49.851562 106.964844 49.4375 107.382812 49.4375 C 107.492188 49.4375 107.664062 49.449219 107.664062 49.796875 C 107.664062 50.085938 107.546875 50.402344 107.382812 50.816406 C 106.898438 52.121094 106.84375 52.539062 106.84375 52.867188 C 106.84375 53.984375 107.6875 54.160156 108.136719 54.160156 C 108.835938 54.160156 109.222656 53.679688 109.441406 53.414062 C 109.582031 54.027344 110.109375 54.160156 110.371094 54.160156 C 110.722656 54.160156 110.984375 53.929688 111.160156 53.554688 C 111.347656 53.164062 111.488281 52.515625 111.488281 52.484375 Z M 111.488281 52.484375 "/>
<path style=" stroke:none;fill-rule:evenodd;fill:rgb(0%,0%,0%);fill-opacity:1;" d="M 114.414062 54.554688 C 114.414062 54.46875 114.34375 54.453125 114.296875 54.453125 C 114.214844 54.453125 114.207031 54.484375 114.152344 54.597656 C 114 54.96875 113.617188 55.511719 113.148438 55.511719 C 112.984375 55.511719 112.894531 55.40625 112.894531 55.152344 C 112.894531 55.007812 112.917969 54.921875 112.941406 54.820312 L 113.5 52.597656 L 114.25 52.597656 C 114.398438 52.597656 114.488281 52.597656 114.488281 52.453125 C 114.488281 52.34375 114.390625 52.34375 114.257812 52.34375 L 113.5625 52.34375 L 113.835938 51.253906 C 113.867188 51.140625 113.867188 51.09375 113.867188 51.09375 C 113.867188 50.933594 113.746094 50.855469 113.617188 50.855469 C 113.355469 50.855469 113.300781 51.0625 113.214844 51.40625 L 112.976562 52.34375 L 112.242188 52.34375 C 112.097656 52.34375 111.996094 52.34375 111.996094 52.488281 C 111.996094 52.597656 112.097656 52.597656 112.226562 52.597656 L 112.917969 52.597656 L 112.457031 54.4375 C 112.410156 54.628906 112.34375 54.898438 112.34375 55.007812 C 112.34375 55.464844 112.71875 55.726562 113.125 55.726562 C 113.945312 55.726562 114.414062 54.644531 114.414062 54.554688 Z M 114.414062 54.554688 "/>
<path style=" stroke:none;fill-rule:evenodd;fill:rgb(0%,0%,100%);fill-opacity:1;" d="M 113.5 67 C 113.5 66.601562 113.34375 66.21875 113.0625 65.9375 C 112.78125 65.65625 112.398438 65.5 112 65.5 C 111.601562 65.5 111.21875 65.65625 110.9375 65.9375 C 110.65625 66.21875 110.5 66.601562 110.5 67 C 110.5 67.398438 110.65625 67.78125 110.9375 68.0625 C 111.21875 68.34375 111.601562 68.5 112 68.5 C 112.398438 68.5 112.78125 68.34375 113.0625 68.0625 C 113.34375 67.78125 113.5 67.398438 113.5 67 Z M 113.5 67 "/>
<path style="fill:none;stroke-width:1;stroke-linecap:butt;stroke-linejoin:miter;stroke:rgb(0%,0%,100%);stroke-opacity:1;stroke-dasharray:1,2;stroke-miterlimit:3.25;" d="M 112.132812 67.164062 L 119.589844 61.28125 "/>
<path style=" stroke:none;fill-rule:nonzero;fill:rgb(0%,0%,100%);fill-opacity:1;" d="M 117.6875 60.074219 L 117.929688 60.191406 L 118.492188 60.484375 L 118.816406 60.671875 L 119.128906 60.875 L 119.394531 61.082031 L 119.589844 61.28125 L 119.71875 61.496094 L 119.855469 61.800781 L 119.988281 62.160156 L 120.109375 62.535156 L 120.296875 63.195312 L 120.371094 63.480469 L 125.347656 56.738281 Z M 117.6875 60.074219 "/>
<path style="fill:none;stroke-width:1;stroke-linecap:butt;stroke-linejoin:miter;stroke:rgb(0%,0%,100%);stroke-opacity:1;stroke-dasharray:1,2;stroke-miterlimit:3.25;" d="M 112.132812 67.164062 L 106.246094 59.707031 "/>
<path style=" stroke:none;fill-rule:nonzero;fill:rgb(0%,0%,100%);fill-opacity:1;" d="M 105.039062 61.609375 L 105.15625 61.367188 L 105.449219 60.804688 L 105.640625 60.480469 L 105.84375 60.167969 L 106.046875 59.902344 L 106.246094 59.707031 L 106.460938 59.574219 L 106.765625 59.441406 L 107.125 59.308594 L 107.5 59.1875 L 108.160156 58.996094 L 108.445312 58.921875 L 101.703125 53.949219 Z M 105.039062 61.609375 "/>
</g>
</svg>
