<?xml version="1.0" encoding="UTF-8"?>
<svg xmlns="http://www.w3.org/2000/svg" xmlns:xlink="http://www.w3.org/1999/xlink" width="269pt" height="86pt" viewBox="0 0 269 86" version="1.1">
<g id="surface430">
<path style="fill:none;stroke-width:0.2;stroke-linecap:square;stroke-linejoin:miter;stroke:rgb(30.000763%,76.665904%,30.000763%);stroke-opacity:1;stroke-miterlimit:3.25;" d="M -30.386719 129.28125 L 156.214844 21.546875 "/>
<path style="fill:none;stroke-width:0.2;stroke-linecap:square;stroke-linejoin:miter;stroke:rgb(30.000763%,76.665904%,30.000763%);stroke-opacity:1;stroke-miterlimit:3.25;" d="M 243.277344 172.347656 L 156.214844 21.546875 "/>
<path style=" stroke:none;fill-rule:nonzero;fill:rgb(30.000763%,76.665904%,30.000763%);fill-opacity:1;" d="M 156.214844 21.546875 L 156.300781 21.632812 L 156.25 21.410156 L 156.164062 21.460938 Z M 156.214844 21.546875 "/>
<path style="fill:none;stroke-width:0.2;stroke-linecap:square;stroke-linejoin:miter;stroke:rgb(30.000763%,76.665904%,30.000763%);stroke-opacity:1;stroke-miterlimit:3.25;" d="M 243.277344 172.347656 L 156.214844 21.546875 "/>
<path style=" stroke:none;fill-rule:nonzero;fill:rgb(30.000763%,76.665904%,30.000763%);fill-opacity:1;" d="M 156.214844 21.546875 L 156.300781 21.632812 L 156.25 21.410156 L 156.164062 21.460938 Z M 156.214844 21.546875 "/>
<path style="fill:none;stroke-width:0.2;stroke-linecap:square;stroke-linejoin:miter;stroke:rgb(30.000763%,76.665904%,30.000763%);stroke-opacity:1;stroke-miterlimit:3.25;" d="M -57.320312 82.628906 L 175.929688 -52.035156 "/>
<path style="fill:none;stroke-width:0.2;stroke-linecap:square;stroke-linejoin:miter;stroke:rgb(30.000763%,76.665904%,30.000763%);stroke-opacity:1;stroke-miterlimit:3.25;" d="M 305.476562 172.347656 L 175.929688 -52.035156 "/>
<path style="fill:none;stroke-width:0.2;stroke-linecap:square;stroke-linejoin:miter;stroke:rgb(30.000763%,76.665904%,30.000763%);stroke-opacity:1;stroke-miterlimit:3.25;" d="M 305.476562 172.347656 L 175.929688 -52.035156 "/>
<path style="fill-rule:nonzero;fill:rgb(100%,100%,86.999313%);fill-opacity:1;stroke-width:1;stroke-linecap:square;stroke-linejoin:miter;stroke:rgb(0%,0%,0%);stroke-opacity:1;stroke-miterlimit:3.25;" d="M 249.511719 75.414062 L 218.414062 21.546875 L 50.921875 21.546875 L 19.820312 75.414062 L 62.914062 75.414062 L 91.574219 58.867188 L 113.121094 21.546875 L 134.667969 33.988281 L 156.214844 21.546875 L 177.761719 58.867188 L 206.417969 75.414062 Z M 249.511719 75.414062 "/>
<path style="fill:none;stroke-width:1;stroke-linecap:square;stroke-linejoin:miter;stroke:rgb(0%,66.666667%,0%);stroke-opacity:1;stroke-miterlimit:3.25;" d="M 156.214844 21.546875 L 177.761719 58.867188 "/>
<path style="fill:none;stroke-width:1;stroke-linecap:square;stroke-linejoin:miter;stroke:rgb(0%,66.666667%,0%);stroke-opacity:1;stroke-miterlimit:3.25;" d="M 249.511719 75.414062 L 218.414062 21.546875 "/>
<path style=" stroke:none;fill-rule:evenodd;fill:rgb(0%,0%,0%);fill-opacity:1;" d="M 157.5 22 C 157.5 21.601562 157.34375 21.21875 157.0625 20.9375 C 156.78125 20.65625 156.398438 20.5 156 20.5 C 155.601562 20.5 155.21875 20.65625 154.9375 20.9375 C 154.65625 21.21875 154.5 21.601562 154.5 22 C 154.5 22.398438 154.65625 22.78125 154.9375 23.0625 C 155.21875 23.34375 155.601562 23.5 156 23.5 C 156.398438 23.5 156.78125 23.34375 157.0625 23.0625 C 157.34375 22.78125 157.5 22.398438 157.5 22 Z M 157.5 22 "/>
<path style=" stroke:none;fill-rule:evenodd;fill:rgb(0%,0%,0%);fill-opacity:1;" d="M 114.5 22 C 114.5 21.601562 114.34375 21.21875 114.0625 20.9375 C 113.78125 20.65625 113.398438 20.5 113 20.5 C 112.601562 20.5 112.21875 20.65625 111.9375 20.9375 C 111.65625 21.21875 111.5 21.601562 111.5 22 C 111.5 22.398438 111.65625 22.78125 111.9375 23.0625 C 112.21875 23.34375 112.601562 23.5 113 23.5 C 113.398438 23.5 113.78125 23.34375 114.0625 23.0625 C 114.34375 22.78125 114.5 22.398438 114.5 22 Z M 114.5 22 "/>
<path style=" stroke:none;fill-rule:evenodd;fill:rgb(0%,0%,0%);fill-opacity:1;" d="M 146.46875 13.648438 L 146.46875 13.175781 L 145.695312 13.175781 L 143.835938 10.929688 L 145.113281 9.46875 C 145.234375 9.324219 145.335938 9.234375 146.246094 9.234375 L 146.246094 8.761719 L 145.234375 8.785156 C 144.914062 8.785156 144.445312 8.785156 144.132812 8.761719 L 144.132812 9.234375 C 144.34375 9.234375 144.574219 9.289062 144.574219 9.367188 C 144.574219 9.367188 144.519531 9.46875 144.5 9.488281 L 143.539062 10.566406 L 142.453125 9.234375 L 142.914062 9.234375 L 142.914062 8.761719 C 142.660156 8.785156 141.914062 8.785156 141.617188 8.785156 C 141.285156 8.785156 140.691406 8.785156 140.382812 8.761719 L 140.382812 9.234375 L 141.164062 9.234375 L 142.882812 11.324219 L 141.449219 12.941406 C 141.320312 13.097656 141.242188 13.175781 140.328125 13.175781 L 140.328125 13.648438 L 141.351562 13.625 C 141.671875 13.625 142.132812 13.625 142.441406 13.648438 L 142.441406 13.175781 C 142.230469 13.175781 142 13.121094 142 13.042969 C 142 13.042969 142 13.019531 142.078125 12.933594 L 143.179688 11.6875 L 144.398438 13.175781 L 143.9375 13.175781 L 143.9375 13.648438 C 144.203125 13.625 144.9375 13.625 145.246094 13.625 C 145.578125 13.625 146.160156 13.625 146.46875 13.648438 Z M 146.46875 13.648438 "/>
<path style=" stroke:none;fill-rule:evenodd;fill:rgb(0%,0%,0%);fill-opacity:1;" d="M 150.304688 16.320312 C 150.304688 16.289062 150.304688 16.265625 150.117188 16.078125 C 149.019531 14.96875 148.402344 13.152344 148.402344 10.90625 C 148.402344 8.773438 148.917969 6.9375 150.195312 5.636719 C 150.304688 5.539062 150.304688 5.515625 150.304688 5.484375 C 150.304688 5.417969 150.25 5.394531 150.207031 5.394531 C 150.0625 5.394531 149.160156 6.1875 148.621094 7.265625 C 148.0625 8.378906 147.808594 9.554688 147.808594 10.90625 C 147.808594 11.886719 147.960938 13.195312 148.535156 14.375 C 149.183594 15.695312 150.085938 16.410156 150.207031 16.410156 C 150.25 16.410156 150.304688 16.386719 150.304688 16.320312 Z M 150.304688 16.320312 "/>
<path style=" stroke:none;fill-rule:evenodd;fill:rgb(0%,0%,0%);fill-opacity:1;" d="M 157.011719 9.148438 C 157.011719 8.90625 156.804688 8.90625 156.605469 8.90625 L 152.988281 8.90625 C 152.734375 8.90625 152.359375 8.90625 151.855469 9.445312 C 151.566406 9.765625 151.214844 10.347656 151.214844 10.414062 C 151.214844 10.480469 151.269531 10.5 151.335938 10.5 C 151.414062 10.5 151.425781 10.46875 151.480469 10.402344 C 152.050781 9.5 152.625 9.5 152.898438 9.5 L 153.527344 9.5 C 153.285156 10.324219 153.007812 11.28125 152.105469 13.207031 C 152.019531 13.382812 152.019531 13.40625 152.019531 13.472656 C 152.019531 13.703125 152.214844 13.757812 152.316406 13.757812 C 152.636719 13.757812 152.722656 13.472656 152.855469 13.011719 C 153.03125 12.449219 153.03125 12.425781 153.140625 11.988281 L 153.777344 9.5 L 155.023438 9.5 C 154.726562 10.730469 154.539062 11.535156 154.539062 12.414062 C 154.539062 12.570312 154.539062 13.757812 154.988281 13.757812 C 155.21875 13.757812 155.417969 13.550781 155.417969 13.363281 C 155.417969 13.308594 155.417969 13.285156 155.339844 13.121094 C 155.042969 12.359375 155.042969 11.414062 155.042969 11.335938 C 155.042969 11.269531 155.042969 10.488281 155.273438 9.5 L 156.507812 9.5 C 156.648438 9.5 157.011719 9.5 157.011719 9.148438 Z M 157.011719 9.148438 "/>
<path style=" stroke:none;fill-rule:evenodd;fill:rgb(0%,0%,0%);fill-opacity:1;" d="M 162.214844 5.605469 C 162.214844 5.472656 162.105469 5.394531 162.015625 5.394531 C 161.960938 5.394531 161.863281 5.394531 161.773438 5.636719 L 158.089844 15.992188 L 158.023438 16.191406 C 158.023438 16.320312 158.132812 16.398438 158.21875 16.398438 C 158.285156 16.398438 158.386719 16.386719 158.460938 16.15625 L 162.148438 5.804688 Z M 162.214844 5.605469 "/>
<path style=" stroke:none;fill-rule:evenodd;fill:rgb(0%,0%,0%);fill-opacity:1;" d="M 167.65625 11.402344 C 167.65625 9.941406 166.632812 8.960938 165.535156 8.960938 C 164.554688 8.960938 164.191406 9.808594 164.082031 10.117188 L 164.082031 9.820312 C 164.082031 7.035156 165.433594 6.59375 166.027344 6.59375 C 166.425781 6.59375 166.820312 6.714844 167.03125 7.046875 C 166.898438 7.046875 166.480469 7.046875 166.480469 7.496094 C 166.480469 7.738281 166.644531 7.949219 166.929688 7.949219 C 167.203125 7.949219 167.390625 7.78125 167.390625 7.464844 C 167.390625 6.890625 166.972656 6.332031 166.019531 6.332031 C 164.628906 6.332031 163.179688 7.75 163.179688 10.171875 C 163.179688 13.195312 164.5 13.878906 165.433594 13.878906 C 166.632812 13.878906 167.65625 12.832031 167.65625 11.402344 Z M 166.753906 11.390625 C 166.753906 11.953125 166.753906 12.449219 166.546875 12.867188 C 166.269531 13.394531 165.875 13.582031 165.433594 13.582031 C 164.742188 13.582031 164.410156 12.964844 164.3125 12.734375 C 164.214844 12.449219 164.101562 11.910156 164.101562 11.136719 C 164.101562 10.269531 164.5 9.179688 165.488281 9.179688 C 166.09375 9.179688 166.414062 9.585938 166.578125 9.960938 C 166.753906 10.367188 166.753906 10.917969 166.753906 11.390625 Z M 166.753906 11.390625 "/>
<path style=" stroke:none;fill-rule:evenodd;fill:rgb(0%,0%,0%);fill-opacity:1;" d="M 171.230469 10.90625 C 171.230469 10.070312 171.117188 8.707031 170.503906 7.429688 C 169.855469 6.109375 168.953125 5.394531 168.832031 5.394531 C 168.789062 5.394531 168.730469 5.417969 168.730469 5.484375 C 168.730469 5.515625 168.730469 5.539062 168.917969 5.726562 C 170.019531 6.835938 170.636719 8.652344 170.636719 10.894531 C 170.636719 13.03125 170.117188 14.871094 168.84375 16.167969 C 168.730469 16.265625 168.730469 16.289062 168.730469 16.320312 C 168.730469 16.386719 168.789062 16.410156 168.832031 16.410156 C 168.972656 16.410156 169.875 15.617188 170.414062 14.539062 C 170.976562 13.417969 171.230469 12.230469 171.230469 10.90625 Z M 171.230469 10.90625 "/>
<path style=" stroke:none;fill-rule:evenodd;fill:rgb(0%,0%,0%);fill-opacity:1;" d="M 103.375 13.648438 L 103.375 13.175781 L 102.601562 13.175781 L 100.746094 10.929688 L 102.019531 9.46875 C 102.144531 9.324219 102.242188 9.234375 103.152344 9.234375 L 103.152344 8.761719 L 102.144531 8.785156 C 101.824219 8.785156 101.351562 8.785156 101.042969 8.761719 L 101.042969 9.234375 C 101.25 9.234375 101.480469 9.289062 101.480469 9.367188 C 101.480469 9.367188 101.425781 9.46875 101.40625 9.488281 L 100.449219 10.566406 L 99.359375 9.234375 L 99.820312 9.234375 L 99.820312 8.761719 C 99.566406 8.785156 98.820312 8.785156 98.523438 8.785156 C 98.191406 8.785156 97.597656 8.785156 97.289062 8.761719 L 97.289062 9.234375 L 98.070312 9.234375 L 99.789062 11.324219 L 98.355469 12.941406 C 98.226562 13.097656 98.148438 13.175781 97.234375 13.175781 L 97.234375 13.648438 L 98.257812 13.625 C 98.578125 13.625 99.039062 13.625 99.347656 13.648438 L 99.347656 13.175781 C 99.136719 13.175781 98.90625 13.121094 98.90625 13.042969 C 98.90625 13.042969 98.90625 13.019531 98.984375 12.933594 L 100.085938 11.6875 L 101.304688 13.175781 L 100.84375 13.175781 L 100.84375 13.648438 C 101.109375 13.625 101.84375 13.625 102.152344 13.625 C 102.484375 13.625 103.066406 13.625 103.375 13.648438 Z M 103.375 13.648438 "/>
<path style=" stroke:none;fill-rule:evenodd;fill:rgb(0%,0%,0%);fill-opacity:1;" d="M 107.210938 16.320312 C 107.210938 16.289062 107.210938 16.265625 107.023438 16.078125 C 105.925781 14.96875 105.308594 13.152344 105.308594 10.90625 C 105.308594 8.773438 105.824219 6.9375 107.101562 5.636719 C 107.210938 5.539062 107.210938 5.515625 107.210938 5.484375 C 107.210938 5.417969 107.15625 5.394531 107.113281 5.394531 C 106.96875 5.394531 106.066406 6.1875 105.527344 7.265625 C 104.96875 8.378906 104.714844 9.554688 104.714844 10.90625 C 104.714844 11.886719 104.867188 13.195312 105.441406 14.375 C 106.089844 15.695312 106.992188 16.410156 107.113281 16.410156 C 107.15625 16.410156 107.210938 16.386719 107.210938 16.320312 Z M 107.210938 16.320312 "/>
<path style=" stroke:none;fill-rule:evenodd;fill:rgb(0%,0%,0%);fill-opacity:1;" d="M 113.917969 9.148438 C 113.917969 8.90625 113.710938 8.90625 113.511719 8.90625 L 109.894531 8.90625 C 109.640625 8.90625 109.265625 8.90625 108.761719 9.445312 C 108.472656 9.765625 108.121094 10.347656 108.121094 10.414062 C 108.121094 10.480469 108.175781 10.5 108.242188 10.5 C 108.320312 10.5 108.332031 10.46875 108.386719 10.402344 C 108.957031 9.5 109.53125 9.5 109.804688 9.5 L 110.433594 9.5 C 110.191406 10.324219 109.914062 11.28125 109.011719 13.207031 C 108.925781 13.382812 108.925781 13.40625 108.925781 13.472656 C 108.925781 13.703125 109.121094 13.757812 109.222656 13.757812 C 109.542969 13.757812 109.628906 13.472656 109.761719 13.011719 C 109.9375 12.449219 109.9375 12.425781 110.046875 11.988281 L 110.683594 9.5 L 111.929688 9.5 C 111.632812 10.730469 111.445312 11.535156 111.445312 12.414062 C 111.445312 12.570312 111.445312 13.757812 111.894531 13.757812 C 112.125 13.757812 112.324219 13.550781 112.324219 13.363281 C 112.324219 13.308594 112.324219 13.285156 112.246094 13.121094 C 111.949219 12.359375 111.949219 11.414062 111.949219 11.335938 C 111.949219 11.269531 111.949219 10.488281 112.183594 9.5 L 113.414062 9.5 C 113.558594 9.5 113.917969 9.5 113.917969 9.148438 Z M 113.917969 9.148438 "/>
<path style=" stroke:none;fill-rule:evenodd;fill:rgb(0%,0%,0%);fill-opacity:1;" d="M 119.121094 5.605469 C 119.121094 5.472656 119.011719 5.394531 118.921875 5.394531 C 118.867188 5.394531 118.769531 5.394531 118.679688 5.636719 L 114.996094 15.992188 L 114.929688 16.191406 C 114.929688 16.320312 115.039062 16.398438 115.125 16.398438 C 115.191406 16.398438 115.292969 16.386719 115.367188 16.15625 L 119.054688 5.804688 Z M 119.121094 5.605469 "/>
<path style=" stroke:none;fill-rule:evenodd;fill:rgb(0%,0%,0%);fill-opacity:1;" d="M 124.5625 11.765625 C 124.5625 10.753906 123.75 9.960938 122.691406 9.773438 C 123.648438 9.5 124.265625 8.695312 124.265625 7.839844 C 124.265625 6.96875 123.363281 6.332031 122.296875 6.332031 C 121.195312 6.332031 120.382812 7 120.382812 7.804688 C 120.382812 8.246094 120.722656 8.335938 120.890625 8.335938 C 121.121094 8.335938 121.382812 8.167969 121.382812 7.839844 C 121.382812 7.484375 121.121094 7.332031 120.878906 7.332031 C 120.8125 7.332031 120.789062 7.332031 120.757812 7.34375 C 121.175781 6.59375 122.207031 6.59375 122.261719 6.59375 C 122.625 6.59375 123.339844 6.761719 123.339844 7.839844 C 123.339844 8.046875 123.308594 8.664062 122.988281 9.136719 C 122.660156 9.621094 122.285156 9.65625 121.988281 9.664062 L 121.660156 9.699219 C 121.472656 9.710938 121.429688 9.71875 121.429688 9.820312 C 121.429688 9.929688 121.480469 9.929688 121.679688 9.929688 L 122.1875 9.929688 C 123.121094 9.929688 123.539062 10.699219 123.539062 11.753906 C 123.539062 13.195312 122.792969 13.582031 122.253906 13.582031 C 121.722656 13.582031 120.824219 13.328125 120.503906 12.601562 C 120.855469 12.65625 121.175781 12.457031 121.175781 12.0625 C 121.175781 11.746094 120.945312 11.523438 120.636719 11.523438 C 120.371094 11.523438 120.085938 11.675781 120.085938 12.097656 C 120.085938 13.074219 121.0625 13.878906 122.285156 13.878906 C 123.59375 13.878906 124.5625 12.878906 124.5625 11.765625 Z M 124.5625 11.765625 "/>
<path style=" stroke:none;fill-rule:evenodd;fill:rgb(0%,0%,0%);fill-opacity:1;" d="M 128.136719 10.90625 C 128.136719 10.070312 128.023438 8.707031 127.410156 7.429688 C 126.761719 6.109375 125.859375 5.394531 125.738281 5.394531 C 125.695312 5.394531 125.636719 5.417969 125.636719 5.484375 C 125.636719 5.515625 125.636719 5.539062 125.824219 5.726562 C 126.925781 6.835938 127.542969 8.652344 127.542969 10.894531 C 127.542969 13.03125 127.027344 14.871094 125.75 16.167969 C 125.636719 16.265625 125.636719 16.289062 125.636719 16.320312 C 125.636719 16.386719 125.695312 16.410156 125.738281 16.410156 C 125.878906 16.410156 126.785156 15.617188 127.324219 14.539062 C 127.882812 13.417969 128.136719 12.230469 128.136719 10.90625 Z M 128.136719 10.90625 "/>
</g>
</svg>
