<?xml version="1.0" encoding="UTF-8"?>
<svg xmlns="http://www.w3.org/2000/svg" xmlns:xlink="http://www.w3.org/1999/xlink" width="404pt" height="107pt" viewBox="0 0 404 107" version="1.1">
<defs>
<clipPath id="clip1">
  <path d="M 11.039062 10 L 101 10 L 101 99.839844 L 11.039062 99.839844 Z M 11.039062 10 "/>
</clipPath>
<clipPath id="clip2">
  <path d="M 11.039062 32 L 79 32 L 79 99.839844 L 11.039062 99.839844 Z M 11.039062 32 "/>
</clipPath>
<clipPath id="clip3">
  <path d="M 11.039062 10 L 101 10 L 101 99.839844 L 11.039062 99.839844 Z M 11.039062 10 "/>
</clipPath>
<clipPath id="clip4">
  <path d="M 30 6.238281 L 104.640625 6.238281 L 104.640625 64 L 30 64 Z M 30 6.238281 "/>
</clipPath>
<clipPath id="clip5">
  <path d="M 116.878906 86 L 287 86 L 287 87 L 116.878906 87 Z M 116.878906 86 "/>
</clipPath>
<clipPath id="clip6">
  <path d="M 285 86 L 287 86 L 287 99.839844 L 285 99.839844 Z M 285 86 "/>
</clipPath>
<clipPath id="clip7">
  <path d="M 285 86 L 287 86 L 287 99.839844 L 285 99.839844 Z M 285 86 "/>
</clipPath>
<clipPath id="clip8">
  <path d="M 116.878906 19 L 353 19 L 353 20 L 116.878906 20 Z M 116.878906 19 "/>
</clipPath>
<clipPath id="clip9">
  <path d="M 352 19 L 353 19 L 353 99.839844 L 352 99.839844 Z M 352 19 "/>
</clipPath>
<clipPath id="clip10">
  <path d="M 352 19 L 353 19 L 353 99.839844 L 352 99.839844 Z M 352 19 "/>
</clipPath>
<clipPath id="clip11">
  <path d="M 116.878906 77 L 287 77 L 287 99.839844 L 116.878906 99.839844 Z M 116.878906 77 "/>
</clipPath>
<clipPath id="clip12">
  <path d="M 284 77 L 297 77 L 297 99.839844 L 284 99.839844 Z M 284 77 "/>
</clipPath>
<clipPath id="clip13">
  <path d="M 284 77 L 297 77 L 297 99.839844 L 284 99.839844 Z M 284 77 "/>
</clipPath>
<clipPath id="clip14">
  <path d="M 116.878906 6.238281 L 347 6.238281 L 347 37 L 116.878906 37 Z M 116.878906 6.238281 "/>
</clipPath>
<clipPath id="clip15">
  <path d="M 344 6.238281 L 364 6.238281 L 364 99.839844 L 344 99.839844 Z M 344 6.238281 "/>
</clipPath>
<clipPath id="clip16">
  <path d="M 345 6.238281 L 346 6.238281 L 346 7 L 345 7 Z M 345 6.238281 "/>
</clipPath>
<clipPath id="clip17">
  <path d="M 344 6.238281 L 364 6.238281 L 364 99.839844 L 344 99.839844 Z M 344 6.238281 "/>
</clipPath>
<clipPath id="clip18">
  <path d="M 345 6.238281 L 346 6.238281 L 346 7 L 345 7 Z M 345 6.238281 "/>
</clipPath>
<clipPath id="clip19">
  <path d="M 116.878906 70 L 284 70 L 284 99.839844 L 116.878906 99.839844 Z M 116.878906 70 "/>
</clipPath>
<clipPath id="clip20">
  <path d="M 282 70 L 306 70 L 306 99.839844 L 282 99.839844 Z M 282 70 "/>
</clipPath>
<clipPath id="clip21">
  <path d="M 282 70 L 306 70 L 306 99.839844 L 282 99.839844 Z M 282 70 "/>
</clipPath>
<clipPath id="clip22">
  <path d="M 116.878906 6.238281 L 339 6.238281 L 339 53 L 116.878906 53 Z M 116.878906 6.238281 "/>
</clipPath>
<clipPath id="clip23">
  <path d="M 336 6.238281 L 374 6.238281 L 374 99.839844 L 336 99.839844 Z M 336 6.238281 "/>
</clipPath>
<clipPath id="clip24">
  <path d="M 116.878906 62 L 281 62 L 281 99.839844 L 116.878906 99.839844 Z M 116.878906 62 "/>
</clipPath>
<clipPath id="clip25">
  <path d="M 278 62 L 316 62 L 316 99.839844 L 278 99.839844 Z M 278 62 "/>
</clipPath>
<clipPath id="clip26">
  <path d="M 278 62 L 316 62 L 316 99.839844 L 278 99.839844 Z M 278 62 "/>
</clipPath>
<clipPath id="clip27">
  <path d="M 116.878906 6.238281 L 328 6.238281 L 328 70 L 116.878906 70 Z M 116.878906 6.238281 "/>
</clipPath>
<clipPath id="clip28">
  <path d="M 326 6.238281 L 385 6.238281 L 385 99.839844 L 326 99.839844 Z M 326 6.238281 "/>
</clipPath>
<clipPath id="clip29">
  <path d="M 116.878906 56 L 277 56 L 277 99.839844 L 116.878906 99.839844 Z M 116.878906 56 "/>
</clipPath>
<clipPath id="clip30">
  <path d="M 274 56 L 326 56 L 326 99.839844 L 274 99.839844 Z M 274 56 "/>
</clipPath>
<clipPath id="clip31">
  <path d="M 274 56 L 326 56 L 326 99.839844 L 274 99.839844 Z M 274 56 "/>
</clipPath>
<clipPath id="clip32">
  <path d="M 116.878906 6.238281 L 317 6.238281 L 317 88 L 116.878906 88 Z M 116.878906 6.238281 "/>
</clipPath>
<clipPath id="clip33">
  <path d="M 314 6.238281 L 392.878906 6.238281 L 392.878906 99.839844 L 314 99.839844 Z M 314 6.238281 "/>
</clipPath>
<clipPath id="clip34">
  <path d="M 116.878906 51 L 272 51 L 272 99.839844 L 116.878906 99.839844 Z M 116.878906 51 "/>
</clipPath>
<clipPath id="clip35">
  <path d="M 269 51 L 338 51 L 338 99.839844 L 269 99.839844 Z M 269 51 "/>
</clipPath>
<clipPath id="clip36">
  <path d="M 269 51 L 338 51 L 338 99.839844 L 269 99.839844 Z M 269 51 "/>
</clipPath>
<clipPath id="clip37">
  <path d="M 116.878906 6.238281 L 304 6.238281 L 304 99.839844 L 116.878906 99.839844 Z M 116.878906 6.238281 "/>
</clipPath>
<clipPath id="clip38">
  <path d="M 302 6.238281 L 392.878906 6.238281 L 392.878906 99.839844 L 302 99.839844 Z M 302 6.238281 "/>
</clipPath>
<clipPath id="clip39">
  <path d="M 116.878906 47 L 266 47 L 266 99.839844 L 116.878906 99.839844 Z M 116.878906 47 "/>
</clipPath>
<clipPath id="clip40">
  <path d="M 263 47 L 350 47 L 350 99.839844 L 263 99.839844 Z M 263 47 "/>
</clipPath>
<clipPath id="clip41">
  <path d="M 263 47 L 350 47 L 350 99.839844 L 263 99.839844 Z M 263 47 "/>
</clipPath>
<clipPath id="clip42">
  <path d="M 116.878906 6.238281 L 291 6.238281 L 291 99.839844 L 116.878906 99.839844 Z M 116.878906 6.238281 "/>
</clipPath>
<clipPath id="clip43">
  <path d="M 288 6.238281 L 392.878906 6.238281 L 392.878906 99.839844 L 288 99.839844 Z M 288 6.238281 "/>
</clipPath>
<clipPath id="clip44">
  <path d="M 116.878906 43 L 260 43 L 260 99.839844 L 116.878906 99.839844 Z M 116.878906 43 "/>
</clipPath>
<clipPath id="clip45">
  <path d="M 257 43 L 364 43 L 364 99.839844 L 257 99.839844 Z M 257 43 "/>
</clipPath>
<clipPath id="clip46">
  <path d="M 116.878906 6.238281 L 276 6.238281 L 276 99.839844 L 116.878906 99.839844 Z M 116.878906 6.238281 "/>
</clipPath>
<clipPath id="clip47">
  <path d="M 274 6.238281 L 392.878906 6.238281 L 392.878906 99.839844 L 274 99.839844 Z M 274 6.238281 "/>
</clipPath>
<clipPath id="clip48">
  <path d="M 116.878906 42 L 253 42 L 253 99.839844 L 116.878906 99.839844 Z M 116.878906 42 "/>
</clipPath>
<clipPath id="clip49">
  <path d="M 250 42 L 380 42 L 380 99.839844 L 250 99.839844 Z M 250 42 "/>
</clipPath>
<clipPath id="clip50">
  <path d="M 116.878906 6.238281 L 261 6.238281 L 261 99.839844 L 116.878906 99.839844 Z M 116.878906 6.238281 "/>
</clipPath>
<clipPath id="clip51">
  <path d="M 259 6.238281 L 392.878906 6.238281 L 392.878906 99.839844 L 259 99.839844 Z M 259 6.238281 "/>
</clipPath>
<clipPath id="clip52">
  <path d="M 116.878906 41 L 246 41 L 246 99.839844 L 116.878906 99.839844 Z M 116.878906 41 "/>
</clipPath>
<clipPath id="clip53">
  <path d="M 244 41 L 392.878906 41 L 392.878906 99.839844 L 244 99.839844 Z M 244 41 "/>
</clipPath>
<clipPath id="clip54">
  <path d="M 116.878906 6.238281 L 392.878906 6.238281 L 392.878906 99.839844 L 116.878906 99.839844 Z M 116.878906 6.238281 "/>
</clipPath>
<clipPath id="clip55">
  <path d="M 116.878906 42 L 239 42 L 239 99.839844 L 116.878906 99.839844 Z M 116.878906 42 "/>
</clipPath>
<clipPath id="clip56">
  <path d="M 237 42 L 392.878906 42 L 392.878906 99.839844 L 237 99.839844 Z M 237 42 "/>
</clipPath>
<clipPath id="clip57">
  <path d="M 116.878906 6.238281 L 231 6.238281 L 231 99.839844 L 116.878906 99.839844 Z M 116.878906 6.238281 "/>
</clipPath>
<clipPath id="clip58">
  <path d="M 228 6.238281 L 392.878906 6.238281 L 392.878906 99.839844 L 228 99.839844 Z M 228 6.238281 "/>
</clipPath>
<clipPath id="clip59">
  <path d="M 126 43 L 233 43 L 233 99.839844 L 126 99.839844 Z M 126 43 "/>
</clipPath>
<clipPath id="clip60">
  <path d="M 230 43 L 392.878906 43 L 392.878906 99.839844 L 230 99.839844 Z M 230 43 "/>
</clipPath>
<clipPath id="clip61">
  <path d="M 116.878906 6.238281 L 216 6.238281 L 216 99.839844 L 116.878906 99.839844 Z M 116.878906 6.238281 "/>
</clipPath>
<clipPath id="clip62">
  <path d="M 213 6.238281 L 392.878906 6.238281 L 392.878906 99.839844 L 213 99.839844 Z M 213 6.238281 "/>
</clipPath>
<clipPath id="clip63">
  <path d="M 140 47 L 226 47 L 226 99.839844 L 140 99.839844 Z M 140 47 "/>
</clipPath>
<clipPath id="clip64">
  <path d="M 224 47 L 392.878906 47 L 392.878906 99.839844 L 224 99.839844 Z M 224 47 "/>
</clipPath>
<clipPath id="clip65">
  <path d="M 116.878906 6.238281 L 202 6.238281 L 202 99.839844 L 116.878906 99.839844 Z M 116.878906 6.238281 "/>
</clipPath>
<clipPath id="clip66">
  <path d="M 199 6.238281 L 392.878906 6.238281 L 392.878906 99.839844 L 199 99.839844 Z M 199 6.238281 "/>
</clipPath>
<clipPath id="clip67">
  <path d="M 152 51 L 221 51 L 221 99.839844 L 152 99.839844 Z M 152 51 "/>
</clipPath>
<clipPath id="clip68">
  <path d="M 218 51 L 392.878906 51 L 392.878906 99.839844 L 218 99.839844 Z M 218 51 "/>
</clipPath>
<clipPath id="clip69">
  <path d="M 116.878906 6.238281 L 188 6.238281 L 188 99.839844 L 116.878906 99.839844 Z M 116.878906 6.238281 "/>
</clipPath>
<clipPath id="clip70">
  <path d="M 185 6.238281 L 392.878906 6.238281 L 392.878906 99.839844 L 185 99.839844 Z M 185 6.238281 "/>
</clipPath>
<clipPath id="clip71">
  <path d="M 163 56 L 216 56 L 216 99.839844 L 163 99.839844 Z M 163 56 "/>
</clipPath>
<clipPath id="clip72">
  <path d="M 213 56 L 392.878906 56 L 392.878906 99.839844 L 213 99.839844 Z M 213 56 "/>
</clipPath>
<clipPath id="clip73">
  <path d="M 116.878906 6.238281 L 176 6.238281 L 176 99.839844 L 116.878906 99.839844 Z M 116.878906 6.238281 "/>
</clipPath>
<clipPath id="clip74">
  <path d="M 173 6.238281 L 392.878906 6.238281 L 392.878906 88 L 173 88 Z M 173 6.238281 "/>
</clipPath>
<clipPath id="clip75">
  <path d="M 174 62 L 211 62 L 211 99.839844 L 174 99.839844 Z M 174 62 "/>
</clipPath>
<clipPath id="clip76">
  <path d="M 209 62 L 392.878906 62 L 392.878906 99.839844 L 209 99.839844 Z M 209 62 "/>
</clipPath>
<clipPath id="clip77">
  <path d="M 116.878906 6.238281 L 164 6.238281 L 164 99.839844 L 116.878906 99.839844 Z M 116.878906 6.238281 "/>
</clipPath>
<clipPath id="clip78">
  <path d="M 161 6.238281 L 392.878906 6.238281 L 392.878906 70 L 161 70 Z M 161 6.238281 "/>
</clipPath>
<clipPath id="clip79">
  <path d="M 184 70 L 208 70 L 208 99.839844 L 184 99.839844 Z M 184 70 "/>
</clipPath>
<clipPath id="clip80">
  <path d="M 205 70 L 392.878906 70 L 392.878906 99.839844 L 205 99.839844 Z M 205 70 "/>
</clipPath>
<clipPath id="clip81">
  <path d="M 116.878906 6.238281 L 154 6.238281 L 154 99.839844 L 116.878906 99.839844 Z M 116.878906 6.238281 "/>
</clipPath>
<clipPath id="clip82">
  <path d="M 151 6.238281 L 392.878906 6.238281 L 392.878906 53 L 151 53 Z M 151 6.238281 "/>
</clipPath>
<clipPath id="clip83">
  <path d="M 193 77 L 206 77 L 206 99.839844 L 193 99.839844 Z M 193 77 "/>
</clipPath>
<clipPath id="clip84">
  <path d="M 203 77 L 392.878906 77 L 392.878906 99.839844 L 203 99.839844 Z M 203 77 "/>
</clipPath>
<clipPath id="clip85">
  <path d="M 126 6.238281 L 145 6.238281 L 145 99.839844 L 126 99.839844 Z M 126 6.238281 "/>
</clipPath>
<clipPath id="clip86">
  <path d="M 143 6.238281 L 144 6.238281 L 144 7 L 143 7 Z M 143 6.238281 "/>
</clipPath>
<clipPath id="clip87">
  <path d="M 143 6.238281 L 392.878906 6.238281 L 392.878906 37 L 143 37 Z M 143 6.238281 "/>
</clipPath>
<clipPath id="clip88">
  <path d="M 203 86 L 205 86 L 205 99.839844 L 203 99.839844 Z M 203 86 "/>
</clipPath>
<clipPath id="clip89">
  <path d="M 203 86 L 392.878906 86 L 392.878906 87 L 203 87 Z M 203 86 "/>
</clipPath>
<clipPath id="clip90">
  <path d="M 136 19 L 138 19 L 138 99.839844 L 136 99.839844 Z M 136 19 "/>
</clipPath>
<clipPath id="clip91">
  <path d="M 136 19 L 392.878906 19 L 392.878906 20 L 136 20 Z M 136 19 "/>
</clipPath>
<clipPath id="clip92">
  <path d="M 116.878906 85 L 392.878906 85 L 392.878906 88 L 116.878906 88 Z M 116.878906 85 "/>
</clipPath>
<clipPath id="clip93">
  <path d="M 116.878906 19 L 392.878906 19 L 392.878906 21 L 116.878906 21 Z M 116.878906 19 "/>
</clipPath>
</defs>
<g id="surface67">
<g clip-path="url(#clip1)" clip-rule="nonzero">
<path style=" stroke:none;fill-rule:nonzero;fill:rgb(74.999619%,74.999619%,74.999619%);fill-opacity:1;" d="M -11.171875 33.203125 L 77.949219 33.203125 L 77.949219 122.324219 L 100.230469 122.324219 L 100.230469 10.921875 L -11.171875 10.921875 Z M -11.171875 33.203125 "/>
</g>
<g clip-path="url(#clip2)" clip-rule="nonzero">
<path style="fill:none;stroke-width:1;stroke-linecap:square;stroke-linejoin:miter;stroke:rgb(0%,0%,0%);stroke-opacity:1;stroke-miterlimit:3.25;" d="M -11.171875 33.203125 L 77.949219 33.203125 L 77.949219 122.324219 "/>
</g>
<g clip-path="url(#clip3)" clip-rule="nonzero">
<path style="fill:none;stroke-width:1;stroke-linecap:square;stroke-linejoin:miter;stroke:rgb(0%,0%,0%);stroke-opacity:1;stroke-miterlimit:3.25;" d="M -11.171875 10.921875 L 100.230469 10.921875 L 100.230469 122.324219 "/>
</g>
<path style=" stroke:none;fill-rule:nonzero;fill:rgb(100%,100%,86.999313%);fill-opacity:1;" d="M 78.160156 46.769531 L 78.464844 46.035156 L 78.734375 45.296875 L 78.96875 44.550781 L 79.167969 43.804688 L 79.332031 43.054688 L 79.460938 42.304688 L 79.550781 41.554688 L 79.605469 40.808594 L 79.625 40.0625 L 79.609375 39.328125 L 79.558594 38.597656 L 79.472656 37.875 L 79.355469 37.164062 L 79.199219 36.464844 L 79.015625 35.777344 L 78.792969 35.105469 L 78.542969 34.449219 L 78.257812 33.808594 L 77.941406 33.1875 L 77.597656 32.585938 L 77.222656 32.007812 L 76.820312 31.449219 L 76.390625 30.917969 L 75.933594 30.40625 L 75.453125 29.925781 L 74.945312 29.46875 L 74.417969 29.046875 L 73.867188 28.652344 L 73.296875 28.289062 L 72.703125 27.960938 L 72.097656 27.664062 L 71.472656 27.402344 L 70.832031 27.175781 L 70.175781 26.984375 L 69.511719 26.824219 L 68.839844 26.703125 L 68.160156 26.617188 L 67.472656 26.566406 L 66.78125 26.550781 L 66.085938 26.574219 L 65.390625 26.628906 L 64.695312 26.722656 L 64 26.851562 L 63.3125 27.015625 L 62.625 27.21875 L 61.945312 27.453125 L 61.273438 27.722656 L 60.613281 28.027344 L 59.960938 28.367188 L 59.320312 28.742188 L 58.695312 29.148438 L 58.085938 29.585938 L 57.488281 30.058594 L 56.914062 30.558594 L 56.355469 31.089844 L 55.820312 31.652344 L 55.300781 32.242188 L 54.808594 32.863281 L 54.589844 33.160156 L 54.542969 33.164062 L 54.496094 33.171875 L 54.449219 33.175781 L 54.394531 33.183594 L 54.34375 33.1875 L 54.226562 33.195312 L 54.164062 33.199219 L 54.101562 33.199219 L 54.03125 33.203125 L 53.890625 33.203125 L 53.742188 33.195312 L 53.664062 33.191406 L 53.582031 33.1875 L 53.496094 33.179688 L 53.410156 33.167969 L 53.324219 33.160156 L 53.234375 33.148438 L 53.046875 33.117188 L 52.949219 33.101562 L 52.746094 33.0625 L 52.644531 33.039062 L 52.433594 32.984375 L 52.324219 32.957031 L 52.210938 32.921875 L 52.097656 32.890625 L 51.984375 32.851562 L 51.867188 32.8125 L 51.75 32.769531 L 51.628906 32.726562 L 51.507812 32.679688 L 51.257812 32.578125 L 51.132812 32.523438 L 51.003906 32.464844 L 50.746094 32.339844 L 50.613281 32.273438 L 50.472656 32.195312 L 50.328125 32.117188 L 34.621094 23.050781 L 34.820312 22.738281 L 35.257812 22.082031 L 35.707031 21.445312 L 36.164062 20.828125 L 36.636719 20.226562 L 37.113281 19.644531 L 37.605469 19.082031 L 38.101562 18.539062 L 38.605469 18.015625 L 39.113281 17.511719 L 39.628906 17.027344 L 40.152344 16.5625 L 40.675781 16.117188 L 41.203125 15.695312 L 41.734375 15.289062 L 42.265625 14.90625 L 42.796875 14.539062 L 43.328125 14.195312 L 43.859375 13.871094 L 44.390625 13.5625 L 44.917969 13.277344 L 45.441406 13.007812 L 45.960938 12.757812 L 46.476562 12.527344 L 46.984375 12.316406 L 47.488281 12.121094 L 47.984375 11.941406 L 48.46875 11.78125 L 48.945312 11.636719 L 49.410156 11.507812 L 49.863281 11.398438 L 50.304688 11.296875 L 50.734375 11.214844 L 51.164062 11.144531 L 51.648438 11.074219 L 52.128906 11.019531 L 52.601562 10.976562 L 53.066406 10.945312 L 53.527344 10.929688 L 53.980469 10.921875 L 54.425781 10.925781 L 54.863281 10.945312 L 55.292969 10.972656 L 55.714844 11.007812 L 56.128906 11.054688 L 56.535156 11.113281 L 56.929688 11.179688 L 57.316406 11.253906 L 57.695312 11.335938 L 58.066406 11.429688 L 58.425781 11.527344 L 58.773438 11.632812 L 59.113281 11.746094 L 59.445312 11.863281 L 59.765625 11.988281 L 60.078125 12.117188 L 60.378906 12.25 L 60.667969 12.390625 L 60.949219 12.535156 L 92.46875 30.722656 L 92.714844 30.867188 L 92.964844 31.027344 L 93.230469 31.203125 L 93.496094 31.390625 L 93.761719 31.585938 L 94.03125 31.796875 L 94.300781 32.019531 L 94.566406 32.25 L 94.832031 32.496094 L 95.101562 32.75 L 95.363281 33.019531 L 95.625 33.296875 L 95.886719 33.589844 L 96.144531 33.894531 L 96.398438 34.210938 L 96.648438 34.539062 L 96.894531 34.878906 L 97.136719 35.230469 L 97.371094 35.59375 L 97.601562 35.972656 L 97.828125 36.359375 L 98.042969 36.761719 L 98.253906 37.171875 L 98.460938 37.597656 L 98.65625 38.035156 L 98.84375 38.480469 L 99.011719 38.917969 L 99.15625 39.324219 L 99.296875 39.746094 L 99.429688 40.1875 L 99.558594 40.644531 L 99.675781 41.117188 L 99.785156 41.609375 L 99.882812 42.117188 L 99.96875 42.644531 L 100.046875 43.183594 L 100.109375 43.738281 L 100.164062 44.304688 L 100.199219 44.886719 L 100.222656 45.480469 L 100.230469 46.085938 L 100.222656 46.703125 L 100.199219 47.328125 L 100.160156 47.96875 L 100.101562 48.617188 L 100.027344 49.273438 L 99.933594 49.9375 L 99.820312 50.609375 L 99.6875 51.289062 L 99.539062 51.976562 L 99.367188 52.667969 L 99.175781 53.363281 L 98.964844 54.0625 L 98.734375 54.765625 L 98.480469 55.472656 L 98.207031 56.179688 L 97.914062 56.886719 L 97.59375 57.59375 L 97.257812 58.300781 L 96.898438 59.003906 L 81.328125 50.015625 L 81.21875 49.953125 L 81.109375 49.886719 L 81.003906 49.820312 L 80.902344 49.757812 L 80.714844 49.632812 L 80.625 49.574219 L 80.445312 49.449219 L 80.359375 49.386719 L 80.195312 49.261719 L 79.960938 49.074219 L 79.886719 49.007812 L 79.816406 48.945312 L 79.742188 48.886719 L 79.476562 48.636719 L 79.417969 48.574219 L 79.355469 48.515625 L 79.296875 48.453125 L 79.242188 48.394531 L 79.183594 48.335938 L 79.132812 48.273438 L 79.078125 48.214844 L 79.027344 48.15625 L 78.980469 48.101562 L 78.886719 47.984375 L 78.757812 47.820312 L 78.679688 47.710938 L 78.609375 47.609375 L 78.574219 47.554688 L 78.542969 47.507812 L 78.511719 47.457031 L 78.480469 47.410156 L 78.453125 47.359375 L 78.425781 47.3125 L 78.398438 47.269531 L 78.375 47.222656 L 78.304688 47.09375 L 78.265625 47.015625 L 78.25 46.976562 L 78.230469 46.9375 L 78.199219 46.867188 L 78.1875 46.832031 L 78.171875 46.800781 Z M 78.160156 46.769531 "/>
<g clip-path="url(#clip4)" clip-rule="nonzero">
<path style="fill:none;stroke-width:1;stroke-linecap:square;stroke-linejoin:miter;stroke:rgb(0%,0%,0%);stroke-opacity:1;stroke-miterlimit:3.25;" d="M 78.160156 46.769531 L 78.464844 46.035156 L 78.734375 45.296875 L 78.96875 44.550781 L 79.167969 43.804688 L 79.332031 43.054688 L 79.460938 42.304688 L 79.550781 41.554688 L 79.605469 40.808594 L 79.625 40.0625 L 79.609375 39.328125 L 79.558594 38.597656 L 79.472656 37.875 L 79.355469 37.164062 L 79.199219 36.464844 L 79.015625 35.777344 L 78.792969 35.105469 L 78.542969 34.449219 L 78.257812 33.808594 L 77.941406 33.1875 L 77.597656 32.585938 L 77.222656 32.007812 L 76.820312 31.449219 L 76.390625 30.917969 L 75.933594 30.40625 L 75.453125 29.925781 L 74.945312 29.46875 L 74.417969 29.046875 L 73.867188 28.652344 L 73.296875 28.289062 L 72.703125 27.960938 L 72.097656 27.664062 L 71.472656 27.402344 L 70.832031 27.175781 L 70.175781 26.984375 L 69.511719 26.824219 L 68.839844 26.703125 L 68.160156 26.617188 L 67.472656 26.566406 L 66.78125 26.550781 L 66.085938 26.574219 L 65.390625 26.628906 L 64.695312 26.722656 L 64 26.851562 L 63.3125 27.015625 L 62.625 27.21875 L 61.945312 27.453125 L 61.273438 27.722656 L 60.613281 28.027344 L 59.960938 28.367188 L 59.320312 28.742188 L 58.695312 29.148438 L 58.085938 29.585938 L 57.488281 30.058594 L 56.914062 30.558594 L 56.355469 31.089844 L 55.820312 31.652344 L 55.300781 32.242188 L 54.808594 32.863281 L 54.589844 33.160156 L 54.542969 33.164062 L 54.496094 33.171875 L 54.449219 33.175781 L 54.394531 33.183594 L 54.34375 33.1875 L 54.226562 33.195312 L 54.164062 33.199219 L 54.101562 33.199219 L 54.03125 33.203125 L 53.890625 33.203125 L 53.742188 33.195312 L 53.664062 33.191406 L 53.582031 33.1875 L 53.496094 33.179688 L 53.410156 33.167969 L 53.324219 33.160156 L 53.234375 33.148438 L 53.046875 33.117188 L 52.949219 33.101562 L 52.746094 33.0625 L 52.644531 33.039062 L 52.433594 32.984375 L 52.324219 32.957031 L 52.210938 32.921875 L 52.097656 32.890625 L 51.984375 32.851562 L 51.867188 32.8125 L 51.75 32.769531 L 51.628906 32.726562 L 51.507812 32.679688 L 51.257812 32.578125 L 51.132812 32.523438 L 51.003906 32.464844 L 50.746094 32.339844 L 50.613281 32.273438 L 50.472656 32.195312 L 50.328125 32.117188 L 34.621094 23.050781 L 34.820312 22.738281 L 35.257812 22.082031 L 35.707031 21.445312 L 36.164062 20.828125 L 36.636719 20.226562 L 37.113281 19.644531 L 37.605469 19.082031 L 38.101562 18.539062 L 38.605469 18.015625 L 39.113281 17.511719 L 39.628906 17.027344 L 40.152344 16.5625 L 40.675781 16.117188 L 41.203125 15.695312 L 41.734375 15.289062 L 42.265625 14.90625 L 42.796875 14.539062 L 43.328125 14.195312 L 43.859375 13.871094 L 44.390625 13.5625 L 44.917969 13.277344 L 45.441406 13.007812 L 45.960938 12.757812 L 46.476562 12.527344 L 46.984375 12.316406 L 47.488281 12.121094 L 47.984375 11.941406 L 48.46875 11.78125 L 48.945312 11.636719 L 49.410156 11.507812 L 49.863281 11.398438 L 50.304688 11.296875 L 50.734375 11.214844 L 51.164062 11.144531 L 51.648438 11.074219 L 52.128906 11.019531 L 52.601562 10.976562 L 53.066406 10.945312 L 53.527344 10.929688 L 53.980469 10.921875 L 54.425781 10.925781 L 54.863281 10.945312 L 55.292969 10.972656 L 55.714844 11.007812 L 56.128906 11.054688 L 56.535156 11.113281 L 56.929688 11.179688 L 57.316406 11.253906 L 57.695312 11.335938 L 58.066406 11.429688 L 58.425781 11.527344 L 58.773438 11.632812 L 59.113281 11.746094 L 59.445312 11.863281 L 59.765625 11.988281 L 60.078125 12.117188 L 60.378906 12.25 L 60.667969 12.390625 L 60.949219 12.535156 L 92.46875 30.722656 L 92.714844 30.867188 L 92.964844 31.027344 L 93.230469 31.203125 L 93.496094 31.390625 L 93.761719 31.585938 L 94.03125 31.796875 L 94.300781 32.019531 L 94.566406 32.25 L 94.832031 32.496094 L 95.101562 32.75 L 95.363281 33.019531 L 95.625 33.296875 L 95.886719 33.589844 L 96.144531 33.894531 L 96.398438 34.210938 L 96.648438 34.539062 L 96.894531 34.878906 L 97.136719 35.230469 L 97.371094 35.59375 L 97.601562 35.972656 L 97.828125 36.359375 L 98.042969 36.761719 L 98.253906 37.171875 L 98.460938 37.597656 L 98.65625 38.035156 L 98.84375 38.480469 L 99.011719 38.917969 L 99.15625 39.324219 L 99.296875 39.746094 L 99.429688 40.1875 L 99.558594 40.644531 L 99.675781 41.117188 L 99.785156 41.609375 L 99.882812 42.117188 L 99.96875 42.644531 L 100.046875 43.183594 L 100.109375 43.738281 L 100.164062 44.304688 L 100.199219 44.886719 L 100.222656 45.480469 L 100.230469 46.085938 L 100.222656 46.703125 L 100.199219 47.328125 L 100.160156 47.96875 L 100.101562 48.617188 L 100.027344 49.273438 L 99.933594 49.9375 L 99.820312 50.609375 L 99.6875 51.289062 L 99.539062 51.976562 L 99.367188 52.667969 L 99.175781 53.363281 L 98.964844 54.0625 L 98.734375 54.765625 L 98.480469 55.472656 L 98.207031 56.179688 L 97.914062 56.886719 L 97.59375 57.59375 L 97.257812 58.300781 L 96.898438 59.003906 L 81.328125 50.015625 L 81.21875 49.953125 L 81.109375 49.886719 L 81.003906 49.820312 L 80.902344 49.757812 L 80.714844 49.632812 L 80.625 49.574219 L 80.445312 49.449219 L 80.359375 49.386719 L 80.195312 49.261719 L 79.960938 49.074219 L 79.886719 49.007812 L 79.816406 48.945312 L 79.742188 48.886719 L 79.476562 48.636719 L 79.417969 48.574219 L 79.355469 48.515625 L 79.296875 48.453125 L 79.242188 48.394531 L 79.183594 48.335938 L 79.132812 48.273438 L 79.078125 48.214844 L 79.027344 48.15625 L 78.980469 48.101562 L 78.886719 47.984375 L 78.757812 47.820312 L 78.679688 47.710938 L 78.609375 47.609375 L 78.574219 47.554688 L 78.542969 47.507812 L 78.511719 47.457031 L 78.480469 47.410156 L 78.453125 47.359375 L 78.425781 47.3125 L 78.398438 47.269531 L 78.375 47.222656 L 78.304688 47.09375 L 78.265625 47.015625 L 78.25 46.976562 L 78.230469 46.9375 L 78.199219 46.867188 L 78.1875 46.832031 L 78.171875 46.800781 Z M 78.160156 46.769531 "/>
</g>
<g clip-path="url(#clip5)" clip-rule="nonzero">
<path style="fill:none;stroke-width:0.2;stroke-linecap:square;stroke-linejoin:miter;stroke:rgb(85.000381%,85.000381%,85.000381%);stroke-opacity:1;stroke-miterlimit:3.25;" d="M 18.582031 86.675781 L 285.945312 86.675781 "/>
</g>
<g clip-path="url(#clip6)" clip-rule="nonzero">
<path style="fill:none;stroke-width:0.2;stroke-linecap:square;stroke-linejoin:miter;stroke:rgb(85.000381%,85.000381%,85.000381%);stroke-opacity:1;stroke-miterlimit:3.25;" d="M 285.945312 193.417969 L 285.945312 86.675781 "/>
</g>
<path style=" stroke:none;fill-rule:nonzero;fill:rgb(85.000381%,85.000381%,85.000381%);fill-opacity:1;" d="M 285.945312 86.675781 L 286.042969 86.773438 L 286.042969 86.574219 L 285.945312 86.574219 Z M 285.945312 86.675781 "/>
<g clip-path="url(#clip7)" clip-rule="nonzero">
<path style="fill:none;stroke-width:0.2;stroke-linecap:square;stroke-linejoin:miter;stroke:rgb(85.000381%,85.000381%,85.000381%);stroke-opacity:1;stroke-miterlimit:3.25;" d="M 285.945312 193.417969 L 285.945312 86.675781 "/>
</g>
<path style=" stroke:none;fill-rule:nonzero;fill:rgb(85.000381%,85.000381%,85.000381%);fill-opacity:1;" d="M 285.945312 86.675781 L 286.042969 86.773438 L 286.042969 86.574219 L 285.945312 86.574219 Z M 285.945312 86.675781 "/>
<g clip-path="url(#clip8)" clip-rule="nonzero">
<path style="fill:none;stroke-width:0.2;stroke-linecap:square;stroke-linejoin:miter;stroke:rgb(85.000381%,85.000381%,85.000381%);stroke-opacity:1;stroke-miterlimit:3.25;" d="M 18.582031 19.835938 L 352.785156 19.835938 "/>
</g>
<g clip-path="url(#clip9)" clip-rule="nonzero">
<path style="fill:none;stroke-width:0.2;stroke-linecap:square;stroke-linejoin:miter;stroke:rgb(85.000381%,85.000381%,85.000381%);stroke-opacity:1;stroke-miterlimit:3.25;" d="M 352.785156 193.417969 L 352.785156 19.835938 "/>
</g>
<path style=" stroke:none;fill-rule:nonzero;fill:rgb(85.000381%,85.000381%,85.000381%);fill-opacity:1;" d="M 352.785156 19.835938 L 352.886719 19.933594 L 352.886719 19.734375 L 352.785156 19.734375 Z M 352.785156 19.835938 "/>
<g clip-path="url(#clip10)" clip-rule="nonzero">
<path style="fill:none;stroke-width:0.2;stroke-linecap:square;stroke-linejoin:miter;stroke:rgb(85.000381%,85.000381%,85.000381%);stroke-opacity:1;stroke-miterlimit:3.25;" d="M 352.785156 193.417969 L 352.785156 19.835938 "/>
</g>
<path style=" stroke:none;fill-rule:nonzero;fill:rgb(85.000381%,85.000381%,85.000381%);fill-opacity:1;" d="M 352.785156 19.835938 L 352.886719 19.933594 L 352.886719 19.734375 L 352.785156 19.734375 Z M 352.785156 19.835938 "/>
<g clip-path="url(#clip11)" clip-rule="nonzero">
<path style="fill:none;stroke-width:0.2;stroke-linecap:square;stroke-linejoin:miter;stroke:rgb(85.000381%,85.000381%,85.000381%);stroke-opacity:1;stroke-miterlimit:3.25;" d="M 18.742188 101.867188 L 285.089844 78.566406 "/>
</g>
<g clip-path="url(#clip12)" clip-rule="nonzero">
<path style="fill:none;stroke-width:0.2;stroke-linecap:square;stroke-linejoin:miter;stroke:rgb(85.000381%,85.000381%,85.000381%);stroke-opacity:1;stroke-miterlimit:3.25;" d="M 295.136719 193.417969 L 285.089844 78.566406 "/>
</g>
<path style=" stroke:none;fill-rule:nonzero;fill:rgb(85.000381%,85.000381%,85.000381%);fill-opacity:1;" d="M 285.089844 78.566406 L 285.1875 78.664062 L 285.179688 78.457031 L 285.078125 78.464844 Z M 285.089844 78.566406 "/>
<g clip-path="url(#clip13)" clip-rule="nonzero">
<path style="fill:none;stroke-width:0.2;stroke-linecap:square;stroke-linejoin:miter;stroke:rgb(85.000381%,85.000381%,85.000381%);stroke-opacity:1;stroke-miterlimit:3.25;" d="M 295.136719 193.417969 L 285.089844 78.566406 "/>
</g>
<path style=" stroke:none;fill-rule:nonzero;fill:rgb(85.000381%,85.000381%,85.000381%);fill-opacity:1;" d="M 285.089844 78.566406 L 285.1875 78.664062 L 285.179688 78.457031 L 285.078125 78.464844 Z M 285.089844 78.566406 "/>
<g clip-path="url(#clip14)" clip-rule="nonzero">
<path style="fill:none;stroke-width:0.2;stroke-linecap:square;stroke-linejoin:miter;stroke:rgb(85.000381%,85.000381%,85.000381%);stroke-opacity:1;stroke-miterlimit:3.25;" d="M 12.914062 35.28125 L 345.847656 6.152344 "/>
</g>
<g clip-path="url(#clip15)" clip-rule="nonzero">
<path style="fill:none;stroke-width:0.2;stroke-linecap:square;stroke-linejoin:miter;stroke:rgb(85.000381%,85.000381%,85.000381%);stroke-opacity:1;stroke-miterlimit:3.25;" d="M 362.234375 193.417969 L 345.847656 6.152344 "/>
</g>
<g clip-path="url(#clip16)" clip-rule="nonzero">
<path style=" stroke:none;fill-rule:nonzero;fill:rgb(85.000381%,85.000381%,85.000381%);fill-opacity:1;" d="M 345.847656 6.152344 L 345.949219 6.253906 L 345.941406 6.046875 L 345.839844 6.054688 Z M 345.847656 6.152344 "/>
</g>
<g clip-path="url(#clip17)" clip-rule="nonzero">
<path style="fill:none;stroke-width:0.2;stroke-linecap:square;stroke-linejoin:miter;stroke:rgb(85.000381%,85.000381%,85.000381%);stroke-opacity:1;stroke-miterlimit:3.25;" d="M 362.234375 193.417969 L 345.847656 6.152344 "/>
</g>
<g clip-path="url(#clip18)" clip-rule="nonzero">
<path style=" stroke:none;fill-rule:nonzero;fill:rgb(85.000381%,85.000381%,85.000381%);fill-opacity:1;" d="M 345.847656 6.152344 L 345.949219 6.253906 L 345.941406 6.046875 L 345.839844 6.054688 Z M 345.847656 6.152344 "/>
</g>
<g clip-path="url(#clip19)" clip-rule="nonzero">
<path style="fill:none;stroke-width:0.2;stroke-linecap:square;stroke-linejoin:miter;stroke:rgb(85.000381%,85.000381%,85.000381%);stroke-opacity:1;stroke-miterlimit:3.25;" d="M 19.6875 117.351562 L 282.988281 70.925781 "/>
</g>
<g clip-path="url(#clip20)" clip-rule="nonzero">
<path style="fill:none;stroke-width:0.2;stroke-linecap:square;stroke-linejoin:miter;stroke:rgb(85.000381%,85.000381%,85.000381%);stroke-opacity:1;stroke-miterlimit:3.25;" d="M 304.589844 193.417969 L 282.988281 70.925781 "/>
</g>
<path style=" stroke:none;fill-rule:nonzero;fill:rgb(85.000381%,85.000381%,85.000381%);fill-opacity:1;" d="M 282.988281 70.925781 L 283.085938 71.023438 L 283.070312 70.808594 L 282.972656 70.828125 Z M 282.988281 70.925781 "/>
<g clip-path="url(#clip21)" clip-rule="nonzero">
<path style="fill:none;stroke-width:0.2;stroke-linecap:square;stroke-linejoin:miter;stroke:rgb(85.000381%,85.000381%,85.000381%);stroke-opacity:1;stroke-miterlimit:3.25;" d="M 304.589844 193.417969 L 282.988281 70.925781 "/>
</g>
<path style=" stroke:none;fill-rule:nonzero;fill:rgb(85.000381%,85.000381%,85.000381%);fill-opacity:1;" d="M 282.988281 70.925781 L 283.085938 71.023438 L 283.070312 70.808594 L 282.972656 70.828125 Z M 282.988281 70.925781 "/>
<g clip-path="url(#clip22)" clip-rule="nonzero">
<path style="fill:none;stroke-width:0.2;stroke-linecap:square;stroke-linejoin:miter;stroke:rgb(85.000381%,85.000381%,85.000381%);stroke-opacity:1;stroke-miterlimit:3.25;" d="M 8.082031 51.527344 L 337.207031 -6.507812 "/>
</g>
<g clip-path="url(#clip23)" clip-rule="nonzero">
<path style="fill:none;stroke-width:0.2;stroke-linecap:square;stroke-linejoin:miter;stroke:rgb(85.000381%,85.000381%,85.000381%);stroke-opacity:1;stroke-miterlimit:3.25;" d="M 372.460938 193.417969 L 337.207031 -6.507812 "/>
<path style="fill:none;stroke-width:0.2;stroke-linecap:square;stroke-linejoin:miter;stroke:rgb(85.000381%,85.000381%,85.000381%);stroke-opacity:1;stroke-miterlimit:3.25;" d="M 372.460938 193.417969 L 337.207031 -6.507812 "/>
</g>
<g clip-path="url(#clip24)" clip-rule="nonzero">
<path style="fill:none;stroke-width:0.2;stroke-linecap:square;stroke-linejoin:miter;stroke:rgb(85.000381%,85.000381%,85.000381%);stroke-opacity:1;stroke-miterlimit:3.25;" d="M 21.550781 133.109375 L 279.804688 63.910156 "/>
</g>
<g clip-path="url(#clip25)" clip-rule="nonzero">
<path style="fill:none;stroke-width:0.2;stroke-linecap:square;stroke-linejoin:miter;stroke:rgb(85.000381%,85.000381%,85.000381%);stroke-opacity:1;stroke-miterlimit:3.25;" d="M 314.503906 193.417969 L 279.804688 63.910156 "/>
</g>
<path style=" stroke:none;fill-rule:nonzero;fill:rgb(85.000381%,85.000381%,85.000381%);fill-opacity:1;" d="M 279.804688 63.910156 L 279.902344 64.007812 L 279.875 63.789062 L 279.777344 63.816406 Z M 279.804688 63.910156 "/>
<g clip-path="url(#clip26)" clip-rule="nonzero">
<path style="fill:none;stroke-width:0.2;stroke-linecap:square;stroke-linejoin:miter;stroke:rgb(85.000381%,85.000381%,85.000381%);stroke-opacity:1;stroke-miterlimit:3.25;" d="M 314.503906 193.417969 L 279.804688 63.910156 "/>
</g>
<path style=" stroke:none;fill-rule:nonzero;fill:rgb(85.000381%,85.000381%,85.000381%);fill-opacity:1;" d="M 279.804688 63.910156 L 279.902344 64.007812 L 279.875 63.789062 L 279.777344 63.816406 Z M 279.804688 63.910156 "/>
<g clip-path="url(#clip27)" clip-rule="nonzero">
<path style="fill:none;stroke-width:0.2;stroke-linecap:square;stroke-linejoin:miter;stroke:rgb(85.000381%,85.000381%,85.000381%);stroke-opacity:1;stroke-miterlimit:3.25;" d="M 4.25 68.546875 L 327.066406 -17.953125 "/>
</g>
<g clip-path="url(#clip28)" clip-rule="nonzero">
<path style="fill:none;stroke-width:0.2;stroke-linecap:square;stroke-linejoin:miter;stroke:rgb(85.000381%,85.000381%,85.000381%);stroke-opacity:1;stroke-miterlimit:3.25;" d="M 383.703125 193.417969 L 327.066406 -17.953125 "/>
<path style="fill:none;stroke-width:0.2;stroke-linecap:square;stroke-linejoin:miter;stroke:rgb(85.000381%,85.000381%,85.000381%);stroke-opacity:1;stroke-miterlimit:3.25;" d="M 383.703125 193.417969 L 327.066406 -17.953125 "/>
</g>
<g clip-path="url(#clip29)" clip-rule="nonzero">
<path style="fill:none;stroke-width:0.2;stroke-linecap:square;stroke-linejoin:miter;stroke:rgb(85.000381%,85.000381%,85.000381%);stroke-opacity:1;stroke-miterlimit:3.25;" d="M 24.394531 149.121094 L 275.636719 57.675781 "/>
</g>
<g clip-path="url(#clip30)" clip-rule="nonzero">
<path style="fill:none;stroke-width:0.2;stroke-linecap:square;stroke-linejoin:miter;stroke:rgb(85.000381%,85.000381%,85.000381%);stroke-opacity:1;stroke-miterlimit:3.25;" d="M 325.042969 193.417969 L 275.636719 57.675781 "/>
</g>
<path style=" stroke:none;fill-rule:nonzero;fill:rgb(85.000381%,85.000381%,85.000381%);fill-opacity:1;" d="M 275.636719 57.675781 L 275.730469 57.769531 L 275.695312 57.546875 L 275.601562 57.582031 Z M 275.636719 57.675781 "/>
<g clip-path="url(#clip31)" clip-rule="nonzero">
<path style="fill:none;stroke-width:0.2;stroke-linecap:square;stroke-linejoin:miter;stroke:rgb(85.000381%,85.000381%,85.000381%);stroke-opacity:1;stroke-miterlimit:3.25;" d="M 325.042969 193.417969 L 275.636719 57.675781 "/>
</g>
<path style=" stroke:none;fill-rule:nonzero;fill:rgb(85.000381%,85.000381%,85.000381%);fill-opacity:1;" d="M 275.636719 57.675781 L 275.730469 57.769531 L 275.695312 57.546875 L 275.601562 57.582031 Z M 275.636719 57.675781 "/>
<g clip-path="url(#clip32)" clip-rule="nonzero">
<path style="fill:none;stroke-width:0.2;stroke-linecap:square;stroke-linejoin:miter;stroke:rgb(85.000381%,85.000381%,85.000381%);stroke-opacity:1;stroke-miterlimit:3.25;" d="M 1.535156 86.308594 L 315.585938 -27.996094 "/>
</g>
<g clip-path="url(#clip33)" clip-rule="nonzero">
<path style="fill:none;stroke-width:0.2;stroke-linecap:square;stroke-linejoin:miter;stroke:rgb(85.000381%,85.000381%,85.000381%);stroke-opacity:1;stroke-miterlimit:3.25;" d="M 396.171875 193.417969 L 315.585938 -27.996094 "/>
<path style="fill:none;stroke-width:0.2;stroke-linecap:square;stroke-linejoin:miter;stroke:rgb(85.000381%,85.000381%,85.000381%);stroke-opacity:1;stroke-miterlimit:3.25;" d="M 396.171875 193.417969 L 315.585938 -27.996094 "/>
</g>
<g clip-path="url(#clip34)" clip-rule="nonzero">
<path style="fill:none;stroke-width:0.2;stroke-linecap:square;stroke-linejoin:miter;stroke:rgb(85.000381%,85.000381%,85.000381%);stroke-opacity:1;stroke-miterlimit:3.25;" d="M 28.292969 165.34375 L 270.605469 52.351562 "/>
</g>
<g clip-path="url(#clip35)" clip-rule="nonzero">
<path style="fill:none;stroke-width:0.2;stroke-linecap:square;stroke-linejoin:miter;stroke:rgb(85.000381%,85.000381%,85.000381%);stroke-opacity:1;stroke-miterlimit:3.25;" d="M 336.386719 193.417969 L 270.605469 52.351562 "/>
</g>
<path style=" stroke:none;fill-rule:nonzero;fill:rgb(85.000381%,85.000381%,85.000381%);fill-opacity:1;" d="M 270.605469 52.351562 L 270.695312 52.441406 L 270.652344 52.21875 L 270.5625 52.261719 Z M 270.605469 52.351562 "/>
<g clip-path="url(#clip36)" clip-rule="nonzero">
<path style="fill:none;stroke-width:0.2;stroke-linecap:square;stroke-linejoin:miter;stroke:rgb(85.000381%,85.000381%,85.000381%);stroke-opacity:1;stroke-miterlimit:3.25;" d="M 336.386719 193.417969 L 270.605469 52.351562 "/>
</g>
<path style=" stroke:none;fill-rule:nonzero;fill:rgb(85.000381%,85.000381%,85.000381%);fill-opacity:1;" d="M 270.605469 52.351562 L 270.695312 52.441406 L 270.652344 52.21875 L 270.5625 52.261719 Z M 270.605469 52.351562 "/>
<g clip-path="url(#clip37)" clip-rule="nonzero">
<path style="fill:none;stroke-width:0.2;stroke-linecap:square;stroke-linejoin:miter;stroke:rgb(85.000381%,85.000381%,85.000381%);stroke-opacity:1;stroke-miterlimit:3.25;" d="M 0.0429688 104.765625 L 302.933594 -36.476562 "/>
</g>
<g clip-path="url(#clip38)" clip-rule="nonzero">
<path style="fill:none;stroke-width:0.2;stroke-linecap:square;stroke-linejoin:miter;stroke:rgb(85.000381%,85.000381%,85.000381%);stroke-opacity:1;stroke-miterlimit:3.25;" d="M 410.136719 193.417969 L 302.933594 -36.476562 "/>
<path style="fill:none;stroke-width:0.2;stroke-linecap:square;stroke-linejoin:miter;stroke:rgb(85.000381%,85.000381%,85.000381%);stroke-opacity:1;stroke-miterlimit:3.25;" d="M 410.136719 193.417969 L 302.933594 -36.476562 "/>
</g>
<g clip-path="url(#clip39)" clip-rule="nonzero">
<path style="fill:none;stroke-width:0.2;stroke-linecap:square;stroke-linejoin:miter;stroke:rgb(85.000381%,85.000381%,85.000381%);stroke-opacity:1;stroke-miterlimit:3.25;" d="M 33.308594 181.738281 L 264.855469 48.054688 "/>
</g>
<g clip-path="url(#clip40)" clip-rule="nonzero">
<path style="fill:none;stroke-width:0.2;stroke-linecap:square;stroke-linejoin:miter;stroke:rgb(85.000381%,85.000381%,85.000381%);stroke-opacity:1;stroke-miterlimit:3.25;" d="M 348.777344 193.417969 L 264.855469 48.054688 "/>
</g>
<path style=" stroke:none;fill-rule:nonzero;fill:rgb(85.000381%,85.000381%,85.000381%);fill-opacity:1;" d="M 264.855469 48.054688 L 264.941406 48.144531 L 264.890625 47.917969 L 264.804688 47.96875 Z M 264.855469 48.054688 "/>
<g clip-path="url(#clip41)" clip-rule="nonzero">
<path style="fill:none;stroke-width:0.2;stroke-linecap:square;stroke-linejoin:miter;stroke:rgb(85.000381%,85.000381%,85.000381%);stroke-opacity:1;stroke-miterlimit:3.25;" d="M 348.777344 193.417969 L 264.855469 48.054688 "/>
</g>
<path style=" stroke:none;fill-rule:nonzero;fill:rgb(85.000381%,85.000381%,85.000381%);fill-opacity:1;" d="M 264.855469 48.054688 L 264.941406 48.144531 L 264.890625 47.917969 L 264.804688 47.96875 Z M 264.855469 48.054688 "/>
<g clip-path="url(#clip42)" clip-rule="nonzero">
<path style="fill:none;stroke-width:0.2;stroke-linecap:square;stroke-linejoin:miter;stroke:rgb(85.000381%,85.000381%,85.000381%);stroke-opacity:1;stroke-miterlimit:3.25;" d="M -0.109375 123.851562 L 289.320312 -43.25 "/>
</g>
<g clip-path="url(#clip43)" clip-rule="nonzero">
<path style="fill:none;stroke-width:0.2;stroke-linecap:square;stroke-linejoin:miter;stroke:rgb(85.000381%,85.000381%,85.000381%);stroke-opacity:1;stroke-miterlimit:3.25;" d="M 425.960938 193.417969 L 289.320312 -43.25 "/>
<path style="fill:none;stroke-width:0.2;stroke-linecap:square;stroke-linejoin:miter;stroke:rgb(85.000381%,85.000381%,85.000381%);stroke-opacity:1;stroke-miterlimit:3.25;" d="M 425.960938 193.417969 L 289.320312 -43.25 "/>
</g>
<g clip-path="url(#clip44)" clip-rule="nonzero">
<path style="fill:none;stroke-width:0.2;stroke-linecap:square;stroke-linejoin:miter;stroke:rgb(85.000381%,85.000381%,85.000381%);stroke-opacity:1;stroke-miterlimit:3.25;" d="M 46.421875 193.417969 L 258.539062 44.890625 "/>
<path style="fill:none;stroke-width:0.2;stroke-linecap:square;stroke-linejoin:miter;stroke:rgb(85.000381%,85.000381%,85.000381%);stroke-opacity:1;stroke-miterlimit:3.25;" d="M 46.421875 193.417969 L 258.539062 44.890625 "/>
</g>
<path style=" stroke:none;fill-rule:nonzero;fill:rgb(85.000381%,85.000381%,85.000381%);fill-opacity:1;" d="M 258.539062 44.890625 L 258.480469 44.835938 L 258.5625 44.753906 L 258.621094 44.835938 Z M 258.539062 44.890625 "/>
<g clip-path="url(#clip45)" clip-rule="nonzero">
<path style="fill:none;stroke-width:0.2;stroke-linecap:square;stroke-linejoin:miter;stroke:rgb(85.000381%,85.000381%,85.000381%);stroke-opacity:1;stroke-miterlimit:3.25;" d="M 362.535156 193.417969 L 258.539062 44.890625 "/>
<path style="fill:none;stroke-width:0.2;stroke-linecap:square;stroke-linejoin:miter;stroke:rgb(85.000381%,85.000381%,85.000381%);stroke-opacity:1;stroke-miterlimit:3.25;" d="M 362.535156 193.417969 L 258.539062 44.890625 "/>
</g>
<g clip-path="url(#clip46)" clip-rule="nonzero">
<path style="fill:none;stroke-width:0.2;stroke-linecap:square;stroke-linejoin:miter;stroke:rgb(85.000381%,85.000381%,85.000381%);stroke-opacity:1;stroke-miterlimit:3.25;" d="M 1.1875 143.492188 L 274.953125 -48.199219 "/>
</g>
<g clip-path="url(#clip47)" clip-rule="nonzero">
<path style="fill:none;stroke-width:0.2;stroke-linecap:square;stroke-linejoin:miter;stroke:rgb(85.000381%,85.000381%,85.000381%);stroke-opacity:1;stroke-miterlimit:3.25;" d="M 444.132812 193.417969 L 274.953125 -48.199219 "/>
<path style="fill:none;stroke-width:0.2;stroke-linecap:square;stroke-linejoin:miter;stroke:rgb(85.000381%,85.000381%,85.000381%);stroke-opacity:1;stroke-miterlimit:3.25;" d="M 444.132812 193.417969 L 274.953125 -48.199219 "/>
</g>
<g clip-path="url(#clip48)" clip-rule="nonzero">
<path style="fill:none;stroke-width:0.2;stroke-linecap:square;stroke-linejoin:miter;stroke:rgb(85.000381%,85.000381%,85.000381%);stroke-opacity:1;stroke-miterlimit:3.25;" d="M 72.488281 193.417969 L 251.824219 42.9375 "/>
<path style="fill:none;stroke-width:0.2;stroke-linecap:square;stroke-linejoin:miter;stroke:rgb(85.000381%,85.000381%,85.000381%);stroke-opacity:1;stroke-miterlimit:3.25;" d="M 72.488281 193.417969 L 251.824219 42.9375 "/>
</g>
<path style=" stroke:none;fill-rule:nonzero;fill:rgb(85.000381%,85.000381%,85.000381%);fill-opacity:1;" d="M 251.824219 42.9375 L 251.761719 42.871094 L 251.835938 42.796875 L 251.902344 42.871094 Z M 251.824219 42.9375 "/>
<g clip-path="url(#clip49)" clip-rule="nonzero">
<path style="fill:none;stroke-width:0.2;stroke-linecap:square;stroke-linejoin:miter;stroke:rgb(85.000381%,85.000381%,85.000381%);stroke-opacity:1;stroke-miterlimit:3.25;" d="M 378.09375 193.417969 L 251.824219 42.9375 "/>
<path style="fill:none;stroke-width:0.2;stroke-linecap:square;stroke-linejoin:miter;stroke:rgb(85.000381%,85.000381%,85.000381%);stroke-opacity:1;stroke-miterlimit:3.25;" d="M 378.09375 193.417969 L 251.824219 42.9375 "/>
</g>
<g clip-path="url(#clip50)" clip-rule="nonzero">
<path style="fill:none;stroke-width:0.2;stroke-linecap:square;stroke-linejoin:miter;stroke:rgb(85.000381%,85.000381%,85.000381%);stroke-opacity:1;stroke-miterlimit:3.25;" d="M 4.046875 163.589844 L 260.0625 -51.230469 "/>
</g>
<g clip-path="url(#clip51)" clip-rule="nonzero">
<path style="fill:none;stroke-width:0.2;stroke-linecap:square;stroke-linejoin:miter;stroke:rgb(85.000381%,85.000381%,85.000381%);stroke-opacity:1;stroke-miterlimit:3.25;" d="M 465.347656 193.417969 L 260.0625 -51.230469 "/>
<path style="fill:none;stroke-width:0.2;stroke-linecap:square;stroke-linejoin:miter;stroke:rgb(85.000381%,85.000381%,85.000381%);stroke-opacity:1;stroke-miterlimit:3.25;" d="M 465.347656 193.417969 L 260.0625 -51.230469 "/>
</g>
<g clip-path="url(#clip52)" clip-rule="nonzero">
<path style="fill:none;stroke-width:0.2;stroke-linecap:square;stroke-linejoin:miter;stroke:rgb(85.000381%,85.000381%,85.000381%);stroke-opacity:1;stroke-miterlimit:3.25;" d="M 93.777344 193.417969 L 244.921875 42.273438 "/>
<path style="fill:none;stroke-width:0.2;stroke-linecap:square;stroke-linejoin:miter;stroke:rgb(85.000381%,85.000381%,85.000381%);stroke-opacity:1;stroke-miterlimit:3.25;" d="M 93.777344 193.417969 L 244.921875 42.273438 "/>
</g>
<path style=" stroke:none;fill-rule:nonzero;fill:rgb(85.000381%,85.000381%,85.000381%);fill-opacity:1;" d="M 244.921875 42.273438 L 244.847656 42.203125 L 244.921875 42.132812 L 244.992188 42.203125 Z M 244.921875 42.273438 "/>
<g clip-path="url(#clip53)" clip-rule="nonzero">
<path style="fill:none;stroke-width:0.2;stroke-linecap:square;stroke-linejoin:miter;stroke:rgb(85.000381%,85.000381%,85.000381%);stroke-opacity:1;stroke-miterlimit:3.25;" d="M 396.0625 193.417969 L 244.921875 42.273438 "/>
<path style="fill:none;stroke-width:0.2;stroke-linecap:square;stroke-linejoin:miter;stroke:rgb(85.000381%,85.000381%,85.000381%);stroke-opacity:1;stroke-miterlimit:3.25;" d="M 396.0625 193.417969 L 244.921875 42.273438 "/>
</g>
<g clip-path="url(#clip54)" clip-rule="nonzero">
<path style="fill:none;stroke-width:0.2;stroke-linecap:square;stroke-linejoin:miter;stroke:rgb(85.000381%,85.000381%,85.000381%);stroke-opacity:1;stroke-miterlimit:3.25;" d="M 8.601562 184.066406 L 244.921875 -52.253906 L 481.238281 184.066406 "/>
</g>
<g clip-path="url(#clip55)" clip-rule="nonzero">
<path style="fill:none;stroke-width:0.2;stroke-linecap:square;stroke-linejoin:miter;stroke:rgb(85.000381%,85.000381%,85.000381%);stroke-opacity:1;stroke-miterlimit:3.25;" d="M 111.746094 193.417969 L 238.015625 42.9375 "/>
<path style="fill:none;stroke-width:0.2;stroke-linecap:square;stroke-linejoin:miter;stroke:rgb(85.000381%,85.000381%,85.000381%);stroke-opacity:1;stroke-miterlimit:3.25;" d="M 111.746094 193.417969 L 238.015625 42.9375 "/>
</g>
<path style=" stroke:none;fill-rule:nonzero;fill:rgb(85.000381%,85.000381%,85.000381%);fill-opacity:1;" d="M 238.015625 42.9375 L 237.9375 42.859375 L 238.003906 42.796875 L 238.078125 42.859375 Z M 238.015625 42.9375 "/>
<g clip-path="url(#clip56)" clip-rule="nonzero">
<path style="fill:none;stroke-width:0.2;stroke-linecap:square;stroke-linejoin:miter;stroke:rgb(85.000381%,85.000381%,85.000381%);stroke-opacity:1;stroke-miterlimit:3.25;" d="M 417.351562 193.417969 L 238.015625 42.9375 "/>
<path style="fill:none;stroke-width:0.2;stroke-linecap:square;stroke-linejoin:miter;stroke:rgb(85.000381%,85.000381%,85.000381%);stroke-opacity:1;stroke-miterlimit:3.25;" d="M 417.351562 193.417969 L 238.015625 42.9375 "/>
</g>
<g clip-path="url(#clip57)" clip-rule="nonzero">
<path style="fill:none;stroke-width:0.2;stroke-linecap:square;stroke-linejoin:miter;stroke:rgb(85.000381%,85.000381%,85.000381%);stroke-opacity:1;stroke-miterlimit:3.25;" d="M 24.492188 193.417969 L 229.777344 -51.230469 "/>
<path style="fill:none;stroke-width:0.2;stroke-linecap:square;stroke-linejoin:miter;stroke:rgb(85.000381%,85.000381%,85.000381%);stroke-opacity:1;stroke-miterlimit:3.25;" d="M 24.492188 193.417969 L 229.777344 -51.230469 "/>
</g>
<g clip-path="url(#clip58)" clip-rule="nonzero">
<path style="fill:none;stroke-width:0.2;stroke-linecap:square;stroke-linejoin:miter;stroke:rgb(85.000381%,85.000381%,85.000381%);stroke-opacity:1;stroke-miterlimit:3.25;" d="M 229.777344 -51.230469 L 485.792969 163.589844 "/>
</g>
<g clip-path="url(#clip59)" clip-rule="nonzero">
<path style="fill:none;stroke-width:0.2;stroke-linecap:square;stroke-linejoin:miter;stroke:rgb(85.000381%,85.000381%,85.000381%);stroke-opacity:1;stroke-miterlimit:3.25;" d="M 127.304688 193.417969 L 231.300781 44.890625 "/>
<path style="fill:none;stroke-width:0.2;stroke-linecap:square;stroke-linejoin:miter;stroke:rgb(85.000381%,85.000381%,85.000381%);stroke-opacity:1;stroke-miterlimit:3.25;" d="M 127.304688 193.417969 L 231.300781 44.890625 "/>
</g>
<path style=" stroke:none;fill-rule:nonzero;fill:rgb(85.000381%,85.000381%,85.000381%);fill-opacity:1;" d="M 231.300781 44.890625 L 231.21875 44.808594 L 231.277344 44.753906 L 231.359375 44.808594 Z M 231.300781 44.890625 "/>
<g clip-path="url(#clip60)" clip-rule="nonzero">
<path style="fill:none;stroke-width:0.2;stroke-linecap:square;stroke-linejoin:miter;stroke:rgb(85.000381%,85.000381%,85.000381%);stroke-opacity:1;stroke-miterlimit:3.25;" d="M 443.417969 193.417969 L 231.300781 44.890625 "/>
<path style="fill:none;stroke-width:0.2;stroke-linecap:square;stroke-linejoin:miter;stroke:rgb(85.000381%,85.000381%,85.000381%);stroke-opacity:1;stroke-miterlimit:3.25;" d="M 443.417969 193.417969 L 231.300781 44.890625 "/>
</g>
<g clip-path="url(#clip61)" clip-rule="nonzero">
<path style="fill:none;stroke-width:0.2;stroke-linecap:square;stroke-linejoin:miter;stroke:rgb(85.000381%,85.000381%,85.000381%);stroke-opacity:1;stroke-miterlimit:3.25;" d="M 45.707031 193.417969 L 214.886719 -48.199219 "/>
<path style="fill:none;stroke-width:0.2;stroke-linecap:square;stroke-linejoin:miter;stroke:rgb(85.000381%,85.000381%,85.000381%);stroke-opacity:1;stroke-miterlimit:3.25;" d="M 45.707031 193.417969 L 214.886719 -48.199219 "/>
</g>
<g clip-path="url(#clip62)" clip-rule="nonzero">
<path style="fill:none;stroke-width:0.2;stroke-linecap:square;stroke-linejoin:miter;stroke:rgb(85.000381%,85.000381%,85.000381%);stroke-opacity:1;stroke-miterlimit:3.25;" d="M 214.886719 -48.199219 L 488.652344 143.492188 "/>
</g>
<g clip-path="url(#clip63)" clip-rule="nonzero">
<path style="fill:none;stroke-width:0.2;stroke-linecap:square;stroke-linejoin:miter;stroke:rgb(85.000381%,85.000381%,85.000381%);stroke-opacity:1;stroke-miterlimit:3.25;" d="M 141.0625 193.417969 L 224.984375 48.054688 "/>
<path style="fill:none;stroke-width:0.2;stroke-linecap:square;stroke-linejoin:miter;stroke:rgb(85.000381%,85.000381%,85.000381%);stroke-opacity:1;stroke-miterlimit:3.25;" d="M 141.0625 193.417969 L 224.984375 48.054688 "/>
</g>
<path style=" stroke:none;fill-rule:nonzero;fill:rgb(85.000381%,85.000381%,85.000381%);fill-opacity:1;" d="M 224.984375 48.054688 L 224.898438 47.96875 L 224.949219 47.917969 L 225.035156 47.96875 Z M 224.984375 48.054688 "/>
<g clip-path="url(#clip64)" clip-rule="nonzero">
<path style="fill:none;stroke-width:0.2;stroke-linecap:square;stroke-linejoin:miter;stroke:rgb(85.000381%,85.000381%,85.000381%);stroke-opacity:1;stroke-miterlimit:3.25;" d="M 224.984375 48.054688 L 456.53125 181.738281 "/>
</g>
<g clip-path="url(#clip65)" clip-rule="nonzero">
<path style="fill:none;stroke-width:0.2;stroke-linecap:square;stroke-linejoin:miter;stroke:rgb(85.000381%,85.000381%,85.000381%);stroke-opacity:1;stroke-miterlimit:3.25;" d="M 63.878906 193.417969 L 200.519531 -43.25 "/>
<path style="fill:none;stroke-width:0.2;stroke-linecap:square;stroke-linejoin:miter;stroke:rgb(85.000381%,85.000381%,85.000381%);stroke-opacity:1;stroke-miterlimit:3.25;" d="M 63.878906 193.417969 L 200.519531 -43.25 "/>
</g>
<g clip-path="url(#clip66)" clip-rule="nonzero">
<path style="fill:none;stroke-width:0.2;stroke-linecap:square;stroke-linejoin:miter;stroke:rgb(85.000381%,85.000381%,85.000381%);stroke-opacity:1;stroke-miterlimit:3.25;" d="M 200.519531 -43.25 L 489.949219 123.851562 "/>
</g>
<g clip-path="url(#clip67)" clip-rule="nonzero">
<path style="fill:none;stroke-width:0.2;stroke-linecap:square;stroke-linejoin:miter;stroke:rgb(85.000381%,85.000381%,85.000381%);stroke-opacity:1;stroke-miterlimit:3.25;" d="M 153.453125 193.417969 L 219.234375 52.351562 "/>
<path style="fill:none;stroke-width:0.2;stroke-linecap:square;stroke-linejoin:miter;stroke:rgb(85.000381%,85.000381%,85.000381%);stroke-opacity:1;stroke-miterlimit:3.25;" d="M 153.453125 193.417969 L 219.234375 52.351562 "/>
</g>
<path style=" stroke:none;fill-rule:nonzero;fill:rgb(85.000381%,85.000381%,85.000381%);fill-opacity:1;" d="M 219.234375 52.351562 L 219.144531 52.261719 L 219.1875 52.21875 L 219.277344 52.261719 Z M 219.234375 52.351562 "/>
<g clip-path="url(#clip68)" clip-rule="nonzero">
<path style="fill:none;stroke-width:0.2;stroke-linecap:square;stroke-linejoin:miter;stroke:rgb(85.000381%,85.000381%,85.000381%);stroke-opacity:1;stroke-miterlimit:3.25;" d="M 219.234375 52.351562 L 461.550781 165.34375 "/>
</g>
<g clip-path="url(#clip69)" clip-rule="nonzero">
<path style="fill:none;stroke-width:0.2;stroke-linecap:square;stroke-linejoin:miter;stroke:rgb(85.000381%,85.000381%,85.000381%);stroke-opacity:1;stroke-miterlimit:3.25;" d="M 79.703125 193.417969 L 186.90625 -36.476562 "/>
<path style="fill:none;stroke-width:0.2;stroke-linecap:square;stroke-linejoin:miter;stroke:rgb(85.000381%,85.000381%,85.000381%);stroke-opacity:1;stroke-miterlimit:3.25;" d="M 79.703125 193.417969 L 186.90625 -36.476562 "/>
</g>
<g clip-path="url(#clip70)" clip-rule="nonzero">
<path style="fill:none;stroke-width:0.2;stroke-linecap:square;stroke-linejoin:miter;stroke:rgb(85.000381%,85.000381%,85.000381%);stroke-opacity:1;stroke-miterlimit:3.25;" d="M 186.90625 -36.476562 L 489.796875 104.765625 "/>
</g>
<g clip-path="url(#clip71)" clip-rule="nonzero">
<path style="fill:none;stroke-width:0.2;stroke-linecap:square;stroke-linejoin:miter;stroke:rgb(85.000381%,85.000381%,85.000381%);stroke-opacity:1;stroke-miterlimit:3.25;" d="M 164.800781 193.417969 L 214.207031 57.675781 "/>
<path style="fill:none;stroke-width:0.2;stroke-linecap:square;stroke-linejoin:miter;stroke:rgb(85.000381%,85.000381%,85.000381%);stroke-opacity:1;stroke-miterlimit:3.25;" d="M 164.800781 193.417969 L 214.207031 57.675781 "/>
</g>
<path style=" stroke:none;fill-rule:nonzero;fill:rgb(85.000381%,85.000381%,85.000381%);fill-opacity:1;" d="M 214.207031 57.675781 L 214.113281 57.582031 L 214.144531 57.546875 L 214.238281 57.582031 Z M 214.207031 57.675781 "/>
<g clip-path="url(#clip72)" clip-rule="nonzero">
<path style="fill:none;stroke-width:0.2;stroke-linecap:square;stroke-linejoin:miter;stroke:rgb(85.000381%,85.000381%,85.000381%);stroke-opacity:1;stroke-miterlimit:3.25;" d="M 214.207031 57.675781 L 465.445312 149.121094 "/>
</g>
<g clip-path="url(#clip73)" clip-rule="nonzero">
<path style="fill:none;stroke-width:0.2;stroke-linecap:square;stroke-linejoin:miter;stroke:rgb(85.000381%,85.000381%,85.000381%);stroke-opacity:1;stroke-miterlimit:3.25;" d="M 93.667969 193.417969 L 174.257812 -27.996094 "/>
<path style="fill:none;stroke-width:0.2;stroke-linecap:square;stroke-linejoin:miter;stroke:rgb(85.000381%,85.000381%,85.000381%);stroke-opacity:1;stroke-miterlimit:3.25;" d="M 93.667969 193.417969 L 174.257812 -27.996094 "/>
</g>
<g clip-path="url(#clip74)" clip-rule="nonzero">
<path style="fill:none;stroke-width:0.2;stroke-linecap:square;stroke-linejoin:miter;stroke:rgb(85.000381%,85.000381%,85.000381%);stroke-opacity:1;stroke-miterlimit:3.25;" d="M 174.257812 -27.996094 L 488.304688 86.308594 "/>
</g>
<g clip-path="url(#clip75)" clip-rule="nonzero">
<path style="fill:none;stroke-width:0.2;stroke-linecap:square;stroke-linejoin:miter;stroke:rgb(85.000381%,85.000381%,85.000381%);stroke-opacity:1;stroke-miterlimit:3.25;" d="M 175.335938 193.417969 L 210.035156 63.910156 "/>
<path style="fill:none;stroke-width:0.2;stroke-linecap:square;stroke-linejoin:miter;stroke:rgb(85.000381%,85.000381%,85.000381%);stroke-opacity:1;stroke-miterlimit:3.25;" d="M 175.335938 193.417969 L 210.035156 63.910156 "/>
</g>
<path style=" stroke:none;fill-rule:nonzero;fill:rgb(85.000381%,85.000381%,85.000381%);fill-opacity:1;" d="M 210.035156 63.910156 L 209.941406 63.816406 L 209.964844 63.789062 L 210.0625 63.816406 Z M 210.035156 63.910156 "/>
<g clip-path="url(#clip76)" clip-rule="nonzero">
<path style="fill:none;stroke-width:0.2;stroke-linecap:square;stroke-linejoin:miter;stroke:rgb(85.000381%,85.000381%,85.000381%);stroke-opacity:1;stroke-miterlimit:3.25;" d="M 210.035156 63.910156 L 468.289062 133.109375 "/>
</g>
<g clip-path="url(#clip77)" clip-rule="nonzero">
<path style="fill:none;stroke-width:0.2;stroke-linecap:square;stroke-linejoin:miter;stroke:rgb(85.000381%,85.000381%,85.000381%);stroke-opacity:1;stroke-miterlimit:3.25;" d="M 106.136719 193.417969 L 162.773438 -17.953125 "/>
<path style="fill:none;stroke-width:0.2;stroke-linecap:square;stroke-linejoin:miter;stroke:rgb(85.000381%,85.000381%,85.000381%);stroke-opacity:1;stroke-miterlimit:3.25;" d="M 106.136719 193.417969 L 162.773438 -17.953125 "/>
</g>
<g clip-path="url(#clip78)" clip-rule="nonzero">
<path style="fill:none;stroke-width:0.2;stroke-linecap:square;stroke-linejoin:miter;stroke:rgb(85.000381%,85.000381%,85.000381%);stroke-opacity:1;stroke-miterlimit:3.25;" d="M 162.773438 -17.953125 L 485.589844 68.546875 "/>
</g>
<g clip-path="url(#clip79)" clip-rule="nonzero">
<path style="fill:none;stroke-width:0.2;stroke-linecap:square;stroke-linejoin:miter;stroke:rgb(85.000381%,85.000381%,85.000381%);stroke-opacity:1;stroke-miterlimit:3.25;" d="M 185.253906 193.417969 L 206.851562 70.925781 "/>
<path style="fill:none;stroke-width:0.2;stroke-linecap:square;stroke-linejoin:miter;stroke:rgb(85.000381%,85.000381%,85.000381%);stroke-opacity:1;stroke-miterlimit:3.25;" d="M 185.253906 193.417969 L 206.851562 70.925781 "/>
</g>
<path style=" stroke:none;fill-rule:nonzero;fill:rgb(85.000381%,85.000381%,85.000381%);fill-opacity:1;" d="M 206.851562 70.925781 L 206.753906 70.828125 L 206.769531 70.808594 L 206.867188 70.828125 Z M 206.851562 70.925781 "/>
<g clip-path="url(#clip80)" clip-rule="nonzero">
<path style="fill:none;stroke-width:0.2;stroke-linecap:square;stroke-linejoin:miter;stroke:rgb(85.000381%,85.000381%,85.000381%);stroke-opacity:1;stroke-miterlimit:3.25;" d="M 206.851562 70.925781 L 470.152344 117.351562 "/>
</g>
<g clip-path="url(#clip81)" clip-rule="nonzero">
<path style="fill:none;stroke-width:0.2;stroke-linecap:square;stroke-linejoin:miter;stroke:rgb(85.000381%,85.000381%,85.000381%);stroke-opacity:1;stroke-miterlimit:3.25;" d="M 117.378906 193.417969 L 152.632812 -6.507812 "/>
<path style="fill:none;stroke-width:0.2;stroke-linecap:square;stroke-linejoin:miter;stroke:rgb(85.000381%,85.000381%,85.000381%);stroke-opacity:1;stroke-miterlimit:3.25;" d="M 117.378906 193.417969 L 152.632812 -6.507812 "/>
</g>
<g clip-path="url(#clip82)" clip-rule="nonzero">
<path style="fill:none;stroke-width:0.2;stroke-linecap:square;stroke-linejoin:miter;stroke:rgb(85.000381%,85.000381%,85.000381%);stroke-opacity:1;stroke-miterlimit:3.25;" d="M 152.632812 -6.507812 L 481.761719 51.527344 "/>
</g>
<g clip-path="url(#clip83)" clip-rule="nonzero">
<path style="fill:none;stroke-width:0.2;stroke-linecap:square;stroke-linejoin:miter;stroke:rgb(85.000381%,85.000381%,85.000381%);stroke-opacity:1;stroke-miterlimit:3.25;" d="M 194.703125 193.417969 L 204.753906 78.566406 "/>
<path style="fill:none;stroke-width:0.2;stroke-linecap:square;stroke-linejoin:miter;stroke:rgb(85.000381%,85.000381%,85.000381%);stroke-opacity:1;stroke-miterlimit:3.25;" d="M 194.703125 193.417969 L 204.753906 78.566406 "/>
</g>
<path style=" stroke:none;fill-rule:nonzero;fill:rgb(85.000381%,85.000381%,85.000381%);fill-opacity:1;" d="M 204.753906 78.566406 L 204.652344 78.464844 L 204.660156 78.457031 L 204.761719 78.464844 Z M 204.753906 78.566406 "/>
<g clip-path="url(#clip84)" clip-rule="nonzero">
<path style="fill:none;stroke-width:0.2;stroke-linecap:square;stroke-linejoin:miter;stroke:rgb(85.000381%,85.000381%,85.000381%);stroke-opacity:1;stroke-miterlimit:3.25;" d="M 204.753906 78.566406 L 471.097656 101.867188 "/>
</g>
<g clip-path="url(#clip85)" clip-rule="nonzero">
<path style="fill:none;stroke-width:0.2;stroke-linecap:square;stroke-linejoin:miter;stroke:rgb(85.000381%,85.000381%,85.000381%);stroke-opacity:1;stroke-miterlimit:3.25;" d="M 127.609375 193.417969 L 143.992188 6.152344 "/>
<path style="fill:none;stroke-width:0.2;stroke-linecap:square;stroke-linejoin:miter;stroke:rgb(85.000381%,85.000381%,85.000381%);stroke-opacity:1;stroke-miterlimit:3.25;" d="M 127.609375 193.417969 L 143.992188 6.152344 "/>
</g>
<g clip-path="url(#clip86)" clip-rule="nonzero">
<path style=" stroke:none;fill-rule:nonzero;fill:rgb(85.000381%,85.000381%,85.000381%);fill-opacity:1;" d="M 143.992188 6.152344 L 143.890625 6.054688 L 143.902344 6.046875 L 144 6.054688 Z M 143.992188 6.152344 "/>
</g>
<g clip-path="url(#clip87)" clip-rule="nonzero">
<path style="fill:none;stroke-width:0.2;stroke-linecap:square;stroke-linejoin:miter;stroke:rgb(85.000381%,85.000381%,85.000381%);stroke-opacity:1;stroke-miterlimit:3.25;" d="M 143.992188 6.152344 L 476.925781 35.28125 "/>
</g>
<g clip-path="url(#clip88)" clip-rule="nonzero">
<path style="fill:none;stroke-width:0.2;stroke-linecap:square;stroke-linejoin:miter;stroke:rgb(85.000381%,85.000381%,85.000381%);stroke-opacity:1;stroke-miterlimit:3.25;" d="M 203.894531 193.417969 L 203.894531 86.675781 "/>
<path style="fill:none;stroke-width:0.2;stroke-linecap:square;stroke-linejoin:miter;stroke:rgb(85.000381%,85.000381%,85.000381%);stroke-opacity:1;stroke-miterlimit:3.25;" d="M 203.894531 193.417969 L 203.894531 86.675781 "/>
</g>
<path style=" stroke:none;fill-rule:nonzero;fill:rgb(85.000381%,85.000381%,85.000381%);fill-opacity:1;" d="M 203.894531 86.675781 L 203.796875 86.574219 L 203.894531 86.574219 Z M 203.894531 86.675781 "/>
<g clip-path="url(#clip89)" clip-rule="nonzero">
<path style="fill:none;stroke-width:0.2;stroke-linecap:square;stroke-linejoin:miter;stroke:rgb(85.000381%,85.000381%,85.000381%);stroke-opacity:1;stroke-miterlimit:3.25;" d="M 203.894531 86.675781 L 471.257812 86.675781 "/>
</g>
<g clip-path="url(#clip90)" clip-rule="nonzero">
<path style="fill:none;stroke-width:0.2;stroke-linecap:square;stroke-linejoin:miter;stroke:rgb(85.000381%,85.000381%,85.000381%);stroke-opacity:1;stroke-miterlimit:3.25;" d="M 137.054688 193.417969 L 137.054688 19.835938 "/>
<path style="fill:none;stroke-width:0.2;stroke-linecap:square;stroke-linejoin:miter;stroke:rgb(85.000381%,85.000381%,85.000381%);stroke-opacity:1;stroke-miterlimit:3.25;" d="M 137.054688 193.417969 L 137.054688 19.835938 "/>
</g>
<path style=" stroke:none;fill-rule:nonzero;fill:rgb(85.000381%,85.000381%,85.000381%);fill-opacity:1;" d="M 137.054688 19.835938 L 136.953125 19.734375 L 137.054688 19.734375 Z M 137.054688 19.835938 "/>
<g clip-path="url(#clip91)" clip-rule="nonzero">
<path style="fill:none;stroke-width:0.2;stroke-linecap:square;stroke-linejoin:miter;stroke:rgb(85.000381%,85.000381%,85.000381%);stroke-opacity:1;stroke-miterlimit:3.25;" d="M 137.054688 19.835938 L 471.257812 19.835938 "/>
</g>
<path style="fill-rule:nonzero;fill:rgb(100%,100%,86.999313%);fill-opacity:1;stroke-width:1;stroke-linecap:square;stroke-linejoin:miter;stroke:rgb(0%,0%,0%);stroke-opacity:1;stroke-miterlimit:3.25;" d="M 285.75 82.988281 L 285.441406 80.625 L 285.035156 78.296875 L 284.527344 76.011719 L 283.921875 73.769531 L 283.21875 71.578125 L 282.425781 69.4375 L 281.539062 67.355469 L 280.5625 65.332031 L 279.5 63.371094 L 278.351562 61.480469 L 277.125 59.660156 L 275.824219 57.914062 L 274.445312 56.246094 L 272.996094 54.65625 L 271.480469 53.152344 L 269.898438 51.734375 L 268.257812 50.40625 L 266.5625 49.171875 L 264.8125 48.03125 L 263.015625 46.988281 L 261.175781 46.042969 L 259.292969 45.195312 L 257.375 44.457031 L 255.425781 43.820312 L 253.449219 43.289062 L 251.453125 42.867188 L 249.441406 42.558594 L 247.417969 42.359375 L 245.390625 42.277344 L 243.363281 42.308594 L 241.339844 42.453125 L 239.324219 42.707031 L 237.316406 43.078125 L 235.332031 43.558594 L 233.367188 44.144531 L 231.4375 44.839844 L 229.539062 45.636719 L 227.675781 46.535156 L 225.859375 47.53125 L 224.085938 48.628906 L 222.363281 49.820312 L 220.695312 51.105469 L 219.089844 52.484375 L 217.542969 53.945312 L 216.0625 55.496094 L 214.648438 57.125 L 213.3125 58.835938 L 212.046875 60.625 L 210.863281 62.484375 L 209.761719 64.410156 L 208.746094 66.40625 L 207.816406 68.460938 L 206.980469 70.574219 L 206.234375 72.746094 L 205.582031 74.964844 L 205.027344 77.230469 L 204.574219 79.535156 L 204.222656 81.882812 L 204.089844 82.988281 L 203.988281 83.070312 L 203.875 83.15625 L 203.753906 83.246094 L 203.628906 83.339844 L 203.496094 83.433594 L 203.355469 83.527344 L 203.207031 83.628906 L 203.050781 83.726562 L 202.886719 83.828125 L 202.714844 83.933594 L 202.535156 84.035156 L 202.347656 84.140625 L 202.152344 84.246094 L 201.949219 84.355469 L 201.734375 84.460938 L 201.515625 84.566406 L 201.289062 84.671875 L 201.050781 84.78125 L 200.808594 84.886719 L 200.554688 84.988281 L 200.292969 85.09375 L 200.023438 85.195312 L 199.746094 85.296875 L 199.457031 85.394531 L 199.164062 85.492188 L 198.859375 85.585938 L 198.546875 85.679688 L 198.226562 85.769531 L 197.898438 85.855469 L 197.5625 85.941406 L 197.21875 86.019531 L 196.863281 86.097656 L 196.503906 86.171875 L 196.132812 86.238281 L 195.753906 86.304688 L 195.367188 86.367188 L 194.972656 86.421875 L 194.570312 86.472656 L 194.160156 86.515625 L 193.738281 86.558594 L 193.3125 86.59375 L 192.878906 86.621094 L 192.4375 86.644531 L 191.957031 86.660156 L 191.460938 86.671875 L 137.054688 86.675781 L 137.105469 85.566406 L 137.253906 83.207031 L 137.464844 80.878906 L 137.730469 78.578125 L 138.050781 76.3125 L 138.421875 74.082031 L 138.847656 71.886719 L 139.324219 69.734375 L 139.847656 67.617188 L 140.417969 65.542969 L 141.03125 63.511719 L 141.6875 61.523438 L 142.382812 59.582031 L 143.117188 57.6875 L 143.890625 55.84375 L 144.695312 54.046875 L 145.53125 52.300781 L 146.394531 50.605469 L 147.289062 48.964844 L 148.207031 47.375 L 149.144531 45.835938 L 150.105469 44.355469 L 151.082031 42.925781 L 152.070312 41.554688 L 153.074219 40.238281 L 154.089844 38.972656 L 155.105469 37.769531 L 156.125 36.625 L 157.144531 35.539062 L 158.160156 34.507812 L 159.171875 33.535156 L 160.171875 32.617188 L 161.164062 31.753906 L 162.171875 30.921875 L 163.328125 30.019531 L 164.488281 29.15625 L 165.652344 28.335938 L 166.820312 27.558594 L 167.984375 26.824219 L 169.152344 26.128906 L 170.320312 25.472656 L 171.480469 24.859375 L 172.640625 24.285156 L 173.792969 23.75 L 174.9375 23.253906 L 176.078125 22.792969 L 177.207031 22.371094 L 178.324219 21.984375 L 179.433594 21.632812 L 180.527344 21.316406 L 181.609375 21.03125 L 182.679688 20.78125 L 183.730469 20.5625 L 184.769531 20.375 L 185.789062 20.214844 L 186.789062 20.085938 L 187.773438 19.984375 L 188.734375 19.910156 L 189.679688 19.859375 L 298.851562 19.835938 L 299.707031 19.84375 L 300.597656 19.878906 L 301.550781 19.941406 L 302.523438 20.027344 L 303.515625 20.140625 L 304.523438 20.285156 L 305.554688 20.457031 L 306.597656 20.660156 L 307.65625 20.894531 L 308.730469 21.160156 L 309.820312 21.457031 L 310.921875 21.789062 L 312.035156 22.160156 L 313.160156 22.5625 L 314.292969 23.003906 L 315.433594 23.480469 L 316.582031 23.996094 L 317.738281 24.546875 L 318.898438 25.140625 L 320.0625 25.773438 L 321.230469 26.445312 L 322.398438 27.160156 L 323.566406 27.914062 L 324.730469 28.714844 L 325.894531 29.550781 L 327.050781 30.433594 L 328.148438 31.316406 L 329.136719 32.148438 L 330.132812 33.039062 L 331.140625 33.980469 L 332.152344 34.980469 L 333.167969 36.035156 L 334.1875 37.152344 L 335.207031 38.324219 L 336.222656 39.554688 L 337.234375 40.84375 L 338.230469 42.1875 L 339.214844 43.585938 L 340.183594 45.039062 L 341.136719 46.546875 L 342.066406 48.105469 L 342.96875 49.722656 L 343.851562 51.386719 L 344.703125 53.105469 L 345.523438 54.875 L 346.3125 56.695312 L 347.070312 58.5625 L 347.785156 60.480469 L 348.464844 62.441406 L 349.101562 64.449219 L 349.695312 66.5 L 350.242188 68.597656 L 350.746094 70.730469 L 351.195312 72.90625 L 351.597656 75.117188 L 351.945312 77.363281 L 352.242188 79.644531 L 352.480469 81.960938 L 352.664062 84.304688 L 352.785156 86.675781 L 298.851562 86.675781 L 298.09375 86.667969 L 297.714844 86.65625 L 297.355469 86.640625 L 297.015625 86.625 L 296.351562 86.578125 L 296.027344 86.550781 L 295.707031 86.519531 L 295.390625 86.484375 L 295.082031 86.449219 L 294.773438 86.410156 L 294.472656 86.367188 L 294.175781 86.320312 L 293.882812 86.269531 L 293.597656 86.21875 L 293.316406 86.167969 L 293.039062 86.109375 L 292.765625 86.050781 L 292.496094 85.992188 L 292.234375 85.929688 L 291.976562 85.867188 L 291.722656 85.800781 L 291.476562 85.730469 L 291.230469 85.664062 L 290.992188 85.589844 L 290.761719 85.519531 L 290.53125 85.445312 L 290.308594 85.371094 L 290.089844 85.292969 L 289.875 85.21875 L 289.667969 85.140625 L 289.464844 85.058594 L 289.265625 84.980469 L 289.070312 84.902344 L 288.695312 84.738281 L 288.34375 84.574219 L 288.171875 84.496094 L 288.007812 84.414062 L 287.847656 84.332031 L 287.691406 84.25 L 287.542969 84.167969 L 287.398438 84.085938 L 287.253906 84.007812 L 287.117188 83.929688 L 286.988281 83.847656 L 286.859375 83.769531 L 286.738281 83.691406 L 286.617188 83.617188 L 286.503906 83.542969 L 286.394531 83.46875 L 286.289062 83.394531 L 286.1875 83.324219 L 286 83.183594 L 285.828125 83.050781 Z M 285.75 82.988281 "/>
<path style="fill:none;stroke-width:1;stroke-linecap:square;stroke-linejoin:miter;stroke:rgb(0%,0%,0%);stroke-opacity:1;stroke-miterlimit:3.25;" d="M 287.011719 81.429688 L 285.75 82.988281 "/>
<path style="fill:none;stroke-width:1;stroke-linecap:square;stroke-linejoin:miter;stroke:rgb(0%,0%,0%);stroke-opacity:1;stroke-miterlimit:3.25;" d="M 253.582031 41.257812 L 253.140625 43.214844 "/>
<path style="fill:none;stroke-width:1;stroke-linecap:square;stroke-linejoin:miter;stroke:rgb(0%,0%,0%);stroke-opacity:1;stroke-miterlimit:3.25;" d="M 236.257812 41.257812 L 236.699219 43.214844 "/>
<path style="fill:none;stroke-width:1;stroke-linecap:square;stroke-linejoin:miter;stroke:rgb(0%,0%,0%);stroke-opacity:1;stroke-miterlimit:3.25;" d="M 202.828125 81.429688 L 204.089844 82.988281 "/>
<path style="fill:none;stroke-width:1;stroke-linecap:square;stroke-linejoin:miter;stroke:rgb(0%,0%,0%);stroke-opacity:1;stroke-miterlimit:3.25;" d="M 297.621094 84.644531 L 297.542969 86.648438 "/>
<path style="fill:none;stroke-width:1;stroke-linecap:square;stroke-linejoin:miter;stroke:rgb(0%,0%,0%);stroke-opacity:1;stroke-miterlimit:3.25;" d="M 298.851562 84.667969 L 298.851562 86.675781 "/>
<path style="fill:none;stroke-width:1;stroke-linecap:square;stroke-linejoin:miter;stroke:rgb(0%,0%,0%);stroke-opacity:1;stroke-miterlimit:3.25;" d="M 192.21875 84.644531 L 192.296875 86.648438 "/>
<path style="fill:none;stroke-width:1;stroke-linecap:square;stroke-linejoin:miter;stroke:rgb(0%,0%,0%);stroke-opacity:1;stroke-miterlimit:3.25;" d="M 190.988281 84.667969 L 190.988281 86.675781 "/>
<path style="fill:none;stroke-width:1;stroke-linecap:square;stroke-linejoin:miter;stroke:rgb(0%,0%,0%);stroke-opacity:1;stroke-miterlimit:3.25;" d="M 334.507812 40.621094 L 336.066406 39.359375 "/>
<path style="fill:none;stroke-width:1;stroke-linecap:square;stroke-linejoin:miter;stroke:rgb(0%,0%,0%);stroke-opacity:1;stroke-miterlimit:3.25;" d="M 326.582031 32.625 L 327.84375 31.066406 "/>
<path style="fill:none;stroke-width:1;stroke-linecap:square;stroke-linejoin:miter;stroke:rgb(0%,0%,0%);stroke-opacity:1;stroke-miterlimit:3.25;" d="M 300.082031 21.863281 L 300.160156 19.859375 "/>
<path style="fill:none;stroke-width:1;stroke-linecap:square;stroke-linejoin:miter;stroke:rgb(0%,0%,0%);stroke-opacity:1;stroke-miterlimit:3.25;" d="M 298.851562 21.839844 L 298.851562 19.835938 "/>
<path style="fill:none;stroke-width:1;stroke-linecap:square;stroke-linejoin:miter;stroke:rgb(0%,0%,0%);stroke-opacity:1;stroke-miterlimit:3.25;" d="M 155.332031 40.621094 L 153.773438 39.359375 "/>
<path style="fill:none;stroke-width:1;stroke-linecap:square;stroke-linejoin:miter;stroke:rgb(0%,0%,0%);stroke-opacity:1;stroke-miterlimit:3.25;" d="M 163.257812 32.625 L 161.996094 31.066406 "/>
<path style="fill:none;stroke-width:1;stroke-linecap:square;stroke-linejoin:miter;stroke:rgb(0%,0%,0%);stroke-opacity:1;stroke-miterlimit:3.25;" d="M 189.757812 21.863281 L 189.679688 19.859375 "/>
<path style="fill:none;stroke-width:1;stroke-linecap:square;stroke-linejoin:miter;stroke:rgb(0%,0%,0%);stroke-opacity:1;stroke-miterlimit:3.25;" d="M 190.988281 21.839844 L 190.988281 19.835938 "/>
<path style="fill:none;stroke-width:1;stroke-linecap:square;stroke-linejoin:miter;stroke:rgb(0%,0%,0%);stroke-opacity:1;stroke-miterlimit:3.25;" d="M 351.367188 85.257812 L 352.785156 86.675781 "/>
<path style="fill:none;stroke-width:1;stroke-linecap:square;stroke-linejoin:miter;stroke:rgb(0%,0%,0%);stroke-opacity:1;stroke-miterlimit:3.25;" d="M 138.472656 85.257812 L 137.054688 86.675781 "/>
<path style="fill:none;stroke-width:1;stroke-linecap:square;stroke-linejoin:miter;stroke:rgb(100%,0%,0%);stroke-opacity:1;stroke-miterlimit:3.25;" d="M 204.089844 82.988281 L 203.988281 83.070312 L 203.875 83.15625 L 203.753906 83.246094 L 203.628906 83.339844 L 203.496094 83.433594 L 203.355469 83.527344 L 203.207031 83.628906 L 203.050781 83.726562 L 202.886719 83.828125 L 202.714844 83.933594 L 202.535156 84.035156 L 202.347656 84.140625 L 202.152344 84.246094 L 201.949219 84.355469 L 201.734375 84.460938 L 201.515625 84.566406 L 201.289062 84.671875 L 201.050781 84.78125 L 200.808594 84.886719 L 200.554688 84.988281 L 200.292969 85.09375 L 200.023438 85.195312 L 199.746094 85.296875 L 199.457031 85.394531 L 199.164062 85.492188 L 198.859375 85.585938 L 198.546875 85.679688 L 198.226562 85.769531 L 197.898438 85.855469 L 197.5625 85.941406 L 197.21875 86.019531 L 196.863281 86.097656 L 196.503906 86.171875 L 196.132812 86.238281 L 195.753906 86.304688 L 195.367188 86.367188 L 194.972656 86.421875 L 194.570312 86.472656 L 194.160156 86.515625 L 193.738281 86.558594 L 193.3125 86.59375 L 192.878906 86.621094 L 192.4375 86.644531 L 191.957031 86.660156 L 191.460938 86.671875 "/>
<path style="fill:none;stroke-width:1;stroke-linecap:square;stroke-linejoin:miter;stroke:rgb(100%,0%,0%);stroke-opacity:1;stroke-miterlimit:3.25;" d="M 298.851562 86.675781 L 298.09375 86.667969 L 297.714844 86.65625 L 297.355469 86.640625 L 297.015625 86.625 L 296.351562 86.578125 L 296.027344 86.550781 L 295.707031 86.519531 L 295.390625 86.484375 L 295.082031 86.449219 L 294.773438 86.410156 L 294.472656 86.367188 L 294.175781 86.320312 L 293.882812 86.269531 L 293.597656 86.21875 L 293.316406 86.167969 L 293.039062 86.109375 L 292.765625 86.050781 L 292.496094 85.992188 L 292.234375 85.929688 L 291.976562 85.867188 L 291.722656 85.800781 L 291.476562 85.730469 L 291.230469 85.664062 L 290.992188 85.589844 L 290.761719 85.519531 L 290.53125 85.445312 L 290.308594 85.371094 L 290.089844 85.292969 L 289.875 85.21875 L 289.667969 85.140625 L 289.464844 85.058594 L 289.265625 84.980469 L 289.070312 84.902344 L 288.695312 84.738281 L 288.34375 84.574219 L 288.171875 84.496094 L 288.007812 84.414062 L 287.847656 84.332031 L 287.691406 84.25 L 287.542969 84.167969 L 287.398438 84.085938 L 287.253906 84.007812 L 287.117188 83.929688 L 286.988281 83.847656 L 286.859375 83.769531 L 286.738281 83.691406 L 286.617188 83.617188 L 286.503906 83.542969 L 286.394531 83.46875 L 286.289062 83.394531 L 286.1875 83.324219 L 286 83.183594 L 285.828125 83.050781 L 285.75 82.988281 "/>
<path style="fill:none;stroke-width:1;stroke-linecap:butt;stroke-linejoin:miter;stroke:rgb(0%,0%,100%);stroke-opacity:1;stroke-dasharray:0.827664;stroke-miterlimit:3.25;" d="M 285.945312 86.675781 L 285.945312 86.367188 L 285.941406 86.304688 L 285.941406 86.117188 L 285.9375 86.054688 L 285.9375 85.871094 L 285.933594 85.808594 L 285.933594 85.746094 L 285.929688 85.683594 L 285.929688 85.625 L 285.925781 85.5625 L 285.925781 85.5 L 285.921875 85.4375 L 285.921875 85.375 L 285.917969 85.316406 L 285.914062 85.253906 L 285.914062 85.191406 L 285.90625 85.066406 L 285.90625 85.007812 L 285.894531 84.820312 L 285.890625 84.761719 L 285.890625 84.699219 L 285.886719 84.636719 L 285.882812 84.578125 L 285.871094 84.390625 L 285.867188 84.332031 L 285.859375 84.207031 L 285.851562 84.148438 L 285.84375 84.023438 L 285.839844 83.964844 L 285.835938 83.902344 L 285.828125 83.839844 L 285.824219 83.78125 L 285.820312 83.71875 L 285.8125 83.65625 L 285.808594 83.597656 L 285.804688 83.535156 L 285.796875 83.472656 L 285.792969 83.414062 L 285.785156 83.351562 L 285.78125 83.289062 L 285.773438 83.230469 L 285.769531 83.167969 L 285.761719 83.109375 L 285.753906 83.046875 L 285.75 82.988281 "/>
<path style="fill:none;stroke-width:1;stroke-linecap:butt;stroke-linejoin:miter;stroke:rgb(0%,0%,100%);stroke-opacity:1;stroke-dasharray:0.827664;stroke-miterlimit:3.25;" d="M 204.089844 82.988281 L 204.085938 83.046875 L 204.078125 83.109375 L 204.074219 83.167969 L 204.066406 83.230469 L 204.058594 83.289062 L 204.054688 83.351562 L 204.046875 83.414062 L 204.042969 83.472656 L 204.039062 83.535156 L 204.03125 83.597656 L 204.027344 83.65625 L 204.019531 83.71875 L 204.015625 83.78125 L 204.011719 83.839844 L 204.007812 83.902344 L 204 83.964844 L 203.996094 84.023438 L 203.988281 84.148438 L 203.984375 84.207031 L 203.980469 84.269531 L 203.972656 84.332031 L 203.96875 84.390625 L 203.957031 84.578125 L 203.957031 84.636719 L 203.949219 84.761719 L 203.945312 84.820312 L 203.9375 84.945312 L 203.9375 85.007812 L 203.933594 85.066406 L 203.925781 85.191406 L 203.925781 85.253906 L 203.921875 85.316406 L 203.917969 85.375 L 203.917969 85.4375 L 203.914062 85.5 L 203.914062 85.5625 L 203.910156 85.625 L 203.910156 85.683594 L 203.90625 85.746094 L 203.90625 85.871094 L 203.902344 85.933594 L 203.902344 86.054688 L 203.898438 86.117188 L 203.898438 86.425781 L 203.894531 86.488281 L 203.894531 86.675781 "/>
<path style="fill:none;stroke-width:1;stroke-linecap:square;stroke-linejoin:miter;stroke:rgb(0%,0%,100%);stroke-opacity:1;stroke-miterlimit:3.25;" d="M 285.75 82.988281 L 285.441406 80.625 L 285.035156 78.296875 L 284.527344 76.011719 L 283.921875 73.769531 L 283.21875 71.578125 L 282.425781 69.4375 L 281.539062 67.355469 L 280.5625 65.332031 L 279.5 63.371094 L 278.351562 61.480469 L 277.125 59.660156 L 275.824219 57.914062 L 274.445312 56.246094 L 272.996094 54.65625 L 271.480469 53.152344 L 269.898438 51.734375 L 268.257812 50.40625 L 266.5625 49.171875 L 264.8125 48.03125 L 263.015625 46.988281 L 261.175781 46.042969 L 259.292969 45.195312 L 257.375 44.457031 L 255.425781 43.820312 L 253.449219 43.289062 L 251.453125 42.867188 L 249.441406 42.558594 L 247.417969 42.359375 L 245.390625 42.277344 L 243.363281 42.308594 L 241.339844 42.453125 L 239.324219 42.707031 L 237.316406 43.078125 L 235.332031 43.558594 L 233.367188 44.144531 L 231.4375 44.839844 L 229.539062 45.636719 L 227.675781 46.535156 L 225.859375 47.53125 L 224.085938 48.628906 L 222.363281 49.820312 L 220.695312 51.105469 L 219.089844 52.484375 L 217.542969 53.945312 L 216.0625 55.496094 L 214.648438 57.125 L 213.3125 58.835938 L 212.046875 60.625 L 210.863281 62.484375 L 209.761719 64.410156 L 208.746094 66.40625 L 207.816406 68.460938 L 206.980469 70.574219 L 206.234375 72.746094 L 205.582031 74.964844 L 205.027344 77.230469 L 204.574219 79.535156 L 204.222656 81.882812 "/>
<path style=" stroke:none;fill-rule:evenodd;fill:rgb(0%,0%,100%);fill-opacity:1;" d="M 267.25 48 C 267.25 47.402344 267.011719 46.832031 266.589844 46.410156 C 266.167969 45.988281 265.597656 45.75 265 45.75 C 264.402344 45.75 263.832031 45.988281 263.410156 46.410156 C 262.988281 46.832031 262.75 47.402344 262.75 48 C 262.75 48.597656 262.988281 49.167969 263.410156 49.589844 C 263.832031 50.011719 264.402344 50.25 265 50.25 C 265.597656 50.25 266.167969 50.011719 266.589844 49.589844 C 267.011719 49.167969 267.25 48.597656 267.25 48 Z M 267.25 48 "/>
<path style=" stroke:none;fill-rule:evenodd;fill:rgb(0%,0%,0%);fill-opacity:1;" d="M 272.191406 43.296875 L 272.191406 42.824219 L 271.421875 42.824219 L 269.5625 40.582031 L 270.835938 39.117188 C 270.960938 38.972656 271.058594 38.886719 271.96875 38.886719 L 271.96875 38.414062 L 270.960938 38.433594 C 270.640625 38.433594 270.167969 38.433594 269.859375 38.414062 L 269.859375 38.886719 C 270.066406 38.886719 270.296875 38.941406 270.296875 39.019531 C 270.296875 39.019531 270.242188 39.117188 270.222656 39.140625 L 269.265625 40.21875 L 268.175781 38.886719 L 268.636719 38.886719 L 268.636719 38.414062 C 268.386719 38.433594 267.636719 38.433594 267.339844 38.433594 C 267.007812 38.433594 266.414062 38.433594 266.105469 38.414062 L 266.105469 38.886719 L 266.886719 38.886719 L 268.605469 40.976562 L 267.175781 42.59375 C 267.042969 42.746094 266.964844 42.824219 266.050781 42.824219 L 266.050781 43.296875 L 267.074219 43.277344 C 267.394531 43.277344 267.855469 43.277344 268.164062 43.296875 L 268.164062 42.824219 C 267.957031 42.824219 267.722656 42.769531 267.722656 42.691406 C 267.722656 42.691406 267.722656 42.671875 267.800781 42.582031 L 268.902344 41.339844 L 270.121094 42.824219 L 269.660156 42.824219 L 269.660156 43.296875 C 269.925781 43.277344 270.660156 43.277344 270.96875 43.277344 C 271.300781 43.277344 271.882812 43.277344 272.191406 43.296875 Z M 272.191406 43.296875 "/>
<path style=" stroke:none;fill-rule:evenodd;fill:rgb(0%,0%,0%);fill-opacity:1;" d="M 276.800781 43.140625 C 276.800781 42.789062 276.683594 42.511719 276.480469 42.300781 C 276.25 42.046875 275.996094 41.988281 275.636719 41.894531 L 274.941406 41.726562 C 274.714844 41.671875 274.285156 41.519531 274.285156 40.984375 C 274.285156 40.390625 274.929688 39.75 275.707031 39.75 C 276.394531 39.75 276.867188 40.109375 276.867188 40.933594 C 276.867188 41.113281 276.839844 41.277344 276.839844 41.304688 C 276.839844 41.398438 276.90625 41.414062 276.960938 41.414062 C 277.050781 41.414062 277.058594 41.382812 277.089844 41.261719 L 277.480469 39.726562 C 277.488281 39.695312 277.503906 39.648438 277.503906 39.609375 C 277.503906 39.558594 277.457031 39.519531 277.402344 39.519531 C 277.347656 39.519531 277.335938 39.535156 277.25 39.625 C 277.167969 39.726562 276.96875 39.96875 276.882812 40.0625 C 276.585938 39.625 276.105469 39.519531 275.714844 39.519531 C 274.652344 39.519531 273.742188 40.410156 273.742188 41.285156 C 273.742188 41.726562 273.980469 41.988281 274.019531 42.039062 C 274.273438 42.308594 274.492188 42.367188 275.042969 42.496094 C 275.308594 42.566406 275.324219 42.566406 275.546875 42.621094 C 275.769531 42.675781 276.257812 42.796875 276.257812 43.429688 C 276.257812 44.097656 275.597656 44.804688 274.796875 44.804688 C 274.300781 44.804688 273.390625 44.652344 273.390625 43.707031 C 273.390625 43.683594 273.390625 43.523438 273.4375 43.339844 L 273.445312 43.261719 C 273.445312 43.171875 273.363281 43.164062 273.332031 43.164062 C 273.230469 43.164062 273.226562 43.191406 273.1875 43.371094 L 272.875 44.613281 C 272.84375 44.730469 272.789062 44.933594 272.789062 44.957031 C 272.789062 45.019531 272.835938 45.058594 272.886719 45.058594 C 272.941406 45.058594 272.949219 45.050781 273.03125 44.949219 C 273.085938 44.890625 273.078125 44.890625 273.398438 44.523438 C 273.574219 44.753906 274.011719 45.058594 274.78125 45.058594 C 275.890625 45.058594 276.800781 44.058594 276.800781 43.140625 Z M 276.800781 43.140625 "/>
<path style=" stroke:none;fill-rule:evenodd;fill:rgb(0%,0%,0%);fill-opacity:1;" d="M 282.121094 44.554688 C 282.121094 44.507812 282.082031 44.472656 282.03125 44.472656 C 281.933594 44.472656 281.820312 44.488281 281.71875 44.488281 C 281.609375 44.488281 281.5 44.496094 281.382812 44.496094 L 280.929688 44.488281 C 280.78125 44.488281 280.613281 44.472656 280.464844 44.472656 C 280.421875 44.472656 280.382812 44.472656 280.359375 44.511719 C 280.351562 44.527344 280.328125 44.59375 280.328125 44.617188 C 280.34375 44.691406 280.382812 44.691406 280.5625 44.691406 C 280.667969 44.691406 280.78125 44.699219 280.882812 44.707031 C 281.066406 44.722656 281.078125 44.742188 281.078125 44.804688 C 281.078125 44.835938 280.976562 45.210938 280.960938 45.277344 C 280.933594 45.398438 280.878906 45.613281 280.515625 45.761719 C 280.195312 45.890625 279.832031 45.890625 279.761719 45.890625 C 279.128906 45.890625 278.398438 45.601562 278.398438 44.675781 C 278.398438 44.316406 278.53125 43.578125 279.085938 42.992188 C 279.265625 42.808594 279.839844 42.34375 280.625 42.34375 C 281.320312 42.34375 281.703125 42.832031 281.703125 43.429688 C 281.703125 43.519531 281.6875 43.632812 281.6875 43.632812 C 281.6875 43.714844 281.769531 43.714844 281.796875 43.714844 C 281.867188 43.714844 281.894531 43.707031 281.921875 43.59375 L 282.25 42.285156 C 282.257812 42.234375 282.265625 42.199219 282.265625 42.199219 C 282.265625 42.199219 282.257812 42.125 282.183594 42.125 C 282.136719 42.125 282.132812 42.128906 282.078125 42.191406 L 281.71875 42.566406 L 281.664062 42.609375 C 281.664062 42.609375 281.65625 42.601562 281.636719 42.589844 C 281.5 42.433594 281.203125 42.125 280.5625 42.125 C 279.179688 42.125 277.820312 43.285156 277.820312 44.535156 C 277.820312 45.402344 278.507812 46.113281 279.636719 46.113281 C 280.035156 46.113281 280.636719 46.046875 280.988281 45.6875 C 281.023438 45.761719 281.179688 45.996094 281.265625 45.996094 C 281.285156 45.996094 281.3125 45.980469 281.324219 45.964844 C 281.34375 45.921875 281.492188 45.308594 281.523438 45.195312 L 281.59375 44.914062 C 281.648438 44.699219 281.664062 44.699219 281.984375 44.691406 C 282.039062 44.691406 282.121094 44.691406 282.121094 44.554688 Z M 282.121094 44.554688 "/>
<path style=" stroke:none;fill-rule:evenodd;fill:rgb(0%,0%,0%);fill-opacity:1;" d="M 287.128906 45.96875 C 287.128906 45.9375 287.128906 45.914062 286.941406 45.726562 C 285.839844 44.617188 285.222656 42.800781 285.222656 40.558594 C 285.222656 38.421875 285.738281 36.585938 287.015625 35.289062 C 287.128906 35.191406 287.128906 35.167969 287.128906 35.136719 C 287.128906 35.066406 287.074219 35.046875 287.027344 35.046875 C 286.886719 35.046875 285.980469 35.835938 285.441406 36.917969 C 284.882812 38.027344 284.628906 39.203125 284.628906 40.558594 C 284.628906 41.535156 284.785156 42.847656 285.355469 44.023438 C 286.003906 45.34375 286.90625 46.058594 287.027344 46.058594 C 287.074219 46.058594 287.128906 46.039062 287.128906 45.96875 Z M 287.128906 45.96875 "/>
<path style=" stroke:none;fill-rule:evenodd;fill:rgb(0%,0%,0%);fill-opacity:1;" d="M 291.09375 41.722656 C 291.09375 41.660156 291.050781 41.625 290.984375 41.625 C 290.984375 41.625 290.917969 41.625 290.898438 41.667969 C 290.898438 41.667969 290.875 41.691406 290.796875 41.867188 C 290.566406 42.417969 290.0625 43.1875 289.421875 43.1875 C 289.09375 43.1875 289.070312 42.914062 289.070312 42.671875 C 289.070312 42.671875 289.070312 42.449219 289.105469 42.316406 L 289.960938 38.875 L 290.972656 38.875 C 291.183594 38.875 291.292969 38.875 291.292969 38.675781 C 291.292969 38.554688 291.226562 38.554688 291.007812 38.554688 L 290.039062 38.554688 L 290.445312 36.949219 C 290.492188 36.796875 290.492188 36.773438 290.492188 36.695312 C 290.492188 36.519531 290.347656 36.421875 290.203125 36.421875 C 290.117188 36.421875 289.863281 36.453125 289.773438 36.804688 L 289.34375 38.554688 L 288.3125 38.554688 C 288.089844 38.554688 287.992188 38.554688 287.992188 38.765625 C 287.992188 38.875 288.070312 38.875 288.277344 38.875 L 289.257812 38.875 L 288.53125 41.777344 C 288.445312 42.164062 288.410156 42.273438 288.410156 42.417969 C 288.410156 42.933594 288.773438 43.40625 289.390625 43.40625 C 290.5 43.40625 291.09375 41.800781 291.09375 41.722656 Z M 291.09375 41.722656 "/>
<path style=" stroke:none;fill-rule:evenodd;fill:rgb(0%,0%,0%);fill-opacity:1;" d="M 294.652344 40.558594 C 294.652344 39.722656 294.542969 38.359375 293.925781 37.082031 C 293.277344 35.761719 292.375 35.046875 292.253906 35.046875 C 292.210938 35.046875 292.15625 35.066406 292.15625 35.136719 C 292.15625 35.167969 292.15625 35.191406 292.34375 35.375 C 293.441406 36.488281 294.058594 38.304688 294.058594 40.546875 C 294.058594 42.683594 293.542969 44.519531 292.265625 45.816406 C 292.15625 45.914062 292.15625 45.9375 292.15625 45.96875 C 292.15625 46.039062 292.210938 46.058594 292.253906 46.058594 C 292.398438 46.058594 293.300781 45.265625 293.839844 44.1875 C 294.398438 43.066406 294.652344 41.878906 294.652344 40.558594 Z M 294.652344 40.558594 "/>
<g clip-path="url(#clip92)" clip-rule="nonzero">
<path style="fill:none;stroke-width:1;stroke-linecap:square;stroke-linejoin:miter;stroke:rgb(0%,0%,0%);stroke-opacity:1;stroke-miterlimit:3.25;" d="M -159.007812 86.675781 L 668.769531 86.675781 "/>
<path style="fill:none;stroke-width:1;stroke-linecap:square;stroke-linejoin:miter;stroke:rgb(0%,0%,0%);stroke-opacity:1;stroke-miterlimit:3.25;" d="M -159.007812 86.675781 L 668.769531 86.675781 "/>
</g>
<path style=" stroke:none;fill-rule:evenodd;fill:rgb(0%,0%,0%);fill-opacity:1;" d="M 365.5625 77.636719 C 365.574219 77.582031 365.597656 77.515625 365.597656 77.449219 C 365.597656 77.285156 365.464844 77.175781 365.300781 77.175781 C 365.203125 77.175781 364.96875 77.21875 364.882812 77.546875 L 364.066406 80.785156 C 364.011719 80.980469 364.011719 81.003906 363.925781 81.125 C 363.703125 81.433594 363.34375 81.808594 362.8125 81.808594 C 362.195312 81.808594 362.140625 81.199219 362.140625 80.902344 C 362.140625 80.277344 362.4375 79.429688 362.734375 78.636719 C 362.859375 78.320312 362.921875 78.164062 362.921875 77.945312 C 362.921875 77.484375 362.59375 77.0625 362.054688 77.0625 C 361.042969 77.0625 360.636719 78.660156 360.636719 78.746094 C 360.636719 78.792969 360.679688 78.847656 360.757812 78.847656 C 360.855469 78.847656 360.867188 78.800781 360.910156 78.648438 C 361.175781 77.726562 361.59375 77.285156 362.019531 77.285156 C 362.121094 77.285156 362.308594 77.285156 362.308594 77.648438 C 362.308594 77.933594 362.1875 78.253906 362.019531 78.671875 C 361.480469 80.113281 361.480469 80.472656 361.480469 80.738281 C 361.480469 81.785156 362.230469 82.027344 362.78125 82.027344 C 363.101562 82.027344 363.496094 81.925781 363.882812 81.519531 L 363.890625 81.53125 C 363.726562 82.179688 363.617188 82.609375 363.230469 83.148438 C 362.933594 83.566406 362.503906 83.941406 361.964844 83.941406 C 361.835938 83.941406 361.308594 83.917969 361.140625 83.414062 C 361.175781 83.425781 361.253906 83.425781 361.253906 83.425781 C 361.582031 83.425781 361.800781 83.136719 361.800781 82.886719 C 361.800781 82.632812 361.59375 82.542969 361.425781 82.542969 C 361.253906 82.542969 360.867188 82.675781 360.867188 83.214844 C 360.867188 83.777344 361.339844 84.160156 361.964844 84.160156 C 363.066406 84.160156 364.179688 83.148438 364.484375 81.925781 Z M 365.5625 77.636719 "/>
<path style=" stroke:none;fill-rule:evenodd;fill:rgb(0%,0%,0%);fill-opacity:1;" d="M 376.816406 78.15625 C 376.816406 77.945312 376.628906 77.945312 376.464844 77.945312 L 369.984375 77.945312 C 369.828125 77.945312 369.632812 77.945312 369.632812 78.144531 C 369.632812 78.351562 369.820312 78.351562 369.984375 78.351562 L 376.464844 78.351562 C 376.617188 78.351562 376.816406 78.351562 376.816406 78.15625 Z M 376.816406 80.199219 C 376.816406 79.992188 376.628906 79.992188 376.464844 79.992188 L 369.984375 79.992188 C 369.828125 79.992188 369.632812 79.992188 369.632812 80.1875 C 369.632812 80.398438 369.820312 80.398438 369.984375 80.398438 L 376.464844 80.398438 C 376.617188 80.398438 376.816406 80.398438 376.816406 80.199219 Z M 376.816406 80.199219 "/>
<path style=" stroke:none;fill-rule:evenodd;fill:rgb(0%,0%,0%);fill-opacity:1;" d="M 385.367188 78.394531 C 385.367188 77.484375 385.3125 76.59375 384.914062 75.753906 C 384.460938 74.84375 383.671875 74.601562 383.132812 74.601562 C 382.492188 74.601562 381.710938 74.917969 381.304688 75.832031 C 380.996094 76.523438 380.886719 77.207031 380.886719 78.394531 C 380.886719 79.464844 380.964844 80.265625 381.359375 81.046875 C 381.789062 81.882812 382.546875 82.148438 383.121094 82.148438 C 384.078125 82.148438 384.628906 81.574219 384.945312 80.9375 C 385.34375 80.113281 385.367188 79.035156 385.367188 78.394531 Z M 384.53125 78.265625 C 384.53125 79 384.53125 79.835938 384.40625 80.507812 C 384.199219 81.71875 383.507812 81.925781 383.121094 81.925781 C 382.769531 81.925781 382.054688 81.730469 381.84375 80.53125 C 381.722656 79.871094 381.722656 79.035156 381.722656 78.265625 C 381.722656 77.363281 381.722656 76.546875 381.898438 75.898438 C 382.085938 75.160156 382.648438 74.820312 383.121094 74.820312 C 383.539062 74.820312 384.175781 75.074219 384.386719 76.019531 C 384.53125 76.648438 384.53125 77.515625 384.53125 78.265625 Z M 384.53125 78.265625 "/>
<g clip-path="url(#clip93)" clip-rule="nonzero">
<path style="fill:none;stroke-width:1;stroke-linecap:square;stroke-linejoin:miter;stroke:rgb(0%,0%,0%);stroke-opacity:1;stroke-miterlimit:3.25;" d="M -159.007812 19.835938 L 668.769531 19.835938 "/>
<path style="fill:none;stroke-width:1;stroke-linecap:square;stroke-linejoin:miter;stroke:rgb(0%,0%,0%);stroke-opacity:1;stroke-miterlimit:3.25;" d="M -159.007812 19.835938 L 668.769531 19.835938 "/>
</g>
<path style=" stroke:none;fill-rule:evenodd;fill:rgb(0%,0%,0%);fill-opacity:1;" d="M 365.5625 10.796875 C 365.574219 10.738281 365.597656 10.675781 365.597656 10.609375 C 365.597656 10.441406 365.464844 10.332031 365.300781 10.332031 C 365.203125 10.332031 364.96875 10.378906 364.882812 10.707031 L 364.066406 13.941406 C 364.011719 14.140625 364.011719 14.160156 363.925781 14.285156 C 363.703125 14.589844 363.34375 14.964844 362.8125 14.964844 C 362.195312 14.964844 362.140625 14.359375 362.140625 14.0625 C 362.140625 13.4375 362.4375 12.589844 362.734375 11.796875 C 362.859375 11.476562 362.921875 11.324219 362.921875 11.105469 C 362.921875 10.640625 362.59375 10.222656 362.054688 10.222656 C 361.042969 10.222656 360.636719 11.816406 360.636719 11.90625 C 360.636719 11.949219 360.679688 12.003906 360.757812 12.003906 C 360.855469 12.003906 360.867188 11.960938 360.910156 11.808594 C 361.175781 10.882812 361.59375 10.441406 362.019531 10.441406 C 362.121094 10.441406 362.308594 10.441406 362.308594 10.808594 C 362.308594 11.09375 362.1875 11.410156 362.019531 11.832031 C 361.480469 13.269531 361.480469 13.632812 361.480469 13.898438 C 361.480469 14.941406 362.230469 15.183594 362.78125 15.183594 C 363.101562 15.183594 363.496094 15.085938 363.882812 14.679688 L 363.890625 14.691406 C 363.726562 15.339844 363.617188 15.769531 363.230469 16.308594 C 362.933594 16.726562 362.503906 17.101562 361.964844 17.101562 C 361.835938 17.101562 361.308594 17.078125 361.140625 16.570312 C 361.175781 16.582031 361.253906 16.582031 361.253906 16.582031 C 361.582031 16.582031 361.800781 16.296875 361.800781 16.042969 C 361.800781 15.792969 361.59375 15.703125 361.425781 15.703125 C 361.253906 15.703125 360.867188 15.835938 360.867188 16.375 C 360.867188 16.933594 361.339844 17.320312 361.964844 17.320312 C 363.066406 17.320312 364.179688 16.308594 364.484375 15.085938 Z M 365.5625 10.796875 "/>
<path style=" stroke:none;fill-rule:evenodd;fill:rgb(0%,0%,0%);fill-opacity:1;" d="M 376.816406 11.3125 C 376.816406 11.105469 376.628906 11.105469 376.464844 11.105469 L 369.984375 11.105469 C 369.828125 11.105469 369.632812 11.105469 369.632812 11.300781 C 369.632812 11.511719 369.820312 11.511719 369.984375 11.511719 L 376.464844 11.511719 C 376.617188 11.511719 376.816406 11.511719 376.816406 11.3125 Z M 376.816406 13.359375 C 376.816406 13.152344 376.628906 13.152344 376.464844 13.152344 L 369.984375 13.152344 C 369.828125 13.152344 369.632812 13.152344 369.632812 13.347656 C 369.632812 13.558594 369.820312 13.558594 369.984375 13.558594 L 376.464844 13.558594 C 376.617188 13.558594 376.816406 13.558594 376.816406 13.359375 Z M 376.816406 13.359375 "/>
<path style=" stroke:none;fill-rule:evenodd;fill:rgb(0%,0%,0%);fill-opacity:1;" d="M 384.945312 15.074219 L 384.945312 14.757812 L 384.605469 14.757812 C 383.636719 14.757812 383.605469 14.625 383.605469 14.230469 L 383.605469 8.023438 C 383.605469 7.769531 383.605469 7.757812 383.382812 7.757812 C 383.121094 8.054688 382.570312 8.464844 381.4375 8.464844 L 381.4375 8.78125 C 381.691406 8.78125 382.242188 8.78125 382.84375 8.496094 L 382.84375 14.230469 C 382.84375 14.625 382.8125 14.757812 381.84375 14.757812 L 381.503906 14.757812 L 381.503906 15.074219 C 381.800781 15.054688 382.867188 15.054688 383.230469 15.054688 C 383.59375 15.054688 384.648438 15.054688 384.945312 15.074219 Z M 384.945312 15.074219 "/>
</g>
</svg>
