<?xml version="1.0" encoding="UTF-8"?>
<svg xmlns="http://www.w3.org/2000/svg" xmlns:xlink="http://www.w3.org/1999/xlink" width="227pt" height="81pt" viewBox="0 0 227 81" version="1.1">
<defs>
<clipPath id="clip1">
  <path d="M 140 69 L 141 69 L 141 80.878906 L 140 80.878906 Z M 140 69 "/>
</clipPath>
<clipPath id="clip2">
  <path d="M 140 69 L 141 69 L 141 80.878906 L 140 80.878906 Z M 140 69 "/>
</clipPath>
<clipPath id="clip3">
  <path d="M 197 11 L 199 11 L 199 80.878906 L 197 80.878906 Z M 197 11 "/>
</clipPath>
<clipPath id="clip4">
  <path d="M 197 11 L 199 11 L 199 80.878906 L 197 80.878906 Z M 197 11 "/>
</clipPath>
<clipPath id="clip5">
  <path d="M 0 61 L 141 61 L 141 80.878906 L 0 80.878906 Z M 0 61 "/>
</clipPath>
<clipPath id="clip6">
  <path d="M 138 61 L 149 61 L 149 80.878906 L 138 80.878906 Z M 138 61 "/>
</clipPath>
<clipPath id="clip7">
  <path d="M 138 61 L 149 61 L 149 80.878906 L 138 80.878906 Z M 138 61 "/>
</clipPath>
<clipPath id="clip8">
  <path d="M 191 0 L 207 0 L 207 80.878906 L 191 80.878906 Z M 191 0 "/>
</clipPath>
<clipPath id="clip9">
  <path d="M 0 54 L 139 54 L 139 80.878906 L 0 80.878906 Z M 0 54 "/>
</clipPath>
<clipPath id="clip10">
  <path d="M 136 54 L 158 54 L 158 80.878906 L 136 80.878906 Z M 136 54 "/>
</clipPath>
<clipPath id="clip11">
  <path d="M 136 54 L 158 54 L 158 80.878906 L 136 80.878906 Z M 136 54 "/>
</clipPath>
<clipPath id="clip12">
  <path d="M 183 0 L 216 0 L 216 80.878906 L 183 80.878906 Z M 183 0 "/>
</clipPath>
<clipPath id="clip13">
  <path d="M 0 48 L 136 48 L 136 80.878906 L 0 80.878906 Z M 0 48 "/>
</clipPath>
<clipPath id="clip14">
  <path d="M 134 48 L 166 48 L 166 80.878906 L 134 80.878906 Z M 134 48 "/>
</clipPath>
<clipPath id="clip15">
  <path d="M 134 48 L 166 48 L 166 80.878906 L 134 80.878906 Z M 134 48 "/>
</clipPath>
<clipPath id="clip16">
  <path d="M 0 0 L 177 0 L 177 80.878906 L 0 80.878906 Z M 0 0 "/>
</clipPath>
<clipPath id="clip17">
  <path d="M 174 0 L 226 0 L 226 80.878906 L 174 80.878906 Z M 174 0 "/>
</clipPath>
<clipPath id="clip18">
  <path d="M 0 43 L 133 43 L 133 80.878906 L 0 80.878906 Z M 0 43 "/>
</clipPath>
<clipPath id="clip19">
  <path d="M 130 43 L 175 43 L 175 80.878906 L 130 80.878906 Z M 130 43 "/>
</clipPath>
<clipPath id="clip20">
  <path d="M 0 0 L 167 0 L 167 80.878906 L 0 80.878906 Z M 0 0 "/>
</clipPath>
<clipPath id="clip21">
  <path d="M 165 0 L 226.800781 0 L 226.800781 80.878906 L 165 80.878906 Z M 165 0 "/>
</clipPath>
<clipPath id="clip22">
  <path d="M 0 38 L 128 38 L 128 80.878906 L 0 80.878906 Z M 0 38 "/>
</clipPath>
<clipPath id="clip23">
  <path d="M 126 38 L 185 38 L 185 80.878906 L 126 80.878906 Z M 126 38 "/>
</clipPath>
<clipPath id="clip24">
  <path d="M 0 0 L 156 0 L 156 80.878906 L 0 80.878906 Z M 0 0 "/>
</clipPath>
<clipPath id="clip25">
  <path d="M 154 0 L 226.800781 0 L 226.800781 80.878906 L 154 80.878906 Z M 154 0 "/>
</clipPath>
<clipPath id="clip26">
  <path d="M 0 35 L 123 35 L 123 80.878906 L 0 80.878906 Z M 0 35 "/>
</clipPath>
<clipPath id="clip27">
  <path d="M 121 35 L 196 35 L 196 80.878906 L 121 80.878906 Z M 121 35 "/>
</clipPath>
<clipPath id="clip28">
  <path d="M 0 0 L 144 0 L 144 80.878906 L 0 80.878906 Z M 0 0 "/>
</clipPath>
<clipPath id="clip29">
  <path d="M 142 0 L 226.800781 0 L 226.800781 80.878906 L 142 80.878906 Z M 142 0 "/>
</clipPath>
<clipPath id="clip30">
  <path d="M 0 32 L 118 32 L 118 80.878906 L 0 80.878906 Z M 0 32 "/>
</clipPath>
<clipPath id="clip31">
  <path d="M 115 32 L 208 32 L 208 80.878906 L 115 80.878906 Z M 115 32 "/>
</clipPath>
<clipPath id="clip32">
  <path d="M 0 0 L 132 0 L 132 80.878906 L 0 80.878906 Z M 0 0 "/>
</clipPath>
<clipPath id="clip33">
  <path d="M 129 0 L 226.800781 0 L 226.800781 80.878906 L 129 80.878906 Z M 129 0 "/>
</clipPath>
<clipPath id="clip34">
  <path d="M 0 30 L 112 30 L 112 80.878906 L 0 80.878906 Z M 0 30 "/>
</clipPath>
<clipPath id="clip35">
  <path d="M 109 30 L 221 30 L 221 80.878906 L 109 80.878906 Z M 109 30 "/>
</clipPath>
<clipPath id="clip36">
  <path d="M 0 0 L 119 0 L 119 80.878906 L 0 80.878906 Z M 0 0 "/>
</clipPath>
<clipPath id="clip37">
  <path d="M 117 0 L 226.800781 0 L 226.800781 80.878906 L 117 80.878906 Z M 117 0 "/>
</clipPath>
<clipPath id="clip38">
  <path d="M 0 30 L 106 30 L 106 80.878906 L 0 80.878906 Z M 0 30 "/>
</clipPath>
<clipPath id="clip39">
  <path d="M 103 30 L 226.800781 30 L 226.800781 80.878906 L 103 80.878906 Z M 103 30 "/>
</clipPath>
<clipPath id="clip40">
  <path d="M 0 0 L 106 0 L 106 80.878906 L 0 80.878906 Z M 0 0 "/>
</clipPath>
<clipPath id="clip41">
  <path d="M 103 0 L 226.800781 0 L 226.800781 80.878906 L 103 80.878906 Z M 103 0 "/>
</clipPath>
<clipPath id="clip42">
  <path d="M 0 30 L 100 30 L 100 80.878906 L 0 80.878906 Z M 0 30 "/>
</clipPath>
<clipPath id="clip43">
  <path d="M 97 30 L 226.800781 30 L 226.800781 80.878906 L 97 80.878906 Z M 97 30 "/>
</clipPath>
<clipPath id="clip44">
  <path d="M 0 0 L 93 0 L 93 80.878906 L 0 80.878906 Z M 0 0 "/>
</clipPath>
<clipPath id="clip45">
  <path d="M 90 0 L 226.800781 0 L 226.800781 80.878906 L 90 80.878906 Z M 90 0 "/>
</clipPath>
<clipPath id="clip46">
  <path d="M 2 32 L 94 32 L 94 80.878906 L 2 80.878906 Z M 2 32 "/>
</clipPath>
<clipPath id="clip47">
  <path d="M 92 32 L 226.800781 32 L 226.800781 80.878906 L 92 80.878906 Z M 92 32 "/>
</clipPath>
<clipPath id="clip48">
  <path d="M 0 0 L 80 0 L 80 80.878906 L 0 80.878906 Z M 0 0 "/>
</clipPath>
<clipPath id="clip49">
  <path d="M 78 0 L 226.800781 0 L 226.800781 80.878906 L 78 80.878906 Z M 78 0 "/>
</clipPath>
<clipPath id="clip50">
  <path d="M 14 35 L 89 35 L 89 80.878906 L 14 80.878906 Z M 14 35 "/>
</clipPath>
<clipPath id="clip51">
  <path d="M 86 35 L 226.800781 35 L 226.800781 80.878906 L 86 80.878906 Z M 86 35 "/>
</clipPath>
<clipPath id="clip52">
  <path d="M 0 0 L 68 0 L 68 80.878906 L 0 80.878906 Z M 0 0 "/>
</clipPath>
<clipPath id="clip53">
  <path d="M 65 0 L 226.800781 0 L 226.800781 80.878906 L 65 80.878906 Z M 65 0 "/>
</clipPath>
<clipPath id="clip54">
  <path d="M 24 38 L 84 38 L 84 80.878906 L 24 80.878906 Z M 24 38 "/>
</clipPath>
<clipPath id="clip55">
  <path d="M 81 38 L 226.800781 38 L 226.800781 80.878906 L 81 80.878906 Z M 81 38 "/>
</clipPath>
<clipPath id="clip56">
  <path d="M 0 0 L 56 0 L 56 80.878906 L 0 80.878906 Z M 0 0 "/>
</clipPath>
<clipPath id="clip57">
  <path d="M 53 0 L 226.800781 0 L 226.800781 80.878906 L 53 80.878906 Z M 53 0 "/>
</clipPath>
<clipPath id="clip58">
  <path d="M 34 43 L 79 43 L 79 80.878906 L 34 80.878906 Z M 34 43 "/>
</clipPath>
<clipPath id="clip59">
  <path d="M 77 43 L 226.800781 43 L 226.800781 80.878906 L 77 80.878906 Z M 77 43 "/>
</clipPath>
<clipPath id="clip60">
  <path d="M 0 0 L 45 0 L 45 80.878906 L 0 80.878906 Z M 0 0 "/>
</clipPath>
<clipPath id="clip61">
  <path d="M 42 0 L 226.800781 0 L 226.800781 80.878906 L 42 80.878906 Z M 42 0 "/>
</clipPath>
<clipPath id="clip62">
  <path d="M 43 48 L 76 48 L 76 80.878906 L 43 80.878906 Z M 43 48 "/>
</clipPath>
<clipPath id="clip63">
  <path d="M 73 48 L 226.800781 48 L 226.800781 80.878906 L 73 80.878906 Z M 73 48 "/>
</clipPath>
<clipPath id="clip64">
  <path d="M 0 0 L 35 0 L 35 80.878906 L 0 80.878906 Z M 0 0 "/>
</clipPath>
<clipPath id="clip65">
  <path d="M 33 0 L 226.800781 0 L 226.800781 80.878906 L 33 80.878906 Z M 33 0 "/>
</clipPath>
<clipPath id="clip66">
  <path d="M 52 54 L 73 54 L 73 80.878906 L 52 80.878906 Z M 52 54 "/>
</clipPath>
<clipPath id="clip67">
  <path d="M 71 54 L 226.800781 54 L 226.800781 80.878906 L 71 80.878906 Z M 71 54 "/>
</clipPath>
<clipPath id="clip68">
  <path d="M 0 0 L 26 0 L 26 80.878906 L 0 80.878906 Z M 0 0 "/>
</clipPath>
<clipPath id="clip69">
  <path d="M 24 0 L 226.800781 0 L 226.800781 60 L 24 60 Z M 24 0 "/>
</clipPath>
<clipPath id="clip70">
  <path d="M 60 61 L 71 61 L 71 80.878906 L 60 80.878906 Z M 60 61 "/>
</clipPath>
<clipPath id="clip71">
  <path d="M 69 61 L 226.800781 61 L 226.800781 80.878906 L 69 80.878906 Z M 69 61 "/>
</clipPath>
<clipPath id="clip72">
  <path d="M 2 0 L 19 0 L 19 80.878906 L 2 80.878906 Z M 2 0 "/>
</clipPath>
<clipPath id="clip73">
  <path d="M 16 0 L 226.800781 0 L 226.800781 36 L 16 36 Z M 16 0 "/>
</clipPath>
<clipPath id="clip74">
  <path d="M 69 69 L 70 69 L 70 80.878906 L 69 80.878906 Z M 69 69 "/>
</clipPath>
<clipPath id="clip75">
  <path d="M 69 69 L 226.800781 69 L 226.800781 70 L 69 70 Z M 69 69 "/>
</clipPath>
<clipPath id="clip76">
  <path d="M 11 11 L 12 11 L 12 80.878906 L 11 80.878906 Z M 11 11 "/>
</clipPath>
<clipPath id="clip77">
  <path d="M 11 11 L 226.800781 11 L 226.800781 12 L 11 12 Z M 11 11 "/>
</clipPath>
<clipPath id="clip78">
  <path d="M 0 69 L 226.800781 69 L 226.800781 70 L 0 70 Z M 0 69 "/>
</clipPath>
<clipPath id="clip79">
  <path d="M 0 11 L 226.800781 11 L 226.800781 12 L 0 12 Z M 0 11 "/>
</clipPath>
</defs>
<g id="surface14">
<path style="fill:none;stroke-width:0.166667;stroke-linecap:square;stroke-linejoin:miter;stroke:rgb(85.000381%,85.000381%,85.000381%);stroke-opacity:1;stroke-miterlimit:3.25;" d="M -206.269531 69.285156 L 140.164062 69.285156 "/>
<g clip-path="url(#clip1)" clip-rule="nonzero">
<path style="fill:none;stroke-width:0.166667;stroke-linecap:square;stroke-linejoin:miter;stroke:rgb(85.000381%,85.000381%,85.000381%);stroke-opacity:1;stroke-miterlimit:3.25;" d="M 140.164062 161.714844 L 140.164062 69.285156 "/>
</g>
<path style=" stroke:none;fill-rule:nonzero;fill:rgb(85.000381%,85.000381%,85.000381%);fill-opacity:1;" d="M 140.164062 69.285156 L 140.246094 69.371094 L 140.246094 69.203125 L 140.164062 69.203125 Z M 140.164062 69.285156 "/>
<g clip-path="url(#clip2)" clip-rule="nonzero">
<path style="fill:none;stroke-width:0.166667;stroke-linecap:square;stroke-linejoin:miter;stroke:rgb(85.000381%,85.000381%,85.000381%);stroke-opacity:1;stroke-miterlimit:3.25;" d="M 140.164062 161.714844 L 140.164062 69.285156 "/>
</g>
<path style=" stroke:none;fill-rule:nonzero;fill:rgb(85.000381%,85.000381%,85.000381%);fill-opacity:1;" d="M 140.164062 69.285156 L 140.246094 69.371094 L 140.246094 69.203125 L 140.164062 69.203125 Z M 140.164062 69.285156 "/>
<path style="fill:none;stroke-width:0.166667;stroke-linecap:square;stroke-linejoin:miter;stroke:rgb(85.000381%,85.000381%,85.000381%);stroke-opacity:1;stroke-miterlimit:3.25;" d="M -206.269531 11.546875 L 197.902344 11.546875 "/>
<g clip-path="url(#clip3)" clip-rule="nonzero">
<path style="fill:none;stroke-width:0.166667;stroke-linecap:square;stroke-linejoin:miter;stroke:rgb(85.000381%,85.000381%,85.000381%);stroke-opacity:1;stroke-miterlimit:3.25;" d="M 197.902344 161.714844 L 197.902344 11.546875 "/>
</g>
<path style=" stroke:none;fill-rule:nonzero;fill:rgb(85.000381%,85.000381%,85.000381%);fill-opacity:1;" d="M 197.902344 11.546875 L 197.984375 11.632812 L 197.984375 11.464844 L 197.902344 11.464844 Z M 197.902344 11.546875 "/>
<g clip-path="url(#clip4)" clip-rule="nonzero">
<path style="fill:none;stroke-width:0.166667;stroke-linecap:square;stroke-linejoin:miter;stroke:rgb(85.000381%,85.000381%,85.000381%);stroke-opacity:1;stroke-miterlimit:3.25;" d="M 197.902344 161.714844 L 197.902344 11.546875 "/>
</g>
<path style=" stroke:none;fill-rule:nonzero;fill:rgb(85.000381%,85.000381%,85.000381%);fill-opacity:1;" d="M 197.902344 11.546875 L 197.984375 11.632812 L 197.984375 11.464844 L 197.902344 11.464844 Z M 197.902344 11.546875 "/>
<g clip-path="url(#clip5)" clip-rule="nonzero">
<path style="fill:none;stroke-width:0.166667;stroke-linecap:square;stroke-linejoin:miter;stroke:rgb(85.000381%,85.000381%,85.000381%);stroke-opacity:1;stroke-miterlimit:3.25;" d="M -205.691406 92.476562 L 139.421875 62.28125 "/>
</g>
<g clip-path="url(#clip6)" clip-rule="nonzero">
<path style="fill:none;stroke-width:0.166667;stroke-linecap:square;stroke-linejoin:miter;stroke:rgb(85.000381%,85.000381%,85.000381%);stroke-opacity:1;stroke-miterlimit:3.25;" d="M 148.121094 161.714844 L 139.421875 62.28125 "/>
</g>
<path style=" stroke:none;fill-rule:nonzero;fill:rgb(85.000381%,85.000381%,85.000381%);fill-opacity:1;" d="M 139.421875 62.28125 L 139.503906 62.363281 L 139.5 62.191406 L 139.414062 62.199219 Z M 139.421875 62.28125 "/>
<g clip-path="url(#clip7)" clip-rule="nonzero">
<path style="fill:none;stroke-width:0.166667;stroke-linecap:square;stroke-linejoin:miter;stroke:rgb(85.000381%,85.000381%,85.000381%);stroke-opacity:1;stroke-miterlimit:3.25;" d="M 148.121094 161.714844 L 139.421875 62.28125 "/>
</g>
<path style=" stroke:none;fill-rule:nonzero;fill:rgb(85.000381%,85.000381%,85.000381%);fill-opacity:1;" d="M 139.421875 62.28125 L 139.503906 62.363281 L 139.5 62.191406 L 139.414062 62.199219 Z M 139.421875 62.28125 "/>
<path style="fill:none;stroke-width:0.166667;stroke-linecap:square;stroke-linejoin:miter;stroke:rgb(85.000381%,85.000381%,85.000381%);stroke-opacity:1;stroke-miterlimit:3.25;" d="M -210.726562 34.957031 L 191.910156 -0.269531 "/>
<g clip-path="url(#clip8)" clip-rule="nonzero">
<path style="fill:none;stroke-width:0.166667;stroke-linecap:square;stroke-linejoin:miter;stroke:rgb(85.000381%,85.000381%,85.000381%);stroke-opacity:1;stroke-miterlimit:3.25;" d="M 206.082031 161.714844 L 191.910156 -0.269531 "/>
<path style="fill:none;stroke-width:0.166667;stroke-linecap:square;stroke-linejoin:miter;stroke:rgb(85.000381%,85.000381%,85.000381%);stroke-opacity:1;stroke-miterlimit:3.25;" d="M 206.082031 161.714844 L 191.910156 -0.269531 "/>
</g>
<g clip-path="url(#clip9)" clip-rule="nonzero">
<path style="fill:none;stroke-width:0.166667;stroke-linecap:square;stroke-linejoin:miter;stroke:rgb(85.000381%,85.000381%,85.000381%);stroke-opacity:1;stroke-miterlimit:3.25;" d="M -203.5625 115.839844 L 137.609375 55.679688 "/>
</g>
<g clip-path="url(#clip10)" clip-rule="nonzero">
<path style="fill:none;stroke-width:0.166667;stroke-linecap:square;stroke-linejoin:miter;stroke:rgb(85.000381%,85.000381%,85.000381%);stroke-opacity:1;stroke-miterlimit:3.25;" d="M 156.304688 161.714844 L 137.609375 55.679688 "/>
</g>
<path style=" stroke:none;fill-rule:nonzero;fill:rgb(85.000381%,85.000381%,85.000381%);fill-opacity:1;" d="M 137.609375 55.679688 L 137.691406 55.761719 L 137.675781 55.585938 L 137.59375 55.597656 Z M 137.609375 55.679688 "/>
<g clip-path="url(#clip11)" clip-rule="nonzero">
<path style="fill:none;stroke-width:0.166667;stroke-linecap:square;stroke-linejoin:miter;stroke:rgb(85.000381%,85.000381%,85.000381%);stroke-opacity:1;stroke-miterlimit:3.25;" d="M 156.304688 161.714844 L 137.609375 55.679688 "/>
</g>
<path style=" stroke:none;fill-rule:nonzero;fill:rgb(85.000381%,85.000381%,85.000381%);fill-opacity:1;" d="M 137.609375 55.679688 L 137.691406 55.761719 L 137.675781 55.585938 L 137.59375 55.597656 Z M 137.609375 55.679688 "/>
<path style="fill:none;stroke-width:0.166667;stroke-linecap:square;stroke-linejoin:miter;stroke:rgb(85.000381%,85.000381%,85.000381%);stroke-opacity:1;stroke-miterlimit:3.25;" d="M -213.585938 58.976562 L 184.445312 -11.207031 "/>
<g clip-path="url(#clip12)" clip-rule="nonzero">
<path style="fill:none;stroke-width:0.166667;stroke-linecap:square;stroke-linejoin:miter;stroke:rgb(85.000381%,85.000381%,85.000381%);stroke-opacity:1;stroke-miterlimit:3.25;" d="M 214.9375 161.714844 L 184.445312 -11.207031 "/>
<path style="fill:none;stroke-width:0.166667;stroke-linecap:square;stroke-linejoin:miter;stroke:rgb(85.000381%,85.000381%,85.000381%);stroke-opacity:1;stroke-miterlimit:3.25;" d="M 214.9375 161.714844 L 184.445312 -11.207031 "/>
</g>
<g clip-path="url(#clip13)" clip-rule="nonzero">
<path style="fill:none;stroke-width:0.166667;stroke-linecap:square;stroke-linejoin:miter;stroke:rgb(85.000381%,85.000381%,85.000381%);stroke-opacity:1;stroke-miterlimit:3.25;" d="M -199.769531 139.285156 L 134.859375 49.625 "/>
</g>
<g clip-path="url(#clip14)" clip-rule="nonzero">
<path style="fill:none;stroke-width:0.166667;stroke-linecap:square;stroke-linejoin:miter;stroke:rgb(85.000381%,85.000381%,85.000381%);stroke-opacity:1;stroke-miterlimit:3.25;" d="M 164.894531 161.714844 L 134.859375 49.625 "/>
</g>
<path style=" stroke:none;fill-rule:nonzero;fill:rgb(85.000381%,85.000381%,85.000381%);fill-opacity:1;" d="M 134.859375 49.625 L 134.9375 49.703125 L 134.917969 49.519531 L 134.835938 49.542969 Z M 134.859375 49.625 "/>
<g clip-path="url(#clip15)" clip-rule="nonzero">
<path style="fill:none;stroke-width:0.166667;stroke-linecap:square;stroke-linejoin:miter;stroke:rgb(85.000381%,85.000381%,85.000381%);stroke-opacity:1;stroke-miterlimit:3.25;" d="M 164.894531 161.714844 L 134.859375 49.625 "/>
</g>
<path style=" stroke:none;fill-rule:nonzero;fill:rgb(85.000381%,85.000381%,85.000381%);fill-opacity:1;" d="M 134.859375 49.625 L 134.9375 49.703125 L 134.917969 49.519531 L 134.835938 49.542969 Z M 134.859375 49.625 "/>
<g clip-path="url(#clip16)" clip-rule="nonzero">
<path style="fill:none;stroke-width:0.166667;stroke-linecap:square;stroke-linejoin:miter;stroke:rgb(85.000381%,85.000381%,85.000381%);stroke-opacity:1;stroke-miterlimit:3.25;" d="M -214.714844 83.515625 L 175.6875 -21.09375 "/>
</g>
<g clip-path="url(#clip17)" clip-rule="nonzero">
<path style="fill:none;stroke-width:0.166667;stroke-linecap:square;stroke-linejoin:miter;stroke:rgb(85.000381%,85.000381%,85.000381%);stroke-opacity:1;stroke-miterlimit:3.25;" d="M 224.667969 161.714844 L 175.6875 -21.09375 "/>
<path style="fill:none;stroke-width:0.166667;stroke-linecap:square;stroke-linejoin:miter;stroke:rgb(85.000381%,85.000381%,85.000381%);stroke-opacity:1;stroke-miterlimit:3.25;" d="M 224.667969 161.714844 L 175.6875 -21.09375 "/>
</g>
<g clip-path="url(#clip18)" clip-rule="nonzero">
<path style="fill:none;stroke-width:0.166667;stroke-linecap:square;stroke-linejoin:miter;stroke:rgb(85.000381%,85.000381%,85.000381%);stroke-opacity:1;stroke-miterlimit:3.25;" d="M -191.511719 161.714844 L 131.257812 44.234375 "/>
<path style="fill:none;stroke-width:0.166667;stroke-linecap:square;stroke-linejoin:miter;stroke:rgb(85.000381%,85.000381%,85.000381%);stroke-opacity:1;stroke-miterlimit:3.25;" d="M -191.511719 161.714844 L 131.257812 44.234375 "/>
</g>
<path style=" stroke:none;fill-rule:nonzero;fill:rgb(85.000381%,85.000381%,85.000381%);fill-opacity:1;" d="M 131.257812 44.234375 L 131.230469 44.207031 L 131.308594 44.128906 L 131.335938 44.207031 Z M 131.257812 44.234375 "/>
<g clip-path="url(#clip19)" clip-rule="nonzero">
<path style="fill:none;stroke-width:0.166667;stroke-linecap:square;stroke-linejoin:miter;stroke:rgb(85.000381%,85.000381%,85.000381%);stroke-opacity:1;stroke-miterlimit:3.25;" d="M 174.015625 161.714844 L 131.257812 44.234375 "/>
<path style="fill:none;stroke-width:0.166667;stroke-linecap:square;stroke-linejoin:miter;stroke:rgb(85.000381%,85.000381%,85.000381%);stroke-opacity:1;stroke-miterlimit:3.25;" d="M 174.015625 161.714844 L 131.257812 44.234375 "/>
</g>
<g clip-path="url(#clip20)" clip-rule="nonzero">
<path style="fill:none;stroke-width:0.166667;stroke-linecap:square;stroke-linejoin:miter;stroke:rgb(85.000381%,85.000381%,85.000381%);stroke-opacity:1;stroke-miterlimit:3.25;" d="M -214.03125 108.464844 L 165.765625 -29.769531 "/>
</g>
<g clip-path="url(#clip21)" clip-rule="nonzero">
<path style="fill:none;stroke-width:0.166667;stroke-linecap:square;stroke-linejoin:miter;stroke:rgb(85.000381%,85.000381%,85.000381%);stroke-opacity:1;stroke-miterlimit:3.25;" d="M 235.460938 161.714844 L 165.765625 -29.769531 "/>
<path style="fill:none;stroke-width:0.166667;stroke-linecap:square;stroke-linejoin:miter;stroke:rgb(85.000381%,85.000381%,85.000381%);stroke-opacity:1;stroke-miterlimit:3.25;" d="M 235.460938 161.714844 L 165.765625 -29.769531 "/>
</g>
<g clip-path="url(#clip22)" clip-rule="nonzero">
<path style="fill:none;stroke-width:0.166667;stroke-linecap:square;stroke-linejoin:miter;stroke:rgb(85.000381%,85.000381%,85.000381%);stroke-opacity:1;stroke-miterlimit:3.25;" d="M -134.886719 161.714844 L 126.914062 39.636719 "/>
<path style="fill:none;stroke-width:0.166667;stroke-linecap:square;stroke-linejoin:miter;stroke:rgb(85.000381%,85.000381%,85.000381%);stroke-opacity:1;stroke-miterlimit:3.25;" d="M -134.886719 161.714844 L 126.914062 39.636719 "/>
</g>
<path style=" stroke:none;fill-rule:nonzero;fill:rgb(85.000381%,85.000381%,85.000381%);fill-opacity:1;" d="M 126.914062 39.636719 L 126.878906 39.601562 L 126.953125 39.527344 L 126.988281 39.601562 Z M 126.914062 39.636719 "/>
<g clip-path="url(#clip23)" clip-rule="nonzero">
<path style="fill:none;stroke-width:0.166667;stroke-linecap:square;stroke-linejoin:miter;stroke:rgb(85.000381%,85.000381%,85.000381%);stroke-opacity:1;stroke-miterlimit:3.25;" d="M 183.839844 161.714844 L 126.914062 39.636719 "/>
<path style="fill:none;stroke-width:0.166667;stroke-linecap:square;stroke-linejoin:miter;stroke:rgb(85.000381%,85.000381%,85.000381%);stroke-opacity:1;stroke-miterlimit:3.25;" d="M 183.839844 161.714844 L 126.914062 39.636719 "/>
</g>
<g clip-path="url(#clip24)" clip-rule="nonzero">
<path style="fill:none;stroke-width:0.166667;stroke-linecap:square;stroke-linejoin:miter;stroke:rgb(85.000381%,85.000381%,85.000381%);stroke-opacity:1;stroke-miterlimit:3.25;" d="M -211.464844 133.714844 L 154.839844 -37.09375 "/>
</g>
<g clip-path="url(#clip25)" clip-rule="nonzero">
<path style="fill:none;stroke-width:0.166667;stroke-linecap:square;stroke-linejoin:miter;stroke:rgb(85.000381%,85.000381%,85.000381%);stroke-opacity:1;stroke-miterlimit:3.25;" d="M 247.546875 161.714844 L 154.839844 -37.09375 "/>
<path style="fill:none;stroke-width:0.166667;stroke-linecap:square;stroke-linejoin:miter;stroke:rgb(85.000381%,85.000381%,85.000381%);stroke-opacity:1;stroke-miterlimit:3.25;" d="M 247.546875 161.714844 L 154.839844 -37.09375 "/>
</g>
<g clip-path="url(#clip26)" clip-rule="nonzero">
<path style="fill:none;stroke-width:0.166667;stroke-linecap:square;stroke-linejoin:miter;stroke:rgb(85.000381%,85.000381%,85.000381%);stroke-opacity:1;stroke-miterlimit:3.25;" d="M -95.925781 161.714844 L 121.945312 35.925781 "/>
<path style="fill:none;stroke-width:0.166667;stroke-linecap:square;stroke-linejoin:miter;stroke:rgb(85.000381%,85.000381%,85.000381%);stroke-opacity:1;stroke-miterlimit:3.25;" d="M -95.925781 161.714844 L 121.945312 35.925781 "/>
</g>
<path style=" stroke:none;fill-rule:nonzero;fill:rgb(85.000381%,85.000381%,85.000381%);fill-opacity:1;" d="M 121.945312 35.925781 L 121.902344 35.886719 L 121.976562 35.8125 L 122.015625 35.886719 Z M 121.945312 35.925781 "/>
<g clip-path="url(#clip27)" clip-rule="nonzero">
<path style="fill:none;stroke-width:0.166667;stroke-linecap:square;stroke-linejoin:miter;stroke:rgb(85.000381%,85.000381%,85.000381%);stroke-opacity:1;stroke-miterlimit:3.25;" d="M 194.566406 161.714844 L 121.945312 35.925781 "/>
<path style="fill:none;stroke-width:0.166667;stroke-linecap:square;stroke-linejoin:miter;stroke:rgb(85.000381%,85.000381%,85.000381%);stroke-opacity:1;stroke-miterlimit:3.25;" d="M 194.566406 161.714844 L 121.945312 35.925781 "/>
</g>
<g clip-path="url(#clip28)" clip-rule="nonzero">
<path style="fill:none;stroke-width:0.166667;stroke-linecap:square;stroke-linejoin:miter;stroke:rgb(85.000381%,85.000381%,85.000381%);stroke-opacity:1;stroke-miterlimit:3.25;" d="M -206.945312 159.140625 L 143.078125 -42.945312 "/>
</g>
<g clip-path="url(#clip29)" clip-rule="nonzero">
<path style="fill:none;stroke-width:0.166667;stroke-linecap:square;stroke-linejoin:miter;stroke:rgb(85.000381%,85.000381%,85.000381%);stroke-opacity:1;stroke-miterlimit:3.25;" d="M 261.238281 161.714844 L 143.078125 -42.945312 "/>
<path style="fill:none;stroke-width:0.166667;stroke-linecap:square;stroke-linejoin:miter;stroke:rgb(85.000381%,85.000381%,85.000381%);stroke-opacity:1;stroke-miterlimit:3.25;" d="M 261.238281 161.714844 L 143.078125 -42.945312 "/>
</g>
<g clip-path="url(#clip30)" clip-rule="nonzero">
<path style="fill:none;stroke-width:0.166667;stroke-linecap:square;stroke-linejoin:miter;stroke:rgb(85.000381%,85.000381%,85.000381%);stroke-opacity:1;stroke-miterlimit:3.25;" d="M -67.058594 161.714844 L 116.488281 33.191406 "/>
<path style="fill:none;stroke-width:0.166667;stroke-linecap:square;stroke-linejoin:miter;stroke:rgb(85.000381%,85.000381%,85.000381%);stroke-opacity:1;stroke-miterlimit:3.25;" d="M -67.058594 161.714844 L 116.488281 33.191406 "/>
</g>
<path style=" stroke:none;fill-rule:nonzero;fill:rgb(85.000381%,85.000381%,85.000381%);fill-opacity:1;" d="M 116.488281 33.191406 L 116.441406 33.144531 L 116.507812 33.078125 L 116.554688 33.144531 Z M 116.488281 33.191406 "/>
<g clip-path="url(#clip31)" clip-rule="nonzero">
<path style="fill:none;stroke-width:0.166667;stroke-linecap:square;stroke-linejoin:miter;stroke:rgb(85.000381%,85.000381%,85.000381%);stroke-opacity:1;stroke-miterlimit:3.25;" d="M 206.480469 161.714844 L 116.488281 33.191406 "/>
<path style="fill:none;stroke-width:0.166667;stroke-linecap:square;stroke-linejoin:miter;stroke:rgb(85.000381%,85.000381%,85.000381%);stroke-opacity:1;stroke-miterlimit:3.25;" d="M 206.480469 161.714844 L 116.488281 33.191406 "/>
</g>
<g clip-path="url(#clip32)" clip-rule="nonzero">
<path style="fill:none;stroke-width:0.166667;stroke-linecap:square;stroke-linejoin:miter;stroke:rgb(85.000381%,85.000381%,85.000381%);stroke-opacity:1;stroke-miterlimit:3.25;" d="M -167.722656 161.714844 L 130.667969 -47.222656 "/>
<path style="fill:none;stroke-width:0.166667;stroke-linecap:square;stroke-linejoin:miter;stroke:rgb(85.000381%,85.000381%,85.000381%);stroke-opacity:1;stroke-miterlimit:3.25;" d="M -167.722656 161.714844 L 130.667969 -47.222656 "/>
</g>
<g clip-path="url(#clip33)" clip-rule="nonzero">
<path style="fill:none;stroke-width:0.166667;stroke-linecap:square;stroke-linejoin:miter;stroke:rgb(85.000381%,85.000381%,85.000381%);stroke-opacity:1;stroke-miterlimit:3.25;" d="M 276.964844 161.714844 L 130.667969 -47.222656 "/>
<path style="fill:none;stroke-width:0.166667;stroke-linecap:square;stroke-linejoin:miter;stroke:rgb(85.000381%,85.000381%,85.000381%);stroke-opacity:1;stroke-miterlimit:3.25;" d="M 276.964844 161.714844 L 130.667969 -47.222656 "/>
</g>
<g clip-path="url(#clip34)" clip-rule="nonzero">
<path style="fill:none;stroke-width:0.166667;stroke-linecap:square;stroke-linejoin:miter;stroke:rgb(85.000381%,85.000381%,85.000381%);stroke-opacity:1;stroke-miterlimit:3.25;" d="M -44.488281 161.714844 L 110.691406 31.503906 "/>
<path style="fill:none;stroke-width:0.166667;stroke-linecap:square;stroke-linejoin:miter;stroke:rgb(85.000381%,85.000381%,85.000381%);stroke-opacity:1;stroke-miterlimit:3.25;" d="M -44.488281 161.714844 L 110.691406 31.503906 "/>
</g>
<path style=" stroke:none;fill-rule:nonzero;fill:rgb(85.000381%,85.000381%,85.000381%);fill-opacity:1;" d="M 110.691406 31.503906 L 110.636719 31.449219 L 110.699219 31.386719 L 110.753906 31.449219 Z M 110.691406 31.503906 "/>
<g clip-path="url(#clip35)" clip-rule="nonzero">
<path style="fill:none;stroke-width:0.166667;stroke-linecap:square;stroke-linejoin:miter;stroke:rgb(85.000381%,85.000381%,85.000381%);stroke-opacity:1;stroke-miterlimit:3.25;" d="M 219.949219 161.714844 L 110.691406 31.503906 "/>
<path style="fill:none;stroke-width:0.166667;stroke-linecap:square;stroke-linejoin:miter;stroke:rgb(85.000381%,85.000381%,85.000381%);stroke-opacity:1;stroke-miterlimit:3.25;" d="M 219.949219 161.714844 L 110.691406 31.503906 "/>
</g>
<g clip-path="url(#clip36)" clip-rule="nonzero">
<path style="fill:none;stroke-width:0.166667;stroke-linecap:square;stroke-linejoin:miter;stroke:rgb(85.000381%,85.000381%,85.000381%);stroke-opacity:1;stroke-miterlimit:3.25;" d="M -134.316406 161.714844 L 117.804688 -49.839844 "/>
<path style="fill:none;stroke-width:0.166667;stroke-linecap:square;stroke-linejoin:miter;stroke:rgb(85.000381%,85.000381%,85.000381%);stroke-opacity:1;stroke-miterlimit:3.25;" d="M -134.316406 161.714844 L 117.804688 -49.839844 "/>
</g>
<g clip-path="url(#clip37)" clip-rule="nonzero">
<path style="fill:none;stroke-width:0.166667;stroke-linecap:square;stroke-linejoin:miter;stroke:rgb(85.000381%,85.000381%,85.000381%);stroke-opacity:1;stroke-miterlimit:3.25;" d="M 295.320312 161.714844 L 117.804688 -49.839844 "/>
<path style="fill:none;stroke-width:0.166667;stroke-linecap:square;stroke-linejoin:miter;stroke:rgb(85.000381%,85.000381%,85.000381%);stroke-opacity:1;stroke-miterlimit:3.25;" d="M 295.320312 161.714844 L 117.804688 -49.839844 "/>
</g>
<g clip-path="url(#clip38)" clip-rule="nonzero">
<path style="fill:none;stroke-width:0.166667;stroke-linecap:square;stroke-linejoin:miter;stroke:rgb(85.000381%,85.000381%,85.000381%);stroke-opacity:1;stroke-miterlimit:3.25;" d="M -26.058594 161.714844 L 104.726562 30.933594 "/>
<path style="fill:none;stroke-width:0.166667;stroke-linecap:square;stroke-linejoin:miter;stroke:rgb(85.000381%,85.000381%,85.000381%);stroke-opacity:1;stroke-miterlimit:3.25;" d="M -26.058594 161.714844 L 104.726562 30.933594 "/>
</g>
<path style=" stroke:none;fill-rule:nonzero;fill:rgb(85.000381%,85.000381%,85.000381%);fill-opacity:1;" d="M 104.726562 30.933594 L 104.667969 30.875 L 104.726562 30.816406 L 104.785156 30.875 Z M 104.726562 30.933594 "/>
<g clip-path="url(#clip39)" clip-rule="nonzero">
<path style="fill:none;stroke-width:0.166667;stroke-linecap:square;stroke-linejoin:miter;stroke:rgb(85.000381%,85.000381%,85.000381%);stroke-opacity:1;stroke-miterlimit:3.25;" d="M 235.507812 161.714844 L 104.726562 30.933594 "/>
<path style="fill:none;stroke-width:0.166667;stroke-linecap:square;stroke-linejoin:miter;stroke:rgb(85.000381%,85.000381%,85.000381%);stroke-opacity:1;stroke-miterlimit:3.25;" d="M 235.507812 161.714844 L 104.726562 30.933594 "/>
</g>
<g clip-path="url(#clip40)" clip-rule="nonzero">
<path style="fill:none;stroke-width:0.166667;stroke-linecap:square;stroke-linejoin:miter;stroke:rgb(85.000381%,85.000381%,85.000381%);stroke-opacity:1;stroke-miterlimit:3.25;" d="M -107.710938 161.714844 L 104.726562 -50.722656 "/>
<path style="fill:none;stroke-width:0.166667;stroke-linecap:square;stroke-linejoin:miter;stroke:rgb(85.000381%,85.000381%,85.000381%);stroke-opacity:1;stroke-miterlimit:3.25;" d="M -107.710938 161.714844 L 104.726562 -50.722656 "/>
</g>
<g clip-path="url(#clip41)" clip-rule="nonzero">
<path style="fill:none;stroke-width:0.166667;stroke-linecap:square;stroke-linejoin:miter;stroke:rgb(85.000381%,85.000381%,85.000381%);stroke-opacity:1;stroke-miterlimit:3.25;" d="M 317.164062 161.714844 L 104.726562 -50.722656 "/>
<path style="fill:none;stroke-width:0.166667;stroke-linecap:square;stroke-linejoin:miter;stroke:rgb(85.000381%,85.000381%,85.000381%);stroke-opacity:1;stroke-miterlimit:3.25;" d="M 317.164062 161.714844 L 104.726562 -50.722656 "/>
</g>
<g clip-path="url(#clip42)" clip-rule="nonzero">
<path style="fill:none;stroke-width:0.166667;stroke-linecap:square;stroke-linejoin:miter;stroke:rgb(85.000381%,85.000381%,85.000381%);stroke-opacity:1;stroke-miterlimit:3.25;" d="M -10.5 161.714844 L 98.761719 31.503906 "/>
<path style="fill:none;stroke-width:0.166667;stroke-linecap:square;stroke-linejoin:miter;stroke:rgb(85.000381%,85.000381%,85.000381%);stroke-opacity:1;stroke-miterlimit:3.25;" d="M -10.5 161.714844 L 98.761719 31.503906 "/>
</g>
<path style=" stroke:none;fill-rule:nonzero;fill:rgb(85.000381%,85.000381%,85.000381%);fill-opacity:1;" d="M 98.761719 31.503906 L 98.695312 31.441406 L 98.75 31.386719 L 98.8125 31.441406 Z M 98.761719 31.503906 "/>
<g clip-path="url(#clip43)" clip-rule="nonzero">
<path style="fill:none;stroke-width:0.166667;stroke-linecap:square;stroke-linejoin:miter;stroke:rgb(85.000381%,85.000381%,85.000381%);stroke-opacity:1;stroke-miterlimit:3.25;" d="M 253.9375 161.714844 L 98.761719 31.503906 "/>
<path style="fill:none;stroke-width:0.166667;stroke-linecap:square;stroke-linejoin:miter;stroke:rgb(85.000381%,85.000381%,85.000381%);stroke-opacity:1;stroke-miterlimit:3.25;" d="M 253.9375 161.714844 L 98.761719 31.503906 "/>
</g>
<g clip-path="url(#clip44)" clip-rule="nonzero">
<path style="fill:none;stroke-width:0.166667;stroke-linecap:square;stroke-linejoin:miter;stroke:rgb(85.000381%,85.000381%,85.000381%);stroke-opacity:1;stroke-miterlimit:3.25;" d="M -85.871094 161.714844 L 91.644531 -49.839844 "/>
<path style="fill:none;stroke-width:0.166667;stroke-linecap:square;stroke-linejoin:miter;stroke:rgb(85.000381%,85.000381%,85.000381%);stroke-opacity:1;stroke-miterlimit:3.25;" d="M -85.871094 161.714844 L 91.644531 -49.839844 "/>
</g>
<g clip-path="url(#clip45)" clip-rule="nonzero">
<path style="fill:none;stroke-width:0.166667;stroke-linecap:square;stroke-linejoin:miter;stroke:rgb(85.000381%,85.000381%,85.000381%);stroke-opacity:1;stroke-miterlimit:3.25;" d="M 343.765625 161.714844 L 91.644531 -49.839844 "/>
<path style="fill:none;stroke-width:0.166667;stroke-linecap:square;stroke-linejoin:miter;stroke:rgb(85.000381%,85.000381%,85.000381%);stroke-opacity:1;stroke-miterlimit:3.25;" d="M 343.765625 161.714844 L 91.644531 -49.839844 "/>
</g>
<g clip-path="url(#clip46)" clip-rule="nonzero">
<path style="fill:none;stroke-width:0.166667;stroke-linecap:square;stroke-linejoin:miter;stroke:rgb(85.000381%,85.000381%,85.000381%);stroke-opacity:1;stroke-miterlimit:3.25;" d="M 2.96875 161.714844 L 92.960938 33.191406 "/>
<path style="fill:none;stroke-width:0.166667;stroke-linecap:square;stroke-linejoin:miter;stroke:rgb(85.000381%,85.000381%,85.000381%);stroke-opacity:1;stroke-miterlimit:3.25;" d="M 2.96875 161.714844 L 92.960938 33.191406 "/>
</g>
<path style=" stroke:none;fill-rule:nonzero;fill:rgb(85.000381%,85.000381%,85.000381%);fill-opacity:1;" d="M 92.960938 33.191406 L 92.894531 33.125 L 92.941406 33.078125 L 93.007812 33.125 Z M 92.960938 33.191406 "/>
<g clip-path="url(#clip47)" clip-rule="nonzero">
<path style="fill:none;stroke-width:0.166667;stroke-linecap:square;stroke-linejoin:miter;stroke:rgb(85.000381%,85.000381%,85.000381%);stroke-opacity:1;stroke-miterlimit:3.25;" d="M 276.507812 161.714844 L 92.960938 33.191406 "/>
<path style="fill:none;stroke-width:0.166667;stroke-linecap:square;stroke-linejoin:miter;stroke:rgb(85.000381%,85.000381%,85.000381%);stroke-opacity:1;stroke-miterlimit:3.25;" d="M 276.507812 161.714844 L 92.960938 33.191406 "/>
</g>
<g clip-path="url(#clip48)" clip-rule="nonzero">
<path style="fill:none;stroke-width:0.166667;stroke-linecap:square;stroke-linejoin:miter;stroke:rgb(85.000381%,85.000381%,85.000381%);stroke-opacity:1;stroke-miterlimit:3.25;" d="M -67.515625 161.714844 L 78.78125 -47.222656 "/>
<path style="fill:none;stroke-width:0.166667;stroke-linecap:square;stroke-linejoin:miter;stroke:rgb(85.000381%,85.000381%,85.000381%);stroke-opacity:1;stroke-miterlimit:3.25;" d="M -67.515625 161.714844 L 78.78125 -47.222656 "/>
</g>
<g clip-path="url(#clip49)" clip-rule="nonzero">
<path style="fill:none;stroke-width:0.166667;stroke-linecap:square;stroke-linejoin:miter;stroke:rgb(85.000381%,85.000381%,85.000381%);stroke-opacity:1;stroke-miterlimit:3.25;" d="M 377.175781 161.714844 L 78.78125 -47.222656 "/>
<path style="fill:none;stroke-width:0.166667;stroke-linecap:square;stroke-linejoin:miter;stroke:rgb(85.000381%,85.000381%,85.000381%);stroke-opacity:1;stroke-miterlimit:3.25;" d="M 377.175781 161.714844 L 78.78125 -47.222656 "/>
</g>
<g clip-path="url(#clip50)" clip-rule="nonzero">
<path style="fill:none;stroke-width:0.166667;stroke-linecap:square;stroke-linejoin:miter;stroke:rgb(85.000381%,85.000381%,85.000381%);stroke-opacity:1;stroke-miterlimit:3.25;" d="M 14.882812 161.714844 L 87.503906 35.925781 "/>
<path style="fill:none;stroke-width:0.166667;stroke-linecap:square;stroke-linejoin:miter;stroke:rgb(85.000381%,85.000381%,85.000381%);stroke-opacity:1;stroke-miterlimit:3.25;" d="M 14.882812 161.714844 L 87.503906 35.925781 "/>
</g>
<path style=" stroke:none;fill-rule:nonzero;fill:rgb(85.000381%,85.000381%,85.000381%);fill-opacity:1;" d="M 87.503906 35.925781 L 87.433594 35.855469 L 87.476562 35.8125 L 87.546875 35.855469 Z M 87.503906 35.925781 "/>
<g clip-path="url(#clip51)" clip-rule="nonzero">
<path style="fill:none;stroke-width:0.166667;stroke-linecap:square;stroke-linejoin:miter;stroke:rgb(85.000381%,85.000381%,85.000381%);stroke-opacity:1;stroke-miterlimit:3.25;" d="M 305.375 161.714844 L 87.503906 35.925781 "/>
<path style="fill:none;stroke-width:0.166667;stroke-linecap:square;stroke-linejoin:miter;stroke:rgb(85.000381%,85.000381%,85.000381%);stroke-opacity:1;stroke-miterlimit:3.25;" d="M 305.375 161.714844 L 87.503906 35.925781 "/>
</g>
<g clip-path="url(#clip52)" clip-rule="nonzero">
<path style="fill:none;stroke-width:0.166667;stroke-linecap:square;stroke-linejoin:miter;stroke:rgb(85.000381%,85.000381%,85.000381%);stroke-opacity:1;stroke-miterlimit:3.25;" d="M -51.789062 161.714844 L 66.371094 -42.945312 "/>
<path style="fill:none;stroke-width:0.166667;stroke-linecap:square;stroke-linejoin:miter;stroke:rgb(85.000381%,85.000381%,85.000381%);stroke-opacity:1;stroke-miterlimit:3.25;" d="M -51.789062 161.714844 L 66.371094 -42.945312 "/>
</g>
<g clip-path="url(#clip53)" clip-rule="nonzero">
<path style="fill:none;stroke-width:0.166667;stroke-linecap:square;stroke-linejoin:miter;stroke:rgb(85.000381%,85.000381%,85.000381%);stroke-opacity:1;stroke-miterlimit:3.25;" d="M 66.371094 -42.945312 L 416.394531 159.140625 "/>
</g>
<g clip-path="url(#clip54)" clip-rule="nonzero">
<path style="fill:none;stroke-width:0.166667;stroke-linecap:square;stroke-linejoin:miter;stroke:rgb(85.000381%,85.000381%,85.000381%);stroke-opacity:1;stroke-miterlimit:3.25;" d="M 25.613281 161.714844 L 82.539062 39.636719 "/>
<path style="fill:none;stroke-width:0.166667;stroke-linecap:square;stroke-linejoin:miter;stroke:rgb(85.000381%,85.000381%,85.000381%);stroke-opacity:1;stroke-miterlimit:3.25;" d="M 25.613281 161.714844 L 82.539062 39.636719 "/>
</g>
<path style=" stroke:none;fill-rule:nonzero;fill:rgb(85.000381%,85.000381%,85.000381%);fill-opacity:1;" d="M 82.539062 39.636719 L 82.460938 39.5625 L 82.496094 39.527344 L 82.574219 39.5625 Z M 82.539062 39.636719 "/>
<g clip-path="url(#clip55)" clip-rule="nonzero">
<path style="fill:none;stroke-width:0.166667;stroke-linecap:square;stroke-linejoin:miter;stroke:rgb(85.000381%,85.000381%,85.000381%);stroke-opacity:1;stroke-miterlimit:3.25;" d="M 344.335938 161.714844 L 82.539062 39.636719 "/>
<path style="fill:none;stroke-width:0.166667;stroke-linecap:square;stroke-linejoin:miter;stroke:rgb(85.000381%,85.000381%,85.000381%);stroke-opacity:1;stroke-miterlimit:3.25;" d="M 344.335938 161.714844 L 82.539062 39.636719 "/>
</g>
<g clip-path="url(#clip56)" clip-rule="nonzero">
<path style="fill:none;stroke-width:0.166667;stroke-linecap:square;stroke-linejoin:miter;stroke:rgb(85.000381%,85.000381%,85.000381%);stroke-opacity:1;stroke-miterlimit:3.25;" d="M -38.097656 161.714844 L 54.609375 -37.09375 "/>
<path style="fill:none;stroke-width:0.166667;stroke-linecap:square;stroke-linejoin:miter;stroke:rgb(85.000381%,85.000381%,85.000381%);stroke-opacity:1;stroke-miterlimit:3.25;" d="M -38.097656 161.714844 L 54.609375 -37.09375 "/>
</g>
<g clip-path="url(#clip57)" clip-rule="nonzero">
<path style="fill:none;stroke-width:0.166667;stroke-linecap:square;stroke-linejoin:miter;stroke:rgb(85.000381%,85.000381%,85.000381%);stroke-opacity:1;stroke-miterlimit:3.25;" d="M 54.609375 -37.09375 L 420.914062 133.714844 "/>
</g>
<g clip-path="url(#clip58)" clip-rule="nonzero">
<path style="fill:none;stroke-width:0.166667;stroke-linecap:square;stroke-linejoin:miter;stroke:rgb(85.000381%,85.000381%,85.000381%);stroke-opacity:1;stroke-miterlimit:3.25;" d="M 35.433594 161.714844 L 78.191406 44.234375 "/>
<path style="fill:none;stroke-width:0.166667;stroke-linecap:square;stroke-linejoin:miter;stroke:rgb(85.000381%,85.000381%,85.000381%);stroke-opacity:1;stroke-miterlimit:3.25;" d="M 35.433594 161.714844 L 78.191406 44.234375 "/>
</g>
<path style=" stroke:none;fill-rule:nonzero;fill:rgb(85.000381%,85.000381%,85.000381%);fill-opacity:1;" d="M 78.191406 44.234375 L 78.113281 44.15625 L 78.144531 44.128906 L 78.222656 44.15625 Z M 78.191406 44.234375 "/>
<g clip-path="url(#clip59)" clip-rule="nonzero">
<path style="fill:none;stroke-width:0.166667;stroke-linecap:square;stroke-linejoin:miter;stroke:rgb(85.000381%,85.000381%,85.000381%);stroke-opacity:1;stroke-miterlimit:3.25;" d="M 400.960938 161.714844 L 78.191406 44.234375 "/>
<path style="fill:none;stroke-width:0.166667;stroke-linecap:square;stroke-linejoin:miter;stroke:rgb(85.000381%,85.000381%,85.000381%);stroke-opacity:1;stroke-miterlimit:3.25;" d="M 400.960938 161.714844 L 78.191406 44.234375 "/>
</g>
<g clip-path="url(#clip60)" clip-rule="nonzero">
<path style="fill:none;stroke-width:0.166667;stroke-linecap:square;stroke-linejoin:miter;stroke:rgb(85.000381%,85.000381%,85.000381%);stroke-opacity:1;stroke-miterlimit:3.25;" d="M -26.011719 161.714844 L 43.683594 -29.769531 "/>
<path style="fill:none;stroke-width:0.166667;stroke-linecap:square;stroke-linejoin:miter;stroke:rgb(85.000381%,85.000381%,85.000381%);stroke-opacity:1;stroke-miterlimit:3.25;" d="M -26.011719 161.714844 L 43.683594 -29.769531 "/>
</g>
<g clip-path="url(#clip61)" clip-rule="nonzero">
<path style="fill:none;stroke-width:0.166667;stroke-linecap:square;stroke-linejoin:miter;stroke:rgb(85.000381%,85.000381%,85.000381%);stroke-opacity:1;stroke-miterlimit:3.25;" d="M 43.683594 -29.769531 L 423.484375 108.464844 "/>
</g>
<g clip-path="url(#clip62)" clip-rule="nonzero">
<path style="fill:none;stroke-width:0.166667;stroke-linecap:square;stroke-linejoin:miter;stroke:rgb(85.000381%,85.000381%,85.000381%);stroke-opacity:1;stroke-miterlimit:3.25;" d="M 44.558594 161.714844 L 74.589844 49.625 "/>
<path style="fill:none;stroke-width:0.166667;stroke-linecap:square;stroke-linejoin:miter;stroke:rgb(85.000381%,85.000381%,85.000381%);stroke-opacity:1;stroke-miterlimit:3.25;" d="M 44.558594 161.714844 L 74.589844 49.625 "/>
</g>
<path style=" stroke:none;fill-rule:nonzero;fill:rgb(85.000381%,85.000381%,85.000381%);fill-opacity:1;" d="M 74.589844 49.625 L 74.511719 49.542969 L 74.53125 49.519531 L 74.613281 49.542969 Z M 74.589844 49.625 "/>
<g clip-path="url(#clip63)" clip-rule="nonzero">
<path style="fill:none;stroke-width:0.166667;stroke-linecap:square;stroke-linejoin:miter;stroke:rgb(85.000381%,85.000381%,85.000381%);stroke-opacity:1;stroke-miterlimit:3.25;" d="M 74.589844 49.625 L 409.222656 139.285156 "/>
</g>
<g clip-path="url(#clip64)" clip-rule="nonzero">
<path style="fill:none;stroke-width:0.166667;stroke-linecap:square;stroke-linejoin:miter;stroke:rgb(85.000381%,85.000381%,85.000381%);stroke-opacity:1;stroke-miterlimit:3.25;" d="M -15.21875 161.714844 L 33.765625 -21.09375 "/>
<path style="fill:none;stroke-width:0.166667;stroke-linecap:square;stroke-linejoin:miter;stroke:rgb(85.000381%,85.000381%,85.000381%);stroke-opacity:1;stroke-miterlimit:3.25;" d="M -15.21875 161.714844 L 33.765625 -21.09375 "/>
</g>
<g clip-path="url(#clip65)" clip-rule="nonzero">
<path style="fill:none;stroke-width:0.166667;stroke-linecap:square;stroke-linejoin:miter;stroke:rgb(85.000381%,85.000381%,85.000381%);stroke-opacity:1;stroke-miterlimit:3.25;" d="M 33.765625 -21.09375 L 424.164062 83.515625 "/>
</g>
<g clip-path="url(#clip66)" clip-rule="nonzero">
<path style="fill:none;stroke-width:0.166667;stroke-linecap:square;stroke-linejoin:miter;stroke:rgb(85.000381%,85.000381%,85.000381%);stroke-opacity:1;stroke-miterlimit:3.25;" d="M 53.144531 161.714844 L 71.839844 55.679688 "/>
<path style="fill:none;stroke-width:0.166667;stroke-linecap:square;stroke-linejoin:miter;stroke:rgb(85.000381%,85.000381%,85.000381%);stroke-opacity:1;stroke-miterlimit:3.25;" d="M 53.144531 161.714844 L 71.839844 55.679688 "/>
</g>
<path style=" stroke:none;fill-rule:nonzero;fill:rgb(85.000381%,85.000381%,85.000381%);fill-opacity:1;" d="M 71.839844 55.679688 L 71.757812 55.597656 L 71.773438 55.585938 L 71.855469 55.597656 Z M 71.839844 55.679688 "/>
<g clip-path="url(#clip67)" clip-rule="nonzero">
<path style="fill:none;stroke-width:0.166667;stroke-linecap:square;stroke-linejoin:miter;stroke:rgb(85.000381%,85.000381%,85.000381%);stroke-opacity:1;stroke-miterlimit:3.25;" d="M 71.839844 55.679688 L 413.011719 115.839844 "/>
</g>
<g clip-path="url(#clip68)" clip-rule="nonzero">
<path style="fill:none;stroke-width:0.166667;stroke-linecap:square;stroke-linejoin:miter;stroke:rgb(85.000381%,85.000381%,85.000381%);stroke-opacity:1;stroke-miterlimit:3.25;" d="M -5.488281 161.714844 L 25.003906 -11.207031 "/>
<path style="fill:none;stroke-width:0.166667;stroke-linecap:square;stroke-linejoin:miter;stroke:rgb(85.000381%,85.000381%,85.000381%);stroke-opacity:1;stroke-miterlimit:3.25;" d="M -5.488281 161.714844 L 25.003906 -11.207031 "/>
</g>
<g clip-path="url(#clip69)" clip-rule="nonzero">
<path style="fill:none;stroke-width:0.166667;stroke-linecap:square;stroke-linejoin:miter;stroke:rgb(85.000381%,85.000381%,85.000381%);stroke-opacity:1;stroke-miterlimit:3.25;" d="M 25.003906 -11.207031 L 423.039062 58.976562 "/>
</g>
<g clip-path="url(#clip70)" clip-rule="nonzero">
<path style="fill:none;stroke-width:0.166667;stroke-linecap:square;stroke-linejoin:miter;stroke:rgb(85.000381%,85.000381%,85.000381%);stroke-opacity:1;stroke-miterlimit:3.25;" d="M 61.328125 161.714844 L 70.027344 62.28125 "/>
<path style="fill:none;stroke-width:0.166667;stroke-linecap:square;stroke-linejoin:miter;stroke:rgb(85.000381%,85.000381%,85.000381%);stroke-opacity:1;stroke-miterlimit:3.25;" d="M 61.328125 161.714844 L 70.027344 62.28125 "/>
</g>
<path style=" stroke:none;fill-rule:nonzero;fill:rgb(85.000381%,85.000381%,85.000381%);fill-opacity:1;" d="M 70.027344 62.28125 L 69.945312 62.199219 L 69.953125 62.191406 L 70.035156 62.199219 Z M 70.027344 62.28125 "/>
<g clip-path="url(#clip71)" clip-rule="nonzero">
<path style="fill:none;stroke-width:0.166667;stroke-linecap:square;stroke-linejoin:miter;stroke:rgb(85.000381%,85.000381%,85.000381%);stroke-opacity:1;stroke-miterlimit:3.25;" d="M 70.027344 62.28125 L 415.144531 92.476562 "/>
</g>
<g clip-path="url(#clip72)" clip-rule="nonzero">
<path style="fill:none;stroke-width:0.166667;stroke-linecap:square;stroke-linejoin:miter;stroke:rgb(85.000381%,85.000381%,85.000381%);stroke-opacity:1;stroke-miterlimit:3.25;" d="M 3.367188 161.714844 L 17.539062 -0.269531 "/>
<path style="fill:none;stroke-width:0.166667;stroke-linecap:square;stroke-linejoin:miter;stroke:rgb(85.000381%,85.000381%,85.000381%);stroke-opacity:1;stroke-miterlimit:3.25;" d="M 3.367188 161.714844 L 17.539062 -0.269531 "/>
</g>
<g clip-path="url(#clip73)" clip-rule="nonzero">
<path style="fill:none;stroke-width:0.166667;stroke-linecap:square;stroke-linejoin:miter;stroke:rgb(85.000381%,85.000381%,85.000381%);stroke-opacity:1;stroke-miterlimit:3.25;" d="M 17.539062 -0.269531 L 420.175781 34.957031 "/>
</g>
<g clip-path="url(#clip74)" clip-rule="nonzero">
<path style="fill:none;stroke-width:0.166667;stroke-linecap:square;stroke-linejoin:miter;stroke:rgb(85.000381%,85.000381%,85.000381%);stroke-opacity:1;stroke-miterlimit:3.25;" d="M 69.285156 161.714844 L 69.285156 69.285156 "/>
<path style="fill:none;stroke-width:0.166667;stroke-linecap:square;stroke-linejoin:miter;stroke:rgb(85.000381%,85.000381%,85.000381%);stroke-opacity:1;stroke-miterlimit:3.25;" d="M 69.285156 161.714844 L 69.285156 69.285156 "/>
</g>
<path style=" stroke:none;fill-rule:nonzero;fill:rgb(85.000381%,85.000381%,85.000381%);fill-opacity:1;" d="M 69.285156 69.285156 L 69.203125 69.203125 L 69.285156 69.203125 Z M 69.285156 69.285156 "/>
<g clip-path="url(#clip75)" clip-rule="nonzero">
<path style="fill:none;stroke-width:0.166667;stroke-linecap:square;stroke-linejoin:miter;stroke:rgb(85.000381%,85.000381%,85.000381%);stroke-opacity:1;stroke-miterlimit:3.25;" d="M 69.285156 69.285156 L 415.722656 69.285156 "/>
</g>
<g clip-path="url(#clip76)" clip-rule="nonzero">
<path style="fill:none;stroke-width:0.166667;stroke-linecap:square;stroke-linejoin:miter;stroke:rgb(85.000381%,85.000381%,85.000381%);stroke-opacity:1;stroke-miterlimit:3.25;" d="M 11.546875 161.714844 L 11.546875 11.546875 "/>
<path style="fill:none;stroke-width:0.166667;stroke-linecap:square;stroke-linejoin:miter;stroke:rgb(85.000381%,85.000381%,85.000381%);stroke-opacity:1;stroke-miterlimit:3.25;" d="M 11.546875 161.714844 L 11.546875 11.546875 "/>
</g>
<path style=" stroke:none;fill-rule:nonzero;fill:rgb(85.000381%,85.000381%,85.000381%);fill-opacity:1;" d="M 11.546875 11.546875 L 11.464844 11.464844 L 11.546875 11.464844 Z M 11.546875 11.546875 "/>
<g clip-path="url(#clip77)" clip-rule="nonzero">
<path style="fill:none;stroke-width:0.166667;stroke-linecap:square;stroke-linejoin:miter;stroke:rgb(85.000381%,85.000381%,85.000381%);stroke-opacity:1;stroke-miterlimit:3.25;" d="M 11.546875 11.546875 L 415.722656 11.546875 "/>
</g>
<path style="fill-rule:nonzero;fill:rgb(100%,100%,86.999313%);fill-opacity:1;stroke-width:0.5;stroke-linecap:square;stroke-linejoin:miter;stroke:rgb(0%,0%,0%);stroke-opacity:1;stroke-miterlimit:3.25;" d="M 139.992188 66.101562 L 139.730469 64.058594 L 139.378906 62.050781 L 138.9375 60.074219 L 138.414062 58.140625 L 137.808594 56.246094 L 137.121094 54.398438 L 136.355469 52.597656 L 135.511719 50.847656 L 134.59375 49.15625 L 133.605469 47.523438 L 132.546875 45.949219 L 131.417969 44.441406 L 130.230469 43 L 128.976562 41.628906 L 127.667969 40.328125 L 126.300781 39.105469 L 124.886719 37.957031 L 123.421875 36.890625 L 121.910156 35.90625 L 120.355469 35.003906 L 118.765625 34.1875 L 117.140625 33.457031 L 115.484375 32.816406 L 113.800781 32.265625 L 112.09375 31.808594 L 110.367188 31.445312 L 108.628906 31.175781 L 106.882812 31.007812 L 105.132812 30.933594 L 103.378906 30.960938 L 101.632812 31.085938 L 99.890625 31.308594 L 98.15625 31.625 L 96.441406 32.042969 L 94.746094 32.550781 L 93.078125 33.148438 L 91.4375 33.835938 L 89.828125 34.613281 L 88.257812 35.476562 L 86.726562 36.421875 L 85.242188 37.453125 L 83.800781 38.5625 L 82.410156 39.75 L 81.074219 41.015625 L 79.796875 42.351562 L 78.578125 43.761719 L 77.417969 45.238281 L 76.328125 46.78125 L 75.304688 48.390625 L 74.355469 50.054688 L 73.476562 51.777344 L 72.675781 53.554688 L 71.949219 55.378906 L 71.304688 57.253906 L 70.742188 59.167969 L 70.265625 61.125 L 69.875 63.121094 L 69.566406 65.148438 L 69.457031 66.101562 L 69.367188 66.171875 L 69.269531 66.246094 L 69.164062 66.324219 L 69.058594 66.40625 L 68.941406 66.484375 L 68.820312 66.570312 L 68.691406 66.652344 L 68.554688 66.742188 L 68.414062 66.828125 L 68.265625 66.917969 L 68.109375 67.007812 L 67.949219 67.097656 L 67.78125 67.191406 L 67.605469 67.28125 L 67.421875 67.375 L 67.230469 67.464844 L 67.035156 67.558594 L 66.832031 67.648438 L 66.617188 67.742188 L 66.398438 67.832031 L 66.175781 67.921875 L 65.941406 68.007812 L 65.703125 68.09375 L 65.453125 68.179688 L 65.199219 68.265625 L 64.9375 68.347656 L 64.667969 68.425781 L 64.390625 68.503906 L 64.109375 68.578125 L 63.816406 68.652344 L 63.519531 68.722656 L 63.210938 68.789062 L 62.898438 68.851562 L 62.582031 68.910156 L 62.253906 68.96875 L 61.917969 69.019531 L 61.578125 69.066406 L 61.230469 69.109375 L 60.875 69.152344 L 60.515625 69.183594 L 60.144531 69.214844 L 59.769531 69.238281 L 59.386719 69.257812 L 58.972656 69.273438 L 58.546875 69.285156 L 11.546875 69.285156 L 11.589844 68.332031 L 11.722656 66.292969 L 11.902344 64.28125 L 12.128906 62.292969 L 12.40625 60.335938 L 12.730469 58.410156 L 13.097656 56.515625 L 13.507812 54.652344 L 13.960938 52.824219 L 14.453125 51.03125 L 14.980469 49.277344 L 15.550781 47.558594 L 16.152344 45.882812 L 16.785156 44.246094 L 17.453125 42.652344 L 18.148438 41.101562 L 18.871094 39.59375 L 19.617188 38.128906 L 20.386719 36.710938 L 21.179688 35.335938 L 21.992188 34.011719 L 22.820312 32.730469 L 23.664062 31.496094 L 24.519531 30.308594 L 25.386719 29.171875 L 26.261719 28.082031 L 27.140625 27.042969 L 28.023438 26.050781 L 28.902344 25.113281 L 29.78125 24.222656 L 30.652344 23.382812 L 31.519531 22.589844 L 32.375 21.84375 L 33.246094 21.128906 L 34.242188 20.34375 L 35.246094 19.601562 L 36.25 18.894531 L 37.257812 18.222656 L 38.265625 17.585938 L 39.273438 16.984375 L 40.28125 16.417969 L 41.285156 15.890625 L 42.285156 15.394531 L 43.28125 14.929688 L 44.273438 14.5 L 45.257812 14.105469 L 46.230469 13.738281 L 47.199219 13.40625 L 48.15625 13.101562 L 49.101562 12.828125 L 50.035156 12.582031 L 50.960938 12.363281 L 51.867188 12.175781 L 52.765625 12.011719 L 53.644531 11.875 L 54.507812 11.765625 L 55.359375 11.675781 L 56.191406 11.613281 L 57.003906 11.570312 L 151.3125 11.546875 L 152.050781 11.558594 L 152.820312 11.585938 L 153.644531 11.640625 L 154.484375 11.714844 L 155.339844 11.8125 L 156.214844 11.9375 L 157.101562 12.085938 L 158.003906 12.261719 L 158.917969 12.460938 L 159.847656 12.691406 L 160.785156 12.949219 L 161.738281 13.238281 L 162.699219 13.554688 L 163.671875 13.90625 L 164.652344 14.285156 L 165.636719 14.695312 L 166.628906 15.140625 L 167.628906 15.621094 L 168.628906 16.132812 L 169.636719 16.679688 L 170.644531 17.257812 L 171.652344 17.875 L 172.660156 18.527344 L 173.667969 19.21875 L 174.671875 19.941406 L 175.671875 20.703125 L 176.621094 21.464844 L 177.472656 22.1875 L 178.335938 22.953125 L 179.203125 23.769531 L 180.078125 24.632812 L 180.957031 25.542969 L 181.835938 26.507812 L 182.71875 27.519531 L 183.597656 28.582031 L 184.46875 29.695312 L 185.328125 30.855469 L 186.179688 32.0625 L 187.015625 33.320312 L 187.839844 34.621094 L 188.640625 35.96875 L 189.421875 37.363281 L 190.183594 38.804688 L 190.921875 40.289062 L 191.628906 41.816406 L 192.3125 43.390625 L 192.964844 45.003906 L 193.582031 46.660156 L 194.167969 48.355469 L 194.71875 50.089844 L 195.230469 51.859375 L 195.707031 53.667969 L 196.136719 55.511719 L 196.527344 57.390625 L 196.875 59.300781 L 197.175781 61.242188 L 197.433594 63.214844 L 197.636719 65.214844 L 197.796875 67.238281 L 197.902344 69.285156 L 150.984375 69.285156 L 150.65625 69.28125 L 150.332031 69.269531 L 150.019531 69.257812 L 149.726562 69.242188 L 149.4375 69.226562 L 148.875 69.179688 L 148.597656 69.152344 L 148.324219 69.125 L 148.054688 69.089844 L 147.789062 69.054688 L 147.53125 69.019531 L 147.273438 68.980469 L 146.773438 68.894531 L 146.289062 68.800781 L 146.054688 68.75 L 145.824219 68.695312 L 145.597656 68.644531 L 145.371094 68.585938 L 145.15625 68.53125 L 144.941406 68.472656 L 144.730469 68.410156 L 144.523438 68.351562 L 144.324219 68.289062 L 144.125 68.222656 L 143.933594 68.160156 L 143.742188 68.09375 L 143.558594 68.027344 L 143.378906 67.960938 L 143.203125 67.890625 L 143.03125 67.824219 L 142.863281 67.753906 L 142.699219 67.683594 L 142.539062 67.613281 L 142.234375 67.472656 L 141.945312 67.332031 L 141.671875 67.191406 L 141.542969 67.121094 L 141.417969 67.050781 L 141.296875 66.984375 L 141.175781 66.914062 L 141.0625 66.84375 L 140.953125 66.777344 L 140.847656 66.710938 L 140.644531 66.578125 L 140.550781 66.515625 L 140.460938 66.453125 L 140.289062 66.328125 L 140.210938 66.269531 L 140.136719 66.210938 L 140.0625 66.15625 Z M 139.992188 66.101562 "/>
<path style="fill:none;stroke-width:0.333333;stroke-linecap:square;stroke-linejoin:miter;stroke:rgb(0%,0%,0%);stroke-opacity:1;stroke-miterlimit:3.25;" d="M 141.085938 64.753906 L 139.992188 66.101562 "/>
<path style="fill:none;stroke-width:0.333333;stroke-linecap:square;stroke-linejoin:miter;stroke:rgb(0%,0%,0%);stroke-opacity:1;stroke-miterlimit:3.25;" d="M 112.207031 30.054688 L 111.828125 31.746094 "/>
<path style="fill:none;stroke-width:0.333333;stroke-linecap:square;stroke-linejoin:miter;stroke:rgb(0%,0%,0%);stroke-opacity:1;stroke-miterlimit:3.25;" d="M 97.242188 30.054688 L 97.621094 31.746094 "/>
<path style="fill:none;stroke-width:0.333333;stroke-linecap:square;stroke-linejoin:miter;stroke:rgb(0%,0%,0%);stroke-opacity:1;stroke-miterlimit:3.25;" d="M 68.363281 64.753906 L 69.457031 66.101562 "/>
<path style="fill:none;stroke-width:0.333333;stroke-linecap:square;stroke-linejoin:miter;stroke:rgb(0%,0%,0%);stroke-opacity:1;stroke-miterlimit:3.25;" d="M 150.25 67.535156 L 150.183594 69.265625 "/>
<path style="fill:none;stroke-width:0.333333;stroke-linecap:square;stroke-linejoin:miter;stroke:rgb(0%,0%,0%);stroke-opacity:1;stroke-miterlimit:3.25;" d="M 151.3125 67.554688 L 151.3125 69.285156 "/>
<path style="fill:none;stroke-width:0.333333;stroke-linecap:square;stroke-linejoin:miter;stroke:rgb(0%,0%,0%);stroke-opacity:1;stroke-miterlimit:3.25;" d="M 59.199219 67.535156 L 59.265625 69.265625 "/>
<path style="fill:none;stroke-width:0.333333;stroke-linecap:square;stroke-linejoin:miter;stroke:rgb(0%,0%,0%);stroke-opacity:1;stroke-miterlimit:3.25;" d="M 58.136719 67.554688 L 58.136719 69.285156 "/>
<path style="fill:none;stroke-width:0.333333;stroke-linecap:square;stroke-linejoin:miter;stroke:rgb(0%,0%,0%);stroke-opacity:1;stroke-miterlimit:3.25;" d="M 182.113281 29.503906 L 183.460938 28.414062 "/>
<path style="fill:none;stroke-width:0.333333;stroke-linecap:square;stroke-linejoin:miter;stroke:rgb(0%,0%,0%);stroke-opacity:1;stroke-miterlimit:3.25;" d="M 175.265625 22.597656 L 176.359375 21.25 "/>
<path style="fill:none;stroke-width:0.333333;stroke-linecap:square;stroke-linejoin:miter;stroke:rgb(0%,0%,0%);stroke-opacity:1;stroke-miterlimit:3.25;" d="M 152.375 13.300781 L 152.445312 11.570312 "/>
<path style="fill:none;stroke-width:0.333333;stroke-linecap:square;stroke-linejoin:miter;stroke:rgb(0%,0%,0%);stroke-opacity:1;stroke-miterlimit:3.25;" d="M 151.3125 13.28125 L 151.3125 11.546875 "/>
<path style="fill:none;stroke-width:0.333333;stroke-linecap:square;stroke-linejoin:miter;stroke:rgb(0%,0%,0%);stroke-opacity:1;stroke-miterlimit:3.25;" d="M 27.335938 29.503906 L 25.988281 28.414062 "/>
<path style="fill:none;stroke-width:0.333333;stroke-linecap:square;stroke-linejoin:miter;stroke:rgb(0%,0%,0%);stroke-opacity:1;stroke-miterlimit:3.25;" d="M 34.183594 22.597656 L 33.089844 21.25 "/>
<path style="fill:none;stroke-width:0.333333;stroke-linecap:square;stroke-linejoin:miter;stroke:rgb(0%,0%,0%);stroke-opacity:1;stroke-miterlimit:3.25;" d="M 57.074219 13.300781 L 57.003906 11.570312 "/>
<path style="fill:none;stroke-width:0.333333;stroke-linecap:square;stroke-linejoin:miter;stroke:rgb(0%,0%,0%);stroke-opacity:1;stroke-miterlimit:3.25;" d="M 58.136719 13.28125 L 58.136719 11.546875 "/>
<path style="fill:none;stroke-width:0.333333;stroke-linecap:square;stroke-linejoin:miter;stroke:rgb(0%,0%,0%);stroke-opacity:1;stroke-miterlimit:3.25;" d="M 196.675781 68.0625 L 197.902344 69.285156 "/>
<path style="fill:none;stroke-width:0.333333;stroke-linecap:square;stroke-linejoin:miter;stroke:rgb(0%,0%,0%);stroke-opacity:1;stroke-miterlimit:3.25;" d="M 12.773438 68.0625 L 11.546875 69.285156 "/>
<path style="fill:none;stroke-width:0.5;stroke-linecap:square;stroke-linejoin:miter;stroke:rgb(100%,0%,0%);stroke-opacity:1;stroke-miterlimit:3.25;" d="M 69.457031 66.101562 L 69.367188 66.171875 L 69.269531 66.246094 L 69.164062 66.324219 L 69.058594 66.40625 L 68.941406 66.484375 L 68.820312 66.570312 L 68.691406 66.652344 L 68.554688 66.742188 L 68.414062 66.828125 L 68.265625 66.917969 L 68.109375 67.007812 L 67.949219 67.097656 L 67.78125 67.191406 L 67.605469 67.28125 L 67.421875 67.375 L 67.230469 67.464844 L 67.035156 67.558594 L 66.832031 67.648438 L 66.617188 67.742188 L 66.398438 67.832031 L 66.175781 67.921875 L 65.941406 68.007812 L 65.703125 68.09375 L 65.453125 68.179688 L 65.199219 68.265625 L 64.9375 68.347656 L 64.667969 68.425781 L 64.390625 68.503906 L 64.109375 68.578125 L 63.816406 68.652344 L 63.519531 68.722656 L 63.210938 68.789062 L 62.898438 68.851562 L 62.582031 68.910156 L 62.253906 68.96875 L 61.917969 69.019531 L 61.578125 69.066406 L 61.230469 69.109375 L 60.875 69.152344 L 60.515625 69.183594 L 60.144531 69.214844 L 59.769531 69.238281 L 59.386719 69.257812 L 58.972656 69.273438 L 58.546875 69.285156 "/>
<path style="fill:none;stroke-width:0.5;stroke-linecap:square;stroke-linejoin:miter;stroke:rgb(100%,0%,0%);stroke-opacity:1;stroke-miterlimit:3.25;" d="M 151.3125 69.285156 L 150.984375 69.285156 L 150.65625 69.28125 L 150.332031 69.269531 L 150.019531 69.257812 L 149.726562 69.242188 L 149.4375 69.226562 L 148.875 69.179688 L 148.597656 69.152344 L 148.324219 69.125 L 148.054688 69.089844 L 147.789062 69.054688 L 147.53125 69.019531 L 147.273438 68.980469 L 146.773438 68.894531 L 146.289062 68.800781 L 146.054688 68.75 L 145.824219 68.695312 L 145.597656 68.644531 L 145.371094 68.585938 L 145.15625 68.53125 L 144.941406 68.472656 L 144.730469 68.410156 L 144.523438 68.351562 L 144.324219 68.289062 L 144.125 68.222656 L 143.933594 68.160156 L 143.742188 68.09375 L 143.558594 68.027344 L 143.378906 67.960938 L 143.203125 67.890625 L 143.03125 67.824219 L 142.863281 67.753906 L 142.699219 67.683594 L 142.539062 67.613281 L 142.234375 67.472656 L 141.945312 67.332031 L 141.671875 67.191406 L 141.542969 67.121094 L 141.417969 67.050781 L 141.296875 66.984375 L 141.175781 66.914062 L 141.0625 66.84375 L 140.953125 66.777344 L 140.847656 66.710938 L 140.644531 66.578125 L 140.550781 66.515625 L 140.460938 66.453125 L 140.289062 66.328125 L 140.210938 66.269531 L 140.136719 66.210938 L 140.0625 66.15625 L 139.992188 66.101562 "/>
<path style="fill:none;stroke-width:0.5;stroke-linecap:butt;stroke-linejoin:miter;stroke:rgb(0%,0%,100%);stroke-opacity:1;stroke-dasharray:0.680315;stroke-miterlimit:3.25;" d="M 140.164062 69.285156 L 140.164062 69.074219 L 140.160156 69.019531 L 140.160156 68.75 L 140.15625 68.699219 L 140.15625 68.589844 L 140.152344 68.539062 L 140.152344 68.429688 L 140.148438 68.378906 L 140.148438 68.324219 L 140.144531 68.273438 L 140.144531 68.21875 L 140.140625 68.164062 L 140.140625 68.113281 L 140.136719 68.058594 L 140.136719 68.003906 L 140.132812 67.953125 L 140.132812 67.898438 L 140.128906 67.84375 L 140.125 67.792969 L 140.125 67.738281 L 140.121094 67.6875 L 140.113281 67.578125 L 140.113281 67.527344 L 140.109375 67.472656 L 140.105469 67.421875 L 140.101562 67.367188 L 140.097656 67.316406 L 140.089844 67.207031 L 140.085938 67.15625 L 140.082031 67.101562 L 140.078125 67.050781 L 140.074219 66.996094 L 140.070312 66.945312 L 140.066406 66.890625 L 140.0625 66.839844 L 140.058594 66.785156 L 140.054688 66.734375 L 140.050781 66.679688 L 140.046875 66.628906 L 140.039062 66.574219 L 140.035156 66.523438 L 140.03125 66.46875 L 140.027344 66.417969 L 140.019531 66.363281 L 140.015625 66.3125 L 140.011719 66.257812 L 140.003906 66.207031 L 140 66.152344 L 139.992188 66.101562 "/>
<path style="fill:none;stroke-width:0.5;stroke-linecap:butt;stroke-linejoin:miter;stroke:rgb(0%,0%,100%);stroke-opacity:1;stroke-dasharray:0.680315;stroke-miterlimit:3.25;" d="M 69.457031 66.101562 L 69.449219 66.152344 L 69.445312 66.207031 L 69.441406 66.257812 L 69.433594 66.3125 L 69.429688 66.363281 L 69.425781 66.417969 L 69.417969 66.46875 L 69.414062 66.523438 L 69.410156 66.574219 L 69.40625 66.628906 L 69.398438 66.679688 L 69.394531 66.734375 L 69.390625 66.785156 L 69.386719 66.839844 L 69.382812 66.890625 L 69.378906 66.945312 L 69.375 66.996094 L 69.371094 67.050781 L 69.367188 67.101562 L 69.363281 67.15625 L 69.359375 67.207031 L 69.351562 67.316406 L 69.347656 67.367188 L 69.34375 67.421875 L 69.339844 67.472656 L 69.339844 67.527344 L 69.335938 67.578125 L 69.328125 67.6875 L 69.328125 67.738281 L 69.324219 67.792969 L 69.320312 67.84375 L 69.320312 67.898438 L 69.316406 67.953125 L 69.3125 68.003906 L 69.3125 68.058594 L 69.308594 68.113281 L 69.308594 68.164062 L 69.304688 68.21875 L 69.304688 68.273438 L 69.300781 68.324219 L 69.300781 68.429688 L 69.296875 68.484375 L 69.296875 68.539062 L 69.292969 68.589844 L 69.292969 68.75 L 69.289062 68.804688 L 69.289062 69.125 L 69.285156 69.179688 L 69.285156 69.285156 "/>
<path style="fill:none;stroke-width:0.5;stroke-linecap:square;stroke-linejoin:miter;stroke:rgb(0%,0%,100%);stroke-opacity:1;stroke-miterlimit:3.25;" d="M 139.992188 66.101562 L 139.730469 64.058594 L 139.378906 62.050781 L 138.9375 60.074219 L 138.414062 58.140625 L 137.808594 56.246094 L 137.121094 54.398438 L 136.355469 52.597656 L 135.511719 50.847656 L 134.59375 49.15625 L 133.605469 47.523438 L 132.546875 45.949219 L 131.417969 44.441406 L 130.230469 43 L 128.976562 41.628906 L 127.667969 40.328125 L 126.300781 39.105469 L 124.886719 37.957031 L 123.421875 36.890625 L 121.910156 35.90625 L 120.355469 35.003906 L 118.765625 34.1875 L 117.140625 33.457031 L 115.484375 32.816406 L 113.800781 32.265625 L 112.09375 31.808594 L 110.367188 31.445312 L 108.628906 31.175781 L 106.882812 31.007812 L 105.132812 30.933594 L 103.378906 30.960938 L 101.632812 31.085938 L 99.890625 31.308594 L 98.15625 31.625 L 96.441406 32.042969 L 94.746094 32.550781 L 93.078125 33.148438 L 91.4375 33.835938 L 89.828125 34.613281 L 88.257812 35.476562 L 86.726562 36.421875 L 85.242188 37.453125 L 83.800781 38.5625 L 82.410156 39.75 L 81.074219 41.015625 L 79.796875 42.351562 L 78.578125 43.761719 L 77.417969 45.238281 L 76.328125 46.78125 L 75.304688 48.390625 L 74.355469 50.054688 L 73.476562 51.777344 L 72.675781 53.554688 L 71.949219 55.378906 L 71.304688 57.253906 L 70.742188 59.167969 L 70.265625 61.125 L 69.875 63.121094 L 69.566406 65.148438 "/>
<path style=" stroke:none;fill-rule:evenodd;fill:rgb(0%,0%,100%);fill-opacity:1;" d="M 123.132812 36 C 123.132812 35.699219 123.015625 35.410156 122.800781 35.199219 C 122.589844 34.984375 122.300781 34.867188 122 34.867188 C 121.699219 34.867188 121.410156 34.984375 121.199219 35.199219 C 120.984375 35.410156 120.867188 35.699219 120.867188 36 C 120.867188 36.300781 120.984375 36.589844 121.199219 36.800781 C 121.410156 37.015625 121.699219 37.132812 122 37.132812 C 122.300781 37.132812 122.589844 37.015625 122.800781 36.800781 C 123.015625 36.589844 123.132812 36.300781 123.132812 36 Z M 123.132812 36 "/>
<path style=" stroke:none;fill-rule:evenodd;fill:rgb(0%,0%,0%);fill-opacity:1;" d="M 126.816406 32.753906 L 126.816406 32.441406 L 126.304688 32.441406 L 125.070312 30.949219 L 125.921875 29.980469 C 126 29.882812 126.066406 29.824219 126.671875 29.824219 L 126.671875 29.511719 L 126 29.527344 C 125.789062 29.527344 125.472656 29.527344 125.269531 29.511719 L 125.269531 29.824219 C 125.410156 29.824219 125.5625 29.863281 125.5625 29.914062 C 125.5625 29.914062 125.523438 29.980469 125.511719 29.992188 L 124.875 30.710938 L 124.152344 29.824219 L 124.457031 29.824219 L 124.457031 29.511719 C 124.292969 29.527344 123.792969 29.527344 123.597656 29.527344 C 123.378906 29.527344 122.984375 29.527344 122.777344 29.511719 L 122.777344 29.824219 L 123.296875 29.824219 L 124.4375 31.214844 L 123.488281 32.285156 C 123.398438 32.390625 123.347656 32.441406 122.742188 32.441406 L 122.742188 32.753906 L 123.421875 32.738281 C 123.632812 32.738281 123.941406 32.738281 124.144531 32.753906 L 124.144531 32.441406 C 124.003906 32.441406 123.851562 32.402344 123.851562 32.351562 C 123.851562 32.351562 123.851562 32.335938 123.902344 32.28125 L 124.632812 31.453125 L 125.445312 32.441406 L 125.136719 32.441406 L 125.136719 32.753906 C 125.3125 32.738281 125.800781 32.738281 126.007812 32.738281 C 126.226562 32.738281 126.613281 32.738281 126.816406 32.753906 Z M 126.816406 32.753906 "/>
<path style=" stroke:none;fill-rule:evenodd;fill:rgb(0%,0%,0%);fill-opacity:1;" d="M 129.917969 32.644531 C 129.917969 32.410156 129.84375 32.226562 129.703125 32.082031 C 129.550781 31.914062 129.382812 31.871094 129.140625 31.8125 L 128.675781 31.699219 C 128.523438 31.664062 128.238281 31.5625 128.238281 31.203125 C 128.238281 30.804688 128.667969 30.375 129.1875 30.375 C 129.648438 30.375 129.964844 30.613281 129.964844 31.167969 C 129.964844 31.289062 129.945312 31.398438 129.945312 31.417969 C 129.945312 31.480469 129.992188 31.488281 130.027344 31.488281 C 130.089844 31.488281 130.09375 31.46875 130.113281 31.386719 L 130.375 30.359375 C 130.378906 30.339844 130.390625 30.308594 130.390625 30.28125 C 130.390625 30.246094 130.359375 30.222656 130.324219 30.222656 C 130.289062 30.222656 130.277344 30.230469 130.222656 30.292969 C 130.164062 30.359375 130.03125 30.523438 129.976562 30.582031 C 129.777344 30.292969 129.453125 30.222656 129.195312 30.222656 C 128.484375 30.222656 127.875 30.820312 127.875 31.402344 C 127.875 31.699219 128.03125 31.871094 128.058594 31.910156 C 128.226562 32.085938 128.375 32.128906 128.742188 32.214844 C 128.921875 32.261719 128.933594 32.261719 129.082031 32.296875 C 129.230469 32.332031 129.558594 32.414062 129.558594 32.839844 C 129.558594 33.285156 129.117188 33.757812 128.578125 33.757812 C 128.246094 33.757812 127.640625 33.65625 127.640625 33.023438 C 127.640625 33.007812 127.640625 32.898438 127.667969 32.777344 L 127.675781 32.726562 C 127.675781 32.664062 127.617188 32.660156 127.597656 32.660156 C 127.53125 32.660156 127.527344 32.679688 127.5 32.796875 L 127.292969 33.632812 C 127.269531 33.707031 127.234375 33.847656 127.234375 33.863281 C 127.234375 33.902344 127.265625 33.929688 127.300781 33.929688 C 127.335938 33.929688 127.34375 33.921875 127.398438 33.855469 C 127.433594 33.816406 127.429688 33.816406 127.644531 33.570312 C 127.761719 33.722656 128.054688 33.929688 128.570312 33.929688 C 129.3125 33.929688 129.917969 33.257812 129.917969 32.644531 Z M 129.917969 32.644531 "/>
<path style=" stroke:none;fill-rule:evenodd;fill:rgb(0%,0%,0%);fill-opacity:1;" d="M 133.4375 33.597656 C 133.4375 33.566406 133.414062 33.542969 133.378906 33.542969 C 133.3125 33.542969 133.238281 33.554688 133.171875 33.554688 C 133.097656 33.554688 133.027344 33.558594 132.949219 33.558594 L 132.648438 33.554688 C 132.546875 33.554688 132.4375 33.542969 132.339844 33.542969 C 132.3125 33.542969 132.285156 33.542969 132.269531 33.570312 C 132.265625 33.582031 132.25 33.625 132.25 33.636719 C 132.261719 33.691406 132.285156 33.691406 132.40625 33.691406 C 132.476562 33.691406 132.546875 33.695312 132.617188 33.695312 C 132.738281 33.707031 132.746094 33.722656 132.746094 33.761719 C 132.746094 33.785156 132.679688 34.03125 132.667969 34.074219 C 132.648438 34.15625 132.613281 34.300781 132.375 34.398438 C 132.160156 34.484375 131.921875 34.484375 131.875 34.484375 C 131.453125 34.484375 130.96875 34.292969 130.96875 33.679688 C 130.96875 33.4375 131.054688 32.949219 131.425781 32.5625 C 131.546875 32.4375 131.925781 32.132812 132.445312 32.132812 C 132.90625 32.132812 133.160156 32.457031 133.160156 32.851562 C 133.160156 32.914062 133.148438 32.988281 133.148438 32.988281 C 133.148438 33.039062 133.203125 33.039062 133.222656 33.039062 C 133.269531 33.039062 133.289062 33.039062 133.304688 32.960938 L 133.523438 32.09375 C 133.527344 32.058594 133.535156 32.039062 133.535156 32.039062 C 133.535156 32.039062 133.527344 31.988281 133.476562 31.988281 C 133.449219 31.988281 133.445312 31.992188 133.410156 32.03125 L 133.171875 32.277344 L 133.136719 32.308594 C 133.136719 32.308594 133.128906 32.304688 133.117188 32.296875 C 133.027344 32.191406 132.828125 31.988281 132.40625 31.988281 C 131.488281 31.988281 130.585938 32.757812 130.585938 33.585938 C 130.585938 34.160156 131.042969 34.632812 131.789062 34.632812 C 132.054688 34.632812 132.453125 34.585938 132.6875 34.351562 C 132.707031 34.398438 132.816406 34.554688 132.867188 34.554688 C 132.882812 34.554688 132.902344 34.542969 132.910156 34.53125 C 132.925781 34.503906 133.023438 34.097656 133.039062 34.023438 L 133.085938 33.835938 C 133.125 33.695312 133.136719 33.695312 133.347656 33.691406 C 133.382812 33.691406 133.4375 33.691406 133.4375 33.597656 Z M 133.4375 33.597656 "/>
<path style=" stroke:none;fill-rule:evenodd;fill:rgb(0%,0%,0%);fill-opacity:1;" d="M 136.78125 34.527344 C 136.78125 34.507812 136.78125 34.492188 136.660156 34.367188 C 135.929688 33.628906 135.519531 32.425781 135.519531 30.9375 C 135.519531 29.519531 135.863281 28.300781 136.710938 27.4375 C 136.78125 27.371094 136.78125 27.355469 136.78125 27.335938 C 136.78125 27.292969 136.746094 27.277344 136.71875 27.277344 C 136.621094 27.277344 136.023438 27.804688 135.664062 28.519531 C 135.292969 29.257812 135.125 30.039062 135.125 30.9375 C 135.125 31.585938 135.226562 32.457031 135.605469 33.238281 C 136.039062 34.113281 136.636719 34.585938 136.71875 34.585938 C 136.746094 34.585938 136.78125 34.574219 136.78125 34.527344 Z M 136.78125 34.527344 "/>
<path style=" stroke:none;fill-rule:evenodd;fill:rgb(0%,0%,0%);fill-opacity:1;" d="M 139.429688 31.710938 C 139.429688 31.667969 139.398438 31.644531 139.355469 31.644531 C 139.355469 31.644531 139.3125 31.644531 139.296875 31.671875 C 139.296875 31.671875 139.28125 31.6875 139.230469 31.804688 C 139.078125 32.171875 138.742188 32.679688 138.320312 32.679688 C 138.097656 32.679688 138.085938 32.5 138.085938 32.335938 C 138.085938 32.335938 138.085938 32.191406 138.105469 32.105469 L 138.675781 29.820312 L 139.347656 29.820312 C 139.488281 29.820312 139.558594 29.820312 139.558594 29.6875 C 139.558594 29.605469 139.515625 29.605469 139.371094 29.605469 L 138.726562 29.605469 L 139 28.539062 C 139.027344 28.4375 139.027344 28.425781 139.027344 28.371094 C 139.027344 28.253906 138.933594 28.191406 138.835938 28.191406 C 138.78125 28.191406 138.609375 28.210938 138.550781 28.445312 L 138.269531 29.605469 L 137.582031 29.605469 C 137.433594 29.605469 137.367188 29.605469 137.367188 29.746094 C 137.367188 29.820312 137.421875 29.820312 137.558594 29.820312 L 138.210938 29.820312 L 137.726562 31.746094 C 137.667969 32.003906 137.648438 32.074219 137.648438 32.171875 C 137.648438 32.515625 137.886719 32.828125 138.296875 32.828125 C 139.035156 32.828125 139.429688 31.761719 139.429688 31.710938 Z M 139.429688 31.710938 "/>
<path style=" stroke:none;fill-rule:evenodd;fill:rgb(0%,0%,0%);fill-opacity:1;" d="M 141.800781 30.9375 C 141.800781 30.378906 141.726562 29.476562 141.320312 28.628906 C 140.886719 27.753906 140.289062 27.277344 140.210938 27.277344 C 140.179688 27.277344 140.144531 27.292969 140.144531 27.335938 C 140.144531 27.355469 140.144531 27.371094 140.269531 27.496094 C 140.996094 28.234375 141.40625 29.4375 141.40625 30.929688 C 141.40625 32.34375 141.0625 33.566406 140.214844 34.425781 C 140.144531 34.492188 140.144531 34.507812 140.144531 34.527344 C 140.144531 34.574219 140.179688 34.585938 140.210938 34.585938 C 140.304688 34.585938 140.902344 34.0625 141.261719 33.347656 C 141.632812 32.601562 141.800781 31.8125 141.800781 30.9375 Z M 141.800781 30.9375 "/>
<g clip-path="url(#clip78)" clip-rule="nonzero">
<path style="fill:none;stroke-width:0.333333;stroke-linecap:square;stroke-linejoin:miter;stroke:rgb(0%,0%,0%);stroke-opacity:1;stroke-miterlimit:3.25;" d="M 0 69.285156 L 226.773438 69.285156 "/>
</g>
<path style=" stroke:none;fill-rule:evenodd;fill:rgb(0%,0%,0%);fill-opacity:1;" d="M 210.359375 63.273438 C 210.367188 63.238281 210.382812 63.191406 210.382812 63.148438 C 210.382812 63.039062 210.292969 62.96875 210.183594 62.96875 C 210.117188 62.96875 209.964844 62.996094 209.90625 63.214844 L 209.367188 65.363281 C 209.328125 65.492188 209.328125 65.507812 209.269531 65.589844 C 209.125 65.792969 208.882812 66.042969 208.535156 66.042969 C 208.125 66.042969 208.089844 65.640625 208.089844 65.441406 C 208.089844 65.027344 208.285156 64.464844 208.484375 63.9375 C 208.5625 63.726562 208.605469 63.625 208.605469 63.476562 C 208.605469 63.171875 208.386719 62.894531 208.03125 62.894531 C 207.359375 62.894531 207.085938 63.953125 207.085938 64.011719 C 207.085938 64.039062 207.117188 64.078125 207.167969 64.078125 C 207.234375 64.078125 207.242188 64.046875 207.269531 63.945312 C 207.445312 63.332031 207.722656 63.039062 208.007812 63.039062 C 208.074219 63.039062 208.199219 63.039062 208.199219 63.28125 C 208.199219 63.472656 208.117188 63.683594 208.007812 63.960938 C 207.648438 64.917969 207.648438 65.15625 207.648438 65.332031 C 207.648438 66.027344 208.148438 66.1875 208.511719 66.1875 C 208.722656 66.1875 208.984375 66.121094 209.242188 65.851562 L 209.25 65.859375 C 209.140625 66.289062 209.066406 66.574219 208.8125 66.933594 C 208.613281 67.210938 208.328125 67.457031 207.972656 67.457031 C 207.882812 67.457031 207.53125 67.445312 207.421875 67.109375 C 207.445312 67.117188 207.496094 67.117188 207.496094 67.117188 C 207.714844 67.117188 207.863281 66.925781 207.863281 66.757812 C 207.863281 66.589844 207.722656 66.53125 207.613281 66.53125 C 207.496094 66.53125 207.242188 66.617188 207.242188 66.976562 C 207.242188 67.347656 207.554688 67.605469 207.972656 67.605469 C 208.703125 67.605469 209.4375 66.933594 209.644531 66.121094 Z M 210.359375 63.273438 "/>
<path style=" stroke:none;fill-rule:evenodd;fill:rgb(0%,0%,0%);fill-opacity:1;" d="M 217.855469 63.617188 C 217.855469 63.476562 217.730469 63.476562 217.621094 63.476562 L 213.316406 63.476562 C 213.214844 63.476562 213.085938 63.476562 213.085938 63.609375 C 213.085938 63.746094 213.207031 63.746094 213.316406 63.746094 L 217.621094 63.746094 C 217.722656 63.746094 217.855469 63.746094 217.855469 63.617188 Z M 217.855469 64.976562 C 217.855469 64.835938 217.730469 64.835938 217.621094 64.835938 L 213.316406 64.835938 C 213.214844 64.835938 213.085938 64.835938 213.085938 64.96875 C 213.085938 65.105469 213.207031 65.105469 213.316406 65.105469 L 217.621094 65.105469 C 217.722656 65.105469 217.855469 65.105469 217.855469 64.976562 Z M 217.855469 64.976562 "/>
<path style=" stroke:none;fill-rule:evenodd;fill:rgb(0%,0%,0%);fill-opacity:1;" d="M 223.5625 63.777344 C 223.5625 63.171875 223.523438 62.578125 223.261719 62.023438 C 222.960938 61.417969 222.4375 61.257812 222.078125 61.257812 C 221.65625 61.257812 221.136719 61.46875 220.867188 62.074219 C 220.660156 62.535156 220.589844 62.988281 220.589844 63.777344 C 220.589844 64.484375 220.640625 65.019531 220.902344 65.539062 C 221.1875 66.09375 221.691406 66.265625 222.070312 66.265625 C 222.707031 66.265625 223.070312 65.886719 223.285156 65.464844 C 223.546875 64.917969 223.5625 64.199219 223.5625 63.777344 Z M 223.007812 63.691406 C 223.007812 64.179688 223.007812 64.734375 222.925781 65.179688 C 222.785156 65.984375 222.328125 66.121094 222.070312 66.121094 C 221.839844 66.121094 221.363281 65.992188 221.222656 65.195312 C 221.144531 64.757812 221.144531 64.199219 221.144531 63.691406 C 221.144531 63.089844 221.144531 62.550781 221.261719 62.117188 C 221.386719 61.628906 221.757812 61.402344 222.070312 61.402344 C 222.347656 61.402344 222.773438 61.570312 222.910156 62.199219 C 223.007812 62.617188 223.007812 63.191406 223.007812 63.691406 Z M 223.007812 63.691406 "/>
<g clip-path="url(#clip79)" clip-rule="nonzero">
<path style="fill:none;stroke-width:0.333333;stroke-linecap:square;stroke-linejoin:miter;stroke:rgb(0%,0%,0%);stroke-opacity:1;stroke-miterlimit:3.25;" d="M 0 11.546875 L 226.773438 11.546875 "/>
</g>
<path style=" stroke:none;fill-rule:evenodd;fill:rgb(0%,0%,0%);fill-opacity:1;" d="M 210.359375 5.535156 C 210.367188 5.496094 210.382812 5.453125 210.382812 5.410156 C 210.382812 5.300781 210.292969 5.226562 210.183594 5.226562 C 210.117188 5.226562 209.964844 5.257812 209.90625 5.476562 L 209.367188 7.625 C 209.328125 7.753906 209.328125 7.769531 209.269531 7.847656 C 209.125 8.054688 208.882812 8.300781 208.535156 8.300781 C 208.125 8.300781 208.089844 7.902344 208.089844 7.703125 C 208.089844 7.285156 208.285156 6.722656 208.484375 6.199219 C 208.5625 5.988281 208.605469 5.886719 208.605469 5.738281 C 208.605469 5.433594 208.386719 5.15625 208.03125 5.15625 C 207.359375 5.15625 207.085938 6.214844 207.085938 6.269531 C 207.085938 6.300781 207.117188 6.339844 207.167969 6.339844 C 207.234375 6.339844 207.242188 6.308594 207.269531 6.207031 C 207.445312 5.59375 207.722656 5.300781 208.007812 5.300781 C 208.074219 5.300781 208.199219 5.300781 208.199219 5.542969 C 208.199219 5.730469 208.117188 5.941406 208.007812 6.21875 C 207.648438 7.175781 207.648438 7.417969 207.648438 7.59375 C 207.648438 8.289062 208.148438 8.449219 208.511719 8.449219 C 208.722656 8.449219 208.984375 8.382812 209.242188 8.113281 L 209.25 8.121094 C 209.140625 8.550781 209.066406 8.835938 208.8125 9.191406 C 208.613281 9.472656 208.328125 9.71875 207.972656 9.71875 C 207.882812 9.71875 207.53125 9.703125 207.421875 9.367188 C 207.445312 9.375 207.496094 9.375 207.496094 9.375 C 207.714844 9.375 207.863281 9.1875 207.863281 9.019531 C 207.863281 8.851562 207.722656 8.792969 207.613281 8.792969 C 207.496094 8.792969 207.242188 8.878906 207.242188 9.238281 C 207.242188 9.609375 207.554688 9.863281 207.972656 9.863281 C 208.703125 9.863281 209.4375 9.191406 209.644531 8.382812 Z M 210.359375 5.535156 "/>
<path style=" stroke:none;fill-rule:evenodd;fill:rgb(0%,0%,0%);fill-opacity:1;" d="M 217.855469 5.878906 C 217.855469 5.738281 217.730469 5.738281 217.621094 5.738281 L 213.316406 5.738281 C 213.214844 5.738281 213.085938 5.738281 213.085938 5.871094 C 213.085938 6.007812 213.207031 6.007812 213.316406 6.007812 L 217.621094 6.007812 C 217.722656 6.007812 217.855469 6.007812 217.855469 5.878906 Z M 217.855469 7.234375 C 217.855469 7.097656 217.730469 7.097656 217.621094 7.097656 L 213.316406 7.097656 C 213.214844 7.097656 213.085938 7.097656 213.085938 7.230469 C 213.085938 7.367188 213.207031 7.367188 213.316406 7.367188 L 217.621094 7.367188 C 217.722656 7.367188 217.855469 7.367188 217.855469 7.234375 Z M 217.855469 7.234375 "/>
<path style=" stroke:none;fill-rule:evenodd;fill:rgb(0%,0%,0%);fill-opacity:1;" d="M 223.285156 8.375 L 223.285156 8.164062 L 223.058594 8.164062 C 222.414062 8.164062 222.394531 8.078125 222.394531 7.8125 L 222.394531 3.695312 C 222.394531 3.527344 222.394531 3.519531 222.246094 3.519531 C 222.070312 3.714844 221.707031 3.984375 220.953125 3.984375 L 220.953125 4.199219 C 221.121094 4.199219 221.488281 4.199219 221.890625 4.007812 L 221.890625 7.8125 C 221.890625 8.078125 221.867188 8.164062 221.222656 8.164062 L 220.996094 8.164062 L 220.996094 8.375 C 221.195312 8.359375 221.902344 8.359375 222.144531 8.359375 C 222.386719 8.359375 223.085938 8.359375 223.285156 8.375 Z M 223.285156 8.375 "/>
</g>
</svg>
