<?xml version="1.0" encoding="UTF-8"?>
<svg xmlns="http://www.w3.org/2000/svg" xmlns:xlink="http://www.w3.org/1999/xlink" width="269pt" height="104pt" viewBox="0 0 269 104" version="1.1">
<g id="surface529">
<path style="fill-rule:nonzero;fill:rgb(100%,100%,86.999313%);fill-opacity:1;stroke-width:1;stroke-linecap:square;stroke-linejoin:miter;stroke:rgb(0%,0%,0%);stroke-opacity:1;stroke-miterlimit:3.25;" d="M 180.019531 85 L 179.679688 82.375 L 179.226562 79.789062 L 178.664062 77.25 L 177.988281 74.761719 L 177.210938 72.328125 L 176.328125 69.949219 L 175.339844 67.636719 L 174.257812 65.386719 L 173.078125 63.210938 L 171.804688 61.109375 L 170.441406 59.085938 L 168.992188 57.148438 L 167.460938 55.292969 L 165.851562 53.53125 L 164.167969 51.859375 L 162.414062 50.285156 L 160.589844 48.8125 L 158.707031 47.4375 L 156.765625 46.171875 L 154.765625 45.011719 L 152.722656 43.960938 L 150.632812 43.023438 L 148.5 42.199219 L 146.335938 41.492188 L 144.140625 40.902344 L 141.921875 40.433594 L 139.6875 40.089844 L 137.441406 39.871094 L 135.191406 39.78125 L 132.9375 39.8125 L 130.6875 39.972656 L 128.449219 40.257812 L 126.222656 40.667969 L 124.015625 41.203125 L 121.835938 41.855469 L 119.6875 42.625 L 117.578125 43.511719 L 115.511719 44.507812 L 113.492188 45.617188 L 111.523438 46.835938 L 109.609375 48.160156 L 107.757812 49.585938 L 105.972656 51.117188 L 104.253906 52.742188 L 102.609375 54.460938 L 101.042969 56.273438 L 99.554688 58.175781 L 98.152344 60.160156 L 96.835938 62.222656 L 95.613281 64.367188 L 94.484375 66.582031 L 93.453125 68.863281 L 92.519531 71.214844 L 91.691406 73.621094 L 90.96875 76.085938 L 90.355469 78.605469 L 89.851562 81.167969 L 89.457031 83.773438 L 89.3125 85 L 89.199219 85.09375 L 89.074219 85.1875 L 88.941406 85.289062 L 88.800781 85.390625 L 88.652344 85.496094 L 88.496094 85.601562 L 88.332031 85.710938 L 88.15625 85.824219 L 87.976562 85.933594 L 87.785156 86.050781 L 87.585938 86.164062 L 87.375 86.28125 L 87.160156 86.398438 L 86.933594 86.519531 L 86.699219 86.636719 L 86.453125 86.753906 L 86.199219 86.871094 L 85.9375 86.992188 L 85.664062 87.109375 L 85.382812 87.222656 L 85.09375 87.339844 L 84.792969 87.453125 L 84.484375 87.566406 L 84.167969 87.675781 L 83.839844 87.78125 L 83.503906 87.886719 L 83.15625 87.992188 L 82.800781 88.089844 L 82.4375 88.1875 L 82.0625 88.28125 L 81.679688 88.371094 L 81.285156 88.457031 L 80.882812 88.535156 L 80.472656 88.613281 L 80.050781 88.683594 L 79.621094 88.753906 L 79.183594 88.8125 L 78.738281 88.871094 L 78.28125 88.921875 L 77.816406 88.964844 L 77.339844 89.003906 L 76.859375 89.035156 L 76.367188 89.0625 L 75.835938 89.082031 L 75.285156 89.09375 L 14.847656 89.097656 L 14.90625 87.867188 L 15.074219 85.246094 L 15.304688 82.65625 L 15.597656 80.105469 L 15.953125 77.585938 L 16.371094 75.109375 L 16.839844 72.671875 L 17.371094 70.277344 L 17.949219 67.925781 L 18.582031 65.621094 L 19.265625 63.363281 L 19.996094 61.15625 L 20.769531 59 L 21.585938 56.898438 L 22.441406 54.847656 L 23.335938 52.851562 L 24.265625 50.914062 L 25.226562 49.03125 L 26.21875 47.207031 L 27.234375 45.441406 L 28.28125 43.734375 L 29.34375 42.085938 L 30.429688 40.5 L 31.53125 38.976562 L 32.644531 37.511719 L 33.769531 36.109375 L 34.902344 34.773438 L 36.035156 33.5 L 37.164062 32.292969 L 38.292969 31.148438 L 39.414062 30.070312 L 40.527344 29.050781 L 41.632812 28.089844 L 42.75 27.167969 L 44.035156 26.164062 L 45.324219 25.203125 L 46.617188 24.292969 L 47.910156 23.429688 L 49.207031 22.613281 L 50.503906 21.839844 L 51.800781 21.113281 L 53.089844 20.433594 L 54.375 19.792969 L 55.65625 19.199219 L 56.929688 18.648438 L 58.195312 18.136719 L 59.449219 17.667969 L 60.691406 17.238281 L 61.921875 16.847656 L 63.140625 16.492188 L 64.34375 16.179688 L 65.527344 15.902344 L 66.699219 15.65625 L 67.847656 15.449219 L 68.980469 15.273438 L 70.09375 15.128906 L 71.1875 15.015625 L 72.257812 14.933594 L 73.304688 14.878906 L 194.574219 14.847656 L 195.523438 14.863281 L 196.515625 14.898438 L 197.574219 14.96875 L 198.652344 15.0625 L 199.753906 15.191406 L 200.875 15.351562 L 202.015625 15.542969 L 203.175781 15.765625 L 204.355469 16.027344 L 205.546875 16.320312 L 206.757812 16.652344 L 207.980469 17.023438 L 209.21875 17.433594 L 210.464844 17.878906 L 211.726562 18.367188 L 212.992188 18.898438 L 214.269531 19.46875 L 215.554688 20.085938 L 216.84375 20.742188 L 218.136719 21.445312 L 219.433594 22.195312 L 220.730469 22.988281 L 222.023438 23.828125 L 223.320312 24.710938 L 224.609375 25.644531 L 225.898438 26.625 L 227.117188 27.601562 L 228.214844 28.53125 L 229.320312 29.515625 L 230.4375 30.5625 L 231.5625 31.675781 L 232.695312 32.847656 L 233.824219 34.085938 L 234.957031 35.386719 L 236.085938 36.753906 L 237.207031 38.1875 L 238.316406 39.679688 L 239.410156 41.230469 L 240.488281 42.84375 L 241.542969 44.519531 L 242.574219 46.253906 L 243.582031 48.046875 L 244.558594 49.898438 L 245.503906 51.808594 L 246.417969 53.773438 L 247.296875 55.796875 L 248.132812 57.871094 L 248.929688 60 L 249.683594 62.179688 L 250.390625 64.410156 L 251.050781 66.6875 L 251.660156 69.015625 L 252.214844 71.386719 L 252.71875 73.800781 L 253.164062 76.257812 L 253.550781 78.753906 L 253.878906 81.289062 L 254.144531 83.859375 L 254.347656 86.460938 L 254.484375 89.097656 L 194.574219 89.097656 L 194.152344 89.09375 L 193.730469 89.085938 L 193.3125 89.074219 L 192.914062 89.058594 L 192.535156 89.039062 L 192.164062 89.015625 L 191.796875 88.988281 L 191.4375 88.957031 L 191.082031 88.925781 L 190.730469 88.886719 L 190.386719 88.84375 L 190.046875 88.800781 L 189.710938 88.753906 L 189.378906 88.703125 L 189.054688 88.648438 L 188.421875 88.53125 L 188.113281 88.46875 L 187.8125 88.40625 L 187.515625 88.335938 L 187.222656 88.269531 L 186.9375 88.195312 L 186.65625 88.125 L 186.378906 88.046875 L 186.109375 87.972656 L 185.84375 87.890625 L 185.585938 87.8125 L 185.332031 87.730469 L 185.082031 87.648438 L 184.839844 87.5625 L 184.601562 87.476562 L 184.371094 87.390625 L 184.144531 87.300781 L 183.925781 87.214844 L 183.707031 87.125 L 183.292969 86.945312 L 183.09375 86.855469 L 182.710938 86.675781 L 182.53125 86.582031 L 182.351562 86.492188 L 182.179688 86.402344 L 182.011719 86.3125 L 181.691406 86.132812 L 181.539062 86.042969 L 181.394531 85.957031 L 181.253906 85.871094 L 181.117188 85.785156 L 180.984375 85.699219 L 180.859375 85.617188 L 180.738281 85.53125 L 180.621094 85.453125 L 180.507812 85.371094 L 180.402344 85.292969 L 180.296875 85.21875 L 180.199219 85.144531 L 180.109375 85.070312 Z M 180.019531 85 "/>
<path style="fill:none;stroke-width:1;stroke-linecap:butt;stroke-linejoin:miter;stroke:rgb(100%,0%,0%);stroke-opacity:1;stroke-miterlimit:3.25;" d="M 75.285156 89.09375 L 75.835938 89.082031 L 76.367188 89.0625 L 76.859375 89.035156 L 77.339844 89.003906 L 77.816406 88.964844 L 78.28125 88.921875 L 78.738281 88.871094 L 79.183594 88.8125 L 79.621094 88.753906 L 80.050781 88.683594 L 80.472656 88.613281 L 80.882812 88.535156 L 81.285156 88.457031 L 81.679688 88.371094 L 82.0625 88.28125 L 82.4375 88.1875 L 82.800781 88.089844 L 83.15625 87.992188 L 83.503906 87.886719 L 83.839844 87.78125 L 84.167969 87.675781 L 84.484375 87.566406 L 84.792969 87.453125 L 85.09375 87.339844 L 85.382812 87.222656 L 85.664062 87.109375 L 85.9375 86.992188 L 86.199219 86.871094 L 86.453125 86.753906 L 86.699219 86.636719 L 86.933594 86.519531 L 87.160156 86.398438 L 87.375 86.28125 L 87.585938 86.164062 L 87.785156 86.050781 L 87.976562 85.933594 L 88.15625 85.824219 L 88.332031 85.710938 L 88.496094 85.601562 L 88.652344 85.496094 L 88.800781 85.390625 L 88.941406 85.289062 L 89.074219 85.1875 L 89.199219 85.09375 L 89.3125 85 "/>
<path style=" stroke:none;fill-rule:nonzero;fill:rgb(100%,0%,0%);fill-opacity:1;" d="M 78.632812 88.316406 L 78.847656 88.476562 L 79.339844 88.878906 L 79.617188 89.128906 L 79.882812 89.390625 L 80.105469 89.644531 L 80.253906 89.878906 L 80.339844 90.117188 L 80.414062 90.441406 L 80.46875 90.820312 L 80.511719 91.214844 L 80.566406 91.894531 L 80.582031 92.191406 L 86.804688 86.582031 Z M 78.632812 88.316406 "/>
<path style=" stroke:none;fill-rule:evenodd;fill:rgb(100%,0%,0%);fill-opacity:1;" d="M 83.28125 79.097656 C 83.28125 76.609375 81.605469 75.257812 79.535156 75.257812 L 74.90625 75.257812 L 74.90625 75.730469 L 76.070312 75.730469 L 76.070312 82.332031 L 74.90625 82.332031 L 74.90625 82.808594 L 79.535156 82.808594 C 81.648438 82.808594 83.28125 81.453125 83.28125 79.097656 Z M 81.78125 79.085938 C 81.78125 80.375 81.617188 80.945312 81.234375 81.464844 C 80.847656 81.972656 80.109375 82.332031 79.121094 82.332031 L 77.46875 82.332031 L 77.46875 75.730469 L 79.121094 75.730469 C 80.074219 75.730469 80.847656 76.105469 81.253906 76.675781 C 81.574219 77.128906 81.78125 77.667969 81.78125 79.085938 Z M 81.78125 79.085938 "/>
<path style="fill:none;stroke-width:1;stroke-linecap:butt;stroke-linejoin:miter;stroke:rgb(0%,0%,100%);stroke-opacity:1;stroke-miterlimit:3.25;" d="M 180.019531 85 L 179.679688 82.375 L 179.226562 79.789062 L 178.664062 77.25 L 177.988281 74.761719 L 177.210938 72.328125 L 176.328125 69.949219 L 175.339844 67.636719 L 174.257812 65.386719 L 173.078125 63.210938 L 171.804688 61.109375 L 170.441406 59.085938 L 168.992188 57.148438 L 167.460938 55.292969 L 165.851562 53.53125 L 164.167969 51.859375 L 162.414062 50.285156 L 160.589844 48.8125 L 158.707031 47.4375 L 156.765625 46.171875 L 154.765625 45.011719 L 152.722656 43.960938 L 150.632812 43.023438 L 148.5 42.199219 L 146.335938 41.492188 L 144.140625 40.902344 L 141.921875 40.433594 L 139.6875 40.089844 L 137.441406 39.871094 L 135.191406 39.78125 L 132.9375 39.8125 L 130.6875 39.972656 L 128.449219 40.257812 L 126.222656 40.667969 L 124.015625 41.203125 L 121.835938 41.855469 L 119.6875 42.625 L 117.578125 43.511719 L 115.511719 44.507812 L 113.492188 45.617188 L 111.523438 46.835938 L 109.609375 48.160156 L 107.757812 49.585938 L 105.972656 51.117188 L 104.253906 52.742188 L 102.609375 54.460938 L 101.042969 56.273438 L 99.554688 58.175781 L 98.152344 60.160156 L 96.835938 62.222656 L 95.613281 64.367188 L 94.484375 66.582031 L 93.453125 68.863281 L 92.519531 71.214844 L 91.691406 73.621094 L 90.96875 76.085938 L 90.355469 78.605469 L 89.851562 81.167969 L 89.457031 83.773438 "/>
<path style=" stroke:none;fill-rule:nonzero;fill:rgb(0%,0%,100%);fill-opacity:1;" d="M 138.019531 41.183594 L 137.871094 40.957031 L 137.539062 40.414062 L 137.359375 40.085938 L 137.195312 39.753906 L 137.074219 39.4375 L 137.007812 39.167969 L 137.007812 38.917969 L 137.046875 38.585938 L 137.121094 38.210938 L 137.210938 37.824219 L 137.386719 37.164062 L 137.46875 36.878906 L 129.734375 40.09375 Z M 138.019531 41.183594 "/>
<path style=" stroke:none;fill-rule:evenodd;fill:rgb(0%,0%,100%);fill-opacity:1;" d="M 138.222656 50.019531 L 138.222656 49.546875 L 137.453125 49.546875 L 135.59375 47.300781 L 136.871094 45.839844 C 136.992188 45.695312 137.089844 45.605469 138.003906 45.605469 L 138.003906 45.132812 L 136.992188 45.15625 C 136.671875 45.15625 136.199219 45.15625 135.890625 45.132812 L 135.890625 45.605469 C 136.101562 45.605469 136.332031 45.660156 136.332031 45.738281 C 136.332031 45.738281 136.277344 45.839844 136.253906 45.859375 L 135.296875 46.9375 L 134.207031 45.605469 L 134.671875 45.605469 L 134.671875 45.132812 C 134.417969 45.15625 133.667969 45.15625 133.371094 45.15625 C 133.039062 45.15625 132.445312 45.15625 132.140625 45.132812 L 132.140625 45.605469 L 132.921875 45.605469 L 134.636719 47.699219 L 133.207031 49.316406 C 133.074219 49.46875 132.996094 49.546875 132.085938 49.546875 L 132.085938 50.019531 L 133.109375 49.996094 C 133.425781 49.996094 133.890625 49.996094 134.195312 50.019531 L 134.195312 49.546875 C 133.988281 49.546875 133.757812 49.492188 133.757812 49.414062 C 133.757812 49.414062 133.757812 49.394531 133.832031 49.304688 L 134.933594 48.058594 L 136.15625 49.546875 L 135.695312 49.546875 L 135.695312 50.019531 C 135.957031 49.996094 136.695312 49.996094 137.003906 49.996094 C 137.332031 49.996094 137.914062 49.996094 138.222656 50.019531 Z M 138.222656 50.019531 "/>
<path style="fill:none;stroke-width:1;stroke-linecap:butt;stroke-linejoin:miter;stroke:rgb(100%,0%,0%);stroke-opacity:1;stroke-miterlimit:3.25;" d="M 180.019531 85 L 180.109375 85.070312 L 180.199219 85.144531 L 180.296875 85.21875 L 180.402344 85.292969 L 180.507812 85.371094 L 180.621094 85.453125 L 180.738281 85.53125 L 180.859375 85.617188 L 180.984375 85.699219 L 181.117188 85.785156 L 181.253906 85.871094 L 181.394531 85.957031 L 181.539062 86.042969 L 181.691406 86.132812 L 182.011719 86.3125 L 182.179688 86.402344 L 182.351562 86.492188 L 182.53125 86.582031 L 182.710938 86.675781 L 183.09375 86.855469 L 183.292969 86.945312 L 183.707031 87.125 L 183.925781 87.214844 L 184.144531 87.300781 L 184.371094 87.390625 L 184.601562 87.476562 L 184.839844 87.5625 L 185.082031 87.648438 L 185.332031 87.730469 L 185.585938 87.8125 L 185.84375 87.890625 L 186.109375 87.972656 L 186.378906 88.046875 L 186.65625 88.125 L 186.9375 88.195312 L 187.222656 88.269531 L 187.515625 88.335938 L 187.8125 88.40625 L 188.113281 88.46875 L 188.421875 88.53125 L 189.054688 88.648438 L 189.378906 88.703125 L 189.710938 88.753906 L 190.046875 88.800781 L 190.386719 88.84375 L 190.730469 88.886719 L 191.082031 88.925781 L 191.4375 88.957031 L 191.796875 88.988281 L 192.164062 89.015625 L 192.535156 89.039062 L 192.914062 89.058594 L 193.3125 89.074219 L 193.730469 89.085938 L 194.152344 89.09375 L 194.574219 89.097656 "/>
<path style=" stroke:none;fill-rule:nonzero;fill:rgb(100%,0%,0%);fill-opacity:1;" d="M 183.632812 86.160156 L 183.730469 86.410156 L 183.9375 87.007812 L 184.046875 87.367188 L 184.132812 87.730469 L 184.1875 88.0625 L 184.195312 88.339844 L 184.144531 88.585938 L 184.035156 88.902344 L 183.882812 89.253906 L 183.714844 89.613281 L 183.402344 90.222656 L 183.261719 90.480469 L 191.5 88.964844 Z M 183.632812 86.160156 "/>
<path style=" stroke:none;fill-rule:evenodd;fill:rgb(100%,0%,0%);fill-opacity:1;" d="M 193.949219 80.769531 C 193.949219 79.722656 193.035156 78.964844 191.703125 78.867188 C 193.289062 78.570312 193.597656 77.664062 193.597656 77.148438 C 193.597656 76.136719 192.671875 75.257812 190.910156 75.257812 L 186.269531 75.257812 L 186.269531 75.730469 L 187.433594 75.730469 L 187.433594 82.328125 L 186.269531 82.328125 L 186.269531 82.804688 L 191.242188 82.804688 C 193.058594 82.804688 193.949219 81.824219 193.949219 80.769531 Z M 192.144531 77.136719 C 192.144531 77.90625 191.714844 78.699219 190.429688 78.699219 L 188.789062 78.699219 L 188.789062 75.730469 L 190.78125 75.730469 C 191.910156 75.730469 192.144531 76.585938 192.144531 77.136719 Z M 192.449219 80.746094 C 192.449219 81.441406 192.078125 82.328125 190.8125 82.328125 L 188.789062 82.328125 L 188.789062 79.0625 L 190.976562 79.0625 C 192.265625 79.0625 192.449219 80.25 192.449219 80.746094 Z M 192.449219 80.746094 "/>
<path style="fill:none;stroke-width:1;stroke-linecap:butt;stroke-linejoin:miter;stroke:rgb(100%,50.000763%,0%);stroke-opacity:1;stroke-miterlimit:3.25;" d="M 254.484375 89.097656 L 254.347656 86.460938 L 254.144531 83.859375 L 253.878906 81.289062 L 253.550781 78.753906 L 253.164062 76.257812 L 252.71875 73.800781 L 252.214844 71.386719 L 251.660156 69.015625 L 251.050781 66.6875 L 250.390625 64.410156 L 249.683594 62.179688 L 248.929688 60 L 248.132812 57.871094 L 247.296875 55.796875 L 246.417969 53.773438 L 245.503906 51.808594 L 244.558594 49.898438 L 243.582031 48.046875 L 242.574219 46.253906 L 241.542969 44.519531 L 240.488281 42.84375 L 239.410156 41.230469 L 238.316406 39.679688 L 237.207031 38.1875 L 236.085938 36.753906 L 234.957031 35.386719 L 233.824219 34.085938 L 232.695312 32.847656 L 231.5625 31.675781 L 230.4375 30.5625 L 229.320312 29.515625 L 228.214844 28.53125 L 227.117188 27.601562 L 225.898438 26.625 L 224.609375 25.644531 L 223.320312 24.710938 L 222.023438 23.828125 L 220.730469 22.988281 L 219.433594 22.195312 L 218.136719 21.445312 L 216.84375 20.742188 L 215.554688 20.085938 L 214.269531 19.46875 L 212.992188 18.898438 L 211.726562 18.367188 L 210.464844 17.878906 L 209.21875 17.433594 L 207.980469 17.023438 L 206.757812 16.652344 L 205.546875 16.320312 L 204.355469 16.027344 L 203.175781 15.765625 L 202.015625 15.542969 L 200.875 15.351562 L 199.753906 15.191406 L 198.652344 15.0625 L 197.574219 14.96875 L 196.515625 14.898438 L 195.523438 14.863281 L 194.574219 14.847656 "/>
<path style=" stroke:none;fill-rule:nonzero;fill:rgb(100%,50.000763%,0%);fill-opacity:1;" d="M 239.449219 44.167969 L 239.5625 43.921875 L 239.84375 43.355469 L 240.023438 43.027344 L 240.21875 42.710938 L 240.421875 42.4375 L 240.613281 42.238281 L 240.824219 42.101562 L 241.128906 41.960938 L 241.484375 41.820312 L 241.859375 41.691406 L 242.511719 41.488281 L 242.796875 41.40625 L 235.945312 36.582031 Z M 239.449219 44.167969 "/>
<path style=" stroke:none;fill-rule:evenodd;fill:rgb(100%,50.000763%,0%);fill-opacity:1;" d="M 240.351562 25.804688 L 240.351562 25.332031 L 239.308594 25.332031 L 236.480469 18.355469 C 236.402344 18.15625 236.378906 18.101562 236.117188 18.101562 C 235.839844 18.101562 235.820312 18.15625 235.742188 18.355469 L 233.011719 25.070312 C 232.9375 25.246094 232.9375 25.265625 232.628906 25.300781 C 232.351562 25.332031 232.308594 25.332031 232.066406 25.332031 L 231.867188 25.332031 L 231.867188 25.804688 C 232.15625 25.785156 232.816406 25.785156 233.136719 25.785156 C 233.433594 25.785156 234.234375 25.785156 234.488281 25.804688 L 234.488281 25.332031 C 234.246094 25.332031 233.828125 25.332031 233.519531 25.210938 C 233.550781 25.113281 233.550781 25.089844 233.574219 25.046875 L 234.15625 23.617188 L 237.109375 23.617188 L 237.800781 25.332031 L 236.765625 25.332031 L 236.765625 25.804688 C 237.117188 25.785156 238.1875 25.785156 238.601562 25.785156 C 238.957031 25.785156 240.078125 25.785156 240.351562 25.804688 Z M 236.910156 23.144531 L 234.34375 23.144531 L 235.632812 19.972656 Z M 236.910156 23.144531 "/>
<path style="fill:none;stroke-width:1;stroke-linecap:butt;stroke-linejoin:miter;stroke:rgb(100%,50.000763%,0%);stroke-opacity:1;stroke-miterlimit:3.25;" d="M 73.304688 14.878906 L 72.257812 14.933594 L 71.1875 15.015625 L 70.09375 15.128906 L 68.980469 15.273438 L 67.847656 15.449219 L 66.699219 15.65625 L 65.527344 15.902344 L 64.34375 16.179688 L 63.140625 16.492188 L 61.921875 16.847656 L 60.691406 17.238281 L 59.449219 17.667969 L 58.195312 18.136719 L 56.929688 18.648438 L 55.65625 19.199219 L 54.375 19.792969 L 53.089844 20.433594 L 51.800781 21.113281 L 50.503906 21.839844 L 49.207031 22.613281 L 47.910156 23.429688 L 46.617188 24.292969 L 45.324219 25.203125 L 44.035156 26.164062 L 42.75 27.167969 L 41.632812 28.089844 L 40.527344 29.050781 L 39.414062 30.070312 L 38.292969 31.148438 L 37.164062 32.292969 L 36.035156 33.5 L 34.902344 34.773438 L 33.769531 36.109375 L 32.644531 37.511719 L 31.53125 38.976562 L 30.429688 40.5 L 29.34375 42.085938 L 28.28125 43.734375 L 27.234375 45.441406 L 26.21875 47.207031 L 25.226562 49.03125 L 24.265625 50.914062 L 23.335938 52.851562 L 22.441406 54.847656 L 21.585938 56.898438 L 20.769531 59 L 19.996094 61.15625 L 19.265625 63.363281 L 18.582031 65.621094 L 17.949219 67.925781 L 17.371094 70.277344 L 16.839844 72.671875 L 16.371094 75.109375 L 15.953125 77.585938 L 15.597656 80.105469 L 15.304688 82.65625 L 15.074219 85.246094 L 14.90625 87.867188 L 14.847656 89.097656 "/>
<path style=" stroke:none;fill-rule:nonzero;fill:rgb(100%,50.000763%,0%);fill-opacity:1;" d="M 34.167969 38.175781 L 33.902344 38.152344 L 33.269531 38.070312 L 32.902344 38.007812 L 32.539062 37.925781 L 32.214844 37.824219 L 31.964844 37.703125 L 31.765625 37.550781 L 31.535156 37.3125 L 31.285156 37.019531 L 31.042969 36.707031 L 30.636719 36.15625 L 30.46875 35.914062 L 28.140625 43.960938 Z M 34.167969 38.175781 "/>
<path style=" stroke:none;fill-rule:evenodd;fill:rgb(100%,50.000763%,0%);fill-opacity:1;" d="M 35.507812 25.027344 C 35.507812 24.839844 35.441406 24.828125 35.277344 24.828125 C 35.167969 24.828125 35.058594 24.828125 35.046875 24.949219 C 34.945312 26.621094 33.527344 27.195312 32.539062 27.195312 C 31.820312 27.195312 30.855469 26.996094 30.238281 26.300781 C 29.855469 25.886719 29.503906 25.277344 29.503906 23.761719 C 29.503906 22.683594 29.667969 21.878906 30.183594 21.265625 C 30.886719 20.441406 31.988281 20.328125 32.515625 20.328125 C 33.339844 20.328125 34.671875 20.792969 35.003906 22.726562 C 35.023438 22.828125 35.121094 22.828125 35.253906 22.828125 C 35.507812 22.828125 35.507812 22.804688 35.507812 22.539062 L 35.507812 20.144531 C 35.507812 19.890625 35.507812 19.855469 35.265625 19.855469 L 34.441406 20.648438 C 33.824219 20.121094 33.085938 19.855469 32.273438 19.855469 C 29.644531 19.855469 27.953125 21.453125 27.953125 23.761719 C 27.953125 26.027344 29.589844 27.667969 32.285156 27.667969 C 34.242188 27.667969 35.507812 26.324219 35.507812 25.027344 Z M 35.507812 25.027344 "/>
<path style=" stroke:none;fill-rule:evenodd;fill:rgb(0%,0%,0%);fill-opacity:1;" d="M 16.5 89 C 16.5 88.601562 16.34375 88.21875 16.0625 87.9375 C 15.78125 87.65625 15.398438 87.5 15 87.5 C 14.601562 87.5 14.21875 87.65625 13.9375 87.9375 C 13.65625 88.21875 13.5 88.601562 13.5 89 C 13.5 89.398438 13.65625 89.78125 13.9375 90.0625 C 14.21875 90.34375 14.601562 90.5 15 90.5 C 15.398438 90.5 15.78125 90.34375 16.0625 90.0625 C 16.34375 89.78125 16.5 89.398438 16.5 89 Z M 16.5 89 "/>
<path style=" stroke:none;fill-rule:evenodd;fill:rgb(0%,0%,0%);fill-opacity:1;" d="M 74.5 15 C 74.5 14.601562 74.34375 14.21875 74.0625 13.9375 C 73.78125 13.65625 73.398438 13.5 73 13.5 C 72.601562 13.5 72.21875 13.65625 71.9375 13.9375 C 71.65625 14.21875 71.5 14.601562 71.5 15 C 71.5 15.398438 71.65625 15.78125 71.9375 16.0625 C 72.21875 16.34375 72.601562 16.5 73 16.5 C 73.398438 16.5 73.78125 16.34375 74.0625 16.0625 C 74.34375 15.78125 74.5 15.398438 74.5 15 Z M 74.5 15 "/>
<path style=" stroke:none;fill-rule:evenodd;fill:rgb(0%,0%,0%);fill-opacity:1;" d="M 196.5 15 C 196.5 14.601562 196.34375 14.21875 196.0625 13.9375 C 195.78125 13.65625 195.398438 13.5 195 13.5 C 194.601562 13.5 194.21875 13.65625 193.9375 13.9375 C 193.65625 14.21875 193.5 14.601562 193.5 15 C 193.5 15.398438 193.65625 15.78125 193.9375 16.0625 C 194.21875 16.34375 194.601562 16.5 195 16.5 C 195.398438 16.5 195.78125 16.34375 196.0625 16.0625 C 196.34375 15.78125 196.5 15.398438 196.5 15 Z M 196.5 15 "/>
<path style=" stroke:none;fill-rule:evenodd;fill:rgb(0%,0%,0%);fill-opacity:1;" d="M 255.5 89 C 255.5 88.601562 255.34375 88.21875 255.0625 87.9375 C 254.78125 87.65625 254.398438 87.5 254 87.5 C 253.601562 87.5 253.21875 87.65625 252.9375 87.9375 C 252.65625 88.21875 252.5 88.601562 252.5 89 C 252.5 89.398438 252.65625 89.78125 252.9375 90.0625 C 253.21875 90.34375 253.601562 90.5 254 90.5 C 254.398438 90.5 254.78125 90.34375 255.0625 90.0625 C 255.34375 89.78125 255.5 89.398438 255.5 89 Z M 255.5 89 "/>
<path style=" stroke:none;fill-rule:evenodd;fill:rgb(0%,0%,0%);fill-opacity:1;" d="M 90.5 85 C 90.5 84.601562 90.34375 84.21875 90.0625 83.9375 C 89.78125 83.65625 89.398438 83.5 89 83.5 C 88.601562 83.5 88.21875 83.65625 87.9375 83.9375 C 87.65625 84.21875 87.5 84.601562 87.5 85 C 87.5 85.398438 87.65625 85.78125 87.9375 86.0625 C 88.21875 86.34375 88.601562 86.5 89 86.5 C 89.398438 86.5 89.78125 86.34375 90.0625 86.0625 C 90.34375 85.78125 90.5 85.398438 90.5 85 Z M 90.5 85 "/>
<path style=" stroke:none;fill-rule:evenodd;fill:rgb(0%,0%,0%);fill-opacity:1;" d="M 76.5 89 C 76.5 88.601562 76.34375 88.21875 76.0625 87.9375 C 75.78125 87.65625 75.398438 87.5 75 87.5 C 74.601562 87.5 74.21875 87.65625 73.9375 87.9375 C 73.65625 88.21875 73.5 88.601562 73.5 89 C 73.5 89.398438 73.65625 89.78125 73.9375 90.0625 C 74.21875 90.34375 74.601562 90.5 75 90.5 C 75.398438 90.5 75.78125 90.34375 76.0625 90.0625 C 76.34375 89.78125 76.5 89.398438 76.5 89 Z M 76.5 89 "/>
<path style=" stroke:none;fill-rule:evenodd;fill:rgb(0%,0%,0%);fill-opacity:1;" d="M 196.5 89 C 196.5 88.601562 196.34375 88.21875 196.0625 87.9375 C 195.78125 87.65625 195.398438 87.5 195 87.5 C 194.601562 87.5 194.21875 87.65625 193.9375 87.9375 C 193.65625 88.21875 193.5 88.601562 193.5 89 C 193.5 89.398438 193.65625 89.78125 193.9375 90.0625 C 194.21875 90.34375 194.601562 90.5 195 90.5 C 195.398438 90.5 195.78125 90.34375 196.0625 90.0625 C 196.34375 89.78125 196.5 89.398438 196.5 89 Z M 196.5 89 "/>
<path style=" stroke:none;fill-rule:evenodd;fill:rgb(0%,0%,0%);fill-opacity:1;" d="M 181.5 85 C 181.5 84.601562 181.34375 84.21875 181.0625 83.9375 C 180.78125 83.65625 180.398438 83.5 180 83.5 C 179.601562 83.5 179.21875 83.65625 178.9375 83.9375 C 178.65625 84.21875 178.5 84.601562 178.5 85 C 178.5 85.398438 178.65625 85.78125 178.9375 86.0625 C 179.21875 86.34375 179.601562 86.5 180 86.5 C 180.398438 86.5 180.78125 86.34375 181.0625 86.0625 C 181.34375 85.78125 181.5 85.398438 181.5 85 Z M 181.5 85 "/>
</g>
</svg>
