<?xml version="1.0" encoding="UTF-8"?>
<svg xmlns="http://www.w3.org/2000/svg" xmlns:xlink="http://www.w3.org/1999/xlink" width="404pt" height="109pt" viewBox="0 0 404 109" version="1.1">
<defs>
<clipPath id="clip1">
  <path d="M 8.878906 42 L 93 42 L 93 101.761719 L 8.878906 101.761719 Z M 8.878906 42 "/>
</clipPath>
<clipPath id="clip2">
  <path d="M 8.878906 65 L 70 65 L 70 101.761719 L 8.878906 101.761719 Z M 8.878906 65 "/>
</clipPath>
<clipPath id="clip3">
  <path d="M 8.878906 41 L 94 41 L 94 101.761719 L 8.878906 101.761719 Z M 8.878906 41 "/>
</clipPath>
<clipPath id="clip4">
  <path d="M 107.28125 20 L 198.480469 20 L 198.480469 101.761719 L 107.28125 101.761719 Z M 107.28125 20 "/>
</clipPath>
<clipPath id="clip5">
  <path d="M 107.28125 48 L 198.480469 48 L 198.480469 101.761719 L 107.28125 101.761719 Z M 107.28125 48 "/>
</clipPath>
<clipPath id="clip6">
  <path d="M 107.28125 15 L 198.480469 15 L 198.480469 101.761719 L 107.28125 101.761719 Z M 107.28125 15 "/>
</clipPath>
<clipPath id="clip7">
  <path d="M 205.441406 20 L 296.640625 20 L 296.640625 101.761719 L 205.441406 101.761719 Z M 205.441406 20 "/>
</clipPath>
<clipPath id="clip8">
  <path d="M 205.441406 48 L 296.640625 48 L 296.640625 101.761719 L 205.441406 101.761719 Z M 205.441406 48 "/>
</clipPath>
<clipPath id="clip9">
  <path d="M 205.441406 15 L 296.640625 15 L 296.640625 101.761719 L 205.441406 101.761719 Z M 205.441406 15 "/>
</clipPath>
<clipPath id="clip10">
  <path d="M 311 42 L 395.039062 42 L 395.039062 101.761719 L 311 101.761719 Z M 311 42 "/>
</clipPath>
<clipPath id="clip11">
  <path d="M 334 65 L 395.039062 65 L 395.039062 101.761719 L 334 101.761719 Z M 334 65 "/>
</clipPath>
<clipPath id="clip12">
  <path d="M 310 41 L 395.039062 41 L 395.039062 101.761719 L 310 101.761719 Z M 310 41 "/>
</clipPath>
</defs>
<g id="surface83">
<g clip-path="url(#clip1)" clip-rule="nonzero">
<path style=" stroke:none;fill-rule:nonzero;fill:rgb(74.999619%,74.999619%,74.999619%);fill-opacity:1;" d="M -25.960938 66.390625 L 69.15625 66.390625 L 69.15625 161.507812 L 92.9375 161.507812 L 92.9375 42.609375 L -25.960938 42.609375 Z M -25.960938 66.390625 "/>
</g>
<g clip-path="url(#clip2)" clip-rule="nonzero">
<path style="fill:none;stroke-width:1;stroke-linecap:square;stroke-linejoin:miter;stroke:rgb(0%,0%,0%);stroke-opacity:1;stroke-miterlimit:3.25;" d="M -25.960938 66.390625 L 69.15625 66.390625 L 69.15625 161.507812 "/>
</g>
<g clip-path="url(#clip3)" clip-rule="nonzero">
<path style="fill:none;stroke-width:1;stroke-linecap:square;stroke-linejoin:miter;stroke:rgb(0%,0%,0%);stroke-opacity:1;stroke-miterlimit:3.25;" d="M -25.960938 42.609375 L 92.9375 42.609375 L 92.9375 161.507812 "/>
</g>
<path style="fill-rule:nonzero;fill:rgb(100%,100%,86.999313%);fill-opacity:1;stroke-width:1;stroke-linecap:square;stroke-linejoin:miter;stroke:rgb(0%,0%,0%);stroke-opacity:1;stroke-miterlimit:3.25;" d="M 69.085938 65.078125 L 68.980469 64.238281 L 68.835938 63.410156 L 68.652344 62.597656 L 68.4375 61.800781 L 68.1875 61.019531 L 67.90625 60.257812 L 67.589844 59.515625 L 67.242188 58.796875 L 66.863281 58.097656 L 66.457031 57.425781 L 66.019531 56.777344 L 65.558594 56.15625 L 65.066406 55.5625 L 64.550781 55 L 64.011719 54.464844 L 63.449219 53.960938 L 62.867188 53.488281 L 62.261719 53.046875 L 61.640625 52.640625 L 61 52.269531 L 60.34375 51.933594 L 59.675781 51.632812 L 58.992188 51.371094 L 58.300781 51.144531 L 57.597656 50.953125 L 56.886719 50.804688 L 56.171875 50.695312 L 55.453125 50.625 L 54.730469 50.59375 L 54.007812 50.605469 L 53.289062 50.65625 L 52.570312 50.75 L 51.859375 50.878906 L 51.152344 51.050781 L 50.453125 51.261719 L 49.765625 51.507812 L 49.089844 51.789062 L 48.429688 52.109375 L 47.78125 52.464844 L 47.152344 52.855469 L 46.539062 53.277344 L 45.945312 53.734375 L 45.371094 54.226562 L 44.824219 54.746094 L 44.296875 55.296875 L 43.792969 55.878906 L 43.316406 56.488281 L 42.867188 57.121094 L 42.445312 57.785156 L 42.054688 58.46875 L 41.695312 59.179688 L 41.363281 59.910156 L 41.066406 60.664062 L 40.800781 61.433594 L 40.566406 62.222656 L 40.371094 63.027344 L 40.210938 63.851562 L 40.082031 64.683594 L 40.039062 65.078125 L 40 65.105469 L 39.960938 65.136719 L 39.917969 65.171875 L 39.875 65.203125 L 39.824219 65.234375 L 39.777344 65.269531 L 39.667969 65.339844 L 39.609375 65.378906 L 39.484375 65.449219 L 39.417969 65.488281 L 39.347656 65.527344 L 39.273438 65.5625 L 39.199219 65.601562 L 39.121094 65.640625 L 39.039062 65.675781 L 38.957031 65.714844 L 38.871094 65.753906 L 38.777344 65.789062 L 38.6875 65.828125 L 38.492188 65.898438 L 38.390625 65.933594 L 38.285156 65.96875 L 38.175781 66.003906 L 38.066406 66.035156 L 37.953125 66.066406 L 37.835938 66.097656 L 37.714844 66.128906 L 37.59375 66.15625 L 37.335938 66.210938 L 37.207031 66.234375 L 36.933594 66.28125 L 36.792969 66.300781 L 36.503906 66.332031 L 36.355469 66.347656 L 36.203125 66.359375 L 36.046875 66.371094 L 35.890625 66.378906 L 35.71875 66.386719 L 35.542969 66.386719 L 16.1875 66.390625 L 16.207031 65.996094 L 16.261719 65.15625 L 16.335938 64.328125 L 16.429688 63.511719 L 16.542969 62.703125 L 16.675781 61.910156 L 16.828125 61.128906 L 16.996094 60.363281 L 17.183594 59.609375 L 17.386719 58.871094 L 17.601562 58.148438 L 17.835938 57.441406 L 18.085938 56.75 L 18.347656 56.078125 L 18.621094 55.421875 L 18.90625 54.78125 L 19.203125 54.160156 L 19.511719 53.558594 L 19.828125 52.972656 L 20.15625 52.40625 L 20.488281 51.863281 L 20.832031 51.335938 L 21.179688 50.824219 L 21.53125 50.335938 L 21.886719 49.867188 L 22.25 49.417969 L 22.609375 48.992188 L 22.972656 48.585938 L 23.335938 48.199219 L 23.699219 47.832031 L 24.054688 47.484375 L 24.414062 47.160156 L 24.765625 46.851562 L 25.125 46.554688 L 25.535156 46.234375 L 25.949219 45.925781 L 26.363281 45.636719 L 26.777344 45.359375 L 27.191406 45.097656 L 27.609375 44.851562 L 28.023438 44.617188 L 28.4375 44.398438 L 28.847656 44.195312 L 29.257812 44.003906 L 29.667969 43.828125 L 30.070312 43.664062 L 30.472656 43.511719 L 30.871094 43.375 L 31.265625 43.25 L 31.65625 43.136719 L 32.039062 43.035156 L 32.421875 42.949219 L 32.792969 42.871094 L 33.164062 42.800781 L 33.527344 42.746094 L 33.882812 42.699219 L 34.230469 42.664062 L 34.574219 42.636719 L 34.910156 42.621094 L 73.75 42.609375 L 74.054688 42.613281 L 74.371094 42.625 L 74.710938 42.648438 L 75.054688 42.679688 L 75.410156 42.71875 L 75.769531 42.769531 L 76.132812 42.832031 L 76.503906 42.902344 L 76.882812 42.988281 L 77.265625 43.082031 L 77.652344 43.1875 L 78.042969 43.308594 L 78.4375 43.4375 L 78.839844 43.582031 L 79.242188 43.738281 L 79.648438 43.90625 L 80.058594 44.089844 L 80.46875 44.289062 L 80.882812 44.5 L 81.296875 44.722656 L 81.710938 44.964844 L 82.125 45.21875 L 82.542969 45.484375 L 82.957031 45.769531 L 83.371094 46.066406 L 83.78125 46.382812 L 84.171875 46.695312 L 84.523438 46.992188 L 84.878906 47.308594 L 85.234375 47.644531 L 85.597656 48 L 85.957031 48.375 L 86.320312 48.769531 L 86.683594 49.1875 L 87.042969 49.625 L 87.402344 50.085938 L 87.757812 50.5625 L 88.109375 51.058594 L 88.453125 51.578125 L 88.792969 52.113281 L 89.121094 52.667969 L 89.445312 53.242188 L 89.757812 53.835938 L 90.0625 54.449219 L 90.355469 55.078125 L 90.632812 55.722656 L 90.902344 56.390625 L 91.15625 57.070312 L 91.398438 57.769531 L 91.625 58.484375 L 91.835938 59.214844 L 92.03125 59.957031 L 92.210938 60.71875 L 92.371094 61.492188 L 92.515625 62.277344 L 92.636719 63.078125 L 92.742188 63.890625 L 92.828125 64.710938 L 92.894531 65.546875 L 92.9375 66.390625 L 73.613281 66.390625 L 73.480469 66.386719 L 73.34375 66.382812 L 73.21875 66.378906 L 72.976562 66.363281 L 72.859375 66.355469 L 72.746094 66.347656 L 72.519531 66.324219 L 72.40625 66.308594 L 72.300781 66.296875 L 72.191406 66.28125 L 72.085938 66.261719 L 71.980469 66.246094 L 71.878906 66.226562 L 71.78125 66.207031 L 71.679688 66.1875 L 71.582031 66.167969 L 71.488281 66.148438 L 71.394531 66.125 L 71.125 66.054688 L 71.039062 66.03125 L 70.953125 66.003906 L 70.871094 65.976562 L 70.789062 65.953125 L 70.554688 65.871094 L 70.480469 65.84375 L 70.410156 65.816406 L 70.339844 65.785156 L 70.269531 65.757812 L 70.203125 65.730469 L 70.136719 65.699219 L 70.011719 65.644531 L 69.949219 65.613281 L 69.890625 65.585938 L 69.835938 65.554688 L 69.726562 65.5 L 69.675781 65.46875 L 69.574219 65.414062 L 69.527344 65.382812 L 69.484375 65.355469 L 69.4375 65.328125 L 69.398438 65.300781 L 69.355469 65.273438 L 69.316406 65.25 L 69.246094 65.195312 L 69.175781 65.148438 L 69.144531 65.125 L 69.117188 65.101562 Z M 69.085938 65.078125 "/>
<g clip-path="url(#clip4)" clip-rule="nonzero">
<path style=" stroke:none;fill-rule:nonzero;fill:rgb(74.999619%,74.999619%,74.999619%);fill-opacity:1;" d="M 77.578125 100.210938 L 159.949219 52.652344 L 207.507812 135.023438 L 228.101562 123.136719 L 168.65625 20.167969 L 65.6875 79.617188 Z M 77.578125 100.210938 "/>
</g>
<g clip-path="url(#clip5)" clip-rule="nonzero">
<path style="fill:none;stroke-width:1;stroke-linecap:square;stroke-linejoin:miter;stroke:rgb(0%,0%,0%);stroke-opacity:1;stroke-miterlimit:3.25;" d="M 77.578125 100.210938 L 159.949219 52.652344 L 207.507812 135.023438 "/>
</g>
<g clip-path="url(#clip6)" clip-rule="nonzero">
<path style="fill:none;stroke-width:1;stroke-linecap:square;stroke-linejoin:miter;stroke:rgb(0%,0%,0%);stroke-opacity:1;stroke-miterlimit:3.25;" d="M 65.6875 79.617188 L 168.65625 20.167969 L 228.101562 123.136719 "/>
</g>
<path style="fill-rule:nonzero;fill:rgb(100%,100%,86.999313%);fill-opacity:1;stroke-width:1;stroke-linecap:square;stroke-linejoin:miter;stroke:rgb(0%,0%,0%);stroke-opacity:1;stroke-miterlimit:3.25;" d="M 167.382812 65.078125 L 167.277344 64.238281 L 167.128906 63.410156 L 166.949219 62.597656 L 166.734375 61.800781 L 166.484375 61.019531 L 166.203125 60.257812 L 165.886719 59.515625 L 165.539062 58.796875 L 165.160156 58.097656 L 164.753906 57.425781 L 164.316406 56.777344 L 163.851562 56.15625 L 163.363281 55.5625 L 162.847656 55 L 162.308594 54.464844 L 161.746094 53.960938 L 161.164062 53.488281 L 160.558594 53.046875 L 159.9375 52.640625 L 159.296875 52.269531 L 158.640625 51.933594 L 157.972656 51.632812 L 157.289062 51.371094 L 156.597656 51.144531 L 155.894531 50.953125 L 155.183594 50.804688 L 154.46875 50.695312 L 153.75 50.625 L 153.027344 50.59375 L 152.304688 50.605469 L 151.585938 50.65625 L 150.867188 50.75 L 150.15625 50.878906 L 149.449219 51.050781 L 148.75 51.261719 L 148.0625 51.507812 L 147.386719 51.789062 L 146.726562 52.109375 L 146.078125 52.464844 L 145.449219 52.855469 L 144.835938 53.277344 L 144.242188 53.734375 L 143.667969 54.226562 L 143.121094 54.746094 L 142.59375 55.296875 L 142.089844 55.878906 L 141.613281 56.488281 L 141.164062 57.121094 L 140.742188 57.785156 L 140.351562 58.46875 L 139.992188 59.179688 L 139.660156 59.910156 L 139.363281 60.664062 L 139.097656 61.433594 L 138.863281 62.222656 L 138.667969 63.027344 L 138.507812 63.851562 L 138.378906 64.683594 L 138.335938 65.078125 L 138.296875 65.105469 L 138.257812 65.136719 L 138.214844 65.171875 L 138.121094 65.234375 L 138.019531 65.304688 L 137.964844 65.339844 L 137.90625 65.378906 L 137.78125 65.449219 L 137.714844 65.488281 L 137.644531 65.527344 L 137.570312 65.5625 L 137.496094 65.601562 L 137.417969 65.640625 L 137.335938 65.675781 L 137.253906 65.714844 L 137.164062 65.753906 L 137.074219 65.789062 L 136.984375 65.828125 L 136.789062 65.898438 L 136.6875 65.933594 L 136.582031 65.96875 L 136.472656 66.003906 L 136.363281 66.035156 L 136.25 66.066406 L 136.132812 66.097656 L 136.011719 66.128906 L 135.890625 66.15625 L 135.632812 66.210938 L 135.503906 66.234375 L 135.230469 66.28125 L 135.089844 66.300781 L 134.800781 66.332031 L 134.652344 66.347656 L 134.5 66.359375 L 134.34375 66.371094 L 134.1875 66.378906 L 134.015625 66.386719 L 133.839844 66.386719 L 114.484375 66.390625 L 114.503906 65.996094 L 114.558594 65.15625 L 114.632812 64.328125 L 114.726562 63.511719 L 114.839844 62.703125 L 114.972656 61.910156 L 115.125 61.128906 L 115.292969 60.363281 L 115.480469 59.609375 L 115.679688 58.871094 L 115.898438 58.148438 L 116.132812 57.441406 L 116.382812 56.75 L 116.644531 56.078125 L 116.917969 55.421875 L 117.203125 54.78125 L 117.5 54.160156 L 117.808594 53.558594 L 118.125 52.972656 L 118.453125 52.40625 L 118.785156 51.863281 L 119.128906 51.335938 L 119.476562 50.824219 L 119.828125 50.335938 L 120.183594 49.867188 L 120.546875 49.417969 L 120.90625 48.992188 L 121.269531 48.585938 L 121.632812 48.199219 L 121.992188 47.832031 L 122.351562 47.484375 L 122.710938 47.160156 L 123.0625 46.851562 L 123.421875 46.554688 L 123.832031 46.234375 L 124.246094 45.925781 L 124.660156 45.636719 L 125.074219 45.359375 L 125.488281 45.097656 L 125.90625 44.851562 L 126.320312 44.617188 L 126.734375 44.398438 L 127.144531 44.195312 L 127.554688 44.003906 L 127.960938 43.828125 L 128.367188 43.664062 L 128.769531 43.511719 L 129.167969 43.375 L 129.5625 43.25 L 129.953125 43.136719 L 130.335938 43.035156 L 130.714844 42.949219 L 131.089844 42.871094 L 131.460938 42.800781 L 131.824219 42.746094 L 132.179688 42.699219 L 132.527344 42.664062 L 132.871094 42.636719 L 133.207031 42.621094 L 172.046875 42.609375 L 172.351562 42.613281 L 172.667969 42.625 L 173.007812 42.648438 L 173.351562 42.679688 L 173.703125 42.71875 L 174.0625 42.769531 L 174.429688 42.832031 L 174.800781 42.902344 L 175.179688 42.988281 L 175.5625 43.082031 L 175.949219 43.1875 L 176.339844 43.308594 L 176.734375 43.4375 L 177.136719 43.582031 L 177.539062 43.738281 L 177.945312 43.90625 L 178.355469 44.089844 L 178.765625 44.289062 L 179.179688 44.5 L 179.59375 44.722656 L 180.007812 44.964844 L 180.421875 45.21875 L 180.835938 45.484375 L 181.253906 45.769531 L 181.664062 46.066406 L 182.078125 46.382812 L 182.46875 46.695312 L 182.820312 46.992188 L 183.175781 47.308594 L 183.53125 47.644531 L 183.894531 48 L 184.253906 48.375 L 184.617188 48.769531 L 184.980469 49.1875 L 185.339844 49.625 L 185.699219 50.085938 L 186.054688 50.5625 L 186.40625 51.058594 L 186.75 51.578125 L 187.089844 52.113281 L 187.417969 52.667969 L 187.742188 53.242188 L 188.054688 53.835938 L 188.359375 54.449219 L 188.648438 55.078125 L 188.929688 55.722656 L 189.199219 56.390625 L 189.453125 57.070312 L 189.695312 57.769531 L 189.921875 58.484375 L 190.132812 59.214844 L 190.328125 59.957031 L 190.507812 60.71875 L 190.667969 61.492188 L 190.8125 62.277344 L 190.933594 63.078125 L 191.039062 63.890625 L 191.125 64.710938 L 191.191406 65.546875 L 191.234375 66.390625 L 171.910156 66.390625 L 171.777344 66.386719 L 171.640625 66.382812 L 171.515625 66.378906 L 171.273438 66.363281 L 171.15625 66.355469 L 171.042969 66.347656 L 170.925781 66.335938 L 170.816406 66.324219 L 170.703125 66.308594 L 170.59375 66.296875 L 170.488281 66.28125 L 170.382812 66.261719 L 170.277344 66.246094 L 170.074219 66.207031 L 169.878906 66.167969 L 169.785156 66.148438 L 169.691406 66.125 L 169.601562 66.101562 L 169.507812 66.078125 L 169.335938 66.03125 L 169.25 66.003906 L 169.167969 65.976562 L 169.085938 65.953125 L 168.851562 65.871094 L 168.777344 65.84375 L 168.707031 65.816406 L 168.636719 65.785156 L 168.566406 65.757812 L 168.5 65.730469 L 168.433594 65.699219 L 168.308594 65.644531 L 168.246094 65.613281 L 168.1875 65.585938 L 168.132812 65.554688 L 168.023438 65.5 L 167.96875 65.46875 L 167.921875 65.441406 L 167.871094 65.414062 L 167.824219 65.382812 L 167.78125 65.355469 L 167.734375 65.328125 L 167.695312 65.300781 L 167.652344 65.273438 L 167.613281 65.25 L 167.542969 65.195312 L 167.472656 65.148438 L 167.441406 65.125 L 167.414062 65.101562 Z M 167.382812 65.078125 "/>
<g clip-path="url(#clip7)" clip-rule="nonzero">
<path style=" stroke:none;fill-rule:nonzero;fill:rgb(74.999619%,74.999619%,74.999619%);fill-opacity:1;" d="M 196.507812 135.023438 L 244.0625 52.652344 L 326.4375 100.210938 L 338.328125 79.617188 L 235.359375 20.167969 L 175.914062 123.136719 Z M 196.507812 135.023438 "/>
</g>
<g clip-path="url(#clip8)" clip-rule="nonzero">
<path style="fill:none;stroke-width:1;stroke-linecap:square;stroke-linejoin:miter;stroke:rgb(0%,0%,0%);stroke-opacity:1;stroke-miterlimit:3.25;" d="M 196.507812 135.023438 L 244.0625 52.652344 L 326.4375 100.210938 "/>
</g>
<g clip-path="url(#clip9)" clip-rule="nonzero">
<path style="fill:none;stroke-width:1;stroke-linecap:square;stroke-linejoin:miter;stroke:rgb(0%,0%,0%);stroke-opacity:1;stroke-miterlimit:3.25;" d="M 175.914062 123.136719 L 235.359375 20.167969 L 338.328125 79.617188 "/>
</g>
<path style="fill-rule:nonzero;fill:rgb(100%,100%,86.999313%);fill-opacity:1;stroke-width:1;stroke-linecap:square;stroke-linejoin:miter;stroke:rgb(0%,0%,0%);stroke-opacity:1;stroke-miterlimit:3.25;" d="M 265.679688 65.078125 L 265.570312 64.238281 L 265.425781 63.410156 L 265.246094 62.597656 L 265.03125 61.800781 L 264.78125 61.019531 L 264.5 60.257812 L 264.183594 59.515625 L 263.835938 58.796875 L 263.457031 58.097656 L 263.050781 57.425781 L 262.613281 56.777344 L 262.148438 56.15625 L 261.660156 55.5625 L 261.144531 55 L 260.605469 54.464844 L 260.042969 53.960938 L 259.457031 53.488281 L 258.855469 53.046875 L 258.234375 52.640625 L 257.59375 52.269531 L 256.9375 51.933594 L 256.269531 51.632812 L 255.585938 51.371094 L 254.894531 51.144531 L 254.191406 50.953125 L 253.480469 50.804688 L 252.765625 50.695312 L 252.046875 50.625 L 251.324219 50.59375 L 250.601562 50.605469 L 249.882812 50.65625 L 249.164062 50.75 L 248.453125 50.878906 L 247.746094 51.050781 L 247.046875 51.261719 L 246.359375 51.507812 L 245.683594 51.789062 L 245.019531 52.109375 L 244.375 52.464844 L 243.742188 52.855469 L 243.132812 53.277344 L 242.539062 53.734375 L 241.964844 54.226562 L 241.414062 54.746094 L 240.890625 55.296875 L 240.386719 55.878906 L 239.910156 56.488281 L 239.460938 57.121094 L 239.039062 57.785156 L 238.648438 58.46875 L 238.285156 59.179688 L 237.957031 59.910156 L 237.65625 60.664062 L 237.394531 61.433594 L 237.160156 62.222656 L 236.964844 63.027344 L 236.800781 63.851562 L 236.675781 64.683594 L 236.632812 65.078125 L 236.59375 65.105469 L 236.554688 65.136719 L 236.511719 65.171875 L 236.417969 65.234375 L 236.316406 65.304688 L 236.261719 65.339844 L 236.203125 65.378906 L 236.078125 65.449219 L 236.011719 65.488281 L 235.941406 65.527344 L 235.867188 65.5625 L 235.792969 65.601562 L 235.714844 65.640625 L 235.632812 65.675781 L 235.550781 65.714844 L 235.460938 65.753906 L 235.371094 65.789062 L 235.28125 65.828125 L 235.085938 65.898438 L 234.984375 65.933594 L 234.878906 65.96875 L 234.769531 66.003906 L 234.660156 66.035156 L 234.546875 66.066406 L 234.429688 66.097656 L 234.308594 66.128906 L 234.058594 66.183594 L 233.929688 66.210938 L 233.800781 66.234375 L 233.527344 66.28125 L 233.386719 66.300781 L 233.097656 66.332031 L 232.949219 66.347656 L 232.796875 66.359375 L 232.640625 66.371094 L 232.484375 66.378906 L 232.3125 66.386719 L 232.136719 66.386719 L 212.78125 66.390625 L 212.800781 65.996094 L 212.851562 65.15625 L 212.925781 64.328125 L 213.023438 63.511719 L 213.136719 62.703125 L 213.269531 61.910156 L 213.421875 61.128906 L 213.589844 60.363281 L 213.773438 59.609375 L 213.976562 58.871094 L 214.195312 58.148438 L 214.429688 57.441406 L 214.679688 56.75 L 214.9375 56.078125 L 215.214844 55.421875 L 215.5 54.78125 L 215.796875 54.160156 L 216.105469 53.558594 L 216.421875 52.972656 L 216.75 52.40625 L 217.082031 51.863281 L 217.425781 51.335938 L 217.773438 50.824219 L 218.125 50.335938 L 218.480469 49.867188 L 218.84375 49.417969 L 219.203125 48.992188 L 219.566406 48.585938 L 219.929688 48.199219 L 220.289062 47.832031 L 220.648438 47.484375 L 221.007812 47.160156 L 221.359375 46.851562 L 221.71875 46.554688 L 222.128906 46.234375 L 222.542969 45.925781 L 222.957031 45.636719 L 223.371094 45.359375 L 223.785156 45.097656 L 224.203125 44.851562 L 224.617188 44.617188 L 225.03125 44.398438 L 225.441406 44.195312 L 225.851562 44.003906 L 226.257812 43.828125 L 226.664062 43.664062 L 227.066406 43.511719 L 227.464844 43.375 L 227.859375 43.25 L 228.25 43.136719 L 228.632812 43.035156 L 229.011719 42.949219 L 229.386719 42.871094 L 229.757812 42.800781 L 230.117188 42.746094 L 230.476562 42.699219 L 230.824219 42.664062 L 231.167969 42.636719 L 231.503906 42.621094 L 270.34375 42.609375 L 270.644531 42.613281 L 270.964844 42.625 L 271.304688 42.648438 L 271.648438 42.679688 L 272 42.71875 L 272.359375 42.769531 L 272.726562 42.832031 L 273.097656 42.902344 L 273.476562 42.988281 L 273.855469 43.082031 L 274.246094 43.1875 L 274.636719 43.308594 L 275.03125 43.4375 L 275.433594 43.582031 L 275.835938 43.738281 L 276.242188 43.90625 L 276.652344 44.089844 L 277.0625 44.289062 L 277.476562 44.5 L 277.890625 44.722656 L 278.304688 44.964844 L 278.71875 45.21875 L 279.132812 45.484375 L 279.550781 45.769531 L 279.960938 46.066406 L 280.375 46.382812 L 280.765625 46.695312 L 281.117188 46.992188 L 281.472656 47.308594 L 281.828125 47.644531 L 282.1875 48 L 282.550781 48.375 L 282.914062 48.769531 L 283.277344 49.1875 L 283.636719 49.625 L 283.996094 50.085938 L 284.351562 50.5625 L 284.703125 51.058594 L 285.046875 51.578125 L 285.386719 52.113281 L 285.714844 52.667969 L 286.039062 53.242188 L 286.351562 53.835938 L 286.65625 54.449219 L 286.945312 55.078125 L 287.226562 55.722656 L 287.496094 56.390625 L 287.75 57.070312 L 287.992188 57.769531 L 288.21875 58.484375 L 288.429688 59.214844 L 288.625 59.957031 L 288.804688 60.71875 L 288.964844 61.492188 L 289.105469 62.277344 L 289.230469 63.078125 L 289.335938 63.890625 L 289.421875 64.710938 L 289.484375 65.546875 L 289.53125 66.390625 L 270.207031 66.390625 L 270.074219 66.386719 L 269.9375 66.382812 L 269.808594 66.378906 L 269.691406 66.371094 L 269.570312 66.363281 L 269.453125 66.355469 L 269.339844 66.347656 L 269.222656 66.335938 L 269.113281 66.324219 L 269 66.308594 L 268.890625 66.296875 L 268.785156 66.28125 L 268.679688 66.261719 L 268.574219 66.246094 L 268.371094 66.207031 L 268.175781 66.167969 L 268.082031 66.148438 L 267.894531 66.101562 L 267.804688 66.078125 L 267.632812 66.03125 L 267.546875 66.003906 L 267.464844 65.976562 L 267.382812 65.953125 L 267.148438 65.871094 L 267.074219 65.84375 L 267.003906 65.816406 L 266.933594 65.785156 L 266.863281 65.757812 L 266.796875 65.730469 L 266.730469 65.699219 L 266.605469 65.644531 L 266.542969 65.613281 L 266.484375 65.585938 L 266.429688 65.554688 L 266.371094 65.527344 L 266.320312 65.5 L 266.265625 65.46875 L 266.21875 65.441406 L 266.167969 65.414062 L 266.121094 65.382812 L 266.074219 65.355469 L 266.03125 65.328125 L 265.992188 65.300781 L 265.949219 65.273438 L 265.910156 65.25 L 265.875 65.222656 L 265.835938 65.195312 L 265.804688 65.171875 L 265.769531 65.148438 L 265.738281 65.125 L 265.710938 65.101562 Z M 265.679688 65.078125 "/>
<g clip-path="url(#clip10)" clip-rule="nonzero">
<path style=" stroke:none;fill-rule:nonzero;fill:rgb(74.999619%,74.999619%,74.999619%);fill-opacity:1;" d="M 334.859375 161.507812 L 334.859375 66.390625 L 429.972656 66.390625 L 429.972656 42.609375 L 311.078125 42.609375 L 311.078125 161.507812 Z M 334.859375 161.507812 "/>
</g>
<g clip-path="url(#clip11)" clip-rule="nonzero">
<path style="fill:none;stroke-width:1;stroke-linecap:square;stroke-linejoin:miter;stroke:rgb(0%,0%,0%);stroke-opacity:1;stroke-miterlimit:3.25;" d="M 334.859375 161.507812 L 334.859375 66.390625 L 429.972656 66.390625 "/>
</g>
<g clip-path="url(#clip12)" clip-rule="nonzero">
<path style="fill:none;stroke-width:1;stroke-linecap:square;stroke-linejoin:miter;stroke:rgb(0%,0%,0%);stroke-opacity:1;stroke-miterlimit:3.25;" d="M 311.078125 161.507812 L 311.078125 42.609375 L 429.972656 42.609375 "/>
</g>
<path style="fill-rule:nonzero;fill:rgb(100%,100%,86.999313%);fill-opacity:1;stroke-width:1;stroke-linecap:square;stroke-linejoin:miter;stroke:rgb(0%,0%,0%);stroke-opacity:1;stroke-miterlimit:3.25;" d="M 363.976562 65.078125 L 363.867188 64.238281 L 363.722656 63.410156 L 363.542969 62.597656 L 363.328125 61.800781 L 363.078125 61.019531 L 362.796875 60.257812 L 362.480469 59.515625 L 362.132812 58.796875 L 361.753906 58.097656 L 361.347656 57.425781 L 360.910156 56.777344 L 360.445312 56.15625 L 359.957031 55.5625 L 359.441406 55 L 358.902344 54.464844 L 358.339844 53.960938 L 357.753906 53.488281 L 357.152344 53.046875 L 356.53125 52.640625 L 355.890625 52.269531 L 355.234375 51.933594 L 354.566406 51.632812 L 353.882812 51.371094 L 353.191406 51.144531 L 352.488281 50.953125 L 351.777344 50.804688 L 351.0625 50.695312 L 350.339844 50.625 L 349.621094 50.59375 L 348.898438 50.605469 L 348.179688 50.65625 L 347.460938 50.75 L 346.746094 50.878906 L 346.042969 51.050781 L 345.34375 51.261719 L 344.65625 51.507812 L 343.980469 51.789062 L 343.316406 52.109375 L 342.671875 52.464844 L 342.039062 52.855469 L 341.429688 53.277344 L 340.835938 53.734375 L 340.261719 54.226562 L 339.710938 54.746094 L 339.1875 55.296875 L 338.683594 55.878906 L 338.207031 56.488281 L 337.757812 57.121094 L 337.335938 57.785156 L 336.945312 58.46875 L 336.582031 59.179688 L 336.253906 59.910156 L 335.953125 60.664062 L 335.6875 61.433594 L 335.457031 62.222656 L 335.261719 63.027344 L 335.097656 63.851562 L 334.972656 64.683594 L 334.925781 65.078125 L 334.890625 65.105469 L 334.851562 65.136719 L 334.808594 65.171875 L 334.714844 65.234375 L 334.613281 65.304688 L 334.558594 65.339844 L 334.5 65.378906 L 334.375 65.449219 L 334.308594 65.488281 L 334.238281 65.527344 L 334.164062 65.5625 L 334.089844 65.601562 L 334.011719 65.640625 L 333.929688 65.675781 L 333.847656 65.714844 L 333.757812 65.753906 L 333.667969 65.789062 L 333.574219 65.828125 L 333.480469 65.863281 L 333.382812 65.898438 L 333.277344 65.933594 L 333.175781 65.96875 L 333.066406 66.003906 L 332.957031 66.035156 L 332.839844 66.066406 L 332.726562 66.097656 L 332.605469 66.128906 L 332.355469 66.183594 L 332.226562 66.210938 L 332.097656 66.234375 L 331.824219 66.28125 L 331.683594 66.300781 L 331.394531 66.332031 L 331.246094 66.347656 L 331.09375 66.359375 L 330.9375 66.371094 L 330.78125 66.378906 L 330.609375 66.386719 L 330.433594 66.386719 L 311.078125 66.390625 L 311.097656 65.996094 L 311.148438 65.15625 L 311.222656 64.328125 L 311.320312 63.511719 L 311.433594 62.703125 L 311.566406 61.910156 L 311.714844 61.128906 L 311.886719 60.363281 L 312.070312 59.609375 L 312.273438 58.871094 L 312.492188 58.148438 L 312.726562 57.441406 L 312.972656 56.75 L 313.234375 56.078125 L 313.511719 55.421875 L 313.796875 54.78125 L 314.09375 54.160156 L 314.402344 53.558594 L 314.71875 52.972656 L 315.046875 52.40625 L 315.378906 51.863281 L 315.722656 51.335938 L 316.070312 50.824219 L 316.421875 50.335938 L 316.777344 49.867188 L 317.136719 49.417969 L 317.5 48.992188 L 317.863281 48.585938 L 318.226562 48.199219 L 318.585938 47.832031 L 318.945312 47.484375 L 319.304688 47.160156 L 319.65625 46.851562 L 320.015625 46.554688 L 320.425781 46.234375 L 320.839844 45.925781 L 321.253906 45.636719 L 321.667969 45.359375 L 322.082031 45.097656 L 322.496094 44.851562 L 322.914062 44.617188 L 323.324219 44.398438 L 323.738281 44.195312 L 324.148438 44.003906 L 324.554688 43.828125 L 324.960938 43.664062 L 325.363281 43.511719 L 325.761719 43.375 L 326.15625 43.25 L 326.542969 43.136719 L 326.929688 43.035156 L 327.308594 42.949219 L 327.683594 42.871094 L 328.054688 42.800781 L 328.414062 42.746094 L 328.773438 42.699219 L 329.121094 42.664062 L 329.464844 42.636719 L 329.800781 42.621094 L 368.640625 42.609375 L 368.941406 42.613281 L 369.261719 42.625 L 369.597656 42.648438 L 369.945312 42.679688 L 370.296875 42.71875 L 370.65625 42.769531 L 371.023438 42.832031 L 371.394531 42.902344 L 371.769531 42.988281 L 372.152344 43.082031 L 372.542969 43.1875 L 372.933594 43.308594 L 373.328125 43.4375 L 373.730469 43.582031 L 374.132812 43.738281 L 374.539062 43.90625 L 374.949219 44.089844 L 375.359375 44.289062 L 375.769531 44.5 L 376.183594 44.722656 L 376.601562 44.964844 L 377.015625 45.21875 L 377.429688 45.484375 L 377.84375 45.769531 L 378.257812 46.066406 L 378.671875 46.382812 L 379.0625 46.695312 L 379.414062 46.992188 L 379.769531 47.308594 L 380.125 47.644531 L 380.484375 48 L 380.847656 48.375 L 381.210938 48.769531 L 381.574219 49.1875 L 381.933594 49.625 L 382.292969 50.085938 L 382.648438 50.5625 L 383 51.058594 L 383.34375 51.578125 L 383.683594 52.113281 L 384.011719 52.667969 L 384.335938 53.242188 L 384.648438 53.835938 L 384.949219 54.449219 L 385.242188 55.078125 L 385.523438 55.722656 L 385.792969 56.390625 L 386.046875 57.070312 L 386.289062 57.769531 L 386.515625 58.484375 L 386.726562 59.214844 L 386.921875 59.957031 L 387.101562 60.71875 L 387.261719 61.492188 L 387.402344 62.277344 L 387.527344 63.078125 L 387.632812 63.890625 L 387.71875 64.710938 L 387.78125 65.546875 L 387.828125 66.390625 L 368.503906 66.390625 L 368.371094 66.386719 L 368.234375 66.382812 L 368.105469 66.378906 L 367.988281 66.371094 L 367.867188 66.363281 L 367.632812 66.347656 L 367.519531 66.335938 L 367.410156 66.324219 L 367.296875 66.308594 L 367.1875 66.296875 L 367.082031 66.28125 L 366.976562 66.261719 L 366.871094 66.246094 L 366.667969 66.207031 L 366.472656 66.167969 L 366.378906 66.148438 L 366.191406 66.101562 L 366.101562 66.078125 L 365.929688 66.03125 L 365.84375 66.003906 L 365.761719 65.976562 L 365.679688 65.953125 L 365.597656 65.925781 L 365.523438 65.898438 L 365.445312 65.871094 L 365.371094 65.84375 L 365.300781 65.816406 L 365.226562 65.785156 L 365.09375 65.730469 L 365.027344 65.699219 L 364.960938 65.671875 L 364.902344 65.644531 L 364.839844 65.613281 L 364.78125 65.585938 L 364.726562 65.554688 L 364.667969 65.527344 L 364.617188 65.5 L 364.5625 65.46875 L 364.511719 65.441406 L 364.464844 65.414062 L 364.417969 65.382812 L 364.371094 65.355469 L 364.285156 65.300781 L 364.246094 65.273438 L 364.207031 65.25 L 364.171875 65.222656 L 364.132812 65.195312 L 364.101562 65.171875 L 364.066406 65.148438 L 364.035156 65.125 L 364.007812 65.101562 Z M 363.976562 65.078125 "/>
</g>
</svg>
