<?xml version="1.0" encoding="UTF-8"?>
<svg xmlns="http://www.w3.org/2000/svg" xmlns:xlink="http://www.w3.org/1999/xlink" width="283pt" height="96pt" viewBox="0 0 283 96" version="1.1">
<g id="surface182">
<path style="fill-rule:nonzero;fill:rgb(100%,100%,86.999313%);fill-opacity:1;stroke-width:0.75;stroke-linecap:square;stroke-linejoin:miter;stroke:rgb(0%,0%,0%);stroke-opacity:1;stroke-miterlimit:3.25;" d="M 192.550781 84.804688 L 192.167969 81.832031 L 191.65625 78.910156 L 191.015625 76.035156 L 190.257812 73.21875 L 189.375 70.464844 L 188.375 67.773438 L 187.257812 65.15625 L 186.03125 62.609375 L 184.695312 60.148438 L 183.257812 57.769531 L 181.714844 55.480469 L 180.074219 53.289062 L 178.34375 51.191406 L 176.523438 49.195312 L 174.617188 47.304688 L 172.628906 45.523438 L 170.566406 43.851562 L 168.4375 42.300781 L 166.238281 40.867188 L 163.976562 39.554688 L 161.664062 38.363281 L 159.296875 37.304688 L 156.886719 36.371094 L 154.4375 35.570312 L 151.953125 34.90625 L 149.441406 34.375 L 146.914062 33.984375 L 144.375 33.738281 L 141.824219 33.632812 L 139.277344 33.671875 L 136.730469 33.851562 L 134.195312 34.175781 L 131.675781 34.640625 L 129.179688 35.246094 L 126.710938 35.984375 L 124.285156 36.855469 L 121.894531 37.855469 L 119.558594 38.984375 L 117.269531 40.238281 L 115.042969 41.617188 L 112.878906 43.117188 L 110.785156 44.730469 L 108.761719 46.460938 L 106.820312 48.300781 L 104.957031 50.25 L 103.183594 52.300781 L 101.5 54.449219 L 99.914062 56.695312 L 98.425781 59.03125 L 97.039062 61.457031 L 95.761719 63.960938 L 94.59375 66.546875 L 93.542969 69.203125 L 92.605469 71.929688 L 91.785156 74.71875 L 91.089844 77.566406 L 90.519531 80.46875 L 90.074219 83.417969 L 89.914062 84.804688 L 89.78125 84.910156 L 89.640625 85.015625 L 89.488281 85.128906 L 89.332031 85.246094 L 89.164062 85.363281 L 88.984375 85.484375 L 88.800781 85.609375 L 88.601562 85.734375 L 88.398438 85.863281 L 88.179688 85.992188 L 87.953125 86.125 L 87.71875 86.253906 L 87.472656 86.386719 L 87.21875 86.523438 L 86.953125 86.65625 L 86.675781 86.789062 L 86.386719 86.921875 L 86.089844 87.058594 L 85.785156 87.191406 L 85.464844 87.320312 L 85.136719 87.453125 L 84.796875 87.578125 L 84.449219 87.707031 L 84.089844 87.832031 L 83.71875 87.953125 L 83.335938 88.074219 L 82.945312 88.1875 L 82.542969 88.300781 L 82.128906 88.410156 L 81.707031 88.515625 L 81.273438 88.617188 L 80.828125 88.714844 L 80.371094 88.804688 L 79.90625 88.894531 L 79.429688 88.976562 L 78.945312 89.050781 L 78.449219 89.121094 L 77.941406 89.183594 L 77.425781 89.242188 L 76.902344 89.292969 L 76.363281 89.335938 L 75.816406 89.371094 L 75.261719 89.402344 L 74.660156 89.421875 L 74.035156 89.4375 L 5.648438 89.441406 L 5.710938 88.046875 L 5.902344 85.082031 L 6.164062 82.152344 L 6.496094 79.265625 L 6.898438 76.417969 L 7.371094 73.613281 L 7.902344 70.855469 L 8.5 68.144531 L 9.160156 65.484375 L 9.875 62.875 L 10.648438 60.324219 L 11.472656 57.824219 L 12.347656 55.386719 L 13.269531 53.003906 L 14.242188 50.683594 L 15.25 48.425781 L 16.304688 46.230469 L 17.390625 44.101562 L 18.511719 42.039062 L 19.664062 40.039062 L 20.847656 38.109375 L 22.050781 36.246094 L 23.277344 34.449219 L 24.523438 32.722656 L 25.785156 31.066406 L 27.058594 29.480469 L 28.339844 27.96875 L 29.621094 26.527344 L 30.902344 25.164062 L 32.179688 23.867188 L 33.449219 22.644531 L 34.707031 21.492188 L 35.957031 20.40625 L 37.222656 19.363281 L 38.671875 18.226562 L 40.132812 17.140625 L 41.59375 16.109375 L 43.0625 15.132812 L 44.527344 14.207031 L 45.996094 13.335938 L 47.460938 12.511719 L 48.921875 11.742188 L 50.378906 11.019531 L 51.828125 10.34375 L 53.269531 9.71875 L 54.699219 9.140625 L 56.117188 8.609375 L 57.523438 8.125 L 58.917969 7.683594 L 60.292969 7.285156 L 61.65625 6.929688 L 62.996094 6.613281 L 64.320312 6.335938 L 65.625 6.101562 L 66.90625 5.902344 L 68.164062 5.738281 L 69.398438 5.609375 L 70.609375 5.515625 L 71.796875 5.457031 L 209.023438 5.421875 L 210.097656 5.4375 L 211.21875 5.480469 L 212.414062 5.558594 L 213.636719 5.667969 L 214.882812 5.808594 L 216.152344 5.988281 L 217.445312 6.207031 L 218.757812 6.460938 L 220.089844 6.753906 L 221.441406 7.089844 L 222.808594 7.464844 L 224.191406 7.882812 L 225.59375 8.34375 L 227.003906 8.851562 L 228.429688 9.40625 L 229.867188 10.003906 L 231.3125 10.652344 L 232.761719 11.347656 L 234.222656 12.09375 L 235.683594 12.890625 L 237.152344 13.734375 L 238.617188 14.632812 L 240.085938 15.582031 L 241.550781 16.582031 L 243.011719 17.640625 L 244.46875 18.746094 L 245.847656 19.855469 L 247.089844 20.902344 L 248.34375 22.019531 L 249.605469 23.207031 L 250.878906 24.460938 L 252.15625 25.789062 L 253.4375 27.1875 L 254.71875 28.664062 L 255.996094 30.210938 L 257.265625 31.832031 L 258.519531 33.519531 L 259.757812 35.277344 L 260.976562 37.101562 L 262.171875 38.996094 L 263.339844 40.960938 L 264.476562 42.988281 L 265.585938 45.085938 L 266.65625 47.246094 L 267.6875 49.46875 L 268.679688 51.757812 L 269.628906 54.105469 L 270.53125 56.511719 L 271.382812 58.980469 L 272.183594 61.503906 L 272.929688 64.082031 L 273.617188 66.714844 L 274.25 69.398438 L 274.816406 72.132812 L 275.320312 74.910156 L 275.761719 77.734375 L 276.132812 80.605469 L 276.433594 83.511719 L 276.660156 86.457031 L 276.816406 89.441406 L 209.023438 89.441406 L 208.546875 89.4375 L 208.070312 89.429688 L 207.59375 89.414062 L 207.140625 89.398438 L 206.714844 89.375 L 206.296875 89.351562 L 205.882812 89.320312 L 205.472656 89.285156 L 205.070312 89.246094 L 204.671875 89.203125 L 204.28125 89.15625 L 203.898438 89.105469 L 203.519531 89.050781 L 203.144531 88.992188 L 202.777344 88.933594 L 202.417969 88.867188 L 202.0625 88.800781 L 201.714844 88.730469 L 201.371094 88.65625 L 201.035156 88.582031 L 200.703125 88.503906 L 200.378906 88.421875 L 200.0625 88.339844 L 199.75 88.253906 L 199.445312 88.167969 L 199.144531 88.078125 L 198.851562 87.988281 L 198.5625 87.894531 L 198.28125 87.800781 L 198.007812 87.703125 L 197.738281 87.605469 L 197.476562 87.507812 L 197.222656 87.410156 L 196.972656 87.308594 L 196.726562 87.210938 L 196.488281 87.109375 L 196.257812 87.007812 L 196.03125 86.902344 L 195.8125 86.800781 L 195.601562 86.699219 L 195.394531 86.597656 L 195.191406 86.492188 L 194.996094 86.390625 L 194.808594 86.289062 L 194.625 86.1875 L 194.445312 86.085938 L 194.273438 85.988281 L 194.109375 85.886719 L 193.949219 85.789062 L 193.792969 85.691406 L 193.644531 85.597656 L 193.5 85.5 L 193.363281 85.40625 L 193.230469 85.316406 L 193.105469 85.226562 L 192.984375 85.136719 L 192.867188 85.050781 L 192.757812 84.964844 L 192.652344 84.882812 Z M 192.550781 84.804688 "/>
<path style="fill:none;stroke-width:0.5;stroke-linecap:square;stroke-linejoin:miter;stroke:rgb(0%,0%,0%);stroke-opacity:1;stroke-miterlimit:3.25;" d="M 194.140625 82.84375 L 192.550781 84.804688 "/>
<path style="fill:none;stroke-width:0.5;stroke-linecap:square;stroke-linejoin:miter;stroke:rgb(0%,0%,0%);stroke-opacity:1;stroke-miterlimit:3.25;" d="M 152.117188 32.355469 L 151.566406 34.8125 "/>
<path style="fill:none;stroke-width:0.5;stroke-linecap:square;stroke-linejoin:miter;stroke:rgb(0%,0%,0%);stroke-opacity:1;stroke-miterlimit:3.25;" d="M 130.347656 32.355469 L 130.898438 34.8125 "/>
<path style="fill:none;stroke-width:0.5;stroke-linecap:square;stroke-linejoin:miter;stroke:rgb(0%,0%,0%);stroke-opacity:1;stroke-miterlimit:3.25;" d="M 88.324219 82.84375 L 89.914062 84.804688 "/>
<path style="fill:none;stroke-width:0.5;stroke-linecap:square;stroke-linejoin:miter;stroke:rgb(0%,0%,0%);stroke-opacity:1;stroke-miterlimit:3.25;" d="M 207.476562 86.890625 L 207.378906 89.40625 "/>
<path style="fill:none;stroke-width:0.5;stroke-linecap:square;stroke-linejoin:miter;stroke:rgb(0%,0%,0%);stroke-opacity:1;stroke-miterlimit:3.25;" d="M 209.023438 86.917969 L 209.023438 89.441406 "/>
<path style="fill:none;stroke-width:0.5;stroke-linecap:square;stroke-linejoin:miter;stroke:rgb(0%,0%,0%);stroke-opacity:1;stroke-miterlimit:3.25;" d="M 74.988281 86.890625 L 75.085938 89.40625 "/>
<path style="fill:none;stroke-width:0.5;stroke-linecap:square;stroke-linejoin:miter;stroke:rgb(0%,0%,0%);stroke-opacity:1;stroke-miterlimit:3.25;" d="M 73.441406 86.917969 L 73.441406 89.441406 "/>
<path style="fill:none;stroke-width:0.5;stroke-linecap:square;stroke-linejoin:miter;stroke:rgb(0%,0%,0%);stroke-opacity:1;stroke-miterlimit:3.25;" d="M 253.84375 31.554688 L 255.800781 29.964844 "/>
<path style="fill:none;stroke-width:0.5;stroke-linecap:square;stroke-linejoin:miter;stroke:rgb(0%,0%,0%);stroke-opacity:1;stroke-miterlimit:3.25;" d="M 243.878906 21.5 L 245.464844 19.542969 "/>
<path style="fill:none;stroke-width:0.5;stroke-linecap:square;stroke-linejoin:miter;stroke:rgb(0%,0%,0%);stroke-opacity:1;stroke-miterlimit:3.25;" d="M 210.570312 7.972656 L 210.667969 5.457031 "/>
<path style="fill:none;stroke-width:0.5;stroke-linecap:square;stroke-linejoin:miter;stroke:rgb(0%,0%,0%);stroke-opacity:1;stroke-miterlimit:3.25;" d="M 209.023438 7.945312 L 209.023438 5.421875 "/>
<path style="fill:none;stroke-width:0.5;stroke-linecap:square;stroke-linejoin:miter;stroke:rgb(0%,0%,0%);stroke-opacity:1;stroke-miterlimit:3.25;" d="M 28.621094 31.554688 L 26.664062 29.964844 "/>
<path style="fill:none;stroke-width:0.5;stroke-linecap:square;stroke-linejoin:miter;stroke:rgb(0%,0%,0%);stroke-opacity:1;stroke-miterlimit:3.25;" d="M 38.585938 21.5 L 37 19.542969 "/>
<path style="fill:none;stroke-width:0.5;stroke-linecap:square;stroke-linejoin:miter;stroke:rgb(0%,0%,0%);stroke-opacity:1;stroke-miterlimit:3.25;" d="M 71.894531 7.972656 L 71.796875 5.457031 "/>
<path style="fill:none;stroke-width:0.5;stroke-linecap:square;stroke-linejoin:miter;stroke:rgb(0%,0%,0%);stroke-opacity:1;stroke-miterlimit:3.25;" d="M 73.441406 7.945312 L 73.441406 5.421875 "/>
<path style="fill:none;stroke-width:0.5;stroke-linecap:square;stroke-linejoin:miter;stroke:rgb(0%,0%,0%);stroke-opacity:1;stroke-miterlimit:3.25;" d="M 275.03125 87.65625 L 276.816406 89.441406 "/>
<path style="fill:none;stroke-width:0.5;stroke-linecap:square;stroke-linejoin:miter;stroke:rgb(0%,0%,0%);stroke-opacity:1;stroke-miterlimit:3.25;" d="M 7.429688 87.65625 L 5.648438 89.441406 "/>
<path style="fill:none;stroke-width:0.75;stroke-linecap:square;stroke-linejoin:miter;stroke:rgb(100%,0%,0%);stroke-opacity:1;stroke-miterlimit:3.25;" d="M 89.914062 84.804688 L 89.78125 84.910156 L 89.640625 85.015625 L 89.488281 85.128906 L 89.332031 85.246094 L 89.164062 85.363281 L 88.984375 85.484375 L 88.800781 85.609375 L 88.601562 85.734375 L 88.398438 85.863281 L 88.179688 85.992188 L 87.953125 86.125 L 87.71875 86.253906 L 87.472656 86.386719 L 87.21875 86.523438 L 86.953125 86.65625 L 86.675781 86.789062 L 86.386719 86.921875 L 86.089844 87.058594 L 85.785156 87.191406 L 85.464844 87.320312 L 85.136719 87.453125 L 84.796875 87.578125 L 84.449219 87.707031 L 84.089844 87.832031 L 83.71875 87.953125 L 83.335938 88.074219 L 82.945312 88.1875 L 82.542969 88.300781 L 82.128906 88.410156 L 81.707031 88.515625 L 81.273438 88.617188 L 80.828125 88.714844 L 80.371094 88.804688 L 79.90625 88.894531 L 79.429688 88.976562 L 78.945312 89.050781 L 78.449219 89.121094 L 77.941406 89.183594 L 77.425781 89.242188 L 76.902344 89.292969 L 76.363281 89.335938 L 75.816406 89.371094 L 75.261719 89.402344 L 74.660156 89.421875 L 74.035156 89.4375 "/>
<path style="fill:none;stroke-width:0.75;stroke-linecap:square;stroke-linejoin:miter;stroke:rgb(100%,0%,0%);stroke-opacity:1;stroke-miterlimit:3.25;" d="M 209.023438 89.441406 L 208.546875 89.4375 L 208.070312 89.429688 L 207.59375 89.414062 L 207.140625 89.398438 L 206.714844 89.375 L 206.296875 89.351562 L 205.882812 89.320312 L 205.472656 89.285156 L 205.070312 89.246094 L 204.671875 89.203125 L 204.28125 89.15625 L 203.898438 89.105469 L 203.519531 89.050781 L 203.144531 88.992188 L 202.777344 88.933594 L 202.417969 88.867188 L 202.0625 88.800781 L 201.714844 88.730469 L 201.371094 88.65625 L 201.035156 88.582031 L 200.703125 88.503906 L 200.378906 88.421875 L 200.0625 88.339844 L 199.75 88.253906 L 199.445312 88.167969 L 199.144531 88.078125 L 198.851562 87.988281 L 198.5625 87.894531 L 198.28125 87.800781 L 198.007812 87.703125 L 197.738281 87.605469 L 197.476562 87.507812 L 197.222656 87.410156 L 196.972656 87.308594 L 196.726562 87.210938 L 196.488281 87.109375 L 196.257812 87.007812 L 196.03125 86.902344 L 195.8125 86.800781 L 195.601562 86.699219 L 195.394531 86.597656 L 195.191406 86.492188 L 194.996094 86.390625 L 194.808594 86.289062 L 194.625 86.1875 L 194.445312 86.085938 L 194.273438 85.988281 L 194.109375 85.886719 L 193.949219 85.789062 L 193.792969 85.691406 L 193.644531 85.597656 L 193.5 85.5 L 193.363281 85.40625 L 193.230469 85.316406 L 193.105469 85.226562 L 192.984375 85.136719 L 192.867188 85.050781 L 192.757812 84.964844 L 192.652344 84.882812 L 192.550781 84.804688 "/>
<path style="fill:none;stroke-width:0.75;stroke-linecap:butt;stroke-linejoin:miter;stroke:rgb(0%,0%,100%);stroke-opacity:1;stroke-dasharray:0.5,1.5;stroke-miterlimit:3.25;" d="M 192.796875 89.441406 L 192.796875 88.894531 L 192.792969 88.816406 L 192.792969 88.660156 L 192.789062 88.582031 L 192.789062 88.507812 L 192.785156 88.429688 L 192.785156 88.351562 L 192.78125 88.273438 L 192.78125 88.195312 L 192.777344 88.117188 L 192.777344 88.039062 L 192.773438 87.960938 L 192.769531 87.886719 L 192.769531 87.808594 L 192.753906 87.496094 L 192.753906 87.421875 L 192.738281 87.109375 L 192.734375 87.035156 L 192.726562 86.957031 L 192.71875 86.800781 L 192.714844 86.726562 L 192.710938 86.648438 L 192.703125 86.570312 L 192.699219 86.492188 L 192.695312 86.417969 L 192.6875 86.339844 L 192.683594 86.261719 L 192.675781 86.183594 L 192.671875 86.109375 L 192.664062 86.03125 L 192.660156 85.953125 L 192.652344 85.878906 L 192.648438 85.800781 L 192.640625 85.722656 L 192.632812 85.648438 L 192.628906 85.570312 L 192.621094 85.492188 L 192.613281 85.417969 L 192.597656 85.261719 L 192.589844 85.1875 L 192.585938 85.109375 L 192.578125 85.03125 L 192.570312 84.957031 L 192.558594 84.878906 L 192.550781 84.804688 "/>
<path style="fill:none;stroke-width:0.75;stroke-linecap:butt;stroke-linejoin:miter;stroke:rgb(0%,0%,100%);stroke-opacity:1;stroke-dasharray:0.5,1.5;stroke-miterlimit:3.25;" d="M 89.914062 84.804688 L 89.902344 84.878906 L 89.894531 84.957031 L 89.886719 85.03125 L 89.871094 85.1875 L 89.867188 85.261719 L 89.851562 85.417969 L 89.84375 85.492188 L 89.835938 85.570312 L 89.832031 85.648438 L 89.824219 85.722656 L 89.816406 85.800781 L 89.8125 85.878906 L 89.804688 85.953125 L 89.796875 86.03125 L 89.792969 86.109375 L 89.785156 86.183594 L 89.777344 86.339844 L 89.769531 86.417969 L 89.765625 86.492188 L 89.761719 86.570312 L 89.753906 86.648438 L 89.75 86.726562 L 89.746094 86.800781 L 89.742188 86.878906 L 89.734375 86.957031 L 89.730469 87.035156 L 89.726562 87.109375 L 89.710938 87.421875 L 89.707031 87.496094 L 89.707031 87.574219 L 89.695312 87.808594 L 89.695312 87.886719 L 89.691406 87.960938 L 89.6875 88.039062 L 89.6875 88.117188 L 89.679688 88.273438 L 89.679688 88.351562 L 89.675781 88.429688 L 89.675781 88.582031 L 89.671875 88.660156 L 89.671875 88.816406 L 89.667969 88.894531 L 89.667969 89.363281 L 89.664062 89.441406 "/>
<path style="fill:none;stroke-width:0.75;stroke-linecap:square;stroke-linejoin:miter;stroke:rgb(0%,0%,100%);stroke-opacity:1;stroke-miterlimit:3.25;" d="M 192.550781 84.804688 L 192.167969 81.832031 L 191.65625 78.910156 L 191.015625 76.035156 L 190.257812 73.21875 L 189.375 70.464844 L 188.375 67.773438 L 187.257812 65.15625 L 186.03125 62.609375 L 184.695312 60.148438 L 183.257812 57.769531 L 181.714844 55.480469 L 180.074219 53.289062 L 178.34375 51.191406 L 176.523438 49.195312 L 174.617188 47.304688 L 172.628906 45.523438 L 170.566406 43.851562 L 168.4375 42.300781 L 166.238281 40.867188 L 163.976562 39.554688 L 161.664062 38.363281 L 159.296875 37.304688 L 156.886719 36.371094 L 154.4375 35.570312 L 151.953125 34.90625 L 149.441406 34.375 L 146.914062 33.984375 L 144.375 33.738281 L 141.824219 33.632812 L 139.277344 33.671875 L 136.730469 33.851562 L 134.195312 34.175781 L 131.675781 34.640625 L 129.179688 35.246094 L 126.710938 35.984375 L 124.285156 36.855469 L 121.894531 37.855469 L 119.558594 38.984375 L 117.269531 40.238281 L 115.042969 41.617188 L 112.878906 43.117188 L 110.785156 44.730469 L 108.761719 46.460938 L 106.820312 48.300781 L 104.957031 50.25 L 103.183594 52.300781 L 101.5 54.449219 L 99.914062 56.695312 L 98.425781 59.03125 L 97.039062 61.457031 L 95.761719 63.960938 L 94.59375 66.546875 L 93.542969 69.203125 L 92.605469 71.929688 L 91.785156 74.71875 L 91.089844 77.566406 L 90.519531 80.46875 L 90.074219 83.417969 "/>
</g>
</svg>
