<?xml version="1.0" encoding="UTF-8"?>
<svg xmlns="http://www.w3.org/2000/svg" xmlns:xlink="http://www.w3.org/1999/xlink" width="404pt" height="107pt" viewBox="0 0 404 107" version="1.1">
<defs>
<clipPath id="clip1">
  <path d="M 11.039062 10 L 101 10 L 101 99.839844 L 11.039062 99.839844 Z M 11.039062 10 "/>
</clipPath>
<clipPath id="clip2">
  <path d="M 11.039062 32 L 79 32 L 79 99.839844 L 11.039062 99.839844 Z M 11.039062 32 "/>
</clipPath>
<clipPath id="clip3">
  <path d="M 11.039062 10 L 101 10 L 101 99.839844 L 11.039062 99.839844 Z M 11.039062 10 "/>
</clipPath>
<clipPath id="clip4">
  <path d="M 30 6.238281 L 104.640625 6.238281 L 104.640625 64 L 30 64 Z M 30 6.238281 "/>
</clipPath>
<clipPath id="clip5">
  <path d="M 116.878906 86 L 287 86 L 287 87 L 116.878906 87 Z M 116.878906 86 "/>
</clipPath>
<clipPath id="clip6">
  <path d="M 285 86 L 287 86 L 287 99.839844 L 285 99.839844 Z M 285 86 "/>
</clipPath>
<clipPath id="clip7">
  <path d="M 285 86 L 287 86 L 287 99.839844 L 285 99.839844 Z M 285 86 "/>
</clipPath>
<clipPath id="clip8">
  <path d="M 116.878906 19 L 353 19 L 353 20 L 116.878906 20 Z M 116.878906 19 "/>
</clipPath>
<clipPath id="clip9">
  <path d="M 352 19 L 353 19 L 353 99.839844 L 352 99.839844 Z M 352 19 "/>
</clipPath>
<clipPath id="clip10">
  <path d="M 352 19 L 353 19 L 353 99.839844 L 352 99.839844 Z M 352 19 "/>
</clipPath>
<clipPath id="clip11">
  <path d="M 116.878906 77 L 287 77 L 287 99.839844 L 116.878906 99.839844 Z M 116.878906 77 "/>
</clipPath>
<clipPath id="clip12">
  <path d="M 284 77 L 297 77 L 297 99.839844 L 284 99.839844 Z M 284 77 "/>
</clipPath>
<clipPath id="clip13">
  <path d="M 284 77 L 297 77 L 297 99.839844 L 284 99.839844 Z M 284 77 "/>
</clipPath>
<clipPath id="clip14">
  <path d="M 116.878906 6.238281 L 347 6.238281 L 347 37 L 116.878906 37 Z M 116.878906 6.238281 "/>
</clipPath>
<clipPath id="clip15">
  <path d="M 344 6.238281 L 364 6.238281 L 364 99.839844 L 344 99.839844 Z M 344 6.238281 "/>
</clipPath>
<clipPath id="clip16">
  <path d="M 345 6.238281 L 346 6.238281 L 346 7 L 345 7 Z M 345 6.238281 "/>
</clipPath>
<clipPath id="clip17">
  <path d="M 344 6.238281 L 364 6.238281 L 364 99.839844 L 344 99.839844 Z M 344 6.238281 "/>
</clipPath>
<clipPath id="clip18">
  <path d="M 345 6.238281 L 346 6.238281 L 346 7 L 345 7 Z M 345 6.238281 "/>
</clipPath>
<clipPath id="clip19">
  <path d="M 116.878906 70 L 284 70 L 284 99.839844 L 116.878906 99.839844 Z M 116.878906 70 "/>
</clipPath>
<clipPath id="clip20">
  <path d="M 282 70 L 306 70 L 306 99.839844 L 282 99.839844 Z M 282 70 "/>
</clipPath>
<clipPath id="clip21">
  <path d="M 282 70 L 306 70 L 306 99.839844 L 282 99.839844 Z M 282 70 "/>
</clipPath>
<clipPath id="clip22">
  <path d="M 116.878906 6.238281 L 339 6.238281 L 339 53 L 116.878906 53 Z M 116.878906 6.238281 "/>
</clipPath>
<clipPath id="clip23">
  <path d="M 336 6.238281 L 374 6.238281 L 374 99.839844 L 336 99.839844 Z M 336 6.238281 "/>
</clipPath>
<clipPath id="clip24">
  <path d="M 116.878906 62 L 281 62 L 281 99.839844 L 116.878906 99.839844 Z M 116.878906 62 "/>
</clipPath>
<clipPath id="clip25">
  <path d="M 278 62 L 316 62 L 316 99.839844 L 278 99.839844 Z M 278 62 "/>
</clipPath>
<clipPath id="clip26">
  <path d="M 278 62 L 316 62 L 316 99.839844 L 278 99.839844 Z M 278 62 "/>
</clipPath>
<clipPath id="clip27">
  <path d="M 116.878906 6.238281 L 328 6.238281 L 328 70 L 116.878906 70 Z M 116.878906 6.238281 "/>
</clipPath>
<clipPath id="clip28">
  <path d="M 326 6.238281 L 385 6.238281 L 385 99.839844 L 326 99.839844 Z M 326 6.238281 "/>
</clipPath>
<clipPath id="clip29">
  <path d="M 116.878906 56 L 277 56 L 277 99.839844 L 116.878906 99.839844 Z M 116.878906 56 "/>
</clipPath>
<clipPath id="clip30">
  <path d="M 274 56 L 326 56 L 326 99.839844 L 274 99.839844 Z M 274 56 "/>
</clipPath>
<clipPath id="clip31">
  <path d="M 274 56 L 326 56 L 326 99.839844 L 274 99.839844 Z M 274 56 "/>
</clipPath>
<clipPath id="clip32">
  <path d="M 116.878906 6.238281 L 317 6.238281 L 317 88 L 116.878906 88 Z M 116.878906 6.238281 "/>
</clipPath>
<clipPath id="clip33">
  <path d="M 314 6.238281 L 392.878906 6.238281 L 392.878906 99.839844 L 314 99.839844 Z M 314 6.238281 "/>
</clipPath>
<clipPath id="clip34">
  <path d="M 116.878906 51 L 272 51 L 272 99.839844 L 116.878906 99.839844 Z M 116.878906 51 "/>
</clipPath>
<clipPath id="clip35">
  <path d="M 269 51 L 338 51 L 338 99.839844 L 269 99.839844 Z M 269 51 "/>
</clipPath>
<clipPath id="clip36">
  <path d="M 269 51 L 338 51 L 338 99.839844 L 269 99.839844 Z M 269 51 "/>
</clipPath>
<clipPath id="clip37">
  <path d="M 116.878906 6.238281 L 304 6.238281 L 304 99.839844 L 116.878906 99.839844 Z M 116.878906 6.238281 "/>
</clipPath>
<clipPath id="clip38">
  <path d="M 302 6.238281 L 392.878906 6.238281 L 392.878906 99.839844 L 302 99.839844 Z M 302 6.238281 "/>
</clipPath>
<clipPath id="clip39">
  <path d="M 116.878906 47 L 266 47 L 266 99.839844 L 116.878906 99.839844 Z M 116.878906 47 "/>
</clipPath>
<clipPath id="clip40">
  <path d="M 263 47 L 350 47 L 350 99.839844 L 263 99.839844 Z M 263 47 "/>
</clipPath>
<clipPath id="clip41">
  <path d="M 263 47 L 350 47 L 350 99.839844 L 263 99.839844 Z M 263 47 "/>
</clipPath>
<clipPath id="clip42">
  <path d="M 116.878906 6.238281 L 291 6.238281 L 291 99.839844 L 116.878906 99.839844 Z M 116.878906 6.238281 "/>
</clipPath>
<clipPath id="clip43">
  <path d="M 288 6.238281 L 392.878906 6.238281 L 392.878906 99.839844 L 288 99.839844 Z M 288 6.238281 "/>
</clipPath>
<clipPath id="clip44">
  <path d="M 116.878906 43 L 260 43 L 260 99.839844 L 116.878906 99.839844 Z M 116.878906 43 "/>
</clipPath>
<clipPath id="clip45">
  <path d="M 257 43 L 364 43 L 364 99.839844 L 257 99.839844 Z M 257 43 "/>
</clipPath>
<clipPath id="clip46">
  <path d="M 116.878906 6.238281 L 276 6.238281 L 276 99.839844 L 116.878906 99.839844 Z M 116.878906 6.238281 "/>
</clipPath>
<clipPath id="clip47">
  <path d="M 274 6.238281 L 392.878906 6.238281 L 392.878906 99.839844 L 274 99.839844 Z M 274 6.238281 "/>
</clipPath>
<clipPath id="clip48">
  <path d="M 116.878906 42 L 253 42 L 253 99.839844 L 116.878906 99.839844 Z M 116.878906 42 "/>
</clipPath>
<clipPath id="clip49">
  <path d="M 250 42 L 380 42 L 380 99.839844 L 250 99.839844 Z M 250 42 "/>
</clipPath>
<clipPath id="clip50">
  <path d="M 116.878906 6.238281 L 261 6.238281 L 261 99.839844 L 116.878906 99.839844 Z M 116.878906 6.238281 "/>
</clipPath>
<clipPath id="clip51">
  <path d="M 259 6.238281 L 392.878906 6.238281 L 392.878906 99.839844 L 259 99.839844 Z M 259 6.238281 "/>
</clipPath>
<clipPath id="clip52">
  <path d="M 116.878906 41 L 246 41 L 246 99.839844 L 116.878906 99.839844 Z M 116.878906 41 "/>
</clipPath>
<clipPath id="clip53">
  <path d="M 244 41 L 392.878906 41 L 392.878906 99.839844 L 244 99.839844 Z M 244 41 "/>
</clipPath>
<clipPath id="clip54">
  <path d="M 116.878906 6.238281 L 392.878906 6.238281 L 392.878906 99.839844 L 116.878906 99.839844 Z M 116.878906 6.238281 "/>
</clipPath>
<clipPath id="clip55">
  <path d="M 116.878906 42 L 239 42 L 239 99.839844 L 116.878906 99.839844 Z M 116.878906 42 "/>
</clipPath>
<clipPath id="clip56">
  <path d="M 237 42 L 392.878906 42 L 392.878906 99.839844 L 237 99.839844 Z M 237 42 "/>
</clipPath>
<clipPath id="clip57">
  <path d="M 116.878906 6.238281 L 231 6.238281 L 231 99.839844 L 116.878906 99.839844 Z M 116.878906 6.238281 "/>
</clipPath>
<clipPath id="clip58">
  <path d="M 228 6.238281 L 392.878906 6.238281 L 392.878906 99.839844 L 228 99.839844 Z M 228 6.238281 "/>
</clipPath>
<clipPath id="clip59">
  <path d="M 126 43 L 233 43 L 233 99.839844 L 126 99.839844 Z M 126 43 "/>
</clipPath>
<clipPath id="clip60">
  <path d="M 230 43 L 392.878906 43 L 392.878906 99.839844 L 230 99.839844 Z M 230 43 "/>
</clipPath>
<clipPath id="clip61">
  <path d="M 116.878906 6.238281 L 216 6.238281 L 216 99.839844 L 116.878906 99.839844 Z M 116.878906 6.238281 "/>
</clipPath>
<clipPath id="clip62">
  <path d="M 213 6.238281 L 392.878906 6.238281 L 392.878906 99.839844 L 213 99.839844 Z M 213 6.238281 "/>
</clipPath>
<clipPath id="clip63">
  <path d="M 140 47 L 226 47 L 226 99.839844 L 140 99.839844 Z M 140 47 "/>
</clipPath>
<clipPath id="clip64">
  <path d="M 224 47 L 392.878906 47 L 392.878906 99.839844 L 224 99.839844 Z M 224 47 "/>
</clipPath>
<clipPath id="clip65">
  <path d="M 116.878906 6.238281 L 202 6.238281 L 202 99.839844 L 116.878906 99.839844 Z M 116.878906 6.238281 "/>
</clipPath>
<clipPath id="clip66">
  <path d="M 199 6.238281 L 392.878906 6.238281 L 392.878906 99.839844 L 199 99.839844 Z M 199 6.238281 "/>
</clipPath>
<clipPath id="clip67">
  <path d="M 152 51 L 221 51 L 221 99.839844 L 152 99.839844 Z M 152 51 "/>
</clipPath>
<clipPath id="clip68">
  <path d="M 218 51 L 392.878906 51 L 392.878906 99.839844 L 218 99.839844 Z M 218 51 "/>
</clipPath>
<clipPath id="clip69">
  <path d="M 116.878906 6.238281 L 188 6.238281 L 188 99.839844 L 116.878906 99.839844 Z M 116.878906 6.238281 "/>
</clipPath>
<clipPath id="clip70">
  <path d="M 185 6.238281 L 392.878906 6.238281 L 392.878906 99.839844 L 185 99.839844 Z M 185 6.238281 "/>
</clipPath>
<clipPath id="clip71">
  <path d="M 163 56 L 216 56 L 216 99.839844 L 163 99.839844 Z M 163 56 "/>
</clipPath>
<clipPath id="clip72">
  <path d="M 213 56 L 392.878906 56 L 392.878906 99.839844 L 213 99.839844 Z M 213 56 "/>
</clipPath>
<clipPath id="clip73">
  <path d="M 116.878906 6.238281 L 176 6.238281 L 176 99.839844 L 116.878906 99.839844 Z M 116.878906 6.238281 "/>
</clipPath>
<clipPath id="clip74">
  <path d="M 173 6.238281 L 392.878906 6.238281 L 392.878906 88 L 173 88 Z M 173 6.238281 "/>
</clipPath>
<clipPath id="clip75">
  <path d="M 174 62 L 211 62 L 211 99.839844 L 174 99.839844 Z M 174 62 "/>
</clipPath>
<clipPath id="clip76">
  <path d="M 209 62 L 392.878906 62 L 392.878906 99.839844 L 209 99.839844 Z M 209 62 "/>
</clipPath>
<clipPath id="clip77">
  <path d="M 116.878906 6.238281 L 164 6.238281 L 164 99.839844 L 116.878906 99.839844 Z M 116.878906 6.238281 "/>
</clipPath>
<clipPath id="clip78">
  <path d="M 161 6.238281 L 392.878906 6.238281 L 392.878906 70 L 161 70 Z M 161 6.238281 "/>
</clipPath>
<clipPath id="clip79">
  <path d="M 184 70 L 208 70 L 208 99.839844 L 184 99.839844 Z M 184 70 "/>
</clipPath>
<clipPath id="clip80">
  <path d="M 205 70 L 392.878906 70 L 392.878906 99.839844 L 205 99.839844 Z M 205 70 "/>
</clipPath>
<clipPath id="clip81">
  <path d="M 116.878906 6.238281 L 154 6.238281 L 154 99.839844 L 116.878906 99.839844 Z M 116.878906 6.238281 "/>
</clipPath>
<clipPath id="clip82">
  <path d="M 151 6.238281 L 392.878906 6.238281 L 392.878906 53 L 151 53 Z M 151 6.238281 "/>
</clipPath>
<clipPath id="clip83">
  <path d="M 193 77 L 206 77 L 206 99.839844 L 193 99.839844 Z M 193 77 "/>
</clipPath>
<clipPath id="clip84">
  <path d="M 203 77 L 392.878906 77 L 392.878906 99.839844 L 203 99.839844 Z M 203 77 "/>
</clipPath>
<clipPath id="clip85">
  <path d="M 126 6.238281 L 145 6.238281 L 145 99.839844 L 126 99.839844 Z M 126 6.238281 "/>
</clipPath>
<clipPath id="clip86">
  <path d="M 143 6.238281 L 144 6.238281 L 144 7 L 143 7 Z M 143 6.238281 "/>
</clipPath>
<clipPath id="clip87">
  <path d="M 143 6.238281 L 392.878906 6.238281 L 392.878906 37 L 143 37 Z M 143 6.238281 "/>
</clipPath>
<clipPath id="clip88">
  <path d="M 203 86 L 205 86 L 205 99.839844 L 203 99.839844 Z M 203 86 "/>
</clipPath>
<clipPath id="clip89">
  <path d="M 203 86 L 392.878906 86 L 392.878906 87 L 203 87 Z M 203 86 "/>
</clipPath>
<clipPath id="clip90">
  <path d="M 136 19 L 138 19 L 138 99.839844 L 136 99.839844 Z M 136 19 "/>
</clipPath>
<clipPath id="clip91">
  <path d="M 136 19 L 392.878906 19 L 392.878906 20 L 136 20 Z M 136 19 "/>
</clipPath>
<clipPath id="clip92">
  <path d="M 116.878906 85 L 392.878906 85 L 392.878906 88 L 116.878906 88 Z M 116.878906 85 "/>
</clipPath>
<clipPath id="clip93">
  <path d="M 116.878906 19 L 392.878906 19 L 392.878906 21 L 116.878906 21 Z M 116.878906 19 "/>
</clipPath>
</defs>
<g id="surface39">
<g clip-path="url(#clip1)" clip-rule="nonzero">
<path style=" stroke:none;fill-rule:nonzero;fill:rgb(74.999619%,74.999619%,74.999619%);fill-opacity:1;" d="M -11.171875 33.203125 L 77.949219 33.203125 L 77.949219 122.324219 L 100.230469 122.324219 L 100.230469 10.921875 L -11.171875 10.921875 Z M -11.171875 33.203125 "/>
</g>
<g clip-path="url(#clip2)" clip-rule="nonzero">
<path style="fill:none;stroke-width:1;stroke-linecap:square;stroke-linejoin:miter;stroke:rgb(0%,0%,0%);stroke-opacity:1;stroke-miterlimit:3.25;" d="M -11.171875 33.203125 L 77.949219 33.203125 L 77.949219 122.324219 "/>
</g>
<g clip-path="url(#clip3)" clip-rule="nonzero">
<path style="fill:none;stroke-width:1;stroke-linecap:square;stroke-linejoin:miter;stroke:rgb(0%,0%,0%);stroke-opacity:1;stroke-miterlimit:3.25;" d="M -11.171875 10.921875 L 100.230469 10.921875 L 100.230469 122.324219 "/>
</g>
<path style=" stroke:none;fill-rule:nonzero;fill:rgb(100%,100%,86.999313%);fill-opacity:1;" d="M 78.160156 46.769531 L 78.464844 46.035156 L 78.734375 45.296875 L 78.96875 44.550781 L 79.167969 43.804688 L 79.332031 43.054688 L 79.460938 42.304688 L 79.550781 41.554688 L 79.605469 40.808594 L 79.625 40.0625 L 79.609375 39.328125 L 79.558594 38.597656 L 79.472656 37.875 L 79.355469 37.164062 L 79.199219 36.464844 L 79.015625 35.777344 L 78.792969 35.105469 L 78.542969 34.449219 L 78.257812 33.808594 L 77.941406 33.1875 L 77.597656 32.585938 L 77.222656 32.007812 L 76.820312 31.449219 L 76.390625 30.917969 L 75.933594 30.40625 L 75.453125 29.925781 L 74.945312 29.46875 L 74.417969 29.046875 L 73.867188 28.652344 L 73.296875 28.289062 L 72.703125 27.960938 L 72.097656 27.664062 L 71.472656 27.402344 L 70.832031 27.175781 L 70.175781 26.984375 L 69.511719 26.824219 L 68.839844 26.703125 L 68.160156 26.617188 L 67.472656 26.566406 L 66.78125 26.550781 L 66.085938 26.574219 L 65.390625 26.628906 L 64.695312 26.722656 L 64 26.851562 L 63.3125 27.015625 L 62.625 27.21875 L 61.945312 27.453125 L 61.273438 27.722656 L 60.613281 28.027344 L 59.960938 28.367188 L 59.320312 28.742188 L 58.695312 29.148438 L 58.085938 29.585938 L 57.488281 30.058594 L 56.914062 30.558594 L 56.355469 31.089844 L 55.820312 31.652344 L 55.300781 32.242188 L 54.808594 32.863281 L 54.589844 33.160156 L 54.542969 33.164062 L 54.496094 33.171875 L 54.449219 33.175781 L 54.394531 33.183594 L 54.34375 33.1875 L 54.226562 33.195312 L 54.164062 33.199219 L 54.101562 33.199219 L 54.03125 33.203125 L 53.890625 33.203125 L 53.742188 33.195312 L 53.664062 33.191406 L 53.582031 33.1875 L 53.496094 33.179688 L 53.410156 33.167969 L 53.324219 33.160156 L 53.234375 33.148438 L 53.046875 33.117188 L 52.949219 33.101562 L 52.746094 33.0625 L 52.644531 33.039062 L 52.433594 32.984375 L 52.324219 32.957031 L 52.210938 32.921875 L 52.097656 32.890625 L 51.984375 32.851562 L 51.867188 32.8125 L 51.75 32.769531 L 51.628906 32.726562 L 51.507812 32.679688 L 51.257812 32.578125 L 51.132812 32.523438 L 51.003906 32.464844 L 50.746094 32.339844 L 50.613281 32.273438 L 50.472656 32.195312 L 50.328125 32.117188 L 34.621094 23.050781 L 34.820312 22.738281 L 35.257812 22.082031 L 35.707031 21.445312 L 36.164062 20.828125 L 36.636719 20.226562 L 37.113281 19.644531 L 37.605469 19.082031 L 38.101562 18.539062 L 38.605469 18.015625 L 39.113281 17.511719 L 39.628906 17.027344 L 40.152344 16.5625 L 40.675781 16.117188 L 41.203125 15.695312 L 41.734375 15.289062 L 42.265625 14.90625 L 42.796875 14.539062 L 43.328125 14.195312 L 43.859375 13.871094 L 44.390625 13.5625 L 44.917969 13.277344 L 45.441406 13.007812 L 45.960938 12.757812 L 46.476562 12.527344 L 46.984375 12.316406 L 47.488281 12.121094 L 47.984375 11.941406 L 48.46875 11.78125 L 48.945312 11.636719 L 49.410156 11.507812 L 49.863281 11.398438 L 50.304688 11.296875 L 50.734375 11.214844 L 51.164062 11.144531 L 51.648438 11.074219 L 52.128906 11.019531 L 52.601562 10.976562 L 53.066406 10.945312 L 53.527344 10.929688 L 53.980469 10.921875 L 54.425781 10.925781 L 54.863281 10.945312 L 55.292969 10.972656 L 55.714844 11.007812 L 56.128906 11.054688 L 56.535156 11.113281 L 56.929688 11.179688 L 57.316406 11.253906 L 57.695312 11.335938 L 58.066406 11.429688 L 58.425781 11.527344 L 58.773438 11.632812 L 59.113281 11.746094 L 59.445312 11.863281 L 59.765625 11.988281 L 60.078125 12.117188 L 60.378906 12.25 L 60.667969 12.390625 L 60.949219 12.535156 L 92.46875 30.722656 L 92.714844 30.867188 L 92.964844 31.027344 L 93.230469 31.203125 L 93.496094 31.390625 L 93.761719 31.585938 L 94.03125 31.796875 L 94.300781 32.019531 L 94.566406 32.25 L 94.832031 32.496094 L 95.101562 32.75 L 95.363281 33.019531 L 95.625 33.296875 L 95.886719 33.589844 L 96.144531 33.894531 L 96.398438 34.210938 L 96.648438 34.539062 L 96.894531 34.878906 L 97.136719 35.230469 L 97.371094 35.59375 L 97.601562 35.972656 L 97.828125 36.359375 L 98.042969 36.761719 L 98.253906 37.171875 L 98.460938 37.597656 L 98.65625 38.035156 L 98.84375 38.480469 L 99.011719 38.917969 L 99.15625 39.324219 L 99.296875 39.746094 L 99.429688 40.1875 L 99.558594 40.644531 L 99.675781 41.117188 L 99.785156 41.609375 L 99.882812 42.117188 L 99.96875 42.644531 L 100.046875 43.183594 L 100.109375 43.738281 L 100.164062 44.304688 L 100.199219 44.886719 L 100.222656 45.480469 L 100.230469 46.085938 L 100.222656 46.703125 L 100.199219 47.328125 L 100.160156 47.96875 L 100.101562 48.617188 L 100.027344 49.273438 L 99.933594 49.9375 L 99.820312 50.609375 L 99.6875 51.289062 L 99.539062 51.976562 L 99.367188 52.667969 L 99.175781 53.363281 L 98.964844 54.0625 L 98.734375 54.765625 L 98.480469 55.472656 L 98.207031 56.179688 L 97.914062 56.886719 L 97.59375 57.59375 L 97.257812 58.300781 L 96.898438 59.003906 L 81.328125 50.015625 L 81.21875 49.953125 L 81.109375 49.886719 L 81.003906 49.820312 L 80.902344 49.757812 L 80.714844 49.632812 L 80.625 49.574219 L 80.445312 49.449219 L 80.359375 49.386719 L 80.195312 49.261719 L 79.960938 49.074219 L 79.886719 49.007812 L 79.816406 48.945312 L 79.742188 48.886719 L 79.476562 48.636719 L 79.417969 48.574219 L 79.355469 48.515625 L 79.296875 48.453125 L 79.242188 48.394531 L 79.183594 48.335938 L 79.132812 48.273438 L 79.078125 48.214844 L 79.027344 48.15625 L 78.980469 48.101562 L 78.886719 47.984375 L 78.757812 47.820312 L 78.679688 47.710938 L 78.609375 47.609375 L 78.574219 47.554688 L 78.542969 47.507812 L 78.511719 47.457031 L 78.480469 47.410156 L 78.453125 47.359375 L 78.425781 47.3125 L 78.398438 47.269531 L 78.375 47.222656 L 78.304688 47.09375 L 78.265625 47.015625 L 78.25 46.976562 L 78.230469 46.9375 L 78.199219 46.867188 L 78.1875 46.832031 L 78.171875 46.800781 Z M 78.160156 46.769531 "/>
<g clip-path="url(#clip4)" clip-rule="nonzero">
<path style="fill:none;stroke-width:1;stroke-linecap:square;stroke-linejoin:miter;stroke:rgb(0%,0%,0%);stroke-opacity:1;stroke-miterlimit:3.25;" d="M 78.160156 46.769531 L 78.464844 46.035156 L 78.734375 45.296875 L 78.96875 44.550781 L 79.167969 43.804688 L 79.332031 43.054688 L 79.460938 42.304688 L 79.550781 41.554688 L 79.605469 40.808594 L 79.625 40.0625 L 79.609375 39.328125 L 79.558594 38.597656 L 79.472656 37.875 L 79.355469 37.164062 L 79.199219 36.464844 L 79.015625 35.777344 L 78.792969 35.105469 L 78.542969 34.449219 L 78.257812 33.808594 L 77.941406 33.1875 L 77.597656 32.585938 L 77.222656 32.007812 L 76.820312 31.449219 L 76.390625 30.917969 L 75.933594 30.40625 L 75.453125 29.925781 L 74.945312 29.46875 L 74.417969 29.046875 L 73.867188 28.652344 L 73.296875 28.289062 L 72.703125 27.960938 L 72.097656 27.664062 L 71.472656 27.402344 L 70.832031 27.175781 L 70.175781 26.984375 L 69.511719 26.824219 L 68.839844 26.703125 L 68.160156 26.617188 L 67.472656 26.566406 L 66.78125 26.550781 L 66.085938 26.574219 L 65.390625 26.628906 L 64.695312 26.722656 L 64 26.851562 L 63.3125 27.015625 L 62.625 27.21875 L 61.945312 27.453125 L 61.273438 27.722656 L 60.613281 28.027344 L 59.960938 28.367188 L 59.320312 28.742188 L 58.695312 29.148438 L 58.085938 29.585938 L 57.488281 30.058594 L 56.914062 30.558594 L 56.355469 31.089844 L 55.820312 31.652344 L 55.300781 32.242188 L 54.808594 32.863281 L 54.589844 33.160156 L 54.542969 33.164062 L 54.496094 33.171875 L 54.449219 33.175781 L 54.394531 33.183594 L 54.34375 33.1875 L 54.226562 33.195312 L 54.164062 33.199219 L 54.101562 33.199219 L 54.03125 33.203125 L 53.890625 33.203125 L 53.742188 33.195312 L 53.664062 33.191406 L 53.582031 33.1875 L 53.496094 33.179688 L 53.410156 33.167969 L 53.324219 33.160156 L 53.234375 33.148438 L 53.046875 33.117188 L 52.949219 33.101562 L 52.746094 33.0625 L 52.644531 33.039062 L 52.433594 32.984375 L 52.324219 32.957031 L 52.210938 32.921875 L 52.097656 32.890625 L 51.984375 32.851562 L 51.867188 32.8125 L 51.75 32.769531 L 51.628906 32.726562 L 51.507812 32.679688 L 51.257812 32.578125 L 51.132812 32.523438 L 51.003906 32.464844 L 50.746094 32.339844 L 50.613281 32.273438 L 50.472656 32.195312 L 50.328125 32.117188 L 34.621094 23.050781 L 34.820312 22.738281 L 35.257812 22.082031 L 35.707031 21.445312 L 36.164062 20.828125 L 36.636719 20.226562 L 37.113281 19.644531 L 37.605469 19.082031 L 38.101562 18.539062 L 38.605469 18.015625 L 39.113281 17.511719 L 39.628906 17.027344 L 40.152344 16.5625 L 40.675781 16.117188 L 41.203125 15.695312 L 41.734375 15.289062 L 42.265625 14.90625 L 42.796875 14.539062 L 43.328125 14.195312 L 43.859375 13.871094 L 44.390625 13.5625 L 44.917969 13.277344 L 45.441406 13.007812 L 45.960938 12.757812 L 46.476562 12.527344 L 46.984375 12.316406 L 47.488281 12.121094 L 47.984375 11.941406 L 48.46875 11.78125 L 48.945312 11.636719 L 49.410156 11.507812 L 49.863281 11.398438 L 50.304688 11.296875 L 50.734375 11.214844 L 51.164062 11.144531 L 51.648438 11.074219 L 52.128906 11.019531 L 52.601562 10.976562 L 53.066406 10.945312 L 53.527344 10.929688 L 53.980469 10.921875 L 54.425781 10.925781 L 54.863281 10.945312 L 55.292969 10.972656 L 55.714844 11.007812 L 56.128906 11.054688 L 56.535156 11.113281 L 56.929688 11.179688 L 57.316406 11.253906 L 57.695312 11.335938 L 58.066406 11.429688 L 58.425781 11.527344 L 58.773438 11.632812 L 59.113281 11.746094 L 59.445312 11.863281 L 59.765625 11.988281 L 60.078125 12.117188 L 60.378906 12.25 L 60.667969 12.390625 L 60.949219 12.535156 L 92.46875 30.722656 L 92.714844 30.867188 L 92.964844 31.027344 L 93.230469 31.203125 L 93.496094 31.390625 L 93.761719 31.585938 L 94.03125 31.796875 L 94.300781 32.019531 L 94.566406 32.25 L 94.832031 32.496094 L 95.101562 32.75 L 95.363281 33.019531 L 95.625 33.296875 L 95.886719 33.589844 L 96.144531 33.894531 L 96.398438 34.210938 L 96.648438 34.539062 L 96.894531 34.878906 L 97.136719 35.230469 L 97.371094 35.59375 L 97.601562 35.972656 L 97.828125 36.359375 L 98.042969 36.761719 L 98.253906 37.171875 L 98.460938 37.597656 L 98.65625 38.035156 L 98.84375 38.480469 L 99.011719 38.917969 L 99.15625 39.324219 L 99.296875 39.746094 L 99.429688 40.1875 L 99.558594 40.644531 L 99.675781 41.117188 L 99.785156 41.609375 L 99.882812 42.117188 L 99.96875 42.644531 L 100.046875 43.183594 L 100.109375 43.738281 L 100.164062 44.304688 L 100.199219 44.886719 L 100.222656 45.480469 L 100.230469 46.085938 L 100.222656 46.703125 L 100.199219 47.328125 L 100.160156 47.96875 L 100.101562 48.617188 L 100.027344 49.273438 L 99.933594 49.9375 L 99.820312 50.609375 L 99.6875 51.289062 L 99.539062 51.976562 L 99.367188 52.667969 L 99.175781 53.363281 L 98.964844 54.0625 L 98.734375 54.765625 L 98.480469 55.472656 L 98.207031 56.179688 L 97.914062 56.886719 L 97.59375 57.59375 L 97.257812 58.300781 L 96.898438 59.003906 L 81.328125 50.015625 L 81.21875 49.953125 L 81.109375 49.886719 L 81.003906 49.820312 L 80.902344 49.757812 L 80.714844 49.632812 L 80.625 49.574219 L 80.445312 49.449219 L 80.359375 49.386719 L 80.195312 49.261719 L 79.960938 49.074219 L 79.886719 49.007812 L 79.816406 48.945312 L 79.742188 48.886719 L 79.476562 48.636719 L 79.417969 48.574219 L 79.355469 48.515625 L 79.296875 48.453125 L 79.242188 48.394531 L 79.183594 48.335938 L 79.132812 48.273438 L 79.078125 48.214844 L 79.027344 48.15625 L 78.980469 48.101562 L 78.886719 47.984375 L 78.757812 47.820312 L 78.679688 47.710938 L 78.609375 47.609375 L 78.574219 47.554688 L 78.542969 47.507812 L 78.511719 47.457031 L 78.480469 47.410156 L 78.453125 47.359375 L 78.425781 47.3125 L 78.398438 47.269531 L 78.375 47.222656 L 78.304688 47.09375 L 78.265625 47.015625 L 78.25 46.976562 L 78.230469 46.9375 L 78.199219 46.867188 L 78.1875 46.832031 L 78.171875 46.800781 Z M 78.160156 46.769531 "/>
</g>
<g clip-path="url(#clip5)" clip-rule="nonzero">
<path style="fill:none;stroke-width:0.2;stroke-linecap:square;stroke-linejoin:miter;stroke:rgb(85.000381%,85.000381%,85.000381%);stroke-opacity:1;stroke-miterlimit:3.25;" d="M 18.582031 86.675781 L 285.945312 86.675781 "/>
</g>
<g clip-path="url(#clip6)" clip-rule="nonzero">
<path style="fill:none;stroke-width:0.2;stroke-linecap:square;stroke-linejoin:miter;stroke:rgb(85.000381%,85.000381%,85.000381%);stroke-opacity:1;stroke-miterlimit:3.25;" d="M 285.945312 193.417969 L 285.945312 86.675781 "/>
</g>
<path style=" stroke:none;fill-rule:nonzero;fill:rgb(85.000381%,85.000381%,85.000381%);fill-opacity:1;" d="M 285.945312 86.675781 L 286.042969 86.773438 L 286.042969 86.574219 L 285.945312 86.574219 Z M 285.945312 86.675781 "/>
<g clip-path="url(#clip7)" clip-rule="nonzero">
<path style="fill:none;stroke-width:0.2;stroke-linecap:square;stroke-linejoin:miter;stroke:rgb(85.000381%,85.000381%,85.000381%);stroke-opacity:1;stroke-miterlimit:3.25;" d="M 285.945312 193.417969 L 285.945312 86.675781 "/>
</g>
<path style=" stroke:none;fill-rule:nonzero;fill:rgb(85.000381%,85.000381%,85.000381%);fill-opacity:1;" d="M 285.945312 86.675781 L 286.042969 86.773438 L 286.042969 86.574219 L 285.945312 86.574219 Z M 285.945312 86.675781 "/>
<g clip-path="url(#clip8)" clip-rule="nonzero">
<path style="fill:none;stroke-width:0.2;stroke-linecap:square;stroke-linejoin:miter;stroke:rgb(85.000381%,85.000381%,85.000381%);stroke-opacity:1;stroke-miterlimit:3.25;" d="M 18.582031 19.835938 L 352.785156 19.835938 "/>
</g>
<g clip-path="url(#clip9)" clip-rule="nonzero">
<path style="fill:none;stroke-width:0.2;stroke-linecap:square;stroke-linejoin:miter;stroke:rgb(85.000381%,85.000381%,85.000381%);stroke-opacity:1;stroke-miterlimit:3.25;" d="M 352.785156 193.417969 L 352.785156 19.835938 "/>
</g>
<path style=" stroke:none;fill-rule:nonzero;fill:rgb(85.000381%,85.000381%,85.000381%);fill-opacity:1;" d="M 352.785156 19.835938 L 352.886719 19.933594 L 352.886719 19.734375 L 352.785156 19.734375 Z M 352.785156 19.835938 "/>
<g clip-path="url(#clip10)" clip-rule="nonzero">
<path style="fill:none;stroke-width:0.2;stroke-linecap:square;stroke-linejoin:miter;stroke:rgb(85.000381%,85.000381%,85.000381%);stroke-opacity:1;stroke-miterlimit:3.25;" d="M 352.785156 193.417969 L 352.785156 19.835938 "/>
</g>
<path style=" stroke:none;fill-rule:nonzero;fill:rgb(85.000381%,85.000381%,85.000381%);fill-opacity:1;" d="M 352.785156 19.835938 L 352.886719 19.933594 L 352.886719 19.734375 L 352.785156 19.734375 Z M 352.785156 19.835938 "/>
<g clip-path="url(#clip11)" clip-rule="nonzero">
<path style="fill:none;stroke-width:0.2;stroke-linecap:square;stroke-linejoin:miter;stroke:rgb(85.000381%,85.000381%,85.000381%);stroke-opacity:1;stroke-miterlimit:3.25;" d="M 18.742188 101.867188 L 285.089844 78.566406 "/>
</g>
<g clip-path="url(#clip12)" clip-rule="nonzero">
<path style="fill:none;stroke-width:0.2;stroke-linecap:square;stroke-linejoin:miter;stroke:rgb(85.000381%,85.000381%,85.000381%);stroke-opacity:1;stroke-miterlimit:3.25;" d="M 295.136719 193.417969 L 285.089844 78.566406 "/>
</g>
<path style=" stroke:none;fill-rule:nonzero;fill:rgb(85.000381%,85.000381%,85.000381%);fill-opacity:1;" d="M 285.089844 78.566406 L 285.1875 78.664062 L 285.179688 78.457031 L 285.078125 78.464844 Z M 285.089844 78.566406 "/>
<g clip-path="url(#clip13)" clip-rule="nonzero">
<path style="fill:none;stroke-width:0.2;stroke-linecap:square;stroke-linejoin:miter;stroke:rgb(85.000381%,85.000381%,85.000381%);stroke-opacity:1;stroke-miterlimit:3.25;" d="M 295.136719 193.417969 L 285.089844 78.566406 "/>
</g>
<path style=" stroke:none;fill-rule:nonzero;fill:rgb(85.000381%,85.000381%,85.000381%);fill-opacity:1;" d="M 285.089844 78.566406 L 285.1875 78.664062 L 285.179688 78.457031 L 285.078125 78.464844 Z M 285.089844 78.566406 "/>
<g clip-path="url(#clip14)" clip-rule="nonzero">
<path style="fill:none;stroke-width:0.2;stroke-linecap:square;stroke-linejoin:miter;stroke:rgb(85.000381%,85.000381%,85.000381%);stroke-opacity:1;stroke-miterlimit:3.25;" d="M 12.914062 35.28125 L 345.847656 6.152344 "/>
</g>
<g clip-path="url(#clip15)" clip-rule="nonzero">
<path style="fill:none;stroke-width:0.2;stroke-linecap:square;stroke-linejoin:miter;stroke:rgb(85.000381%,85.000381%,85.000381%);stroke-opacity:1;stroke-miterlimit:3.25;" d="M 362.234375 193.417969 L 345.847656 6.152344 "/>
</g>
<g clip-path="url(#clip16)" clip-rule="nonzero">
<path style=" stroke:none;fill-rule:nonzero;fill:rgb(85.000381%,85.000381%,85.000381%);fill-opacity:1;" d="M 345.847656 6.152344 L 345.949219 6.253906 L 345.941406 6.046875 L 345.839844 6.054688 Z M 345.847656 6.152344 "/>
</g>
<g clip-path="url(#clip17)" clip-rule="nonzero">
<path style="fill:none;stroke-width:0.2;stroke-linecap:square;stroke-linejoin:miter;stroke:rgb(85.000381%,85.000381%,85.000381%);stroke-opacity:1;stroke-miterlimit:3.25;" d="M 362.234375 193.417969 L 345.847656 6.152344 "/>
</g>
<g clip-path="url(#clip18)" clip-rule="nonzero">
<path style=" stroke:none;fill-rule:nonzero;fill:rgb(85.000381%,85.000381%,85.000381%);fill-opacity:1;" d="M 345.847656 6.152344 L 345.949219 6.253906 L 345.941406 6.046875 L 345.839844 6.054688 Z M 345.847656 6.152344 "/>
</g>
<g clip-path="url(#clip19)" clip-rule="nonzero">
<path style="fill:none;stroke-width:0.2;stroke-linecap:square;stroke-linejoin:miter;stroke:rgb(85.000381%,85.000381%,85.000381%);stroke-opacity:1;stroke-miterlimit:3.25;" d="M 19.6875 117.351562 L 282.988281 70.925781 "/>
</g>
<g clip-path="url(#clip20)" clip-rule="nonzero">
<path style="fill:none;stroke-width:0.2;stroke-linecap:square;stroke-linejoin:miter;stroke:rgb(85.000381%,85.000381%,85.000381%);stroke-opacity:1;stroke-miterlimit:3.25;" d="M 304.589844 193.417969 L 282.988281 70.925781 "/>
</g>
<path style=" stroke:none;fill-rule:nonzero;fill:rgb(85.000381%,85.000381%,85.000381%);fill-opacity:1;" d="M 282.988281 70.925781 L 283.085938 71.023438 L 283.070312 70.808594 L 282.972656 70.828125 Z M 282.988281 70.925781 "/>
<g clip-path="url(#clip21)" clip-rule="nonzero">
<path style="fill:none;stroke-width:0.2;stroke-linecap:square;stroke-linejoin:miter;stroke:rgb(85.000381%,85.000381%,85.000381%);stroke-opacity:1;stroke-miterlimit:3.25;" d="M 304.589844 193.417969 L 282.988281 70.925781 "/>
</g>
<path style=" stroke:none;fill-rule:nonzero;fill:rgb(85.000381%,85.000381%,85.000381%);fill-opacity:1;" d="M 282.988281 70.925781 L 283.085938 71.023438 L 283.070312 70.808594 L 282.972656 70.828125 Z M 282.988281 70.925781 "/>
<g clip-path="url(#clip22)" clip-rule="nonzero">
<path style="fill:none;stroke-width:0.2;stroke-linecap:square;stroke-linejoin:miter;stroke:rgb(85.000381%,85.000381%,85.000381%);stroke-opacity:1;stroke-miterlimit:3.25;" d="M 8.082031 51.527344 L 337.207031 -6.507812 "/>
</g>
<g clip-path="url(#clip23)" clip-rule="nonzero">
<path style="fill:none;stroke-width:0.2;stroke-linecap:square;stroke-linejoin:miter;stroke:rgb(85.000381%,85.000381%,85.000381%);stroke-opacity:1;stroke-miterlimit:3.25;" d="M 372.460938 193.417969 L 337.207031 -6.507812 "/>
<path style="fill:none;stroke-width:0.2;stroke-linecap:square;stroke-linejoin:miter;stroke:rgb(85.000381%,85.000381%,85.000381%);stroke-opacity:1;stroke-miterlimit:3.25;" d="M 372.460938 193.417969 L 337.207031 -6.507812 "/>
</g>
<g clip-path="url(#clip24)" clip-rule="nonzero">
<path style="fill:none;stroke-width:0.2;stroke-linecap:square;stroke-linejoin:miter;stroke:rgb(85.000381%,85.000381%,85.000381%);stroke-opacity:1;stroke-miterlimit:3.25;" d="M 21.550781 133.109375 L 279.804688 63.910156 "/>
</g>
<g clip-path="url(#clip25)" clip-rule="nonzero">
<path style="fill:none;stroke-width:0.2;stroke-linecap:square;stroke-linejoin:miter;stroke:rgb(85.000381%,85.000381%,85.000381%);stroke-opacity:1;stroke-miterlimit:3.25;" d="M 314.503906 193.417969 L 279.804688 63.910156 "/>
</g>
<path style=" stroke:none;fill-rule:nonzero;fill:rgb(85.000381%,85.000381%,85.000381%);fill-opacity:1;" d="M 279.804688 63.910156 L 279.902344 64.007812 L 279.875 63.789062 L 279.777344 63.816406 Z M 279.804688 63.910156 "/>
<g clip-path="url(#clip26)" clip-rule="nonzero">
<path style="fill:none;stroke-width:0.2;stroke-linecap:square;stroke-linejoin:miter;stroke:rgb(85.000381%,85.000381%,85.000381%);stroke-opacity:1;stroke-miterlimit:3.25;" d="M 314.503906 193.417969 L 279.804688 63.910156 "/>
</g>
<path style=" stroke:none;fill-rule:nonzero;fill:rgb(85.000381%,85.000381%,85.000381%);fill-opacity:1;" d="M 279.804688 63.910156 L 279.902344 64.007812 L 279.875 63.789062 L 279.777344 63.816406 Z M 279.804688 63.910156 "/>
<g clip-path="url(#clip27)" clip-rule="nonzero">
<path style="fill:none;stroke-width:0.2;stroke-linecap:square;stroke-linejoin:miter;stroke:rgb(85.000381%,85.000381%,85.000381%);stroke-opacity:1;stroke-miterlimit:3.25;" d="M 4.25 68.546875 L 327.066406 -17.953125 "/>
</g>
<g clip-path="url(#clip28)" clip-rule="nonzero">
<path style="fill:none;stroke-width:0.2;stroke-linecap:square;stroke-linejoin:miter;stroke:rgb(85.000381%,85.000381%,85.000381%);stroke-opacity:1;stroke-miterlimit:3.25;" d="M 383.703125 193.417969 L 327.066406 -17.953125 "/>
<path style="fill:none;stroke-width:0.2;stroke-linecap:square;stroke-linejoin:miter;stroke:rgb(85.000381%,85.000381%,85.000381%);stroke-opacity:1;stroke-miterlimit:3.25;" d="M 383.703125 193.417969 L 327.066406 -17.953125 "/>
</g>
<g clip-path="url(#clip29)" clip-rule="nonzero">
<path style="fill:none;stroke-width:0.2;stroke-linecap:square;stroke-linejoin:miter;stroke:rgb(85.000381%,85.000381%,85.000381%);stroke-opacity:1;stroke-miterlimit:3.25;" d="M 24.394531 149.121094 L 275.636719 57.675781 "/>
</g>
<g clip-path="url(#clip30)" clip-rule="nonzero">
<path style="fill:none;stroke-width:0.2;stroke-linecap:square;stroke-linejoin:miter;stroke:rgb(85.000381%,85.000381%,85.000381%);stroke-opacity:1;stroke-miterlimit:3.25;" d="M 325.042969 193.417969 L 275.636719 57.675781 "/>
</g>
<path style=" stroke:none;fill-rule:nonzero;fill:rgb(85.000381%,85.000381%,85.000381%);fill-opacity:1;" d="M 275.636719 57.675781 L 275.730469 57.769531 L 275.695312 57.546875 L 275.601562 57.582031 Z M 275.636719 57.675781 "/>
<g clip-path="url(#clip31)" clip-rule="nonzero">
<path style="fill:none;stroke-width:0.2;stroke-linecap:square;stroke-linejoin:miter;stroke:rgb(85.000381%,85.000381%,85.000381%);stroke-opacity:1;stroke-miterlimit:3.25;" d="M 325.042969 193.417969 L 275.636719 57.675781 "/>
</g>
<path style=" stroke:none;fill-rule:nonzero;fill:rgb(85.000381%,85.000381%,85.000381%);fill-opacity:1;" d="M 275.636719 57.675781 L 275.730469 57.769531 L 275.695312 57.546875 L 275.601562 57.582031 Z M 275.636719 57.675781 "/>
<g clip-path="url(#clip32)" clip-rule="nonzero">
<path style="fill:none;stroke-width:0.2;stroke-linecap:square;stroke-linejoin:miter;stroke:rgb(85.000381%,85.000381%,85.000381%);stroke-opacity:1;stroke-miterlimit:3.25;" d="M 1.535156 86.308594 L 315.585938 -27.996094 "/>
</g>
<g clip-path="url(#clip33)" clip-rule="nonzero">
<path style="fill:none;stroke-width:0.2;stroke-linecap:square;stroke-linejoin:miter;stroke:rgb(85.000381%,85.000381%,85.000381%);stroke-opacity:1;stroke-miterlimit:3.25;" d="M 396.171875 193.417969 L 315.585938 -27.996094 "/>
<path style="fill:none;stroke-width:0.2;stroke-linecap:square;stroke-linejoin:miter;stroke:rgb(85.000381%,85.000381%,85.000381%);stroke-opacity:1;stroke-miterlimit:3.25;" d="M 396.171875 193.417969 L 315.585938 -27.996094 "/>
</g>
<g clip-path="url(#clip34)" clip-rule="nonzero">
<path style="fill:none;stroke-width:0.2;stroke-linecap:square;stroke-linejoin:miter;stroke:rgb(85.000381%,85.000381%,85.000381%);stroke-opacity:1;stroke-miterlimit:3.25;" d="M 28.292969 165.34375 L 270.605469 52.351562 "/>
</g>
<g clip-path="url(#clip35)" clip-rule="nonzero">
<path style="fill:none;stroke-width:0.2;stroke-linecap:square;stroke-linejoin:miter;stroke:rgb(85.000381%,85.000381%,85.000381%);stroke-opacity:1;stroke-miterlimit:3.25;" d="M 336.386719 193.417969 L 270.605469 52.351562 "/>
</g>
<path style=" stroke:none;fill-rule:nonzero;fill:rgb(85.000381%,85.000381%,85.000381%);fill-opacity:1;" d="M 270.605469 52.351562 L 270.695312 52.441406 L 270.652344 52.21875 L 270.5625 52.261719 Z M 270.605469 52.351562 "/>
<g clip-path="url(#clip36)" clip-rule="nonzero">
<path style="fill:none;stroke-width:0.2;stroke-linecap:square;stroke-linejoin:miter;stroke:rgb(85.000381%,85.000381%,85.000381%);stroke-opacity:1;stroke-miterlimit:3.25;" d="M 336.386719 193.417969 L 270.605469 52.351562 "/>
</g>
<path style=" stroke:none;fill-rule:nonzero;fill:rgb(85.000381%,85.000381%,85.000381%);fill-opacity:1;" d="M 270.605469 52.351562 L 270.695312 52.441406 L 270.652344 52.21875 L 270.5625 52.261719 Z M 270.605469 52.351562 "/>
<g clip-path="url(#clip37)" clip-rule="nonzero">
<path style="fill:none;stroke-width:0.2;stroke-linecap:square;stroke-linejoin:miter;stroke:rgb(85.000381%,85.000381%,85.000381%);stroke-opacity:1;stroke-miterlimit:3.25;" d="M 0.0429688 104.765625 L 302.933594 -36.476562 "/>
</g>
<g clip-path="url(#clip38)" clip-rule="nonzero">
<path style="fill:none;stroke-width:0.2;stroke-linecap:square;stroke-linejoin:miter;stroke:rgb(85.000381%,85.000381%,85.000381%);stroke-opacity:1;stroke-miterlimit:3.25;" d="M 410.136719 193.417969 L 302.933594 -36.476562 "/>
<path style="fill:none;stroke-width:0.2;stroke-linecap:square;stroke-linejoin:miter;stroke:rgb(85.000381%,85.000381%,85.000381%);stroke-opacity:1;stroke-miterlimit:3.25;" d="M 410.136719 193.417969 L 302.933594 -36.476562 "/>
</g>
<g clip-path="url(#clip39)" clip-rule="nonzero">
<path style="fill:none;stroke-width:0.2;stroke-linecap:square;stroke-linejoin:miter;stroke:rgb(85.000381%,85.000381%,85.000381%);stroke-opacity:1;stroke-miterlimit:3.25;" d="M 33.308594 181.738281 L 264.855469 48.054688 "/>
</g>
<g clip-path="url(#clip40)" clip-rule="nonzero">
<path style="fill:none;stroke-width:0.2;stroke-linecap:square;stroke-linejoin:miter;stroke:rgb(85.000381%,85.000381%,85.000381%);stroke-opacity:1;stroke-miterlimit:3.25;" d="M 348.777344 193.417969 L 264.855469 48.054688 "/>
</g>
<path style=" stroke:none;fill-rule:nonzero;fill:rgb(85.000381%,85.000381%,85.000381%);fill-opacity:1;" d="M 264.855469 48.054688 L 264.941406 48.144531 L 264.890625 47.917969 L 264.804688 47.96875 Z M 264.855469 48.054688 "/>
<g clip-path="url(#clip41)" clip-rule="nonzero">
<path style="fill:none;stroke-width:0.2;stroke-linecap:square;stroke-linejoin:miter;stroke:rgb(85.000381%,85.000381%,85.000381%);stroke-opacity:1;stroke-miterlimit:3.25;" d="M 348.777344 193.417969 L 264.855469 48.054688 "/>
</g>
<path style=" stroke:none;fill-rule:nonzero;fill:rgb(85.000381%,85.000381%,85.000381%);fill-opacity:1;" d="M 264.855469 48.054688 L 264.941406 48.144531 L 264.890625 47.917969 L 264.804688 47.96875 Z M 264.855469 48.054688 "/>
<g clip-path="url(#clip42)" clip-rule="nonzero">
<path style="fill:none;stroke-width:0.2;stroke-linecap:square;stroke-linejoin:miter;stroke:rgb(85.000381%,85.000381%,85.000381%);stroke-opacity:1;stroke-miterlimit:3.25;" d="M -0.109375 123.851562 L 289.320312 -43.25 "/>
</g>
<g clip-path="url(#clip43)" clip-rule="nonzero">
<path style="fill:none;stroke-width:0.2;stroke-linecap:square;stroke-linejoin:miter;stroke:rgb(85.000381%,85.000381%,85.000381%);stroke-opacity:1;stroke-miterlimit:3.25;" d="M 425.960938 193.417969 L 289.320312 -43.25 "/>
<path style="fill:none;stroke-width:0.2;stroke-linecap:square;stroke-linejoin:miter;stroke:rgb(85.000381%,85.000381%,85.000381%);stroke-opacity:1;stroke-miterlimit:3.25;" d="M 425.960938 193.417969 L 289.320312 -43.25 "/>
</g>
<g clip-path="url(#clip44)" clip-rule="nonzero">
<path style="fill:none;stroke-width:0.2;stroke-linecap:square;stroke-linejoin:miter;stroke:rgb(85.000381%,85.000381%,85.000381%);stroke-opacity:1;stroke-miterlimit:3.25;" d="M 46.421875 193.417969 L 258.539062 44.890625 "/>
<path style="fill:none;stroke-width:0.2;stroke-linecap:square;stroke-linejoin:miter;stroke:rgb(85.000381%,85.000381%,85.000381%);stroke-opacity:1;stroke-miterlimit:3.25;" d="M 46.421875 193.417969 L 258.539062 44.890625 "/>
</g>
<path style=" stroke:none;fill-rule:nonzero;fill:rgb(85.000381%,85.000381%,85.000381%);fill-opacity:1;" d="M 258.539062 44.890625 L 258.480469 44.835938 L 258.5625 44.753906 L 258.621094 44.835938 Z M 258.539062 44.890625 "/>
<g clip-path="url(#clip45)" clip-rule="nonzero">
<path style="fill:none;stroke-width:0.2;stroke-linecap:square;stroke-linejoin:miter;stroke:rgb(85.000381%,85.000381%,85.000381%);stroke-opacity:1;stroke-miterlimit:3.25;" d="M 362.535156 193.417969 L 258.539062 44.890625 "/>
<path style="fill:none;stroke-width:0.2;stroke-linecap:square;stroke-linejoin:miter;stroke:rgb(85.000381%,85.000381%,85.000381%);stroke-opacity:1;stroke-miterlimit:3.25;" d="M 362.535156 193.417969 L 258.539062 44.890625 "/>
</g>
<g clip-path="url(#clip46)" clip-rule="nonzero">
<path style="fill:none;stroke-width:0.2;stroke-linecap:square;stroke-linejoin:miter;stroke:rgb(85.000381%,85.000381%,85.000381%);stroke-opacity:1;stroke-miterlimit:3.25;" d="M 1.1875 143.492188 L 274.953125 -48.199219 "/>
</g>
<g clip-path="url(#clip47)" clip-rule="nonzero">
<path style="fill:none;stroke-width:0.2;stroke-linecap:square;stroke-linejoin:miter;stroke:rgb(85.000381%,85.000381%,85.000381%);stroke-opacity:1;stroke-miterlimit:3.25;" d="M 444.132812 193.417969 L 274.953125 -48.199219 "/>
<path style="fill:none;stroke-width:0.2;stroke-linecap:square;stroke-linejoin:miter;stroke:rgb(85.000381%,85.000381%,85.000381%);stroke-opacity:1;stroke-miterlimit:3.25;" d="M 444.132812 193.417969 L 274.953125 -48.199219 "/>
</g>
<g clip-path="url(#clip48)" clip-rule="nonzero">
<path style="fill:none;stroke-width:0.2;stroke-linecap:square;stroke-linejoin:miter;stroke:rgb(85.000381%,85.000381%,85.000381%);stroke-opacity:1;stroke-miterlimit:3.25;" d="M 72.488281 193.417969 L 251.824219 42.9375 "/>
<path style="fill:none;stroke-width:0.2;stroke-linecap:square;stroke-linejoin:miter;stroke:rgb(85.000381%,85.000381%,85.000381%);stroke-opacity:1;stroke-miterlimit:3.25;" d="M 72.488281 193.417969 L 251.824219 42.9375 "/>
</g>
<path style=" stroke:none;fill-rule:nonzero;fill:rgb(85.000381%,85.000381%,85.000381%);fill-opacity:1;" d="M 251.824219 42.9375 L 251.761719 42.871094 L 251.835938 42.796875 L 251.902344 42.871094 Z M 251.824219 42.9375 "/>
<g clip-path="url(#clip49)" clip-rule="nonzero">
<path style="fill:none;stroke-width:0.2;stroke-linecap:square;stroke-linejoin:miter;stroke:rgb(85.000381%,85.000381%,85.000381%);stroke-opacity:1;stroke-miterlimit:3.25;" d="M 378.09375 193.417969 L 251.824219 42.9375 "/>
<path style="fill:none;stroke-width:0.2;stroke-linecap:square;stroke-linejoin:miter;stroke:rgb(85.000381%,85.000381%,85.000381%);stroke-opacity:1;stroke-miterlimit:3.25;" d="M 378.09375 193.417969 L 251.824219 42.9375 "/>
</g>
<g clip-path="url(#clip50)" clip-rule="nonzero">
<path style="fill:none;stroke-width:0.2;stroke-linecap:square;stroke-linejoin:miter;stroke:rgb(85.000381%,85.000381%,85.000381%);stroke-opacity:1;stroke-miterlimit:3.25;" d="M 4.046875 163.589844 L 260.0625 -51.230469 "/>
</g>
<g clip-path="url(#clip51)" clip-rule="nonzero">
<path style="fill:none;stroke-width:0.2;stroke-linecap:square;stroke-linejoin:miter;stroke:rgb(85.000381%,85.000381%,85.000381%);stroke-opacity:1;stroke-miterlimit:3.25;" d="M 465.347656 193.417969 L 260.0625 -51.230469 "/>
<path style="fill:none;stroke-width:0.2;stroke-linecap:square;stroke-linejoin:miter;stroke:rgb(85.000381%,85.000381%,85.000381%);stroke-opacity:1;stroke-miterlimit:3.25;" d="M 465.347656 193.417969 L 260.0625 -51.230469 "/>
</g>
<g clip-path="url(#clip52)" clip-rule="nonzero">
<path style="fill:none;stroke-width:0.2;stroke-linecap:square;stroke-linejoin:miter;stroke:rgb(85.000381%,85.000381%,85.000381%);stroke-opacity:1;stroke-miterlimit:3.25;" d="M 93.777344 193.417969 L 244.921875 42.273438 "/>
<path style="fill:none;stroke-width:0.2;stroke-linecap:square;stroke-linejoin:miter;stroke:rgb(85.000381%,85.000381%,85.000381%);stroke-opacity:1;stroke-miterlimit:3.25;" d="M 93.777344 193.417969 L 244.921875 42.273438 "/>
</g>
<path style=" stroke:none;fill-rule:nonzero;fill:rgb(85.000381%,85.000381%,85.000381%);fill-opacity:1;" d="M 244.921875 42.273438 L 244.847656 42.203125 L 244.921875 42.132812 L 244.992188 42.203125 Z M 244.921875 42.273438 "/>
<g clip-path="url(#clip53)" clip-rule="nonzero">
<path style="fill:none;stroke-width:0.2;stroke-linecap:square;stroke-linejoin:miter;stroke:rgb(85.000381%,85.000381%,85.000381%);stroke-opacity:1;stroke-miterlimit:3.25;" d="M 396.0625 193.417969 L 244.921875 42.273438 "/>
<path style="fill:none;stroke-width:0.2;stroke-linecap:square;stroke-linejoin:miter;stroke:rgb(85.000381%,85.000381%,85.000381%);stroke-opacity:1;stroke-miterlimit:3.25;" d="M 396.0625 193.417969 L 244.921875 42.273438 "/>
</g>
<g clip-path="url(#clip54)" clip-rule="nonzero">
<path style="fill:none;stroke-width:0.2;stroke-linecap:square;stroke-linejoin:miter;stroke:rgb(85.000381%,85.000381%,85.000381%);stroke-opacity:1;stroke-miterlimit:3.25;" d="M 8.601562 184.066406 L 244.921875 -52.253906 L 481.238281 184.066406 "/>
</g>
<g clip-path="url(#clip55)" clip-rule="nonzero">
<path style="fill:none;stroke-width:0.2;stroke-linecap:square;stroke-linejoin:miter;stroke:rgb(85.000381%,85.000381%,85.000381%);stroke-opacity:1;stroke-miterlimit:3.25;" d="M 111.746094 193.417969 L 238.015625 42.9375 "/>
<path style="fill:none;stroke-width:0.2;stroke-linecap:square;stroke-linejoin:miter;stroke:rgb(85.000381%,85.000381%,85.000381%);stroke-opacity:1;stroke-miterlimit:3.25;" d="M 111.746094 193.417969 L 238.015625 42.9375 "/>
</g>
<path style=" stroke:none;fill-rule:nonzero;fill:rgb(85.000381%,85.000381%,85.000381%);fill-opacity:1;" d="M 238.015625 42.9375 L 237.9375 42.859375 L 238.003906 42.796875 L 238.078125 42.859375 Z M 238.015625 42.9375 "/>
<g clip-path="url(#clip56)" clip-rule="nonzero">
<path style="fill:none;stroke-width:0.2;stroke-linecap:square;stroke-linejoin:miter;stroke:rgb(85.000381%,85.000381%,85.000381%);stroke-opacity:1;stroke-miterlimit:3.25;" d="M 417.351562 193.417969 L 238.015625 42.9375 "/>
<path style="fill:none;stroke-width:0.2;stroke-linecap:square;stroke-linejoin:miter;stroke:rgb(85.000381%,85.000381%,85.000381%);stroke-opacity:1;stroke-miterlimit:3.25;" d="M 417.351562 193.417969 L 238.015625 42.9375 "/>
</g>
<g clip-path="url(#clip57)" clip-rule="nonzero">
<path style="fill:none;stroke-width:0.2;stroke-linecap:square;stroke-linejoin:miter;stroke:rgb(85.000381%,85.000381%,85.000381%);stroke-opacity:1;stroke-miterlimit:3.25;" d="M 24.492188 193.417969 L 229.777344 -51.230469 "/>
<path style="fill:none;stroke-width:0.2;stroke-linecap:square;stroke-linejoin:miter;stroke:rgb(85.000381%,85.000381%,85.000381%);stroke-opacity:1;stroke-miterlimit:3.25;" d="M 24.492188 193.417969 L 229.777344 -51.230469 "/>
</g>
<g clip-path="url(#clip58)" clip-rule="nonzero">
<path style="fill:none;stroke-width:0.2;stroke-linecap:square;stroke-linejoin:miter;stroke:rgb(85.000381%,85.000381%,85.000381%);stroke-opacity:1;stroke-miterlimit:3.25;" d="M 229.777344 -51.230469 L 485.792969 163.589844 "/>
</g>
<g clip-path="url(#clip59)" clip-rule="nonzero">
<path style="fill:none;stroke-width:0.2;stroke-linecap:square;stroke-linejoin:miter;stroke:rgb(85.000381%,85.000381%,85.000381%);stroke-opacity:1;stroke-miterlimit:3.25;" d="M 127.304688 193.417969 L 231.300781 44.890625 "/>
<path style="fill:none;stroke-width:0.2;stroke-linecap:square;stroke-linejoin:miter;stroke:rgb(85.000381%,85.000381%,85.000381%);stroke-opacity:1;stroke-miterlimit:3.25;" d="M 127.304688 193.417969 L 231.300781 44.890625 "/>
</g>
<path style=" stroke:none;fill-rule:nonzero;fill:rgb(85.000381%,85.000381%,85.000381%);fill-opacity:1;" d="M 231.300781 44.890625 L 231.21875 44.808594 L 231.277344 44.753906 L 231.359375 44.808594 Z M 231.300781 44.890625 "/>
<g clip-path="url(#clip60)" clip-rule="nonzero">
<path style="fill:none;stroke-width:0.2;stroke-linecap:square;stroke-linejoin:miter;stroke:rgb(85.000381%,85.000381%,85.000381%);stroke-opacity:1;stroke-miterlimit:3.25;" d="M 443.417969 193.417969 L 231.300781 44.890625 "/>
<path style="fill:none;stroke-width:0.2;stroke-linecap:square;stroke-linejoin:miter;stroke:rgb(85.000381%,85.000381%,85.000381%);stroke-opacity:1;stroke-miterlimit:3.25;" d="M 443.417969 193.417969 L 231.300781 44.890625 "/>
</g>
<g clip-path="url(#clip61)" clip-rule="nonzero">
<path style="fill:none;stroke-width:0.2;stroke-linecap:square;stroke-linejoin:miter;stroke:rgb(85.000381%,85.000381%,85.000381%);stroke-opacity:1;stroke-miterlimit:3.25;" d="M 45.707031 193.417969 L 214.886719 -48.199219 "/>
<path style="fill:none;stroke-width:0.2;stroke-linecap:square;stroke-linejoin:miter;stroke:rgb(85.000381%,85.000381%,85.000381%);stroke-opacity:1;stroke-miterlimit:3.25;" d="M 45.707031 193.417969 L 214.886719 -48.199219 "/>
</g>
<g clip-path="url(#clip62)" clip-rule="nonzero">
<path style="fill:none;stroke-width:0.2;stroke-linecap:square;stroke-linejoin:miter;stroke:rgb(85.000381%,85.000381%,85.000381%);stroke-opacity:1;stroke-miterlimit:3.25;" d="M 214.886719 -48.199219 L 488.652344 143.492188 "/>
</g>
<g clip-path="url(#clip63)" clip-rule="nonzero">
<path style="fill:none;stroke-width:0.2;stroke-linecap:square;stroke-linejoin:miter;stroke:rgb(85.000381%,85.000381%,85.000381%);stroke-opacity:1;stroke-miterlimit:3.25;" d="M 141.0625 193.417969 L 224.984375 48.054688 "/>
<path style="fill:none;stroke-width:0.2;stroke-linecap:square;stroke-linejoin:miter;stroke:rgb(85.000381%,85.000381%,85.000381%);stroke-opacity:1;stroke-miterlimit:3.25;" d="M 141.0625 193.417969 L 224.984375 48.054688 "/>
</g>
<path style=" stroke:none;fill-rule:nonzero;fill:rgb(85.000381%,85.000381%,85.000381%);fill-opacity:1;" d="M 224.984375 48.054688 L 224.898438 47.96875 L 224.949219 47.917969 L 225.035156 47.96875 Z M 224.984375 48.054688 "/>
<g clip-path="url(#clip64)" clip-rule="nonzero">
<path style="fill:none;stroke-width:0.2;stroke-linecap:square;stroke-linejoin:miter;stroke:rgb(85.000381%,85.000381%,85.000381%);stroke-opacity:1;stroke-miterlimit:3.25;" d="M 224.984375 48.054688 L 456.53125 181.738281 "/>
</g>
<g clip-path="url(#clip65)" clip-rule="nonzero">
<path style="fill:none;stroke-width:0.2;stroke-linecap:square;stroke-linejoin:miter;stroke:rgb(85.000381%,85.000381%,85.000381%);stroke-opacity:1;stroke-miterlimit:3.25;" d="M 63.878906 193.417969 L 200.519531 -43.25 "/>
<path style="fill:none;stroke-width:0.2;stroke-linecap:square;stroke-linejoin:miter;stroke:rgb(85.000381%,85.000381%,85.000381%);stroke-opacity:1;stroke-miterlimit:3.25;" d="M 63.878906 193.417969 L 200.519531 -43.25 "/>
</g>
<g clip-path="url(#clip66)" clip-rule="nonzero">
<path style="fill:none;stroke-width:0.2;stroke-linecap:square;stroke-linejoin:miter;stroke:rgb(85.000381%,85.000381%,85.000381%);stroke-opacity:1;stroke-miterlimit:3.25;" d="M 200.519531 -43.25 L 489.949219 123.851562 "/>
</g>
<g clip-path="url(#clip67)" clip-rule="nonzero">
<path style="fill:none;stroke-width:0.2;stroke-linecap:square;stroke-linejoin:miter;stroke:rgb(85.000381%,85.000381%,85.000381%);stroke-opacity:1;stroke-miterlimit:3.25;" d="M 153.453125 193.417969 L 219.234375 52.351562 "/>
<path style="fill:none;stroke-width:0.2;stroke-linecap:square;stroke-linejoin:miter;stroke:rgb(85.000381%,85.000381%,85.000381%);stroke-opacity:1;stroke-miterlimit:3.25;" d="M 153.453125 193.417969 L 219.234375 52.351562 "/>
</g>
<path style=" stroke:none;fill-rule:nonzero;fill:rgb(85.000381%,85.000381%,85.000381%);fill-opacity:1;" d="M 219.234375 52.351562 L 219.144531 52.261719 L 219.1875 52.21875 L 219.277344 52.261719 Z M 219.234375 52.351562 "/>
<g clip-path="url(#clip68)" clip-rule="nonzero">
<path style="fill:none;stroke-width:0.2;stroke-linecap:square;stroke-linejoin:miter;stroke:rgb(85.000381%,85.000381%,85.000381%);stroke-opacity:1;stroke-miterlimit:3.25;" d="M 219.234375 52.351562 L 461.550781 165.34375 "/>
</g>
<g clip-path="url(#clip69)" clip-rule="nonzero">
<path style="fill:none;stroke-width:0.2;stroke-linecap:square;stroke-linejoin:miter;stroke:rgb(85.000381%,85.000381%,85.000381%);stroke-opacity:1;stroke-miterlimit:3.25;" d="M 79.703125 193.417969 L 186.90625 -36.476562 "/>
<path style="fill:none;stroke-width:0.2;stroke-linecap:square;stroke-linejoin:miter;stroke:rgb(85.000381%,85.000381%,85.000381%);stroke-opacity:1;stroke-miterlimit:3.25;" d="M 79.703125 193.417969 L 186.90625 -36.476562 "/>
</g>
<g clip-path="url(#clip70)" clip-rule="nonzero">
<path style="fill:none;stroke-width:0.2;stroke-linecap:square;stroke-linejoin:miter;stroke:rgb(85.000381%,85.000381%,85.000381%);stroke-opacity:1;stroke-miterlimit:3.25;" d="M 186.90625 -36.476562 L 489.796875 104.765625 "/>
</g>
<g clip-path="url(#clip71)" clip-rule="nonzero">
<path style="fill:none;stroke-width:0.2;stroke-linecap:square;stroke-linejoin:miter;stroke:rgb(85.000381%,85.000381%,85.000381%);stroke-opacity:1;stroke-miterlimit:3.25;" d="M 164.800781 193.417969 L 214.207031 57.675781 "/>
<path style="fill:none;stroke-width:0.2;stroke-linecap:square;stroke-linejoin:miter;stroke:rgb(85.000381%,85.000381%,85.000381%);stroke-opacity:1;stroke-miterlimit:3.25;" d="M 164.800781 193.417969 L 214.207031 57.675781 "/>
</g>
<path style=" stroke:none;fill-rule:nonzero;fill:rgb(85.000381%,85.000381%,85.000381%);fill-opacity:1;" d="M 214.207031 57.675781 L 214.113281 57.582031 L 214.144531 57.546875 L 214.238281 57.582031 Z M 214.207031 57.675781 "/>
<g clip-path="url(#clip72)" clip-rule="nonzero">
<path style="fill:none;stroke-width:0.2;stroke-linecap:square;stroke-linejoin:miter;stroke:rgb(85.000381%,85.000381%,85.000381%);stroke-opacity:1;stroke-miterlimit:3.25;" d="M 214.207031 57.675781 L 465.445312 149.121094 "/>
</g>
<g clip-path="url(#clip73)" clip-rule="nonzero">
<path style="fill:none;stroke-width:0.2;stroke-linecap:square;stroke-linejoin:miter;stroke:rgb(85.000381%,85.000381%,85.000381%);stroke-opacity:1;stroke-miterlimit:3.25;" d="M 93.667969 193.417969 L 174.257812 -27.996094 "/>
<path style="fill:none;stroke-width:0.2;stroke-linecap:square;stroke-linejoin:miter;stroke:rgb(85.000381%,85.000381%,85.000381%);stroke-opacity:1;stroke-miterlimit:3.25;" d="M 93.667969 193.417969 L 174.257812 -27.996094 "/>
</g>
<g clip-path="url(#clip74)" clip-rule="nonzero">
<path style="fill:none;stroke-width:0.2;stroke-linecap:square;stroke-linejoin:miter;stroke:rgb(85.000381%,85.000381%,85.000381%);stroke-opacity:1;stroke-miterlimit:3.25;" d="M 174.257812 -27.996094 L 488.304688 86.308594 "/>
</g>
<g clip-path="url(#clip75)" clip-rule="nonzero">
<path style="fill:none;stroke-width:0.2;stroke-linecap:square;stroke-linejoin:miter;stroke:rgb(85.000381%,85.000381%,85.000381%);stroke-opacity:1;stroke-miterlimit:3.25;" d="M 175.335938 193.417969 L 210.035156 63.910156 "/>
<path style="fill:none;stroke-width:0.2;stroke-linecap:square;stroke-linejoin:miter;stroke:rgb(85.000381%,85.000381%,85.000381%);stroke-opacity:1;stroke-miterlimit:3.25;" d="M 175.335938 193.417969 L 210.035156 63.910156 "/>
</g>
<path style=" stroke:none;fill-rule:nonzero;fill:rgb(85.000381%,85.000381%,85.000381%);fill-opacity:1;" d="M 210.035156 63.910156 L 209.941406 63.816406 L 209.964844 63.789062 L 210.0625 63.816406 Z M 210.035156 63.910156 "/>
<g clip-path="url(#clip76)" clip-rule="nonzero">
<path style="fill:none;stroke-width:0.2;stroke-linecap:square;stroke-linejoin:miter;stroke:rgb(85.000381%,85.000381%,85.000381%);stroke-opacity:1;stroke-miterlimit:3.25;" d="M 210.035156 63.910156 L 468.289062 133.109375 "/>
</g>
<g clip-path="url(#clip77)" clip-rule="nonzero">
<path style="fill:none;stroke-width:0.2;stroke-linecap:square;stroke-linejoin:miter;stroke:rgb(85.000381%,85.000381%,85.000381%);stroke-opacity:1;stroke-miterlimit:3.25;" d="M 106.136719 193.417969 L 162.773438 -17.953125 "/>
<path style="fill:none;stroke-width:0.2;stroke-linecap:square;stroke-linejoin:miter;stroke:rgb(85.000381%,85.000381%,85.000381%);stroke-opacity:1;stroke-miterlimit:3.25;" d="M 106.136719 193.417969 L 162.773438 -17.953125 "/>
</g>
<g clip-path="url(#clip78)" clip-rule="nonzero">
<path style="fill:none;stroke-width:0.2;stroke-linecap:square;stroke-linejoin:miter;stroke:rgb(85.000381%,85.000381%,85.000381%);stroke-opacity:1;stroke-miterlimit:3.25;" d="M 162.773438 -17.953125 L 485.589844 68.546875 "/>
</g>
<g clip-path="url(#clip79)" clip-rule="nonzero">
<path style="fill:none;stroke-width:0.2;stroke-linecap:square;stroke-linejoin:miter;stroke:rgb(85.000381%,85.000381%,85.000381%);stroke-opacity:1;stroke-miterlimit:3.25;" d="M 185.253906 193.417969 L 206.851562 70.925781 "/>
<path style="fill:none;stroke-width:0.2;stroke-linecap:square;stroke-linejoin:miter;stroke:rgb(85.000381%,85.000381%,85.000381%);stroke-opacity:1;stroke-miterlimit:3.25;" d="M 185.253906 193.417969 L 206.851562 70.925781 "/>
</g>
<path style=" stroke:none;fill-rule:nonzero;fill:rgb(85.000381%,85.000381%,85.000381%);fill-opacity:1;" d="M 206.851562 70.925781 L 206.753906 70.828125 L 206.769531 70.808594 L 206.867188 70.828125 Z M 206.851562 70.925781 "/>
<g clip-path="url(#clip80)" clip-rule="nonzero">
<path style="fill:none;stroke-width:0.2;stroke-linecap:square;stroke-linejoin:miter;stroke:rgb(85.000381%,85.000381%,85.000381%);stroke-opacity:1;stroke-miterlimit:3.25;" d="M 206.851562 70.925781 L 470.152344 117.351562 "/>
</g>
<g clip-path="url(#clip81)" clip-rule="nonzero">
<path style="fill:none;stroke-width:0.2;stroke-linecap:square;stroke-linejoin:miter;stroke:rgb(85.000381%,85.000381%,85.000381%);stroke-opacity:1;stroke-miterlimit:3.25;" d="M 117.378906 193.417969 L 152.632812 -6.507812 "/>
<path style="fill:none;stroke-width:0.2;stroke-linecap:square;stroke-linejoin:miter;stroke:rgb(85.000381%,85.000381%,85.000381%);stroke-opacity:1;stroke-miterlimit:3.25;" d="M 117.378906 193.417969 L 152.632812 -6.507812 "/>
</g>
<g clip-path="url(#clip82)" clip-rule="nonzero">
<path style="fill:none;stroke-width:0.2;stroke-linecap:square;stroke-linejoin:miter;stroke:rgb(85.000381%,85.000381%,85.000381%);stroke-opacity:1;stroke-miterlimit:3.25;" d="M 152.632812 -6.507812 L 481.761719 51.527344 "/>
</g>
<g clip-path="url(#clip83)" clip-rule="nonzero">
<path style="fill:none;stroke-width:0.2;stroke-linecap:square;stroke-linejoin:miter;stroke:rgb(85.000381%,85.000381%,85.000381%);stroke-opacity:1;stroke-miterlimit:3.25;" d="M 194.703125 193.417969 L 204.753906 78.566406 "/>
<path style="fill:none;stroke-width:0.2;stroke-linecap:square;stroke-linejoin:miter;stroke:rgb(85.000381%,85.000381%,85.000381%);stroke-opacity:1;stroke-miterlimit:3.25;" d="M 194.703125 193.417969 L 204.753906 78.566406 "/>
</g>
<path style=" stroke:none;fill-rule:nonzero;fill:rgb(85.000381%,85.000381%,85.000381%);fill-opacity:1;" d="M 204.753906 78.566406 L 204.652344 78.464844 L 204.660156 78.457031 L 204.761719 78.464844 Z M 204.753906 78.566406 "/>
<g clip-path="url(#clip84)" clip-rule="nonzero">
<path style="fill:none;stroke-width:0.2;stroke-linecap:square;stroke-linejoin:miter;stroke:rgb(85.000381%,85.000381%,85.000381%);stroke-opacity:1;stroke-miterlimit:3.25;" d="M 204.753906 78.566406 L 471.097656 101.867188 "/>
</g>
<g clip-path="url(#clip85)" clip-rule="nonzero">
<path style="fill:none;stroke-width:0.2;stroke-linecap:square;stroke-linejoin:miter;stroke:rgb(85.000381%,85.000381%,85.000381%);stroke-opacity:1;stroke-miterlimit:3.25;" d="M 127.609375 193.417969 L 143.992188 6.152344 "/>
<path style="fill:none;stroke-width:0.2;stroke-linecap:square;stroke-linejoin:miter;stroke:rgb(85.000381%,85.000381%,85.000381%);stroke-opacity:1;stroke-miterlimit:3.25;" d="M 127.609375 193.417969 L 143.992188 6.152344 "/>
</g>
<g clip-path="url(#clip86)" clip-rule="nonzero">
<path style=" stroke:none;fill-rule:nonzero;fill:rgb(85.000381%,85.000381%,85.000381%);fill-opacity:1;" d="M 143.992188 6.152344 L 143.890625 6.054688 L 143.902344 6.046875 L 144 6.054688 Z M 143.992188 6.152344 "/>
</g>
<g clip-path="url(#clip87)" clip-rule="nonzero">
<path style="fill:none;stroke-width:0.2;stroke-linecap:square;stroke-linejoin:miter;stroke:rgb(85.000381%,85.000381%,85.000381%);stroke-opacity:1;stroke-miterlimit:3.25;" d="M 143.992188 6.152344 L 476.925781 35.28125 "/>
</g>
<g clip-path="url(#clip88)" clip-rule="nonzero">
<path style="fill:none;stroke-width:0.2;stroke-linecap:square;stroke-linejoin:miter;stroke:rgb(85.000381%,85.000381%,85.000381%);stroke-opacity:1;stroke-miterlimit:3.25;" d="M 203.894531 193.417969 L 203.894531 86.675781 "/>
<path style="fill:none;stroke-width:0.2;stroke-linecap:square;stroke-linejoin:miter;stroke:rgb(85.000381%,85.000381%,85.000381%);stroke-opacity:1;stroke-miterlimit:3.25;" d="M 203.894531 193.417969 L 203.894531 86.675781 "/>
</g>
<path style=" stroke:none;fill-rule:nonzero;fill:rgb(85.000381%,85.000381%,85.000381%);fill-opacity:1;" d="M 203.894531 86.675781 L 203.796875 86.574219 L 203.894531 86.574219 Z M 203.894531 86.675781 "/>
<g clip-path="url(#clip89)" clip-rule="nonzero">
<path style="fill:none;stroke-width:0.2;stroke-linecap:square;stroke-linejoin:miter;stroke:rgb(85.000381%,85.000381%,85.000381%);stroke-opacity:1;stroke-miterlimit:3.25;" d="M 203.894531 86.675781 L 471.257812 86.675781 "/>
</g>
<g clip-path="url(#clip90)" clip-rule="nonzero">
<path style="fill:none;stroke-width:0.2;stroke-linecap:square;stroke-linejoin:miter;stroke:rgb(85.000381%,85.000381%,85.000381%);stroke-opacity:1;stroke-miterlimit:3.25;" d="M 137.054688 193.417969 L 137.054688 19.835938 "/>
<path style="fill:none;stroke-width:0.2;stroke-linecap:square;stroke-linejoin:miter;stroke:rgb(85.000381%,85.000381%,85.000381%);stroke-opacity:1;stroke-miterlimit:3.25;" d="M 137.054688 193.417969 L 137.054688 19.835938 "/>
</g>
<path style=" stroke:none;fill-rule:nonzero;fill:rgb(85.000381%,85.000381%,85.000381%);fill-opacity:1;" d="M 137.054688 19.835938 L 136.953125 19.734375 L 137.054688 19.734375 Z M 137.054688 19.835938 "/>
<g clip-path="url(#clip91)" clip-rule="nonzero">
<path style="fill:none;stroke-width:0.2;stroke-linecap:square;stroke-linejoin:miter;stroke:rgb(85.000381%,85.000381%,85.000381%);stroke-opacity:1;stroke-miterlimit:3.25;" d="M 137.054688 19.835938 L 471.257812 19.835938 "/>
</g>
<path style="fill-rule:nonzero;fill:rgb(100%,100%,86.999313%);fill-opacity:1;stroke-width:1;stroke-linecap:square;stroke-linejoin:miter;stroke:rgb(0%,0%,0%);stroke-opacity:1;stroke-miterlimit:3.25;" d="M 285.75 82.988281 L 285.441406 80.625 L 285.035156 78.296875 L 284.527344 76.011719 L 283.921875 73.769531 L 283.21875 71.578125 L 282.425781 69.4375 L 281.539062 67.355469 L 280.5625 65.332031 L 279.5 63.371094 L 278.351562 61.480469 L 277.125 59.660156 L 275.824219 57.914062 L 274.445312 56.246094 L 272.996094 54.65625 L 271.480469 53.152344 L 269.898438 51.734375 L 268.257812 50.40625 L 266.5625 49.171875 L 264.8125 48.03125 L 263.015625 46.988281 L 261.175781 46.042969 L 259.292969 45.195312 L 257.375 44.457031 L 255.425781 43.820312 L 253.449219 43.289062 L 251.453125 42.867188 L 249.441406 42.558594 L 247.417969 42.359375 L 245.390625 42.277344 L 243.363281 42.308594 L 241.339844 42.453125 L 239.324219 42.707031 L 237.316406 43.078125 L 235.332031 43.558594 L 233.367188 44.144531 L 231.4375 44.839844 L 229.539062 45.636719 L 227.675781 46.535156 L 225.859375 47.53125 L 224.085938 48.628906 L 222.363281 49.820312 L 220.695312 51.105469 L 219.089844 52.484375 L 217.542969 53.945312 L 216.0625 55.496094 L 214.648438 57.125 L 213.3125 58.835938 L 212.046875 60.625 L 210.863281 62.484375 L 209.761719 64.410156 L 208.746094 66.40625 L 207.816406 68.460938 L 206.980469 70.574219 L 206.234375 72.746094 L 205.582031 74.964844 L 205.027344 77.230469 L 204.574219 79.535156 L 204.222656 81.882812 L 204.089844 82.988281 L 203.988281 83.070312 L 203.875 83.15625 L 203.753906 83.246094 L 203.628906 83.339844 L 203.496094 83.433594 L 203.355469 83.527344 L 203.207031 83.628906 L 203.050781 83.726562 L 202.886719 83.828125 L 202.714844 83.933594 L 202.535156 84.035156 L 202.347656 84.140625 L 202.152344 84.246094 L 201.949219 84.355469 L 201.734375 84.460938 L 201.515625 84.566406 L 201.289062 84.671875 L 201.050781 84.78125 L 200.808594 84.886719 L 200.554688 84.988281 L 200.292969 85.09375 L 200.023438 85.195312 L 199.746094 85.296875 L 199.457031 85.394531 L 199.164062 85.492188 L 198.859375 85.585938 L 198.546875 85.679688 L 198.226562 85.769531 L 197.898438 85.855469 L 197.5625 85.941406 L 197.21875 86.019531 L 196.863281 86.097656 L 196.503906 86.171875 L 196.132812 86.238281 L 195.753906 86.304688 L 195.367188 86.367188 L 194.972656 86.421875 L 194.570312 86.472656 L 194.160156 86.515625 L 193.738281 86.558594 L 193.3125 86.59375 L 192.878906 86.621094 L 192.4375 86.644531 L 191.957031 86.660156 L 191.460938 86.671875 L 137.054688 86.675781 L 137.105469 85.566406 L 137.253906 83.207031 L 137.464844 80.878906 L 137.730469 78.578125 L 138.050781 76.3125 L 138.421875 74.082031 L 138.847656 71.886719 L 139.324219 69.734375 L 139.847656 67.617188 L 140.417969 65.542969 L 141.03125 63.511719 L 141.6875 61.523438 L 142.382812 59.582031 L 143.117188 57.6875 L 143.890625 55.84375 L 144.695312 54.046875 L 145.53125 52.300781 L 146.394531 50.605469 L 147.289062 48.964844 L 148.207031 47.375 L 149.144531 45.835938 L 150.105469 44.355469 L 151.082031 42.925781 L 152.070312 41.554688 L 153.074219 40.238281 L 154.089844 38.972656 L 155.105469 37.769531 L 156.125 36.625 L 157.144531 35.539062 L 158.160156 34.507812 L 159.171875 33.535156 L 160.171875 32.617188 L 161.164062 31.753906 L 162.171875 30.921875 L 163.328125 30.019531 L 164.488281 29.15625 L 165.652344 28.335938 L 166.820312 27.558594 L 167.984375 26.824219 L 169.152344 26.128906 L 170.320312 25.472656 L 171.480469 24.859375 L 172.640625 24.285156 L 173.792969 23.75 L 174.9375 23.253906 L 176.078125 22.792969 L 177.207031 22.371094 L 178.324219 21.984375 L 179.433594 21.632812 L 180.527344 21.316406 L 181.609375 21.03125 L 182.679688 20.78125 L 183.730469 20.5625 L 184.769531 20.375 L 185.789062 20.214844 L 186.789062 20.085938 L 187.773438 19.984375 L 188.734375 19.910156 L 189.679688 19.859375 L 298.851562 19.835938 L 299.707031 19.84375 L 300.597656 19.878906 L 301.550781 19.941406 L 302.523438 20.027344 L 303.515625 20.140625 L 304.523438 20.285156 L 305.554688 20.457031 L 306.597656 20.660156 L 307.65625 20.894531 L 308.730469 21.160156 L 309.820312 21.457031 L 310.921875 21.789062 L 312.035156 22.160156 L 313.160156 22.5625 L 314.292969 23.003906 L 315.433594 23.480469 L 316.582031 23.996094 L 317.738281 24.546875 L 318.898438 25.140625 L 320.0625 25.773438 L 321.230469 26.445312 L 322.398438 27.160156 L 323.566406 27.914062 L 324.730469 28.714844 L 325.894531 29.550781 L 327.050781 30.433594 L 328.148438 31.316406 L 329.136719 32.148438 L 330.132812 33.039062 L 331.140625 33.980469 L 332.152344 34.980469 L 333.167969 36.035156 L 334.1875 37.152344 L 335.207031 38.324219 L 336.222656 39.554688 L 337.234375 40.84375 L 338.230469 42.1875 L 339.214844 43.585938 L 340.183594 45.039062 L 341.136719 46.546875 L 342.066406 48.105469 L 342.96875 49.722656 L 343.851562 51.386719 L 344.703125 53.105469 L 345.523438 54.875 L 346.3125 56.695312 L 347.070312 58.5625 L 347.785156 60.480469 L 348.464844 62.441406 L 349.101562 64.449219 L 349.695312 66.5 L 350.242188 68.597656 L 350.746094 70.730469 L 351.195312 72.90625 L 351.597656 75.117188 L 351.945312 77.363281 L 352.242188 79.644531 L 352.480469 81.960938 L 352.664062 84.304688 L 352.785156 86.675781 L 298.851562 86.675781 L 298.09375 86.667969 L 297.714844 86.65625 L 297.355469 86.640625 L 297.015625 86.625 L 296.351562 86.578125 L 296.027344 86.550781 L 295.707031 86.519531 L 295.390625 86.484375 L 295.082031 86.449219 L 294.773438 86.410156 L 294.472656 86.367188 L 294.175781 86.320312 L 293.882812 86.269531 L 293.597656 86.21875 L 293.316406 86.167969 L 293.039062 86.109375 L 292.765625 86.050781 L 292.496094 85.992188 L 292.234375 85.929688 L 291.976562 85.867188 L 291.722656 85.800781 L 291.476562 85.730469 L 291.230469 85.664062 L 290.992188 85.589844 L 290.761719 85.519531 L 290.53125 85.445312 L 290.308594 85.371094 L 290.089844 85.292969 L 289.875 85.21875 L 289.667969 85.140625 L 289.464844 85.058594 L 289.265625 84.980469 L 289.070312 84.902344 L 288.695312 84.738281 L 288.34375 84.574219 L 288.171875 84.496094 L 288.007812 84.414062 L 287.847656 84.332031 L 287.691406 84.25 L 287.542969 84.167969 L 287.398438 84.085938 L 287.253906 84.007812 L 287.117188 83.929688 L 286.988281 83.847656 L 286.859375 83.769531 L 286.738281 83.691406 L 286.617188 83.617188 L 286.503906 83.542969 L 286.394531 83.46875 L 286.289062 83.394531 L 286.1875 83.324219 L 286 83.183594 L 285.828125 83.050781 Z M 285.75 82.988281 "/>
<path style="fill:none;stroke-width:1;stroke-linecap:square;stroke-linejoin:miter;stroke:rgb(0%,0%,0%);stroke-opacity:1;stroke-miterlimit:3.25;" d="M 287.011719 81.429688 L 285.75 82.988281 "/>
<path style="fill:none;stroke-width:1;stroke-linecap:square;stroke-linejoin:miter;stroke:rgb(0%,0%,0%);stroke-opacity:1;stroke-miterlimit:3.25;" d="M 253.582031 41.257812 L 253.140625 43.214844 "/>
<path style="fill:none;stroke-width:1;stroke-linecap:square;stroke-linejoin:miter;stroke:rgb(0%,0%,0%);stroke-opacity:1;stroke-miterlimit:3.25;" d="M 236.257812 41.257812 L 236.699219 43.214844 "/>
<path style="fill:none;stroke-width:1;stroke-linecap:square;stroke-linejoin:miter;stroke:rgb(0%,0%,0%);stroke-opacity:1;stroke-miterlimit:3.25;" d="M 202.828125 81.429688 L 204.089844 82.988281 "/>
<path style="fill:none;stroke-width:1;stroke-linecap:square;stroke-linejoin:miter;stroke:rgb(0%,0%,0%);stroke-opacity:1;stroke-miterlimit:3.25;" d="M 297.621094 84.644531 L 297.542969 86.648438 "/>
<path style="fill:none;stroke-width:1;stroke-linecap:square;stroke-linejoin:miter;stroke:rgb(0%,0%,0%);stroke-opacity:1;stroke-miterlimit:3.25;" d="M 298.851562 84.667969 L 298.851562 86.675781 "/>
<path style="fill:none;stroke-width:1;stroke-linecap:square;stroke-linejoin:miter;stroke:rgb(0%,0%,0%);stroke-opacity:1;stroke-miterlimit:3.25;" d="M 192.21875 84.644531 L 192.296875 86.648438 "/>
<path style="fill:none;stroke-width:1;stroke-linecap:square;stroke-linejoin:miter;stroke:rgb(0%,0%,0%);stroke-opacity:1;stroke-miterlimit:3.25;" d="M 190.988281 84.667969 L 190.988281 86.675781 "/>
<path style="fill:none;stroke-width:1;stroke-linecap:square;stroke-linejoin:miter;stroke:rgb(0%,0%,0%);stroke-opacity:1;stroke-miterlimit:3.25;" d="M 334.507812 40.621094 L 336.066406 39.359375 "/>
<path style="fill:none;stroke-width:1;stroke-linecap:square;stroke-linejoin:miter;stroke:rgb(0%,0%,0%);stroke-opacity:1;stroke-miterlimit:3.25;" d="M 326.582031 32.625 L 327.84375 31.066406 "/>
<path style="fill:none;stroke-width:1;stroke-linecap:square;stroke-linejoin:miter;stroke:rgb(0%,0%,0%);stroke-opacity:1;stroke-miterlimit:3.25;" d="M 300.082031 21.863281 L 300.160156 19.859375 "/>
<path style="fill:none;stroke-width:1;stroke-linecap:square;stroke-linejoin:miter;stroke:rgb(0%,0%,0%);stroke-opacity:1;stroke-miterlimit:3.25;" d="M 298.851562 21.839844 L 298.851562 19.835938 "/>
<path style="fill:none;stroke-width:1;stroke-linecap:square;stroke-linejoin:miter;stroke:rgb(0%,0%,0%);stroke-opacity:1;stroke-miterlimit:3.25;" d="M 155.332031 40.621094 L 153.773438 39.359375 "/>
<path style="fill:none;stroke-width:1;stroke-linecap:square;stroke-linejoin:miter;stroke:rgb(0%,0%,0%);stroke-opacity:1;stroke-miterlimit:3.25;" d="M 163.257812 32.625 L 161.996094 31.066406 "/>
<path style="fill:none;stroke-width:1;stroke-linecap:square;stroke-linejoin:miter;stroke:rgb(0%,0%,0%);stroke-opacity:1;stroke-miterlimit:3.25;" d="M 189.757812 21.863281 L 189.679688 19.859375 "/>
<path style="fill:none;stroke-width:1;stroke-linecap:square;stroke-linejoin:miter;stroke:rgb(0%,0%,0%);stroke-opacity:1;stroke-miterlimit:3.25;" d="M 190.988281 21.839844 L 190.988281 19.835938 "/>
<path style="fill:none;stroke-width:1;stroke-linecap:square;stroke-linejoin:miter;stroke:rgb(0%,0%,0%);stroke-opacity:1;stroke-miterlimit:3.25;" d="M 351.367188 85.257812 L 352.785156 86.675781 "/>
<path style="fill:none;stroke-width:1;stroke-linecap:square;stroke-linejoin:miter;stroke:rgb(0%,0%,0%);stroke-opacity:1;stroke-miterlimit:3.25;" d="M 138.472656 85.257812 L 137.054688 86.675781 "/>
<path style="fill:none;stroke-width:1;stroke-linecap:square;stroke-linejoin:miter;stroke:rgb(100%,0%,0%);stroke-opacity:1;stroke-miterlimit:3.25;" d="M 204.089844 82.988281 L 203.988281 83.070312 L 203.875 83.15625 L 203.753906 83.246094 L 203.628906 83.339844 L 203.496094 83.433594 L 203.355469 83.527344 L 203.207031 83.628906 L 203.050781 83.726562 L 202.886719 83.828125 L 202.714844 83.933594 L 202.535156 84.035156 L 202.347656 84.140625 L 202.152344 84.246094 L 201.949219 84.355469 L 201.734375 84.460938 L 201.515625 84.566406 L 201.289062 84.671875 L 201.050781 84.78125 L 200.808594 84.886719 L 200.554688 84.988281 L 200.292969 85.09375 L 200.023438 85.195312 L 199.746094 85.296875 L 199.457031 85.394531 L 199.164062 85.492188 L 198.859375 85.585938 L 198.546875 85.679688 L 198.226562 85.769531 L 197.898438 85.855469 L 197.5625 85.941406 L 197.21875 86.019531 L 196.863281 86.097656 L 196.503906 86.171875 L 196.132812 86.238281 L 195.753906 86.304688 L 195.367188 86.367188 L 194.972656 86.421875 L 194.570312 86.472656 L 194.160156 86.515625 L 193.738281 86.558594 L 193.3125 86.59375 L 192.878906 86.621094 L 192.4375 86.644531 L 191.957031 86.660156 L 191.460938 86.671875 "/>
<path style="fill:none;stroke-width:1;stroke-linecap:square;stroke-linejoin:miter;stroke:rgb(100%,0%,0%);stroke-opacity:1;stroke-miterlimit:3.25;" d="M 298.851562 86.675781 L 298.09375 86.667969 L 297.714844 86.65625 L 297.355469 86.640625 L 297.015625 86.625 L 296.351562 86.578125 L 296.027344 86.550781 L 295.707031 86.519531 L 295.390625 86.484375 L 295.082031 86.449219 L 294.773438 86.410156 L 294.472656 86.367188 L 294.175781 86.320312 L 293.882812 86.269531 L 293.597656 86.21875 L 293.316406 86.167969 L 293.039062 86.109375 L 292.765625 86.050781 L 292.496094 85.992188 L 292.234375 85.929688 L 291.976562 85.867188 L 291.722656 85.800781 L 291.476562 85.730469 L 291.230469 85.664062 L 290.992188 85.589844 L 290.761719 85.519531 L 290.53125 85.445312 L 290.308594 85.371094 L 290.089844 85.292969 L 289.875 85.21875 L 289.667969 85.140625 L 289.464844 85.058594 L 289.265625 84.980469 L 289.070312 84.902344 L 288.695312 84.738281 L 288.34375 84.574219 L 288.171875 84.496094 L 288.007812 84.414062 L 287.847656 84.332031 L 287.691406 84.25 L 287.542969 84.167969 L 287.398438 84.085938 L 287.253906 84.007812 L 287.117188 83.929688 L 286.988281 83.847656 L 286.859375 83.769531 L 286.738281 83.691406 L 286.617188 83.617188 L 286.503906 83.542969 L 286.394531 83.46875 L 286.289062 83.394531 L 286.1875 83.324219 L 286 83.183594 L 285.828125 83.050781 L 285.75 82.988281 "/>
<path style="fill:none;stroke-width:1;stroke-linecap:butt;stroke-linejoin:miter;stroke:rgb(0%,0%,100%);stroke-opacity:1;stroke-dasharray:0.827664;stroke-miterlimit:3.25;" d="M 285.945312 86.675781 L 285.945312 86.367188 L 285.941406 86.304688 L 285.941406 86.117188 L 285.9375 86.054688 L 285.9375 85.871094 L 285.933594 85.808594 L 285.933594 85.746094 L 285.929688 85.683594 L 285.929688 85.625 L 285.925781 85.5625 L 285.925781 85.5 L 285.921875 85.4375 L 285.921875 85.375 L 285.917969 85.316406 L 285.914062 85.253906 L 285.914062 85.191406 L 285.90625 85.066406 L 285.90625 85.007812 L 285.894531 84.820312 L 285.890625 84.761719 L 285.890625 84.699219 L 285.886719 84.636719 L 285.882812 84.578125 L 285.871094 84.390625 L 285.867188 84.332031 L 285.859375 84.207031 L 285.851562 84.148438 L 285.84375 84.023438 L 285.839844 83.964844 L 285.835938 83.902344 L 285.828125 83.839844 L 285.824219 83.78125 L 285.820312 83.71875 L 285.8125 83.65625 L 285.808594 83.597656 L 285.804688 83.535156 L 285.796875 83.472656 L 285.792969 83.414062 L 285.785156 83.351562 L 285.78125 83.289062 L 285.773438 83.230469 L 285.769531 83.167969 L 285.761719 83.109375 L 285.753906 83.046875 L 285.75 82.988281 "/>
<path style="fill:none;stroke-width:1;stroke-linecap:butt;stroke-linejoin:miter;stroke:rgb(0%,0%,100%);stroke-opacity:1;stroke-dasharray:0.827664;stroke-miterlimit:3.25;" d="M 204.089844 82.988281 L 204.085938 83.046875 L 204.078125 83.109375 L 204.074219 83.167969 L 204.066406 83.230469 L 204.058594 83.289062 L 204.054688 83.351562 L 204.046875 83.414062 L 204.042969 83.472656 L 204.039062 83.535156 L 204.03125 83.597656 L 204.027344 83.65625 L 204.019531 83.71875 L 204.015625 83.78125 L 204.011719 83.839844 L 204.007812 83.902344 L 204 83.964844 L 203.996094 84.023438 L 203.988281 84.148438 L 203.984375 84.207031 L 203.980469 84.269531 L 203.972656 84.332031 L 203.96875 84.390625 L 203.957031 84.578125 L 203.957031 84.636719 L 203.949219 84.761719 L 203.945312 84.820312 L 203.9375 84.945312 L 203.9375 85.007812 L 203.933594 85.066406 L 203.925781 85.191406 L 203.925781 85.253906 L 203.921875 85.316406 L 203.917969 85.375 L 203.917969 85.4375 L 203.914062 85.5 L 203.914062 85.5625 L 203.910156 85.625 L 203.910156 85.683594 L 203.90625 85.746094 L 203.90625 85.871094 L 203.902344 85.933594 L 203.902344 86.054688 L 203.898438 86.117188 L 203.898438 86.425781 L 203.894531 86.488281 L 203.894531 86.675781 "/>
<path style="fill:none;stroke-width:1;stroke-linecap:square;stroke-linejoin:miter;stroke:rgb(0%,0%,100%);stroke-opacity:1;stroke-miterlimit:3.25;" d="M 285.75 82.988281 L 285.441406 80.625 L 285.035156 78.296875 L 284.527344 76.011719 L 283.921875 73.769531 L 283.21875 71.578125 L 282.425781 69.4375 L 281.539062 67.355469 L 280.5625 65.332031 L 279.5 63.371094 L 278.351562 61.480469 L 277.125 59.660156 L 275.824219 57.914062 L 274.445312 56.246094 L 272.996094 54.65625 L 271.480469 53.152344 L 269.898438 51.734375 L 268.257812 50.40625 L 266.5625 49.171875 L 264.8125 48.03125 L 263.015625 46.988281 L 261.175781 46.042969 L 259.292969 45.195312 L 257.375 44.457031 L 255.425781 43.820312 L 253.449219 43.289062 L 251.453125 42.867188 L 249.441406 42.558594 L 247.417969 42.359375 L 245.390625 42.277344 L 243.363281 42.308594 L 241.339844 42.453125 L 239.324219 42.707031 L 237.316406 43.078125 L 235.332031 43.558594 L 233.367188 44.144531 L 231.4375 44.839844 L 229.539062 45.636719 L 227.675781 46.535156 L 225.859375 47.53125 L 224.085938 48.628906 L 222.363281 49.820312 L 220.695312 51.105469 L 219.089844 52.484375 L 217.542969 53.945312 L 216.0625 55.496094 L 214.648438 57.125 L 213.3125 58.835938 L 212.046875 60.625 L 210.863281 62.484375 L 209.761719 64.410156 L 208.746094 66.40625 L 207.816406 68.460938 L 206.980469 70.574219 L 206.234375 72.746094 L 205.582031 74.964844 L 205.027344 77.230469 L 204.574219 79.535156 L 204.222656 81.882812 "/>
<path style=" stroke:none;fill-rule:evenodd;fill:rgb(0%,0%,100%);fill-opacity:1;" d="M 267.25 48 C 267.25 47.402344 267.011719 46.832031 266.589844 46.410156 C 266.167969 45.988281 265.597656 45.75 265 45.75 C 264.402344 45.75 263.832031 45.988281 263.410156 46.410156 C 262.988281 46.832031 262.75 47.402344 262.75 48 C 262.75 48.597656 262.988281 49.167969 263.410156 49.589844 C 263.832031 50.011719 264.402344 50.25 265 50.25 C 265.597656 50.25 266.167969 50.011719 266.589844 49.589844 C 267.011719 49.167969 267.25 48.597656 267.25 48 Z M 267.25 48 "/>
<path style=" stroke:none;fill-rule:evenodd;fill:rgb(0%,0%,0%);fill-opacity:1;" d="M 272.164062 43.296875 L 272.164062 42.824219 L 271.398438 42.824219 L 269.546875 40.589844 L 270.816406 39.132812 C 270.9375 38.992188 271.035156 38.902344 271.945312 38.902344 L 271.945312 38.433594 L 270.9375 38.457031 C 270.621094 38.457031 270.148438 38.457031 269.839844 38.433594 L 269.839844 38.902344 C 270.050781 38.902344 270.28125 38.957031 270.28125 39.035156 C 270.28125 39.035156 270.226562 39.132812 270.203125 39.15625 L 269.25 40.230469 L 268.167969 38.902344 L 268.625 38.902344 L 268.625 38.433594 C 268.375 38.457031 267.628906 38.457031 267.335938 38.457031 C 267.003906 38.457031 266.414062 38.457031 266.105469 38.433594 L 266.105469 38.902344 L 266.882812 38.902344 L 268.59375 40.984375 L 267.167969 42.597656 C 267.039062 42.75 266.960938 42.824219 266.050781 42.824219 L 266.050781 43.296875 L 267.070312 43.277344 C 267.390625 43.277344 267.847656 43.277344 268.15625 43.296875 L 268.15625 42.824219 C 267.945312 42.824219 267.71875 42.769531 267.71875 42.695312 C 267.71875 42.695312 267.71875 42.671875 267.792969 42.585938 L 268.890625 41.347656 L 270.105469 42.824219 L 269.644531 42.824219 L 269.644531 43.296875 C 269.910156 43.277344 270.640625 43.277344 270.949219 43.277344 C 271.277344 43.277344 271.859375 43.277344 272.164062 43.296875 Z M 272.164062 43.296875 "/>
<path style=" stroke:none;fill-rule:evenodd;fill:rgb(0%,0%,0%);fill-opacity:1;" d="M 278.230469 42.894531 C 278.230469 42.820312 278.175781 42.78125 278.113281 42.78125 C 278.0625 42.78125 277.96875 42.804688 277.226562 42.804688 C 277.035156 42.804688 276.773438 42.804688 276.65625 42.796875 C 276.542969 42.789062 276.234375 42.78125 276.121094 42.78125 C 276.074219 42.78125 275.957031 42.78125 275.957031 42.925781 C 275.957031 43.035156 276.042969 43.035156 276.242188 43.035156 C 276.402344 43.035156 276.695312 43.035156 276.878906 43.101562 C 276.886719 43.117188 276.894531 43.164062 276.894531 43.195312 C 276.894531 43.234375 276.847656 43.402344 276.824219 43.5 C 276.78125 43.699219 276.695312 44.023438 276.664062 44.097656 C 276.417969 44.613281 275.675781 44.804688 275.144531 44.804688 C 274.386719 44.804688 273.496094 44.40625 273.496094 43.15625 C 273.496094 42.519531 273.757812 41.414062 274.433594 40.679688 C 275.167969 39.878906 275.996094 39.75 276.394531 39.75 C 277.332031 39.75 277.761719 40.488281 277.761719 41.261719 C 277.761719 41.371094 277.730469 41.507812 277.730469 41.597656 C 277.730469 41.699219 277.832031 41.699219 277.863281 41.699219 C 277.960938 41.699219 277.976562 41.667969 278.007812 41.53125 L 278.46875 39.703125 C 278.476562 39.675781 278.492188 39.628906 278.492188 39.589844 C 278.492188 39.535156 278.445312 39.496094 278.390625 39.496094 C 278.335938 39.496094 278.316406 39.519531 278.253906 39.589844 L 277.714844 40.179688 C 277.363281 39.6875 276.863281 39.496094 276.34375 39.496094 C 274.546875 39.496094 272.761719 41.152344 272.761719 42.910156 C 272.761719 44.191406 273.710938 45.058594 275.015625 45.058594 C 275.84375 45.058594 276.457031 44.761719 276.742188 44.429688 C 276.832031 44.675781 277.019531 44.890625 277.09375 44.890625 C 277.125 44.890625 277.164062 44.875 277.179688 44.84375 C 277.226562 44.714844 277.410156 43.929688 277.464844 43.714844 C 277.53125 43.410156 277.585938 43.195312 277.632812 43.132812 C 277.699219 43.042969 277.847656 43.035156 278.074219 43.035156 C 278.113281 43.035156 278.230469 43.035156 278.230469 42.894531 Z M 278.230469 42.894531 "/>
<path style=" stroke:none;fill-rule:evenodd;fill:rgb(0%,0%,0%);fill-opacity:1;" d="M 282.816406 45.960938 C 282.816406 45.925781 282.816406 45.90625 282.628906 45.71875 C 281.535156 44.613281 280.917969 42.804688 280.917969 40.570312 C 280.917969 38.445312 281.433594 36.617188 282.707031 35.320312 C 282.816406 35.222656 282.816406 35.203125 282.816406 35.167969 C 282.816406 35.101562 282.761719 35.082031 282.714844 35.082031 C 282.574219 35.082031 281.675781 35.871094 281.136719 36.945312 C 280.578125 38.050781 280.328125 39.222656 280.328125 40.570312 C 280.328125 41.542969 280.480469 42.847656 281.050781 44.019531 C 281.699219 45.335938 282.597656 46.046875 282.714844 46.046875 C 282.761719 46.046875 282.816406 46.027344 282.816406 45.960938 Z M 282.816406 45.960938 "/>
<path style=" stroke:none;fill-rule:evenodd;fill:rgb(0%,0%,0%);fill-opacity:1;" d="M 286.683594 41.730469 C 286.683594 41.664062 286.640625 41.632812 286.574219 41.632812 C 286.574219 41.632812 286.511719 41.632812 286.488281 41.675781 C 286.488281 41.675781 286.464844 41.699219 286.386719 41.871094 C 286.160156 42.421875 285.65625 43.1875 285.019531 43.1875 C 284.691406 43.1875 284.667969 42.914062 284.667969 42.671875 C 284.667969 42.671875 284.667969 42.453125 284.699219 42.324219 L 285.554688 38.894531 L 286.566406 38.894531 C 286.773438 38.894531 286.882812 38.894531 286.882812 38.695312 C 286.882812 38.574219 286.816406 38.574219 286.597656 38.574219 L 285.632812 38.574219 L 286.039062 36.976562 C 286.082031 36.824219 286.082031 36.800781 286.082031 36.726562 C 286.082031 36.546875 285.941406 36.449219 285.796875 36.449219 C 285.710938 36.449219 285.457031 36.484375 285.371094 36.832031 L 284.941406 38.574219 L 283.914062 38.574219 C 283.691406 38.574219 283.59375 38.574219 283.59375 38.785156 C 283.59375 38.894531 283.671875 38.894531 283.878906 38.894531 L 284.855469 38.894531 L 284.132812 41.785156 C 284.042969 42.167969 284.011719 42.277344 284.011719 42.421875 C 284.011719 42.9375 284.371094 43.40625 284.988281 43.40625 C 286.09375 43.40625 286.683594 41.808594 286.683594 41.730469 Z M 286.683594 41.730469 "/>
<path style=" stroke:none;fill-rule:evenodd;fill:rgb(0%,0%,0%);fill-opacity:1;" d="M 290.34375 40.570312 C 290.34375 39.738281 290.234375 38.378906 289.621094 37.109375 C 288.972656 35.792969 288.074219 35.082031 287.957031 35.082031 C 287.910156 35.082031 287.855469 35.101562 287.855469 35.167969 C 287.855469 35.203125 287.855469 35.222656 288.042969 35.410156 C 289.136719 36.515625 289.753906 38.324219 289.753906 40.558594 C 289.753906 42.683594 289.238281 44.511719 287.964844 45.808594 C 287.855469 45.90625 287.855469 45.925781 287.855469 45.960938 C 287.855469 46.027344 287.910156 46.046875 287.957031 46.046875 C 288.097656 46.046875 288.996094 45.257812 289.535156 44.183594 C 290.089844 43.066406 290.34375 41.882812 290.34375 40.570312 Z M 290.34375 40.570312 "/>
<g clip-path="url(#clip92)" clip-rule="nonzero">
<path style="fill:none;stroke-width:1;stroke-linecap:square;stroke-linejoin:miter;stroke:rgb(0%,0%,0%);stroke-opacity:1;stroke-miterlimit:3.25;" d="M -159.007812 86.675781 L 668.769531 86.675781 "/>
<path style="fill:none;stroke-width:1;stroke-linecap:square;stroke-linejoin:miter;stroke:rgb(0%,0%,0%);stroke-opacity:1;stroke-miterlimit:3.25;" d="M -159.007812 86.675781 L 668.769531 86.675781 "/>
</g>
<path style=" stroke:none;fill-rule:evenodd;fill:rgb(0%,0%,0%);fill-opacity:1;" d="M 365.542969 77.65625 C 365.554688 77.601562 365.574219 77.535156 365.574219 77.46875 C 365.574219 77.304688 365.445312 77.195312 365.277344 77.195312 C 365.179688 77.195312 364.949219 77.238281 364.863281 77.566406 L 364.050781 80.789062 C 363.996094 80.984375 363.996094 81.007812 363.910156 81.128906 C 363.691406 81.433594 363.328125 81.808594 362.804688 81.808594 C 362.1875 81.808594 362.132812 81.203125 362.132812 80.910156 C 362.132812 80.285156 362.429688 79.441406 362.726562 78.652344 C 362.847656 78.335938 362.914062 78.179688 362.914062 77.960938 C 362.914062 77.5 362.582031 77.085938 362.046875 77.085938 C 361.039062 77.085938 360.632812 78.671875 360.632812 78.761719 C 360.632812 78.804688 360.675781 78.859375 360.753906 78.859375 C 360.855469 78.859375 360.863281 78.816406 360.910156 78.660156 C 361.171875 77.742188 361.585938 77.304688 362.015625 77.304688 C 362.113281 77.304688 362.296875 77.304688 362.296875 77.664062 C 362.296875 77.953125 362.179688 78.269531 362.015625 78.683594 C 361.476562 80.121094 361.476562 80.480469 361.476562 80.746094 C 361.476562 81.785156 362.222656 82.027344 362.769531 82.027344 C 363.085938 82.027344 363.480469 81.925781 363.867188 81.523438 L 363.875 81.535156 C 363.710938 82.179688 363.601562 82.605469 363.21875 83.144531 C 362.921875 83.558594 362.496094 83.933594 361.960938 83.933594 C 361.828125 83.933594 361.300781 83.910156 361.136719 83.40625 C 361.171875 83.417969 361.246094 83.417969 361.246094 83.417969 C 361.574219 83.417969 361.796875 83.132812 361.796875 82.878906 C 361.796875 82.628906 361.585938 82.542969 361.421875 82.542969 C 361.246094 82.542969 360.863281 82.671875 360.863281 83.207031 C 360.863281 83.769531 361.335938 84.152344 361.960938 84.152344 C 363.054688 84.152344 364.160156 83.144531 364.46875 81.925781 Z M 365.542969 77.65625 "/>
<path style=" stroke:none;fill-rule:evenodd;fill:rgb(0%,0%,0%);fill-opacity:1;" d="M 376.785156 78.171875 C 376.785156 77.960938 376.597656 77.960938 376.433594 77.960938 L 369.980469 77.960938 C 369.828125 77.960938 369.628906 77.960938 369.628906 78.160156 C 369.628906 78.367188 369.816406 78.367188 369.980469 78.367188 L 376.433594 78.367188 C 376.585938 78.367188 376.785156 78.367188 376.785156 78.171875 Z M 376.785156 80.207031 C 376.785156 80 376.597656 80 376.433594 80 L 369.980469 80 C 369.828125 80 369.628906 80 369.628906 80.195312 C 369.628906 80.402344 369.816406 80.402344 369.980469 80.402344 L 376.433594 80.402344 C 376.585938 80.402344 376.785156 80.402344 376.785156 80.207031 Z M 376.785156 80.207031 "/>
<path style=" stroke:none;fill-rule:evenodd;fill:rgb(0%,0%,0%);fill-opacity:1;" d="M 385.34375 78.410156 C 385.34375 77.5 385.289062 76.613281 384.894531 75.78125 C 384.445312 74.871094 383.65625 74.632812 383.121094 74.632812 C 382.484375 74.632812 381.707031 74.949219 381.300781 75.859375 C 380.996094 76.546875 380.882812 77.226562 380.882812 78.410156 C 380.882812 79.472656 380.960938 80.273438 381.355469 81.050781 C 381.78125 81.882812 382.539062 82.144531 383.109375 82.144531 C 384.0625 82.144531 384.609375 81.578125 384.929688 80.941406 C 385.320312 80.121094 385.34375 79.046875 385.34375 78.410156 Z M 384.511719 78.28125 C 384.511719 79.011719 384.511719 79.847656 384.390625 80.511719 C 384.183594 81.71875 383.492188 81.925781 383.109375 81.925781 C 382.757812 81.925781 382.046875 81.730469 381.839844 80.535156 C 381.71875 79.878906 381.71875 79.046875 381.71875 78.28125 C 381.71875 77.382812 381.71875 76.570312 381.894531 75.921875 C 382.078125 75.191406 382.636719 74.851562 383.109375 74.851562 C 383.523438 74.851562 384.160156 75.101562 384.367188 76.042969 C 384.511719 76.667969 384.511719 77.535156 384.511719 78.28125 Z M 384.511719 78.28125 "/>
<g clip-path="url(#clip93)" clip-rule="nonzero">
<path style="fill:none;stroke-width:1;stroke-linecap:square;stroke-linejoin:miter;stroke:rgb(0%,0%,0%);stroke-opacity:1;stroke-miterlimit:3.25;" d="M -159.007812 19.835938 L 668.769531 19.835938 "/>
<path style="fill:none;stroke-width:1;stroke-linecap:square;stroke-linejoin:miter;stroke:rgb(0%,0%,0%);stroke-opacity:1;stroke-miterlimit:3.25;" d="M -159.007812 19.835938 L 668.769531 19.835938 "/>
</g>
<path style=" stroke:none;fill-rule:evenodd;fill:rgb(0%,0%,0%);fill-opacity:1;" d="M 365.542969 10.8125 C 365.554688 10.757812 365.574219 10.691406 365.574219 10.628906 C 365.574219 10.464844 365.445312 10.355469 365.277344 10.355469 C 365.179688 10.355469 364.949219 10.398438 364.863281 10.726562 L 364.050781 13.949219 C 363.996094 14.144531 363.996094 14.167969 363.910156 14.285156 C 363.691406 14.59375 363.328125 14.964844 362.804688 14.964844 C 362.1875 14.964844 362.132812 14.363281 362.132812 14.066406 C 362.132812 13.441406 362.429688 12.597656 362.726562 11.808594 C 362.847656 11.492188 362.914062 11.339844 362.914062 11.121094 C 362.914062 10.660156 362.582031 10.246094 362.046875 10.246094 C 361.039062 10.246094 360.632812 11.832031 360.632812 11.917969 C 360.632812 11.964844 360.675781 12.019531 360.753906 12.019531 C 360.855469 12.019531 360.863281 11.976562 360.910156 11.820312 C 361.171875 10.902344 361.585938 10.464844 362.015625 10.464844 C 362.113281 10.464844 362.296875 10.464844 362.296875 10.824219 C 362.296875 11.109375 362.179688 11.425781 362.015625 11.84375 C 361.476562 13.277344 361.476562 13.640625 361.476562 13.902344 C 361.476562 14.945312 362.222656 15.183594 362.769531 15.183594 C 363.085938 15.183594 363.480469 15.085938 363.867188 14.683594 L 363.875 14.691406 C 363.710938 15.339844 363.601562 15.765625 363.21875 16.300781 C 362.921875 16.71875 362.496094 17.089844 361.960938 17.089844 C 361.828125 17.089844 361.300781 17.070312 361.136719 16.566406 C 361.171875 16.578125 361.246094 16.578125 361.246094 16.578125 C 361.574219 16.578125 361.796875 16.289062 361.796875 16.039062 C 361.796875 15.789062 361.585938 15.699219 361.421875 15.699219 C 361.246094 15.699219 360.863281 15.832031 360.863281 16.367188 C 360.863281 16.925781 361.335938 17.308594 361.960938 17.308594 C 363.054688 17.308594 364.160156 16.300781 364.46875 15.085938 Z M 365.542969 10.8125 "/>
<path style=" stroke:none;fill-rule:evenodd;fill:rgb(0%,0%,0%);fill-opacity:1;" d="M 376.785156 11.328125 C 376.785156 11.121094 376.597656 11.121094 376.433594 11.121094 L 369.980469 11.121094 C 369.828125 11.121094 369.628906 11.121094 369.628906 11.316406 C 369.628906 11.527344 369.816406 11.527344 369.980469 11.527344 L 376.433594 11.527344 C 376.585938 11.527344 376.785156 11.527344 376.785156 11.328125 Z M 376.785156 13.367188 C 376.785156 13.160156 376.597656 13.160156 376.433594 13.160156 L 369.980469 13.160156 C 369.828125 13.160156 369.628906 13.160156 369.628906 13.355469 C 369.628906 13.5625 369.816406 13.5625 369.980469 13.5625 L 376.433594 13.5625 C 376.585938 13.5625 376.785156 13.5625 376.785156 13.367188 Z M 376.785156 13.367188 "/>
<path style=" stroke:none;fill-rule:evenodd;fill:rgb(0%,0%,0%);fill-opacity:1;" d="M 384.929688 15.074219 L 384.929688 14.757812 L 384.589844 14.757812 C 383.625 14.757812 383.59375 14.628906 383.59375 14.230469 L 383.59375 8.054688 C 383.59375 7.800781 383.59375 7.789062 383.371094 7.789062 C 383.109375 8.085938 382.5625 8.492188 381.433594 8.492188 L 381.433594 8.808594 C 381.683594 8.808594 382.234375 8.808594 382.835938 8.523438 L 382.835938 14.230469 C 382.835938 14.628906 382.804688 14.757812 381.839844 14.757812 L 381.5 14.757812 L 381.5 15.074219 C 381.796875 15.054688 382.859375 15.054688 383.21875 15.054688 C 383.578125 15.054688 384.632812 15.054688 384.929688 15.074219 Z M 384.929688 15.074219 "/>
</g>
</svg>
