<?xml version="1.0" encoding="UTF-8"?>
<svg xmlns="http://www.w3.org/2000/svg" xmlns:xlink="http://www.w3.org/1999/xlink" width="227pt" height="81pt" viewBox="0 0 227 81" version="1.1">
<defs>
<clipPath id="clip1">
  <path d="M 140 69 L 141 69 L 141 80.878906 L 140 80.878906 Z M 140 69 "/>
</clipPath>
<clipPath id="clip2">
  <path d="M 140 69 L 141 69 L 141 80.878906 L 140 80.878906 Z M 140 69 "/>
</clipPath>
<clipPath id="clip3">
  <path d="M 197 11 L 199 11 L 199 80.878906 L 197 80.878906 Z M 197 11 "/>
</clipPath>
<clipPath id="clip4">
  <path d="M 197 11 L 199 11 L 199 80.878906 L 197 80.878906 Z M 197 11 "/>
</clipPath>
<clipPath id="clip5">
  <path d="M 0 61 L 141 61 L 141 80.878906 L 0 80.878906 Z M 0 61 "/>
</clipPath>
<clipPath id="clip6">
  <path d="M 138 61 L 149 61 L 149 80.878906 L 138 80.878906 Z M 138 61 "/>
</clipPath>
<clipPath id="clip7">
  <path d="M 138 61 L 149 61 L 149 80.878906 L 138 80.878906 Z M 138 61 "/>
</clipPath>
<clipPath id="clip8">
  <path d="M 191 0 L 207 0 L 207 80.878906 L 191 80.878906 Z M 191 0 "/>
</clipPath>
<clipPath id="clip9">
  <path d="M 0 54 L 139 54 L 139 80.878906 L 0 80.878906 Z M 0 54 "/>
</clipPath>
<clipPath id="clip10">
  <path d="M 136 54 L 158 54 L 158 80.878906 L 136 80.878906 Z M 136 54 "/>
</clipPath>
<clipPath id="clip11">
  <path d="M 136 54 L 158 54 L 158 80.878906 L 136 80.878906 Z M 136 54 "/>
</clipPath>
<clipPath id="clip12">
  <path d="M 183 0 L 216 0 L 216 80.878906 L 183 80.878906 Z M 183 0 "/>
</clipPath>
<clipPath id="clip13">
  <path d="M 0 48 L 136 48 L 136 80.878906 L 0 80.878906 Z M 0 48 "/>
</clipPath>
<clipPath id="clip14">
  <path d="M 134 48 L 166 48 L 166 80.878906 L 134 80.878906 Z M 134 48 "/>
</clipPath>
<clipPath id="clip15">
  <path d="M 134 48 L 166 48 L 166 80.878906 L 134 80.878906 Z M 134 48 "/>
</clipPath>
<clipPath id="clip16">
  <path d="M 174 0 L 226 0 L 226 80.878906 L 174 80.878906 Z M 174 0 "/>
</clipPath>
<clipPath id="clip17">
  <path d="M 0 43 L 133 43 L 133 80.878906 L 0 80.878906 Z M 0 43 "/>
</clipPath>
<clipPath id="clip18">
  <path d="M 130 43 L 175 43 L 175 80.878906 L 130 80.878906 Z M 130 43 "/>
</clipPath>
<clipPath id="clip19">
  <path d="M 130 43 L 175 43 L 175 80.878906 L 130 80.878906 Z M 130 43 "/>
</clipPath>
<clipPath id="clip20">
  <path d="M 165 0 L 226.800781 0 L 226.800781 80.878906 L 165 80.878906 Z M 165 0 "/>
</clipPath>
<clipPath id="clip21">
  <path d="M 0 38 L 128 38 L 128 80.878906 L 0 80.878906 Z M 0 38 "/>
</clipPath>
<clipPath id="clip22">
  <path d="M 126 38 L 185 38 L 185 80.878906 L 126 80.878906 Z M 126 38 "/>
</clipPath>
<clipPath id="clip23">
  <path d="M 126 38 L 185 38 L 185 80.878906 L 126 80.878906 Z M 126 38 "/>
</clipPath>
<clipPath id="clip24">
  <path d="M 0 0 L 156 0 L 156 80.878906 L 0 80.878906 Z M 0 0 "/>
</clipPath>
<clipPath id="clip25">
  <path d="M 154 0 L 226.800781 0 L 226.800781 80.878906 L 154 80.878906 Z M 154 0 "/>
</clipPath>
<clipPath id="clip26">
  <path d="M 0 35 L 123 35 L 123 80.878906 L 0 80.878906 Z M 0 35 "/>
</clipPath>
<clipPath id="clip27">
  <path d="M 121 35 L 196 35 L 196 80.878906 L 121 80.878906 Z M 121 35 "/>
</clipPath>
<clipPath id="clip28">
  <path d="M 121 35 L 196 35 L 196 80.878906 L 121 80.878906 Z M 121 35 "/>
</clipPath>
<clipPath id="clip29">
  <path d="M 0 0 L 144 0 L 144 80.878906 L 0 80.878906 Z M 0 0 "/>
</clipPath>
<clipPath id="clip30">
  <path d="M 142 0 L 226.800781 0 L 226.800781 80.878906 L 142 80.878906 Z M 142 0 "/>
</clipPath>
<clipPath id="clip31">
  <path d="M 0 32 L 118 32 L 118 80.878906 L 0 80.878906 Z M 0 32 "/>
</clipPath>
<clipPath id="clip32">
  <path d="M 115 32 L 208 32 L 208 80.878906 L 115 80.878906 Z M 115 32 "/>
</clipPath>
<clipPath id="clip33">
  <path d="M 0 0 L 132 0 L 132 80.878906 L 0 80.878906 Z M 0 0 "/>
</clipPath>
<clipPath id="clip34">
  <path d="M 129 0 L 226.800781 0 L 226.800781 80.878906 L 129 80.878906 Z M 129 0 "/>
</clipPath>
<clipPath id="clip35">
  <path d="M 0 30 L 112 30 L 112 80.878906 L 0 80.878906 Z M 0 30 "/>
</clipPath>
<clipPath id="clip36">
  <path d="M 109 30 L 221 30 L 221 80.878906 L 109 80.878906 Z M 109 30 "/>
</clipPath>
<clipPath id="clip37">
  <path d="M 0 0 L 119 0 L 119 80.878906 L 0 80.878906 Z M 0 0 "/>
</clipPath>
<clipPath id="clip38">
  <path d="M 117 0 L 226.800781 0 L 226.800781 80.878906 L 117 80.878906 Z M 117 0 "/>
</clipPath>
<clipPath id="clip39">
  <path d="M 0 30 L 106 30 L 106 80.878906 L 0 80.878906 Z M 0 30 "/>
</clipPath>
<clipPath id="clip40">
  <path d="M 103 30 L 226.800781 30 L 226.800781 80.878906 L 103 80.878906 Z M 103 30 "/>
</clipPath>
<clipPath id="clip41">
  <path d="M 0 0 L 226.800781 0 L 226.800781 80.878906 L 0 80.878906 Z M 0 0 "/>
</clipPath>
<clipPath id="clip42">
  <path d="M 0 30 L 100 30 L 100 80.878906 L 0 80.878906 Z M 0 30 "/>
</clipPath>
<clipPath id="clip43">
  <path d="M 97 30 L 226.800781 30 L 226.800781 80.878906 L 97 80.878906 Z M 97 30 "/>
</clipPath>
<clipPath id="clip44">
  <path d="M 0 0 L 93 0 L 93 80.878906 L 0 80.878906 Z M 0 0 "/>
</clipPath>
<clipPath id="clip45">
  <path d="M 90 0 L 226.800781 0 L 226.800781 80.878906 L 90 80.878906 Z M 90 0 "/>
</clipPath>
<clipPath id="clip46">
  <path d="M 2 32 L 94 32 L 94 80.878906 L 2 80.878906 Z M 2 32 "/>
</clipPath>
<clipPath id="clip47">
  <path d="M 92 32 L 226.800781 32 L 226.800781 80.878906 L 92 80.878906 Z M 92 32 "/>
</clipPath>
<clipPath id="clip48">
  <path d="M 0 0 L 80 0 L 80 80.878906 L 0 80.878906 Z M 0 0 "/>
</clipPath>
<clipPath id="clip49">
  <path d="M 78 0 L 226.800781 0 L 226.800781 80.878906 L 78 80.878906 Z M 78 0 "/>
</clipPath>
<clipPath id="clip50">
  <path d="M 14 35 L 89 35 L 89 80.878906 L 14 80.878906 Z M 14 35 "/>
</clipPath>
<clipPath id="clip51">
  <path d="M 86 35 L 226.800781 35 L 226.800781 80.878906 L 86 80.878906 Z M 86 35 "/>
</clipPath>
<clipPath id="clip52">
  <path d="M 0 0 L 68 0 L 68 80.878906 L 0 80.878906 Z M 0 0 "/>
</clipPath>
<clipPath id="clip53">
  <path d="M 65 0 L 226.800781 0 L 226.800781 80.878906 L 65 80.878906 Z M 65 0 "/>
</clipPath>
<clipPath id="clip54">
  <path d="M 24 38 L 84 38 L 84 80.878906 L 24 80.878906 Z M 24 38 "/>
</clipPath>
<clipPath id="clip55">
  <path d="M 81 38 L 226.800781 38 L 226.800781 80.878906 L 81 80.878906 Z M 81 38 "/>
</clipPath>
<clipPath id="clip56">
  <path d="M 0 0 L 56 0 L 56 80.878906 L 0 80.878906 Z M 0 0 "/>
</clipPath>
<clipPath id="clip57">
  <path d="M 53 0 L 226.800781 0 L 226.800781 80.878906 L 53 80.878906 Z M 53 0 "/>
</clipPath>
<clipPath id="clip58">
  <path d="M 34 43 L 79 43 L 79 80.878906 L 34 80.878906 Z M 34 43 "/>
</clipPath>
<clipPath id="clip59">
  <path d="M 77 43 L 226.800781 43 L 226.800781 80.878906 L 77 80.878906 Z M 77 43 "/>
</clipPath>
<clipPath id="clip60">
  <path d="M 0 0 L 45 0 L 45 80.878906 L 0 80.878906 Z M 0 0 "/>
</clipPath>
<clipPath id="clip61">
  <path d="M 42 0 L 226.800781 0 L 226.800781 70 L 42 70 Z M 42 0 "/>
</clipPath>
<clipPath id="clip62">
  <path d="M 43 48 L 76 48 L 76 80.878906 L 43 80.878906 Z M 43 48 "/>
</clipPath>
<clipPath id="clip63">
  <path d="M 73 48 L 226.800781 48 L 226.800781 80.878906 L 73 80.878906 Z M 73 48 "/>
</clipPath>
<clipPath id="clip64">
  <path d="M 0 0 L 35 0 L 35 80.878906 L 0 80.878906 Z M 0 0 "/>
</clipPath>
<clipPath id="clip65">
  <path d="M 33 0 L 226.800781 0 L 226.800781 55 L 33 55 Z M 33 0 "/>
</clipPath>
<clipPath id="clip66">
  <path d="M 52 54 L 73 54 L 73 80.878906 L 52 80.878906 Z M 52 54 "/>
</clipPath>
<clipPath id="clip67">
  <path d="M 71 54 L 226.800781 54 L 226.800781 80.878906 L 71 80.878906 Z M 71 54 "/>
</clipPath>
<clipPath id="clip68">
  <path d="M 0 0 L 26 0 L 26 80.878906 L 0 80.878906 Z M 0 0 "/>
</clipPath>
<clipPath id="clip69">
  <path d="M 24 0 L 226.800781 0 L 226.800781 40 L 24 40 Z M 24 0 "/>
</clipPath>
<clipPath id="clip70">
  <path d="M 60 61 L 71 61 L 71 80.878906 L 60 80.878906 Z M 60 61 "/>
</clipPath>
<clipPath id="clip71">
  <path d="M 69 61 L 226.800781 61 L 226.800781 80.878906 L 69 80.878906 Z M 69 61 "/>
</clipPath>
<clipPath id="clip72">
  <path d="M 2 0 L 19 0 L 19 80.878906 L 2 80.878906 Z M 2 0 "/>
</clipPath>
<clipPath id="clip73">
  <path d="M 16 0 L 226.800781 0 L 226.800781 26 L 16 26 Z M 16 0 "/>
</clipPath>
<clipPath id="clip74">
  <path d="M 69 69 L 70 69 L 70 80.878906 L 69 80.878906 Z M 69 69 "/>
</clipPath>
<clipPath id="clip75">
  <path d="M 69 69 L 226.800781 69 L 226.800781 70 L 69 70 Z M 69 69 "/>
</clipPath>
<clipPath id="clip76">
  <path d="M 11 11 L 12 11 L 12 80.878906 L 11 80.878906 Z M 11 11 "/>
</clipPath>
<clipPath id="clip77">
  <path d="M 11 11 L 226.800781 11 L 226.800781 12 L 11 12 Z M 11 11 "/>
</clipPath>
<clipPath id="clip78">
  <path d="M 0 69 L 226.800781 69 L 226.800781 70 L 0 70 Z M 0 69 "/>
</clipPath>
<clipPath id="clip79">
  <path d="M 0 11 L 226.800781 11 L 226.800781 12 L 0 12 Z M 0 11 "/>
</clipPath>
</defs>
<g id="surface17">
<path style="fill:none;stroke-width:0.166667;stroke-linecap:square;stroke-linejoin:miter;stroke:rgb(85.000381%,85.000381%,85.000381%);stroke-opacity:1;stroke-miterlimit:3.25;" d="M -90.792969 69.285156 L 140.164062 69.285156 "/>
<g clip-path="url(#clip1)" clip-rule="nonzero">
<path style="fill:none;stroke-width:0.166667;stroke-linecap:square;stroke-linejoin:miter;stroke:rgb(85.000381%,85.000381%,85.000381%);stroke-opacity:1;stroke-miterlimit:3.25;" d="M 140.164062 161.714844 L 140.164062 69.285156 "/>
</g>
<path style=" stroke:none;fill-rule:nonzero;fill:rgb(85.000381%,85.000381%,85.000381%);fill-opacity:1;" d="M 140.164062 69.285156 L 140.246094 69.371094 L 140.246094 69.203125 L 140.164062 69.203125 Z M 140.164062 69.285156 "/>
<g clip-path="url(#clip2)" clip-rule="nonzero">
<path style="fill:none;stroke-width:0.166667;stroke-linecap:square;stroke-linejoin:miter;stroke:rgb(85.000381%,85.000381%,85.000381%);stroke-opacity:1;stroke-miterlimit:3.25;" d="M 140.164062 161.714844 L 140.164062 69.285156 "/>
</g>
<path style=" stroke:none;fill-rule:nonzero;fill:rgb(85.000381%,85.000381%,85.000381%);fill-opacity:1;" d="M 140.164062 69.285156 L 140.246094 69.371094 L 140.246094 69.203125 L 140.164062 69.203125 Z M 140.164062 69.285156 "/>
<path style="fill:none;stroke-width:0.166667;stroke-linecap:square;stroke-linejoin:miter;stroke:rgb(85.000381%,85.000381%,85.000381%);stroke-opacity:1;stroke-miterlimit:3.25;" d="M -90.792969 11.546875 L 197.902344 11.546875 "/>
<g clip-path="url(#clip3)" clip-rule="nonzero">
<path style="fill:none;stroke-width:0.166667;stroke-linecap:square;stroke-linejoin:miter;stroke:rgb(85.000381%,85.000381%,85.000381%);stroke-opacity:1;stroke-miterlimit:3.25;" d="M 197.902344 161.714844 L 197.902344 11.546875 "/>
</g>
<path style=" stroke:none;fill-rule:nonzero;fill:rgb(85.000381%,85.000381%,85.000381%);fill-opacity:1;" d="M 197.902344 11.546875 L 197.984375 11.632812 L 197.984375 11.464844 L 197.902344 11.464844 Z M 197.902344 11.546875 "/>
<g clip-path="url(#clip4)" clip-rule="nonzero">
<path style="fill:none;stroke-width:0.166667;stroke-linecap:square;stroke-linejoin:miter;stroke:rgb(85.000381%,85.000381%,85.000381%);stroke-opacity:1;stroke-miterlimit:3.25;" d="M 197.902344 161.714844 L 197.902344 11.546875 "/>
</g>
<path style=" stroke:none;fill-rule:nonzero;fill:rgb(85.000381%,85.000381%,85.000381%);fill-opacity:1;" d="M 197.902344 11.546875 L 197.984375 11.632812 L 197.984375 11.464844 L 197.902344 11.464844 Z M 197.902344 11.546875 "/>
<g clip-path="url(#clip5)" clip-rule="nonzero">
<path style="fill:none;stroke-width:0.166667;stroke-linecap:square;stroke-linejoin:miter;stroke:rgb(85.000381%,85.000381%,85.000381%);stroke-opacity:1;stroke-miterlimit:3.25;" d="M -90.65625 82.410156 L 139.421875 62.28125 "/>
</g>
<g clip-path="url(#clip6)" clip-rule="nonzero">
<path style="fill:none;stroke-width:0.166667;stroke-linecap:square;stroke-linejoin:miter;stroke:rgb(85.000381%,85.000381%,85.000381%);stroke-opacity:1;stroke-miterlimit:3.25;" d="M 148.121094 161.714844 L 139.421875 62.28125 "/>
</g>
<path style=" stroke:none;fill-rule:nonzero;fill:rgb(85.000381%,85.000381%,85.000381%);fill-opacity:1;" d="M 139.421875 62.28125 L 139.503906 62.363281 L 139.5 62.191406 L 139.414062 62.199219 Z M 139.421875 62.28125 "/>
<g clip-path="url(#clip7)" clip-rule="nonzero">
<path style="fill:none;stroke-width:0.166667;stroke-linecap:square;stroke-linejoin:miter;stroke:rgb(85.000381%,85.000381%,85.000381%);stroke-opacity:1;stroke-miterlimit:3.25;" d="M 148.121094 161.714844 L 139.421875 62.28125 "/>
</g>
<path style=" stroke:none;fill-rule:nonzero;fill:rgb(85.000381%,85.000381%,85.000381%);fill-opacity:1;" d="M 139.421875 62.28125 L 139.503906 62.363281 L 139.5 62.191406 L 139.414062 62.199219 Z M 139.421875 62.28125 "/>
<path style="fill:none;stroke-width:0.166667;stroke-linecap:square;stroke-linejoin:miter;stroke:rgb(85.000381%,85.000381%,85.000381%);stroke-opacity:1;stroke-miterlimit:3.25;" d="M -95.6875 24.890625 L 191.910156 -0.269531 "/>
<g clip-path="url(#clip8)" clip-rule="nonzero">
<path style="fill:none;stroke-width:0.166667;stroke-linecap:square;stroke-linejoin:miter;stroke:rgb(85.000381%,85.000381%,85.000381%);stroke-opacity:1;stroke-miterlimit:3.25;" d="M 206.082031 161.714844 L 191.910156 -0.269531 "/>
<path style="fill:none;stroke-width:0.166667;stroke-linecap:square;stroke-linejoin:miter;stroke:rgb(85.000381%,85.000381%,85.000381%);stroke-opacity:1;stroke-miterlimit:3.25;" d="M 206.082031 161.714844 L 191.910156 -0.269531 "/>
</g>
<g clip-path="url(#clip9)" clip-rule="nonzero">
<path style="fill:none;stroke-width:0.166667;stroke-linecap:square;stroke-linejoin:miter;stroke:rgb(85.000381%,85.000381%,85.000381%);stroke-opacity:1;stroke-miterlimit:3.25;" d="M -89.835938 95.785156 L 137.609375 55.679688 "/>
</g>
<g clip-path="url(#clip10)" clip-rule="nonzero">
<path style="fill:none;stroke-width:0.166667;stroke-linecap:square;stroke-linejoin:miter;stroke:rgb(85.000381%,85.000381%,85.000381%);stroke-opacity:1;stroke-miterlimit:3.25;" d="M 156.304688 161.714844 L 137.609375 55.679688 "/>
</g>
<path style=" stroke:none;fill-rule:nonzero;fill:rgb(85.000381%,85.000381%,85.000381%);fill-opacity:1;" d="M 137.609375 55.679688 L 137.691406 55.761719 L 137.675781 55.585938 L 137.59375 55.597656 Z M 137.609375 55.679688 "/>
<g clip-path="url(#clip11)" clip-rule="nonzero">
<path style="fill:none;stroke-width:0.166667;stroke-linecap:square;stroke-linejoin:miter;stroke:rgb(85.000381%,85.000381%,85.000381%);stroke-opacity:1;stroke-miterlimit:3.25;" d="M 156.304688 161.714844 L 137.609375 55.679688 "/>
</g>
<path style=" stroke:none;fill-rule:nonzero;fill:rgb(85.000381%,85.000381%,85.000381%);fill-opacity:1;" d="M 137.609375 55.679688 L 137.691406 55.761719 L 137.675781 55.585938 L 137.59375 55.597656 Z M 137.609375 55.679688 "/>
<path style="fill:none;stroke-width:0.166667;stroke-linecap:square;stroke-linejoin:miter;stroke:rgb(85.000381%,85.000381%,85.000381%);stroke-opacity:1;stroke-miterlimit:3.25;" d="M -99.863281 38.925781 L 184.445312 -11.207031 "/>
<g clip-path="url(#clip12)" clip-rule="nonzero">
<path style="fill:none;stroke-width:0.166667;stroke-linecap:square;stroke-linejoin:miter;stroke:rgb(85.000381%,85.000381%,85.000381%);stroke-opacity:1;stroke-miterlimit:3.25;" d="M 214.9375 161.714844 L 184.445312 -11.207031 "/>
<path style="fill:none;stroke-width:0.166667;stroke-linecap:square;stroke-linejoin:miter;stroke:rgb(85.000381%,85.000381%,85.000381%);stroke-opacity:1;stroke-miterlimit:3.25;" d="M 214.9375 161.714844 L 184.445312 -11.207031 "/>
</g>
<g clip-path="url(#clip13)" clip-rule="nonzero">
<path style="fill:none;stroke-width:0.166667;stroke-linecap:square;stroke-linejoin:miter;stroke:rgb(85.000381%,85.000381%,85.000381%);stroke-opacity:1;stroke-miterlimit:3.25;" d="M -88.226562 109.398438 L 134.859375 49.625 "/>
</g>
<g clip-path="url(#clip14)" clip-rule="nonzero">
<path style="fill:none;stroke-width:0.166667;stroke-linecap:square;stroke-linejoin:miter;stroke:rgb(85.000381%,85.000381%,85.000381%);stroke-opacity:1;stroke-miterlimit:3.25;" d="M 164.894531 161.714844 L 134.859375 49.625 "/>
</g>
<path style=" stroke:none;fill-rule:nonzero;fill:rgb(85.000381%,85.000381%,85.000381%);fill-opacity:1;" d="M 134.859375 49.625 L 134.9375 49.703125 L 134.917969 49.519531 L 134.835938 49.542969 Z M 134.859375 49.625 "/>
<g clip-path="url(#clip15)" clip-rule="nonzero">
<path style="fill:none;stroke-width:0.166667;stroke-linecap:square;stroke-linejoin:miter;stroke:rgb(85.000381%,85.000381%,85.000381%);stroke-opacity:1;stroke-miterlimit:3.25;" d="M 164.894531 161.714844 L 134.859375 49.625 "/>
</g>
<path style=" stroke:none;fill-rule:nonzero;fill:rgb(85.000381%,85.000381%,85.000381%);fill-opacity:1;" d="M 134.859375 49.625 L 134.9375 49.703125 L 134.917969 49.519531 L 134.835938 49.542969 Z M 134.859375 49.625 "/>
<path style="fill:none;stroke-width:0.166667;stroke-linecap:square;stroke-linejoin:miter;stroke:rgb(85.000381%,85.000381%,85.000381%);stroke-opacity:1;stroke-miterlimit:3.25;" d="M -103.171875 53.628906 L 175.6875 -21.09375 "/>
<g clip-path="url(#clip16)" clip-rule="nonzero">
<path style="fill:none;stroke-width:0.166667;stroke-linecap:square;stroke-linejoin:miter;stroke:rgb(85.000381%,85.000381%,85.000381%);stroke-opacity:1;stroke-miterlimit:3.25;" d="M 224.667969 161.714844 L 175.6875 -21.09375 "/>
<path style="fill:none;stroke-width:0.166667;stroke-linecap:square;stroke-linejoin:miter;stroke:rgb(85.000381%,85.000381%,85.000381%);stroke-opacity:1;stroke-miterlimit:3.25;" d="M 224.667969 161.714844 L 175.6875 -21.09375 "/>
</g>
<g clip-path="url(#clip17)" clip-rule="nonzero">
<path style="fill:none;stroke-width:0.166667;stroke-linecap:square;stroke-linejoin:miter;stroke:rgb(85.000381%,85.000381%,85.000381%);stroke-opacity:1;stroke-miterlimit:3.25;" d="M -85.769531 123.226562 L 131.257812 44.234375 "/>
</g>
<g clip-path="url(#clip18)" clip-rule="nonzero">
<path style="fill:none;stroke-width:0.166667;stroke-linecap:square;stroke-linejoin:miter;stroke:rgb(85.000381%,85.000381%,85.000381%);stroke-opacity:1;stroke-miterlimit:3.25;" d="M 174.015625 161.714844 L 131.257812 44.234375 "/>
</g>
<path style=" stroke:none;fill-rule:nonzero;fill:rgb(85.000381%,85.000381%,85.000381%);fill-opacity:1;" d="M 131.257812 44.234375 L 131.335938 44.3125 L 131.308594 44.128906 L 131.230469 44.15625 Z M 131.257812 44.234375 "/>
<g clip-path="url(#clip19)" clip-rule="nonzero">
<path style="fill:none;stroke-width:0.166667;stroke-linecap:square;stroke-linejoin:miter;stroke:rgb(85.000381%,85.000381%,85.000381%);stroke-opacity:1;stroke-miterlimit:3.25;" d="M 174.015625 161.714844 L 131.257812 44.234375 "/>
</g>
<path style=" stroke:none;fill-rule:nonzero;fill:rgb(85.000381%,85.000381%,85.000381%);fill-opacity:1;" d="M 131.257812 44.234375 L 131.335938 44.3125 L 131.308594 44.128906 L 131.230469 44.15625 Z M 131.257812 44.234375 "/>
<path style="fill:none;stroke-width:0.166667;stroke-linecap:square;stroke-linejoin:miter;stroke:rgb(85.000381%,85.000381%,85.000381%);stroke-opacity:1;stroke-miterlimit:3.25;" d="M -105.519531 68.972656 L 165.765625 -29.769531 "/>
<g clip-path="url(#clip20)" clip-rule="nonzero">
<path style="fill:none;stroke-width:0.166667;stroke-linecap:square;stroke-linejoin:miter;stroke:rgb(85.000381%,85.000381%,85.000381%);stroke-opacity:1;stroke-miterlimit:3.25;" d="M 235.460938 161.714844 L 165.765625 -29.769531 "/>
<path style="fill:none;stroke-width:0.166667;stroke-linecap:square;stroke-linejoin:miter;stroke:rgb(85.000381%,85.000381%,85.000381%);stroke-opacity:1;stroke-miterlimit:3.25;" d="M 235.460938 161.714844 L 165.765625 -29.769531 "/>
</g>
<g clip-path="url(#clip21)" clip-rule="nonzero">
<path style="fill:none;stroke-width:0.166667;stroke-linecap:square;stroke-linejoin:miter;stroke:rgb(85.000381%,85.000381%,85.000381%);stroke-opacity:1;stroke-miterlimit:3.25;" d="M -82.40625 137.242188 L 126.914062 39.636719 "/>
</g>
<g clip-path="url(#clip22)" clip-rule="nonzero">
<path style="fill:none;stroke-width:0.166667;stroke-linecap:square;stroke-linejoin:miter;stroke:rgb(85.000381%,85.000381%,85.000381%);stroke-opacity:1;stroke-miterlimit:3.25;" d="M 183.839844 161.714844 L 126.914062 39.636719 "/>
</g>
<path style=" stroke:none;fill-rule:nonzero;fill:rgb(85.000381%,85.000381%,85.000381%);fill-opacity:1;" d="M 126.914062 39.636719 L 126.988281 39.710938 L 126.953125 39.527344 L 126.878906 39.5625 Z M 126.914062 39.636719 "/>
<g clip-path="url(#clip23)" clip-rule="nonzero">
<path style="fill:none;stroke-width:0.166667;stroke-linecap:square;stroke-linejoin:miter;stroke:rgb(85.000381%,85.000381%,85.000381%);stroke-opacity:1;stroke-miterlimit:3.25;" d="M 183.839844 161.714844 L 126.914062 39.636719 "/>
</g>
<path style=" stroke:none;fill-rule:nonzero;fill:rgb(85.000381%,85.000381%,85.000381%);fill-opacity:1;" d="M 126.914062 39.636719 L 126.988281 39.710938 L 126.953125 39.527344 L 126.878906 39.5625 Z M 126.914062 39.636719 "/>
<g clip-path="url(#clip24)" clip-rule="nonzero">
<path style="fill:none;stroke-width:0.166667;stroke-linecap:square;stroke-linejoin:miter;stroke:rgb(85.000381%,85.000381%,85.000381%);stroke-opacity:1;stroke-miterlimit:3.25;" d="M -106.808594 84.914062 L 154.839844 -37.09375 "/>
</g>
<g clip-path="url(#clip25)" clip-rule="nonzero">
<path style="fill:none;stroke-width:0.166667;stroke-linecap:square;stroke-linejoin:miter;stroke:rgb(85.000381%,85.000381%,85.000381%);stroke-opacity:1;stroke-miterlimit:3.25;" d="M 247.546875 161.714844 L 154.839844 -37.09375 "/>
<path style="fill:none;stroke-width:0.166667;stroke-linecap:square;stroke-linejoin:miter;stroke:rgb(85.000381%,85.000381%,85.000381%);stroke-opacity:1;stroke-miterlimit:3.25;" d="M 247.546875 161.714844 L 154.839844 -37.09375 "/>
</g>
<g clip-path="url(#clip26)" clip-rule="nonzero">
<path style="fill:none;stroke-width:0.166667;stroke-linecap:square;stroke-linejoin:miter;stroke:rgb(85.000381%,85.000381%,85.000381%);stroke-opacity:1;stroke-miterlimit:3.25;" d="M -78.070312 151.40625 L 121.945312 35.925781 "/>
</g>
<g clip-path="url(#clip27)" clip-rule="nonzero">
<path style="fill:none;stroke-width:0.166667;stroke-linecap:square;stroke-linejoin:miter;stroke:rgb(85.000381%,85.000381%,85.000381%);stroke-opacity:1;stroke-miterlimit:3.25;" d="M 194.566406 161.714844 L 121.945312 35.925781 "/>
</g>
<path style=" stroke:none;fill-rule:nonzero;fill:rgb(85.000381%,85.000381%,85.000381%);fill-opacity:1;" d="M 121.945312 35.925781 L 122.015625 36 L 121.976562 35.8125 L 121.902344 35.855469 Z M 121.945312 35.925781 "/>
<g clip-path="url(#clip28)" clip-rule="nonzero">
<path style="fill:none;stroke-width:0.166667;stroke-linecap:square;stroke-linejoin:miter;stroke:rgb(85.000381%,85.000381%,85.000381%);stroke-opacity:1;stroke-miterlimit:3.25;" d="M 194.566406 161.714844 L 121.945312 35.925781 "/>
</g>
<path style=" stroke:none;fill-rule:nonzero;fill:rgb(85.000381%,85.000381%,85.000381%);fill-opacity:1;" d="M 121.945312 35.925781 L 122.015625 36 L 121.976562 35.8125 L 121.902344 35.855469 Z M 121.945312 35.925781 "/>
<g clip-path="url(#clip29)" clip-rule="nonzero">
<path style="fill:none;stroke-width:0.166667;stroke-linecap:square;stroke-linejoin:miter;stroke:rgb(85.000381%,85.000381%,85.000381%);stroke-opacity:1;stroke-miterlimit:3.25;" d="M -106.9375 101.402344 L 143.078125 -42.945312 "/>
</g>
<g clip-path="url(#clip30)" clip-rule="nonzero">
<path style="fill:none;stroke-width:0.166667;stroke-linecap:square;stroke-linejoin:miter;stroke:rgb(85.000381%,85.000381%,85.000381%);stroke-opacity:1;stroke-miterlimit:3.25;" d="M 261.238281 161.714844 L 143.078125 -42.945312 "/>
<path style="fill:none;stroke-width:0.166667;stroke-linecap:square;stroke-linejoin:miter;stroke:rgb(85.000381%,85.000381%,85.000381%);stroke-opacity:1;stroke-miterlimit:3.25;" d="M 261.238281 161.714844 L 143.078125 -42.945312 "/>
</g>
<g clip-path="url(#clip31)" clip-rule="nonzero">
<path style="fill:none;stroke-width:0.166667;stroke-linecap:square;stroke-linejoin:miter;stroke:rgb(85.000381%,85.000381%,85.000381%);stroke-opacity:1;stroke-miterlimit:3.25;" d="M -67.058594 161.714844 L 116.488281 33.191406 "/>
<path style="fill:none;stroke-width:0.166667;stroke-linecap:square;stroke-linejoin:miter;stroke:rgb(85.000381%,85.000381%,85.000381%);stroke-opacity:1;stroke-miterlimit:3.25;" d="M -67.058594 161.714844 L 116.488281 33.191406 "/>
</g>
<path style=" stroke:none;fill-rule:nonzero;fill:rgb(85.000381%,85.000381%,85.000381%);fill-opacity:1;" d="M 116.488281 33.191406 L 116.441406 33.144531 L 116.507812 33.078125 L 116.554688 33.144531 Z M 116.488281 33.191406 "/>
<g clip-path="url(#clip32)" clip-rule="nonzero">
<path style="fill:none;stroke-width:0.166667;stroke-linecap:square;stroke-linejoin:miter;stroke:rgb(85.000381%,85.000381%,85.000381%);stroke-opacity:1;stroke-miterlimit:3.25;" d="M 206.480469 161.714844 L 116.488281 33.191406 "/>
<path style="fill:none;stroke-width:0.166667;stroke-linecap:square;stroke-linejoin:miter;stroke:rgb(85.000381%,85.000381%,85.000381%);stroke-opacity:1;stroke-miterlimit:3.25;" d="M 206.480469 161.714844 L 116.488281 33.191406 "/>
</g>
<g clip-path="url(#clip33)" clip-rule="nonzero">
<path style="fill:none;stroke-width:0.166667;stroke-linecap:square;stroke-linejoin:miter;stroke:rgb(85.000381%,85.000381%,85.000381%);stroke-opacity:1;stroke-miterlimit:3.25;" d="M -105.816406 118.367188 L 130.667969 -47.222656 "/>
</g>
<g clip-path="url(#clip34)" clip-rule="nonzero">
<path style="fill:none;stroke-width:0.166667;stroke-linecap:square;stroke-linejoin:miter;stroke:rgb(85.000381%,85.000381%,85.000381%);stroke-opacity:1;stroke-miterlimit:3.25;" d="M 276.964844 161.714844 L 130.667969 -47.222656 "/>
<path style="fill:none;stroke-width:0.166667;stroke-linecap:square;stroke-linejoin:miter;stroke:rgb(85.000381%,85.000381%,85.000381%);stroke-opacity:1;stroke-miterlimit:3.25;" d="M 276.964844 161.714844 L 130.667969 -47.222656 "/>
</g>
<g clip-path="url(#clip35)" clip-rule="nonzero">
<path style="fill:none;stroke-width:0.166667;stroke-linecap:square;stroke-linejoin:miter;stroke:rgb(85.000381%,85.000381%,85.000381%);stroke-opacity:1;stroke-miterlimit:3.25;" d="M -44.488281 161.714844 L 110.691406 31.503906 "/>
<path style="fill:none;stroke-width:0.166667;stroke-linecap:square;stroke-linejoin:miter;stroke:rgb(85.000381%,85.000381%,85.000381%);stroke-opacity:1;stroke-miterlimit:3.25;" d="M -44.488281 161.714844 L 110.691406 31.503906 "/>
</g>
<path style=" stroke:none;fill-rule:nonzero;fill:rgb(85.000381%,85.000381%,85.000381%);fill-opacity:1;" d="M 110.691406 31.503906 L 110.636719 31.449219 L 110.699219 31.386719 L 110.753906 31.449219 Z M 110.691406 31.503906 "/>
<g clip-path="url(#clip36)" clip-rule="nonzero">
<path style="fill:none;stroke-width:0.166667;stroke-linecap:square;stroke-linejoin:miter;stroke:rgb(85.000381%,85.000381%,85.000381%);stroke-opacity:1;stroke-miterlimit:3.25;" d="M 219.949219 161.714844 L 110.691406 31.503906 "/>
<path style="fill:none;stroke-width:0.166667;stroke-linecap:square;stroke-linejoin:miter;stroke:rgb(85.000381%,85.000381%,85.000381%);stroke-opacity:1;stroke-miterlimit:3.25;" d="M 219.949219 161.714844 L 110.691406 31.503906 "/>
</g>
<g clip-path="url(#clip37)" clip-rule="nonzero">
<path style="fill:none;stroke-width:0.166667;stroke-linecap:square;stroke-linejoin:miter;stroke:rgb(85.000381%,85.000381%,85.000381%);stroke-opacity:1;stroke-miterlimit:3.25;" d="M -103.347656 135.730469 L 117.804688 -49.839844 "/>
</g>
<g clip-path="url(#clip38)" clip-rule="nonzero">
<path style="fill:none;stroke-width:0.166667;stroke-linecap:square;stroke-linejoin:miter;stroke:rgb(85.000381%,85.000381%,85.000381%);stroke-opacity:1;stroke-miterlimit:3.25;" d="M 295.320312 161.714844 L 117.804688 -49.839844 "/>
<path style="fill:none;stroke-width:0.166667;stroke-linecap:square;stroke-linejoin:miter;stroke:rgb(85.000381%,85.000381%,85.000381%);stroke-opacity:1;stroke-miterlimit:3.25;" d="M 295.320312 161.714844 L 117.804688 -49.839844 "/>
</g>
<g clip-path="url(#clip39)" clip-rule="nonzero">
<path style="fill:none;stroke-width:0.166667;stroke-linecap:square;stroke-linejoin:miter;stroke:rgb(85.000381%,85.000381%,85.000381%);stroke-opacity:1;stroke-miterlimit:3.25;" d="M -26.058594 161.714844 L 104.726562 30.933594 "/>
<path style="fill:none;stroke-width:0.166667;stroke-linecap:square;stroke-linejoin:miter;stroke:rgb(85.000381%,85.000381%,85.000381%);stroke-opacity:1;stroke-miterlimit:3.25;" d="M -26.058594 161.714844 L 104.726562 30.933594 "/>
</g>
<path style=" stroke:none;fill-rule:nonzero;fill:rgb(85.000381%,85.000381%,85.000381%);fill-opacity:1;" d="M 104.726562 30.933594 L 104.667969 30.875 L 104.726562 30.816406 L 104.785156 30.875 Z M 104.726562 30.933594 "/>
<g clip-path="url(#clip40)" clip-rule="nonzero">
<path style="fill:none;stroke-width:0.166667;stroke-linecap:square;stroke-linejoin:miter;stroke:rgb(85.000381%,85.000381%,85.000381%);stroke-opacity:1;stroke-miterlimit:3.25;" d="M 235.507812 161.714844 L 104.726562 30.933594 "/>
<path style="fill:none;stroke-width:0.166667;stroke-linecap:square;stroke-linejoin:miter;stroke:rgb(85.000381%,85.000381%,85.000381%);stroke-opacity:1;stroke-miterlimit:3.25;" d="M 235.507812 161.714844 L 104.726562 30.933594 "/>
</g>
<g clip-path="url(#clip41)" clip-rule="nonzero">
<path style="fill:none;stroke-width:0.166667;stroke-linecap:square;stroke-linejoin:miter;stroke:rgb(85.000381%,85.000381%,85.000381%);stroke-opacity:1;stroke-miterlimit:3.25;" d="M -99.414062 153.414062 L 104.726562 -50.722656 L 308.863281 153.414062 "/>
</g>
<g clip-path="url(#clip42)" clip-rule="nonzero">
<path style="fill:none;stroke-width:0.166667;stroke-linecap:square;stroke-linejoin:miter;stroke:rgb(85.000381%,85.000381%,85.000381%);stroke-opacity:1;stroke-miterlimit:3.25;" d="M -10.5 161.714844 L 98.761719 31.503906 "/>
<path style="fill:none;stroke-width:0.166667;stroke-linecap:square;stroke-linejoin:miter;stroke:rgb(85.000381%,85.000381%,85.000381%);stroke-opacity:1;stroke-miterlimit:3.25;" d="M -10.5 161.714844 L 98.761719 31.503906 "/>
</g>
<path style=" stroke:none;fill-rule:nonzero;fill:rgb(85.000381%,85.000381%,85.000381%);fill-opacity:1;" d="M 98.761719 31.503906 L 98.695312 31.441406 L 98.75 31.386719 L 98.8125 31.441406 Z M 98.761719 31.503906 "/>
<g clip-path="url(#clip43)" clip-rule="nonzero">
<path style="fill:none;stroke-width:0.166667;stroke-linecap:square;stroke-linejoin:miter;stroke:rgb(85.000381%,85.000381%,85.000381%);stroke-opacity:1;stroke-miterlimit:3.25;" d="M 253.9375 161.714844 L 98.761719 31.503906 "/>
<path style="fill:none;stroke-width:0.166667;stroke-linecap:square;stroke-linejoin:miter;stroke:rgb(85.000381%,85.000381%,85.000381%);stroke-opacity:1;stroke-miterlimit:3.25;" d="M 253.9375 161.714844 L 98.761719 31.503906 "/>
</g>
<g clip-path="url(#clip44)" clip-rule="nonzero">
<path style="fill:none;stroke-width:0.166667;stroke-linecap:square;stroke-linejoin:miter;stroke:rgb(85.000381%,85.000381%,85.000381%);stroke-opacity:1;stroke-miterlimit:3.25;" d="M -85.871094 161.714844 L 91.644531 -49.839844 "/>
<path style="fill:none;stroke-width:0.166667;stroke-linecap:square;stroke-linejoin:miter;stroke:rgb(85.000381%,85.000381%,85.000381%);stroke-opacity:1;stroke-miterlimit:3.25;" d="M -85.871094 161.714844 L 91.644531 -49.839844 "/>
</g>
<g clip-path="url(#clip45)" clip-rule="nonzero">
<path style="fill:none;stroke-width:0.166667;stroke-linecap:square;stroke-linejoin:miter;stroke:rgb(85.000381%,85.000381%,85.000381%);stroke-opacity:1;stroke-miterlimit:3.25;" d="M 91.644531 -49.839844 L 312.796875 135.730469 "/>
</g>
<g clip-path="url(#clip46)" clip-rule="nonzero">
<path style="fill:none;stroke-width:0.166667;stroke-linecap:square;stroke-linejoin:miter;stroke:rgb(85.000381%,85.000381%,85.000381%);stroke-opacity:1;stroke-miterlimit:3.25;" d="M 2.96875 161.714844 L 92.960938 33.191406 "/>
<path style="fill:none;stroke-width:0.166667;stroke-linecap:square;stroke-linejoin:miter;stroke:rgb(85.000381%,85.000381%,85.000381%);stroke-opacity:1;stroke-miterlimit:3.25;" d="M 2.96875 161.714844 L 92.960938 33.191406 "/>
</g>
<path style=" stroke:none;fill-rule:nonzero;fill:rgb(85.000381%,85.000381%,85.000381%);fill-opacity:1;" d="M 92.960938 33.191406 L 92.894531 33.125 L 92.941406 33.078125 L 93.007812 33.125 Z M 92.960938 33.191406 "/>
<g clip-path="url(#clip47)" clip-rule="nonzero">
<path style="fill:none;stroke-width:0.166667;stroke-linecap:square;stroke-linejoin:miter;stroke:rgb(85.000381%,85.000381%,85.000381%);stroke-opacity:1;stroke-miterlimit:3.25;" d="M 276.507812 161.714844 L 92.960938 33.191406 "/>
<path style="fill:none;stroke-width:0.166667;stroke-linecap:square;stroke-linejoin:miter;stroke:rgb(85.000381%,85.000381%,85.000381%);stroke-opacity:1;stroke-miterlimit:3.25;" d="M 276.507812 161.714844 L 92.960938 33.191406 "/>
</g>
<g clip-path="url(#clip48)" clip-rule="nonzero">
<path style="fill:none;stroke-width:0.166667;stroke-linecap:square;stroke-linejoin:miter;stroke:rgb(85.000381%,85.000381%,85.000381%);stroke-opacity:1;stroke-miterlimit:3.25;" d="M -67.515625 161.714844 L 78.78125 -47.222656 "/>
<path style="fill:none;stroke-width:0.166667;stroke-linecap:square;stroke-linejoin:miter;stroke:rgb(85.000381%,85.000381%,85.000381%);stroke-opacity:1;stroke-miterlimit:3.25;" d="M -67.515625 161.714844 L 78.78125 -47.222656 "/>
</g>
<g clip-path="url(#clip49)" clip-rule="nonzero">
<path style="fill:none;stroke-width:0.166667;stroke-linecap:square;stroke-linejoin:miter;stroke:rgb(85.000381%,85.000381%,85.000381%);stroke-opacity:1;stroke-miterlimit:3.25;" d="M 78.78125 -47.222656 L 315.269531 118.367188 "/>
</g>
<g clip-path="url(#clip50)" clip-rule="nonzero">
<path style="fill:none;stroke-width:0.166667;stroke-linecap:square;stroke-linejoin:miter;stroke:rgb(85.000381%,85.000381%,85.000381%);stroke-opacity:1;stroke-miterlimit:3.25;" d="M 14.882812 161.714844 L 87.503906 35.925781 "/>
<path style="fill:none;stroke-width:0.166667;stroke-linecap:square;stroke-linejoin:miter;stroke:rgb(85.000381%,85.000381%,85.000381%);stroke-opacity:1;stroke-miterlimit:3.25;" d="M 14.882812 161.714844 L 87.503906 35.925781 "/>
</g>
<path style=" stroke:none;fill-rule:nonzero;fill:rgb(85.000381%,85.000381%,85.000381%);fill-opacity:1;" d="M 87.503906 35.925781 L 87.433594 35.855469 L 87.476562 35.8125 L 87.546875 35.855469 Z M 87.503906 35.925781 "/>
<g clip-path="url(#clip51)" clip-rule="nonzero">
<path style="fill:none;stroke-width:0.166667;stroke-linecap:square;stroke-linejoin:miter;stroke:rgb(85.000381%,85.000381%,85.000381%);stroke-opacity:1;stroke-miterlimit:3.25;" d="M 87.503906 35.925781 L 287.519531 151.40625 "/>
</g>
<g clip-path="url(#clip52)" clip-rule="nonzero">
<path style="fill:none;stroke-width:0.166667;stroke-linecap:square;stroke-linejoin:miter;stroke:rgb(85.000381%,85.000381%,85.000381%);stroke-opacity:1;stroke-miterlimit:3.25;" d="M -51.789062 161.714844 L 66.371094 -42.945312 "/>
<path style="fill:none;stroke-width:0.166667;stroke-linecap:square;stroke-linejoin:miter;stroke:rgb(85.000381%,85.000381%,85.000381%);stroke-opacity:1;stroke-miterlimit:3.25;" d="M -51.789062 161.714844 L 66.371094 -42.945312 "/>
</g>
<g clip-path="url(#clip53)" clip-rule="nonzero">
<path style="fill:none;stroke-width:0.166667;stroke-linecap:square;stroke-linejoin:miter;stroke:rgb(85.000381%,85.000381%,85.000381%);stroke-opacity:1;stroke-miterlimit:3.25;" d="M 66.371094 -42.945312 L 316.390625 101.402344 "/>
</g>
<g clip-path="url(#clip54)" clip-rule="nonzero">
<path style="fill:none;stroke-width:0.166667;stroke-linecap:square;stroke-linejoin:miter;stroke:rgb(85.000381%,85.000381%,85.000381%);stroke-opacity:1;stroke-miterlimit:3.25;" d="M 25.613281 161.714844 L 82.539062 39.636719 "/>
<path style="fill:none;stroke-width:0.166667;stroke-linecap:square;stroke-linejoin:miter;stroke:rgb(85.000381%,85.000381%,85.000381%);stroke-opacity:1;stroke-miterlimit:3.25;" d="M 25.613281 161.714844 L 82.539062 39.636719 "/>
</g>
<path style=" stroke:none;fill-rule:nonzero;fill:rgb(85.000381%,85.000381%,85.000381%);fill-opacity:1;" d="M 82.539062 39.636719 L 82.460938 39.5625 L 82.496094 39.527344 L 82.574219 39.5625 Z M 82.539062 39.636719 "/>
<g clip-path="url(#clip55)" clip-rule="nonzero">
<path style="fill:none;stroke-width:0.166667;stroke-linecap:square;stroke-linejoin:miter;stroke:rgb(85.000381%,85.000381%,85.000381%);stroke-opacity:1;stroke-miterlimit:3.25;" d="M 82.539062 39.636719 L 291.855469 137.242188 "/>
</g>
<g clip-path="url(#clip56)" clip-rule="nonzero">
<path style="fill:none;stroke-width:0.166667;stroke-linecap:square;stroke-linejoin:miter;stroke:rgb(85.000381%,85.000381%,85.000381%);stroke-opacity:1;stroke-miterlimit:3.25;" d="M -38.097656 161.714844 L 54.609375 -37.09375 "/>
<path style="fill:none;stroke-width:0.166667;stroke-linecap:square;stroke-linejoin:miter;stroke:rgb(85.000381%,85.000381%,85.000381%);stroke-opacity:1;stroke-miterlimit:3.25;" d="M -38.097656 161.714844 L 54.609375 -37.09375 "/>
</g>
<g clip-path="url(#clip57)" clip-rule="nonzero">
<path style="fill:none;stroke-width:0.166667;stroke-linecap:square;stroke-linejoin:miter;stroke:rgb(85.000381%,85.000381%,85.000381%);stroke-opacity:1;stroke-miterlimit:3.25;" d="M 54.609375 -37.09375 L 316.257812 84.914062 "/>
</g>
<g clip-path="url(#clip58)" clip-rule="nonzero">
<path style="fill:none;stroke-width:0.166667;stroke-linecap:square;stroke-linejoin:miter;stroke:rgb(85.000381%,85.000381%,85.000381%);stroke-opacity:1;stroke-miterlimit:3.25;" d="M 35.433594 161.714844 L 78.191406 44.234375 "/>
<path style="fill:none;stroke-width:0.166667;stroke-linecap:square;stroke-linejoin:miter;stroke:rgb(85.000381%,85.000381%,85.000381%);stroke-opacity:1;stroke-miterlimit:3.25;" d="M 35.433594 161.714844 L 78.191406 44.234375 "/>
</g>
<path style=" stroke:none;fill-rule:nonzero;fill:rgb(85.000381%,85.000381%,85.000381%);fill-opacity:1;" d="M 78.191406 44.234375 L 78.113281 44.15625 L 78.144531 44.128906 L 78.222656 44.15625 Z M 78.191406 44.234375 "/>
<g clip-path="url(#clip59)" clip-rule="nonzero">
<path style="fill:none;stroke-width:0.166667;stroke-linecap:square;stroke-linejoin:miter;stroke:rgb(85.000381%,85.000381%,85.000381%);stroke-opacity:1;stroke-miterlimit:3.25;" d="M 78.191406 44.234375 L 295.21875 123.226562 "/>
</g>
<g clip-path="url(#clip60)" clip-rule="nonzero">
<path style="fill:none;stroke-width:0.166667;stroke-linecap:square;stroke-linejoin:miter;stroke:rgb(85.000381%,85.000381%,85.000381%);stroke-opacity:1;stroke-miterlimit:3.25;" d="M -26.011719 161.714844 L 43.683594 -29.769531 "/>
<path style="fill:none;stroke-width:0.166667;stroke-linecap:square;stroke-linejoin:miter;stroke:rgb(85.000381%,85.000381%,85.000381%);stroke-opacity:1;stroke-miterlimit:3.25;" d="M -26.011719 161.714844 L 43.683594 -29.769531 "/>
</g>
<g clip-path="url(#clip61)" clip-rule="nonzero">
<path style="fill:none;stroke-width:0.166667;stroke-linecap:square;stroke-linejoin:miter;stroke:rgb(85.000381%,85.000381%,85.000381%);stroke-opacity:1;stroke-miterlimit:3.25;" d="M 43.683594 -29.769531 L 314.96875 68.972656 "/>
</g>
<g clip-path="url(#clip62)" clip-rule="nonzero">
<path style="fill:none;stroke-width:0.166667;stroke-linecap:square;stroke-linejoin:miter;stroke:rgb(85.000381%,85.000381%,85.000381%);stroke-opacity:1;stroke-miterlimit:3.25;" d="M 44.558594 161.714844 L 74.589844 49.625 "/>
<path style="fill:none;stroke-width:0.166667;stroke-linecap:square;stroke-linejoin:miter;stroke:rgb(85.000381%,85.000381%,85.000381%);stroke-opacity:1;stroke-miterlimit:3.25;" d="M 44.558594 161.714844 L 74.589844 49.625 "/>
</g>
<path style=" stroke:none;fill-rule:nonzero;fill:rgb(85.000381%,85.000381%,85.000381%);fill-opacity:1;" d="M 74.589844 49.625 L 74.511719 49.542969 L 74.53125 49.519531 L 74.613281 49.542969 Z M 74.589844 49.625 "/>
<g clip-path="url(#clip63)" clip-rule="nonzero">
<path style="fill:none;stroke-width:0.166667;stroke-linecap:square;stroke-linejoin:miter;stroke:rgb(85.000381%,85.000381%,85.000381%);stroke-opacity:1;stroke-miterlimit:3.25;" d="M 74.589844 49.625 L 297.679688 109.398438 "/>
</g>
<g clip-path="url(#clip64)" clip-rule="nonzero">
<path style="fill:none;stroke-width:0.166667;stroke-linecap:square;stroke-linejoin:miter;stroke:rgb(85.000381%,85.000381%,85.000381%);stroke-opacity:1;stroke-miterlimit:3.25;" d="M -15.21875 161.714844 L 33.765625 -21.09375 "/>
<path style="fill:none;stroke-width:0.166667;stroke-linecap:square;stroke-linejoin:miter;stroke:rgb(85.000381%,85.000381%,85.000381%);stroke-opacity:1;stroke-miterlimit:3.25;" d="M -15.21875 161.714844 L 33.765625 -21.09375 "/>
</g>
<g clip-path="url(#clip65)" clip-rule="nonzero">
<path style="fill:none;stroke-width:0.166667;stroke-linecap:square;stroke-linejoin:miter;stroke:rgb(85.000381%,85.000381%,85.000381%);stroke-opacity:1;stroke-miterlimit:3.25;" d="M 33.765625 -21.09375 L 312.621094 53.628906 "/>
</g>
<g clip-path="url(#clip66)" clip-rule="nonzero">
<path style="fill:none;stroke-width:0.166667;stroke-linecap:square;stroke-linejoin:miter;stroke:rgb(85.000381%,85.000381%,85.000381%);stroke-opacity:1;stroke-miterlimit:3.25;" d="M 53.144531 161.714844 L 71.839844 55.679688 "/>
<path style="fill:none;stroke-width:0.166667;stroke-linecap:square;stroke-linejoin:miter;stroke:rgb(85.000381%,85.000381%,85.000381%);stroke-opacity:1;stroke-miterlimit:3.25;" d="M 53.144531 161.714844 L 71.839844 55.679688 "/>
</g>
<path style=" stroke:none;fill-rule:nonzero;fill:rgb(85.000381%,85.000381%,85.000381%);fill-opacity:1;" d="M 71.839844 55.679688 L 71.757812 55.597656 L 71.773438 55.585938 L 71.855469 55.597656 Z M 71.839844 55.679688 "/>
<g clip-path="url(#clip67)" clip-rule="nonzero">
<path style="fill:none;stroke-width:0.166667;stroke-linecap:square;stroke-linejoin:miter;stroke:rgb(85.000381%,85.000381%,85.000381%);stroke-opacity:1;stroke-miterlimit:3.25;" d="M 71.839844 55.679688 L 299.289062 95.785156 "/>
</g>
<g clip-path="url(#clip68)" clip-rule="nonzero">
<path style="fill:none;stroke-width:0.166667;stroke-linecap:square;stroke-linejoin:miter;stroke:rgb(85.000381%,85.000381%,85.000381%);stroke-opacity:1;stroke-miterlimit:3.25;" d="M -5.488281 161.714844 L 25.003906 -11.207031 "/>
<path style="fill:none;stroke-width:0.166667;stroke-linecap:square;stroke-linejoin:miter;stroke:rgb(85.000381%,85.000381%,85.000381%);stroke-opacity:1;stroke-miterlimit:3.25;" d="M -5.488281 161.714844 L 25.003906 -11.207031 "/>
</g>
<g clip-path="url(#clip69)" clip-rule="nonzero">
<path style="fill:none;stroke-width:0.166667;stroke-linecap:square;stroke-linejoin:miter;stroke:rgb(85.000381%,85.000381%,85.000381%);stroke-opacity:1;stroke-miterlimit:3.25;" d="M 25.003906 -11.207031 L 309.3125 38.925781 "/>
</g>
<g clip-path="url(#clip70)" clip-rule="nonzero">
<path style="fill:none;stroke-width:0.166667;stroke-linecap:square;stroke-linejoin:miter;stroke:rgb(85.000381%,85.000381%,85.000381%);stroke-opacity:1;stroke-miterlimit:3.25;" d="M 61.328125 161.714844 L 70.027344 62.28125 "/>
<path style="fill:none;stroke-width:0.166667;stroke-linecap:square;stroke-linejoin:miter;stroke:rgb(85.000381%,85.000381%,85.000381%);stroke-opacity:1;stroke-miterlimit:3.25;" d="M 61.328125 161.714844 L 70.027344 62.28125 "/>
</g>
<path style=" stroke:none;fill-rule:nonzero;fill:rgb(85.000381%,85.000381%,85.000381%);fill-opacity:1;" d="M 70.027344 62.28125 L 69.945312 62.199219 L 69.953125 62.191406 L 70.035156 62.199219 Z M 70.027344 62.28125 "/>
<g clip-path="url(#clip71)" clip-rule="nonzero">
<path style="fill:none;stroke-width:0.166667;stroke-linecap:square;stroke-linejoin:miter;stroke:rgb(85.000381%,85.000381%,85.000381%);stroke-opacity:1;stroke-miterlimit:3.25;" d="M 70.027344 62.28125 L 300.105469 82.410156 "/>
</g>
<g clip-path="url(#clip72)" clip-rule="nonzero">
<path style="fill:none;stroke-width:0.166667;stroke-linecap:square;stroke-linejoin:miter;stroke:rgb(85.000381%,85.000381%,85.000381%);stroke-opacity:1;stroke-miterlimit:3.25;" d="M 3.367188 161.714844 L 17.539062 -0.269531 "/>
<path style="fill:none;stroke-width:0.166667;stroke-linecap:square;stroke-linejoin:miter;stroke:rgb(85.000381%,85.000381%,85.000381%);stroke-opacity:1;stroke-miterlimit:3.25;" d="M 3.367188 161.714844 L 17.539062 -0.269531 "/>
</g>
<g clip-path="url(#clip73)" clip-rule="nonzero">
<path style="fill:none;stroke-width:0.166667;stroke-linecap:square;stroke-linejoin:miter;stroke:rgb(85.000381%,85.000381%,85.000381%);stroke-opacity:1;stroke-miterlimit:3.25;" d="M 17.539062 -0.269531 L 305.136719 24.890625 "/>
</g>
<g clip-path="url(#clip74)" clip-rule="nonzero">
<path style="fill:none;stroke-width:0.166667;stroke-linecap:square;stroke-linejoin:miter;stroke:rgb(85.000381%,85.000381%,85.000381%);stroke-opacity:1;stroke-miterlimit:3.25;" d="M 69.285156 161.714844 L 69.285156 69.285156 "/>
<path style="fill:none;stroke-width:0.166667;stroke-linecap:square;stroke-linejoin:miter;stroke:rgb(85.000381%,85.000381%,85.000381%);stroke-opacity:1;stroke-miterlimit:3.25;" d="M 69.285156 161.714844 L 69.285156 69.285156 "/>
</g>
<path style=" stroke:none;fill-rule:nonzero;fill:rgb(85.000381%,85.000381%,85.000381%);fill-opacity:1;" d="M 69.285156 69.285156 L 69.203125 69.203125 L 69.285156 69.203125 Z M 69.285156 69.285156 "/>
<g clip-path="url(#clip75)" clip-rule="nonzero">
<path style="fill:none;stroke-width:0.166667;stroke-linecap:square;stroke-linejoin:miter;stroke:rgb(85.000381%,85.000381%,85.000381%);stroke-opacity:1;stroke-miterlimit:3.25;" d="M 69.285156 69.285156 L 300.242188 69.285156 "/>
</g>
<g clip-path="url(#clip76)" clip-rule="nonzero">
<path style="fill:none;stroke-width:0.166667;stroke-linecap:square;stroke-linejoin:miter;stroke:rgb(85.000381%,85.000381%,85.000381%);stroke-opacity:1;stroke-miterlimit:3.25;" d="M 11.546875 161.714844 L 11.546875 11.546875 "/>
<path style="fill:none;stroke-width:0.166667;stroke-linecap:square;stroke-linejoin:miter;stroke:rgb(85.000381%,85.000381%,85.000381%);stroke-opacity:1;stroke-miterlimit:3.25;" d="M 11.546875 161.714844 L 11.546875 11.546875 "/>
</g>
<path style=" stroke:none;fill-rule:nonzero;fill:rgb(85.000381%,85.000381%,85.000381%);fill-opacity:1;" d="M 11.546875 11.546875 L 11.464844 11.464844 L 11.546875 11.464844 Z M 11.546875 11.546875 "/>
<g clip-path="url(#clip77)" clip-rule="nonzero">
<path style="fill:none;stroke-width:0.166667;stroke-linecap:square;stroke-linejoin:miter;stroke:rgb(85.000381%,85.000381%,85.000381%);stroke-opacity:1;stroke-miterlimit:3.25;" d="M 11.546875 11.546875 L 300.242188 11.546875 "/>
</g>
<path style="fill-rule:nonzero;fill:rgb(100%,100%,86.999313%);fill-opacity:1;stroke-width:0.5;stroke-linecap:square;stroke-linejoin:miter;stroke:rgb(0%,0%,0%);stroke-opacity:1;stroke-miterlimit:3.25;" d="M 139.992188 66.101562 L 139.730469 64.058594 L 139.378906 62.050781 L 138.9375 60.074219 L 138.414062 58.140625 L 137.808594 56.246094 L 137.121094 54.398438 L 136.355469 52.597656 L 135.511719 50.847656 L 134.59375 49.15625 L 133.605469 47.523438 L 132.546875 45.949219 L 131.417969 44.441406 L 130.230469 43 L 128.976562 41.628906 L 127.667969 40.328125 L 126.300781 39.105469 L 124.886719 37.957031 L 123.421875 36.890625 L 121.910156 35.90625 L 120.355469 35.003906 L 118.765625 34.1875 L 117.140625 33.457031 L 115.484375 32.816406 L 113.800781 32.265625 L 112.09375 31.808594 L 110.367188 31.445312 L 108.628906 31.175781 L 106.882812 31.007812 L 105.132812 30.933594 L 103.378906 30.960938 L 101.632812 31.085938 L 99.890625 31.308594 L 98.15625 31.625 L 96.441406 32.042969 L 94.746094 32.550781 L 93.078125 33.148438 L 91.4375 33.835938 L 89.828125 34.613281 L 88.257812 35.476562 L 86.726562 36.421875 L 85.242188 37.453125 L 83.800781 38.5625 L 82.410156 39.75 L 81.074219 41.015625 L 79.796875 42.351562 L 78.578125 43.761719 L 77.417969 45.238281 L 76.328125 46.78125 L 75.304688 48.390625 L 74.355469 50.054688 L 73.476562 51.777344 L 72.675781 53.554688 L 71.949219 55.378906 L 71.304688 57.253906 L 70.742188 59.167969 L 70.265625 61.125 L 69.875 63.121094 L 69.566406 65.148438 L 69.457031 66.101562 L 69.367188 66.171875 L 69.269531 66.246094 L 69.164062 66.324219 L 69.058594 66.40625 L 68.941406 66.484375 L 68.820312 66.570312 L 68.691406 66.652344 L 68.554688 66.742188 L 68.414062 66.828125 L 68.265625 66.917969 L 68.109375 67.007812 L 67.949219 67.097656 L 67.78125 67.191406 L 67.605469 67.28125 L 67.421875 67.375 L 67.230469 67.464844 L 67.035156 67.558594 L 66.832031 67.648438 L 66.617188 67.742188 L 66.398438 67.832031 L 66.175781 67.921875 L 65.941406 68.007812 L 65.703125 68.09375 L 65.453125 68.179688 L 65.199219 68.265625 L 64.9375 68.347656 L 64.667969 68.425781 L 64.390625 68.503906 L 64.109375 68.578125 L 63.816406 68.652344 L 63.519531 68.722656 L 63.210938 68.789062 L 62.898438 68.851562 L 62.582031 68.910156 L 62.253906 68.96875 L 61.917969 69.019531 L 61.578125 69.066406 L 61.230469 69.109375 L 60.875 69.152344 L 60.515625 69.183594 L 60.144531 69.214844 L 59.769531 69.238281 L 59.386719 69.257812 L 58.972656 69.273438 L 58.546875 69.285156 L 11.546875 69.285156 L 11.589844 68.332031 L 11.722656 66.292969 L 11.902344 64.28125 L 12.128906 62.292969 L 12.40625 60.335938 L 12.730469 58.410156 L 13.097656 56.515625 L 13.507812 54.652344 L 13.960938 52.824219 L 14.453125 51.03125 L 14.980469 49.277344 L 15.550781 47.558594 L 16.152344 45.882812 L 16.785156 44.246094 L 17.453125 42.652344 L 18.148438 41.101562 L 18.871094 39.59375 L 19.617188 38.128906 L 20.386719 36.710938 L 21.179688 35.335938 L 21.992188 34.011719 L 22.820312 32.730469 L 23.664062 31.496094 L 24.519531 30.308594 L 25.386719 29.171875 L 26.261719 28.082031 L 27.140625 27.042969 L 28.023438 26.050781 L 28.902344 25.113281 L 29.78125 24.222656 L 30.652344 23.382812 L 31.519531 22.589844 L 32.375 21.84375 L 33.246094 21.128906 L 34.242188 20.34375 L 35.246094 19.601562 L 36.25 18.894531 L 37.257812 18.222656 L 38.265625 17.585938 L 39.273438 16.984375 L 40.28125 16.417969 L 41.285156 15.890625 L 42.285156 15.394531 L 43.28125 14.929688 L 44.273438 14.5 L 45.257812 14.105469 L 46.230469 13.738281 L 47.199219 13.40625 L 48.15625 13.101562 L 49.101562 12.828125 L 50.035156 12.582031 L 50.960938 12.363281 L 51.867188 12.175781 L 52.765625 12.011719 L 53.644531 11.875 L 54.507812 11.765625 L 55.359375 11.675781 L 56.191406 11.613281 L 57.003906 11.570312 L 151.3125 11.546875 L 152.050781 11.558594 L 152.820312 11.585938 L 153.644531 11.640625 L 154.484375 11.714844 L 155.339844 11.8125 L 156.214844 11.9375 L 157.101562 12.085938 L 158.003906 12.261719 L 158.917969 12.460938 L 159.847656 12.691406 L 160.785156 12.949219 L 161.738281 13.238281 L 162.699219 13.554688 L 163.671875 13.90625 L 164.652344 14.285156 L 165.636719 14.695312 L 166.628906 15.140625 L 167.628906 15.621094 L 168.628906 16.132812 L 169.636719 16.679688 L 170.644531 17.257812 L 171.652344 17.875 L 172.660156 18.527344 L 173.667969 19.21875 L 174.671875 19.941406 L 175.671875 20.703125 L 176.621094 21.464844 L 177.472656 22.1875 L 178.335938 22.953125 L 179.203125 23.769531 L 180.078125 24.632812 L 180.957031 25.542969 L 181.835938 26.507812 L 182.71875 27.519531 L 183.597656 28.582031 L 184.46875 29.695312 L 185.328125 30.855469 L 186.179688 32.0625 L 187.015625 33.320312 L 187.839844 34.621094 L 188.640625 35.96875 L 189.421875 37.363281 L 190.183594 38.804688 L 190.921875 40.289062 L 191.628906 41.816406 L 192.3125 43.390625 L 192.964844 45.003906 L 193.582031 46.660156 L 194.167969 48.355469 L 194.71875 50.089844 L 195.230469 51.859375 L 195.707031 53.667969 L 196.136719 55.511719 L 196.527344 57.390625 L 196.875 59.300781 L 197.175781 61.242188 L 197.433594 63.214844 L 197.636719 65.214844 L 197.796875 67.238281 L 197.902344 69.285156 L 150.984375 69.285156 L 150.65625 69.28125 L 150.332031 69.269531 L 150.019531 69.257812 L 149.726562 69.242188 L 149.4375 69.226562 L 148.875 69.179688 L 148.597656 69.152344 L 148.324219 69.125 L 148.054688 69.089844 L 147.789062 69.054688 L 147.53125 69.019531 L 147.273438 68.980469 L 146.773438 68.894531 L 146.289062 68.800781 L 146.054688 68.75 L 145.824219 68.695312 L 145.597656 68.644531 L 145.371094 68.585938 L 145.15625 68.53125 L 144.941406 68.472656 L 144.730469 68.410156 L 144.523438 68.351562 L 144.324219 68.289062 L 144.125 68.222656 L 143.933594 68.160156 L 143.742188 68.09375 L 143.558594 68.027344 L 143.378906 67.960938 L 143.203125 67.890625 L 143.03125 67.824219 L 142.863281 67.753906 L 142.699219 67.683594 L 142.539062 67.613281 L 142.234375 67.472656 L 141.945312 67.332031 L 141.671875 67.191406 L 141.542969 67.121094 L 141.417969 67.050781 L 141.296875 66.984375 L 141.175781 66.914062 L 141.0625 66.84375 L 140.953125 66.777344 L 140.847656 66.710938 L 140.644531 66.578125 L 140.550781 66.515625 L 140.460938 66.453125 L 140.289062 66.328125 L 140.210938 66.269531 L 140.136719 66.210938 L 140.0625 66.15625 Z M 139.992188 66.101562 "/>
<path style="fill:none;stroke-width:0.333333;stroke-linecap:square;stroke-linejoin:miter;stroke:rgb(0%,0%,0%);stroke-opacity:1;stroke-miterlimit:3.25;" d="M 141.085938 64.753906 L 139.992188 66.101562 "/>
<path style="fill:none;stroke-width:0.333333;stroke-linecap:square;stroke-linejoin:miter;stroke:rgb(0%,0%,0%);stroke-opacity:1;stroke-miterlimit:3.25;" d="M 112.207031 30.054688 L 111.828125 31.746094 "/>
<path style="fill:none;stroke-width:0.333333;stroke-linecap:square;stroke-linejoin:miter;stroke:rgb(0%,0%,0%);stroke-opacity:1;stroke-miterlimit:3.25;" d="M 97.242188 30.054688 L 97.621094 31.746094 "/>
<path style="fill:none;stroke-width:0.333333;stroke-linecap:square;stroke-linejoin:miter;stroke:rgb(0%,0%,0%);stroke-opacity:1;stroke-miterlimit:3.25;" d="M 68.363281 64.753906 L 69.457031 66.101562 "/>
<path style="fill:none;stroke-width:0.333333;stroke-linecap:square;stroke-linejoin:miter;stroke:rgb(0%,0%,0%);stroke-opacity:1;stroke-miterlimit:3.25;" d="M 150.25 67.535156 L 150.183594 69.265625 "/>
<path style="fill:none;stroke-width:0.333333;stroke-linecap:square;stroke-linejoin:miter;stroke:rgb(0%,0%,0%);stroke-opacity:1;stroke-miterlimit:3.25;" d="M 151.3125 67.554688 L 151.3125 69.285156 "/>
<path style="fill:none;stroke-width:0.333333;stroke-linecap:square;stroke-linejoin:miter;stroke:rgb(0%,0%,0%);stroke-opacity:1;stroke-miterlimit:3.25;" d="M 59.199219 67.535156 L 59.265625 69.265625 "/>
<path style="fill:none;stroke-width:0.333333;stroke-linecap:square;stroke-linejoin:miter;stroke:rgb(0%,0%,0%);stroke-opacity:1;stroke-miterlimit:3.25;" d="M 58.136719 67.554688 L 58.136719 69.285156 "/>
<path style="fill:none;stroke-width:0.333333;stroke-linecap:square;stroke-linejoin:miter;stroke:rgb(0%,0%,0%);stroke-opacity:1;stroke-miterlimit:3.25;" d="M 182.113281 29.503906 L 183.460938 28.414062 "/>
<path style="fill:none;stroke-width:0.333333;stroke-linecap:square;stroke-linejoin:miter;stroke:rgb(0%,0%,0%);stroke-opacity:1;stroke-miterlimit:3.25;" d="M 175.265625 22.597656 L 176.359375 21.25 "/>
<path style="fill:none;stroke-width:0.333333;stroke-linecap:square;stroke-linejoin:miter;stroke:rgb(0%,0%,0%);stroke-opacity:1;stroke-miterlimit:3.25;" d="M 152.375 13.300781 L 152.445312 11.570312 "/>
<path style="fill:none;stroke-width:0.333333;stroke-linecap:square;stroke-linejoin:miter;stroke:rgb(0%,0%,0%);stroke-opacity:1;stroke-miterlimit:3.25;" d="M 151.3125 13.28125 L 151.3125 11.546875 "/>
<path style="fill:none;stroke-width:0.333333;stroke-linecap:square;stroke-linejoin:miter;stroke:rgb(0%,0%,0%);stroke-opacity:1;stroke-miterlimit:3.25;" d="M 27.335938 29.503906 L 25.988281 28.414062 "/>
<path style="fill:none;stroke-width:0.333333;stroke-linecap:square;stroke-linejoin:miter;stroke:rgb(0%,0%,0%);stroke-opacity:1;stroke-miterlimit:3.25;" d="M 34.183594 22.597656 L 33.089844 21.25 "/>
<path style="fill:none;stroke-width:0.333333;stroke-linecap:square;stroke-linejoin:miter;stroke:rgb(0%,0%,0%);stroke-opacity:1;stroke-miterlimit:3.25;" d="M 57.074219 13.300781 L 57.003906 11.570312 "/>
<path style="fill:none;stroke-width:0.333333;stroke-linecap:square;stroke-linejoin:miter;stroke:rgb(0%,0%,0%);stroke-opacity:1;stroke-miterlimit:3.25;" d="M 58.136719 13.28125 L 58.136719 11.546875 "/>
<path style="fill:none;stroke-width:0.333333;stroke-linecap:square;stroke-linejoin:miter;stroke:rgb(0%,0%,0%);stroke-opacity:1;stroke-miterlimit:3.25;" d="M 196.675781 68.0625 L 197.902344 69.285156 "/>
<path style="fill:none;stroke-width:0.333333;stroke-linecap:square;stroke-linejoin:miter;stroke:rgb(0%,0%,0%);stroke-opacity:1;stroke-miterlimit:3.25;" d="M 12.773438 68.0625 L 11.546875 69.285156 "/>
<path style="fill:none;stroke-width:0.5;stroke-linecap:square;stroke-linejoin:miter;stroke:rgb(100%,0%,0%);stroke-opacity:1;stroke-miterlimit:3.25;" d="M 69.457031 66.101562 L 69.367188 66.171875 L 69.269531 66.246094 L 69.164062 66.324219 L 69.058594 66.40625 L 68.941406 66.484375 L 68.820312 66.570312 L 68.691406 66.652344 L 68.554688 66.742188 L 68.414062 66.828125 L 68.265625 66.917969 L 68.109375 67.007812 L 67.949219 67.097656 L 67.78125 67.191406 L 67.605469 67.28125 L 67.421875 67.375 L 67.230469 67.464844 L 67.035156 67.558594 L 66.832031 67.648438 L 66.617188 67.742188 L 66.398438 67.832031 L 66.175781 67.921875 L 65.941406 68.007812 L 65.703125 68.09375 L 65.453125 68.179688 L 65.199219 68.265625 L 64.9375 68.347656 L 64.667969 68.425781 L 64.390625 68.503906 L 64.109375 68.578125 L 63.816406 68.652344 L 63.519531 68.722656 L 63.210938 68.789062 L 62.898438 68.851562 L 62.582031 68.910156 L 62.253906 68.96875 L 61.917969 69.019531 L 61.578125 69.066406 L 61.230469 69.109375 L 60.875 69.152344 L 60.515625 69.183594 L 60.144531 69.214844 L 59.769531 69.238281 L 59.386719 69.257812 L 58.972656 69.273438 L 58.546875 69.285156 "/>
<path style="fill:none;stroke-width:0.5;stroke-linecap:square;stroke-linejoin:miter;stroke:rgb(100%,0%,0%);stroke-opacity:1;stroke-miterlimit:3.25;" d="M 151.3125 69.285156 L 150.984375 69.285156 L 150.65625 69.28125 L 150.332031 69.269531 L 150.019531 69.257812 L 149.726562 69.242188 L 149.4375 69.226562 L 148.875 69.179688 L 148.597656 69.152344 L 148.324219 69.125 L 148.054688 69.089844 L 147.789062 69.054688 L 147.53125 69.019531 L 147.273438 68.980469 L 146.773438 68.894531 L 146.289062 68.800781 L 146.054688 68.75 L 145.824219 68.695312 L 145.597656 68.644531 L 145.371094 68.585938 L 145.15625 68.53125 L 144.941406 68.472656 L 144.730469 68.410156 L 144.523438 68.351562 L 144.324219 68.289062 L 144.125 68.222656 L 143.933594 68.160156 L 143.742188 68.09375 L 143.558594 68.027344 L 143.378906 67.960938 L 143.203125 67.890625 L 143.03125 67.824219 L 142.863281 67.753906 L 142.699219 67.683594 L 142.539062 67.613281 L 142.234375 67.472656 L 141.945312 67.332031 L 141.671875 67.191406 L 141.542969 67.121094 L 141.417969 67.050781 L 141.296875 66.984375 L 141.175781 66.914062 L 141.0625 66.84375 L 140.953125 66.777344 L 140.847656 66.710938 L 140.644531 66.578125 L 140.550781 66.515625 L 140.460938 66.453125 L 140.289062 66.328125 L 140.210938 66.269531 L 140.136719 66.210938 L 140.0625 66.15625 L 139.992188 66.101562 "/>
<path style="fill:none;stroke-width:0.5;stroke-linecap:butt;stroke-linejoin:miter;stroke:rgb(0%,0%,100%);stroke-opacity:1;stroke-dasharray:0.680315;stroke-miterlimit:3.25;" d="M 140.164062 69.285156 L 140.164062 69.074219 L 140.160156 69.019531 L 140.160156 68.75 L 140.15625 68.699219 L 140.15625 68.589844 L 140.152344 68.539062 L 140.152344 68.429688 L 140.148438 68.378906 L 140.148438 68.324219 L 140.144531 68.273438 L 140.144531 68.21875 L 140.140625 68.164062 L 140.140625 68.113281 L 140.136719 68.058594 L 140.136719 68.003906 L 140.132812 67.953125 L 140.132812 67.898438 L 140.128906 67.84375 L 140.125 67.792969 L 140.125 67.738281 L 140.121094 67.6875 L 140.113281 67.578125 L 140.113281 67.527344 L 140.109375 67.472656 L 140.105469 67.421875 L 140.101562 67.367188 L 140.097656 67.316406 L 140.089844 67.207031 L 140.085938 67.15625 L 140.082031 67.101562 L 140.078125 67.050781 L 140.074219 66.996094 L 140.070312 66.945312 L 140.066406 66.890625 L 140.0625 66.839844 L 140.058594 66.785156 L 140.054688 66.734375 L 140.050781 66.679688 L 140.046875 66.628906 L 140.039062 66.574219 L 140.035156 66.523438 L 140.03125 66.46875 L 140.027344 66.417969 L 140.019531 66.363281 L 140.015625 66.3125 L 140.011719 66.257812 L 140.003906 66.207031 L 140 66.152344 L 139.992188 66.101562 "/>
<path style="fill:none;stroke-width:0.5;stroke-linecap:butt;stroke-linejoin:miter;stroke:rgb(0%,0%,100%);stroke-opacity:1;stroke-dasharray:0.680315;stroke-miterlimit:3.25;" d="M 69.457031 66.101562 L 69.449219 66.152344 L 69.445312 66.207031 L 69.441406 66.257812 L 69.433594 66.3125 L 69.429688 66.363281 L 69.425781 66.417969 L 69.417969 66.46875 L 69.414062 66.523438 L 69.410156 66.574219 L 69.40625 66.628906 L 69.398438 66.679688 L 69.394531 66.734375 L 69.390625 66.785156 L 69.386719 66.839844 L 69.382812 66.890625 L 69.378906 66.945312 L 69.375 66.996094 L 69.371094 67.050781 L 69.367188 67.101562 L 69.363281 67.15625 L 69.359375 67.207031 L 69.351562 67.316406 L 69.347656 67.367188 L 69.34375 67.421875 L 69.339844 67.472656 L 69.339844 67.527344 L 69.335938 67.578125 L 69.328125 67.6875 L 69.328125 67.738281 L 69.324219 67.792969 L 69.320312 67.84375 L 69.320312 67.898438 L 69.316406 67.953125 L 69.3125 68.003906 L 69.3125 68.058594 L 69.308594 68.113281 L 69.308594 68.164062 L 69.304688 68.21875 L 69.304688 68.273438 L 69.300781 68.324219 L 69.300781 68.429688 L 69.296875 68.484375 L 69.296875 68.539062 L 69.292969 68.589844 L 69.292969 68.75 L 69.289062 68.804688 L 69.289062 69.125 L 69.285156 69.179688 L 69.285156 69.285156 "/>
<path style="fill:none;stroke-width:0.5;stroke-linecap:square;stroke-linejoin:miter;stroke:rgb(0%,0%,100%);stroke-opacity:1;stroke-miterlimit:3.25;" d="M 139.992188 66.101562 L 139.730469 64.058594 L 139.378906 62.050781 L 138.9375 60.074219 L 138.414062 58.140625 L 137.808594 56.246094 L 137.121094 54.398438 L 136.355469 52.597656 L 135.511719 50.847656 L 134.59375 49.15625 L 133.605469 47.523438 L 132.546875 45.949219 L 131.417969 44.441406 L 130.230469 43 L 128.976562 41.628906 L 127.667969 40.328125 L 126.300781 39.105469 L 124.886719 37.957031 L 123.421875 36.890625 L 121.910156 35.90625 L 120.355469 35.003906 L 118.765625 34.1875 L 117.140625 33.457031 L 115.484375 32.816406 L 113.800781 32.265625 L 112.09375 31.808594 L 110.367188 31.445312 L 108.628906 31.175781 L 106.882812 31.007812 L 105.132812 30.933594 L 103.378906 30.960938 L 101.632812 31.085938 L 99.890625 31.308594 L 98.15625 31.625 L 96.441406 32.042969 L 94.746094 32.550781 L 93.078125 33.148438 L 91.4375 33.835938 L 89.828125 34.613281 L 88.257812 35.476562 L 86.726562 36.421875 L 85.242188 37.453125 L 83.800781 38.5625 L 82.410156 39.75 L 81.074219 41.015625 L 79.796875 42.351562 L 78.578125 43.761719 L 77.417969 45.238281 L 76.328125 46.78125 L 75.304688 48.390625 L 74.355469 50.054688 L 73.476562 51.777344 L 72.675781 53.554688 L 71.949219 55.378906 L 71.304688 57.253906 L 70.742188 59.167969 L 70.265625 61.125 L 69.875 63.121094 L 69.566406 65.148438 "/>
<path style=" stroke:none;fill-rule:evenodd;fill:rgb(0%,0%,100%);fill-opacity:1;" d="M 123.132812 36 C 123.132812 35.699219 123.015625 35.410156 122.800781 35.199219 C 122.589844 34.984375 122.300781 34.867188 122 34.867188 C 121.699219 34.867188 121.410156 34.984375 121.199219 35.199219 C 120.984375 35.410156 120.867188 35.699219 120.867188 36 C 120.867188 36.300781 120.984375 36.589844 121.199219 36.800781 C 121.410156 37.015625 121.699219 37.132812 122 37.132812 C 122.300781 37.132812 122.589844 37.015625 122.800781 36.800781 C 123.015625 36.589844 123.132812 36.300781 123.132812 36 Z M 123.132812 36 "/>
<path style=" stroke:none;fill-rule:evenodd;fill:rgb(0%,0%,0%);fill-opacity:1;" d="M 126.835938 32.753906 L 126.835938 32.4375 L 126.320312 32.4375 L 125.082031 30.941406 L 125.933594 29.96875 C 126.015625 29.871094 126.082031 29.8125 126.6875 29.8125 L 126.6875 29.496094 L 126.015625 29.511719 C 125.800781 29.511719 125.488281 29.511719 125.28125 29.496094 L 125.28125 29.8125 C 125.421875 29.8125 125.574219 29.851562 125.574219 29.902344 C 125.574219 29.902344 125.539062 29.96875 125.523438 29.980469 L 124.882812 30.699219 L 124.160156 29.8125 L 124.46875 29.8125 L 124.46875 29.496094 C 124.296875 29.511719 123.800781 29.511719 123.601562 29.511719 C 123.378906 29.511719 122.984375 29.511719 122.78125 29.496094 L 122.78125 29.8125 L 123.300781 29.8125 L 124.445312 31.207031 L 123.492188 32.285156 C 123.402344 32.386719 123.351562 32.4375 122.742188 32.4375 L 122.742188 32.753906 L 123.425781 32.738281 C 123.636719 32.738281 123.945312 32.738281 124.152344 32.753906 L 124.152344 32.4375 C 124.011719 32.4375 123.859375 32.402344 123.859375 32.351562 C 123.859375 32.351562 123.859375 32.335938 123.910156 32.277344 L 124.644531 31.449219 L 125.457031 32.4375 L 125.148438 32.4375 L 125.148438 32.753906 C 125.324219 32.738281 125.816406 32.738281 126.023438 32.738281 C 126.242188 32.738281 126.628906 32.738281 126.835938 32.753906 Z M 126.835938 32.753906 "/>
<path style=" stroke:none;fill-rule:evenodd;fill:rgb(0%,0%,0%);fill-opacity:1;" d="M 129.90625 32.648438 C 129.90625 32.414062 129.832031 32.230469 129.695312 32.089844 C 129.542969 31.921875 129.375 31.878906 129.132812 31.820312 L 128.671875 31.707031 C 128.515625 31.671875 128.230469 31.570312 128.230469 31.214844 C 128.230469 30.816406 128.660156 30.386719 129.179688 30.386719 C 129.636719 30.386719 129.953125 30.628906 129.953125 31.175781 C 129.953125 31.300781 129.933594 31.40625 129.933594 31.425781 C 129.933594 31.488281 129.980469 31.5 130.015625 31.5 C 130.078125 31.5 130.082031 31.476562 130.101562 31.394531 L 130.359375 30.371094 C 130.367188 30.351562 130.375 30.320312 130.375 30.296875 C 130.375 30.261719 130.347656 30.234375 130.3125 30.234375 C 130.273438 30.234375 130.265625 30.246094 130.207031 30.308594 C 130.152344 30.371094 130.019531 30.535156 129.964844 30.597656 C 129.765625 30.308594 129.445312 30.234375 129.183594 30.234375 C 128.476562 30.234375 127.871094 30.832031 127.871094 31.410156 C 127.871094 31.707031 128.027344 31.878906 128.054688 31.914062 C 128.222656 32.09375 128.371094 32.132812 128.734375 32.222656 C 128.914062 32.265625 128.925781 32.265625 129.074219 32.304688 C 129.21875 32.339844 129.546875 32.421875 129.546875 32.84375 C 129.546875 33.285156 129.109375 33.757812 128.574219 33.757812 C 128.242188 33.757812 127.636719 33.660156 127.636719 33.027344 C 127.636719 33.011719 127.636719 32.90625 127.667969 32.78125 L 127.671875 32.730469 C 127.671875 32.671875 127.617188 32.664062 127.597656 32.664062 C 127.527344 32.664062 127.523438 32.683594 127.5 32.800781 L 127.289062 33.632812 C 127.269531 33.707031 127.234375 33.847656 127.234375 33.863281 C 127.234375 33.902344 127.265625 33.929688 127.300781 33.929688 C 127.335938 33.929688 127.339844 33.921875 127.398438 33.855469 C 127.433594 33.816406 127.429688 33.816406 127.640625 33.570312 C 127.757812 33.722656 128.046875 33.929688 128.5625 33.929688 C 129.300781 33.929688 129.90625 33.261719 129.90625 32.648438 Z M 129.90625 32.648438 "/>
<path style=" stroke:none;fill-rule:evenodd;fill:rgb(0%,0%,0%);fill-opacity:1;" d="M 133.457031 33.59375 C 133.457031 33.558594 133.429688 33.539062 133.398438 33.539062 C 133.332031 33.539062 133.253906 33.550781 133.1875 33.550781 C 133.113281 33.550781 133.042969 33.554688 132.964844 33.554688 L 132.660156 33.550781 C 132.5625 33.550781 132.453125 33.539062 132.351562 33.539062 C 132.324219 33.539062 132.296875 33.539062 132.28125 33.5625 C 132.273438 33.574219 132.261719 33.617188 132.261719 33.632812 C 132.269531 33.683594 132.296875 33.683594 132.417969 33.683594 C 132.488281 33.683594 132.5625 33.6875 132.632812 33.691406 C 132.753906 33.703125 132.757812 33.71875 132.757812 33.757812 C 132.757812 33.78125 132.691406 34.027344 132.683594 34.074219 C 132.664062 34.152344 132.628906 34.296875 132.386719 34.398438 C 132.171875 34.484375 131.929688 34.484375 131.882812 34.484375 C 131.460938 34.484375 130.972656 34.289062 130.972656 33.675781 C 130.972656 33.433594 131.0625 32.941406 131.429688 32.550781 C 131.550781 32.425781 131.933594 32.117188 132.457031 32.117188 C 132.921875 32.117188 133.175781 32.445312 133.175781 32.84375 C 133.175781 32.902344 133.167969 32.976562 133.167969 32.976562 C 133.167969 33.03125 133.222656 33.03125 133.238281 33.03125 C 133.289062 33.03125 133.304688 33.027344 133.324219 32.953125 L 133.539062 32.078125 C 133.546875 32.046875 133.550781 32.023438 133.550781 32.023438 C 133.550781 32.023438 133.546875 31.972656 133.496094 31.972656 C 133.464844 31.972656 133.464844 31.976562 133.425781 32.015625 L 133.1875 32.265625 L 133.152344 32.296875 C 133.152344 32.296875 133.144531 32.289062 133.132812 32.285156 C 133.042969 32.175781 132.84375 31.972656 132.417969 31.972656 C 131.492188 31.972656 130.589844 32.746094 130.589844 33.578125 C 130.589844 34.160156 131.046875 34.632812 131.796875 34.632812 C 132.066406 34.632812 132.464844 34.585938 132.699219 34.347656 C 132.722656 34.398438 132.828125 34.554688 132.882812 34.554688 C 132.898438 34.554688 132.917969 34.542969 132.925781 34.53125 C 132.9375 34.503906 133.039062 34.097656 133.054688 34.019531 L 133.105469 33.832031 C 133.140625 33.6875 133.152344 33.6875 133.363281 33.683594 C 133.402344 33.683594 133.457031 33.683594 133.457031 33.59375 Z M 133.457031 33.59375 "/>
<path style=" stroke:none;fill-rule:evenodd;fill:rgb(0%,0%,0%);fill-opacity:1;" d="M 136.792969 34.535156 C 136.792969 34.515625 136.792969 34.5 136.667969 34.375 C 135.933594 33.632812 135.523438 32.425781 135.523438 30.925781 C 135.523438 29.503906 135.867188 28.28125 136.71875 27.414062 C 136.792969 27.347656 136.792969 27.335938 136.792969 27.3125 C 136.792969 27.269531 136.757812 27.253906 136.726562 27.253906 C 136.632812 27.253906 136.03125 27.78125 135.671875 28.5 C 135.296875 29.242188 135.128906 30.027344 135.128906 30.925781 C 135.128906 31.582031 135.230469 32.453125 135.613281 33.238281 C 136.042969 34.117188 136.644531 34.597656 136.726562 34.597656 C 136.757812 34.597656 136.792969 34.582031 136.792969 34.535156 Z M 136.792969 34.535156 "/>
<path style=" stroke:none;fill-rule:evenodd;fill:rgb(0%,0%,0%);fill-opacity:1;" d="M 139.4375 31.707031 C 139.4375 31.660156 139.410156 31.640625 139.363281 31.640625 C 139.363281 31.640625 139.320312 31.640625 139.304688 31.667969 C 139.304688 31.667969 139.292969 31.683594 139.242188 31.800781 C 139.085938 32.167969 138.75 32.679688 138.324219 32.679688 C 138.101562 32.679688 138.089844 32.5 138.089844 32.335938 C 138.089844 32.335938 138.089844 32.191406 138.109375 32.101562 L 138.683594 29.804688 L 139.355469 29.804688 C 139.496094 29.804688 139.570312 29.804688 139.570312 29.671875 C 139.570312 29.59375 139.527344 29.59375 139.378906 29.59375 L 138.734375 29.59375 L 139.003906 28.523438 C 139.035156 28.417969 139.035156 28.40625 139.035156 28.355469 C 139.035156 28.238281 138.941406 28.171875 138.84375 28.171875 C 138.785156 28.171875 138.617188 28.191406 138.558594 28.425781 L 138.273438 29.59375 L 137.582031 29.59375 C 137.4375 29.59375 137.371094 29.59375 137.371094 29.734375 C 137.371094 29.804688 137.421875 29.804688 137.5625 29.804688 L 138.214844 29.804688 L 137.730469 31.742188 C 137.671875 32 137.648438 32.070312 137.648438 32.167969 C 137.648438 32.511719 137.890625 32.828125 138.300781 32.828125 C 139.042969 32.828125 139.4375 31.757812 139.4375 31.707031 Z M 139.4375 31.707031 "/>
<path style=" stroke:none;fill-rule:evenodd;fill:rgb(0%,0%,0%);fill-opacity:1;" d="M 141.808594 30.925781 C 141.808594 30.371094 141.734375 29.460938 141.324219 28.609375 C 140.894531 27.730469 140.292969 27.253906 140.210938 27.253906 C 140.183594 27.253906 140.144531 27.269531 140.144531 27.3125 C 140.144531 27.335938 140.144531 27.347656 140.269531 27.472656 C 141.003906 28.214844 141.414062 29.425781 141.414062 30.921875 C 141.414062 32.34375 141.070312 33.570312 140.21875 34.433594 C 140.144531 34.5 140.144531 34.515625 140.144531 34.535156 C 140.144531 34.582031 140.183594 34.597656 140.210938 34.597656 C 140.304688 34.597656 140.90625 34.066406 141.265625 33.347656 C 141.640625 32.601562 141.808594 31.808594 141.808594 30.925781 Z M 141.808594 30.925781 "/>
<g clip-path="url(#clip78)" clip-rule="nonzero">
<path style="fill:none;stroke-width:0.333333;stroke-linecap:square;stroke-linejoin:miter;stroke:rgb(0%,0%,0%);stroke-opacity:1;stroke-miterlimit:3.25;" d="M -226.773438 69.285156 L 453.570312 69.285156 "/>
<path style="fill:none;stroke-width:0.333333;stroke-linecap:square;stroke-linejoin:miter;stroke:rgb(0%,0%,0%);stroke-opacity:1;stroke-miterlimit:3.25;" d="M -226.773438 69.285156 L 453.570312 69.285156 "/>
</g>
<path style=" stroke:none;fill-rule:evenodd;fill:rgb(0%,0%,0%);fill-opacity:1;" d="M 210.375 63.261719 C 210.382812 63.222656 210.394531 63.179688 210.394531 63.136719 C 210.394531 63.027344 210.308594 62.953125 210.199219 62.953125 C 210.132812 62.953125 209.980469 62.984375 209.917969 63.203125 L 209.375 65.359375 C 209.339844 65.492188 209.339844 65.503906 209.28125 65.585938 C 209.136719 65.792969 208.894531 66.042969 208.542969 66.042969 C 208.128906 66.042969 208.09375 65.636719 208.09375 65.441406 C 208.09375 65.023438 208.292969 64.457031 208.488281 63.929688 C 208.570312 63.714844 208.613281 63.613281 208.613281 63.464844 C 208.613281 63.160156 208.394531 62.878906 208.035156 62.878906 C 207.359375 62.878906 207.089844 63.941406 207.089844 64.003906 C 207.089844 64.03125 207.117188 64.066406 207.167969 64.066406 C 207.234375 64.066406 207.242188 64.039062 207.273438 63.933594 C 207.449219 63.320312 207.726562 63.027344 208.011719 63.027344 C 208.078125 63.027344 208.203125 63.027344 208.203125 63.269531 C 208.203125 63.460938 208.121094 63.671875 208.011719 63.949219 C 207.652344 64.910156 207.652344 65.152344 207.652344 65.328125 C 207.652344 66.027344 208.152344 66.1875 208.519531 66.1875 C 208.730469 66.1875 208.996094 66.121094 209.253906 65.851562 L 209.261719 65.859375 C 209.148438 66.289062 209.078125 66.578125 208.820312 66.9375 C 208.621094 67.214844 208.335938 67.464844 207.976562 67.464844 C 207.886719 67.464844 207.535156 67.449219 207.425781 67.113281 C 207.449219 67.121094 207.5 67.121094 207.5 67.121094 C 207.71875 67.121094 207.867188 66.929688 207.867188 66.761719 C 207.867188 66.589844 207.726562 66.53125 207.617188 66.53125 C 207.5 66.53125 207.242188 66.621094 207.242188 66.980469 C 207.242188 67.355469 207.558594 67.609375 207.976562 67.609375 C 208.710938 67.609375 209.449219 66.9375 209.65625 66.121094 Z M 210.375 63.261719 "/>
<path style=" stroke:none;fill-rule:evenodd;fill:rgb(0%,0%,0%);fill-opacity:1;" d="M 217.875 63.605469 C 217.875 63.464844 217.75 63.464844 217.640625 63.464844 L 213.320312 63.464844 C 213.21875 63.464844 213.085938 63.464844 213.085938 63.597656 C 213.085938 63.738281 213.210938 63.738281 213.320312 63.738281 L 217.640625 63.738281 C 217.742188 63.738281 217.875 63.738281 217.875 63.605469 Z M 217.875 64.96875 C 217.875 64.832031 217.75 64.832031 217.640625 64.832031 L 213.320312 64.832031 C 213.21875 64.832031 213.085938 64.832031 213.085938 64.960938 C 213.085938 65.101562 213.210938 65.101562 213.320312 65.101562 L 217.640625 65.101562 C 217.742188 65.101562 217.875 65.101562 217.875 64.96875 Z M 217.875 64.96875 "/>
<path style=" stroke:none;fill-rule:evenodd;fill:rgb(0%,0%,0%);fill-opacity:1;" d="M 223.574219 63.765625 C 223.574219 63.160156 223.539062 62.566406 223.273438 62.007812 C 222.972656 61.398438 222.445312 61.238281 222.085938 61.238281 C 221.660156 61.238281 221.140625 61.449219 220.867188 62.058594 C 220.664062 62.519531 220.589844 62.976562 220.589844 63.765625 C 220.589844 64.480469 220.640625 65.015625 220.90625 65.535156 C 221.191406 66.09375 221.699219 66.269531 222.078125 66.269531 C 222.71875 66.269531 223.082031 65.886719 223.296875 65.460938 C 223.5625 64.910156 223.574219 64.191406 223.574219 63.765625 Z M 223.019531 63.679688 C 223.019531 64.171875 223.019531 64.726562 222.9375 65.175781 C 222.796875 65.980469 222.335938 66.121094 222.078125 66.121094 C 221.84375 66.121094 221.367188 65.988281 221.226562 65.191406 C 221.148438 64.75 221.148438 64.191406 221.148438 63.679688 C 221.148438 63.078125 221.148438 62.535156 221.265625 62.101562 C 221.390625 61.609375 221.761719 61.382812 222.078125 61.382812 C 222.359375 61.382812 222.78125 61.550781 222.921875 62.183594 C 223.019531 62.601562 223.019531 63.179688 223.019531 63.679688 Z M 223.019531 63.679688 "/>
<g clip-path="url(#clip79)" clip-rule="nonzero">
<path style="fill:none;stroke-width:0.333333;stroke-linecap:square;stroke-linejoin:miter;stroke:rgb(0%,0%,0%);stroke-opacity:1;stroke-miterlimit:3.25;" d="M -226.773438 11.546875 L 453.570312 11.546875 "/>
<path style="fill:none;stroke-width:0.333333;stroke-linecap:square;stroke-linejoin:miter;stroke:rgb(0%,0%,0%);stroke-opacity:1;stroke-miterlimit:3.25;" d="M -226.773438 11.546875 L 453.570312 11.546875 "/>
</g>
<path style=" stroke:none;fill-rule:evenodd;fill:rgb(0%,0%,0%);fill-opacity:1;" d="M 210.375 5.523438 C 210.382812 5.484375 210.394531 5.441406 210.394531 5.398438 C 210.394531 5.289062 210.308594 5.214844 210.199219 5.214844 C 210.132812 5.214844 209.980469 5.242188 209.917969 5.464844 L 209.375 7.621094 C 209.339844 7.75 209.339844 7.765625 209.28125 7.847656 C 209.136719 8.050781 208.894531 8.300781 208.542969 8.300781 C 208.128906 8.300781 208.09375 7.898438 208.09375 7.699219 C 208.09375 7.28125 208.292969 6.71875 208.488281 6.1875 C 208.570312 5.976562 208.613281 5.875 208.613281 5.726562 C 208.613281 5.417969 208.394531 5.140625 208.035156 5.140625 C 207.359375 5.140625 207.089844 6.203125 207.089844 6.261719 C 207.089844 6.292969 207.117188 6.328125 207.167969 6.328125 C 207.234375 6.328125 207.242188 6.300781 207.273438 6.195312 C 207.449219 5.582031 207.726562 5.289062 208.011719 5.289062 C 208.078125 5.289062 208.203125 5.289062 208.203125 5.53125 C 208.203125 5.71875 208.121094 5.933594 208.011719 6.210938 C 207.652344 7.171875 207.652344 7.414062 207.652344 7.589844 C 207.652344 8.285156 208.152344 8.449219 208.519531 8.449219 C 208.730469 8.449219 208.996094 8.382812 209.253906 8.109375 L 209.261719 8.121094 C 209.148438 8.550781 209.078125 8.835938 208.820312 9.195312 C 208.621094 9.476562 208.335938 9.726562 207.976562 9.726562 C 207.886719 9.726562 207.535156 9.710938 207.425781 9.375 C 207.449219 9.378906 207.5 9.378906 207.5 9.378906 C 207.71875 9.378906 207.867188 9.191406 207.867188 9.019531 C 207.867188 8.851562 207.726562 8.792969 207.617188 8.792969 C 207.5 8.792969 207.242188 8.882812 207.242188 9.242188 C 207.242188 9.613281 207.558594 9.871094 207.976562 9.871094 C 208.710938 9.871094 209.449219 9.195312 209.65625 8.382812 Z M 210.375 5.523438 "/>
<path style=" stroke:none;fill-rule:evenodd;fill:rgb(0%,0%,0%);fill-opacity:1;" d="M 217.875 5.867188 C 217.875 5.726562 217.75 5.726562 217.640625 5.726562 L 213.320312 5.726562 C 213.21875 5.726562 213.085938 5.726562 213.085938 5.859375 C 213.085938 6 213.210938 6 213.320312 6 L 217.640625 6 C 217.742188 6 217.875 6 217.875 5.867188 Z M 217.875 7.230469 C 217.875 7.09375 217.75 7.09375 217.640625 7.09375 L 213.320312 7.09375 C 213.21875 7.09375 213.085938 7.09375 213.085938 7.222656 C 213.085938 7.363281 213.210938 7.363281 213.320312 7.363281 L 217.640625 7.363281 C 217.742188 7.363281 217.875 7.363281 217.875 7.230469 Z M 217.875 7.230469 "/>
<path style=" stroke:none;fill-rule:evenodd;fill:rgb(0%,0%,0%);fill-opacity:1;" d="M 223.296875 8.375 L 223.296875 8.164062 L 223.070312 8.164062 C 222.421875 8.164062 222.402344 8.074219 222.402344 7.8125 L 222.402344 3.671875 C 222.402344 3.503906 222.402344 3.496094 222.253906 3.496094 C 222.078125 3.695312 221.710938 3.96875 220.957031 3.96875 L 220.957031 4.179688 C 221.125 4.179688 221.492188 4.179688 221.894531 3.988281 L 221.894531 7.8125 C 221.894531 8.074219 221.875 8.164062 221.226562 8.164062 L 221 8.164062 L 221 8.375 C 221.199219 8.359375 221.910156 8.359375 222.152344 8.359375 C 222.394531 8.359375 223.097656 8.359375 223.296875 8.375 Z M 223.296875 8.375 "/>
</g>
</svg>
