<?xml version="1.0" encoding="UTF-8"?>
<svg xmlns="http://www.w3.org/2000/svg" xmlns:xlink="http://www.w3.org/1999/xlink" width="404pt" height="156pt" viewBox="0 0 404 156" version="1.1">
<g id="surface133">
<path style="fill-rule:nonzero;fill:rgb(100%,100%,86.999313%);fill-opacity:1;stroke-width:1;stroke-linecap:square;stroke-linejoin:miter;stroke:rgb(0%,0%,0%);stroke-opacity:1;stroke-miterlimit:3.25;" d="M 270.027344 127.5 L 269.519531 123.5625 L 268.839844 119.6875 L 267.992188 115.878906 L 266.984375 112.144531 L 265.816406 108.488281 L 264.488281 104.925781 L 263.011719 101.453125 L 261.386719 98.082031 L 259.617188 94.816406 L 257.707031 91.664062 L 255.664062 88.632812 L 253.492188 85.722656 L 251.195312 82.941406 L 248.78125 80.296875 L 246.253906 77.789062 L 243.621094 75.429688 L 240.886719 73.214844 L 238.058594 71.15625 L 235.144531 69.257812 L 232.152344 67.515625 L 229.082031 65.941406 L 225.945312 64.535156 L 222.75 63.300781 L 219.503906 62.238281 L 216.210938 61.351562 L 212.882812 60.652344 L 209.53125 60.136719 L 206.164062 59.808594 L 202.785156 59.671875 L 199.40625 59.71875 L 196.035156 59.960938 L 192.671875 60.386719 L 189.332031 61.003906 L 186.023438 61.804688 L 182.753906 62.785156 L 179.53125 63.9375 L 176.367188 65.265625 L 173.269531 66.761719 L 170.238281 68.425781 L 167.285156 70.253906 L 164.417969 72.238281 L 161.640625 74.378906 L 158.957031 76.671875 L 156.382812 79.113281 L 153.914062 81.691406 L 151.5625 84.410156 L 149.332031 87.261719 L 147.226562 90.238281 L 145.257812 93.335938 L 143.421875 96.546875 L 141.726562 99.871094 L 140.179688 103.296875 L 138.78125 106.820312 L 137.539062 110.433594 L 136.457031 114.128906 L 135.53125 117.90625 L 134.777344 121.75 L 134.1875 125.660156 L 133.972656 127.5 L 133.796875 127.636719 L 133.609375 127.78125 L 133.410156 127.929688 L 133.203125 128.085938 L 132.980469 128.242188 L 132.742188 128.402344 L 132.496094 128.566406 L 132.234375 128.734375 L 131.960938 128.902344 L 131.675781 129.074219 L 131.375 129.25 L 131.0625 129.421875 L 130.738281 129.601562 L 130.398438 129.777344 L 130.046875 129.953125 L 129.679688 130.132812 L 129.300781 130.308594 L 128.90625 130.484375 L 128.5 130.660156 L 128.078125 130.835938 L 127.640625 131.007812 L 127.191406 131.179688 L 126.730469 131.347656 L 126.25 131.511719 L 125.761719 131.675781 L 125.253906 131.832031 L 124.734375 131.984375 L 124.203125 132.136719 L 123.65625 132.28125 L 123.09375 132.421875 L 122.519531 132.554688 L 121.929688 132.683594 L 121.324219 132.804688 L 120.707031 132.921875 L 120.078125 133.027344 L 119.433594 133.128906 L 118.777344 133.222656 L 118.105469 133.304688 L 117.421875 133.382812 L 116.722656 133.449219 L 116.011719 133.507812 L 115.289062 133.554688 L 114.550781 133.59375 L 113.753906 133.621094 L 112.925781 133.640625 L 22.273438 133.644531 L 22.355469 131.800781 L 22.609375 127.871094 L 22.957031 123.988281 L 23.398438 120.15625 L 23.929688 116.382812 L 24.554688 112.664062 L 25.261719 109.007812 L 26.054688 105.414062 L 26.925781 101.890625 L 27.875 98.433594 L 28.898438 95.046875 L 29.992188 91.738281 L 31.152344 88.503906 L 32.378906 85.347656 L 33.664062 82.273438 L 35.003906 79.277344 L 36.394531 76.371094 L 37.839844 73.546875 L 39.324219 70.808594 L 40.855469 68.160156 L 42.417969 65.601562 L 44.015625 63.128906 L 45.644531 60.75 L 47.296875 58.464844 L 48.96875 56.269531 L 50.65625 54.164062 L 52.351562 52.160156 L 54.050781 50.25 L 55.75 48.441406 L 57.441406 46.726562 L 59.121094 45.105469 L 60.792969 43.574219 L 62.445312 42.136719 L 64.125 40.75 L 66.050781 39.242188 L 67.984375 37.808594 L 69.921875 36.441406 L 71.867188 35.144531 L 73.8125 33.917969 L 75.757812 32.761719 L 77.699219 31.671875 L 79.636719 30.648438 L 81.566406 29.691406 L 83.484375 28.796875 L 85.394531 27.96875 L 87.292969 27.203125 L 89.175781 26.5 L 91.039062 25.855469 L 92.886719 25.269531 L 94.710938 24.742188 L 96.515625 24.269531 L 98.292969 23.851562 L 100.046875 23.484375 L 101.773438 23.171875 L 103.472656 22.910156 L 105.140625 22.691406 L 106.777344 22.523438 L 108.382812 22.398438 L 109.957031 22.316406 L 291.863281 22.273438 L 293.285156 22.292969 L 294.769531 22.351562 L 296.359375 22.453125 L 297.980469 22.597656 L 299.632812 22.789062 L 301.3125 23.023438 L 303.027344 23.3125 L 304.765625 23.648438 L 306.53125 24.039062 L 308.324219 24.480469 L 310.136719 24.980469 L 311.972656 25.535156 L 313.828125 26.148438 L 315.699219 26.820312 L 317.589844 27.554688 L 319.492188 28.347656 L 321.40625 29.207031 L 323.332031 30.128906 L 325.265625 31.117188 L 327.203125 32.171875 L 329.148438 33.292969 L 331.09375 34.480469 L 333.039062 35.738281 L 334.980469 37.066406 L 336.917969 38.464844 L 338.847656 39.9375 L 340.675781 41.40625 L 342.320312 42.796875 L 343.980469 44.273438 L 345.660156 45.847656 L 347.347656 47.511719 L 349.039062 49.269531 L 350.738281 51.125 L 352.4375 53.078125 L 354.128906 55.132812 L 355.8125 57.277344 L 357.476562 59.515625 L 359.117188 61.847656 L 360.730469 64.269531 L 362.3125 66.78125 L 363.863281 69.382812 L 365.371094 72.070312 L 366.839844 74.847656 L 368.257812 77.710938 L 369.628906 80.660156 L 370.941406 83.691406 L 372.199219 86.804688 L 373.394531 89.996094 L 374.523438 93.269531 L 375.585938 96.613281 L 376.574219 100.03125 L 377.488281 103.519531 L 378.324219 107.078125 L 379.078125 110.699219 L 379.746094 114.386719 L 380.328125 118.128906 L 380.820312 121.933594 L 381.21875 125.785156 L 381.519531 129.691406 L 381.726562 133.644531 L 291.863281 133.644531 L 291.230469 133.640625 L 290.597656 133.628906 L 289.964844 133.613281 L 289.367188 133.589844 L 288.804688 133.558594 L 288.246094 133.523438 L 287.699219 133.484375 L 287.15625 133.4375 L 286.621094 133.386719 L 286.097656 133.328125 L 285.578125 133.265625 L 285.066406 133.199219 L 284.566406 133.128906 L 284.070312 133.050781 L 283.585938 132.972656 L 283.105469 132.886719 L 282.636719 132.796875 L 282.171875 132.703125 L 281.71875 132.605469 L 281.273438 132.507812 L 280.835938 132.402344 L 280.402344 132.296875 L 279.984375 132.1875 L 279.570312 132.074219 L 279.164062 131.957031 L 278.765625 131.839844 L 278.378906 131.71875 L 277.996094 131.59375 L 277.625 131.46875 L 277.261719 131.34375 L 276.90625 131.214844 L 276.558594 131.085938 L 276.21875 130.953125 L 275.886719 130.820312 L 275.5625 130.6875 L 275.25 130.554688 L 274.941406 130.417969 L 274.640625 130.28125 L 274.351562 130.148438 L 274.070312 130.011719 L 273.792969 129.875 L 273.527344 129.738281 L 273.269531 129.601562 L 273.019531 129.46875 L 272.773438 129.332031 L 272.539062 129.199219 L 272.3125 129.066406 L 272.089844 128.9375 L 271.878906 128.804688 L 271.675781 128.675781 L 271.476562 128.550781 L 271.289062 128.421875 L 271.105469 128.300781 L 270.929688 128.179688 L 270.761719 128.058594 L 270.601562 127.941406 L 270.449219 127.828125 L 270.300781 127.714844 L 270.160156 127.605469 Z M 270.027344 127.5 "/>
<path style="fill:none;stroke-width:1;stroke-linecap:butt;stroke-linejoin:miter;stroke:rgb(100%,50.000763%,0%);stroke-opacity:1;stroke-miterlimit:3.25;" d="M 112.925781 133.640625 L 113.753906 133.621094 L 114.550781 133.59375 L 115.289062 133.554688 L 116.011719 133.507812 L 116.722656 133.449219 L 117.421875 133.382812 L 118.105469 133.304688 L 118.777344 133.222656 L 119.433594 133.128906 L 120.078125 133.027344 L 120.707031 132.921875 L 121.324219 132.804688 L 121.929688 132.683594 L 122.519531 132.554688 L 123.09375 132.421875 L 123.65625 132.28125 L 124.203125 132.136719 L 124.734375 131.984375 L 125.253906 131.832031 L 125.761719 131.675781 L 126.25 131.511719 L 126.730469 131.347656 L 127.191406 131.179688 L 127.640625 131.007812 L 128.078125 130.835938 L 128.5 130.660156 L 128.90625 130.484375 L 129.300781 130.308594 L 129.679688 130.132812 L 130.046875 129.953125 L 130.398438 129.777344 L 130.738281 129.601562 L 131.0625 129.421875 L 131.375 129.25 L 131.675781 129.074219 L 131.960938 128.902344 L 132.234375 128.734375 L 132.496094 128.566406 L 132.742188 128.402344 L 132.980469 128.242188 L 133.203125 128.085938 L 133.410156 127.929688 L 133.609375 127.78125 L 133.796875 127.636719 L 133.972656 127.5 "/>
<path style=" stroke:none;fill-rule:nonzero;fill:rgb(100%,50.000763%,0%);fill-opacity:1;" d="M 117.949219 132.472656 L 118.269531 132.71875 L 119.007812 133.320312 L 119.429688 133.695312 L 119.824219 134.085938 L 120.15625 134.46875 L 120.382812 134.820312 L 120.511719 135.171875 L 120.617188 135.660156 L 120.703125 136.230469 L 120.769531 136.820312 L 120.851562 137.84375 L 120.871094 138.285156 L 130.207031 129.875 Z M 117.949219 132.472656 "/>
<path style=" stroke:none;fill-rule:evenodd;fill:rgb(100%,50.000763%,0%);fill-opacity:1;" d="M 125.523438 122.878906 C 125.523438 120.394531 123.847656 119.039062 121.78125 119.039062 L 117.148438 119.039062 L 117.148438 119.511719 L 118.3125 119.511719 L 118.3125 126.117188 L 117.148438 126.117188 L 117.148438 126.589844 L 121.78125 126.589844 C 123.894531 126.589844 125.523438 125.234375 125.523438 122.878906 Z M 124.027344 122.871094 C 124.027344 124.15625 123.859375 124.730469 123.476562 125.246094 C 123.089844 125.753906 122.351562 126.117188 121.363281 126.117188 L 119.710938 126.117188 L 119.710938 119.511719 L 121.363281 119.511719 C 122.320312 119.511719 123.089844 119.886719 123.496094 120.457031 C 123.816406 120.910156 124.027344 121.449219 124.027344 122.871094 Z M 124.027344 122.871094 "/>
<path style="fill:none;stroke-width:1;stroke-linecap:butt;stroke-linejoin:miter;stroke:rgb(0%,0%,100%);stroke-opacity:1;stroke-miterlimit:3.25;" d="M 270.027344 127.5 L 269.519531 123.5625 L 268.839844 119.6875 L 267.992188 115.878906 L 266.984375 112.144531 L 265.816406 108.488281 L 264.488281 104.925781 L 263.011719 101.453125 L 261.386719 98.082031 L 259.617188 94.816406 L 257.707031 91.664062 L 255.664062 88.632812 L 253.492188 85.722656 L 251.195312 82.941406 L 248.78125 80.296875 L 246.253906 77.789062 L 243.621094 75.429688 L 240.886719 73.214844 L 238.058594 71.15625 L 235.144531 69.257812 L 232.152344 67.515625 L 229.082031 65.941406 L 225.945312 64.535156 L 222.75 63.300781 L 219.503906 62.238281 L 216.210938 61.351562 L 212.882812 60.652344 L 209.53125 60.136719 L 206.164062 59.808594 L 202.785156 59.671875 L 199.40625 59.71875 L 196.035156 59.960938 L 192.671875 60.386719 L 189.332031 61.003906 L 186.023438 61.804688 L 182.753906 62.785156 L 179.53125 63.9375 L 176.367188 65.265625 L 173.269531 66.761719 L 170.238281 68.425781 L 167.285156 70.253906 L 164.417969 72.238281 L 161.640625 74.378906 L 158.957031 76.671875 L 156.382812 79.113281 L 153.914062 81.691406 L 151.5625 84.410156 L 149.332031 87.261719 L 147.226562 90.238281 L 145.257812 93.335938 L 143.421875 96.546875 L 141.726562 99.871094 L 140.179688 103.296875 L 138.78125 106.820312 L 137.539062 110.433594 L 136.457031 114.128906 L 135.53125 117.90625 L 134.777344 121.75 L 134.1875 125.660156 "/>
<path style=" stroke:none;fill-rule:nonzero;fill:rgb(0%,0%,100%);fill-opacity:1;" d="M 207.027344 61.777344 L 206.804688 61.4375 L 206.308594 60.625 L 206.039062 60.128906 L 205.792969 59.628906 L 205.609375 59.15625 L 205.515625 58.753906 L 205.507812 58.375 L 205.570312 57.878906 L 205.679688 57.316406 L 205.8125 56.738281 L 206.078125 55.746094 L 206.207031 55.320312 L 194.601562 60.140625 Z M 207.027344 61.777344 "/>
<path style=" stroke:none;fill-rule:evenodd;fill:rgb(0%,0%,100%);fill-opacity:1;" d="M 205.820312 69.910156 L 205.820312 69.4375 L 205.046875 69.4375 L 203.1875 67.191406 L 204.464844 65.726562 C 204.585938 65.585938 204.6875 65.496094 205.597656 65.496094 L 205.597656 65.023438 L 204.585938 65.046875 C 204.265625 65.046875 203.796875 65.046875 203.484375 65.023438 L 203.484375 65.496094 C 203.695312 65.496094 203.925781 65.550781 203.925781 65.628906 C 203.925781 65.628906 203.871094 65.726562 203.851562 65.75 L 202.890625 66.828125 L 201.804688 65.496094 L 202.265625 65.496094 L 202.265625 65.023438 C 202.011719 65.046875 201.265625 65.046875 200.96875 65.046875 C 200.636719 65.046875 200.042969 65.046875 199.734375 65.023438 L 199.734375 65.496094 L 200.515625 65.496094 L 202.234375 67.585938 L 200.800781 69.203125 C 200.671875 69.359375 200.59375 69.4375 199.679688 69.4375 L 199.679688 69.910156 L 200.703125 69.886719 C 201.023438 69.886719 201.484375 69.886719 201.792969 69.910156 L 201.792969 69.4375 C 201.582031 69.4375 201.351562 69.382812 201.351562 69.304688 C 201.351562 69.304688 201.351562 69.28125 201.429688 69.195312 L 202.53125 67.949219 L 203.75 69.4375 L 203.289062 69.4375 L 203.289062 69.910156 C 203.554688 69.886719 204.289062 69.886719 204.597656 69.886719 C 204.929688 69.886719 205.511719 69.886719 205.820312 69.910156 Z M 205.820312 69.910156 "/>
<path style="fill:none;stroke-width:1;stroke-linecap:butt;stroke-linejoin:miter;stroke:rgb(100%,50.000763%,0%);stroke-opacity:1;stroke-miterlimit:3.25;" d="M 270.027344 127.5 L 270.160156 127.605469 L 270.300781 127.714844 L 270.449219 127.828125 L 270.601562 127.941406 L 270.761719 128.058594 L 270.929688 128.179688 L 271.105469 128.300781 L 271.289062 128.421875 L 271.476562 128.550781 L 271.675781 128.675781 L 271.878906 128.804688 L 272.089844 128.9375 L 272.3125 129.066406 L 272.539062 129.199219 L 272.773438 129.332031 L 273.019531 129.46875 L 273.269531 129.601562 L 273.527344 129.738281 L 273.792969 129.875 L 274.070312 130.011719 L 274.351562 130.148438 L 274.640625 130.28125 L 274.941406 130.417969 L 275.25 130.554688 L 275.5625 130.6875 L 275.886719 130.820312 L 276.21875 130.953125 L 276.558594 131.085938 L 276.90625 131.214844 L 277.261719 131.34375 L 277.625 131.46875 L 277.996094 131.59375 L 278.378906 131.71875 L 278.765625 131.839844 L 279.164062 131.957031 L 279.570312 132.074219 L 279.984375 132.1875 L 280.402344 132.296875 L 280.835938 132.402344 L 281.273438 132.507812 L 281.71875 132.605469 L 282.171875 132.703125 L 282.636719 132.796875 L 283.105469 132.886719 L 283.585938 132.972656 L 284.070312 133.050781 L 284.566406 133.128906 L 285.066406 133.199219 L 285.578125 133.265625 L 286.097656 133.328125 L 286.621094 133.386719 L 287.15625 133.4375 L 287.699219 133.484375 L 288.246094 133.523438 L 288.804688 133.558594 L 289.367188 133.589844 L 289.964844 133.613281 L 290.597656 133.628906 L 291.230469 133.640625 L 291.863281 133.644531 "/>
<path style=" stroke:none;fill-rule:nonzero;fill:rgb(100%,50.000763%,0%);fill-opacity:1;" d="M 275.449219 129.238281 L 275.59375 129.613281 L 275.90625 130.515625 L 276.066406 131.054688 L 276.203125 131.59375 L 276.285156 132.09375 L 276.289062 132.511719 L 276.214844 132.878906 L 276.050781 133.351562 L 275.828125 133.882812 L 275.574219 134.417969 L 275.105469 135.332031 L 274.894531 135.71875 L 287.253906 133.445312 Z M 275.449219 129.238281 "/>
<path style=" stroke:none;fill-rule:evenodd;fill:rgb(100%,50.000763%,0%);fill-opacity:1;" d="M 286.367188 124.550781 C 286.367188 123.503906 285.457031 122.746094 284.125 122.644531 C 285.707031 122.351562 286.015625 121.445312 286.015625 120.929688 C 286.015625 119.917969 285.089844 119.039062 283.332031 119.039062 L 278.691406 119.039062 L 278.691406 119.511719 L 279.855469 119.511719 L 279.855469 126.109375 L 278.691406 126.109375 L 278.691406 126.585938 L 283.664062 126.585938 C 285.476562 126.585938 286.367188 125.605469 286.367188 124.550781 Z M 284.5625 120.917969 C 284.5625 121.6875 284.136719 122.480469 282.847656 122.480469 L 281.207031 122.480469 L 281.207031 119.511719 L 283.199219 119.511719 C 284.332031 119.511719 284.5625 120.367188 284.5625 120.917969 Z M 284.871094 124.527344 C 284.871094 125.222656 284.496094 126.109375 283.234375 126.109375 L 281.207031 126.109375 L 281.207031 122.84375 L 283.398438 122.84375 C 284.683594 122.84375 284.871094 124.03125 284.871094 124.527344 Z M 284.871094 124.527344 "/>
<path style="fill:none;stroke-width:1;stroke-linecap:butt;stroke-linejoin:miter;stroke:rgb(100%,0%,0%);stroke-opacity:1;stroke-miterlimit:3.25;" d="M 381.726562 133.644531 L 381.519531 129.691406 L 381.21875 125.785156 L 380.820312 121.933594 L 380.328125 118.128906 L 379.746094 114.386719 L 379.078125 110.699219 L 378.324219 107.078125 L 377.488281 103.519531 L 376.574219 100.03125 L 375.585938 96.613281 L 374.523438 93.269531 L 373.394531 89.996094 L 372.199219 86.804688 L 370.941406 83.691406 L 369.628906 80.660156 L 368.257812 77.710938 L 366.839844 74.847656 L 365.371094 72.070312 L 363.863281 69.382812 L 362.3125 66.78125 L 360.730469 64.269531 L 359.117188 61.847656 L 357.476562 59.515625 L 355.8125 57.277344 L 354.128906 55.132812 L 352.4375 53.078125 L 350.738281 51.125 L 349.039062 49.269531 L 347.347656 47.511719 L 345.660156 45.847656 L 343.980469 44.273438 L 342.320312 42.796875 L 340.675781 41.40625 L 338.847656 39.9375 L 336.917969 38.464844 L 334.980469 37.066406 L 333.039062 35.738281 L 331.09375 34.480469 L 329.148438 33.292969 L 327.203125 32.171875 L 325.265625 31.117188 L 323.332031 30.128906 L 321.40625 29.207031 L 319.492188 28.347656 L 317.589844 27.554688 L 315.699219 26.820312 L 313.828125 26.148438 L 311.972656 25.535156 L 310.136719 24.980469 L 308.324219 24.480469 L 306.53125 24.039062 L 304.765625 23.648438 L 303.027344 23.3125 L 301.3125 23.023438 L 299.632812 22.789062 L 297.980469 22.597656 L 296.359375 22.453125 L 294.769531 22.351562 L 293.285156 22.292969 L 291.863281 22.273438 "/>
<path style=" stroke:none;fill-rule:nonzero;fill:rgb(100%,0%,0%);fill-opacity:1;" d="M 359.175781 66.253906 L 359.339844 65.886719 L 359.765625 65.03125 L 360.039062 64.539062 L 360.332031 64.066406 L 360.628906 63.65625 L 360.921875 63.359375 L 361.238281 63.15625 L 361.691406 62.941406 L 362.226562 62.730469 L 362.785156 62.535156 L 363.769531 62.230469 L 364.191406 62.109375 L 353.917969 54.875 Z M 359.175781 66.253906 "/>
<path style=" stroke:none;fill-rule:evenodd;fill:rgb(100%,0%,0%);fill-opacity:1;" d="M 355.574219 41.089844 L 355.574219 40.613281 L 354.527344 40.613281 L 351.699219 33.636719 C 351.621094 33.441406 351.601562 33.382812 351.335938 33.382812 C 351.0625 33.382812 351.039062 33.441406 350.960938 33.636719 L 348.234375 40.351562 C 348.15625 40.527344 348.15625 40.550781 347.847656 40.582031 C 347.574219 40.613281 347.527344 40.613281 347.285156 40.613281 L 347.089844 40.613281 L 347.089844 41.089844 C 347.375 41.066406 348.035156 41.066406 348.355469 41.066406 C 348.652344 41.066406 349.453125 41.066406 349.707031 41.089844 L 349.707031 40.613281 C 349.464844 40.613281 349.046875 40.613281 348.738281 40.496094 C 348.773438 40.394531 348.773438 40.371094 348.792969 40.328125 L 349.375 38.898438 L 352.328125 38.898438 L 353.019531 40.613281 L 351.984375 40.613281 L 351.984375 41.089844 C 352.339844 41.066406 353.40625 41.066406 353.824219 41.066406 C 354.175781 41.066406 355.296875 41.066406 355.574219 41.089844 Z M 352.128906 38.425781 L 349.5625 38.425781 L 350.851562 35.257812 Z M 352.128906 38.425781 "/>
<path style="fill:none;stroke-width:1;stroke-linecap:butt;stroke-linejoin:miter;stroke:rgb(100%,0%,0%);stroke-opacity:1;stroke-miterlimit:3.25;" d="M 109.957031 22.316406 L 108.382812 22.398438 L 106.777344 22.523438 L 105.140625 22.691406 L 103.472656 22.910156 L 101.773438 23.171875 L 100.046875 23.484375 L 98.292969 23.851562 L 96.515625 24.269531 L 94.710938 24.742188 L 92.886719 25.269531 L 91.039062 25.855469 L 89.175781 26.5 L 87.292969 27.203125 L 85.394531 27.96875 L 83.484375 28.796875 L 81.566406 29.691406 L 79.636719 30.648438 L 77.699219 31.671875 L 75.757812 32.761719 L 73.8125 33.917969 L 71.867188 35.144531 L 69.921875 36.441406 L 67.984375 37.808594 L 66.050781 39.242188 L 64.125 40.75 L 62.445312 42.136719 L 60.792969 43.574219 L 59.121094 45.105469 L 57.441406 46.726562 L 55.75 48.441406 L 54.050781 50.25 L 52.351562 52.160156 L 50.65625 54.164062 L 48.96875 56.269531 L 47.296875 58.464844 L 45.644531 60.75 L 44.015625 63.128906 L 42.417969 65.601562 L 40.855469 68.160156 L 39.324219 70.808594 L 37.839844 73.546875 L 36.394531 76.371094 L 35.003906 79.277344 L 33.664062 82.273438 L 32.378906 85.347656 L 31.152344 88.503906 L 29.992188 91.738281 L 28.898438 95.046875 L 27.875 98.433594 L 26.925781 101.890625 L 26.054688 105.414062 L 25.261719 109.007812 L 24.554688 112.664062 L 23.929688 116.382812 L 23.398438 120.15625 L 22.957031 123.988281 L 22.609375 127.871094 L 22.355469 131.800781 L 22.273438 133.644531 "/>
<path style=" stroke:none;fill-rule:nonzero;fill:rgb(100%,0%,0%);fill-opacity:1;" d="M 51.253906 57.265625 L 50.851562 57.230469 L 49.90625 57.105469 L 49.351562 57.007812 L 48.808594 56.886719 L 48.324219 56.738281 L 47.949219 56.558594 L 47.652344 56.324219 L 47.300781 55.964844 L 46.929688 55.527344 L 46.5625 55.0625 L 45.953125 54.234375 L 45.703125 53.871094 L 42.210938 65.941406 Z M 51.253906 57.265625 "/>
<path style=" stroke:none;fill-rule:evenodd;fill:rgb(100%,0%,0%);fill-opacity:1;" d="M 54.089844 41.171875 C 54.089844 40.988281 54.023438 40.976562 53.859375 40.976562 C 53.75 40.976562 53.640625 40.976562 53.628906 41.097656 C 53.527344 42.765625 52.109375 43.339844 51.121094 43.339844 C 50.40625 43.339844 49.4375 43.140625 48.820312 42.449219 C 48.4375 42.03125 48.085938 41.425781 48.085938 39.910156 C 48.085938 38.828125 48.25 38.027344 48.765625 37.410156 C 49.46875 36.585938 50.570312 36.476562 51.097656 36.476562 C 51.921875 36.476562 53.253906 36.9375 53.585938 38.875 C 53.605469 38.972656 53.707031 38.972656 53.839844 38.972656 C 54.089844 38.972656 54.089844 38.953125 54.089844 38.6875 L 54.089844 36.289062 C 54.089844 36.035156 54.089844 36.003906 53.847656 36.003906 L 53.023438 36.796875 C 52.40625 36.269531 51.667969 36.003906 50.855469 36.003906 C 48.226562 36.003906 46.535156 37.597656 46.535156 39.910156 C 46.535156 42.175781 48.171875 43.8125 50.867188 43.8125 C 52.824219 43.8125 54.089844 42.46875 54.089844 41.171875 Z M 54.089844 41.171875 "/>
<path style="fill:none;stroke-width:1;stroke-linecap:butt;stroke-linejoin:miter;stroke:rgb(0%,0%,100%);stroke-opacity:1;stroke-dasharray:1.212;stroke-miterlimit:3.25;" d="M 270.355469 133.644531 L 270.355469 133.230469 L 270.351562 133.128906 L 270.351562 132.921875 L 270.347656 132.820312 L 270.347656 132.613281 L 270.34375 132.511719 L 270.34375 132.40625 L 270.339844 132.304688 L 270.335938 132.199219 L 270.335938 132.097656 L 270.332031 131.996094 L 270.328125 131.890625 L 270.324219 131.789062 L 270.324219 131.6875 L 270.320312 131.582031 L 270.308594 131.277344 L 270.304688 131.171875 L 270.296875 131.070312 L 270.292969 130.96875 L 270.289062 130.863281 L 270.285156 130.761719 L 270.277344 130.660156 L 270.273438 130.558594 L 270.269531 130.453125 L 270.261719 130.351562 L 270.257812 130.25 L 270.242188 130.046875 L 270.238281 129.941406 L 270.222656 129.738281 L 270.21875 129.636719 L 270.203125 129.433594 L 270.195312 129.328125 L 270.15625 128.820312 L 270.144531 128.71875 L 270.128906 128.515625 L 270.117188 128.414062 L 270.101562 128.210938 L 270.089844 128.109375 L 270.082031 128.007812 L 270.058594 127.804688 L 270.050781 127.703125 L 270.027344 127.5 "/>
<path style="fill:none;stroke-width:1;stroke-linecap:butt;stroke-linejoin:miter;stroke:rgb(0%,0%,100%);stroke-opacity:1;stroke-dasharray:1.212;stroke-miterlimit:3.25;" d="M 133.972656 127.5 L 133.949219 127.703125 L 133.941406 127.804688 L 133.917969 128.007812 L 133.910156 128.109375 L 133.898438 128.210938 L 133.882812 128.414062 L 133.871094 128.515625 L 133.855469 128.71875 L 133.84375 128.820312 L 133.804688 129.328125 L 133.796875 129.433594 L 133.78125 129.636719 L 133.777344 129.738281 L 133.761719 129.941406 L 133.757812 130.046875 L 133.742188 130.25 L 133.738281 130.351562 L 133.730469 130.453125 L 133.726562 130.558594 L 133.722656 130.660156 L 133.714844 130.761719 L 133.710938 130.863281 L 133.707031 130.96875 L 133.703125 131.070312 L 133.695312 131.171875 L 133.691406 131.277344 L 133.679688 131.582031 L 133.675781 131.6875 L 133.675781 131.789062 L 133.671875 131.890625 L 133.667969 131.996094 L 133.664062 132.097656 L 133.664062 132.199219 L 133.660156 132.304688 L 133.65625 132.40625 L 133.65625 132.511719 L 133.652344 132.613281 L 133.652344 132.820312 L 133.648438 132.921875 L 133.648438 133.128906 L 133.644531 133.230469 L 133.644531 133.644531 "/>
<path style=" stroke:none;fill-rule:evenodd;fill:rgb(0%,0%,0%);fill-opacity:1;" d="M 23 134 C 23 133.734375 22.894531 133.480469 22.707031 133.292969 C 22.519531 133.105469 22.265625 133 22 133 C 21.734375 133 21.480469 133.105469 21.292969 133.292969 C 21.105469 133.480469 21 133.734375 21 134 C 21 134.265625 21.105469 134.519531 21.292969 134.707031 C 21.480469 134.894531 21.734375 135 22 135 C 22.265625 135 22.519531 134.894531 22.707031 134.707031 C 22.894531 134.519531 23 134.265625 23 134 Z M 23 134 "/>
<path style=" stroke:none;fill-rule:evenodd;fill:rgb(0%,0%,0%);fill-opacity:1;" d="M 111 22 C 111 21.734375 110.894531 21.480469 110.707031 21.292969 C 110.519531 21.105469 110.265625 21 110 21 C 109.734375 21 109.480469 21.105469 109.292969 21.292969 C 109.105469 21.480469 109 21.734375 109 22 C 109 22.265625 109.105469 22.519531 109.292969 22.707031 C 109.480469 22.894531 109.734375 23 110 23 C 110.265625 23 110.519531 22.894531 110.707031 22.707031 C 110.894531 22.519531 111 22.265625 111 22 Z M 111 22 "/>
<path style=" stroke:none;fill-rule:evenodd;fill:rgb(0%,0%,0%);fill-opacity:1;" d="M 293 22 C 293 21.734375 292.894531 21.480469 292.707031 21.292969 C 292.519531 21.105469 292.265625 21 292 21 C 291.734375 21 291.480469 21.105469 291.292969 21.292969 C 291.105469 21.480469 291 21.734375 291 22 C 291 22.265625 291.105469 22.519531 291.292969 22.707031 C 291.480469 22.894531 291.734375 23 292 23 C 292.265625 23 292.519531 22.894531 292.707031 22.707031 C 292.894531 22.519531 293 22.265625 293 22 Z M 293 22 "/>
<path style=" stroke:none;fill-rule:evenodd;fill:rgb(0%,0%,0%);fill-opacity:1;" d="M 383 134 C 383 133.734375 382.894531 133.480469 382.707031 133.292969 C 382.519531 133.105469 382.265625 133 382 133 C 381.734375 133 381.480469 133.105469 381.292969 133.292969 C 381.105469 133.480469 381 133.734375 381 134 C 381 134.265625 381.105469 134.519531 381.292969 134.707031 C 381.480469 134.894531 381.734375 135 382 135 C 382.265625 135 382.519531 134.894531 382.707031 134.707031 C 382.894531 134.519531 383 134.265625 383 134 Z M 383 134 "/>
<path style=" stroke:none;fill-rule:evenodd;fill:rgb(0%,0%,0%);fill-opacity:1;" d="M 135 127 C 135 126.734375 134.894531 126.480469 134.707031 126.292969 C 134.519531 126.105469 134.265625 126 134 126 C 133.734375 126 133.480469 126.105469 133.292969 126.292969 C 133.105469 126.480469 133 126.734375 133 127 C 133 127.265625 133.105469 127.519531 133.292969 127.707031 C 133.480469 127.894531 133.734375 128 134 128 C 134.265625 128 134.519531 127.894531 134.707031 127.707031 C 134.894531 127.519531 135 127.265625 135 127 Z M 135 127 "/>
<path style=" stroke:none;fill-rule:evenodd;fill:rgb(0%,0%,0%);fill-opacity:1;" d="M 114 134 C 114 133.734375 113.894531 133.480469 113.707031 133.292969 C 113.519531 133.105469 113.265625 133 113 133 C 112.734375 133 112.480469 133.105469 112.292969 133.292969 C 112.105469 133.480469 112 133.734375 112 134 C 112 134.265625 112.105469 134.519531 112.292969 134.707031 C 112.480469 134.894531 112.734375 135 113 135 C 113.265625 135 113.519531 134.894531 113.707031 134.707031 C 113.894531 134.519531 114 134.265625 114 134 Z M 114 134 "/>
<path style=" stroke:none;fill-rule:evenodd;fill:rgb(0%,0%,0%);fill-opacity:1;" d="M 293 134 C 293 133.734375 292.894531 133.480469 292.707031 133.292969 C 292.519531 133.105469 292.265625 133 292 133 C 291.734375 133 291.480469 133.105469 291.292969 133.292969 C 291.105469 133.480469 291 133.734375 291 134 C 291 134.265625 291.105469 134.519531 291.292969 134.707031 C 291.480469 134.894531 291.734375 135 292 135 C 292.265625 135 292.519531 134.894531 292.707031 134.707031 C 292.894531 134.519531 293 134.265625 293 134 Z M 293 134 "/>
<path style=" stroke:none;fill-rule:evenodd;fill:rgb(0%,0%,0%);fill-opacity:1;" d="M 271 127 C 271 126.734375 270.894531 126.480469 270.707031 126.292969 C 270.519531 126.105469 270.265625 126 270 126 C 269.734375 126 269.480469 126.105469 269.292969 126.292969 C 269.105469 126.480469 269 126.734375 269 127 C 269 127.265625 269.105469 127.519531 269.292969 127.707031 C 269.480469 127.894531 269.734375 128 270 128 C 270.265625 128 270.519531 127.894531 270.707031 127.707031 C 270.894531 127.519531 271 127.265625 271 127 Z M 271 127 "/>
<path style=" stroke:none;fill-rule:evenodd;fill:rgb(0%,0%,0%);fill-opacity:1;" d="M 271 134 C 271 133.734375 270.894531 133.480469 270.707031 133.292969 C 270.519531 133.105469 270.265625 133 270 133 C 269.734375 133 269.480469 133.105469 269.292969 133.292969 C 269.105469 133.480469 269 133.734375 269 134 C 269 134.265625 269.105469 134.519531 269.292969 134.707031 C 269.480469 134.894531 269.734375 135 270 135 C 270.265625 135 270.519531 134.894531 270.707031 134.707031 C 270.894531 134.519531 271 134.265625 271 134 Z M 271 134 "/>
<path style=" stroke:none;fill-rule:evenodd;fill:rgb(0%,0%,0%);fill-opacity:1;" d="M 135 134 C 135 133.734375 134.894531 133.480469 134.707031 133.292969 C 134.519531 133.105469 134.265625 133 134 133 C 133.734375 133 133.480469 133.105469 133.292969 133.292969 C 133.105469 133.480469 133 133.734375 133 134 C 133 134.265625 133.105469 134.519531 133.292969 134.707031 C 133.480469 134.894531 133.734375 135 134 135 C 134.265625 135 134.519531 134.894531 134.707031 134.707031 C 134.894531 134.519531 135 134.265625 135 134 Z M 135 134 "/>
</g>
</svg>
