<?xml version="1.0" encoding="UTF-8"?>
<svg xmlns="http://www.w3.org/2000/svg" xmlns:xlink="http://www.w3.org/1999/xlink" width="227pt" height="88pt" viewBox="0 0 227 88" version="1.1">
<defs>
<clipPath id="clip1">
  <path d="M 151 74 L 152 74 L 152 87.601562 L 151 87.601562 Z M 151 74 "/>
</clipPath>
<clipPath id="clip2">
  <path d="M 151 74 L 152 74 L 152 87.601562 L 151 87.601562 Z M 151 74 "/>
</clipPath>
<clipPath id="clip3">
  <path d="M 214 12 L 215 12 L 215 87.601562 L 214 87.601562 Z M 214 12 "/>
</clipPath>
<clipPath id="clip4">
  <path d="M 214 12 L 215 12 L 215 87.601562 L 214 87.601562 Z M 214 12 "/>
</clipPath>
<clipPath id="clip5">
  <path d="M 0 66 L 152 66 L 152 87.601562 L 0 87.601562 Z M 0 66 "/>
</clipPath>
<clipPath id="clip6">
  <path d="M 150 66 L 162 66 L 162 87.601562 L 150 87.601562 Z M 150 66 "/>
</clipPath>
<clipPath id="clip7">
  <path d="M 150 66 L 162 66 L 162 87.601562 L 150 87.601562 Z M 150 66 "/>
</clipPath>
<clipPath id="clip8">
  <path d="M 207 0 L 224 0 L 224 87.601562 L 207 87.601562 Z M 207 0 "/>
</clipPath>
<clipPath id="clip9">
  <path d="M 0 59 L 150 59 L 150 87.601562 L 0 87.601562 Z M 0 59 "/>
</clipPath>
<clipPath id="clip10">
  <path d="M 148 59 L 171 59 L 171 87.601562 L 148 87.601562 Z M 148 59 "/>
</clipPath>
<clipPath id="clip11">
  <path d="M 148 59 L 171 59 L 171 87.601562 L 148 87.601562 Z M 148 59 "/>
</clipPath>
<clipPath id="clip12">
  <path d="M 198 0 L 226.800781 0 L 226.800781 87.601562 L 198 87.601562 Z M 198 0 "/>
</clipPath>
<clipPath id="clip13">
  <path d="M 0 52 L 147 52 L 147 87.601562 L 0 87.601562 Z M 0 52 "/>
</clipPath>
<clipPath id="clip14">
  <path d="M 145 52 L 180 52 L 180 87.601562 L 145 87.601562 Z M 145 52 "/>
</clipPath>
<clipPath id="clip15">
  <path d="M 145 52 L 180 52 L 180 87.601562 L 145 87.601562 Z M 145 52 "/>
</clipPath>
<clipPath id="clip16">
  <path d="M 189 0 L 226.800781 0 L 226.800781 87.601562 L 189 87.601562 Z M 189 0 "/>
</clipPath>
<clipPath id="clip17">
  <path d="M 0 47 L 143 47 L 143 87.601562 L 0 87.601562 Z M 0 47 "/>
</clipPath>
<clipPath id="clip18">
  <path d="M 141 47 L 190 47 L 190 87.601562 L 141 87.601562 Z M 141 47 "/>
</clipPath>
<clipPath id="clip19">
  <path d="M 141 47 L 190 47 L 190 87.601562 L 141 87.601562 Z M 141 47 "/>
</clipPath>
<clipPath id="clip20">
  <path d="M 178 0 L 226.800781 0 L 226.800781 87.601562 L 178 87.601562 Z M 178 0 "/>
</clipPath>
<clipPath id="clip21">
  <path d="M 0 42 L 139 42 L 139 87.601562 L 0 87.601562 Z M 0 42 "/>
</clipPath>
<clipPath id="clip22">
  <path d="M 136 42 L 200 42 L 200 87.601562 L 136 87.601562 Z M 136 42 "/>
</clipPath>
<clipPath id="clip23">
  <path d="M 136 42 L 200 42 L 200 87.601562 L 136 87.601562 Z M 136 42 "/>
</clipPath>
<clipPath id="clip24">
  <path d="M 0 0 L 169 0 L 169 87.601562 L 0 87.601562 Z M 0 0 "/>
</clipPath>
<clipPath id="clip25">
  <path d="M 166 0 L 226.800781 0 L 226.800781 87.601562 L 166 87.601562 Z M 166 0 "/>
</clipPath>
<clipPath id="clip26">
  <path d="M 0 38 L 133 38 L 133 87.601562 L 0 87.601562 Z M 0 38 "/>
</clipPath>
<clipPath id="clip27">
  <path d="M 131 38 L 212 38 L 212 87.601562 L 131 87.601562 Z M 131 38 "/>
</clipPath>
<clipPath id="clip28">
  <path d="M 131 38 L 212 38 L 212 87.601562 L 131 87.601562 Z M 131 38 "/>
</clipPath>
<clipPath id="clip29">
  <path d="M 0 0 L 156 0 L 156 87.601562 L 0 87.601562 Z M 0 0 "/>
</clipPath>
<clipPath id="clip30">
  <path d="M 154 0 L 226.800781 0 L 226.800781 87.601562 L 154 87.601562 Z M 154 0 "/>
</clipPath>
<clipPath id="clip31">
  <path d="M 0 35 L 127 35 L 127 87.601562 L 0 87.601562 Z M 0 35 "/>
</clipPath>
<clipPath id="clip32">
  <path d="M 125 35 L 225 35 L 225 87.601562 L 125 87.601562 Z M 125 35 "/>
</clipPath>
<clipPath id="clip33">
  <path d="M 0 0 L 143 0 L 143 87.601562 L 0 87.601562 Z M 0 0 "/>
</clipPath>
<clipPath id="clip34">
  <path d="M 140 0 L 226.800781 0 L 226.800781 87.601562 L 140 87.601562 Z M 140 0 "/>
</clipPath>
<clipPath id="clip35">
  <path d="M 0 33 L 121 33 L 121 87.601562 L 0 87.601562 Z M 0 33 "/>
</clipPath>
<clipPath id="clip36">
  <path d="M 119 33 L 226.800781 33 L 226.800781 87.601562 L 119 87.601562 Z M 119 33 "/>
</clipPath>
<clipPath id="clip37">
  <path d="M 0 0 L 129 0 L 129 87.601562 L 0 87.601562 Z M 0 0 "/>
</clipPath>
<clipPath id="clip38">
  <path d="M 126 0 L 226.800781 0 L 226.800781 87.601562 L 126 87.601562 Z M 126 0 "/>
</clipPath>
<clipPath id="clip39">
  <path d="M 0 32 L 115 32 L 115 87.601562 L 0 87.601562 Z M 0 32 "/>
</clipPath>
<clipPath id="clip40">
  <path d="M 112 32 L 226.800781 32 L 226.800781 87.601562 L 112 87.601562 Z M 112 32 "/>
</clipPath>
<clipPath id="clip41">
  <path d="M 0 0 L 226.800781 0 L 226.800781 87.601562 L 0 87.601562 Z M 0 0 "/>
</clipPath>
<clipPath id="clip42">
  <path d="M 0 33 L 108 33 L 108 87.601562 L 0 87.601562 Z M 0 33 "/>
</clipPath>
<clipPath id="clip43">
  <path d="M 106 33 L 226.800781 33 L 226.800781 87.601562 L 106 87.601562 Z M 106 33 "/>
</clipPath>
<clipPath id="clip44">
  <path d="M 0 0 L 100 0 L 100 87.601562 L 0 87.601562 Z M 0 0 "/>
</clipPath>
<clipPath id="clip45">
  <path d="M 98 0 L 226.800781 0 L 226.800781 87.601562 L 98 87.601562 Z M 98 0 "/>
</clipPath>
<clipPath id="clip46">
  <path d="M 2 35 L 102 35 L 102 87.601562 L 2 87.601562 Z M 2 35 "/>
</clipPath>
<clipPath id="clip47">
  <path d="M 99 35 L 226.800781 35 L 226.800781 87.601562 L 99 87.601562 Z M 99 35 "/>
</clipPath>
<clipPath id="clip48">
  <path d="M 0 0 L 87 0 L 87 87.601562 L 0 87.601562 Z M 0 0 "/>
</clipPath>
<clipPath id="clip49">
  <path d="M 84 0 L 226.800781 0 L 226.800781 87.601562 L 84 87.601562 Z M 84 0 "/>
</clipPath>
<clipPath id="clip50">
  <path d="M 15 38 L 96 38 L 96 87.601562 L 15 87.601562 Z M 15 38 "/>
</clipPath>
<clipPath id="clip51">
  <path d="M 93 38 L 226.800781 38 L 226.800781 87.601562 L 93 87.601562 Z M 93 38 "/>
</clipPath>
<clipPath id="clip52">
  <path d="M 0 0 L 73 0 L 73 87.601562 L 0 87.601562 Z M 0 0 "/>
</clipPath>
<clipPath id="clip53">
  <path d="M 71 0 L 226.800781 0 L 226.800781 87.601562 L 71 87.601562 Z M 71 0 "/>
</clipPath>
<clipPath id="clip54">
  <path d="M 26 42 L 91 42 L 91 87.601562 L 26 87.601562 Z M 26 42 "/>
</clipPath>
<clipPath id="clip55">
  <path d="M 88 42 L 226.800781 42 L 226.800781 87.601562 L 88 87.601562 Z M 88 42 "/>
</clipPath>
<clipPath id="clip56">
  <path d="M 0 0 L 60 0 L 60 87.601562 L 0 87.601562 Z M 0 0 "/>
</clipPath>
<clipPath id="clip57">
  <path d="M 58 0 L 226.800781 0 L 226.800781 87.601562 L 58 87.601562 Z M 58 0 "/>
</clipPath>
<clipPath id="clip58">
  <path d="M 37 47 L 86 47 L 86 87.601562 L 37 87.601562 Z M 37 47 "/>
</clipPath>
<clipPath id="clip59">
  <path d="M 83 47 L 226.800781 47 L 226.800781 87.601562 L 83 87.601562 Z M 83 47 "/>
</clipPath>
<clipPath id="clip60">
  <path d="M 0 0 L 49 0 L 49 87.601562 L 0 87.601562 Z M 0 0 "/>
</clipPath>
<clipPath id="clip61">
  <path d="M 46 0 L 226.800781 0 L 226.800781 76 L 46 76 Z M 46 0 "/>
</clipPath>
<clipPath id="clip62">
  <path d="M 47 52 L 82 52 L 82 87.601562 L 47 87.601562 Z M 47 52 "/>
</clipPath>
<clipPath id="clip63">
  <path d="M 79 52 L 226.800781 52 L 226.800781 87.601562 L 79 87.601562 Z M 79 52 "/>
</clipPath>
<clipPath id="clip64">
  <path d="M 0 0 L 38 0 L 38 87.601562 L 0 87.601562 Z M 0 0 "/>
</clipPath>
<clipPath id="clip65">
  <path d="M 35 0 L 226.800781 0 L 226.800781 59 L 35 59 Z M 35 0 "/>
</clipPath>
<clipPath id="clip66">
  <path d="M 56 59 L 79 59 L 79 87.601562 L 56 87.601562 Z M 56 59 "/>
</clipPath>
<clipPath id="clip67">
  <path d="M 77 59 L 226.800781 59 L 226.800781 87.601562 L 77 87.601562 Z M 77 59 "/>
</clipPath>
<clipPath id="clip68">
  <path d="M 0 0 L 28 0 L 28 87.601562 L 0 87.601562 Z M 0 0 "/>
</clipPath>
<clipPath id="clip69">
  <path d="M 26 0 L 226.800781 0 L 226.800781 43 L 26 43 Z M 26 0 "/>
</clipPath>
<clipPath id="clip70">
  <path d="M 65 66 L 77 66 L 77 87.601562 L 65 87.601562 Z M 65 66 "/>
</clipPath>
<clipPath id="clip71">
  <path d="M 75 66 L 226.800781 66 L 226.800781 87.601562 L 75 87.601562 Z M 75 66 "/>
</clipPath>
<clipPath id="clip72">
  <path d="M 2 0 L 20 0 L 20 87.601562 L 2 87.601562 Z M 2 0 "/>
</clipPath>
<clipPath id="clip73">
  <path d="M 18 0 L 226.800781 0 L 226.800781 28 L 18 28 Z M 18 0 "/>
</clipPath>
<clipPath id="clip74">
  <path d="M 74 74 L 76 74 L 76 87.601562 L 74 87.601562 Z M 74 74 "/>
</clipPath>
<clipPath id="clip75">
  <path d="M 74 74 L 226.800781 74 L 226.800781 76 L 74 76 Z M 74 74 "/>
</clipPath>
<clipPath id="clip76">
  <path d="M 12 12 L 13 12 L 13 87.601562 L 12 87.601562 Z M 12 12 "/>
</clipPath>
<clipPath id="clip77">
  <path d="M 12 12 L 226.800781 12 L 226.800781 13 L 12 13 Z M 12 12 "/>
</clipPath>
</defs>
<g id="surface55">
<path style="fill:none;stroke-width:0.166667;stroke-linecap:square;stroke-linejoin:miter;stroke:rgb(50.000763%,50.000763%,50.000763%);stroke-opacity:1;stroke-miterlimit:3.25;" d="M -98.300781 75.015625 L 151.753906 75.015625 "/>
<g clip-path="url(#clip1)" clip-rule="nonzero">
<path style="fill:none;stroke-width:0.166667;stroke-linecap:square;stroke-linejoin:miter;stroke:rgb(50.000763%,50.000763%,50.000763%);stroke-opacity:1;stroke-miterlimit:3.25;" d="M 151.753906 175.121094 L 151.753906 75.015625 "/>
</g>
<path style=" stroke:none;fill-rule:nonzero;fill:rgb(50.000763%,50.000763%,50.000763%);fill-opacity:1;" d="M 151.753906 75.015625 L 151.839844 75.101562 L 151.839844 74.933594 L 151.753906 74.933594 Z M 151.753906 75.015625 "/>
<g clip-path="url(#clip2)" clip-rule="nonzero">
<path style="fill:none;stroke-width:0.166667;stroke-linecap:square;stroke-linejoin:miter;stroke:rgb(50.000763%,50.000763%,50.000763%);stroke-opacity:1;stroke-miterlimit:3.25;" d="M 151.753906 175.121094 L 151.753906 75.015625 "/>
</g>
<path style=" stroke:none;fill-rule:nonzero;fill:rgb(50.000763%,50.000763%,50.000763%);fill-opacity:1;" d="M 151.753906 75.015625 L 151.839844 75.101562 L 151.839844 74.933594 L 151.753906 74.933594 Z M 151.753906 75.015625 "/>
<path style="fill:none;stroke-width:0.166667;stroke-linecap:square;stroke-linejoin:miter;stroke:rgb(50.000763%,50.000763%,50.000763%);stroke-opacity:1;stroke-miterlimit:3.25;" d="M -98.300781 12.503906 L 214.269531 12.503906 "/>
<g clip-path="url(#clip3)" clip-rule="nonzero">
<path style="fill:none;stroke-width:0.166667;stroke-linecap:square;stroke-linejoin:miter;stroke:rgb(50.000763%,50.000763%,50.000763%);stroke-opacity:1;stroke-miterlimit:3.25;" d="M 214.269531 175.121094 L 214.269531 12.503906 "/>
</g>
<path style=" stroke:none;fill-rule:nonzero;fill:rgb(50.000763%,50.000763%,50.000763%);fill-opacity:1;" d="M 214.269531 12.503906 L 214.351562 12.585938 L 214.351562 12.417969 L 214.269531 12.417969 Z M 214.269531 12.503906 "/>
<g clip-path="url(#clip4)" clip-rule="nonzero">
<path style="fill:none;stroke-width:0.166667;stroke-linecap:square;stroke-linejoin:miter;stroke:rgb(50.000763%,50.000763%,50.000763%);stroke-opacity:1;stroke-miterlimit:3.25;" d="M 214.269531 175.121094 L 214.269531 12.503906 "/>
</g>
<path style=" stroke:none;fill-rule:nonzero;fill:rgb(50.000763%,50.000763%,50.000763%);fill-opacity:1;" d="M 214.269531 12.503906 L 214.351562 12.585938 L 214.351562 12.417969 L 214.269531 12.417969 Z M 214.269531 12.503906 "/>
<g clip-path="url(#clip5)" clip-rule="nonzero">
<path style="fill:none;stroke-width:0.166667;stroke-linecap:square;stroke-linejoin:miter;stroke:rgb(50.000763%,50.000763%,50.000763%);stroke-opacity:1;stroke-miterlimit:3.25;" d="M -98.152344 89.226562 L 150.953125 67.433594 "/>
</g>
<g clip-path="url(#clip6)" clip-rule="nonzero">
<path style="fill:none;stroke-width:0.166667;stroke-linecap:square;stroke-linejoin:miter;stroke:rgb(50.000763%,50.000763%,50.000763%);stroke-opacity:1;stroke-miterlimit:3.25;" d="M 160.375 175.121094 L 150.953125 67.433594 "/>
</g>
<path style=" stroke:none;fill-rule:nonzero;fill:rgb(50.000763%,50.000763%,50.000763%);fill-opacity:1;" d="M 150.953125 67.433594 L 151.035156 67.515625 L 151.027344 67.34375 L 150.945312 67.347656 Z M 150.953125 67.433594 "/>
<g clip-path="url(#clip7)" clip-rule="nonzero">
<path style="fill:none;stroke-width:0.166667;stroke-linecap:square;stroke-linejoin:miter;stroke:rgb(50.000763%,50.000763%,50.000763%);stroke-opacity:1;stroke-miterlimit:3.25;" d="M 160.375 175.121094 L 150.953125 67.433594 "/>
</g>
<path style=" stroke:none;fill-rule:nonzero;fill:rgb(50.000763%,50.000763%,50.000763%);fill-opacity:1;" d="M 150.953125 67.433594 L 151.035156 67.515625 L 151.027344 67.34375 L 150.945312 67.347656 Z M 150.953125 67.433594 "/>
<path style="fill:none;stroke-width:0.166667;stroke-linecap:square;stroke-linejoin:miter;stroke:rgb(50.000763%,50.000763%,50.000763%);stroke-opacity:1;stroke-miterlimit:3.25;" d="M -103.601562 26.949219 L 207.78125 -0.292969 "/>
<g clip-path="url(#clip8)" clip-rule="nonzero">
<path style="fill:none;stroke-width:0.166667;stroke-linecap:square;stroke-linejoin:miter;stroke:rgb(50.000763%,50.000763%,50.000763%);stroke-opacity:1;stroke-miterlimit:3.25;" d="M 223.128906 175.121094 L 207.78125 -0.292969 "/>
<path style="fill:none;stroke-width:0.166667;stroke-linecap:square;stroke-linejoin:miter;stroke:rgb(50.000763%,50.000763%,50.000763%);stroke-opacity:1;stroke-miterlimit:3.25;" d="M 223.128906 175.121094 L 207.78125 -0.292969 "/>
</g>
<g clip-path="url(#clip9)" clip-rule="nonzero">
<path style="fill:none;stroke-width:0.166667;stroke-linecap:square;stroke-linejoin:miter;stroke:rgb(50.000763%,50.000763%,50.000763%);stroke-opacity:1;stroke-miterlimit:3.25;" d="M -97.265625 103.707031 L 148.992188 60.285156 "/>
</g>
<g clip-path="url(#clip10)" clip-rule="nonzero">
<path style="fill:none;stroke-width:0.166667;stroke-linecap:square;stroke-linejoin:miter;stroke:rgb(50.000763%,50.000763%,50.000763%);stroke-opacity:1;stroke-miterlimit:3.25;" d="M 169.238281 175.121094 L 148.992188 60.285156 "/>
</g>
<path style=" stroke:none;fill-rule:nonzero;fill:rgb(50.000763%,50.000763%,50.000763%);fill-opacity:1;" d="M 148.992188 60.285156 L 149.074219 60.367188 L 149.058594 60.191406 L 148.976562 60.203125 Z M 148.992188 60.285156 "/>
<g clip-path="url(#clip11)" clip-rule="nonzero">
<path style="fill:none;stroke-width:0.166667;stroke-linecap:square;stroke-linejoin:miter;stroke:rgb(50.000763%,50.000763%,50.000763%);stroke-opacity:1;stroke-miterlimit:3.25;" d="M 169.238281 175.121094 L 148.992188 60.285156 "/>
</g>
<path style=" stroke:none;fill-rule:nonzero;fill:rgb(50.000763%,50.000763%,50.000763%);fill-opacity:1;" d="M 148.992188 60.285156 L 149.074219 60.367188 L 149.058594 60.191406 L 148.976562 60.203125 Z M 148.992188 60.285156 "/>
<path style="fill:none;stroke-width:0.166667;stroke-linecap:square;stroke-linejoin:miter;stroke:rgb(50.000763%,50.000763%,50.000763%);stroke-opacity:1;stroke-miterlimit:3.25;" d="M -108.121094 42.144531 L 199.699219 -12.132812 "/>
<g clip-path="url(#clip12)" clip-rule="nonzero">
<path style="fill:none;stroke-width:0.166667;stroke-linecap:square;stroke-linejoin:miter;stroke:rgb(50.000763%,50.000763%,50.000763%);stroke-opacity:1;stroke-miterlimit:3.25;" d="M 232.71875 175.121094 L 199.699219 -12.132812 "/>
<path style="fill:none;stroke-width:0.166667;stroke-linecap:square;stroke-linejoin:miter;stroke:rgb(50.000763%,50.000763%,50.000763%);stroke-opacity:1;stroke-miterlimit:3.25;" d="M 232.71875 175.121094 L 199.699219 -12.132812 "/>
</g>
<g clip-path="url(#clip13)" clip-rule="nonzero">
<path style="fill:none;stroke-width:0.166667;stroke-linecap:square;stroke-linejoin:miter;stroke:rgb(50.000763%,50.000763%,50.000763%);stroke-opacity:1;stroke-miterlimit:3.25;" d="M -95.523438 118.445312 L 146.011719 53.726562 "/>
</g>
<g clip-path="url(#clip14)" clip-rule="nonzero">
<path style="fill:none;stroke-width:0.166667;stroke-linecap:square;stroke-linejoin:miter;stroke:rgb(50.000763%,50.000763%,50.000763%);stroke-opacity:1;stroke-miterlimit:3.25;" d="M 178.539062 175.121094 L 146.011719 53.726562 "/>
</g>
<path style=" stroke:none;fill-rule:nonzero;fill:rgb(50.000763%,50.000763%,50.000763%);fill-opacity:1;" d="M 146.011719 53.726562 L 146.09375 53.808594 L 146.070312 53.625 L 145.988281 53.648438 Z M 146.011719 53.726562 "/>
<g clip-path="url(#clip15)" clip-rule="nonzero">
<path style="fill:none;stroke-width:0.166667;stroke-linecap:square;stroke-linejoin:miter;stroke:rgb(50.000763%,50.000763%,50.000763%);stroke-opacity:1;stroke-miterlimit:3.25;" d="M 178.539062 175.121094 L 146.011719 53.726562 "/>
</g>
<path style=" stroke:none;fill-rule:nonzero;fill:rgb(50.000763%,50.000763%,50.000763%);fill-opacity:1;" d="M 146.011719 53.726562 L 146.09375 53.808594 L 146.070312 53.625 L 145.988281 53.648438 Z M 146.011719 53.726562 "/>
<path style="fill:none;stroke-width:0.166667;stroke-linecap:square;stroke-linejoin:miter;stroke:rgb(50.000763%,50.000763%,50.000763%);stroke-opacity:1;stroke-miterlimit:3.25;" d="M -111.703125 58.0625 L 190.214844 -22.835938 "/>
<g clip-path="url(#clip16)" clip-rule="nonzero">
<path style="fill:none;stroke-width:0.166667;stroke-linecap:square;stroke-linejoin:miter;stroke:rgb(50.000763%,50.000763%,50.000763%);stroke-opacity:1;stroke-miterlimit:3.25;" d="M 243.257812 175.121094 L 190.214844 -22.835938 "/>
<path style="fill:none;stroke-width:0.166667;stroke-linecap:square;stroke-linejoin:miter;stroke:rgb(50.000763%,50.000763%,50.000763%);stroke-opacity:1;stroke-miterlimit:3.25;" d="M 243.257812 175.121094 L 190.214844 -22.835938 "/>
</g>
<g clip-path="url(#clip17)" clip-rule="nonzero">
<path style="fill:none;stroke-width:0.166667;stroke-linecap:square;stroke-linejoin:miter;stroke:rgb(50.000763%,50.000763%,50.000763%);stroke-opacity:1;stroke-miterlimit:3.25;" d="M -92.863281 133.417969 L 142.113281 47.894531 "/>
</g>
<g clip-path="url(#clip18)" clip-rule="nonzero">
<path style="fill:none;stroke-width:0.166667;stroke-linecap:square;stroke-linejoin:miter;stroke:rgb(50.000763%,50.000763%,50.000763%);stroke-opacity:1;stroke-miterlimit:3.25;" d="M 188.417969 175.121094 L 142.113281 47.894531 "/>
</g>
<path style=" stroke:none;fill-rule:nonzero;fill:rgb(50.000763%,50.000763%,50.000763%);fill-opacity:1;" d="M 142.113281 47.894531 L 142.191406 47.972656 L 142.160156 47.789062 L 142.082031 47.816406 Z M 142.113281 47.894531 "/>
<g clip-path="url(#clip19)" clip-rule="nonzero">
<path style="fill:none;stroke-width:0.166667;stroke-linecap:square;stroke-linejoin:miter;stroke:rgb(50.000763%,50.000763%,50.000763%);stroke-opacity:1;stroke-miterlimit:3.25;" d="M 188.417969 175.121094 L 142.113281 47.894531 "/>
</g>
<path style=" stroke:none;fill-rule:nonzero;fill:rgb(50.000763%,50.000763%,50.000763%);fill-opacity:1;" d="M 142.113281 47.894531 L 142.191406 47.972656 L 142.160156 47.789062 L 142.082031 47.816406 Z M 142.113281 47.894531 "/>
<path style="fill:none;stroke-width:0.166667;stroke-linecap:square;stroke-linejoin:miter;stroke:rgb(50.000763%,50.000763%,50.000763%);stroke-opacity:1;stroke-miterlimit:3.25;" d="M -114.246094 74.675781 L 179.476562 -32.230469 "/>
<g clip-path="url(#clip20)" clip-rule="nonzero">
<path style="fill:none;stroke-width:0.166667;stroke-linecap:square;stroke-linejoin:miter;stroke:rgb(50.000763%,50.000763%,50.000763%);stroke-opacity:1;stroke-miterlimit:3.25;" d="M 254.945312 175.121094 L 179.476562 -32.230469 "/>
<path style="fill:none;stroke-width:0.166667;stroke-linecap:square;stroke-linejoin:miter;stroke:rgb(50.000763%,50.000763%,50.000763%);stroke-opacity:1;stroke-miterlimit:3.25;" d="M 254.945312 175.121094 L 179.476562 -32.230469 "/>
</g>
<g clip-path="url(#clip21)" clip-rule="nonzero">
<path style="fill:none;stroke-width:0.166667;stroke-linecap:square;stroke-linejoin:miter;stroke:rgb(50.000763%,50.000763%,50.000763%);stroke-opacity:1;stroke-miterlimit:3.25;" d="M -89.21875 148.59375 L 137.40625 42.914062 "/>
</g>
<g clip-path="url(#clip22)" clip-rule="nonzero">
<path style="fill:none;stroke-width:0.166667;stroke-linecap:square;stroke-linejoin:miter;stroke:rgb(50.000763%,50.000763%,50.000763%);stroke-opacity:1;stroke-miterlimit:3.25;" d="M 199.054688 175.121094 L 137.40625 42.914062 "/>
</g>
<path style=" stroke:none;fill-rule:nonzero;fill:rgb(50.000763%,50.000763%,50.000763%);fill-opacity:1;" d="M 137.40625 42.914062 L 137.484375 42.988281 L 137.449219 42.804688 L 137.371094 42.839844 Z M 137.40625 42.914062 "/>
<g clip-path="url(#clip23)" clip-rule="nonzero">
<path style="fill:none;stroke-width:0.166667;stroke-linecap:square;stroke-linejoin:miter;stroke:rgb(50.000763%,50.000763%,50.000763%);stroke-opacity:1;stroke-miterlimit:3.25;" d="M 199.054688 175.121094 L 137.40625 42.914062 "/>
</g>
<path style=" stroke:none;fill-rule:nonzero;fill:rgb(50.000763%,50.000763%,50.000763%);fill-opacity:1;" d="M 137.40625 42.914062 L 137.484375 42.988281 L 137.449219 42.804688 L 137.371094 42.839844 Z M 137.40625 42.914062 "/>
<g clip-path="url(#clip24)" clip-rule="nonzero">
<path style="fill:none;stroke-width:0.166667;stroke-linecap:square;stroke-linejoin:miter;stroke:rgb(50.000763%,50.000763%,50.000763%);stroke-opacity:1;stroke-miterlimit:3.25;" d="M -115.640625 91.9375 L 167.644531 -40.164062 "/>
</g>
<g clip-path="url(#clip25)" clip-rule="nonzero">
<path style="fill:none;stroke-width:0.166667;stroke-linecap:square;stroke-linejoin:miter;stroke:rgb(50.000763%,50.000763%,50.000763%);stroke-opacity:1;stroke-miterlimit:3.25;" d="M 268.03125 175.121094 L 167.644531 -40.164062 "/>
<path style="fill:none;stroke-width:0.166667;stroke-linecap:square;stroke-linejoin:miter;stroke:rgb(50.000763%,50.000763%,50.000763%);stroke-opacity:1;stroke-miterlimit:3.25;" d="M 268.03125 175.121094 L 167.644531 -40.164062 "/>
</g>
<g clip-path="url(#clip26)" clip-rule="nonzero">
<path style="fill:none;stroke-width:0.166667;stroke-linecap:square;stroke-linejoin:miter;stroke:rgb(50.000763%,50.000763%,50.000763%);stroke-opacity:1;stroke-miterlimit:3.25;" d="M -84.527344 163.925781 L 132.03125 38.898438 "/>
</g>
<g clip-path="url(#clip27)" clip-rule="nonzero">
<path style="fill:none;stroke-width:0.166667;stroke-linecap:square;stroke-linejoin:miter;stroke:rgb(50.000763%,50.000763%,50.000763%);stroke-opacity:1;stroke-miterlimit:3.25;" d="M 210.675781 175.121094 L 132.03125 38.898438 "/>
</g>
<path style=" stroke:none;fill-rule:nonzero;fill:rgb(50.000763%,50.000763%,50.000763%);fill-opacity:1;" d="M 132.03125 38.898438 L 132.101562 38.96875 L 132.058594 38.785156 L 131.988281 38.824219 Z M 132.03125 38.898438 "/>
<g clip-path="url(#clip28)" clip-rule="nonzero">
<path style="fill:none;stroke-width:0.166667;stroke-linecap:square;stroke-linejoin:miter;stroke:rgb(50.000763%,50.000763%,50.000763%);stroke-opacity:1;stroke-miterlimit:3.25;" d="M 210.675781 175.121094 L 132.03125 38.898438 "/>
</g>
<path style=" stroke:none;fill-rule:nonzero;fill:rgb(50.000763%,50.000763%,50.000763%);fill-opacity:1;" d="M 132.03125 38.898438 L 132.101562 38.96875 L 132.058594 38.785156 L 131.988281 38.824219 Z M 132.03125 38.898438 "/>
<g clip-path="url(#clip29)" clip-rule="nonzero">
<path style="fill:none;stroke-width:0.166667;stroke-linecap:square;stroke-linejoin:miter;stroke:rgb(50.000763%,50.000763%,50.000763%);stroke-opacity:1;stroke-miterlimit:3.25;" d="M -115.78125 109.789062 L 154.910156 -46.496094 "/>
</g>
<g clip-path="url(#clip30)" clip-rule="nonzero">
<path style="fill:none;stroke-width:0.166667;stroke-linecap:square;stroke-linejoin:miter;stroke:rgb(50.000763%,50.000763%,50.000763%);stroke-opacity:1;stroke-miterlimit:3.25;" d="M 282.863281 175.121094 L 154.910156 -46.496094 "/>
<path style="fill:none;stroke-width:0.166667;stroke-linecap:square;stroke-linejoin:miter;stroke:rgb(50.000763%,50.000763%,50.000763%);stroke-opacity:1;stroke-miterlimit:3.25;" d="M 282.863281 175.121094 L 154.910156 -46.496094 "/>
</g>
<g clip-path="url(#clip31)" clip-rule="nonzero">
<path style="fill:none;stroke-width:0.166667;stroke-linecap:square;stroke-linejoin:miter;stroke:rgb(50.000763%,50.000763%,50.000763%);stroke-opacity:1;stroke-miterlimit:3.25;" d="M -72.648438 175.121094 L 126.121094 35.9375 "/>
<path style="fill:none;stroke-width:0.166667;stroke-linecap:square;stroke-linejoin:miter;stroke:rgb(50.000763%,50.000763%,50.000763%);stroke-opacity:1;stroke-miterlimit:3.25;" d="M -72.648438 175.121094 L 126.121094 35.9375 "/>
</g>
<path style=" stroke:none;fill-rule:nonzero;fill:rgb(50.000763%,50.000763%,50.000763%);fill-opacity:1;" d="M 126.121094 35.9375 L 126.074219 35.890625 L 126.140625 35.820312 L 126.191406 35.890625 Z M 126.121094 35.9375 "/>
<g clip-path="url(#clip32)" clip-rule="nonzero">
<path style="fill:none;stroke-width:0.166667;stroke-linecap:square;stroke-linejoin:miter;stroke:rgb(50.000763%,50.000763%,50.000763%);stroke-opacity:1;stroke-miterlimit:3.25;" d="M 223.578125 175.121094 L 126.121094 35.9375 "/>
<path style="fill:none;stroke-width:0.166667;stroke-linecap:square;stroke-linejoin:miter;stroke:rgb(50.000763%,50.000763%,50.000763%);stroke-opacity:1;stroke-miterlimit:3.25;" d="M 223.578125 175.121094 L 126.121094 35.9375 "/>
</g>
<g clip-path="url(#clip33)" clip-rule="nonzero">
<path style="fill:none;stroke-width:0.166667;stroke-linecap:square;stroke-linejoin:miter;stroke:rgb(50.000763%,50.000763%,50.000763%);stroke-opacity:1;stroke-miterlimit:3.25;" d="M -114.570312 128.15625 L 141.472656 -51.125 "/>
</g>
<g clip-path="url(#clip34)" clip-rule="nonzero">
<path style="fill:none;stroke-width:0.166667;stroke-linecap:square;stroke-linejoin:miter;stroke:rgb(50.000763%,50.000763%,50.000763%);stroke-opacity:1;stroke-miterlimit:3.25;" d="M 299.894531 175.121094 L 141.472656 -51.125 "/>
<path style="fill:none;stroke-width:0.166667;stroke-linecap:square;stroke-linejoin:miter;stroke:rgb(50.000763%,50.000763%,50.000763%);stroke-opacity:1;stroke-miterlimit:3.25;" d="M 299.894531 175.121094 L 141.472656 -51.125 "/>
</g>
<g clip-path="url(#clip35)" clip-rule="nonzero">
<path style="fill:none;stroke-width:0.166667;stroke-linecap:square;stroke-linejoin:miter;stroke:rgb(50.000763%,50.000763%,50.000763%);stroke-opacity:1;stroke-miterlimit:3.25;" d="M -48.207031 175.121094 L 119.84375 34.109375 "/>
<path style="fill:none;stroke-width:0.166667;stroke-linecap:square;stroke-linejoin:miter;stroke:rgb(50.000763%,50.000763%,50.000763%);stroke-opacity:1;stroke-miterlimit:3.25;" d="M -48.207031 175.121094 L 119.84375 34.109375 "/>
</g>
<path style=" stroke:none;fill-rule:nonzero;fill:rgb(50.000763%,50.000763%,50.000763%);fill-opacity:1;" d="M 119.84375 34.109375 L 119.789062 34.054688 L 119.855469 33.992188 L 119.90625 34.054688 Z M 119.84375 34.109375 "/>
<g clip-path="url(#clip36)" clip-rule="nonzero">
<path style="fill:none;stroke-width:0.166667;stroke-linecap:square;stroke-linejoin:miter;stroke:rgb(50.000763%,50.000763%,50.000763%);stroke-opacity:1;stroke-miterlimit:3.25;" d="M 238.164062 175.121094 L 119.84375 34.109375 "/>
<path style="fill:none;stroke-width:0.166667;stroke-linecap:square;stroke-linejoin:miter;stroke:rgb(50.000763%,50.000763%,50.000763%);stroke-opacity:1;stroke-miterlimit:3.25;" d="M 238.164062 175.121094 L 119.84375 34.109375 "/>
</g>
<g clip-path="url(#clip37)" clip-rule="nonzero">
<path style="fill:none;stroke-width:0.166667;stroke-linecap:square;stroke-linejoin:miter;stroke:rgb(50.000763%,50.000763%,50.000763%);stroke-opacity:1;stroke-miterlimit:3.25;" d="M -111.894531 146.953125 L 127.550781 -53.960938 "/>
</g>
<g clip-path="url(#clip38)" clip-rule="nonzero">
<path style="fill:none;stroke-width:0.166667;stroke-linecap:square;stroke-linejoin:miter;stroke:rgb(50.000763%,50.000763%,50.000763%);stroke-opacity:1;stroke-miterlimit:3.25;" d="M 319.773438 175.121094 L 127.550781 -53.960938 "/>
<path style="fill:none;stroke-width:0.166667;stroke-linecap:square;stroke-linejoin:miter;stroke:rgb(50.000763%,50.000763%,50.000763%);stroke-opacity:1;stroke-miterlimit:3.25;" d="M 319.773438 175.121094 L 127.550781 -53.960938 "/>
</g>
<g clip-path="url(#clip39)" clip-rule="nonzero">
<path style="fill:none;stroke-width:0.166667;stroke-linecap:square;stroke-linejoin:miter;stroke:rgb(50.000763%,50.000763%,50.000763%);stroke-opacity:1;stroke-miterlimit:3.25;" d="M -28.242188 175.121094 L 113.386719 33.492188 "/>
<path style="fill:none;stroke-width:0.166667;stroke-linecap:square;stroke-linejoin:miter;stroke:rgb(50.000763%,50.000763%,50.000763%);stroke-opacity:1;stroke-miterlimit:3.25;" d="M -28.242188 175.121094 L 113.386719 33.492188 "/>
</g>
<path style=" stroke:none;fill-rule:nonzero;fill:rgb(50.000763%,50.000763%,50.000763%);fill-opacity:1;" d="M 113.386719 33.492188 L 113.328125 33.433594 L 113.386719 33.371094 L 113.445312 33.433594 Z M 113.386719 33.492188 "/>
<g clip-path="url(#clip40)" clip-rule="nonzero">
<path style="fill:none;stroke-width:0.166667;stroke-linecap:square;stroke-linejoin:miter;stroke:rgb(50.000763%,50.000763%,50.000763%);stroke-opacity:1;stroke-miterlimit:3.25;" d="M 255.015625 175.121094 L 113.386719 33.492188 "/>
<path style="fill:none;stroke-width:0.166667;stroke-linecap:square;stroke-linejoin:miter;stroke:rgb(50.000763%,50.000763%,50.000763%);stroke-opacity:1;stroke-miterlimit:3.25;" d="M 255.015625 175.121094 L 113.386719 33.492188 "/>
</g>
<g clip-path="url(#clip41)" clip-rule="nonzero">
<path style="fill:none;stroke-width:0.166667;stroke-linecap:square;stroke-linejoin:miter;stroke:rgb(50.000763%,50.000763%,50.000763%);stroke-opacity:1;stroke-miterlimit:3.25;" d="M -107.636719 166.101562 L 113.386719 -54.917969 L 334.40625 166.101562 "/>
</g>
<g clip-path="url(#clip42)" clip-rule="nonzero">
<path style="fill:none;stroke-width:0.166667;stroke-linecap:square;stroke-linejoin:miter;stroke:rgb(50.000763%,50.000763%,50.000763%);stroke-opacity:1;stroke-miterlimit:3.25;" d="M -11.394531 175.121094 L 106.929688 34.109375 "/>
<path style="fill:none;stroke-width:0.166667;stroke-linecap:square;stroke-linejoin:miter;stroke:rgb(50.000763%,50.000763%,50.000763%);stroke-opacity:1;stroke-miterlimit:3.25;" d="M -11.394531 175.121094 L 106.929688 34.109375 "/>
</g>
<path style=" stroke:none;fill-rule:nonzero;fill:rgb(50.000763%,50.000763%,50.000763%);fill-opacity:1;" d="M 106.929688 34.109375 L 106.863281 34.046875 L 106.917969 33.992188 L 106.980469 34.046875 Z M 106.929688 34.109375 "/>
<g clip-path="url(#clip43)" clip-rule="nonzero">
<path style="fill:none;stroke-width:0.166667;stroke-linecap:square;stroke-linejoin:miter;stroke:rgb(50.000763%,50.000763%,50.000763%);stroke-opacity:1;stroke-miterlimit:3.25;" d="M 274.976562 175.121094 L 106.929688 34.109375 "/>
<path style="fill:none;stroke-width:0.166667;stroke-linecap:square;stroke-linejoin:miter;stroke:rgb(50.000763%,50.000763%,50.000763%);stroke-opacity:1;stroke-miterlimit:3.25;" d="M 274.976562 175.121094 L 106.929688 34.109375 "/>
</g>
<g clip-path="url(#clip44)" clip-rule="nonzero">
<path style="fill:none;stroke-width:0.166667;stroke-linecap:square;stroke-linejoin:miter;stroke:rgb(50.000763%,50.000763%,50.000763%);stroke-opacity:1;stroke-miterlimit:3.25;" d="M -93 175.121094 L 99.222656 -53.960938 "/>
<path style="fill:none;stroke-width:0.166667;stroke-linecap:square;stroke-linejoin:miter;stroke:rgb(50.000763%,50.000763%,50.000763%);stroke-opacity:1;stroke-miterlimit:3.25;" d="M -93 175.121094 L 99.222656 -53.960938 "/>
</g>
<g clip-path="url(#clip45)" clip-rule="nonzero">
<path style="fill:none;stroke-width:0.166667;stroke-linecap:square;stroke-linejoin:miter;stroke:rgb(50.000763%,50.000763%,50.000763%);stroke-opacity:1;stroke-miterlimit:3.25;" d="M 99.222656 -53.960938 L 338.664062 146.953125 "/>
</g>
<g clip-path="url(#clip46)" clip-rule="nonzero">
<path style="fill:none;stroke-width:0.166667;stroke-linecap:square;stroke-linejoin:miter;stroke:rgb(50.000763%,50.000763%,50.000763%);stroke-opacity:1;stroke-miterlimit:3.25;" d="M 3.195312 175.121094 L 100.648438 35.9375 "/>
<path style="fill:none;stroke-width:0.166667;stroke-linecap:square;stroke-linejoin:miter;stroke:rgb(50.000763%,50.000763%,50.000763%);stroke-opacity:1;stroke-miterlimit:3.25;" d="M 3.195312 175.121094 L 100.648438 35.9375 "/>
</g>
<path style=" stroke:none;fill-rule:nonzero;fill:rgb(50.000763%,50.000763%,50.000763%);fill-opacity:1;" d="M 100.648438 35.9375 L 100.582031 35.871094 L 100.628906 35.820312 L 100.699219 35.871094 Z M 100.648438 35.9375 "/>
<g clip-path="url(#clip47)" clip-rule="nonzero">
<path style="fill:none;stroke-width:0.166667;stroke-linecap:square;stroke-linejoin:miter;stroke:rgb(50.000763%,50.000763%,50.000763%);stroke-opacity:1;stroke-miterlimit:3.25;" d="M 299.421875 175.121094 L 100.648438 35.9375 "/>
<path style="fill:none;stroke-width:0.166667;stroke-linecap:square;stroke-linejoin:miter;stroke:rgb(50.000763%,50.000763%,50.000763%);stroke-opacity:1;stroke-miterlimit:3.25;" d="M 299.421875 175.121094 L 100.648438 35.9375 "/>
</g>
<g clip-path="url(#clip48)" clip-rule="nonzero">
<path style="fill:none;stroke-width:0.166667;stroke-linecap:square;stroke-linejoin:miter;stroke:rgb(50.000763%,50.000763%,50.000763%);stroke-opacity:1;stroke-miterlimit:3.25;" d="M -73.121094 175.121094 L 85.296875 -51.125 "/>
<path style="fill:none;stroke-width:0.166667;stroke-linecap:square;stroke-linejoin:miter;stroke:rgb(50.000763%,50.000763%,50.000763%);stroke-opacity:1;stroke-miterlimit:3.25;" d="M -73.121094 175.121094 L 85.296875 -51.125 "/>
</g>
<g clip-path="url(#clip49)" clip-rule="nonzero">
<path style="fill:none;stroke-width:0.166667;stroke-linecap:square;stroke-linejoin:miter;stroke:rgb(50.000763%,50.000763%,50.000763%);stroke-opacity:1;stroke-miterlimit:3.25;" d="M 85.296875 -51.125 L 341.339844 128.15625 "/>
</g>
<g clip-path="url(#clip50)" clip-rule="nonzero">
<path style="fill:none;stroke-width:0.166667;stroke-linecap:square;stroke-linejoin:miter;stroke:rgb(50.000763%,50.000763%,50.000763%);stroke-opacity:1;stroke-miterlimit:3.25;" d="M 16.09375 175.121094 L 94.742188 38.898438 "/>
<path style="fill:none;stroke-width:0.166667;stroke-linecap:square;stroke-linejoin:miter;stroke:rgb(50.000763%,50.000763%,50.000763%);stroke-opacity:1;stroke-miterlimit:3.25;" d="M 16.09375 175.121094 L 94.742188 38.898438 "/>
</g>
<path style=" stroke:none;fill-rule:nonzero;fill:rgb(50.000763%,50.000763%,50.000763%);fill-opacity:1;" d="M 94.742188 38.898438 L 94.671875 38.824219 L 94.710938 38.785156 L 94.785156 38.824219 Z M 94.742188 38.898438 "/>
<g clip-path="url(#clip51)" clip-rule="nonzero">
<path style="fill:none;stroke-width:0.166667;stroke-linecap:square;stroke-linejoin:miter;stroke:rgb(50.000763%,50.000763%,50.000763%);stroke-opacity:1;stroke-miterlimit:3.25;" d="M 94.742188 38.898438 L 311.296875 163.925781 "/>
</g>
<g clip-path="url(#clip52)" clip-rule="nonzero">
<path style="fill:none;stroke-width:0.166667;stroke-linecap:square;stroke-linejoin:miter;stroke:rgb(50.000763%,50.000763%,50.000763%);stroke-opacity:1;stroke-miterlimit:3.25;" d="M -56.089844 175.121094 L 71.859375 -46.496094 "/>
<path style="fill:none;stroke-width:0.166667;stroke-linecap:square;stroke-linejoin:miter;stroke:rgb(50.000763%,50.000763%,50.000763%);stroke-opacity:1;stroke-miterlimit:3.25;" d="M -56.089844 175.121094 L 71.859375 -46.496094 "/>
</g>
<g clip-path="url(#clip53)" clip-rule="nonzero">
<path style="fill:none;stroke-width:0.166667;stroke-linecap:square;stroke-linejoin:miter;stroke:rgb(50.000763%,50.000763%,50.000763%);stroke-opacity:1;stroke-miterlimit:3.25;" d="M 71.859375 -46.496094 L 342.554688 109.789062 "/>
</g>
<g clip-path="url(#clip54)" clip-rule="nonzero">
<path style="fill:none;stroke-width:0.166667;stroke-linecap:square;stroke-linejoin:miter;stroke:rgb(50.000763%,50.000763%,50.000763%);stroke-opacity:1;stroke-miterlimit:3.25;" d="M 27.714844 175.121094 L 89.363281 42.914062 "/>
<path style="fill:none;stroke-width:0.166667;stroke-linecap:square;stroke-linejoin:miter;stroke:rgb(50.000763%,50.000763%,50.000763%);stroke-opacity:1;stroke-miterlimit:3.25;" d="M 27.714844 175.121094 L 89.363281 42.914062 "/>
</g>
<path style=" stroke:none;fill-rule:nonzero;fill:rgb(50.000763%,50.000763%,50.000763%);fill-opacity:1;" d="M 89.363281 42.914062 L 89.289062 42.839844 L 89.324219 42.804688 L 89.398438 42.839844 Z M 89.363281 42.914062 "/>
<g clip-path="url(#clip55)" clip-rule="nonzero">
<path style="fill:none;stroke-width:0.166667;stroke-linecap:square;stroke-linejoin:miter;stroke:rgb(50.000763%,50.000763%,50.000763%);stroke-opacity:1;stroke-miterlimit:3.25;" d="M 89.363281 42.914062 L 315.992188 148.59375 "/>
</g>
<g clip-path="url(#clip56)" clip-rule="nonzero">
<path style="fill:none;stroke-width:0.166667;stroke-linecap:square;stroke-linejoin:miter;stroke:rgb(50.000763%,50.000763%,50.000763%);stroke-opacity:1;stroke-miterlimit:3.25;" d="M -41.261719 175.121094 L 59.125 -40.164062 "/>
<path style="fill:none;stroke-width:0.166667;stroke-linecap:square;stroke-linejoin:miter;stroke:rgb(50.000763%,50.000763%,50.000763%);stroke-opacity:1;stroke-miterlimit:3.25;" d="M -41.261719 175.121094 L 59.125 -40.164062 "/>
</g>
<g clip-path="url(#clip57)" clip-rule="nonzero">
<path style="fill:none;stroke-width:0.166667;stroke-linecap:square;stroke-linejoin:miter;stroke:rgb(50.000763%,50.000763%,50.000763%);stroke-opacity:1;stroke-miterlimit:3.25;" d="M 59.125 -40.164062 L 342.410156 91.9375 "/>
</g>
<g clip-path="url(#clip58)" clip-rule="nonzero">
<path style="fill:none;stroke-width:0.166667;stroke-linecap:square;stroke-linejoin:miter;stroke:rgb(50.000763%,50.000763%,50.000763%);stroke-opacity:1;stroke-miterlimit:3.25;" d="M 38.351562 175.121094 L 84.660156 47.894531 "/>
<path style="fill:none;stroke-width:0.166667;stroke-linecap:square;stroke-linejoin:miter;stroke:rgb(50.000763%,50.000763%,50.000763%);stroke-opacity:1;stroke-miterlimit:3.25;" d="M 38.351562 175.121094 L 84.660156 47.894531 "/>
</g>
<path style=" stroke:none;fill-rule:nonzero;fill:rgb(50.000763%,50.000763%,50.000763%);fill-opacity:1;" d="M 84.660156 47.894531 L 84.582031 47.816406 L 84.609375 47.789062 L 84.6875 47.816406 Z M 84.660156 47.894531 "/>
<g clip-path="url(#clip59)" clip-rule="nonzero">
<path style="fill:none;stroke-width:0.166667;stroke-linecap:square;stroke-linejoin:miter;stroke:rgb(50.000763%,50.000763%,50.000763%);stroke-opacity:1;stroke-miterlimit:3.25;" d="M 84.660156 47.894531 L 319.636719 133.417969 "/>
</g>
<g clip-path="url(#clip60)" clip-rule="nonzero">
<path style="fill:none;stroke-width:0.166667;stroke-linecap:square;stroke-linejoin:miter;stroke:rgb(50.000763%,50.000763%,50.000763%);stroke-opacity:1;stroke-miterlimit:3.25;" d="M -28.171875 175.121094 L 47.296875 -32.230469 "/>
<path style="fill:none;stroke-width:0.166667;stroke-linecap:square;stroke-linejoin:miter;stroke:rgb(50.000763%,50.000763%,50.000763%);stroke-opacity:1;stroke-miterlimit:3.25;" d="M -28.171875 175.121094 L 47.296875 -32.230469 "/>
</g>
<g clip-path="url(#clip61)" clip-rule="nonzero">
<path style="fill:none;stroke-width:0.166667;stroke-linecap:square;stroke-linejoin:miter;stroke:rgb(50.000763%,50.000763%,50.000763%);stroke-opacity:1;stroke-miterlimit:3.25;" d="M 47.296875 -32.230469 L 341.015625 74.675781 "/>
</g>
<g clip-path="url(#clip62)" clip-rule="nonzero">
<path style="fill:none;stroke-width:0.166667;stroke-linecap:square;stroke-linejoin:miter;stroke:rgb(50.000763%,50.000763%,50.000763%);stroke-opacity:1;stroke-miterlimit:3.25;" d="M 48.234375 175.121094 L 80.761719 53.726562 "/>
<path style="fill:none;stroke-width:0.166667;stroke-linecap:square;stroke-linejoin:miter;stroke:rgb(50.000763%,50.000763%,50.000763%);stroke-opacity:1;stroke-miterlimit:3.25;" d="M 48.234375 175.121094 L 80.761719 53.726562 "/>
</g>
<path style=" stroke:none;fill-rule:nonzero;fill:rgb(50.000763%,50.000763%,50.000763%);fill-opacity:1;" d="M 80.761719 53.726562 L 80.679688 53.648438 L 80.703125 53.625 L 80.78125 53.648438 Z M 80.761719 53.726562 "/>
<g clip-path="url(#clip63)" clip-rule="nonzero">
<path style="fill:none;stroke-width:0.166667;stroke-linecap:square;stroke-linejoin:miter;stroke:rgb(50.000763%,50.000763%,50.000763%);stroke-opacity:1;stroke-miterlimit:3.25;" d="M 80.761719 53.726562 L 322.296875 118.445312 "/>
</g>
<g clip-path="url(#clip64)" clip-rule="nonzero">
<path style="fill:none;stroke-width:0.166667;stroke-linecap:square;stroke-linejoin:miter;stroke:rgb(50.000763%,50.000763%,50.000763%);stroke-opacity:1;stroke-miterlimit:3.25;" d="M -16.484375 175.121094 L 36.554688 -22.835938 "/>
<path style="fill:none;stroke-width:0.166667;stroke-linecap:square;stroke-linejoin:miter;stroke:rgb(50.000763%,50.000763%,50.000763%);stroke-opacity:1;stroke-miterlimit:3.25;" d="M -16.484375 175.121094 L 36.554688 -22.835938 "/>
</g>
<g clip-path="url(#clip65)" clip-rule="nonzero">
<path style="fill:none;stroke-width:0.166667;stroke-linecap:square;stroke-linejoin:miter;stroke:rgb(50.000763%,50.000763%,50.000763%);stroke-opacity:1;stroke-miterlimit:3.25;" d="M 36.554688 -22.835938 L 338.476562 58.0625 "/>
</g>
<g clip-path="url(#clip66)" clip-rule="nonzero">
<path style="fill:none;stroke-width:0.166667;stroke-linecap:square;stroke-linejoin:miter;stroke:rgb(50.000763%,50.000763%,50.000763%);stroke-opacity:1;stroke-miterlimit:3.25;" d="M 57.53125 175.121094 L 77.78125 60.285156 "/>
<path style="fill:none;stroke-width:0.166667;stroke-linecap:square;stroke-linejoin:miter;stroke:rgb(50.000763%,50.000763%,50.000763%);stroke-opacity:1;stroke-miterlimit:3.25;" d="M 57.53125 175.121094 L 77.78125 60.285156 "/>
</g>
<path style=" stroke:none;fill-rule:nonzero;fill:rgb(50.000763%,50.000763%,50.000763%);fill-opacity:1;" d="M 77.78125 60.285156 L 77.699219 60.203125 L 77.714844 60.191406 L 77.796875 60.203125 Z M 77.78125 60.285156 "/>
<g clip-path="url(#clip67)" clip-rule="nonzero">
<path style="fill:none;stroke-width:0.166667;stroke-linecap:square;stroke-linejoin:miter;stroke:rgb(50.000763%,50.000763%,50.000763%);stroke-opacity:1;stroke-miterlimit:3.25;" d="M 77.78125 60.285156 L 324.039062 103.707031 "/>
</g>
<g clip-path="url(#clip68)" clip-rule="nonzero">
<path style="fill:none;stroke-width:0.166667;stroke-linecap:square;stroke-linejoin:miter;stroke:rgb(50.000763%,50.000763%,50.000763%);stroke-opacity:1;stroke-miterlimit:3.25;" d="M -5.945312 175.121094 L 27.070312 -12.132812 "/>
<path style="fill:none;stroke-width:0.166667;stroke-linecap:square;stroke-linejoin:miter;stroke:rgb(50.000763%,50.000763%,50.000763%);stroke-opacity:1;stroke-miterlimit:3.25;" d="M -5.945312 175.121094 L 27.070312 -12.132812 "/>
</g>
<g clip-path="url(#clip69)" clip-rule="nonzero">
<path style="fill:none;stroke-width:0.166667;stroke-linecap:square;stroke-linejoin:miter;stroke:rgb(50.000763%,50.000763%,50.000763%);stroke-opacity:1;stroke-miterlimit:3.25;" d="M 27.070312 -12.132812 L 334.894531 42.144531 "/>
</g>
<g clip-path="url(#clip70)" clip-rule="nonzero">
<path style="fill:none;stroke-width:0.166667;stroke-linecap:square;stroke-linejoin:miter;stroke:rgb(50.000763%,50.000763%,50.000763%);stroke-opacity:1;stroke-miterlimit:3.25;" d="M 66.398438 175.121094 L 75.820312 67.433594 "/>
<path style="fill:none;stroke-width:0.166667;stroke-linecap:square;stroke-linejoin:miter;stroke:rgb(50.000763%,50.000763%,50.000763%);stroke-opacity:1;stroke-miterlimit:3.25;" d="M 66.398438 175.121094 L 75.820312 67.433594 "/>
</g>
<path style=" stroke:none;fill-rule:nonzero;fill:rgb(50.000763%,50.000763%,50.000763%);fill-opacity:1;" d="M 75.820312 67.433594 L 75.734375 67.347656 L 75.742188 67.34375 L 75.824219 67.347656 Z M 75.820312 67.433594 "/>
<g clip-path="url(#clip71)" clip-rule="nonzero">
<path style="fill:none;stroke-width:0.166667;stroke-linecap:square;stroke-linejoin:miter;stroke:rgb(50.000763%,50.000763%,50.000763%);stroke-opacity:1;stroke-miterlimit:3.25;" d="M 75.820312 67.433594 L 324.921875 89.226562 "/>
</g>
<g clip-path="url(#clip72)" clip-rule="nonzero">
<path style="fill:none;stroke-width:0.166667;stroke-linecap:square;stroke-linejoin:miter;stroke:rgb(50.000763%,50.000763%,50.000763%);stroke-opacity:1;stroke-miterlimit:3.25;" d="M 3.644531 175.121094 L 18.992188 -0.292969 "/>
<path style="fill:none;stroke-width:0.166667;stroke-linecap:square;stroke-linejoin:miter;stroke:rgb(50.000763%,50.000763%,50.000763%);stroke-opacity:1;stroke-miterlimit:3.25;" d="M 3.644531 175.121094 L 18.992188 -0.292969 "/>
</g>
<g clip-path="url(#clip73)" clip-rule="nonzero">
<path style="fill:none;stroke-width:0.166667;stroke-linecap:square;stroke-linejoin:miter;stroke:rgb(50.000763%,50.000763%,50.000763%);stroke-opacity:1;stroke-miterlimit:3.25;" d="M 18.992188 -0.292969 L 330.371094 26.949219 "/>
</g>
<g clip-path="url(#clip74)" clip-rule="nonzero">
<path style="fill:none;stroke-width:0.166667;stroke-linecap:square;stroke-linejoin:miter;stroke:rgb(50.000763%,50.000763%,50.000763%);stroke-opacity:1;stroke-miterlimit:3.25;" d="M 75.015625 175.121094 L 75.015625 75.015625 "/>
<path style="fill:none;stroke-width:0.166667;stroke-linecap:square;stroke-linejoin:miter;stroke:rgb(50.000763%,50.000763%,50.000763%);stroke-opacity:1;stroke-miterlimit:3.25;" d="M 75.015625 175.121094 L 75.015625 75.015625 "/>
</g>
<path style=" stroke:none;fill-rule:nonzero;fill:rgb(50.000763%,50.000763%,50.000763%);fill-opacity:1;" d="M 75.015625 75.015625 L 74.933594 74.933594 L 75.015625 74.933594 Z M 75.015625 75.015625 "/>
<g clip-path="url(#clip75)" clip-rule="nonzero">
<path style="fill:none;stroke-width:0.166667;stroke-linecap:square;stroke-linejoin:miter;stroke:rgb(50.000763%,50.000763%,50.000763%);stroke-opacity:1;stroke-miterlimit:3.25;" d="M 75.015625 75.015625 L 325.074219 75.015625 "/>
</g>
<g clip-path="url(#clip76)" clip-rule="nonzero">
<path style="fill:none;stroke-width:0.166667;stroke-linecap:square;stroke-linejoin:miter;stroke:rgb(50.000763%,50.000763%,50.000763%);stroke-opacity:1;stroke-miterlimit:3.25;" d="M 12.503906 175.121094 L 12.503906 12.503906 "/>
<path style="fill:none;stroke-width:0.166667;stroke-linecap:square;stroke-linejoin:miter;stroke:rgb(50.000763%,50.000763%,50.000763%);stroke-opacity:1;stroke-miterlimit:3.25;" d="M 12.503906 175.121094 L 12.503906 12.503906 "/>
</g>
<path style=" stroke:none;fill-rule:nonzero;fill:rgb(50.000763%,50.000763%,50.000763%);fill-opacity:1;" d="M 12.503906 12.503906 L 12.417969 12.417969 L 12.503906 12.417969 Z M 12.503906 12.503906 "/>
<g clip-path="url(#clip77)" clip-rule="nonzero">
<path style="fill:none;stroke-width:0.166667;stroke-linecap:square;stroke-linejoin:miter;stroke:rgb(50.000763%,50.000763%,50.000763%);stroke-opacity:1;stroke-miterlimit:3.25;" d="M 12.503906 12.503906 L 325.074219 12.503906 "/>
</g>
<path style="fill-rule:nonzero;fill:rgb(100%,100%,86.999313%);fill-opacity:1;stroke-width:0.5;stroke-linecap:square;stroke-linejoin:miter;stroke:rgb(0%,0%,0%);stroke-opacity:1;stroke-miterlimit:3.25;" d="M 151.570312 71.566406 L 151.285156 69.355469 L 150.902344 67.183594 L 150.429688 65.042969 L 149.863281 62.949219 L 149.207031 60.898438 L 148.460938 58.894531 L 147.632812 56.945312 L 146.71875 55.054688 L 145.726562 53.222656 L 144.65625 51.453125 L 143.507812 49.75 L 142.289062 48.117188 L 141 46.554688 L 139.644531 45.070312 L 138.226562 43.664062 L 136.746094 42.339844 L 135.214844 41.097656 L 133.625 39.941406 L 131.992188 38.875 L 130.308594 37.898438 L 128.585938 37.015625 L 126.828125 36.222656 L 125.035156 35.53125 L 123.210938 34.933594 L 121.363281 34.4375 L 119.496094 34.042969 L 117.613281 33.753906 L 115.722656 33.570312 L 113.828125 33.492188 L 111.929688 33.523438 L 110.035156 33.65625 L 108.152344 33.898438 L 106.277344 34.242188 L 104.417969 34.691406 L 102.582031 35.242188 L 100.773438 35.890625 L 99 36.632812 L 97.257812 37.476562 L 95.558594 38.410156 L 93.898438 39.433594 L 92.289062 40.550781 L 90.730469 41.75 L 89.226562 43.039062 L 87.78125 44.40625 L 86.394531 45.855469 L 85.074219 47.382812 L 83.824219 48.980469 L 82.640625 50.652344 L 81.535156 52.390625 L 80.503906 54.195312 L 79.554688 56.058594 L 78.683594 57.980469 L 77.902344 59.960938 L 77.203125 61.988281 L 76.59375 64.0625 L 76.078125 66.183594 L 75.652344 68.339844 L 75.320312 70.535156 L 75.199219 71.566406 L 75.101562 71.644531 L 74.996094 71.726562 L 74.886719 71.808594 L 74.769531 71.894531 L 74.644531 71.984375 L 74.511719 72.074219 L 74.371094 72.167969 L 74.226562 72.261719 L 74.074219 72.355469 L 73.910156 72.453125 L 73.742188 72.550781 L 73.570312 72.648438 L 73.386719 72.746094 L 73.195312 72.847656 L 72.996094 72.945312 L 72.792969 73.046875 L 72.578125 73.144531 L 72.355469 73.242188 L 72.128906 73.34375 L 71.890625 73.441406 L 71.648438 73.539062 L 71.394531 73.632812 L 71.136719 73.726562 L 70.867188 73.820312 L 70.589844 73.910156 L 70.308594 74 L 70.015625 74.085938 L 69.714844 74.171875 L 69.410156 74.25 L 69.09375 74.328125 L 68.769531 74.40625 L 68.441406 74.476562 L 68.101562 74.546875 L 67.753906 74.609375 L 67.402344 74.671875 L 67.039062 74.726562 L 66.671875 74.78125 L 66.292969 74.828125 L 65.910156 74.871094 L 65.519531 74.90625 L 65.121094 74.9375 L 64.714844 74.964844 L 64.300781 74.988281 L 63.851562 75.003906 L 63.386719 75.015625 L 12.503906 75.015625 L 12.550781 73.980469 L 12.691406 71.773438 L 12.886719 69.597656 L 13.132812 67.445312 L 13.433594 65.328125 L 13.78125 63.238281 L 14.179688 61.1875 L 14.625 59.171875 L 15.113281 57.191406 L 15.648438 55.25 L 16.222656 53.351562 L 16.835938 51.492188 L 17.488281 49.679688 L 18.175781 47.90625 L 18.894531 46.179688 L 19.648438 44.5 L 20.429688 42.867188 L 21.238281 41.28125 L 22.074219 39.746094 L 22.933594 38.257812 L 23.808594 36.824219 L 24.707031 35.4375 L 25.621094 34.101562 L 26.546875 32.816406 L 27.488281 31.585938 L 28.433594 30.402344 L 29.386719 29.277344 L 30.339844 28.207031 L 31.292969 27.191406 L 32.242188 26.226562 L 33.1875 25.316406 L 34.125 24.460938 L 35.050781 23.652344 L 35.996094 22.875 L 37.074219 22.027344 L 38.160156 21.222656 L 39.25 20.453125 L 40.339844 19.726562 L 41.433594 19.039062 L 42.523438 18.390625 L 43.613281 17.777344 L 44.699219 17.203125 L 45.785156 16.667969 L 46.863281 16.164062 L 47.933594 15.699219 L 49 15.269531 L 50.054688 14.875 L 51.101562 14.511719 L 52.136719 14.183594 L 53.164062 13.886719 L 54.175781 13.621094 L 55.171875 13.386719 L 56.15625 13.183594 L 57.128906 13.007812 L 58.082031 12.859375 L 59.015625 12.738281 L 59.9375 12.644531 L 60.835938 12.574219 L 61.71875 12.527344 L 163.828125 12.503906 L 164.625 12.511719 L 165.460938 12.546875 L 166.351562 12.601562 L 167.261719 12.683594 L 168.1875 12.789062 L 169.132812 12.925781 L 170.09375 13.085938 L 171.070312 13.273438 L 172.0625 13.492188 L 173.066406 13.742188 L 174.085938 14.023438 L 175.113281 14.332031 L 176.15625 14.675781 L 177.207031 15.054688 L 178.265625 15.464844 L 179.335938 15.910156 L 180.410156 16.394531 L 181.492188 16.910156 L 182.578125 17.464844 L 183.664062 18.058594 L 184.757812 18.6875 L 185.847656 19.355469 L 186.941406 20.0625 L 188.03125 20.808594 L 189.117188 21.59375 L 190.199219 22.417969 L 191.226562 23.242188 L 192.148438 24.023438 L 193.082031 24.851562 L 194.023438 25.734375 L 194.972656 26.667969 L 195.921875 27.65625 L 196.875 28.699219 L 197.828125 29.792969 L 198.777344 30.945312 L 199.722656 32.152344 L 200.65625 33.40625 L 201.578125 34.714844 L 202.484375 36.074219 L 203.371094 37.484375 L 204.242188 38.945312 L 205.089844 40.453125 L 205.914062 42.015625 L 206.710938 43.621094 L 207.476562 45.277344 L 208.214844 46.976562 L 208.921875 48.726562 L 209.59375 50.515625 L 210.226562 52.351562 L 210.824219 54.230469 L 211.378906 56.148438 L 211.890625 58.109375 L 212.359375 60.105469 L 212.78125 62.136719 L 213.15625 64.207031 L 213.484375 66.308594 L 213.761719 68.441406 L 213.984375 70.605469 L 214.152344 72.796875 L 214.269531 75.015625 L 163.472656 75.015625 L 162.761719 75 L 162.425781 74.984375 L 162.109375 74.96875 L 161.796875 74.949219 L 161.488281 74.925781 L 161.1875 74.902344 L 160.886719 74.871094 L 160.589844 74.839844 L 160.011719 74.769531 L 159.730469 74.726562 L 159.453125 74.683594 L 159.179688 74.640625 L 158.910156 74.589844 L 158.648438 74.542969 L 158.386719 74.488281 L 158.132812 74.433594 L 157.882812 74.378906 L 157.636719 74.320312 L 157.394531 74.261719 L 157.160156 74.199219 L 156.925781 74.132812 L 156.699219 74.070312 L 156.476562 74.003906 L 156.257812 73.933594 L 156.042969 73.867188 L 155.835938 73.796875 L 155.632812 73.726562 L 155.429688 73.652344 L 155.234375 73.582031 L 154.859375 73.433594 L 154.679688 73.355469 L 154.5 73.28125 L 154.328125 73.207031 L 154.160156 73.128906 L 153.996094 73.054688 L 153.839844 72.976562 L 153.683594 72.902344 L 153.535156 72.824219 L 153.390625 72.75 L 153.25 72.671875 L 153.113281 72.597656 L 152.980469 72.523438 L 152.851562 72.449219 L 152.609375 72.300781 L 152.496094 72.226562 L 152.382812 72.15625 L 152.277344 72.085938 L 152.175781 72.015625 L 152.078125 71.949219 L 151.984375 71.882812 L 151.894531 71.816406 L 151.808594 71.75 L 151.722656 71.6875 L 151.644531 71.625 Z M 151.570312 71.566406 "/>
<path style="fill:none;stroke-width:0.333333;stroke-linecap:square;stroke-linejoin:miter;stroke:rgb(0%,0%,0%);stroke-opacity:1;stroke-miterlimit:3.25;" d="M 152.753906 70.109375 L 151.570312 71.566406 "/>
<path style="fill:none;stroke-width:0.333333;stroke-linecap:square;stroke-linejoin:miter;stroke:rgb(0%,0%,0%);stroke-opacity:1;stroke-miterlimit:3.25;" d="M 121.484375 32.539062 L 121.074219 34.371094 "/>
<path style="fill:none;stroke-width:0.333333;stroke-linecap:square;stroke-linejoin:miter;stroke:rgb(0%,0%,0%);stroke-opacity:1;stroke-miterlimit:3.25;" d="M 105.285156 32.539062 L 105.695312 34.371094 "/>
<path style="fill:none;stroke-width:0.333333;stroke-linecap:square;stroke-linejoin:miter;stroke:rgb(0%,0%,0%);stroke-opacity:1;stroke-miterlimit:3.25;" d="M 74.019531 70.109375 L 75.199219 71.566406 "/>
<path style="fill:none;stroke-width:0.333333;stroke-linecap:square;stroke-linejoin:miter;stroke:rgb(0%,0%,0%);stroke-opacity:1;stroke-miterlimit:3.25;" d="M 162.675781 73.117188 L 162.601562 74.992188 "/>
<path style="fill:none;stroke-width:0.333333;stroke-linecap:square;stroke-linejoin:miter;stroke:rgb(0%,0%,0%);stroke-opacity:1;stroke-miterlimit:3.25;" d="M 163.828125 73.140625 L 163.828125 75.015625 "/>
<path style="fill:none;stroke-width:0.333333;stroke-linecap:square;stroke-linejoin:miter;stroke:rgb(0%,0%,0%);stroke-opacity:1;stroke-miterlimit:3.25;" d="M 64.09375 73.117188 L 64.167969 74.992188 "/>
<path style="fill:none;stroke-width:0.333333;stroke-linecap:square;stroke-linejoin:miter;stroke:rgb(0%,0%,0%);stroke-opacity:1;stroke-miterlimit:3.25;" d="M 62.945312 73.140625 L 62.945312 75.015625 "/>
<path style="fill:none;stroke-width:0.333333;stroke-linecap:square;stroke-linejoin:miter;stroke:rgb(0%,0%,0%);stroke-opacity:1;stroke-miterlimit:3.25;" d="M 197.175781 31.945312 L 198.632812 30.765625 "/>
<path style="fill:none;stroke-width:0.333333;stroke-linecap:square;stroke-linejoin:miter;stroke:rgb(0%,0%,0%);stroke-opacity:1;stroke-miterlimit:3.25;" d="M 189.761719 24.464844 L 190.941406 23.007812 "/>
<path style="fill:none;stroke-width:0.333333;stroke-linecap:square;stroke-linejoin:miter;stroke:rgb(0%,0%,0%);stroke-opacity:1;stroke-miterlimit:3.25;" d="M 164.976562 14.402344 L 165.050781 12.527344 "/>
<path style="fill:none;stroke-width:0.333333;stroke-linecap:square;stroke-linejoin:miter;stroke:rgb(0%,0%,0%);stroke-opacity:1;stroke-miterlimit:3.25;" d="M 163.828125 14.378906 L 163.828125 12.503906 "/>
<path style="fill:none;stroke-width:0.333333;stroke-linecap:square;stroke-linejoin:miter;stroke:rgb(0%,0%,0%);stroke-opacity:1;stroke-miterlimit:3.25;" d="M 29.597656 31.945312 L 28.140625 30.765625 "/>
<path style="fill:none;stroke-width:0.333333;stroke-linecap:square;stroke-linejoin:miter;stroke:rgb(0%,0%,0%);stroke-opacity:1;stroke-miterlimit:3.25;" d="M 37.007812 24.464844 L 35.828125 23.007812 "/>
<path style="fill:none;stroke-width:0.333333;stroke-linecap:square;stroke-linejoin:miter;stroke:rgb(0%,0%,0%);stroke-opacity:1;stroke-miterlimit:3.25;" d="M 61.792969 14.402344 L 61.71875 12.527344 "/>
<path style="fill:none;stroke-width:0.333333;stroke-linecap:square;stroke-linejoin:miter;stroke:rgb(0%,0%,0%);stroke-opacity:1;stroke-miterlimit:3.25;" d="M 62.945312 14.378906 L 62.945312 12.503906 "/>
<path style="fill:none;stroke-width:0.333333;stroke-linecap:square;stroke-linejoin:miter;stroke:rgb(0%,0%,0%);stroke-opacity:1;stroke-miterlimit:3.25;" d="M 212.941406 73.691406 L 214.269531 75.015625 "/>
<path style="fill:none;stroke-width:0.333333;stroke-linecap:square;stroke-linejoin:miter;stroke:rgb(0%,0%,0%);stroke-opacity:1;stroke-miterlimit:3.25;" d="M 13.828125 73.691406 L 12.503906 75.015625 "/>
<path style="fill:none;stroke-width:0.5;stroke-linecap:square;stroke-linejoin:miter;stroke:rgb(100%,0%,0%);stroke-opacity:1;stroke-miterlimit:3.25;" d="M 75.199219 71.566406 L 75.101562 71.644531 L 74.996094 71.726562 L 74.886719 71.808594 L 74.769531 71.894531 L 74.644531 71.984375 L 74.511719 72.074219 L 74.371094 72.167969 L 74.226562 72.261719 L 74.074219 72.355469 L 73.910156 72.453125 L 73.742188 72.550781 L 73.570312 72.648438 L 73.386719 72.746094 L 73.195312 72.847656 L 72.996094 72.945312 L 72.792969 73.046875 L 72.578125 73.144531 L 72.355469 73.242188 L 72.128906 73.34375 L 71.890625 73.441406 L 71.648438 73.539062 L 71.394531 73.632812 L 71.136719 73.726562 L 70.867188 73.820312 L 70.589844 73.910156 L 70.308594 74 L 70.015625 74.085938 L 69.714844 74.171875 L 69.410156 74.25 L 69.09375 74.328125 L 68.769531 74.40625 L 68.441406 74.476562 L 68.101562 74.546875 L 67.753906 74.609375 L 67.402344 74.671875 L 67.039062 74.726562 L 66.671875 74.78125 L 66.292969 74.828125 L 65.910156 74.871094 L 65.519531 74.90625 L 65.121094 74.9375 L 64.714844 74.964844 L 64.300781 74.988281 L 63.851562 75.003906 L 63.386719 75.015625 "/>
<path style="fill:none;stroke-width:0.5;stroke-linecap:square;stroke-linejoin:miter;stroke:rgb(100%,0%,0%);stroke-opacity:1;stroke-miterlimit:3.25;" d="M 163.828125 75.015625 L 163.472656 75.015625 L 162.761719 75 L 162.425781 74.984375 L 162.109375 74.96875 L 161.796875 74.949219 L 161.488281 74.925781 L 161.1875 74.902344 L 160.886719 74.871094 L 160.589844 74.839844 L 160.011719 74.769531 L 159.730469 74.726562 L 159.453125 74.683594 L 159.179688 74.640625 L 158.910156 74.589844 L 158.648438 74.542969 L 158.386719 74.488281 L 158.132812 74.433594 L 157.882812 74.378906 L 157.636719 74.320312 L 157.394531 74.261719 L 157.160156 74.199219 L 156.925781 74.132812 L 156.699219 74.070312 L 156.476562 74.003906 L 156.257812 73.933594 L 156.042969 73.867188 L 155.835938 73.796875 L 155.632812 73.726562 L 155.429688 73.652344 L 155.234375 73.582031 L 154.859375 73.433594 L 154.679688 73.355469 L 154.5 73.28125 L 154.328125 73.207031 L 154.160156 73.128906 L 153.996094 73.054688 L 153.839844 72.976562 L 153.683594 72.902344 L 153.535156 72.824219 L 153.390625 72.75 L 153.25 72.671875 L 153.113281 72.597656 L 152.980469 72.523438 L 152.851562 72.449219 L 152.609375 72.300781 L 152.496094 72.226562 L 152.382812 72.15625 L 152.277344 72.085938 L 152.175781 72.015625 L 152.078125 71.949219 L 151.984375 71.882812 L 151.894531 71.816406 L 151.808594 71.75 L 151.722656 71.6875 L 151.644531 71.625 L 151.570312 71.566406 "/>
<path style="fill:none;stroke-width:0.5;stroke-linecap:butt;stroke-linejoin:miter;stroke:rgb(0%,0%,100%);stroke-opacity:1;stroke-dasharray:0.680315;stroke-miterlimit:3.25;" d="M 151.753906 75.015625 L 151.753906 74.613281 L 151.75 74.554688 L 151.75 74.378906 L 151.746094 74.320312 L 151.746094 74.207031 L 151.742188 74.148438 L 151.742188 74.089844 L 151.738281 74.03125 L 151.738281 73.976562 L 151.734375 73.917969 L 151.734375 73.859375 L 151.730469 73.800781 L 151.730469 73.746094 L 151.726562 73.6875 L 151.726562 73.628906 L 151.722656 73.570312 L 151.71875 73.515625 L 151.71875 73.457031 L 151.710938 73.339844 L 151.707031 73.285156 L 151.707031 73.226562 L 151.703125 73.167969 L 151.699219 73.113281 L 151.6875 72.9375 L 151.683594 72.882812 L 151.675781 72.765625 L 151.671875 72.710938 L 151.664062 72.59375 L 151.660156 72.539062 L 151.652344 72.421875 L 151.648438 72.367188 L 151.640625 72.308594 L 151.636719 72.25 L 151.632812 72.195312 L 151.628906 72.136719 L 151.621094 72.082031 L 151.613281 71.964844 L 151.605469 71.910156 L 151.601562 71.851562 L 151.59375 71.792969 L 151.589844 71.738281 L 151.582031 71.679688 L 151.578125 71.625 L 151.570312 71.566406 "/>
<path style="fill:none;stroke-width:0.5;stroke-linecap:butt;stroke-linejoin:miter;stroke:rgb(0%,0%,100%);stroke-opacity:1;stroke-dasharray:0.680315;stroke-miterlimit:3.25;" d="M 75.199219 71.566406 L 75.195312 71.625 L 75.1875 71.679688 L 75.183594 71.738281 L 75.175781 71.792969 L 75.171875 71.851562 L 75.164062 71.910156 L 75.160156 71.964844 L 75.15625 72.023438 L 75.148438 72.082031 L 75.144531 72.136719 L 75.140625 72.195312 L 75.132812 72.25 L 75.125 72.367188 L 75.121094 72.421875 L 75.117188 72.480469 L 75.109375 72.539062 L 75.105469 72.59375 L 75.097656 72.710938 L 75.09375 72.765625 L 75.085938 72.882812 L 75.082031 72.9375 L 75.074219 73.054688 L 75.074219 73.113281 L 75.070312 73.167969 L 75.0625 73.285156 L 75.058594 73.339844 L 75.058594 73.398438 L 75.050781 73.515625 L 75.050781 73.570312 L 75.042969 73.6875 L 75.042969 73.746094 L 75.039062 73.800781 L 75.039062 73.859375 L 75.035156 73.917969 L 75.035156 73.976562 L 75.03125 74.03125 L 75.03125 74.089844 L 75.027344 74.148438 L 75.027344 74.265625 L 75.023438 74.320312 L 75.023438 74.4375 L 75.019531 74.496094 L 75.019531 74.785156 L 75.015625 74.84375 L 75.015625 75.015625 "/>
<path style="fill:none;stroke-width:0.5;stroke-linecap:square;stroke-linejoin:miter;stroke:rgb(0%,0%,100%);stroke-opacity:1;stroke-miterlimit:3.25;" d="M 151.570312 71.566406 L 151.285156 69.355469 L 150.902344 67.183594 L 150.429688 65.042969 L 149.863281 62.949219 L 149.207031 60.898438 L 148.460938 58.894531 L 147.632812 56.945312 L 146.71875 55.054688 L 145.726562 53.222656 L 144.65625 51.453125 L 143.507812 49.75 L 142.289062 48.117188 L 141 46.554688 L 139.644531 45.070312 L 138.226562 43.664062 L 136.746094 42.339844 L 135.214844 41.097656 L 133.625 39.941406 L 131.992188 38.875 L 130.308594 37.898438 L 128.585938 37.015625 L 126.828125 36.222656 L 125.035156 35.53125 L 123.210938 34.933594 L 121.363281 34.4375 L 119.496094 34.042969 L 117.613281 33.753906 L 115.722656 33.570312 L 113.828125 33.492188 L 111.929688 33.523438 L 110.035156 33.65625 L 108.152344 33.898438 L 106.277344 34.242188 L 104.417969 34.691406 L 102.582031 35.242188 L 100.773438 35.890625 L 99 36.632812 L 97.257812 37.476562 L 95.558594 38.410156 L 93.898438 39.433594 L 92.289062 40.550781 L 90.730469 41.75 L 89.226562 43.039062 L 87.78125 44.40625 L 86.394531 45.855469 L 85.074219 47.382812 L 83.824219 48.980469 L 82.640625 50.652344 L 81.535156 52.390625 L 80.503906 54.195312 L 79.554688 56.058594 L 78.683594 57.980469 L 77.902344 59.960938 L 77.203125 61.988281 L 76.59375 64.0625 L 76.078125 66.183594 L 75.652344 68.339844 L 75.320312 70.535156 "/>
<path style=" stroke:none;fill-rule:evenodd;fill:rgb(0%,0%,100%);fill-opacity:1;" d="M 133.132812 39 C 133.132812 38.699219 133.015625 38.410156 132.800781 38.199219 C 132.589844 37.984375 132.300781 37.867188 132 37.867188 C 131.699219 37.867188 131.410156 37.984375 131.199219 38.199219 C 130.984375 38.410156 130.867188 38.699219 130.867188 39 C 130.867188 39.300781 130.984375 39.589844 131.199219 39.800781 C 131.410156 40.015625 131.699219 40.132812 132 40.132812 C 132.300781 40.132812 132.589844 40.015625 132.800781 39.800781 C 133.015625 39.589844 133.132812 39.300781 133.132812 39 Z M 133.132812 39 "/>
<path style=" stroke:none;fill-rule:evenodd;fill:rgb(0%,0%,0%);fill-opacity:1;" d="M 136.902344 35.726562 L 136.902344 35.410156 L 136.390625 35.410156 L 135.15625 33.921875 L 136.003906 32.949219 C 136.085938 32.855469 136.152344 32.796875 136.757812 32.796875 L 136.757812 32.484375 L 136.085938 32.496094 C 135.871094 32.496094 135.558594 32.496094 135.355469 32.484375 L 135.355469 32.796875 C 135.492188 32.796875 135.648438 32.832031 135.648438 32.882812 C 135.648438 32.882812 135.609375 32.949219 135.59375 32.964844 L 134.960938 33.679688 L 134.238281 32.796875 L 134.542969 32.796875 L 134.542969 32.484375 C 134.375 32.496094 133.878906 32.496094 133.683594 32.496094 C 133.460938 32.496094 133.070312 32.496094 132.863281 32.484375 L 132.863281 32.796875 L 133.382812 32.796875 L 134.523438 34.183594 L 133.570312 35.257812 C 133.484375 35.359375 133.433594 35.410156 132.828125 35.410156 L 132.828125 35.726562 L 133.507812 35.710938 C 133.71875 35.710938 134.023438 35.710938 134.230469 35.726562 L 134.230469 35.410156 C 134.089844 35.410156 133.9375 35.375 133.9375 35.324219 C 133.9375 35.324219 133.9375 35.308594 133.988281 35.25 L 134.71875 34.425781 L 135.53125 35.410156 L 135.222656 35.410156 L 135.222656 35.726562 C 135.398438 35.710938 135.886719 35.710938 136.09375 35.710938 C 136.3125 35.710938 136.699219 35.710938 136.902344 35.726562 Z M 136.902344 35.726562 "/>
<path style=" stroke:none;fill-rule:evenodd;fill:rgb(0%,0%,0%);fill-opacity:1;" d="M 140.003906 35.617188 C 140.003906 35.378906 139.929688 35.195312 139.789062 35.054688 C 139.636719 34.886719 139.46875 34.84375 139.226562 34.78125 L 138.761719 34.671875 C 138.609375 34.632812 138.320312 34.53125 138.320312 34.171875 C 138.320312 33.773438 138.753906 33.347656 139.273438 33.347656 C 139.734375 33.347656 140.050781 33.585938 140.050781 34.136719 C 140.050781 34.261719 140.03125 34.367188 140.03125 34.390625 C 140.03125 34.449219 140.074219 34.460938 140.113281 34.460938 C 140.171875 34.460938 140.179688 34.441406 140.199219 34.359375 L 140.460938 33.332031 C 140.464844 33.308594 140.476562 33.277344 140.476562 33.253906 C 140.476562 33.21875 140.445312 33.191406 140.410156 33.191406 C 140.371094 33.191406 140.363281 33.203125 140.304688 33.261719 C 140.25 33.332031 140.117188 33.492188 140.058594 33.554688 C 139.863281 33.261719 139.539062 33.191406 139.277344 33.191406 C 138.566406 33.191406 137.960938 33.789062 137.960938 34.375 C 137.960938 34.671875 138.117188 34.84375 138.144531 34.878906 C 138.3125 35.058594 138.460938 35.101562 138.828125 35.1875 C 139.007812 35.234375 139.019531 35.234375 139.164062 35.269531 C 139.316406 35.304688 139.640625 35.386719 139.640625 35.808594 C 139.640625 36.253906 139.203125 36.730469 138.664062 36.730469 C 138.332031 36.730469 137.722656 36.628906 137.722656 35.996094 C 137.722656 35.980469 137.722656 35.871094 137.753906 35.75 L 137.761719 35.699219 C 137.761719 35.636719 137.703125 35.632812 137.683594 35.632812 C 137.617188 35.632812 137.613281 35.652344 137.585938 35.769531 L 137.375 36.601562 C 137.355469 36.679688 137.320312 36.816406 137.320312 36.832031 C 137.320312 36.875 137.351562 36.898438 137.386719 36.898438 C 137.421875 36.898438 137.425781 36.894531 137.484375 36.828125 C 137.519531 36.785156 137.515625 36.785156 137.730469 36.542969 C 137.847656 36.695312 138.136719 36.898438 138.65625 36.898438 C 139.394531 36.898438 140.003906 36.230469 140.003906 35.617188 Z M 140.003906 35.617188 "/>
<path style=" stroke:none;fill-rule:evenodd;fill:rgb(0%,0%,0%);fill-opacity:1;" d="M 143.523438 36.570312 C 143.523438 36.535156 143.496094 36.515625 143.464844 36.515625 C 143.398438 36.515625 143.324219 36.527344 143.257812 36.527344 C 143.183594 36.527344 143.109375 36.53125 143.035156 36.53125 L 142.730469 36.527344 C 142.632812 36.527344 142.523438 36.515625 142.425781 36.515625 C 142.398438 36.515625 142.371094 36.515625 142.355469 36.542969 C 142.347656 36.550781 142.335938 36.59375 142.335938 36.609375 C 142.34375 36.660156 142.371094 36.660156 142.492188 36.660156 C 142.558594 36.660156 142.632812 36.664062 142.703125 36.667969 C 142.824219 36.679688 142.828125 36.695312 142.828125 36.734375 C 142.828125 36.753906 142.765625 37.003906 142.753906 37.046875 C 142.734375 37.128906 142.699219 37.269531 142.457031 37.367188 C 142.246094 37.457031 142.007812 37.457031 141.957031 37.457031 C 141.539062 37.457031 141.054688 37.261719 141.054688 36.652344 C 141.054688 36.410156 141.140625 35.921875 141.511719 35.535156 C 141.628906 35.410156 142.011719 35.105469 142.53125 35.105469 C 142.992188 35.105469 143.246094 35.429688 143.246094 35.824219 C 143.246094 35.882812 143.234375 35.957031 143.234375 35.957031 C 143.234375 36.011719 143.289062 36.011719 143.308594 36.011719 C 143.355469 36.011719 143.375 36.007812 143.390625 35.933594 L 143.605469 35.0625 C 143.613281 35.03125 143.617188 35.007812 143.617188 35.007812 C 143.617188 35.007812 143.613281 34.957031 143.5625 34.957031 C 143.535156 34.957031 143.53125 34.960938 143.492188 35 L 143.257812 35.25 L 143.21875 35.277344 C 143.21875 35.277344 143.214844 35.277344 143.203125 35.269531 C 143.109375 35.164062 142.914062 34.957031 142.492188 34.957031 C 141.570312 34.957031 140.671875 35.726562 140.671875 36.554688 C 140.671875 37.132812 141.125 37.601562 141.875 37.601562 C 142.140625 37.601562 142.539062 37.558594 142.769531 37.320312 C 142.792969 37.367188 142.898438 37.523438 142.953125 37.523438 C 142.96875 37.523438 142.988281 37.515625 142.996094 37.503906 C 143.007812 37.472656 143.105469 37.070312 143.125 36.992188 L 143.171875 36.808594 C 143.207031 36.664062 143.21875 36.664062 143.433594 36.660156 C 143.46875 36.660156 143.523438 36.660156 143.523438 36.570312 Z M 143.523438 36.570312 "/>
<path style=" stroke:none;fill-rule:evenodd;fill:rgb(0%,0%,0%);fill-opacity:1;" d="M 146.867188 37.5 C 146.867188 37.476562 146.867188 37.464844 146.742188 37.339844 C 146.015625 36.601562 145.605469 35.394531 145.605469 33.90625 C 145.605469 32.492188 145.945312 31.269531 146.792969 30.410156 C 146.867188 30.34375 146.867188 30.328125 146.867188 30.308594 C 146.867188 30.261719 146.832031 30.25 146.800781 30.25 C 146.707031 30.25 146.109375 30.773438 145.75 31.488281 C 145.378906 32.226562 145.210938 33.007812 145.210938 33.90625 C 145.210938 34.558594 145.3125 35.425781 145.691406 36.207031 C 146.125 37.082031 146.722656 37.558594 146.800781 37.558594 C 146.832031 37.558594 146.867188 37.542969 146.867188 37.5 Z M 146.867188 37.5 "/>
<path style=" stroke:none;fill-rule:evenodd;fill:rgb(0%,0%,0%);fill-opacity:1;" d="M 149.515625 34.679688 C 149.515625 34.636719 149.484375 34.617188 149.441406 34.617188 C 149.441406 34.617188 149.398438 34.617188 149.382812 34.644531 C 149.382812 34.644531 149.367188 34.660156 149.316406 34.777344 C 149.164062 35.140625 148.828125 35.652344 148.402344 35.652344 C 148.183594 35.652344 148.167969 35.46875 148.167969 35.308594 C 148.167969 35.308594 148.167969 35.164062 148.191406 35.074219 L 148.761719 32.789062 L 149.433594 32.789062 C 149.574219 32.789062 149.644531 32.789062 149.644531 32.660156 C 149.644531 32.578125 149.601562 32.578125 149.457031 32.578125 L 148.8125 32.578125 L 149.082031 31.511719 C 149.113281 31.410156 149.113281 31.394531 149.113281 31.34375 C 149.113281 31.226562 149.015625 31.160156 148.921875 31.160156 C 148.863281 31.160156 148.695312 31.183594 148.636719 31.417969 L 148.351562 32.578125 L 147.667969 32.578125 C 147.519531 32.578125 147.453125 32.578125 147.453125 32.714844 C 147.453125 32.789062 147.503906 32.789062 147.644531 32.789062 L 148.292969 32.789062 L 147.8125 34.71875 C 147.753906 34.972656 147.730469 35.046875 147.730469 35.140625 C 147.730469 35.484375 147.972656 35.796875 148.382812 35.796875 C 149.121094 35.796875 149.515625 34.730469 149.515625 34.679688 Z M 149.515625 34.679688 "/>
<path style=" stroke:none;fill-rule:evenodd;fill:rgb(0%,0%,0%);fill-opacity:1;" d="M 151.886719 33.90625 C 151.886719 33.351562 151.8125 32.445312 151.40625 31.597656 C 150.972656 30.722656 150.375 30.25 150.292969 30.25 C 150.265625 30.25 150.230469 30.261719 150.230469 30.308594 C 150.230469 30.328125 150.230469 30.34375 150.351562 30.46875 C 151.082031 31.203125 151.492188 32.410156 151.492188 33.898438 C 151.492188 35.316406 151.148438 36.535156 150.300781 37.398438 C 150.230469 37.464844 150.230469 37.476562 150.230469 37.5 C 150.230469 37.542969 150.265625 37.558594 150.292969 37.558594 C 150.390625 37.558594 150.988281 37.03125 151.347656 36.316406 C 151.71875 35.574219 151.886719 34.78125 151.886719 33.90625 Z M 151.886719 33.90625 "/>
</g>
</svg>
