<?xml version="1.0" encoding="UTF-8"?>
<svg xmlns="http://www.w3.org/2000/svg" xmlns:xlink="http://www.w3.org/1999/xlink" width="404pt" height="144pt" viewBox="0 0 404 144" version="1.1">
<g id="surface7">
<path style="fill:none;stroke-width:0.5;stroke-linecap:square;stroke-linejoin:miter;stroke:rgb(85.000381%,85.000381%,85.000381%);stroke-opacity:1;stroke-miterlimit:3.25;" d="M -161.75 123.4375 L 249.703125 123.4375 "/>
<path style="fill:none;stroke-width:0.5;stroke-linecap:square;stroke-linejoin:miter;stroke:rgb(85.000381%,85.000381%,85.000381%);stroke-opacity:1;stroke-miterlimit:3.25;" d="M 249.703125 288.007812 L 249.703125 123.4375 "/>
<path style=" stroke:none;fill-rule:nonzero;fill:rgb(85.000381%,85.000381%,85.000381%);fill-opacity:1;" d="M 249.703125 123.4375 L 249.953125 123.6875 L 249.953125 123.1875 L 249.703125 123.1875 Z M 249.703125 123.4375 "/>
<path style="fill:none;stroke-width:0.5;stroke-linecap:square;stroke-linejoin:miter;stroke:rgb(85.000381%,85.000381%,85.000381%);stroke-opacity:1;stroke-miterlimit:3.25;" d="M 249.703125 288.007812 L 249.703125 123.4375 "/>
<path style=" stroke:none;fill-rule:nonzero;fill:rgb(85.000381%,85.000381%,85.000381%);fill-opacity:1;" d="M 249.703125 123.4375 L 249.953125 123.6875 L 249.953125 123.1875 L 249.703125 123.1875 Z M 249.703125 123.4375 "/>
<path style="fill:none;stroke-width:0.5;stroke-linecap:square;stroke-linejoin:miter;stroke:rgb(85.000381%,85.000381%,85.000381%);stroke-opacity:1;stroke-miterlimit:3.25;" d="M -161.75 20.574219 L 352.566406 20.574219 "/>
<path style="fill:none;stroke-width:0.5;stroke-linecap:square;stroke-linejoin:miter;stroke:rgb(85.000381%,85.000381%,85.000381%);stroke-opacity:1;stroke-miterlimit:3.25;" d="M 352.566406 288.007812 L 352.566406 20.574219 "/>
<path style=" stroke:none;fill-rule:nonzero;fill:rgb(85.000381%,85.000381%,85.000381%);fill-opacity:1;" d="M 352.566406 20.574219 L 352.816406 20.824219 L 352.816406 20.324219 L 352.566406 20.324219 Z M 352.566406 20.574219 "/>
<path style="fill:none;stroke-width:0.5;stroke-linecap:square;stroke-linejoin:miter;stroke:rgb(85.000381%,85.000381%,85.000381%);stroke-opacity:1;stroke-miterlimit:3.25;" d="M 352.566406 288.007812 L 352.566406 20.574219 "/>
<path style=" stroke:none;fill-rule:nonzero;fill:rgb(85.000381%,85.000381%,85.000381%);fill-opacity:1;" d="M 352.566406 20.574219 L 352.816406 20.824219 L 352.816406 20.324219 L 352.566406 20.324219 Z M 352.566406 20.574219 "/>
<path style="fill:none;stroke-width:0.5;stroke-linecap:square;stroke-linejoin:miter;stroke:rgb(85.000381%,85.000381%,85.000381%);stroke-opacity:1;stroke-miterlimit:3.25;" d="M -161.503906 146.816406 L 248.386719 110.957031 "/>
<path style="fill:none;stroke-width:0.5;stroke-linecap:square;stroke-linejoin:miter;stroke:rgb(85.000381%,85.000381%,85.000381%);stroke-opacity:1;stroke-miterlimit:3.25;" d="M 263.875 288.007812 L 248.386719 110.957031 "/>
<path style=" stroke:none;fill-rule:nonzero;fill:rgb(85.000381%,85.000381%,85.000381%);fill-opacity:1;" d="M 248.386719 110.957031 L 248.632812 111.207031 L 248.613281 110.6875 L 248.363281 110.707031 Z M 248.386719 110.957031 "/>
<path style="fill:none;stroke-width:0.5;stroke-linecap:square;stroke-linejoin:miter;stroke:rgb(85.000381%,85.000381%,85.000381%);stroke-opacity:1;stroke-miterlimit:3.25;" d="M 263.875 288.007812 L 248.386719 110.957031 "/>
<path style=" stroke:none;fill-rule:nonzero;fill:rgb(85.000381%,85.000381%,85.000381%);fill-opacity:1;" d="M 248.386719 110.957031 L 248.632812 111.207031 L 248.613281 110.6875 L 248.363281 110.707031 Z M 248.386719 110.957031 "/>
<path style="fill:none;stroke-width:0.5;stroke-linecap:square;stroke-linejoin:miter;stroke:rgb(85.000381%,85.000381%,85.000381%);stroke-opacity:1;stroke-miterlimit:3.25;" d="M -170.46875 44.34375 L 341.894531 -0.480469 "/>
<path style="fill:none;stroke-width:0.5;stroke-linecap:square;stroke-linejoin:miter;stroke:rgb(85.000381%,85.000381%,85.000381%);stroke-opacity:1;stroke-miterlimit:3.25;" d="M 367.132812 288.007812 L 341.894531 -0.480469 "/>
<path style="fill:none;stroke-width:0.5;stroke-linecap:square;stroke-linejoin:miter;stroke:rgb(85.000381%,85.000381%,85.000381%);stroke-opacity:1;stroke-miterlimit:3.25;" d="M 367.132812 288.007812 L 341.894531 -0.480469 "/>
<path style="fill:none;stroke-width:0.5;stroke-linecap:square;stroke-linejoin:miter;stroke:rgb(85.000381%,85.000381%,85.000381%);stroke-opacity:1;stroke-miterlimit:3.25;" d="M -160.046875 170.644531 L 245.15625 99.199219 "/>
<path style="fill:none;stroke-width:0.5;stroke-linecap:square;stroke-linejoin:miter;stroke:rgb(85.000381%,85.000381%,85.000381%);stroke-opacity:1;stroke-miterlimit:3.25;" d="M 278.449219 288.007812 L 245.15625 99.199219 "/>
<path style=" stroke:none;fill-rule:nonzero;fill:rgb(85.000381%,85.000381%,85.000381%);fill-opacity:1;" d="M 245.15625 99.199219 L 245.402344 99.445312 L 245.359375 98.910156 L 245.113281 98.953125 Z M 245.15625 99.199219 "/>
<path style="fill:none;stroke-width:0.5;stroke-linecap:square;stroke-linejoin:miter;stroke:rgb(85.000381%,85.000381%,85.000381%);stroke-opacity:1;stroke-miterlimit:3.25;" d="M 278.449219 288.007812 L 245.15625 99.199219 "/>
<path style=" stroke:none;fill-rule:nonzero;fill:rgb(85.000381%,85.000381%,85.000381%);fill-opacity:1;" d="M 245.15625 99.199219 L 245.402344 99.445312 L 245.359375 98.910156 L 245.113281 98.953125 Z M 245.15625 99.199219 "/>
<path style="fill:none;stroke-width:0.5;stroke-linecap:square;stroke-linejoin:miter;stroke:rgb(85.000381%,85.000381%,85.000381%);stroke-opacity:1;stroke-miterlimit:3.25;" d="M -177.910156 69.34375 L 328.59375 -19.964844 "/>
<path style="fill:none;stroke-width:0.5;stroke-linecap:square;stroke-linejoin:miter;stroke:rgb(85.000381%,85.000381%,85.000381%);stroke-opacity:1;stroke-miterlimit:3.25;" d="M 382.898438 288.007812 L 328.59375 -19.964844 "/>
<path style="fill:none;stroke-width:0.5;stroke-linecap:square;stroke-linejoin:miter;stroke:rgb(85.000381%,85.000381%,85.000381%);stroke-opacity:1;stroke-miterlimit:3.25;" d="M 382.898438 288.007812 L 328.59375 -19.964844 "/>
<path style="fill:none;stroke-width:0.5;stroke-linecap:square;stroke-linejoin:miter;stroke:rgb(85.000381%,85.000381%,85.000381%);stroke-opacity:1;stroke-miterlimit:3.25;" d="M -157.179688 194.898438 L 240.253906 88.40625 "/>
<path style="fill:none;stroke-width:0.5;stroke-linecap:square;stroke-linejoin:miter;stroke:rgb(85.000381%,85.000381%,85.000381%);stroke-opacity:1;stroke-miterlimit:3.25;" d="M 293.738281 288.007812 L 240.253906 88.40625 "/>
<path style=" stroke:none;fill-rule:nonzero;fill:rgb(85.000381%,85.000381%,85.000381%);fill-opacity:1;" d="M 240.253906 88.40625 L 240.496094 88.648438 L 240.429688 88.097656 L 240.1875 88.164062 Z M 240.253906 88.40625 "/>
<path style="fill:none;stroke-width:0.5;stroke-linecap:square;stroke-linejoin:miter;stroke:rgb(85.000381%,85.000381%,85.000381%);stroke-opacity:1;stroke-miterlimit:3.25;" d="M 293.738281 288.007812 L 240.253906 88.40625 "/>
<path style=" stroke:none;fill-rule:nonzero;fill:rgb(85.000381%,85.000381%,85.000381%);fill-opacity:1;" d="M 240.253906 88.40625 L 240.496094 88.648438 L 240.429688 88.097656 L 240.1875 88.164062 Z M 240.253906 88.40625 "/>
<path style="fill:none;stroke-width:0.5;stroke-linecap:square;stroke-linejoin:miter;stroke:rgb(85.000381%,85.000381%,85.000381%);stroke-opacity:1;stroke-miterlimit:3.25;" d="M -183.804688 95.539062 L 312.988281 -37.578125 "/>
<path style="fill:none;stroke-width:0.5;stroke-linecap:square;stroke-linejoin:miter;stroke:rgb(85.000381%,85.000381%,85.000381%);stroke-opacity:1;stroke-miterlimit:3.25;" d="M 400.230469 288.007812 L 312.988281 -37.578125 "/>
<path style="fill:none;stroke-width:0.5;stroke-linecap:square;stroke-linejoin:miter;stroke:rgb(85.000381%,85.000381%,85.000381%);stroke-opacity:1;stroke-miterlimit:3.25;" d="M 400.230469 288.007812 L 312.988281 -37.578125 "/>
<path style="fill:none;stroke-width:0.5;stroke-linecap:square;stroke-linejoin:miter;stroke:rgb(85.000381%,85.000381%,85.000381%);stroke-opacity:1;stroke-miterlimit:3.25;" d="M -152.804688 219.535156 L 233.839844 78.808594 "/>
<path style="fill:none;stroke-width:0.5;stroke-linecap:square;stroke-linejoin:miter;stroke:rgb(85.000381%,85.000381%,85.000381%);stroke-opacity:1;stroke-miterlimit:3.25;" d="M 309.980469 288.007812 L 233.839844 78.808594 "/>
<path style=" stroke:none;fill-rule:nonzero;fill:rgb(85.000381%,85.000381%,85.000381%);fill-opacity:1;" d="M 233.839844 78.808594 L 234.074219 79.042969 L 233.988281 78.488281 L 233.753906 78.574219 Z M 233.839844 78.808594 "/>
<path style="fill:none;stroke-width:0.5;stroke-linecap:square;stroke-linejoin:miter;stroke:rgb(85.000381%,85.000381%,85.000381%);stroke-opacity:1;stroke-miterlimit:3.25;" d="M 309.980469 288.007812 L 233.839844 78.808594 "/>
<path style=" stroke:none;fill-rule:nonzero;fill:rgb(85.000381%,85.000381%,85.000381%);fill-opacity:1;" d="M 233.839844 78.808594 L 234.074219 79.042969 L 233.988281 78.488281 L 233.753906 78.574219 Z M 233.839844 78.808594 "/>
<path style="fill:none;stroke-width:0.5;stroke-linecap:square;stroke-linejoin:miter;stroke:rgb(85.000381%,85.000381%,85.000381%);stroke-opacity:1;stroke-miterlimit:3.25;" d="M -187.984375 122.875 L 295.316406 -53.035156 "/>
<path style="fill:none;stroke-width:0.5;stroke-linecap:square;stroke-linejoin:miter;stroke:rgb(85.000381%,85.000381%,85.000381%);stroke-opacity:1;stroke-miterlimit:3.25;" d="M 419.445312 288.007812 L 295.316406 -53.035156 "/>
<path style="fill:none;stroke-width:0.5;stroke-linecap:square;stroke-linejoin:miter;stroke:rgb(85.000381%,85.000381%,85.000381%);stroke-opacity:1;stroke-miterlimit:3.25;" d="M 419.445312 288.007812 L 295.316406 -53.035156 "/>
<path style="fill:none;stroke-width:0.5;stroke-linecap:square;stroke-linejoin:miter;stroke:rgb(85.000381%,85.000381%,85.000381%);stroke-opacity:1;stroke-miterlimit:3.25;" d="M -146.808594 244.503906 L 226.097656 70.613281 "/>
<path style="fill:none;stroke-width:0.5;stroke-linecap:square;stroke-linejoin:miter;stroke:rgb(85.000381%,85.000381%,85.000381%);stroke-opacity:1;stroke-miterlimit:3.25;" d="M 327.472656 288.007812 L 226.097656 70.613281 "/>
<path style=" stroke:none;fill-rule:nonzero;fill:rgb(85.000381%,85.000381%,85.000381%);fill-opacity:1;" d="M 226.097656 70.613281 L 226.324219 70.839844 L 226.21875 70.28125 L 225.992188 70.386719 Z M 226.097656 70.613281 "/>
<path style="fill:none;stroke-width:0.5;stroke-linecap:square;stroke-linejoin:miter;stroke:rgb(85.000381%,85.000381%,85.000381%);stroke-opacity:1;stroke-miterlimit:3.25;" d="M 327.472656 288.007812 L 226.097656 70.613281 "/>
<path style=" stroke:none;fill-rule:nonzero;fill:rgb(85.000381%,85.000381%,85.000381%);fill-opacity:1;" d="M 226.097656 70.613281 L 226.324219 70.839844 L 226.21875 70.28125 L 225.992188 70.386719 Z M 226.097656 70.613281 "/>
<path style="fill:none;stroke-width:0.5;stroke-linecap:square;stroke-linejoin:miter;stroke:rgb(85.000381%,85.000381%,85.000381%);stroke-opacity:1;stroke-miterlimit:3.25;" d="M -190.277344 151.277344 L 275.851562 -66.085938 "/>
<path style="fill:none;stroke-width:0.5;stroke-linecap:square;stroke-linejoin:miter;stroke:rgb(85.000381%,85.000381%,85.000381%);stroke-opacity:1;stroke-miterlimit:3.25;" d="M 440.96875 288.007812 L 275.851562 -66.085938 "/>
<path style="fill:none;stroke-width:0.5;stroke-linecap:square;stroke-linejoin:miter;stroke:rgb(85.000381%,85.000381%,85.000381%);stroke-opacity:1;stroke-miterlimit:3.25;" d="M 440.96875 288.007812 L 275.851562 -66.085938 "/>
<path style="fill:none;stroke-width:0.5;stroke-linecap:square;stroke-linejoin:miter;stroke:rgb(85.000381%,85.000381%,85.000381%);stroke-opacity:1;stroke-miterlimit:3.25;" d="M -139.082031 269.730469 L 217.246094 64.003906 "/>
<path style="fill:none;stroke-width:0.5;stroke-linecap:square;stroke-linejoin:miter;stroke:rgb(85.000381%,85.000381%,85.000381%);stroke-opacity:1;stroke-miterlimit:3.25;" d="M 346.578125 288.007812 L 217.246094 64.003906 "/>
<path style=" stroke:none;fill-rule:nonzero;fill:rgb(85.000381%,85.000381%,85.000381%);fill-opacity:1;" d="M 217.246094 64.003906 L 217.464844 64.222656 L 217.339844 63.664062 L 217.121094 63.789062 Z M 217.246094 64.003906 "/>
<path style="fill:none;stroke-width:0.5;stroke-linecap:square;stroke-linejoin:miter;stroke:rgb(85.000381%,85.000381%,85.000381%);stroke-opacity:1;stroke-miterlimit:3.25;" d="M 346.578125 288.007812 L 217.246094 64.003906 "/>
<path style=" stroke:none;fill-rule:nonzero;fill:rgb(85.000381%,85.000381%,85.000381%);fill-opacity:1;" d="M 217.246094 64.003906 L 217.464844 64.222656 L 217.339844 63.664062 L 217.121094 63.789062 Z M 217.246094 64.003906 "/>
<path style="fill:none;stroke-width:0.5;stroke-linecap:square;stroke-linejoin:miter;stroke:rgb(85.000381%,85.000381%,85.000381%);stroke-opacity:1;stroke-miterlimit:3.25;" d="M -190.515625 180.648438 L 254.898438 -76.507812 "/>
<path style="fill:none;stroke-width:0.5;stroke-linecap:square;stroke-linejoin:miter;stroke:rgb(85.000381%,85.000381%,85.000381%);stroke-opacity:1;stroke-miterlimit:3.25;" d="M 465.351562 288.007812 L 254.898438 -76.507812 "/>
<path style="fill:none;stroke-width:0.5;stroke-linecap:square;stroke-linejoin:miter;stroke:rgb(85.000381%,85.000381%,85.000381%);stroke-opacity:1;stroke-miterlimit:3.25;" d="M 465.351562 288.007812 L 254.898438 -76.507812 "/>
<path style="fill:none;stroke-width:0.5;stroke-linecap:square;stroke-linejoin:miter;stroke:rgb(85.000381%,85.000381%,85.000381%);stroke-opacity:1;stroke-miterlimit:3.25;" d="M -119.339844 288.007812 L 207.527344 59.132812 "/>
<path style="fill:none;stroke-width:0.5;stroke-linecap:square;stroke-linejoin:miter;stroke:rgb(85.000381%,85.000381%,85.000381%);stroke-opacity:1;stroke-miterlimit:3.25;" d="M -119.339844 288.007812 L 207.527344 59.132812 "/>
<path style=" stroke:none;fill-rule:nonzero;fill:rgb(85.000381%,85.000381%,85.000381%);fill-opacity:1;" d="M 207.527344 59.132812 L 207.382812 58.992188 L 207.589844 58.785156 L 207.730469 58.992188 Z M 207.527344 59.132812 "/>
<path style="fill:none;stroke-width:0.5;stroke-linecap:square;stroke-linejoin:miter;stroke:rgb(85.000381%,85.000381%,85.000381%);stroke-opacity:1;stroke-miterlimit:3.25;" d="M 367.785156 288.007812 L 207.527344 59.132812 "/>
<path style="fill:none;stroke-width:0.5;stroke-linecap:square;stroke-linejoin:miter;stroke:rgb(85.000381%,85.000381%,85.000381%);stroke-opacity:1;stroke-miterlimit:3.25;" d="M 367.785156 288.007812 L 207.527344 59.132812 "/>
<path style="fill:none;stroke-width:0.5;stroke-linecap:square;stroke-linejoin:miter;stroke:rgb(85.000381%,85.000381%,85.000381%);stroke-opacity:1;stroke-miterlimit:3.25;" d="M -188.515625 210.875 L 232.789062 -84.125 "/>
<path style="fill:none;stroke-width:0.5;stroke-linecap:square;stroke-linejoin:miter;stroke:rgb(85.000381%,85.000381%,85.000381%);stroke-opacity:1;stroke-miterlimit:3.25;" d="M 493.359375 288.007812 L 232.789062 -84.125 "/>
<path style="fill:none;stroke-width:0.5;stroke-linecap:square;stroke-linejoin:miter;stroke:rgb(85.000381%,85.000381%,85.000381%);stroke-opacity:1;stroke-miterlimit:3.25;" d="M 493.359375 288.007812 L 232.789062 -84.125 "/>
<path style="fill:none;stroke-width:0.5;stroke-linecap:square;stroke-linejoin:miter;stroke:rgb(85.000381%,85.000381%,85.000381%);stroke-opacity:1;stroke-miterlimit:3.25;" d="M -79.152344 288.007812 L 197.195312 56.125 "/>
<path style="fill:none;stroke-width:0.5;stroke-linecap:square;stroke-linejoin:miter;stroke:rgb(85.000381%,85.000381%,85.000381%);stroke-opacity:1;stroke-miterlimit:3.25;" d="M -79.152344 288.007812 L 197.195312 56.125 "/>
<path style=" stroke:none;fill-rule:nonzero;fill:rgb(85.000381%,85.000381%,85.000381%);fill-opacity:1;" d="M 197.195312 56.125 L 197.035156 55.964844 L 197.226562 55.773438 L 197.386719 55.964844 Z M 197.195312 56.125 "/>
<path style="fill:none;stroke-width:0.5;stroke-linecap:square;stroke-linejoin:miter;stroke:rgb(85.000381%,85.000381%,85.000381%);stroke-opacity:1;stroke-miterlimit:3.25;" d="M 391.769531 288.007812 L 197.195312 56.125 "/>
<path style="fill:none;stroke-width:0.5;stroke-linecap:square;stroke-linejoin:miter;stroke:rgb(85.000381%,85.000381%,85.000381%);stroke-opacity:1;stroke-miterlimit:3.25;" d="M 391.769531 288.007812 L 197.195312 56.125 "/>
<path style="fill:none;stroke-width:0.5;stroke-linecap:square;stroke-linejoin:miter;stroke:rgb(85.000381%,85.000381%,85.000381%);stroke-opacity:1;stroke-miterlimit:3.25;" d="M -184.117188 241.804688 L 209.875 -88.792969 "/>
<path style="fill:none;stroke-width:0.5;stroke-linecap:square;stroke-linejoin:miter;stroke:rgb(85.000381%,85.000381%,85.000381%);stroke-opacity:1;stroke-miterlimit:3.25;" d="M 526.050781 288.007812 L 209.875 -88.792969 "/>
<path style="fill:none;stroke-width:0.5;stroke-linecap:square;stroke-linejoin:miter;stroke:rgb(85.000381%,85.000381%,85.000381%);stroke-opacity:1;stroke-miterlimit:3.25;" d="M 526.050781 288.007812 L 209.875 -88.792969 "/>
<path style="fill:none;stroke-width:0.5;stroke-linecap:square;stroke-linejoin:miter;stroke:rgb(85.000381%,85.000381%,85.000381%);stroke-opacity:1;stroke-miterlimit:3.25;" d="M -46.332031 288.007812 L 186.570312 55.105469 "/>
<path style="fill:none;stroke-width:0.5;stroke-linecap:square;stroke-linejoin:miter;stroke:rgb(85.000381%,85.000381%,85.000381%);stroke-opacity:1;stroke-miterlimit:3.25;" d="M -46.332031 288.007812 L 186.570312 55.105469 "/>
<path style=" stroke:none;fill-rule:nonzero;fill:rgb(85.000381%,85.000381%,85.000381%);fill-opacity:1;" d="M 186.570312 55.105469 L 186.394531 54.929688 L 186.570312 54.753906 L 186.746094 54.929688 Z M 186.570312 55.105469 "/>
<path style="fill:none;stroke-width:0.5;stroke-linecap:square;stroke-linejoin:miter;stroke:rgb(85.000381%,85.000381%,85.000381%);stroke-opacity:1;stroke-miterlimit:3.25;" d="M 419.472656 288.007812 L 186.570312 55.105469 "/>
<path style="fill:none;stroke-width:0.5;stroke-linecap:square;stroke-linejoin:miter;stroke:rgb(85.000381%,85.000381%,85.000381%);stroke-opacity:1;stroke-miterlimit:3.25;" d="M 419.472656 288.007812 L 186.570312 55.105469 "/>
<path style="fill:none;stroke-width:0.5;stroke-linecap:square;stroke-linejoin:miter;stroke:rgb(85.000381%,85.000381%,85.000381%);stroke-opacity:1;stroke-miterlimit:3.25;" d="M -177.109375 273.3125 L 186.570312 -90.363281 L 550.25 273.3125 "/>
<path style="fill:none;stroke-width:0.5;stroke-linecap:square;stroke-linejoin:miter;stroke:rgb(85.000381%,85.000381%,85.000381%);stroke-opacity:1;stroke-miterlimit:3.25;" d="M -18.628906 288.007812 L 175.945312 56.125 "/>
<path style="fill:none;stroke-width:0.5;stroke-linecap:square;stroke-linejoin:miter;stroke:rgb(85.000381%,85.000381%,85.000381%);stroke-opacity:1;stroke-miterlimit:3.25;" d="M -18.628906 288.007812 L 175.945312 56.125 "/>
<path style=" stroke:none;fill-rule:nonzero;fill:rgb(85.000381%,85.000381%,85.000381%);fill-opacity:1;" d="M 175.945312 56.125 L 175.753906 55.933594 L 175.914062 55.773438 L 176.105469 55.933594 Z M 175.945312 56.125 "/>
<path style="fill:none;stroke-width:0.5;stroke-linecap:square;stroke-linejoin:miter;stroke:rgb(85.000381%,85.000381%,85.000381%);stroke-opacity:1;stroke-miterlimit:3.25;" d="M 452.292969 288.007812 L 175.945312 56.125 "/>
<path style="fill:none;stroke-width:0.5;stroke-linecap:square;stroke-linejoin:miter;stroke:rgb(85.000381%,85.000381%,85.000381%);stroke-opacity:1;stroke-miterlimit:3.25;" d="M 452.292969 288.007812 L 175.945312 56.125 "/>
<path style="fill:none;stroke-width:0.5;stroke-linecap:square;stroke-linejoin:miter;stroke:rgb(85.000381%,85.000381%,85.000381%);stroke-opacity:1;stroke-miterlimit:3.25;" d="M -152.90625 288.007812 L 163.265625 -88.792969 "/>
<path style="fill:none;stroke-width:0.5;stroke-linecap:square;stroke-linejoin:miter;stroke:rgb(85.000381%,85.000381%,85.000381%);stroke-opacity:1;stroke-miterlimit:3.25;" d="M -152.90625 288.007812 L 163.265625 -88.792969 "/>
<path style="fill:none;stroke-width:0.5;stroke-linecap:square;stroke-linejoin:miter;stroke:rgb(85.000381%,85.000381%,85.000381%);stroke-opacity:1;stroke-miterlimit:3.25;" d="M 163.265625 -88.792969 L 557.257812 241.804688 "/>
<path style="fill:none;stroke-width:0.5;stroke-linecap:square;stroke-linejoin:miter;stroke:rgb(85.000381%,85.000381%,85.000381%);stroke-opacity:1;stroke-miterlimit:3.25;" d="M 5.355469 288.007812 L 165.613281 59.132812 "/>
<path style="fill:none;stroke-width:0.5;stroke-linecap:square;stroke-linejoin:miter;stroke:rgb(85.000381%,85.000381%,85.000381%);stroke-opacity:1;stroke-miterlimit:3.25;" d="M 5.355469 288.007812 L 165.613281 59.132812 "/>
<path style=" stroke:none;fill-rule:nonzero;fill:rgb(85.000381%,85.000381%,85.000381%);fill-opacity:1;" d="M 165.613281 59.132812 L 165.410156 58.929688 L 165.550781 58.785156 L 165.757812 58.929688 Z M 165.613281 59.132812 "/>
<path style="fill:none;stroke-width:0.5;stroke-linecap:square;stroke-linejoin:miter;stroke:rgb(85.000381%,85.000381%,85.000381%);stroke-opacity:1;stroke-miterlimit:3.25;" d="M 492.480469 288.007812 L 165.613281 59.132812 "/>
<path style="fill:none;stroke-width:0.5;stroke-linecap:square;stroke-linejoin:miter;stroke:rgb(85.000381%,85.000381%,85.000381%);stroke-opacity:1;stroke-miterlimit:3.25;" d="M 492.480469 288.007812 L 165.613281 59.132812 "/>
<path style="fill:none;stroke-width:0.5;stroke-linecap:square;stroke-linejoin:miter;stroke:rgb(85.000381%,85.000381%,85.000381%);stroke-opacity:1;stroke-miterlimit:3.25;" d="M -120.21875 288.007812 L 140.351562 -84.125 "/>
<path style="fill:none;stroke-width:0.5;stroke-linecap:square;stroke-linejoin:miter;stroke:rgb(85.000381%,85.000381%,85.000381%);stroke-opacity:1;stroke-miterlimit:3.25;" d="M -120.21875 288.007812 L 140.351562 -84.125 "/>
<path style="fill:none;stroke-width:0.5;stroke-linecap:square;stroke-linejoin:miter;stroke:rgb(85.000381%,85.000381%,85.000381%);stroke-opacity:1;stroke-miterlimit:3.25;" d="M 140.351562 -84.125 L 561.65625 210.875 "/>
<path style="fill:none;stroke-width:0.5;stroke-linecap:square;stroke-linejoin:miter;stroke:rgb(85.000381%,85.000381%,85.000381%);stroke-opacity:1;stroke-miterlimit:3.25;" d="M 26.5625 288.007812 L 155.894531 64.003906 "/>
<path style="fill:none;stroke-width:0.5;stroke-linecap:square;stroke-linejoin:miter;stroke:rgb(85.000381%,85.000381%,85.000381%);stroke-opacity:1;stroke-miterlimit:3.25;" d="M 26.5625 288.007812 L 155.894531 64.003906 "/>
<path style=" stroke:none;fill-rule:nonzero;fill:rgb(85.000381%,85.000381%,85.000381%);fill-opacity:1;" d="M 155.894531 64.003906 L 155.675781 63.789062 L 155.800781 63.664062 L 156.019531 63.789062 Z M 155.894531 64.003906 "/>
<path style="fill:none;stroke-width:0.5;stroke-linecap:square;stroke-linejoin:miter;stroke:rgb(85.000381%,85.000381%,85.000381%);stroke-opacity:1;stroke-miterlimit:3.25;" d="M 155.894531 64.003906 L 512.222656 269.730469 "/>
<path style="fill:none;stroke-width:0.5;stroke-linecap:square;stroke-linejoin:miter;stroke:rgb(85.000381%,85.000381%,85.000381%);stroke-opacity:1;stroke-miterlimit:3.25;" d="M -92.210938 288.007812 L 118.242188 -76.507812 "/>
<path style="fill:none;stroke-width:0.5;stroke-linecap:square;stroke-linejoin:miter;stroke:rgb(85.000381%,85.000381%,85.000381%);stroke-opacity:1;stroke-miterlimit:3.25;" d="M -92.210938 288.007812 L 118.242188 -76.507812 "/>
<path style="fill:none;stroke-width:0.5;stroke-linecap:square;stroke-linejoin:miter;stroke:rgb(85.000381%,85.000381%,85.000381%);stroke-opacity:1;stroke-miterlimit:3.25;" d="M 118.242188 -76.507812 L 563.65625 180.648438 "/>
<path style="fill:none;stroke-width:0.5;stroke-linecap:square;stroke-linejoin:miter;stroke:rgb(85.000381%,85.000381%,85.000381%);stroke-opacity:1;stroke-miterlimit:3.25;" d="M 45.671875 288.007812 L 147.042969 70.613281 "/>
<path style="fill:none;stroke-width:0.5;stroke-linecap:square;stroke-linejoin:miter;stroke:rgb(85.000381%,85.000381%,85.000381%);stroke-opacity:1;stroke-miterlimit:3.25;" d="M 45.671875 288.007812 L 147.042969 70.613281 "/>
<path style=" stroke:none;fill-rule:nonzero;fill:rgb(85.000381%,85.000381%,85.000381%);fill-opacity:1;" d="M 147.042969 70.613281 L 146.816406 70.386719 L 146.921875 70.28125 L 147.148438 70.386719 Z M 147.042969 70.613281 "/>
<path style="fill:none;stroke-width:0.5;stroke-linecap:square;stroke-linejoin:miter;stroke:rgb(85.000381%,85.000381%,85.000381%);stroke-opacity:1;stroke-miterlimit:3.25;" d="M 147.042969 70.613281 L 519.949219 244.503906 "/>
<path style="fill:none;stroke-width:0.5;stroke-linecap:square;stroke-linejoin:miter;stroke:rgb(85.000381%,85.000381%,85.000381%);stroke-opacity:1;stroke-miterlimit:3.25;" d="M -67.828125 288.007812 L 97.289062 -66.085938 "/>
<path style="fill:none;stroke-width:0.5;stroke-linecap:square;stroke-linejoin:miter;stroke:rgb(85.000381%,85.000381%,85.000381%);stroke-opacity:1;stroke-miterlimit:3.25;" d="M -67.828125 288.007812 L 97.289062 -66.085938 "/>
<path style="fill:none;stroke-width:0.5;stroke-linecap:square;stroke-linejoin:miter;stroke:rgb(85.000381%,85.000381%,85.000381%);stroke-opacity:1;stroke-miterlimit:3.25;" d="M 97.289062 -66.085938 L 563.421875 151.277344 "/>
<path style="fill:none;stroke-width:0.5;stroke-linecap:square;stroke-linejoin:miter;stroke:rgb(85.000381%,85.000381%,85.000381%);stroke-opacity:1;stroke-miterlimit:3.25;" d="M 63.160156 288.007812 L 139.300781 78.808594 "/>
<path style="fill:none;stroke-width:0.5;stroke-linecap:square;stroke-linejoin:miter;stroke:rgb(85.000381%,85.000381%,85.000381%);stroke-opacity:1;stroke-miterlimit:3.25;" d="M 63.160156 288.007812 L 139.300781 78.808594 "/>
<path style=" stroke:none;fill-rule:nonzero;fill:rgb(85.000381%,85.000381%,85.000381%);fill-opacity:1;" d="M 139.300781 78.808594 L 139.066406 78.574219 L 139.152344 78.488281 L 139.386719 78.574219 Z M 139.300781 78.808594 "/>
<path style="fill:none;stroke-width:0.5;stroke-linecap:square;stroke-linejoin:miter;stroke:rgb(85.000381%,85.000381%,85.000381%);stroke-opacity:1;stroke-miterlimit:3.25;" d="M 139.300781 78.808594 L 525.945312 219.535156 "/>
<path style="fill:none;stroke-width:0.5;stroke-linecap:square;stroke-linejoin:miter;stroke:rgb(85.000381%,85.000381%,85.000381%);stroke-opacity:1;stroke-miterlimit:3.25;" d="M -46.304688 288.007812 L 77.824219 -53.035156 "/>
<path style="fill:none;stroke-width:0.5;stroke-linecap:square;stroke-linejoin:miter;stroke:rgb(85.000381%,85.000381%,85.000381%);stroke-opacity:1;stroke-miterlimit:3.25;" d="M -46.304688 288.007812 L 77.824219 -53.035156 "/>
<path style="fill:none;stroke-width:0.5;stroke-linecap:square;stroke-linejoin:miter;stroke:rgb(85.000381%,85.000381%,85.000381%);stroke-opacity:1;stroke-miterlimit:3.25;" d="M 77.824219 -53.035156 L 561.125 122.875 "/>
<path style="fill:none;stroke-width:0.5;stroke-linecap:square;stroke-linejoin:miter;stroke:rgb(85.000381%,85.000381%,85.000381%);stroke-opacity:1;stroke-miterlimit:3.25;" d="M 79.402344 288.007812 L 132.886719 88.40625 "/>
<path style="fill:none;stroke-width:0.5;stroke-linecap:square;stroke-linejoin:miter;stroke:rgb(85.000381%,85.000381%,85.000381%);stroke-opacity:1;stroke-miterlimit:3.25;" d="M 79.402344 288.007812 L 132.886719 88.40625 "/>
<path style=" stroke:none;fill-rule:nonzero;fill:rgb(85.000381%,85.000381%,85.000381%);fill-opacity:1;" d="M 132.886719 88.40625 L 132.644531 88.164062 L 132.710938 88.097656 L 132.953125 88.164062 Z M 132.886719 88.40625 "/>
<path style="fill:none;stroke-width:0.5;stroke-linecap:square;stroke-linejoin:miter;stroke:rgb(85.000381%,85.000381%,85.000381%);stroke-opacity:1;stroke-miterlimit:3.25;" d="M 132.886719 88.40625 L 530.320312 194.898438 "/>
<path style="fill:none;stroke-width:0.5;stroke-linecap:square;stroke-linejoin:miter;stroke:rgb(85.000381%,85.000381%,85.000381%);stroke-opacity:1;stroke-miterlimit:3.25;" d="M -27.089844 288.007812 L 60.152344 -37.578125 "/>
<path style="fill:none;stroke-width:0.5;stroke-linecap:square;stroke-linejoin:miter;stroke:rgb(85.000381%,85.000381%,85.000381%);stroke-opacity:1;stroke-miterlimit:3.25;" d="M -27.089844 288.007812 L 60.152344 -37.578125 "/>
<path style="fill:none;stroke-width:0.5;stroke-linecap:square;stroke-linejoin:miter;stroke:rgb(85.000381%,85.000381%,85.000381%);stroke-opacity:1;stroke-miterlimit:3.25;" d="M 60.152344 -37.578125 L 556.945312 95.539062 "/>
<path style="fill:none;stroke-width:0.5;stroke-linecap:square;stroke-linejoin:miter;stroke:rgb(85.000381%,85.000381%,85.000381%);stroke-opacity:1;stroke-miterlimit:3.25;" d="M 94.691406 288.007812 L 127.984375 99.199219 "/>
<path style="fill:none;stroke-width:0.5;stroke-linecap:square;stroke-linejoin:miter;stroke:rgb(85.000381%,85.000381%,85.000381%);stroke-opacity:1;stroke-miterlimit:3.25;" d="M 94.691406 288.007812 L 127.984375 99.199219 "/>
<path style=" stroke:none;fill-rule:nonzero;fill:rgb(85.000381%,85.000381%,85.000381%);fill-opacity:1;" d="M 127.984375 99.199219 L 127.738281 98.953125 L 127.78125 98.910156 L 128.027344 98.953125 Z M 127.984375 99.199219 "/>
<path style="fill:none;stroke-width:0.5;stroke-linecap:square;stroke-linejoin:miter;stroke:rgb(85.000381%,85.000381%,85.000381%);stroke-opacity:1;stroke-miterlimit:3.25;" d="M 127.984375 99.199219 L 533.1875 170.644531 "/>
<path style="fill:none;stroke-width:0.5;stroke-linecap:square;stroke-linejoin:miter;stroke:rgb(85.000381%,85.000381%,85.000381%);stroke-opacity:1;stroke-miterlimit:3.25;" d="M -9.757812 288.007812 L 44.546875 -19.964844 "/>
<path style="fill:none;stroke-width:0.5;stroke-linecap:square;stroke-linejoin:miter;stroke:rgb(85.000381%,85.000381%,85.000381%);stroke-opacity:1;stroke-miterlimit:3.25;" d="M -9.757812 288.007812 L 44.546875 -19.964844 "/>
<path style="fill:none;stroke-width:0.5;stroke-linecap:square;stroke-linejoin:miter;stroke:rgb(85.000381%,85.000381%,85.000381%);stroke-opacity:1;stroke-miterlimit:3.25;" d="M 44.546875 -19.964844 L 551.050781 69.34375 "/>
<path style="fill:none;stroke-width:0.5;stroke-linecap:square;stroke-linejoin:miter;stroke:rgb(85.000381%,85.000381%,85.000381%);stroke-opacity:1;stroke-miterlimit:3.25;" d="M 109.265625 288.007812 L 124.753906 110.957031 "/>
<path style="fill:none;stroke-width:0.5;stroke-linecap:square;stroke-linejoin:miter;stroke:rgb(85.000381%,85.000381%,85.000381%);stroke-opacity:1;stroke-miterlimit:3.25;" d="M 109.265625 288.007812 L 124.753906 110.957031 "/>
<path style=" stroke:none;fill-rule:nonzero;fill:rgb(85.000381%,85.000381%,85.000381%);fill-opacity:1;" d="M 124.753906 110.957031 L 124.507812 110.707031 L 124.527344 110.6875 L 124.777344 110.707031 Z M 124.753906 110.957031 "/>
<path style="fill:none;stroke-width:0.5;stroke-linecap:square;stroke-linejoin:miter;stroke:rgb(85.000381%,85.000381%,85.000381%);stroke-opacity:1;stroke-miterlimit:3.25;" d="M 124.753906 110.957031 L 534.644531 146.816406 "/>
<path style="fill:none;stroke-width:0.5;stroke-linecap:square;stroke-linejoin:miter;stroke:rgb(85.000381%,85.000381%,85.000381%);stroke-opacity:1;stroke-miterlimit:3.25;" d="M 6.007812 288.007812 L 31.25 -0.480469 "/>
<path style="fill:none;stroke-width:0.5;stroke-linecap:square;stroke-linejoin:miter;stroke:rgb(85.000381%,85.000381%,85.000381%);stroke-opacity:1;stroke-miterlimit:3.25;" d="M 6.007812 288.007812 L 31.25 -0.480469 "/>
<path style="fill:none;stroke-width:0.5;stroke-linecap:square;stroke-linejoin:miter;stroke:rgb(85.000381%,85.000381%,85.000381%);stroke-opacity:1;stroke-miterlimit:3.25;" d="M 31.25 -0.480469 L 543.609375 44.34375 "/>
<path style="fill:none;stroke-width:0.5;stroke-linecap:square;stroke-linejoin:miter;stroke:rgb(85.000381%,85.000381%,85.000381%);stroke-opacity:1;stroke-miterlimit:3.25;" d="M 123.4375 288.007812 L 123.4375 123.4375 "/>
<path style="fill:none;stroke-width:0.5;stroke-linecap:square;stroke-linejoin:miter;stroke:rgb(85.000381%,85.000381%,85.000381%);stroke-opacity:1;stroke-miterlimit:3.25;" d="M 123.4375 288.007812 L 123.4375 123.4375 "/>
<path style=" stroke:none;fill-rule:nonzero;fill:rgb(85.000381%,85.000381%,85.000381%);fill-opacity:1;" d="M 123.4375 123.4375 L 123.1875 123.1875 L 123.4375 123.1875 Z M 123.4375 123.4375 "/>
<path style="fill:none;stroke-width:0.5;stroke-linecap:square;stroke-linejoin:miter;stroke:rgb(85.000381%,85.000381%,85.000381%);stroke-opacity:1;stroke-miterlimit:3.25;" d="M 123.4375 123.4375 L 534.890625 123.4375 "/>
<path style="fill:none;stroke-width:0.5;stroke-linecap:square;stroke-linejoin:miter;stroke:rgb(85.000381%,85.000381%,85.000381%);stroke-opacity:1;stroke-miterlimit:3.25;" d="M 20.574219 288.007812 L 20.574219 20.574219 "/>
<path style="fill:none;stroke-width:0.5;stroke-linecap:square;stroke-linejoin:miter;stroke:rgb(85.000381%,85.000381%,85.000381%);stroke-opacity:1;stroke-miterlimit:3.25;" d="M 20.574219 288.007812 L 20.574219 20.574219 "/>
<path style=" stroke:none;fill-rule:nonzero;fill:rgb(85.000381%,85.000381%,85.000381%);fill-opacity:1;" d="M 20.574219 20.574219 L 20.324219 20.324219 L 20.574219 20.324219 Z M 20.574219 20.574219 "/>
<path style="fill:none;stroke-width:0.5;stroke-linecap:square;stroke-linejoin:miter;stroke:rgb(85.000381%,85.000381%,85.000381%);stroke-opacity:1;stroke-miterlimit:3.25;" d="M 20.574219 20.574219 L 534.890625 20.574219 "/>
<path style="fill-rule:nonzero;fill:rgb(100%,100%,86.999313%);fill-opacity:1;stroke-width:1;stroke-linecap:square;stroke-linejoin:miter;stroke:rgb(0%,0%,0%);stroke-opacity:1;stroke-miterlimit:3.25;" d="M 249.402344 117.757812 L 248.933594 114.125 L 248.304688 110.542969 L 247.523438 107.027344 L 246.589844 103.578125 L 245.511719 100.203125 L 244.285156 96.910156 L 242.921875 93.703125 L 241.417969 90.589844 L 239.785156 87.574219 L 238.019531 84.664062 L 236.132812 81.859375 L 234.128906 79.171875 L 232.007812 76.605469 L 229.777344 74.164062 L 227.445312 71.847656 L 225.011719 69.667969 L 222.488281 67.625 L 219.875 65.722656 L 217.183594 63.964844 L 214.417969 62.359375 L 211.582031 60.902344 L 208.6875 59.605469 L 205.738281 58.464844 L 202.738281 57.484375 L 199.695312 56.667969 L 196.621094 56.019531 L 193.527344 55.542969 L 190.417969 55.238281 L 187.296875 55.113281 L 184.175781 55.160156 L 181.058594 55.378906 L 177.957031 55.773438 L 174.871094 56.34375 L 171.8125 57.082031 L 168.792969 57.988281 L 165.820312 59.054688 L 162.898438 60.28125 L 160.035156 61.664062 L 157.234375 63.199219 L 154.507812 64.886719 L 151.859375 66.722656 L 149.292969 68.699219 L 146.816406 70.816406 L 144.4375 73.070312 L 142.15625 75.453125 L 139.984375 77.964844 L 137.925781 80.597656 L 135.980469 83.34375 L 134.160156 86.207031 L 132.464844 89.175781 L 130.902344 92.242188 L 129.472656 95.40625 L 128.179688 98.660156 L 127.035156 101.996094 L 126.03125 105.414062 L 125.179688 108.898438 L 124.480469 112.449219 L 123.9375 116.0625 L 123.738281 117.757812 L 123.578125 117.886719 L 123.40625 118.023438 L 123.222656 118.160156 L 123.027344 118.300781 L 122.820312 118.445312 L 122.605469 118.59375 L 122.375 118.746094 L 122.132812 118.898438 L 121.882812 119.058594 L 121.617188 119.214844 L 121.339844 119.375 L 121.054688 119.539062 L 120.753906 119.699219 L 120.4375 119.863281 L 120.113281 120.027344 L 119.773438 120.191406 L 119.421875 120.355469 L 119.058594 120.519531 L 118.683594 120.679688 L 118.292969 120.84375 L 117.890625 121 L 117.476562 121.160156 L 117.046875 121.3125 L 116.609375 121.464844 L 116.152344 121.617188 L 115.6875 121.761719 L 115.207031 121.90625 L 114.714844 122.042969 L 114.210938 122.175781 L 113.691406 122.304688 L 113.160156 122.429688 L 112.613281 122.546875 L 112.058594 122.660156 L 111.488281 122.765625 L 110.90625 122.867188 L 110.3125 122.960938 L 109.703125 123.046875 L 109.082031 123.125 L 108.453125 123.195312 L 107.808594 123.253906 L 107.152344 123.308594 L 106.480469 123.351562 L 105.800781 123.386719 L 105.0625 123.414062 L 104.300781 123.429688 L 20.574219 123.4375 L 20.648438 121.734375 L 20.882812 118.101562 L 21.203125 114.515625 L 21.609375 110.976562 L 22.105469 107.492188 L 22.679688 104.058594 L 23.332031 100.679688 L 24.0625 97.363281 L 24.871094 94.105469 L 25.746094 90.914062 L 26.691406 87.789062 L 27.703125 84.730469 L 28.773438 81.742188 L 29.90625 78.828125 L 31.089844 75.988281 L 32.328125 73.222656 L 33.617188 70.535156 L 34.949219 67.929688 L 36.320312 65.398438 L 37.734375 62.953125 L 39.179688 60.589844 L 40.65625 58.308594 L 42.15625 56.109375 L 43.683594 54 L 45.226562 51.96875 L 46.785156 50.027344 L 48.355469 48.175781 L 49.921875 46.414062 L 51.488281 44.742188 L 53.050781 43.15625 L 54.605469 41.660156 L 56.148438 40.246094 L 57.675781 38.917969 L 59.226562 37.636719 L 61.003906 36.246094 L 62.789062 34.917969 L 64.582031 33.65625 L 66.378906 32.460938 L 68.171875 31.328125 L 69.96875 30.257812 L 71.761719 29.253906 L 73.550781 28.308594 L 75.335938 27.421875 L 77.109375 26.597656 L 78.875 25.832031 L 80.625 25.125 L 82.363281 24.476562 L 84.085938 23.878906 L 85.789062 23.339844 L 87.476562 22.851562 L 89.140625 22.414062 L 90.785156 22.027344 L 92.40625 21.691406 L 94 21.402344 L 95.570312 21.160156 L 97.109375 20.960938 L 98.621094 20.804688 L 100.105469 20.6875 L 101.558594 20.613281 L 269.570312 20.574219 L 270.882812 20.589844 L 272.253906 20.640625 L 273.722656 20.734375 L 275.21875 20.871094 L 276.746094 21.046875 L 278.296875 21.265625 L 279.878906 21.53125 L 281.488281 21.84375 L 283.117188 22.203125 L 284.769531 22.613281 L 286.445312 23.070312 L 288.140625 23.585938 L 289.855469 24.148438 L 291.585938 24.769531 L 293.328125 25.449219 L 295.085938 26.183594 L 296.855469 26.976562 L 298.632812 27.828125 L 300.421875 28.738281 L 302.210938 29.714844 L 304.007812 30.75 L 305.804688 31.847656 L 307.597656 33.011719 L 309.394531 34.238281 L 311.179688 35.527344 L 312.964844 36.886719 L 314.65625 38.242188 L 316.171875 39.527344 L 317.707031 40.894531 L 319.253906 42.34375 L 320.8125 43.882812 L 322.378906 45.507812 L 323.949219 47.222656 L 325.515625 49.027344 L 327.082031 50.921875 L 328.632812 52.902344 L 330.171875 54.972656 L 331.6875 57.121094 L 333.175781 59.359375 L 334.636719 61.679688 L 336.070312 64.082031 L 337.464844 66.566406 L 338.816406 69.132812 L 340.128906 71.777344 L 341.394531 74.5 L 342.609375 77.300781 L 343.769531 80.175781 L 344.875 83.125 L 345.917969 86.144531 L 346.898438 89.234375 L 347.8125 92.390625 L 348.65625 95.613281 L 349.425781 98.898438 L 350.121094 102.246094 L 350.738281 105.648438 L 351.277344 109.105469 L 351.730469 112.617188 L 352.097656 116.179688 L 352.378906 119.785156 L 352.566406 123.4375 L 269.570312 123.4375 L 268.984375 123.433594 L 268.402344 123.421875 L 267.816406 123.40625 L 267.265625 123.382812 L 266.742188 123.359375 L 266.230469 123.324219 L 265.722656 123.289062 L 265.222656 123.246094 L 264.730469 123.199219 L 264.242188 123.144531 L 263.765625 123.089844 L 263.292969 123.027344 L 262.828125 122.960938 L 262.371094 122.890625 L 261.921875 122.816406 L 261.480469 122.734375 L 261.046875 122.652344 L 260.621094 122.566406 L 260.199219 122.476562 L 259.789062 122.386719 L 259.382812 122.289062 L 258.984375 122.191406 L 258.597656 122.089844 L 258.214844 121.984375 L 257.839844 121.878906 L 257.472656 121.769531 L 257.113281 121.65625 L 256.761719 121.542969 L 256.417969 121.429688 L 256.082031 121.3125 L 255.753906 121.191406 L 255.433594 121.074219 L 255.121094 120.949219 L 254.8125 120.828125 L 254.515625 120.707031 L 254.222656 120.582031 L 253.941406 120.457031 L 253.664062 120.332031 L 253.394531 120.207031 L 253.132812 120.082031 L 252.878906 119.953125 L 252.632812 119.828125 L 252.394531 119.703125 L 252.164062 119.578125 L 251.9375 119.453125 L 251.722656 119.332031 L 251.511719 119.207031 L 251.308594 119.085938 L 251.113281 118.964844 L 250.921875 118.847656 L 250.742188 118.730469 L 250.566406 118.613281 L 250.398438 118.5 L 250.234375 118.386719 L 250.082031 118.277344 L 249.933594 118.167969 L 249.789062 118.0625 L 249.65625 117.960938 L 249.527344 117.859375 Z M 249.402344 117.757812 "/>
<path style="fill:none;stroke-width:1;stroke-linecap:square;stroke-linejoin:miter;stroke:rgb(0%,0%,0%);stroke-opacity:1;stroke-miterlimit:3.25;" d="M 251.347656 115.363281 L 249.402344 117.757812 "/>
<path style="fill:none;stroke-width:1;stroke-linecap:square;stroke-linejoin:miter;stroke:rgb(0%,0%,0%);stroke-opacity:1;stroke-miterlimit:3.25;" d="M 199.898438 53.542969 L 199.222656 56.554688 "/>
<path style="fill:none;stroke-width:1;stroke-linecap:square;stroke-linejoin:miter;stroke:rgb(0%,0%,0%);stroke-opacity:1;stroke-miterlimit:3.25;" d="M 173.242188 53.542969 L 173.917969 56.554688 "/>
<path style="fill:none;stroke-width:1;stroke-linecap:square;stroke-linejoin:miter;stroke:rgb(0%,0%,0%);stroke-opacity:1;stroke-miterlimit:3.25;" d="M 121.792969 115.363281 L 123.738281 117.757812 "/>
<path style="fill:none;stroke-width:1;stroke-linecap:square;stroke-linejoin:miter;stroke:rgb(0%,0%,0%);stroke-opacity:1;stroke-miterlimit:3.25;" d="M 267.675781 120.3125 L 267.554688 123.398438 "/>
<path style="fill:none;stroke-width:1;stroke-linecap:square;stroke-linejoin:miter;stroke:rgb(0%,0%,0%);stroke-opacity:1;stroke-miterlimit:3.25;" d="M 269.570312 120.351562 L 269.570312 123.4375 "/>
<path style="fill:none;stroke-width:1;stroke-linecap:square;stroke-linejoin:miter;stroke:rgb(0%,0%,0%);stroke-opacity:1;stroke-miterlimit:3.25;" d="M 105.464844 120.3125 L 105.585938 123.398438 "/>
<path style="fill:none;stroke-width:1;stroke-linecap:square;stroke-linejoin:miter;stroke:rgb(0%,0%,0%);stroke-opacity:1;stroke-miterlimit:3.25;" d="M 103.570312 120.351562 L 103.570312 123.4375 "/>
<path style="fill:none;stroke-width:1;stroke-linecap:square;stroke-linejoin:miter;stroke:rgb(0%,0%,0%);stroke-opacity:1;stroke-miterlimit:3.25;" d="M 324.441406 52.566406 L 326.839844 50.621094 "/>
<path style="fill:none;stroke-width:1;stroke-linecap:square;stroke-linejoin:miter;stroke:rgb(0%,0%,0%);stroke-opacity:1;stroke-miterlimit:3.25;" d="M 312.242188 40.257812 L 314.1875 37.859375 "/>
<path style="fill:none;stroke-width:1;stroke-linecap:square;stroke-linejoin:miter;stroke:rgb(0%,0%,0%);stroke-opacity:1;stroke-miterlimit:3.25;" d="M 271.460938 23.695312 L 271.582031 20.613281 "/>
<path style="fill:none;stroke-width:1;stroke-linecap:square;stroke-linejoin:miter;stroke:rgb(0%,0%,0%);stroke-opacity:1;stroke-miterlimit:3.25;" d="M 269.570312 23.660156 L 269.570312 20.574219 "/>
<path style="fill:none;stroke-width:1;stroke-linecap:square;stroke-linejoin:miter;stroke:rgb(0%,0%,0%);stroke-opacity:1;stroke-miterlimit:3.25;" d="M 48.699219 52.566406 L 46.300781 50.621094 "/>
<path style="fill:none;stroke-width:1;stroke-linecap:square;stroke-linejoin:miter;stroke:rgb(0%,0%,0%);stroke-opacity:1;stroke-miterlimit:3.25;" d="M 60.898438 40.257812 L 58.953125 37.859375 "/>
<path style="fill:none;stroke-width:1;stroke-linecap:square;stroke-linejoin:miter;stroke:rgb(0%,0%,0%);stroke-opacity:1;stroke-miterlimit:3.25;" d="M 101.679688 23.695312 L 101.558594 20.613281 "/>
<path style="fill:none;stroke-width:1;stroke-linecap:square;stroke-linejoin:miter;stroke:rgb(0%,0%,0%);stroke-opacity:1;stroke-miterlimit:3.25;" d="M 103.570312 23.660156 L 103.570312 20.574219 "/>
<path style="fill:none;stroke-width:1;stroke-linecap:square;stroke-linejoin:miter;stroke:rgb(0%,0%,0%);stroke-opacity:1;stroke-miterlimit:3.25;" d="M 350.386719 121.253906 L 352.566406 123.4375 "/>
<path style="fill:none;stroke-width:1;stroke-linecap:square;stroke-linejoin:miter;stroke:rgb(0%,0%,0%);stroke-opacity:1;stroke-miterlimit:3.25;" d="M 22.753906 121.253906 L 20.574219 123.4375 "/>
<path style="fill:none;stroke-width:1;stroke-linecap:square;stroke-linejoin:miter;stroke:rgb(100%,0%,0%);stroke-opacity:1;stroke-miterlimit:3.25;" d="M 123.738281 117.757812 L 123.578125 117.886719 L 123.40625 118.023438 L 123.222656 118.160156 L 123.027344 118.300781 L 122.820312 118.445312 L 122.605469 118.59375 L 122.375 118.746094 L 122.132812 118.898438 L 121.882812 119.058594 L 121.617188 119.214844 L 121.339844 119.375 L 121.054688 119.539062 L 120.753906 119.699219 L 120.4375 119.863281 L 120.113281 120.027344 L 119.773438 120.191406 L 119.421875 120.355469 L 119.058594 120.519531 L 118.683594 120.679688 L 118.292969 120.84375 L 117.890625 121 L 117.476562 121.160156 L 117.046875 121.3125 L 116.609375 121.464844 L 116.152344 121.617188 L 115.6875 121.761719 L 115.207031 121.90625 L 114.714844 122.042969 L 114.210938 122.175781 L 113.691406 122.304688 L 113.160156 122.429688 L 112.613281 122.546875 L 112.058594 122.660156 L 111.488281 122.765625 L 110.90625 122.867188 L 110.3125 122.960938 L 109.703125 123.046875 L 109.082031 123.125 L 108.453125 123.195312 L 107.808594 123.253906 L 107.152344 123.308594 L 106.480469 123.351562 L 105.800781 123.386719 L 105.0625 123.414062 L 104.300781 123.429688 "/>
<path style="fill:none;stroke-width:1;stroke-linecap:square;stroke-linejoin:miter;stroke:rgb(100%,0%,0%);stroke-opacity:1;stroke-miterlimit:3.25;" d="M 269.570312 123.4375 L 268.984375 123.433594 L 268.402344 123.421875 L 267.816406 123.40625 L 267.265625 123.382812 L 266.742188 123.359375 L 266.230469 123.324219 L 265.722656 123.289062 L 265.222656 123.246094 L 264.730469 123.199219 L 264.242188 123.144531 L 263.765625 123.089844 L 263.292969 123.027344 L 262.828125 122.960938 L 262.371094 122.890625 L 261.921875 122.816406 L 261.480469 122.734375 L 261.046875 122.652344 L 260.621094 122.566406 L 260.199219 122.476562 L 259.789062 122.386719 L 259.382812 122.289062 L 258.984375 122.191406 L 258.597656 122.089844 L 258.214844 121.984375 L 257.839844 121.878906 L 257.472656 121.769531 L 257.113281 121.65625 L 256.761719 121.542969 L 256.417969 121.429688 L 256.082031 121.3125 L 255.753906 121.191406 L 255.433594 121.074219 L 255.121094 120.949219 L 254.8125 120.828125 L 254.515625 120.707031 L 254.222656 120.582031 L 253.941406 120.457031 L 253.664062 120.332031 L 253.394531 120.207031 L 253.132812 120.082031 L 252.878906 119.953125 L 252.632812 119.828125 L 252.394531 119.703125 L 252.164062 119.578125 L 251.9375 119.453125 L 251.722656 119.332031 L 251.511719 119.207031 L 251.308594 119.085938 L 251.113281 118.964844 L 250.921875 118.847656 L 250.742188 118.730469 L 250.566406 118.613281 L 250.398438 118.5 L 250.234375 118.386719 L 250.082031 118.277344 L 249.933594 118.167969 L 249.789062 118.0625 L 249.65625 117.960938 L 249.527344 117.859375 L 249.402344 117.757812 "/>
<path style="fill:none;stroke-width:1;stroke-linecap:butt;stroke-linejoin:miter;stroke:rgb(0%,0%,100%);stroke-opacity:1;stroke-dasharray:1.212;stroke-miterlimit:3.25;" d="M 249.703125 123.4375 L 249.703125 122.863281 L 249.699219 122.769531 L 249.699219 122.578125 L 249.695312 122.484375 L 249.695312 122.386719 L 249.691406 122.292969 L 249.691406 122.199219 L 249.6875 122.101562 L 249.683594 122.007812 L 249.683594 121.914062 L 249.679688 121.816406 L 249.675781 121.722656 L 249.675781 121.628906 L 249.671875 121.53125 L 249.660156 121.25 L 249.65625 121.152344 L 249.648438 120.964844 L 249.644531 120.867188 L 249.636719 120.773438 L 249.625 120.492188 L 249.617188 120.394531 L 249.613281 120.300781 L 249.605469 120.207031 L 249.601562 120.113281 L 249.59375 120.015625 L 249.589844 119.921875 L 249.582031 119.828125 L 249.578125 119.734375 L 249.554688 119.453125 L 249.550781 119.355469 L 249.488281 118.605469 L 249.476562 118.511719 L 249.460938 118.324219 L 249.449219 118.226562 L 249.433594 118.039062 L 249.421875 117.945312 L 249.414062 117.851562 L 249.402344 117.757812 "/>
<path style="fill:none;stroke-width:1;stroke-linecap:butt;stroke-linejoin:miter;stroke:rgb(0%,0%,100%);stroke-opacity:1;stroke-dasharray:1.212;stroke-miterlimit:3.25;" d="M 123.738281 117.757812 L 123.726562 117.851562 L 123.71875 117.945312 L 123.707031 118.039062 L 123.691406 118.226562 L 123.679688 118.324219 L 123.65625 118.605469 L 123.644531 118.699219 L 123.589844 119.355469 L 123.585938 119.453125 L 123.5625 119.734375 L 123.558594 119.828125 L 123.550781 119.921875 L 123.546875 120.015625 L 123.539062 120.113281 L 123.535156 120.207031 L 123.527344 120.300781 L 123.523438 120.394531 L 123.515625 120.492188 L 123.503906 120.773438 L 123.496094 120.867188 L 123.492188 120.964844 L 123.484375 121.152344 L 123.480469 121.25 L 123.46875 121.53125 L 123.46875 121.628906 L 123.460938 121.816406 L 123.457031 121.914062 L 123.457031 122.007812 L 123.453125 122.101562 L 123.449219 122.199219 L 123.449219 122.292969 L 123.445312 122.386719 L 123.445312 122.484375 L 123.441406 122.578125 L 123.441406 122.863281 L 123.4375 122.960938 L 123.4375 123.4375 "/>
<path style="fill:none;stroke-width:1;stroke-linecap:square;stroke-linejoin:miter;stroke:rgb(0%,0%,100%);stroke-opacity:1;stroke-miterlimit:3.25;" d="M 249.402344 117.757812 L 248.933594 114.125 L 248.304688 110.542969 L 247.523438 107.027344 L 246.589844 103.578125 L 245.511719 100.203125 L 244.285156 96.910156 L 242.921875 93.703125 L 241.417969 90.589844 L 239.785156 87.574219 L 238.019531 84.664062 L 236.132812 81.859375 L 234.128906 79.171875 L 232.007812 76.605469 L 229.777344 74.164062 L 227.445312 71.847656 L 225.011719 69.667969 L 222.488281 67.625 L 219.875 65.722656 L 217.183594 63.964844 L 214.417969 62.359375 L 211.582031 60.902344 L 208.6875 59.605469 L 205.738281 58.464844 L 202.738281 57.484375 L 199.695312 56.667969 L 196.621094 56.019531 L 193.527344 55.542969 L 190.417969 55.238281 L 187.296875 55.113281 L 184.175781 55.160156 L 181.058594 55.378906 L 177.957031 55.773438 L 174.871094 56.34375 L 171.8125 57.082031 L 168.792969 57.988281 L 165.820312 59.054688 L 162.898438 60.28125 L 160.035156 61.664062 L 157.234375 63.199219 L 154.507812 64.886719 L 151.859375 66.722656 L 149.292969 68.699219 L 146.816406 70.816406 L 144.4375 73.070312 L 142.15625 75.453125 L 139.984375 77.964844 L 137.925781 80.597656 L 135.980469 83.34375 L 134.160156 86.207031 L 132.464844 89.175781 L 130.902344 92.242188 L 129.472656 95.40625 L 128.179688 98.660156 L 127.035156 101.996094 L 126.03125 105.414062 L 125.179688 108.898438 L 124.480469 112.449219 L 123.9375 116.0625 "/>
<path style=" stroke:none;fill-rule:evenodd;fill:rgb(0%,0%,100%);fill-opacity:1;" d="M 219.019531 64 C 219.019531 63.464844 218.808594 62.949219 218.429688 62.570312 C 218.050781 62.191406 217.535156 61.980469 217 61.980469 C 216.464844 61.980469 215.949219 62.191406 215.570312 62.570312 C 215.191406 62.949219 214.980469 63.464844 214.980469 64 C 214.980469 64.535156 215.191406 65.050781 215.570312 65.429688 C 215.949219 65.808594 216.464844 66.019531 217 66.019531 C 217.535156 66.019531 218.050781 65.808594 218.429688 65.429688 C 218.808594 65.050781 219.019531 64.535156 219.019531 64 Z M 219.019531 64 "/>
<path style=" stroke:none;fill-rule:evenodd;fill:rgb(0%,0%,0%);fill-opacity:1;" d="M 224.582031 59.246094 L 224.582031 58.773438 L 223.8125 58.773438 L 221.953125 56.527344 L 223.230469 55.066406 C 223.351562 54.921875 223.453125 54.835938 224.363281 54.835938 L 224.363281 54.359375 L 223.351562 54.382812 C 223.03125 54.382812 222.5625 54.382812 222.25 54.359375 L 222.25 54.835938 C 222.460938 54.835938 222.691406 54.890625 222.691406 54.96875 C 222.691406 54.96875 222.636719 55.066406 222.617188 55.085938 L 221.65625 56.164062 L 220.570312 54.835938 L 221.03125 54.835938 L 221.03125 54.359375 C 220.777344 54.382812 220.03125 54.382812 219.734375 54.382812 C 219.402344 54.382812 218.808594 54.382812 218.5 54.359375 L 218.5 54.835938 L 219.28125 54.835938 L 221 56.925781 L 219.566406 58.542969 C 219.4375 58.695312 219.359375 58.773438 218.445312 58.773438 L 218.445312 59.246094 L 219.46875 59.222656 C 219.789062 59.222656 220.25 59.222656 220.558594 59.246094 L 220.558594 58.773438 C 220.347656 58.773438 220.117188 58.71875 220.117188 58.640625 C 220.117188 58.640625 220.117188 58.621094 220.195312 58.53125 L 221.296875 57.285156 L 222.515625 58.773438 L 222.054688 58.773438 L 222.054688 59.246094 C 222.320312 59.222656 223.054688 59.222656 223.363281 59.222656 C 223.695312 59.222656 224.277344 59.222656 224.582031 59.246094 Z M 224.582031 59.246094 "/>
<path style=" stroke:none;fill-rule:evenodd;fill:rgb(0%,0%,0%);fill-opacity:1;" d="M 229.191406 59.089844 C 229.191406 58.738281 229.078125 58.460938 228.871094 58.246094 C 228.644531 57.996094 228.390625 57.933594 228.03125 57.84375 L 227.335938 57.675781 C 227.105469 57.621094 226.679688 57.46875 226.679688 56.933594 C 226.679688 56.339844 227.320312 55.695312 228.101562 55.695312 C 228.789062 55.695312 229.261719 56.054688 229.261719 56.878906 C 229.261719 57.0625 229.230469 57.222656 229.230469 57.253906 C 229.230469 57.347656 229.300781 57.363281 229.351562 57.363281 C 229.445312 57.363281 229.453125 57.332031 229.484375 57.207031 L 229.871094 55.671875 C 229.878906 55.644531 229.894531 55.597656 229.894531 55.558594 C 229.894531 55.507812 229.851562 55.46875 229.796875 55.46875 C 229.742188 55.46875 229.726562 55.484375 229.644531 55.574219 C 229.558594 55.671875 229.359375 55.917969 229.277344 56.007812 C 228.976562 55.574219 228.496094 55.46875 228.109375 55.46875 C 227.046875 55.46875 226.136719 56.359375 226.136719 57.230469 C 226.136719 57.675781 226.375 57.933594 226.410156 57.988281 C 226.664062 58.253906 226.886719 58.316406 227.433594 58.445312 C 227.703125 58.515625 227.71875 58.515625 227.941406 58.570312 C 228.160156 58.621094 228.652344 58.746094 228.652344 59.378906 C 228.652344 60.042969 227.992188 60.753906 227.191406 60.753906 C 226.695312 60.753906 225.785156 60.601562 225.785156 59.652344 C 225.785156 59.628906 225.785156 59.472656 225.832031 59.285156 L 225.839844 59.210938 C 225.839844 59.121094 225.753906 59.113281 225.722656 59.113281 C 225.625 59.113281 225.617188 59.140625 225.578125 59.316406 L 225.265625 60.5625 C 225.234375 60.675781 225.183594 60.882812 225.183594 60.90625 C 225.183594 60.96875 225.226562 61.007812 225.28125 61.007812 C 225.335938 61.007812 225.339844 61 225.425781 60.898438 C 225.480469 60.839844 225.472656 60.839844 225.792969 60.472656 C 225.96875 60.699219 226.402344 61.007812 227.175781 61.007812 C 228.285156 61.007812 229.191406 60.003906 229.191406 59.089844 Z M 229.191406 59.089844 "/>
<path style=" stroke:none;fill-rule:evenodd;fill:rgb(0%,0%,0%);fill-opacity:1;" d="M 234.515625 60.503906 C 234.515625 60.457031 234.476562 60.421875 234.425781 60.421875 C 234.328125 60.421875 234.210938 60.4375 234.113281 60.4375 C 234.003906 60.4375 233.894531 60.445312 233.777344 60.445312 L 233.320312 60.4375 C 233.171875 60.4375 233.007812 60.421875 232.859375 60.421875 C 232.816406 60.421875 232.777344 60.421875 232.753906 60.460938 C 232.742188 60.476562 232.722656 60.542969 232.722656 60.566406 C 232.738281 60.640625 232.777344 60.640625 232.957031 60.640625 C 233.0625 60.640625 233.171875 60.648438 233.277344 60.652344 C 233.460938 60.667969 233.46875 60.691406 233.46875 60.753906 C 233.46875 60.785156 233.371094 61.160156 233.355469 61.226562 C 233.328125 61.34375 233.273438 61.5625 232.910156 61.710938 C 232.589844 61.839844 232.226562 61.839844 232.15625 61.839844 C 231.523438 61.839844 230.789062 61.546875 230.789062 60.625 C 230.789062 60.261719 230.921875 59.527344 231.476562 58.941406 C 231.660156 58.753906 232.234375 58.292969 233.019531 58.292969 C 233.710938 58.292969 234.097656 58.78125 234.097656 59.378906 C 234.097656 59.46875 234.082031 59.582031 234.082031 59.582031 C 234.082031 59.664062 234.160156 59.664062 234.191406 59.664062 C 234.261719 59.664062 234.289062 59.65625 234.316406 59.542969 L 234.640625 58.230469 C 234.652344 58.183594 234.65625 58.148438 234.65625 58.148438 C 234.65625 58.148438 234.652344 58.074219 234.574219 58.074219 C 234.53125 58.074219 234.527344 58.078125 234.472656 58.136719 L 234.113281 58.511719 L 234.058594 58.558594 C 234.058594 58.558594 234.046875 58.550781 234.03125 58.539062 C 233.894531 58.378906 233.597656 58.074219 232.957031 58.074219 C 231.570312 58.074219 230.210938 59.234375 230.210938 60.480469 C 230.210938 61.351562 230.898438 62.0625 232.027344 62.0625 C 232.429688 62.0625 233.03125 61.996094 233.382812 61.636719 C 233.414062 61.710938 233.574219 61.945312 233.65625 61.945312 C 233.679688 61.945312 233.707031 61.929688 233.71875 61.914062 C 233.738281 61.867188 233.886719 61.257812 233.914062 61.140625 L 233.988281 60.863281 C 234.042969 60.648438 234.058594 60.648438 234.378906 60.640625 C 234.433594 60.640625 234.515625 60.640625 234.515625 60.503906 Z M 234.515625 60.503906 "/>
<path style=" stroke:none;fill-rule:evenodd;fill:rgb(0%,0%,0%);fill-opacity:1;" d="M 239.519531 61.917969 C 239.519531 61.886719 239.519531 61.863281 239.332031 61.675781 C 238.234375 60.566406 237.617188 58.75 237.617188 56.503906 C 237.617188 54.371094 238.132812 52.535156 239.410156 51.238281 C 239.519531 51.136719 239.519531 51.117188 239.519531 51.082031 C 239.519531 51.015625 239.464844 50.996094 239.421875 50.996094 C 239.277344 50.996094 238.375 51.785156 237.835938 52.867188 C 237.277344 53.976562 237.023438 55.152344 237.023438 56.503906 C 237.023438 57.484375 237.175781 58.792969 237.75 59.972656 C 238.398438 61.292969 239.300781 62.007812 239.421875 62.007812 C 239.464844 62.007812 239.519531 61.984375 239.519531 61.917969 Z M 239.519531 61.917969 "/>
<path style=" stroke:none;fill-rule:evenodd;fill:rgb(0%,0%,0%);fill-opacity:1;" d="M 243.488281 57.671875 C 243.488281 57.605469 243.445312 57.574219 243.378906 57.574219 C 243.378906 57.574219 243.3125 57.574219 243.289062 57.617188 C 243.289062 57.617188 243.269531 57.640625 243.191406 57.816406 C 242.960938 58.367188 242.453125 59.136719 241.816406 59.136719 C 241.484375 59.136719 241.464844 58.863281 241.464844 58.621094 C 241.464844 58.621094 241.464844 58.398438 241.496094 58.265625 L 242.355469 54.824219 L 243.367188 54.824219 C 243.574219 54.824219 243.6875 54.824219 243.6875 54.625 C 243.6875 54.503906 243.621094 54.503906 243.402344 54.503906 L 242.433594 54.503906 L 242.839844 52.898438 C 242.882812 52.742188 242.882812 52.722656 242.882812 52.644531 C 242.882812 52.46875 242.742188 52.371094 242.597656 52.371094 C 242.507812 52.371094 242.257812 52.402344 242.167969 52.753906 L 241.738281 54.503906 L 240.703125 54.503906 C 240.484375 54.503906 240.386719 54.503906 240.386719 54.714844 C 240.386719 54.824219 240.460938 54.824219 240.671875 54.824219 L 241.652344 54.824219 L 240.925781 57.726562 C 240.835938 58.113281 240.804688 58.222656 240.804688 58.367188 C 240.804688 58.882812 241.167969 59.355469 241.78125 59.355469 C 242.894531 59.355469 243.488281 57.75 243.488281 57.671875 Z M 243.488281 57.671875 "/>
<path style=" stroke:none;fill-rule:evenodd;fill:rgb(0%,0%,0%);fill-opacity:1;" d="M 247.046875 56.503906 C 247.046875 55.671875 246.933594 54.304688 246.320312 53.03125 C 245.671875 51.710938 244.769531 50.996094 244.648438 50.996094 C 244.605469 50.996094 244.546875 51.015625 244.546875 51.082031 C 244.546875 51.117188 244.546875 51.136719 244.734375 51.324219 C 245.835938 52.4375 246.453125 54.25 246.453125 56.496094 C 246.453125 58.628906 245.933594 60.46875 244.660156 61.765625 C 244.546875 61.863281 244.546875 61.886719 244.546875 61.917969 C 244.546875 61.984375 244.605469 62.007812 244.648438 62.007812 C 244.789062 62.007812 245.691406 61.214844 246.230469 60.136719 C 246.792969 59.015625 247.046875 57.828125 247.046875 56.503906 Z M 247.046875 56.503906 "/>
<path style="fill:none;stroke-width:1;stroke-linecap:square;stroke-linejoin:miter;stroke:rgb(0%,0%,0%);stroke-opacity:1;stroke-miterlimit:3.25;" d="M -404 123.4375 L 808.160156 123.4375 "/>
<path style="fill:none;stroke-width:1;stroke-linecap:square;stroke-linejoin:miter;stroke:rgb(0%,0%,0%);stroke-opacity:1;stroke-miterlimit:3.25;" d="M -404 123.4375 L 808.160156 123.4375 "/>
<path style=" stroke:none;fill-rule:evenodd;fill:rgb(0%,0%,0%);fill-opacity:1;" d="M 376.152344 114.398438 C 376.164062 114.34375 376.1875 114.277344 376.1875 114.210938 C 376.1875 114.046875 376.054688 113.9375 375.890625 113.9375 C 375.789062 113.9375 375.558594 113.980469 375.46875 114.308594 L 374.65625 117.546875 C 374.601562 117.742188 374.601562 117.765625 374.515625 117.886719 C 374.292969 118.195312 373.929688 118.570312 373.402344 118.570312 C 372.785156 118.570312 372.730469 117.960938 372.730469 117.664062 C 372.730469 117.039062 373.027344 116.191406 373.324219 115.398438 C 373.445312 115.078125 373.511719 114.925781 373.511719 114.707031 C 373.511719 114.242188 373.183594 113.824219 372.644531 113.824219 C 371.632812 113.824219 371.222656 115.421875 371.222656 115.507812 C 371.222656 115.554688 371.269531 115.609375 371.347656 115.609375 C 371.445312 115.609375 371.457031 115.5625 371.5 115.410156 C 371.761719 114.484375 372.183594 114.046875 372.609375 114.046875 C 372.710938 114.046875 372.898438 114.046875 372.898438 114.410156 C 372.898438 114.695312 372.777344 115.015625 372.609375 115.433594 C 372.070312 116.875 372.070312 117.234375 372.070312 117.5 C 372.070312 118.546875 372.820312 118.789062 373.367188 118.789062 C 373.6875 118.789062 374.085938 118.6875 374.46875 118.28125 L 374.480469 118.292969 C 374.316406 118.941406 374.207031 119.371094 373.820312 119.910156 C 373.523438 120.328125 373.09375 120.703125 372.554688 120.703125 C 372.425781 120.703125 371.894531 120.679688 371.730469 120.175781 C 371.761719 120.183594 371.839844 120.183594 371.839844 120.183594 C 372.171875 120.183594 372.390625 119.898438 372.390625 119.644531 C 372.390625 119.394531 372.183594 119.304688 372.015625 119.304688 C 371.839844 119.304688 371.457031 119.4375 371.457031 119.976562 C 371.457031 120.535156 371.929688 120.921875 372.554688 120.921875 C 373.65625 120.921875 374.765625 119.910156 375.074219 118.6875 Z M 376.152344 114.398438 "/>
<path style=" stroke:none;fill-rule:evenodd;fill:rgb(0%,0%,0%);fill-opacity:1;" d="M 387.40625 114.914062 C 387.40625 114.707031 387.21875 114.707031 387.054688 114.707031 L 380.574219 114.707031 C 380.417969 114.707031 380.21875 114.707031 380.21875 114.90625 C 380.21875 115.113281 380.40625 115.113281 380.574219 115.113281 L 387.054688 115.113281 C 387.207031 115.113281 387.40625 115.113281 387.40625 114.914062 Z M 387.40625 116.960938 C 387.40625 116.753906 387.21875 116.753906 387.054688 116.753906 L 380.574219 116.753906 C 380.417969 116.753906 380.21875 116.753906 380.21875 116.949219 C 380.21875 117.160156 380.40625 117.160156 380.574219 117.160156 L 387.054688 117.160156 C 387.207031 117.160156 387.40625 117.160156 387.40625 116.960938 Z M 387.40625 116.960938 "/>
<path style=" stroke:none;fill-rule:evenodd;fill:rgb(0%,0%,0%);fill-opacity:1;" d="M 395.953125 115.15625 C 395.953125 114.242188 395.898438 113.351562 395.503906 112.515625 C 395.050781 111.601562 394.257812 111.359375 393.71875 111.359375 C 393.082031 111.359375 392.300781 111.679688 391.894531 112.59375 C 391.585938 113.285156 391.476562 113.96875 391.476562 115.15625 C 391.476562 116.226562 391.554688 117.027344 391.949219 117.808594 C 392.378906 118.644531 393.136719 118.910156 393.710938 118.910156 C 394.667969 118.910156 395.21875 118.335938 395.535156 117.699219 C 395.933594 116.875 395.953125 115.796875 395.953125 115.15625 Z M 395.117188 115.023438 C 395.117188 115.761719 395.117188 116.597656 394.996094 117.269531 C 394.789062 118.480469 394.09375 118.6875 393.710938 118.6875 C 393.359375 118.6875 392.640625 118.492188 392.433594 117.292969 C 392.3125 116.632812 392.3125 115.796875 392.3125 115.023438 C 392.3125 114.125 392.3125 113.308594 392.488281 112.660156 C 392.675781 111.921875 393.234375 111.582031 393.710938 111.582031 C 394.128906 111.582031 394.765625 111.835938 394.976562 112.78125 C 395.117188 113.40625 395.117188 114.277344 395.117188 115.023438 Z M 395.117188 115.023438 "/>
<path style="fill:none;stroke-width:1;stroke-linecap:square;stroke-linejoin:miter;stroke:rgb(0%,0%,0%);stroke-opacity:1;stroke-miterlimit:3.25;" d="M -404 20.574219 L 808.160156 20.574219 "/>
<path style="fill:none;stroke-width:1;stroke-linecap:square;stroke-linejoin:miter;stroke:rgb(0%,0%,0%);stroke-opacity:1;stroke-miterlimit:3.25;" d="M -404 20.574219 L 808.160156 20.574219 "/>
<path style=" stroke:none;fill-rule:evenodd;fill:rgb(0%,0%,0%);fill-opacity:1;" d="M 376.152344 11.535156 C 376.164062 11.480469 376.1875 11.414062 376.1875 11.347656 C 376.1875 11.183594 376.054688 11.074219 375.890625 11.074219 C 375.789062 11.074219 375.558594 11.117188 375.46875 11.445312 L 374.65625 14.679688 C 374.601562 14.878906 374.601562 14.898438 374.515625 15.023438 C 374.292969 15.328125 373.929688 15.703125 373.402344 15.703125 C 372.785156 15.703125 372.730469 15.097656 372.730469 14.800781 C 372.730469 14.175781 373.027344 13.328125 373.324219 12.535156 C 373.445312 12.214844 373.511719 12.0625 373.511719 11.84375 C 373.511719 11.378906 373.183594 10.960938 372.644531 10.960938 C 371.632812 10.960938 371.222656 12.554688 371.222656 12.644531 C 371.222656 12.6875 371.269531 12.742188 371.347656 12.742188 C 371.445312 12.742188 371.457031 12.699219 371.5 12.546875 C 371.761719 11.621094 372.183594 11.183594 372.609375 11.183594 C 372.710938 11.183594 372.898438 11.183594 372.898438 11.546875 C 372.898438 11.832031 372.777344 12.148438 372.609375 12.570312 C 372.070312 14.007812 372.070312 14.371094 372.070312 14.636719 C 372.070312 15.679688 372.820312 15.921875 373.367188 15.921875 C 373.6875 15.921875 374.085938 15.824219 374.46875 15.417969 L 374.480469 15.429688 C 374.316406 16.078125 374.207031 16.507812 373.820312 17.046875 C 373.523438 17.464844 373.09375 17.839844 372.554688 17.839844 C 372.425781 17.839844 371.894531 17.816406 371.730469 17.3125 C 371.761719 17.320312 371.839844 17.320312 371.839844 17.320312 C 372.171875 17.320312 372.390625 17.035156 372.390625 16.78125 C 372.390625 16.53125 372.183594 16.441406 372.015625 16.441406 C 371.839844 16.441406 371.457031 16.574219 371.457031 17.113281 C 371.457031 17.671875 371.929688 18.058594 372.554688 18.058594 C 373.65625 18.058594 374.765625 17.046875 375.074219 15.824219 Z M 376.152344 11.535156 "/>
<path style=" stroke:none;fill-rule:evenodd;fill:rgb(0%,0%,0%);fill-opacity:1;" d="M 387.40625 12.050781 C 387.40625 11.84375 387.21875 11.84375 387.054688 11.84375 L 380.574219 11.84375 C 380.417969 11.84375 380.21875 11.84375 380.21875 12.039062 C 380.21875 12.25 380.40625 12.25 380.574219 12.25 L 387.054688 12.25 C 387.207031 12.25 387.40625 12.25 387.40625 12.050781 Z M 387.40625 14.097656 C 387.40625 13.890625 387.21875 13.890625 387.054688 13.890625 L 380.574219 13.890625 C 380.417969 13.890625 380.21875 13.890625 380.21875 14.085938 C 380.21875 14.296875 380.40625 14.296875 380.574219 14.296875 L 387.054688 14.296875 C 387.207031 14.296875 387.40625 14.296875 387.40625 14.097656 Z M 387.40625 14.097656 "/>
<path style=" stroke:none;fill-rule:evenodd;fill:rgb(0%,0%,0%);fill-opacity:1;" d="M 395.535156 15.8125 L 395.535156 15.496094 L 395.195312 15.496094 C 394.226562 15.496094 394.195312 15.363281 394.195312 14.96875 L 394.195312 8.761719 C 394.195312 8.507812 394.195312 8.496094 393.972656 8.496094 C 393.710938 8.792969 393.160156 9.203125 392.027344 9.203125 L 392.027344 9.519531 C 392.28125 9.519531 392.828125 9.519531 393.433594 9.234375 L 393.433594 14.96875 C 393.433594 15.363281 393.402344 15.496094 392.433594 15.496094 L 392.09375 15.496094 L 392.09375 15.8125 C 392.390625 15.792969 393.457031 15.792969 393.820312 15.792969 C 394.183594 15.792969 395.238281 15.792969 395.535156 15.8125 Z M 395.535156 15.8125 "/>
</g>
</svg>
