<?xml version="1.0" encoding="UTF-8"?>
<svg xmlns="http://www.w3.org/2000/svg" xmlns:xlink="http://www.w3.org/1999/xlink" width="404pt" height="136pt" viewBox="0 0 404 136" version="1.1">
<g id="surface28">
<path style="fill-rule:nonzero;fill:rgb(100%,100%,86.999313%);fill-opacity:1;stroke-width:1;stroke-linecap:square;stroke-linejoin:miter;stroke:rgb(0%,0%,0%);stroke-opacity:1;stroke-miterlimit:3.25;" d="M 274.71875 120.992188 L 274.171875 116.753906 L 273.441406 112.582031 L 272.53125 108.484375 L 271.445312 104.464844 L 270.183594 100.53125 L 268.757812 96.695312 L 267.167969 92.957031 L 265.417969 89.328125 L 263.511719 85.816406 L 261.457031 82.421875 L 259.257812 79.15625 L 256.917969 76.027344 L 254.449219 73.035156 L 251.847656 70.1875 L 249.128906 67.488281 L 246.296875 64.949219 L 243.355469 62.566406 L 240.3125 60.351562 L 237.175781 58.304688 L 233.953125 56.429688 L 230.648438 54.738281 L 227.273438 53.222656 L 223.835938 51.894531 L 220.339844 50.75 L 216.796875 49.800781 L 213.214844 49.042969 L 209.605469 48.488281 L 205.980469 48.136719 L 202.347656 47.988281 L 198.710938 48.042969 L 195.078125 48.300781 L 191.460938 48.757812 L 187.867188 49.421875 L 184.304688 50.285156 L 180.785156 51.339844 L 177.320312 52.582031 L 173.914062 54.007812 L 170.574219 55.621094 L 167.3125 57.410156 L 164.136719 59.378906 L 161.050781 61.515625 L 158.058594 63.820312 L 155.175781 66.289062 L 152.402344 68.914062 L 149.746094 71.691406 L 147.214844 74.617188 L 144.8125 77.683594 L 142.550781 80.886719 L 140.425781 84.222656 L 138.449219 87.679688 L 136.628906 91.253906 L 134.960938 94.941406 L 133.457031 98.734375 L 132.121094 102.625 L 130.953125 106.601562 L 129.960938 110.667969 L 129.144531 114.804688 L 128.511719 119.011719 L 128.28125 120.992188 L 128.09375 121.140625 L 127.890625 121.296875 L 127.679688 121.457031 L 127.453125 121.621094 L 127.210938 121.792969 L 126.957031 121.964844 L 126.691406 122.140625 L 126.410156 122.320312 L 126.117188 122.503906 L 125.808594 122.6875 L 125.488281 122.875 L 125.152344 123.0625 L 124.800781 123.253906 L 124.4375 123.445312 L 124.054688 123.632812 L 123.660156 123.824219 L 123.253906 124.015625 L 122.828125 124.207031 L 122.390625 124.394531 L 121.9375 124.582031 L 121.46875 124.769531 L 120.984375 124.953125 L 120.484375 125.132812 L 119.972656 125.3125 L 119.441406 125.484375 L 118.898438 125.65625 L 118.339844 125.820312 L 117.765625 125.984375 L 117.175781 126.136719 L 116.570312 126.289062 L 115.953125 126.433594 L 115.320312 126.570312 L 114.667969 126.703125 L 114.003906 126.828125 L 113.328125 126.941406 L 112.632812 127.050781 L 111.925781 127.152344 L 111.203125 127.242188 L 110.46875 127.324219 L 109.714844 127.394531 L 108.949219 127.457031 L 108.171875 127.507812 L 107.378906 127.550781 L 106.519531 127.582031 L 105.628906 127.601562 L 8.058594 127.605469 L 8.148438 125.621094 L 8.417969 121.390625 L 8.792969 117.210938 L 9.269531 113.089844 L 9.84375 109.023438 L 10.515625 105.023438 L 11.277344 101.089844 L 12.128906 97.222656 L 13.066406 93.425781 L 14.089844 89.707031 L 15.191406 86.0625 L 16.367188 82.5 L 17.617188 79.019531 L 18.933594 75.625 L 20.316406 72.3125 L 21.761719 69.089844 L 23.261719 65.960938 L 24.8125 62.921875 L 26.414062 59.976562 L 28.058594 57.125 L 29.742188 54.371094 L 31.460938 51.710938 L 33.214844 49.152344 L 34.992188 46.6875 L 36.789062 44.324219 L 38.609375 42.0625 L 40.433594 39.902344 L 42.261719 37.847656 L 44.089844 35.902344 L 45.910156 34.054688 L 47.71875 32.308594 L 49.519531 30.664062 L 51.296875 29.117188 L 53.105469 27.625 L 55.175781 26 L 57.257812 24.457031 L 59.34375 22.984375 L 61.4375 21.589844 L 63.53125 20.269531 L 65.625 19.023438 L 67.714844 17.851562 L 69.796875 16.75 L 71.875 15.71875 L 73.941406 14.761719 L 76 13.867188 L 78.039062 13.042969 L 80.066406 12.285156 L 82.070312 11.59375 L 84.058594 10.960938 L 86.023438 10.394531 L 87.964844 9.882812 L 89.878906 9.433594 L 91.765625 9.042969 L 93.625 8.703125 L 95.453125 8.421875 L 97.25 8.1875 L 99.011719 8.003906 L 100.742188 7.871094 L 102.433594 7.785156 L 298.21875 7.738281 L 299.75 7.757812 L 301.351562 7.820312 L 303.058594 7.929688 L 304.800781 8.085938 L 306.582031 8.289062 L 308.390625 8.546875 L 310.234375 8.855469 L 312.105469 9.21875 L 314.007812 9.636719 L 315.933594 10.113281 L 317.886719 10.648438 L 319.863281 11.246094 L 321.859375 11.90625 L 323.875 12.628906 L 325.90625 13.417969 L 327.957031 14.273438 L 330.015625 15.199219 L 332.089844 16.191406 L 334.171875 17.253906 L 336.257812 18.390625 L 338.351562 19.597656 L 340.445312 20.875 L 342.535156 22.230469 L 344.628906 23.660156 L 346.710938 25.164062 L 348.789062 26.746094 L 350.757812 28.328125 L 352.527344 29.824219 L 354.316406 31.417969 L 356.121094 33.109375 L 357.9375 34.902344 L 359.761719 36.792969 L 361.589844 38.792969 L 363.417969 40.894531 L 365.238281 43.101562 L 367.050781 45.414062 L 368.839844 47.824219 L 370.605469 50.332031 L 372.34375 52.9375 L 374.046875 55.640625 L 375.714844 58.4375 L 377.335938 61.335938 L 378.917969 64.324219 L 380.445312 67.40625 L 381.917969 70.578125 L 383.335938 73.84375 L 384.6875 77.191406 L 385.972656 80.628906 L 387.191406 84.148438 L 388.332031 87.75 L 389.394531 91.429688 L 390.378906 95.183594 L 391.277344 99.011719 L 392.089844 102.910156 L 392.808594 106.878906 L 393.433594 110.910156 L 393.964844 115 L 394.394531 119.148438 L 394.71875 123.351562 L 394.941406 127.605469 L 298.21875 127.605469 L 297.539062 127.601562 L 296.859375 127.589844 L 296.179688 127.570312 L 295.535156 127.546875 L 294.929688 127.515625 L 294.328125 127.476562 L 293.738281 127.433594 L 293.15625 127.382812 L 292.578125 127.328125 L 292.015625 127.265625 L 291.457031 127.199219 L 290.90625 127.128906 L 290.367188 127.050781 L 289.832031 126.96875 L 289.308594 126.882812 L 288.792969 126.789062 L 288.289062 126.695312 L 287.789062 126.59375 L 287.300781 126.488281 L 286.820312 126.382812 L 286.351562 126.269531 L 285.886719 126.15625 L 285.433594 126.035156 L 284.988281 125.914062 L 284.550781 125.789062 L 284.125 125.664062 L 283.707031 125.53125 L 283.296875 125.402344 L 282.894531 125.265625 L 282.503906 125.128906 L 282.121094 124.992188 L 281.746094 124.851562 L 281.382812 124.710938 L 281.023438 124.566406 L 280.675781 124.425781 L 280.335938 124.28125 L 280.007812 124.132812 L 279.683594 123.988281 L 279.371094 123.84375 L 279.066406 123.695312 L 278.773438 123.550781 L 278.484375 123.402344 L 278.207031 123.257812 L 277.9375 123.109375 L 277.675781 122.964844 L 277.421875 122.824219 L 277.175781 122.679688 L 276.941406 122.539062 L 276.710938 122.398438 L 276.492188 122.257812 L 276.277344 122.121094 L 276.074219 121.988281 L 275.878906 121.851562 L 275.691406 121.722656 L 275.507812 121.59375 L 275.335938 121.46875 L 275.171875 121.34375 L 275.011719 121.222656 L 274.863281 121.105469 Z M 274.71875 120.992188 "/>
<path style="fill:none;stroke-width:1;stroke-linecap:square;stroke-linejoin:miter;stroke:rgb(0%,0%,0%);stroke-opacity:1;stroke-miterlimit:3.25;" d="M 276.984375 118.199219 L 274.71875 120.992188 "/>
<path style="fill:none;stroke-width:1;stroke-linecap:square;stroke-linejoin:miter;stroke:rgb(0%,0%,0%);stroke-opacity:1;stroke-miterlimit:3.25;" d="M 217.03125 46.160156 L 216.242188 49.667969 "/>
<path style="fill:none;stroke-width:1;stroke-linecap:square;stroke-linejoin:miter;stroke:rgb(0%,0%,0%);stroke-opacity:1;stroke-miterlimit:3.25;" d="M 185.96875 46.160156 L 186.757812 49.667969 "/>
<path style="fill:none;stroke-width:1;stroke-linecap:square;stroke-linejoin:miter;stroke:rgb(0%,0%,0%);stroke-opacity:1;stroke-miterlimit:3.25;" d="M 126.015625 118.199219 L 128.28125 120.992188 "/>
<path style="fill:none;stroke-width:1;stroke-linecap:square;stroke-linejoin:miter;stroke:rgb(0%,0%,0%);stroke-opacity:1;stroke-miterlimit:3.25;" d="M 296.011719 123.96875 L 295.871094 127.558594 "/>
<path style="fill:none;stroke-width:1;stroke-linecap:square;stroke-linejoin:miter;stroke:rgb(0%,0%,0%);stroke-opacity:1;stroke-miterlimit:3.25;" d="M 298.21875 124.011719 L 298.21875 127.605469 "/>
<path style="fill:none;stroke-width:1;stroke-linecap:square;stroke-linejoin:miter;stroke:rgb(0%,0%,0%);stroke-opacity:1;stroke-miterlimit:3.25;" d="M 106.988281 123.96875 L 107.128906 127.558594 "/>
<path style="fill:none;stroke-width:1;stroke-linecap:square;stroke-linejoin:miter;stroke:rgb(0%,0%,0%);stroke-opacity:1;stroke-miterlimit:3.25;" d="M 104.78125 124.011719 L 104.78125 127.605469 "/>
<path style="fill:none;stroke-width:1;stroke-linecap:square;stroke-linejoin:miter;stroke:rgb(0%,0%,0%);stroke-opacity:1;stroke-miterlimit:3.25;" d="M 362.164062 45.019531 L 364.957031 42.753906 "/>
<path style="fill:none;stroke-width:1;stroke-linecap:square;stroke-linejoin:miter;stroke:rgb(0%,0%,0%);stroke-opacity:1;stroke-miterlimit:3.25;" d="M 347.949219 30.675781 L 350.214844 27.882812 "/>
<path style="fill:none;stroke-width:1;stroke-linecap:square;stroke-linejoin:miter;stroke:rgb(0%,0%,0%);stroke-opacity:1;stroke-miterlimit:3.25;" d="M 300.425781 11.375 L 300.566406 7.785156 "/>
<path style="fill:none;stroke-width:1;stroke-linecap:square;stroke-linejoin:miter;stroke:rgb(0%,0%,0%);stroke-opacity:1;stroke-miterlimit:3.25;" d="M 298.21875 11.332031 L 298.21875 7.738281 "/>
<path style="fill:none;stroke-width:1;stroke-linecap:square;stroke-linejoin:miter;stroke:rgb(0%,0%,0%);stroke-opacity:1;stroke-miterlimit:3.25;" d="M 40.835938 45.019531 L 38.042969 42.753906 "/>
<path style="fill:none;stroke-width:1;stroke-linecap:square;stroke-linejoin:miter;stroke:rgb(0%,0%,0%);stroke-opacity:1;stroke-miterlimit:3.25;" d="M 55.050781 30.675781 L 52.785156 27.882812 "/>
<path style="fill:none;stroke-width:1;stroke-linecap:square;stroke-linejoin:miter;stroke:rgb(0%,0%,0%);stroke-opacity:1;stroke-miterlimit:3.25;" d="M 102.574219 11.375 L 102.433594 7.785156 "/>
<path style="fill:none;stroke-width:1;stroke-linecap:square;stroke-linejoin:miter;stroke:rgb(0%,0%,0%);stroke-opacity:1;stroke-miterlimit:3.25;" d="M 104.78125 11.332031 L 104.78125 7.738281 "/>
<path style="fill:none;stroke-width:1;stroke-linecap:square;stroke-linejoin:miter;stroke:rgb(0%,0%,0%);stroke-opacity:1;stroke-miterlimit:3.25;" d="M 392.398438 125.0625 L 394.941406 127.605469 "/>
<path style="fill:none;stroke-width:1;stroke-linecap:square;stroke-linejoin:miter;stroke:rgb(0%,0%,0%);stroke-opacity:1;stroke-miterlimit:3.25;" d="M 10.601562 125.0625 L 8.058594 127.605469 "/>
<path style="fill:none;stroke-width:1;stroke-linecap:square;stroke-linejoin:miter;stroke:rgb(100%,0%,0%);stroke-opacity:1;stroke-miterlimit:3.25;" d="M 128.28125 120.992188 L 128.09375 121.140625 L 127.890625 121.296875 L 127.679688 121.457031 L 127.453125 121.621094 L 127.210938 121.792969 L 126.957031 121.964844 L 126.691406 122.140625 L 126.410156 122.320312 L 126.117188 122.503906 L 125.808594 122.6875 L 125.488281 122.875 L 125.152344 123.0625 L 124.800781 123.253906 L 124.4375 123.445312 L 124.054688 123.632812 L 123.660156 123.824219 L 123.253906 124.015625 L 122.828125 124.207031 L 122.390625 124.394531 L 121.9375 124.582031 L 121.46875 124.769531 L 120.984375 124.953125 L 120.484375 125.132812 L 119.972656 125.3125 L 119.441406 125.484375 L 118.898438 125.65625 L 118.339844 125.820312 L 117.765625 125.984375 L 117.175781 126.136719 L 116.570312 126.289062 L 115.953125 126.433594 L 115.320312 126.570312 L 114.667969 126.703125 L 114.003906 126.828125 L 113.328125 126.941406 L 112.632812 127.050781 L 111.925781 127.152344 L 111.203125 127.242188 L 110.46875 127.324219 L 109.714844 127.394531 L 108.949219 127.457031 L 108.171875 127.507812 L 107.378906 127.550781 L 106.519531 127.582031 L 105.628906 127.601562 "/>
<path style="fill:none;stroke-width:1;stroke-linecap:square;stroke-linejoin:miter;stroke:rgb(100%,0%,0%);stroke-opacity:1;stroke-miterlimit:3.25;" d="M 298.21875 127.605469 L 297.539062 127.601562 L 296.859375 127.589844 L 296.179688 127.570312 L 295.535156 127.546875 L 294.929688 127.515625 L 294.328125 127.476562 L 293.738281 127.433594 L 293.15625 127.382812 L 292.578125 127.328125 L 292.015625 127.265625 L 291.457031 127.199219 L 290.90625 127.128906 L 290.367188 127.050781 L 289.832031 126.96875 L 289.308594 126.882812 L 288.792969 126.789062 L 288.289062 126.695312 L 287.789062 126.59375 L 287.300781 126.488281 L 286.820312 126.382812 L 286.351562 126.269531 L 285.886719 126.15625 L 285.433594 126.035156 L 284.988281 125.914062 L 284.550781 125.789062 L 284.125 125.664062 L 283.707031 125.53125 L 283.296875 125.402344 L 282.894531 125.265625 L 282.503906 125.128906 L 282.121094 124.992188 L 281.746094 124.851562 L 281.382812 124.710938 L 281.023438 124.566406 L 280.675781 124.425781 L 280.335938 124.28125 L 280.007812 124.132812 L 279.683594 123.988281 L 279.371094 123.84375 L 279.066406 123.695312 L 278.773438 123.550781 L 278.484375 123.402344 L 278.207031 123.257812 L 277.9375 123.109375 L 277.675781 122.964844 L 277.421875 122.824219 L 277.175781 122.679688 L 276.941406 122.539062 L 276.710938 122.398438 L 276.492188 122.257812 L 276.277344 122.121094 L 276.074219 121.988281 L 275.878906 121.851562 L 275.691406 121.722656 L 275.507812 121.59375 L 275.335938 121.46875 L 275.171875 121.34375 L 275.011719 121.222656 L 274.863281 121.105469 L 274.71875 120.992188 "/>
<path style="fill:none;stroke-width:1;stroke-linecap:butt;stroke-linejoin:miter;stroke:rgb(0%,0%,100%);stroke-opacity:1;stroke-dasharray:1.209;stroke-miterlimit:3.25;" d="M 275.070312 127.605469 L 275.070312 127.050781 L 275.066406 126.941406 L 275.066406 126.71875 L 275.0625 126.605469 L 275.0625 126.496094 L 275.058594 126.386719 L 275.058594 126.273438 L 275.054688 126.164062 L 275.050781 126.050781 L 275.050781 125.941406 L 275.046875 125.832031 L 275.042969 125.71875 L 275.035156 125.5 L 275.03125 125.386719 L 275.023438 125.167969 L 275.019531 125.054688 L 275.011719 124.835938 L 275.003906 124.726562 L 275 124.613281 L 274.996094 124.503906 L 274.988281 124.394531 L 274.984375 124.285156 L 274.976562 124.171875 L 274.972656 124.0625 L 274.957031 123.84375 L 274.953125 123.734375 L 274.945312 123.621094 L 274.90625 123.074219 L 274.898438 122.960938 L 274.875 122.632812 L 274.863281 122.523438 L 274.847656 122.304688 L 274.835938 122.195312 L 274.828125 122.085938 L 274.816406 121.976562 L 274.808594 121.867188 L 274.785156 121.648438 L 274.777344 121.539062 L 274.71875 120.992188 "/>
<path style="fill:none;stroke-width:1;stroke-linecap:butt;stroke-linejoin:miter;stroke:rgb(0%,0%,100%);stroke-opacity:1;stroke-dasharray:1.209;stroke-miterlimit:3.25;" d="M 128.28125 120.992188 L 128.222656 121.539062 L 128.214844 121.648438 L 128.191406 121.867188 L 128.183594 121.976562 L 128.171875 122.085938 L 128.164062 122.195312 L 128.152344 122.304688 L 128.136719 122.523438 L 128.125 122.632812 L 128.101562 122.960938 L 128.09375 123.074219 L 128.054688 123.621094 L 128.046875 123.734375 L 128.042969 123.84375 L 128.027344 124.0625 L 128.023438 124.171875 L 128.015625 124.285156 L 128.011719 124.394531 L 128.003906 124.503906 L 128 124.613281 L 127.996094 124.726562 L 127.988281 124.835938 L 127.980469 125.054688 L 127.976562 125.167969 L 127.96875 125.386719 L 127.964844 125.5 L 127.957031 125.71875 L 127.953125 125.832031 L 127.949219 125.941406 L 127.949219 126.050781 L 127.945312 126.164062 L 127.941406 126.273438 L 127.941406 126.386719 L 127.9375 126.496094 L 127.9375 126.605469 L 127.933594 126.71875 L 127.933594 126.941406 L 127.929688 127.050781 L 127.929688 127.605469 "/>
<path style="fill:none;stroke-width:1;stroke-linecap:square;stroke-linejoin:miter;stroke:rgb(0%,0%,100%);stroke-opacity:1;stroke-miterlimit:3.25;" d="M 274.71875 120.992188 L 274.171875 116.753906 L 273.441406 112.582031 L 272.53125 108.484375 L 271.445312 104.464844 L 270.183594 100.53125 L 268.757812 96.695312 L 267.167969 92.957031 L 265.417969 89.328125 L 263.511719 85.816406 L 261.457031 82.421875 L 259.257812 79.15625 L 256.917969 76.027344 L 254.449219 73.035156 L 251.847656 70.1875 L 249.128906 67.488281 L 246.296875 64.949219 L 243.355469 62.566406 L 240.3125 60.351562 L 237.175781 58.304688 L 233.953125 56.429688 L 230.648438 54.738281 L 227.273438 53.222656 L 223.835938 51.894531 L 220.339844 50.75 L 216.796875 49.800781 L 213.214844 49.042969 L 209.605469 48.488281 L 205.980469 48.136719 L 202.347656 47.988281 L 198.710938 48.042969 L 195.078125 48.300781 L 191.460938 48.757812 L 187.867188 49.421875 L 184.304688 50.285156 L 180.785156 51.339844 L 177.320312 52.582031 L 173.914062 54.007812 L 170.574219 55.621094 L 167.3125 57.410156 L 164.136719 59.378906 L 161.050781 61.515625 L 158.058594 63.820312 L 155.175781 66.289062 L 152.402344 68.914062 L 149.746094 71.691406 L 147.214844 74.617188 L 144.8125 77.683594 L 142.550781 80.886719 L 140.425781 84.222656 L 138.449219 87.679688 L 136.628906 91.253906 L 134.960938 94.941406 L 133.457031 98.734375 L 132.121094 102.625 L 130.953125 106.601562 L 129.960938 110.667969 L 129.144531 114.804688 L 128.511719 119.011719 "/>
</g>
</svg>
