<?xml version="1.0" encoding="UTF-8"?>
<svg xmlns="http://www.w3.org/2000/svg" xmlns:xlink="http://www.w3.org/1999/xlink" width="404pt" height="105pt" viewBox="0 0 404 105" version="1.1">
<defs>
<clipPath id="clip1">
  <path d="M 8.878906 11 L 96 11 L 96 97.921875 L 8.878906 97.921875 Z M 8.878906 11 "/>
</clipPath>
<clipPath id="clip2">
  <path d="M 8.878906 32 L 75 32 L 75 97.921875 L 8.878906 97.921875 Z M 8.878906 32 "/>
</clipPath>
<clipPath id="clip3">
  <path d="M 8.878906 10 L 97 10 L 97 97.921875 L 8.878906 97.921875 Z M 8.878906 10 "/>
</clipPath>
<clipPath id="clip4">
  <path d="M 21 6.71875 L 100.078125 6.71875 L 100.078125 38 L 21 38 Z M 21 6.71875 "/>
</clipPath>
<clipPath id="clip5">
  <path d="M 107.28125 11 L 195 11 L 195 97.921875 L 107.28125 97.921875 Z M 107.28125 11 "/>
</clipPath>
<clipPath id="clip6">
  <path d="M 107.28125 32 L 174 32 L 174 97.921875 L 107.28125 97.921875 Z M 107.28125 32 "/>
</clipPath>
<clipPath id="clip7">
  <path d="M 107.28125 10 L 195 10 L 195 97.921875 L 107.28125 97.921875 Z M 107.28125 10 "/>
</clipPath>
<clipPath id="clip8">
  <path d="M 125 6.71875 L 198.480469 6.71875 L 198.480469 63 L 125 63 Z M 125 6.71875 "/>
</clipPath>
<clipPath id="clip9">
  <path d="M 205.441406 11 L 293 11 L 293 97.921875 L 205.441406 97.921875 Z M 205.441406 11 "/>
</clipPath>
<clipPath id="clip10">
  <path d="M 205.441406 32 L 272 32 L 272 97.921875 L 205.441406 97.921875 Z M 205.441406 32 "/>
</clipPath>
<clipPath id="clip11">
  <path d="M 205.441406 10 L 294 10 L 294 97.921875 L 205.441406 97.921875 Z M 205.441406 10 "/>
</clipPath>
<clipPath id="clip12">
  <path d="M 240 6.71875 L 296.640625 6.71875 L 296.640625 80 L 240 80 Z M 240 6.71875 "/>
</clipPath>
<clipPath id="clip13">
  <path d="M 303.839844 11 L 391 11 L 391 97.921875 L 303.839844 97.921875 Z M 303.839844 11 "/>
</clipPath>
<clipPath id="clip14">
  <path d="M 303.839844 32 L 370 32 L 370 97.921875 L 303.839844 97.921875 Z M 303.839844 32 "/>
</clipPath>
<clipPath id="clip15">
  <path d="M 303.839844 10 L 392 10 L 392 97.921875 L 303.839844 97.921875 Z M 303.839844 10 "/>
</clipPath>
<clipPath id="clip16">
  <path d="M 364 6.71875 L 395.039062 6.71875 L 395.039062 86 L 364 86 Z M 364 6.71875 "/>
</clipPath>
</defs>
<g id="surface78">
<g clip-path="url(#clip1)" clip-rule="nonzero">
<path style=" stroke:none;fill-rule:nonzero;fill:rgb(74.999619%,74.999619%,74.999619%);fill-opacity:1;" d="M -12.613281 32.792969 L 74.066406 32.792969 L 74.066406 119.472656 L 95.738281 119.472656 L 95.738281 11.121094 L -12.613281 11.121094 Z M -12.613281 32.792969 "/>
</g>
<g clip-path="url(#clip2)" clip-rule="nonzero">
<path style="fill:none;stroke-width:1;stroke-linecap:square;stroke-linejoin:miter;stroke:rgb(0%,0%,0%);stroke-opacity:1;stroke-miterlimit:3.25;" d="M -12.613281 32.792969 L 74.066406 32.792969 L 74.066406 119.472656 "/>
</g>
<g clip-path="url(#clip3)" clip-rule="nonzero">
<path style="fill:none;stroke-width:1;stroke-linecap:square;stroke-linejoin:miter;stroke:rgb(0%,0%,0%);stroke-opacity:1;stroke-miterlimit:3.25;" d="M -12.613281 11.121094 L 95.738281 11.121094 L 95.738281 119.472656 "/>
</g>
<path style=" stroke:none;fill-rule:nonzero;fill:rgb(100%,100%,86.999313%);fill-opacity:1;" d="M 74.003906 31.597656 L 73.902344 30.832031 L 73.769531 30.078125 L 73.605469 29.335938 L 73.410156 28.609375 L 73.183594 27.898438 L 72.925781 27.203125 L 72.636719 26.527344 L 72.320312 25.875 L 71.976562 25.238281 L 71.605469 24.625 L 71.207031 24.035156 L 70.785156 23.46875 L 70.335938 22.925781 L 69.867188 22.414062 L 69.375 21.925781 L 68.863281 21.464844 L 68.332031 21.035156 L 67.78125 20.632812 L 67.214844 20.265625 L 66.632812 19.925781 L 66.035156 19.621094 L 65.425781 19.347656 L 64.804688 19.105469 L 64.171875 18.898438 L 63.53125 18.726562 L 62.882812 18.589844 L 62.230469 18.488281 L 61.574219 18.425781 L 60.917969 18.398438 L 60.261719 18.410156 L 59.605469 18.457031 L 58.949219 18.539062 L 58.300781 18.660156 L 57.65625 18.816406 L 57.019531 19.003906 L 56.394531 19.230469 L 55.777344 19.488281 L 55.175781 19.777344 L 54.585938 20.101562 L 54.011719 20.457031 L 53.453125 20.84375 L 52.914062 21.261719 L 52.390625 21.707031 L 51.890625 22.183594 L 51.410156 22.683594 L 50.953125 23.214844 L 50.519531 23.769531 L 50.109375 24.347656 L 49.722656 24.949219 L 49.367188 25.574219 L 49.039062 26.222656 L 48.738281 26.886719 L 48.464844 27.574219 L 48.222656 28.277344 L 48.011719 28.996094 L 47.832031 29.730469 L 47.683594 30.480469 L 47.570312 31.238281 L 47.527344 31.597656 L 47.496094 31.625 L 47.417969 31.679688 L 47.378906 31.710938 L 47.335938 31.742188 L 47.242188 31.804688 L 47.191406 31.835938 L 47.136719 31.871094 L 47.082031 31.902344 L 46.964844 31.972656 L 46.898438 32.007812 L 46.832031 32.039062 L 46.765625 32.074219 L 46.695312 32.109375 L 46.621094 32.144531 L 46.542969 32.179688 L 46.464844 32.210938 L 46.382812 32.246094 L 46.296875 32.28125 L 46.210938 32.3125 L 46.121094 32.347656 L 46.027344 32.378906 L 45.832031 32.441406 L 45.730469 32.46875 L 45.628906 32.5 L 45.300781 32.582031 L 44.949219 32.652344 L 44.699219 32.691406 L 44.570312 32.710938 L 44.441406 32.726562 L 44.308594 32.742188 L 44.035156 32.765625 L 43.894531 32.777344 L 43.75 32.78125 L 43.59375 32.789062 L 43.433594 32.792969 L 25.792969 32.792969 L 25.8125 32.433594 L 25.859375 31.667969 L 25.925781 30.914062 L 26.011719 30.167969 L 26.117188 29.433594 L 26.238281 28.710938 L 26.375 28 L 26.53125 27.300781 L 26.699219 26.613281 L 26.886719 25.941406 L 27.082031 25.28125 L 27.296875 24.640625 L 27.523438 24.007812 L 27.761719 23.394531 L 28.011719 22.796875 L 28.273438 22.214844 L 28.542969 21.648438 L 28.824219 21.097656 L 29.113281 20.566406 L 29.410156 20.050781 L 29.714844 19.554688 L 30.027344 19.074219 L 30.34375 18.609375 L 30.664062 18.164062 L 30.988281 17.738281 L 31.316406 17.328125 L 31.648438 16.9375 L 31.976562 16.566406 L 32.308594 16.214844 L 32.636719 15.878906 L 32.964844 15.566406 L 33.289062 15.265625 L 33.613281 14.988281 L 33.9375 14.71875 L 34.3125 14.425781 L 34.6875 14.144531 L 35.066406 13.878906 L 35.445312 13.628906 L 35.824219 13.390625 L 36.203125 13.164062 L 36.578125 12.953125 L 36.957031 12.753906 L 37.332031 12.566406 L 37.707031 12.390625 L 38.078125 12.230469 L 38.445312 12.082031 L 38.8125 11.945312 L 39.175781 11.820312 L 39.535156 11.707031 L 39.890625 11.601562 L 40.242188 11.511719 L 40.585938 11.429688 L 40.929688 11.359375 L 41.265625 11.296875 L 41.59375 11.246094 L 41.917969 11.203125 L 42.238281 11.171875 L 42.550781 11.148438 L 42.855469 11.132812 L 78.25 11.121094 L 78.527344 11.125 L 78.816406 11.136719 L 79.125 11.15625 L 79.441406 11.1875 L 79.761719 11.222656 L 80.089844 11.269531 L 80.421875 11.324219 L 80.761719 11.390625 L 81.105469 11.464844 L 81.453125 11.550781 L 81.804688 11.648438 L 82.164062 11.757812 L 82.523438 11.875 L 82.890625 12.007812 L 83.257812 12.148438 L 83.625 12.304688 L 84 12.472656 L 84.375 12.652344 L 84.75 12.84375 L 85.128906 13.046875 L 85.507812 13.265625 L 85.882812 13.5 L 86.261719 13.742188 L 86.640625 14 L 87.015625 14.273438 L 87.394531 14.558594 L 87.75 14.84375 L 88.070312 15.117188 L 88.390625 15.402344 L 88.71875 15.710938 L 89.046875 16.035156 L 89.375 16.375 L 89.707031 16.738281 L 90.039062 17.117188 L 90.367188 17.515625 L 90.695312 17.933594 L 91.019531 18.371094 L 91.335938 18.824219 L 91.652344 19.292969 L 91.960938 19.78125 L 92.261719 20.289062 L 92.554688 20.8125 L 92.839844 21.351562 L 93.117188 21.910156 L 93.382812 22.484375 L 93.636719 23.074219 L 93.882812 23.679688 L 94.117188 24.300781 L 94.335938 24.9375 L 94.542969 25.585938 L 94.734375 26.253906 L 94.910156 26.933594 L 95.074219 27.625 L 95.222656 28.328125 L 95.351562 29.046875 L 95.464844 29.773438 L 95.558594 30.515625 L 95.636719 31.265625 L 95.695312 32.023438 L 95.738281 32.792969 L 78.128906 32.792969 L 78.003906 32.789062 L 77.882812 32.785156 L 77.765625 32.78125 L 77.65625 32.777344 L 77.546875 32.769531 L 77.335938 32.753906 L 77.230469 32.742188 L 77.027344 32.71875 L 76.929688 32.707031 L 76.832031 32.691406 L 76.734375 32.679688 L 76.640625 32.664062 L 76.546875 32.644531 L 76.457031 32.628906 L 76.277344 32.589844 L 76.019531 32.53125 L 75.9375 32.507812 L 75.859375 32.488281 L 75.703125 32.441406 L 75.480469 32.371094 L 75.410156 32.34375 L 75.339844 32.320312 L 75.273438 32.296875 L 75.140625 32.242188 L 75.078125 32.21875 L 75.019531 32.191406 L 74.957031 32.164062 L 74.898438 32.140625 L 74.734375 32.058594 L 74.683594 32.03125 L 74.632812 32.007812 L 74.585938 31.980469 L 74.535156 31.953125 L 74.492188 31.929688 L 74.445312 31.902344 L 74.402344 31.875 L 74.324219 31.828125 L 74.285156 31.800781 L 74.246094 31.777344 L 74.210938 31.753906 L 74.179688 31.730469 L 74.144531 31.707031 L 74.113281 31.683594 L 74.085938 31.660156 L 74.054688 31.640625 L 74.027344 31.617188 Z M 74.003906 31.597656 "/>
<g clip-path="url(#clip4)" clip-rule="nonzero">
<path style="fill:none;stroke-width:1;stroke-linecap:square;stroke-linejoin:miter;stroke:rgb(0%,0%,0%);stroke-opacity:1;stroke-miterlimit:3.25;" d="M 74.003906 31.597656 L 73.902344 30.832031 L 73.769531 30.078125 L 73.605469 29.335938 L 73.410156 28.609375 L 73.183594 27.898438 L 72.925781 27.203125 L 72.636719 26.527344 L 72.320312 25.875 L 71.976562 25.238281 L 71.605469 24.625 L 71.207031 24.035156 L 70.785156 23.46875 L 70.335938 22.925781 L 69.867188 22.414062 L 69.375 21.925781 L 68.863281 21.464844 L 68.332031 21.035156 L 67.78125 20.632812 L 67.214844 20.265625 L 66.632812 19.925781 L 66.035156 19.621094 L 65.425781 19.347656 L 64.804688 19.105469 L 64.171875 18.898438 L 63.53125 18.726562 L 62.882812 18.589844 L 62.230469 18.488281 L 61.574219 18.425781 L 60.917969 18.398438 L 60.261719 18.410156 L 59.605469 18.457031 L 58.949219 18.539062 L 58.300781 18.660156 L 57.65625 18.816406 L 57.019531 19.003906 L 56.394531 19.230469 L 55.777344 19.488281 L 55.175781 19.777344 L 54.585938 20.101562 L 54.011719 20.457031 L 53.453125 20.84375 L 52.914062 21.261719 L 52.390625 21.707031 L 51.890625 22.183594 L 51.410156 22.683594 L 50.953125 23.214844 L 50.519531 23.769531 L 50.109375 24.347656 L 49.722656 24.949219 L 49.367188 25.574219 L 49.039062 26.222656 L 48.738281 26.886719 L 48.464844 27.574219 L 48.222656 28.277344 L 48.011719 28.996094 L 47.832031 29.730469 L 47.683594 30.480469 L 47.570312 31.238281 L 47.527344 31.597656 L 47.496094 31.625 L 47.417969 31.679688 L 47.378906 31.710938 L 47.335938 31.742188 L 47.242188 31.804688 L 47.191406 31.835938 L 47.136719 31.871094 L 47.082031 31.902344 L 46.964844 31.972656 L 46.898438 32.007812 L 46.832031 32.039062 L 46.765625 32.074219 L 46.695312 32.109375 L 46.621094 32.144531 L 46.542969 32.179688 L 46.464844 32.210938 L 46.382812 32.246094 L 46.296875 32.28125 L 46.210938 32.3125 L 46.121094 32.347656 L 46.027344 32.378906 L 45.832031 32.441406 L 45.730469 32.46875 L 45.628906 32.5 L 45.300781 32.582031 L 44.949219 32.652344 L 44.699219 32.691406 L 44.570312 32.710938 L 44.441406 32.726562 L 44.308594 32.742188 L 44.035156 32.765625 L 43.894531 32.777344 L 43.75 32.78125 L 43.59375 32.789062 L 43.433594 32.792969 L 25.792969 32.792969 L 25.8125 32.433594 L 25.859375 31.667969 L 25.925781 30.914062 L 26.011719 30.167969 L 26.117188 29.433594 L 26.238281 28.710938 L 26.375 28 L 26.53125 27.300781 L 26.699219 26.613281 L 26.886719 25.941406 L 27.082031 25.28125 L 27.296875 24.640625 L 27.523438 24.007812 L 27.761719 23.394531 L 28.011719 22.796875 L 28.273438 22.214844 L 28.542969 21.648438 L 28.824219 21.097656 L 29.113281 20.566406 L 29.410156 20.050781 L 29.714844 19.554688 L 30.027344 19.074219 L 30.34375 18.609375 L 30.664062 18.164062 L 30.988281 17.738281 L 31.316406 17.328125 L 31.648438 16.9375 L 31.976562 16.566406 L 32.308594 16.214844 L 32.636719 15.878906 L 32.964844 15.566406 L 33.289062 15.265625 L 33.613281 14.988281 L 33.9375 14.71875 L 34.3125 14.425781 L 34.6875 14.144531 L 35.066406 13.878906 L 35.445312 13.628906 L 35.824219 13.390625 L 36.203125 13.164062 L 36.578125 12.953125 L 36.957031 12.753906 L 37.332031 12.566406 L 37.707031 12.390625 L 38.078125 12.230469 L 38.445312 12.082031 L 38.8125 11.945312 L 39.175781 11.820312 L 39.535156 11.707031 L 39.890625 11.601562 L 40.242188 11.511719 L 40.585938 11.429688 L 40.929688 11.359375 L 41.265625 11.296875 L 41.59375 11.246094 L 41.917969 11.203125 L 42.238281 11.171875 L 42.550781 11.148438 L 42.855469 11.132812 L 78.25 11.121094 L 78.527344 11.125 L 78.816406 11.136719 L 79.125 11.15625 L 79.441406 11.1875 L 79.761719 11.222656 L 80.089844 11.269531 L 80.421875 11.324219 L 80.761719 11.390625 L 81.105469 11.464844 L 81.453125 11.550781 L 81.804688 11.648438 L 82.164062 11.757812 L 82.523438 11.875 L 82.890625 12.007812 L 83.257812 12.148438 L 83.625 12.304688 L 84 12.472656 L 84.375 12.652344 L 84.75 12.84375 L 85.128906 13.046875 L 85.507812 13.265625 L 85.882812 13.5 L 86.261719 13.742188 L 86.640625 14 L 87.015625 14.273438 L 87.394531 14.558594 L 87.75 14.84375 L 88.070312 15.117188 L 88.390625 15.402344 L 88.71875 15.710938 L 89.046875 16.035156 L 89.375 16.375 L 89.707031 16.738281 L 90.039062 17.117188 L 90.367188 17.515625 L 90.695312 17.933594 L 91.019531 18.371094 L 91.335938 18.824219 L 91.652344 19.292969 L 91.960938 19.78125 L 92.261719 20.289062 L 92.554688 20.8125 L 92.839844 21.351562 L 93.117188 21.910156 L 93.382812 22.484375 L 93.636719 23.074219 L 93.882812 23.679688 L 94.117188 24.300781 L 94.335938 24.9375 L 94.542969 25.585938 L 94.734375 26.253906 L 94.910156 26.933594 L 95.074219 27.625 L 95.222656 28.328125 L 95.351562 29.046875 L 95.464844 29.773438 L 95.558594 30.515625 L 95.636719 31.265625 L 95.695312 32.023438 L 95.738281 32.792969 L 78.128906 32.792969 L 78.003906 32.789062 L 77.882812 32.785156 L 77.765625 32.78125 L 77.65625 32.777344 L 77.546875 32.769531 L 77.335938 32.753906 L 77.230469 32.742188 L 77.027344 32.71875 L 76.929688 32.707031 L 76.832031 32.691406 L 76.734375 32.679688 L 76.640625 32.664062 L 76.546875 32.644531 L 76.457031 32.628906 L 76.277344 32.589844 L 76.019531 32.53125 L 75.9375 32.507812 L 75.859375 32.488281 L 75.703125 32.441406 L 75.480469 32.371094 L 75.410156 32.34375 L 75.339844 32.320312 L 75.273438 32.296875 L 75.140625 32.242188 L 75.078125 32.21875 L 75.019531 32.191406 L 74.957031 32.164062 L 74.898438 32.140625 L 74.734375 32.058594 L 74.683594 32.03125 L 74.632812 32.007812 L 74.585938 31.980469 L 74.535156 31.953125 L 74.492188 31.929688 L 74.445312 31.902344 L 74.402344 31.875 L 74.324219 31.828125 L 74.285156 31.800781 L 74.246094 31.777344 L 74.210938 31.753906 L 74.179688 31.730469 L 74.144531 31.707031 L 74.113281 31.683594 L 74.085938 31.660156 L 74.054688 31.640625 L 74.027344 31.617188 Z M 74.003906 31.597656 "/>
</g>
<g clip-path="url(#clip5)" clip-rule="nonzero">
<path style=" stroke:none;fill-rule:nonzero;fill:rgb(74.999619%,74.999619%,74.999619%);fill-opacity:1;" d="M 85.679688 32.792969 L 172.363281 32.792969 L 172.363281 119.472656 L 194.03125 119.472656 L 194.03125 11.121094 L 85.679688 11.121094 Z M 85.679688 32.792969 "/>
</g>
<g clip-path="url(#clip6)" clip-rule="nonzero">
<path style="fill:none;stroke-width:1;stroke-linecap:square;stroke-linejoin:miter;stroke:rgb(0%,0%,0%);stroke-opacity:1;stroke-miterlimit:3.25;" d="M 85.679688 32.792969 L 172.363281 32.792969 L 172.363281 119.472656 "/>
</g>
<g clip-path="url(#clip7)" clip-rule="nonzero">
<path style="fill:none;stroke-width:1;stroke-linecap:square;stroke-linejoin:miter;stroke:rgb(0%,0%,0%);stroke-opacity:1;stroke-miterlimit:3.25;" d="M 85.679688 11.121094 L 194.03125 11.121094 L 194.03125 119.472656 "/>
</g>
<path style=" stroke:none;fill-rule:nonzero;fill:rgb(100%,100%,86.999313%);fill-opacity:1;" d="M 172.566406 45.988281 L 172.863281 45.273438 L 173.125 44.554688 L 173.355469 43.832031 L 173.546875 43.105469 L 173.707031 42.375 L 173.828125 41.644531 L 173.917969 40.914062 L 173.972656 40.191406 L 173.992188 39.46875 L 173.976562 38.75 L 173.925781 38.039062 L 173.84375 37.339844 L 173.726562 36.648438 L 173.578125 35.964844 L 173.398438 35.296875 L 173.183594 34.644531 L 172.9375 34.003906 L 172.660156 33.382812 L 172.355469 32.78125 L 172.019531 32.195312 L 171.65625 31.628906 L 171.265625 31.089844 L 170.847656 30.570312 L 170.402344 30.074219 L 169.933594 29.605469 L 169.441406 29.164062 L 168.925781 28.75 L 168.390625 28.367188 L 167.835938 28.015625 L 167.261719 27.695312 L 166.667969 27.40625 L 166.0625 27.152344 L 165.4375 26.933594 L 164.800781 26.746094 L 164.15625 26.589844 L 163.5 26.472656 L 162.839844 26.386719 L 162.171875 26.339844 L 161.5 26.324219 L 160.824219 26.34375 L 160.148438 26.402344 L 159.46875 26.492188 L 158.796875 26.617188 L 158.125 26.777344 L 157.457031 26.972656 L 156.796875 27.203125 L 156.144531 27.464844 L 155.5 27.761719 L 154.863281 28.089844 L 154.242188 28.453125 L 153.632812 28.851562 L 153.039062 29.277344 L 152.460938 29.734375 L 151.902344 30.222656 L 151.359375 30.738281 L 150.835938 31.285156 L 150.335938 31.859375 L 149.855469 32.460938 L 149.640625 32.75 L 149.597656 32.757812 L 149.550781 32.761719 L 149.503906 32.769531 L 149.453125 32.773438 L 149.398438 32.78125 L 149.34375 32.785156 L 149.289062 32.785156 L 149.164062 32.792969 L 148.960938 32.792969 L 148.890625 32.789062 L 148.816406 32.785156 L 148.660156 32.777344 L 148.496094 32.761719 L 148.410156 32.75 L 148.230469 32.726562 L 148.140625 32.710938 L 148.046875 32.695312 L 147.851562 32.65625 L 147.648438 32.609375 L 147.4375 32.554688 L 147.328125 32.523438 L 147.21875 32.488281 L 147.105469 32.453125 L 146.878906 32.375 L 146.761719 32.332031 L 146.640625 32.285156 L 146.523438 32.238281 L 146.402344 32.1875 L 146.277344 32.132812 L 146.15625 32.074219 L 146.027344 32.015625 L 145.902344 31.953125 L 145.773438 31.886719 L 145.636719 31.816406 L 145.496094 31.738281 L 130.21875 22.917969 L 130.414062 22.617188 L 130.839844 21.980469 L 131.273438 21.359375 L 131.722656 20.753906 L 132.179688 20.171875 L 132.644531 19.605469 L 133.121094 19.058594 L 133.601562 18.53125 L 134.09375 18.019531 L 134.589844 17.53125 L 135.089844 17.058594 L 135.597656 16.609375 L 136.109375 16.175781 L 136.621094 15.765625 L 137.136719 15.371094 L 137.652344 14.996094 L 138.171875 14.640625 L 138.691406 14.304688 L 139.207031 13.988281 L 139.722656 13.691406 L 140.234375 13.414062 L 140.742188 13.152344 L 141.25 12.910156 L 141.75 12.683594 L 142.246094 12.476562 L 142.734375 12.289062 L 143.214844 12.113281 L 143.6875 11.957031 L 144.148438 11.816406 L 144.601562 11.695312 L 145.042969 11.585938 L 145.472656 11.488281 L 145.890625 11.40625 L 146.308594 11.335938 L 146.78125 11.269531 L 147.246094 11.21875 L 147.707031 11.175781 L 148.160156 11.144531 L 148.605469 11.128906 L 149.046875 11.121094 L 149.480469 11.128906 L 149.90625 11.144531 L 150.324219 11.171875 L 150.734375 11.207031 L 151.136719 11.253906 L 151.53125 11.308594 L 151.917969 11.375 L 152.292969 11.445312 L 152.664062 11.527344 L 153.019531 11.617188 L 153.371094 11.710938 L 153.710938 11.8125 L 154.042969 11.921875 L 154.363281 12.039062 L 154.675781 12.160156 L 154.976562 12.285156 L 155.269531 12.414062 L 155.554688 12.550781 L 155.828125 12.691406 L 186.484375 30.378906 L 186.722656 30.523438 L 186.964844 30.675781 L 187.222656 30.847656 L 187.484375 31.03125 L 187.742188 31.222656 L 188.003906 31.425781 L 188.261719 31.640625 L 188.523438 31.867188 L 188.785156 32.105469 L 189.042969 32.355469 L 189.300781 32.613281 L 189.554688 32.886719 L 189.808594 33.171875 L 190.058594 33.464844 L 190.304688 33.773438 L 190.546875 34.09375 L 190.789062 34.421875 L 191.023438 34.765625 L 191.25 35.121094 L 191.476562 35.488281 L 191.695312 35.863281 L 191.90625 36.253906 L 192.113281 36.65625 L 192.308594 37.066406 L 192.5 37.492188 L 192.683594 37.925781 L 192.847656 38.351562 L 192.988281 38.746094 L 193.125 39.160156 L 193.253906 39.585938 L 193.378906 40.03125 L 193.492188 40.492188 L 193.597656 40.96875 L 193.695312 41.464844 L 193.78125 41.976562 L 193.855469 42.5 L 193.917969 43.039062 L 193.964844 43.59375 L 194.003906 44.15625 L 194.023438 44.734375 L 194.03125 45.324219 L 194.027344 45.921875 L 194.003906 46.535156 L 193.964844 47.15625 L 193.90625 47.785156 L 193.832031 48.421875 L 193.742188 49.070312 L 193.632812 49.726562 L 193.507812 50.386719 L 193.359375 51.050781 L 193.191406 51.726562 L 193.007812 52.402344 L 192.800781 53.082031 L 192.578125 53.765625 L 192.332031 54.453125 L 192.066406 55.140625 L 191.777344 55.828125 L 191.46875 56.515625 L 191.140625 57.203125 L 190.792969 57.890625 L 175.648438 49.148438 L 175.4375 49.023438 L 175.332031 48.957031 L 175.234375 48.894531 L 175.140625 48.835938 L 175.050781 48.777344 L 174.960938 48.714844 L 174.875 48.65625 L 174.789062 48.59375 L 174.707031 48.535156 L 174.625 48.472656 L 174.546875 48.410156 L 174.46875 48.351562 L 174.394531 48.289062 L 174.320312 48.230469 L 174.246094 48.167969 L 174.175781 48.105469 L 174.105469 48.046875 L 174.039062 47.984375 L 173.972656 47.925781 L 173.910156 47.867188 L 173.671875 47.628906 L 173.5625 47.511719 L 173.460938 47.394531 L 173.410156 47.339844 L 173.363281 47.28125 L 173.316406 47.226562 L 173.1875 47.0625 L 173.148438 47.011719 L 173.109375 46.957031 L 172.96875 46.753906 L 172.9375 46.707031 L 172.90625 46.65625 L 172.851562 46.5625 L 172.824219 46.519531 L 172.800781 46.472656 L 172.773438 46.429688 L 172.75 46.386719 L 172.730469 46.347656 L 172.707031 46.304688 L 172.6875 46.265625 L 172.671875 46.226562 L 172.652344 46.191406 L 172.636719 46.152344 L 172.605469 46.082031 L 172.59375 46.050781 L 172.578125 46.019531 Z M 172.566406 45.988281 "/>
<g clip-path="url(#clip8)" clip-rule="nonzero">
<path style="fill:none;stroke-width:1;stroke-linecap:square;stroke-linejoin:miter;stroke:rgb(0%,0%,0%);stroke-opacity:1;stroke-miterlimit:3.25;" d="M 172.566406 45.988281 L 172.863281 45.273438 L 173.125 44.554688 L 173.355469 43.832031 L 173.546875 43.105469 L 173.707031 42.375 L 173.828125 41.644531 L 173.917969 40.914062 L 173.972656 40.191406 L 173.992188 39.46875 L 173.976562 38.75 L 173.925781 38.039062 L 173.84375 37.339844 L 173.726562 36.648438 L 173.578125 35.964844 L 173.398438 35.296875 L 173.183594 34.644531 L 172.9375 34.003906 L 172.660156 33.382812 L 172.355469 32.78125 L 172.019531 32.195312 L 171.65625 31.628906 L 171.265625 31.089844 L 170.847656 30.570312 L 170.402344 30.074219 L 169.933594 29.605469 L 169.441406 29.164062 L 168.925781 28.75 L 168.390625 28.367188 L 167.835938 28.015625 L 167.261719 27.695312 L 166.667969 27.40625 L 166.0625 27.152344 L 165.4375 26.933594 L 164.800781 26.746094 L 164.15625 26.589844 L 163.5 26.472656 L 162.839844 26.386719 L 162.171875 26.339844 L 161.5 26.324219 L 160.824219 26.34375 L 160.148438 26.402344 L 159.46875 26.492188 L 158.796875 26.617188 L 158.125 26.777344 L 157.457031 26.972656 L 156.796875 27.203125 L 156.144531 27.464844 L 155.5 27.761719 L 154.863281 28.089844 L 154.242188 28.453125 L 153.632812 28.851562 L 153.039062 29.277344 L 152.460938 29.734375 L 151.902344 30.222656 L 151.359375 30.738281 L 150.835938 31.285156 L 150.335938 31.859375 L 149.855469 32.460938 L 149.640625 32.75 L 149.597656 32.757812 L 149.550781 32.761719 L 149.503906 32.769531 L 149.453125 32.773438 L 149.398438 32.78125 L 149.34375 32.785156 L 149.289062 32.785156 L 149.164062 32.792969 L 148.960938 32.792969 L 148.890625 32.789062 L 148.816406 32.785156 L 148.660156 32.777344 L 148.496094 32.761719 L 148.410156 32.75 L 148.230469 32.726562 L 148.140625 32.710938 L 148.046875 32.695312 L 147.851562 32.65625 L 147.648438 32.609375 L 147.4375 32.554688 L 147.328125 32.523438 L 147.21875 32.488281 L 147.105469 32.453125 L 146.878906 32.375 L 146.761719 32.332031 L 146.640625 32.285156 L 146.523438 32.238281 L 146.402344 32.1875 L 146.277344 32.132812 L 146.15625 32.074219 L 146.027344 32.015625 L 145.902344 31.953125 L 145.773438 31.886719 L 145.636719 31.816406 L 145.496094 31.738281 L 130.21875 22.917969 L 130.414062 22.617188 L 130.839844 21.980469 L 131.273438 21.359375 L 131.722656 20.753906 L 132.179688 20.171875 L 132.644531 19.605469 L 133.121094 19.058594 L 133.601562 18.53125 L 134.09375 18.019531 L 134.589844 17.53125 L 135.089844 17.058594 L 135.597656 16.609375 L 136.109375 16.175781 L 136.621094 15.765625 L 137.136719 15.371094 L 137.652344 14.996094 L 138.171875 14.640625 L 138.691406 14.304688 L 139.207031 13.988281 L 139.722656 13.691406 L 140.234375 13.414062 L 140.742188 13.152344 L 141.25 12.910156 L 141.75 12.683594 L 142.246094 12.476562 L 142.734375 12.289062 L 143.214844 12.113281 L 143.6875 11.957031 L 144.148438 11.816406 L 144.601562 11.695312 L 145.042969 11.585938 L 145.472656 11.488281 L 145.890625 11.40625 L 146.308594 11.335938 L 146.78125 11.269531 L 147.246094 11.21875 L 147.707031 11.175781 L 148.160156 11.144531 L 148.605469 11.128906 L 149.046875 11.121094 L 149.480469 11.128906 L 149.90625 11.144531 L 150.324219 11.171875 L 150.734375 11.207031 L 151.136719 11.253906 L 151.53125 11.308594 L 151.917969 11.375 L 152.292969 11.445312 L 152.664062 11.527344 L 153.019531 11.617188 L 153.371094 11.710938 L 153.710938 11.8125 L 154.042969 11.921875 L 154.363281 12.039062 L 154.675781 12.160156 L 154.976562 12.285156 L 155.269531 12.414062 L 155.554688 12.550781 L 155.828125 12.691406 L 186.484375 30.378906 L 186.722656 30.523438 L 186.964844 30.675781 L 187.222656 30.847656 L 187.484375 31.03125 L 187.742188 31.222656 L 188.003906 31.425781 L 188.261719 31.640625 L 188.523438 31.867188 L 188.785156 32.105469 L 189.042969 32.355469 L 189.300781 32.613281 L 189.554688 32.886719 L 189.808594 33.171875 L 190.058594 33.464844 L 190.304688 33.773438 L 190.546875 34.09375 L 190.789062 34.421875 L 191.023438 34.765625 L 191.25 35.121094 L 191.476562 35.488281 L 191.695312 35.863281 L 191.90625 36.253906 L 192.113281 36.65625 L 192.308594 37.066406 L 192.5 37.492188 L 192.683594 37.925781 L 192.847656 38.351562 L 192.988281 38.746094 L 193.125 39.160156 L 193.253906 39.585938 L 193.378906 40.03125 L 193.492188 40.492188 L 193.597656 40.96875 L 193.695312 41.464844 L 193.78125 41.976562 L 193.855469 42.5 L 193.917969 43.039062 L 193.964844 43.59375 L 194.003906 44.15625 L 194.023438 44.734375 L 194.03125 45.324219 L 194.027344 45.921875 L 194.003906 46.535156 L 193.964844 47.15625 L 193.90625 47.785156 L 193.832031 48.421875 L 193.742188 49.070312 L 193.632812 49.726562 L 193.507812 50.386719 L 193.359375 51.050781 L 193.191406 51.726562 L 193.007812 52.402344 L 192.800781 53.082031 L 192.578125 53.765625 L 192.332031 54.453125 L 192.066406 55.140625 L 191.777344 55.828125 L 191.46875 56.515625 L 191.140625 57.203125 L 190.792969 57.890625 L 175.648438 49.148438 L 175.4375 49.023438 L 175.332031 48.957031 L 175.234375 48.894531 L 175.140625 48.835938 L 175.050781 48.777344 L 174.960938 48.714844 L 174.875 48.65625 L 174.789062 48.59375 L 174.707031 48.535156 L 174.625 48.472656 L 174.546875 48.410156 L 174.46875 48.351562 L 174.394531 48.289062 L 174.320312 48.230469 L 174.246094 48.167969 L 174.175781 48.105469 L 174.105469 48.046875 L 174.039062 47.984375 L 173.972656 47.925781 L 173.910156 47.867188 L 173.671875 47.628906 L 173.5625 47.511719 L 173.460938 47.394531 L 173.410156 47.339844 L 173.363281 47.28125 L 173.316406 47.226562 L 173.1875 47.0625 L 173.148438 47.011719 L 173.109375 46.957031 L 172.96875 46.753906 L 172.9375 46.707031 L 172.90625 46.65625 L 172.851562 46.5625 L 172.824219 46.519531 L 172.800781 46.472656 L 172.773438 46.429688 L 172.75 46.386719 L 172.730469 46.347656 L 172.707031 46.304688 L 172.6875 46.265625 L 172.671875 46.226562 L 172.652344 46.191406 L 172.636719 46.152344 L 172.605469 46.082031 L 172.59375 46.050781 L 172.578125 46.019531 Z M 172.566406 45.988281 "/>
</g>
<g clip-path="url(#clip9)" clip-rule="nonzero">
<path style=" stroke:none;fill-rule:nonzero;fill:rgb(74.999619%,74.999619%,74.999619%);fill-opacity:1;" d="M 183.976562 32.792969 L 270.660156 32.792969 L 270.660156 119.472656 L 292.328125 119.472656 L 292.328125 11.121094 L 183.976562 11.121094 Z M 183.976562 32.792969 "/>
</g>
<g clip-path="url(#clip10)" clip-rule="nonzero">
<path style="fill:none;stroke-width:1;stroke-linecap:square;stroke-linejoin:miter;stroke:rgb(0%,0%,0%);stroke-opacity:1;stroke-miterlimit:3.25;" d="M 183.976562 32.792969 L 270.660156 32.792969 L 270.660156 119.472656 "/>
</g>
<g clip-path="url(#clip11)" clip-rule="nonzero">
<path style="fill:none;stroke-width:1;stroke-linecap:square;stroke-linejoin:miter;stroke:rgb(0%,0%,0%);stroke-opacity:1;stroke-miterlimit:3.25;" d="M 183.976562 11.121094 L 292.328125 11.121094 L 292.328125 119.472656 "/>
</g>
<path style=" stroke:none;fill-rule:nonzero;fill:rgb(100%,100%,86.999313%);fill-opacity:1;" d="M 270.703125 55.515625 L 271.316406 55.046875 L 271.902344 54.554688 L 272.460938 54.042969 L 272.992188 53.507812 L 273.496094 52.957031 L 273.96875 52.386719 L 274.40625 51.800781 L 274.816406 51.199219 L 275.195312 50.582031 L 275.542969 49.953125 L 275.855469 49.3125 L 276.132812 48.664062 L 276.378906 48.007812 L 276.589844 47.34375 L 276.765625 46.671875 L 276.90625 46 L 277.015625 45.324219 L 277.085938 44.648438 L 277.121094 43.972656 L 277.125 43.296875 L 277.089844 42.628906 L 277.023438 41.960938 L 276.921875 41.304688 L 276.785156 40.652344 L 276.613281 40.011719 L 276.40625 39.382812 L 276.167969 38.769531 L 275.894531 38.167969 L 275.589844 37.585938 L 275.253906 37.019531 L 274.882812 36.476562 L 274.484375 35.953125 L 274.054688 35.449219 L 273.597656 34.96875 L 273.117188 34.511719 L 272.609375 34.082031 L 272.078125 33.679688 L 271.523438 33.300781 L 270.949219 32.953125 L 270.351562 32.632812 L 269.738281 32.34375 L 269.109375 32.082031 L 268.460938 31.855469 L 267.796875 31.65625 L 267.125 31.492188 L 266.4375 31.359375 L 265.738281 31.261719 L 265.035156 31.199219 L 264.320312 31.167969 L 263.597656 31.171875 L 262.875 31.207031 L 262.148438 31.28125 L 261.417969 31.386719 L 260.6875 31.53125 L 259.960938 31.707031 L 259.234375 31.917969 L 258.511719 32.164062 L 257.796875 32.445312 L 257.464844 32.589844 L 257.425781 32.574219 L 257.382812 32.554688 L 257.335938 32.535156 L 257.292969 32.515625 L 257.140625 32.445312 L 257.085938 32.417969 L 256.976562 32.355469 L 256.859375 32.285156 L 256.796875 32.25 L 256.734375 32.207031 L 256.667969 32.167969 L 256.605469 32.121094 L 256.535156 32.074219 L 256.46875 32.027344 L 256.398438 31.972656 L 256.328125 31.921875 L 256.257812 31.863281 L 256.183594 31.804688 L 256.113281 31.742188 L 256.039062 31.679688 L 255.960938 31.613281 L 255.886719 31.542969 L 255.808594 31.46875 L 255.65625 31.316406 L 255.5 31.152344 L 255.417969 31.0625 L 255.261719 30.882812 L 255.179688 30.785156 L 255.101562 30.6875 L 255.023438 30.585938 L 254.941406 30.480469 L 254.785156 30.261719 L 254.707031 30.148438 L 254.625 30.03125 L 254.546875 29.910156 L 254.464844 29.777344 L 254.382812 29.640625 L 245.5625 14.363281 L 245.882812 14.199219 L 246.566406 13.859375 L 247.257812 13.539062 L 247.945312 13.242188 L 248.632812 12.964844 L 249.320312 12.707031 L 250.003906 12.472656 L 250.6875 12.253906 L 251.367188 12.058594 L 252.039062 11.882812 L 252.710938 11.726562 L 253.375 11.589844 L 254.03125 11.46875 L 254.683594 11.367188 L 255.328125 11.285156 L 255.960938 11.21875 L 256.585938 11.171875 L 257.203125 11.140625 L 257.808594 11.125 L 258.40625 11.125 L 258.988281 11.140625 L 259.558594 11.167969 L 260.117188 11.210938 L 260.664062 11.265625 L 261.199219 11.335938 L 261.714844 11.414062 L 262.21875 11.503906 L 262.707031 11.605469 L 263.175781 11.714844 L 263.628906 11.835938 L 264.066406 11.960938 L 264.488281 12.09375 L 264.890625 12.230469 L 265.289062 12.378906 L 265.730469 12.558594 L 266.160156 12.742188 L 266.578125 12.9375 L 266.984375 13.136719 L 267.382812 13.347656 L 267.765625 13.5625 L 268.136719 13.785156 L 268.5 14.011719 L 268.847656 14.242188 L 269.183594 14.480469 L 269.511719 14.71875 L 269.824219 14.964844 L 270.125 15.214844 L 270.414062 15.464844 L 270.695312 15.71875 L 270.960938 15.976562 L 271.214844 16.234375 L 271.460938 16.492188 L 271.691406 16.753906 L 271.914062 17.011719 L 272.121094 17.273438 L 272.320312 17.535156 L 272.507812 17.792969 L 272.6875 18.050781 L 272.851562 18.308594 L 290.558594 48.957031 L 290.691406 49.199219 L 290.828125 49.457031 L 290.964844 49.734375 L 291.097656 50.019531 L 291.226562 50.316406 L 291.351562 50.625 L 291.46875 50.941406 L 291.582031 51.265625 L 291.6875 51.601562 L 291.785156 51.945312 L 291.878906 52.300781 L 291.964844 52.664062 L 292.042969 53.035156 L 292.109375 53.417969 L 292.171875 53.804688 L 292.222656 54.203125 L 292.261719 54.609375 L 292.296875 55.023438 L 292.316406 55.445312 L 292.328125 55.875 L 292.328125 56.3125 L 292.316406 56.757812 L 292.292969 57.207031 L 292.257812 57.664062 L 292.210938 58.125 L 292.152344 58.59375 L 292.082031 59.042969 L 292.007812 59.457031 L 291.921875 59.882812 L 291.820312 60.316406 L 291.703125 60.761719 L 291.570312 61.21875 L 291.421875 61.6875 L 291.257812 62.164062 L 291.078125 62.648438 L 290.878906 63.140625 L 290.664062 63.636719 L 290.433594 64.140625 L 290.179688 64.648438 L 289.910156 65.160156 L 289.625 65.671875 L 289.316406 66.191406 L 288.992188 66.707031 L 288.648438 67.226562 L 288.285156 67.742188 L 287.902344 68.257812 L 287.5 68.773438 L 287.078125 69.285156 L 286.636719 69.792969 L 286.175781 70.296875 L 285.695312 70.796875 L 285.195312 71.292969 L 284.679688 71.777344 L 284.140625 72.257812 L 283.585938 72.730469 L 283.011719 73.191406 L 282.417969 73.644531 L 281.808594 74.085938 L 281.179688 74.515625 L 280.53125 74.9375 L 271.789062 59.792969 L 271.730469 59.6875 L 271.667969 59.578125 L 271.609375 59.46875 L 271.558594 59.367188 L 271.457031 59.171875 L 271.410156 59.074219 L 271.324219 58.886719 L 271.28125 58.789062 L 271.242188 58.699219 L 271.203125 58.605469 L 271.167969 58.511719 L 271.097656 58.332031 L 271.066406 58.242188 L 271.035156 58.15625 L 271.007812 58.070312 L 270.976562 57.984375 L 270.953125 57.898438 L 270.925781 57.8125 L 270.878906 57.648438 L 270.859375 57.570312 L 270.839844 57.488281 L 270.820312 57.410156 L 270.804688 57.332031 L 270.785156 57.257812 L 270.773438 57.183594 L 270.757812 57.109375 L 270.746094 57.035156 L 270.722656 56.894531 L 270.710938 56.828125 L 270.703125 56.757812 L 270.695312 56.691406 L 270.6875 56.628906 L 270.679688 56.5625 L 270.675781 56.503906 L 270.671875 56.441406 L 270.664062 56.324219 L 270.664062 56.265625 L 270.660156 56.210938 L 270.660156 55.953125 L 270.664062 55.90625 L 270.664062 55.863281 L 270.667969 55.816406 L 270.671875 55.773438 L 270.6875 55.617188 L 270.695312 55.546875 Z M 270.703125 55.515625 "/>
<g clip-path="url(#clip12)" clip-rule="nonzero">
<path style="fill:none;stroke-width:1;stroke-linecap:square;stroke-linejoin:miter;stroke:rgb(0%,0%,0%);stroke-opacity:1;stroke-miterlimit:3.25;" d="M 270.703125 55.515625 L 271.316406 55.046875 L 271.902344 54.554688 L 272.460938 54.042969 L 272.992188 53.507812 L 273.496094 52.957031 L 273.96875 52.386719 L 274.40625 51.800781 L 274.816406 51.199219 L 275.195312 50.582031 L 275.542969 49.953125 L 275.855469 49.3125 L 276.132812 48.664062 L 276.378906 48.007812 L 276.589844 47.34375 L 276.765625 46.671875 L 276.90625 46 L 277.015625 45.324219 L 277.085938 44.648438 L 277.121094 43.972656 L 277.125 43.296875 L 277.089844 42.628906 L 277.023438 41.960938 L 276.921875 41.304688 L 276.785156 40.652344 L 276.613281 40.011719 L 276.40625 39.382812 L 276.167969 38.769531 L 275.894531 38.167969 L 275.589844 37.585938 L 275.253906 37.019531 L 274.882812 36.476562 L 274.484375 35.953125 L 274.054688 35.449219 L 273.597656 34.96875 L 273.117188 34.511719 L 272.609375 34.082031 L 272.078125 33.679688 L 271.523438 33.300781 L 270.949219 32.953125 L 270.351562 32.632812 L 269.738281 32.34375 L 269.109375 32.082031 L 268.460938 31.855469 L 267.796875 31.65625 L 267.125 31.492188 L 266.4375 31.359375 L 265.738281 31.261719 L 265.035156 31.199219 L 264.320312 31.167969 L 263.597656 31.171875 L 262.875 31.207031 L 262.148438 31.28125 L 261.417969 31.386719 L 260.6875 31.53125 L 259.960938 31.707031 L 259.234375 31.917969 L 258.511719 32.164062 L 257.796875 32.445312 L 257.464844 32.589844 L 257.425781 32.574219 L 257.382812 32.554688 L 257.335938 32.535156 L 257.292969 32.515625 L 257.140625 32.445312 L 257.085938 32.417969 L 256.976562 32.355469 L 256.859375 32.285156 L 256.796875 32.25 L 256.734375 32.207031 L 256.667969 32.167969 L 256.605469 32.121094 L 256.535156 32.074219 L 256.46875 32.027344 L 256.398438 31.972656 L 256.328125 31.921875 L 256.257812 31.863281 L 256.183594 31.804688 L 256.113281 31.742188 L 256.039062 31.679688 L 255.960938 31.613281 L 255.886719 31.542969 L 255.808594 31.46875 L 255.65625 31.316406 L 255.5 31.152344 L 255.417969 31.0625 L 255.261719 30.882812 L 255.179688 30.785156 L 255.101562 30.6875 L 255.023438 30.585938 L 254.941406 30.480469 L 254.785156 30.261719 L 254.707031 30.148438 L 254.625 30.03125 L 254.546875 29.910156 L 254.464844 29.777344 L 254.382812 29.640625 L 245.5625 14.363281 L 245.882812 14.199219 L 246.566406 13.859375 L 247.257812 13.539062 L 247.945312 13.242188 L 248.632812 12.964844 L 249.320312 12.707031 L 250.003906 12.472656 L 250.6875 12.253906 L 251.367188 12.058594 L 252.039062 11.882812 L 252.710938 11.726562 L 253.375 11.589844 L 254.03125 11.46875 L 254.683594 11.367188 L 255.328125 11.285156 L 255.960938 11.21875 L 256.585938 11.171875 L 257.203125 11.140625 L 257.808594 11.125 L 258.40625 11.125 L 258.988281 11.140625 L 259.558594 11.167969 L 260.117188 11.210938 L 260.664062 11.265625 L 261.199219 11.335938 L 261.714844 11.414062 L 262.21875 11.503906 L 262.707031 11.605469 L 263.175781 11.714844 L 263.628906 11.835938 L 264.066406 11.960938 L 264.488281 12.09375 L 264.890625 12.230469 L 265.289062 12.378906 L 265.730469 12.558594 L 266.160156 12.742188 L 266.578125 12.9375 L 266.984375 13.136719 L 267.382812 13.347656 L 267.765625 13.5625 L 268.136719 13.785156 L 268.5 14.011719 L 268.847656 14.242188 L 269.183594 14.480469 L 269.511719 14.71875 L 269.824219 14.964844 L 270.125 15.214844 L 270.414062 15.464844 L 270.695312 15.71875 L 270.960938 15.976562 L 271.214844 16.234375 L 271.460938 16.492188 L 271.691406 16.753906 L 271.914062 17.011719 L 272.121094 17.273438 L 272.320312 17.535156 L 272.507812 17.792969 L 272.6875 18.050781 L 272.851562 18.308594 L 290.558594 48.957031 L 290.691406 49.199219 L 290.828125 49.457031 L 290.964844 49.734375 L 291.097656 50.019531 L 291.226562 50.316406 L 291.351562 50.625 L 291.46875 50.941406 L 291.582031 51.265625 L 291.6875 51.601562 L 291.785156 51.945312 L 291.878906 52.300781 L 291.964844 52.664062 L 292.042969 53.035156 L 292.109375 53.417969 L 292.171875 53.804688 L 292.222656 54.203125 L 292.261719 54.609375 L 292.296875 55.023438 L 292.316406 55.445312 L 292.328125 55.875 L 292.328125 56.3125 L 292.316406 56.757812 L 292.292969 57.207031 L 292.257812 57.664062 L 292.210938 58.125 L 292.152344 58.59375 L 292.082031 59.042969 L 292.007812 59.457031 L 291.921875 59.882812 L 291.820312 60.316406 L 291.703125 60.761719 L 291.570312 61.21875 L 291.421875 61.6875 L 291.257812 62.164062 L 291.078125 62.648438 L 290.878906 63.140625 L 290.664062 63.636719 L 290.433594 64.140625 L 290.179688 64.648438 L 289.910156 65.160156 L 289.625 65.671875 L 289.316406 66.191406 L 288.992188 66.707031 L 288.648438 67.226562 L 288.285156 67.742188 L 287.902344 68.257812 L 287.5 68.773438 L 287.078125 69.285156 L 286.636719 69.792969 L 286.175781 70.296875 L 285.695312 70.796875 L 285.195312 71.292969 L 284.679688 71.777344 L 284.140625 72.257812 L 283.585938 72.730469 L 283.011719 73.191406 L 282.417969 73.644531 L 281.808594 74.085938 L 281.179688 74.515625 L 280.53125 74.9375 L 271.789062 59.792969 L 271.730469 59.6875 L 271.667969 59.578125 L 271.609375 59.46875 L 271.558594 59.367188 L 271.457031 59.171875 L 271.410156 59.074219 L 271.324219 58.886719 L 271.28125 58.789062 L 271.242188 58.699219 L 271.203125 58.605469 L 271.167969 58.511719 L 271.097656 58.332031 L 271.066406 58.242188 L 271.035156 58.15625 L 271.007812 58.070312 L 270.976562 57.984375 L 270.953125 57.898438 L 270.925781 57.8125 L 270.878906 57.648438 L 270.859375 57.570312 L 270.839844 57.488281 L 270.820312 57.410156 L 270.804688 57.332031 L 270.785156 57.257812 L 270.773438 57.183594 L 270.757812 57.109375 L 270.746094 57.035156 L 270.722656 56.894531 L 270.710938 56.828125 L 270.703125 56.757812 L 270.695312 56.691406 L 270.6875 56.628906 L 270.679688 56.5625 L 270.675781 56.503906 L 270.671875 56.441406 L 270.664062 56.324219 L 270.664062 56.265625 L 270.660156 56.210938 L 270.660156 55.953125 L 270.664062 55.90625 L 270.664062 55.863281 L 270.667969 55.816406 L 270.671875 55.773438 L 270.6875 55.617188 L 270.695312 55.546875 Z M 270.703125 55.515625 "/>
</g>
<g clip-path="url(#clip13)" clip-rule="nonzero">
<path style=" stroke:none;fill-rule:nonzero;fill:rgb(74.999619%,74.999619%,74.999619%);fill-opacity:1;" d="M 282.273438 32.792969 L 368.957031 32.792969 L 368.957031 119.472656 L 390.625 119.472656 L 390.625 11.121094 L 282.273438 11.121094 Z M 282.273438 32.792969 "/>
</g>
<g clip-path="url(#clip14)" clip-rule="nonzero">
<path style="fill:none;stroke-width:1;stroke-linecap:square;stroke-linejoin:miter;stroke:rgb(0%,0%,0%);stroke-opacity:1;stroke-miterlimit:3.25;" d="M 282.273438 32.792969 L 368.957031 32.792969 L 368.957031 119.472656 "/>
</g>
<g clip-path="url(#clip15)" clip-rule="nonzero">
<path style="fill:none;stroke-width:1;stroke-linecap:square;stroke-linejoin:miter;stroke:rgb(0%,0%,0%);stroke-opacity:1;stroke-miterlimit:3.25;" d="M 282.273438 11.121094 L 390.625 11.121094 L 390.625 119.472656 "/>
</g>
<path style=" stroke:none;fill-rule:nonzero;fill:rgb(100%,100%,86.999313%);fill-opacity:1;" d="M 370.152344 59.332031 L 370.917969 59.230469 L 371.671875 59.097656 L 372.414062 58.933594 L 373.140625 58.738281 L 373.851562 58.511719 L 374.542969 58.253906 L 375.21875 57.964844 L 375.875 57.648438 L 376.511719 57.304688 L 377.125 56.933594 L 377.714844 56.535156 L 378.28125 56.113281 L 378.820312 55.664062 L 379.335938 55.195312 L 379.824219 54.703125 L 380.285156 54.191406 L 380.714844 53.660156 L 381.113281 53.109375 L 381.484375 52.542969 L 381.824219 51.960938 L 382.128906 51.363281 L 382.402344 50.753906 L 382.644531 50.132812 L 382.851562 49.5 L 383.023438 48.859375 L 383.160156 48.210938 L 383.257812 47.558594 L 383.324219 46.902344 L 383.351562 46.246094 L 383.339844 45.589844 L 383.292969 44.933594 L 383.210938 44.277344 L 383.089844 43.628906 L 382.933594 42.984375 L 382.742188 42.347656 L 382.519531 41.722656 L 382.261719 41.105469 L 381.96875 40.503906 L 381.644531 39.914062 L 381.289062 39.339844 L 380.902344 38.78125 L 380.488281 38.242188 L 380.042969 37.71875 L 379.566406 37.21875 L 379.066406 36.738281 L 378.535156 36.28125 L 377.980469 35.84375 L 377.402344 35.4375 L 376.800781 35.050781 L 376.175781 34.695312 L 375.527344 34.367188 L 374.859375 34.066406 L 374.175781 33.792969 L 373.472656 33.550781 L 372.753906 33.339844 L 372.019531 33.160156 L 371.269531 33.011719 L 370.507812 32.898438 L 370.152344 32.855469 L 370.125 32.824219 L 370.097656 32.785156 L 370.066406 32.746094 L 370.039062 32.707031 L 370.007812 32.664062 L 369.945312 32.570312 L 369.910156 32.519531 L 369.878906 32.464844 L 369.84375 32.410156 L 369.8125 32.351562 L 369.777344 32.292969 L 369.707031 32.160156 L 369.675781 32.09375 L 369.640625 32.023438 L 369.605469 31.949219 L 369.535156 31.792969 L 369.503906 31.710938 L 369.46875 31.625 L 369.4375 31.539062 L 369.402344 31.449219 L 369.371094 31.355469 L 369.308594 31.160156 L 369.277344 31.058594 L 369.25 30.957031 L 369.167969 30.628906 L 369.097656 30.277344 L 369.074219 30.152344 L 369.054688 30.027344 L 369.023438 29.769531 L 369.007812 29.636719 L 368.992188 29.5 L 368.984375 29.363281 L 368.972656 29.222656 L 368.964844 29.078125 L 368.960938 28.921875 L 368.957031 28.761719 L 368.957031 11.121094 L 369.316406 11.140625 L 370.078125 11.1875 L 370.835938 11.253906 L 371.582031 11.339844 L 372.316406 11.445312 L 373.039062 11.566406 L 373.75 11.703125 L 374.449219 11.859375 L 375.136719 12.027344 L 375.808594 12.210938 L 376.464844 12.410156 L 377.109375 12.625 L 377.738281 12.851562 L 378.355469 13.089844 L 378.953125 13.339844 L 379.535156 13.597656 L 380.101562 13.871094 L 380.648438 14.152344 L 381.183594 14.441406 L 381.699219 14.738281 L 382.195312 15.042969 L 382.675781 15.355469 L 383.140625 15.671875 L 383.585938 15.992188 L 384.011719 16.316406 L 384.421875 16.644531 L 384.8125 16.976562 L 385.183594 17.304688 L 385.535156 17.636719 L 385.867188 17.964844 L 386.183594 18.292969 L 386.480469 18.617188 L 386.761719 18.941406 L 387.03125 19.265625 L 387.324219 19.640625 L 387.605469 20.015625 L 387.871094 20.394531 L 388.121094 20.773438 L 388.359375 21.152344 L 388.585938 21.53125 L 388.796875 21.90625 L 388.996094 22.285156 L 389.183594 22.660156 L 389.355469 23.035156 L 389.519531 23.40625 L 389.667969 23.773438 L 389.804688 24.140625 L 389.929688 24.503906 L 390.042969 24.863281 L 390.144531 25.21875 L 390.238281 25.566406 L 390.320312 25.914062 L 390.390625 26.253906 L 390.453125 26.59375 L 390.503906 26.921875 L 390.542969 27.246094 L 390.578125 27.566406 L 390.601562 27.878906 L 390.617188 28.183594 L 390.625 63.578125 L 390.621094 63.855469 L 390.613281 64.144531 L 390.589844 64.453125 L 390.5625 64.769531 L 390.527344 65.089844 L 390.480469 65.417969 L 390.425781 65.75 L 390.359375 66.089844 L 390.28125 66.433594 L 390.195312 66.78125 L 390.101562 67.132812 L 389.992188 67.492188 L 389.871094 67.851562 L 389.742188 68.21875 L 389.597656 68.585938 L 389.445312 68.953125 L 389.277344 69.328125 L 389.097656 69.703125 L 388.90625 70.078125 L 388.699219 70.457031 L 388.480469 70.832031 L 388.25 71.210938 L 388.007812 71.589844 L 387.746094 71.96875 L 387.476562 72.34375 L 387.191406 72.722656 L 386.902344 73.078125 L 386.632812 73.398438 L 386.34375 73.71875 L 386.039062 74.046875 L 385.714844 74.375 L 385.375 74.703125 L 385.011719 75.035156 L 384.632812 75.367188 L 384.234375 75.695312 L 383.816406 76.023438 L 383.378906 76.347656 L 382.925781 76.664062 L 382.453125 76.980469 L 381.964844 77.289062 L 381.460938 77.589844 L 380.9375 77.882812 L 380.394531 78.167969 L 379.839844 78.445312 L 379.265625 78.710938 L 378.675781 78.964844 L 378.070312 79.210938 L 377.449219 79.441406 L 376.8125 79.664062 L 376.160156 79.871094 L 375.496094 80.0625 L 374.816406 80.238281 L 374.125 80.402344 L 373.421875 80.550781 L 372.703125 80.679688 L 371.972656 80.792969 L 371.234375 80.886719 L 370.484375 80.964844 L 369.726562 81.023438 L 368.957031 81.0625 L 368.957031 63.332031 L 368.960938 63.210938 L 368.964844 63.09375 L 368.980469 62.875 L 368.996094 62.664062 L 369.007812 62.558594 L 369.015625 62.457031 L 369.027344 62.355469 L 369.042969 62.257812 L 369.054688 62.160156 L 369.070312 62.0625 L 369.101562 61.875 L 369.140625 61.695312 L 369.15625 61.605469 L 369.175781 61.519531 L 369.199219 61.433594 L 369.21875 61.347656 L 369.238281 61.265625 L 369.308594 61.03125 L 369.378906 60.808594 L 369.402344 60.738281 L 369.429688 60.667969 L 369.453125 60.601562 L 369.480469 60.535156 L 369.503906 60.46875 L 369.53125 60.40625 L 369.558594 60.347656 L 369.582031 60.285156 L 369.609375 60.226562 L 369.664062 60.117188 L 369.6875 60.0625 L 369.769531 59.910156 L 369.792969 59.863281 L 369.820312 59.820312 L 369.847656 59.773438 L 369.871094 59.730469 L 369.898438 59.691406 L 369.921875 59.652344 L 369.949219 59.613281 L 369.972656 59.574219 L 369.996094 59.539062 L 370.019531 59.507812 L 370.042969 59.472656 L 370.089844 59.410156 L 370.109375 59.382812 L 370.132812 59.355469 Z M 370.152344 59.332031 "/>
<g clip-path="url(#clip16)" clip-rule="nonzero">
<path style="fill:none;stroke-width:1;stroke-linecap:square;stroke-linejoin:miter;stroke:rgb(0%,0%,0%);stroke-opacity:1;stroke-miterlimit:3.25;" d="M 370.152344 59.332031 L 370.917969 59.230469 L 371.671875 59.097656 L 372.414062 58.933594 L 373.140625 58.738281 L 373.851562 58.511719 L 374.542969 58.253906 L 375.21875 57.964844 L 375.875 57.648438 L 376.511719 57.304688 L 377.125 56.933594 L 377.714844 56.535156 L 378.28125 56.113281 L 378.820312 55.664062 L 379.335938 55.195312 L 379.824219 54.703125 L 380.285156 54.191406 L 380.714844 53.660156 L 381.113281 53.109375 L 381.484375 52.542969 L 381.824219 51.960938 L 382.128906 51.363281 L 382.402344 50.753906 L 382.644531 50.132812 L 382.851562 49.5 L 383.023438 48.859375 L 383.160156 48.210938 L 383.257812 47.558594 L 383.324219 46.902344 L 383.351562 46.246094 L 383.339844 45.589844 L 383.292969 44.933594 L 383.210938 44.277344 L 383.089844 43.628906 L 382.933594 42.984375 L 382.742188 42.347656 L 382.519531 41.722656 L 382.261719 41.105469 L 381.96875 40.503906 L 381.644531 39.914062 L 381.289062 39.339844 L 380.902344 38.78125 L 380.488281 38.242188 L 380.042969 37.71875 L 379.566406 37.21875 L 379.066406 36.738281 L 378.535156 36.28125 L 377.980469 35.84375 L 377.402344 35.4375 L 376.800781 35.050781 L 376.175781 34.695312 L 375.527344 34.367188 L 374.859375 34.066406 L 374.175781 33.792969 L 373.472656 33.550781 L 372.753906 33.339844 L 372.019531 33.160156 L 371.269531 33.011719 L 370.507812 32.898438 L 370.152344 32.855469 L 370.125 32.824219 L 370.097656 32.785156 L 370.066406 32.746094 L 370.039062 32.707031 L 370.007812 32.664062 L 369.945312 32.570312 L 369.910156 32.519531 L 369.878906 32.464844 L 369.84375 32.410156 L 369.8125 32.351562 L 369.777344 32.292969 L 369.707031 32.160156 L 369.675781 32.09375 L 369.640625 32.023438 L 369.605469 31.949219 L 369.535156 31.792969 L 369.503906 31.710938 L 369.46875 31.625 L 369.4375 31.539062 L 369.402344 31.449219 L 369.371094 31.355469 L 369.308594 31.160156 L 369.277344 31.058594 L 369.25 30.957031 L 369.167969 30.628906 L 369.097656 30.277344 L 369.074219 30.152344 L 369.054688 30.027344 L 369.023438 29.769531 L 369.007812 29.636719 L 368.992188 29.5 L 368.984375 29.363281 L 368.972656 29.222656 L 368.964844 29.078125 L 368.960938 28.921875 L 368.957031 28.761719 L 368.957031 11.121094 L 369.316406 11.140625 L 370.078125 11.1875 L 370.835938 11.253906 L 371.582031 11.339844 L 372.316406 11.445312 L 373.039062 11.566406 L 373.75 11.703125 L 374.449219 11.859375 L 375.136719 12.027344 L 375.808594 12.210938 L 376.464844 12.410156 L 377.109375 12.625 L 377.738281 12.851562 L 378.355469 13.089844 L 378.953125 13.339844 L 379.535156 13.597656 L 380.101562 13.871094 L 380.648438 14.152344 L 381.183594 14.441406 L 381.699219 14.738281 L 382.195312 15.042969 L 382.675781 15.355469 L 383.140625 15.671875 L 383.585938 15.992188 L 384.011719 16.316406 L 384.421875 16.644531 L 384.8125 16.976562 L 385.183594 17.304688 L 385.535156 17.636719 L 385.867188 17.964844 L 386.183594 18.292969 L 386.480469 18.617188 L 386.761719 18.941406 L 387.03125 19.265625 L 387.324219 19.640625 L 387.605469 20.015625 L 387.871094 20.394531 L 388.121094 20.773438 L 388.359375 21.152344 L 388.585938 21.53125 L 388.796875 21.90625 L 388.996094 22.285156 L 389.183594 22.660156 L 389.355469 23.035156 L 389.519531 23.40625 L 389.667969 23.773438 L 389.804688 24.140625 L 389.929688 24.503906 L 390.042969 24.863281 L 390.144531 25.21875 L 390.238281 25.566406 L 390.320312 25.914062 L 390.390625 26.253906 L 390.453125 26.59375 L 390.503906 26.921875 L 390.542969 27.246094 L 390.578125 27.566406 L 390.601562 27.878906 L 390.617188 28.183594 L 390.625 63.578125 L 390.621094 63.855469 L 390.613281 64.144531 L 390.589844 64.453125 L 390.5625 64.769531 L 390.527344 65.089844 L 390.480469 65.417969 L 390.425781 65.75 L 390.359375 66.089844 L 390.28125 66.433594 L 390.195312 66.78125 L 390.101562 67.132812 L 389.992188 67.492188 L 389.871094 67.851562 L 389.742188 68.21875 L 389.597656 68.585938 L 389.445312 68.953125 L 389.277344 69.328125 L 389.097656 69.703125 L 388.90625 70.078125 L 388.699219 70.457031 L 388.480469 70.832031 L 388.25 71.210938 L 388.007812 71.589844 L 387.746094 71.96875 L 387.476562 72.34375 L 387.191406 72.722656 L 386.902344 73.078125 L 386.632812 73.398438 L 386.34375 73.71875 L 386.039062 74.046875 L 385.714844 74.375 L 385.375 74.703125 L 385.011719 75.035156 L 384.632812 75.367188 L 384.234375 75.695312 L 383.816406 76.023438 L 383.378906 76.347656 L 382.925781 76.664062 L 382.453125 76.980469 L 381.964844 77.289062 L 381.460938 77.589844 L 380.9375 77.882812 L 380.394531 78.167969 L 379.839844 78.445312 L 379.265625 78.710938 L 378.675781 78.964844 L 378.070312 79.210938 L 377.449219 79.441406 L 376.8125 79.664062 L 376.160156 79.871094 L 375.496094 80.0625 L 374.816406 80.238281 L 374.125 80.402344 L 373.421875 80.550781 L 372.703125 80.679688 L 371.972656 80.792969 L 371.234375 80.886719 L 370.484375 80.964844 L 369.726562 81.023438 L 368.957031 81.0625 L 368.957031 63.332031 L 368.960938 63.210938 L 368.964844 63.09375 L 368.980469 62.875 L 368.996094 62.664062 L 369.007812 62.558594 L 369.015625 62.457031 L 369.027344 62.355469 L 369.042969 62.257812 L 369.054688 62.160156 L 369.070312 62.0625 L 369.101562 61.875 L 369.140625 61.695312 L 369.15625 61.605469 L 369.175781 61.519531 L 369.199219 61.433594 L 369.21875 61.347656 L 369.238281 61.265625 L 369.308594 61.03125 L 369.378906 60.808594 L 369.402344 60.738281 L 369.429688 60.667969 L 369.453125 60.601562 L 369.480469 60.535156 L 369.503906 60.46875 L 369.53125 60.40625 L 369.558594 60.347656 L 369.582031 60.285156 L 369.609375 60.226562 L 369.664062 60.117188 L 369.6875 60.0625 L 369.769531 59.910156 L 369.792969 59.863281 L 369.820312 59.820312 L 369.847656 59.773438 L 369.871094 59.730469 L 369.898438 59.691406 L 369.921875 59.652344 L 369.949219 59.613281 L 369.972656 59.574219 L 369.996094 59.539062 L 370.019531 59.507812 L 370.042969 59.472656 L 370.089844 59.410156 L 370.109375 59.382812 L 370.132812 59.355469 Z M 370.152344 59.332031 "/>
</g>
</g>
</svg>
