<?xml version="1.0" encoding="UTF-8"?>
<svg xmlns="http://www.w3.org/2000/svg" xmlns:xlink="http://www.w3.org/1999/xlink" width="404pt" height="107pt" viewBox="0 0 404 107" version="1.1">
<defs>
<clipPath id="clip1">
  <path d="M 11.039062 10 L 101 10 L 101 99.839844 L 11.039062 99.839844 Z M 11.039062 10 "/>
</clipPath>
<clipPath id="clip2">
  <path d="M 11.039062 32 L 79 32 L 79 99.839844 L 11.039062 99.839844 Z M 11.039062 32 "/>
</clipPath>
<clipPath id="clip3">
  <path d="M 11.039062 10 L 101 10 L 101 99.839844 L 11.039062 99.839844 Z M 11.039062 10 "/>
</clipPath>
<clipPath id="clip4">
  <path d="M 30 6.238281 L 104.640625 6.238281 L 104.640625 64 L 30 64 Z M 30 6.238281 "/>
</clipPath>
<clipPath id="clip5">
  <path d="M 116.878906 86 L 287 86 L 287 88 L 116.878906 88 Z M 116.878906 86 "/>
</clipPath>
<clipPath id="clip6">
  <path d="M 285 86 L 287 86 L 287 99.839844 L 285 99.839844 Z M 285 86 "/>
</clipPath>
<clipPath id="clip7">
  <path d="M 285 86 L 287 86 L 287 99.839844 L 285 99.839844 Z M 285 86 "/>
</clipPath>
<clipPath id="clip8">
  <path d="M 116.878906 19 L 354 19 L 354 21 L 116.878906 21 Z M 116.878906 19 "/>
</clipPath>
<clipPath id="clip9">
  <path d="M 352 19 L 354 19 L 354 99.839844 L 352 99.839844 Z M 352 19 "/>
</clipPath>
<clipPath id="clip10">
  <path d="M 352 19 L 354 19 L 354 99.839844 L 352 99.839844 Z M 352 19 "/>
</clipPath>
<clipPath id="clip11">
  <path d="M 116.878906 76 L 288 76 L 288 99.839844 L 116.878906 99.839844 Z M 116.878906 76 "/>
</clipPath>
<clipPath id="clip12">
  <path d="M 282 76 L 298 76 L 298 99.839844 L 282 99.839844 Z M 282 76 "/>
</clipPath>
<clipPath id="clip13">
  <path d="M 282 76 L 298 76 L 298 99.839844 L 282 99.839844 Z M 282 76 "/>
</clipPath>
<clipPath id="clip14">
  <path d="M 116.878906 6.238281 L 349 6.238281 L 349 38 L 116.878906 38 Z M 116.878906 6.238281 "/>
</clipPath>
<clipPath id="clip15">
  <path d="M 343 6.238281 L 365 6.238281 L 365 99.839844 L 343 99.839844 Z M 343 6.238281 "/>
</clipPath>
<clipPath id="clip16">
  <path d="M 345 6.238281 L 347 6.238281 L 347 7 L 345 7 Z M 345 6.238281 "/>
</clipPath>
<clipPath id="clip17">
  <path d="M 343 6.238281 L 365 6.238281 L 365 99.839844 L 343 99.839844 Z M 343 6.238281 "/>
</clipPath>
<clipPath id="clip18">
  <path d="M 345 6.238281 L 347 6.238281 L 347 7 L 345 7 Z M 345 6.238281 "/>
</clipPath>
<clipPath id="clip19">
  <path d="M 116.878906 68 L 286 68 L 286 99.839844 L 116.878906 99.839844 Z M 116.878906 68 "/>
</clipPath>
<clipPath id="clip20">
  <path d="M 280 68 L 307 68 L 307 99.839844 L 280 99.839844 Z M 280 68 "/>
</clipPath>
<clipPath id="clip21">
  <path d="M 280 68 L 307 68 L 307 99.839844 L 280 99.839844 Z M 280 68 "/>
</clipPath>
<clipPath id="clip22">
  <path d="M 116.878906 6.238281 L 340 6.238281 L 340 54 L 116.878906 54 Z M 116.878906 6.238281 "/>
</clipPath>
<clipPath id="clip23">
  <path d="M 334 6.238281 L 375 6.238281 L 375 99.839844 L 334 99.839844 Z M 334 6.238281 "/>
</clipPath>
<clipPath id="clip24">
  <path d="M 116.878906 61 L 283 61 L 283 99.839844 L 116.878906 99.839844 Z M 116.878906 61 "/>
</clipPath>
<clipPath id="clip25">
  <path d="M 277 61 L 317 61 L 317 99.839844 L 277 99.839844 Z M 277 61 "/>
</clipPath>
<clipPath id="clip26">
  <path d="M 277 61 L 317 61 L 317 99.839844 L 277 99.839844 Z M 277 61 "/>
</clipPath>
<clipPath id="clip27">
  <path d="M 116.878906 6.238281 L 330 6.238281 L 330 71 L 116.878906 71 Z M 116.878906 6.238281 "/>
</clipPath>
<clipPath id="clip28">
  <path d="M 324 6.238281 L 386 6.238281 L 386 99.839844 L 324 99.839844 Z M 324 6.238281 "/>
</clipPath>
<clipPath id="clip29">
  <path d="M 116.878906 55 L 278 55 L 278 99.839844 L 116.878906 99.839844 Z M 116.878906 55 "/>
</clipPath>
<clipPath id="clip30">
  <path d="M 273 55 L 328 55 L 328 99.839844 L 273 99.839844 Z M 273 55 "/>
</clipPath>
<clipPath id="clip31">
  <path d="M 273 55 L 328 55 L 328 99.839844 L 273 99.839844 Z M 273 55 "/>
</clipPath>
<clipPath id="clip32">
  <path d="M 116.878906 6.238281 L 318 6.238281 L 318 89 L 116.878906 89 Z M 116.878906 6.238281 "/>
</clipPath>
<clipPath id="clip33">
  <path d="M 313 6.238281 L 392.878906 6.238281 L 392.878906 99.839844 L 313 99.839844 Z M 313 6.238281 "/>
</clipPath>
<clipPath id="clip34">
  <path d="M 116.878906 50 L 273 50 L 273 99.839844 L 116.878906 99.839844 Z M 116.878906 50 "/>
</clipPath>
<clipPath id="clip35">
  <path d="M 268 50 L 339 50 L 339 99.839844 L 268 99.839844 Z M 268 50 "/>
</clipPath>
<clipPath id="clip36">
  <path d="M 268 50 L 339 50 L 339 99.839844 L 268 99.839844 Z M 268 50 "/>
</clipPath>
<clipPath id="clip37">
  <path d="M 116.878906 6.238281 L 306 6.238281 L 306 99.839844 L 116.878906 99.839844 Z M 116.878906 6.238281 "/>
</clipPath>
<clipPath id="clip38">
  <path d="M 300 6.238281 L 392.878906 6.238281 L 392.878906 99.839844 L 300 99.839844 Z M 300 6.238281 "/>
</clipPath>
<clipPath id="clip39">
  <path d="M 116.878906 45 L 268 45 L 268 99.839844 L 116.878906 99.839844 Z M 116.878906 45 "/>
</clipPath>
<clipPath id="clip40">
  <path d="M 262 45 L 352 45 L 352 99.839844 L 262 99.839844 Z M 262 45 "/>
</clipPath>
<clipPath id="clip41">
  <path d="M 262 45 L 352 45 L 352 99.839844 L 262 99.839844 Z M 262 45 "/>
</clipPath>
<clipPath id="clip42">
  <path d="M 116.878906 6.238281 L 292 6.238281 L 292 99.839844 L 116.878906 99.839844 Z M 116.878906 6.238281 "/>
</clipPath>
<clipPath id="clip43">
  <path d="M 287 6.238281 L 392.878906 6.238281 L 392.878906 99.839844 L 287 99.839844 Z M 287 6.238281 "/>
</clipPath>
<clipPath id="clip44">
  <path d="M 116.878906 42 L 261 42 L 261 99.839844 L 116.878906 99.839844 Z M 116.878906 42 "/>
</clipPath>
<clipPath id="clip45">
  <path d="M 256 42 L 365 42 L 365 99.839844 L 256 99.839844 Z M 256 42 "/>
</clipPath>
<clipPath id="clip46">
  <path d="M 116.878906 6.238281 L 278 6.238281 L 278 99.839844 L 116.878906 99.839844 Z M 116.878906 6.238281 "/>
</clipPath>
<clipPath id="clip47">
  <path d="M 272 6.238281 L 392.878906 6.238281 L 392.878906 99.839844 L 272 99.839844 Z M 272 6.238281 "/>
</clipPath>
<clipPath id="clip48">
  <path d="M 116.878906 40 L 255 40 L 255 99.839844 L 116.878906 99.839844 Z M 116.878906 40 "/>
</clipPath>
<clipPath id="clip49">
  <path d="M 249 40 L 381 40 L 381 99.839844 L 249 99.839844 Z M 249 40 "/>
</clipPath>
<clipPath id="clip50">
  <path d="M 116.878906 6.238281 L 263 6.238281 L 263 99.839844 L 116.878906 99.839844 Z M 116.878906 6.238281 "/>
</clipPath>
<clipPath id="clip51">
  <path d="M 257 6.238281 L 392.878906 6.238281 L 392.878906 99.839844 L 257 99.839844 Z M 257 6.238281 "/>
</clipPath>
<clipPath id="clip52">
  <path d="M 116.878906 39 L 248 39 L 248 99.839844 L 116.878906 99.839844 Z M 116.878906 39 "/>
</clipPath>
<clipPath id="clip53">
  <path d="M 242 39 L 392.878906 39 L 392.878906 99.839844 L 242 99.839844 Z M 242 39 "/>
</clipPath>
<clipPath id="clip54">
  <path d="M 116.878906 6.238281 L 392.878906 6.238281 L 392.878906 99.839844 L 116.878906 99.839844 Z M 116.878906 6.238281 "/>
</clipPath>
<clipPath id="clip55">
  <path d="M 116.878906 40 L 241 40 L 241 99.839844 L 116.878906 99.839844 Z M 116.878906 40 "/>
</clipPath>
<clipPath id="clip56">
  <path d="M 235 40 L 392.878906 40 L 392.878906 99.839844 L 235 99.839844 Z M 235 40 "/>
</clipPath>
<clipPath id="clip57">
  <path d="M 116.878906 6.238281 L 233 6.238281 L 233 99.839844 L 116.878906 99.839844 Z M 116.878906 6.238281 "/>
</clipPath>
<clipPath id="clip58">
  <path d="M 227 6.238281 L 392.878906 6.238281 L 392.878906 99.839844 L 227 99.839844 Z M 227 6.238281 "/>
</clipPath>
<clipPath id="clip59">
  <path d="M 125 42 L 234 42 L 234 99.839844 L 125 99.839844 Z M 125 42 "/>
</clipPath>
<clipPath id="clip60">
  <path d="M 229 42 L 392.878906 42 L 392.878906 99.839844 L 229 99.839844 Z M 229 42 "/>
</clipPath>
<clipPath id="clip61">
  <path d="M 116.878906 6.238281 L 218 6.238281 L 218 99.839844 L 116.878906 99.839844 Z M 116.878906 6.238281 "/>
</clipPath>
<clipPath id="clip62">
  <path d="M 212 6.238281 L 392.878906 6.238281 L 392.878906 99.839844 L 212 99.839844 Z M 212 6.238281 "/>
</clipPath>
<clipPath id="clip63">
  <path d="M 138 45 L 228 45 L 228 99.839844 L 138 99.839844 Z M 138 45 "/>
</clipPath>
<clipPath id="clip64">
  <path d="M 222 45 L 392.878906 45 L 392.878906 99.839844 L 222 99.839844 Z M 222 45 "/>
</clipPath>
<clipPath id="clip65">
  <path d="M 116.878906 6.238281 L 203 6.238281 L 203 99.839844 L 116.878906 99.839844 Z M 116.878906 6.238281 "/>
</clipPath>
<clipPath id="clip66">
  <path d="M 198 6.238281 L 392.878906 6.238281 L 392.878906 99.839844 L 198 99.839844 Z M 198 6.238281 "/>
</clipPath>
<clipPath id="clip67">
  <path d="M 151 50 L 222 50 L 222 99.839844 L 151 99.839844 Z M 151 50 "/>
</clipPath>
<clipPath id="clip68">
  <path d="M 216 50 L 392.878906 50 L 392.878906 99.839844 L 216 99.839844 Z M 216 50 "/>
</clipPath>
<clipPath id="clip69">
  <path d="M 116.878906 6.238281 L 190 6.238281 L 190 99.839844 L 116.878906 99.839844 Z M 116.878906 6.238281 "/>
</clipPath>
<clipPath id="clip70">
  <path d="M 184 6.238281 L 392.878906 6.238281 L 392.878906 99.839844 L 184 99.839844 Z M 184 6.238281 "/>
</clipPath>
<clipPath id="clip71">
  <path d="M 162 55 L 217 55 L 217 99.839844 L 162 99.839844 Z M 162 55 "/>
</clipPath>
<clipPath id="clip72">
  <path d="M 211 55 L 392.878906 55 L 392.878906 99.839844 L 211 99.839844 Z M 211 55 "/>
</clipPath>
<clipPath id="clip73">
  <path d="M 116.878906 6.238281 L 177 6.238281 L 177 99.839844 L 116.878906 99.839844 Z M 116.878906 6.238281 "/>
</clipPath>
<clipPath id="clip74">
  <path d="M 171 6.238281 L 392.878906 6.238281 L 392.878906 89 L 171 89 Z M 171 6.238281 "/>
</clipPath>
<clipPath id="clip75">
  <path d="M 173 61 L 213 61 L 213 99.839844 L 173 99.839844 Z M 173 61 "/>
</clipPath>
<clipPath id="clip76">
  <path d="M 207 61 L 392.878906 61 L 392.878906 99.839844 L 207 99.839844 Z M 207 61 "/>
</clipPath>
<clipPath id="clip77">
  <path d="M 116.878906 6.238281 L 166 6.238281 L 166 99.839844 L 116.878906 99.839844 Z M 116.878906 6.238281 "/>
</clipPath>
<clipPath id="clip78">
  <path d="M 160 6.238281 L 392.878906 6.238281 L 392.878906 71 L 160 71 Z M 160 6.238281 "/>
</clipPath>
<clipPath id="clip79">
  <path d="M 182 68 L 210 68 L 210 99.839844 L 182 99.839844 Z M 182 68 "/>
</clipPath>
<clipPath id="clip80">
  <path d="M 204 68 L 392.878906 68 L 392.878906 99.839844 L 204 99.839844 Z M 204 68 "/>
</clipPath>
<clipPath id="clip81">
  <path d="M 116.878906 6.238281 L 155 6.238281 L 155 99.839844 L 116.878906 99.839844 Z M 116.878906 6.238281 "/>
</clipPath>
<clipPath id="clip82">
  <path d="M 150 6.238281 L 392.878906 6.238281 L 392.878906 54 L 150 54 Z M 150 6.238281 "/>
</clipPath>
<clipPath id="clip83">
  <path d="M 192 76 L 208 76 L 208 99.839844 L 192 99.839844 Z M 192 76 "/>
</clipPath>
<clipPath id="clip84">
  <path d="M 202 76 L 392.878906 76 L 392.878906 99.839844 L 202 99.839844 Z M 202 76 "/>
</clipPath>
<clipPath id="clip85">
  <path d="M 125 6.238281 L 147 6.238281 L 147 99.839844 L 125 99.839844 Z M 125 6.238281 "/>
</clipPath>
<clipPath id="clip86">
  <path d="M 143 6.238281 L 145 6.238281 L 145 7 L 143 7 Z M 143 6.238281 "/>
</clipPath>
<clipPath id="clip87">
  <path d="M 141 6.238281 L 392.878906 6.238281 L 392.878906 38 L 141 38 Z M 141 6.238281 "/>
</clipPath>
<clipPath id="clip88">
  <path d="M 203 86 L 205 86 L 205 99.839844 L 203 99.839844 Z M 203 86 "/>
</clipPath>
<clipPath id="clip89">
  <path d="M 203 86 L 392.878906 86 L 392.878906 88 L 203 88 Z M 203 86 "/>
</clipPath>
<clipPath id="clip90">
  <path d="M 136 19 L 138 19 L 138 99.839844 L 136 99.839844 Z M 136 19 "/>
</clipPath>
<clipPath id="clip91">
  <path d="M 136 19 L 392.878906 19 L 392.878906 21 L 136 21 Z M 136 19 "/>
</clipPath>
<clipPath id="clip92">
  <path d="M 116.878906 85 L 392.878906 85 L 392.878906 88 L 116.878906 88 Z M 116.878906 85 "/>
</clipPath>
<clipPath id="clip93">
  <path d="M 116.878906 19 L 392.878906 19 L 392.878906 21 L 116.878906 21 Z M 116.878906 19 "/>
</clipPath>
</defs>
<g id="surface1">
<g clip-path="url(#clip1)" clip-rule="nonzero">
<path style=" stroke:none;fill-rule:nonzero;fill:rgb(74.999619%,74.999619%,74.999619%);fill-opacity:1;" d="M -11.171875 33.203125 L 77.949219 33.203125 L 77.949219 122.324219 L 100.230469 122.324219 L 100.230469 10.921875 L -11.171875 10.921875 Z M -11.171875 33.203125 "/>
</g>
<g clip-path="url(#clip2)" clip-rule="nonzero">
<path style="fill:none;stroke-width:1;stroke-linecap:square;stroke-linejoin:miter;stroke:rgb(0%,0%,0%);stroke-opacity:1;stroke-miterlimit:3.25;" d="M -11.171875 33.203125 L 77.949219 33.203125 L 77.949219 122.324219 "/>
</g>
<g clip-path="url(#clip3)" clip-rule="nonzero">
<path style="fill:none;stroke-width:1;stroke-linecap:square;stroke-linejoin:miter;stroke:rgb(0%,0%,0%);stroke-opacity:1;stroke-miterlimit:3.25;" d="M -11.171875 10.921875 L 100.230469 10.921875 L 100.230469 122.324219 "/>
</g>
<path style=" stroke:none;fill-rule:nonzero;fill:rgb(100%,100%,86.999313%);fill-opacity:1;" d="M 78.160156 46.769531 L 78.464844 46.035156 L 78.734375 45.296875 L 78.96875 44.550781 L 79.167969 43.804688 L 79.332031 43.054688 L 79.460938 42.304688 L 79.550781 41.554688 L 79.605469 40.808594 L 79.625 40.0625 L 79.609375 39.328125 L 79.558594 38.597656 L 79.472656 37.875 L 79.355469 37.164062 L 79.199219 36.464844 L 79.015625 35.777344 L 78.792969 35.105469 L 78.542969 34.449219 L 78.257812 33.808594 L 77.941406 33.1875 L 77.597656 32.585938 L 77.222656 32.007812 L 76.820312 31.449219 L 76.390625 30.917969 L 75.933594 30.40625 L 75.453125 29.925781 L 74.945312 29.46875 L 74.417969 29.046875 L 73.867188 28.652344 L 73.296875 28.289062 L 72.703125 27.960938 L 72.097656 27.664062 L 71.472656 27.402344 L 70.832031 27.175781 L 70.175781 26.984375 L 69.511719 26.824219 L 68.839844 26.703125 L 68.160156 26.617188 L 67.472656 26.566406 L 66.78125 26.550781 L 66.085938 26.574219 L 65.390625 26.628906 L 64.695312 26.722656 L 64 26.851562 L 63.3125 27.015625 L 62.625 27.21875 L 61.945312 27.453125 L 61.273438 27.722656 L 60.613281 28.027344 L 59.960938 28.367188 L 59.320312 28.742188 L 58.695312 29.148438 L 58.085938 29.585938 L 57.488281 30.058594 L 56.914062 30.558594 L 56.355469 31.089844 L 55.820312 31.652344 L 55.300781 32.242188 L 54.808594 32.863281 L 54.589844 33.160156 L 54.542969 33.164062 L 54.496094 33.171875 L 54.449219 33.175781 L 54.394531 33.183594 L 54.34375 33.1875 L 54.226562 33.195312 L 54.164062 33.199219 L 54.101562 33.199219 L 54.03125 33.203125 L 53.890625 33.203125 L 53.742188 33.195312 L 53.664062 33.191406 L 53.582031 33.1875 L 53.496094 33.179688 L 53.410156 33.167969 L 53.324219 33.160156 L 53.234375 33.148438 L 53.046875 33.117188 L 52.949219 33.101562 L 52.746094 33.0625 L 52.644531 33.039062 L 52.433594 32.984375 L 52.324219 32.957031 L 52.210938 32.921875 L 52.097656 32.890625 L 51.984375 32.851562 L 51.867188 32.8125 L 51.75 32.769531 L 51.628906 32.726562 L 51.507812 32.679688 L 51.257812 32.578125 L 51.132812 32.523438 L 51.003906 32.464844 L 50.746094 32.339844 L 50.613281 32.273438 L 50.472656 32.195312 L 50.328125 32.117188 L 34.621094 23.050781 L 34.820312 22.738281 L 35.257812 22.082031 L 35.707031 21.445312 L 36.164062 20.828125 L 36.636719 20.226562 L 37.113281 19.644531 L 37.605469 19.082031 L 38.101562 18.539062 L 38.605469 18.015625 L 39.113281 17.511719 L 39.628906 17.027344 L 40.152344 16.5625 L 40.675781 16.117188 L 41.203125 15.695312 L 41.734375 15.289062 L 42.265625 14.90625 L 42.796875 14.539062 L 43.328125 14.195312 L 43.859375 13.871094 L 44.390625 13.5625 L 44.917969 13.277344 L 45.441406 13.007812 L 45.960938 12.757812 L 46.476562 12.527344 L 46.984375 12.316406 L 47.488281 12.121094 L 47.984375 11.941406 L 48.46875 11.78125 L 48.945312 11.636719 L 49.410156 11.507812 L 49.863281 11.398438 L 50.304688 11.296875 L 50.734375 11.214844 L 51.164062 11.144531 L 51.648438 11.074219 L 52.128906 11.019531 L 52.601562 10.976562 L 53.066406 10.945312 L 53.527344 10.929688 L 53.980469 10.921875 L 54.425781 10.925781 L 54.863281 10.945312 L 55.292969 10.972656 L 55.714844 11.007812 L 56.128906 11.054688 L 56.535156 11.113281 L 56.929688 11.179688 L 57.316406 11.253906 L 57.695312 11.335938 L 58.066406 11.429688 L 58.425781 11.527344 L 58.773438 11.632812 L 59.113281 11.746094 L 59.445312 11.863281 L 59.765625 11.988281 L 60.078125 12.117188 L 60.378906 12.25 L 60.667969 12.390625 L 60.949219 12.535156 L 92.46875 30.722656 L 92.714844 30.867188 L 92.964844 31.027344 L 93.230469 31.203125 L 93.496094 31.390625 L 93.761719 31.585938 L 94.03125 31.796875 L 94.300781 32.019531 L 94.566406 32.25 L 94.832031 32.496094 L 95.101562 32.75 L 95.363281 33.019531 L 95.625 33.296875 L 95.886719 33.589844 L 96.144531 33.894531 L 96.398438 34.210938 L 96.648438 34.539062 L 96.894531 34.878906 L 97.136719 35.230469 L 97.371094 35.59375 L 97.601562 35.972656 L 97.828125 36.359375 L 98.042969 36.761719 L 98.253906 37.171875 L 98.460938 37.597656 L 98.65625 38.035156 L 98.84375 38.480469 L 99.011719 38.917969 L 99.15625 39.324219 L 99.296875 39.746094 L 99.429688 40.1875 L 99.558594 40.644531 L 99.675781 41.117188 L 99.785156 41.609375 L 99.882812 42.117188 L 99.96875 42.644531 L 100.046875 43.183594 L 100.109375 43.738281 L 100.164062 44.304688 L 100.199219 44.886719 L 100.222656 45.480469 L 100.230469 46.085938 L 100.222656 46.703125 L 100.199219 47.328125 L 100.160156 47.96875 L 100.101562 48.617188 L 100.027344 49.273438 L 99.933594 49.9375 L 99.820312 50.609375 L 99.6875 51.289062 L 99.539062 51.976562 L 99.367188 52.667969 L 99.175781 53.363281 L 98.964844 54.0625 L 98.734375 54.765625 L 98.480469 55.472656 L 98.207031 56.179688 L 97.914062 56.886719 L 97.59375 57.59375 L 97.257812 58.300781 L 96.898438 59.003906 L 81.328125 50.015625 L 81.21875 49.953125 L 81.109375 49.886719 L 81.003906 49.820312 L 80.902344 49.757812 L 80.714844 49.632812 L 80.625 49.574219 L 80.445312 49.449219 L 80.359375 49.386719 L 80.195312 49.261719 L 79.960938 49.074219 L 79.886719 49.007812 L 79.816406 48.945312 L 79.742188 48.886719 L 79.476562 48.636719 L 79.417969 48.574219 L 79.355469 48.515625 L 79.296875 48.453125 L 79.242188 48.394531 L 79.183594 48.335938 L 79.132812 48.273438 L 79.078125 48.214844 L 79.027344 48.15625 L 78.980469 48.101562 L 78.886719 47.984375 L 78.757812 47.820312 L 78.679688 47.710938 L 78.609375 47.609375 L 78.574219 47.554688 L 78.542969 47.507812 L 78.511719 47.457031 L 78.480469 47.410156 L 78.453125 47.359375 L 78.425781 47.3125 L 78.398438 47.269531 L 78.375 47.222656 L 78.304688 47.09375 L 78.265625 47.015625 L 78.25 46.976562 L 78.230469 46.9375 L 78.199219 46.867188 L 78.1875 46.832031 L 78.171875 46.800781 Z M 78.160156 46.769531 "/>
<g clip-path="url(#clip4)" clip-rule="nonzero">
<path style="fill:none;stroke-width:1;stroke-linecap:square;stroke-linejoin:miter;stroke:rgb(0%,0%,0%);stroke-opacity:1;stroke-miterlimit:3.25;" d="M 78.160156 46.769531 L 78.464844 46.035156 L 78.734375 45.296875 L 78.96875 44.550781 L 79.167969 43.804688 L 79.332031 43.054688 L 79.460938 42.304688 L 79.550781 41.554688 L 79.605469 40.808594 L 79.625 40.0625 L 79.609375 39.328125 L 79.558594 38.597656 L 79.472656 37.875 L 79.355469 37.164062 L 79.199219 36.464844 L 79.015625 35.777344 L 78.792969 35.105469 L 78.542969 34.449219 L 78.257812 33.808594 L 77.941406 33.1875 L 77.597656 32.585938 L 77.222656 32.007812 L 76.820312 31.449219 L 76.390625 30.917969 L 75.933594 30.40625 L 75.453125 29.925781 L 74.945312 29.46875 L 74.417969 29.046875 L 73.867188 28.652344 L 73.296875 28.289062 L 72.703125 27.960938 L 72.097656 27.664062 L 71.472656 27.402344 L 70.832031 27.175781 L 70.175781 26.984375 L 69.511719 26.824219 L 68.839844 26.703125 L 68.160156 26.617188 L 67.472656 26.566406 L 66.78125 26.550781 L 66.085938 26.574219 L 65.390625 26.628906 L 64.695312 26.722656 L 64 26.851562 L 63.3125 27.015625 L 62.625 27.21875 L 61.945312 27.453125 L 61.273438 27.722656 L 60.613281 28.027344 L 59.960938 28.367188 L 59.320312 28.742188 L 58.695312 29.148438 L 58.085938 29.585938 L 57.488281 30.058594 L 56.914062 30.558594 L 56.355469 31.089844 L 55.820312 31.652344 L 55.300781 32.242188 L 54.808594 32.863281 L 54.589844 33.160156 L 54.542969 33.164062 L 54.496094 33.171875 L 54.449219 33.175781 L 54.394531 33.183594 L 54.34375 33.1875 L 54.226562 33.195312 L 54.164062 33.199219 L 54.101562 33.199219 L 54.03125 33.203125 L 53.890625 33.203125 L 53.742188 33.195312 L 53.664062 33.191406 L 53.582031 33.1875 L 53.496094 33.179688 L 53.410156 33.167969 L 53.324219 33.160156 L 53.234375 33.148438 L 53.046875 33.117188 L 52.949219 33.101562 L 52.746094 33.0625 L 52.644531 33.039062 L 52.433594 32.984375 L 52.324219 32.957031 L 52.210938 32.921875 L 52.097656 32.890625 L 51.984375 32.851562 L 51.867188 32.8125 L 51.75 32.769531 L 51.628906 32.726562 L 51.507812 32.679688 L 51.257812 32.578125 L 51.132812 32.523438 L 51.003906 32.464844 L 50.746094 32.339844 L 50.613281 32.273438 L 50.472656 32.195312 L 50.328125 32.117188 L 34.621094 23.050781 L 34.820312 22.738281 L 35.257812 22.082031 L 35.707031 21.445312 L 36.164062 20.828125 L 36.636719 20.226562 L 37.113281 19.644531 L 37.605469 19.082031 L 38.101562 18.539062 L 38.605469 18.015625 L 39.113281 17.511719 L 39.628906 17.027344 L 40.152344 16.5625 L 40.675781 16.117188 L 41.203125 15.695312 L 41.734375 15.289062 L 42.265625 14.90625 L 42.796875 14.539062 L 43.328125 14.195312 L 43.859375 13.871094 L 44.390625 13.5625 L 44.917969 13.277344 L 45.441406 13.007812 L 45.960938 12.757812 L 46.476562 12.527344 L 46.984375 12.316406 L 47.488281 12.121094 L 47.984375 11.941406 L 48.46875 11.78125 L 48.945312 11.636719 L 49.410156 11.507812 L 49.863281 11.398438 L 50.304688 11.296875 L 50.734375 11.214844 L 51.164062 11.144531 L 51.648438 11.074219 L 52.128906 11.019531 L 52.601562 10.976562 L 53.066406 10.945312 L 53.527344 10.929688 L 53.980469 10.921875 L 54.425781 10.925781 L 54.863281 10.945312 L 55.292969 10.972656 L 55.714844 11.007812 L 56.128906 11.054688 L 56.535156 11.113281 L 56.929688 11.179688 L 57.316406 11.253906 L 57.695312 11.335938 L 58.066406 11.429688 L 58.425781 11.527344 L 58.773438 11.632812 L 59.113281 11.746094 L 59.445312 11.863281 L 59.765625 11.988281 L 60.078125 12.117188 L 60.378906 12.25 L 60.667969 12.390625 L 60.949219 12.535156 L 92.46875 30.722656 L 92.714844 30.867188 L 92.964844 31.027344 L 93.230469 31.203125 L 93.496094 31.390625 L 93.761719 31.585938 L 94.03125 31.796875 L 94.300781 32.019531 L 94.566406 32.25 L 94.832031 32.496094 L 95.101562 32.75 L 95.363281 33.019531 L 95.625 33.296875 L 95.886719 33.589844 L 96.144531 33.894531 L 96.398438 34.210938 L 96.648438 34.539062 L 96.894531 34.878906 L 97.136719 35.230469 L 97.371094 35.59375 L 97.601562 35.972656 L 97.828125 36.359375 L 98.042969 36.761719 L 98.253906 37.171875 L 98.460938 37.597656 L 98.65625 38.035156 L 98.84375 38.480469 L 99.011719 38.917969 L 99.15625 39.324219 L 99.296875 39.746094 L 99.429688 40.1875 L 99.558594 40.644531 L 99.675781 41.117188 L 99.785156 41.609375 L 99.882812 42.117188 L 99.96875 42.644531 L 100.046875 43.183594 L 100.109375 43.738281 L 100.164062 44.304688 L 100.199219 44.886719 L 100.222656 45.480469 L 100.230469 46.085938 L 100.222656 46.703125 L 100.199219 47.328125 L 100.160156 47.96875 L 100.101562 48.617188 L 100.027344 49.273438 L 99.933594 49.9375 L 99.820312 50.609375 L 99.6875 51.289062 L 99.539062 51.976562 L 99.367188 52.667969 L 99.175781 53.363281 L 98.964844 54.0625 L 98.734375 54.765625 L 98.480469 55.472656 L 98.207031 56.179688 L 97.914062 56.886719 L 97.59375 57.59375 L 97.257812 58.300781 L 96.898438 59.003906 L 81.328125 50.015625 L 81.21875 49.953125 L 81.109375 49.886719 L 81.003906 49.820312 L 80.902344 49.757812 L 80.714844 49.632812 L 80.625 49.574219 L 80.445312 49.449219 L 80.359375 49.386719 L 80.195312 49.261719 L 79.960938 49.074219 L 79.886719 49.007812 L 79.816406 48.945312 L 79.742188 48.886719 L 79.476562 48.636719 L 79.417969 48.574219 L 79.355469 48.515625 L 79.296875 48.453125 L 79.242188 48.394531 L 79.183594 48.335938 L 79.132812 48.273438 L 79.078125 48.214844 L 79.027344 48.15625 L 78.980469 48.101562 L 78.886719 47.984375 L 78.757812 47.820312 L 78.679688 47.710938 L 78.609375 47.609375 L 78.574219 47.554688 L 78.542969 47.507812 L 78.511719 47.457031 L 78.480469 47.410156 L 78.453125 47.359375 L 78.425781 47.3125 L 78.398438 47.269531 L 78.375 47.222656 L 78.304688 47.09375 L 78.265625 47.015625 L 78.25 46.976562 L 78.230469 46.9375 L 78.199219 46.867188 L 78.1875 46.832031 L 78.171875 46.800781 Z M 78.160156 46.769531 "/>
</g>
<g clip-path="url(#clip5)" clip-rule="nonzero">
<path style="fill:none;stroke-width:0.5;stroke-linecap:square;stroke-linejoin:miter;stroke:rgb(85.000381%,85.000381%,85.000381%);stroke-opacity:1;stroke-miterlimit:3.25;" d="M 18.582031 86.675781 L 285.945312 86.675781 "/>
</g>
<g clip-path="url(#clip6)" clip-rule="nonzero">
<path style="fill:none;stroke-width:0.5;stroke-linecap:square;stroke-linejoin:miter;stroke:rgb(85.000381%,85.000381%,85.000381%);stroke-opacity:1;stroke-miterlimit:3.25;" d="M 285.945312 193.417969 L 285.945312 86.675781 "/>
</g>
<path style=" stroke:none;fill-rule:nonzero;fill:rgb(85.000381%,85.000381%,85.000381%);fill-opacity:1;" d="M 285.945312 86.675781 L 286.195312 86.925781 L 286.195312 86.425781 L 285.945312 86.425781 Z M 285.945312 86.675781 "/>
<g clip-path="url(#clip7)" clip-rule="nonzero">
<path style="fill:none;stroke-width:0.5;stroke-linecap:square;stroke-linejoin:miter;stroke:rgb(85.000381%,85.000381%,85.000381%);stroke-opacity:1;stroke-miterlimit:3.25;" d="M 285.945312 193.417969 L 285.945312 86.675781 "/>
</g>
<path style=" stroke:none;fill-rule:nonzero;fill:rgb(85.000381%,85.000381%,85.000381%);fill-opacity:1;" d="M 285.945312 86.675781 L 286.195312 86.925781 L 286.195312 86.425781 L 285.945312 86.425781 Z M 285.945312 86.675781 "/>
<g clip-path="url(#clip8)" clip-rule="nonzero">
<path style="fill:none;stroke-width:0.5;stroke-linecap:square;stroke-linejoin:miter;stroke:rgb(85.000381%,85.000381%,85.000381%);stroke-opacity:1;stroke-miterlimit:3.25;" d="M 18.582031 19.835938 L 352.785156 19.835938 "/>
</g>
<g clip-path="url(#clip9)" clip-rule="nonzero">
<path style="fill:none;stroke-width:0.5;stroke-linecap:square;stroke-linejoin:miter;stroke:rgb(85.000381%,85.000381%,85.000381%);stroke-opacity:1;stroke-miterlimit:3.25;" d="M 352.785156 193.417969 L 352.785156 19.835938 "/>
</g>
<path style=" stroke:none;fill-rule:nonzero;fill:rgb(85.000381%,85.000381%,85.000381%);fill-opacity:1;" d="M 352.785156 19.835938 L 353.035156 20.085938 L 353.035156 19.585938 L 352.785156 19.585938 Z M 352.785156 19.835938 "/>
<g clip-path="url(#clip10)" clip-rule="nonzero">
<path style="fill:none;stroke-width:0.5;stroke-linecap:square;stroke-linejoin:miter;stroke:rgb(85.000381%,85.000381%,85.000381%);stroke-opacity:1;stroke-miterlimit:3.25;" d="M 352.785156 193.417969 L 352.785156 19.835938 "/>
</g>
<path style=" stroke:none;fill-rule:nonzero;fill:rgb(85.000381%,85.000381%,85.000381%);fill-opacity:1;" d="M 352.785156 19.835938 L 353.035156 20.085938 L 353.035156 19.585938 L 352.785156 19.585938 Z M 352.785156 19.835938 "/>
<g clip-path="url(#clip11)" clip-rule="nonzero">
<path style="fill:none;stroke-width:0.5;stroke-linecap:square;stroke-linejoin:miter;stroke:rgb(85.000381%,85.000381%,85.000381%);stroke-opacity:1;stroke-miterlimit:3.25;" d="M 18.742188 101.867188 L 285.089844 78.566406 "/>
</g>
<g clip-path="url(#clip12)" clip-rule="nonzero">
<path style="fill:none;stroke-width:0.5;stroke-linecap:square;stroke-linejoin:miter;stroke:rgb(85.000381%,85.000381%,85.000381%);stroke-opacity:1;stroke-miterlimit:3.25;" d="M 295.136719 193.417969 L 285.089844 78.566406 "/>
</g>
<path style=" stroke:none;fill-rule:nonzero;fill:rgb(85.000381%,85.000381%,85.000381%);fill-opacity:1;" d="M 285.089844 78.566406 L 285.335938 78.816406 L 285.316406 78.296875 L 285.066406 78.316406 Z M 285.089844 78.566406 "/>
<g clip-path="url(#clip13)" clip-rule="nonzero">
<path style="fill:none;stroke-width:0.5;stroke-linecap:square;stroke-linejoin:miter;stroke:rgb(85.000381%,85.000381%,85.000381%);stroke-opacity:1;stroke-miterlimit:3.25;" d="M 295.136719 193.417969 L 285.089844 78.566406 "/>
</g>
<path style=" stroke:none;fill-rule:nonzero;fill:rgb(85.000381%,85.000381%,85.000381%);fill-opacity:1;" d="M 285.089844 78.566406 L 285.335938 78.816406 L 285.316406 78.296875 L 285.066406 78.316406 Z M 285.089844 78.566406 "/>
<g clip-path="url(#clip14)" clip-rule="nonzero">
<path style="fill:none;stroke-width:0.5;stroke-linecap:square;stroke-linejoin:miter;stroke:rgb(85.000381%,85.000381%,85.000381%);stroke-opacity:1;stroke-miterlimit:3.25;" d="M 12.914062 35.28125 L 345.847656 6.152344 "/>
</g>
<g clip-path="url(#clip15)" clip-rule="nonzero">
<path style="fill:none;stroke-width:0.5;stroke-linecap:square;stroke-linejoin:miter;stroke:rgb(85.000381%,85.000381%,85.000381%);stroke-opacity:1;stroke-miterlimit:3.25;" d="M 362.234375 193.417969 L 345.847656 6.152344 "/>
</g>
<g clip-path="url(#clip16)" clip-rule="nonzero">
<path style=" stroke:none;fill-rule:nonzero;fill:rgb(85.000381%,85.000381%,85.000381%);fill-opacity:1;" d="M 345.847656 6.152344 L 346.097656 6.402344 L 346.078125 5.882812 L 345.828125 5.90625 Z M 345.847656 6.152344 "/>
</g>
<g clip-path="url(#clip17)" clip-rule="nonzero">
<path style="fill:none;stroke-width:0.5;stroke-linecap:square;stroke-linejoin:miter;stroke:rgb(85.000381%,85.000381%,85.000381%);stroke-opacity:1;stroke-miterlimit:3.25;" d="M 362.234375 193.417969 L 345.847656 6.152344 "/>
</g>
<g clip-path="url(#clip18)" clip-rule="nonzero">
<path style=" stroke:none;fill-rule:nonzero;fill:rgb(85.000381%,85.000381%,85.000381%);fill-opacity:1;" d="M 345.847656 6.152344 L 346.097656 6.402344 L 346.078125 5.882812 L 345.828125 5.90625 Z M 345.847656 6.152344 "/>
</g>
<g clip-path="url(#clip19)" clip-rule="nonzero">
<path style="fill:none;stroke-width:0.5;stroke-linecap:square;stroke-linejoin:miter;stroke:rgb(85.000381%,85.000381%,85.000381%);stroke-opacity:1;stroke-miterlimit:3.25;" d="M 19.6875 117.351562 L 282.988281 70.925781 "/>
</g>
<g clip-path="url(#clip20)" clip-rule="nonzero">
<path style="fill:none;stroke-width:0.5;stroke-linecap:square;stroke-linejoin:miter;stroke:rgb(85.000381%,85.000381%,85.000381%);stroke-opacity:1;stroke-miterlimit:3.25;" d="M 304.589844 193.417969 L 282.988281 70.925781 "/>
</g>
<path style=" stroke:none;fill-rule:nonzero;fill:rgb(85.000381%,85.000381%,85.000381%);fill-opacity:1;" d="M 282.988281 70.925781 L 283.234375 71.171875 L 283.191406 70.636719 L 282.945312 70.679688 Z M 282.988281 70.925781 "/>
<g clip-path="url(#clip21)" clip-rule="nonzero">
<path style="fill:none;stroke-width:0.5;stroke-linecap:square;stroke-linejoin:miter;stroke:rgb(85.000381%,85.000381%,85.000381%);stroke-opacity:1;stroke-miterlimit:3.25;" d="M 304.589844 193.417969 L 282.988281 70.925781 "/>
</g>
<path style=" stroke:none;fill-rule:nonzero;fill:rgb(85.000381%,85.000381%,85.000381%);fill-opacity:1;" d="M 282.988281 70.925781 L 283.234375 71.171875 L 283.191406 70.636719 L 282.945312 70.679688 Z M 282.988281 70.925781 "/>
<g clip-path="url(#clip22)" clip-rule="nonzero">
<path style="fill:none;stroke-width:0.5;stroke-linecap:square;stroke-linejoin:miter;stroke:rgb(85.000381%,85.000381%,85.000381%);stroke-opacity:1;stroke-miterlimit:3.25;" d="M 8.082031 51.527344 L 337.207031 -6.507812 "/>
</g>
<g clip-path="url(#clip23)" clip-rule="nonzero">
<path style="fill:none;stroke-width:0.5;stroke-linecap:square;stroke-linejoin:miter;stroke:rgb(85.000381%,85.000381%,85.000381%);stroke-opacity:1;stroke-miterlimit:3.25;" d="M 372.460938 193.417969 L 337.207031 -6.507812 "/>
<path style="fill:none;stroke-width:0.5;stroke-linecap:square;stroke-linejoin:miter;stroke:rgb(85.000381%,85.000381%,85.000381%);stroke-opacity:1;stroke-miterlimit:3.25;" d="M 372.460938 193.417969 L 337.207031 -6.507812 "/>
</g>
<g clip-path="url(#clip24)" clip-rule="nonzero">
<path style="fill:none;stroke-width:0.5;stroke-linecap:square;stroke-linejoin:miter;stroke:rgb(85.000381%,85.000381%,85.000381%);stroke-opacity:1;stroke-miterlimit:3.25;" d="M 21.550781 133.109375 L 279.804688 63.910156 "/>
</g>
<g clip-path="url(#clip25)" clip-rule="nonzero">
<path style="fill:none;stroke-width:0.5;stroke-linecap:square;stroke-linejoin:miter;stroke:rgb(85.000381%,85.000381%,85.000381%);stroke-opacity:1;stroke-miterlimit:3.25;" d="M 314.503906 193.417969 L 279.804688 63.910156 "/>
</g>
<path style=" stroke:none;fill-rule:nonzero;fill:rgb(85.000381%,85.000381%,85.000381%);fill-opacity:1;" d="M 279.804688 63.910156 L 280.046875 64.152344 L 279.980469 63.605469 L 279.738281 63.671875 Z M 279.804688 63.910156 "/>
<g clip-path="url(#clip26)" clip-rule="nonzero">
<path style="fill:none;stroke-width:0.5;stroke-linecap:square;stroke-linejoin:miter;stroke:rgb(85.000381%,85.000381%,85.000381%);stroke-opacity:1;stroke-miterlimit:3.25;" d="M 314.503906 193.417969 L 279.804688 63.910156 "/>
</g>
<path style=" stroke:none;fill-rule:nonzero;fill:rgb(85.000381%,85.000381%,85.000381%);fill-opacity:1;" d="M 279.804688 63.910156 L 280.046875 64.152344 L 279.980469 63.605469 L 279.738281 63.671875 Z M 279.804688 63.910156 "/>
<g clip-path="url(#clip27)" clip-rule="nonzero">
<path style="fill:none;stroke-width:0.5;stroke-linecap:square;stroke-linejoin:miter;stroke:rgb(85.000381%,85.000381%,85.000381%);stroke-opacity:1;stroke-miterlimit:3.25;" d="M 4.25 68.546875 L 327.066406 -17.953125 "/>
</g>
<g clip-path="url(#clip28)" clip-rule="nonzero">
<path style="fill:none;stroke-width:0.5;stroke-linecap:square;stroke-linejoin:miter;stroke:rgb(85.000381%,85.000381%,85.000381%);stroke-opacity:1;stroke-miterlimit:3.25;" d="M 383.703125 193.417969 L 327.066406 -17.953125 "/>
<path style="fill:none;stroke-width:0.5;stroke-linecap:square;stroke-linejoin:miter;stroke:rgb(85.000381%,85.000381%,85.000381%);stroke-opacity:1;stroke-miterlimit:3.25;" d="M 383.703125 193.417969 L 327.066406 -17.953125 "/>
</g>
<g clip-path="url(#clip29)" clip-rule="nonzero">
<path style="fill:none;stroke-width:0.5;stroke-linecap:square;stroke-linejoin:miter;stroke:rgb(85.000381%,85.000381%,85.000381%);stroke-opacity:1;stroke-miterlimit:3.25;" d="M 24.394531 149.121094 L 275.636719 57.675781 "/>
</g>
<g clip-path="url(#clip30)" clip-rule="nonzero">
<path style="fill:none;stroke-width:0.5;stroke-linecap:square;stroke-linejoin:miter;stroke:rgb(85.000381%,85.000381%,85.000381%);stroke-opacity:1;stroke-miterlimit:3.25;" d="M 325.042969 193.417969 L 275.636719 57.675781 "/>
</g>
<path style=" stroke:none;fill-rule:nonzero;fill:rgb(85.000381%,85.000381%,85.000381%);fill-opacity:1;" d="M 275.636719 57.675781 L 275.871094 57.910156 L 275.785156 57.355469 L 275.550781 57.441406 Z M 275.636719 57.675781 "/>
<g clip-path="url(#clip31)" clip-rule="nonzero">
<path style="fill:none;stroke-width:0.5;stroke-linecap:square;stroke-linejoin:miter;stroke:rgb(85.000381%,85.000381%,85.000381%);stroke-opacity:1;stroke-miterlimit:3.25;" d="M 325.042969 193.417969 L 275.636719 57.675781 "/>
</g>
<path style=" stroke:none;fill-rule:nonzero;fill:rgb(85.000381%,85.000381%,85.000381%);fill-opacity:1;" d="M 275.636719 57.675781 L 275.871094 57.910156 L 275.785156 57.355469 L 275.550781 57.441406 Z M 275.636719 57.675781 "/>
<g clip-path="url(#clip32)" clip-rule="nonzero">
<path style="fill:none;stroke-width:0.5;stroke-linecap:square;stroke-linejoin:miter;stroke:rgb(85.000381%,85.000381%,85.000381%);stroke-opacity:1;stroke-miterlimit:3.25;" d="M 1.535156 86.308594 L 315.585938 -27.996094 "/>
</g>
<g clip-path="url(#clip33)" clip-rule="nonzero">
<path style="fill:none;stroke-width:0.5;stroke-linecap:square;stroke-linejoin:miter;stroke:rgb(85.000381%,85.000381%,85.000381%);stroke-opacity:1;stroke-miterlimit:3.25;" d="M 396.171875 193.417969 L 315.585938 -27.996094 "/>
<path style="fill:none;stroke-width:0.5;stroke-linecap:square;stroke-linejoin:miter;stroke:rgb(85.000381%,85.000381%,85.000381%);stroke-opacity:1;stroke-miterlimit:3.25;" d="M 396.171875 193.417969 L 315.585938 -27.996094 "/>
</g>
<g clip-path="url(#clip34)" clip-rule="nonzero">
<path style="fill:none;stroke-width:0.5;stroke-linecap:square;stroke-linejoin:miter;stroke:rgb(85.000381%,85.000381%,85.000381%);stroke-opacity:1;stroke-miterlimit:3.25;" d="M 28.292969 165.34375 L 270.605469 52.351562 "/>
</g>
<g clip-path="url(#clip35)" clip-rule="nonzero">
<path style="fill:none;stroke-width:0.5;stroke-linecap:square;stroke-linejoin:miter;stroke:rgb(85.000381%,85.000381%,85.000381%);stroke-opacity:1;stroke-miterlimit:3.25;" d="M 336.386719 193.417969 L 270.605469 52.351562 "/>
</g>
<path style=" stroke:none;fill-rule:nonzero;fill:rgb(85.000381%,85.000381%,85.000381%);fill-opacity:1;" d="M 270.605469 52.351562 L 270.832031 52.578125 L 270.726562 52.019531 L 270.5 52.125 Z M 270.605469 52.351562 "/>
<g clip-path="url(#clip36)" clip-rule="nonzero">
<path style="fill:none;stroke-width:0.5;stroke-linecap:square;stroke-linejoin:miter;stroke:rgb(85.000381%,85.000381%,85.000381%);stroke-opacity:1;stroke-miterlimit:3.25;" d="M 336.386719 193.417969 L 270.605469 52.351562 "/>
</g>
<path style=" stroke:none;fill-rule:nonzero;fill:rgb(85.000381%,85.000381%,85.000381%);fill-opacity:1;" d="M 270.605469 52.351562 L 270.832031 52.578125 L 270.726562 52.019531 L 270.5 52.125 Z M 270.605469 52.351562 "/>
<g clip-path="url(#clip37)" clip-rule="nonzero">
<path style="fill:none;stroke-width:0.5;stroke-linecap:square;stroke-linejoin:miter;stroke:rgb(85.000381%,85.000381%,85.000381%);stroke-opacity:1;stroke-miterlimit:3.25;" d="M 0.0429688 104.765625 L 302.933594 -36.476562 "/>
</g>
<g clip-path="url(#clip38)" clip-rule="nonzero">
<path style="fill:none;stroke-width:0.5;stroke-linecap:square;stroke-linejoin:miter;stroke:rgb(85.000381%,85.000381%,85.000381%);stroke-opacity:1;stroke-miterlimit:3.25;" d="M 410.136719 193.417969 L 302.933594 -36.476562 "/>
<path style="fill:none;stroke-width:0.5;stroke-linecap:square;stroke-linejoin:miter;stroke:rgb(85.000381%,85.000381%,85.000381%);stroke-opacity:1;stroke-miterlimit:3.25;" d="M 410.136719 193.417969 L 302.933594 -36.476562 "/>
</g>
<g clip-path="url(#clip39)" clip-rule="nonzero">
<path style="fill:none;stroke-width:0.5;stroke-linecap:square;stroke-linejoin:miter;stroke:rgb(85.000381%,85.000381%,85.000381%);stroke-opacity:1;stroke-miterlimit:3.25;" d="M 33.308594 181.738281 L 264.855469 48.054688 "/>
</g>
<g clip-path="url(#clip40)" clip-rule="nonzero">
<path style="fill:none;stroke-width:0.5;stroke-linecap:square;stroke-linejoin:miter;stroke:rgb(85.000381%,85.000381%,85.000381%);stroke-opacity:1;stroke-miterlimit:3.25;" d="M 348.777344 193.417969 L 264.855469 48.054688 "/>
</g>
<path style=" stroke:none;fill-rule:nonzero;fill:rgb(85.000381%,85.000381%,85.000381%);fill-opacity:1;" d="M 264.855469 48.054688 L 265.070312 48.273438 L 264.945312 47.714844 L 264.730469 47.839844 Z M 264.855469 48.054688 "/>
<g clip-path="url(#clip41)" clip-rule="nonzero">
<path style="fill:none;stroke-width:0.5;stroke-linecap:square;stroke-linejoin:miter;stroke:rgb(85.000381%,85.000381%,85.000381%);stroke-opacity:1;stroke-miterlimit:3.25;" d="M 348.777344 193.417969 L 264.855469 48.054688 "/>
</g>
<path style=" stroke:none;fill-rule:nonzero;fill:rgb(85.000381%,85.000381%,85.000381%);fill-opacity:1;" d="M 264.855469 48.054688 L 265.070312 48.273438 L 264.945312 47.714844 L 264.730469 47.839844 Z M 264.855469 48.054688 "/>
<g clip-path="url(#clip42)" clip-rule="nonzero">
<path style="fill:none;stroke-width:0.5;stroke-linecap:square;stroke-linejoin:miter;stroke:rgb(85.000381%,85.000381%,85.000381%);stroke-opacity:1;stroke-miterlimit:3.25;" d="M -0.109375 123.851562 L 289.320312 -43.25 "/>
</g>
<g clip-path="url(#clip43)" clip-rule="nonzero">
<path style="fill:none;stroke-width:0.5;stroke-linecap:square;stroke-linejoin:miter;stroke:rgb(85.000381%,85.000381%,85.000381%);stroke-opacity:1;stroke-miterlimit:3.25;" d="M 425.960938 193.417969 L 289.320312 -43.25 "/>
<path style="fill:none;stroke-width:0.5;stroke-linecap:square;stroke-linejoin:miter;stroke:rgb(85.000381%,85.000381%,85.000381%);stroke-opacity:1;stroke-miterlimit:3.25;" d="M 425.960938 193.417969 L 289.320312 -43.25 "/>
</g>
<g clip-path="url(#clip44)" clip-rule="nonzero">
<path style="fill:none;stroke-width:0.5;stroke-linecap:square;stroke-linejoin:miter;stroke:rgb(85.000381%,85.000381%,85.000381%);stroke-opacity:1;stroke-miterlimit:3.25;" d="M 46.421875 193.417969 L 258.539062 44.890625 "/>
<path style="fill:none;stroke-width:0.5;stroke-linecap:square;stroke-linejoin:miter;stroke:rgb(85.000381%,85.000381%,85.000381%);stroke-opacity:1;stroke-miterlimit:3.25;" d="M 46.421875 193.417969 L 258.539062 44.890625 "/>
</g>
<path style=" stroke:none;fill-rule:nonzero;fill:rgb(85.000381%,85.000381%,85.000381%);fill-opacity:1;" d="M 258.539062 44.890625 L 258.394531 44.75 L 258.597656 44.542969 L 258.742188 44.75 Z M 258.539062 44.890625 "/>
<g clip-path="url(#clip45)" clip-rule="nonzero">
<path style="fill:none;stroke-width:0.5;stroke-linecap:square;stroke-linejoin:miter;stroke:rgb(85.000381%,85.000381%,85.000381%);stroke-opacity:1;stroke-miterlimit:3.25;" d="M 362.535156 193.417969 L 258.539062 44.890625 "/>
<path style="fill:none;stroke-width:0.5;stroke-linecap:square;stroke-linejoin:miter;stroke:rgb(85.000381%,85.000381%,85.000381%);stroke-opacity:1;stroke-miterlimit:3.25;" d="M 362.535156 193.417969 L 258.539062 44.890625 "/>
</g>
<g clip-path="url(#clip46)" clip-rule="nonzero">
<path style="fill:none;stroke-width:0.5;stroke-linecap:square;stroke-linejoin:miter;stroke:rgb(85.000381%,85.000381%,85.000381%);stroke-opacity:1;stroke-miterlimit:3.25;" d="M 1.1875 143.492188 L 274.953125 -48.199219 "/>
</g>
<g clip-path="url(#clip47)" clip-rule="nonzero">
<path style="fill:none;stroke-width:0.5;stroke-linecap:square;stroke-linejoin:miter;stroke:rgb(85.000381%,85.000381%,85.000381%);stroke-opacity:1;stroke-miterlimit:3.25;" d="M 444.132812 193.417969 L 274.953125 -48.199219 "/>
<path style="fill:none;stroke-width:0.5;stroke-linecap:square;stroke-linejoin:miter;stroke:rgb(85.000381%,85.000381%,85.000381%);stroke-opacity:1;stroke-miterlimit:3.25;" d="M 444.132812 193.417969 L 274.953125 -48.199219 "/>
</g>
<g clip-path="url(#clip48)" clip-rule="nonzero">
<path style="fill:none;stroke-width:0.5;stroke-linecap:square;stroke-linejoin:miter;stroke:rgb(85.000381%,85.000381%,85.000381%);stroke-opacity:1;stroke-miterlimit:3.25;" d="M 72.488281 193.417969 L 251.824219 42.9375 "/>
<path style="fill:none;stroke-width:0.5;stroke-linecap:square;stroke-linejoin:miter;stroke:rgb(85.000381%,85.000381%,85.000381%);stroke-opacity:1;stroke-miterlimit:3.25;" d="M 72.488281 193.417969 L 251.824219 42.9375 "/>
</g>
<path style=" stroke:none;fill-rule:nonzero;fill:rgb(85.000381%,85.000381%,85.000381%);fill-opacity:1;" d="M 251.824219 42.9375 L 251.664062 42.777344 L 251.855469 42.585938 L 252.015625 42.777344 Z M 251.824219 42.9375 "/>
<g clip-path="url(#clip49)" clip-rule="nonzero">
<path style="fill:none;stroke-width:0.5;stroke-linecap:square;stroke-linejoin:miter;stroke:rgb(85.000381%,85.000381%,85.000381%);stroke-opacity:1;stroke-miterlimit:3.25;" d="M 378.09375 193.417969 L 251.824219 42.9375 "/>
<path style="fill:none;stroke-width:0.5;stroke-linecap:square;stroke-linejoin:miter;stroke:rgb(85.000381%,85.000381%,85.000381%);stroke-opacity:1;stroke-miterlimit:3.25;" d="M 378.09375 193.417969 L 251.824219 42.9375 "/>
</g>
<g clip-path="url(#clip50)" clip-rule="nonzero">
<path style="fill:none;stroke-width:0.5;stroke-linecap:square;stroke-linejoin:miter;stroke:rgb(85.000381%,85.000381%,85.000381%);stroke-opacity:1;stroke-miterlimit:3.25;" d="M 4.046875 163.589844 L 260.0625 -51.230469 "/>
</g>
<g clip-path="url(#clip51)" clip-rule="nonzero">
<path style="fill:none;stroke-width:0.5;stroke-linecap:square;stroke-linejoin:miter;stroke:rgb(85.000381%,85.000381%,85.000381%);stroke-opacity:1;stroke-miterlimit:3.25;" d="M 465.347656 193.417969 L 260.0625 -51.230469 "/>
<path style="fill:none;stroke-width:0.5;stroke-linecap:square;stroke-linejoin:miter;stroke:rgb(85.000381%,85.000381%,85.000381%);stroke-opacity:1;stroke-miterlimit:3.25;" d="M 465.347656 193.417969 L 260.0625 -51.230469 "/>
</g>
<g clip-path="url(#clip52)" clip-rule="nonzero">
<path style="fill:none;stroke-width:0.5;stroke-linecap:square;stroke-linejoin:miter;stroke:rgb(85.000381%,85.000381%,85.000381%);stroke-opacity:1;stroke-miterlimit:3.25;" d="M 93.777344 193.417969 L 244.921875 42.273438 "/>
<path style="fill:none;stroke-width:0.5;stroke-linecap:square;stroke-linejoin:miter;stroke:rgb(85.000381%,85.000381%,85.000381%);stroke-opacity:1;stroke-miterlimit:3.25;" d="M 93.777344 193.417969 L 244.921875 42.273438 "/>
</g>
<path style=" stroke:none;fill-rule:nonzero;fill:rgb(85.000381%,85.000381%,85.000381%);fill-opacity:1;" d="M 244.921875 42.273438 L 244.742188 42.097656 L 244.921875 41.921875 L 245.097656 42.097656 Z M 244.921875 42.273438 "/>
<g clip-path="url(#clip53)" clip-rule="nonzero">
<path style="fill:none;stroke-width:0.5;stroke-linecap:square;stroke-linejoin:miter;stroke:rgb(85.000381%,85.000381%,85.000381%);stroke-opacity:1;stroke-miterlimit:3.25;" d="M 396.0625 193.417969 L 244.921875 42.273438 "/>
<path style="fill:none;stroke-width:0.5;stroke-linecap:square;stroke-linejoin:miter;stroke:rgb(85.000381%,85.000381%,85.000381%);stroke-opacity:1;stroke-miterlimit:3.25;" d="M 396.0625 193.417969 L 244.921875 42.273438 "/>
</g>
<g clip-path="url(#clip54)" clip-rule="nonzero">
<path style="fill:none;stroke-width:0.5;stroke-linecap:square;stroke-linejoin:miter;stroke:rgb(85.000381%,85.000381%,85.000381%);stroke-opacity:1;stroke-miterlimit:3.25;" d="M 8.601562 184.066406 L 244.921875 -52.253906 L 481.238281 184.066406 "/>
</g>
<g clip-path="url(#clip55)" clip-rule="nonzero">
<path style="fill:none;stroke-width:0.5;stroke-linecap:square;stroke-linejoin:miter;stroke:rgb(85.000381%,85.000381%,85.000381%);stroke-opacity:1;stroke-miterlimit:3.25;" d="M 111.746094 193.417969 L 238.015625 42.9375 "/>
<path style="fill:none;stroke-width:0.5;stroke-linecap:square;stroke-linejoin:miter;stroke:rgb(85.000381%,85.000381%,85.000381%);stroke-opacity:1;stroke-miterlimit:3.25;" d="M 111.746094 193.417969 L 238.015625 42.9375 "/>
</g>
<path style=" stroke:none;fill-rule:nonzero;fill:rgb(85.000381%,85.000381%,85.000381%);fill-opacity:1;" d="M 238.015625 42.9375 L 237.824219 42.746094 L 237.984375 42.585938 L 238.175781 42.746094 Z M 238.015625 42.9375 "/>
<g clip-path="url(#clip56)" clip-rule="nonzero">
<path style="fill:none;stroke-width:0.5;stroke-linecap:square;stroke-linejoin:miter;stroke:rgb(85.000381%,85.000381%,85.000381%);stroke-opacity:1;stroke-miterlimit:3.25;" d="M 417.351562 193.417969 L 238.015625 42.9375 "/>
<path style="fill:none;stroke-width:0.5;stroke-linecap:square;stroke-linejoin:miter;stroke:rgb(85.000381%,85.000381%,85.000381%);stroke-opacity:1;stroke-miterlimit:3.25;" d="M 417.351562 193.417969 L 238.015625 42.9375 "/>
</g>
<g clip-path="url(#clip57)" clip-rule="nonzero">
<path style="fill:none;stroke-width:0.5;stroke-linecap:square;stroke-linejoin:miter;stroke:rgb(85.000381%,85.000381%,85.000381%);stroke-opacity:1;stroke-miterlimit:3.25;" d="M 24.492188 193.417969 L 229.777344 -51.230469 "/>
<path style="fill:none;stroke-width:0.5;stroke-linecap:square;stroke-linejoin:miter;stroke:rgb(85.000381%,85.000381%,85.000381%);stroke-opacity:1;stroke-miterlimit:3.25;" d="M 24.492188 193.417969 L 229.777344 -51.230469 "/>
</g>
<g clip-path="url(#clip58)" clip-rule="nonzero">
<path style="fill:none;stroke-width:0.5;stroke-linecap:square;stroke-linejoin:miter;stroke:rgb(85.000381%,85.000381%,85.000381%);stroke-opacity:1;stroke-miterlimit:3.25;" d="M 229.777344 -51.230469 L 485.792969 163.589844 "/>
</g>
<g clip-path="url(#clip59)" clip-rule="nonzero">
<path style="fill:none;stroke-width:0.5;stroke-linecap:square;stroke-linejoin:miter;stroke:rgb(85.000381%,85.000381%,85.000381%);stroke-opacity:1;stroke-miterlimit:3.25;" d="M 127.304688 193.417969 L 231.300781 44.890625 "/>
<path style="fill:none;stroke-width:0.5;stroke-linecap:square;stroke-linejoin:miter;stroke:rgb(85.000381%,85.000381%,85.000381%);stroke-opacity:1;stroke-miterlimit:3.25;" d="M 127.304688 193.417969 L 231.300781 44.890625 "/>
</g>
<path style=" stroke:none;fill-rule:nonzero;fill:rgb(85.000381%,85.000381%,85.000381%);fill-opacity:1;" d="M 231.300781 44.890625 L 231.097656 44.6875 L 231.242188 44.542969 L 231.445312 44.6875 Z M 231.300781 44.890625 "/>
<g clip-path="url(#clip60)" clip-rule="nonzero">
<path style="fill:none;stroke-width:0.5;stroke-linecap:square;stroke-linejoin:miter;stroke:rgb(85.000381%,85.000381%,85.000381%);stroke-opacity:1;stroke-miterlimit:3.25;" d="M 443.417969 193.417969 L 231.300781 44.890625 "/>
<path style="fill:none;stroke-width:0.5;stroke-linecap:square;stroke-linejoin:miter;stroke:rgb(85.000381%,85.000381%,85.000381%);stroke-opacity:1;stroke-miterlimit:3.25;" d="M 443.417969 193.417969 L 231.300781 44.890625 "/>
</g>
<g clip-path="url(#clip61)" clip-rule="nonzero">
<path style="fill:none;stroke-width:0.5;stroke-linecap:square;stroke-linejoin:miter;stroke:rgb(85.000381%,85.000381%,85.000381%);stroke-opacity:1;stroke-miterlimit:3.25;" d="M 45.707031 193.417969 L 214.886719 -48.199219 "/>
<path style="fill:none;stroke-width:0.5;stroke-linecap:square;stroke-linejoin:miter;stroke:rgb(85.000381%,85.000381%,85.000381%);stroke-opacity:1;stroke-miterlimit:3.25;" d="M 45.707031 193.417969 L 214.886719 -48.199219 "/>
</g>
<g clip-path="url(#clip62)" clip-rule="nonzero">
<path style="fill:none;stroke-width:0.5;stroke-linecap:square;stroke-linejoin:miter;stroke:rgb(85.000381%,85.000381%,85.000381%);stroke-opacity:1;stroke-miterlimit:3.25;" d="M 214.886719 -48.199219 L 488.652344 143.492188 "/>
</g>
<g clip-path="url(#clip63)" clip-rule="nonzero">
<path style="fill:none;stroke-width:0.5;stroke-linecap:square;stroke-linejoin:miter;stroke:rgb(85.000381%,85.000381%,85.000381%);stroke-opacity:1;stroke-miterlimit:3.25;" d="M 141.0625 193.417969 L 224.984375 48.054688 "/>
<path style="fill:none;stroke-width:0.5;stroke-linecap:square;stroke-linejoin:miter;stroke:rgb(85.000381%,85.000381%,85.000381%);stroke-opacity:1;stroke-miterlimit:3.25;" d="M 141.0625 193.417969 L 224.984375 48.054688 "/>
</g>
<path style=" stroke:none;fill-rule:nonzero;fill:rgb(85.000381%,85.000381%,85.000381%);fill-opacity:1;" d="M 224.984375 48.054688 L 224.769531 47.839844 L 224.894531 47.714844 L 225.109375 47.839844 Z M 224.984375 48.054688 "/>
<g clip-path="url(#clip64)" clip-rule="nonzero">
<path style="fill:none;stroke-width:0.5;stroke-linecap:square;stroke-linejoin:miter;stroke:rgb(85.000381%,85.000381%,85.000381%);stroke-opacity:1;stroke-miterlimit:3.25;" d="M 224.984375 48.054688 L 456.53125 181.738281 "/>
</g>
<g clip-path="url(#clip65)" clip-rule="nonzero">
<path style="fill:none;stroke-width:0.5;stroke-linecap:square;stroke-linejoin:miter;stroke:rgb(85.000381%,85.000381%,85.000381%);stroke-opacity:1;stroke-miterlimit:3.25;" d="M 63.878906 193.417969 L 200.519531 -43.25 "/>
<path style="fill:none;stroke-width:0.5;stroke-linecap:square;stroke-linejoin:miter;stroke:rgb(85.000381%,85.000381%,85.000381%);stroke-opacity:1;stroke-miterlimit:3.25;" d="M 63.878906 193.417969 L 200.519531 -43.25 "/>
</g>
<g clip-path="url(#clip66)" clip-rule="nonzero">
<path style="fill:none;stroke-width:0.5;stroke-linecap:square;stroke-linejoin:miter;stroke:rgb(85.000381%,85.000381%,85.000381%);stroke-opacity:1;stroke-miterlimit:3.25;" d="M 200.519531 -43.25 L 489.949219 123.851562 "/>
</g>
<g clip-path="url(#clip67)" clip-rule="nonzero">
<path style="fill:none;stroke-width:0.5;stroke-linecap:square;stroke-linejoin:miter;stroke:rgb(85.000381%,85.000381%,85.000381%);stroke-opacity:1;stroke-miterlimit:3.25;" d="M 153.453125 193.417969 L 219.234375 52.351562 "/>
<path style="fill:none;stroke-width:0.5;stroke-linecap:square;stroke-linejoin:miter;stroke:rgb(85.000381%,85.000381%,85.000381%);stroke-opacity:1;stroke-miterlimit:3.25;" d="M 153.453125 193.417969 L 219.234375 52.351562 "/>
</g>
<path style=" stroke:none;fill-rule:nonzero;fill:rgb(85.000381%,85.000381%,85.000381%);fill-opacity:1;" d="M 219.234375 52.351562 L 219.007812 52.125 L 219.113281 52.019531 L 219.339844 52.125 Z M 219.234375 52.351562 "/>
<g clip-path="url(#clip68)" clip-rule="nonzero">
<path style="fill:none;stroke-width:0.5;stroke-linecap:square;stroke-linejoin:miter;stroke:rgb(85.000381%,85.000381%,85.000381%);stroke-opacity:1;stroke-miterlimit:3.25;" d="M 219.234375 52.351562 L 461.550781 165.34375 "/>
</g>
<g clip-path="url(#clip69)" clip-rule="nonzero">
<path style="fill:none;stroke-width:0.5;stroke-linecap:square;stroke-linejoin:miter;stroke:rgb(85.000381%,85.000381%,85.000381%);stroke-opacity:1;stroke-miterlimit:3.25;" d="M 79.703125 193.417969 L 186.90625 -36.476562 "/>
<path style="fill:none;stroke-width:0.5;stroke-linecap:square;stroke-linejoin:miter;stroke:rgb(85.000381%,85.000381%,85.000381%);stroke-opacity:1;stroke-miterlimit:3.25;" d="M 79.703125 193.417969 L 186.90625 -36.476562 "/>
</g>
<g clip-path="url(#clip70)" clip-rule="nonzero">
<path style="fill:none;stroke-width:0.5;stroke-linecap:square;stroke-linejoin:miter;stroke:rgb(85.000381%,85.000381%,85.000381%);stroke-opacity:1;stroke-miterlimit:3.25;" d="M 186.90625 -36.476562 L 489.796875 104.765625 "/>
</g>
<g clip-path="url(#clip71)" clip-rule="nonzero">
<path style="fill:none;stroke-width:0.5;stroke-linecap:square;stroke-linejoin:miter;stroke:rgb(85.000381%,85.000381%,85.000381%);stroke-opacity:1;stroke-miterlimit:3.25;" d="M 164.800781 193.417969 L 214.207031 57.675781 "/>
<path style="fill:none;stroke-width:0.5;stroke-linecap:square;stroke-linejoin:miter;stroke:rgb(85.000381%,85.000381%,85.000381%);stroke-opacity:1;stroke-miterlimit:3.25;" d="M 164.800781 193.417969 L 214.207031 57.675781 "/>
</g>
<path style=" stroke:none;fill-rule:nonzero;fill:rgb(85.000381%,85.000381%,85.000381%);fill-opacity:1;" d="M 214.207031 57.675781 L 213.96875 57.441406 L 214.054688 57.355469 L 214.292969 57.441406 Z M 214.207031 57.675781 "/>
<g clip-path="url(#clip72)" clip-rule="nonzero">
<path style="fill:none;stroke-width:0.5;stroke-linecap:square;stroke-linejoin:miter;stroke:rgb(85.000381%,85.000381%,85.000381%);stroke-opacity:1;stroke-miterlimit:3.25;" d="M 214.207031 57.675781 L 465.445312 149.121094 "/>
</g>
<g clip-path="url(#clip73)" clip-rule="nonzero">
<path style="fill:none;stroke-width:0.5;stroke-linecap:square;stroke-linejoin:miter;stroke:rgb(85.000381%,85.000381%,85.000381%);stroke-opacity:1;stroke-miterlimit:3.25;" d="M 93.667969 193.417969 L 174.257812 -27.996094 "/>
<path style="fill:none;stroke-width:0.5;stroke-linecap:square;stroke-linejoin:miter;stroke:rgb(85.000381%,85.000381%,85.000381%);stroke-opacity:1;stroke-miterlimit:3.25;" d="M 93.667969 193.417969 L 174.257812 -27.996094 "/>
</g>
<g clip-path="url(#clip74)" clip-rule="nonzero">
<path style="fill:none;stroke-width:0.5;stroke-linecap:square;stroke-linejoin:miter;stroke:rgb(85.000381%,85.000381%,85.000381%);stroke-opacity:1;stroke-miterlimit:3.25;" d="M 174.257812 -27.996094 L 488.304688 86.308594 "/>
</g>
<g clip-path="url(#clip75)" clip-rule="nonzero">
<path style="fill:none;stroke-width:0.5;stroke-linecap:square;stroke-linejoin:miter;stroke:rgb(85.000381%,85.000381%,85.000381%);stroke-opacity:1;stroke-miterlimit:3.25;" d="M 175.335938 193.417969 L 210.035156 63.910156 "/>
<path style="fill:none;stroke-width:0.5;stroke-linecap:square;stroke-linejoin:miter;stroke:rgb(85.000381%,85.000381%,85.000381%);stroke-opacity:1;stroke-miterlimit:3.25;" d="M 175.335938 193.417969 L 210.035156 63.910156 "/>
</g>
<path style=" stroke:none;fill-rule:nonzero;fill:rgb(85.000381%,85.000381%,85.000381%);fill-opacity:1;" d="M 210.035156 63.910156 L 209.796875 63.671875 L 209.859375 63.605469 L 210.101562 63.671875 Z M 210.035156 63.910156 "/>
<g clip-path="url(#clip76)" clip-rule="nonzero">
<path style="fill:none;stroke-width:0.5;stroke-linecap:square;stroke-linejoin:miter;stroke:rgb(85.000381%,85.000381%,85.000381%);stroke-opacity:1;stroke-miterlimit:3.25;" d="M 210.035156 63.910156 L 468.289062 133.109375 "/>
</g>
<g clip-path="url(#clip77)" clip-rule="nonzero">
<path style="fill:none;stroke-width:0.5;stroke-linecap:square;stroke-linejoin:miter;stroke:rgb(85.000381%,85.000381%,85.000381%);stroke-opacity:1;stroke-miterlimit:3.25;" d="M 106.136719 193.417969 L 162.773438 -17.953125 "/>
<path style="fill:none;stroke-width:0.5;stroke-linecap:square;stroke-linejoin:miter;stroke:rgb(85.000381%,85.000381%,85.000381%);stroke-opacity:1;stroke-miterlimit:3.25;" d="M 106.136719 193.417969 L 162.773438 -17.953125 "/>
</g>
<g clip-path="url(#clip78)" clip-rule="nonzero">
<path style="fill:none;stroke-width:0.5;stroke-linecap:square;stroke-linejoin:miter;stroke:rgb(85.000381%,85.000381%,85.000381%);stroke-opacity:1;stroke-miterlimit:3.25;" d="M 162.773438 -17.953125 L 485.589844 68.546875 "/>
</g>
<g clip-path="url(#clip79)" clip-rule="nonzero">
<path style="fill:none;stroke-width:0.5;stroke-linecap:square;stroke-linejoin:miter;stroke:rgb(85.000381%,85.000381%,85.000381%);stroke-opacity:1;stroke-miterlimit:3.25;" d="M 185.253906 193.417969 L 206.851562 70.925781 "/>
<path style="fill:none;stroke-width:0.5;stroke-linecap:square;stroke-linejoin:miter;stroke:rgb(85.000381%,85.000381%,85.000381%);stroke-opacity:1;stroke-miterlimit:3.25;" d="M 185.253906 193.417969 L 206.851562 70.925781 "/>
</g>
<path style=" stroke:none;fill-rule:nonzero;fill:rgb(85.000381%,85.000381%,85.000381%);fill-opacity:1;" d="M 206.851562 70.925781 L 206.605469 70.679688 L 206.648438 70.636719 L 206.894531 70.679688 Z M 206.851562 70.925781 "/>
<g clip-path="url(#clip80)" clip-rule="nonzero">
<path style="fill:none;stroke-width:0.5;stroke-linecap:square;stroke-linejoin:miter;stroke:rgb(85.000381%,85.000381%,85.000381%);stroke-opacity:1;stroke-miterlimit:3.25;" d="M 206.851562 70.925781 L 470.152344 117.351562 "/>
</g>
<g clip-path="url(#clip81)" clip-rule="nonzero">
<path style="fill:none;stroke-width:0.5;stroke-linecap:square;stroke-linejoin:miter;stroke:rgb(85.000381%,85.000381%,85.000381%);stroke-opacity:1;stroke-miterlimit:3.25;" d="M 117.378906 193.417969 L 152.632812 -6.507812 "/>
<path style="fill:none;stroke-width:0.5;stroke-linecap:square;stroke-linejoin:miter;stroke:rgb(85.000381%,85.000381%,85.000381%);stroke-opacity:1;stroke-miterlimit:3.25;" d="M 117.378906 193.417969 L 152.632812 -6.507812 "/>
</g>
<g clip-path="url(#clip82)" clip-rule="nonzero">
<path style="fill:none;stroke-width:0.5;stroke-linecap:square;stroke-linejoin:miter;stroke:rgb(85.000381%,85.000381%,85.000381%);stroke-opacity:1;stroke-miterlimit:3.25;" d="M 152.632812 -6.507812 L 481.761719 51.527344 "/>
</g>
<g clip-path="url(#clip83)" clip-rule="nonzero">
<path style="fill:none;stroke-width:0.5;stroke-linecap:square;stroke-linejoin:miter;stroke:rgb(85.000381%,85.000381%,85.000381%);stroke-opacity:1;stroke-miterlimit:3.25;" d="M 194.703125 193.417969 L 204.753906 78.566406 "/>
<path style="fill:none;stroke-width:0.5;stroke-linecap:square;stroke-linejoin:miter;stroke:rgb(85.000381%,85.000381%,85.000381%);stroke-opacity:1;stroke-miterlimit:3.25;" d="M 194.703125 193.417969 L 204.753906 78.566406 "/>
</g>
<path style=" stroke:none;fill-rule:nonzero;fill:rgb(85.000381%,85.000381%,85.000381%);fill-opacity:1;" d="M 204.753906 78.566406 L 204.503906 78.316406 L 204.527344 78.296875 L 204.773438 78.316406 Z M 204.753906 78.566406 "/>
<g clip-path="url(#clip84)" clip-rule="nonzero">
<path style="fill:none;stroke-width:0.5;stroke-linecap:square;stroke-linejoin:miter;stroke:rgb(85.000381%,85.000381%,85.000381%);stroke-opacity:1;stroke-miterlimit:3.25;" d="M 204.753906 78.566406 L 471.097656 101.867188 "/>
</g>
<g clip-path="url(#clip85)" clip-rule="nonzero">
<path style="fill:none;stroke-width:0.5;stroke-linecap:square;stroke-linejoin:miter;stroke:rgb(85.000381%,85.000381%,85.000381%);stroke-opacity:1;stroke-miterlimit:3.25;" d="M 127.609375 193.417969 L 143.992188 6.152344 "/>
<path style="fill:none;stroke-width:0.5;stroke-linecap:square;stroke-linejoin:miter;stroke:rgb(85.000381%,85.000381%,85.000381%);stroke-opacity:1;stroke-miterlimit:3.25;" d="M 127.609375 193.417969 L 143.992188 6.152344 "/>
</g>
<g clip-path="url(#clip86)" clip-rule="nonzero">
<path style=" stroke:none;fill-rule:nonzero;fill:rgb(85.000381%,85.000381%,85.000381%);fill-opacity:1;" d="M 143.992188 6.152344 L 143.742188 5.90625 L 143.765625 5.882812 L 144.011719 5.90625 Z M 143.992188 6.152344 "/>
</g>
<g clip-path="url(#clip87)" clip-rule="nonzero">
<path style="fill:none;stroke-width:0.5;stroke-linecap:square;stroke-linejoin:miter;stroke:rgb(85.000381%,85.000381%,85.000381%);stroke-opacity:1;stroke-miterlimit:3.25;" d="M 143.992188 6.152344 L 476.925781 35.28125 "/>
</g>
<g clip-path="url(#clip88)" clip-rule="nonzero">
<path style="fill:none;stroke-width:0.5;stroke-linecap:square;stroke-linejoin:miter;stroke:rgb(85.000381%,85.000381%,85.000381%);stroke-opacity:1;stroke-miterlimit:3.25;" d="M 203.894531 193.417969 L 203.894531 86.675781 "/>
<path style="fill:none;stroke-width:0.5;stroke-linecap:square;stroke-linejoin:miter;stroke:rgb(85.000381%,85.000381%,85.000381%);stroke-opacity:1;stroke-miterlimit:3.25;" d="M 203.894531 193.417969 L 203.894531 86.675781 "/>
</g>
<path style=" stroke:none;fill-rule:nonzero;fill:rgb(85.000381%,85.000381%,85.000381%);fill-opacity:1;" d="M 203.894531 86.675781 L 203.644531 86.425781 L 203.894531 86.425781 Z M 203.894531 86.675781 "/>
<g clip-path="url(#clip89)" clip-rule="nonzero">
<path style="fill:none;stroke-width:0.5;stroke-linecap:square;stroke-linejoin:miter;stroke:rgb(85.000381%,85.000381%,85.000381%);stroke-opacity:1;stroke-miterlimit:3.25;" d="M 203.894531 86.675781 L 471.257812 86.675781 "/>
</g>
<g clip-path="url(#clip90)" clip-rule="nonzero">
<path style="fill:none;stroke-width:0.5;stroke-linecap:square;stroke-linejoin:miter;stroke:rgb(85.000381%,85.000381%,85.000381%);stroke-opacity:1;stroke-miterlimit:3.25;" d="M 137.054688 193.417969 L 137.054688 19.835938 "/>
<path style="fill:none;stroke-width:0.5;stroke-linecap:square;stroke-linejoin:miter;stroke:rgb(85.000381%,85.000381%,85.000381%);stroke-opacity:1;stroke-miterlimit:3.25;" d="M 137.054688 193.417969 L 137.054688 19.835938 "/>
</g>
<path style=" stroke:none;fill-rule:nonzero;fill:rgb(85.000381%,85.000381%,85.000381%);fill-opacity:1;" d="M 137.054688 19.835938 L 136.804688 19.585938 L 137.054688 19.585938 Z M 137.054688 19.835938 "/>
<g clip-path="url(#clip91)" clip-rule="nonzero">
<path style="fill:none;stroke-width:0.5;stroke-linecap:square;stroke-linejoin:miter;stroke:rgb(85.000381%,85.000381%,85.000381%);stroke-opacity:1;stroke-miterlimit:3.25;" d="M 137.054688 19.835938 L 471.257812 19.835938 "/>
</g>
<path style="fill-rule:nonzero;fill:rgb(100%,100%,86.999313%);fill-opacity:1;stroke-width:1;stroke-linecap:square;stroke-linejoin:miter;stroke:rgb(0%,0%,0%);stroke-opacity:1;stroke-miterlimit:3.25;" d="M 285.75 82.988281 L 285.441406 80.625 L 285.035156 78.296875 L 284.527344 76.011719 L 283.921875 73.769531 L 283.21875 71.578125 L 282.425781 69.4375 L 281.539062 67.355469 L 280.5625 65.332031 L 279.5 63.371094 L 278.351562 61.480469 L 277.125 59.660156 L 275.824219 57.914062 L 274.445312 56.246094 L 272.996094 54.65625 L 271.480469 53.152344 L 269.898438 51.734375 L 268.257812 50.40625 L 266.5625 49.171875 L 264.8125 48.03125 L 263.015625 46.988281 L 261.175781 46.042969 L 259.292969 45.195312 L 257.375 44.457031 L 255.425781 43.820312 L 253.449219 43.289062 L 251.453125 42.867188 L 249.441406 42.558594 L 247.417969 42.359375 L 245.390625 42.277344 L 243.363281 42.308594 L 241.339844 42.453125 L 239.324219 42.707031 L 237.316406 43.078125 L 235.332031 43.558594 L 233.367188 44.144531 L 231.4375 44.839844 L 229.539062 45.636719 L 227.675781 46.535156 L 225.859375 47.53125 L 224.085938 48.628906 L 222.363281 49.820312 L 220.695312 51.105469 L 219.089844 52.484375 L 217.542969 53.945312 L 216.0625 55.496094 L 214.648438 57.125 L 213.3125 58.835938 L 212.046875 60.625 L 210.863281 62.484375 L 209.761719 64.410156 L 208.746094 66.40625 L 207.816406 68.460938 L 206.980469 70.574219 L 206.234375 72.746094 L 205.582031 74.964844 L 205.027344 77.230469 L 204.574219 79.535156 L 204.222656 81.882812 L 204.089844 82.988281 L 203.988281 83.070312 L 203.875 83.15625 L 203.753906 83.246094 L 203.628906 83.339844 L 203.496094 83.433594 L 203.355469 83.527344 L 203.207031 83.628906 L 203.050781 83.726562 L 202.886719 83.828125 L 202.714844 83.933594 L 202.535156 84.035156 L 202.347656 84.140625 L 202.152344 84.246094 L 201.949219 84.355469 L 201.734375 84.460938 L 201.515625 84.566406 L 201.289062 84.671875 L 201.050781 84.78125 L 200.808594 84.886719 L 200.554688 84.988281 L 200.292969 85.09375 L 200.023438 85.195312 L 199.746094 85.296875 L 199.457031 85.394531 L 199.164062 85.492188 L 198.859375 85.585938 L 198.546875 85.679688 L 198.226562 85.769531 L 197.898438 85.855469 L 197.5625 85.941406 L 197.21875 86.019531 L 196.863281 86.097656 L 196.503906 86.171875 L 196.132812 86.238281 L 195.753906 86.304688 L 195.367188 86.367188 L 194.972656 86.421875 L 194.570312 86.472656 L 194.160156 86.515625 L 193.738281 86.558594 L 193.3125 86.59375 L 192.878906 86.621094 L 192.4375 86.644531 L 191.957031 86.660156 L 191.460938 86.671875 L 137.054688 86.675781 L 137.105469 85.566406 L 137.253906 83.207031 L 137.464844 80.878906 L 137.730469 78.578125 L 138.050781 76.3125 L 138.421875 74.082031 L 138.847656 71.886719 L 139.324219 69.734375 L 139.847656 67.617188 L 140.417969 65.542969 L 141.03125 63.511719 L 141.6875 61.523438 L 142.382812 59.582031 L 143.117188 57.6875 L 143.890625 55.84375 L 144.695312 54.046875 L 145.53125 52.300781 L 146.394531 50.605469 L 147.289062 48.964844 L 148.207031 47.375 L 149.144531 45.835938 L 150.105469 44.355469 L 151.082031 42.925781 L 152.070312 41.554688 L 153.074219 40.238281 L 154.089844 38.972656 L 155.105469 37.769531 L 156.125 36.625 L 157.144531 35.539062 L 158.160156 34.507812 L 159.171875 33.535156 L 160.171875 32.617188 L 161.164062 31.753906 L 162.171875 30.921875 L 163.328125 30.019531 L 164.488281 29.15625 L 165.652344 28.335938 L 166.820312 27.558594 L 167.984375 26.824219 L 169.152344 26.128906 L 170.320312 25.472656 L 171.480469 24.859375 L 172.640625 24.285156 L 173.792969 23.75 L 174.9375 23.253906 L 176.078125 22.792969 L 177.207031 22.371094 L 178.324219 21.984375 L 179.433594 21.632812 L 180.527344 21.316406 L 181.609375 21.03125 L 182.679688 20.78125 L 183.730469 20.5625 L 184.769531 20.375 L 185.789062 20.214844 L 186.789062 20.085938 L 187.773438 19.984375 L 188.734375 19.910156 L 189.679688 19.859375 L 298.851562 19.835938 L 299.707031 19.84375 L 300.597656 19.878906 L 301.550781 19.941406 L 302.523438 20.027344 L 303.515625 20.140625 L 304.523438 20.285156 L 305.554688 20.457031 L 306.597656 20.660156 L 307.65625 20.894531 L 308.730469 21.160156 L 309.820312 21.457031 L 310.921875 21.789062 L 312.035156 22.160156 L 313.160156 22.5625 L 314.292969 23.003906 L 315.433594 23.480469 L 316.582031 23.996094 L 317.738281 24.546875 L 318.898438 25.140625 L 320.0625 25.773438 L 321.230469 26.445312 L 322.398438 27.160156 L 323.566406 27.914062 L 324.730469 28.714844 L 325.894531 29.550781 L 327.050781 30.433594 L 328.148438 31.316406 L 329.136719 32.148438 L 330.132812 33.039062 L 331.140625 33.980469 L 332.152344 34.980469 L 333.167969 36.035156 L 334.1875 37.152344 L 335.207031 38.324219 L 336.222656 39.554688 L 337.234375 40.84375 L 338.230469 42.1875 L 339.214844 43.585938 L 340.183594 45.039062 L 341.136719 46.546875 L 342.066406 48.105469 L 342.96875 49.722656 L 343.851562 51.386719 L 344.703125 53.105469 L 345.523438 54.875 L 346.3125 56.695312 L 347.070312 58.5625 L 347.785156 60.480469 L 348.464844 62.441406 L 349.101562 64.449219 L 349.695312 66.5 L 350.242188 68.597656 L 350.746094 70.730469 L 351.195312 72.90625 L 351.597656 75.117188 L 351.945312 77.363281 L 352.242188 79.644531 L 352.480469 81.960938 L 352.664062 84.304688 L 352.785156 86.675781 L 298.851562 86.675781 L 298.09375 86.667969 L 297.714844 86.65625 L 297.355469 86.640625 L 297.015625 86.625 L 296.351562 86.578125 L 296.027344 86.550781 L 295.707031 86.519531 L 295.390625 86.484375 L 295.082031 86.449219 L 294.773438 86.410156 L 294.472656 86.367188 L 294.175781 86.320312 L 293.882812 86.269531 L 293.597656 86.21875 L 293.316406 86.167969 L 293.039062 86.109375 L 292.765625 86.050781 L 292.496094 85.992188 L 292.234375 85.929688 L 291.976562 85.867188 L 291.722656 85.800781 L 291.476562 85.730469 L 291.230469 85.664062 L 290.992188 85.589844 L 290.761719 85.519531 L 290.53125 85.445312 L 290.308594 85.371094 L 290.089844 85.292969 L 289.875 85.21875 L 289.667969 85.140625 L 289.464844 85.058594 L 289.265625 84.980469 L 289.070312 84.902344 L 288.695312 84.738281 L 288.34375 84.574219 L 288.171875 84.496094 L 288.007812 84.414062 L 287.847656 84.332031 L 287.691406 84.25 L 287.542969 84.167969 L 287.398438 84.085938 L 287.253906 84.007812 L 287.117188 83.929688 L 286.988281 83.847656 L 286.859375 83.769531 L 286.738281 83.691406 L 286.617188 83.617188 L 286.503906 83.542969 L 286.394531 83.46875 L 286.289062 83.394531 L 286.1875 83.324219 L 286 83.183594 L 285.828125 83.050781 Z M 285.75 82.988281 "/>
<path style="fill:none;stroke-width:1;stroke-linecap:square;stroke-linejoin:miter;stroke:rgb(0%,0%,0%);stroke-opacity:1;stroke-miterlimit:3.25;" d="M 287.011719 81.429688 L 285.75 82.988281 "/>
<path style="fill:none;stroke-width:1;stroke-linecap:square;stroke-linejoin:miter;stroke:rgb(0%,0%,0%);stroke-opacity:1;stroke-miterlimit:3.25;" d="M 253.582031 41.257812 L 253.140625 43.214844 "/>
<path style="fill:none;stroke-width:1;stroke-linecap:square;stroke-linejoin:miter;stroke:rgb(0%,0%,0%);stroke-opacity:1;stroke-miterlimit:3.25;" d="M 236.257812 41.257812 L 236.699219 43.214844 "/>
<path style="fill:none;stroke-width:1;stroke-linecap:square;stroke-linejoin:miter;stroke:rgb(0%,0%,0%);stroke-opacity:1;stroke-miterlimit:3.25;" d="M 202.828125 81.429688 L 204.089844 82.988281 "/>
<path style="fill:none;stroke-width:1;stroke-linecap:square;stroke-linejoin:miter;stroke:rgb(0%,0%,0%);stroke-opacity:1;stroke-miterlimit:3.25;" d="M 297.621094 84.644531 L 297.542969 86.648438 "/>
<path style="fill:none;stroke-width:1;stroke-linecap:square;stroke-linejoin:miter;stroke:rgb(0%,0%,0%);stroke-opacity:1;stroke-miterlimit:3.25;" d="M 298.851562 84.667969 L 298.851562 86.675781 "/>
<path style="fill:none;stroke-width:1;stroke-linecap:square;stroke-linejoin:miter;stroke:rgb(0%,0%,0%);stroke-opacity:1;stroke-miterlimit:3.25;" d="M 192.21875 84.644531 L 192.296875 86.648438 "/>
<path style="fill:none;stroke-width:1;stroke-linecap:square;stroke-linejoin:miter;stroke:rgb(0%,0%,0%);stroke-opacity:1;stroke-miterlimit:3.25;" d="M 190.988281 84.667969 L 190.988281 86.675781 "/>
<path style="fill:none;stroke-width:1;stroke-linecap:square;stroke-linejoin:miter;stroke:rgb(0%,0%,0%);stroke-opacity:1;stroke-miterlimit:3.25;" d="M 334.507812 40.621094 L 336.066406 39.359375 "/>
<path style="fill:none;stroke-width:1;stroke-linecap:square;stroke-linejoin:miter;stroke:rgb(0%,0%,0%);stroke-opacity:1;stroke-miterlimit:3.25;" d="M 326.582031 32.625 L 327.84375 31.066406 "/>
<path style="fill:none;stroke-width:1;stroke-linecap:square;stroke-linejoin:miter;stroke:rgb(0%,0%,0%);stroke-opacity:1;stroke-miterlimit:3.25;" d="M 300.082031 21.863281 L 300.160156 19.859375 "/>
<path style="fill:none;stroke-width:1;stroke-linecap:square;stroke-linejoin:miter;stroke:rgb(0%,0%,0%);stroke-opacity:1;stroke-miterlimit:3.25;" d="M 298.851562 21.839844 L 298.851562 19.835938 "/>
<path style="fill:none;stroke-width:1;stroke-linecap:square;stroke-linejoin:miter;stroke:rgb(0%,0%,0%);stroke-opacity:1;stroke-miterlimit:3.25;" d="M 155.332031 40.621094 L 153.773438 39.359375 "/>
<path style="fill:none;stroke-width:1;stroke-linecap:square;stroke-linejoin:miter;stroke:rgb(0%,0%,0%);stroke-opacity:1;stroke-miterlimit:3.25;" d="M 163.257812 32.625 L 161.996094 31.066406 "/>
<path style="fill:none;stroke-width:1;stroke-linecap:square;stroke-linejoin:miter;stroke:rgb(0%,0%,0%);stroke-opacity:1;stroke-miterlimit:3.25;" d="M 189.757812 21.863281 L 189.679688 19.859375 "/>
<path style="fill:none;stroke-width:1;stroke-linecap:square;stroke-linejoin:miter;stroke:rgb(0%,0%,0%);stroke-opacity:1;stroke-miterlimit:3.25;" d="M 190.988281 21.839844 L 190.988281 19.835938 "/>
<path style="fill:none;stroke-width:1;stroke-linecap:square;stroke-linejoin:miter;stroke:rgb(0%,0%,0%);stroke-opacity:1;stroke-miterlimit:3.25;" d="M 351.367188 85.257812 L 352.785156 86.675781 "/>
<path style="fill:none;stroke-width:1;stroke-linecap:square;stroke-linejoin:miter;stroke:rgb(0%,0%,0%);stroke-opacity:1;stroke-miterlimit:3.25;" d="M 138.472656 85.257812 L 137.054688 86.675781 "/>
<path style="fill:none;stroke-width:1;stroke-linecap:square;stroke-linejoin:miter;stroke:rgb(100%,0%,0%);stroke-opacity:1;stroke-miterlimit:3.25;" d="M 204.089844 82.988281 L 203.988281 83.070312 L 203.875 83.15625 L 203.753906 83.246094 L 203.628906 83.339844 L 203.496094 83.433594 L 203.355469 83.527344 L 203.207031 83.628906 L 203.050781 83.726562 L 202.886719 83.828125 L 202.714844 83.933594 L 202.535156 84.035156 L 202.347656 84.140625 L 202.152344 84.246094 L 201.949219 84.355469 L 201.734375 84.460938 L 201.515625 84.566406 L 201.289062 84.671875 L 201.050781 84.78125 L 200.808594 84.886719 L 200.554688 84.988281 L 200.292969 85.09375 L 200.023438 85.195312 L 199.746094 85.296875 L 199.457031 85.394531 L 199.164062 85.492188 L 198.859375 85.585938 L 198.546875 85.679688 L 198.226562 85.769531 L 197.898438 85.855469 L 197.5625 85.941406 L 197.21875 86.019531 L 196.863281 86.097656 L 196.503906 86.171875 L 196.132812 86.238281 L 195.753906 86.304688 L 195.367188 86.367188 L 194.972656 86.421875 L 194.570312 86.472656 L 194.160156 86.515625 L 193.738281 86.558594 L 193.3125 86.59375 L 192.878906 86.621094 L 192.4375 86.644531 L 191.957031 86.660156 L 191.460938 86.671875 "/>
<path style="fill:none;stroke-width:1;stroke-linecap:square;stroke-linejoin:miter;stroke:rgb(100%,0%,0%);stroke-opacity:1;stroke-miterlimit:3.25;" d="M 298.851562 86.675781 L 298.09375 86.667969 L 297.714844 86.65625 L 297.355469 86.640625 L 297.015625 86.625 L 296.351562 86.578125 L 296.027344 86.550781 L 295.707031 86.519531 L 295.390625 86.484375 L 295.082031 86.449219 L 294.773438 86.410156 L 294.472656 86.367188 L 294.175781 86.320312 L 293.882812 86.269531 L 293.597656 86.21875 L 293.316406 86.167969 L 293.039062 86.109375 L 292.765625 86.050781 L 292.496094 85.992188 L 292.234375 85.929688 L 291.976562 85.867188 L 291.722656 85.800781 L 291.476562 85.730469 L 291.230469 85.664062 L 290.992188 85.589844 L 290.761719 85.519531 L 290.53125 85.445312 L 290.308594 85.371094 L 290.089844 85.292969 L 289.875 85.21875 L 289.667969 85.140625 L 289.464844 85.058594 L 289.265625 84.980469 L 289.070312 84.902344 L 288.695312 84.738281 L 288.34375 84.574219 L 288.171875 84.496094 L 288.007812 84.414062 L 287.847656 84.332031 L 287.691406 84.25 L 287.542969 84.167969 L 287.398438 84.085938 L 287.253906 84.007812 L 287.117188 83.929688 L 286.988281 83.847656 L 286.859375 83.769531 L 286.738281 83.691406 L 286.617188 83.617188 L 286.503906 83.542969 L 286.394531 83.46875 L 286.289062 83.394531 L 286.1875 83.324219 L 286 83.183594 L 285.828125 83.050781 L 285.75 82.988281 "/>
<path style="fill:none;stroke-width:1;stroke-linecap:butt;stroke-linejoin:miter;stroke:rgb(0%,0%,100%);stroke-opacity:1;stroke-dasharray:0.827664;stroke-miterlimit:3.25;" d="M 285.945312 86.675781 L 285.945312 86.367188 L 285.941406 86.304688 L 285.941406 86.117188 L 285.9375 86.054688 L 285.9375 85.871094 L 285.933594 85.808594 L 285.933594 85.746094 L 285.929688 85.683594 L 285.929688 85.625 L 285.925781 85.5625 L 285.925781 85.5 L 285.921875 85.4375 L 285.921875 85.375 L 285.917969 85.316406 L 285.914062 85.253906 L 285.914062 85.191406 L 285.90625 85.066406 L 285.90625 85.007812 L 285.894531 84.820312 L 285.890625 84.761719 L 285.890625 84.699219 L 285.886719 84.636719 L 285.882812 84.578125 L 285.871094 84.390625 L 285.867188 84.332031 L 285.859375 84.207031 L 285.851562 84.148438 L 285.84375 84.023438 L 285.839844 83.964844 L 285.835938 83.902344 L 285.828125 83.839844 L 285.824219 83.78125 L 285.820312 83.71875 L 285.8125 83.65625 L 285.808594 83.597656 L 285.804688 83.535156 L 285.796875 83.472656 L 285.792969 83.414062 L 285.785156 83.351562 L 285.78125 83.289062 L 285.773438 83.230469 L 285.769531 83.167969 L 285.761719 83.109375 L 285.753906 83.046875 L 285.75 82.988281 "/>
<path style="fill:none;stroke-width:1;stroke-linecap:butt;stroke-linejoin:miter;stroke:rgb(0%,0%,100%);stroke-opacity:1;stroke-dasharray:0.827664;stroke-miterlimit:3.25;" d="M 204.089844 82.988281 L 204.085938 83.046875 L 204.078125 83.109375 L 204.074219 83.167969 L 204.066406 83.230469 L 204.058594 83.289062 L 204.054688 83.351562 L 204.046875 83.414062 L 204.042969 83.472656 L 204.039062 83.535156 L 204.03125 83.597656 L 204.027344 83.65625 L 204.019531 83.71875 L 204.015625 83.78125 L 204.011719 83.839844 L 204.007812 83.902344 L 204 83.964844 L 203.996094 84.023438 L 203.988281 84.148438 L 203.984375 84.207031 L 203.980469 84.269531 L 203.972656 84.332031 L 203.96875 84.390625 L 203.957031 84.578125 L 203.957031 84.636719 L 203.949219 84.761719 L 203.945312 84.820312 L 203.9375 84.945312 L 203.9375 85.007812 L 203.933594 85.066406 L 203.925781 85.191406 L 203.925781 85.253906 L 203.921875 85.316406 L 203.917969 85.375 L 203.917969 85.4375 L 203.914062 85.5 L 203.914062 85.5625 L 203.910156 85.625 L 203.910156 85.683594 L 203.90625 85.746094 L 203.90625 85.871094 L 203.902344 85.933594 L 203.902344 86.054688 L 203.898438 86.117188 L 203.898438 86.425781 L 203.894531 86.488281 L 203.894531 86.675781 "/>
<path style="fill:none;stroke-width:1;stroke-linecap:square;stroke-linejoin:miter;stroke:rgb(0%,0%,100%);stroke-opacity:1;stroke-miterlimit:3.25;" d="M 285.75 82.988281 L 285.441406 80.625 L 285.035156 78.296875 L 284.527344 76.011719 L 283.921875 73.769531 L 283.21875 71.578125 L 282.425781 69.4375 L 281.539062 67.355469 L 280.5625 65.332031 L 279.5 63.371094 L 278.351562 61.480469 L 277.125 59.660156 L 275.824219 57.914062 L 274.445312 56.246094 L 272.996094 54.65625 L 271.480469 53.152344 L 269.898438 51.734375 L 268.257812 50.40625 L 266.5625 49.171875 L 264.8125 48.03125 L 263.015625 46.988281 L 261.175781 46.042969 L 259.292969 45.195312 L 257.375 44.457031 L 255.425781 43.820312 L 253.449219 43.289062 L 251.453125 42.867188 L 249.441406 42.558594 L 247.417969 42.359375 L 245.390625 42.277344 L 243.363281 42.308594 L 241.339844 42.453125 L 239.324219 42.707031 L 237.316406 43.078125 L 235.332031 43.558594 L 233.367188 44.144531 L 231.4375 44.839844 L 229.539062 45.636719 L 227.675781 46.535156 L 225.859375 47.53125 L 224.085938 48.628906 L 222.363281 49.820312 L 220.695312 51.105469 L 219.089844 52.484375 L 217.542969 53.945312 L 216.0625 55.496094 L 214.648438 57.125 L 213.3125 58.835938 L 212.046875 60.625 L 210.863281 62.484375 L 209.761719 64.410156 L 208.746094 66.40625 L 207.816406 68.460938 L 206.980469 70.574219 L 206.234375 72.746094 L 205.582031 74.964844 L 205.027344 77.230469 L 204.574219 79.535156 L 204.222656 81.882812 "/>
<path style=" stroke:none;fill-rule:evenodd;fill:rgb(0%,0%,100%);fill-opacity:1;" d="M 266.378906 48 C 266.378906 47.632812 266.234375 47.285156 265.976562 47.023438 C 265.714844 46.765625 265.367188 46.621094 265 46.621094 C 264.632812 46.621094 264.285156 46.765625 264.023438 47.023438 C 263.765625 47.285156 263.621094 47.632812 263.621094 48 C 263.621094 48.367188 263.765625 48.714844 264.023438 48.976562 C 264.285156 49.234375 264.632812 49.378906 265 49.378906 C 265.367188 49.378906 265.714844 49.234375 265.976562 48.976562 C 266.234375 48.714844 266.378906 48.367188 266.378906 48 Z M 266.378906 48 "/>
<path style=" stroke:none;fill-rule:evenodd;fill:rgb(0%,0%,0%);fill-opacity:1;" d="M 272.164062 43.296875 L 272.164062 42.824219 L 271.398438 42.824219 L 269.546875 40.589844 L 270.816406 39.132812 C 270.9375 38.992188 271.035156 38.90625 271.945312 38.90625 L 271.945312 38.433594 L 270.9375 38.457031 C 270.617188 38.457031 270.148438 38.457031 269.839844 38.433594 L 269.839844 38.90625 C 270.050781 38.90625 270.28125 38.960938 270.28125 39.035156 C 270.28125 39.035156 270.226562 39.132812 270.203125 39.15625 L 269.25 40.230469 L 268.167969 38.90625 L 268.625 38.90625 L 268.625 38.433594 C 268.375 38.457031 267.628906 38.457031 267.332031 38.457031 C 267.003906 38.457031 266.414062 38.457031 266.105469 38.433594 L 266.105469 38.90625 L 266.882812 38.90625 L 268.59375 40.984375 L 267.167969 42.597656 C 267.035156 42.75 266.960938 42.824219 266.050781 42.824219 L 266.050781 43.296875 L 267.070312 43.277344 C 267.386719 43.277344 267.847656 43.277344 268.15625 43.296875 L 268.15625 42.824219 C 267.945312 42.824219 267.714844 42.769531 267.714844 42.695312 C 267.714844 42.695312 267.714844 42.671875 267.792969 42.585938 L 268.886719 41.347656 L 270.105469 42.824219 L 269.644531 42.824219 L 269.644531 43.296875 C 269.910156 43.277344 270.640625 43.277344 270.949219 43.277344 C 271.277344 43.277344 271.859375 43.277344 272.164062 43.296875 Z M 272.164062 43.296875 "/>
<path style=" stroke:none;fill-rule:evenodd;fill:rgb(0%,0%,0%);fill-opacity:1;" d="M 276.816406 43.132812 C 276.816406 42.78125 276.703125 42.503906 276.496094 42.289062 C 276.265625 42.035156 276.011719 41.972656 275.652344 41.882812 L 274.953125 41.714844 C 274.722656 41.660156 274.292969 41.507812 274.292969 40.96875 C 274.292969 40.371094 274.9375 39.726562 275.71875 39.726562 C 276.410156 39.726562 276.886719 40.089844 276.886719 40.917969 C 276.886719 41.101562 276.855469 41.261719 276.855469 41.292969 C 276.855469 41.382812 276.925781 41.398438 276.976562 41.398438 C 277.070312 41.398438 277.078125 41.371094 277.109375 41.246094 L 277.5 39.703125 C 277.507812 39.675781 277.523438 39.628906 277.523438 39.589844 C 277.523438 39.535156 277.476562 39.5 277.421875 39.5 C 277.371094 39.5 277.355469 39.515625 277.269531 39.605469 C 277.183594 39.703125 276.984375 39.949219 276.902344 40.042969 C 276.601562 39.605469 276.121094 39.5 275.726562 39.5 C 274.664062 39.5 273.75 40.394531 273.75 41.269531 C 273.75 41.714844 273.988281 41.972656 274.023438 42.027344 C 274.277344 42.296875 274.5 42.359375 275.050781 42.488281 C 275.320312 42.558594 275.335938 42.558594 275.558594 42.613281 C 275.78125 42.664062 276.273438 42.789062 276.273438 43.425781 C 276.273438 44.09375 275.613281 44.804688 274.808594 44.804688 C 274.308594 44.804688 273.398438 44.652344 273.398438 43.699219 C 273.398438 43.675781 273.398438 43.515625 273.441406 43.332031 L 273.449219 43.253906 C 273.449219 43.164062 273.367188 43.15625 273.335938 43.15625 C 273.234375 43.15625 273.226562 43.1875 273.1875 43.363281 L 272.875 44.613281 C 272.84375 44.730469 272.789062 44.9375 272.789062 44.957031 C 272.789062 45.019531 272.835938 45.058594 272.890625 45.058594 C 272.945312 45.058594 272.953125 45.050781 273.035156 44.949219 C 273.089844 44.890625 273.082031 44.890625 273.40625 44.519531 C 273.582031 44.753906 274.015625 45.058594 274.792969 45.058594 C 275.902344 45.058594 276.816406 44.054688 276.816406 43.132812 Z M 276.816406 43.132812 "/>
<path style=" stroke:none;fill-rule:evenodd;fill:rgb(0%,0%,0%);fill-opacity:1;" d="M 282.09375 44.566406 C 282.09375 44.515625 282.054688 44.480469 282.007812 44.480469 C 281.90625 44.480469 281.792969 44.5 281.695312 44.5 C 281.585938 44.5 281.476562 44.503906 281.359375 44.503906 L 280.90625 44.5 C 280.757812 44.5 280.59375 44.480469 280.449219 44.480469 C 280.40625 44.480469 280.367188 44.480469 280.34375 44.519531 C 280.332031 44.535156 280.3125 44.601562 280.3125 44.625 C 280.328125 44.699219 280.367188 44.699219 280.546875 44.699219 C 280.648438 44.699219 280.757812 44.707031 280.863281 44.710938 C 281.042969 44.730469 281.054688 44.75 281.054688 44.808594 C 281.054688 44.84375 280.957031 45.214844 280.941406 45.28125 C 280.914062 45.398438 280.859375 45.613281 280.496094 45.761719 C 280.179688 45.890625 279.820312 45.890625 279.746094 45.890625 C 279.121094 45.890625 278.390625 45.601562 278.390625 44.683594 C 278.390625 44.324219 278.523438 43.589844 279.074219 43.011719 C 279.253906 42.824219 279.824219 42.363281 280.605469 42.363281 C 281.296875 42.363281 281.679688 42.851562 281.679688 43.441406 C 281.679688 43.535156 281.664062 43.644531 281.664062 43.644531 C 281.664062 43.726562 281.742188 43.726562 281.773438 43.726562 C 281.84375 43.726562 281.871094 43.722656 281.898438 43.605469 L 282.21875 42.304688 C 282.230469 42.253906 282.238281 42.222656 282.238281 42.222656 C 282.238281 42.222656 282.230469 42.144531 282.15625 42.144531 C 282.109375 42.144531 282.105469 42.152344 282.050781 42.210938 L 281.695312 42.582031 L 281.640625 42.628906 C 281.640625 42.628906 281.628906 42.621094 281.613281 42.613281 C 281.476562 42.453125 281.179688 42.144531 280.546875 42.144531 C 279.167969 42.144531 277.816406 43.300781 277.816406 44.542969 C 277.816406 45.40625 278.5 46.113281 279.621094 46.113281 C 280.023438 46.113281 280.617188 46.046875 280.96875 45.691406 C 281 45.761719 281.160156 45.996094 281.242188 45.996094 C 281.261719 45.996094 281.289062 45.980469 281.300781 45.964844 C 281.324219 45.921875 281.46875 45.3125 281.5 45.199219 L 281.570312 44.917969 C 281.625 44.707031 281.640625 44.707031 281.957031 44.699219 C 282.011719 44.699219 282.09375 44.699219 282.09375 44.566406 Z M 282.09375 44.566406 "/>
<path style=" stroke:none;fill-rule:evenodd;fill:rgb(0%,0%,0%);fill-opacity:1;" d="M 287.113281 45.960938 C 287.113281 45.925781 287.113281 45.90625 286.925781 45.71875 C 285.832031 44.613281 285.214844 42.804688 285.214844 40.570312 C 285.214844 38.445312 285.730469 36.617188 287.003906 35.320312 C 287.113281 35.222656 287.113281 35.203125 287.113281 35.167969 C 287.113281 35.105469 287.058594 35.082031 287.011719 35.082031 C 286.871094 35.082031 285.972656 35.871094 285.433594 36.945312 C 284.875 38.050781 284.625 39.222656 284.625 40.570312 C 284.625 41.542969 284.777344 42.847656 285.347656 44.019531 C 285.996094 45.335938 286.894531 46.046875 287.011719 46.046875 C 287.058594 46.046875 287.113281 46.023438 287.113281 45.960938 Z M 287.113281 45.960938 "/>
<path style=" stroke:none;fill-rule:evenodd;fill:rgb(0%,0%,0%);fill-opacity:1;" d="M 291.082031 41.730469 C 291.082031 41.664062 291.039062 41.632812 290.972656 41.632812 C 290.972656 41.632812 290.90625 41.632812 290.882812 41.675781 C 290.882812 41.675781 290.859375 41.699219 290.785156 41.871094 C 290.554688 42.421875 290.050781 43.1875 289.414062 43.1875 C 289.085938 43.1875 289.066406 42.914062 289.066406 42.671875 C 289.066406 42.671875 289.066406 42.453125 289.097656 42.324219 L 289.953125 38.894531 L 290.960938 38.894531 C 291.167969 38.894531 291.277344 38.894531 291.277344 38.695312 C 291.277344 38.578125 291.210938 38.578125 290.992188 38.578125 L 290.03125 38.578125 L 290.433594 36.976562 C 290.476562 36.824219 290.476562 36.800781 290.476562 36.726562 C 290.476562 36.546875 290.335938 36.449219 290.195312 36.449219 C 290.105469 36.449219 289.851562 36.484375 289.765625 36.835938 L 289.339844 38.578125 L 288.308594 38.578125 C 288.089844 38.578125 287.992188 38.578125 287.992188 38.785156 C 287.992188 38.894531 288.066406 38.894531 288.277344 38.894531 L 289.253906 38.894531 L 288.527344 41.785156 C 288.441406 42.167969 288.410156 42.277344 288.410156 42.421875 C 288.410156 42.9375 288.769531 43.40625 289.382812 43.40625 C 290.488281 43.40625 291.082031 41.808594 291.082031 41.730469 Z M 291.082031 41.730469 "/>
<path style=" stroke:none;fill-rule:evenodd;fill:rgb(0%,0%,0%);fill-opacity:1;" d="M 294.636719 40.570312 C 294.636719 39.738281 294.527344 38.378906 293.917969 37.109375 C 293.269531 35.792969 292.371094 35.082031 292.25 35.082031 C 292.207031 35.082031 292.152344 35.105469 292.152344 35.167969 C 292.152344 35.203125 292.152344 35.222656 292.339844 35.410156 C 293.433594 36.515625 294.046875 38.324219 294.046875 40.558594 C 294.046875 42.683594 293.53125 44.511719 292.261719 45.804688 C 292.152344 45.90625 292.152344 45.925781 292.152344 45.960938 C 292.152344 46.023438 292.207031 46.046875 292.25 46.046875 C 292.394531 46.046875 293.292969 45.257812 293.828125 44.183594 C 294.386719 43.066406 294.636719 41.882812 294.636719 40.570312 Z M 294.636719 40.570312 "/>
<g clip-path="url(#clip92)" clip-rule="nonzero">
<path style="fill:none;stroke-width:1;stroke-linecap:square;stroke-linejoin:miter;stroke:rgb(0%,0%,0%);stroke-opacity:1;stroke-miterlimit:3.25;" d="M -159.007812 86.675781 L 668.769531 86.675781 "/>
<path style="fill:none;stroke-width:1;stroke-linecap:square;stroke-linejoin:miter;stroke:rgb(0%,0%,0%);stroke-opacity:1;stroke-miterlimit:3.25;" d="M -159.007812 86.675781 L 668.769531 86.675781 "/>
</g>
<path style=" stroke:none;fill-rule:evenodd;fill:rgb(0%,0%,0%);fill-opacity:1;" d="M 365.542969 77.65625 C 365.554688 77.601562 365.574219 77.535156 365.574219 77.46875 C 365.574219 77.304688 365.445312 77.195312 365.277344 77.195312 C 365.179688 77.195312 364.949219 77.238281 364.863281 77.566406 L 364.050781 80.789062 C 363.996094 80.984375 363.996094 81.007812 363.910156 81.128906 C 363.691406 81.433594 363.328125 81.808594 362.804688 81.808594 C 362.1875 81.808594 362.132812 81.203125 362.132812 80.910156 C 362.132812 80.285156 362.429688 79.441406 362.726562 78.652344 C 362.847656 78.335938 362.914062 78.179688 362.914062 77.960938 C 362.914062 77.5 362.582031 77.085938 362.046875 77.085938 C 361.039062 77.085938 360.632812 78.671875 360.632812 78.761719 C 360.632812 78.804688 360.675781 78.859375 360.753906 78.859375 C 360.855469 78.859375 360.863281 78.816406 360.910156 78.660156 C 361.171875 77.742188 361.585938 77.304688 362.015625 77.304688 C 362.113281 77.304688 362.296875 77.304688 362.296875 77.664062 C 362.296875 77.953125 362.179688 78.269531 362.015625 78.683594 C 361.476562 80.121094 361.476562 80.480469 361.476562 80.746094 C 361.476562 81.785156 362.222656 82.027344 362.769531 82.027344 C 363.085938 82.027344 363.480469 81.925781 363.867188 81.523438 L 363.875 81.535156 C 363.710938 82.179688 363.601562 82.605469 363.21875 83.144531 C 362.921875 83.558594 362.496094 83.933594 361.960938 83.933594 C 361.828125 83.933594 361.300781 83.910156 361.136719 83.40625 C 361.171875 83.417969 361.246094 83.417969 361.246094 83.417969 C 361.574219 83.417969 361.796875 83.132812 361.796875 82.878906 C 361.796875 82.628906 361.585938 82.542969 361.421875 82.542969 C 361.246094 82.542969 360.863281 82.671875 360.863281 83.207031 C 360.863281 83.769531 361.335938 84.152344 361.960938 84.152344 C 363.054688 84.152344 364.160156 83.144531 364.46875 81.925781 Z M 365.542969 77.65625 "/>
<path style=" stroke:none;fill-rule:evenodd;fill:rgb(0%,0%,0%);fill-opacity:1;" d="M 376.785156 78.171875 C 376.785156 77.960938 376.597656 77.960938 376.433594 77.960938 L 369.980469 77.960938 C 369.828125 77.960938 369.628906 77.960938 369.628906 78.160156 C 369.628906 78.367188 369.816406 78.367188 369.980469 78.367188 L 376.433594 78.367188 C 376.585938 78.367188 376.785156 78.367188 376.785156 78.171875 Z M 376.785156 80.207031 C 376.785156 80 376.597656 80 376.433594 80 L 369.980469 80 C 369.828125 80 369.628906 80 369.628906 80.195312 C 369.628906 80.402344 369.816406 80.402344 369.980469 80.402344 L 376.433594 80.402344 C 376.585938 80.402344 376.785156 80.402344 376.785156 80.207031 Z M 376.785156 80.207031 "/>
<path style=" stroke:none;fill-rule:evenodd;fill:rgb(0%,0%,0%);fill-opacity:1;" d="M 385.34375 78.410156 C 385.34375 77.5 385.289062 76.613281 384.894531 75.78125 C 384.445312 74.871094 383.65625 74.632812 383.121094 74.632812 C 382.484375 74.632812 381.707031 74.949219 381.300781 75.859375 C 380.996094 76.546875 380.882812 77.226562 380.882812 78.410156 C 380.882812 79.472656 380.960938 80.273438 381.355469 81.050781 C 381.78125 81.882812 382.539062 82.144531 383.109375 82.144531 C 384.0625 82.144531 384.609375 81.578125 384.929688 80.941406 C 385.320312 80.121094 385.34375 79.046875 385.34375 78.410156 Z M 384.511719 78.28125 C 384.511719 79.011719 384.511719 79.847656 384.390625 80.511719 C 384.183594 81.71875 383.492188 81.925781 383.109375 81.925781 C 382.757812 81.925781 382.046875 81.730469 381.839844 80.535156 C 381.71875 79.878906 381.71875 79.046875 381.71875 78.28125 C 381.71875 77.382812 381.71875 76.570312 381.894531 75.921875 C 382.078125 75.191406 382.636719 74.851562 383.109375 74.851562 C 383.523438 74.851562 384.160156 75.101562 384.367188 76.042969 C 384.511719 76.667969 384.511719 77.535156 384.511719 78.28125 Z M 384.511719 78.28125 "/>
<g clip-path="url(#clip93)" clip-rule="nonzero">
<path style="fill:none;stroke-width:1;stroke-linecap:square;stroke-linejoin:miter;stroke:rgb(0%,0%,0%);stroke-opacity:1;stroke-miterlimit:3.25;" d="M -159.007812 19.835938 L 668.769531 19.835938 "/>
<path style="fill:none;stroke-width:1;stroke-linecap:square;stroke-linejoin:miter;stroke:rgb(0%,0%,0%);stroke-opacity:1;stroke-miterlimit:3.25;" d="M -159.007812 19.835938 L 668.769531 19.835938 "/>
</g>
<path style=" stroke:none;fill-rule:evenodd;fill:rgb(0%,0%,0%);fill-opacity:1;" d="M 365.542969 10.8125 C 365.554688 10.757812 365.574219 10.691406 365.574219 10.628906 C 365.574219 10.464844 365.445312 10.355469 365.277344 10.355469 C 365.179688 10.355469 364.949219 10.398438 364.863281 10.726562 L 364.050781 13.949219 C 363.996094 14.144531 363.996094 14.167969 363.910156 14.285156 C 363.691406 14.59375 363.328125 14.964844 362.804688 14.964844 C 362.1875 14.964844 362.132812 14.363281 362.132812 14.066406 C 362.132812 13.441406 362.429688 12.597656 362.726562 11.808594 C 362.847656 11.492188 362.914062 11.339844 362.914062 11.121094 C 362.914062 10.660156 362.582031 10.246094 362.046875 10.246094 C 361.039062 10.246094 360.632812 11.832031 360.632812 11.917969 C 360.632812 11.964844 360.675781 12.019531 360.753906 12.019531 C 360.855469 12.019531 360.863281 11.976562 360.910156 11.820312 C 361.171875 10.902344 361.585938 10.464844 362.015625 10.464844 C 362.113281 10.464844 362.296875 10.464844 362.296875 10.824219 C 362.296875 11.109375 362.179688 11.425781 362.015625 11.84375 C 361.476562 13.277344 361.476562 13.640625 361.476562 13.902344 C 361.476562 14.945312 362.222656 15.183594 362.769531 15.183594 C 363.085938 15.183594 363.480469 15.085938 363.867188 14.683594 L 363.875 14.691406 C 363.710938 15.339844 363.601562 15.765625 363.21875 16.300781 C 362.921875 16.71875 362.496094 17.089844 361.960938 17.089844 C 361.828125 17.089844 361.300781 17.070312 361.136719 16.566406 C 361.171875 16.578125 361.246094 16.578125 361.246094 16.578125 C 361.574219 16.578125 361.796875 16.289062 361.796875 16.039062 C 361.796875 15.789062 361.585938 15.699219 361.421875 15.699219 C 361.246094 15.699219 360.863281 15.832031 360.863281 16.367188 C 360.863281 16.925781 361.335938 17.308594 361.960938 17.308594 C 363.054688 17.308594 364.160156 16.300781 364.46875 15.085938 Z M 365.542969 10.8125 "/>
<path style=" stroke:none;fill-rule:evenodd;fill:rgb(0%,0%,0%);fill-opacity:1;" d="M 376.785156 11.328125 C 376.785156 11.121094 376.597656 11.121094 376.433594 11.121094 L 369.980469 11.121094 C 369.828125 11.121094 369.628906 11.121094 369.628906 11.316406 C 369.628906 11.527344 369.816406 11.527344 369.980469 11.527344 L 376.433594 11.527344 C 376.585938 11.527344 376.785156 11.527344 376.785156 11.328125 Z M 376.785156 13.367188 C 376.785156 13.160156 376.597656 13.160156 376.433594 13.160156 L 369.980469 13.160156 C 369.828125 13.160156 369.628906 13.160156 369.628906 13.355469 C 369.628906 13.5625 369.816406 13.5625 369.980469 13.5625 L 376.433594 13.5625 C 376.585938 13.5625 376.785156 13.5625 376.785156 13.367188 Z M 376.785156 13.367188 "/>
<path style=" stroke:none;fill-rule:evenodd;fill:rgb(0%,0%,0%);fill-opacity:1;" d="M 384.929688 15.074219 L 384.929688 14.757812 L 384.589844 14.757812 C 383.625 14.757812 383.59375 14.628906 383.59375 14.230469 L 383.59375 8.054688 C 383.59375 7.800781 383.59375 7.789062 383.371094 7.789062 C 383.109375 8.085938 382.5625 8.492188 381.433594 8.492188 L 381.433594 8.808594 C 381.683594 8.808594 382.234375 8.808594 382.835938 8.523438 L 382.835938 14.230469 C 382.835938 14.628906 382.804688 14.757812 381.839844 14.757812 L 381.5 14.757812 L 381.5 15.074219 C 381.796875 15.054688 382.859375 15.054688 383.21875 15.054688 C 383.578125 15.054688 384.632812 15.054688 384.929688 15.074219 Z M 384.929688 15.074219 "/>
</g>
</svg>
