<?xml version="1.0" encoding="UTF-8"?>
<svg xmlns="http://www.w3.org/2000/svg" xmlns:xlink="http://www.w3.org/1999/xlink" width="404pt" height="173pt" viewBox="0 0 404 173" version="1.1">
<defs>
<clipPath id="clip1">
  <path d="M 205 71 L 358 71 L 358 163.679688 L 205 163.679688 Z M 205 71 "/>
</clipPath>
<clipPath id="clip2">
  <path d="M 186.238281 24 L 384.238281 24 L 384.238281 146 L 186.238281 146 Z M 186.238281 24 "/>
</clipPath>
<clipPath id="clip3">
  <path d="M 289 71 L 358 71 L 358 163.679688 L 289 163.679688 Z M 289 71 "/>
</clipPath>
<clipPath id="clip4">
  <path d="M 293 18 L 384.238281 18 L 384.238281 146 L 293 146 Z M 293 18 "/>
</clipPath>
<clipPath id="clip5">
  <path d="M 186.238281 20 L 313 20 L 313 112 L 186.238281 112 Z M 186.238281 20 "/>
</clipPath>
</defs>
<g id="surface128">
<path style=" stroke:none;fill-rule:nonzero;fill:rgb(100%,100%,86.999313%);fill-opacity:1;" d="M 15.695312 63.570312 L 109.132812 63.570312 L 109.132812 157.003906 L 140.277344 157.003906 L 140.277344 32.421875 L 15.695312 32.421875 Z M 15.695312 63.570312 "/>
<path style="fill:none;stroke-width:1;stroke-linecap:square;stroke-linejoin:miter;stroke:rgb(0%,0%,0%);stroke-opacity:1;stroke-miterlimit:3.25;" d="M 15.695312 63.570312 L 109.132812 63.570312 L 109.132812 157.003906 "/>
<path style="fill:none;stroke-width:1;stroke-linecap:square;stroke-linejoin:miter;stroke:rgb(0%,0%,0%);stroke-opacity:1;stroke-miterlimit:3.25;" d="M 15.695312 32.421875 L 140.277344 32.421875 L 140.277344 157.003906 "/>
<path style=" stroke:none;fill-rule:nonzero;fill:rgb(85.000381%,85.000381%,85.000381%);fill-opacity:1;" d="M 15.695312 63.570312 L 15.695312 32.421875 L 140.277344 32.421875 L 140.277344 63.570312 Z M 15.695312 63.570312 "/>
<path style=" stroke:none;fill-rule:nonzero;fill:rgb(85.000381%,85.000381%,85.000381%);fill-opacity:1;" d="M 109.132812 157.003906 L 109.132812 32.421875 L 140.277344 32.421875 L 140.277344 157.003906 Z M 109.132812 157.003906 "/>
<path style=" stroke:none;fill-rule:nonzero;fill:rgb(72.249943%,72.249943%,72.249943%);fill-opacity:1;" d="M 109.132812 63.570312 L 109.132812 32.421875 L 140.277344 32.421875 L 140.277344 63.570312 Z M 109.132812 63.570312 "/>
<path style=" stroke:none;fill-rule:evenodd;fill:rgb(0%,0%,0%);fill-opacity:1;" d="M 110.5 64 C 110.5 63.601562 110.34375 63.21875 110.0625 62.9375 C 109.78125 62.65625 109.398438 62.5 109 62.5 C 108.601562 62.5 108.21875 62.65625 107.9375 62.9375 C 107.65625 63.21875 107.5 63.601562 107.5 64 C 107.5 64.398438 107.65625 64.78125 107.9375 65.0625 C 108.21875 65.34375 108.601562 65.5 109 65.5 C 109.398438 65.5 109.78125 65.34375 110.0625 65.0625 C 110.34375 64.78125 110.5 64.398438 110.5 64 Z M 110.5 64 "/>
<path style=" stroke:none;fill-rule:evenodd;fill:rgb(0%,0%,0%);fill-opacity:1;" d="M 90.039062 55.695312 L 90.039062 55.222656 L 89.269531 55.222656 L 87.410156 52.980469 L 88.6875 51.515625 C 88.808594 51.371094 88.90625 51.285156 89.820312 51.285156 L 89.820312 50.808594 L 88.808594 50.832031 C 88.488281 50.832031 88.015625 50.832031 87.707031 50.808594 L 87.707031 51.285156 C 87.917969 51.285156 88.148438 51.339844 88.148438 51.417969 C 88.148438 51.417969 88.09375 51.515625 88.070312 51.535156 L 87.113281 52.613281 L 86.023438 51.285156 L 86.488281 51.285156 L 86.488281 50.808594 C 86.234375 50.832031 85.484375 50.832031 85.1875 50.832031 C 84.859375 50.832031 84.265625 50.832031 83.957031 50.808594 L 83.957031 51.285156 L 84.738281 51.285156 L 86.453125 53.375 L 85.023438 54.992188 C 84.890625 55.144531 84.8125 55.222656 83.902344 55.222656 L 83.902344 55.695312 L 84.925781 55.675781 C 85.242188 55.675781 85.707031 55.675781 86.015625 55.695312 L 86.015625 55.222656 C 85.804688 55.222656 85.574219 55.167969 85.574219 55.089844 C 85.574219 55.089844 85.574219 55.070312 85.648438 54.980469 L 86.75 53.738281 L 87.972656 55.222656 L 87.511719 55.222656 L 87.511719 55.695312 C 87.773438 55.675781 88.511719 55.675781 88.820312 55.675781 C 89.148438 55.675781 89.734375 55.675781 90.039062 55.695312 Z M 90.039062 55.695312 "/>
<path style=" stroke:none;fill-rule:evenodd;fill:rgb(0%,0%,0%);fill-opacity:1;" d="M 95.398438 55.417969 C 95.398438 55.347656 95.335938 55.308594 95.285156 55.308594 C 95.199219 55.308594 95.1875 55.363281 95.132812 55.476562 C 94.855469 56.1875 94.527344 57.042969 93.160156 57.042969 L 92.191406 57.042969 C 92.121094 57.027344 92.097656 57.027344 92.097656 56.976562 C 92.097656 56.914062 92.113281 56.851562 92.128906 56.808594 L 93.167969 52.671875 C 93.238281 52.414062 93.25 52.328125 93.953125 52.328125 C 94.167969 52.328125 94.246094 52.328125 94.246094 52.183594 C 94.246094 52.183594 94.230469 52.078125 94.117188 52.078125 C 93.953125 52.078125 93.726562 52.09375 93.566406 52.097656 L 93.015625 52.097656 C 92.21875 52.097656 92.039062 52.078125 91.984375 52.078125 C 91.953125 52.078125 91.832031 52.078125 91.832031 52.222656 C 91.832031 52.328125 91.929688 52.328125 92.050781 52.328125 C 92.304688 52.328125 92.527344 52.328125 92.527344 52.449219 C 92.527344 52.480469 92.519531 52.488281 92.496094 52.589844 L 91.472656 56.691406 C 91.402344 56.980469 91.386719 57.042969 90.820312 57.042969 C 90.675781 57.042969 90.585938 57.042969 90.585938 57.191406 C 90.585938 57.296875 90.683594 57.296875 90.8125 57.296875 L 94.503906 57.296875 C 94.695312 57.296875 94.703125 57.289062 94.765625 57.144531 C 94.839844 56.929688 95.398438 55.492188 95.398438 55.417969 Z M 95.398438 55.417969 "/>
<path style=" stroke:none;fill-rule:evenodd;fill:rgb(0%,0%,0%);fill-opacity:1;" d="M 107.082031 51.933594 C 107.082031 51.722656 106.894531 51.722656 106.730469 51.722656 L 100.25 51.722656 C 100.09375 51.722656 99.894531 51.722656 99.894531 51.921875 C 99.894531 52.128906 100.082031 52.128906 100.25 52.128906 L 106.730469 52.128906 C 106.882812 52.128906 107.082031 52.128906 107.082031 51.933594 Z M 107.082031 53.980469 C 107.082031 53.769531 106.894531 53.769531 106.730469 53.769531 L 100.25 53.769531 C 100.09375 53.769531 99.894531 53.769531 99.894531 53.96875 C 99.894531 54.175781 100.082031 54.175781 100.25 54.175781 L 106.730469 54.175781 C 106.882812 54.175781 107.082031 54.175781 107.082031 53.980469 Z M 107.082031 53.980469 "/>
<path style=" stroke:none;fill-rule:evenodd;fill:rgb(0%,0%,0%);fill-opacity:1;" d="M 114.277344 58.367188 C 114.277344 58.335938 114.277344 58.3125 114.089844 58.125 C 112.992188 57.015625 112.375 55.199219 112.375 52.957031 C 112.375 50.820312 112.890625 48.984375 114.167969 47.683594 C 114.277344 47.585938 114.277344 47.566406 114.277344 47.53125 C 114.277344 47.464844 114.222656 47.441406 114.179688 47.441406 C 114.035156 47.441406 113.132812 48.234375 112.59375 49.316406 C 112.035156 50.425781 111.78125 51.601562 111.78125 52.957031 C 111.78125 53.933594 111.933594 55.246094 112.507812 56.421875 C 113.15625 57.742188 114.058594 58.457031 114.179688 58.457031 C 114.222656 58.457031 114.277344 58.4375 114.277344 58.367188 Z M 114.277344 58.367188 "/>
<path style=" stroke:none;fill-rule:evenodd;fill:rgb(0%,0%,0%);fill-opacity:1;" d="M 119.832031 52.175781 C 119.832031 51.261719 119.777344 50.371094 119.378906 49.535156 C 118.929688 48.621094 118.136719 48.378906 117.597656 48.378906 C 116.960938 48.378906 116.179688 48.699219 115.769531 49.613281 C 115.464844 50.304688 115.355469 50.988281 115.355469 52.175781 C 115.355469 53.242188 115.429688 54.046875 115.828125 54.828125 C 116.253906 55.664062 117.015625 55.925781 117.585938 55.925781 C 118.542969 55.925781 119.09375 55.355469 119.414062 54.714844 C 119.808594 53.890625 119.832031 52.8125 119.832031 52.175781 Z M 118.996094 52.042969 C 118.996094 52.78125 118.996094 53.617188 118.875 54.289062 C 118.664062 55.496094 117.972656 55.707031 117.585938 55.707031 C 117.234375 55.707031 116.519531 55.507812 116.308594 54.308594 C 116.191406 53.648438 116.191406 52.8125 116.191406 52.042969 C 116.191406 51.140625 116.191406 50.324219 116.367188 49.675781 C 116.550781 48.941406 117.113281 48.597656 117.585938 48.597656 C 118.003906 48.597656 118.644531 48.851562 118.851562 49.796875 C 118.996094 50.425781 118.996094 51.292969 118.996094 52.042969 Z M 118.996094 52.042969 "/>
<path style=" stroke:none;fill-rule:evenodd;fill:rgb(0%,0%,0%);fill-opacity:1;" d="M 122.347656 55.738281 C 122.347656 55.101562 122.136719 54.628906 121.6875 54.628906 C 121.335938 54.628906 121.160156 54.914062 121.160156 55.15625 C 121.160156 55.398438 121.324219 55.695312 121.699219 55.695312 C 121.839844 55.695312 121.960938 55.652344 122.0625 55.550781 C 122.082031 55.53125 122.105469 55.53125 122.105469 55.53125 C 122.105469 55.53125 122.125 55.683594 122.125 55.738281 C 122.125 56.105469 122.0625 56.816406 121.425781 57.535156 C 121.300781 57.664062 121.300781 57.710938 121.300781 57.710938 C 121.300781 57.765625 121.355469 57.820312 121.414062 57.820312 C 121.5 57.820312 122.347656 57.003906 122.347656 55.738281 Z M 122.347656 55.738281 "/>
<path style=" stroke:none;fill-rule:evenodd;fill:rgb(0%,0%,0%);fill-opacity:1;" d="M 129.929688 52.175781 C 129.929688 51.261719 129.875 50.371094 129.480469 49.535156 C 129.027344 48.621094 128.234375 48.378906 127.695312 48.378906 C 127.058594 48.378906 126.277344 48.699219 125.871094 49.613281 C 125.5625 50.304688 125.453125 50.988281 125.453125 52.175781 C 125.453125 53.242188 125.53125 54.046875 125.925781 54.828125 C 126.355469 55.664062 127.113281 55.925781 127.6875 55.925781 C 128.644531 55.925781 129.195312 55.355469 129.511719 54.714844 C 129.910156 53.890625 129.929688 52.8125 129.929688 52.175781 Z M 129.09375 52.042969 C 129.09375 52.78125 129.09375 53.617188 128.972656 54.289062 C 128.765625 55.496094 128.070312 55.707031 127.6875 55.707031 C 127.335938 55.707031 126.617188 55.507812 126.410156 54.308594 C 126.289062 53.648438 126.289062 52.8125 126.289062 52.042969 C 126.289062 51.140625 126.289062 50.324219 126.464844 49.675781 C 126.652344 48.941406 127.210938 48.597656 127.6875 48.597656 C 128.105469 48.597656 128.742188 48.851562 128.953125 49.796875 C 129.09375 50.425781 129.09375 51.292969 129.09375 52.042969 Z M 129.09375 52.042969 "/>
<path style=" stroke:none;fill-rule:evenodd;fill:rgb(0%,0%,0%);fill-opacity:1;" d="M 133.503906 52.957031 C 133.503906 52.121094 133.394531 50.753906 132.777344 49.480469 C 132.128906 48.160156 131.226562 47.441406 131.105469 47.441406 C 131.0625 47.441406 131.007812 47.464844 131.007812 47.53125 C 131.007812 47.566406 131.007812 47.585938 131.195312 47.773438 C 132.292969 48.886719 132.910156 50.699219 132.910156 52.945312 C 132.910156 55.082031 132.394531 56.917969 131.117188 58.214844 C 131.007812 58.3125 131.007812 58.335938 131.007812 58.367188 C 131.007812 58.4375 131.0625 58.457031 131.105469 58.457031 C 131.25 58.457031 132.152344 57.664062 132.691406 56.585938 C 133.25 55.464844 133.503906 54.277344 133.503906 52.957031 Z M 133.503906 52.957031 "/>
<path style=" stroke:none;fill-rule:evenodd;fill:rgb(0%,0%,0%);fill-opacity:1;" d="M 141.5 32 C 141.5 31.601562 141.34375 31.21875 141.0625 30.9375 C 140.78125 30.65625 140.398438 30.5 140 30.5 C 139.601562 30.5 139.21875 30.65625 138.9375 30.9375 C 138.65625 31.21875 138.5 31.601562 138.5 32 C 138.5 32.398438 138.65625 32.78125 138.9375 33.0625 C 139.21875 33.34375 139.601562 33.5 140 33.5 C 140.398438 33.5 140.78125 33.34375 141.0625 33.0625 C 141.34375 32.78125 141.5 32.398438 141.5 32 Z M 141.5 32 "/>
<path style=" stroke:none;fill-rule:evenodd;fill:rgb(0%,0%,0%);fill-opacity:1;" d="M 121.109375 20.136719 L 121.109375 19.664062 C 120.734375 19.6875 120.691406 19.6875 120.238281 19.6875 L 119.292969 19.664062 L 119.292969 20.136719 C 119.292969 20.136719 119.820312 20.136719 119.820312 20.28125 C 119.820312 20.316406 119.789062 20.378906 119.777344 20.414062 L 118.492188 23.1875 L 117.082031 20.136719 L 117.6875 20.136719 L 117.6875 19.664062 C 117.421875 19.6875 116.675781 19.6875 116.367188 19.6875 C 116.046875 19.6875 115.398438 19.6875 115.113281 19.664062 L 115.113281 20.136719 L 115.816406 20.136719 L 117.851562 24.550781 C 117.796875 24.683594 117.644531 25.003906 117.589844 25.132812 C 117.359375 25.628906 117.003906 26.386719 116.234375 26.386719 C 116.191406 26.386719 116.058594 26.386719 115.9375 26.324219 C 115.960938 26.3125 116.289062 26.179688 116.289062 25.761719 C 116.289062 25.398438 116.027344 25.167969 115.695312 25.167969 C 115.355469 25.167969 115.089844 25.398438 115.089844 25.773438 C 115.089844 26.289062 115.574219 26.75 116.234375 26.75 C 117.136719 26.75 117.730469 25.9375 117.953125 25.453125 L 120.292969 20.378906 C 120.359375 20.226562 120.402344 20.136719 121.109375 20.136719 Z M 121.109375 20.136719 "/>
<path style=" stroke:none;fill-rule:evenodd;fill:rgb(0%,0%,0%);fill-opacity:1;" d="M 126.542969 24.269531 C 126.542969 24.203125 126.480469 24.164062 126.429688 24.164062 C 126.34375 24.164062 126.332031 24.21875 126.277344 24.332031 C 126 25.042969 125.671875 25.898438 124.304688 25.898438 L 123.335938 25.898438 C 123.265625 25.882812 123.242188 25.882812 123.242188 25.832031 C 123.242188 25.769531 123.257812 25.707031 123.273438 25.660156 L 124.3125 21.527344 C 124.382812 21.269531 124.394531 21.183594 125.097656 21.183594 C 125.3125 21.183594 125.390625 21.183594 125.390625 21.039062 C 125.390625 21.039062 125.375 20.933594 125.261719 20.933594 C 125.097656 20.933594 124.871094 20.949219 124.710938 20.953125 L 124.160156 20.953125 C 123.363281 20.953125 123.183594 20.933594 123.128906 20.933594 C 123.097656 20.933594 122.976562 20.933594 122.976562 21.078125 C 122.976562 21.183594 123.074219 21.183594 123.195312 21.183594 C 123.449219 21.183594 123.671875 21.183594 123.671875 21.304688 C 123.671875 21.335938 123.664062 21.34375 123.640625 21.441406 L 122.617188 25.546875 C 122.546875 25.835938 122.53125 25.898438 121.964844 25.898438 C 121.820312 25.898438 121.730469 25.898438 121.730469 26.042969 C 121.730469 26.152344 121.828125 26.152344 121.957031 26.152344 L 125.648438 26.152344 C 125.839844 26.152344 125.847656 26.144531 125.910156 25.996094 C 125.984375 25.785156 126.542969 24.347656 126.542969 24.269531 Z M 126.542969 24.269531 "/>
<path style=" stroke:none;fill-rule:evenodd;fill:rgb(0%,0%,0%);fill-opacity:1;" d="M 138.226562 20.789062 C 138.226562 20.578125 138.039062 20.578125 137.875 20.578125 L 131.394531 20.578125 C 131.238281 20.578125 131.042969 20.578125 131.042969 20.777344 C 131.042969 20.984375 131.230469 20.984375 131.394531 20.984375 L 137.875 20.984375 C 138.027344 20.984375 138.226562 20.984375 138.226562 20.789062 Z M 138.226562 22.832031 C 138.226562 22.625 138.039062 22.625 137.875 22.625 L 131.394531 22.625 C 131.238281 22.625 131.042969 22.625 131.042969 22.824219 C 131.042969 23.03125 131.230469 23.03125 131.394531 23.03125 L 137.875 23.03125 C 138.027344 23.03125 138.226562 23.03125 138.226562 22.832031 Z M 138.226562 22.832031 "/>
<path style=" stroke:none;fill-rule:evenodd;fill:rgb(0%,0%,0%);fill-opacity:1;" d="M 145.425781 27.222656 C 145.425781 27.191406 145.425781 27.167969 145.238281 26.980469 C 144.136719 25.871094 143.519531 24.054688 143.519531 21.808594 C 143.519531 19.675781 144.035156 17.839844 145.3125 16.539062 C 145.425781 16.441406 145.425781 16.417969 145.425781 16.386719 C 145.425781 16.320312 145.367188 16.296875 145.324219 16.296875 C 145.183594 16.296875 144.277344 17.089844 143.738281 18.167969 C 143.179688 19.28125 142.925781 20.457031 142.925781 21.808594 C 142.925781 22.789062 143.082031 24.097656 143.652344 25.277344 C 144.300781 26.597656 145.203125 27.3125 145.324219 27.3125 C 145.367188 27.3125 145.425781 27.292969 145.425781 27.222656 Z M 145.425781 27.222656 "/>
<path style=" stroke:none;fill-rule:evenodd;fill:rgb(0%,0%,0%);fill-opacity:1;" d="M 150.558594 24.550781 L 150.558594 24.230469 L 150.21875 24.230469 C 149.25 24.230469 149.214844 24.097656 149.214844 23.703125 L 149.214844 17.496094 C 149.214844 17.246094 149.214844 17.234375 148.996094 17.234375 C 148.730469 17.53125 148.179688 17.9375 147.046875 17.9375 L 147.046875 18.257812 C 147.300781 18.257812 147.851562 18.257812 148.457031 17.972656 L 148.457031 23.703125 C 148.457031 24.097656 148.421875 24.230469 147.453125 24.230469 L 147.113281 24.230469 L 147.113281 24.550781 C 147.410156 24.527344 148.476562 24.527344 148.84375 24.527344 C 149.203125 24.527344 150.261719 24.527344 150.558594 24.550781 Z M 150.558594 24.550781 "/>
<path style=" stroke:none;fill-rule:evenodd;fill:rgb(0%,0%,0%);fill-opacity:1;" d="M 153.492188 24.59375 C 153.492188 23.957031 153.28125 23.484375 152.832031 23.484375 C 152.480469 23.484375 152.304688 23.769531 152.304688 24.011719 C 152.304688 24.253906 152.46875 24.550781 152.84375 24.550781 C 152.984375 24.550781 153.109375 24.507812 153.207031 24.40625 C 153.226562 24.386719 153.25 24.386719 153.25 24.386719 C 153.25 24.386719 153.273438 24.539062 153.273438 24.59375 C 153.273438 24.957031 153.207031 25.671875 152.570312 26.386719 C 152.445312 26.519531 152.445312 26.566406 152.445312 26.566406 C 152.445312 26.621094 152.5 26.675781 152.558594 26.675781 C 152.644531 26.675781 153.492188 25.859375 153.492188 24.59375 Z M 153.492188 24.59375 "/>
<path style=" stroke:none;fill-rule:evenodd;fill:rgb(0%,0%,0%);fill-opacity:1;" d="M 160.65625 24.550781 L 160.65625 24.230469 L 160.316406 24.230469 C 159.347656 24.230469 159.316406 24.097656 159.316406 23.703125 L 159.316406 17.496094 C 159.316406 17.246094 159.316406 17.234375 159.09375 17.234375 C 158.832031 17.53125 158.28125 17.9375 157.148438 17.9375 L 157.148438 18.257812 C 157.402344 18.257812 157.953125 18.257812 158.554688 17.972656 L 158.554688 23.703125 C 158.554688 24.097656 158.523438 24.230469 157.554688 24.230469 L 157.214844 24.230469 L 157.214844 24.550781 C 157.511719 24.527344 158.578125 24.527344 158.941406 24.527344 C 159.304688 24.527344 160.359375 24.527344 160.65625 24.550781 Z M 160.65625 24.550781 "/>
<path style=" stroke:none;fill-rule:evenodd;fill:rgb(0%,0%,0%);fill-opacity:1;" d="M 164.648438 21.808594 C 164.648438 20.972656 164.539062 19.609375 163.921875 18.332031 C 163.273438 17.011719 162.371094 16.296875 162.25 16.296875 C 162.207031 16.296875 162.152344 16.320312 162.152344 16.386719 C 162.152344 16.417969 162.152344 16.441406 162.339844 16.628906 C 163.4375 17.738281 164.054688 19.554688 164.054688 21.800781 C 164.054688 23.933594 163.539062 25.773438 162.261719 27.070312 C 162.152344 27.167969 162.152344 27.191406 162.152344 27.222656 C 162.152344 27.292969 162.207031 27.3125 162.25 27.3125 C 162.394531 27.3125 163.296875 26.519531 163.835938 25.441406 C 164.398438 24.320312 164.648438 23.132812 164.648438 21.808594 Z M 164.648438 21.808594 "/>
<path style=" stroke:none;fill-rule:evenodd;fill:rgb(0%,0%,0%);fill-opacity:1;" d="M 64.394531 43.34375 C 64.394531 43.222656 64.296875 43.222656 64.230469 43.222656 C 64.03125 43.222656 63.800781 43.242188 63.59375 43.242188 L 62.292969 43.242188 C 62.085938 43.242188 61.851562 43.222656 61.644531 43.222656 C 61.566406 43.222656 61.4375 43.222656 61.4375 43.429688 C 61.4375 43.539062 61.511719 43.539062 61.722656 43.539062 C 62.382812 43.539062 62.382812 43.628906 62.382812 43.75 C 62.382812 43.75 62.382812 43.839844 62.335938 44.003906 L 61.667969 46.664062 L 58.34375 46.664062 L 59.003906 44.023438 C 59.101562 43.652344 59.125 43.539062 59.90625 43.539062 C 60.105469 43.539062 60.214844 43.539062 60.214844 43.34375 C 60.214844 43.222656 60.113281 43.222656 60.050781 43.222656 C 59.851562 43.222656 59.621094 43.242188 59.410156 43.242188 L 58.113281 43.242188 C 57.902344 43.242188 57.671875 43.222656 57.464844 43.222656 C 57.386719 43.222656 57.253906 43.222656 57.253906 43.429688 C 57.253906 43.539062 57.332031 43.539062 57.539062 43.539062 C 58.199219 43.539062 58.199219 43.628906 58.199219 43.75 C 58.199219 43.75 58.199219 43.839844 58.15625 44.003906 L 56.671875 49.925781 C 56.570312 50.308594 56.546875 50.417969 55.789062 50.417969 C 55.535156 50.417969 55.460938 50.417969 55.460938 50.628906 C 55.460938 50.738281 55.578125 50.738281 55.613281 50.738281 C 55.8125 50.738281 56.042969 50.714844 56.25 50.714844 L 57.550781 50.714844 C 57.761719 50.714844 57.992188 50.738281 58.199219 50.738281 C 58.289062 50.738281 58.410156 50.738281 58.410156 50.527344 C 58.410156 50.417969 58.308594 50.417969 58.144531 50.417969 C 57.472656 50.417969 57.472656 50.332031 57.472656 50.222656 C 57.472656 50.222656 57.472656 50.132812 57.496094 50.042969 L 58.253906 46.984375 L 61.589844 46.984375 L 60.820312 50.078125 C 60.699219 50.410156 60.523438 50.410156 59.871094 50.417969 C 59.738281 50.417969 59.640625 50.417969 59.640625 50.628906 C 59.640625 50.738281 59.761719 50.738281 59.796875 50.738281 C 59.992188 50.738281 60.222656 50.714844 60.433594 50.714844 L 61.734375 50.714844 C 61.941406 50.714844 62.171875 50.738281 62.382812 50.738281 C 62.46875 50.738281 62.589844 50.738281 62.589844 50.527344 C 62.589844 50.417969 62.492188 50.417969 62.328125 50.417969 C 61.65625 50.417969 61.65625 50.332031 61.65625 50.222656 C 61.65625 50.222656 61.65625 50.132812 61.679688 50.042969 L 63.1875 44.023438 C 63.285156 43.652344 63.304688 43.539062 64.089844 43.539062 C 64.285156 43.539062 64.394531 43.539062 64.394531 43.34375 Z M 64.394531 43.34375 "/>
<path style=" stroke:none;fill-rule:evenodd;fill:rgb(0%,0%,0%);fill-opacity:1;" d="M 69.054688 50.457031 C 69.054688 50.390625 68.992188 50.351562 68.9375 50.351562 C 68.851562 50.351562 68.839844 50.40625 68.785156 50.519531 C 68.507812 51.230469 68.179688 52.085938 66.8125 52.085938 L 65.84375 52.085938 C 65.773438 52.070312 65.75 52.070312 65.75 52.019531 C 65.75 51.957031 65.765625 51.894531 65.78125 51.847656 L 66.820312 47.714844 C 66.890625 47.453125 66.902344 47.371094 67.609375 47.371094 C 67.820312 47.371094 67.898438 47.371094 67.898438 47.226562 C 67.898438 47.226562 67.882812 47.117188 67.769531 47.117188 C 67.609375 47.117188 67.378906 47.132812 67.21875 47.140625 L 66.667969 47.140625 C 65.871094 47.140625 65.691406 47.117188 65.636719 47.117188 C 65.605469 47.117188 65.484375 47.117188 65.484375 47.265625 C 65.484375 47.371094 65.582031 47.371094 65.703125 47.371094 C 65.957031 47.371094 66.179688 47.371094 66.179688 47.492188 C 66.179688 47.523438 66.171875 47.53125 66.148438 47.628906 L 65.125 51.734375 C 65.054688 52.023438 65.039062 52.085938 64.472656 52.085938 C 64.328125 52.085938 64.238281 52.085938 64.238281 52.234375 C 64.238281 52.339844 64.335938 52.339844 64.464844 52.339844 L 68.15625 52.339844 C 68.351562 52.339844 68.355469 52.332031 68.417969 52.1875 C 68.492188 51.972656 69.054688 50.535156 69.054688 50.457031 Z M 69.054688 50.457031 "/>
<path style=" stroke:none;fill-rule:evenodd;fill:rgb(0%,0%,0%);fill-opacity:1;" d="M 126.992188 105.621094 C 126.992188 105.578125 126.96875 105.511719 126.867188 105.511719 C 126.671875 105.511719 126.199219 105.535156 126 105.535156 C 125.679688 105.535156 125.351562 105.511719 125.042969 105.511719 C 124.953125 105.511719 124.84375 105.511719 124.84375 105.722656 C 124.84375 105.820312 124.945312 105.832031 124.988281 105.832031 C 125.394531 105.863281 125.4375 106.0625 125.4375 106.195312 C 125.4375 106.359375 125.273438 106.621094 125.273438 106.621094 L 121.820312 112.101562 L 121.046875 106.171875 C 121.046875 105.851562 121.621094 105.832031 121.742188 105.832031 C 121.90625 105.832031 122.007812 105.832031 122.007812 105.621094 C 122.007812 105.511719 121.882812 105.511719 121.851562 105.511719 C 121.664062 105.511719 121.445312 105.535156 121.257812 105.535156 L 120.640625 105.535156 C 119.835938 105.535156 119.496094 105.511719 119.496094 105.511719 C 119.429688 105.511719 119.296875 105.511719 119.296875 105.710938 C 119.296875 105.832031 119.375 105.832031 119.550781 105.832031 C 120.113281 105.832031 120.148438 105.929688 120.179688 106.207031 L 121.058594 112.992188 C 121.09375 113.226562 121.09375 113.257812 121.246094 113.257812 C 121.378906 113.257812 121.433594 113.226562 121.542969 113.046875 L 125.515625 106.734375 C 125.890625 106.140625 126.230469 105.875 126.792969 105.832031 C 126.902344 105.820312 126.992188 105.820312 126.992188 105.621094 Z M 126.992188 105.621094 "/>
<path style=" stroke:none;fill-rule:evenodd;fill:rgb(0%,0%,0%);fill-opacity:1;" d="M 130.203125 112.746094 C 130.203125 112.679688 130.140625 112.640625 130.085938 112.640625 C 130 112.640625 129.988281 112.695312 129.933594 112.808594 C 129.65625 113.519531 129.328125 114.375 127.960938 114.375 L 126.992188 114.375 C 126.921875 114.359375 126.898438 114.359375 126.898438 114.304688 C 126.898438 114.242188 126.914062 114.183594 126.929688 114.136719 L 127.96875 110.003906 C 128.039062 109.746094 128.054688 109.660156 128.757812 109.660156 C 128.96875 109.660156 129.046875 109.660156 129.046875 109.515625 C 129.046875 109.515625 129.03125 109.410156 128.917969 109.410156 C 128.757812 109.410156 128.527344 109.425781 128.367188 109.429688 L 127.816406 109.429688 C 127.023438 109.429688 126.839844 109.410156 126.785156 109.410156 C 126.753906 109.410156 126.632812 109.410156 126.632812 109.554688 C 126.632812 109.660156 126.730469 109.660156 126.851562 109.660156 C 127.105469 109.660156 127.328125 109.660156 127.328125 109.78125 C 127.328125 109.8125 127.320312 109.820312 127.296875 109.917969 L 126.273438 114.023438 C 126.203125 114.3125 126.1875 114.375 125.625 114.375 C 125.476562 114.375 125.386719 114.375 125.386719 114.519531 C 125.386719 114.625 125.484375 114.625 125.617188 114.625 L 129.304688 114.625 C 129.5 114.625 129.503906 114.617188 129.566406 114.472656 C 129.640625 114.257812 130.203125 112.824219 130.203125 112.746094 Z M 130.203125 112.746094 "/>
<path style="fill:none;stroke-width:1;stroke-linecap:butt;stroke-linejoin:miter;stroke:rgb(0%,0%,100%);stroke-opacity:1;stroke-miterlimit:3.25;" d="M 109.132812 63.570312 L 15.695312 63.570312 "/>
<path style=" stroke:none;fill-rule:nonzero;fill:rgb(0%,0%,100%);fill-opacity:1;" d="M 69.226562 65.363281 L 69.128906 65.15625 L 68.910156 64.667969 L 68.792969 64.375 L 68.691406 64.078125 L 68.621094 63.800781 L 68.597656 63.570312 L 68.621094 63.359375 L 68.691406 63.085938 L 68.792969 62.777344 L 68.910156 62.464844 L 69.128906 61.929688 L 69.226562 61.703125 L 62.414062 63.570312 Z M 69.226562 65.363281 "/>
<path style=" stroke:none;fill-rule:evenodd;fill:rgb(0%,0%,0%);fill-opacity:1;" d="M 61.945312 73.167969 C 61.945312 73.113281 61.902344 73.070312 61.835938 73.070312 C 61.738281 73.070312 61.726562 73.125 61.683594 73.289062 C 61.519531 73.941406 61.308594 74.632812 60.855469 74.632812 C 60.539062 74.632812 60.515625 74.347656 60.515625 74.128906 C 60.515625 74.082031 60.515625 73.851562 60.59375 73.542969 L 62.144531 67.382812 C 62.15625 67.339844 62.175781 67.269531 62.175781 67.214844 C 62.175781 67.105469 62.046875 67.105469 62.046875 67.105469 C 62.046875 67.105469 61.496094 67.152344 61.441406 67.160156 C 61.253906 67.171875 61.089844 67.195312 60.890625 67.207031 C 60.613281 67.226562 60.539062 67.238281 60.539062 67.4375 C 60.539062 67.546875 60.625 67.546875 60.78125 67.546875 C 61.320312 67.546875 61.332031 67.644531 61.332031 67.753906 C 61.332031 67.820312 61.308594 67.910156 61.296875 67.941406 L 60.625 70.617188 C 60.503906 70.332031 60.207031 69.890625 59.636719 69.890625 C 58.394531 69.890625 57.050781 71.496094 57.050781 73.125 C 57.050781 74.214844 57.6875 74.851562 58.4375 74.851562 C 59.042969 74.851562 59.558594 74.378906 59.867188 74.015625 C 59.976562 74.667969 60.496094 74.851562 60.824219 74.851562 C 61.152344 74.851562 61.417969 74.65625 61.617188 74.257812 C 61.792969 73.886719 61.945312 73.214844 61.945312 73.167969 Z M 59.921875 73.433594 C 59.867188 73.621094 59.867188 73.644531 59.714844 73.851562 C 59.472656 74.160156 58.988281 74.632812 58.46875 74.632812 C 58.019531 74.632812 57.765625 74.226562 57.765625 73.578125 C 57.765625 72.972656 58.105469 71.738281 58.316406 71.277344 C 58.691406 70.507812 59.207031 70.109375 59.636719 70.109375 C 60.363281 70.109375 60.503906 71.011719 60.503906 71.101562 C 60.503906 71.101562 60.472656 71.253906 60.460938 71.277344 Z M 59.921875 73.433594 "/>
<path style=" stroke:none;fill-rule:evenodd;fill:rgb(0%,0%,0%);fill-opacity:1;" d="M 67.40625 74.464844 C 67.40625 74.394531 67.34375 74.355469 67.289062 74.355469 C 67.207031 74.355469 67.191406 74.410156 67.136719 74.523438 C 66.863281 75.234375 66.535156 76.089844 65.167969 76.089844 L 64.195312 76.089844 C 64.128906 76.074219 64.105469 76.074219 64.105469 76.023438 C 64.105469 75.960938 64.121094 75.898438 64.132812 75.855469 L 65.171875 71.71875 C 65.242188 71.460938 65.257812 71.375 65.960938 71.375 C 66.175781 71.375 66.25 71.375 66.25 71.230469 C 66.25 71.230469 66.234375 71.125 66.121094 71.125 C 65.960938 71.125 65.730469 71.140625 65.570312 71.144531 L 65.023438 71.144531 C 64.226562 71.144531 64.042969 71.125 63.988281 71.125 C 63.960938 71.125 63.835938 71.125 63.835938 71.269531 C 63.835938 71.375 63.9375 71.375 64.058594 71.375 C 64.3125 71.375 64.53125 71.375 64.53125 71.496094 C 64.53125 71.527344 64.523438 71.535156 64.5 71.636719 L 63.476562 75.738281 C 63.410156 76.027344 63.394531 76.089844 62.828125 76.089844 C 62.683594 76.089844 62.59375 76.089844 62.59375 76.238281 C 62.59375 76.34375 62.691406 76.34375 62.820312 76.34375 L 66.511719 76.34375 C 66.703125 76.34375 66.710938 76.335938 66.773438 76.191406 C 66.847656 75.976562 67.40625 74.539062 67.40625 74.464844 Z M 67.40625 74.464844 "/>
<path style="fill:none;stroke-width:1;stroke-linecap:butt;stroke-linejoin:miter;stroke:rgb(0%,0%,100%);stroke-opacity:1;stroke-miterlimit:3.25;" d="M 109.132812 63.570312 L 109.132812 157.003906 "/>
<path style=" stroke:none;fill-rule:nonzero;fill:rgb(0%,0%,100%);fill-opacity:1;" d="M 110.925781 103.472656 L 110.722656 103.574219 L 110.230469 103.792969 L 109.9375 103.90625 L 109.640625 104.007812 L 109.363281 104.078125 L 109.132812 104.101562 L 108.921875 104.078125 L 108.648438 104.007812 L 108.34375 103.90625 L 108.03125 103.792969 L 107.496094 103.574219 L 107.269531 103.472656 L 109.132812 110.285156 Z M 110.925781 103.472656 "/>
<path style=" stroke:none;fill-rule:evenodd;fill:rgb(0%,0%,0%);fill-opacity:1;" d="M 99.632812 109.902344 C 99.632812 108.890625 99.0625 108.171875 98.238281 108.171875 C 97.664062 108.171875 97.144531 108.648438 96.9375 108.867188 L 97.742188 105.667969 C 97.753906 105.621094 97.773438 105.554688 97.773438 105.5 C 97.773438 105.390625 97.640625 105.390625 97.640625 105.390625 L 97.035156 105.445312 C 96.847656 105.457031 96.6875 105.480469 96.488281 105.488281 C 96.222656 105.511719 96.148438 105.523438 96.148438 105.722656 C 96.148438 105.832031 96.257812 105.832031 96.367188 105.832031 C 96.925781 105.832031 96.925781 105.929688 96.925781 106.039062 C 96.925781 106.117188 96.839844 106.4375 96.792969 106.632812 L 96.53125 107.691406 L 95.75 110.824219 C 95.695312 111.101562 95.695312 111.285156 95.695312 111.429688 C 95.695312 112.550781 96.320312 113.132812 97.035156 113.132812 C 98.3125 113.132812 99.632812 111.496094 99.632812 109.902344 Z M 98.335938 111.792969 C 98.058594 112.386719 97.554688 112.914062 97.046875 112.914062 C 96.695312 112.914062 96.3125 112.652344 96.3125 111.792969 C 96.3125 111.429688 96.34375 111.222656 96.542969 110.449219 L 96.792969 109.460938 C 96.816406 109.375 97.464844 108.394531 98.214844 108.394531 C 98.699219 108.394531 98.917969 108.878906 98.917969 109.449219 C 98.917969 109.976562 98.609375 111.222656 98.335938 111.792969 Z M 98.335938 111.792969 "/>
<path style=" stroke:none;fill-rule:evenodd;fill:rgb(0%,0%,0%);fill-opacity:1;" d="M 104.992188 112.746094 C 104.992188 112.675781 104.929688 112.636719 104.878906 112.636719 C 104.792969 112.636719 104.78125 112.691406 104.726562 112.804688 C 104.449219 113.515625 104.121094 114.375 102.753906 114.375 L 101.785156 114.375 C 101.71875 114.359375 101.695312 114.359375 101.695312 114.304688 C 101.695312 114.242188 101.710938 114.179688 101.722656 114.136719 L 102.761719 110.003906 C 102.832031 109.742188 102.847656 109.660156 103.550781 109.660156 C 103.761719 109.660156 103.839844 109.660156 103.839844 109.515625 C 103.839844 109.515625 103.824219 109.40625 103.710938 109.40625 C 103.550781 109.40625 103.320312 109.421875 103.160156 109.429688 L 102.609375 109.429688 C 101.816406 109.429688 101.632812 109.40625 101.578125 109.40625 C 101.546875 109.40625 101.425781 109.40625 101.425781 109.554688 C 101.425781 109.660156 101.523438 109.660156 101.648438 109.660156 C 101.898438 109.660156 102.121094 109.660156 102.121094 109.78125 C 102.121094 109.8125 102.113281 109.820312 102.089844 109.917969 L 101.066406 114.023438 C 101 114.3125 100.984375 114.375 100.417969 114.375 C 100.273438 114.375 100.179688 114.375 100.179688 114.519531 C 100.179688 114.625 100.28125 114.625 100.410156 114.625 L 104.097656 114.625 C 104.292969 114.625 104.296875 114.617188 104.359375 114.472656 C 104.433594 114.257812 104.992188 112.820312 104.992188 112.746094 Z M 104.992188 112.746094 "/>
<path style="fill:none;stroke-width:1;stroke-linecap:square;stroke-linejoin:miter;stroke:rgb(100%,0%,0%);stroke-opacity:1;stroke-miterlimit:3.25;" d="M 140.277344 26.195312 L 140.277344 157.003906 "/>
<path style=" stroke:none;fill-rule:evenodd;fill:rgb(0%,0%,0%);fill-opacity:1;" d="M 146.769531 111.714844 C 146.714844 111.902344 146.714844 111.925781 146.558594 112.136719 C 146.316406 112.441406 145.832031 112.917969 145.316406 112.917969 C 144.863281 112.917969 144.613281 112.507812 144.613281 111.859375 C 144.613281 111.253906 144.953125 110.023438 145.164062 109.5625 C 145.535156 108.789062 146.054688 108.394531 146.484375 108.394531 C 147.207031 108.394531 147.351562 109.296875 147.351562 109.382812 C 147.351562 109.382812 147.320312 109.539062 147.308594 109.5625 Z M 148.792969 111.453125 C 148.792969 111.398438 148.75 111.355469 148.683594 111.355469 C 148.585938 111.355469 148.574219 111.410156 148.527344 111.574219 C 148.363281 112.222656 148.15625 112.917969 147.703125 112.917969 C 147.382812 112.917969 147.363281 112.628906 147.363281 112.410156 C 147.363281 112.15625 147.394531 112.035156 147.496094 111.605469 L 147.714844 110.769531 C 148.121094 109.121094 148.21875 108.722656 148.21875 108.65625 C 148.21875 108.503906 148.101562 108.382812 147.933594 108.382812 C 147.582031 108.382812 147.496094 108.769531 147.472656 108.898438 C 147.351562 108.613281 147.054688 108.171875 146.484375 108.171875 C 145.238281 108.171875 143.898438 109.78125 143.898438 111.410156 C 143.898438 112.496094 144.535156 113.136719 145.285156 113.136719 C 145.886719 113.136719 146.40625 112.664062 146.714844 112.300781 C 146.824219 112.949219 147.339844 113.136719 147.671875 113.136719 C 148 113.136719 148.265625 112.9375 148.460938 112.542969 C 148.640625 112.167969 148.792969 111.496094 148.792969 111.453125 Z M 148.792969 111.453125 "/>
<path style=" stroke:none;fill-rule:evenodd;fill:rgb(0%,0%,0%);fill-opacity:1;" d="M 154.25 112.746094 C 154.25 112.675781 154.1875 112.636719 154.136719 112.636719 C 154.050781 112.636719 154.039062 112.691406 153.984375 112.808594 C 153.707031 113.519531 153.378906 114.375 152.011719 114.375 L 151.042969 114.375 C 150.972656 114.359375 150.949219 114.359375 150.949219 114.304688 C 150.949219 114.242188 150.964844 114.179688 150.980469 114.136719 L 152.019531 110.003906 C 152.089844 109.742188 152.105469 109.660156 152.804688 109.660156 C 153.019531 109.660156 153.097656 109.660156 153.097656 109.515625 C 153.097656 109.515625 153.082031 109.40625 152.96875 109.40625 C 152.804688 109.40625 152.578125 109.421875 152.417969 109.429688 L 151.867188 109.429688 C 151.074219 109.429688 150.890625 109.40625 150.835938 109.40625 C 150.804688 109.40625 150.683594 109.40625 150.683594 109.554688 C 150.683594 109.660156 150.78125 109.660156 150.902344 109.660156 C 151.15625 109.660156 151.378906 109.660156 151.378906 109.78125 C 151.378906 109.8125 151.371094 109.820312 151.347656 109.917969 L 150.324219 114.023438 C 150.253906 114.3125 150.238281 114.375 149.675781 114.375 C 149.527344 114.375 149.4375 114.375 149.4375 114.519531 C 149.4375 114.625 149.535156 114.625 149.667969 114.625 L 153.355469 114.625 C 153.546875 114.625 153.554688 114.617188 153.617188 114.472656 C 153.691406 114.257812 154.25 112.824219 154.25 112.746094 Z M 154.25 112.746094 "/>
<path style="fill:none;stroke-width:1;stroke-linecap:square;stroke-linejoin:miter;stroke:rgb(100%,0%,0%);stroke-opacity:1;stroke-miterlimit:3.25;" d="M 146.507812 32.421875 L 15.695312 32.421875 "/>
<path style=" stroke:none;fill-rule:evenodd;fill:rgb(0%,0%,0%);fill-opacity:1;" d="M 61.691406 26.464844 C 61.691406 26.398438 61.621094 26.34375 61.578125 26.34375 C 61.546875 26.34375 61.535156 26.355469 61.4375 26.453125 C 60.730469 27.390625 59.6875 27.554688 59.265625 27.554688 C 58.507812 27.554688 58.265625 26.894531 58.265625 26.34375 C 58.265625 25.960938 58.453125 24.890625 58.851562 24.144531 C 59.136719 23.625 59.730469 23.03125 60.425781 23.03125 C 60.566406 23.03125 61.171875 23.054688 61.394531 23.527344 C 61.183594 23.527344 61.082031 23.527344 60.929688 23.660156 C 60.863281 23.714844 60.742188 23.878906 60.742188 24.054688 C 60.742188 24.277344 60.910156 24.40625 61.117188 24.40625 C 61.378906 24.40625 61.679688 24.1875 61.679688 23.746094 C 61.679688 23.21875 61.171875 22.8125 60.414062 22.8125 C 58.96875 22.8125 57.53125 24.386719 57.53125 25.949219 C 57.53125 26.90625 58.125 27.773438 59.246094 27.773438 C 60.742188 27.773438 61.691406 26.609375 61.691406 26.464844 Z M 61.691406 26.464844 "/>
<path style=" stroke:none;fill-rule:evenodd;fill:rgb(0%,0%,0%);fill-opacity:1;" d="M 66.886719 27.386719 C 66.886719 27.316406 66.824219 27.277344 66.773438 27.277344 C 66.6875 27.277344 66.671875 27.332031 66.617188 27.445312 C 66.34375 28.15625 66.015625 29.015625 64.648438 29.015625 L 63.675781 29.015625 C 63.609375 29 63.585938 29 63.585938 28.945312 C 63.585938 28.882812 63.601562 28.820312 63.613281 28.777344 L 64.652344 24.640625 C 64.722656 24.382812 64.738281 24.296875 65.441406 24.296875 C 65.65625 24.296875 65.734375 24.296875 65.734375 24.152344 C 65.734375 24.152344 65.714844 24.046875 65.601562 24.046875 C 65.441406 24.046875 65.210938 24.0625 65.050781 24.066406 L 64.503906 24.066406 C 63.707031 24.066406 63.523438 24.046875 63.46875 24.046875 C 63.441406 24.046875 63.316406 24.046875 63.316406 24.191406 C 63.316406 24.296875 63.417969 24.296875 63.539062 24.296875 C 63.792969 24.296875 64.011719 24.296875 64.011719 24.417969 C 64.011719 24.449219 64.003906 24.457031 63.980469 24.558594 L 62.957031 28.664062 C 62.890625 28.953125 62.875 29.015625 62.308594 29.015625 C 62.164062 29.015625 62.074219 29.015625 62.074219 29.160156 C 62.074219 29.265625 62.171875 29.265625 62.300781 29.265625 L 65.992188 29.265625 C 66.183594 29.265625 66.191406 29.257812 66.253906 29.113281 C 66.328125 28.898438 66.886719 27.460938 66.886719 27.386719 Z M 66.886719 27.386719 "/>
<path style=" stroke:none;fill-rule:nonzero;fill:rgb(100%,100%,86.999313%);fill-opacity:1;" d="M 209.902344 135.082031 L 293.746094 76.375 L 352.453125 160.21875 L 380.398438 140.648438 L 302.125 28.859375 L 190.332031 107.136719 Z M 209.902344 135.082031 "/>
<g clip-path="url(#clip1)" clip-rule="nonzero">
<path style="fill:none;stroke-width:1;stroke-linecap:square;stroke-linejoin:miter;stroke:rgb(0%,0%,0%);stroke-opacity:1;stroke-miterlimit:3.25;" d="M 209.902344 135.082031 L 293.746094 76.375 L 352.453125 160.21875 "/>
</g>
<g clip-path="url(#clip2)" clip-rule="nonzero">
<path style="fill:none;stroke-width:1;stroke-linecap:square;stroke-linejoin:miter;stroke:rgb(0%,0%,0%);stroke-opacity:1;stroke-miterlimit:3.25;" d="M 190.332031 107.136719 L 302.125 28.859375 L 380.398438 140.648438 "/>
</g>
<path style=" stroke:none;fill-rule:nonzero;fill:rgb(85.000381%,85.000381%,85.000381%);fill-opacity:1;" d="M 209.902344 135.082031 L 321.691406 56.804688 L 302.125 28.859375 L 190.332031 107.136719 Z M 209.902344 135.082031 "/>
<path style=" stroke:none;fill-rule:nonzero;fill:rgb(85.000381%,85.000381%,85.000381%);fill-opacity:1;" d="M 352.453125 160.21875 L 380.398438 140.648438 L 302.125 28.859375 L 274.175781 48.429688 Z M 352.453125 160.21875 "/>
<path style=" stroke:none;fill-rule:nonzero;fill:rgb(72.249943%,72.249943%,72.249943%);fill-opacity:1;" d="M 293.746094 76.375 L 321.691406 56.804688 L 302.125 28.859375 L 274.175781 48.429688 Z M 293.746094 76.375 "/>
<path style=" stroke:none;fill-rule:evenodd;fill:rgb(0%,0%,0%);fill-opacity:1;" d="M 295.5 76 C 295.5 75.601562 295.34375 75.21875 295.0625 74.9375 C 294.78125 74.65625 294.398438 74.5 294 74.5 C 293.601562 74.5 293.21875 74.65625 292.9375 74.9375 C 292.65625 75.21875 292.5 75.601562 292.5 76 C 292.5 76.398438 292.65625 76.78125 292.9375 77.0625 C 293.21875 77.34375 293.601562 77.5 294 77.5 C 294.398438 77.5 294.78125 77.34375 295.0625 77.0625 C 295.34375 76.78125 295.5 76.398438 295.5 76 Z M 295.5 76 "/>
<path style=" stroke:none;fill-rule:evenodd;fill:rgb(0%,0%,0%);fill-opacity:1;" d="M 303.5 29 C 303.5 28.601562 303.34375 28.21875 303.0625 27.9375 C 302.78125 27.65625 302.398438 27.5 302 27.5 C 301.601562 27.5 301.21875 27.65625 300.9375 27.9375 C 300.65625 28.21875 300.5 28.601562 300.5 29 C 300.5 29.398438 300.65625 29.78125 300.9375 30.0625 C 301.21875 30.34375 301.601562 30.5 302 30.5 C 302.398438 30.5 302.78125 30.34375 303.0625 30.0625 C 303.34375 29.78125 303.5 29.398438 303.5 29 Z M 303.5 29 "/>
<path style="fill:none;stroke-width:1;stroke-linecap:butt;stroke-linejoin:miter;stroke:rgb(0%,0%,100%);stroke-opacity:1;stroke-miterlimit:3.25;" d="M 293.746094 76.375 L 209.902344 135.082031 "/>
<path style=" stroke:none;fill-rule:nonzero;fill:rgb(0%,0%,100%);fill-opacity:1;" d="M 261.425781 102.183594 L 261.136719 102.027344 L 260.46875 101.625 L 260.085938 101.371094 L 259.71875 101.101562 L 259.40625 100.832031 L 259.183594 100.574219 L 259.035156 100.304688 L 258.894531 99.921875 L 258.757812 99.472656 L 258.632812 99.003906 L 258.449219 98.1875 L 258.378906 97.832031 L 251.824219 105.730469 Z M 261.425781 102.183594 "/>
<g clip-path="url(#clip3)" clip-rule="nonzero">
<path style="fill:none;stroke-width:1;stroke-linecap:butt;stroke-linejoin:miter;stroke:rgb(0%,0%,100%);stroke-opacity:1;stroke-miterlimit:3.25;" d="M 293.746094 76.375 L 352.453125 160.21875 "/>
</g>
<path style=" stroke:none;fill-rule:nonzero;fill:rgb(0%,0%,100%);fill-opacity:1;" d="M 319.554688 108.695312 L 319.394531 108.984375 L 318.996094 109.652344 L 318.742188 110.035156 L 318.472656 110.402344 L 318.203125 110.714844 L 317.945312 110.9375 L 317.671875 111.082031 L 317.292969 111.226562 L 316.84375 111.363281 L 316.375 111.484375 L 315.554688 111.671875 L 315.199219 111.742188 L 323.097656 118.296875 Z M 319.554688 108.695312 "/>
<g clip-path="url(#clip4)" clip-rule="nonzero">
<path style="fill:none;stroke-width:1;stroke-linecap:square;stroke-linejoin:miter;stroke:rgb(100%,0%,0%);stroke-opacity:1;stroke-miterlimit:3.25;" d="M 298.210938 23.269531 L 380.398438 140.648438 "/>
</g>
<g clip-path="url(#clip5)" clip-rule="nonzero">
<path style="fill:none;stroke-width:1;stroke-linecap:square;stroke-linejoin:miter;stroke:rgb(100%,0%,0%);stroke-opacity:1;stroke-miterlimit:3.25;" d="M 307.710938 24.945312 L 190.332031 107.136719 "/>
</g>
<path style=" stroke:none;fill-rule:evenodd;fill:rgb(0%,0%,0%);fill-opacity:1;" d="M 287.78125 71.617188 L 287.78125 71.144531 L 287.011719 71.144531 L 285.152344 68.898438 L 286.429688 67.4375 C 286.550781 67.292969 286.648438 67.203125 287.5625 67.203125 L 287.5625 66.730469 L 286.550781 66.753906 C 286.230469 66.753906 285.757812 66.753906 285.449219 66.730469 L 285.449219 67.203125 C 285.65625 67.203125 285.890625 67.257812 285.890625 67.335938 C 285.890625 67.335938 285.835938 67.4375 285.8125 67.457031 L 284.855469 68.535156 L 283.765625 67.203125 L 284.226562 67.203125 L 284.226562 66.730469 C 283.972656 66.753906 283.226562 66.753906 282.929688 66.753906 C 282.597656 66.753906 282.003906 66.753906 281.695312 66.730469 L 281.695312 67.203125 L 282.476562 67.203125 L 284.195312 69.296875 L 282.761719 70.914062 C 282.632812 71.066406 282.554688 71.144531 281.640625 71.144531 L 281.640625 71.617188 L 282.664062 71.597656 C 282.984375 71.597656 283.445312 71.597656 283.753906 71.617188 L 283.753906 71.144531 C 283.542969 71.144531 283.3125 71.089844 283.3125 71.011719 C 283.3125 71.011719 283.3125 70.992188 283.390625 70.902344 L 284.492188 69.65625 L 285.710938 71.144531 L 285.25 71.144531 L 285.25 71.617188 C 285.515625 71.597656 286.25 71.597656 286.5625 71.597656 C 286.890625 71.597656 287.472656 71.597656 287.78125 71.617188 Z M 287.78125 71.617188 "/>
<path style=" stroke:none;fill-rule:evenodd;fill:rgb(0%,0%,0%);fill-opacity:1;" d="M 292.390625 71.460938 C 292.390625 71.109375 292.277344 70.832031 292.070312 70.621094 C 291.839844 70.367188 291.589844 70.304688 291.230469 70.214844 L 290.535156 70.046875 C 290.304688 69.992188 289.875 69.839844 289.875 69.304688 C 289.875 68.710938 290.519531 68.066406 291.300781 68.066406 C 291.988281 68.066406 292.460938 68.425781 292.460938 69.25 C 292.460938 69.433594 292.429688 69.59375 292.429688 69.625 C 292.429688 69.71875 292.5 69.734375 292.550781 69.734375 C 292.644531 69.734375 292.652344 69.703125 292.683594 69.578125 L 293.070312 68.042969 C 293.078125 68.015625 293.09375 67.96875 293.09375 67.929688 C 293.09375 67.875 293.050781 67.835938 292.996094 67.835938 C 292.941406 67.835938 292.925781 67.851562 292.84375 67.945312 C 292.757812 68.042969 292.558594 68.289062 292.476562 68.378906 C 292.175781 67.945312 291.695312 67.835938 291.308594 67.835938 C 290.242188 67.835938 289.335938 68.730469 289.335938 69.601562 C 289.335938 70.046875 289.570312 70.304688 289.609375 70.359375 C 289.863281 70.628906 290.082031 70.6875 290.632812 70.816406 C 290.902344 70.886719 290.917969 70.886719 291.136719 70.941406 C 291.359375 70.996094 291.847656 71.117188 291.847656 71.75 C 291.847656 72.417969 291.191406 73.125 290.390625 73.125 C 289.890625 73.125 288.984375 72.972656 288.984375 72.027344 C 288.984375 72.003906 288.984375 71.84375 289.027344 71.660156 L 289.035156 71.582031 C 289.035156 71.492188 288.953125 71.484375 288.921875 71.484375 C 288.820312 71.484375 288.816406 71.511719 288.777344 71.691406 L 288.464844 72.933594 C 288.433594 73.050781 288.378906 73.253906 288.378906 73.277344 C 288.378906 73.339844 288.425781 73.378906 288.476562 73.378906 C 288.53125 73.378906 288.539062 73.371094 288.625 73.269531 C 288.675781 73.210938 288.671875 73.210938 288.992188 72.84375 C 289.164062 73.074219 289.601562 73.378906 290.375 73.378906 C 291.480469 73.378906 292.390625 72.378906 292.390625 71.460938 Z M 292.390625 71.460938 "/>
<path style=" stroke:none;fill-rule:evenodd;fill:rgb(0%,0%,0%);fill-opacity:1;" d="M 297.421875 74.292969 C 297.421875 74.257812 297.421875 74.238281 297.234375 74.050781 C 296.132812 72.9375 295.515625 71.121094 295.515625 68.875 C 295.515625 66.742188 296.035156 64.902344 297.3125 63.605469 C 297.421875 63.507812 297.421875 63.484375 297.421875 63.453125 C 297.421875 63.386719 297.367188 63.363281 297.320312 63.363281 C 297.179688 63.363281 296.277344 64.15625 295.738281 65.234375 C 295.175781 66.347656 294.921875 67.523438 294.921875 68.875 C 294.921875 69.855469 295.078125 71.167969 295.648438 72.34375 C 296.296875 73.664062 297.203125 74.378906 297.320312 74.378906 C 297.367188 74.378906 297.421875 74.359375 297.421875 74.292969 Z M 297.421875 74.292969 "/>
<path style=" stroke:none;fill-rule:evenodd;fill:rgb(0%,0%,0%);fill-opacity:1;" d="M 301.390625 70.042969 C 301.390625 69.976562 301.347656 69.945312 301.28125 69.945312 C 301.28125 69.945312 301.214844 69.945312 301.191406 69.988281 C 301.191406 69.988281 301.171875 70.011719 301.09375 70.1875 C 300.863281 70.738281 300.355469 71.507812 299.71875 71.507812 C 299.386719 71.507812 299.367188 71.234375 299.367188 70.992188 C 299.367188 70.992188 299.367188 70.769531 299.398438 70.636719 L 300.257812 67.195312 L 301.269531 67.195312 C 301.480469 67.195312 301.589844 67.195312 301.589844 66.996094 C 301.589844 66.875 301.523438 66.875 301.304688 66.875 L 300.335938 66.875 L 300.742188 65.269531 C 300.785156 65.113281 300.785156 65.089844 300.785156 65.015625 C 300.785156 64.839844 300.640625 64.738281 300.5 64.738281 C 300.410156 64.738281 300.15625 64.773438 300.070312 65.125 L 299.640625 66.875 L 298.605469 66.875 C 298.386719 66.875 298.289062 66.875 298.289062 67.085938 C 298.289062 67.195312 298.363281 67.195312 298.574219 67.195312 L 299.554688 67.195312 L 298.828125 70.097656 C 298.738281 70.484375 298.707031 70.59375 298.707031 70.738281 C 298.707031 71.253906 299.070312 71.726562 299.683594 71.726562 C 300.796875 71.726562 301.390625 70.121094 301.390625 70.042969 Z M 301.390625 70.042969 "/>
<path style=" stroke:none;fill-rule:evenodd;fill:rgb(0%,0%,0%);fill-opacity:1;" d="M 304.949219 68.875 C 304.949219 68.039062 304.839844 66.675781 304.222656 65.398438 C 303.574219 64.078125 302.671875 63.363281 302.550781 63.363281 C 302.507812 63.363281 302.449219 63.386719 302.449219 63.453125 C 302.449219 63.484375 302.449219 63.507812 302.636719 63.695312 C 303.738281 64.804688 304.355469 66.621094 304.355469 68.867188 C 304.355469 71.003906 303.839844 72.839844 302.5625 74.136719 C 302.449219 74.238281 302.449219 74.257812 302.449219 74.292969 C 302.449219 74.359375 302.507812 74.378906 302.550781 74.378906 C 302.691406 74.378906 303.597656 73.589844 304.136719 72.507812 C 304.695312 71.386719 304.949219 70.199219 304.949219 68.875 Z M 304.949219 68.875 "/>
<path style=" stroke:none;fill-rule:evenodd;fill:rgb(0%,0%,0%);fill-opacity:1;" d="M 296.082031 19.6875 L 296.082031 19.214844 C 295.710938 19.234375 295.664062 19.234375 295.214844 19.234375 L 294.265625 19.214844 L 294.265625 19.6875 C 294.265625 19.6875 294.796875 19.6875 294.796875 19.832031 C 294.796875 19.863281 294.761719 19.929688 294.75 19.960938 L 293.464844 22.738281 L 292.054688 19.6875 L 292.660156 19.6875 L 292.660156 19.214844 C 292.398438 19.234375 291.648438 19.234375 291.339844 19.234375 C 291.019531 19.234375 290.371094 19.234375 290.085938 19.214844 L 290.085938 19.6875 L 290.789062 19.6875 L 292.828125 24.101562 C 292.769531 24.234375 292.617188 24.550781 292.5625 24.683594 C 292.332031 25.179688 291.976562 25.9375 291.207031 25.9375 C 291.164062 25.9375 291.03125 25.9375 290.910156 25.875 C 290.933594 25.863281 291.261719 25.730469 291.261719 25.3125 C 291.261719 24.949219 291 24.714844 290.667969 24.714844 C 290.328125 24.714844 290.0625 24.949219 290.0625 25.324219 C 290.0625 25.839844 290.546875 26.300781 291.207031 26.300781 C 292.109375 26.300781 292.703125 25.488281 292.925781 25.003906 L 295.269531 19.929688 C 295.335938 19.773438 295.378906 19.6875 296.082031 19.6875 Z M 296.082031 19.6875 "/>
<path style=" stroke:none;fill-rule:evenodd;fill:rgb(0%,0%,0%);fill-opacity:1;" d="M 300.769531 23.941406 C 300.769531 23.589844 300.65625 23.316406 300.449219 23.101562 C 300.21875 22.851562 299.96875 22.789062 299.609375 22.699219 L 298.914062 22.527344 C 298.683594 22.476562 298.253906 22.324219 298.253906 21.789062 C 298.253906 21.191406 298.898438 20.550781 299.675781 20.550781 C 300.363281 20.550781 300.839844 20.910156 300.839844 21.734375 C 300.839844 21.917969 300.808594 22.078125 300.808594 22.109375 C 300.808594 22.199219 300.878906 22.214844 300.929688 22.214844 C 301.023438 22.214844 301.03125 22.183594 301.058594 22.0625 L 301.449219 20.527344 C 301.457031 20.496094 301.472656 20.449219 301.472656 20.414062 C 301.472656 20.359375 301.425781 20.320312 301.375 20.320312 C 301.320312 20.320312 301.304688 20.335938 301.222656 20.429688 C 301.136719 20.527344 300.9375 20.773438 300.855469 20.863281 C 300.554688 20.429688 300.074219 20.320312 299.683594 20.320312 C 298.621094 20.320312 297.714844 21.214844 297.714844 22.085938 C 297.714844 22.527344 297.949219 22.789062 297.988281 22.84375 C 298.242188 23.109375 298.460938 23.171875 299.011719 23.300781 C 299.28125 23.371094 299.292969 23.371094 299.515625 23.425781 C 299.738281 23.476562 300.226562 23.597656 300.226562 24.234375 C 300.226562 24.898438 299.570312 25.609375 298.769531 25.609375 C 298.269531 25.609375 297.363281 25.457031 297.363281 24.507812 C 297.363281 24.484375 297.363281 24.324219 297.40625 24.140625 L 297.414062 24.066406 C 297.414062 23.972656 297.332031 23.964844 297.300781 23.964844 C 297.199219 23.964844 297.195312 23.996094 297.15625 24.171875 L 296.84375 25.417969 C 296.8125 25.53125 296.757812 25.738281 296.757812 25.761719 C 296.757812 25.824219 296.804688 25.863281 296.855469 25.863281 C 296.910156 25.863281 296.917969 25.855469 297.003906 25.753906 C 297.054688 25.691406 297.050781 25.691406 297.371094 25.324219 C 297.542969 25.554688 297.980469 25.863281 298.753906 25.863281 C 299.859375 25.863281 300.769531 24.859375 300.769531 23.941406 Z M 300.769531 23.941406 "/>
<path style=" stroke:none;fill-rule:evenodd;fill:rgb(0%,0%,0%);fill-opacity:1;" d="M 305.800781 26.773438 C 305.800781 26.742188 305.800781 26.71875 305.613281 26.53125 C 304.511719 25.421875 303.894531 23.605469 303.894531 21.359375 C 303.894531 19.226562 304.414062 17.386719 305.6875 16.089844 C 305.800781 15.992188 305.800781 15.96875 305.800781 15.9375 C 305.800781 15.867188 305.746094 15.847656 305.699219 15.847656 C 305.558594 15.847656 304.65625 16.640625 304.117188 17.71875 C 303.554688 18.828125 303.300781 20.007812 303.300781 21.359375 C 303.300781 22.339844 303.457031 23.648438 304.027344 24.828125 C 304.675781 26.148438 305.578125 26.863281 305.699219 26.863281 C 305.746094 26.863281 305.800781 26.84375 305.800781 26.773438 Z M 305.800781 26.773438 "/>
<path style=" stroke:none;fill-rule:evenodd;fill:rgb(0%,0%,0%);fill-opacity:1;" d="M 309.769531 22.527344 C 309.769531 22.460938 309.726562 22.429688 309.660156 22.429688 C 309.660156 22.429688 309.59375 22.429688 309.570312 22.472656 C 309.570312 22.472656 309.550781 22.496094 309.472656 22.671875 C 309.242188 23.222656 308.734375 23.992188 308.097656 23.992188 C 307.765625 23.992188 307.746094 23.714844 307.746094 23.472656 C 307.746094 23.472656 307.746094 23.253906 307.777344 23.121094 L 308.636719 19.675781 L 309.648438 19.675781 C 309.855469 19.675781 309.96875 19.675781 309.96875 19.476562 C 309.96875 19.359375 309.902344 19.359375 309.683594 19.359375 L 308.714844 19.359375 L 309.121094 17.75 C 309.164062 17.597656 309.164062 17.574219 309.164062 17.5 C 309.164062 17.320312 309.019531 17.222656 308.878906 17.222656 C 308.789062 17.222656 308.535156 17.257812 308.449219 17.609375 L 308.019531 19.359375 L 306.984375 19.359375 C 306.765625 19.359375 306.664062 19.359375 306.664062 19.566406 C 306.664062 19.675781 306.742188 19.675781 306.953125 19.675781 L 307.933594 19.675781 L 307.207031 22.582031 C 307.117188 22.96875 307.085938 23.078125 307.085938 23.222656 C 307.085938 23.738281 307.449219 24.210938 308.0625 24.210938 C 309.175781 24.210938 309.769531 22.605469 309.769531 22.527344 Z M 309.769531 22.527344 "/>
<path style=" stroke:none;fill-rule:evenodd;fill:rgb(0%,0%,0%);fill-opacity:1;" d="M 313.328125 21.359375 C 313.328125 20.523438 313.21875 19.160156 312.601562 17.882812 C 311.953125 16.5625 311.050781 15.847656 310.929688 15.847656 C 310.886719 15.847656 310.828125 15.867188 310.828125 15.9375 C 310.828125 15.96875 310.828125 15.992188 311.015625 16.179688 C 312.117188 17.289062 312.734375 19.105469 312.734375 21.347656 C 312.734375 23.484375 312.21875 25.324219 310.941406 26.621094 C 310.828125 26.71875 310.828125 26.742188 310.828125 26.773438 C 310.828125 26.84375 310.886719 26.863281 310.929688 26.863281 C 311.070312 26.863281 311.976562 26.070312 312.515625 24.992188 C 313.074219 23.871094 313.328125 22.683594 313.328125 21.359375 Z M 313.328125 21.359375 "/>
<path style=" stroke:none;fill-rule:evenodd;fill:rgb(0%,0%,0%);fill-opacity:1;" d="M 213.027344 69.898438 C 213.027344 68.886719 212.457031 68.171875 211.632812 68.171875 C 211.058594 68.171875 210.542969 68.644531 210.332031 68.863281 L 211.136719 65.664062 C 211.148438 65.617188 211.167969 65.550781 211.167969 65.496094 C 211.167969 65.386719 211.035156 65.386719 211.035156 65.386719 L 210.433594 65.441406 C 210.246094 65.453125 210.082031 65.476562 209.882812 65.484375 C 209.617188 65.507812 209.542969 65.519531 209.542969 65.71875 C 209.542969 65.828125 209.652344 65.828125 209.761719 65.828125 C 210.324219 65.828125 210.324219 65.925781 210.324219 66.035156 C 210.324219 66.113281 210.234375 66.433594 210.191406 66.628906 L 209.925781 67.6875 L 209.144531 70.824219 C 209.089844 71.097656 209.089844 71.285156 209.089844 71.429688 C 209.089844 72.550781 209.714844 73.132812 210.433594 73.132812 C 211.707031 73.132812 213.027344 71.492188 213.027344 69.898438 Z M 211.730469 71.789062 C 211.457031 72.386719 210.949219 72.914062 210.441406 72.914062 C 210.089844 72.914062 209.707031 72.648438 209.707031 71.789062 C 209.707031 71.429688 209.738281 71.21875 209.9375 70.449219 L 210.191406 69.457031 C 210.210938 69.371094 210.863281 68.390625 211.609375 68.390625 C 212.09375 68.390625 212.3125 68.875 212.3125 69.445312 C 212.3125 69.976562 212.003906 71.21875 211.730469 71.789062 Z M 211.730469 71.789062 "/>
<path style=" stroke:none;fill-rule:evenodd;fill:rgb(0%,0%,0%);fill-opacity:1;" d="M 217.640625 72.867188 C 217.640625 72.515625 217.527344 72.238281 217.320312 72.023438 C 217.089844 71.773438 216.839844 71.710938 216.480469 71.621094 L 215.785156 71.453125 C 215.554688 71.398438 215.128906 71.246094 215.128906 70.710938 C 215.128906 70.117188 215.769531 69.472656 216.550781 69.472656 C 217.238281 69.472656 217.710938 69.832031 217.710938 70.65625 C 217.710938 70.839844 217.679688 71 217.679688 71.03125 C 217.679688 71.125 217.75 71.140625 217.800781 71.140625 C 217.894531 71.140625 217.902344 71.109375 217.933594 70.984375 L 218.320312 69.449219 C 218.328125 69.421875 218.34375 69.375 218.34375 69.335938 C 218.34375 69.28125 218.300781 69.242188 218.246094 69.242188 C 218.191406 69.242188 218.175781 69.257812 218.09375 69.351562 C 218.007812 69.449219 217.808594 69.695312 217.726562 69.785156 C 217.425781 69.351562 216.945312 69.242188 216.558594 69.242188 C 215.496094 69.242188 214.585938 70.136719 214.585938 71.007812 C 214.585938 71.453125 214.824219 71.710938 214.859375 71.765625 C 215.113281 72.03125 215.332031 72.09375 215.882812 72.222656 C 216.152344 72.292969 216.167969 72.292969 216.386719 72.347656 C 216.609375 72.398438 217.097656 72.523438 217.097656 73.15625 C 217.097656 73.820312 216.441406 74.53125 215.640625 74.53125 C 215.144531 74.53125 214.234375 74.378906 214.234375 73.429688 C 214.234375 73.40625 214.234375 73.25 214.277344 73.0625 L 214.285156 72.988281 C 214.285156 72.898438 214.203125 72.890625 214.171875 72.890625 C 214.074219 72.890625 214.066406 72.917969 214.027344 73.09375 L 213.714844 74.339844 C 213.683594 74.453125 213.628906 74.660156 213.628906 74.683594 C 213.628906 74.746094 213.675781 74.785156 213.730469 74.785156 C 213.785156 74.785156 213.789062 74.777344 213.875 74.675781 C 213.925781 74.617188 213.921875 74.617188 214.242188 74.25 C 214.417969 74.476562 214.851562 74.785156 215.625 74.785156 C 216.730469 74.785156 217.640625 73.78125 217.640625 72.867188 Z M 217.640625 72.867188 "/>
<path style=" stroke:none;fill-rule:evenodd;fill:rgb(0%,0%,0%);fill-opacity:1;" d="M 222.570312 75.695312 C 222.570312 75.664062 222.570312 75.640625 222.382812 75.453125 C 221.28125 74.34375 220.664062 72.527344 220.664062 70.28125 C 220.664062 68.148438 221.183594 66.3125 222.460938 65.011719 C 222.570312 64.914062 222.570312 64.890625 222.570312 64.859375 C 222.570312 64.792969 222.515625 64.769531 222.46875 64.769531 C 222.328125 64.769531 221.425781 65.5625 220.886719 66.640625 C 220.324219 67.753906 220.070312 68.929688 220.070312 70.28125 C 220.070312 71.261719 220.226562 72.570312 220.796875 73.75 C 221.445312 75.070312 222.351562 75.785156 222.46875 75.785156 C 222.515625 75.785156 222.570312 75.765625 222.570312 75.695312 Z M 222.570312 75.695312 "/>
<path style=" stroke:none;fill-rule:evenodd;fill:rgb(0%,0%,0%);fill-opacity:1;" d="M 226.539062 71.449219 C 226.539062 71.382812 226.496094 71.351562 226.429688 71.351562 C 226.429688 71.351562 226.363281 71.351562 226.339844 71.394531 C 226.339844 71.394531 226.320312 71.417969 226.242188 71.59375 C 226.011719 72.144531 225.503906 72.914062 224.867188 72.914062 C 224.535156 72.914062 224.515625 72.640625 224.515625 72.398438 C 224.515625 72.398438 224.515625 72.175781 224.546875 72.042969 L 225.40625 68.601562 L 226.417969 68.601562 C 226.625 68.601562 226.738281 68.601562 226.738281 68.402344 C 226.738281 68.28125 226.671875 68.28125 226.453125 68.28125 L 225.484375 68.28125 L 225.890625 66.675781 C 225.933594 66.519531 225.933594 66.5 225.933594 66.421875 C 225.933594 66.246094 225.789062 66.148438 225.648438 66.148438 C 225.558594 66.148438 225.304688 66.179688 225.21875 66.53125 L 224.789062 68.28125 L 223.753906 68.28125 C 223.535156 68.28125 223.4375 68.28125 223.4375 68.492188 C 223.4375 68.601562 223.511719 68.601562 223.722656 68.601562 L 224.703125 68.601562 L 223.976562 71.503906 C 223.886719 71.890625 223.855469 72 223.855469 72.144531 C 223.855469 72.660156 224.21875 73.132812 224.832031 73.132812 C 225.945312 73.132812 226.539062 71.527344 226.539062 71.449219 Z M 226.539062 71.449219 "/>
<path style=" stroke:none;fill-rule:evenodd;fill:rgb(0%,0%,0%);fill-opacity:1;" d="M 230.195312 70.28125 C 230.195312 69.445312 230.085938 68.082031 229.46875 66.804688 C 228.820312 65.484375 227.917969 64.769531 227.796875 64.769531 C 227.753906 64.769531 227.699219 64.792969 227.699219 64.859375 C 227.699219 64.890625 227.699219 64.914062 227.886719 65.101562 C 228.984375 66.210938 229.601562 68.027344 229.601562 70.273438 C 229.601562 72.40625 229.085938 74.246094 227.808594 75.542969 C 227.699219 75.640625 227.699219 75.664062 227.699219 75.695312 C 227.699219 75.765625 227.753906 75.785156 227.796875 75.785156 C 227.941406 75.785156 228.84375 74.992188 229.382812 73.914062 C 229.945312 72.792969 230.195312 71.605469 230.195312 70.28125 Z M 230.195312 70.28125 "/>
<path style=" stroke:none;fill-rule:evenodd;fill:rgb(0%,0%,0%);fill-opacity:1;" d="M 232.488281 99.398438 C 232.488281 99.34375 232.441406 99.300781 232.378906 99.300781 C 232.277344 99.300781 232.269531 99.355469 232.222656 99.519531 C 232.058594 100.167969 231.847656 100.863281 231.398438 100.863281 C 231.078125 100.863281 231.058594 100.574219 231.058594 100.355469 C 231.058594 100.308594 231.058594 100.082031 231.132812 99.769531 L 232.683594 93.609375 C 232.695312 93.566406 232.71875 93.5 232.71875 93.445312 C 232.71875 93.335938 232.585938 93.335938 232.585938 93.335938 C 232.585938 93.335938 232.035156 93.378906 231.980469 93.390625 C 231.792969 93.398438 231.628906 93.421875 231.429688 93.433594 C 231.15625 93.453125 231.078125 93.464844 231.078125 93.664062 C 231.078125 93.773438 231.167969 93.773438 231.320312 93.773438 C 231.859375 93.773438 231.871094 93.875 231.871094 93.984375 C 231.871094 94.046875 231.847656 94.136719 231.839844 94.171875 L 231.167969 96.84375 C 231.046875 96.558594 230.75 96.117188 230.175781 96.117188 C 228.933594 96.117188 227.589844 97.726562 227.589844 99.355469 C 227.589844 100.441406 228.226562 101.082031 228.976562 101.082031 C 229.582031 101.082031 230.097656 100.609375 230.410156 100.246094 C 230.519531 100.894531 231.035156 101.082031 231.363281 101.082031 C 231.695312 101.082031 231.957031 100.882812 232.15625 100.488281 C 232.332031 100.113281 232.488281 99.441406 232.488281 99.398438 Z M 230.464844 99.660156 C 230.410156 99.847656 230.410156 99.871094 230.253906 100.082031 C 230.011719 100.386719 229.527344 100.863281 229.011719 100.863281 C 228.558594 100.863281 228.304688 100.453125 228.304688 99.804688 C 228.304688 99.199219 228.648438 97.964844 228.855469 97.503906 C 229.230469 96.734375 229.746094 96.339844 230.175781 96.339844 C 230.902344 96.339844 231.046875 97.242188 231.046875 97.328125 C 231.046875 97.328125 231.011719 97.484375 231.003906 97.503906 Z M 230.464844 99.660156 "/>
<path style=" stroke:none;fill-rule:evenodd;fill:rgb(0%,0%,0%);fill-opacity:1;" d="M 237.199219 100.8125 C 237.199219 100.460938 237.085938 100.1875 236.878906 99.972656 C 236.648438 99.722656 236.398438 99.660156 236.039062 99.566406 L 235.339844 99.398438 C 235.113281 99.347656 234.683594 99.191406 234.683594 98.660156 C 234.683594 98.0625 235.324219 97.421875 236.105469 97.421875 C 236.792969 97.421875 237.265625 97.78125 237.265625 98.605469 C 237.265625 98.789062 237.238281 98.949219 237.238281 98.980469 C 237.238281 99.070312 237.304688 99.085938 237.359375 99.085938 C 237.453125 99.085938 237.460938 99.054688 237.488281 98.933594 L 237.878906 97.398438 C 237.886719 97.367188 237.902344 97.320312 237.902344 97.285156 C 237.902344 97.230469 237.855469 97.191406 237.804688 97.191406 C 237.75 97.191406 237.734375 97.207031 237.648438 97.300781 C 237.566406 97.398438 237.367188 97.644531 237.28125 97.734375 C 236.984375 97.300781 236.503906 97.191406 236.113281 97.191406 C 235.050781 97.191406 234.140625 98.085938 234.140625 98.957031 C 234.140625 99.398438 234.378906 99.660156 234.417969 99.714844 C 234.667969 99.980469 234.890625 100.042969 235.441406 100.171875 C 235.710938 100.238281 235.722656 100.238281 235.945312 100.292969 C 236.167969 100.347656 236.65625 100.46875 236.65625 101.105469 C 236.65625 101.769531 236 102.480469 235.195312 102.480469 C 234.699219 102.480469 233.789062 102.328125 233.789062 101.378906 C 233.789062 101.355469 233.789062 101.195312 233.835938 101.011719 L 233.84375 100.933594 C 233.84375 100.84375 233.761719 100.835938 233.730469 100.835938 C 233.628906 100.835938 233.621094 100.867188 233.582031 101.042969 L 233.269531 102.289062 C 233.238281 102.402344 233.1875 102.609375 233.1875 102.632812 C 233.1875 102.695312 233.230469 102.734375 233.285156 102.734375 C 233.339844 102.734375 233.347656 102.726562 233.429688 102.625 C 233.484375 102.5625 233.476562 102.5625 233.796875 102.195312 C 233.972656 102.425781 234.410156 102.734375 235.179688 102.734375 C 236.289062 102.734375 237.199219 101.730469 237.199219 100.8125 Z M 237.199219 100.8125 "/>
<path style=" stroke:none;fill-rule:evenodd;fill:rgb(0%,0%,0%);fill-opacity:1;" d="M 242.230469 103.644531 C 242.230469 103.613281 242.230469 103.589844 242.042969 103.402344 C 240.941406 102.292969 240.324219 100.476562 240.324219 98.230469 C 240.324219 96.097656 240.839844 94.257812 242.117188 92.960938 C 242.230469 92.859375 242.230469 92.839844 242.230469 92.804688 C 242.230469 92.738281 242.175781 92.71875 242.128906 92.71875 C 241.984375 92.71875 241.082031 93.507812 240.542969 94.589844 C 239.984375 95.699219 239.730469 96.878906 239.730469 98.230469 C 239.730469 99.210938 239.882812 100.519531 240.457031 101.699219 C 241.105469 103.019531 242.007812 103.734375 242.128906 103.734375 C 242.175781 103.734375 242.230469 103.710938 242.230469 103.644531 Z M 242.230469 103.644531 "/>
<path style=" stroke:none;fill-rule:evenodd;fill:rgb(0%,0%,0%);fill-opacity:1;" d="M 246.097656 99.398438 C 246.097656 99.332031 246.054688 99.300781 245.988281 99.300781 C 245.988281 99.300781 245.921875 99.300781 245.898438 99.34375 C 245.898438 99.34375 245.878906 99.363281 245.800781 99.542969 C 245.570312 100.089844 245.0625 100.863281 244.425781 100.863281 C 244.09375 100.863281 244.074219 100.585938 244.074219 100.34375 C 244.074219 100.34375 244.074219 100.125 244.105469 99.992188 L 244.964844 96.546875 L 245.976562 96.546875 C 246.183594 96.546875 246.296875 96.546875 246.296875 96.347656 C 246.296875 96.230469 246.230469 96.230469 246.011719 96.230469 L 245.042969 96.230469 L 245.449219 94.621094 C 245.492188 94.46875 245.492188 94.445312 245.492188 94.367188 C 245.492188 94.191406 245.347656 94.09375 245.207031 94.09375 C 245.117188 94.09375 244.863281 94.125 244.777344 94.476562 L 244.347656 96.230469 L 243.3125 96.230469 C 243.09375 96.230469 242.996094 96.230469 242.996094 96.4375 C 242.996094 96.546875 243.070312 96.546875 243.28125 96.546875 L 244.261719 96.546875 L 243.535156 99.453125 C 243.445312 99.839844 243.414062 99.949219 243.414062 100.089844 C 243.414062 100.609375 243.777344 101.082031 244.390625 101.082031 C 245.503906 101.082031 246.097656 99.472656 246.097656 99.398438 Z M 246.097656 99.398438 "/>
<path style=" stroke:none;fill-rule:evenodd;fill:rgb(0%,0%,0%);fill-opacity:1;" d="M 249.757812 98.230469 C 249.757812 97.394531 249.644531 96.03125 249.03125 94.753906 C 248.378906 93.433594 247.476562 92.71875 247.355469 92.71875 C 247.3125 92.71875 247.257812 92.738281 247.257812 92.804688 C 247.257812 92.839844 247.257812 92.859375 247.445312 93.046875 C 248.542969 94.160156 249.164062 95.976562 249.164062 98.21875 C 249.164062 100.355469 248.644531 102.195312 247.367188 103.492188 C 247.257812 103.589844 247.257812 103.613281 247.257812 103.644531 C 247.257812 103.710938 247.3125 103.734375 247.355469 103.734375 C 247.5 103.734375 248.402344 102.941406 248.941406 101.863281 C 249.503906 100.738281 249.757812 99.550781 249.757812 98.230469 Z M 249.757812 98.230469 "/>
<path style=" stroke:none;fill-rule:evenodd;fill:rgb(0%,0%,0%);fill-opacity:1;" d="M 355.359375 92.660156 C 355.304688 92.847656 355.304688 92.871094 355.148438 93.078125 C 354.90625 93.386719 354.421875 93.859375 353.90625 93.859375 C 353.453125 93.859375 353.199219 93.453125 353.199219 92.804688 C 353.199219 92.199219 353.542969 90.964844 353.753906 90.503906 C 354.125 89.734375 354.644531 89.335938 355.074219 89.335938 C 355.796875 89.335938 355.941406 90.238281 355.941406 90.328125 C 355.941406 90.328125 355.910156 90.480469 355.898438 90.503906 Z M 357.382812 92.394531 C 357.382812 92.339844 357.339844 92.296875 357.273438 92.296875 C 357.175781 92.296875 357.164062 92.351562 357.117188 92.515625 C 356.953125 93.167969 356.746094 93.859375 356.292969 93.859375 C 355.972656 93.859375 355.953125 93.574219 355.953125 93.355469 C 355.953125 93.101562 355.984375 92.980469 356.085938 92.550781 L 356.304688 91.714844 C 356.710938 90.0625 356.808594 89.667969 356.808594 89.601562 C 356.808594 89.449219 356.691406 89.324219 356.523438 89.324219 C 356.171875 89.324219 356.085938 89.710938 356.0625 89.84375 C 355.941406 89.558594 355.644531 89.117188 355.074219 89.117188 C 353.828125 89.117188 352.488281 90.722656 352.488281 92.351562 C 352.488281 93.441406 353.125 94.078125 353.871094 94.078125 C 354.476562 94.078125 354.996094 93.605469 355.304688 93.242188 C 355.414062 93.894531 355.929688 94.078125 356.261719 94.078125 C 356.589844 94.078125 356.855469 93.882812 357.050781 93.484375 C 357.230469 93.113281 357.382812 92.441406 357.382812 92.394531 Z M 357.382812 92.394531 "/>
<path style=" stroke:none;fill-rule:evenodd;fill:rgb(0%,0%,0%);fill-opacity:1;" d="M 362.09375 93.8125 C 362.09375 93.460938 361.980469 93.183594 361.773438 92.972656 C 361.542969 92.71875 361.292969 92.660156 360.933594 92.566406 L 360.238281 92.398438 C 360.007812 92.34375 359.578125 92.191406 359.578125 91.65625 C 359.578125 91.0625 360.222656 90.417969 361 90.417969 C 361.6875 90.417969 362.160156 90.777344 362.160156 91.605469 C 362.160156 91.785156 362.132812 91.949219 362.132812 91.976562 C 362.132812 92.070312 362.199219 92.085938 362.253906 92.085938 C 362.347656 92.085938 362.355469 92.054688 362.382812 91.933594 L 362.773438 90.394531 C 362.78125 90.367188 362.796875 90.320312 362.796875 90.28125 C 362.796875 90.230469 362.75 90.191406 362.699219 90.191406 C 362.644531 90.191406 362.628906 90.207031 362.542969 90.296875 C 362.460938 90.394531 362.261719 90.640625 362.175781 90.730469 C 361.878906 90.296875 361.398438 90.191406 361.007812 90.191406 C 359.945312 90.191406 359.035156 91.082031 359.035156 91.957031 C 359.035156 92.398438 359.273438 92.660156 359.3125 92.710938 C 359.566406 92.980469 359.785156 93.039062 360.335938 93.167969 C 360.605469 93.238281 360.617188 93.238281 360.839844 93.292969 C 361.0625 93.347656 361.550781 93.46875 361.550781 94.101562 C 361.550781 94.769531 360.894531 95.476562 360.089844 95.476562 C 359.59375 95.476562 358.683594 95.324219 358.683594 94.378906 C 358.683594 94.355469 358.683594 94.195312 358.730469 94.011719 L 358.738281 93.933594 C 358.738281 93.84375 358.65625 93.835938 358.625 93.835938 C 358.523438 93.835938 358.519531 93.863281 358.480469 94.042969 L 358.167969 95.285156 C 358.136719 95.402344 358.082031 95.605469 358.082031 95.628906 C 358.082031 95.691406 358.128906 95.730469 358.179688 95.730469 C 358.234375 95.730469 358.242188 95.722656 358.324219 95.621094 C 358.378906 95.5625 358.371094 95.5625 358.691406 95.195312 C 358.867188 95.425781 359.304688 95.730469 360.074219 95.730469 C 361.183594 95.730469 362.09375 94.730469 362.09375 93.8125 Z M 362.09375 93.8125 "/>
<path style=" stroke:none;fill-rule:evenodd;fill:rgb(0%,0%,0%);fill-opacity:1;" d="M 367.121094 96.644531 C 367.121094 96.609375 367.121094 96.589844 366.933594 96.402344 C 365.835938 95.289062 365.21875 93.472656 365.21875 91.230469 C 365.21875 89.09375 365.734375 87.257812 367.011719 85.957031 C 367.121094 85.859375 367.121094 85.839844 367.121094 85.804688 C 367.121094 85.738281 367.066406 85.714844 367.023438 85.714844 C 366.878906 85.714844 365.976562 86.507812 365.4375 87.589844 C 364.878906 88.699219 364.625 89.875 364.625 91.230469 C 364.625 92.207031 364.777344 93.519531 365.351562 94.695312 C 366 96.015625 366.902344 96.730469 367.023438 96.730469 C 367.066406 96.730469 367.121094 96.710938 367.121094 96.644531 Z M 367.121094 96.644531 "/>
<path style=" stroke:none;fill-rule:evenodd;fill:rgb(0%,0%,0%);fill-opacity:1;" d="M 371.089844 92.394531 C 371.089844 92.332031 371.046875 92.296875 370.980469 92.296875 C 370.980469 92.296875 370.914062 92.296875 370.894531 92.339844 C 370.894531 92.339844 370.871094 92.363281 370.792969 92.539062 C 370.5625 93.089844 370.058594 93.859375 369.417969 93.859375 C 369.089844 93.859375 369.066406 93.585938 369.066406 93.34375 C 369.066406 93.34375 369.066406 93.121094 369.097656 92.988281 L 369.957031 89.546875 L 370.96875 89.546875 C 371.179688 89.546875 371.289062 89.546875 371.289062 89.347656 C 371.289062 89.226562 371.222656 89.226562 371.003906 89.226562 L 370.035156 89.226562 L 370.441406 87.621094 C 370.488281 87.464844 370.488281 87.445312 370.488281 87.367188 C 370.488281 87.191406 370.34375 87.09375 370.199219 87.09375 C 370.113281 87.09375 369.859375 87.125 369.769531 87.476562 L 369.339844 89.226562 L 368.308594 89.226562 C 368.085938 89.226562 367.988281 89.226562 367.988281 89.4375 C 367.988281 89.546875 368.066406 89.546875 368.273438 89.546875 L 369.253906 89.546875 L 368.527344 92.449219 C 368.441406 92.835938 368.40625 92.945312 368.40625 93.089844 C 368.40625 93.605469 368.769531 94.078125 369.386719 94.078125 C 370.496094 94.078125 371.089844 92.472656 371.089844 92.394531 Z M 371.089844 92.394531 "/>
<path style=" stroke:none;fill-rule:evenodd;fill:rgb(0%,0%,0%);fill-opacity:1;" d="M 374.75 91.230469 C 374.75 90.394531 374.636719 89.027344 374.023438 87.753906 C 373.375 86.433594 372.472656 85.714844 372.351562 85.714844 C 372.308594 85.714844 372.25 85.738281 372.25 85.804688 C 372.25 85.839844 372.25 85.859375 372.4375 86.046875 C 373.539062 87.160156 374.15625 88.972656 374.15625 91.21875 C 374.15625 93.355469 373.636719 95.191406 372.363281 96.488281 C 372.25 96.589844 372.25 96.609375 372.25 96.644531 C 372.25 96.710938 372.308594 96.730469 372.351562 96.730469 C 372.492188 96.730469 373.394531 95.941406 373.933594 94.859375 C 374.496094 93.738281 374.75 92.550781 374.75 91.230469 Z M 374.75 91.230469 "/>
<path style=" stroke:none;fill-rule:evenodd;fill:rgb(0%,0%,0%);fill-opacity:1;" d="M 328.699219 112.339844 C 328.699219 112.273438 328.628906 112.21875 328.585938 112.21875 C 328.554688 112.21875 328.542969 112.230469 328.445312 112.328125 C 327.738281 113.261719 326.695312 113.429688 326.277344 113.429688 C 325.515625 113.429688 325.277344 112.769531 325.277344 112.21875 C 325.277344 111.832031 325.460938 110.765625 325.859375 110.015625 C 326.144531 109.5 326.738281 108.90625 327.433594 108.90625 C 327.574219 108.90625 328.179688 108.929688 328.402344 109.402344 C 328.191406 109.402344 328.089844 109.402344 327.9375 109.535156 C 327.871094 109.589844 327.75 109.753906 327.75 109.929688 C 327.75 110.148438 327.917969 110.28125 328.125 110.28125 C 328.386719 110.28125 328.6875 110.0625 328.6875 109.621094 C 328.6875 109.09375 328.179688 108.6875 327.421875 108.6875 C 325.980469 108.6875 324.539062 110.257812 324.539062 111.820312 C 324.539062 112.777344 325.132812 113.648438 326.253906 113.648438 C 327.75 113.648438 328.699219 112.480469 328.699219 112.339844 Z M 328.699219 112.339844 "/>
<path style=" stroke:none;fill-rule:evenodd;fill:rgb(0%,0%,0%);fill-opacity:1;" d="M 333.144531 113.378906 C 333.144531 113.027344 333.03125 112.753906 332.824219 112.539062 C 332.59375 112.289062 332.34375 112.226562 331.984375 112.136719 L 331.289062 111.96875 C 331.058594 111.914062 330.628906 111.761719 330.628906 111.226562 C 330.628906 110.632812 331.273438 109.988281 332.050781 109.988281 C 332.738281 109.988281 333.210938 110.347656 333.210938 111.171875 C 333.210938 111.355469 333.183594 111.515625 333.183594 111.546875 C 333.183594 111.640625 333.25 111.65625 333.304688 111.65625 C 333.394531 111.65625 333.402344 111.625 333.433594 111.5 L 333.824219 109.964844 C 333.832031 109.9375 333.847656 109.890625 333.847656 109.851562 C 333.847656 109.796875 333.800781 109.757812 333.746094 109.757812 C 333.691406 109.757812 333.679688 109.773438 333.59375 109.867188 C 333.511719 109.964844 333.3125 110.210938 333.226562 110.300781 C 332.929688 109.867188 332.449219 109.757812 332.058594 109.757812 C 330.996094 109.757812 330.085938 110.652344 330.085938 111.523438 C 330.085938 111.96875 330.324219 112.226562 330.363281 112.28125 C 330.617188 112.546875 330.835938 112.609375 331.386719 112.738281 C 331.65625 112.808594 331.667969 112.808594 331.890625 112.863281 C 332.113281 112.914062 332.601562 113.035156 332.601562 113.671875 C 332.601562 114.335938 331.945312 115.046875 331.140625 115.046875 C 330.644531 115.046875 329.734375 114.894531 329.734375 113.945312 C 329.734375 113.921875 329.734375 113.761719 329.78125 113.578125 L 329.789062 113.503906 C 329.789062 113.410156 329.707031 113.402344 329.675781 113.402344 C 329.574219 113.402344 329.570312 113.433594 329.53125 113.609375 L 329.21875 114.855469 C 329.1875 114.96875 329.132812 115.175781 329.132812 115.199219 C 329.132812 115.261719 329.179688 115.300781 329.230469 115.300781 C 329.285156 115.300781 329.292969 115.292969 329.375 115.191406 C 329.429688 115.128906 329.421875 115.128906 329.742188 114.761719 C 329.917969 114.992188 330.355469 115.300781 331.125 115.300781 C 332.234375 115.300781 333.144531 114.296875 333.144531 113.378906 Z M 333.144531 113.378906 "/>
<path style=" stroke:none;fill-rule:evenodd;fill:rgb(0%,0%,0%);fill-opacity:1;" d="M 338.171875 116.210938 C 338.171875 116.179688 338.171875 116.15625 337.984375 115.96875 C 336.886719 114.859375 336.269531 113.042969 336.269531 110.796875 C 336.269531 108.664062 336.785156 106.828125 338.0625 105.527344 C 338.171875 105.429688 338.171875 105.410156 338.171875 105.375 C 338.171875 105.308594 338.117188 105.285156 338.070312 105.285156 C 337.929688 105.285156 337.027344 106.078125 336.488281 107.160156 C 335.925781 108.269531 335.675781 109.445312 335.675781 110.796875 C 335.675781 111.777344 335.828125 113.085938 336.402344 114.265625 C 337.050781 115.585938 337.953125 116.300781 338.070312 116.300781 C 338.117188 116.300781 338.171875 116.277344 338.171875 116.210938 Z M 338.171875 116.210938 "/>
<path style=" stroke:none;fill-rule:evenodd;fill:rgb(0%,0%,0%);fill-opacity:1;" d="M 342.140625 111.964844 C 342.140625 111.898438 342.097656 111.867188 342.027344 111.867188 C 342.027344 111.867188 341.964844 111.867188 341.941406 111.910156 C 341.941406 111.910156 341.917969 111.933594 341.84375 112.109375 C 341.613281 112.660156 341.105469 113.429688 340.46875 113.429688 C 340.136719 113.429688 340.117188 113.152344 340.117188 112.910156 C 340.117188 112.910156 340.117188 112.691406 340.148438 112.558594 L 341.007812 109.117188 L 342.019531 109.117188 C 342.226562 109.117188 342.339844 109.117188 342.339844 108.917969 C 342.339844 108.796875 342.269531 108.796875 342.050781 108.796875 L 341.085938 108.796875 L 341.488281 107.191406 C 341.535156 107.035156 341.535156 107.015625 341.535156 106.9375 C 341.535156 106.761719 341.390625 106.664062 341.25 106.664062 C 341.160156 106.664062 340.90625 106.695312 340.820312 107.046875 L 340.390625 108.796875 L 339.355469 108.796875 C 339.136719 108.796875 339.039062 108.796875 339.039062 109.007812 C 339.039062 109.117188 339.113281 109.117188 339.324219 109.117188 L 340.304688 109.117188 L 339.578125 112.019531 C 339.488281 112.40625 339.457031 112.515625 339.457031 112.660156 C 339.457031 113.175781 339.820312 113.648438 340.433594 113.648438 C 341.546875 113.648438 342.140625 112.042969 342.140625 111.964844 Z M 342.140625 111.964844 "/>
<path style=" stroke:none;fill-rule:evenodd;fill:rgb(0%,0%,0%);fill-opacity:1;" d="M 345.695312 110.796875 C 345.695312 109.960938 345.585938 108.597656 344.972656 107.324219 C 344.324219 106.003906 343.417969 105.285156 343.300781 105.285156 C 343.253906 105.285156 343.199219 105.308594 343.199219 105.375 C 343.199219 105.410156 343.199219 105.429688 343.386719 105.617188 C 344.488281 106.730469 345.105469 108.542969 345.105469 110.789062 C 345.105469 112.921875 344.585938 114.761719 343.308594 116.058594 C 343.199219 116.15625 343.199219 116.179688 343.199219 116.210938 C 343.199219 116.277344 343.253906 116.300781 343.300781 116.300781 C 343.441406 116.300781 344.34375 115.507812 344.882812 114.429688 C 345.445312 113.308594 345.695312 112.121094 345.695312 110.796875 Z M 345.695312 110.796875 "/>
<path style="fill:none;stroke-width:1;stroke-linecap:butt;stroke-linejoin:miter;stroke:rgb(0%,0%,0%);stroke-opacity:1;stroke-dasharray:4,4;stroke-miterlimit:3.25;" d="M 223.875 125.296875 L 257.992188 125.296875 "/>
<path style="fill:none;stroke-width:1;stroke-linecap:square;stroke-linejoin:miter;stroke:rgb(0%,0%,0%);stroke-opacity:1;stroke-miterlimit:3.25;" d="M 234.109375 125.296875 C 234.109375 123.199219 233.464844 121.148438 232.257812 119.429688 "/>
<path style=" stroke:none;fill-rule:evenodd;fill:rgb(0%,0%,0%);fill-opacity:1;" d="M 243.210938 120.828125 C 243.210938 120.761719 243.167969 120.730469 243.101562 120.730469 C 243.101562 120.730469 243.035156 120.730469 243.015625 120.773438 C 243.015625 120.773438 242.992188 120.792969 242.914062 120.972656 C 242.683594 121.519531 242.179688 122.289062 241.539062 122.289062 C 241.210938 122.289062 241.1875 122.015625 241.1875 121.773438 C 241.1875 121.773438 241.1875 121.554688 241.222656 121.421875 L 242.078125 117.976562 L 243.089844 117.976562 C 243.300781 117.976562 243.410156 117.976562 243.410156 117.78125 C 243.410156 117.660156 243.34375 117.660156 243.125 117.660156 L 242.15625 117.660156 L 242.5625 116.054688 C 242.609375 115.898438 242.609375 115.878906 242.609375 115.800781 C 242.609375 115.625 242.464844 115.527344 242.320312 115.527344 C 242.234375 115.527344 241.980469 115.558594 241.890625 115.910156 L 241.464844 117.660156 L 240.429688 117.660156 C 240.207031 117.660156 240.109375 117.660156 240.109375 117.871094 C 240.109375 117.976562 240.1875 117.976562 240.394531 117.976562 L 241.375 117.976562 L 240.648438 120.882812 C 240.5625 121.269531 240.527344 121.378906 240.527344 121.519531 C 240.527344 122.039062 240.890625 122.507812 241.507812 122.507812 C 242.617188 122.507812 243.210938 120.902344 243.210938 120.828125 Z M 243.210938 120.828125 "/>
</g>
</svg>
