<?xml version="1.0" encoding="UTF-8"?>
<svg xmlns="http://www.w3.org/2000/svg" xmlns:xlink="http://www.w3.org/1999/xlink" width="269pt" height="222pt" viewBox="0 0 269 222" version="1.1">
<g id="surface171">
<path style=" stroke:none;fill-rule:nonzero;fill:rgb(100%,74.999619%,74.999619%);fill-opacity:1;" d="M 211.097656 131.164062 L 210.09375 129.996094 L 209.066406 128.847656 L 208.019531 127.71875 L 206.949219 126.609375 L 205.859375 125.523438 L 204.746094 124.457031 L 112.363281 37.683594 L 115.183594 36.96875 L 118.011719 36.308594 L 120.855469 35.703125 L 123.707031 35.15625 L 126.574219 34.660156 L 129.445312 34.222656 Z M 211.097656 131.164062 "/>
<path style=" stroke:none;fill-rule:nonzero;fill:rgb(100%,100%,86.999313%);fill-opacity:1;" d="M 229.726562 205.960938 L 229.726562 182.195312 L 229.710938 180.65625 L 229.664062 179.117188 L 229.589844 177.578125 L 229.484375 176.042969 L 229.351562 174.507812 L 229.1875 172.976562 L 228.992188 171.445312 L 228.769531 169.921875 L 228.515625 168.402344 L 228.234375 166.890625 L 227.921875 165.382812 L 227.578125 163.878906 L 227.207031 162.382812 L 226.808594 160.898438 L 226.378906 159.417969 L 225.921875 157.945312 L 225.4375 156.484375 L 224.921875 155.03125 L 224.378906 153.589844 L 223.808594 152.160156 L 223.210938 150.742188 L 222.585938 149.332031 L 221.933594 147.9375 L 221.253906 146.554688 L 220.550781 145.1875 L 219.816406 143.832031 L 219.058594 142.492188 L 218.273438 141.167969 L 217.460938 139.855469 L 216.625 138.5625 L 215.765625 137.285156 L 214.878906 136.027344 L 213.96875 134.78125 L 213.035156 133.558594 L 212.078125 132.351562 L 211.097656 131.164062 L 210.09375 129.996094 L 209.066406 128.847656 L 208.019531 127.71875 L 206.949219 126.609375 L 205.859375 125.523438 L 204.746094 124.457031 L 203.613281 123.414062 L 202.460938 122.394531 L 201.285156 121.394531 L 200.09375 120.417969 L 198.882812 119.464844 L 197.65625 118.539062 L 196.410156 117.632812 L 195.144531 116.753906 L 193.863281 115.898438 L 192.566406 115.066406 L 191.253906 114.261719 L 189.925781 113.484375 L 188.582031 112.730469 L 187.222656 112.003906 L 185.851562 111.300781 L 184.46875 110.628906 L 183.070312 109.980469 L 181.660156 109.363281 L 180.238281 108.769531 L 178.804688 108.207031 L 177.359375 107.667969 L 175.90625 107.160156 L 174.441406 106.683594 L 172.96875 106.230469 L 171.488281 105.808594 L 170 105.414062 L 168.503906 105.050781 L 167 104.714844 L 165.488281 104.410156 L 163.972656 104.132812 L 140.554688 100.09375 L 140.554688 205.960938 Z M 229.726562 205.960938 "/>
<path style=" stroke:none;fill-rule:evenodd;fill:rgb(0%,0%,0%);fill-opacity:1;" d="M 159.363281 192.648438 C 159.363281 192.539062 159.265625 192.539062 159.15625 192.539062 C 158.75 192.53125 158.609375 192.441406 158.445312 192.046875 L 156.921875 188.433594 C 156.910156 188.398438 156.867188 188.3125 156.867188 188.277344 C 156.867188 188.277344 156.878906 188.257812 157.0625 188.113281 L 158.125 187.28125 C 159.59375 186.144531 160.078125 185.757812 160.832031 185.691406 C 160.910156 185.683594 161.019531 185.683594 161.019531 185.496094 C 161.019531 185.429688 160.988281 185.375 160.898438 185.375 C 160.777344 185.375 160.644531 185.398438 160.527344 185.398438 L 160.109375 185.398438 C 159.769531 185.398438 159.410156 185.375 159.078125 185.375 C 159.003906 185.375 158.871094 185.375 158.871094 185.574219 C 158.871094 185.683594 158.949219 185.691406 159.011719 185.691406 C 159.136719 185.703125 159.277344 185.746094 159.277344 185.902344 C 159.277344 186.121094 158.949219 186.382812 158.859375 186.449219 L 154.566406 189.789062 L 155.472656 186.175781 C 155.574219 185.800781 155.597656 185.691406 156.371094 185.691406 C 156.582031 185.691406 156.679688 185.691406 156.679688 185.484375 C 156.679688 185.375 156.570312 185.375 156.515625 185.375 C 156.316406 185.375 156.089844 185.398438 155.878906 185.398438 L 154.585938 185.398438 C 154.390625 185.398438 154.148438 185.375 153.953125 185.375 C 153.863281 185.375 153.746094 185.375 153.746094 185.582031 C 153.746094 185.691406 153.84375 185.691406 154.007812 185.691406 C 154.675781 185.691406 154.675781 185.78125 154.675781 185.902344 C 154.675781 185.902344 154.675781 185.988281 154.632812 186.152344 L 153.152344 192.046875 C 153.054688 192.429688 153.03125 192.539062 152.265625 192.539062 C 152.058594 192.539062 151.949219 192.539062 151.949219 192.738281 C 151.949219 192.859375 152.046875 192.859375 152.113281 192.859375 C 152.320312 192.859375 152.539062 192.835938 152.746094 192.835938 L 154.027344 192.835938 C 154.238281 192.835938 154.464844 192.859375 154.675781 192.859375 C 154.761719 192.859375 154.882812 192.859375 154.882812 192.648438 C 154.882812 192.539062 154.785156 192.539062 154.621094 192.539062 C 153.953125 192.539062 153.953125 192.453125 153.953125 192.34375 C 153.953125 192.265625 154.019531 191.992188 154.0625 191.816406 L 154.488281 190.117188 L 156.152344 188.816406 L 157.503906 191.992188 C 157.535156 192.058594 157.558594 192.125 157.558594 192.199219 C 157.558594 192.53125 157.117188 192.539062 157.019531 192.539062 C 156.921875 192.539062 156.8125 192.539062 156.8125 192.75 C 156.8125 192.859375 156.933594 192.859375 156.964844 192.859375 C 157.347656 192.859375 157.753906 192.835938 158.136719 192.835938 L 158.664062 192.835938 C 158.828125 192.835938 159.011719 192.859375 159.179688 192.859375 C 159.246094 192.859375 159.363281 192.859375 159.363281 192.648438 Z M 159.363281 192.648438 "/>
<path style="fill:none;stroke-width:1;stroke-linecap:square;stroke-linejoin:miter;stroke:rgb(70.000763%,70.000763%,70.000763%);stroke-opacity:1;stroke-miterlimit:3.25;" d="M 229.726562 182.195312 L 229.726562 55.449219 "/>
<path style="fill:none;stroke-width:1;stroke-linecap:square;stroke-linejoin:miter;stroke:rgb(70.000763%,70.000763%,70.000763%);stroke-opacity:1;stroke-miterlimit:3.25;" d="M 229.1875 172.976562 L 214.433594 47.089844 "/>
<path style="fill:none;stroke-width:1;stroke-linecap:square;stroke-linejoin:miter;stroke:rgb(70.000763%,70.000763%,70.000763%);stroke-opacity:1;stroke-miterlimit:3.25;" d="M 227.578125 163.878906 L 198.273438 40.570312 "/>
<path style="fill:none;stroke-width:1;stroke-linecap:square;stroke-linejoin:miter;stroke:rgb(70.000763%,70.000763%,70.000763%);stroke-opacity:1;stroke-miterlimit:3.25;" d="M 224.921875 155.03125 L 181.460938 35.972656 "/>
<path style="fill:none;stroke-width:1;stroke-linecap:square;stroke-linejoin:miter;stroke:rgb(70.000763%,70.000763%,70.000763%);stroke-opacity:1;stroke-miterlimit:3.25;" d="M 221.253906 146.554688 L 164.230469 33.363281 "/>
<path style="fill:none;stroke-width:1;stroke-linecap:square;stroke-linejoin:miter;stroke:rgb(70.000763%,70.000763%,70.000763%);stroke-opacity:1;stroke-miterlimit:3.25;" d="M 216.625 138.5625 L 146.8125 32.777344 "/>
<path style="fill:none;stroke-width:1;stroke-linecap:square;stroke-linejoin:miter;stroke:rgb(70.000763%,70.000763%,70.000763%);stroke-opacity:1;stroke-miterlimit:3.25;" d="M 211.097656 131.164062 L 129.445312 34.222656 "/>
<path style="fill:none;stroke-width:1;stroke-linecap:square;stroke-linejoin:miter;stroke:rgb(70.000763%,70.000763%,70.000763%);stroke-opacity:1;stroke-miterlimit:3.25;" d="M 204.746094 124.457031 L 112.363281 37.683594 "/>
<path style="fill:none;stroke-width:1;stroke-linecap:square;stroke-linejoin:miter;stroke:rgb(70.000763%,70.000763%,70.000763%);stroke-opacity:1;stroke-miterlimit:3.25;" d="M 197.65625 118.539062 L 95.800781 43.105469 "/>
<path style="fill:none;stroke-width:1;stroke-linecap:square;stroke-linejoin:miter;stroke:rgb(70.000763%,70.000763%,70.000763%);stroke-opacity:1;stroke-miterlimit:3.25;" d="M 189.925781 113.484375 L 79.984375 50.417969 "/>
<path style="fill:none;stroke-width:1;stroke-linecap:square;stroke-linejoin:miter;stroke:rgb(70.000763%,70.000763%,70.000763%);stroke-opacity:1;stroke-miterlimit:3.25;" d="M 181.660156 109.363281 L 65.125 59.523438 "/>
<path style="fill:none;stroke-width:1;stroke-linecap:square;stroke-linejoin:miter;stroke:rgb(70.000763%,70.000763%,70.000763%);stroke-opacity:1;stroke-miterlimit:3.25;" d="M 172.96875 106.230469 L 51.425781 70.296875 "/>
<path style="fill:none;stroke-width:1;stroke-linecap:square;stroke-linejoin:miter;stroke:rgb(70.000763%,70.000763%,70.000763%);stroke-opacity:1;stroke-miterlimit:3.25;" d="M 163.972656 104.132812 L 39.074219 82.589844 "/>
<path style="fill:none;stroke-width:0.2;stroke-linecap:butt;stroke-linejoin:miter;stroke:rgb(100%,0%,0%);stroke-opacity:1;stroke-miterlimit:3.25;" d="M 211.097656 131.164062 L 135.746094 41.703125 "/>
<path style=" stroke:none;fill-rule:nonzero;fill:rgb(100%,0%,0%);fill-opacity:1;" d="M 134.21875 44.289062 L 134.363281 43.960938 L 134.730469 43.199219 L 134.96875 42.757812 L 135.226562 42.335938 L 135.488281 41.96875 L 135.746094 41.703125 L 136.023438 41.519531 L 136.425781 41.324219 L 136.898438 41.132812 L 137.394531 40.957031 L 138.265625 40.675781 L 138.640625 40.5625 L 129.445312 34.222656 Z M 134.21875 44.289062 "/>
<path style="fill:none;stroke-width:4;stroke-linecap:butt;stroke-linejoin:round;stroke:rgb(100%,100%,100%);stroke-opacity:0.666667;stroke-miterlimit:3.239307;" d="M 172.765625 80.203125 L 173.976562 79.035156 L 174.980469 78.15625 L 175.804688 77.527344 L 176.484375 77.109375 L 177.039062 76.851562 L 177.511719 76.722656 L 177.917969 76.671875 L 178.300781 76.664062 L 180.300781 76.664062 "/>
<path style="fill:none;stroke-width:1.25;stroke-linecap:square;stroke-linejoin:miter;stroke:rgb(66.666667%,66.666667%,66.666667%);stroke-opacity:1;stroke-miterlimit:3.25;" d="M 172.765625 80.203125 L 173.976562 79.035156 L 174.980469 78.15625 L 175.804688 77.527344 L 176.484375 77.109375 L 177.039062 76.851562 L 177.511719 76.722656 L 177.917969 76.671875 L 178.300781 76.664062 L 180.300781 76.664062 "/>
<path style=" stroke:none;fill-rule:nonzero;fill:rgb(100%,100%,100%);fill-opacity:0.666667;" d="M 216.300781 63.464844 L 216.300781 85.464844 L 180.300781 85.464844 L 180.300781 63.464844 Z M 216.300781 63.464844 "/>
<path style=" stroke:none;fill-rule:evenodd;fill:rgb(0%,0%,0%);fill-opacity:1;" d="M 190.628906 76.644531 C 190.628906 76.542969 190.554688 76.542969 190.519531 76.542969 C 190.433594 76.542969 190.421875 76.578125 190.386719 76.664062 C 190.289062 76.941406 190.03125 77.183594 189.769531 77.183594 C 189.425781 77.183594 189.425781 76.476562 189.425781 75.804688 C 190.554688 74.457031 190.816406 73.050781 190.816406 73.050781 C 190.816406 72.953125 190.730469 72.953125 190.695312 72.953125 C 190.597656 72.953125 190.585938 72.984375 190.542969 73.183594 C 190.398438 73.671875 190.109375 74.53125 189.425781 75.4375 L 189.425781 74.5 C 189.425781 73.425781 188.816406 72.421875 187.648438 72.421875 C 186.199219 72.421875 184.75 74 184.75 75.570312 C 184.75 76.53125 185.347656 77.40625 186.472656 77.40625 C 187.160156 77.40625 187.976562 77.140625 188.761719 76.476562 C 188.917969 77.097656 189.257812 77.40625 189.734375 77.40625 C 190.332031 77.40625 190.628906 76.785156 190.628906 76.644531 Z M 188.730469 76.210938 C 187.757812 77.085938 186.882812 77.183594 186.496094 77.183594 C 185.710938 77.183594 185.492188 76.488281 185.492188 75.96875 C 185.492188 75.492188 185.734375 74.367188 186.078125 73.757812 C 186.527344 72.984375 187.148438 72.640625 187.648438 72.640625 C 188.71875 72.640625 188.71875 74.046875 188.71875 74.972656 L 188.707031 75.8125 C 188.707031 76.035156 188.71875 76.089844 188.730469 76.210938 Z M 188.730469 76.210938 "/>
<path style=" stroke:none;fill-rule:evenodd;fill:rgb(0%,0%,0%);fill-opacity:1;" d="M 194.859375 79.980469 C 194.859375 79.949219 194.859375 79.925781 194.671875 79.738281 C 193.570312 78.621094 192.949219 76.796875 192.949219 74.542969 C 192.949219 72.398438 193.46875 70.554688 194.75 69.25 C 194.859375 69.148438 194.859375 69.128906 194.859375 69.09375 C 194.859375 69.027344 194.804688 69.007812 194.761719 69.007812 C 194.617188 69.007812 193.710938 69.800781 193.167969 70.886719 C 192.605469 72 192.351562 73.183594 192.351562 74.542969 C 192.351562 75.527344 192.507812 76.84375 193.082031 78.023438 C 193.734375 79.351562 194.640625 80.070312 194.761719 80.070312 C 194.804688 80.070312 194.859375 80.046875 194.859375 79.980469 Z M 194.859375 79.980469 "/>
<path style=" stroke:none;fill-rule:evenodd;fill:rgb(0%,0%,0%);fill-opacity:1;" d="M 198.867188 75.714844 C 198.867188 75.648438 198.820312 75.613281 198.753906 75.613281 C 198.753906 75.613281 198.6875 75.613281 198.664062 75.660156 C 198.664062 75.660156 198.644531 75.679688 198.566406 75.859375 C 198.335938 76.410156 197.828125 77.183594 197.1875 77.183594 C 196.851562 77.183594 196.832031 76.910156 196.832031 76.664062 C 196.832031 76.664062 196.832031 76.445312 196.863281 76.3125 L 197.726562 72.851562 L 198.746094 72.851562 C 198.953125 72.851562 199.0625 72.851562 199.0625 72.652344 C 199.0625 72.53125 199 72.53125 198.777344 72.53125 L 197.804688 72.53125 L 198.214844 70.917969 C 198.257812 70.765625 198.257812 70.742188 198.257812 70.664062 C 198.257812 70.488281 198.113281 70.386719 197.96875 70.386719 C 197.882812 70.386719 197.625 70.421875 197.539062 70.773438 L 197.109375 72.53125 L 196.070312 72.53125 C 195.847656 72.53125 195.75 72.53125 195.75 72.742188 C 195.75 72.851562 195.824219 72.851562 196.035156 72.851562 L 197.019531 72.851562 L 196.289062 75.769531 C 196.203125 76.15625 196.167969 76.269531 196.167969 76.410156 C 196.167969 76.929688 196.53125 77.40625 197.152344 77.40625 C 198.269531 77.40625 198.867188 75.792969 198.867188 75.714844 Z M 198.867188 75.714844 "/>
<path style=" stroke:none;fill-rule:evenodd;fill:rgb(0%,0%,0%);fill-opacity:1;" d="M 202.453125 74.542969 C 202.453125 73.703125 202.34375 72.332031 201.726562 71.050781 C 201.074219 69.726562 200.167969 69.007812 200.046875 69.007812 C 200.003906 69.007812 199.945312 69.027344 199.945312 69.09375 C 199.945312 69.128906 199.945312 69.148438 200.132812 69.335938 C 201.238281 70.453125 201.859375 72.277344 201.859375 74.53125 C 201.859375 76.675781 201.339844 78.523438 200.058594 79.828125 C 199.945312 79.925781 199.945312 79.949219 199.945312 79.980469 C 199.945312 80.046875 200.003906 80.070312 200.046875 80.070312 C 200.191406 80.070312 201.097656 79.273438 201.636719 78.191406 C 202.199219 77.0625 202.453125 75.867188 202.453125 74.542969 Z M 202.453125 74.542969 "/>
<path style=" stroke:none;fill-rule:evenodd;fill:rgb(0%,0%,0%);fill-opacity:1;" d="M 208.628906 73.160156 C 208.628906 72.464844 208.273438 72.421875 208.183594 72.421875 C 207.917969 72.421875 207.675781 72.6875 207.675781 72.90625 C 207.675781 73.039062 207.753906 73.117188 207.796875 73.160156 C 207.910156 73.261719 208.195312 73.558594 208.195312 74.136719 C 208.195312 74.597656 207.53125 77.183594 206.207031 77.183594 C 205.53125 77.183594 205.398438 76.621094 205.398438 76.210938 C 205.398438 75.660156 205.652344 74.886719 205.953125 74.089844 C 206.128906 73.636719 206.171875 73.527344 206.171875 73.304688 C 206.171875 72.839844 205.839844 72.421875 205.300781 72.421875 C 204.28125 72.421875 203.875 74.023438 203.875 74.113281 C 203.875 74.15625 203.917969 74.210938 203.996094 74.210938 C 204.09375 74.210938 204.105469 74.167969 204.152344 74.011719 C 204.414062 73.0625 204.847656 72.640625 205.265625 72.640625 C 205.367188 72.640625 205.554688 72.640625 205.554688 73.007812 C 205.554688 73.296875 205.433594 73.613281 205.265625 74.035156 C 204.734375 75.449219 204.734375 75.792969 204.734375 76.058594 C 204.734375 76.300781 204.769531 76.753906 205.113281 77.0625 C 205.507812 77.40625 206.0625 77.40625 206.160156 77.40625 C 207.996094 77.40625 208.628906 73.792969 208.628906 73.160156 Z M 208.628906 73.160156 "/>
<path style=" stroke:none;fill-rule:evenodd;fill:rgb(0%,0%,0%);fill-opacity:1;" d="M 211.453125 77.804688 C 211.453125 77.71875 211.382812 77.703125 211.335938 77.703125 C 211.25 77.703125 211.242188 77.734375 211.1875 77.847656 C 211.035156 78.21875 210.648438 78.769531 210.175781 78.769531 C 210.011719 78.769531 209.917969 78.660156 209.917969 78.40625 C 209.917969 78.261719 209.941406 78.175781 209.964844 78.074219 L 210.53125 75.828125 L 211.289062 75.828125 C 211.4375 75.828125 211.527344 75.828125 211.527344 75.683594 C 211.527344 75.574219 211.429688 75.574219 211.296875 75.574219 L 210.59375 75.574219 L 210.871094 74.476562 C 210.902344 74.359375 210.902344 74.3125 210.902344 74.3125 C 210.902344 74.152344 210.777344 74.074219 210.648438 74.074219 C 210.382812 74.074219 210.328125 74.28125 210.242188 74.628906 L 210.003906 75.574219 L 209.261719 75.574219 C 209.117188 75.574219 209.015625 75.574219 209.015625 75.722656 C 209.015625 75.828125 209.117188 75.828125 209.246094 75.828125 L 209.941406 75.828125 L 209.476562 77.6875 C 209.433594 77.878906 209.363281 78.152344 209.363281 78.261719 C 209.363281 78.722656 209.742188 78.988281 210.152344 78.988281 C 210.980469 78.988281 211.453125 77.894531 211.453125 77.804688 Z M 211.453125 77.804688 "/>
<path style="fill:none;stroke-width:1;stroke-linecap:square;stroke-linejoin:miter;stroke:rgb(0%,0%,0%);stroke-opacity:1;stroke-miterlimit:3.25;" d="M 229.726562 182.195312 L 229.710938 180.65625 L 229.664062 179.117188 L 229.589844 177.578125 L 229.484375 176.042969 L 229.351562 174.507812 L 229.1875 172.976562 L 228.992188 171.445312 L 228.769531 169.921875 L 228.515625 168.402344 L 228.234375 166.890625 L 227.921875 165.382812 L 227.578125 163.878906 L 227.207031 162.382812 L 226.808594 160.898438 L 226.378906 159.417969 L 225.921875 157.945312 L 225.4375 156.484375 L 224.921875 155.03125 L 224.378906 153.589844 L 223.808594 152.160156 L 223.210938 150.742188 L 222.585938 149.332031 L 221.933594 147.9375 L 221.253906 146.554688 L 220.550781 145.1875 L 219.816406 143.832031 L 219.058594 142.492188 L 218.273438 141.167969 L 217.460938 139.855469 L 216.625 138.5625 L 215.765625 137.285156 L 214.878906 136.027344 L 213.96875 134.78125 L 213.035156 133.558594 L 212.078125 132.351562 L 211.097656 131.164062 L 210.09375 129.996094 L 209.066406 128.847656 L 208.019531 127.71875 L 206.949219 126.609375 L 205.859375 125.523438 L 204.746094 124.457031 L 203.613281 123.414062 L 202.460938 122.394531 L 201.285156 121.394531 L 200.09375 120.417969 L 198.882812 119.464844 L 197.65625 118.539062 L 196.410156 117.632812 L 195.144531 116.753906 L 193.863281 115.898438 L 192.566406 115.066406 L 191.253906 114.261719 L 189.925781 113.484375 L 188.582031 112.730469 L 187.222656 112.003906 L 185.851562 111.300781 L 184.46875 110.628906 L 183.070312 109.980469 L 181.660156 109.363281 L 180.238281 108.769531 L 178.804688 108.207031 L 177.359375 107.667969 L 175.90625 107.160156 L 174.441406 106.683594 L 172.96875 106.230469 L 171.488281 105.808594 L 170 105.414062 L 168.503906 105.050781 L 167 104.714844 L 165.488281 104.410156 L 163.972656 104.132812 "/>
<path style=" stroke:none;fill-rule:evenodd;fill:rgb(0%,0%,0%);fill-opacity:1;" d="M 231.5 182 C 231.5 181.601562 231.34375 181.21875 231.0625 180.9375 C 230.78125 180.65625 230.398438 180.5 230 180.5 C 229.601562 180.5 229.21875 180.65625 228.9375 180.9375 C 228.65625 181.21875 228.5 181.601562 228.5 182 C 228.5 182.398438 228.65625 182.78125 228.9375 183.0625 C 229.21875 183.34375 229.601562 183.5 230 183.5 C 230.398438 183.5 230.78125 183.34375 231.0625 183.0625 C 231.34375 182.78125 231.5 182.398438 231.5 182 Z M 231.5 182 "/>
<path style=" stroke:none;fill-rule:evenodd;fill:rgb(0%,0%,0%);fill-opacity:1;" d="M 203.730469 180.800781 C 203.730469 180.113281 203.378906 180.070312 203.292969 180.070312 C 203.03125 180.070312 202.789062 180.332031 202.789062 180.550781 C 202.789062 180.683594 202.867188 180.757812 202.910156 180.800781 C 203.019531 180.902344 203.304688 181.199219 203.304688 181.769531 C 203.304688 182.226562 202.644531 184.792969 201.332031 184.792969 C 200.660156 184.792969 200.53125 184.234375 200.53125 183.828125 C 200.53125 183.277344 200.78125 182.511719 201.078125 181.722656 C 201.253906 181.273438 201.296875 181.164062 201.296875 180.945312 C 201.296875 180.484375 200.96875 180.070312 200.433594 180.070312 C 199.425781 180.070312 199.019531 181.65625 199.019531 181.746094 C 199.019531 181.789062 199.0625 181.84375 199.136719 181.84375 C 199.238281 181.84375 199.25 181.800781 199.292969 181.644531 C 199.554688 180.703125 199.980469 180.289062 200.398438 180.289062 C 200.496094 180.289062 200.683594 180.289062 200.683594 180.648438 C 200.683594 180.933594 200.5625 181.253906 200.398438 181.667969 C 199.871094 183.070312 199.871094 183.410156 199.871094 183.675781 C 199.871094 183.914062 199.90625 184.363281 200.246094 184.671875 C 200.640625 185.011719 201.1875 185.011719 201.285156 185.011719 C 203.105469 185.011719 203.730469 181.425781 203.730469 180.800781 Z M 203.730469 180.800781 "/>
<path style=" stroke:none;fill-rule:evenodd;fill:rgb(0%,0%,0%);fill-opacity:1;" d="M 210.199219 178.382812 C 210.199219 178.207031 210.03125 178.207031 209.921875 178.207031 L 207.667969 178.207031 L 207.667969 175.941406 C 207.667969 175.835938 207.667969 175.667969 207.492188 175.667969 C 207.316406 175.667969 207.316406 175.835938 207.316406 175.941406 L 207.316406 178.207031 L 205.050781 178.207031 C 204.945312 178.207031 204.777344 178.207031 204.777344 178.382812 C 204.777344 178.558594 204.945312 178.558594 205.050781 178.558594 L 207.316406 178.558594 L 207.316406 180.824219 C 207.316406 180.929688 207.316406 181.097656 207.492188 181.097656 C 207.667969 181.097656 207.667969 180.929688 207.667969 180.824219 L 207.667969 178.558594 L 209.921875 178.558594 C 210.03125 178.558594 210.199219 178.558594 210.199219 178.382812 Z M 210.199219 178.382812 "/>
<path style=" stroke:none;fill-rule:evenodd;fill:rgb(0%,0%,0%);fill-opacity:1;" d="M 209.9375 187.957031 C 209.9375 187.847656 209.828125 187.847656 209.785156 187.847656 C 209.484375 187.839844 209.386719 187.789062 209.261719 187.527344 L 208.042969 185.015625 L 207.996094 184.917969 C 207.996094 184.917969 208.125 184.8125 208.203125 184.757812 C 208.808594 184.3125 209.640625 183.714844 209.890625 183.554688 C 210.28125 183.308594 210.566406 183.144531 210.914062 183.113281 C 210.972656 183.105469 211.082031 183.097656 211.082031 182.960938 C 211.074219 182.90625 211.027344 182.863281 210.972656 182.863281 C 210.972656 182.863281 210.75 182.886719 210.695312 182.886719 L 210.390625 182.886719 C 210.257812 182.886719 210.070312 182.886719 210 182.878906 C 209.945312 182.878906 209.644531 182.863281 209.59375 182.863281 C 209.539062 182.863281 209.429688 182.863281 209.429688 183.007812 C 209.429688 183.007812 209.4375 183.105469 209.554688 183.113281 C 209.617188 183.121094 209.738281 183.136719 209.738281 183.230469 C 209.738281 183.351562 209.585938 183.484375 209.570312 183.492188 L 209.507812 183.546875 C 209.484375 183.566406 209.453125 183.597656 209.414062 183.621094 L 206.285156 185.890625 L 206.890625 183.460938 C 206.960938 183.183594 206.976562 183.113281 207.535156 183.113281 C 207.691406 183.113281 207.78125 183.113281 207.78125 182.96875 C 207.78125 182.96875 207.773438 182.863281 207.652344 182.863281 C 207.507812 182.863281 207.320312 182.878906 207.175781 182.886719 L 206.691406 182.886719 C 205.957031 182.886719 205.757812 182.863281 205.703125 182.863281 C 205.664062 182.863281 205.550781 182.863281 205.550781 183.007812 C 205.550781 183.113281 205.640625 183.113281 205.773438 183.113281 C 206.023438 183.113281 206.25 183.113281 206.25 183.238281 C 206.25 183.269531 206.242188 183.277344 206.21875 183.375 L 205.1875 187.496094 C 205.121094 187.789062 205.105469 187.847656 204.539062 187.847656 C 204.390625 187.847656 204.300781 187.847656 204.300781 187.992188 C 204.300781 188.023438 204.320312 188.101562 204.421875 188.101562 C 204.566406 188.101562 204.75 188.085938 204.898438 188.078125 L 205.886719 188.078125 C 206.007812 188.085938 206.261719 188.101562 206.378906 188.101562 C 206.417969 188.101562 206.53125 188.101562 206.53125 187.964844 C 206.53125 187.847656 206.4375 187.847656 206.308594 187.847656 C 206.253906 187.847656 206.148438 187.847656 206.015625 187.832031 C 205.855469 187.816406 205.832031 187.804688 205.832031 187.726562 C 205.832031 187.679688 205.886719 187.488281 205.910156 187.367188 C 205.996094 187.027344 205.894531 187.449219 206.203125 186.207031 L 207.4375 185.316406 L 208.359375 187.210938 L 208.503906 187.511719 C 208.546875 187.585938 208.546875 187.601562 208.546875 187.632812 C 208.546875 187.839844 208.265625 187.847656 208.179688 187.847656 C 208.105469 187.847656 207.996094 187.847656 207.996094 187.992188 C 207.996094 187.992188 208.003906 188.101562 208.125 188.101562 C 208.203125 188.101562 208.496094 188.085938 208.5625 188.078125 L 209.007812 188.078125 C 209.714844 188.078125 209.691406 188.101562 209.792969 188.101562 C 209.820312 188.101562 209.9375 188.101562 209.9375 187.957031 Z M 209.9375 187.957031 "/>
<path style=" stroke:none;fill-rule:evenodd;fill:rgb(0%,0%,0%);fill-opacity:1;" d="M 215.386719 187.5625 C 215.386719 187.53125 215.386719 187.507812 215.199219 187.324219 C 214.105469 186.214844 213.488281 184.40625 213.488281 182.171875 C 213.488281 180.046875 214.003906 178.21875 215.277344 176.925781 C 215.386719 176.824219 215.386719 176.804688 215.386719 176.769531 C 215.386719 176.707031 215.332031 176.683594 215.285156 176.683594 C 215.144531 176.683594 214.246094 177.472656 213.707031 178.546875 C 213.148438 179.652344 212.898438 180.824219 212.898438 182.171875 C 212.898438 183.148438 213.050781 184.453125 213.621094 185.625 C 214.269531 186.9375 215.167969 187.652344 215.285156 187.652344 C 215.332031 187.652344 215.386719 187.628906 215.386719 187.5625 Z M 215.386719 187.5625 "/>
<path style=" stroke:none;fill-rule:evenodd;fill:rgb(0%,0%,0%);fill-opacity:1;" d="M 219.324219 183.597656 C 219.269531 183.785156 219.269531 183.804688 219.113281 184.015625 C 218.871094 184.320312 218.390625 184.792969 217.875 184.792969 C 217.425781 184.792969 217.175781 184.386719 217.175781 183.742188 C 217.175781 183.136719 217.515625 181.910156 217.722656 181.449219 C 218.09375 180.683594 218.609375 180.289062 219.035156 180.289062 C 219.761719 180.289062 219.902344 181.1875 219.902344 181.273438 C 219.902344 181.273438 219.871094 181.425781 219.859375 181.449219 Z M 221.339844 183.335938 C 221.339844 183.277344 221.296875 183.234375 221.230469 183.234375 C 221.132812 183.234375 221.121094 183.289062 221.078125 183.453125 C 220.910156 184.101562 220.703125 184.792969 220.253906 184.792969 C 219.933594 184.792969 219.914062 184.507812 219.914062 184.289062 C 219.914062 184.035156 219.945312 183.914062 220.046875 183.488281 L 220.265625 182.65625 C 220.671875 181.011719 220.769531 180.617188 220.769531 180.550781 C 220.769531 180.398438 220.648438 180.277344 220.484375 180.277344 C 220.132812 180.277344 220.046875 180.660156 220.023438 180.792969 C 219.902344 180.507812 219.605469 180.070312 219.035156 180.070312 C 217.800781 180.070312 216.460938 181.667969 216.460938 183.289062 C 216.460938 184.375 217.097656 185.011719 217.84375 185.011719 C 218.445312 185.011719 218.960938 184.539062 219.269531 184.179688 C 219.378906 184.824219 219.890625 185.011719 220.222656 185.011719 C 220.550781 185.011719 220.8125 184.8125 221.011719 184.417969 C 221.1875 184.046875 221.339844 183.378906 221.339844 183.335938 Z M 221.339844 183.335938 "/>
<path style=" stroke:none;fill-rule:evenodd;fill:rgb(0%,0%,0%);fill-opacity:1;" d="M 224.714844 182.171875 C 224.714844 181.339844 224.605469 179.980469 223.992188 178.710938 C 223.34375 177.394531 222.445312 176.683594 222.328125 176.683594 C 222.28125 176.683594 222.226562 176.707031 222.226562 176.769531 C 222.226562 176.804688 222.226562 176.824219 222.414062 177.011719 C 223.507812 178.117188 224.125 179.925781 224.125 182.160156 C 224.125 184.289062 223.609375 186.117188 222.335938 187.410156 C 222.226562 187.507812 222.226562 187.53125 222.226562 187.5625 C 222.226562 187.628906 222.28125 187.652344 222.328125 187.652344 C 222.46875 187.652344 223.367188 186.863281 223.90625 185.789062 C 224.460938 184.671875 224.714844 183.488281 224.714844 182.171875 Z M 224.714844 182.171875 "/>
<path style=" stroke:none;fill-rule:evenodd;fill:rgb(0%,0%,0%);fill-opacity:1;" d="M 165.5 104 C 165.5 103.601562 165.34375 103.21875 165.0625 102.9375 C 164.78125 102.65625 164.398438 102.5 164 102.5 C 163.601562 102.5 163.21875 102.65625 162.9375 102.9375 C 162.65625 103.21875 162.5 103.601562 162.5 104 C 162.5 104.398438 162.65625 104.78125 162.9375 105.0625 C 163.21875 105.34375 163.601562 105.5 164 105.5 C 164.398438 105.5 164.78125 105.34375 165.0625 105.0625 C 165.34375 104.78125 165.5 104.398438 165.5 104 Z M 165.5 104 "/>
<path style=" stroke:none;fill-rule:evenodd;fill:rgb(0%,0%,0%);fill-opacity:1;" d="M 155.984375 115.132812 C 155.984375 114.441406 155.632812 114.398438 155.542969 114.398438 C 155.28125 114.398438 155.042969 114.660156 155.042969 114.878906 C 155.042969 115.011719 155.117188 115.089844 155.160156 115.132812 C 155.269531 115.230469 155.554688 115.527344 155.554688 116.097656 C 155.554688 116.554688 154.898438 119.121094 153.585938 119.121094 C 152.914062 119.121094 152.785156 118.5625 152.785156 118.15625 C 152.785156 117.609375 153.035156 116.839844 153.332031 116.050781 C 153.507812 115.605469 153.550781 115.496094 153.550781 115.277344 C 153.550781 114.816406 153.222656 114.398438 152.6875 114.398438 C 151.679688 114.398438 151.273438 115.988281 151.273438 116.074219 C 151.273438 116.121094 151.316406 116.175781 151.390625 116.175781 C 151.492188 116.175781 151.503906 116.128906 151.546875 115.976562 C 151.808594 115.035156 152.234375 114.617188 152.652344 114.617188 C 152.75 114.617188 152.9375 114.617188 152.9375 114.980469 C 152.9375 115.265625 152.816406 115.582031 152.652344 115.996094 C 152.125 117.398438 152.125 117.738281 152.125 118.003906 C 152.125 118.242188 152.160156 118.691406 152.5 119 C 152.894531 119.339844 153.441406 119.339844 153.539062 119.339844 C 155.359375 119.339844 155.984375 115.757812 155.984375 115.132812 Z M 155.984375 115.132812 "/>
<path style=" stroke:none;fill-rule:evenodd;fill:rgb(0%,0%,0%);fill-opacity:1;" d="M 162.21875 112.714844 C 162.21875 112.539062 162.050781 112.539062 161.945312 112.539062 L 157.535156 112.539062 C 157.425781 112.539062 157.257812 112.539062 157.257812 112.714844 C 157.257812 112.890625 157.425781 112.890625 157.535156 112.890625 L 161.945312 112.890625 C 162.050781 112.890625 162.21875 112.890625 162.21875 112.714844 Z M 162.21875 112.714844 "/>
<path style=" stroke:none;fill-rule:evenodd;fill:rgb(0%,0%,0%);fill-opacity:1;" d="M 162.1875 122.285156 C 162.1875 122.175781 162.082031 122.175781 162.035156 122.175781 C 161.734375 122.167969 161.636719 122.113281 161.511719 121.855469 L 160.292969 119.34375 L 160.25 119.246094 C 160.25 119.246094 160.378906 119.140625 160.457031 119.085938 C 161.058594 118.640625 161.890625 118.042969 162.144531 117.882812 C 162.535156 117.636719 162.816406 117.472656 163.164062 117.445312 C 163.222656 117.4375 163.332031 117.429688 163.332031 117.289062 C 163.324219 117.234375 163.277344 117.191406 163.222656 117.191406 C 163.222656 117.191406 163 117.214844 162.949219 117.214844 L 162.640625 117.214844 C 162.511719 117.214844 162.320312 117.214844 162.25 117.207031 C 162.195312 117.207031 161.894531 117.191406 161.84375 117.191406 C 161.789062 117.191406 161.683594 117.191406 161.683594 117.335938 C 161.683594 117.335938 161.691406 117.4375 161.804688 117.445312 C 161.867188 117.453125 161.988281 117.46875 161.988281 117.558594 C 161.988281 117.679688 161.835938 117.8125 161.820312 117.820312 L 161.757812 117.875 C 161.734375 117.894531 161.707031 117.925781 161.667969 117.949219 L 158.539062 120.21875 L 159.144531 117.789062 C 159.210938 117.511719 159.226562 117.445312 159.789062 117.445312 C 159.941406 117.445312 160.03125 117.445312 160.03125 117.296875 C 160.03125 117.296875 160.027344 117.191406 159.902344 117.191406 C 159.757812 117.191406 159.574219 117.207031 159.429688 117.214844 L 158.945312 117.214844 C 158.207031 117.214844 158.007812 117.191406 157.953125 117.191406 C 157.914062 117.191406 157.800781 117.191406 157.800781 117.335938 C 157.800781 117.445312 157.894531 117.445312 158.023438 117.445312 C 158.277344 117.445312 158.5 117.445312 158.5 117.566406 C 158.5 117.597656 158.492188 117.605469 158.46875 117.703125 L 157.441406 121.824219 C 157.371094 122.113281 157.355469 122.175781 156.789062 122.175781 C 156.644531 122.175781 156.550781 122.175781 156.550781 122.320312 C 156.550781 122.351562 156.574219 122.429688 156.675781 122.429688 C 156.820312 122.429688 157.003906 122.414062 157.152344 122.40625 L 158.140625 122.40625 C 158.261719 122.414062 158.515625 122.429688 158.628906 122.429688 C 158.667969 122.429688 158.78125 122.429688 158.78125 122.292969 C 158.78125 122.175781 158.691406 122.175781 158.5625 122.175781 C 158.507812 122.175781 158.398438 122.175781 158.269531 122.160156 C 158.109375 122.144531 158.085938 122.128906 158.085938 122.050781 C 158.085938 122.007812 158.140625 121.816406 158.164062 121.691406 C 158.246094 121.355469 158.148438 121.777344 158.453125 120.535156 L 159.6875 119.644531 L 160.609375 121.539062 L 160.753906 121.839844 C 160.800781 121.914062 160.800781 121.929688 160.800781 121.960938 C 160.800781 122.167969 160.515625 122.175781 160.433594 122.175781 C 160.355469 122.175781 160.25 122.175781 160.25 122.320312 C 160.25 122.320312 160.257812 122.429688 160.378906 122.429688 C 160.457031 122.429688 160.746094 122.414062 160.816406 122.40625 L 161.261719 122.40625 C 161.964844 122.40625 161.941406 122.429688 162.042969 122.429688 C 162.074219 122.429688 162.1875 122.429688 162.1875 122.285156 Z M 162.1875 122.285156 "/>
<path style=" stroke:none;fill-rule:evenodd;fill:rgb(0%,0%,0%);fill-opacity:1;" d="M 167.632812 121.890625 C 167.632812 121.859375 167.632812 121.835938 167.449219 121.652344 C 166.351562 120.542969 165.738281 118.734375 165.738281 116.5 C 165.738281 114.378906 166.253906 112.546875 167.523438 111.253906 C 167.632812 111.15625 167.632812 111.132812 167.632812 111.101562 C 167.632812 111.035156 167.578125 111.015625 167.535156 111.015625 C 167.394531 111.015625 166.496094 111.804688 165.957031 112.875 C 165.398438 113.980469 165.148438 115.152344 165.148438 116.5 C 165.148438 117.476562 165.300781 118.78125 165.871094 119.953125 C 166.515625 121.265625 167.414062 121.980469 167.535156 121.980469 C 167.578125 121.980469 167.632812 121.957031 167.632812 121.890625 Z M 167.632812 121.890625 "/>
<path style=" stroke:none;fill-rule:evenodd;fill:rgb(0%,0%,0%);fill-opacity:1;" d="M 172.6875 116.121094 C 172.6875 115.109375 172.117188 114.398438 171.296875 114.398438 C 170.726562 114.398438 170.210938 114.871094 170.003906 115.089844 L 170.804688 111.902344 C 170.8125 111.859375 170.835938 111.792969 170.835938 111.738281 C 170.835938 111.628906 170.703125 111.628906 170.703125 111.628906 L 170.101562 111.683594 C 169.917969 111.695312 169.753906 111.714844 169.554688 111.726562 C 169.292969 111.75 169.214844 111.757812 169.214844 111.957031 C 169.214844 112.066406 169.324219 112.066406 169.433594 112.066406 C 169.992188 112.066406 169.992188 112.164062 169.992188 112.273438 C 169.992188 112.351562 169.90625 112.667969 169.863281 112.867188 L 169.597656 113.917969 L 168.820312 117.039062 C 168.765625 117.3125 168.765625 117.5 168.765625 117.640625 C 168.765625 118.757812 169.390625 119.339844 170.101562 119.339844 C 171.371094 119.339844 172.6875 117.707031 172.6875 116.121094 Z M 171.394531 118.003906 C 171.121094 118.59375 170.617188 119.121094 170.113281 119.121094 C 169.761719 119.121094 169.378906 118.859375 169.378906 118.003906 C 169.378906 117.640625 169.410156 117.433594 169.609375 116.664062 L 169.863281 115.679688 C 169.882812 115.59375 170.53125 114.617188 171.273438 114.617188 C 171.757812 114.617188 171.976562 115.097656 171.976562 115.667969 C 171.976562 116.195312 171.667969 117.433594 171.394531 118.003906 Z M 171.394531 118.003906 "/>
<path style=" stroke:none;fill-rule:evenodd;fill:rgb(0%,0%,0%);fill-opacity:1;" d="M 175.859375 116.5 C 175.859375 115.667969 175.75 114.3125 175.136719 113.039062 C 174.492188 111.726562 173.59375 111.015625 173.472656 111.015625 C 173.429688 111.015625 173.375 111.035156 173.375 111.101562 C 173.375 111.132812 173.375 111.15625 173.5625 111.34375 C 174.65625 112.449219 175.269531 114.253906 175.269531 116.492188 C 175.269531 118.617188 174.753906 120.445312 173.484375 121.738281 C 173.375 121.835938 173.375 121.859375 173.375 121.890625 C 173.375 121.957031 173.429688 121.980469 173.472656 121.980469 C 173.617188 121.980469 174.511719 121.191406 175.050781 120.117188 C 175.609375 119 175.859375 117.816406 175.859375 116.5 Z M 175.859375 116.5 "/>
<path style=" stroke:none;fill-rule:evenodd;fill:rgb(0%,0%,0%);fill-opacity:1;" d="M 212.5 131 C 212.5 130.601562 212.34375 130.21875 212.0625 129.9375 C 211.78125 129.65625 211.398438 129.5 211 129.5 C 210.601562 129.5 210.21875 129.65625 209.9375 129.9375 C 209.65625 130.21875 209.5 130.601562 209.5 131 C 209.5 131.398438 209.65625 131.78125 209.9375 132.0625 C 210.21875 132.34375 210.601562 132.5 211 132.5 C 211.398438 132.5 211.78125 132.34375 212.0625 132.0625 C 212.34375 131.78125 212.5 131.398438 212.5 131 Z M 212.5 131 "/>
<path style=" stroke:none;fill-rule:evenodd;fill:rgb(0%,0%,0%);fill-opacity:1;" d="M 186.933594 137.375 C 186.933594 136.683594 186.582031 136.640625 186.496094 136.640625 C 186.234375 136.640625 185.992188 136.902344 185.992188 137.121094 C 185.992188 137.253906 186.070312 137.332031 186.113281 137.375 C 186.222656 137.472656 186.507812 137.769531 186.507812 138.339844 C 186.507812 138.800781 185.847656 141.363281 184.535156 141.363281 C 183.867188 141.363281 183.734375 140.804688 183.734375 140.398438 C 183.734375 139.851562 183.988281 139.082031 184.285156 138.292969 C 184.460938 137.847656 184.503906 137.738281 184.503906 137.519531 C 184.503906 137.058594 184.171875 136.640625 183.636719 136.640625 C 182.628906 136.640625 182.222656 138.230469 182.222656 138.316406 C 182.222656 138.363281 182.265625 138.417969 182.34375 138.417969 C 182.445312 138.417969 182.453125 138.371094 182.5 138.21875 C 182.761719 137.277344 183.1875 136.859375 183.605469 136.859375 C 183.703125 136.859375 183.890625 136.859375 183.890625 137.222656 C 183.890625 137.507812 183.769531 137.824219 183.605469 138.238281 C 183.078125 139.640625 183.078125 139.980469 183.078125 140.246094 C 183.078125 140.484375 183.109375 140.933594 183.453125 141.242188 C 183.84375 141.582031 184.394531 141.582031 184.492188 141.582031 C 186.308594 141.582031 186.933594 138 186.933594 137.375 Z M 186.933594 137.375 "/>
<path style=" stroke:none;fill-rule:evenodd;fill:rgb(0%,0%,0%);fill-opacity:1;" d="M 193.402344 134.957031 C 193.402344 134.78125 193.234375 134.78125 193.125 134.78125 L 190.871094 134.78125 L 190.871094 132.515625 C 190.871094 132.410156 190.871094 132.242188 190.695312 132.242188 C 190.519531 132.242188 190.519531 132.410156 190.519531 132.515625 L 190.519531 134.78125 L 188.253906 134.78125 C 188.148438 134.78125 187.980469 134.78125 187.980469 134.957031 C 187.980469 135.132812 188.148438 135.132812 188.253906 135.132812 L 190.519531 135.132812 L 190.519531 137.394531 C 190.519531 137.503906 190.519531 137.671875 190.695312 137.671875 C 190.871094 137.671875 190.871094 137.503906 190.871094 137.394531 L 190.871094 135.132812 L 193.125 135.132812 C 193.234375 135.132812 193.402344 135.132812 193.402344 134.957031 Z M 193.402344 134.957031 "/>
<path style=" stroke:none;fill-rule:evenodd;fill:rgb(0%,0%,0%);fill-opacity:1;" d="M 193.140625 144.527344 C 193.140625 144.417969 193.03125 144.417969 192.988281 144.417969 C 192.6875 144.410156 192.589844 144.355469 192.464844 144.097656 L 191.246094 141.585938 L 191.199219 141.488281 C 191.199219 141.488281 191.328125 141.382812 191.40625 141.328125 C 192.011719 140.882812 192.84375 140.285156 193.09375 140.125 C 193.484375 139.878906 193.769531 139.714844 194.113281 139.6875 C 194.175781 139.679688 194.285156 139.671875 194.285156 139.535156 C 194.277344 139.480469 194.230469 139.433594 194.175781 139.433594 C 194.175781 139.433594 193.953125 139.457031 193.898438 139.457031 L 193.59375 139.457031 C 193.460938 139.457031 193.273438 139.457031 193.203125 139.449219 C 193.148438 139.449219 192.847656 139.433594 192.796875 139.433594 C 192.742188 139.433594 192.632812 139.433594 192.632812 139.578125 C 192.632812 139.578125 192.640625 139.679688 192.757812 139.6875 C 192.820312 139.695312 192.941406 139.710938 192.941406 139.800781 C 192.941406 139.921875 192.789062 140.054688 192.773438 140.0625 L 192.710938 140.117188 C 192.6875 140.136719 192.65625 140.167969 192.617188 140.191406 L 189.488281 142.460938 L 190.09375 140.03125 C 190.164062 139.753906 190.179688 139.6875 190.738281 139.6875 C 190.894531 139.6875 190.984375 139.6875 190.984375 139.542969 C 190.984375 139.542969 190.976562 139.433594 190.855469 139.433594 C 190.710938 139.433594 190.523438 139.449219 190.378906 139.457031 L 189.894531 139.457031 C 189.160156 139.457031 188.960938 139.433594 188.90625 139.433594 C 188.867188 139.433594 188.753906 139.433594 188.753906 139.578125 C 188.753906 139.6875 188.847656 139.6875 188.976562 139.6875 C 189.230469 139.6875 189.453125 139.6875 189.453125 139.808594 C 189.453125 139.839844 189.445312 139.847656 189.421875 139.945312 L 188.394531 144.066406 C 188.324219 144.355469 188.308594 144.417969 187.742188 144.417969 C 187.59375 144.417969 187.503906 144.417969 187.503906 144.5625 C 187.503906 144.59375 187.527344 144.671875 187.625 144.671875 C 187.769531 144.671875 187.957031 144.65625 188.101562 144.648438 L 189.089844 144.648438 C 189.214844 144.65625 189.464844 144.671875 189.582031 144.671875 C 189.621094 144.671875 189.734375 144.671875 189.734375 144.535156 C 189.734375 144.417969 189.640625 144.417969 189.511719 144.417969 C 189.457031 144.417969 189.351562 144.417969 189.222656 144.402344 C 189.058594 144.386719 189.035156 144.371094 189.035156 144.292969 C 189.035156 144.25 189.089844 144.058594 189.113281 143.933594 C 189.199219 143.597656 189.097656 144.019531 189.40625 142.777344 L 190.640625 141.886719 L 191.5625 143.78125 L 191.707031 144.082031 C 191.75 144.15625 191.75 144.171875 191.75 144.203125 C 191.75 144.410156 191.46875 144.417969 191.382812 144.417969 C 191.308594 144.417969 191.199219 144.417969 191.199219 144.5625 C 191.199219 144.5625 191.207031 144.671875 191.328125 144.671875 C 191.40625 144.671875 191.699219 144.65625 191.765625 144.648438 L 192.210938 144.648438 C 192.917969 144.648438 192.894531 144.671875 192.996094 144.671875 C 193.023438 144.671875 193.140625 144.671875 193.140625 144.527344 Z M 193.140625 144.527344 "/>
<path style=" stroke:none;fill-rule:evenodd;fill:rgb(0%,0%,0%);fill-opacity:1;" d="M 198.585938 144.132812 C 198.585938 144.101562 198.585938 144.078125 198.398438 143.894531 C 197.304688 142.785156 196.691406 140.976562 196.691406 138.746094 C 196.691406 136.621094 197.207031 134.789062 198.476562 133.496094 C 198.585938 133.398438 198.585938 133.375 198.585938 133.34375 C 198.585938 133.277344 198.53125 133.257812 198.488281 133.257812 C 198.34375 133.257812 197.449219 134.046875 196.910156 135.117188 C 196.351562 136.222656 196.097656 137.394531 196.097656 138.746094 C 196.097656 139.71875 196.253906 141.023438 196.824219 142.195312 C 197.46875 143.507812 198.367188 144.222656 198.488281 144.222656 C 198.53125 144.222656 198.585938 144.199219 198.585938 144.132812 Z M 198.585938 144.132812 "/>
<path style=" stroke:none;fill-rule:evenodd;fill:rgb(0%,0%,0%);fill-opacity:1;" d="M 202.554688 139.90625 C 202.554688 139.839844 202.511719 139.804688 202.445312 139.804688 C 202.445312 139.804688 202.378906 139.804688 202.355469 139.851562 C 202.355469 139.851562 202.335938 139.871094 202.257812 140.046875 C 202.027344 140.59375 201.527344 141.363281 200.890625 141.363281 C 200.5625 141.363281 200.539062 141.089844 200.539062 140.847656 C 200.539062 140.847656 200.539062 140.628906 200.570312 140.496094 L 201.425781 137.066406 L 202.433594 137.066406 C 202.644531 137.066406 202.753906 137.066406 202.753906 136.871094 C 202.753906 136.75 202.6875 136.75 202.46875 136.75 L 201.503906 136.75 L 201.910156 135.152344 C 201.953125 135 201.953125 134.976562 201.953125 134.898438 C 201.953125 134.722656 201.808594 134.625 201.667969 134.625 C 201.582031 134.625 201.328125 134.65625 201.242188 135.007812 L 200.8125 136.75 L 199.785156 136.75 C 199.5625 136.75 199.464844 136.75 199.464844 136.957031 C 199.464844 137.066406 199.542969 137.066406 199.75 137.066406 L 200.726562 137.066406 L 200.003906 139.960938 C 199.914062 140.34375 199.882812 140.453125 199.882812 140.59375 C 199.882812 141.109375 200.242188 141.582031 200.859375 141.582031 C 201.964844 141.582031 202.554688 139.980469 202.554688 139.90625 Z M 202.554688 139.90625 "/>
<path style=" stroke:none;fill-rule:evenodd;fill:rgb(0%,0%,0%);fill-opacity:1;" d="M 206.113281 138.746094 C 206.113281 137.910156 206.003906 136.554688 205.390625 135.28125 C 204.746094 133.96875 203.847656 133.257812 203.726562 133.257812 C 203.683594 133.257812 203.628906 133.277344 203.628906 133.34375 C 203.628906 133.375 203.628906 133.398438 203.8125 133.585938 C 204.910156 134.691406 205.523438 136.496094 205.523438 138.734375 C 205.523438 140.859375 205.007812 142.6875 203.738281 143.980469 C 203.628906 144.078125 203.628906 144.101562 203.628906 144.132812 C 203.628906 144.199219 203.683594 144.222656 203.726562 144.222656 C 203.867188 144.222656 204.765625 143.433594 205.304688 142.359375 C 205.859375 141.242188 206.113281 140.058594 206.113281 138.746094 Z M 206.113281 138.746094 "/>
<path style="fill:none;stroke-width:1;stroke-linecap:square;stroke-linejoin:miter;stroke:rgb(0%,0%,0%);stroke-opacity:1;stroke-miterlimit:3.25;" d="M 229.726562 55.449219 L 227.246094 53.933594 L 224.738281 52.46875 L 222.203125 51.046875 L 219.636719 49.679688 L 217.046875 48.359375 L 214.433594 47.089844 L 211.792969 45.875 L 209.132812 44.707031 L 206.449219 43.59375 L 203.742188 42.535156 L 201.015625 41.523438 L 198.273438 40.570312 L 195.511719 39.667969 L 192.730469 38.820312 L 189.933594 38.027344 L 187.125 37.285156 L 184.300781 36.601562 L 181.460938 35.972656 L 178.613281 35.398438 L 175.753906 34.878906 L 172.882812 34.417969 L 170.007812 34.007812 L 167.121094 33.660156 L 164.230469 33.363281 L 161.335938 33.125 L 158.433594 32.941406 L 155.53125 32.816406 L 152.625 32.746094 L 149.71875 32.734375 L 146.8125 32.777344 L 143.910156 32.878906 L 141.007812 33.035156 L 138.109375 33.246094 L 135.214844 33.515625 L 132.328125 33.84375 L 129.445312 34.222656 L 126.574219 34.660156 L 123.707031 35.15625 L 120.855469 35.703125 L 118.011719 36.308594 L 115.183594 36.96875 L 112.363281 37.683594 L 109.5625 38.449219 L 106.773438 39.273438 L 104.003906 40.152344 L 101.25 41.082031 L 98.515625 42.066406 L 95.800781 43.105469 L 93.109375 44.195312 L 90.4375 45.335938 L 87.785156 46.53125 L 85.160156 47.777344 L 82.558594 49.070312 L 79.984375 50.417969 L 77.433594 51.8125 L 74.914062 53.257812 L 72.421875 54.753906 L 69.957031 56.296875 L 67.523438 57.886719 L 65.125 59.523438 L 62.753906 61.207031 L 60.417969 62.9375 L 58.117188 64.710938 L 55.851562 66.527344 L 53.621094 68.390625 L 51.425781 70.296875 L 49.269531 72.242188 L 47.148438 74.234375 L 45.070312 76.261719 L 43.03125 78.332031 L 41.03125 80.441406 L 39.074219 82.589844 "/>
<path style=" stroke:none;fill-rule:evenodd;fill:rgb(0%,0%,0%);fill-opacity:1;" d="M 231.5 55 C 231.5 54.601562 231.34375 54.21875 231.0625 53.9375 C 230.78125 53.65625 230.398438 53.5 230 53.5 C 229.601562 53.5 229.21875 53.65625 228.9375 53.9375 C 228.65625 54.21875 228.5 54.601562 228.5 55 C 228.5 55.398438 228.65625 55.78125 228.9375 56.0625 C 229.21875 56.34375 229.601562 56.5 230 56.5 C 230.398438 56.5 230.78125 56.34375 231.0625 56.0625 C 231.34375 55.78125 231.5 55.398438 231.5 55 Z M 231.5 55 "/>
<path style=" stroke:none;fill-rule:evenodd;fill:rgb(0%,0%,0%);fill-opacity:1;" d="M 241.222656 56.023438 L 240.761719 56.023438 C 240.675781 57.183594 240.433594 57.796875 239.054688 57.796875 L 238.054688 57.796875 L 241.089844 53.742188 C 241.191406 53.625 241.191406 53.601562 241.191406 53.535156 C 241.191406 53.328125 241.082031 53.328125 240.871094 53.328125 L 236.90625 53.328125 L 236.785156 55.210938 L 237.246094 55.210938 C 237.3125 54.171875 237.550781 53.6875 238.769531 53.6875 L 239.753906 53.6875 L 236.707031 57.753906 C 236.609375 57.875 236.609375 57.898438 236.609375 57.972656 C 236.609375 58.191406 236.707031 58.191406 236.929688 58.191406 L 241.035156 58.191406 Z M 241.222656 56.023438 "/>
<path style=" stroke:none;fill-rule:evenodd;fill:rgb(0%,0%,0%);fill-opacity:1;" d="M 245.332031 60.855469 C 245.332031 60.820312 245.332031 60.800781 245.144531 60.613281 C 244.050781 59.507812 243.4375 57.699219 243.4375 55.464844 C 243.4375 53.339844 243.949219 51.507812 245.222656 50.214844 C 245.332031 50.117188 245.332031 50.09375 245.332031 50.0625 C 245.332031 49.996094 245.277344 49.972656 245.234375 49.972656 C 245.089844 49.972656 244.191406 50.761719 243.65625 51.835938 C 243.097656 52.945312 242.84375 54.117188 242.84375 55.464844 C 242.84375 56.4375 242.996094 57.742188 243.566406 58.914062 C 244.214844 60.230469 245.113281 60.941406 245.234375 60.941406 C 245.277344 60.941406 245.332031 60.921875 245.332031 60.855469 Z M 245.332031 60.855469 "/>
<path style=" stroke:none;fill-rule:evenodd;fill:rgb(0%,0%,0%);fill-opacity:1;" d="M 249.167969 56.890625 C 249.113281 57.074219 249.113281 57.097656 248.960938 57.304688 C 248.71875 57.609375 248.238281 58.082031 247.722656 58.082031 C 247.273438 58.082031 247.019531 57.675781 247.019531 57.03125 C 247.019531 56.429688 247.363281 55.203125 247.570312 54.742188 C 247.941406 53.972656 248.457031 53.578125 248.882812 53.578125 C 249.605469 53.578125 249.75 54.476562 249.75 54.566406 C 249.75 54.566406 249.714844 54.71875 249.707031 54.742188 Z M 251.183594 56.625 C 251.183594 56.570312 251.140625 56.527344 251.074219 56.527344 C 250.976562 56.527344 250.964844 56.582031 250.921875 56.746094 C 250.757812 57.390625 250.550781 58.082031 250.101562 58.082031 C 249.78125 58.082031 249.761719 57.796875 249.761719 57.578125 C 249.761719 57.328125 249.792969 57.207031 249.890625 56.777344 L 250.113281 55.945312 C 250.515625 54.304688 250.613281 53.90625 250.613281 53.84375 C 250.613281 53.6875 250.496094 53.570312 250.332031 53.570312 C 249.980469 53.570312 249.890625 53.953125 249.871094 54.082031 C 249.75 53.796875 249.453125 53.359375 248.882812 53.359375 C 247.644531 53.359375 246.308594 54.960938 246.308594 56.582031 C 246.308594 57.664062 246.945312 58.300781 247.691406 58.300781 C 248.292969 58.300781 248.808594 57.832031 249.113281 57.46875 C 249.222656 58.117188 249.738281 58.300781 250.066406 58.300781 C 250.394531 58.300781 250.660156 58.105469 250.855469 57.710938 C 251.03125 57.335938 251.183594 56.667969 251.183594 56.625 Z M 251.183594 56.625 "/>
<path style=" stroke:none;fill-rule:evenodd;fill:rgb(0%,0%,0%);fill-opacity:1;" d="M 254.660156 55.464844 C 254.660156 54.632812 254.550781 53.273438 253.9375 52 C 253.292969 50.6875 252.394531 49.972656 252.273438 49.972656 C 252.230469 49.972656 252.175781 49.996094 252.175781 50.0625 C 252.175781 50.09375 252.175781 50.117188 252.359375 50.300781 C 253.457031 51.410156 254.070312 53.21875 254.070312 55.453125 C 254.070312 57.578125 253.554688 59.40625 252.285156 60.703125 C 252.175781 60.800781 252.175781 60.820312 252.175781 60.855469 C 252.175781 60.921875 252.230469 60.941406 252.273438 60.941406 C 252.414062 60.941406 253.3125 60.152344 253.851562 59.078125 C 254.410156 57.960938 254.660156 56.777344 254.660156 55.464844 Z M 254.660156 55.464844 "/>
<path style=" stroke:none;fill-rule:evenodd;fill:rgb(0%,0%,0%);fill-opacity:1;" d="M 40.5 83 C 40.5 82.601562 40.34375 82.21875 40.0625 81.9375 C 39.78125 81.65625 39.398438 81.5 39 81.5 C 38.601562 81.5 38.21875 81.65625 37.9375 81.9375 C 37.65625 82.21875 37.5 82.601562 37.5 83 C 37.5 83.398438 37.65625 83.78125 37.9375 84.0625 C 38.21875 84.34375 38.601562 84.5 39 84.5 C 39.398438 84.5 39.78125 84.34375 40.0625 84.0625 C 40.34375 83.78125 40.5 83.398438 40.5 83 Z M 40.5 83 "/>
<path style=" stroke:none;fill-rule:evenodd;fill:rgb(0%,0%,0%);fill-opacity:1;" d="M 19.480469 83.164062 L 19.019531 83.164062 C 18.933594 84.324219 18.691406 84.9375 17.3125 84.9375 L 16.3125 84.9375 L 19.347656 80.882812 C 19.445312 80.761719 19.445312 80.742188 19.445312 80.675781 C 19.445312 80.46875 19.335938 80.46875 19.128906 80.46875 L 15.164062 80.46875 L 15.042969 82.351562 L 15.503906 82.351562 C 15.570312 81.3125 15.808594 80.828125 17.027344 80.828125 L 18.011719 80.828125 L 14.964844 84.894531 C 14.867188 85.015625 14.867188 85.035156 14.867188 85.113281 C 14.867188 85.332031 14.964844 85.332031 15.1875 85.332031 L 19.292969 85.332031 Z M 19.480469 83.164062 "/>
<path style=" stroke:none;fill-rule:evenodd;fill:rgb(0%,0%,0%);fill-opacity:1;" d="M 23.589844 87.992188 C 23.589844 87.960938 23.589844 87.9375 23.402344 87.753906 C 22.308594 86.644531 21.695312 84.835938 21.695312 82.601562 C 21.695312 80.476562 22.207031 78.648438 23.480469 77.355469 C 23.589844 77.257812 23.589844 77.234375 23.589844 77.203125 C 23.589844 77.136719 23.535156 77.113281 23.492188 77.113281 C 23.347656 77.113281 22.449219 77.902344 21.914062 78.976562 C 21.351562 80.082031 21.101562 81.253906 21.101562 82.601562 C 21.101562 83.578125 21.253906 84.882812 21.824219 86.054688 C 22.472656 87.367188 23.371094 88.082031 23.492188 88.082031 C 23.535156 88.082031 23.589844 88.058594 23.589844 87.992188 Z M 23.589844 87.992188 "/>
<path style=" stroke:none;fill-rule:evenodd;fill:rgb(0%,0%,0%);fill-opacity:1;" d="M 28.542969 82.21875 C 28.542969 81.210938 27.972656 80.5 27.152344 80.5 C 26.582031 80.5 26.066406 80.96875 25.859375 81.1875 L 26.660156 78 C 26.671875 77.957031 26.691406 77.890625 26.691406 77.835938 C 26.691406 77.726562 26.5625 77.726562 26.5625 77.726562 L 25.957031 77.78125 C 25.773438 77.792969 25.609375 77.816406 25.410156 77.828125 C 25.148438 77.847656 25.070312 77.859375 25.070312 78.054688 C 25.070312 78.164062 25.179688 78.164062 25.289062 78.164062 C 25.847656 78.164062 25.847656 78.265625 25.847656 78.375 C 25.847656 78.449219 25.761719 78.769531 25.71875 78.964844 L 25.453125 80.015625 L 24.675781 83.140625 C 24.621094 83.414062 24.621094 83.601562 24.621094 83.742188 C 24.621094 84.859375 25.246094 85.441406 25.957031 85.441406 C 27.226562 85.441406 28.542969 83.808594 28.542969 82.21875 Z M 27.25 84.105469 C 26.976562 84.695312 26.472656 85.222656 25.96875 85.222656 C 25.617188 85.222656 25.234375 84.960938 25.234375 84.105469 C 25.234375 83.742188 25.265625 83.535156 25.464844 82.765625 L 25.71875 81.78125 C 25.738281 81.695312 26.386719 80.71875 27.128906 80.71875 C 27.613281 80.71875 27.832031 81.199219 27.832031 81.769531 C 27.832031 82.296875 27.523438 83.535156 27.25 84.105469 Z M 27.25 84.105469 "/>
<path style=" stroke:none;fill-rule:evenodd;fill:rgb(0%,0%,0%);fill-opacity:1;" d="M 31.816406 82.601562 C 31.816406 81.769531 31.707031 80.414062 31.09375 79.140625 C 30.449219 77.828125 29.550781 77.113281 29.429688 77.113281 C 29.386719 77.113281 29.332031 77.136719 29.332031 77.203125 C 29.332031 77.234375 29.332031 77.257812 29.515625 77.441406 C 30.613281 78.546875 31.226562 80.355469 31.226562 82.59375 C 31.226562 84.71875 30.710938 86.546875 29.441406 87.839844 C 29.332031 87.9375 29.332031 87.960938 29.332031 87.992188 C 29.332031 88.058594 29.386719 88.082031 29.429688 88.082031 C 29.570312 88.082031 30.46875 87.292969 31.007812 86.21875 C 31.566406 85.101562 31.816406 83.917969 31.816406 82.601562 Z M 31.816406 82.601562 "/>
<path style=" stroke:none;fill-rule:evenodd;fill:rgb(0%,0%,0%);fill-opacity:1;" d="M 130.5 34 C 130.5 33.601562 130.34375 33.21875 130.0625 32.9375 C 129.78125 32.65625 129.398438 32.5 129 32.5 C 128.601562 32.5 128.21875 32.65625 127.9375 32.9375 C 127.65625 33.21875 127.5 33.601562 127.5 34 C 127.5 34.398438 127.65625 34.78125 127.9375 35.0625 C 128.21875 35.34375 128.601562 35.5 129 35.5 C 129.398438 35.5 129.78125 35.34375 130.0625 35.0625 C 130.34375 34.78125 130.5 34.398438 130.5 34 Z M 130.5 34 "/>
<path style=" stroke:none;fill-rule:evenodd;fill:rgb(0%,0%,0%);fill-opacity:1;" d="M 125.554688 21.75 L 125.09375 21.75 C 125.003906 22.914062 124.765625 23.527344 123.382812 23.527344 L 122.386719 23.527344 L 125.421875 19.472656 C 125.519531 19.351562 125.519531 19.328125 125.519531 19.265625 C 125.519531 19.054688 125.410156 19.054688 125.203125 19.054688 L 121.234375 19.054688 L 121.117188 20.941406 L 121.574219 20.941406 C 121.640625 19.898438 121.882812 19.417969 123.097656 19.417969 L 124.085938 19.417969 L 121.039062 23.484375 C 120.9375 23.605469 120.9375 23.625 120.9375 23.703125 C 120.9375 23.921875 121.039062 23.921875 121.257812 23.921875 L 125.367188 23.921875 Z M 125.554688 21.75 "/>
<path style=" stroke:none;fill-rule:evenodd;fill:rgb(0%,0%,0%);fill-opacity:1;" d="M 129.660156 26.582031 C 129.660156 26.550781 129.660156 26.527344 129.476562 26.34375 C 128.378906 25.234375 127.765625 23.425781 127.765625 21.191406 C 127.765625 19.066406 128.28125 17.238281 129.550781 15.941406 C 129.660156 15.84375 129.660156 15.824219 129.660156 15.789062 C 129.660156 15.722656 129.605469 15.703125 129.5625 15.703125 C 129.421875 15.703125 128.523438 16.492188 127.984375 17.566406 C 127.425781 18.671875 127.175781 19.84375 127.175781 21.191406 C 127.175781 22.167969 127.328125 23.472656 127.898438 24.644531 C 128.542969 25.957031 129.441406 26.671875 129.5625 26.671875 C 129.605469 26.671875 129.660156 26.648438 129.660156 26.582031 Z M 129.660156 26.582031 "/>
<path style=" stroke:none;fill-rule:evenodd;fill:rgb(0%,0%,0%);fill-opacity:1;" d="M 133.53125 22.351562 C 133.53125 22.289062 133.488281 22.253906 133.421875 22.253906 C 133.421875 22.253906 133.359375 22.253906 133.335938 22.296875 C 133.335938 22.296875 133.3125 22.320312 133.234375 22.496094 C 133.007812 23.042969 132.503906 23.8125 131.867188 23.8125 C 131.535156 23.8125 131.515625 23.539062 131.515625 23.296875 C 131.515625 23.296875 131.515625 23.078125 131.546875 22.945312 L 132.402344 19.515625 L 133.414062 19.515625 C 133.621094 19.515625 133.730469 19.515625 133.730469 19.320312 C 133.730469 19.199219 133.664062 19.199219 133.445312 19.199219 L 132.480469 19.199219 L 132.886719 17.597656 C 132.929688 17.445312 132.929688 17.421875 132.929688 17.347656 C 132.929688 17.167969 132.789062 17.070312 132.644531 17.070312 C 132.558594 17.070312 132.304688 17.105469 132.21875 17.457031 L 131.789062 19.199219 L 130.761719 19.199219 C 130.539062 19.199219 130.441406 19.199219 130.441406 19.40625 C 130.441406 19.515625 130.519531 19.515625 130.726562 19.515625 L 131.703125 19.515625 L 130.980469 22.40625 C 130.890625 22.792969 130.859375 22.902344 130.859375 23.042969 C 130.859375 23.558594 131.21875 24.03125 131.835938 24.03125 C 132.941406 24.03125 133.53125 22.429688 133.53125 22.351562 Z M 133.53125 22.351562 "/>
<path style=" stroke:none;fill-rule:evenodd;fill:rgb(0%,0%,0%);fill-opacity:1;" d="M 137.191406 21.191406 C 137.191406 20.359375 137.082031 19 136.46875 17.730469 C 135.820312 16.414062 134.921875 15.703125 134.804688 15.703125 C 134.757812 15.703125 134.703125 15.722656 134.703125 15.789062 C 134.703125 15.824219 134.703125 15.84375 134.890625 16.03125 C 135.984375 17.136719 136.601562 18.945312 136.601562 21.179688 C 136.601562 23.308594 136.085938 25.136719 134.8125 26.429688 C 134.703125 26.527344 134.703125 26.550781 134.703125 26.582031 C 134.703125 26.648438 134.757812 26.671875 134.804688 26.671875 C 134.945312 26.671875 135.84375 25.882812 136.382812 24.808594 C 136.9375 23.691406 137.191406 22.507812 137.191406 21.191406 Z M 137.191406 21.191406 "/>
<path style=" stroke:none;fill-rule:evenodd;fill:rgb(0%,0%,0%);fill-opacity:1;" d="M 78.277344 131.785156 L 78.277344 131.46875 L 77.9375 131.46875 C 76.972656 131.46875 76.941406 131.339844 76.941406 130.941406 L 76.941406 124.765625 C 76.941406 124.511719 76.941406 124.503906 76.71875 124.503906 C 76.457031 124.796875 75.910156 125.203125 74.78125 125.203125 L 74.78125 125.519531 C 75.03125 125.519531 75.582031 125.519531 76.183594 125.238281 L 76.183594 130.941406 C 76.183594 131.339844 76.152344 131.46875 75.1875 131.46875 L 74.847656 131.46875 L 74.847656 131.785156 C 75.144531 131.765625 76.207031 131.765625 76.566406 131.765625 C 76.929688 131.765625 77.980469 131.765625 78.277344 131.785156 Z M 78.277344 131.785156 "/>
<path style="fill:none;stroke-width:0.437903;stroke-linecap:square;stroke-linejoin:miter;stroke:rgb(0%,0%,0%);stroke-opacity:1;stroke-miterlimit:10;" d="M 73.777344 136.433594 L 79.140625 136.433594 "/>
<path style=" stroke:none;fill-rule:evenodd;fill:rgb(0%,0%,0%);fill-opacity:1;" d="M 78.605469 144.84375 L 78.363281 144.84375 C 78.332031 145.027344 78.242188 145.632812 78.132812 145.808594 C 78.058594 145.90625 77.433594 145.90625 77.105469 145.90625 L 75.078125 145.90625 C 75.375 145.652344 76.042969 144.953125 76.328125 144.691406 C 77.992188 143.15625 78.605469 142.585938 78.605469 141.5 C 78.605469 140.242188 77.605469 139.398438 76.335938 139.398438 C 75.066406 139.398438 74.320312 140.484375 74.320312 141.425781 C 74.320312 141.984375 74.804688 141.984375 74.835938 141.984375 C 75.066406 141.984375 75.351562 141.820312 75.351562 141.46875 C 75.351562 141.164062 75.144531 140.953125 74.835938 140.953125 C 74.738281 140.953125 74.714844 140.953125 74.683594 140.964844 C 74.890625 140.222656 75.484375 139.714844 76.195312 139.714844 C 77.125 139.714844 77.695312 140.496094 77.695312 141.5 C 77.695312 142.433594 77.160156 143.242188 76.535156 143.945312 L 74.320312 146.421875 L 74.320312 146.683594 L 78.320312 146.683594 Z M 78.605469 144.84375 "/>
<path style=" stroke:none;fill-rule:evenodd;fill:rgb(0%,0%,0%);fill-opacity:1;" d="M 86.648438 138.539062 C 86.648438 138.441406 86.574219 138.441406 86.539062 138.441406 C 86.453125 138.441406 86.441406 138.472656 86.410156 138.558594 C 86.308594 138.835938 86.058594 139.074219 85.792969 139.074219 C 85.457031 139.074219 85.457031 138.375 85.457031 137.707031 C 86.574219 136.371094 86.835938 134.976562 86.835938 134.976562 C 86.835938 134.878906 86.746094 134.878906 86.714844 134.878906 C 86.617188 134.878906 86.605469 134.914062 86.5625 135.109375 C 86.417969 135.59375 86.132812 136.445312 85.457031 137.34375 L 85.457031 136.414062 C 85.457031 135.351562 84.851562 134.355469 83.691406 134.355469 C 82.257812 134.355469 80.820312 135.921875 80.820312 137.476562 C 80.820312 138.429688 81.414062 139.292969 82.53125 139.292969 C 83.210938 139.292969 84.019531 139.03125 84.796875 138.375 C 84.949219 138.988281 85.289062 139.292969 85.761719 139.292969 C 86.355469 139.292969 86.648438 138.679688 86.648438 138.539062 Z M 84.765625 138.113281 C 83.800781 138.976562 82.9375 139.074219 82.550781 139.074219 C 81.773438 139.074219 81.554688 138.386719 81.554688 137.871094 C 81.554688 137.398438 81.796875 136.28125 82.136719 135.679688 C 82.585938 134.914062 83.199219 134.574219 83.691406 134.574219 C 84.753906 134.574219 84.753906 135.964844 84.753906 136.882812 L 84.742188 137.714844 C 84.742188 137.9375 84.753906 137.992188 84.765625 138.113281 Z M 84.765625 138.113281 "/>
<path style=" stroke:none;fill-rule:evenodd;fill:rgb(0%,0%,0%);fill-opacity:1;" d="M 90.742188 141.847656 C 90.742188 141.8125 90.742188 141.792969 90.554688 141.605469 C 89.460938 140.5 88.847656 138.691406 88.847656 136.457031 C 88.847656 134.332031 89.359375 132.503906 90.632812 131.210938 C 90.742188 131.113281 90.742188 131.089844 90.742188 131.058594 C 90.742188 130.992188 90.6875 130.96875 90.644531 130.96875 C 90.5 130.96875 89.601562 131.757812 89.066406 132.832031 C 88.507812 133.9375 88.253906 135.109375 88.253906 136.457031 C 88.253906 137.433594 88.40625 138.738281 88.976562 139.910156 C 89.625 141.222656 90.523438 141.933594 90.644531 141.933594 C 90.6875 141.933594 90.742188 141.914062 90.742188 141.847656 Z M 90.742188 141.847656 "/>
<path style=" stroke:none;fill-rule:evenodd;fill:rgb(0%,0%,0%);fill-opacity:1;" d="M 94.710938 137.617188 C 94.710938 137.550781 94.667969 137.519531 94.601562 137.519531 C 94.601562 137.519531 94.535156 137.519531 94.511719 137.5625 C 94.511719 137.5625 94.492188 137.585938 94.414062 137.761719 C 94.183594 138.308594 93.683594 139.074219 93.046875 139.074219 C 92.714844 139.074219 92.695312 138.800781 92.695312 138.558594 C 92.695312 138.558594 92.695312 138.339844 92.726562 138.210938 L 93.582031 134.78125 L 94.589844 134.78125 C 94.800781 134.78125 94.910156 134.78125 94.910156 134.585938 C 94.910156 134.464844 94.84375 134.464844 94.625 134.464844 L 93.660156 134.464844 L 94.066406 132.863281 C 94.109375 132.710938 94.109375 132.691406 94.109375 132.613281 C 94.109375 132.4375 93.964844 132.339844 93.824219 132.339844 C 93.738281 132.339844 93.484375 132.371094 93.394531 132.722656 L 92.96875 134.464844 L 91.941406 134.464844 C 91.71875 134.464844 91.621094 134.464844 91.621094 134.671875 C 91.621094 134.78125 91.699219 134.78125 91.90625 134.78125 L 92.882812 134.78125 L 92.160156 137.671875 C 92.070312 138.058594 92.039062 138.167969 92.039062 138.308594 C 92.039062 138.824219 92.398438 139.292969 93.011719 139.292969 C 94.121094 139.292969 94.710938 137.695312 94.710938 137.617188 Z M 94.710938 137.617188 "/>
<path style=" stroke:none;fill-rule:evenodd;fill:rgb(0%,0%,0%);fill-opacity:1;" d="M 98.367188 136.457031 C 98.367188 135.625 98.257812 134.265625 97.648438 132.996094 C 97 131.683594 96.101562 130.96875 95.980469 130.96875 C 95.9375 130.96875 95.882812 130.992188 95.882812 131.058594 C 95.882812 131.089844 95.882812 131.113281 96.070312 131.296875 C 97.164062 132.402344 97.777344 134.210938 97.777344 136.445312 C 97.777344 138.570312 97.261719 140.402344 95.992188 141.695312 C 95.882812 141.792969 95.882812 141.8125 95.882812 141.847656 C 95.882812 141.914062 95.9375 141.933594 95.980469 141.933594 C 96.125 141.933594 97.023438 141.144531 97.558594 140.074219 C 98.117188 138.957031 98.367188 137.769531 98.367188 136.457031 Z M 98.367188 136.457031 "/>
<path style=" stroke:none;fill-rule:evenodd;fill:rgb(0%,0%,0%);fill-opacity:1;" d="M 103.136719 133.3125 L 102.898438 133.3125 C 102.875 133.464844 102.816406 133.851562 102.722656 133.996094 C 102.675781 134.054688 102.09375 134.054688 101.972656 134.054688 L 100.605469 134.054688 L 101.640625 133.121094 C 101.765625 133.007812 102.085938 132.753906 102.210938 132.644531 C 102.683594 132.207031 103.136719 131.785156 103.136719 131.089844 C 103.136719 130.175781 102.371094 129.585938 101.410156 129.585938 C 100.492188 129.585938 99.886719 130.285156 99.886719 130.964844 C 99.886719 131.339844 100.183594 131.394531 100.292969 131.394531 C 100.453125 131.394531 100.691406 131.28125 100.691406 130.988281 C 100.691406 130.589844 100.308594 130.589844 100.214844 130.589844 C 100.4375 130.03125 100.953125 129.839844 101.328125 129.839844 C 102.042969 129.839844 102.40625 130.445312 102.40625 131.089844 C 102.40625 131.886719 101.847656 132.46875 100.945312 133.398438 L 99.976562 134.394531 C 99.886719 134.476562 99.886719 134.492188 99.886719 134.6875 L 102.914062 134.6875 Z M 103.136719 133.3125 "/>
<path style=" stroke:none;fill-rule:evenodd;fill:rgb(0%,0%,0%);fill-opacity:1;" d="M 109.292969 137.617188 C 109.292969 137.5625 109.246094 137.519531 109.183594 137.519531 C 109.082031 137.519531 109.074219 137.574219 109.027344 137.738281 C 108.863281 138.386719 108.65625 139.074219 108.207031 139.074219 C 107.886719 139.074219 107.867188 138.792969 107.867188 138.570312 C 107.867188 138.527344 107.867188 138.296875 107.941406 137.992188 L 109.488281 131.855469 C 109.5 131.8125 109.519531 131.746094 109.519531 131.691406 C 109.519531 131.582031 109.390625 131.582031 109.390625 131.582031 C 109.390625 131.582031 108.839844 131.628906 108.785156 131.636719 C 108.601562 131.648438 108.4375 131.671875 108.238281 131.683594 C 107.964844 131.703125 107.886719 131.714844 107.886719 131.910156 C 107.886719 132.019531 107.976562 132.019531 108.128906 132.019531 C 108.667969 132.019531 108.675781 132.121094 108.675781 132.230469 C 108.675781 132.292969 108.65625 132.382812 108.644531 132.414062 L 107.976562 135.078125 C 107.855469 134.792969 107.558594 134.355469 106.988281 134.355469 C 105.753906 134.355469 104.414062 135.953125 104.414062 137.574219 C 104.414062 138.660156 105.050781 139.292969 105.796875 139.292969 C 106.398438 139.292969 106.914062 138.824219 107.222656 138.460938 C 107.332031 139.109375 107.84375 139.292969 108.175781 139.292969 C 108.503906 139.292969 108.765625 139.097656 108.964844 138.703125 C 109.136719 138.332031 109.292969 137.660156 109.292969 137.617188 Z M 107.277344 137.882812 C 107.222656 138.066406 107.222656 138.089844 107.066406 138.296875 C 106.824219 138.605469 106.34375 139.074219 105.828125 139.074219 C 105.382812 139.074219 105.128906 138.667969 105.128906 138.023438 C 105.128906 137.421875 105.46875 136.195312 105.675781 135.734375 C 106.046875 134.96875 106.5625 134.574219 106.988281 134.574219 C 107.714844 134.574219 107.855469 135.472656 107.855469 135.558594 C 107.855469 135.558594 107.824219 135.710938 107.8125 135.734375 Z M 107.277344 137.882812 "/>
<path style=" stroke:none;fill-rule:evenodd;fill:rgb(0%,0%,0%);fill-opacity:1;" d="M 112.90625 137.617188 C 112.90625 137.550781 112.863281 137.519531 112.796875 137.519531 C 112.796875 137.519531 112.734375 137.519531 112.707031 137.5625 C 112.707031 137.5625 112.6875 137.585938 112.609375 137.761719 C 112.382812 138.308594 111.878906 139.074219 111.242188 139.074219 C 110.914062 139.074219 110.890625 138.800781 110.890625 138.558594 C 110.890625 138.558594 110.890625 138.339844 110.921875 138.210938 L 111.777344 134.78125 L 112.785156 134.78125 C 112.996094 134.78125 113.105469 134.78125 113.105469 134.585938 C 113.105469 134.464844 113.039062 134.464844 112.820312 134.464844 L 111.855469 134.464844 L 112.261719 132.863281 C 112.304688 132.710938 112.304688 132.691406 112.304688 132.613281 C 112.304688 132.4375 112.164062 132.339844 112.019531 132.339844 C 111.933594 132.339844 111.679688 132.371094 111.59375 132.722656 L 111.164062 134.464844 L 110.136719 134.464844 C 109.914062 134.464844 109.816406 134.464844 109.816406 134.671875 C 109.816406 134.78125 109.894531 134.78125 110.101562 134.78125 L 111.078125 134.78125 L 110.355469 137.671875 C 110.265625 138.058594 110.234375 138.167969 110.234375 138.308594 C 110.234375 138.824219 110.59375 139.292969 111.210938 139.292969 C 112.316406 139.292969 112.90625 137.695312 112.90625 137.617188 Z M 112.90625 137.617188 "/>
<path style="fill:none;stroke-width:1;stroke-linecap:butt;stroke-linejoin:miter;stroke:rgb(0%,0%,0%);stroke-opacity:1;stroke-dasharray:4,4;stroke-miterlimit:3.25;" d="M 149.914062 66.445312 L 93.027344 123.859375 "/>
</g>
</svg>
