<?xml version="1.0" encoding="UTF-8"?>
<svg xmlns="http://www.w3.org/2000/svg" xmlns:xlink="http://www.w3.org/1999/xlink" width="269pt" height="215pt" viewBox="0 0 269 215" version="1.1">
<defs>
<clipPath id="clip1">
  <path d="M 79 120.238281 L 84 120.238281 L 84 129 L 79 129 Z M 79 120.238281 "/>
</clipPath>
</defs>
<g id="surface117">
<path style=" stroke:none;fill-rule:nonzero;fill:rgb(100%,74.999619%,74.999619%);fill-opacity:1;" d="M 212.761719 127.417969 L 211.785156 126.28125 L 210.789062 125.164062 L 209.769531 124.070312 L 208.730469 122.992188 L 207.671875 121.9375 L 206.589844 120.902344 L 116.847656 36.605469 L 119.585938 35.910156 L 122.335938 35.269531 L 125.097656 34.683594 L 127.871094 34.148438 L 130.652344 33.671875 L 133.441406 33.246094 Z M 212.761719 127.417969 "/>
<path style=" stroke:none;fill-rule:nonzero;fill:rgb(100%,92.500191%,92.500191%);fill-opacity:1;" d="M 230.855469 200.078125 L 230.855469 176.992188 L 230.84375 175.496094 L 230.800781 174 L 230.726562 172.503906 L 230.625 171.011719 L 230.492188 169.519531 L 230.335938 168.03125 L 230.144531 166.546875 L 229.929688 165.066406 L 229.683594 163.59375 L 229.40625 162.121094 L 229.105469 160.65625 L 228.773438 159.199219 L 228.410156 157.746094 L 228.023438 156.300781 L 227.605469 154.863281 L 227.164062 153.433594 L 226.691406 152.015625 L 226.191406 150.605469 L 225.664062 149.203125 L 225.109375 147.8125 L 224.53125 146.433594 L 223.921875 145.066406 L 223.289062 143.710938 L 222.628906 142.367188 L 221.941406 141.039062 L 221.230469 139.722656 L 220.492188 138.421875 L 219.730469 137.132812 L 218.945312 135.859375 L 218.132812 134.605469 L 217.296875 133.363281 L 216.433594 132.140625 L 215.550781 130.933594 L 214.644531 129.742188 L 213.714844 128.570312 L 212.761719 127.417969 L 211.785156 126.28125 L 210.789062 125.164062 L 209.769531 124.070312 L 208.730469 122.992188 L 207.671875 121.9375 L 206.589844 120.902344 L 205.488281 119.886719 L 204.371094 118.894531 L 203.230469 117.925781 L 202.074219 116.976562 L 200.898438 116.054688 L 199.703125 115.152344 L 198.492188 114.273438 L 197.265625 113.417969 L 196.019531 112.585938 L 194.761719 111.78125 L 193.484375 110.996094 L 192.195312 110.238281 L 190.890625 109.507812 L 189.570312 108.800781 L 188.238281 108.121094 L 186.890625 107.46875 L 185.535156 106.839844 L 184.164062 106.238281 L 182.78125 105.660156 L 181.390625 105.113281 L 179.988281 104.59375 L 178.574219 104.101562 L 177.152344 103.632812 L 175.722656 103.195312 L 174.285156 102.785156 L 172.835938 102.402344 L 171.382812 102.050781 L 169.921875 101.722656 L 168.457031 101.425781 L 166.984375 101.15625 L 144.234375 97.234375 L 144.234375 200.078125 Z M 230.855469 200.078125 "/>
<path style=" stroke:none;fill-rule:evenodd;fill:rgb(0%,0%,0%);fill-opacity:1;" d="M 162.625 187.214844 C 162.625 187.105469 162.527344 187.105469 162.417969 187.105469 C 162.007812 187.097656 161.867188 187.007812 161.699219 186.613281 L 160.171875 182.980469 C 160.160156 182.949219 160.117188 182.859375 160.117188 182.828125 C 160.117188 182.828125 160.128906 182.804688 160.316406 182.664062 L 161.382812 181.828125 C 162.855469 180.679688 163.339844 180.296875 164.097656 180.230469 C 164.175781 180.21875 164.285156 180.21875 164.285156 180.03125 C 164.285156 179.964844 164.253906 179.910156 164.164062 179.910156 C 164.042969 179.910156 163.910156 179.933594 163.792969 179.933594 L 163.371094 179.933594 C 163.03125 179.933594 162.667969 179.910156 162.339844 179.910156 C 162.261719 179.910156 162.128906 179.910156 162.128906 180.109375 C 162.128906 180.21875 162.207031 180.230469 162.273438 180.230469 C 162.394531 180.242188 162.535156 180.285156 162.535156 180.4375 C 162.535156 180.660156 162.207031 180.921875 162.121094 180.988281 L 157.804688 184.34375 L 158.71875 180.714844 C 158.816406 180.339844 158.839844 180.230469 159.621094 180.230469 C 159.832031 180.230469 159.929688 180.230469 159.929688 180.023438 C 159.929688 179.910156 159.820312 179.910156 159.765625 179.910156 C 159.566406 179.910156 159.335938 179.933594 159.125 179.933594 L 157.828125 179.933594 C 157.628906 179.933594 157.386719 179.910156 157.191406 179.910156 C 157.101562 179.910156 156.980469 179.910156 156.980469 180.121094 C 156.980469 180.230469 157.078125 180.230469 157.246094 180.230469 C 157.914062 180.230469 157.914062 180.320312 157.914062 180.4375 C 157.914062 180.4375 157.914062 180.527344 157.871094 180.691406 L 156.386719 186.613281 C 156.289062 186.996094 156.265625 187.105469 155.496094 187.105469 C 155.285156 187.105469 155.175781 187.105469 155.175781 187.304688 C 155.175781 187.425781 155.273438 187.425781 155.34375 187.425781 C 155.550781 187.425781 155.769531 187.402344 155.980469 187.402344 L 157.265625 187.402344 C 157.476562 187.402344 157.707031 187.425781 157.914062 187.425781 C 158.003906 187.425781 158.125 187.425781 158.125 187.214844 C 158.125 187.105469 158.027344 187.105469 157.859375 187.105469 C 157.191406 187.105469 157.191406 187.019531 157.191406 186.910156 C 157.191406 186.832031 157.257812 186.558594 157.300781 186.378906 L 157.730469 184.675781 L 159.402344 183.367188 L 160.753906 186.558594 C 160.785156 186.621094 160.808594 186.6875 160.808594 186.765625 C 160.808594 187.097656 160.371094 187.105469 160.269531 187.105469 C 160.171875 187.105469 160.0625 187.105469 160.0625 187.316406 C 160.0625 187.425781 160.183594 187.425781 160.214844 187.425781 C 160.601562 187.425781 161.007812 187.402344 161.394531 187.402344 L 161.921875 187.402344 C 162.085938 187.402344 162.273438 187.425781 162.4375 187.425781 C 162.503906 187.425781 162.625 187.425781 162.625 187.214844 Z M 162.625 187.214844 "/>
<path style="fill:none;stroke-width:1;stroke-linecap:square;stroke-linejoin:miter;stroke:rgb(70.000763%,70.000763%,70.000763%);stroke-opacity:1;stroke-miterlimit:3.25;" d="M 230.855469 176.992188 L 230.855469 53.867188 "/>
<path style="fill:none;stroke-width:1;stroke-linecap:square;stroke-linejoin:miter;stroke:rgb(70.000763%,70.000763%,70.000763%);stroke-opacity:1;stroke-miterlimit:3.25;" d="M 230.335938 168.03125 L 216.003906 45.746094 "/>
<path style="fill:none;stroke-width:1;stroke-linecap:square;stroke-linejoin:miter;stroke:rgb(70.000763%,70.000763%,70.000763%);stroke-opacity:1;stroke-miterlimit:3.25;" d="M 228.773438 159.199219 L 200.304688 39.410156 "/>
<path style="fill:none;stroke-width:1;stroke-linecap:square;stroke-linejoin:miter;stroke:rgb(70.000763%,70.000763%,70.000763%);stroke-opacity:1;stroke-miterlimit:3.25;" d="M 226.191406 150.605469 L 183.972656 34.945312 "/>
<path style="fill:none;stroke-width:1;stroke-linecap:square;stroke-linejoin:miter;stroke:rgb(70.000763%,70.000763%,70.000763%);stroke-opacity:1;stroke-miterlimit:3.25;" d="M 222.628906 142.367188 L 167.234375 32.410156 "/>
<path style="fill:none;stroke-width:1;stroke-linecap:square;stroke-linejoin:miter;stroke:rgb(70.000763%,70.000763%,70.000763%);stroke-opacity:1;stroke-miterlimit:3.25;" d="M 218.132812 134.605469 L 150.3125 31.839844 "/>
<path style="fill:none;stroke-width:1;stroke-linecap:square;stroke-linejoin:miter;stroke:rgb(70.000763%,70.000763%,70.000763%);stroke-opacity:1;stroke-miterlimit:3.25;" d="M 212.761719 127.417969 L 133.441406 33.246094 "/>
<path style="fill:none;stroke-width:1;stroke-linecap:square;stroke-linejoin:miter;stroke:rgb(70.000763%,70.000763%,70.000763%);stroke-opacity:1;stroke-miterlimit:3.25;" d="M 206.589844 120.902344 L 116.847656 36.605469 "/>
<path style="fill:none;stroke-width:1;stroke-linecap:square;stroke-linejoin:miter;stroke:rgb(70.000763%,70.000763%,70.000763%);stroke-opacity:1;stroke-miterlimit:3.25;" d="M 199.703125 115.152344 L 100.761719 41.871094 "/>
<path style="fill:none;stroke-width:1;stroke-linecap:square;stroke-linejoin:miter;stroke:rgb(70.000763%,70.000763%,70.000763%);stroke-opacity:1;stroke-miterlimit:3.25;" d="M 192.195312 110.238281 L 85.394531 48.976562 "/>
<path style="fill:none;stroke-width:1;stroke-linecap:square;stroke-linejoin:miter;stroke:rgb(70.000763%,70.000763%,70.000763%);stroke-opacity:1;stroke-miterlimit:3.25;" d="M 184.164062 106.238281 L 70.957031 57.824219 "/>
<path style="fill:none;stroke-width:1;stroke-linecap:square;stroke-linejoin:miter;stroke:rgb(70.000763%,70.000763%,70.000763%);stroke-opacity:1;stroke-miterlimit:3.25;" d="M 175.722656 103.195312 L 57.652344 68.289062 "/>
<path style="fill:none;stroke-width:1;stroke-linecap:square;stroke-linejoin:miter;stroke:rgb(70.000763%,70.000763%,70.000763%);stroke-opacity:1;stroke-miterlimit:3.25;" d="M 166.984375 101.15625 L 45.652344 80.230469 "/>
<path style="fill:none;stroke-width:0.2;stroke-linecap:butt;stroke-linejoin:miter;stroke:rgb(100%,0%,0%);stroke-opacity:1;stroke-miterlimit:3.25;" d="M 212.761719 127.417969 L 139.742188 40.726562 "/>
<path style=" stroke:none;fill-rule:nonzero;fill:rgb(100%,0%,0%);fill-opacity:1;" d="M 138.214844 43.3125 L 138.359375 42.984375 L 138.730469 42.222656 L 138.964844 41.78125 L 139.222656 41.355469 L 139.484375 40.992188 L 139.742188 40.726562 L 140.023438 40.539062 L 140.421875 40.347656 L 140.894531 40.15625 L 141.390625 39.976562 L 142.261719 39.699219 L 142.636719 39.585938 L 133.441406 33.246094 Z M 138.214844 43.3125 "/>
<path style="fill:none;stroke-width:4;stroke-linecap:butt;stroke-linejoin:round;stroke:rgb(100%,100%,100%);stroke-opacity:0.666667;stroke-miterlimit:3.239307;" d="M 175.59375 77.839844 L 176.804688 76.671875 L 177.808594 75.792969 L 178.636719 75.167969 L 179.3125 74.746094 L 179.871094 74.488281 L 180.339844 74.359375 L 180.75 74.308594 L 181.128906 74.304688 L 183.128906 74.304688 "/>
<path style="fill:none;stroke-width:1.25;stroke-linecap:square;stroke-linejoin:miter;stroke:rgb(66.666667%,66.666667%,66.666667%);stroke-opacity:1;stroke-miterlimit:3.25;" d="M 175.59375 77.839844 L 176.804688 76.671875 L 177.808594 75.792969 L 178.636719 75.167969 L 179.3125 74.746094 L 179.871094 74.488281 L 180.339844 74.359375 L 180.75 74.308594 L 181.128906 74.304688 L 183.128906 74.304688 "/>
<path style=" stroke:none;fill-rule:nonzero;fill:rgb(100%,100%,100%);fill-opacity:0.666667;" d="M 219.128906 61.101562 L 219.128906 83.101562 L 183.128906 83.101562 L 183.128906 61.101562 Z M 219.128906 61.101562 "/>
<path style=" stroke:none;fill-rule:evenodd;fill:rgb(0%,0%,0%);fill-opacity:1;" d="M 193.488281 74.277344 C 193.488281 74.175781 193.410156 74.175781 193.378906 74.175781 C 193.289062 74.175781 193.277344 74.210938 193.242188 74.300781 C 193.144531 74.578125 192.886719 74.824219 192.621094 74.824219 C 192.277344 74.824219 192.277344 74.113281 192.277344 73.433594 C 193.410156 72.078125 193.675781 70.671875 193.675781 70.671875 C 193.675781 70.570312 193.589844 70.570312 193.554688 70.570312 C 193.453125 70.570312 193.445312 70.605469 193.398438 70.804688 C 193.253906 71.292969 192.964844 72.15625 192.277344 73.066406 L 192.277344 72.125 C 192.277344 71.046875 191.667969 70.039062 190.492188 70.039062 C 189.035156 70.039062 187.582031 71.625 187.582031 73.199219 C 187.582031 74.167969 188.183594 75.042969 189.3125 75.042969 C 190.003906 75.042969 190.824219 74.777344 191.613281 74.113281 C 191.769531 74.734375 192.113281 75.042969 192.589844 75.042969 C 193.1875 75.042969 193.488281 74.421875 193.488281 74.277344 Z M 191.578125 73.84375 C 190.601562 74.722656 189.726562 74.824219 189.335938 74.824219 C 188.546875 74.824219 188.328125 74.121094 188.328125 73.601562 C 188.328125 73.125 188.570312 71.992188 188.914062 71.378906 C 189.367188 70.605469 189.992188 70.257812 190.492188 70.257812 C 191.566406 70.257812 191.566406 71.671875 191.566406 72.601562 L 191.558594 73.445312 C 191.558594 73.667969 191.566406 73.722656 191.578125 73.84375 Z M 191.578125 73.84375 "/>
<path style=" stroke:none;fill-rule:evenodd;fill:rgb(0%,0%,0%);fill-opacity:1;" d="M 197.707031 77.628906 C 197.707031 77.597656 197.707031 77.574219 197.519531 77.386719 C 196.40625 76.265625 195.785156 74.433594 195.785156 72.167969 C 195.785156 70.015625 196.308594 68.160156 197.59375 66.851562 C 197.707031 66.753906 197.707031 66.730469 197.707031 66.695312 C 197.707031 66.628906 197.652344 66.609375 197.605469 66.609375 C 197.460938 66.609375 196.550781 67.40625 196.007812 68.496094 C 195.441406 69.617188 195.1875 70.804688 195.1875 72.167969 C 195.1875 73.15625 195.34375 74.476562 195.917969 75.664062 C 196.574219 76.996094 197.484375 77.71875 197.605469 77.71875 C 197.652344 77.71875 197.707031 77.699219 197.707031 77.628906 Z M 197.707031 77.628906 "/>
<path style=" stroke:none;fill-rule:evenodd;fill:rgb(0%,0%,0%);fill-opacity:1;" d="M 201.710938 73.34375 C 201.710938 73.28125 201.667969 73.246094 201.597656 73.246094 C 201.597656 73.246094 201.53125 73.246094 201.511719 73.289062 C 201.511719 73.289062 201.488281 73.3125 201.410156 73.492188 C 201.175781 74.046875 200.667969 74.824219 200.023438 74.824219 C 199.691406 74.824219 199.667969 74.546875 199.667969 74.300781 C 199.667969 74.300781 199.667969 74.078125 199.699219 73.945312 L 200.566406 70.46875 L 201.585938 70.46875 C 201.796875 70.46875 201.910156 70.46875 201.910156 70.269531 C 201.910156 70.148438 201.84375 70.148438 201.621094 70.148438 L 200.644531 70.148438 L 201.054688 68.527344 C 201.101562 68.371094 201.101562 68.351562 201.101562 68.273438 C 201.101562 68.09375 200.957031 67.996094 200.808594 67.996094 C 200.722656 67.996094 200.464844 68.027344 200.378906 68.382812 L 199.945312 70.148438 L 198.902344 70.148438 C 198.679688 70.148438 198.582031 70.148438 198.582031 70.359375 C 198.582031 70.46875 198.65625 70.46875 198.867188 70.46875 L 199.855469 70.46875 L 199.125 73.402344 C 199.035156 73.789062 199.003906 73.898438 199.003906 74.046875 C 199.003906 74.566406 199.367188 75.042969 199.988281 75.042969 C 201.113281 75.042969 201.710938 73.421875 201.710938 73.34375 Z M 201.710938 73.34375 "/>
<path style=" stroke:none;fill-rule:evenodd;fill:rgb(0%,0%,0%);fill-opacity:1;" d="M 205.300781 72.167969 C 205.300781 71.324219 205.1875 69.949219 204.566406 68.660156 C 203.914062 67.328125 203 66.609375 202.878906 66.609375 C 202.835938 66.609375 202.777344 66.628906 202.777344 66.695312 C 202.777344 66.730469 202.777344 66.753906 202.96875 66.941406 C 204.078125 68.0625 204.699219 69.894531 204.699219 72.15625 C 204.699219 74.3125 204.179688 76.164062 202.890625 77.476562 C 202.777344 77.574219 202.777344 77.597656 202.777344 77.628906 C 202.777344 77.699219 202.835938 77.71875 202.878906 77.71875 C 203.023438 77.71875 203.933594 76.921875 204.476562 75.832031 C 205.042969 74.699219 205.300781 73.5 205.300781 72.167969 Z M 205.300781 72.167969 "/>
<path style=" stroke:none;fill-rule:evenodd;fill:rgb(0%,0%,0%);fill-opacity:1;" d="M 211.476562 70.78125 C 211.476562 70.082031 211.125 70.039062 211.035156 70.039062 C 210.769531 70.039062 210.523438 70.304688 210.523438 70.527344 C 210.523438 70.660156 210.601562 70.738281 210.644531 70.78125 C 210.757812 70.882812 211.046875 71.179688 211.046875 71.757812 C 211.046875 72.226562 210.378906 74.824219 209.046875 74.824219 C 208.371094 74.824219 208.238281 74.253906 208.238281 73.84375 C 208.238281 73.289062 208.492188 72.511719 208.792969 71.714844 C 208.96875 71.257812 209.015625 71.148438 209.015625 70.925781 C 209.015625 70.460938 208.683594 70.039062 208.136719 70.039062 C 207.117188 70.039062 206.707031 71.644531 206.707031 71.734375 C 206.707031 71.78125 206.75 71.835938 206.828125 71.835938 C 206.925781 71.835938 206.9375 71.792969 206.984375 71.636719 C 207.25 70.683594 207.683594 70.257812 208.101562 70.257812 C 208.203125 70.257812 208.394531 70.257812 208.394531 70.625 C 208.394531 70.914062 208.269531 71.238281 208.101562 71.660156 C 207.570312 73.078125 207.570312 73.421875 207.570312 73.6875 C 207.570312 73.933594 207.605469 74.390625 207.949219 74.699219 C 208.347656 75.042969 208.902344 75.042969 209.003906 75.042969 C 210.847656 75.042969 211.476562 71.414062 211.476562 70.78125 Z M 211.476562 70.78125 "/>
<path style=" stroke:none;fill-rule:evenodd;fill:rgb(0%,0%,0%);fill-opacity:1;" d="M 214.273438 75.445312 C 214.273438 75.359375 214.203125 75.34375 214.15625 75.34375 C 214.070312 75.34375 214.0625 75.375 214.007812 75.492188 C 213.855469 75.859375 213.46875 76.40625 213 76.40625 C 212.839844 76.40625 212.746094 76.300781 212.746094 76.046875 C 212.746094 75.898438 212.769531 75.8125 212.792969 75.714844 L 213.355469 73.480469 L 214.109375 73.480469 C 214.257812 73.480469 214.347656 73.480469 214.347656 73.332031 C 214.347656 73.222656 214.25 73.222656 214.117188 73.222656 L 213.417969 73.222656 L 213.695312 72.128906 C 213.726562 72.011719 213.726562 71.96875 213.726562 71.96875 C 213.726562 71.804688 213.601562 71.726562 213.46875 71.726562 C 213.207031 71.726562 213.15625 71.9375 213.070312 72.285156 L 212.832031 73.222656 L 212.089844 73.222656 C 211.945312 73.222656 211.84375 73.222656 211.84375 73.371094 C 211.84375 73.480469 211.945312 73.480469 212.074219 73.480469 L 212.769531 73.480469 L 212.308594 75.328125 C 212.257812 75.523438 212.191406 75.792969 212.191406 75.898438 C 212.191406 76.363281 212.570312 76.625 212.976562 76.625 C 213.800781 76.625 214.273438 75.535156 214.273438 75.445312 Z M 214.273438 75.445312 "/>
<path style="fill:none;stroke-width:1;stroke-linecap:square;stroke-linejoin:miter;stroke:rgb(0%,0%,0%);stroke-opacity:1;stroke-miterlimit:3.25;" d="M 230.855469 176.992188 L 230.84375 175.496094 L 230.800781 174 L 230.726562 172.503906 L 230.625 171.011719 L 230.492188 169.519531 L 230.335938 168.03125 L 230.144531 166.546875 L 229.929688 165.066406 L 229.683594 163.59375 L 229.40625 162.121094 L 229.105469 160.65625 L 228.773438 159.199219 L 228.410156 157.746094 L 228.023438 156.300781 L 227.605469 154.863281 L 227.164062 153.433594 L 226.691406 152.015625 L 226.191406 150.605469 L 225.664062 149.203125 L 225.109375 147.8125 L 224.53125 146.433594 L 223.921875 145.066406 L 223.289062 143.710938 L 222.628906 142.367188 L 221.941406 141.039062 L 221.230469 139.722656 L 220.492188 138.421875 L 219.730469 137.132812 L 218.945312 135.859375 L 218.132812 134.605469 L 217.296875 133.363281 L 216.433594 132.140625 L 215.550781 130.933594 L 214.644531 129.742188 L 213.714844 128.570312 L 212.761719 127.417969 L 211.785156 126.28125 L 210.789062 125.164062 L 209.769531 124.070312 L 208.730469 122.992188 L 207.671875 121.9375 L 206.589844 120.902344 L 205.488281 119.886719 L 204.371094 118.894531 L 203.230469 117.925781 L 202.074219 116.976562 L 200.898438 116.054688 L 199.703125 115.152344 L 198.492188 114.273438 L 197.265625 113.417969 L 196.019531 112.585938 L 194.761719 111.78125 L 193.484375 110.996094 L 192.195312 110.238281 L 190.890625 109.507812 L 189.570312 108.800781 L 188.238281 108.121094 L 186.890625 107.46875 L 185.535156 106.839844 L 184.164062 106.238281 L 182.78125 105.660156 L 181.390625 105.113281 L 179.988281 104.59375 L 178.574219 104.101562 L 177.152344 103.632812 L 175.722656 103.195312 L 174.285156 102.785156 L 172.835938 102.402344 L 171.382812 102.050781 L 169.921875 101.722656 L 168.457031 101.425781 L 166.984375 101.15625 "/>
<path style=" stroke:none;fill-rule:evenodd;fill:rgb(0%,0%,0%);fill-opacity:1;" d="M 232.5 177 C 232.5 176.601562 232.34375 176.21875 232.0625 175.9375 C 231.78125 175.65625 231.398438 175.5 231 175.5 C 230.601562 175.5 230.21875 175.65625 229.9375 175.9375 C 229.65625 176.21875 229.5 176.601562 229.5 177 C 229.5 177.398438 229.65625 177.78125 229.9375 178.0625 C 230.21875 178.34375 230.601562 178.5 231 178.5 C 231.398438 178.5 231.78125 178.34375 232.0625 178.0625 C 232.34375 177.78125 232.5 177.398438 232.5 177 Z M 232.5 177 "/>
<path style=" stroke:none;fill-rule:evenodd;fill:rgb(0%,0%,0%);fill-opacity:1;" d="M 204.882812 175.578125 C 204.882812 174.886719 204.53125 174.84375 204.445312 174.84375 C 204.179688 174.84375 203.9375 175.105469 203.9375 175.328125 C 203.9375 175.460938 204.015625 175.535156 204.058594 175.578125 C 204.167969 175.679688 204.453125 175.976562 204.453125 176.546875 C 204.453125 177.011719 203.792969 179.585938 202.472656 179.585938 C 201.800781 179.585938 201.671875 179.023438 201.671875 178.617188 C 201.671875 178.066406 201.921875 177.296875 202.21875 176.503906 C 202.398438 176.054688 202.441406 175.945312 202.441406 175.722656 C 202.441406 175.261719 202.109375 174.84375 201.570312 174.84375 C 200.558594 174.84375 200.152344 176.4375 200.152344 176.527344 C 200.152344 176.570312 200.195312 176.625 200.273438 176.625 C 200.371094 176.625 200.382812 176.582031 200.425781 176.425781 C 200.691406 175.480469 201.121094 175.0625 201.539062 175.0625 C 201.636719 175.0625 201.824219 175.0625 201.824219 175.425781 C 201.824219 175.710938 201.703125 176.03125 201.539062 176.449219 C 201.007812 177.859375 201.007812 178.199219 201.007812 178.460938 C 201.007812 178.703125 201.042969 179.15625 201.382812 179.464844 C 201.78125 179.804688 202.332031 179.804688 202.429688 179.804688 C 204.257812 179.804688 204.882812 176.207031 204.882812 175.578125 Z M 204.882812 175.578125 "/>
<path style=" stroke:none;fill-rule:evenodd;fill:rgb(0%,0%,0%);fill-opacity:1;" d="M 211.308594 173.183594 C 211.308594 173.007812 211.140625 173.007812 211.035156 173.007812 L 208.785156 173.007812 L 208.785156 170.753906 C 208.785156 170.648438 208.785156 170.480469 208.613281 170.480469 C 208.433594 170.480469 208.433594 170.648438 208.433594 170.753906 L 208.433594 173.007812 L 206.179688 173.007812 C 206.074219 173.007812 205.90625 173.007812 205.90625 173.183594 C 205.90625 173.359375 206.074219 173.359375 206.179688 173.359375 L 208.433594 173.359375 L 208.433594 175.617188 C 208.433594 175.722656 208.433594 175.890625 208.613281 175.890625 C 208.785156 175.890625 208.785156 175.722656 208.785156 175.617188 L 208.785156 173.359375 L 211.035156 173.359375 C 211.140625 173.359375 211.308594 173.359375 211.308594 173.183594 Z M 211.308594 173.183594 "/>
<path style=" stroke:none;fill-rule:evenodd;fill:rgb(0%,0%,0%);fill-opacity:1;" d="M 211.046875 182.75 C 211.046875 182.644531 210.941406 182.644531 210.894531 182.644531 C 210.597656 182.636719 210.496094 182.582031 210.375 182.324219 L 209.160156 179.824219 L 209.113281 179.722656 C 209.113281 179.722656 209.242188 179.617188 209.320312 179.5625 C 209.921875 179.121094 210.746094 178.523438 211 178.363281 C 211.390625 178.117188 211.671875 177.960938 212.015625 177.929688 C 212.078125 177.921875 212.183594 177.914062 212.183594 177.773438 C 212.175781 177.722656 212.132812 177.675781 212.078125 177.675781 C 212.078125 177.675781 211.855469 177.699219 211.800781 177.699219 L 211.496094 177.699219 C 211.367188 177.699219 211.175781 177.699219 211.105469 177.691406 C 211.054688 177.691406 210.753906 177.675781 210.703125 177.675781 C 210.648438 177.675781 210.542969 177.675781 210.542969 177.820312 C 210.542969 177.820312 210.550781 177.921875 210.664062 177.929688 C 210.726562 177.9375 210.847656 177.953125 210.847656 178.042969 C 210.847656 178.164062 210.695312 178.296875 210.679688 178.304688 L 210.617188 178.355469 C 210.597656 178.378906 210.566406 178.410156 210.527344 178.433594 L 207.410156 180.695312 L 208.011719 178.273438 C 208.082031 177.996094 208.097656 177.929688 208.652344 177.929688 C 208.808594 177.929688 208.898438 177.929688 208.898438 177.78125 C 208.898438 177.78125 208.890625 177.675781 208.769531 177.675781 C 208.625 177.675781 208.441406 177.691406 208.296875 177.699219 L 207.8125 177.699219 C 207.078125 177.699219 206.882812 177.675781 206.828125 177.675781 C 206.789062 177.675781 206.675781 177.675781 206.675781 177.820312 C 206.675781 177.929688 206.765625 177.929688 206.898438 177.929688 C 207.148438 177.929688 207.371094 177.929688 207.371094 178.050781 C 207.371094 178.082031 207.363281 178.089844 207.339844 178.1875 L 206.316406 182.292969 C 206.246094 182.582031 206.230469 182.644531 205.664062 182.644531 C 205.519531 182.644531 205.429688 182.644531 205.429688 182.789062 C 205.429688 182.820312 205.453125 182.894531 205.550781 182.894531 C 205.695312 182.894531 205.878906 182.878906 206.023438 182.871094 L 207.011719 182.871094 C 207.132812 182.878906 207.386719 182.894531 207.5 182.894531 C 207.539062 182.894531 207.652344 182.894531 207.652344 182.757812 C 207.652344 182.644531 207.5625 182.644531 207.433594 182.644531 C 207.378906 182.644531 207.269531 182.644531 207.140625 182.628906 C 206.980469 182.613281 206.957031 182.597656 206.957031 182.519531 C 206.957031 182.476562 207.011719 182.285156 207.035156 182.164062 C 207.117188 181.824219 207.019531 182.246094 207.324219 181.007812 L 208.554688 180.121094 L 209.472656 182.011719 L 209.617188 182.308594 C 209.664062 182.382812 209.664062 182.398438 209.664062 182.429688 C 209.664062 182.636719 209.378906 182.644531 209.296875 182.644531 C 209.21875 182.644531 209.113281 182.644531 209.113281 182.789062 C 209.113281 182.789062 209.121094 182.894531 209.242188 182.894531 C 209.320312 182.894531 209.609375 182.878906 209.679688 182.871094 L 210.121094 182.871094 C 210.824219 182.871094 210.800781 182.894531 210.902344 182.894531 C 210.933594 182.894531 211.046875 182.894531 211.046875 182.75 Z M 211.046875 182.75 "/>
<path style=" stroke:none;fill-rule:evenodd;fill:rgb(0%,0%,0%);fill-opacity:1;" d="M 216.53125 182.371094 C 216.53125 182.335938 216.53125 182.316406 216.34375 182.128906 C 215.246094 181.015625 214.628906 179.199219 214.628906 176.953125 C 214.628906 174.820312 215.144531 172.984375 216.421875 171.683594 C 216.53125 171.585938 216.53125 171.5625 216.53125 171.53125 C 216.53125 171.464844 216.476562 171.441406 216.433594 171.441406 C 216.289062 171.441406 215.386719 172.234375 214.847656 173.3125 C 214.285156 174.425781 214.035156 175.601562 214.035156 176.953125 C 214.035156 177.933594 214.1875 179.242188 214.761719 180.421875 C 215.410156 181.742188 216.3125 182.457031 216.433594 182.457031 C 216.476562 182.457031 216.53125 182.4375 216.53125 182.371094 Z M 216.53125 182.371094 "/>
<path style=" stroke:none;fill-rule:evenodd;fill:rgb(0%,0%,0%);fill-opacity:1;" d="M 220.46875 178.386719 C 220.414062 178.574219 220.414062 178.59375 220.257812 178.804688 C 220.015625 179.113281 219.53125 179.585938 219.015625 179.585938 C 218.5625 179.585938 218.3125 179.179688 218.3125 178.53125 C 218.3125 177.921875 218.652344 176.691406 218.863281 176.230469 C 219.234375 175.460938 219.753906 175.0625 220.183594 175.0625 C 220.90625 175.0625 221.050781 175.964844 221.050781 176.054688 C 221.050781 176.054688 221.019531 176.207031 221.007812 176.230469 Z M 222.492188 178.121094 C 222.492188 178.066406 222.449219 178.023438 222.382812 178.023438 C 222.285156 178.023438 222.273438 178.078125 222.226562 178.242188 C 222.0625 178.890625 221.855469 179.585938 221.402344 179.585938 C 221.085938 179.585938 221.0625 179.296875 221.0625 179.078125 C 221.0625 178.828125 221.09375 178.703125 221.195312 178.277344 L 221.414062 177.4375 C 221.820312 175.789062 221.921875 175.390625 221.921875 175.328125 C 221.921875 175.171875 221.800781 175.050781 221.632812 175.050781 C 221.28125 175.050781 221.195312 175.4375 221.171875 175.570312 C 221.050781 175.28125 220.753906 174.84375 220.183594 174.84375 C 218.9375 174.84375 217.597656 176.449219 217.597656 178.078125 C 217.597656 179.167969 218.234375 179.804688 218.984375 179.804688 C 219.585938 179.804688 220.105469 179.332031 220.414062 178.96875 C 220.523438 179.621094 221.039062 179.804688 221.371094 179.804688 C 221.699219 179.804688 221.964844 179.609375 222.164062 179.210938 C 222.339844 178.835938 222.492188 178.164062 222.492188 178.121094 Z M 222.492188 178.121094 "/>
<path style=" stroke:none;fill-rule:evenodd;fill:rgb(0%,0%,0%);fill-opacity:1;" d="M 225.859375 176.953125 C 225.859375 176.117188 225.75 174.753906 225.132812 173.476562 C 224.484375 172.15625 223.582031 171.441406 223.460938 171.441406 C 223.417969 171.441406 223.359375 171.464844 223.359375 171.53125 C 223.359375 171.5625 223.359375 171.585938 223.546875 171.773438 C 224.648438 172.882812 225.265625 174.699219 225.265625 176.945312 C 225.265625 179.078125 224.75 180.917969 223.472656 182.214844 C 223.359375 182.316406 223.359375 182.335938 223.359375 182.371094 C 223.359375 182.4375 223.417969 182.457031 223.460938 182.457031 C 223.601562 182.457031 224.507812 181.667969 225.046875 180.585938 C 225.605469 179.464844 225.859375 178.277344 225.859375 176.953125 Z M 225.859375 176.953125 "/>
<path style=" stroke:none;fill-rule:evenodd;fill:rgb(0%,0%,0%);fill-opacity:1;" d="M 168.5 101 C 168.5 100.601562 168.34375 100.21875 168.0625 99.9375 C 167.78125 99.65625 167.398438 99.5 167 99.5 C 166.601562 99.5 166.21875 99.65625 165.9375 99.9375 C 165.65625 100.21875 165.5 100.601562 165.5 101 C 165.5 101.398438 165.65625 101.78125 165.9375 102.0625 C 166.21875 102.34375 166.601562 102.5 167 102.5 C 167.398438 102.5 167.78125 102.34375 168.0625 102.0625 C 168.34375 101.78125 168.5 101.398438 168.5 101 Z M 168.5 101 "/>
<path style=" stroke:none;fill-rule:evenodd;fill:rgb(0%,0%,0%);fill-opacity:1;" d="M 159.015625 112.140625 C 159.015625 111.449219 158.664062 111.402344 158.574219 111.402344 C 158.3125 111.402344 158.070312 111.667969 158.070312 111.886719 C 158.070312 112.019531 158.144531 112.097656 158.1875 112.140625 C 158.300781 112.238281 158.585938 112.535156 158.585938 113.109375 C 158.585938 113.570312 157.925781 116.144531 156.605469 116.144531 C 155.933594 116.144531 155.800781 115.582031 155.800781 115.175781 C 155.800781 114.625 156.054688 113.855469 156.351562 113.0625 C 156.527344 112.613281 156.574219 112.503906 156.574219 112.28125 C 156.574219 111.820312 156.242188 111.402344 155.703125 111.402344 C 154.691406 111.402344 154.285156 112.996094 154.285156 113.085938 C 154.285156 113.128906 154.328125 113.183594 154.40625 113.183594 C 154.503906 113.183594 154.515625 113.140625 154.558594 112.984375 C 154.824219 112.042969 155.253906 111.621094 155.667969 111.621094 C 155.769531 111.621094 155.957031 111.621094 155.957031 111.988281 C 155.957031 112.273438 155.835938 112.589844 155.667969 113.007812 C 155.140625 114.417969 155.140625 114.757812 155.140625 115.023438 C 155.140625 115.265625 155.175781 115.714844 155.515625 116.023438 C 155.910156 116.363281 156.464844 116.363281 156.5625 116.363281 C 158.386719 116.363281 159.015625 112.765625 159.015625 112.140625 Z M 159.015625 112.140625 "/>
<path style=" stroke:none;fill-rule:evenodd;fill:rgb(0%,0%,0%);fill-opacity:1;" d="M 165.207031 109.746094 C 165.207031 109.570312 165.039062 109.570312 164.933594 109.570312 L 160.539062 109.570312 C 160.433594 109.570312 160.265625 109.570312 160.265625 109.746094 C 160.265625 109.921875 160.433594 109.921875 160.539062 109.921875 L 164.933594 109.921875 C 165.039062 109.921875 165.207031 109.921875 165.207031 109.746094 Z M 165.207031 109.746094 "/>
<path style=" stroke:none;fill-rule:evenodd;fill:rgb(0%,0%,0%);fill-opacity:1;" d="M 165.175781 119.308594 C 165.175781 119.203125 165.070312 119.203125 165.023438 119.203125 C 164.726562 119.195312 164.625 119.140625 164.503906 118.878906 L 163.289062 116.382812 L 163.242188 116.28125 C 163.242188 116.28125 163.371094 116.175781 163.449219 116.121094 C 164.050781 115.679688 164.875 115.085938 165.128906 114.921875 C 165.519531 114.679688 165.800781 114.519531 166.144531 114.488281 C 166.207031 114.480469 166.3125 114.472656 166.3125 114.335938 C 166.304688 114.28125 166.261719 114.234375 166.207031 114.234375 C 166.207031 114.234375 165.984375 114.257812 165.929688 114.257812 L 165.625 114.257812 C 165.496094 114.257812 165.304688 114.257812 165.234375 114.25 C 165.183594 114.25 164.882812 114.234375 164.832031 114.234375 C 164.777344 114.234375 164.671875 114.234375 164.671875 114.382812 C 164.671875 114.382812 164.679688 114.480469 164.792969 114.488281 C 164.855469 114.496094 164.976562 114.511719 164.976562 114.601562 C 164.976562 114.726562 164.824219 114.855469 164.808594 114.863281 L 164.746094 114.914062 C 164.726562 114.9375 164.695312 114.96875 164.65625 114.992188 L 161.539062 117.253906 L 162.144531 114.832031 C 162.210938 114.554688 162.226562 114.488281 162.785156 114.488281 C 162.9375 114.488281 163.027344 114.488281 163.027344 114.34375 C 163.027344 114.34375 163.019531 114.234375 162.898438 114.234375 C 162.753906 114.234375 162.570312 114.25 162.425781 114.257812 L 161.941406 114.257812 C 161.210938 114.257812 161.011719 114.234375 160.960938 114.234375 C 160.921875 114.234375 160.804688 114.234375 160.804688 114.382812 C 160.804688 114.488281 160.898438 114.488281 161.027344 114.488281 C 161.277344 114.488281 161.5 114.488281 161.5 114.609375 C 161.5 114.640625 161.492188 114.648438 161.46875 114.746094 L 160.445312 118.851562 C 160.378906 119.140625 160.363281 119.203125 159.796875 119.203125 C 159.652344 119.203125 159.5625 119.203125 159.5625 119.347656 C 159.5625 119.375 159.582031 119.453125 159.683594 119.453125 C 159.828125 119.453125 160.011719 119.4375 160.15625 119.429688 L 161.140625 119.429688 C 161.261719 119.4375 161.515625 119.453125 161.628906 119.453125 C 161.667969 119.453125 161.785156 119.453125 161.785156 119.316406 C 161.785156 119.203125 161.691406 119.203125 161.5625 119.203125 C 161.507812 119.203125 161.402344 119.203125 161.269531 119.1875 C 161.109375 119.171875 161.089844 119.15625 161.089844 119.078125 C 161.089844 119.03125 161.140625 118.84375 161.164062 118.722656 C 161.246094 118.382812 161.148438 118.804688 161.453125 117.566406 L 162.683594 116.679688 L 163.601562 118.566406 L 163.746094 118.863281 C 163.792969 118.941406 163.792969 118.957031 163.792969 118.988281 C 163.792969 119.195312 163.511719 119.203125 163.425781 119.203125 C 163.347656 119.203125 163.242188 119.203125 163.242188 119.347656 C 163.242188 119.347656 163.25 119.453125 163.371094 119.453125 C 163.449219 119.453125 163.738281 119.4375 163.808594 119.429688 L 164.25 119.429688 C 164.953125 119.429688 164.929688 119.453125 165.03125 119.453125 C 165.0625 119.453125 165.175781 119.453125 165.175781 119.308594 Z M 165.175781 119.308594 "/>
<path style=" stroke:none;fill-rule:evenodd;fill:rgb(0%,0%,0%);fill-opacity:1;" d="M 170.660156 118.925781 C 170.660156 118.894531 170.660156 118.871094 170.472656 118.683594 C 169.371094 117.574219 168.753906 115.757812 168.753906 113.515625 C 168.753906 111.378906 169.273438 109.542969 170.550781 108.246094 C 170.660156 108.148438 170.660156 108.125 170.660156 108.09375 C 170.660156 108.023438 170.605469 108.003906 170.558594 108.003906 C 170.417969 108.003906 169.515625 108.796875 168.976562 109.875 C 168.414062 110.984375 168.160156 112.160156 168.160156 113.515625 C 168.160156 114.492188 168.316406 115.800781 168.886719 116.980469 C 169.535156 118.300781 170.441406 119.015625 170.558594 119.015625 C 170.605469 119.015625 170.660156 118.992188 170.660156 118.925781 Z M 170.660156 118.925781 "/>
<path style=" stroke:none;fill-rule:evenodd;fill:rgb(0%,0%,0%);fill-opacity:1;" d="M 175.714844 113.128906 C 175.714844 112.117188 175.144531 111.402344 174.320312 111.402344 C 173.746094 111.402344 173.230469 111.875 173.023438 112.097656 L 173.824219 108.894531 C 173.835938 108.851562 173.859375 108.785156 173.859375 108.730469 C 173.859375 108.621094 173.726562 108.621094 173.726562 108.621094 L 173.121094 108.675781 C 172.933594 108.6875 172.769531 108.707031 172.570312 108.71875 C 172.304688 108.742188 172.230469 108.75 172.230469 108.949219 C 172.230469 109.058594 172.339844 109.058594 172.449219 109.058594 C 173.011719 109.058594 173.011719 109.160156 173.011719 109.269531 C 173.011719 109.34375 172.921875 109.664062 172.878906 109.863281 L 172.613281 110.917969 L 171.832031 114.054688 C 171.777344 114.328125 171.777344 114.515625 171.777344 114.660156 C 171.777344 115.78125 172.40625 116.363281 173.121094 116.363281 C 174.394531 116.363281 175.714844 114.726562 175.714844 113.128906 Z M 174.417969 115.023438 C 174.144531 115.617188 173.636719 116.144531 173.132812 116.144531 C 172.78125 116.144531 172.394531 115.878906 172.394531 115.023438 C 172.394531 114.660156 172.425781 114.449219 172.625 113.679688 L 172.878906 112.6875 C 172.898438 112.601562 173.550781 111.621094 174.296875 111.621094 C 174.78125 111.621094 175 112.105469 175 112.679688 C 175 113.207031 174.691406 114.449219 174.417969 115.023438 Z M 174.417969 115.023438 "/>
<path style=" stroke:none;fill-rule:evenodd;fill:rgb(0%,0%,0%);fill-opacity:1;" d="M 178.882812 113.515625 C 178.882812 112.679688 178.773438 111.316406 178.15625 110.039062 C 177.507812 108.71875 176.605469 108.003906 176.488281 108.003906 C 176.441406 108.003906 176.386719 108.023438 176.386719 108.09375 C 176.386719 108.125 176.386719 108.148438 176.574219 108.335938 C 177.671875 109.445312 178.289062 111.261719 178.289062 113.503906 C 178.289062 115.636719 177.773438 117.476562 176.496094 118.773438 C 176.386719 118.871094 176.386719 118.894531 176.386719 118.925781 C 176.386719 118.992188 176.441406 119.015625 176.488281 119.015625 C 176.628906 119.015625 177.53125 118.222656 178.070312 117.144531 C 178.632812 116.023438 178.882812 114.835938 178.882812 113.515625 Z M 178.882812 113.515625 "/>
<path style=" stroke:none;fill-rule:evenodd;fill:rgb(0%,0%,0%);fill-opacity:1;" d="M 214.5 127 C 214.5 126.601562 214.34375 126.21875 214.0625 125.9375 C 213.78125 125.65625 213.398438 125.5 213 125.5 C 212.601562 125.5 212.21875 125.65625 211.9375 125.9375 C 211.65625 126.21875 211.5 126.601562 211.5 127 C 211.5 127.398438 211.65625 127.78125 211.9375 128.0625 C 212.21875 128.34375 212.601562 128.5 213 128.5 C 213.398438 128.5 213.78125 128.34375 214.0625 128.0625 C 214.34375 127.78125 214.5 127.398438 214.5 127 Z M 214.5 127 "/>
<path style=" stroke:none;fill-rule:evenodd;fill:rgb(0%,0%,0%);fill-opacity:1;" d="M 188.710938 133.609375 C 188.710938 132.917969 188.359375 132.871094 188.269531 132.871094 C 188.007812 132.871094 187.765625 133.136719 187.765625 133.355469 C 187.765625 133.488281 187.839844 133.566406 187.886719 133.609375 C 187.996094 133.710938 188.28125 134.007812 188.28125 134.578125 C 188.28125 135.039062 187.621094 137.613281 186.300781 137.613281 C 185.628906 137.613281 185.5 137.050781 185.5 136.644531 C 185.5 136.097656 185.75 135.328125 186.046875 134.535156 C 186.222656 134.082031 186.269531 133.972656 186.269531 133.753906 C 186.269531 133.289062 185.9375 132.871094 185.398438 132.871094 C 184.386719 132.871094 183.980469 134.46875 183.980469 134.554688 C 183.980469 134.601562 184.023438 134.65625 184.101562 134.65625 C 184.199219 134.65625 184.210938 134.609375 184.253906 134.457031 C 184.519531 133.511719 184.949219 133.09375 185.367188 133.09375 C 185.464844 133.09375 185.652344 133.09375 185.652344 133.457031 C 185.652344 133.742188 185.53125 134.0625 185.367188 134.480469 C 184.835938 135.886719 184.835938 136.226562 184.835938 136.492188 C 184.835938 136.734375 184.871094 137.183594 185.210938 137.492188 C 185.609375 137.832031 186.160156 137.832031 186.257812 137.832031 C 188.082031 137.832031 188.710938 134.238281 188.710938 133.609375 Z M 188.710938 133.609375 "/>
<path style=" stroke:none;fill-rule:evenodd;fill:rgb(0%,0%,0%);fill-opacity:1;" d="M 195.132812 131.214844 C 195.132812 131.039062 194.964844 131.039062 194.859375 131.039062 L 192.613281 131.039062 L 192.613281 128.785156 C 192.613281 128.679688 192.613281 128.511719 192.4375 128.511719 C 192.261719 128.511719 192.261719 128.679688 192.261719 128.785156 L 192.261719 131.039062 L 190.007812 131.039062 C 189.902344 131.039062 189.734375 131.039062 189.734375 131.214844 C 189.734375 131.390625 189.902344 131.390625 190.007812 131.390625 L 192.261719 131.390625 L 192.261719 133.644531 C 192.261719 133.75 192.261719 133.921875 192.4375 133.921875 C 192.613281 133.921875 192.613281 133.75 192.613281 133.644531 L 192.613281 131.390625 L 194.859375 131.390625 C 194.964844 131.390625 195.132812 131.390625 195.132812 131.214844 Z M 195.132812 131.214844 "/>
<path style=" stroke:none;fill-rule:evenodd;fill:rgb(0%,0%,0%);fill-opacity:1;" d="M 194.871094 140.777344 C 194.871094 140.671875 194.765625 140.671875 194.71875 140.671875 C 194.421875 140.664062 194.320312 140.609375 194.199219 140.351562 L 192.984375 137.851562 L 192.9375 137.753906 C 192.9375 137.753906 193.070312 137.644531 193.144531 137.59375 C 193.75 137.148438 194.574219 136.554688 194.824219 136.394531 C 195.214844 136.148438 195.496094 135.988281 195.839844 135.957031 C 195.902344 135.949219 196.011719 135.941406 196.011719 135.804688 C 196.003906 135.75 195.957031 135.707031 195.902344 135.707031 C 195.902344 135.707031 195.679688 135.726562 195.628906 135.726562 L 195.324219 135.726562 C 195.191406 135.726562 195 135.726562 194.933594 135.722656 C 194.878906 135.722656 194.582031 135.707031 194.527344 135.707031 C 194.472656 135.707031 194.367188 135.707031 194.367188 135.851562 C 194.367188 135.851562 194.375 135.949219 194.488281 135.957031 C 194.550781 135.964844 194.671875 135.980469 194.671875 136.074219 C 194.671875 136.195312 194.519531 136.324219 194.503906 136.332031 L 194.441406 136.386719 C 194.421875 136.410156 194.390625 136.4375 194.351562 136.460938 L 191.234375 138.722656 L 191.839844 136.300781 C 191.90625 136.027344 191.921875 135.957031 192.480469 135.957031 C 192.632812 135.957031 192.726562 135.957031 192.726562 135.8125 C 192.726562 135.8125 192.71875 135.707031 192.59375 135.707031 C 192.449219 135.707031 192.265625 135.722656 192.121094 135.726562 L 191.640625 135.726562 C 190.90625 135.726562 190.707031 135.707031 190.65625 135.707031 C 190.617188 135.707031 190.5 135.707031 190.5 135.851562 C 190.5 135.957031 190.59375 135.957031 190.722656 135.957031 C 190.976562 135.957031 191.195312 135.957031 191.195312 136.078125 C 191.195312 136.109375 191.1875 136.117188 191.164062 136.21875 L 190.140625 140.320312 C 190.074219 140.609375 190.058594 140.671875 189.492188 140.671875 C 189.347656 140.671875 189.257812 140.671875 189.257812 140.816406 C 189.257812 140.847656 189.277344 140.921875 189.378906 140.921875 C 189.523438 140.921875 189.707031 140.90625 189.851562 140.898438 L 190.835938 140.898438 C 190.960938 140.90625 191.210938 140.921875 191.328125 140.921875 C 191.363281 140.921875 191.480469 140.921875 191.480469 140.785156 C 191.480469 140.671875 191.386719 140.671875 191.257812 140.671875 C 191.203125 140.671875 191.097656 140.671875 190.96875 140.65625 C 190.804688 140.640625 190.785156 140.625 190.785156 140.546875 C 190.785156 140.503906 190.835938 140.3125 190.859375 140.191406 C 190.945312 139.855469 190.84375 140.273438 191.148438 139.035156 L 192.382812 138.152344 L 193.296875 140.039062 L 193.445312 140.335938 C 193.488281 140.410156 193.488281 140.425781 193.488281 140.457031 C 193.488281 140.664062 193.207031 140.671875 193.121094 140.671875 C 193.046875 140.671875 192.9375 140.671875 192.9375 140.816406 C 192.9375 140.816406 192.945312 140.921875 193.070312 140.921875 C 193.144531 140.921875 193.4375 140.90625 193.503906 140.898438 L 193.945312 140.898438 C 194.648438 140.898438 194.628906 140.921875 194.726562 140.921875 C 194.757812 140.921875 194.871094 140.921875 194.871094 140.777344 Z M 194.871094 140.777344 "/>
<path style=" stroke:none;fill-rule:evenodd;fill:rgb(0%,0%,0%);fill-opacity:1;" d="M 200.355469 140.398438 C 200.355469 140.363281 200.355469 140.34375 200.167969 140.15625 C 199.070312 139.042969 198.453125 137.230469 198.453125 134.984375 C 198.453125 132.851562 198.96875 131.011719 200.246094 129.714844 C 200.355469 129.617188 200.355469 129.59375 200.355469 129.5625 C 200.355469 129.496094 200.300781 129.472656 200.257812 129.472656 C 200.113281 129.472656 199.210938 130.265625 198.671875 131.34375 C 198.109375 132.457031 197.859375 133.632812 197.859375 134.984375 C 197.859375 135.964844 198.011719 137.273438 198.585938 138.449219 C 199.234375 139.769531 200.136719 140.484375 200.257812 140.484375 C 200.300781 140.484375 200.355469 140.464844 200.355469 140.398438 Z M 200.355469 140.398438 "/>
<path style=" stroke:none;fill-rule:evenodd;fill:rgb(0%,0%,0%);fill-opacity:1;" d="M 204.324219 136.152344 C 204.324219 136.085938 204.28125 136.054688 204.214844 136.054688 C 204.214844 136.054688 204.148438 136.054688 204.125 136.097656 C 204.125 136.097656 204.105469 136.117188 204.027344 136.296875 C 203.796875 136.84375 203.289062 137.613281 202.652344 137.613281 C 202.320312 137.613281 202.300781 137.339844 202.300781 137.097656 C 202.300781 137.097656 202.300781 136.878906 202.332031 136.746094 L 203.191406 133.300781 L 204.203125 133.300781 C 204.410156 133.300781 204.523438 133.300781 204.523438 133.101562 C 204.523438 132.984375 204.457031 132.984375 204.238281 132.984375 L 203.269531 132.984375 L 203.675781 131.378906 C 203.71875 131.222656 203.71875 131.199219 203.71875 131.125 C 203.71875 130.949219 203.574219 130.847656 203.433594 130.847656 C 203.34375 130.847656 203.089844 130.882812 203.003906 131.234375 L 202.574219 132.984375 L 201.539062 132.984375 C 201.320312 132.984375 201.222656 132.984375 201.222656 133.191406 C 201.222656 133.300781 201.296875 133.300781 201.507812 133.300781 L 202.488281 133.300781 L 201.761719 136.207031 C 201.671875 136.589844 201.640625 136.699219 201.640625 136.84375 C 201.640625 137.363281 202.003906 137.832031 202.617188 137.832031 C 203.730469 137.832031 204.324219 136.226562 204.324219 136.152344 Z M 204.324219 136.152344 "/>
<path style=" stroke:none;fill-rule:evenodd;fill:rgb(0%,0%,0%);fill-opacity:1;" d="M 207.882812 134.984375 C 207.882812 134.148438 207.769531 132.785156 207.15625 131.507812 C 206.507812 130.1875 205.605469 129.472656 205.484375 129.472656 C 205.441406 129.472656 205.382812 129.496094 205.382812 129.5625 C 205.382812 129.59375 205.382812 129.617188 205.570312 129.804688 C 206.671875 130.914062 207.289062 132.730469 207.289062 134.972656 C 207.289062 137.109375 206.769531 138.945312 205.496094 140.246094 C 205.382812 140.34375 205.382812 140.363281 205.382812 140.398438 C 205.382812 140.464844 205.441406 140.484375 205.484375 140.484375 C 205.625 140.484375 206.527344 139.695312 207.066406 138.613281 C 207.628906 137.492188 207.882812 136.304688 207.882812 134.984375 Z M 207.882812 134.984375 "/>
<path style="fill:none;stroke-width:1;stroke-linecap:square;stroke-linejoin:miter;stroke:rgb(0%,0%,0%);stroke-opacity:1;stroke-miterlimit:3.25;" d="M 230.855469 53.867188 L 228.449219 52.394531 L 226.011719 50.96875 L 223.546875 49.589844 L 221.058594 48.257812 L 218.542969 46.976562 L 216.003906 45.746094 L 213.4375 44.5625 L 210.851562 43.429688 L 208.246094 42.347656 L 205.617188 41.316406 L 202.96875 40.339844 L 200.304688 39.410156 L 197.617188 38.535156 L 194.917969 37.710938 L 192.203125 36.9375 L 189.472656 36.222656 L 186.730469 35.554688 L 183.972656 34.945312 L 181.207031 34.386719 L 178.425781 33.882812 L 175.640625 33.433594 L 172.84375 33.039062 L 170.042969 32.695312 L 167.234375 32.410156 L 164.421875 32.179688 L 161.601562 32 L 158.78125 31.878906 L 155.960938 31.8125 L 153.136719 31.800781 L 150.3125 31.839844 L 147.492188 31.9375 L 144.671875 32.089844 L 141.859375 32.296875 L 139.046875 32.558594 L 136.242188 32.875 L 133.441406 33.246094 L 130.652344 33.671875 L 127.871094 34.148438 L 125.097656 34.683594 L 122.335938 35.269531 L 119.585938 35.910156 L 116.847656 36.605469 L 114.128906 37.351562 L 111.417969 38.152344 L 108.726562 39.003906 L 106.054688 39.910156 L 103.398438 40.863281 L 100.761719 41.871094 L 98.144531 42.929688 L 95.546875 44.042969 L 92.972656 45.199219 L 90.421875 46.410156 L 87.894531 47.667969 L 85.394531 48.976562 L 82.917969 50.332031 L 80.46875 51.738281 L 78.046875 53.1875 L 75.652344 54.6875 L 73.289062 56.230469 L 70.957031 57.824219 L 68.65625 59.457031 L 66.386719 61.136719 L 64.152344 62.859375 L 61.949219 64.628906 L 59.78125 66.4375 L 57.652344 68.289062 L 55.554688 70.179688 L 53.496094 72.113281 L 51.476562 74.085938 L 49.496094 76.09375 L 47.554688 78.144531 L 45.652344 80.230469 "/>
<path style=" stroke:none;fill-rule:evenodd;fill:rgb(0%,0%,0%);fill-opacity:1;" d="M 232.5 54 C 232.5 53.601562 232.34375 53.21875 232.0625 52.9375 C 231.78125 52.65625 231.398438 52.5 231 52.5 C 230.601562 52.5 230.21875 52.65625 229.9375 52.9375 C 229.65625 53.21875 229.5 53.601562 229.5 54 C 229.5 54.398438 229.65625 54.78125 229.9375 55.0625 C 230.21875 55.34375 230.601562 55.5 231 55.5 C 231.398438 55.5 231.78125 55.34375 232.0625 55.0625 C 232.34375 54.78125 232.5 54.398438 232.5 54 Z M 232.5 54 "/>
<path style=" stroke:none;fill-rule:evenodd;fill:rgb(0%,0%,0%);fill-opacity:1;" d="M 242.21875 54.429688 L 241.753906 54.429688 C 241.667969 55.59375 241.425781 56.210938 240.039062 56.210938 L 239.039062 56.210938 L 242.085938 52.140625 C 242.183594 52.019531 242.183594 51.996094 242.183594 51.929688 C 242.183594 51.722656 242.074219 51.722656 241.867188 51.722656 L 237.882812 51.722656 L 237.761719 53.617188 L 238.222656 53.617188 C 238.289062 52.570312 238.53125 52.085938 239.753906 52.085938 L 240.742188 52.085938 L 237.683594 56.167969 C 237.585938 56.289062 237.585938 56.3125 237.585938 56.386719 C 237.585938 56.609375 237.683594 56.609375 237.90625 56.609375 L 242.03125 56.609375 Z M 242.21875 54.429688 "/>
<path style=" stroke:none;fill-rule:evenodd;fill:rgb(0%,0%,0%);fill-opacity:1;" d="M 246.320312 59.28125 C 246.320312 59.25 246.320312 59.226562 246.132812 59.039062 C 245.03125 57.929688 244.414062 56.113281 244.414062 53.867188 C 244.414062 51.734375 244.933594 49.894531 246.210938 48.597656 C 246.320312 48.496094 246.320312 48.476562 246.320312 48.441406 C 246.320312 48.375 246.265625 48.355469 246.21875 48.355469 C 246.078125 48.355469 245.175781 49.148438 244.636719 50.226562 C 244.074219 51.335938 243.820312 52.515625 243.820312 53.867188 C 243.820312 54.847656 243.976562 56.15625 244.546875 57.335938 C 245.195312 58.65625 246.101562 59.371094 246.21875 59.371094 C 246.265625 59.371094 246.320312 59.347656 246.320312 59.28125 Z M 246.320312 59.28125 "/>
<path style=" stroke:none;fill-rule:evenodd;fill:rgb(0%,0%,0%);fill-opacity:1;" d="M 250.15625 55.296875 C 250.101562 55.484375 250.101562 55.507812 249.949219 55.71875 C 249.707031 56.023438 249.222656 56.5 248.703125 56.5 C 248.253906 56.5 248 56.089844 248 55.441406 C 248 54.835938 248.339844 53.601562 248.550781 53.140625 C 248.925781 52.371094 249.441406 51.976562 249.871094 51.976562 C 250.597656 51.976562 250.738281 52.878906 250.738281 52.964844 C 250.738281 52.964844 250.707031 53.121094 250.695312 53.140625 Z M 252.179688 55.035156 C 252.179688 54.980469 252.136719 54.9375 252.070312 54.9375 C 251.972656 54.9375 251.960938 54.992188 251.917969 55.15625 C 251.753906 55.804688 251.542969 56.5 251.089844 56.5 C 250.773438 56.5 250.75 56.210938 250.75 55.992188 C 250.75 55.738281 250.785156 55.617188 250.882812 55.1875 L 251.101562 54.351562 C 251.511719 52.703125 251.609375 52.304688 251.609375 52.238281 C 251.609375 52.085938 251.488281 51.964844 251.324219 51.964844 C 250.972656 51.964844 250.882812 52.351562 250.859375 52.480469 C 250.738281 52.195312 250.441406 51.753906 249.871094 51.753906 C 248.628906 51.753906 247.285156 53.363281 247.285156 54.992188 C 247.285156 56.078125 247.921875 56.71875 248.671875 56.71875 C 249.277344 56.71875 249.792969 56.246094 250.101562 55.882812 C 250.210938 56.53125 250.730469 56.71875 251.058594 56.71875 C 251.386719 56.71875 251.652344 56.519531 251.851562 56.125 C 252.027344 55.75 252.179688 55.078125 252.179688 55.035156 Z M 252.179688 55.035156 "/>
<path style=" stroke:none;fill-rule:evenodd;fill:rgb(0%,0%,0%);fill-opacity:1;" d="M 255.648438 53.867188 C 255.648438 53.03125 255.535156 51.667969 254.921875 50.390625 C 254.273438 49.070312 253.371094 48.355469 253.25 48.355469 C 253.207031 48.355469 253.148438 48.375 253.148438 48.441406 C 253.148438 48.476562 253.148438 48.496094 253.335938 48.683594 C 254.4375 49.796875 255.054688 51.613281 255.054688 53.855469 C 255.054688 55.992188 254.535156 57.828125 253.261719 59.128906 C 253.148438 59.226562 253.148438 59.25 253.148438 59.28125 C 253.148438 59.347656 253.207031 59.371094 253.25 59.371094 C 253.390625 59.371094 254.292969 58.578125 254.832031 57.5 C 255.394531 56.375 255.648438 55.1875 255.648438 53.867188 Z M 255.648438 53.867188 "/>
<path style=" stroke:none;fill-rule:evenodd;fill:rgb(0%,0%,0%);fill-opacity:1;" d="M 47.5 80 C 47.5 79.601562 47.34375 79.21875 47.0625 78.9375 C 46.78125 78.65625 46.398438 78.5 46 78.5 C 45.601562 78.5 45.21875 78.65625 44.9375 78.9375 C 44.65625 79.21875 44.5 79.601562 44.5 80 C 44.5 80.398438 44.65625 80.78125 44.9375 81.0625 C 45.21875 81.34375 45.601562 81.5 46 81.5 C 46.398438 81.5 46.78125 81.34375 47.0625 81.0625 C 47.34375 80.78125 47.5 80.398438 47.5 80 Z M 47.5 80 "/>
<path style=" stroke:none;fill-rule:evenodd;fill:rgb(0%,0%,0%);fill-opacity:1;" d="M 26.238281 80.792969 L 25.777344 80.792969 C 25.6875 81.960938 25.445312 82.574219 24.058594 82.574219 L 23.058594 82.574219 L 26.105469 78.503906 C 26.207031 78.382812 26.207031 78.359375 26.207031 78.296875 C 26.207031 78.085938 26.097656 78.085938 25.886719 78.085938 L 21.902344 78.085938 L 21.78125 79.980469 L 22.246094 79.980469 C 22.308594 78.933594 22.550781 78.449219 23.773438 78.449219 L 24.761719 78.449219 L 21.707031 82.53125 C 21.605469 82.652344 21.605469 82.675781 21.605469 82.75 C 21.605469 82.972656 21.707031 82.972656 21.925781 82.972656 L 26.050781 82.972656 Z M 26.238281 80.792969 "/>
<path style=" stroke:none;fill-rule:evenodd;fill:rgb(0%,0%,0%);fill-opacity:1;" d="M 30.34375 85.644531 C 30.34375 85.613281 30.34375 85.589844 30.152344 85.402344 C 29.054688 84.292969 28.4375 82.476562 28.4375 80.230469 C 28.4375 78.097656 28.953125 76.257812 30.230469 74.960938 C 30.34375 74.863281 30.34375 74.839844 30.34375 74.808594 C 30.34375 74.742188 30.289062 74.71875 30.242188 74.71875 C 30.097656 74.71875 29.195312 75.511719 28.65625 76.589844 C 28.097656 77.703125 27.84375 78.878906 27.84375 80.230469 C 27.84375 81.210938 27.996094 82.519531 28.570312 83.699219 C 29.21875 85.019531 30.121094 85.734375 30.242188 85.734375 C 30.289062 85.734375 30.34375 85.710938 30.34375 85.644531 Z M 30.34375 85.644531 "/>
<path style=" stroke:none;fill-rule:evenodd;fill:rgb(0%,0%,0%);fill-opacity:1;" d="M 35.300781 79.847656 C 35.300781 78.835938 34.726562 78.117188 33.902344 78.117188 C 33.328125 78.117188 32.8125 78.59375 32.605469 78.8125 L 33.40625 75.609375 C 33.417969 75.566406 33.441406 75.5 33.441406 75.445312 C 33.441406 75.335938 33.308594 75.335938 33.308594 75.335938 L 32.703125 75.390625 C 32.515625 75.402344 32.351562 75.421875 32.152344 75.433594 C 31.886719 75.457031 31.8125 75.46875 31.8125 75.664062 C 31.8125 75.773438 31.921875 75.773438 32.03125 75.773438 C 32.59375 75.773438 32.59375 75.875 32.59375 75.984375 C 32.59375 76.0625 32.503906 76.382812 32.460938 76.578125 L 32.195312 77.636719 L 31.414062 80.773438 C 31.359375 81.046875 31.359375 81.234375 31.359375 81.375 C 31.359375 82.5 31.988281 83.082031 32.703125 83.082031 C 33.980469 83.082031 35.300781 81.441406 35.300781 79.847656 Z M 34 81.738281 C 33.726562 82.335938 33.21875 82.863281 32.714844 82.863281 C 32.363281 82.863281 31.976562 82.597656 31.976562 81.738281 C 31.976562 81.375 32.007812 81.167969 32.207031 80.398438 L 32.460938 79.40625 C 32.484375 79.320312 33.132812 78.339844 33.878906 78.339844 C 34.363281 78.339844 34.585938 78.824219 34.585938 79.394531 C 34.585938 79.921875 34.277344 81.167969 34 81.738281 Z M 34 81.738281 "/>
<path style=" stroke:none;fill-rule:evenodd;fill:rgb(0%,0%,0%);fill-opacity:1;" d="M 38.570312 80.230469 C 38.570312 79.394531 38.457031 78.03125 37.84375 76.753906 C 37.191406 75.433594 36.289062 74.71875 36.171875 74.71875 C 36.125 74.71875 36.070312 74.742188 36.070312 74.808594 C 36.070312 74.839844 36.070312 74.863281 36.257812 75.050781 C 37.359375 76.160156 37.976562 77.976562 37.976562 80.21875 C 37.976562 82.355469 37.457031 84.195312 36.179688 85.492188 C 36.070312 85.589844 36.070312 85.613281 36.070312 85.644531 C 36.070312 85.710938 36.125 85.734375 36.171875 85.734375 C 36.3125 85.734375 37.214844 84.941406 37.753906 83.863281 C 38.316406 82.742188 38.570312 81.554688 38.570312 80.230469 Z M 38.570312 80.230469 "/>
<path style=" stroke:none;fill-rule:evenodd;fill:rgb(0%,0%,0%);fill-opacity:1;" d="M 134.5 33 C 134.5 32.601562 134.34375 32.21875 134.0625 31.9375 C 133.78125 31.65625 133.398438 31.5 133 31.5 C 132.601562 31.5 132.21875 31.65625 131.9375 31.9375 C 131.65625 32.21875 131.5 32.601562 131.5 33 C 131.5 33.398438 131.65625 33.78125 131.9375 34.0625 C 132.21875 34.34375 132.601562 34.5 133 34.5 C 133.398438 34.5 133.78125 34.34375 134.0625 34.0625 C 134.34375 33.78125 134.5 33.398438 134.5 33 Z M 134.5 33 "/>
<path style=" stroke:none;fill-rule:evenodd;fill:rgb(0%,0%,0%);fill-opacity:1;" d="M 129.570312 20.921875 L 129.109375 20.921875 C 129.019531 22.089844 128.777344 22.703125 127.390625 22.703125 L 126.390625 22.703125 L 129.4375 18.632812 C 129.539062 18.511719 129.539062 18.488281 129.539062 18.425781 C 129.539062 18.214844 129.429688 18.214844 129.21875 18.214844 L 125.234375 18.214844 L 125.113281 20.109375 L 125.578125 20.109375 C 125.640625 19.0625 125.882812 18.578125 127.105469 18.578125 L 128.09375 18.578125 L 125.039062 22.660156 C 124.9375 22.78125 124.9375 22.804688 124.9375 22.882812 C 124.9375 23.101562 125.039062 23.101562 125.257812 23.101562 L 129.382812 23.101562 Z M 129.570312 20.921875 "/>
<path style=" stroke:none;fill-rule:evenodd;fill:rgb(0%,0%,0%);fill-opacity:1;" d="M 133.675781 25.773438 C 133.675781 25.742188 133.675781 25.71875 133.488281 25.53125 C 132.386719 24.421875 131.769531 22.605469 131.769531 20.359375 C 131.769531 18.226562 132.285156 16.386719 133.5625 15.089844 C 133.675781 14.992188 133.675781 14.96875 133.675781 14.9375 C 133.675781 14.867188 133.621094 14.847656 133.574219 14.847656 C 133.433594 14.847656 132.527344 15.640625 131.988281 16.71875 C 131.429688 17.832031 131.175781 19.007812 131.175781 20.359375 C 131.175781 21.339844 131.332031 22.648438 131.902344 23.828125 C 132.550781 25.148438 133.453125 25.863281 133.574219 25.863281 C 133.621094 25.863281 133.675781 25.84375 133.675781 25.773438 Z M 133.675781 25.773438 "/>
<path style=" stroke:none;fill-rule:evenodd;fill:rgb(0%,0%,0%);fill-opacity:1;" d="M 137.542969 21.527344 C 137.542969 21.460938 137.5 21.429688 137.433594 21.429688 C 137.433594 21.429688 137.367188 21.429688 137.34375 21.472656 C 137.34375 21.472656 137.324219 21.496094 137.246094 21.671875 C 137.015625 22.222656 136.507812 22.992188 135.871094 22.992188 C 135.539062 22.992188 135.519531 22.71875 135.519531 22.476562 C 135.519531 22.476562 135.519531 22.253906 135.550781 22.121094 L 136.410156 18.675781 L 137.421875 18.675781 C 137.632812 18.675781 137.742188 18.675781 137.742188 18.480469 C 137.742188 18.359375 137.675781 18.359375 137.457031 18.359375 L 136.488281 18.359375 L 136.894531 16.753906 C 136.9375 16.597656 136.9375 16.574219 136.9375 16.5 C 136.9375 16.324219 136.796875 16.222656 136.652344 16.222656 C 136.5625 16.222656 136.308594 16.257812 136.222656 16.609375 L 135.792969 18.359375 L 134.757812 18.359375 C 134.539062 18.359375 134.441406 18.359375 134.441406 18.566406 C 134.441406 18.675781 134.515625 18.675781 134.726562 18.675781 L 135.707031 18.675781 L 134.980469 21.582031 C 134.890625 21.96875 134.859375 22.078125 134.859375 22.222656 C 134.859375 22.738281 135.222656 23.210938 135.835938 23.210938 C 136.949219 23.210938 137.542969 21.605469 137.542969 21.527344 Z M 137.542969 21.527344 "/>
<path style=" stroke:none;fill-rule:evenodd;fill:rgb(0%,0%,0%);fill-opacity:1;" d="M 141.203125 20.359375 C 141.203125 19.523438 141.089844 18.160156 140.476562 16.882812 C 139.828125 15.5625 138.921875 14.847656 138.804688 14.847656 C 138.757812 14.847656 138.703125 14.867188 138.703125 14.9375 C 138.703125 14.96875 138.703125 14.992188 138.890625 15.179688 C 139.992188 16.289062 140.609375 18.105469 140.609375 20.347656 C 140.609375 22.484375 140.089844 24.324219 138.8125 25.621094 C 138.703125 25.71875 138.703125 25.742188 138.703125 25.773438 C 138.703125 25.84375 138.757812 25.863281 138.804688 25.863281 C 138.945312 25.863281 139.847656 25.070312 140.386719 23.992188 C 140.949219 22.871094 141.203125 21.683594 141.203125 20.359375 Z M 141.203125 20.359375 "/>
<g clip-path="url(#clip1)" clip-rule="nonzero">
<path style=" stroke:none;fill-rule:evenodd;fill:rgb(0%,0%,0%);fill-opacity:1;" d="M 83.332031 128.246094 L 83.332031 127.929688 L 82.992188 127.929688 C 82.023438 127.929688 81.988281 127.796875 81.988281 127.402344 L 81.988281 121.195312 C 81.988281 120.941406 81.988281 120.933594 81.769531 120.933594 C 81.507812 121.230469 80.957031 121.636719 79.824219 121.636719 L 79.824219 121.957031 C 80.078125 121.957031 80.625 121.957031 81.230469 121.667969 L 81.230469 127.402344 C 81.230469 127.796875 81.199219 127.929688 80.230469 127.929688 L 79.890625 127.929688 L 79.890625 128.246094 C 80.1875 128.226562 81.253906 128.226562 81.617188 128.226562 C 81.980469 128.226562 83.035156 128.226562 83.332031 128.246094 Z M 83.332031 128.246094 "/>
</g>
<path style="fill:none;stroke-width:0.437903;stroke-linecap:square;stroke-linejoin:miter;stroke:rgb(0%,0%,0%);stroke-opacity:1;stroke-miterlimit:10;" d="M 78.8125 132.894531 L 84.179688 132.894531 "/>
<path style=" stroke:none;fill-rule:evenodd;fill:rgb(0%,0%,0%);fill-opacity:1;" d="M 83.664062 141.296875 L 83.421875 141.296875 C 83.386719 141.484375 83.300781 142.089844 83.191406 142.265625 C 83.113281 142.363281 82.484375 142.363281 82.15625 142.363281 L 80.121094 142.363281 C 80.417969 142.109375 81.089844 141.40625 81.375 141.140625 C 83.046875 139.601562 83.664062 139.03125 83.664062 137.941406 C 83.664062 136.675781 82.660156 135.828125 81.386719 135.828125 C 80.109375 135.828125 79.359375 136.917969 79.359375 137.863281 C 79.359375 138.425781 79.84375 138.425781 79.878906 138.425781 C 80.109375 138.425781 80.394531 138.257812 80.394531 137.910156 C 80.394531 137.601562 80.1875 137.390625 79.878906 137.390625 C 79.78125 137.390625 79.757812 137.390625 79.722656 137.402344 C 79.933594 136.652344 80.527344 136.148438 81.242188 136.148438 C 82.175781 136.148438 82.75 136.929688 82.75 137.941406 C 82.75 138.875 82.210938 139.691406 81.585938 140.394531 L 79.359375 142.878906 L 79.359375 143.144531 L 83.375 143.144531 Z M 83.664062 141.296875 "/>
<path style=" stroke:none;fill-rule:evenodd;fill:rgb(0%,0%,0%);fill-opacity:1;" d="M 91.714844 134.996094 C 91.714844 134.898438 91.636719 134.898438 91.605469 134.898438 C 91.515625 134.898438 91.503906 134.929688 91.472656 135.019531 C 91.371094 135.292969 91.121094 135.535156 90.855469 135.535156 C 90.515625 135.535156 90.515625 134.832031 90.515625 134.160156 C 91.636719 132.820312 91.902344 131.421875 91.902344 131.421875 C 91.902344 131.320312 91.8125 131.320312 91.777344 131.320312 C 91.679688 131.320312 91.667969 131.355469 91.625 131.554688 C 91.480469 132.039062 91.195312 132.894531 90.515625 133.796875 L 90.515625 132.863281 C 90.515625 131.796875 89.910156 130.792969 88.742188 130.792969 C 87.300781 130.792969 85.859375 132.367188 85.859375 133.929688 C 85.859375 134.886719 86.453125 135.753906 87.578125 135.753906 C 88.257812 135.753906 89.074219 135.492188 89.855469 134.832031 C 90.007812 135.449219 90.347656 135.753906 90.824219 135.753906 C 91.417969 135.753906 91.714844 135.140625 91.714844 134.996094 Z M 89.820312 134.570312 C 88.851562 135.4375 87.984375 135.535156 87.597656 135.535156 C 86.816406 135.535156 86.597656 134.84375 86.597656 134.328125 C 86.597656 133.851562 86.839844 132.730469 87.179688 132.125 C 87.632812 131.355469 88.25 131.015625 88.742188 131.015625 C 89.808594 131.015625 89.808594 132.414062 89.808594 133.335938 L 89.800781 134.171875 C 89.800781 134.390625 89.808594 134.445312 89.820312 134.570312 Z M 89.820312 134.570312 "/>
<path style=" stroke:none;fill-rule:evenodd;fill:rgb(0%,0%,0%);fill-opacity:1;" d="M 95.796875 138.320312 C 95.796875 138.285156 95.796875 138.265625 95.609375 138.078125 C 94.507812 136.964844 93.890625 135.152344 93.890625 132.90625 C 93.890625 130.773438 94.40625 128.933594 95.683594 127.636719 C 95.796875 127.539062 95.796875 127.515625 95.796875 127.484375 C 95.796875 127.417969 95.742188 127.394531 95.695312 127.394531 C 95.554688 127.394531 94.648438 128.1875 94.109375 129.265625 C 93.550781 130.378906 93.296875 131.554688 93.296875 132.90625 C 93.296875 133.886719 93.453125 135.195312 94.023438 136.371094 C 94.671875 137.691406 95.574219 138.40625 95.695312 138.40625 C 95.742188 138.40625 95.796875 138.386719 95.796875 138.320312 Z M 95.796875 138.320312 "/>
<path style=" stroke:none;fill-rule:evenodd;fill:rgb(0%,0%,0%);fill-opacity:1;" d="M 99.761719 134.074219 C 99.761719 134.007812 99.71875 133.976562 99.652344 133.976562 C 99.652344 133.976562 99.585938 133.976562 99.566406 134.019531 C 99.566406 134.019531 99.542969 134.039062 99.464844 134.21875 C 99.234375 134.765625 98.730469 135.535156 98.089844 135.535156 C 97.761719 135.535156 97.738281 135.261719 97.738281 135.019531 C 97.738281 135.019531 97.738281 134.800781 97.769531 134.667969 L 98.628906 131.222656 L 99.640625 131.222656 C 99.851562 131.222656 99.960938 131.222656 99.960938 131.027344 C 99.960938 130.90625 99.894531 130.90625 99.675781 130.90625 L 98.707031 130.90625 L 99.113281 129.300781 C 99.160156 129.144531 99.160156 129.121094 99.160156 129.046875 C 99.160156 128.871094 99.015625 128.769531 98.871094 128.769531 C 98.785156 128.769531 98.53125 128.804688 98.441406 129.15625 L 98.011719 130.90625 L 96.980469 130.90625 C 96.757812 130.90625 96.660156 130.90625 96.660156 131.113281 C 96.660156 131.222656 96.738281 131.222656 96.945312 131.222656 L 97.925781 131.222656 L 97.199219 134.128906 C 97.113281 134.515625 97.078125 134.625 97.078125 134.765625 C 97.078125 135.285156 97.441406 135.753906 98.058594 135.753906 C 99.167969 135.753906 99.761719 134.148438 99.761719 134.074219 Z M 99.761719 134.074219 "/>
<path style=" stroke:none;fill-rule:evenodd;fill:rgb(0%,0%,0%);fill-opacity:1;" d="M 103.417969 132.90625 C 103.417969 132.070312 103.308594 130.707031 102.695312 129.429688 C 102.046875 128.109375 101.140625 127.394531 101.023438 127.394531 C 100.976562 127.394531 100.921875 127.417969 100.921875 127.484375 C 100.921875 127.515625 100.921875 127.539062 101.109375 127.726562 C 102.210938 128.835938 102.828125 130.652344 102.828125 132.894531 C 102.828125 135.03125 102.308594 136.867188 101.03125 138.167969 C 100.921875 138.265625 100.921875 138.285156 100.921875 138.320312 C 100.921875 138.386719 100.976562 138.40625 101.023438 138.40625 C 101.164062 138.40625 102.066406 137.617188 102.605469 136.535156 C 103.167969 135.414062 103.417969 134.226562 103.417969 132.90625 Z M 103.417969 132.90625 "/>
<path style=" stroke:none;fill-rule:evenodd;fill:rgb(0%,0%,0%);fill-opacity:1;" d="M 108.160156 129.78125 L 107.921875 129.78125 C 107.898438 129.933594 107.839844 130.316406 107.75 130.460938 C 107.703125 130.519531 107.121094 130.519531 107 130.519531 L 105.640625 130.519531 L 106.671875 129.589844 C 106.792969 129.472656 107.113281 129.222656 107.234375 129.113281 C 107.710938 128.679688 108.160156 128.257812 108.160156 127.5625 C 108.160156 126.65625 107.398438 126.066406 106.441406 126.066406 C 105.527344 126.066406 104.921875 126.761719 104.921875 127.441406 C 104.921875 127.816406 105.21875 127.871094 105.324219 127.871094 C 105.488281 127.871094 105.722656 127.753906 105.722656 127.464844 C 105.722656 127.070312 105.339844 127.070312 105.25 127.070312 C 105.472656 126.511719 105.984375 126.320312 106.359375 126.320312 C 107.066406 126.320312 107.433594 126.921875 107.433594 127.5625 C 107.433594 128.359375 106.875 128.941406 105.976562 129.863281 L 105.011719 130.855469 C 104.921875 130.941406 104.921875 130.957031 104.921875 131.148438 L 107.9375 131.148438 Z M 108.160156 129.78125 "/>
<path style=" stroke:none;fill-rule:evenodd;fill:rgb(0%,0%,0%);fill-opacity:1;" d="M 114.351562 134.074219 C 114.351562 134.019531 114.304688 133.976562 114.242188 133.976562 C 114.140625 133.976562 114.132812 134.03125 114.085938 134.195312 C 113.921875 134.84375 113.710938 135.535156 113.261719 135.535156 C 112.941406 135.535156 112.921875 135.25 112.921875 135.03125 C 112.921875 134.984375 112.921875 134.753906 112.996094 134.445312 L 114.546875 128.285156 C 114.558594 128.242188 114.582031 128.175781 114.582031 128.121094 C 114.582031 128.011719 114.449219 128.011719 114.449219 128.011719 C 114.449219 128.011719 113.898438 128.054688 113.84375 128.066406 C 113.660156 128.078125 113.492188 128.097656 113.292969 128.109375 C 113.019531 128.132812 112.941406 128.144531 112.941406 128.339844 C 112.941406 128.449219 113.03125 128.449219 113.183594 128.449219 C 113.722656 128.449219 113.734375 128.550781 113.734375 128.660156 C 113.734375 128.726562 113.710938 128.816406 113.703125 128.847656 L 113.03125 131.519531 C 112.910156 131.234375 112.613281 130.792969 112.042969 130.792969 C 110.796875 130.792969 109.457031 132.402344 109.457031 134.03125 C 109.457031 135.117188 110.09375 135.753906 110.839844 135.753906 C 111.445312 135.753906 111.964844 135.285156 112.273438 134.917969 C 112.382812 135.570312 112.898438 135.753906 113.230469 135.753906 C 113.558594 135.753906 113.820312 135.558594 114.019531 135.160156 C 114.195312 134.789062 114.351562 134.117188 114.351562 134.074219 Z M 112.328125 134.335938 C 112.273438 134.523438 112.273438 134.546875 112.117188 134.753906 C 111.875 135.0625 111.390625 135.535156 110.875 135.535156 C 110.421875 135.535156 110.167969 135.128906 110.167969 134.480469 C 110.167969 133.875 110.511719 132.640625 110.722656 132.179688 C 111.09375 131.410156 111.613281 131.015625 112.042969 131.015625 C 112.765625 131.015625 112.910156 131.917969 112.910156 132.003906 C 112.910156 132.003906 112.878906 132.160156 112.867188 132.179688 Z M 112.328125 134.335938 "/>
<path style=" stroke:none;fill-rule:evenodd;fill:rgb(0%,0%,0%);fill-opacity:1;" d="M 117.957031 134.074219 C 117.957031 134.007812 117.914062 133.976562 117.847656 133.976562 C 117.847656 133.976562 117.78125 133.976562 117.761719 134.019531 C 117.761719 134.019531 117.738281 134.039062 117.660156 134.21875 C 117.429688 134.765625 116.925781 135.535156 116.285156 135.535156 C 115.957031 135.535156 115.933594 135.261719 115.933594 135.019531 C 115.933594 135.019531 115.933594 134.800781 115.96875 134.667969 L 116.824219 131.222656 L 117.835938 131.222656 C 118.046875 131.222656 118.15625 131.222656 118.15625 131.027344 C 118.15625 130.90625 118.089844 130.90625 117.871094 130.90625 L 116.902344 130.90625 L 117.308594 129.300781 C 117.355469 129.144531 117.355469 129.121094 117.355469 129.046875 C 117.355469 128.871094 117.210938 128.769531 117.066406 128.769531 C 116.980469 128.769531 116.726562 128.804688 116.640625 129.15625 L 116.210938 130.90625 L 115.175781 130.90625 C 114.953125 130.90625 114.855469 130.90625 114.855469 131.113281 C 114.855469 131.222656 114.933594 131.222656 115.140625 131.222656 L 116.121094 131.222656 L 115.394531 134.128906 C 115.308594 134.515625 115.273438 134.625 115.273438 134.765625 C 115.273438 135.285156 115.636719 135.753906 116.253906 135.753906 C 117.363281 135.753906 117.957031 134.148438 117.957031 134.074219 Z M 117.957031 134.074219 "/>
<path style="fill:none;stroke-width:1;stroke-linecap:butt;stroke-linejoin:miter;stroke:rgb(0%,0%,0%);stroke-opacity:1;stroke-dasharray:4,4;stroke-miterlimit:3.25;" d="M 153.324219 64.546875 L 98.0625 120.320312 "/>
</g>
</svg>
