<?xml version="1.0" encoding="UTF-8"?>
<svg xmlns="http://www.w3.org/2000/svg" xmlns:xlink="http://www.w3.org/1999/xlink" width="283pt" height="206pt" viewBox="0 0 283 206" version="1.1">
<g id="surface219">
<path style=" stroke:none;fill-rule:nonzero;fill:rgb(100%,90.000763%,90.000763%);fill-opacity:1;" d="M 276.816406 113.410156 L 275.421875 109.945312 L 273.953125 106.527344 L 272.410156 103.152344 L 270.792969 99.824219 L 269.105469 96.546875 L 267.347656 93.316406 L 265.523438 90.140625 L 263.625 87.015625 L 261.664062 83.945312 L 259.632812 80.929688 L 257.539062 77.972656 L 255.382812 75.070312 L 253.164062 72.230469 L 250.886719 69.449219 L 248.546875 66.730469 L 246.148438 64.074219 L 243.695312 61.484375 L 241.1875 58.957031 L 238.625 56.496094 L 236.011719 54.101562 L 233.34375 51.777344 L 230.632812 49.523438 L 227.867188 47.335938 L 225.0625 45.222656 L 222.207031 43.179688 L 219.3125 41.210938 L 216.375 39.316406 L 213.398438 37.496094 L 210.382812 35.75 L 207.328125 34.082031 L 204.242188 32.488281 L 201.121094 30.972656 L 197.972656 29.539062 L 194.789062 28.179688 L 191.578125 26.902344 L 188.34375 25.703125 L 185.082031 24.585938 L 181.796875 23.546875 L 178.492188 22.59375 L 175.167969 21.71875 L 171.824219 20.925781 L 168.464844 20.214844 L 165.09375 19.589844 L 161.707031 19.046875 L 158.3125 18.585938 L 154.90625 18.207031 L 151.496094 17.914062 L 148.078125 17.707031 L 144.65625 17.578125 L 141.230469 17.539062 L 137.808594 17.578125 L 134.386719 17.707031 L 130.96875 17.914062 L 127.558594 18.207031 L 124.152344 18.585938 L 120.757812 19.046875 L 117.371094 19.589844 L 113.996094 20.214844 L 110.640625 20.925781 L 107.296875 21.71875 L 103.972656 22.59375 L 100.667969 23.546875 L 97.382812 24.585938 L 94.121094 25.703125 L 90.882812 26.902344 L 87.675781 28.179688 L 84.492188 29.539062 L 81.339844 30.972656 L 78.222656 32.488281 L 75.132812 34.082031 L 72.082031 35.75 L 69.066406 37.496094 L 66.089844 39.316406 L 63.152344 41.210938 L 60.257812 43.179688 L 57.402344 45.222656 L 54.597656 47.335938 L 51.832031 49.523438 L 49.121094 51.777344 L 46.453125 54.101562 L 43.839844 56.496094 L 41.277344 58.957031 L 38.769531 61.484375 L 36.316406 64.074219 L 33.917969 66.730469 L 31.578125 69.449219 L 29.300781 72.230469 L 27.082031 75.070312 L 24.925781 77.972656 L 22.832031 80.929688 L 20.800781 83.945312 L 18.839844 87.015625 L 16.941406 90.140625 L 15.117188 93.316406 L 13.355469 96.546875 L 11.671875 99.824219 L 10.054688 103.152344 L 8.511719 106.527344 L 7.042969 109.945312 L 5.648438 113.410156 L 5.648438 199.722656 L 91.964844 199.722656 L 91.992188 197.605469 L 92.074219 195.507812 L 92.207031 193.4375 L 92.394531 191.386719 L 92.632812 189.367188 L 92.925781 187.371094 L 93.265625 185.40625 L 93.65625 183.46875 L 94.09375 181.558594 L 94.582031 179.683594 L 95.113281 177.839844 L 95.695312 176.03125 L 96.316406 174.253906 L 96.988281 172.515625 L 97.699219 170.808594 L 98.453125 169.144531 L 99.25 167.515625 L 100.082031 165.925781 L 100.957031 164.375 L 101.871094 162.863281 L 102.820312 161.398438 L 103.808594 159.972656 L 104.828125 158.589844 L 105.882812 157.25 L 106.96875 155.957031 L 108.089844 154.707031 L 109.238281 153.503906 L 110.417969 152.347656 L 111.621094 151.234375 L 112.855469 150.171875 L 114.113281 149.160156 L 115.398438 148.195312 L 116.703125 147.277344 L 118.03125 146.410156 L 119.378906 145.597656 L 120.75 144.832031 L 122.136719 144.117188 L 123.539062 143.453125 L 124.957031 142.839844 L 126.390625 142.28125 L 127.839844 141.777344 L 129.296875 141.320312 L 130.765625 140.921875 L 132.242188 140.570312 L 133.730469 140.277344 L 135.222656 140.035156 L 136.71875 139.847656 L 138.222656 139.714844 L 139.726562 139.632812 L 141.230469 139.605469 L 142.738281 139.632812 L 144.242188 139.714844 L 145.746094 139.847656 L 147.242188 140.035156 L 148.734375 140.277344 L 150.21875 140.570312 L 151.699219 140.921875 L 153.167969 141.320312 L 154.625 141.777344 L 156.074219 142.28125 L 157.507812 142.839844 L 158.925781 143.453125 L 160.328125 144.117188 L 161.714844 144.832031 L 163.082031 145.597656 L 164.433594 146.410156 L 165.761719 147.277344 L 167.066406 148.195312 L 168.351562 149.160156 L 169.609375 150.171875 L 170.84375 151.234375 L 172.046875 152.347656 L 173.226562 153.503906 L 174.375 154.707031 L 175.496094 155.957031 L 176.582031 157.25 L 177.636719 158.589844 L 178.65625 159.972656 L 179.644531 161.398438 L 180.59375 162.863281 L 181.503906 164.375 L 182.378906 165.925781 L 183.214844 167.515625 L 184.011719 169.144531 L 184.765625 170.808594 L 185.476562 172.515625 L 186.148438 174.253906 L 186.769531 176.03125 L 187.351562 177.839844 L 187.882812 179.683594 L 188.371094 181.558594 L 188.808594 183.46875 L 189.199219 185.40625 L 189.539062 187.371094 L 189.832031 189.367188 L 190.070312 191.386719 L 190.257812 193.4375 L 190.390625 195.507812 L 190.472656 197.605469 L 190.5 199.722656 L 276.816406 199.722656 Z M 276.816406 113.410156 "/>
<path style="fill:none;stroke-width:0.2;stroke-linecap:square;stroke-linejoin:miter;stroke:rgb(66.666667%,66.666667%,66.666667%);stroke-opacity:1;stroke-miterlimit:3.25;" d="M 276.816406 199.722656 L 276.816406 113.410156 "/>
<path style="fill:none;stroke-width:0.2;stroke-linecap:square;stroke-linejoin:miter;stroke:rgb(66.666667%,66.666667%,66.666667%);stroke-opacity:1;stroke-miterlimit:3.25;" d="M 276.410156 189.351562 L 269.105469 96.546875 "/>
<path style="fill:none;stroke-width:0.2;stroke-linecap:square;stroke-linejoin:miter;stroke:rgb(66.666667%,66.666667%,66.666667%);stroke-opacity:1;stroke-miterlimit:3.25;" d="M 275.257812 179.574219 L 259.632812 80.929688 "/>
<path style="fill:none;stroke-width:0.2;stroke-linecap:square;stroke-linejoin:miter;stroke:rgb(66.666667%,66.666667%,66.666667%);stroke-opacity:1;stroke-miterlimit:3.25;" d="M 273.445312 170.4375 L 248.546875 66.730469 "/>
<path style="fill:none;stroke-width:0.2;stroke-linecap:square;stroke-linejoin:miter;stroke:rgb(66.666667%,66.666667%,66.666667%);stroke-opacity:1;stroke-miterlimit:3.25;" d="M 271.0625 161.980469 L 236.011719 54.101562 "/>
<path style="fill:none;stroke-width:0.2;stroke-linecap:square;stroke-linejoin:miter;stroke:rgb(66.666667%,66.666667%,66.666667%);stroke-opacity:1;stroke-miterlimit:3.25;" d="M 268.210938 154.238281 L 222.207031 43.179688 "/>
<path style="fill:none;stroke-width:0.2;stroke-linecap:square;stroke-linejoin:miter;stroke:rgb(66.666667%,66.666667%,66.666667%);stroke-opacity:1;stroke-miterlimit:3.25;" d="M 264.980469 147.230469 L 207.328125 34.082031 "/>
<path style="fill:none;stroke-width:0.2;stroke-linecap:square;stroke-linejoin:miter;stroke:rgb(66.666667%,66.666667%,66.666667%);stroke-opacity:1;stroke-miterlimit:3.25;" d="M 261.472656 140.957031 L 191.578125 26.902344 "/>
<path style="fill:none;stroke-width:0.2;stroke-linecap:square;stroke-linejoin:miter;stroke:rgb(66.666667%,66.666667%,66.666667%);stroke-opacity:1;stroke-miterlimit:3.25;" d="M 257.78125 135.421875 L 175.167969 21.71875 "/>
<path style="fill:none;stroke-width:0.2;stroke-linecap:square;stroke-linejoin:miter;stroke:rgb(66.666667%,66.666667%,66.666667%);stroke-opacity:1;stroke-miterlimit:3.25;" d="M 253.992188 130.613281 L 158.3125 18.585938 "/>
<path style="fill:none;stroke-width:0.2;stroke-linecap:square;stroke-linejoin:miter;stroke:rgb(66.666667%,66.666667%,66.666667%);stroke-opacity:1;stroke-miterlimit:3.25;" d="M 250.203125 126.507812 L 141.230469 17.539062 "/>
<path style="fill:none;stroke-width:0.2;stroke-linecap:square;stroke-linejoin:miter;stroke:rgb(66.666667%,66.666667%,66.666667%);stroke-opacity:1;stroke-miterlimit:3.25;" d="M 246.492188 123.074219 L 124.152344 18.585938 "/>
<path style="fill:none;stroke-width:0.2;stroke-linecap:square;stroke-linejoin:miter;stroke:rgb(66.666667%,66.666667%,66.666667%);stroke-opacity:1;stroke-miterlimit:3.25;" d="M 242.941406 120.269531 L 107.296875 21.71875 "/>
<path style="fill:none;stroke-width:0.2;stroke-linecap:square;stroke-linejoin:miter;stroke:rgb(66.666667%,66.666667%,66.666667%);stroke-opacity:1;stroke-miterlimit:3.25;" d="M 239.621094 118.046875 L 90.882812 26.902344 "/>
<path style="fill:none;stroke-width:0.2;stroke-linecap:square;stroke-linejoin:miter;stroke:rgb(66.666667%,66.666667%,66.666667%);stroke-opacity:1;stroke-miterlimit:3.25;" d="M 236.605469 116.355469 L 75.132812 34.082031 "/>
<path style="fill:none;stroke-width:0.2;stroke-linecap:square;stroke-linejoin:miter;stroke:rgb(66.666667%,66.666667%,66.666667%);stroke-opacity:1;stroke-miterlimit:3.25;" d="M 233.949219 115.125 L 60.257812 43.179688 "/>
<path style="fill:none;stroke-width:0.2;stroke-linecap:square;stroke-linejoin:miter;stroke:rgb(66.666667%,66.666667%,66.666667%);stroke-opacity:1;stroke-miterlimit:3.25;" d="M 231.703125 114.292969 L 46.453125 54.101562 "/>
<path style="fill:none;stroke-width:0.2;stroke-linecap:square;stroke-linejoin:miter;stroke:rgb(66.666667%,66.666667%,66.666667%);stroke-opacity:1;stroke-miterlimit:3.25;" d="M 229.910156 113.785156 L 33.917969 66.730469 "/>
<path style="fill:none;stroke-width:0.2;stroke-linecap:square;stroke-linejoin:miter;stroke:rgb(66.666667%,66.666667%,66.666667%);stroke-opacity:1;stroke-miterlimit:3.25;" d="M 228.605469 113.519531 L 22.832031 80.929688 "/>
<path style="fill:none;stroke-width:0.2;stroke-linecap:square;stroke-linejoin:miter;stroke:rgb(66.666667%,66.666667%,66.666667%);stroke-opacity:1;stroke-miterlimit:3.25;" d="M 227.8125 113.421875 L 13.355469 96.546875 "/>
<path style="fill:none;stroke-width:0.2;stroke-linecap:square;stroke-linejoin:miter;stroke:rgb(66.666667%,66.666667%,66.666667%);stroke-opacity:1;stroke-miterlimit:3.25;" d="M 227.546875 113.410156 L 5.648438 113.410156 "/>
<path style="fill:none;stroke-width:0.2;stroke-linecap:square;stroke-linejoin:miter;stroke:rgb(66.666667%,66.666667%,66.666667%);stroke-opacity:1;stroke-miterlimit:3.25;" d="M 54.917969 113.410156 L 5.648438 113.410156 "/>
<path style="fill:none;stroke-width:0.2;stroke-linecap:square;stroke-linejoin:miter;stroke:rgb(66.666667%,66.666667%,66.666667%);stroke-opacity:1;stroke-miterlimit:3.25;" d="M 54.652344 113.421875 L 5.648438 117.28125 "/>
<path style="fill:none;stroke-width:0.2;stroke-linecap:square;stroke-linejoin:miter;stroke:rgb(66.666667%,66.666667%,66.666667%);stroke-opacity:1;stroke-miterlimit:3.25;" d="M 53.859375 113.519531 L 5.648438 121.15625 "/>
<path style="fill:none;stroke-width:0.2;stroke-linecap:square;stroke-linejoin:miter;stroke:rgb(66.666667%,66.666667%,66.666667%);stroke-opacity:1;stroke-miterlimit:3.25;" d="M 52.554688 113.785156 L 5.648438 125.042969 "/>
<path style="fill:none;stroke-width:0.2;stroke-linecap:square;stroke-linejoin:miter;stroke:rgb(66.666667%,66.666667%,66.666667%);stroke-opacity:1;stroke-miterlimit:3.25;" d="M 50.761719 114.292969 L 5.648438 128.949219 "/>
<path style="fill:none;stroke-width:0.2;stroke-linecap:square;stroke-linejoin:miter;stroke:rgb(66.666667%,66.666667%,66.666667%);stroke-opacity:1;stroke-miterlimit:3.25;" d="M 48.515625 115.125 L 5.648438 132.882812 "/>
<path style="fill:none;stroke-width:0.2;stroke-linecap:square;stroke-linejoin:miter;stroke:rgb(66.666667%,66.666667%,66.666667%);stroke-opacity:1;stroke-miterlimit:3.25;" d="M 45.859375 116.355469 L 5.648438 136.84375 "/>
<path style="fill:none;stroke-width:0.2;stroke-linecap:square;stroke-linejoin:miter;stroke:rgb(66.666667%,66.666667%,66.666667%);stroke-opacity:1;stroke-miterlimit:3.25;" d="M 42.84375 118.046875 L 5.648438 140.839844 "/>
<path style="fill:none;stroke-width:0.2;stroke-linecap:square;stroke-linejoin:miter;stroke:rgb(66.666667%,66.666667%,66.666667%);stroke-opacity:1;stroke-miterlimit:3.25;" d="M 39.523438 120.269531 L 5.648438 144.878906 "/>
<path style="fill:none;stroke-width:0.2;stroke-linecap:square;stroke-linejoin:miter;stroke:rgb(66.666667%,66.666667%,66.666667%);stroke-opacity:1;stroke-miterlimit:3.25;" d="M 35.972656 123.074219 L 5.648438 148.972656 "/>
<path style="fill:none;stroke-width:0.2;stroke-linecap:square;stroke-linejoin:miter;stroke:rgb(66.666667%,66.666667%,66.666667%);stroke-opacity:1;stroke-miterlimit:3.25;" d="M 32.261719 126.507812 L 5.648438 153.121094 "/>
<path style="fill:none;stroke-width:0.2;stroke-linecap:square;stroke-linejoin:miter;stroke:rgb(66.666667%,66.666667%,66.666667%);stroke-opacity:1;stroke-miterlimit:3.25;" d="M 28.472656 130.613281 L 5.648438 157.335938 "/>
<path style="fill:none;stroke-width:0.2;stroke-linecap:square;stroke-linejoin:miter;stroke:rgb(66.666667%,66.666667%,66.666667%);stroke-opacity:1;stroke-miterlimit:3.25;" d="M 24.683594 135.421875 L 5.648438 161.621094 "/>
<path style="fill:none;stroke-width:0.2;stroke-linecap:square;stroke-linejoin:miter;stroke:rgb(66.666667%,66.666667%,66.666667%);stroke-opacity:1;stroke-miterlimit:3.25;" d="M 20.992188 140.957031 L 5.648438 165.992188 "/>
<path style="fill:none;stroke-width:0.2;stroke-linecap:square;stroke-linejoin:miter;stroke:rgb(66.666667%,66.666667%,66.666667%);stroke-opacity:1;stroke-miterlimit:3.25;" d="M 17.484375 147.230469 L 5.648438 170.453125 "/>
<path style="fill:none;stroke-width:0.2;stroke-linecap:square;stroke-linejoin:miter;stroke:rgb(66.666667%,66.666667%,66.666667%);stroke-opacity:1;stroke-miterlimit:3.25;" d="M 14.253906 154.238281 L 5.648438 175.015625 "/>
<path style="fill:none;stroke-width:0.2;stroke-linecap:square;stroke-linejoin:miter;stroke:rgb(66.666667%,66.666667%,66.666667%);stroke-opacity:1;stroke-miterlimit:3.25;" d="M 11.402344 161.980469 L 5.648438 179.6875 "/>
<path style="fill:none;stroke-width:0.2;stroke-linecap:square;stroke-linejoin:miter;stroke:rgb(66.666667%,66.666667%,66.666667%);stroke-opacity:1;stroke-miterlimit:3.25;" d="M 9.019531 170.4375 L 5.648438 184.480469 "/>
<path style="fill:none;stroke-width:0.2;stroke-linecap:square;stroke-linejoin:miter;stroke:rgb(66.666667%,66.666667%,66.666667%);stroke-opacity:1;stroke-miterlimit:3.25;" d="M 7.207031 179.574219 L 5.648438 189.410156 "/>
<path style="fill:none;stroke-width:0.2;stroke-linecap:square;stroke-linejoin:miter;stroke:rgb(66.666667%,66.666667%,66.666667%);stroke-opacity:1;stroke-miterlimit:3.25;" d="M 6.054688 189.351562 L 5.648438 194.484375 "/>
<path style="fill-rule:nonzero;fill:rgb(100%,100%,85.000381%);fill-opacity:1;stroke-width:0.2;stroke-linecap:square;stroke-linejoin:miter;stroke:rgb(0%,0%,0%);stroke-opacity:1;stroke-miterlimit:3.25;" d="M 276.816406 199.722656 L 276.796875 197.605469 L 276.75 195.507812 L 276.667969 193.433594 L 276.554688 191.382812 L 276.410156 189.351562 L 276.238281 187.347656 L 276.035156 185.367188 L 275.804688 183.410156 L 275.542969 181.480469 L 275.257812 179.574219 L 274.945312 177.691406 L 274.605469 175.839844 L 274.242188 174.011719 L 273.855469 172.210938 L 273.445312 170.4375 L 273.007812 168.6875 L 272.554688 166.96875 L 272.078125 165.28125 L 271.578125 163.617188 L 271.0625 161.980469 L 270.527344 160.375 L 269.972656 158.796875 L 269.402344 157.25 L 268.8125 155.730469 L 268.210938 154.238281 L 267.589844 152.777344 L 266.957031 151.347656 L 266.3125 149.945312 L 265.652344 148.574219 L 264.980469 147.230469 L 264.300781 145.914062 L 263.605469 144.632812 L 262.90625 143.378906 L 262.195312 142.152344 L 261.472656 140.957031 L 260.746094 139.792969 L 260.011719 138.65625 L 259.273438 137.550781 L 258.53125 136.472656 L 257.78125 135.421875 L 257.027344 134.402344 L 256.273438 133.414062 L 255.511719 132.453125 L 254.753906 131.519531 L 253.992188 130.613281 L 253.234375 129.738281 L 252.472656 128.890625 L 251.714844 128.066406 L 250.957031 127.273438 L 250.203125 126.507812 L 249.449219 125.769531 L 248.703125 125.054688 L 247.960938 124.367188 L 247.222656 123.707031 L 246.492188 123.074219 L 245.765625 122.460938 L 245.046875 121.878906 L 244.335938 121.316406 L 243.632812 120.78125 L 242.941406 120.269531 L 242.253906 119.78125 L 241.582031 119.3125 L 240.917969 118.871094 L 240.265625 118.449219 L 239.621094 118.046875 L 238.992188 117.667969 L 238.375 117.308594 L 237.773438 116.972656 L 237.183594 116.652344 L 236.605469 116.355469 L 236.042969 116.074219 L 235.496094 115.808594 L 234.964844 115.566406 L 234.449219 115.335938 L 233.949219 115.125 L 233.464844 114.929688 L 232.996094 114.75 L 232.546875 114.582031 L 232.117188 114.429688 L 231.703125 114.292969 L 231.304688 114.167969 L 230.929688 114.054688 L 230.570312 113.953125 L 230.230469 113.863281 L 229.910156 113.785156 L 229.609375 113.714844 L 229.328125 113.652344 L 229.066406 113.601562 L 228.824219 113.558594 L 228.605469 113.519531 L 228.40625 113.492188 L 228.226562 113.464844 L 228.066406 113.449219 L 227.929688 113.433594 L 227.8125 113.421875 L 227.71875 113.417969 L 227.644531 113.414062 L 227.589844 113.410156 L 54.875 113.410156 L 54.820312 113.414062 L 54.746094 113.417969 L 54.652344 113.421875 L 54.535156 113.433594 L 54.398438 113.449219 L 54.238281 113.464844 L 54.058594 113.492188 L 53.859375 113.519531 L 53.636719 113.558594 L 53.398438 113.601562 L 53.136719 113.652344 L 52.855469 113.714844 L 52.554688 113.785156 L 52.234375 113.863281 L 51.894531 113.953125 L 51.535156 114.054688 L 51.160156 114.167969 L 50.761719 114.292969 L 50.347656 114.429688 L 49.917969 114.582031 L 49.46875 114.75 L 49 114.929688 L 48.515625 115.125 L 48.015625 115.335938 L 47.5 115.566406 L 46.96875 115.808594 L 46.421875 116.074219 L 45.859375 116.355469 L 45.28125 116.652344 L 44.691406 116.972656 L 44.089844 117.308594 L 43.472656 117.667969 L 42.84375 118.046875 L 42.199219 118.449219 L 41.546875 118.871094 L 40.882812 119.3125 L 40.210938 119.78125 L 39.523438 120.269531 L 38.832031 120.78125 L 38.128906 121.316406 L 37.417969 121.878906 L 36.699219 122.460938 L 35.972656 123.074219 L 35.242188 123.707031 L 34.503906 124.367188 L 33.761719 125.054688 L 33.015625 125.769531 L 32.261719 126.507812 L 31.507812 127.273438 L 30.75 128.066406 L 29.992188 128.890625 L 29.230469 129.738281 L 28.472656 130.613281 L 27.710938 131.519531 L 26.949219 132.453125 L 26.191406 133.414062 L 25.4375 134.402344 L 24.683594 135.421875 L 23.933594 136.472656 L 23.191406 137.550781 L 22.449219 138.65625 L 21.71875 139.792969 L 20.992188 140.957031 L 20.269531 142.152344 L 19.558594 143.378906 L 18.859375 144.632812 L 18.164062 145.914062 L 17.484375 147.230469 L 16.8125 148.574219 L 16.152344 149.945312 L 15.503906 151.347656 L 14.871094 152.777344 L 14.253906 154.238281 L 13.652344 155.730469 L 13.0625 157.25 L 12.492188 158.796875 L 11.9375 160.375 L 11.402344 161.980469 L 10.886719 163.617188 L 10.386719 165.28125 L 9.910156 166.96875 L 9.453125 168.6875 L 9.019531 170.4375 L 8.609375 172.210938 L 8.222656 174.011719 L 7.859375 175.839844 L 7.519531 177.691406 L 7.207031 179.574219 L 6.921875 181.480469 L 6.660156 183.410156 L 6.429688 185.367188 L 6.226562 187.347656 L 6.054688 189.351562 L 5.910156 191.382812 L 5.796875 193.433594 L 5.714844 195.507812 L 5.664062 197.605469 L 5.648438 199.722656 L 91.964844 199.722656 L 91.992188 197.605469 L 92.074219 195.507812 L 92.207031 193.4375 L 92.394531 191.386719 L 92.632812 189.367188 L 92.925781 187.371094 L 93.265625 185.40625 L 93.65625 183.46875 L 94.09375 181.558594 L 94.582031 179.683594 L 95.113281 177.839844 L 95.695312 176.03125 L 96.316406 174.253906 L 96.988281 172.515625 L 97.699219 170.808594 L 98.453125 169.144531 L 99.25 167.515625 L 100.082031 165.925781 L 100.957031 164.375 L 101.871094 162.863281 L 102.820312 161.398438 L 103.808594 159.972656 L 104.828125 158.589844 L 105.882812 157.25 L 106.96875 155.957031 L 108.089844 154.707031 L 109.238281 153.503906 L 110.417969 152.347656 L 111.621094 151.234375 L 112.855469 150.171875 L 114.113281 149.160156 L 115.398438 148.195312 L 116.703125 147.277344 L 118.03125 146.410156 L 119.378906 145.597656 L 120.75 144.832031 L 122.136719 144.117188 L 123.539062 143.453125 L 124.957031 142.839844 L 126.390625 142.28125 L 127.839844 141.777344 L 129.296875 141.320312 L 130.765625 140.921875 L 132.242188 140.570312 L 133.730469 140.277344 L 135.222656 140.035156 L 136.71875 139.847656 L 138.222656 139.714844 L 139.726562 139.632812 L 141.230469 139.605469 L 142.738281 139.632812 L 144.242188 139.714844 L 145.746094 139.847656 L 147.242188 140.035156 L 148.734375 140.277344 L 150.21875 140.570312 L 151.699219 140.921875 L 153.167969 141.320312 L 154.625 141.777344 L 156.074219 142.28125 L 157.507812 142.839844 L 158.925781 143.453125 L 160.328125 144.117188 L 161.714844 144.832031 L 163.082031 145.597656 L 164.433594 146.410156 L 165.761719 147.277344 L 167.066406 148.195312 L 168.351562 149.160156 L 169.609375 150.171875 L 170.84375 151.234375 L 172.046875 152.347656 L 173.226562 153.503906 L 174.375 154.707031 L 175.496094 155.957031 L 176.582031 157.25 L 177.636719 158.589844 L 178.65625 159.972656 L 179.644531 161.398438 L 180.59375 162.863281 L 181.503906 164.375 L 182.378906 165.925781 L 183.214844 167.515625 L 184.011719 169.144531 L 184.765625 170.808594 L 185.476562 172.515625 L 186.148438 174.253906 L 186.769531 176.03125 L 187.351562 177.839844 L 187.882812 179.683594 L 188.371094 181.558594 L 188.808594 183.46875 L 189.199219 185.40625 L 189.539062 187.371094 L 189.832031 189.367188 L 190.070312 191.386719 L 190.257812 193.4375 L 190.390625 195.507812 L 190.472656 197.605469 L 190.5 199.722656 Z M 276.816406 199.722656 "/>
<path style=" stroke:none;fill-rule:evenodd;fill:rgb(0%,0%,0%);fill-opacity:1;" d="M 215.75 159.929688 C 215.75 159.847656 215.6875 159.816406 215.605469 159.816406 C 215.464844 159.816406 215.207031 159.914062 214.96875 160.039062 C 214.90625 160.085938 214.84375 160.085938 214.84375 160.085938 C 214.699219 160.085938 214.441406 159.992188 214.363281 159.734375 C 213.550781 157.136719 213.550781 151.175781 213.550781 150.472656 L 213.566406 149.023438 C 213.566406 149.023438 213.5 148.972656 213.40625 148.972656 C 213.117188 148.972656 212.71875 149.230469 212.65625 149.261719 C 212.273438 149.515625 212.257812 149.59375 212.210938 149.851562 L 212.113281 149.882812 C 212.082031 149.914062 212.082031 149.945312 211.96875 150.136719 C 211.554688 151.03125 210.648438 152.925781 209.003906 155.511719 C 208.144531 156.867188 206.277344 159.816406 205.386719 159.816406 C 205.082031 159.816406 204.347656 159.609375 204.140625 158.859375 C 204.109375 158.75 204.078125 158.75 204.03125 158.75 C 203.792969 158.75 203.457031 159.511719 203.457031 159.929688 C 203.457031 160.660156 204.222656 161.28125 204.90625 161.28125 C 205.785156 161.28125 206.820312 159.800781 208.175781 157.855469 L 212.511719 157.855469 C 212.59375 158.859375 212.785156 159.59375 212.863281 159.894531 C 213.039062 160.628906 213.117188 160.964844 213.820312 160.964844 C 214.507812 160.964844 215.75 160.261719 215.75 159.929688 Z M 212.417969 156.980469 L 209.484375 156.980469 C 209.261719 156.980469 209.003906 156.980469 208.605469 157.234375 C 210.425781 154.285156 210.96875 153.421875 212.179688 150.9375 L 212.195312 150.9375 L 212.195312 151.890625 C 212.195312 152.707031 212.226562 153.886719 212.273438 154.683594 Z M 212.417969 156.980469 "/>
<path style=" stroke:none;fill-rule:evenodd;fill:rgb(0%,0%,0%);fill-opacity:1;" d="M 220.292969 162.886719 L 220.292969 162.5625 L 219.949219 162.5625 C 218.964844 162.5625 218.933594 162.429688 218.933594 162.027344 L 218.933594 155.746094 C 218.933594 155.488281 218.933594 155.476562 218.710938 155.476562 C 218.445312 155.777344 217.886719 156.191406 216.738281 156.191406 L 216.738281 156.511719 C 216.996094 156.511719 217.554688 156.511719 218.164062 156.222656 L 218.164062 162.027344 C 218.164062 162.429688 218.132812 162.5625 217.152344 162.5625 L 216.804688 162.5625 L 216.804688 162.886719 C 217.105469 162.863281 218.1875 162.863281 218.554688 162.863281 C 218.921875 162.863281 219.992188 162.863281 220.292969 162.886719 Z M 220.292969 162.886719 "/>
<path style=" stroke:none;fill-rule:evenodd;fill:rgb(0%,0%,0%);fill-opacity:1;" d="M 226.601562 164.375 C 226.601562 164.375 226.601562 164.328125 226.554688 164.28125 C 225.820312 163.53125 223.863281 161.492188 223.863281 156.515625 C 223.863281 151.542969 225.789062 149.515625 226.570312 148.71875 C 226.570312 148.71875 226.601562 148.671875 226.601562 148.625 C 226.601562 148.574219 226.554688 148.542969 226.492188 148.542969 C 226.316406 148.542969 224.960938 149.722656 224.179688 151.476562 C 223.382812 153.246094 223.160156 154.96875 223.160156 156.5 C 223.160156 157.648438 223.269531 159.59375 224.226562 161.648438 C 224.992188 163.308594 226.300781 164.472656 226.492188 164.472656 C 226.570312 164.472656 226.601562 164.441406 226.601562 164.375 Z M 226.601562 164.375 "/>
<path style=" stroke:none;fill-rule:evenodd;fill:rgb(0%,0%,0%);fill-opacity:1;" d="M 238.851562 160.183594 C 238.851562 160.023438 238.707031 160.023438 238.550781 160.023438 C 237.957031 160.007812 237.753906 159.878906 237.511719 159.304688 L 235.296875 154.042969 C 235.28125 153.996094 235.214844 153.871094 235.214844 153.820312 C 235.214844 153.820312 235.230469 153.789062 235.503906 153.582031 L 237.050781 152.371094 C 239.1875 150.710938 239.886719 150.15625 240.988281 150.058594 C 241.101562 150.042969 241.257812 150.042969 241.257812 149.773438 C 241.257812 149.675781 241.210938 149.59375 241.085938 149.59375 C 240.90625 149.59375 240.71875 149.628906 240.542969 149.628906 L 239.9375 149.628906 C 239.441406 149.628906 238.917969 149.59375 238.4375 149.59375 C 238.324219 149.59375 238.136719 149.59375 238.136719 149.882812 C 238.136719 150.042969 238.246094 150.058594 238.339844 150.058594 C 238.519531 150.074219 238.722656 150.136719 238.722656 150.359375 C 238.722656 150.679688 238.246094 151.0625 238.117188 151.160156 L 231.867188 156.019531 L 233.191406 150.757812 C 233.335938 150.21875 233.367188 150.058594 234.5 150.058594 C 234.800781 150.058594 234.945312 150.058594 234.945312 149.753906 C 234.945312 149.59375 234.785156 149.59375 234.707031 149.59375 C 234.417969 149.59375 234.082031 149.628906 233.78125 149.628906 L 231.898438 149.628906 C 231.613281 149.628906 231.261719 149.59375 230.976562 149.59375 C 230.847656 149.59375 230.671875 149.59375 230.671875 149.898438 C 230.671875 150.058594 230.816406 150.058594 231.054688 150.058594 C 232.027344 150.058594 232.027344 150.1875 232.027344 150.359375 C 232.027344 150.359375 232.027344 150.488281 231.964844 150.726562 L 229.8125 159.304688 C 229.667969 159.863281 229.636719 160.023438 228.519531 160.023438 C 228.21875 160.023438 228.054688 160.023438 228.054688 160.3125 C 228.054688 160.484375 228.199219 160.484375 228.296875 160.484375 C 228.597656 160.484375 228.917969 160.453125 229.21875 160.453125 L 231.085938 160.453125 C 231.390625 160.453125 231.726562 160.484375 232.027344 160.484375 C 232.15625 160.484375 232.332031 160.484375 232.332031 160.183594 C 232.332031 160.023438 232.1875 160.023438 231.949219 160.023438 C 230.976562 160.023438 230.976562 159.894531 230.976562 159.734375 C 230.976562 159.625 231.070312 159.226562 231.132812 158.972656 L 231.757812 156.5 L 234.179688 154.601562 L 236.140625 159.226562 C 236.1875 159.320312 236.222656 159.417969 236.222656 159.53125 C 236.222656 160.007812 235.582031 160.023438 235.441406 160.023438 C 235.296875 160.023438 235.136719 160.023438 235.136719 160.328125 C 235.136719 160.484375 235.3125 160.484375 235.359375 160.484375 C 235.917969 160.484375 236.507812 160.453125 237.066406 160.453125 L 237.832031 160.453125 C 238.070312 160.453125 238.339844 160.484375 238.582031 160.484375 C 238.675781 160.484375 238.851562 160.484375 238.851562 160.183594 Z M 238.851562 160.183594 "/>
<path style=" stroke:none;fill-rule:evenodd;fill:rgb(0%,0%,0%);fill-opacity:1;" d="M 246.015625 156.515625 C 246.015625 155.367188 245.90625 153.421875 244.945312 151.367188 C 244.179688 149.707031 242.875 148.542969 242.683594 148.542969 C 242.632812 148.542969 242.570312 148.558594 242.570312 148.640625 C 242.570312 148.640625 242.585938 148.6875 242.601562 148.71875 C 243.367188 149.515625 245.3125 151.542969 245.3125 156.5 C 245.3125 161.476562 243.382812 163.5 242.601562 164.296875 C 242.585938 164.328125 242.570312 164.375 242.570312 164.375 C 242.570312 164.457031 242.632812 164.472656 242.683594 164.472656 C 242.859375 164.472656 244.214844 163.292969 244.996094 161.539062 C 245.792969 159.769531 246.015625 158.046875 246.015625 156.515625 Z M 246.015625 156.515625 "/>
<path style="fill:none;stroke-width:1;stroke-linecap:square;stroke-linejoin:miter;stroke:rgb(0%,0%,0%);stroke-opacity:1;stroke-miterlimit:3.25;" d="M 276.816406 199.722656 L 276.796875 197.605469 L 276.75 195.507812 L 276.667969 193.433594 L 276.554688 191.382812 L 276.410156 189.351562 L 276.238281 187.347656 L 276.035156 185.367188 L 275.804688 183.410156 L 275.542969 181.480469 L 275.257812 179.574219 L 274.945312 177.691406 L 274.605469 175.839844 L 274.242188 174.011719 L 273.855469 172.210938 L 273.445312 170.4375 L 273.007812 168.6875 L 272.554688 166.96875 L 272.078125 165.28125 L 271.578125 163.617188 L 271.0625 161.980469 L 270.527344 160.375 L 269.972656 158.796875 L 269.402344 157.25 L 268.8125 155.730469 L 268.210938 154.238281 L 267.589844 152.777344 L 266.957031 151.347656 L 266.3125 149.945312 L 265.652344 148.574219 L 264.980469 147.230469 L 264.300781 145.914062 L 263.605469 144.632812 L 262.90625 143.378906 L 262.195312 142.152344 L 261.472656 140.957031 L 260.746094 139.792969 L 260.011719 138.65625 L 259.273438 137.550781 L 258.53125 136.472656 L 257.78125 135.421875 L 257.027344 134.402344 L 256.273438 133.414062 L 255.511719 132.453125 L 254.753906 131.519531 L 253.992188 130.613281 L 253.234375 129.738281 L 252.472656 128.890625 L 251.714844 128.066406 L 250.957031 127.273438 L 250.203125 126.507812 L 249.449219 125.769531 L 248.703125 125.054688 L 247.960938 124.367188 L 247.222656 123.707031 L 246.492188 123.074219 L 245.765625 122.460938 L 245.046875 121.878906 L 244.335938 121.316406 L 243.632812 120.78125 L 242.941406 120.269531 L 242.253906 119.78125 L 241.582031 119.3125 L 240.917969 118.871094 L 240.265625 118.449219 L 239.621094 118.046875 L 238.992188 117.667969 L 238.375 117.308594 L 237.773438 116.972656 L 237.183594 116.652344 L 236.605469 116.355469 L 236.042969 116.074219 L 235.496094 115.808594 L 234.964844 115.566406 L 234.449219 115.335938 L 233.949219 115.125 L 233.464844 114.929688 L 232.996094 114.75 L 232.546875 114.582031 L 232.117188 114.429688 L 231.703125 114.292969 L 231.304688 114.167969 L 230.929688 114.054688 L 230.570312 113.953125 L 230.230469 113.863281 L 229.910156 113.785156 L 229.609375 113.714844 L 229.328125 113.652344 L 229.066406 113.601562 L 228.824219 113.558594 L 228.605469 113.519531 L 228.40625 113.492188 L 228.226562 113.464844 L 228.066406 113.449219 L 227.929688 113.433594 L 227.8125 113.421875 L 227.71875 113.417969 L 227.644531 113.414062 L 227.589844 113.410156 L 54.875 113.410156 L 54.820312 113.414062 L 54.746094 113.417969 L 54.652344 113.421875 L 54.535156 113.433594 L 54.398438 113.449219 L 54.238281 113.464844 L 54.058594 113.492188 L 53.859375 113.519531 L 53.636719 113.558594 L 53.398438 113.601562 L 53.136719 113.652344 L 52.855469 113.714844 L 52.554688 113.785156 L 52.234375 113.863281 L 51.894531 113.953125 L 51.535156 114.054688 L 51.160156 114.167969 L 50.761719 114.292969 L 50.347656 114.429688 L 49.917969 114.582031 L 49.46875 114.75 L 49 114.929688 L 48.515625 115.125 L 48.015625 115.335938 L 47.5 115.566406 L 46.96875 115.808594 L 46.421875 116.074219 L 45.859375 116.355469 L 45.28125 116.652344 L 44.691406 116.972656 L 44.089844 117.308594 L 43.472656 117.667969 L 42.84375 118.046875 L 42.199219 118.449219 L 41.546875 118.871094 L 40.882812 119.3125 L 40.210938 119.78125 L 39.523438 120.269531 L 38.832031 120.78125 L 38.128906 121.316406 L 37.417969 121.878906 L 36.699219 122.460938 L 35.972656 123.074219 L 35.242188 123.707031 L 34.503906 124.367188 L 33.761719 125.054688 L 33.015625 125.769531 L 32.261719 126.507812 L 31.507812 127.273438 L 30.75 128.066406 L 29.992188 128.890625 L 29.230469 129.738281 L 28.472656 130.613281 L 27.710938 131.519531 L 26.949219 132.453125 L 26.191406 133.414062 L 25.4375 134.402344 L 24.683594 135.421875 L 23.933594 136.472656 L 23.191406 137.550781 L 22.449219 138.65625 L 21.71875 139.792969 L 20.992188 140.957031 L 20.269531 142.152344 L 19.558594 143.378906 L 18.859375 144.632812 L 18.164062 145.914062 L 17.484375 147.230469 L 16.8125 148.574219 L 16.152344 149.945312 L 15.503906 151.347656 L 14.871094 152.777344 L 14.253906 154.238281 L 13.652344 155.730469 L 13.0625 157.25 L 12.492188 158.796875 L 11.9375 160.375 L 11.402344 161.980469 L 10.886719 163.617188 L 10.386719 165.28125 L 9.910156 166.96875 L 9.453125 168.6875 L 9.019531 170.4375 L 8.609375 172.210938 L 8.222656 174.011719 L 7.859375 175.839844 L 7.519531 177.691406 L 7.207031 179.574219 L 6.921875 181.480469 L 6.660156 183.410156 L 6.429688 185.367188 L 6.226562 187.347656 L 6.054688 189.351562 L 5.910156 191.382812 L 5.796875 193.433594 L 5.714844 195.507812 L 5.664062 197.605469 L 5.648438 199.722656 "/>
<path style="fill:none;stroke-width:1;stroke-linecap:square;stroke-linejoin:miter;stroke:rgb(0%,0%,0%);stroke-opacity:1;stroke-miterlimit:3.25;" d="M 276.816406 113.410156 L 275.421875 109.945312 L 273.953125 106.527344 L 272.410156 103.152344 L 270.792969 99.824219 L 269.105469 96.546875 L 267.347656 93.316406 L 265.523438 90.140625 L 263.625 87.015625 L 261.664062 83.945312 L 259.632812 80.929688 L 257.539062 77.972656 L 255.382812 75.070312 L 253.164062 72.230469 L 250.886719 69.449219 L 248.546875 66.730469 L 246.148438 64.074219 L 243.695312 61.484375 L 241.1875 58.957031 L 238.625 56.496094 L 236.011719 54.101562 L 233.34375 51.777344 L 230.632812 49.523438 L 227.867188 47.335938 L 225.0625 45.222656 L 222.207031 43.179688 L 219.3125 41.210938 L 216.375 39.316406 L 213.398438 37.496094 L 210.382812 35.75 L 207.328125 34.082031 L 204.242188 32.488281 L 201.121094 30.972656 L 197.972656 29.539062 L 194.789062 28.179688 L 191.578125 26.902344 L 188.34375 25.703125 L 185.082031 24.585938 L 181.796875 23.546875 L 178.492188 22.59375 L 175.167969 21.71875 L 171.824219 20.925781 L 168.464844 20.214844 L 165.09375 19.589844 L 161.707031 19.046875 L 158.3125 18.585938 L 154.90625 18.207031 L 151.496094 17.914062 L 148.078125 17.707031 L 144.65625 17.578125 L 141.230469 17.539062 L 137.808594 17.578125 L 134.386719 17.707031 L 130.96875 17.914062 L 127.558594 18.207031 L 124.152344 18.585938 L 120.757812 19.046875 L 117.371094 19.589844 L 113.996094 20.214844 L 110.640625 20.925781 L 107.296875 21.71875 L 103.972656 22.59375 L 100.667969 23.546875 L 97.382812 24.585938 L 94.121094 25.703125 L 90.882812 26.902344 L 87.675781 28.179688 L 84.492188 29.539062 L 81.339844 30.972656 L 78.222656 32.488281 L 75.132812 34.082031 L 72.082031 35.75 L 69.066406 37.496094 L 66.089844 39.316406 L 63.152344 41.210938 L 60.257812 43.179688 L 57.402344 45.222656 L 54.597656 47.335938 L 51.832031 49.523438 L 49.121094 51.777344 L 46.453125 54.101562 L 43.839844 56.496094 L 41.277344 58.957031 L 38.769531 61.484375 L 36.316406 64.074219 L 33.917969 66.730469 L 31.578125 69.449219 L 29.300781 72.230469 L 27.082031 75.070312 L 24.925781 77.972656 L 22.832031 80.929688 L 20.800781 83.945312 L 18.839844 87.015625 L 16.941406 90.140625 L 15.117188 93.316406 L 13.355469 96.546875 L 11.671875 99.824219 L 10.054688 103.152344 L 8.511719 106.527344 L 7.042969 109.945312 L 5.648438 113.410156 "/>
<path style="fill:none;stroke-width:1;stroke-linecap:square;stroke-linejoin:miter;stroke:rgb(0%,0%,0%);stroke-opacity:1;stroke-miterlimit:3.25;" d="M 276.816406 199.722656 L 276.816406 113.410156 "/>
<path style="fill:none;stroke-width:1;stroke-linecap:square;stroke-linejoin:miter;stroke:rgb(0%,0%,0%);stroke-opacity:1;stroke-miterlimit:3.25;" d="M 5.648438 199.722656 L 5.648438 113.410156 "/>
<path style="fill:none;stroke-width:1;stroke-linecap:square;stroke-linejoin:miter;stroke:rgb(0%,0%,0%);stroke-opacity:1;stroke-miterlimit:3.25;" d="M 190.5 199.722656 L 190.472656 197.605469 L 190.390625 195.507812 L 190.257812 193.4375 L 190.070312 191.386719 L 189.832031 189.367188 L 189.539062 187.371094 L 189.199219 185.40625 L 188.808594 183.46875 L 188.371094 181.558594 L 187.882812 179.683594 L 187.351562 177.839844 L 186.769531 176.03125 L 186.148438 174.253906 L 185.476562 172.515625 L 184.765625 170.808594 L 184.011719 169.144531 L 183.214844 167.515625 L 182.378906 165.925781 L 181.503906 164.375 L 180.59375 162.863281 L 179.644531 161.398438 L 178.65625 159.972656 L 177.636719 158.589844 L 176.582031 157.25 L 175.496094 155.957031 L 174.375 154.707031 L 173.226562 153.503906 L 172.046875 152.347656 L 170.84375 151.234375 L 169.609375 150.171875 L 168.351562 149.160156 L 167.066406 148.195312 L 165.761719 147.277344 L 164.433594 146.410156 L 163.082031 145.597656 L 161.714844 144.832031 L 160.328125 144.117188 L 158.925781 143.453125 L 157.507812 142.839844 L 156.074219 142.28125 L 154.625 141.777344 L 153.167969 141.320312 L 151.699219 140.921875 L 150.21875 140.570312 L 148.734375 140.277344 L 147.242188 140.035156 L 145.746094 139.847656 L 144.242188 139.714844 L 142.738281 139.632812 L 141.230469 139.605469 L 139.726562 139.632812 L 138.222656 139.714844 L 136.71875 139.847656 L 135.222656 140.035156 L 133.730469 140.277344 L 132.242188 140.570312 L 130.765625 140.921875 L 129.296875 141.320312 L 127.839844 141.777344 L 126.390625 142.28125 L 124.957031 142.839844 L 123.539062 143.453125 L 122.136719 144.117188 L 120.75 144.832031 L 119.378906 145.597656 L 118.03125 146.410156 L 116.703125 147.277344 L 115.398438 148.195312 L 114.113281 149.160156 L 112.855469 150.171875 L 111.621094 151.234375 L 110.417969 152.347656 L 109.238281 153.503906 L 108.089844 154.707031 L 106.96875 155.957031 L 105.882812 157.25 L 104.828125 158.589844 L 103.808594 159.972656 L 102.820312 161.398438 L 101.871094 162.863281 L 100.957031 164.375 L 100.082031 165.925781 L 99.25 167.515625 L 98.453125 169.144531 L 97.699219 170.808594 L 96.988281 172.515625 L 96.316406 174.253906 L 95.695312 176.03125 L 95.113281 177.839844 L 94.582031 179.683594 L 94.09375 181.558594 L 93.65625 183.46875 L 93.265625 185.40625 L 92.925781 187.371094 L 92.632812 189.367188 L 92.394531 191.386719 L 92.207031 193.4375 L 92.074219 195.507812 L 91.992188 197.605469 L 91.964844 199.722656 "/>
<path style=" stroke:none;fill-rule:evenodd;fill:rgb(0%,0%,0%);fill-opacity:1;" d="M 83.292969 8.023438 L 83.292969 7.339844 C 82.753906 7.371094 82.6875 7.371094 82.035156 7.371094 L 80.664062 7.339844 L 80.664062 8.023438 C 80.664062 8.023438 81.429688 8.023438 81.429688 8.234375 C 81.429688 8.28125 81.378906 8.375 81.363281 8.425781 L 79.5 12.441406 L 77.457031 8.023438 L 78.335938 8.023438 L 78.335938 7.339844 C 77.953125 7.371094 76.867188 7.371094 76.421875 7.371094 C 75.957031 7.371094 75.019531 7.371094 74.605469 7.339844 L 74.605469 8.023438 L 75.625 8.023438 L 78.574219 14.421875 C 78.496094 14.609375 78.269531 15.074219 78.191406 15.265625 C 77.855469 15.984375 77.347656 17.082031 76.230469 17.082031 C 76.167969 17.082031 75.976562 17.082031 75.800781 16.988281 C 75.832031 16.972656 76.308594 16.78125 76.308594 16.175781 C 76.308594 15.648438 75.925781 15.3125 75.449219 15.3125 C 74.953125 15.3125 74.574219 15.648438 74.574219 16.191406 C 74.574219 16.941406 75.273438 17.609375 76.230469 17.609375 C 77.539062 17.609375 78.398438 16.429688 78.71875 15.726562 L 82.113281 8.375 C 82.210938 8.152344 82.273438 8.023438 83.292969 8.023438 Z M 83.292969 8.023438 "/>
<path style=" stroke:none;fill-rule:evenodd;fill:rgb(0%,0%,0%);fill-opacity:1;" d="M 91.777344 16.609375 C 91.777344 16.496094 91.679688 16.496094 91.566406 16.496094 C 91.15625 16.484375 91.007812 16.398438 90.84375 15.996094 L 89.292969 12.320312 C 89.28125 12.285156 89.238281 12.195312 89.238281 12.164062 C 89.238281 12.164062 89.25 12.140625 89.4375 11.996094 L 90.519531 11.148438 C 92.011719 9.992188 92.5 9.601562 93.269531 9.53125 C 93.347656 9.523438 93.460938 9.523438 93.460938 9.332031 C 93.460938 9.265625 93.425781 9.210938 93.335938 9.210938 C 93.214844 9.210938 93.082031 9.234375 92.960938 9.234375 L 92.535156 9.234375 C 92.191406 9.234375 91.820312 9.210938 91.488281 9.210938 C 91.410156 9.210938 91.277344 9.210938 91.277344 9.410156 C 91.277344 9.523438 91.355469 9.53125 91.421875 9.53125 C 91.542969 9.542969 91.6875 9.589844 91.6875 9.746094 C 91.6875 9.96875 91.355469 10.234375 91.265625 10.300781 L 86.898438 13.699219 L 87.820312 10.023438 C 87.921875 9.644531 87.945312 9.53125 88.734375 9.53125 C 88.949219 9.53125 89.046875 9.53125 89.046875 9.320312 C 89.046875 9.210938 88.9375 9.210938 88.882812 9.210938 C 88.679688 9.210938 88.445312 9.234375 88.234375 9.234375 L 86.917969 9.234375 C 86.71875 9.234375 86.472656 9.210938 86.273438 9.210938 C 86.183594 9.210938 86.0625 9.210938 86.0625 9.421875 C 86.0625 9.53125 86.160156 9.53125 86.328125 9.53125 C 87.007812 9.53125 87.007812 9.621094 87.007812 9.746094 C 87.007812 9.746094 87.007812 9.835938 86.964844 10 L 85.457031 15.996094 C 85.359375 16.386719 85.335938 16.496094 84.558594 16.496094 C 84.34375 16.496094 84.234375 16.496094 84.234375 16.699219 C 84.234375 16.820312 84.332031 16.820312 84.402344 16.820312 C 84.613281 16.820312 84.835938 16.796875 85.046875 16.796875 L 86.351562 16.796875 C 86.5625 16.796875 86.796875 16.820312 87.007812 16.820312 C 87.097656 16.820312 87.21875 16.820312 87.21875 16.609375 C 87.21875 16.496094 87.121094 16.496094 86.953125 16.496094 C 86.273438 16.496094 86.273438 16.40625 86.273438 16.296875 C 86.273438 16.21875 86.339844 15.941406 86.382812 15.761719 L 86.820312 14.035156 L 88.511719 12.710938 L 89.882812 15.941406 C 89.917969 16.007812 89.9375 16.074219 89.9375 16.152344 C 89.9375 16.484375 89.492188 16.496094 89.394531 16.496094 C 89.292969 16.496094 89.179688 16.496094 89.179688 16.710938 C 89.179688 16.820312 89.304688 16.820312 89.335938 16.820312 C 89.726562 16.820312 90.140625 16.796875 90.53125 16.796875 L 91.0625 16.796875 C 91.230469 16.796875 91.421875 16.820312 91.589844 16.820312 C 91.65625 16.820312 91.777344 16.820312 91.777344 16.609375 Z M 91.777344 16.609375 "/>
<path style=" stroke:none;fill-rule:evenodd;fill:rgb(0%,0%,0%);fill-opacity:1;" d="M 179.828125 103.238281 C 179.972656 102.695312 180.050781 102.136719 180.050781 101.609375 C 180.050781 101.371094 180.035156 101.132812 180.003906 100.890625 C 179.878906 100.144531 179.542969 99.503906 179.113281 98.933594 C 178.410156 98.039062 177.453125 96.792969 177.453125 96.046875 C 177.453125 95.933594 177.484375 95.839844 177.535156 95.757812 C 177.613281 95.597656 177.722656 95.472656 177.882812 95.390625 C 178.042969 95.3125 178.21875 95.28125 178.378906 95.28125 C 179.097656 95.296875 179.574219 95.773438 180.179688 96.011719 C 180.226562 96.027344 180.277344 96.027344 180.339844 96.027344 C 180.53125 96.027344 180.753906 95.917969 180.847656 95.710938 C 180.898438 95.628906 180.929688 95.535156 180.929688 95.472656 C 180.929688 95.28125 180.800781 95.121094 180.625 95.089844 C 180.066406 94.960938 179.445312 94.800781 178.871094 94.800781 C 178.714844 94.800781 178.554688 94.816406 178.410156 94.847656 C 178.1875 94.882812 177.949219 94.945312 177.738281 95.089844 C 177.535156 95.214844 177.359375 95.40625 177.246094 95.613281 C 177.117188 95.855469 177.054688 96.140625 177.054688 96.429688 C 177.054688 97.289062 177.550781 98.292969 178.011719 99.1875 C 177.359375 99.328125 176.71875 99.679688 176.179688 100.160156 C 175.398438 100.84375 174.855469 101.753906 174.632812 102.679688 C 174.550781 103.015625 174.503906 103.347656 174.503906 103.667969 C 174.503906 104.242188 174.648438 104.785156 174.933594 105.230469 C 175.347656 105.882812 176.050781 106.296875 176.945312 106.296875 C 178.332031 106.296875 179.445312 104.785156 179.828125 103.238281 Z M 178.855469 103.539062 C 178.554688 104.71875 177.964844 105.996094 176.945312 105.996094 C 176.304688 105.996094 175.828125 105.613281 175.605469 105.070312 C 175.476562 104.785156 175.429688 104.449219 175.429688 104.113281 C 175.429688 103.667969 175.507812 103.203125 175.621094 102.742188 C 175.828125 101.914062 176.148438 101.070312 176.785156 100.367188 C 177.183594 99.953125 177.660156 99.617188 178.171875 99.488281 L 178.21875 99.570312 C 178.519531 100.160156 178.808594 100.765625 178.953125 101.433594 C 179 101.691406 179.015625 101.960938 179.015625 102.234375 C 179.015625 102.664062 178.96875 103.109375 178.855469 103.539062 Z M 178.855469 103.539062 "/>
<path style=" stroke:none;fill-rule:evenodd;fill:rgb(0%,0%,0%);fill-opacity:1;" d="M 192.878906 105.835938 C 192.878906 105.675781 192.734375 105.675781 192.574219 105.675781 C 191.984375 105.660156 191.777344 105.53125 191.539062 104.960938 L 189.320312 99.695312 C 189.304688 99.648438 189.242188 99.523438 189.242188 99.472656 C 189.242188 99.472656 189.257812 99.441406 189.527344 99.234375 L 191.074219 98.023438 C 193.210938 96.363281 193.914062 95.808594 195.011719 95.710938 C 195.125 95.695312 195.285156 95.695312 195.285156 95.425781 C 195.285156 95.328125 195.234375 95.246094 195.109375 95.246094 C 194.933594 95.246094 194.742188 95.28125 194.566406 95.28125 L 193.960938 95.28125 C 193.464844 95.28125 192.941406 95.246094 192.460938 95.246094 C 192.351562 95.246094 192.160156 95.246094 192.160156 95.535156 C 192.160156 95.695312 192.269531 95.710938 192.367188 95.710938 C 192.542969 95.726562 192.75 95.789062 192.75 96.011719 C 192.75 96.332031 192.269531 96.714844 192.144531 96.8125 L 185.894531 101.671875 L 187.21875 96.410156 C 187.359375 95.871094 187.390625 95.710938 188.523438 95.710938 C 188.828125 95.710938 188.96875 95.710938 188.96875 95.40625 C 188.96875 95.246094 188.8125 95.246094 188.730469 95.246094 C 188.445312 95.246094 188.109375 95.28125 187.804688 95.28125 L 185.925781 95.28125 C 185.636719 95.28125 185.289062 95.246094 185 95.246094 C 184.871094 95.246094 184.695312 95.246094 184.695312 95.550781 C 184.695312 95.710938 184.839844 95.710938 185.078125 95.710938 C 186.054688 95.710938 186.054688 95.839844 186.054688 96.011719 C 186.054688 96.011719 186.054688 96.140625 185.988281 96.378906 L 183.835938 104.960938 C 183.691406 105.515625 183.660156 105.675781 182.542969 105.675781 C 182.242188 105.675781 182.082031 105.675781 182.082031 105.964844 C 182.082031 106.136719 182.226562 106.136719 182.324219 106.136719 C 182.625 106.136719 182.945312 106.105469 183.246094 106.105469 L 185.113281 106.105469 C 185.414062 106.105469 185.75 106.136719 186.054688 106.136719 C 186.179688 106.136719 186.355469 106.136719 186.355469 105.835938 C 186.355469 105.675781 186.210938 105.675781 185.972656 105.675781 C 185 105.675781 185 105.546875 185 105.386719 C 185 105.277344 185.09375 104.878906 185.160156 104.625 L 185.78125 102.152344 L 188.207031 100.253906 L 190.167969 104.878906 C 190.214844 104.976562 190.246094 105.070312 190.246094 105.183594 C 190.246094 105.660156 189.609375 105.675781 189.464844 105.675781 C 189.320312 105.675781 189.164062 105.675781 189.164062 105.980469 C 189.164062 106.136719 189.335938 106.136719 189.386719 106.136719 C 189.941406 106.136719 190.535156 106.105469 191.089844 106.105469 L 191.855469 106.105469 C 192.097656 106.105469 192.367188 106.136719 192.605469 106.136719 C 192.703125 106.136719 192.878906 106.136719 192.878906 105.835938 Z M 192.878906 105.835938 "/>
<path style=" stroke:none;fill-rule:evenodd;fill:rgb(0%,0%,0%);fill-opacity:1;" d="M 111.605469 71.476562 C 111.605469 70.375 110.824219 69.59375 109.066406 68.8125 C 108.207031 68.414062 106.867188 67.824219 106.867188 66.578125 C 106.867188 66.070312 107.136719 65.511719 107.472656 65.207031 C 108.03125 64.730469 109.019531 64.730469 109.101562 64.730469 C 109.257812 64.730469 109.976562 64.761719 110.613281 65.046875 C 110.933594 65.191406 111.347656 65.382812 111.347656 66.070312 C 111.347656 66.292969 111.316406 66.371094 111.269531 66.546875 C 111.269531 66.59375 111.253906 66.660156 111.253906 66.707031 C 111.253906 66.804688 111.332031 66.820312 111.410156 66.820312 C 111.667969 66.820312 112.066406 66.609375 112.335938 66.40625 C 112.578125 66.195312 112.703125 65.925781 112.703125 65.398438 C 112.703125 64.617188 112.289062 64.394531 111.8125 64.171875 C 111.0625 63.851562 110.40625 63.851562 110.152344 63.851562 C 108.078125 63.851562 105.511719 65.414062 105.511719 67.265625 C 105.511719 68.523438 106.722656 69.164062 107.617188 69.5625 C 108.75 70.070312 110.246094 70.804688 110.246094 72.160156 C 110.246094 73.148438 109.53125 74.570312 107.042969 74.570312 C 105.367188 74.570312 104.109375 73.46875 104.109375 72.433594 C 104.109375 72.382812 104.109375 72 104.332031 71.585938 C 104.476562 71.523438 105.046875 71.171875 105.046875 70.949219 C 105.046875 70.835938 104.953125 70.835938 104.859375 70.835938 C 104.316406 70.835938 102.753906 71.523438 102.753906 73.117188 C 102.753906 74.265625 104.042969 75.445312 105.988281 75.445312 C 108.589844 75.445312 111.605469 73.660156 111.605469 71.476562 Z M 111.605469 71.476562 "/>
<path style=" stroke:none;fill-rule:evenodd;fill:rgb(0%,0%,0%);fill-opacity:1;" d="M 118.144531 78.988281 C 118.144531 78.988281 118.144531 78.941406 118.097656 78.890625 C 117.363281 78.140625 115.402344 76.101562 115.402344 71.125 C 115.402344 66.148438 117.332031 64.125 118.113281 63.328125 C 118.113281 63.328125 118.144531 63.277344 118.144531 63.230469 C 118.144531 63.183594 118.097656 63.152344 118.035156 63.152344 C 117.859375 63.152344 116.503906 64.332031 115.722656 66.085938 C 114.925781 67.855469 114.703125 69.578125 114.703125 71.109375 C 114.703125 72.257812 114.8125 74.203125 115.769531 76.257812 C 116.535156 77.917969 117.84375 79.082031 118.035156 79.082031 C 118.113281 79.082031 118.144531 79.050781 118.144531 78.988281 Z M 118.144531 78.988281 "/>
<path style=" stroke:none;fill-rule:evenodd;fill:rgb(0%,0%,0%);fill-opacity:1;" d="M 130.496094 74.792969 C 130.496094 74.632812 130.351562 74.632812 130.191406 74.632812 C 129.601562 74.617188 129.394531 74.488281 129.15625 73.914062 L 126.941406 68.652344 C 126.925781 68.605469 126.859375 68.476562 126.859375 68.429688 C 126.859375 68.429688 126.875 68.398438 127.148438 68.191406 L 128.695312 66.976562 C 130.832031 65.320312 131.53125 64.761719 132.632812 64.664062 C 132.746094 64.648438 132.90625 64.648438 132.90625 64.378906 C 132.90625 64.28125 132.855469 64.203125 132.730469 64.203125 C 132.550781 64.203125 132.363281 64.234375 132.1875 64.234375 L 131.582031 64.234375 C 131.085938 64.234375 130.5625 64.203125 130.082031 64.203125 C 129.96875 64.203125 129.777344 64.203125 129.777344 64.492188 C 129.777344 64.648438 129.890625 64.664062 129.984375 64.664062 C 130.160156 64.683594 130.367188 64.746094 130.367188 64.96875 C 130.367188 65.289062 129.890625 65.671875 129.761719 65.765625 L 123.511719 70.628906 L 124.835938 65.367188 C 124.980469 64.824219 125.011719 64.664062 126.144531 64.664062 C 126.445312 64.664062 126.589844 64.664062 126.589844 64.363281 C 126.589844 64.203125 126.429688 64.203125 126.347656 64.203125 C 126.0625 64.203125 125.726562 64.234375 125.425781 64.234375 L 123.542969 64.234375 C 123.253906 64.234375 122.90625 64.203125 122.617188 64.203125 C 122.488281 64.203125 122.316406 64.203125 122.316406 64.507812 C 122.316406 64.664062 122.457031 64.664062 122.699219 64.664062 C 123.671875 64.664062 123.671875 64.792969 123.671875 64.96875 C 123.671875 64.96875 123.671875 65.097656 123.605469 65.335938 L 121.453125 73.914062 C 121.308594 74.472656 121.277344 74.632812 120.160156 74.632812 C 119.859375 74.632812 119.699219 74.632812 119.699219 74.921875 C 119.699219 75.09375 119.84375 75.09375 119.941406 75.09375 C 120.242188 75.09375 120.5625 75.0625 120.863281 75.0625 L 122.730469 75.0625 C 123.03125 75.0625 123.367188 75.09375 123.671875 75.09375 C 123.796875 75.09375 123.972656 75.09375 123.972656 74.792969 C 123.972656 74.632812 123.832031 74.632812 123.589844 74.632812 C 122.617188 74.632812 122.617188 74.503906 122.617188 74.34375 C 122.617188 74.234375 122.714844 73.835938 122.777344 73.578125 L 123.398438 71.109375 L 125.824219 69.210938 L 127.785156 73.835938 C 127.832031 73.929688 127.863281 74.027344 127.863281 74.140625 C 127.863281 74.617188 127.226562 74.632812 127.082031 74.632812 C 126.941406 74.632812 126.78125 74.632812 126.78125 74.9375 C 126.78125 75.09375 126.957031 75.09375 127.003906 75.09375 C 127.5625 75.09375 128.152344 75.0625 128.710938 75.0625 L 129.476562 75.0625 C 129.714844 75.0625 129.984375 75.09375 130.222656 75.09375 C 130.320312 75.09375 130.496094 75.09375 130.496094 74.792969 Z M 130.496094 74.792969 "/>
<path style=" stroke:none;fill-rule:evenodd;fill:rgb(0%,0%,0%);fill-opacity:1;" d="M 137.5625 71.125 C 137.5625 69.976562 137.449219 68.03125 136.492188 65.972656 C 135.726562 64.316406 134.421875 63.152344 134.226562 63.152344 C 134.179688 63.152344 134.117188 63.167969 134.117188 63.246094 C 134.117188 63.246094 134.132812 63.296875 134.148438 63.328125 C 134.914062 64.125 136.859375 66.148438 136.859375 71.109375 C 136.859375 76.085938 134.929688 78.109375 134.148438 78.90625 C 134.132812 78.941406 134.117188 78.988281 134.117188 78.988281 C 134.117188 79.066406 134.179688 79.082031 134.226562 79.082031 C 134.402344 79.082031 135.757812 77.902344 136.539062 76.148438 C 137.335938 74.378906 137.5625 72.65625 137.5625 71.125 Z M 137.5625 71.125 "/>
<path style=" stroke:none;fill-rule:evenodd;fill:rgb(0%,0%,0%);fill-opacity:1;" d="M 131.402344 159.003906 L 131.402344 158.316406 L 130.285156 158.316406 L 127.589844 155.066406 L 129.441406 152.945312 C 129.617188 152.738281 129.757812 152.609375 131.082031 152.609375 L 131.082031 151.921875 L 129.617188 151.957031 C 129.152344 151.957031 128.46875 151.957031 128.019531 151.921875 L 128.019531 152.609375 C 128.324219 152.609375 128.660156 152.6875 128.660156 152.800781 C 128.660156 152.800781 128.578125 152.945312 128.546875 152.976562 L 127.160156 154.539062 L 125.582031 152.609375 L 126.25 152.609375 L 126.25 151.921875 C 125.882812 151.957031 124.800781 151.957031 124.371094 151.957031 C 123.890625 151.957031 123.027344 151.957031 122.582031 151.921875 L 122.582031 152.609375 L 123.714844 152.609375 L 126.203125 155.640625 L 124.128906 157.984375 C 123.9375 158.207031 123.828125 158.316406 122.503906 158.316406 L 122.503906 159.003906 L 123.984375 158.972656 C 124.449219 158.972656 125.117188 158.972656 125.566406 159.003906 L 125.566406 158.316406 C 125.261719 158.316406 124.925781 158.238281 124.925781 158.128906 C 124.925781 158.128906 124.925781 158.09375 125.039062 157.96875 L 126.632812 156.164062 L 128.402344 158.316406 L 127.734375 158.316406 L 127.734375 159.003906 C 128.117188 158.972656 129.183594 158.972656 129.632812 158.972656 C 130.109375 158.972656 130.957031 158.972656 131.402344 159.003906 Z M 131.402344 159.003906 "/>
<path style=" stroke:none;fill-rule:evenodd;fill:rgb(0%,0%,0%);fill-opacity:1;" d="M 139.773438 161.191406 C 139.773438 161.082031 139.671875 161.082031 139.558594 161.082031 C 139.148438 161.070312 139.003906 160.980469 138.835938 160.578125 L 137.289062 156.902344 C 137.277344 156.871094 137.230469 156.78125 137.230469 156.746094 C 137.230469 156.746094 137.242188 156.722656 137.433594 156.578125 L 138.511719 155.730469 C 140.007812 154.574219 140.496094 154.183594 141.265625 154.117188 C 141.34375 154.105469 141.457031 154.105469 141.457031 153.917969 C 141.457031 153.847656 141.421875 153.792969 141.332031 153.792969 C 141.210938 153.792969 141.074219 153.816406 140.953125 153.816406 L 140.53125 153.816406 C 140.183594 153.816406 139.816406 153.792969 139.480469 153.792969 C 139.40625 153.792969 139.269531 153.792969 139.269531 153.996094 C 139.269531 154.105469 139.347656 154.117188 139.417969 154.117188 C 139.539062 154.128906 139.683594 154.171875 139.683594 154.328125 C 139.683594 154.550781 139.347656 154.816406 139.261719 154.886719 L 134.890625 158.285156 L 135.816406 154.605469 C 135.917969 154.230469 135.941406 154.117188 136.730469 154.117188 C 136.941406 154.117188 137.042969 154.117188 137.042969 153.90625 C 137.042969 153.792969 136.929688 153.792969 136.875 153.792969 C 136.675781 153.792969 136.441406 153.816406 136.230469 153.816406 L 134.914062 153.816406 C 134.714844 153.816406 134.46875 153.792969 134.269531 153.792969 C 134.179688 153.792969 134.058594 153.792969 134.058594 154.003906 C 134.058594 154.117188 134.15625 154.117188 134.324219 154.117188 C 135.003906 154.117188 135.003906 154.207031 135.003906 154.328125 C 135.003906 154.328125 135.003906 154.417969 134.957031 154.585938 L 133.453125 160.578125 C 133.355469 160.96875 133.332031 161.082031 132.550781 161.082031 C 132.339844 161.082031 132.230469 161.082031 132.230469 161.28125 C 132.230469 161.402344 132.328125 161.402344 132.394531 161.402344 C 132.605469 161.402344 132.832031 161.382812 133.042969 161.382812 L 134.347656 161.382812 C 134.558594 161.382812 134.792969 161.402344 135.003906 161.402344 C 135.09375 161.402344 135.214844 161.402344 135.214844 161.191406 C 135.214844 161.082031 135.113281 161.082031 134.949219 161.082031 C 134.269531 161.082031 134.269531 160.992188 134.269531 160.878906 C 134.269531 160.800781 134.335938 160.523438 134.378906 160.347656 L 134.8125 158.617188 L 136.507812 157.292969 L 137.878906 160.523438 C 137.910156 160.589844 137.933594 160.65625 137.933594 160.734375 C 137.933594 161.070312 137.488281 161.082031 137.386719 161.082031 C 137.289062 161.082031 137.175781 161.082031 137.175781 161.292969 C 137.175781 161.402344 137.300781 161.402344 137.332031 161.402344 C 137.722656 161.402344 138.136719 161.382812 138.523438 161.382812 L 139.058594 161.382812 C 139.226562 161.382812 139.417969 161.402344 139.582031 161.402344 C 139.648438 161.402344 139.773438 161.402344 139.773438 161.191406 Z M 139.773438 161.191406 "/>
</g>
</svg>
