<?xml version="1.0" encoding="UTF-8"?>
<svg xmlns="http://www.w3.org/2000/svg" xmlns:xlink="http://www.w3.org/1999/xlink" width="202pt" height="180pt" viewBox="0 0 202 180" version="1.1">
<g id="surface204">
<path style=" stroke:none;fill-rule:nonzero;fill:rgb(100%,74.999619%,74.999619%);fill-opacity:1;" d="M 170.605469 97.808594 L 169.691406 96.746094 L 168.757812 95.699219 L 167.804688 94.671875 L 166.828125 93.664062 L 165.835938 92.671875 L 164.820312 91.703125 L 80.6875 12.675781 L 83.253906 12.023438 L 85.832031 11.421875 L 88.421875 10.871094 L 91.019531 10.375 L 93.628906 9.921875 L 96.246094 9.523438 Z M 170.605469 97.808594 "/>
<path style=" stroke:none;fill-rule:nonzero;fill:rgb(100%,100%,86.999313%);fill-opacity:1;" d="M 187.570312 165.929688 L 187.570312 144.285156 L 187.558594 142.882812 L 187.515625 141.480469 L 187.449219 140.078125 L 187.351562 138.679688 L 187.230469 137.28125 L 187.082031 135.886719 L 186.902344 134.496094 L 186.699219 133.109375 L 186.46875 131.726562 L 186.210938 130.347656 L 185.925781 128.972656 L 185.617188 127.605469 L 185.277344 126.242188 L 184.914062 124.886719 L 184.523438 123.542969 L 184.109375 122.203125 L 183.664062 120.871094 L 183.199219 119.546875 L 182.703125 118.234375 L 182.183594 116.933594 L 181.640625 115.640625 L 181.070312 114.355469 L 180.476562 113.085938 L 179.855469 111.828125 L 179.214844 110.582031 L 178.546875 109.347656 L 177.855469 108.125 L 177.140625 106.917969 L 176.402344 105.726562 L 175.640625 104.546875 L 174.855469 103.386719 L 174.050781 102.238281 L 173.222656 101.105469 L 172.371094 99.992188 L 171.5 98.890625 L 170.605469 97.808594 L 169.691406 96.746094 L 168.757812 95.699219 L 167.804688 94.671875 L 166.828125 93.664062 L 165.835938 92.671875 L 164.820312 91.703125 L 163.789062 90.753906 L 162.738281 89.824219 L 161.671875 88.914062 L 160.585938 88.023438 L 159.484375 87.15625 L 158.363281 86.3125 L 157.230469 85.488281 L 156.078125 84.6875 L 154.910156 83.90625 L 153.730469 83.148438 L 152.535156 82.417969 L 151.324219 81.707031 L 150.101562 81.019531 L 148.863281 80.359375 L 147.617188 79.722656 L 146.355469 79.105469 L 145.082031 78.519531 L 143.796875 77.953125 L 142.5 77.414062 L 141.195312 76.902344 L 139.882812 76.414062 L 138.558594 75.949219 L 137.222656 75.515625 L 135.882812 75.101562 L 134.535156 74.71875 L 133.175781 74.359375 L 131.8125 74.027344 L 130.445312 73.722656 L 129.070312 73.445312 L 127.691406 73.191406 L 106.363281 69.515625 L 106.363281 165.929688 Z M 187.570312 165.929688 "/>
<path style=" stroke:none;fill-rule:evenodd;fill:rgb(0%,0%,0%);fill-opacity:1;" d="M 145.402344 132.390625 C 145.402344 132.28125 145.300781 132.28125 145.191406 132.28125 C 144.785156 132.269531 144.644531 132.183594 144.480469 131.785156 L 142.957031 128.171875 C 142.945312 128.136719 142.902344 128.050781 142.902344 128.019531 C 142.902344 128.019531 142.914062 127.996094 143.097656 127.855469 L 144.160156 127.019531 C 145.628906 125.882812 146.113281 125.496094 146.867188 125.433594 C 146.945312 125.421875 147.054688 125.421875 147.054688 125.234375 C 147.054688 125.171875 147.023438 125.117188 146.933594 125.117188 C 146.8125 125.117188 146.679688 125.136719 146.5625 125.136719 L 146.144531 125.136719 C 145.804688 125.136719 145.445312 125.117188 145.113281 125.117188 C 145.039062 125.117188 144.90625 125.117188 144.90625 125.3125 C 144.90625 125.421875 144.984375 125.433594 145.050781 125.433594 C 145.171875 125.441406 145.3125 125.488281 145.3125 125.640625 C 145.3125 125.859375 144.984375 126.121094 144.894531 126.1875 L 140.601562 129.53125 L 141.511719 125.914062 C 141.609375 125.542969 141.632812 125.433594 142.410156 125.433594 C 142.617188 125.433594 142.714844 125.433594 142.714844 125.226562 C 142.714844 125.117188 142.605469 125.117188 142.550781 125.117188 C 142.355469 125.117188 142.125 125.136719 141.917969 125.136719 L 140.621094 125.136719 C 140.425781 125.136719 140.183594 125.117188 139.988281 125.117188 C 139.902344 125.117188 139.78125 125.117188 139.78125 125.324219 C 139.78125 125.433594 139.878906 125.433594 140.042969 125.433594 C 140.710938 125.433594 140.710938 125.519531 140.710938 125.640625 C 140.710938 125.640625 140.710938 125.726562 140.667969 125.894531 L 139.1875 131.785156 C 139.089844 132.171875 139.070312 132.28125 138.300781 132.28125 C 138.09375 132.28125 137.984375 132.28125 137.984375 132.476562 C 137.984375 132.597656 138.082031 132.597656 138.148438 132.597656 C 138.355469 132.597656 138.574219 132.574219 138.78125 132.574219 L 140.066406 132.574219 C 140.273438 132.574219 140.503906 132.597656 140.710938 132.597656 C 140.800781 132.597656 140.917969 132.597656 140.917969 132.390625 C 140.917969 132.28125 140.820312 132.28125 140.65625 132.28125 C 139.988281 132.28125 139.988281 132.191406 139.988281 132.082031 C 139.988281 132.003906 140.054688 131.730469 140.097656 131.558594 L 140.523438 129.859375 L 142.191406 128.554688 L 143.539062 131.730469 C 143.570312 131.796875 143.59375 131.863281 143.59375 131.941406 C 143.59375 132.269531 143.152344 132.28125 143.054688 132.28125 C 142.957031 132.28125 142.847656 132.28125 142.847656 132.488281 C 142.847656 132.597656 142.96875 132.597656 143 132.597656 C 143.386719 132.597656 143.789062 132.574219 144.171875 132.574219 L 144.699219 132.574219 C 144.863281 132.574219 145.050781 132.597656 145.214844 132.597656 C 145.28125 132.597656 145.402344 132.597656 145.402344 132.390625 Z M 145.402344 132.390625 "/>
<path style="fill:none;stroke-width:1;stroke-linecap:square;stroke-linejoin:miter;stroke:rgb(70.000763%,70.000763%,70.000763%);stroke-opacity:1;stroke-miterlimit:3.25;" d="M 187.570312 144.285156 L 187.570312 28.855469 "/>
<path style="fill:none;stroke-width:1;stroke-linecap:square;stroke-linejoin:miter;stroke:rgb(70.000763%,70.000763%,70.000763%);stroke-opacity:1;stroke-miterlimit:3.25;" d="M 187.082031 135.886719 L 173.644531 21.246094 "/>
<path style="fill:none;stroke-width:1;stroke-linecap:square;stroke-linejoin:miter;stroke:rgb(70.000763%,70.000763%,70.000763%);stroke-opacity:1;stroke-miterlimit:3.25;" d="M 185.617188 127.605469 L 158.925781 15.304688 "/>
<path style="fill:none;stroke-width:1;stroke-linecap:square;stroke-linejoin:miter;stroke:rgb(70.000763%,70.000763%,70.000763%);stroke-opacity:1;stroke-miterlimit:3.25;" d="M 183.199219 119.546875 L 143.617188 11.117188 "/>
<path style="fill:none;stroke-width:1;stroke-linecap:square;stroke-linejoin:miter;stroke:rgb(70.000763%,70.000763%,70.000763%);stroke-opacity:1;stroke-miterlimit:3.25;" d="M 179.855469 111.828125 L 127.925781 8.742188 "/>
<path style="fill:none;stroke-width:1;stroke-linecap:square;stroke-linejoin:miter;stroke:rgb(70.000763%,70.000763%,70.000763%);stroke-opacity:1;stroke-miterlimit:3.25;" d="M 175.640625 104.546875 L 112.0625 8.207031 "/>
<path style="fill:none;stroke-width:1;stroke-linecap:square;stroke-linejoin:miter;stroke:rgb(70.000763%,70.000763%,70.000763%);stroke-opacity:1;stroke-miterlimit:3.25;" d="M 170.605469 97.808594 L 96.246094 9.523438 "/>
<path style="fill:none;stroke-width:1;stroke-linecap:square;stroke-linejoin:miter;stroke:rgb(70.000763%,70.000763%,70.000763%);stroke-opacity:1;stroke-miterlimit:3.25;" d="M 164.820312 91.703125 L 80.6875 12.675781 "/>
<path style="fill:none;stroke-width:1;stroke-linecap:square;stroke-linejoin:miter;stroke:rgb(70.000763%,70.000763%,70.000763%);stroke-opacity:1;stroke-miterlimit:3.25;" d="M 158.363281 86.3125 L 65.605469 17.613281 "/>
<path style="fill:none;stroke-width:1;stroke-linecap:square;stroke-linejoin:miter;stroke:rgb(70.000763%,70.000763%,70.000763%);stroke-opacity:1;stroke-miterlimit:3.25;" d="M 151.324219 81.707031 L 51.199219 24.273438 "/>
<path style="fill:none;stroke-width:1;stroke-linecap:square;stroke-linejoin:miter;stroke:rgb(70.000763%,70.000763%,70.000763%);stroke-opacity:1;stroke-miterlimit:3.25;" d="M 143.796875 77.953125 L 37.667969 32.566406 "/>
<path style="fill:none;stroke-width:1;stroke-linecap:square;stroke-linejoin:miter;stroke:rgb(70.000763%,70.000763%,70.000763%);stroke-opacity:1;stroke-miterlimit:3.25;" d="M 135.882812 75.101562 L 25.191406 42.375 "/>
<path style="fill:none;stroke-width:1;stroke-linecap:square;stroke-linejoin:miter;stroke:rgb(70.000763%,70.000763%,70.000763%);stroke-opacity:1;stroke-miterlimit:3.25;" d="M 127.691406 73.191406 L 13.941406 53.574219 "/>
<path style="fill:none;stroke-width:0.2;stroke-linecap:square;stroke-linejoin:miter;stroke:rgb(100%,0%,0%);stroke-opacity:1;stroke-miterlimit:3.25;" d="M 170.605469 97.808594 L 96.246094 9.523438 "/>
<path style="fill:none;stroke-width:4;stroke-linecap:butt;stroke-linejoin:round;stroke:rgb(100%,100%,100%);stroke-opacity:0.666667;stroke-miterlimit:3.239307;" d="M 135.917969 51.175781 L 137.128906 50.007812 L 138.132812 49.132812 L 138.960938 48.503906 L 139.636719 48.082031 L 140.195312 47.824219 L 140.664062 47.695312 L 141.074219 47.648438 L 141.453125 47.640625 L 143.453125 47.640625 "/>
<path style="fill:none;stroke-width:1.25;stroke-linecap:square;stroke-linejoin:miter;stroke:rgb(66.666667%,66.666667%,66.666667%);stroke-opacity:1;stroke-miterlimit:3.25;" d="M 135.917969 51.175781 L 137.128906 50.007812 L 138.132812 49.132812 L 138.960938 48.503906 L 139.636719 48.082031 L 140.195312 47.824219 L 140.664062 47.695312 L 141.074219 47.648438 L 141.453125 47.640625 L 143.453125 47.640625 "/>
<path style=" stroke:none;fill-rule:nonzero;fill:rgb(100%,100%,100%);fill-opacity:0.666667;" d="M 179.453125 34.441406 L 179.453125 56.441406 L 143.453125 56.441406 L 143.453125 34.441406 Z M 179.453125 34.441406 "/>
<path style=" stroke:none;fill-rule:evenodd;fill:rgb(0%,0%,0%);fill-opacity:1;" d="M 153.785156 47.617188 C 153.785156 47.515625 153.707031 47.515625 153.675781 47.515625 C 153.585938 47.515625 153.574219 47.550781 153.542969 47.636719 C 153.441406 47.917969 153.1875 48.160156 152.921875 48.160156 C 152.582031 48.160156 152.582031 47.449219 152.582031 46.777344 C 153.707031 45.429688 153.972656 44.023438 153.972656 44.023438 C 153.972656 43.925781 153.882812 43.925781 153.851562 43.925781 C 153.75 43.925781 153.742188 43.957031 153.695312 44.15625 C 153.554688 44.644531 153.265625 45.507812 152.582031 46.414062 L 152.582031 45.472656 C 152.582031 44.402344 151.972656 43.394531 150.800781 43.394531 C 149.351562 43.394531 147.902344 44.976562 147.902344 46.542969 C 147.902344 47.507812 148.5 48.378906 149.628906 48.378906 C 150.3125 48.378906 151.132812 48.113281 151.917969 47.449219 C 152.070312 48.070312 152.414062 48.378906 152.890625 48.378906 C 153.488281 48.378906 153.785156 47.761719 153.785156 47.617188 Z M 151.882812 47.1875 C 150.910156 48.058594 150.039062 48.160156 149.652344 48.160156 C 148.867188 48.160156 148.644531 47.460938 148.644531 46.945312 C 148.644531 46.46875 148.890625 45.339844 149.230469 44.730469 C 149.683594 43.957031 150.304688 43.617188 150.800781 43.617188 C 151.871094 43.617188 151.871094 45.019531 151.871094 45.949219 L 151.863281 46.789062 C 151.863281 47.011719 151.871094 47.066406 151.882812 47.1875 Z M 151.882812 47.1875 "/>
<path style=" stroke:none;fill-rule:evenodd;fill:rgb(0%,0%,0%);fill-opacity:1;" d="M 158.015625 50.953125 C 158.015625 50.921875 158.015625 50.898438 157.828125 50.710938 C 156.722656 49.59375 156.101562 47.769531 156.101562 45.515625 C 156.101562 43.375 156.621094 41.527344 157.90625 40.222656 C 158.015625 40.125 158.015625 40.101562 158.015625 40.066406 C 158.015625 40.003906 157.960938 39.980469 157.914062 39.980469 C 157.773438 39.980469 156.867188 40.777344 156.324219 41.859375 C 155.757812 42.976562 155.507812 44.15625 155.507812 45.515625 C 155.507812 46.5 155.660156 47.816406 156.234375 49 C 156.886719 50.324219 157.792969 51.042969 157.914062 51.042969 C 157.960938 51.042969 158.015625 51.019531 158.015625 50.953125 Z M 158.015625 50.953125 "/>
<path style=" stroke:none;fill-rule:evenodd;fill:rgb(0%,0%,0%);fill-opacity:1;" d="M 162.019531 46.6875 C 162.019531 46.621094 161.976562 46.589844 161.910156 46.589844 C 161.910156 46.589844 161.84375 46.589844 161.820312 46.632812 C 161.820312 46.632812 161.796875 46.65625 161.722656 46.832031 C 161.488281 47.386719 160.980469 48.160156 160.339844 48.160156 C 160.007812 48.160156 159.984375 47.882812 159.984375 47.636719 C 159.984375 47.636719 159.984375 47.417969 160.019531 47.285156 L 160.878906 43.824219 L 161.898438 43.824219 C 162.109375 43.824219 162.21875 43.824219 162.21875 43.628906 C 162.21875 43.507812 162.152344 43.507812 161.933594 43.507812 L 160.960938 43.507812 L 161.367188 41.890625 C 161.410156 41.738281 161.410156 41.714844 161.410156 41.636719 C 161.410156 41.460938 161.269531 41.359375 161.125 41.359375 C 161.035156 41.359375 160.78125 41.394531 160.691406 41.75 L 160.261719 43.507812 L 159.222656 43.507812 C 159 43.507812 158.902344 43.507812 158.902344 43.714844 C 158.902344 43.824219 158.980469 43.824219 159.191406 43.824219 L 160.175781 43.824219 L 159.445312 46.742188 C 159.355469 47.132812 159.324219 47.242188 159.324219 47.386719 C 159.324219 47.90625 159.6875 48.378906 160.308594 48.378906 C 161.421875 48.378906 162.019531 46.765625 162.019531 46.6875 Z M 162.019531 46.6875 "/>
<path style=" stroke:none;fill-rule:evenodd;fill:rgb(0%,0%,0%);fill-opacity:1;" d="M 165.609375 45.515625 C 165.609375 44.675781 165.5 43.308594 164.882812 42.023438 C 164.226562 40.699219 163.320312 39.980469 163.199219 39.980469 C 163.15625 39.980469 163.101562 40.003906 163.101562 40.066406 C 163.101562 40.101562 163.101562 40.125 163.289062 40.3125 C 164.394531 41.425781 165.011719 43.25 165.011719 45.507812 C 165.011719 47.648438 164.492188 49.496094 163.210938 50.800781 C 163.101562 50.898438 163.101562 50.921875 163.101562 50.953125 C 163.101562 51.019531 163.15625 51.042969 163.199219 51.042969 C 163.34375 51.042969 164.25 50.246094 164.792969 49.164062 C 165.355469 48.039062 165.609375 46.84375 165.609375 45.515625 Z M 165.609375 45.515625 "/>
<path style=" stroke:none;fill-rule:evenodd;fill:rgb(0%,0%,0%);fill-opacity:1;" d="M 171.78125 44.136719 C 171.78125 43.441406 171.425781 43.394531 171.339844 43.394531 C 171.074219 43.394531 170.832031 43.660156 170.832031 43.882812 C 170.832031 44.011719 170.90625 44.089844 170.953125 44.136719 C 171.0625 44.234375 171.347656 44.535156 171.347656 45.109375 C 171.347656 45.574219 170.6875 48.160156 169.359375 48.160156 C 168.6875 48.160156 168.554688 47.59375 168.554688 47.1875 C 168.554688 46.632812 168.808594 45.859375 169.105469 45.0625 C 169.28125 44.609375 169.328125 44.5 169.328125 44.28125 C 169.328125 43.816406 168.996094 43.394531 168.453125 43.394531 C 167.4375 43.394531 167.027344 44.996094 167.027344 45.085938 C 167.027344 45.132812 167.070312 45.1875 167.148438 45.1875 C 167.25 45.1875 167.261719 45.140625 167.304688 44.984375 C 167.570312 44.035156 168 43.617188 168.421875 43.617188 C 168.519531 43.617188 168.707031 43.617188 168.707031 43.980469 C 168.707031 44.269531 168.585938 44.589844 168.421875 45.007812 C 167.890625 46.421875 167.890625 46.765625 167.890625 47.03125 C 167.890625 47.273438 167.921875 47.726562 168.265625 48.039062 C 168.664062 48.378906 169.21875 48.378906 169.316406 48.378906 C 171.152344 48.378906 171.78125 44.765625 171.78125 44.136719 Z M 171.78125 44.136719 "/>
<path style=" stroke:none;fill-rule:evenodd;fill:rgb(0%,0%,0%);fill-opacity:1;" d="M 174.605469 48.777344 C 174.605469 48.691406 174.535156 48.675781 174.492188 48.675781 C 174.40625 48.675781 174.398438 48.707031 174.34375 48.824219 C 174.1875 49.195312 173.800781 49.746094 173.328125 49.746094 C 173.167969 49.746094 173.074219 49.636719 173.074219 49.378906 C 173.074219 49.234375 173.097656 49.148438 173.121094 49.046875 L 173.683594 46.804688 L 174.445312 46.804688 C 174.589844 46.804688 174.683594 46.804688 174.683594 46.65625 C 174.683594 46.546875 174.582031 46.546875 174.453125 46.546875 L 173.746094 46.546875 L 174.027344 45.449219 C 174.058594 45.332031 174.058594 45.285156 174.058594 45.285156 C 174.058594 45.125 173.933594 45.046875 173.800781 45.046875 C 173.539062 45.046875 173.484375 45.253906 173.398438 45.605469 L 173.160156 46.546875 L 172.417969 46.546875 C 172.269531 46.546875 172.167969 46.546875 172.167969 46.695312 C 172.167969 46.804688 172.269531 46.804688 172.402344 46.804688 L 173.097656 46.804688 L 172.632812 48.660156 C 172.585938 48.855469 172.515625 49.125 172.515625 49.234375 C 172.515625 49.695312 172.894531 49.960938 173.304688 49.960938 C 174.132812 49.960938 174.605469 48.871094 174.605469 48.777344 Z M 174.605469 48.777344 "/>
<path style="fill:none;stroke-width:1;stroke-linecap:square;stroke-linejoin:miter;stroke:rgb(0%,0%,0%);stroke-opacity:1;stroke-miterlimit:3.25;" d="M 187.570312 144.285156 L 187.558594 142.882812 L 187.515625 141.480469 L 187.449219 140.078125 L 187.351562 138.679688 L 187.230469 137.28125 L 187.082031 135.886719 L 186.902344 134.496094 L 186.699219 133.109375 L 186.46875 131.726562 L 186.210938 130.347656 L 185.925781 128.972656 L 185.617188 127.605469 L 185.277344 126.242188 L 184.914062 124.886719 L 184.523438 123.542969 L 184.109375 122.203125 L 183.664062 120.871094 L 183.199219 119.546875 L 182.703125 118.234375 L 182.183594 116.933594 L 181.640625 115.640625 L 181.070312 114.355469 L 180.476562 113.085938 L 179.855469 111.828125 L 179.214844 110.582031 L 178.546875 109.347656 L 177.855469 108.125 L 177.140625 106.917969 L 176.402344 105.726562 L 175.640625 104.546875 L 174.855469 103.386719 L 174.050781 102.238281 L 173.222656 101.105469 L 172.371094 99.992188 L 171.5 98.890625 L 170.605469 97.808594 L 169.691406 96.746094 L 168.757812 95.699219 L 167.804688 94.671875 L 166.828125 93.664062 L 165.835938 92.671875 L 164.820312 91.703125 L 163.789062 90.753906 L 162.738281 89.824219 L 161.671875 88.914062 L 160.585938 88.023438 L 159.484375 87.15625 L 158.363281 86.3125 L 157.230469 85.488281 L 156.078125 84.6875 L 154.910156 83.90625 L 153.730469 83.148438 L 152.535156 82.417969 L 151.324219 81.707031 L 150.101562 81.019531 L 148.863281 80.359375 L 147.617188 79.722656 L 146.355469 79.105469 L 145.082031 78.519531 L 143.796875 77.953125 L 142.5 77.414062 L 141.195312 76.902344 L 139.882812 76.414062 L 138.558594 75.949219 L 137.222656 75.515625 L 135.882812 75.101562 L 134.535156 74.71875 L 133.175781 74.359375 L 131.8125 74.027344 L 130.445312 73.722656 L 129.070312 73.445312 L 127.691406 73.191406 "/>
<path style="fill:none;stroke-width:1;stroke-linecap:square;stroke-linejoin:miter;stroke:rgb(0%,0%,0%);stroke-opacity:1;stroke-miterlimit:3.25;" d="M 187.570312 28.855469 L 185.3125 27.476562 L 183.027344 26.140625 L 180.71875 24.847656 L 178.382812 23.601562 L 176.027344 22.398438 L 173.644531 21.246094 L 171.242188 20.136719 L 168.816406 19.074219 L 166.371094 18.058594 L 163.910156 17.09375 L 161.425781 16.175781 L 158.925781 15.304688 L 156.410156 14.484375 L 153.878906 13.710938 L 151.332031 12.988281 L 148.773438 12.3125 L 146.203125 11.691406 L 143.617188 11.117188 L 141.023438 10.59375 L 138.417969 10.121094 L 135.804688 9.699219 L 133.183594 9.328125 L 130.558594 9.011719 L 127.925781 8.742188 L 125.285156 8.523438 L 122.644531 8.359375 L 120 8.242188 L 117.355469 8.179688 L 114.707031 8.167969 L 112.0625 8.207031 L 109.417969 8.300781 L 106.773438 8.441406 L 104.132812 8.636719 L 101.5 8.882812 L 98.871094 9.179688 L 96.246094 9.523438 L 93.628906 9.921875 L 91.019531 10.375 L 88.421875 10.871094 L 85.832031 11.421875 L 83.253906 12.023438 L 80.6875 12.675781 L 78.136719 13.375 L 75.597656 14.125 L 73.074219 14.921875 L 70.566406 15.773438 L 68.078125 16.667969 L 65.605469 17.613281 L 63.152344 18.605469 L 60.71875 19.644531 L 58.304688 20.734375 L 55.914062 21.867188 L 53.542969 23.046875 L 51.199219 24.273438 L 48.878906 25.542969 L 46.582031 26.859375 L 44.3125 28.222656 L 42.070312 29.625 L 39.851562 31.074219 L 37.667969 32.566406 L 35.507812 34.097656 L 33.382812 35.671875 L 31.285156 37.289062 L 29.222656 38.945312 L 27.1875 40.640625 L 25.191406 42.375 L 23.226562 44.152344 L 21.296875 45.960938 L 19.402344 47.8125 L 17.546875 49.695312 L 15.722656 51.617188 L 13.941406 53.574219 "/>
<path style=" stroke:none;fill-rule:evenodd;fill:rgb(0%,0%,0%);fill-opacity:1;" d="M 48.328125 99.085938 L 48.328125 98.769531 L 47.988281 98.769531 C 47.023438 98.769531 46.992188 98.636719 46.992188 98.242188 L 46.992188 92.0625 C 46.992188 91.8125 46.992188 91.800781 46.769531 91.800781 C 46.507812 92.097656 45.960938 92.503906 44.832031 92.503906 L 44.832031 92.820312 C 45.085938 92.820312 45.632812 92.820312 46.234375 92.535156 L 46.234375 98.242188 C 46.234375 98.636719 46.203125 98.769531 45.238281 98.769531 L 44.898438 98.769531 L 44.898438 99.085938 C 45.195312 99.0625 46.257812 99.0625 46.617188 99.0625 C 46.980469 99.0625 48.03125 99.0625 48.328125 99.085938 Z M 48.328125 99.085938 "/>
<path style="fill:none;stroke-width:0.437903;stroke-linecap:square;stroke-linejoin:miter;stroke:rgb(0%,0%,0%);stroke-opacity:1;stroke-miterlimit:10;" d="M 43.828125 103.730469 L 49.191406 103.730469 "/>
<path style=" stroke:none;fill-rule:evenodd;fill:rgb(0%,0%,0%);fill-opacity:1;" d="M 48.65625 112.140625 L 48.414062 112.140625 C 48.382812 112.328125 48.292969 112.929688 48.183594 113.105469 C 48.109375 113.203125 47.484375 113.203125 47.15625 113.203125 L 45.128906 113.203125 C 45.425781 112.953125 46.09375 112.25 46.378906 111.988281 C 48.042969 110.453125 48.65625 109.882812 48.65625 108.800781 C 48.65625 107.539062 47.660156 106.699219 46.386719 106.699219 C 45.117188 106.699219 44.375 107.78125 44.375 108.722656 C 44.375 109.28125 44.855469 109.28125 44.886719 109.28125 C 45.117188 109.28125 45.402344 109.117188 45.402344 108.765625 C 45.402344 108.460938 45.195312 108.253906 44.886719 108.253906 C 44.789062 108.253906 44.765625 108.253906 44.734375 108.265625 C 44.941406 107.519531 45.535156 107.015625 46.246094 107.015625 C 47.175781 107.015625 47.746094 107.792969 47.746094 108.800781 C 47.746094 109.730469 47.210938 110.542969 46.585938 111.242188 L 44.375 113.71875 L 44.375 113.980469 L 48.371094 113.980469 Z M 48.65625 112.140625 "/>
<path style=" stroke:none;fill-rule:evenodd;fill:rgb(0%,0%,0%);fill-opacity:1;" d="M 56.699219 105.835938 C 56.699219 105.738281 56.625 105.738281 56.589844 105.738281 C 56.503906 105.738281 56.492188 105.769531 56.460938 105.859375 C 56.363281 106.132812 56.109375 106.375 55.847656 106.375 C 55.507812 106.375 55.507812 105.671875 55.507812 105.003906 C 56.625 103.667969 56.886719 102.277344 56.886719 102.277344 C 56.886719 102.179688 56.796875 102.179688 56.765625 102.179688 C 56.667969 102.179688 56.65625 102.210938 56.613281 102.40625 C 56.472656 102.890625 56.183594 103.746094 55.507812 104.644531 L 55.507812 103.710938 C 55.507812 102.648438 54.902344 101.652344 53.742188 101.652344 C 52.308594 101.652344 50.871094 103.21875 50.871094 104.773438 C 50.871094 105.726562 51.464844 106.59375 52.582031 106.59375 C 53.261719 106.59375 54.070312 106.332031 54.847656 105.671875 C 55.003906 106.285156 55.339844 106.59375 55.8125 106.59375 C 56.40625 106.59375 56.699219 105.980469 56.699219 105.835938 Z M 54.816406 105.410156 C 53.851562 106.277344 52.988281 106.375 52.601562 106.375 C 51.828125 106.375 51.605469 105.683594 51.605469 105.167969 C 51.605469 104.699219 51.847656 103.582031 52.1875 102.976562 C 52.636719 102.210938 53.25 101.871094 53.742188 101.871094 C 54.804688 101.871094 54.804688 103.261719 54.804688 104.183594 L 54.792969 105.015625 C 54.792969 105.234375 54.804688 105.289062 54.816406 105.410156 Z M 54.816406 105.410156 "/>
<path style=" stroke:none;fill-rule:evenodd;fill:rgb(0%,0%,0%);fill-opacity:1;" d="M 60.792969 109.144531 C 60.792969 109.113281 60.792969 109.089844 60.605469 108.90625 C 59.511719 107.796875 58.898438 105.988281 58.898438 103.757812 C 58.898438 101.632812 59.414062 99.800781 60.683594 98.507812 C 60.792969 98.410156 60.792969 98.386719 60.792969 98.355469 C 60.792969 98.289062 60.738281 98.269531 60.695312 98.269531 C 60.550781 98.269531 59.65625 99.058594 59.117188 100.128906 C 58.558594 101.234375 58.304688 102.40625 58.304688 103.757812 C 58.304688 104.730469 58.460938 106.035156 59.03125 107.207031 C 59.675781 108.519531 60.574219 109.234375 60.695312 109.234375 C 60.738281 109.234375 60.792969 109.210938 60.792969 109.144531 Z M 60.792969 109.144531 "/>
<path style=" stroke:none;fill-rule:evenodd;fill:rgb(0%,0%,0%);fill-opacity:1;" d="M 64.761719 104.917969 C 64.761719 104.851562 64.71875 104.816406 64.652344 104.816406 C 64.652344 104.816406 64.585938 104.816406 64.5625 104.863281 C 64.5625 104.863281 64.542969 104.882812 64.464844 105.058594 C 64.234375 105.605469 63.734375 106.375 63.097656 106.375 C 62.769531 106.375 62.746094 106.101562 62.746094 105.859375 C 62.746094 105.859375 62.746094 105.640625 62.777344 105.507812 L 63.632812 102.078125 L 64.640625 102.078125 C 64.851562 102.078125 64.960938 102.078125 64.960938 101.882812 C 64.960938 101.761719 64.894531 101.761719 64.675781 101.761719 L 63.710938 101.761719 L 64.117188 100.164062 C 64.160156 100.011719 64.160156 99.988281 64.160156 99.910156 C 64.160156 99.734375 64.015625 99.636719 63.875 99.636719 C 63.789062 99.636719 63.535156 99.667969 63.449219 100.019531 L 63.019531 101.761719 L 61.992188 101.761719 C 61.769531 101.761719 61.671875 101.761719 61.671875 101.96875 C 61.671875 102.078125 61.75 102.078125 61.957031 102.078125 L 62.933594 102.078125 L 62.210938 104.972656 C 62.121094 105.355469 62.089844 105.464844 62.089844 105.605469 C 62.089844 106.121094 62.449219 106.59375 63.066406 106.59375 C 64.171875 106.59375 64.761719 104.992188 64.761719 104.917969 Z M 64.761719 104.917969 "/>
<path style=" stroke:none;fill-rule:evenodd;fill:rgb(0%,0%,0%);fill-opacity:1;" d="M 68.417969 103.757812 C 68.417969 102.921875 68.308594 101.566406 67.699219 100.292969 C 67.050781 98.980469 66.152344 98.269531 66.03125 98.269531 C 65.988281 98.269531 65.933594 98.289062 65.933594 98.355469 C 65.933594 98.386719 65.933594 98.410156 66.121094 98.597656 C 67.214844 99.703125 67.828125 101.507812 67.828125 103.746094 C 67.828125 105.871094 67.3125 107.699219 66.042969 108.992188 C 65.933594 109.089844 65.933594 109.113281 65.933594 109.144531 C 65.933594 109.210938 65.988281 109.234375 66.03125 109.234375 C 66.175781 109.234375 67.074219 108.445312 67.609375 107.371094 C 68.167969 106.253906 68.417969 105.070312 68.417969 103.757812 Z M 68.417969 103.757812 "/>
<path style=" stroke:none;fill-rule:evenodd;fill:rgb(0%,0%,0%);fill-opacity:1;" d="M 73.1875 100.613281 L 72.953125 100.613281 C 72.929688 100.765625 72.867188 101.148438 72.773438 101.292969 C 72.726562 101.355469 72.144531 101.355469 72.023438 101.355469 L 70.660156 101.355469 L 71.691406 100.417969 C 71.816406 100.304688 72.136719 100.050781 72.261719 99.945312 C 72.734375 99.507812 73.1875 99.085938 73.1875 98.386719 C 73.1875 97.472656 72.421875 96.882812 71.460938 96.882812 C 70.542969 96.882812 69.9375 97.582031 69.9375 98.265625 C 69.9375 98.640625 70.238281 98.695312 70.34375 98.695312 C 70.503906 98.695312 70.742188 98.578125 70.742188 98.289062 C 70.742188 97.886719 70.359375 97.886719 70.265625 97.886719 C 70.488281 97.328125 71.003906 97.136719 71.378906 97.136719 C 72.09375 97.136719 72.460938 97.742188 72.460938 98.386719 C 72.460938 99.183594 71.898438 99.769531 70.996094 100.695312 L 70.027344 101.691406 C 69.9375 101.777344 69.9375 101.792969 69.9375 101.984375 L 72.964844 101.984375 Z M 73.1875 100.613281 "/>
<path style=" stroke:none;fill-rule:evenodd;fill:rgb(0%,0%,0%);fill-opacity:1;" d="M 79.34375 104.917969 C 79.34375 104.863281 79.296875 104.816406 79.234375 104.816406 C 79.132812 104.816406 79.125 104.871094 79.078125 105.035156 C 78.914062 105.683594 78.707031 106.375 78.257812 106.375 C 77.9375 106.375 77.917969 106.089844 77.917969 105.871094 C 77.917969 105.824219 77.917969 105.597656 77.992188 105.289062 L 79.539062 99.15625 C 79.550781 99.113281 79.570312 99.046875 79.570312 98.992188 C 79.570312 98.882812 79.441406 98.882812 79.441406 98.882812 C 79.441406 98.882812 78.890625 98.925781 78.835938 98.9375 C 78.652344 98.949219 78.488281 98.96875 78.289062 98.980469 C 78.015625 99.003906 77.9375 99.011719 77.9375 99.210938 C 77.9375 99.320312 78.027344 99.320312 78.179688 99.320312 C 78.71875 99.320312 78.726562 99.417969 78.726562 99.527344 C 78.726562 99.59375 78.707031 99.679688 78.695312 99.714844 L 78.027344 102.375 C 77.90625 102.089844 77.613281 101.652344 77.042969 101.652344 C 75.804688 101.652344 74.464844 103.25 74.464844 104.871094 C 74.464844 105.957031 75.101562 106.59375 75.847656 106.59375 C 76.449219 106.59375 76.964844 106.121094 77.273438 105.761719 C 77.382812 106.40625 77.894531 106.59375 78.226562 106.59375 C 78.554688 106.59375 78.816406 106.394531 79.015625 106 C 79.1875 105.628906 79.34375 104.960938 79.34375 104.917969 Z M 77.328125 105.179688 C 77.273438 105.367188 77.273438 105.386719 77.117188 105.597656 C 76.878906 105.902344 76.394531 106.375 75.878906 106.375 C 75.433594 106.375 75.179688 105.96875 75.179688 105.324219 C 75.179688 104.71875 75.519531 103.492188 75.726562 103.03125 C 76.097656 102.265625 76.613281 101.871094 77.042969 101.871094 C 77.765625 101.871094 77.90625 102.769531 77.90625 102.859375 C 77.90625 102.859375 77.875 103.011719 77.863281 103.03125 Z M 77.328125 105.179688 "/>
<path style=" stroke:none;fill-rule:evenodd;fill:rgb(0%,0%,0%);fill-opacity:1;" d="M 82.957031 104.917969 C 82.957031 104.851562 82.914062 104.816406 82.847656 104.816406 C 82.847656 104.816406 82.785156 104.816406 82.761719 104.863281 C 82.761719 104.863281 82.738281 104.882812 82.660156 105.058594 C 82.433594 105.605469 81.929688 106.375 81.292969 106.375 C 80.964844 106.375 80.941406 106.101562 80.941406 105.859375 C 80.941406 105.859375 80.941406 105.640625 80.976562 105.507812 L 81.828125 102.078125 L 82.839844 102.078125 C 83.046875 102.078125 83.15625 102.078125 83.15625 101.882812 C 83.15625 101.761719 83.089844 101.761719 82.871094 101.761719 L 81.90625 101.761719 L 82.3125 100.164062 C 82.355469 100.011719 82.355469 99.988281 82.355469 99.910156 C 82.355469 99.734375 82.214844 99.636719 82.070312 99.636719 C 81.984375 99.636719 81.730469 99.667969 81.644531 100.019531 L 81.21875 101.761719 L 80.1875 101.761719 C 79.96875 101.761719 79.867188 101.761719 79.867188 101.96875 C 79.867188 102.078125 79.945312 102.078125 80.15625 102.078125 L 81.128906 102.078125 L 80.40625 104.972656 C 80.320312 105.355469 80.285156 105.464844 80.285156 105.605469 C 80.285156 106.121094 80.648438 106.59375 81.261719 106.59375 C 82.367188 106.59375 82.957031 104.992188 82.957031 104.917969 Z M 82.957031 104.917969 "/>
<path style="fill:none;stroke-width:1;stroke-linecap:butt;stroke-linejoin:miter;stroke:rgb(0%,0%,0%);stroke-opacity:1;stroke-dasharray:4,4;stroke-miterlimit:3.25;" d="M 114.886719 38.871094 L 63.078125 91.15625 "/>
</g>
</svg>
