<?xml version="1.0" encoding="UTF-8"?>
<svg xmlns="http://www.w3.org/2000/svg" xmlns:xlink="http://www.w3.org/1999/xlink" width="500pt" height="405pt" viewBox="0 0 500 405" version="1.1">
<g id="surface14">
<path style=" stroke:none;fill-rule:nonzero;fill:rgb(100%,74.999619%,74.999619%);fill-opacity:1;" d="M 396.722656 233.394531 L 394.980469 231.101562 L 393.195312 228.835938 L 391.371094 226.605469 L 389.507812 224.40625 L 387.605469 222.242188 L 385.664062 220.113281 L 206.945312 27.382812 L 212.660156 26.71875 L 218.382812 26.160156 L 224.109375 25.707031 L 229.832031 25.367188 L 235.554688 25.128906 L 241.277344 25 Z M 396.722656 233.394531 "/>
<path style=" stroke:none;fill-rule:nonzero;fill:rgb(100%,92.500191%,92.500191%);fill-opacity:1;" d="M 428.851562 378.773438 L 428.851562 330.203125 L 428.824219 327.320312 L 428.75 324.4375 L 428.621094 321.558594 L 428.441406 318.683594 L 428.210938 315.808594 L 427.929688 312.941406 L 427.597656 310.078125 L 427.210938 307.222656 L 426.777344 304.371094 L 426.292969 301.53125 L 425.757812 298.699219 L 425.171875 295.875 L 424.535156 293.066406 L 423.847656 290.265625 L 423.113281 287.480469 L 422.328125 284.707031 L 421.492188 281.945312 L 420.609375 279.203125 L 419.675781 276.476562 L 418.695312 273.765625 L 417.667969 271.074219 L 416.589844 268.398438 L 415.46875 265.746094 L 414.296875 263.109375 L 413.078125 260.5 L 411.816406 257.90625 L 410.503906 255.339844 L 409.148438 252.796875 L 407.75 250.277344 L 406.304688 247.785156 L 404.816406 245.316406 L 403.28125 242.875 L 401.707031 240.460938 L 400.085938 238.078125 L 398.425781 235.722656 L 396.722656 233.394531 L 394.980469 231.101562 L 393.195312 228.835938 L 391.371094 226.605469 L 389.507812 224.40625 L 387.605469 222.242188 L 385.664062 220.113281 L 383.683594 218.015625 L 381.667969 215.953125 L 379.617188 213.929688 L 377.527344 211.945312 L 375.40625 209.992188 L 373.25 208.082031 L 371.058594 206.207031 L 368.835938 204.375 L 366.578125 202.582031 L 364.292969 200.828125 L 361.972656 199.113281 L 359.625 197.445312 L 357.246094 195.816406 L 354.839844 194.230469 L 352.40625 192.6875 L 349.945312 191.1875 L 347.457031 189.730469 L 344.941406 188.320312 L 342.40625 186.953125 L 339.84375 185.632812 L 337.257812 184.359375 L 334.648438 183.128906 L 332.019531 181.949219 L 329.371094 180.8125 L 326.703125 179.726562 L 324.015625 178.683594 L 321.308594 177.691406 L 318.585938 176.75 L 315.84375 175.855469 L 313.089844 175.007812 L 251.011719 156.550781 L 251.011719 378.773438 Z M 428.851562 378.773438 "/>
<path style=" stroke:none;fill-rule:evenodd;fill:rgb(0%,0%,0%);fill-opacity:1;" d="M 288.320312 350.359375 C 288.320312 350.179688 288.160156 350.179688 287.980469 350.179688 C 287.320312 350.160156 287.085938 350.019531 286.820312 349.375 L 284.335938 343.476562 C 284.316406 343.421875 284.242188 343.277344 284.242188 343.222656 C 284.242188 343.222656 284.261719 343.1875 284.566406 342.957031 L 286.300781 341.597656 C 288.695312 339.738281 289.484375 339.113281 290.714844 339.007812 C 290.84375 338.988281 291.019531 338.988281 291.019531 338.683594 C 291.019531 338.574219 290.96875 338.484375 290.824219 338.484375 C 290.628906 338.484375 290.410156 338.523438 290.21875 338.523438 L 289.539062 338.523438 C 288.980469 338.523438 288.390625 338.484375 287.855469 338.484375 C 287.730469 338.484375 287.515625 338.484375 287.515625 338.808594 C 287.515625 338.988281 287.640625 339.007812 287.75 339.007812 C 287.945312 339.023438 288.179688 339.09375 288.179688 339.34375 C 288.179688 339.703125 287.640625 340.128906 287.5 340.238281 L 280.488281 345.691406 L 281.976562 339.789062 C 282.132812 339.183594 282.167969 339.007812 283.441406 339.007812 C 283.78125 339.007812 283.941406 339.007812 283.941406 338.667969 C 283.941406 338.484375 283.761719 338.484375 283.671875 338.484375 C 283.351562 338.484375 282.976562 338.523438 282.636719 338.523438 L 280.527344 338.523438 C 280.203125 338.523438 279.808594 338.484375 279.488281 338.484375 C 279.34375 338.484375 279.148438 338.484375 279.148438 338.824219 C 279.148438 339.007812 279.308594 339.007812 279.578125 339.007812 C 280.667969 339.007812 280.667969 339.148438 280.667969 339.34375 C 280.667969 339.34375 280.667969 339.488281 280.597656 339.757812 L 278.183594 349.375 C 278.019531 350 277.984375 350.179688 276.734375 350.179688 C 276.394531 350.179688 276.214844 350.179688 276.214844 350.5 C 276.214844 350.699219 276.378906 350.699219 276.484375 350.699219 C 276.824219 350.699219 277.183594 350.664062 277.523438 350.664062 L 279.613281 350.664062 C 279.953125 350.664062 280.328125 350.699219 280.667969 350.699219 C 280.8125 350.699219 281.007812 350.699219 281.007812 350.359375 C 281.007812 350.179688 280.847656 350.179688 280.578125 350.179688 C 279.488281 350.179688 279.488281 350.035156 279.488281 349.855469 C 279.488281 349.734375 279.597656 349.285156 279.667969 349 L 280.363281 346.230469 L 283.082031 344.101562 L 285.28125 349.285156 C 285.335938 349.394531 285.371094 349.5 285.371094 349.625 C 285.371094 350.160156 284.65625 350.179688 284.492188 350.179688 C 284.335938 350.179688 284.15625 350.179688 284.15625 350.519531 C 284.15625 350.699219 284.351562 350.699219 284.40625 350.699219 C 285.03125 350.699219 285.691406 350.664062 286.316406 350.664062 L 287.175781 350.664062 C 287.445312 350.664062 287.75 350.699219 288.015625 350.699219 C 288.125 350.699219 288.320312 350.699219 288.320312 350.359375 Z M 288.320312 350.359375 "/>
<path style="fill:none;stroke-width:1;stroke-linecap:square;stroke-linejoin:miter;stroke:rgb(70.000763%,70.000763%,70.000763%);stroke-opacity:1;stroke-miterlimit:3.25;" d="M 428.851562 330.203125 L 428.851562 87.339844 "/>
<path style="fill:none;stroke-width:1;stroke-linecap:square;stroke-linejoin:miter;stroke:rgb(70.000763%,70.000763%,70.000763%);stroke-opacity:1;stroke-miterlimit:3.25;" d="M 427.929688 312.941406 L 401.734375 68.625 "/>
<path style="fill:none;stroke-width:1;stroke-linecap:square;stroke-linejoin:miter;stroke:rgb(70.000763%,70.000763%,70.000763%);stroke-opacity:1;stroke-miterlimit:3.25;" d="M 425.171875 295.875 L 372.472656 52.957031 "/>
<path style="fill:none;stroke-width:1;stroke-linecap:square;stroke-linejoin:miter;stroke:rgb(70.000763%,70.000763%,70.000763%);stroke-opacity:1;stroke-miterlimit:3.25;" d="M 420.609375 279.203125 L 341.414062 40.578125 "/>
<path style="fill:none;stroke-width:1;stroke-linecap:square;stroke-linejoin:miter;stroke:rgb(70.000763%,70.000763%,70.000763%);stroke-opacity:1;stroke-miterlimit:3.25;" d="M 414.296875 263.109375 L 308.929688 31.691406 "/>
<path style="fill:none;stroke-width:1;stroke-linecap:square;stroke-linejoin:miter;stroke:rgb(70.000763%,70.000763%,70.000763%);stroke-opacity:1;stroke-miterlimit:3.25;" d="M 406.304688 247.785156 L 275.414062 26.460938 "/>
<path style="fill:none;stroke-width:1;stroke-linecap:square;stroke-linejoin:miter;stroke:rgb(70.000763%,70.000763%,70.000763%);stroke-opacity:1;stroke-miterlimit:3.25;" d="M 396.722656 233.394531 L 241.277344 25 "/>
<path style="fill:none;stroke-width:1;stroke-linecap:square;stroke-linejoin:miter;stroke:rgb(70.000763%,70.000763%,70.000763%);stroke-opacity:1;stroke-miterlimit:3.25;" d="M 385.664062 220.113281 L 206.945312 27.382812 "/>
<path style="fill:none;stroke-width:1;stroke-linecap:square;stroke-linejoin:miter;stroke:rgb(70.000763%,70.000763%,70.000763%);stroke-opacity:1;stroke-miterlimit:3.25;" d="M 373.25 208.082031 L 172.851562 33.632812 "/>
<path style="fill:none;stroke-width:1;stroke-linecap:square;stroke-linejoin:miter;stroke:rgb(70.000763%,70.000763%,70.000763%);stroke-opacity:1;stroke-miterlimit:3.25;" d="M 359.625 197.445312 L 139.429688 43.71875 "/>
<path style="fill:none;stroke-width:1;stroke-linecap:square;stroke-linejoin:miter;stroke:rgb(70.000763%,70.000763%,70.000763%);stroke-opacity:1;stroke-miterlimit:3.25;" d="M 344.941406 188.320312 L 107.113281 57.570312 "/>
<path style="fill:none;stroke-width:1;stroke-linecap:square;stroke-linejoin:miter;stroke:rgb(70.000763%,70.000763%,70.000763%);stroke-opacity:1;stroke-miterlimit:3.25;" d="M 329.371094 180.8125 L 76.324219 75.066406 "/>
<path style="fill:none;stroke-width:1;stroke-linecap:square;stroke-linejoin:miter;stroke:rgb(70.000763%,70.000763%,70.000763%);stroke-opacity:1;stroke-miterlimit:3.25;" d="M 313.089844 175.007812 L 47.476562 96.027344 "/>
<path style="fill:none;stroke-width:1.232275;stroke-linecap:butt;stroke-linejoin:miter;stroke:rgb(100%,0%,0%);stroke-opacity:1;stroke-miterlimit:3.25;" d="M 396.722656 233.394531 L 250.195312 36.953125 "/>
<path style=" stroke:none;fill-rule:nonzero;fill:rgb(100%,0%,0%);fill-opacity:1;" d="M 247.632812 40.753906 L 247.886719 40.269531 L 248.515625 39.140625 L 248.917969 38.492188 L 249.34375 37.871094 L 249.777344 37.335938 L 250.195312 36.953125 L 250.636719 36.695312 L 251.261719 36.4375 L 252 36.191406 L 252.773438 35.964844 L 254.121094 35.617188 L 254.703125 35.480469 L 241.277344 25 Z M 247.632812 40.753906 "/>
<path style="fill:none;stroke-width:4;stroke-linecap:butt;stroke-linejoin:round;stroke:rgb(100%,100%,100%);stroke-opacity:0.666667;stroke-miterlimit:3.239307;" d="M 321.492188 126.707031 L 322.703125 125.539062 L 323.707031 124.660156 L 324.535156 124.03125 L 325.210938 123.613281 L 325.769531 123.355469 L 326.238281 123.226562 L 326.648438 123.175781 L 327.027344 123.167969 L 329.027344 123.167969 "/>
<path style="fill:none;stroke-width:1.25;stroke-linecap:square;stroke-linejoin:miter;stroke:rgb(66.666667%,66.666667%,66.666667%);stroke-opacity:1;stroke-miterlimit:3.25;" d="M 321.492188 126.707031 L 322.703125 125.539062 L 323.707031 124.660156 L 324.535156 124.03125 L 325.210938 123.613281 L 325.769531 123.355469 L 326.238281 123.226562 L 326.648438 123.175781 L 327.027344 123.167969 L 329.027344 123.167969 "/>
<path style=" stroke:none;fill-rule:nonzero;fill:rgb(100%,100%,100%);fill-opacity:0.666667;" d="M 383.027344 104.570312 L 383.027344 135.570312 L 329.027344 135.570312 L 329.027344 104.570312 Z M 383.027344 104.570312 "/>
<path style=" stroke:none;fill-rule:evenodd;fill:rgb(0%,0%,0%);fill-opacity:1;" d="M 343.4375 112.769531 C 343.4375 112.011719 342.675781 111.59375 341.878906 111.59375 C 341.101562 111.59375 340.339844 112.171875 339.976562 112.878906 C 339.652344 113.515625 339.472656 114.164062 339.054688 116.539062 L 337.839844 116.539062 C 337.496094 116.539062 337.316406 116.539062 337.316406 116.863281 C 337.316406 117.0625 337.425781 117.0625 337.785156 117.0625 L 338.945312 117.0625 L 337.460938 124.777344 C 337.152344 126.355469 336.882812 127.679688 335.972656 127.679688 C 335.917969 127.679688 335.394531 127.679688 335.070312 127.332031 C 335.992188 127.261719 335.992188 126.445312 335.992188 126.445312 C 335.992188 126.082031 335.71875 125.867188 335.378906 125.867188 C 335.015625 125.867188 334.472656 126.175781 334.472656 126.863281 C 334.472656 127.640625 335.269531 128.039062 335.972656 128.039062 C 337.820312 128.039062 338.582031 124.726562 338.78125 123.820312 L 340.085938 117.0625 L 341.625 117.0625 C 341.988281 117.0625 342.132812 117.0625 342.132812 116.71875 C 342.132812 116.539062 341.988281 116.539062 341.664062 116.539062 L 340.195312 116.539062 L 340.9375 112.804688 C 341.046875 112.371094 341.425781 111.957031 341.898438 111.957031 C 342.277344 111.957031 342.65625 112.117188 342.839844 112.28125 C 342.132812 112.355469 341.917969 112.878906 341.917969 113.1875 C 341.917969 113.550781 342.1875 113.769531 342.53125 113.769531 C 342.894531 113.769531 343.4375 113.460938 343.4375 112.769531 Z M 343.4375 112.769531 "/>
<path style=" stroke:none;fill-rule:evenodd;fill:rgb(0%,0%,0%);fill-opacity:1;" d="M 350.070312 128.746094 C 350.070312 128.691406 350.070312 128.65625 349.761719 128.347656 C 347.953125 126.515625 346.9375 123.53125 346.9375 119.832031 C 346.9375 116.320312 347.789062 113.296875 349.890625 111.160156 C 350.070312 110.996094 350.070312 110.960938 350.070312 110.90625 C 350.070312 110.796875 349.980469 110.761719 349.90625 110.761719 C 349.671875 110.761719 348.1875 112.0625 347.296875 113.839844 C 346.375 115.667969 345.960938 117.605469 345.960938 119.832031 C 345.960938 121.445312 346.210938 123.601562 347.152344 125.542969 C 348.222656 127.714844 349.707031 128.890625 349.90625 128.890625 C 349.980469 128.890625 350.070312 128.855469 350.070312 128.746094 Z M 350.070312 128.746094 "/>
<path style=" stroke:none;fill-rule:evenodd;fill:rgb(0%,0%,0%);fill-opacity:1;" d="M 356.679688 121.753906 C 356.679688 121.644531 356.609375 121.589844 356.5 121.589844 C 356.5 121.589844 356.390625 121.589844 356.355469 121.664062 C 356.355469 121.664062 356.316406 121.699219 356.191406 121.988281 C 355.808594 122.898438 354.976562 124.164062 353.925781 124.164062 C 353.382812 124.164062 353.347656 123.710938 353.347656 123.3125 C 353.347656 123.3125 353.347656 122.949219 353.398438 122.734375 L 354.8125 117.0625 L 356.480469 117.0625 C 356.824219 117.0625 357.007812 117.0625 357.007812 116.738281 C 357.007812 116.539062 356.898438 116.539062 356.535156 116.539062 L 354.941406 116.539062 L 355.609375 113.894531 C 355.683594 113.640625 355.683594 113.605469 355.683594 113.476562 C 355.683594 113.1875 355.445312 113.023438 355.210938 113.023438 C 355.066406 113.023438 354.652344 113.078125 354.507812 113.660156 L 353.800781 116.539062 L 352.097656 116.539062 C 351.734375 116.539062 351.570312 116.539062 351.570312 116.882812 C 351.570312 117.0625 351.699219 117.0625 352.042969 117.0625 L 353.65625 117.0625 L 352.460938 121.84375 C 352.316406 122.480469 352.261719 122.660156 352.261719 122.898438 C 352.261719 123.746094 352.859375 124.523438 353.871094 124.523438 C 355.699219 124.523438 356.679688 121.878906 356.679688 121.753906 Z M 356.679688 121.753906 "/>
<path style=" stroke:none;fill-rule:evenodd;fill:rgb(0%,0%,0%);fill-opacity:1;" d="M 362.660156 119.832031 C 362.660156 118.460938 362.480469 116.214844 361.46875 114.113281 C 360.398438 111.9375 358.914062 110.761719 358.714844 110.761719 C 358.640625 110.761719 358.550781 110.796875 358.550781 110.90625 C 358.550781 110.960938 358.550781 110.996094 358.859375 111.304688 C 360.671875 113.132812 361.683594 116.121094 361.683594 119.816406 C 361.683594 123.332031 360.832031 126.355469 358.734375 128.492188 C 358.550781 128.65625 358.550781 128.691406 358.550781 128.746094 C 358.550781 128.855469 358.640625 128.890625 358.714844 128.890625 C 358.949219 128.890625 360.433594 127.585938 361.324219 125.8125 C 362.246094 123.964844 362.660156 122.007812 362.660156 119.832031 Z M 362.660156 119.832031 "/>
<path style=" stroke:none;fill-rule:evenodd;fill:rgb(0%,0%,0%);fill-opacity:1;" d="M 372.820312 117.570312 C 372.820312 116.429688 372.242188 116.359375 372.097656 116.359375 C 371.664062 116.359375 371.261719 116.792969 371.261719 117.152344 C 371.261719 117.371094 371.390625 117.496094 371.464844 117.570312 C 371.644531 117.734375 372.117188 118.222656 372.117188 119.164062 C 372.117188 119.925781 371.027344 124.164062 368.855469 124.164062 C 367.75 124.164062 367.535156 123.242188 367.535156 122.570312 C 367.535156 121.664062 367.949219 120.398438 368.4375 119.09375 C 368.726562 118.351562 368.800781 118.167969 368.800781 117.804688 C 368.800781 117.042969 368.257812 116.359375 367.371094 116.359375 C 365.703125 116.359375 365.035156 118.984375 365.035156 119.128906 C 365.035156 119.199219 365.105469 119.289062 365.234375 119.289062 C 365.398438 119.289062 365.414062 119.21875 365.488281 118.964844 C 365.921875 117.40625 366.625 116.71875 367.316406 116.71875 C 367.480469 116.71875 367.789062 116.71875 367.789062 117.316406 C 367.789062 117.789062 367.589844 118.3125 367.316406 119 C 366.445312 121.320312 366.445312 121.878906 366.445312 122.316406 C 366.445312 122.714844 366.5 123.457031 367.0625 123.964844 C 367.714844 124.523438 368.621094 124.523438 368.78125 124.523438 C 371.789062 124.523438 372.820312 118.605469 372.820312 117.570312 Z M 372.820312 117.570312 "/>
<path style=" stroke:none;fill-rule:evenodd;fill:rgb(0%,0%,0%);fill-opacity:1;" d="M 377.160156 125.355469 C 377.160156 125.222656 377.050781 125.195312 376.976562 125.195312 C 376.84375 125.195312 376.832031 125.246094 376.746094 125.425781 C 376.507812 126.003906 375.902344 126.863281 375.167969 126.863281 C 374.914062 126.863281 374.769531 126.691406 374.769531 126.292969 C 374.769531 126.066406 374.804688 125.933594 374.839844 125.777344 L 375.722656 122.273438 L 376.90625 122.273438 C 377.136719 122.273438 377.28125 122.273438 377.28125 122.042969 C 377.28125 121.875 377.121094 121.875 376.917969 121.875 L 375.820312 121.875 L 376.253906 120.160156 C 376.300781 119.980469 376.300781 119.90625 376.300781 119.90625 C 376.300781 119.652344 376.109375 119.53125 375.902344 119.53125 C 375.492188 119.53125 375.410156 119.859375 375.277344 120.402344 L 374.902344 121.875 L 373.742188 121.875 C 373.511719 121.875 373.355469 121.875 373.355469 122.105469 C 373.355469 122.273438 373.511719 122.273438 373.71875 122.273438 L 374.804688 122.273438 L 374.078125 125.171875 C 374.007812 125.476562 373.898438 125.898438 373.898438 126.066406 C 373.898438 126.789062 374.488281 127.199219 375.132812 127.199219 C 376.421875 127.199219 377.160156 125.5 377.160156 125.355469 Z M 377.160156 125.355469 "/>
<path style="fill:none;stroke-width:2.464549;stroke-linecap:square;stroke-linejoin:miter;stroke:rgb(0%,0%,0%);stroke-opacity:1;stroke-miterlimit:3.25;" d="M 428.851562 378.773438 L 428.851562 330.203125 L 428.824219 327.320312 L 428.75 324.4375 L 428.621094 321.558594 L 428.441406 318.683594 L 428.210938 315.808594 L 427.929688 312.941406 L 427.597656 310.078125 L 427.210938 307.222656 L 426.777344 304.371094 L 426.292969 301.53125 L 425.757812 298.699219 L 425.171875 295.875 L 424.535156 293.066406 L 423.847656 290.265625 L 423.113281 287.480469 L 422.328125 284.707031 L 421.492188 281.945312 L 420.609375 279.203125 L 419.675781 276.476562 L 418.695312 273.765625 L 417.667969 271.074219 L 416.589844 268.398438 L 415.46875 265.746094 L 414.296875 263.109375 L 413.078125 260.5 L 411.816406 257.90625 L 410.503906 255.339844 L 409.148438 252.796875 L 407.75 250.277344 L 406.304688 247.785156 L 404.816406 245.316406 L 403.28125 242.875 L 401.707031 240.460938 L 400.085938 238.078125 L 398.425781 235.722656 L 396.722656 233.394531 L 394.980469 231.101562 L 393.195312 228.835938 L 391.371094 226.605469 L 389.507812 224.40625 L 387.605469 222.242188 L 385.664062 220.113281 L 383.683594 218.015625 L 381.667969 215.953125 L 379.617188 213.929688 L 377.527344 211.945312 L 375.40625 209.992188 L 373.25 208.082031 L 371.058594 206.207031 L 368.835938 204.375 L 366.578125 202.582031 L 364.292969 200.828125 L 361.972656 199.113281 L 359.625 197.445312 L 357.246094 195.816406 L 354.839844 194.230469 L 352.40625 192.6875 L 349.945312 191.1875 L 347.457031 189.730469 L 344.941406 188.320312 L 342.40625 186.953125 L 339.84375 185.632812 L 337.257812 184.359375 L 334.648438 183.128906 L 332.019531 181.949219 L 329.371094 180.8125 L 326.703125 179.726562 L 324.015625 178.683594 L 321.308594 177.691406 L 318.585938 176.75 L 315.84375 175.855469 L 313.089844 175.007812 L 251.011719 156.550781 "/>
<path style=" stroke:none;fill-rule:evenodd;fill:rgb(0%,0%,0%);fill-opacity:1;" d="M 432.5 379 C 432.5 378.070312 432.132812 377.179688 431.476562 376.523438 C 430.820312 375.867188 429.929688 375.5 429 375.5 C 428.070312 375.5 427.179688 375.867188 426.523438 376.523438 C 425.867188 377.179688 425.5 378.070312 425.5 379 C 425.5 379.929688 425.867188 380.820312 426.523438 381.476562 C 427.179688 382.132812 428.070312 382.5 429 382.5 C 429.929688 382.5 430.820312 382.132812 431.476562 381.476562 C 432.132812 380.820312 432.5 379.929688 432.5 379 Z M 432.5 379 "/>
<path style=" stroke:none;fill-rule:evenodd;fill:rgb(0%,0%,0%);fill-opacity:1;" d="M 432.996094 390.253906 C 432.996094 388.609375 432.066406 387.449219 430.726562 387.449219 C 429.582031 387.449219 428.617188 388.554688 428.417969 388.804688 C 428.277344 387.914062 427.578125 387.449219 426.863281 387.449219 C 426.347656 387.449219 425.933594 387.695312 425.59375 388.375 C 425.273438 389.019531 425.023438 390.109375 425.023438 390.183594 C 425.023438 390.253906 425.09375 390.34375 425.21875 390.34375 C 425.363281 390.34375 425.378906 390.324219 425.484375 389.914062 C 425.753906 388.859375 426.09375 387.804688 426.808594 387.804688 C 427.222656 387.804688 427.363281 388.089844 427.363281 388.625 C 427.363281 389.054688 427.3125 389.234375 427.238281 389.558594 L 425.21875 397.601562 C 425.09375 398.136719 425.023438 398.28125 424.289062 398.28125 C 424.074219 398.28125 423.894531 398.28125 423.894531 398.621094 C 423.894531 398.621094 423.914062 398.796875 424.109375 398.796875 C 424.34375 398.796875 424.59375 398.761719 424.824219 398.761719 L 425.59375 398.761719 L 427.257812 398.796875 C 427.363281 398.796875 427.578125 398.796875 427.578125 398.476562 C 427.578125 398.28125 427.453125 398.28125 427.148438 398.28125 C 426.328125 398.28125 426.273438 398.152344 426.273438 398.011719 C 426.273438 397.796875 427.078125 394.722656 427.183594 394.3125 C 427.382812 394.8125 427.863281 395.507812 428.792969 395.507812 C 430.8125 395.507812 432.996094 392.882812 432.996094 390.253906 Z M 430.882812 393.328125 C 430.4375 394.292969 429.617188 395.152344 428.792969 395.152344 C 427.578125 395.152344 427.382812 393.613281 427.382812 393.542969 C 427.382812 393.488281 427.417969 393.347656 427.433594 393.257812 L 428.3125 389.753906 C 428.4375 389.253906 428.9375 388.734375 429.222656 388.484375 C 429.421875 388.304688 430.011719 387.804688 430.691406 387.804688 C 431.476562 387.804688 431.832031 388.589844 431.832031 389.523438 C 431.832031 390.378906 431.332031 392.398438 430.882812 393.328125 Z M 430.882812 393.328125 "/>
<path style=" stroke:none;fill-rule:evenodd;fill:rgb(0%,0%,0%);fill-opacity:1;" d="M 254.5 157 C 254.5 156.070312 254.132812 155.179688 253.476562 154.523438 C 252.820312 153.867188 251.929688 153.5 251 153.5 C 250.070312 153.5 249.179688 153.867188 248.523438 154.523438 C 247.867188 155.179688 247.5 156.070312 247.5 157 C 247.5 157.929688 247.867188 158.820312 248.523438 159.476562 C 249.179688 160.132812 250.070312 160.5 251 160.5 C 251.929688 160.5 252.820312 160.132812 253.476562 159.476562 C 254.132812 158.820312 254.5 157.929688 254.5 157 Z M 254.5 157 "/>
<path style=" stroke:none;fill-rule:evenodd;fill:rgb(0%,0%,0%);fill-opacity:1;" d="M 253.644531 176.238281 C 253.644531 176.058594 253.5 176.058594 253.234375 176.058594 C 252.394531 176.058594 252.339844 175.933594 252.339844 175.789062 C 252.339844 175.699219 252.359375 175.683594 252.414062 175.449219 L 254.894531 165.402344 C 254.894531 165.3125 254.824219 165.242188 254.738281 165.242188 C 254.59375 165.242188 253.894531 165.886719 253.554688 166.511719 C 253.234375 165.707031 252.679688 165.222656 251.910156 165.222656 C 249.890625 165.222656 247.710938 167.832031 247.710938 170.480469 C 247.710938 172.25 248.746094 173.285156 249.964844 173.285156 C 250.910156 173.285156 251.699219 172.570312 252.074219 172.160156 L 252.089844 172.179688 L 251.410156 174.859375 L 251.25 175.503906 C 251.089844 176.039062 250.820312 176.039062 249.980469 176.058594 C 249.785156 176.058594 249.605469 176.058594 249.605469 176.398438 C 249.605469 176.523438 249.710938 176.578125 249.835938 176.578125 C 250.085938 176.578125 250.410156 176.542969 250.660156 176.542969 L 252.484375 176.542969 C 252.75 176.542969 253.054688 176.578125 253.324219 176.578125 C 253.429688 176.578125 253.644531 176.578125 253.644531 176.238281 Z M 252.378906 170.980469 C 252.289062 171.285156 252.289062 171.320312 252.039062 171.660156 C 251.644531 172.160156 250.855469 172.929688 250.015625 172.929688 C 249.285156 172.929688 248.871094 172.265625 248.871094 171.210938 C 248.871094 170.230469 249.425781 168.226562 249.765625 167.476562 C 250.375 166.226562 251.214844 165.582031 251.910156 165.582031 C 253.089844 165.582031 253.324219 167.046875 253.324219 167.191406 C 253.324219 167.191406 253.269531 167.441406 253.253906 167.476562 Z M 252.378906 170.980469 "/>
<path style=" stroke:none;fill-rule:evenodd;fill:rgb(0%,0%,0%);fill-opacity:1;" d="M 400.5 233 C 400.5 232.070312 400.132812 231.179688 399.476562 230.523438 C 398.820312 229.867188 397.929688 229.5 397 229.5 C 396.070312 229.5 395.179688 229.867188 394.523438 230.523438 C 393.867188 231.179688 393.5 232.070312 393.5 233 C 393.5 233.929688 393.867188 234.820312 394.523438 235.476562 C 395.179688 236.132812 396.070312 236.5 397 236.5 C 397.929688 236.5 398.820312 236.132812 399.476562 235.476562 C 400.132812 234.820312 400.5 233.929688 400.5 233 Z M 400.5 233 "/>
<path style=" stroke:none;fill-rule:evenodd;fill:rgb(0%,0%,0%);fill-opacity:1;" d="M 356.136719 243.269531 C 356.136719 242.140625 355.566406 242.070312 355.421875 242.070312 C 354.992188 242.070312 354.597656 242.5 354.597656 242.855469 C 354.597656 243.070312 354.726562 243.195312 354.796875 243.269531 C 354.976562 243.425781 355.441406 243.910156 355.441406 244.839844 C 355.441406 245.59375 354.367188 249.777344 352.222656 249.777344 C 351.132812 249.777344 350.917969 248.863281 350.917969 248.199219 C 350.917969 247.308594 351.328125 246.054688 351.8125 244.769531 C 352.097656 244.035156 352.167969 243.855469 352.167969 243.5 C 352.167969 242.746094 351.632812 242.070312 350.757812 242.070312 C 349.109375 242.070312 348.449219 244.664062 348.449219 244.804688 C 348.449219 244.875 348.523438 244.964844 348.648438 244.964844 C 348.808594 244.964844 348.824219 244.894531 348.898438 244.644531 C 349.328125 243.105469 350.023438 242.425781 350.703125 242.425781 C 350.863281 242.425781 351.167969 242.425781 351.167969 243.015625 C 351.167969 243.480469 350.972656 244 350.703125 244.679688 C 349.84375 246.96875 349.84375 247.519531 349.84375 247.953125 C 349.84375 248.34375 349.898438 249.078125 350.453125 249.578125 C 351.097656 250.132812 351.992188 250.132812 352.152344 250.132812 C 355.121094 250.132812 356.136719 244.289062 356.136719 243.269531 Z M 356.136719 243.269531 "/>
<path style=" stroke:none;fill-rule:evenodd;fill:rgb(0%,0%,0%);fill-opacity:1;" d="M 366.246094 239.625 C 366.246094 239.351562 365.984375 239.351562 365.816406 239.351562 L 362.3125 239.351562 L 362.3125 235.835938 C 362.3125 235.667969 362.3125 235.40625 362.039062 235.40625 C 361.765625 235.40625 361.765625 235.667969 361.765625 235.835938 L 361.765625 239.351562 L 358.25 239.351562 C 358.082031 239.351562 357.820312 239.351562 357.820312 239.625 C 357.820312 239.898438 358.082031 239.898438 358.25 239.898438 L 361.765625 239.898438 L 361.765625 243.414062 C 361.765625 243.582031 361.765625 243.84375 362.039062 243.84375 C 362.3125 243.84375 362.3125 243.582031 362.3125 243.414062 L 362.3125 239.898438 L 365.816406 239.898438 C 365.984375 239.898438 366.246094 239.898438 366.246094 239.625 Z M 366.246094 239.625 "/>
<path style=" stroke:none;fill-rule:evenodd;fill:rgb(0%,0%,0%);fill-opacity:1;" d="M 365.859375 254.527344 C 365.859375 254.359375 365.695312 254.359375 365.625 254.359375 C 365.15625 254.347656 365.003906 254.261719 364.8125 253.859375 L 362.917969 249.960938 L 362.847656 249.804688 C 362.847656 249.804688 363.046875 249.640625 363.167969 249.554688 C 364.109375 248.863281 365.394531 247.9375 365.789062 247.683594 C 366.394531 247.304688 366.839844 247.050781 367.375 247.003906 C 367.46875 246.992188 367.636719 246.980469 367.636719 246.765625 C 367.625 246.683594 367.554688 246.613281 367.46875 246.613281 C 367.46875 246.613281 367.125 246.648438 367.039062 246.648438 L 366.566406 246.648438 C 366.359375 246.648438 366.0625 246.648438 365.957031 246.636719 C 365.875 246.636719 365.40625 246.613281 365.324219 246.613281 C 365.242188 246.613281 365.074219 246.613281 365.074219 246.839844 C 365.074219 246.839844 365.085938 246.992188 365.265625 247.003906 C 365.359375 247.015625 365.550781 247.039062 365.550781 247.183594 C 365.550781 247.375 365.3125 247.578125 365.289062 247.589844 L 365.195312 247.671875 C 365.15625 247.707031 365.109375 247.753906 365.050781 247.792969 L 360.1875 251.320312 L 361.128906 247.542969 C 361.234375 247.113281 361.257812 247.003906 362.132812 247.003906 C 362.367188 247.003906 362.511719 247.003906 362.511719 246.777344 C 362.511719 246.777344 362.5 246.613281 362.308594 246.613281 C 362.082031 246.613281 361.796875 246.636719 361.570312 246.648438 L 360.820312 246.648438 C 359.675781 246.648438 359.367188 246.613281 359.28125 246.613281 C 359.222656 246.613281 359.042969 246.613281 359.042969 246.839844 C 359.042969 247.003906 359.1875 247.003906 359.390625 247.003906 C 359.78125 247.003906 360.128906 247.003906 360.128906 247.195312 C 360.128906 247.246094 360.117188 247.257812 360.082031 247.410156 L 358.484375 253.8125 C 358.375 254.261719 358.351562 254.359375 357.46875 254.359375 C 357.242188 254.359375 357.101562 254.359375 357.101562 254.585938 C 357.101562 254.632812 357.136719 254.753906 357.292969 254.753906 C 357.515625 254.753906 357.804688 254.730469 358.03125 254.71875 L 359.566406 254.71875 C 359.757812 254.730469 360.152344 254.753906 360.332031 254.753906 C 360.390625 254.753906 360.566406 254.753906 360.566406 254.539062 C 360.566406 254.359375 360.425781 254.359375 360.222656 254.359375 C 360.140625 254.359375 359.972656 254.359375 359.769531 254.335938 C 359.519531 254.3125 359.484375 254.289062 359.484375 254.167969 C 359.484375 254.097656 359.566406 253.800781 359.601562 253.609375 C 359.734375 253.085938 359.578125 253.742188 360.058594 251.808594 L 361.972656 250.425781 L 363.40625 253.371094 L 363.632812 253.835938 C 363.703125 253.953125 363.703125 253.976562 363.703125 254.027344 C 363.703125 254.347656 363.261719 254.359375 363.132812 254.359375 C 363.011719 254.359375 362.847656 254.359375 362.847656 254.585938 C 362.847656 254.585938 362.859375 254.753906 363.046875 254.753906 C 363.167969 254.753906 363.621094 254.730469 363.726562 254.71875 L 364.417969 254.71875 C 365.515625 254.71875 365.480469 254.753906 365.632812 254.753906 C 365.679688 254.753906 365.859375 254.753906 365.859375 254.527344 Z M 365.859375 254.527344 "/>
<path style=" stroke:none;fill-rule:evenodd;fill:rgb(0%,0%,0%);fill-opacity:1;" d="M 374.625 254.296875 C 374.625 254.246094 374.625 254.210938 374.320312 253.90625 C 372.535156 252.097656 371.53125 249.148438 371.53125 245.5 C 371.53125 242.03125 372.371094 239.046875 374.445312 236.9375 C 374.625 236.777344 374.625 236.742188 374.625 236.6875 C 374.625 236.578125 374.535156 236.542969 374.464844 236.542969 C 374.234375 236.542969 372.765625 237.832031 371.890625 239.582031 C 370.976562 241.390625 370.566406 243.304688 370.566406 245.5 C 370.566406 247.09375 370.816406 249.21875 371.746094 251.132812 C 372.800781 253.277344 374.269531 254.441406 374.464844 254.441406 C 374.535156 254.441406 374.625 254.40625 374.625 254.296875 Z M 374.625 254.296875 "/>
<path style=" stroke:none;fill-rule:evenodd;fill:rgb(0%,0%,0%);fill-opacity:1;" d="M 381 247.398438 C 381 247.289062 380.929688 247.234375 380.820312 247.234375 C 380.820312 247.234375 380.710938 247.234375 380.675781 247.308594 C 380.675781 247.308594 380.640625 247.34375 380.515625 247.628906 C 380.140625 248.523438 379.316406 249.777344 378.28125 249.777344 C 377.746094 249.777344 377.707031 249.328125 377.707031 248.933594 C 377.707031 248.933594 377.707031 248.578125 377.761719 248.363281 L 379.15625 242.765625 L 380.800781 242.765625 C 381.140625 242.765625 381.320312 242.765625 381.320312 242.445312 C 381.320312 242.25 381.214844 242.25 380.855469 242.25 L 379.28125 242.25 L 379.945312 239.636719 C 380.015625 239.386719 380.015625 239.351562 380.015625 239.226562 C 380.015625 238.9375 379.78125 238.78125 379.550781 238.78125 C 379.40625 238.78125 378.996094 238.832031 378.855469 239.40625 L 378.15625 242.25 L 376.476562 242.25 C 376.121094 242.25 375.957031 242.25 375.957031 242.589844 C 375.957031 242.765625 376.082031 242.765625 376.421875 242.765625 L 378.011719 242.765625 L 376.835938 247.484375 C 376.691406 248.113281 376.636719 248.289062 376.636719 248.523438 C 376.636719 249.363281 377.226562 250.132812 378.226562 250.132812 C 380.03125 250.132812 381 247.519531 381 247.398438 Z M 381 247.398438 "/>
<path style=" stroke:none;fill-rule:evenodd;fill:rgb(0%,0%,0%);fill-opacity:1;" d="M 386.902344 245.5 C 386.902344 244.144531 386.726562 241.925781 385.726562 239.851562 C 384.671875 237.707031 383.203125 236.542969 383.007812 236.542969 C 382.9375 236.542969 382.847656 236.578125 382.847656 236.6875 C 382.847656 236.742188 382.847656 236.777344 383.148438 237.082031 C 384.9375 238.886719 385.9375 241.835938 385.9375 245.484375 C 385.9375 248.953125 385.097656 251.9375 383.027344 254.046875 C 382.847656 254.210938 382.847656 254.246094 382.847656 254.296875 C 382.847656 254.40625 382.9375 254.441406 383.007812 254.441406 C 383.238281 254.441406 384.707031 253.15625 385.582031 251.402344 C 386.492188 249.578125 386.902344 247.648438 386.902344 245.5 Z M 386.902344 245.5 "/>
<path style="fill:none;stroke-width:2.464549;stroke-linecap:square;stroke-linejoin:miter;stroke:rgb(0%,0%,0%);stroke-opacity:1;stroke-miterlimit:3.25;" d="M 428.851562 87.339844 L 424.492188 84.019531 L 420.070312 80.777344 L 415.578125 77.617188 L 411.027344 74.535156 L 406.410156 71.539062 L 401.734375 68.625 L 396.996094 65.792969 L 392.199219 63.050781 L 387.347656 60.394531 L 382.441406 57.824219 L 377.484375 55.34375 L 372.472656 52.957031 L 367.410156 50.65625 L 362.300781 48.453125 L 357.144531 46.339844 L 351.945312 44.324219 L 346.699219 42.402344 L 341.414062 40.578125 L 336.089844 38.847656 L 330.726562 37.21875 L 325.328125 35.6875 L 319.894531 34.253906 L 314.425781 32.921875 L 308.929688 31.691406 L 303.40625 30.5625 L 297.851562 29.535156 L 292.277344 28.609375 L 286.675781 27.789062 L 281.054688 27.070312 L 275.414062 26.460938 L 269.753906 25.953125 L 264.082031 25.550781 L 258.394531 25.253906 L 252.699219 25.0625 L 246.992188 24.976562 L 241.277344 25 L 235.554688 25.128906 L 229.832031 25.367188 L 224.109375 25.707031 L 218.382812 26.160156 L 212.660156 26.71875 L 206.945312 27.382812 L 201.234375 28.15625 L 195.53125 29.035156 L 189.839844 30.023438 L 184.160156 31.121094 L 178.496094 32.324219 L 172.851562 33.632812 L 167.222656 35.046875 L 161.613281 36.570312 L 156.027344 38.199219 L 150.46875 39.933594 L 144.933594 41.773438 L 139.429688 43.71875 L 133.953125 45.769531 L 128.511719 47.925781 L 123.105469 50.183594 L 117.734375 52.542969 L 112.402344 55.007812 L 107.113281 57.570312 L 101.863281 60.238281 L 96.660156 63.007812 L 91.503906 65.875 L 86.394531 68.839844 L 81.332031 71.902344 L 76.324219 75.066406 L 71.371094 78.324219 L 66.472656 81.675781 L 61.632812 85.125 L 56.851562 88.667969 L 52.132812 92.300781 L 47.476562 96.027344 "/>
<path style=" stroke:none;fill-rule:evenodd;fill:rgb(0%,0%,0%);fill-opacity:1;" d="M 432.5 87 C 432.5 86.070312 432.132812 85.179688 431.476562 84.523438 C 430.820312 83.867188 429.929688 83.5 429 83.5 C 428.070312 83.5 427.179688 83.867188 426.523438 84.523438 C 425.867188 85.179688 425.5 86.070312 425.5 87 C 425.5 87.929688 425.867188 88.820312 426.523438 89.476562 C 427.179688 90.132812 428.070312 90.5 429 90.5 C 429.929688 90.5 430.820312 90.132812 431.476562 89.476562 C 432.132812 88.820312 432.5 87.929688 432.5 87 Z M 432.5 87 "/>
<path style=" stroke:none;fill-rule:evenodd;fill:rgb(0%,0%,0%);fill-opacity:1;" d="M 447 84.472656 L 447 83.703125 C 446.394531 83.738281 446.320312 83.738281 445.589844 83.738281 L 444.050781 83.703125 L 444.050781 84.472656 C 444.050781 84.472656 444.910156 84.472656 444.910156 84.707031 C 444.910156 84.757812 444.855469 84.867188 444.839844 84.917969 L 442.746094 89.425781 L 440.457031 84.472656 L 441.441406 84.472656 L 441.441406 83.703125 C 441.011719 83.738281 439.792969 83.738281 439.296875 83.738281 C 438.777344 83.738281 437.71875 83.738281 437.257812 83.703125 L 437.257812 84.472656 L 438.398438 84.472656 L 441.710938 91.644531 C 441.621094 91.859375 441.371094 92.375 441.28125 92.589844 C 440.902344 93.394531 440.332031 94.628906 439.078125 94.628906 C 439.007812 94.628906 438.792969 94.628906 438.597656 94.519531 C 438.632812 94.503906 439.167969 94.289062 439.167969 93.609375 C 439.167969 93.019531 438.738281 92.644531 438.203125 92.644531 C 437.648438 92.644531 437.222656 93.019531 437.222656 93.628906 C 437.222656 94.464844 438.007812 95.21875 439.078125 95.21875 C 440.546875 95.21875 441.511719 93.894531 441.867188 93.109375 L 445.675781 84.867188 C 445.785156 84.617188 445.859375 84.472656 447 84.472656 Z M 447 84.472656 "/>
<path style=" stroke:none;fill-rule:evenodd;fill:rgb(0%,0%,0%);fill-opacity:1;" d="M 453.285156 95.988281 C 453.285156 95.933594 453.285156 95.898438 452.984375 95.59375 C 451.195312 93.785156 450.195312 90.839844 450.195312 87.191406 C 450.195312 83.722656 451.035156 80.734375 453.109375 78.625 C 453.285156 78.464844 453.285156 78.429688 453.285156 78.375 C 453.285156 78.269531 453.199219 78.234375 453.128906 78.234375 C 452.894531 78.234375 451.429688 79.519531 450.550781 81.273438 C 449.640625 83.078125 449.230469 84.992188 449.230469 87.191406 C 449.230469 88.78125 449.476562 90.910156 450.410156 92.824219 C 451.464844 94.96875 452.929688 96.128906 453.128906 96.128906 C 453.199219 96.128906 453.285156 96.09375 453.285156 95.988281 Z M 453.285156 95.988281 "/>
<path style=" stroke:none;fill-rule:evenodd;fill:rgb(0%,0%,0%);fill-opacity:1;" d="M 459.8125 89.085938 C 459.8125 88.976562 459.742188 88.925781 459.632812 88.925781 C 459.632812 88.925781 459.523438 88.925781 459.488281 88.996094 C 459.488281 88.996094 459.453125 89.03125 459.328125 89.316406 C 458.953125 90.214844 458.128906 91.464844 457.09375 91.464844 C 456.558594 91.464844 456.519531 91.015625 456.519531 90.625 C 456.519531 90.625 456.519531 90.265625 456.574219 90.050781 L 457.96875 84.453125 L 459.613281 84.453125 C 459.953125 84.453125 460.132812 84.453125 460.132812 84.132812 C 460.132812 83.9375 460.027344 83.9375 459.667969 83.9375 L 458.09375 83.9375 L 458.757812 81.328125 C 458.828125 81.074219 458.828125 81.039062 458.828125 80.917969 C 458.828125 80.628906 458.59375 80.46875 458.363281 80.46875 C 458.21875 80.46875 457.808594 80.523438 457.667969 81.09375 L 456.96875 83.9375 L 455.289062 83.9375 C 454.933594 83.9375 454.769531 83.9375 454.769531 84.277344 C 454.769531 84.453125 454.894531 84.453125 455.234375 84.453125 L 456.824219 84.453125 L 455.648438 89.175781 C 455.503906 89.800781 455.449219 89.980469 455.449219 90.214844 C 455.449219 91.050781 456.039062 91.820312 457.042969 91.820312 C 458.84375 91.820312 459.8125 89.210938 459.8125 89.085938 Z M 459.8125 89.085938 "/>
<path style=" stroke:none;fill-rule:evenodd;fill:rgb(0%,0%,0%);fill-opacity:1;" d="M 466.503906 90.542969 C 466.503906 89.265625 466.375 88.492188 465.980469 87.726562 C 465.457031 86.679688 464.492188 86.417969 463.835938 86.417969 C 462.332031 86.417969 461.785156 87.535156 461.617188 87.871094 C 461.1875 88.742188 461.164062 89.921875 461.164062 90.542969 C 461.164062 91.328125 461.199219 92.53125 461.773438 93.484375 C 462.320312 94.367188 463.203125 94.59375 463.835938 94.59375 C 464.40625 94.59375 465.429688 94.414062 466.027344 93.234375 C 466.46875 92.375 466.503906 91.316406 466.503906 90.542969 Z M 465.441406 90.398438 C 465.441406 91.101562 465.441406 92.171875 465.300781 92.839844 C 465.050781 94.089844 464.230469 94.257812 463.835938 94.257812 C 463.429688 94.257812 462.605469 94.066406 462.355469 92.816406 C 462.226562 92.136719 462.226562 91.015625 462.226562 90.398438 C 462.226562 89.574219 462.226562 88.742188 462.355469 88.085938 C 462.605469 86.867188 463.539062 86.75 463.835938 86.75 C 464.242188 86.75 465.0625 86.953125 465.300781 88.035156 C 465.441406 88.691406 465.441406 89.585938 465.441406 90.398438 Z M 465.441406 90.398438 "/>
<path style=" stroke:none;fill-rule:evenodd;fill:rgb(0%,0%,0%);fill-opacity:1;" d="M 472.765625 87.191406 C 472.765625 85.832031 472.589844 83.617188 471.585938 81.542969 C 470.53125 79.394531 469.066406 78.234375 468.867188 78.234375 C 468.796875 78.234375 468.710938 78.269531 468.710938 78.375 C 468.710938 78.429688 468.710938 78.464844 469.011719 78.769531 C 470.800781 80.578125 471.800781 83.523438 471.800781 87.171875 C 471.800781 90.640625 470.960938 93.628906 468.886719 95.738281 C 468.710938 95.898438 468.710938 95.933594 468.710938 95.988281 C 468.710938 96.09375 468.796875 96.128906 468.867188 96.128906 C 469.101562 96.128906 470.566406 94.84375 471.445312 93.089844 C 472.355469 91.269531 472.765625 89.335938 472.765625 87.191406 Z M 472.765625 87.191406 "/>
<path style=" stroke:none;fill-rule:evenodd;fill:rgb(0%,0%,0%);fill-opacity:1;" d="M 50.5 96 C 50.5 95.070312 50.132812 94.179688 49.476562 93.523438 C 48.820312 92.867188 47.929688 92.5 47 92.5 C 46.070312 92.5 45.179688 92.867188 44.523438 93.523438 C 43.867188 94.179688 43.5 95.070312 43.5 96 C 43.5 96.929688 43.867188 97.820312 44.523438 98.476562 C 45.179688 99.132812 46.070312 99.5 47 99.5 C 47.929688 99.5 48.820312 99.132812 49.476562 98.476562 C 50.132812 97.820312 50.5 96.929688 50.5 96 Z M 50.5 96 "/>
<path style=" stroke:none;fill-rule:evenodd;fill:rgb(0%,0%,0%);fill-opacity:1;" d="M 11.890625 93.164062 L 11.890625 92.394531 C 11.285156 92.429688 11.210938 92.429688 10.476562 92.429688 L 8.941406 92.394531 L 8.941406 93.164062 C 8.941406 93.164062 9.796875 93.164062 9.796875 93.394531 C 9.796875 93.449219 9.746094 93.558594 9.726562 93.609375 L 7.636719 98.117188 L 5.347656 93.164062 L 6.332031 93.164062 L 6.332031 92.394531 C 5.902344 92.429688 4.683594 92.429688 4.1875 92.429688 C 3.667969 92.429688 2.609375 92.429688 2.148438 92.394531 L 2.148438 93.164062 L 3.289062 93.164062 L 6.601562 100.332031 C 6.511719 100.546875 6.261719 101.066406 6.171875 101.277344 C 5.792969 102.085938 5.222656 103.316406 3.96875 103.316406 C 3.898438 103.316406 3.683594 103.316406 3.488281 103.210938 C 3.523438 103.195312 4.058594 102.976562 4.058594 102.296875 C 4.058594 101.707031 3.628906 101.332031 3.09375 101.332031 C 2.539062 101.332031 2.113281 101.707031 2.113281 102.316406 C 2.113281 103.15625 2.898438 103.910156 3.96875 103.910156 C 5.4375 103.910156 6.402344 102.585938 6.757812 101.800781 L 10.566406 93.558594 C 10.675781 93.304688 10.746094 93.164062 11.890625 93.164062 Z M 11.890625 93.164062 "/>
<path style=" stroke:none;fill-rule:evenodd;fill:rgb(0%,0%,0%);fill-opacity:1;" d="M 18.175781 104.675781 C 18.175781 104.625 18.175781 104.589844 17.875 104.285156 C 16.085938 102.476562 15.085938 99.527344 15.085938 95.878906 C 15.085938 92.410156 15.925781 89.425781 18 87.316406 C 18.175781 87.15625 18.175781 87.121094 18.175781 87.066406 C 18.175781 86.957031 18.089844 86.921875 18.019531 86.921875 C 17.785156 86.921875 16.320312 88.210938 15.441406 89.960938 C 14.53125 91.769531 14.121094 93.679688 14.121094 95.878906 C 14.121094 97.472656 14.367188 99.597656 15.300781 101.511719 C 16.355469 103.65625 17.820312 104.820312 18.019531 104.820312 C 18.089844 104.820312 18.175781 104.785156 18.175781 104.675781 Z M 18.175781 104.675781 "/>
<path style=" stroke:none;fill-rule:evenodd;fill:rgb(0%,0%,0%);fill-opacity:1;" d="M 24.703125 97.777344 C 24.703125 97.667969 24.632812 97.613281 24.523438 97.613281 C 24.523438 97.613281 24.414062 97.613281 24.378906 97.6875 C 24.378906 97.6875 24.34375 97.722656 24.21875 98.007812 C 23.84375 98.902344 23.019531 100.15625 21.984375 100.15625 C 21.449219 100.15625 21.410156 99.707031 21.410156 99.3125 C 21.410156 99.3125 21.410156 98.957031 21.464844 98.742188 L 22.859375 93.144531 L 24.503906 93.144531 C 24.84375 93.144531 25.023438 93.144531 25.023438 92.824219 C 25.023438 92.625 24.917969 92.625 24.558594 92.625 L 22.984375 92.625 L 23.648438 90.015625 C 23.71875 89.765625 23.71875 89.730469 23.71875 89.605469 C 23.71875 89.316406 23.484375 89.160156 23.253906 89.160156 C 23.109375 89.160156 22.699219 89.210938 22.558594 89.785156 L 21.859375 92.625 L 20.179688 92.625 C 19.820312 92.625 19.660156 92.625 19.660156 92.964844 C 19.660156 93.144531 19.785156 93.144531 20.125 93.144531 L 21.714844 93.144531 L 20.535156 97.863281 C 20.394531 98.492188 20.339844 98.667969 20.339844 98.902344 C 20.339844 99.742188 20.929688 100.511719 21.929688 100.511719 C 23.734375 100.511719 24.703125 97.898438 24.703125 97.777344 Z M 24.703125 97.777344 "/>
<path style=" stroke:none;fill-rule:evenodd;fill:rgb(0%,0%,0%);fill-opacity:1;" d="M 30.894531 103.03125 L 30.894531 102.636719 L 30.476562 102.636719 C 29.34375 102.636719 29.308594 102.496094 29.308594 102.054688 L 29.308594 95.4375 C 29.308594 95.117188 29.285156 95.105469 28.964844 95.105469 C 28.476562 95.582031 27.84375 95.867188 26.710938 95.867188 L 26.710938 96.261719 C 27.035156 96.261719 27.675781 96.261719 28.367188 95.941406 L 28.367188 102.054688 C 28.367188 102.496094 28.332031 102.636719 27.199219 102.636719 L 26.78125 102.636719 L 26.78125 103.03125 C 27.269531 102.996094 28.296875 102.996094 28.832031 102.996094 C 29.367188 102.996094 30.40625 102.996094 30.894531 103.03125 Z M 30.894531 103.03125 "/>
<path style=" stroke:none;fill-rule:evenodd;fill:rgb(0%,0%,0%);fill-opacity:1;" d="M 37.65625 95.878906 C 37.65625 94.523438 37.480469 92.304688 36.476562 90.230469 C 35.421875 88.085938 33.957031 86.921875 33.757812 86.921875 C 33.6875 86.921875 33.601562 86.957031 33.601562 87.066406 C 33.601562 87.121094 33.601562 87.15625 33.902344 87.460938 C 35.691406 89.265625 36.691406 92.214844 36.691406 95.863281 C 36.691406 99.332031 35.851562 102.316406 33.777344 104.425781 C 33.601562 104.589844 33.601562 104.625 33.601562 104.675781 C 33.601562 104.785156 33.6875 104.820312 33.757812 104.820312 C 33.992188 104.820312 35.457031 103.535156 36.335938 101.78125 C 37.246094 99.957031 37.65625 98.027344 37.65625 95.878906 Z M 37.65625 95.878906 "/>
<path style=" stroke:none;fill-rule:evenodd;fill:rgb(0%,0%,0%);fill-opacity:1;" d="M 244.5 25 C 244.5 24.070312 244.132812 23.179688 243.476562 22.523438 C 242.820312 21.867188 241.929688 21.5 241 21.5 C 240.070312 21.5 239.179688 21.867188 238.523438 22.523438 C 237.867188 23.179688 237.5 24.070312 237.5 25 C 237.5 25.929688 237.867188 26.820312 238.523438 27.476562 C 239.179688 28.132812 240.070312 28.5 241 28.5 C 241.929688 28.5 242.820312 28.132812 243.476562 27.476562 C 244.132812 26.820312 244.5 25.929688 244.5 25 Z M 244.5 25 "/>
<path style=" stroke:none;fill-rule:evenodd;fill:rgb(0%,0%,0%);fill-opacity:1;" d="M 229.628906 9.882812 L 229.628906 9.113281 C 229.023438 9.148438 228.949219 9.148438 228.214844 9.148438 L 226.679688 9.113281 L 226.679688 9.882812 C 226.679688 9.882812 227.535156 9.882812 227.535156 10.113281 C 227.535156 10.167969 227.484375 10.273438 227.46875 10.328125 L 225.375 14.832031 L 223.085938 9.882812 L 224.070312 9.882812 L 224.070312 9.113281 C 223.640625 9.148438 222.421875 9.148438 221.925781 9.148438 C 221.40625 9.148438 220.347656 9.148438 219.886719 9.113281 L 219.886719 9.882812 L 221.027344 9.882812 L 224.339844 17.050781 C 224.25 17.265625 224 17.785156 223.910156 17.996094 C 223.53125 18.804688 222.960938 20.035156 221.707031 20.035156 C 221.636719 20.035156 221.421875 20.035156 221.226562 19.929688 C 221.261719 19.914062 221.796875 19.695312 221.796875 19.015625 C 221.796875 18.425781 221.367188 18.050781 220.832031 18.050781 C 220.277344 18.050781 219.851562 18.425781 219.851562 19.035156 C 219.851562 19.875 220.636719 20.625 221.707031 20.625 C 223.175781 20.625 224.140625 19.304688 224.496094 18.519531 L 228.304688 10.273438 C 228.414062 10.023438 228.484375 9.882812 229.628906 9.882812 Z M 229.628906 9.882812 "/>
<path style=" stroke:none;fill-rule:evenodd;fill:rgb(0%,0%,0%);fill-opacity:1;" d="M 235.914062 21.394531 C 235.914062 21.339844 235.914062 21.304688 235.613281 21 C 233.824219 19.195312 232.824219 16.246094 232.824219 12.597656 C 232.824219 9.128906 233.664062 6.144531 235.738281 4.035156 C 235.914062 3.871094 235.914062 3.835938 235.914062 3.785156 C 235.914062 3.675781 235.828125 3.640625 235.757812 3.640625 C 235.523438 3.640625 234.058594 4.925781 233.179688 6.679688 C 232.269531 8.488281 231.859375 10.398438 231.859375 12.597656 C 231.859375 14.1875 232.105469 16.316406 233.039062 18.230469 C 234.09375 20.375 235.558594 21.539062 235.757812 21.539062 C 235.828125 21.539062 235.914062 21.503906 235.914062 21.394531 Z M 235.914062 21.394531 "/>
<path style=" stroke:none;fill-rule:evenodd;fill:rgb(0%,0%,0%);fill-opacity:1;" d="M 242.441406 14.492188 C 242.441406 14.386719 242.371094 14.332031 242.261719 14.332031 C 242.261719 14.332031 242.152344 14.332031 242.117188 14.40625 C 242.117188 14.40625 242.082031 14.441406 241.957031 14.726562 C 241.582031 15.621094 240.757812 16.871094 239.722656 16.871094 C 239.1875 16.871094 239.148438 16.425781 239.148438 16.03125 C 239.148438 16.03125 239.148438 15.675781 239.203125 15.460938 L 240.597656 9.863281 L 242.242188 9.863281 C 242.582031 9.863281 242.761719 9.863281 242.761719 9.542969 C 242.761719 9.34375 242.65625 9.34375 242.296875 9.34375 L 240.722656 9.34375 L 241.386719 6.734375 C 241.457031 6.484375 241.457031 6.449219 241.457031 6.324219 C 241.457031 6.035156 241.222656 5.875 240.992188 5.875 C 240.847656 5.875 240.4375 5.929688 240.296875 6.503906 L 239.597656 9.34375 L 237.917969 9.34375 C 237.558594 9.34375 237.398438 9.34375 237.398438 9.683594 C 237.398438 9.863281 237.523438 9.863281 237.863281 9.863281 L 239.453125 9.863281 L 238.273438 14.582031 C 238.132812 15.207031 238.078125 15.386719 238.078125 15.621094 C 238.078125 16.460938 238.667969 17.230469 239.667969 17.230469 C 241.472656 17.230469 242.441406 14.617188 242.441406 14.492188 Z M 242.441406 14.492188 "/>
<path style=" stroke:none;fill-rule:evenodd;fill:rgb(0%,0%,0%);fill-opacity:1;" d="M 248.34375 12.597656 C 248.34375 11.242188 248.167969 9.023438 247.167969 6.949219 C 246.113281 4.804688 244.644531 3.640625 244.449219 3.640625 C 244.378906 3.640625 244.289062 3.675781 244.289062 3.785156 C 244.289062 3.835938 244.289062 3.871094 244.589844 4.175781 C 246.378906 5.984375 247.378906 8.933594 247.378906 12.582031 C 247.378906 16.050781 246.542969 19.035156 244.46875 21.144531 C 244.289062 21.304688 244.289062 21.339844 244.289062 21.394531 C 244.289062 21.503906 244.378906 21.539062 244.449219 21.539062 C 244.679688 21.539062 246.148438 20.25 247.023438 18.5 C 247.933594 16.675781 248.34375 14.746094 248.34375 12.597656 Z M 248.34375 12.597656 "/>
<path style=" stroke:none;fill-rule:evenodd;fill:rgb(0%,0%,0%);fill-opacity:1;" d="M 111.421875 230.035156 L 111.421875 229.519531 C 110.257812 229.519531 109.933594 229.519531 109.6875 228.785156 L 105.785156 217.59375 C 105.714844 217.378906 105.679688 217.269531 105.429688 217.269531 C 105.179688 217.269531 105.144531 217.324219 105.054688 217.609375 L 101.316406 228.300781 C 101.066406 229.035156 100.566406 229.5 99.421875 229.519531 L 99.421875 230.035156 L 101.136719 230 C 101.640625 230 102.496094 230 102.960938 230.035156 L 102.960938 229.519531 C 102.210938 229.5 101.765625 229.125 101.765625 228.625 C 101.765625 228.519531 101.765625 228.480469 101.851562 228.25 L 102.675781 225.871094 L 107.183594 225.871094 L 108.164062 228.675781 C 108.253906 228.894531 108.253906 228.929688 108.253906 228.980469 C 108.253906 229.519531 107.34375 229.519531 106.894531 229.519531 L 106.894531 230.035156 C 107.308594 230 108.71875 230 109.21875 230 C 109.722656 230 111.007812 230 111.421875 230.035156 Z M 107.003906 225.351562 L 102.855469 225.351562 L 104.929688 219.398438 Z M 107.003906 225.351562 "/>
<path style=" stroke:none;fill-rule:evenodd;fill:rgb(0%,0%,0%);fill-opacity:1;" d="M 118.378906 223.1875 C 118.378906 222.652344 117.894531 222.152344 117.128906 222.152344 C 115.609375 222.152344 115.089844 223.796875 114.984375 224.136719 L 114.964844 224.136719 L 114.964844 222.152344 L 112.570312 222.347656 L 112.570312 222.867188 C 113.78125 222.867188 113.925781 222.992188 113.925781 223.867188 L 113.925781 228.710938 C 113.925781 229.519531 113.730469 229.519531 112.570312 229.519531 L 112.570312 230.035156 C 113.066406 230 114.050781 230 114.589844 230 C 115.070312 230 116.339844 230 116.753906 230.035156 L 116.753906 229.519531 L 116.394531 229.519531 C 115.089844 229.519531 115.054688 229.320312 115.054688 228.675781 L 115.054688 225.871094 C 115.054688 224.136719 115.769531 222.507812 117.144531 222.507812 C 117.289062 222.507812 117.324219 222.507812 117.394531 222.527344 C 117.25 222.597656 116.964844 222.707031 116.964844 223.1875 C 116.964844 223.707031 117.378906 223.902344 117.664062 223.902344 C 118.019531 223.902344 118.378906 223.671875 118.378906 223.1875 Z M 118.378906 223.1875 "/>
<path style=" stroke:none;fill-rule:evenodd;fill:rgb(0%,0%,0%);fill-opacity:1;" d="M 126.09375 227.910156 C 126.09375 227.800781 126.003906 227.730469 125.898438 227.730469 C 125.753906 227.730469 125.71875 227.820312 125.683594 227.910156 C 125.21875 229.410156 124.019531 229.820312 123.269531 229.820312 C 122.519531 229.820312 120.714844 229.320312 120.714844 226.226562 L 120.714844 225.886719 L 125.664062 225.886719 C 126.058594 225.886719 126.09375 225.886719 126.09375 225.546875 C 126.09375 223.746094 125.128906 222.0625 122.964844 222.0625 C 120.925781 222.0625 119.355469 223.902344 119.355469 226.121094 C 119.355469 228.480469 121.175781 230.214844 123.164062 230.214844 C 125.289062 230.214844 126.09375 228.285156 126.09375 227.910156 Z M 124.984375 225.546875 L 120.730469 225.546875 C 120.871094 222.742188 122.449219 222.421875 122.945312 222.421875 C 124.863281 222.421875 124.96875 224.941406 124.984375 225.546875 Z M 124.984375 225.546875 "/>
<path style=" stroke:none;fill-rule:evenodd;fill:rgb(0%,0%,0%);fill-opacity:1;" d="M 135.089844 228.445312 L 135.089844 227.445312 L 134.699219 227.445312 L 134.699219 228.445312 C 134.699219 229.464844 134.269531 229.609375 134.019531 229.609375 C 133.339844 229.609375 133.339844 228.660156 133.339844 228.390625 L 133.339844 225.261719 C 133.339844 224.296875 133.339844 223.582031 132.554688 222.882812 C 131.925781 222.3125 131.125 222.0625 130.335938 222.0625 C 128.871094 222.0625 127.746094 223.027344 127.746094 224.191406 C 127.746094 224.710938 128.085938 224.957031 128.496094 224.957031 C 128.921875 224.957031 129.226562 224.65625 129.226562 224.226562 C 129.226562 223.492188 128.582031 223.492188 128.316406 223.492188 C 128.726562 222.742188 129.585938 222.421875 130.300781 222.421875 C 131.125 222.421875 132.179688 223.097656 132.179688 224.710938 L 132.179688 225.425781 C 128.582031 225.476562 127.222656 226.976562 127.222656 228.355469 C 127.222656 229.769531 128.871094 230.214844 129.960938 230.214844 C 131.140625 230.214844 131.945312 229.5 132.285156 228.640625 C 132.355469 229.480469 132.910156 230.125 133.679688 230.125 C 134.054688 230.125 135.089844 229.875 135.089844 228.445312 Z M 132.179688 227.515625 C 132.179688 229.269531 130.875 229.859375 130.105469 229.859375 C 129.226562 229.859375 128.496094 229.214844 128.496094 228.355469 C 128.496094 225.996094 131.535156 225.78125 132.179688 225.746094 Z M 132.179688 227.515625 "/>
<path style=" stroke:none;fill-rule:evenodd;fill:rgb(0%,0%,0%);fill-opacity:1;" d="M 153.207031 223.921875 C 153.207031 223.582031 152.902344 223.582031 152.636719 223.582031 L 142.105469 223.582031 C 141.851562 223.582031 141.53125 223.582031 141.53125 223.902344 C 141.53125 224.242188 141.835938 224.242188 142.105469 224.242188 L 152.636719 224.242188 C 152.886719 224.242188 153.207031 224.242188 153.207031 223.921875 Z M 153.207031 227.246094 C 153.207031 226.90625 152.902344 226.90625 152.636719 226.90625 L 142.105469 226.90625 C 141.851562 226.90625 141.53125 226.90625 141.53125 227.230469 C 141.53125 227.570312 141.835938 227.570312 142.105469 227.570312 L 152.636719 227.570312 C 152.886719 227.570312 153.207031 227.570312 153.207031 227.246094 Z M 153.207031 227.246094 "/>
<path style=" stroke:none;fill-rule:evenodd;fill:rgb(0%,0%,0%);fill-opacity:1;" d="M 168.449219 217.886719 L 168.449219 217.371094 L 167.890625 217.371094 C 166.320312 217.371094 166.265625 217.152344 166.265625 216.511719 L 166.265625 206.425781 C 166.265625 206.015625 166.265625 205.996094 165.910156 205.996094 C 165.476562 206.480469 164.585938 207.140625 162.742188 207.140625 L 162.742188 207.660156 C 163.15625 207.660156 164.046875 207.660156 165.03125 207.195312 L 165.03125 216.511719 C 165.03125 217.152344 164.980469 217.371094 163.40625 217.371094 L 162.851562 217.371094 L 162.851562 217.886719 C 163.332031 217.851562 165.066406 217.851562 165.660156 217.851562 C 166.25 217.851562 167.964844 217.851562 168.449219 217.886719 Z M 168.449219 217.886719 "/>
<path style="fill:none;stroke-width:0.716985;stroke-linecap:square;stroke-linejoin:miter;stroke:rgb(0%,0%,0%);stroke-opacity:1;stroke-miterlimit:10;" d="M 161.066406 225.558594 L 169.847656 225.558594 "/>
<path style=" stroke:none;fill-rule:evenodd;fill:rgb(0%,0%,0%);fill-opacity:1;" d="M 168.984375 239.332031 L 168.589844 239.332031 C 168.535156 239.636719 168.394531 240.621094 168.214844 240.90625 C 168.089844 241.066406 167.070312 241.066406 166.535156 241.066406 L 163.226562 241.066406 C 163.707031 240.65625 164.800781 239.511719 165.265625 239.082031 C 167.984375 236.578125 168.984375 235.648438 168.984375 233.878906 C 168.984375 231.824219 167.355469 230.445312 165.285156 230.445312 C 163.210938 230.445312 161.992188 232.214844 161.992188 233.753906 C 161.992188 234.664062 162.78125 234.664062 162.832031 234.664062 C 163.210938 234.664062 163.671875 234.398438 163.671875 233.828125 C 163.671875 233.324219 163.332031 232.984375 162.832031 232.984375 C 162.671875 232.984375 162.636719 232.984375 162.582031 233.003906 C 162.921875 231.789062 163.890625 230.964844 165.050781 230.964844 C 166.570312 230.964844 167.5 232.234375 167.5 233.878906 C 167.5 235.398438 166.625 236.722656 165.605469 237.867188 L 161.992188 241.90625 L 161.992188 242.335938 L 168.519531 242.335938 Z M 168.984375 239.332031 "/>
<path style=" stroke:none;fill-rule:evenodd;fill:rgb(0%,0%,0%);fill-opacity:1;" d="M 181.378906 218.613281 C 181.378906 217.863281 180.628906 217.449219 179.839844 217.449219 C 179.070312 217.449219 178.320312 218.019531 177.960938 218.71875 C 177.640625 219.34375 177.464844 219.988281 177.050781 222.332031 L 175.851562 222.332031 C 175.511719 222.332031 175.335938 222.332031 175.335938 222.652344 C 175.335938 222.847656 175.441406 222.847656 175.800781 222.847656 L 176.941406 222.847656 L 175.476562 230.464844 C 175.171875 232.023438 174.90625 233.328125 174.011719 233.328125 C 173.957031 233.328125 173.4375 233.328125 173.117188 232.988281 C 174.03125 232.914062 174.03125 232.109375 174.03125 232.109375 C 174.03125 231.753906 173.761719 231.539062 173.421875 231.539062 C 173.0625 231.539062 172.527344 231.84375 172.527344 232.519531 C 172.527344 233.289062 173.316406 233.683594 174.011719 233.683594 C 175.835938 233.683594 176.585938 230.410156 176.785156 229.519531 L 178.070312 222.847656 L 179.589844 222.847656 C 179.949219 222.847656 180.089844 222.847656 180.089844 222.507812 C 180.089844 222.332031 179.949219 222.332031 179.625 222.332031 L 178.179688 222.332031 L 178.910156 218.648438 C 179.015625 218.21875 179.394531 217.808594 179.859375 217.808594 C 180.234375 217.808594 180.609375 217.96875 180.789062 218.128906 C 180.089844 218.203125 179.878906 218.71875 179.878906 219.023438 C 179.878906 219.378906 180.144531 219.597656 180.484375 219.597656 C 180.84375 219.597656 181.378906 219.292969 181.378906 218.613281 Z M 181.378906 218.613281 "/>
<path style=" stroke:none;fill-rule:evenodd;fill:rgb(0%,0%,0%);fill-opacity:1;" d="M 188.074219 234.382812 C 188.074219 234.328125 188.074219 234.292969 187.773438 233.988281 C 185.984375 232.179688 184.984375 229.234375 184.984375 225.582031 C 184.984375 222.113281 185.824219 219.128906 187.898438 217.019531 C 188.074219 216.859375 188.074219 216.824219 188.074219 216.769531 C 188.074219 216.660156 187.988281 216.625 187.917969 216.625 C 187.683594 216.625 186.21875 217.914062 185.339844 219.667969 C 184.429688 221.472656 184.019531 223.386719 184.019531 225.582031 C 184.019531 227.175781 184.265625 229.304688 185.199219 231.21875 C 186.253906 233.363281 187.71875 234.523438 187.917969 234.523438 C 187.988281 234.523438 188.074219 234.488281 188.074219 234.382812 Z M 188.074219 234.382812 "/>
<path style=" stroke:none;fill-rule:evenodd;fill:rgb(0%,0%,0%);fill-opacity:1;" d="M 194.449219 227.480469 C 194.449219 227.371094 194.378906 227.316406 194.273438 227.316406 C 194.273438 227.316406 194.164062 227.316406 194.128906 227.390625 C 194.128906 227.390625 194.09375 227.425781 193.96875 227.710938 C 193.59375 228.605469 192.769531 229.859375 191.734375 229.859375 C 191.199219 229.859375 191.160156 229.410156 191.160156 229.015625 C 191.160156 229.015625 191.160156 228.660156 191.214844 228.445312 L 192.609375 222.847656 L 194.253906 222.847656 C 194.59375 222.847656 194.773438 222.847656 194.773438 222.527344 C 194.773438 222.332031 194.667969 222.332031 194.308594 222.332031 L 192.734375 222.332031 L 193.394531 219.71875 C 193.46875 219.46875 193.46875 219.433594 193.46875 219.308594 C 193.46875 219.023438 193.234375 218.863281 193.003906 218.863281 C 192.859375 218.863281 192.449219 218.917969 192.304688 219.488281 L 191.609375 222.332031 L 189.925781 222.332031 C 189.570312 222.332031 189.410156 222.332031 189.410156 222.671875 C 189.410156 222.847656 189.535156 222.847656 189.875 222.847656 L 191.464844 222.847656 L 190.285156 227.570312 C 190.144531 228.195312 190.089844 228.371094 190.089844 228.605469 C 190.089844 229.445312 190.679688 230.214844 191.679688 230.214844 C 193.484375 230.214844 194.449219 227.605469 194.449219 227.480469 Z M 194.449219 227.480469 "/>
<path style=" stroke:none;fill-rule:evenodd;fill:rgb(0%,0%,0%);fill-opacity:1;" d="M 200.355469 225.582031 C 200.355469 224.226562 200.179688 222.007812 199.179688 219.9375 C 198.125 217.789062 196.65625 216.625 196.460938 216.625 C 196.390625 216.625 196.300781 216.660156 196.300781 216.769531 C 196.300781 216.824219 196.300781 216.859375 196.601562 217.164062 C 198.390625 218.96875 199.390625 221.917969 199.390625 225.566406 C 199.390625 229.035156 198.550781 232.023438 196.476562 234.132812 C 196.300781 234.292969 196.300781 234.328125 196.300781 234.382812 C 196.300781 234.488281 196.390625 234.523438 196.460938 234.523438 C 196.691406 234.523438 198.160156 233.238281 199.035156 231.484375 C 199.945312 229.660156 200.355469 227.730469 200.355469 225.582031 Z M 200.355469 225.582031 "/>
<path style=" stroke:none;fill-rule:evenodd;fill:rgb(0%,0%,0%);fill-opacity:1;" d="M 207.902344 220.554688 L 207.53125 220.554688 C 207.496094 220.789062 207.398438 221.390625 207.257812 221.613281 C 207.1875 221.710938 206.28125 221.710938 206.089844 221.710938 L 203.96875 221.710938 L 205.578125 220.253906 C 205.769531 220.078125 206.269531 219.683594 206.460938 219.515625 C 207.199219 218.835938 207.902344 218.179688 207.902344 217.097656 C 207.902344 215.675781 206.707031 214.761719 205.21875 214.761719 C 203.789062 214.761719 202.847656 215.847656 202.847656 216.90625 C 202.847656 217.488281 203.3125 217.574219 203.480469 217.574219 C 203.730469 217.574219 204.101562 217.394531 204.101562 216.941406 C 204.101562 216.320312 203.503906 216.320312 203.359375 216.320312 C 203.707031 215.453125 204.503906 215.15625 205.089844 215.15625 C 206.199219 215.15625 206.769531 216.09375 206.769531 217.097656 C 206.769531 218.335938 205.898438 219.242188 204.492188 220.6875 L 202.992188 222.234375 C 202.847656 222.367188 202.847656 222.390625 202.847656 222.6875 L 207.554688 222.6875 Z M 207.902344 220.554688 "/>
<path style="fill:none;stroke-width:1;stroke-linecap:butt;stroke-linejoin:miter;stroke:rgb(0%,0%,0%);stroke-opacity:1;stroke-dasharray:4,4;stroke-miterlimit:3.25;" d="M 279.800781 92.800781 L 153.867188 205.121094 "/>
</g>
</svg>
