<?xml version="1.0" encoding="UTF-8"?>
<svg xmlns="http://www.w3.org/2000/svg" xmlns:xlink="http://www.w3.org/1999/xlink" width="142pt" height="64pt" viewBox="0 0 142 64" version="1.1">
<defs>
<clipPath id="clip1">
  <path d="M 0 11 L 130 11 L 130 63.601562 L 0 63.601562 Z M 0 11 "/>
</clipPath>
<clipPath id="clip2">
  <path d="M 89 51 L 91 51 L 91 63.601562 L 89 63.601562 Z M 89 51 "/>
</clipPath>
<clipPath id="clip3">
  <path d="M 89 51 L 91 51 L 91 63.601562 L 89 63.601562 Z M 89 51 "/>
</clipPath>
<clipPath id="clip4">
  <path d="M 129 11 L 131 11 L 131 63.601562 L 129 63.601562 Z M 129 11 "/>
</clipPath>
<clipPath id="clip5">
  <path d="M 129 11 L 131 11 L 131 63.601562 L 129 63.601562 Z M 129 11 "/>
</clipPath>
<clipPath id="clip6">
  <path d="M 0 0 L 141.839844 0 L 141.839844 63.601562 L 0 63.601562 Z M 0 0 "/>
</clipPath>
<clipPath id="clip7">
  <path d="M 0 32 L 91 32 L 91 63.601562 L 0 63.601562 Z M 0 32 "/>
</clipPath>
<clipPath id="clip8">
  <path d="M 83 32 L 121 32 L 121 63.601562 L 83 63.601562 Z M 83 32 "/>
</clipPath>
<clipPath id="clip9">
  <path d="M 83 32 L 121 32 L 121 63.601562 L 83 63.601562 Z M 83 32 "/>
</clipPath>
<clipPath id="clip10">
  <path d="M 109 0 L 141.839844 0 L 141.839844 63.601562 L 109 63.601562 Z M 109 0 "/>
</clipPath>
<clipPath id="clip11">
  <path d="M 0 0 L 141.839844 0 L 141.839844 63.601562 L 0 63.601562 Z M 0 0 "/>
</clipPath>
<clipPath id="clip12">
  <path d="M 0 23 L 83 23 L 83 63.601562 L 0 63.601562 Z M 0 23 "/>
</clipPath>
<clipPath id="clip13">
  <path d="M 75 23 L 141.839844 23 L 141.839844 63.601562 L 75 63.601562 Z M 75 23 "/>
</clipPath>
<clipPath id="clip14">
  <path d="M 75 23 L 141.839844 23 L 141.839844 63.601562 L 75 63.601562 Z M 75 23 "/>
</clipPath>
<clipPath id="clip15">
  <path d="M 0 0 L 92 0 L 92 63.601562 L 0 63.601562 Z M 0 0 "/>
</clipPath>
<clipPath id="clip16">
  <path d="M 84 0 L 141.839844 0 L 141.839844 63.601562 L 84 63.601562 Z M 84 0 "/>
</clipPath>
<clipPath id="clip17">
  <path d="M 0 0 L 141.839844 0 L 141.839844 63.601562 L 0 63.601562 Z M 0 0 "/>
</clipPath>
<clipPath id="clip18">
  <path d="M 0 24 L 72 24 L 72 63.601562 L 0 63.601562 Z M 0 24 "/>
</clipPath>
<clipPath id="clip19">
  <path d="M 65 24 L 141.839844 24 L 141.839844 63.601562 L 65 63.601562 Z M 65 24 "/>
</clipPath>
<clipPath id="clip20">
  <path d="M 0 0 L 64 0 L 64 63.601562 L 0 63.601562 Z M 0 0 "/>
</clipPath>
<clipPath id="clip21">
  <path d="M 56 0 L 141.839844 0 L 141.839844 63.601562 L 56 63.601562 Z M 56 0 "/>
</clipPath>
<clipPath id="clip22">
  <path d="M 0 0 L 141.839844 0 L 141.839844 63.601562 L 0 63.601562 Z M 0 0 "/>
</clipPath>
<clipPath id="clip23">
  <path d="M 25 34 L 62 34 L 62 63.601562 L 25 63.601562 Z M 25 34 "/>
</clipPath>
<clipPath id="clip24">
  <path d="M 54 34 L 141.839844 34 L 141.839844 63.601562 L 54 63.601562 Z M 54 34 "/>
</clipPath>
<clipPath id="clip25">
  <path d="M 0 0 L 37 0 L 37 63.601562 L 0 63.601562 Z M 0 0 "/>
</clipPath>
<clipPath id="clip26">
  <path d="M 29 0 L 141.839844 0 L 141.839844 53 L 29 53 Z M 29 0 "/>
</clipPath>
<clipPath id="clip27">
  <path d="M 11 11 L 141.839844 11 L 141.839844 63.601562 L 11 63.601562 Z M 11 11 "/>
</clipPath>
<clipPath id="clip28">
  <path d="M 51 51 L 53 51 L 53 63.601562 L 51 63.601562 Z M 51 51 "/>
</clipPath>
<clipPath id="clip29">
  <path d="M 51 51 L 141.839844 51 L 141.839844 53 L 51 53 Z M 51 51 "/>
</clipPath>
<clipPath id="clip30">
  <path d="M 11 11 L 13 11 L 13 63.601562 L 11 63.601562 Z M 11 11 "/>
</clipPath>
<clipPath id="clip31">
  <path d="M 11 11 L 141.839844 11 L 141.839844 13 L 11 13 Z M 11 11 "/>
</clipPath>
</defs>
<g id="surface6">
<g clip-path="url(#clip1)" clip-rule="nonzero">
<path style=" stroke:none;fill-rule:nonzero;fill:rgb(74.999619%,74.999619%,74.999619%);fill-opacity:0.1;" d="M -68.78125 51.636719 L 90.097656 51.636719 L 90.097656 210.515625 L 129.816406 210.515625 L 129.816406 11.914062 L -68.78125 11.914062 Z M -68.78125 51.636719 "/>
</g>
<path style="fill:none;stroke-width:0.75;stroke-linecap:square;stroke-linejoin:miter;stroke:rgb(0%,0%,0%);stroke-opacity:0.1;stroke-miterlimit:3.25;" d="M -68.78125 51.636719 L 90.097656 51.636719 "/>
<g clip-path="url(#clip2)" clip-rule="nonzero">
<path style="fill:none;stroke-width:0.75;stroke-linecap:square;stroke-linejoin:miter;stroke:rgb(0%,0%,0%);stroke-opacity:0.1;stroke-miterlimit:3.25;" d="M 90.097656 127.152344 L 90.097656 51.636719 "/>
</g>
<path style=" stroke:none;fill-rule:nonzero;fill:rgb(0%,0%,0%);fill-opacity:0.1;" d="M 90.097656 51.636719 L 90.472656 52.011719 L 90.472656 51.261719 L 90.097656 51.261719 Z M 90.097656 51.636719 "/>
<g clip-path="url(#clip3)" clip-rule="nonzero">
<path style="fill:none;stroke-width:0.75;stroke-linecap:square;stroke-linejoin:miter;stroke:rgb(0%,0%,0%);stroke-opacity:0.1;stroke-miterlimit:3.25;" d="M 90.097656 127.152344 L 90.097656 51.636719 "/>
</g>
<path style=" stroke:none;fill-rule:nonzero;fill:rgb(0%,0%,0%);fill-opacity:0.1;" d="M 90.097656 51.636719 L 90.472656 52.011719 L 90.472656 51.261719 L 90.097656 51.261719 Z M 90.097656 51.636719 "/>
<path style="fill:none;stroke-width:0.75;stroke-linecap:square;stroke-linejoin:miter;stroke:rgb(0%,0%,0%);stroke-opacity:0.1;stroke-miterlimit:3.25;" d="M -68.78125 11.914062 L 129.816406 11.914062 "/>
<g clip-path="url(#clip4)" clip-rule="nonzero">
<path style="fill:none;stroke-width:0.75;stroke-linecap:square;stroke-linejoin:miter;stroke:rgb(0%,0%,0%);stroke-opacity:0.1;stroke-miterlimit:3.25;" d="M 129.816406 127.152344 L 129.816406 11.914062 "/>
</g>
<path style=" stroke:none;fill-rule:nonzero;fill:rgb(0%,0%,0%);fill-opacity:0.1;" d="M 129.816406 11.914062 L 130.191406 12.289062 L 130.191406 11.539062 L 129.816406 11.539062 Z M 129.816406 11.914062 "/>
<g clip-path="url(#clip5)" clip-rule="nonzero">
<path style="fill:none;stroke-width:0.75;stroke-linecap:square;stroke-linejoin:miter;stroke:rgb(0%,0%,0%);stroke-opacity:0.1;stroke-miterlimit:3.25;" d="M 129.816406 127.152344 L 129.816406 11.914062 "/>
</g>
<path style=" stroke:none;fill-rule:nonzero;fill:rgb(0%,0%,0%);fill-opacity:0.1;" d="M 129.816406 11.914062 L 130.191406 12.289062 L 130.191406 11.539062 L 129.816406 11.539062 Z M 129.816406 11.914062 "/>
<g clip-path="url(#clip6)" clip-rule="nonzero">
<path style=" stroke:none;fill-rule:nonzero;fill:rgb(74.999619%,74.999619%,74.999619%);fill-opacity:0.1;" d="M -63.933594 84.933594 L 87.167969 35.835938 L 136.265625 186.941406 L 174.039062 174.664062 L 112.671875 -14.214844 L -76.210938 47.15625 Z M -63.933594 84.933594 "/>
</g>
<g clip-path="url(#clip7)" clip-rule="nonzero">
<path style="fill:none;stroke-width:0.75;stroke-linecap:square;stroke-linejoin:miter;stroke:rgb(0%,0%,0%);stroke-opacity:0.1;stroke-miterlimit:3.25;" d="M -63.933594 84.933594 L 87.167969 35.835938 "/>
</g>
<g clip-path="url(#clip8)" clip-rule="nonzero">
<path style="fill:none;stroke-width:0.75;stroke-linecap:square;stroke-linejoin:miter;stroke:rgb(0%,0%,0%);stroke-opacity:0.1;stroke-miterlimit:3.25;" d="M 116.839844 127.152344 L 87.167969 35.835938 "/>
</g>
<path style=" stroke:none;fill-rule:nonzero;fill:rgb(0%,0%,0%);fill-opacity:0.1;" d="M 87.167969 35.835938 L 87.523438 36.191406 L 87.410156 35.363281 L 87.050781 35.480469 Z M 87.167969 35.835938 "/>
<g clip-path="url(#clip9)" clip-rule="nonzero">
<path style="fill:none;stroke-width:0.75;stroke-linecap:square;stroke-linejoin:miter;stroke:rgb(0%,0%,0%);stroke-opacity:0.1;stroke-miterlimit:3.25;" d="M 116.839844 127.152344 L 87.167969 35.835938 "/>
</g>
<path style=" stroke:none;fill-rule:nonzero;fill:rgb(0%,0%,0%);fill-opacity:0.1;" d="M 87.167969 35.835938 L 87.523438 36.191406 L 87.410156 35.363281 L 87.050781 35.480469 Z M 87.167969 35.835938 "/>
<path style="fill:none;stroke-width:0.75;stroke-linecap:square;stroke-linejoin:miter;stroke:rgb(0%,0%,0%);stroke-opacity:0.1;stroke-miterlimit:3.25;" d="M -76.210938 47.15625 L 112.671875 -14.214844 "/>
<g clip-path="url(#clip10)" clip-rule="nonzero">
<path style="fill:none;stroke-width:0.75;stroke-linecap:square;stroke-linejoin:miter;stroke:rgb(0%,0%,0%);stroke-opacity:0.1;stroke-miterlimit:3.25;" d="M 158.601562 127.152344 L 112.671875 -14.214844 "/>
<path style="fill:none;stroke-width:0.75;stroke-linecap:square;stroke-linejoin:miter;stroke:rgb(0%,0%,0%);stroke-opacity:0.1;stroke-miterlimit:3.25;" d="M 158.601562 127.152344 L 112.671875 -14.214844 "/>
</g>
<g clip-path="url(#clip11)" clip-rule="nonzero">
<path style=" stroke:none;fill-rule:nonzero;fill:rgb(74.999619%,74.999619%,74.999619%);fill-opacity:0.1;" d="M -49.28125 120.25 L 79.257812 26.863281 L 172.644531 155.398438 L 204.777344 132.050781 L 88.042969 -28.621094 L -72.625 88.113281 Z M -49.28125 120.25 "/>
</g>
<g clip-path="url(#clip12)" clip-rule="nonzero">
<path style="fill:none;stroke-width:0.75;stroke-linecap:square;stroke-linejoin:miter;stroke:rgb(0%,0%,0%);stroke-opacity:0.1;stroke-miterlimit:3.25;" d="M -49.28125 120.25 L 79.257812 26.863281 "/>
</g>
<g clip-path="url(#clip13)" clip-rule="nonzero">
<path style="fill:none;stroke-width:0.75;stroke-linecap:square;stroke-linejoin:miter;stroke:rgb(0%,0%,0%);stroke-opacity:0.1;stroke-miterlimit:3.25;" d="M 152.121094 127.152344 L 79.257812 26.863281 "/>
</g>
<path style=" stroke:none;fill-rule:nonzero;fill:rgb(0%,0%,0%);fill-opacity:0.1;" d="M 79.257812 26.863281 L 79.558594 27.164062 L 79.339844 26.335938 L 79.035156 26.558594 Z M 79.257812 26.863281 "/>
<g clip-path="url(#clip14)" clip-rule="nonzero">
<path style="fill:none;stroke-width:0.75;stroke-linecap:square;stroke-linejoin:miter;stroke:rgb(0%,0%,0%);stroke-opacity:0.1;stroke-miterlimit:3.25;" d="M 152.121094 127.152344 L 79.257812 26.863281 "/>
</g>
<path style=" stroke:none;fill-rule:nonzero;fill:rgb(0%,0%,0%);fill-opacity:0.1;" d="M 79.257812 26.863281 L 79.558594 27.164062 L 79.339844 26.335938 L 79.035156 26.558594 Z M 79.257812 26.863281 "/>
<g clip-path="url(#clip15)" clip-rule="nonzero">
<path style="fill:none;stroke-width:0.75;stroke-linecap:square;stroke-linejoin:miter;stroke:rgb(0%,0%,0%);stroke-opacity:0.1;stroke-miterlimit:3.25;" d="M -72.625 88.113281 L 88.042969 -28.621094 "/>
</g>
<g clip-path="url(#clip16)" clip-rule="nonzero">
<path style="fill:none;stroke-width:0.75;stroke-linecap:square;stroke-linejoin:miter;stroke:rgb(0%,0%,0%);stroke-opacity:0.1;stroke-miterlimit:3.25;" d="M 201.21875 127.152344 L 88.042969 -28.621094 "/>
<path style="fill:none;stroke-width:0.75;stroke-linecap:square;stroke-linejoin:miter;stroke:rgb(0%,0%,0%);stroke-opacity:0.1;stroke-miterlimit:3.25;" d="M 201.21875 127.152344 L 88.042969 -28.621094 "/>
</g>
<g clip-path="url(#clip17)" clip-rule="nonzero">
<path style=" stroke:none;fill-rule:nonzero;fill:rgb(74.999619%,74.999619%,74.999619%);fill-opacity:0.1;" d="M -24.9375 156.914062 L 68.449219 28.375 L 196.984375 121.761719 L 220.332031 89.628906 L 59.660156 -27.105469 L -57.074219 133.566406 Z M -24.9375 156.914062 "/>
</g>
<g clip-path="url(#clip18)" clip-rule="nonzero">
<path style="fill:none;stroke-width:0.75;stroke-linecap:square;stroke-linejoin:miter;stroke:rgb(0%,0%,0%);stroke-opacity:0.1;stroke-miterlimit:3.25;" d="M -3.316406 127.152344 L 68.449219 28.375 "/>
<path style="fill:none;stroke-width:0.75;stroke-linecap:square;stroke-linejoin:miter;stroke:rgb(0%,0%,0%);stroke-opacity:0.1;stroke-miterlimit:3.25;" d="M -3.316406 127.152344 L 68.449219 28.375 "/>
</g>
<path style=" stroke:none;fill-rule:nonzero;fill:rgb(0%,0%,0%);fill-opacity:0.1;" d="M 68.449219 28.375 L 68.144531 28.074219 L 68.367188 27.851562 L 68.667969 28.074219 Z M 68.449219 28.375 "/>
<g clip-path="url(#clip19)" clip-rule="nonzero">
<path style="fill:none;stroke-width:0.75;stroke-linecap:square;stroke-linejoin:miter;stroke:rgb(0%,0%,0%);stroke-opacity:0.1;stroke-miterlimit:3.25;" d="M 68.449219 28.375 L 196.984375 121.761719 "/>
</g>
<g clip-path="url(#clip20)" clip-rule="nonzero">
<path style="fill:none;stroke-width:0.75;stroke-linecap:square;stroke-linejoin:miter;stroke:rgb(0%,0%,0%);stroke-opacity:0.1;stroke-miterlimit:3.25;" d="M -52.414062 127.152344 L 59.660156 -27.105469 "/>
<path style="fill:none;stroke-width:0.75;stroke-linecap:square;stroke-linejoin:miter;stroke:rgb(0%,0%,0%);stroke-opacity:0.1;stroke-miterlimit:3.25;" d="M -52.414062 127.152344 L 59.660156 -27.105469 "/>
</g>
<g clip-path="url(#clip21)" clip-rule="nonzero">
<path style="fill:none;stroke-width:0.75;stroke-linecap:square;stroke-linejoin:miter;stroke:rgb(0%,0%,0%);stroke-opacity:0.1;stroke-miterlimit:3.25;" d="M 59.660156 -27.105469 L 220.332031 89.628906 "/>
</g>
<g clip-path="url(#clip22)" clip-rule="nonzero">
<path style=" stroke:none;fill-rule:nonzero;fill:rgb(74.999619%,74.999619%,74.999619%);fill-opacity:0.1;" d="M 9.050781 188.835938 L 58.144531 37.730469 L 209.25 86.828125 L 221.523438 49.050781 L 32.644531 -12.320312 L -28.726562 176.558594 Z M 9.050781 188.835938 "/>
</g>
<g clip-path="url(#clip23)" clip-rule="nonzero">
<path style="fill:none;stroke-width:0.75;stroke-linecap:square;stroke-linejoin:miter;stroke:rgb(0%,0%,0%);stroke-opacity:0.1;stroke-miterlimit:3.25;" d="M 29.089844 127.152344 L 58.144531 37.730469 "/>
<path style="fill:none;stroke-width:0.75;stroke-linecap:square;stroke-linejoin:miter;stroke:rgb(0%,0%,0%);stroke-opacity:0.1;stroke-miterlimit:3.25;" d="M 29.089844 127.152344 L 58.144531 37.730469 "/>
</g>
<path style=" stroke:none;fill-rule:nonzero;fill:rgb(0%,0%,0%);fill-opacity:0.1;" d="M 58.144531 37.730469 L 57.789062 37.375 L 57.90625 37.257812 L 58.261719 37.375 Z M 58.144531 37.730469 "/>
<g clip-path="url(#clip24)" clip-rule="nonzero">
<path style="fill:none;stroke-width:0.75;stroke-linecap:square;stroke-linejoin:miter;stroke:rgb(0%,0%,0%);stroke-opacity:0.1;stroke-miterlimit:3.25;" d="M 58.144531 37.730469 L 209.25 86.828125 "/>
</g>
<g clip-path="url(#clip25)" clip-rule="nonzero">
<path style="fill:none;stroke-width:0.75;stroke-linecap:square;stroke-linejoin:miter;stroke:rgb(0%,0%,0%);stroke-opacity:0.1;stroke-miterlimit:3.25;" d="M -12.671875 127.152344 L 32.644531 -12.320312 "/>
<path style="fill:none;stroke-width:0.75;stroke-linecap:square;stroke-linejoin:miter;stroke:rgb(0%,0%,0%);stroke-opacity:0.1;stroke-miterlimit:3.25;" d="M -12.671875 127.152344 L 32.644531 -12.320312 "/>
</g>
<g clip-path="url(#clip26)" clip-rule="nonzero">
<path style="fill:none;stroke-width:0.75;stroke-linecap:square;stroke-linejoin:miter;stroke:rgb(0%,0%,0%);stroke-opacity:0.1;stroke-miterlimit:3.25;" d="M 32.644531 -12.320312 L 221.523438 49.050781 "/>
</g>
<g clip-path="url(#clip27)" clip-rule="nonzero">
<path style=" stroke:none;fill-rule:nonzero;fill:rgb(74.999619%,74.999619%,74.999619%);fill-opacity:0.1;" d="M 51.636719 210.515625 L 51.636719 51.636719 L 210.515625 51.636719 L 210.515625 11.914062 L 11.914062 11.914062 L 11.914062 210.515625 Z M 51.636719 210.515625 "/>
</g>
<g clip-path="url(#clip28)" clip-rule="nonzero">
<path style="fill:none;stroke-width:0.75;stroke-linecap:square;stroke-linejoin:miter;stroke:rgb(0%,0%,0%);stroke-opacity:0.1;stroke-miterlimit:3.25;" d="M 51.636719 127.152344 L 51.636719 51.636719 "/>
<path style="fill:none;stroke-width:0.75;stroke-linecap:square;stroke-linejoin:miter;stroke:rgb(0%,0%,0%);stroke-opacity:0.1;stroke-miterlimit:3.25;" d="M 51.636719 127.152344 L 51.636719 51.636719 "/>
</g>
<path style=" stroke:none;fill-rule:nonzero;fill:rgb(0%,0%,0%);fill-opacity:0.1;" d="M 51.636719 51.636719 L 51.261719 51.261719 L 51.636719 51.261719 Z M 51.636719 51.636719 "/>
<g clip-path="url(#clip29)" clip-rule="nonzero">
<path style="fill:none;stroke-width:0.75;stroke-linecap:square;stroke-linejoin:miter;stroke:rgb(0%,0%,0%);stroke-opacity:0.1;stroke-miterlimit:3.25;" d="M 51.636719 51.636719 L 210.515625 51.636719 "/>
</g>
<g clip-path="url(#clip30)" clip-rule="nonzero">
<path style="fill:none;stroke-width:0.75;stroke-linecap:square;stroke-linejoin:miter;stroke:rgb(0%,0%,0%);stroke-opacity:0.1;stroke-miterlimit:3.25;" d="M 11.914062 127.152344 L 11.914062 11.914062 "/>
<path style="fill:none;stroke-width:0.75;stroke-linecap:square;stroke-linejoin:miter;stroke:rgb(0%,0%,0%);stroke-opacity:0.1;stroke-miterlimit:3.25;" d="M 11.914062 127.152344 L 11.914062 11.914062 "/>
</g>
<path style=" stroke:none;fill-rule:nonzero;fill:rgb(0%,0%,0%);fill-opacity:0.1;" d="M 11.914062 11.914062 L 11.539062 11.539062 L 11.914062 11.539062 Z M 11.914062 11.914062 "/>
<g clip-path="url(#clip31)" clip-rule="nonzero">
<path style="fill:none;stroke-width:0.75;stroke-linecap:square;stroke-linejoin:miter;stroke:rgb(0%,0%,0%);stroke-opacity:0.1;stroke-miterlimit:3.25;" d="M 11.914062 11.914062 L 210.515625 11.914062 "/>
</g>
<path style="fill-rule:nonzero;fill:rgb(100%,92.500191%,92.500191%);fill-opacity:1;stroke-width:0.25;stroke-linecap:square;stroke-linejoin:miter;stroke:rgb(0%,0%,0%);stroke-opacity:1;stroke-miterlimit:3.25;" d="M 129.816406 51.636719 L 129.816406 38.558594 L 124.125 21.042969 L 122.105469 18.265625 L 118.332031 15.523438 L 107.234375 11.914062 L 32.25 11.914062 L 30.261719 13.363281 L 19.476562 28.203125 L 11.914062 51.476562 L 11.914062 51.636719 L 38.542969 51.636719 L 50.507812 47.746094 L 56.246094 43.578125 L 58.144531 37.730469 L 60.984375 38.652344 L 68.449219 28.375 L 72.808594 31.546875 L 79.257812 26.863281 L 86.042969 36.203125 L 87.167969 35.835938 L 88.292969 39.300781 L 93.671875 46.703125 L 100.074219 51.355469 L 100.941406 51.636719 Z M 129.816406 51.636719 "/>
<path style="fill:none;stroke-width:0.05;stroke-linecap:square;stroke-linejoin:miter;stroke:rgb(0%,0%,0%);stroke-opacity:1;stroke-miterlimit:3.25;" d="M 129.816406 51.636719 L 129.515625 49.652344 L 128.984375 46.296875 L 128.460938 43.125 L 127.949219 40.128906 L 127.445312 37.3125 L 126.960938 34.667969 L 126.488281 32.199219 L 126.035156 29.902344 L 125.601562 27.777344 L 125.191406 25.820312 L 124.800781 24.027344 L 124.4375 22.402344 L 124.125 21.042969 L 123.925781 20.769531 L 123.722656 20.492188 L 123.523438 20.222656 L 123.328125 19.964844 L 123.136719 19.714844 L 122.949219 19.476562 L 122.765625 19.242188 L 122.589844 19.019531 L 122.417969 18.808594 L 122.253906 18.605469 L 122.09375 18.410156 L 121.9375 18.226562 L 121.789062 18.050781 L 121.75 18.003906 L 121.5 17.878906 L 121.105469 17.679688 L 120.683594 17.472656 L 120.226562 17.25 L 119.738281 17.015625 L 119.21875 16.769531 L 118.664062 16.515625 L 118.074219 16.246094 L 117.449219 15.964844 L 116.789062 15.675781 L 116.09375 15.375 L 115.363281 15.0625 L 114.597656 14.742188 L 113.792969 14.414062 L 112.953125 14.074219 L 112.074219 13.726562 L 111.15625 13.371094 L 110.203125 13.007812 L 109.210938 12.636719 L 108.175781 12.257812 L 107.234375 11.914062 L 32.25 11.914062 L 32.132812 12.011719 L 32.003906 12.117188 L 31.878906 12.222656 L 31.757812 12.328125 L 31.640625 12.429688 L 31.414062 12.625 L 31.304688 12.722656 L 31.199219 12.820312 L 30.996094 13.007812 L 30.898438 13.101562 L 30.800781 13.191406 L 30.707031 13.28125 L 30.613281 13.375 L 30.519531 13.464844 L 30.339844 13.644531 L 30.253906 13.734375 L 30.164062 13.824219 L 30.078125 13.917969 L 29.992188 14.007812 L 29.734375 14.289062 L 29.5625 14.484375 L 29.476562 14.585938 L 29.386719 14.6875 L 29.300781 14.789062 L 29.121094 15.007812 L 29.027344 15.117188 L 28.839844 15.351562 L 28.746094 15.476562 L 28.648438 15.601562 L 28.546875 15.730469 L 28.34375 16.003906 L 28.234375 16.148438 L 28.125 16.300781 L 28 16.476562 L 27.855469 16.679688 L 27.695312 16.910156 L 27.519531 17.164062 L 27.328125 17.445312 L 27.125 17.75 L 26.90625 18.082031 L 26.671875 18.4375 L 26.425781 18.820312 L 26.171875 19.222656 L 25.902344 19.652344 L 25.625 20.101562 L 25.335938 20.574219 L 25.039062 21.070312 L 24.734375 21.589844 L 24.417969 22.128906 L 24.097656 22.6875 L 23.769531 23.265625 L 23.4375 23.863281 L 23.097656 24.484375 L 22.75 25.121094 L 22.402344 25.773438 L 22.050781 26.445312 L 21.691406 27.132812 L 21.332031 27.839844 L 20.972656 28.558594 L 20.609375 29.292969 L 20.246094 30.042969 L 19.882812 30.804688 L 19.515625 31.578125 L 19.152344 32.367188 L 18.789062 33.164062 L 18.425781 33.972656 L 18.066406 34.792969 L 17.707031 35.621094 L 17.351562 36.457031 L 17 37.300781 L 16.648438 38.152344 L 16.304688 39.007812 L 15.964844 39.871094 L 15.625 40.738281 L 15.292969 41.609375 L 14.96875 42.480469 L 14.648438 43.355469 L 14.332031 44.230469 L 14.023438 45.105469 L 13.71875 45.980469 L 13.421875 46.855469 L 13.132812 47.726562 L 12.855469 48.589844 L 12.59375 49.410156 L 12.351562 50.183594 L 12.128906 50.914062 L 11.925781 51.605469 L 11.914062 51.636719 L 32.375 51.636719 L 32.625 51.632812 L 32.875 51.632812 L 33.125 51.625 L 33.375 51.621094 L 33.625 51.613281 L 33.875 51.601562 L 34.121094 51.59375 L 34.371094 51.578125 L 34.621094 51.566406 L 34.871094 51.550781 L 35.117188 51.53125 L 35.867188 51.472656 L 36.113281 51.449219 L 36.363281 51.421875 L 36.609375 51.394531 L 36.859375 51.367188 L 37.105469 51.339844 L 37.355469 51.308594 L 38.09375 51.203125 L 38.34375 51.167969 L 38.589844 51.128906 L 39.328125 51 L 39.570312 50.957031 L 39.816406 50.910156 L 40.0625 50.859375 L 40.304688 50.8125 L 40.550781 50.757812 L 40.792969 50.707031 L 41.039062 50.652344 L 41.28125 50.597656 L 41.765625 50.480469 L 42.492188 50.292969 L 42.734375 50.226562 L 42.972656 50.160156 L 43.214844 50.09375 L 43.691406 49.953125 L 44.40625 49.730469 L 44.882812 49.574219 L 45.117188 49.496094 L 45.351562 49.414062 L 45.589844 49.328125 L 45.824219 49.246094 L 46.058594 49.160156 L 46.292969 49.070312 L 46.523438 48.984375 L 46.757812 48.890625 L 46.988281 48.800781 L 47.222656 48.707031 L 47.453125 48.613281 L 47.683594 48.515625 L 47.910156 48.417969 L 48.140625 48.320312 L 48.367188 48.21875 L 48.597656 48.117188 L 48.824219 48.011719 L 49.050781 47.910156 L 49.277344 47.800781 L 49.5 47.695312 L 49.726562 47.585938 L 49.949219 47.476562 L 50.617188 47.136719 L 50.835938 47.019531 L 51.058594 46.902344 L 51.277344 46.78125 L 51.496094 46.664062 L 51.714844 46.542969 L 51.929688 46.417969 L 52.148438 46.292969 L 52.363281 46.167969 L 52.457031 46.113281 L 52.46875 45.992188 L 52.566406 45.683594 L 52.671875 45.375 L 52.78125 45.074219 L 52.894531 44.773438 L 53.015625 44.476562 L 53.140625 44.183594 L 53.269531 43.890625 L 53.402344 43.605469 L 53.542969 43.320312 L 53.6875 43.042969 L 53.835938 42.765625 L 53.988281 42.492188 L 54.308594 41.960938 L 54.476562 41.699219 L 54.648438 41.445312 L 54.824219 41.191406 L 55.007812 40.941406 L 55.191406 40.699219 L 55.378906 40.457031 L 55.769531 39.988281 L 55.972656 39.761719 L 56.179688 39.539062 L 56.386719 39.320312 L 56.816406 38.898438 L 57.039062 38.695312 L 57.261719 38.496094 L 57.707031 38.105469 L 58.144531 37.730469 L 58.363281 37.546875 L 58.578125 37.367188 L 58.789062 37.1875 L 59 37.015625 L 59.414062 36.664062 L 59.828125 36.304688 L 60.039062 36.117188 L 60.453125 35.734375 L 60.660156 35.539062 L 61.074219 35.140625 L 61.285156 34.9375 L 62.324219 33.898438 L 62.53125 33.683594 L 62.742188 33.472656 L 62.949219 33.261719 L 63.15625 33.046875 L 63.367188 32.835938 L 63.78125 32.414062 L 63.988281 32.207031 L 64.195312 32.003906 L 64.398438 31.800781 L 64.601562 31.601562 L 64.804688 31.40625 L 65.414062 30.832031 L 65.613281 30.648438 L 65.816406 30.464844 L 66.015625 30.285156 L 66.214844 30.109375 L 66.417969 29.933594 L 66.617188 29.761719 L 66.820312 29.59375 L 67.019531 29.429688 L 67.425781 29.109375 L 67.832031 28.804688 L 68.035156 28.660156 L 68.242188 28.515625 L 68.449219 28.375 L 68.863281 28.109375 L 69.285156 27.859375 L 69.496094 27.742188 L 69.710938 27.628906 L 69.921875 27.519531 L 70.136719 27.414062 L 70.355469 27.3125 L 70.570312 27.214844 L 70.785156 27.125 L 71.003906 27.035156 L 71.441406 26.871094 L 71.660156 26.796875 L 71.878906 26.726562 L 72.097656 26.660156 L 72.320312 26.597656 L 72.539062 26.542969 L 72.761719 26.488281 L 72.980469 26.441406 L 73.203125 26.398438 L 73.421875 26.359375 L 73.644531 26.324219 L 73.863281 26.292969 L 74.085938 26.265625 L 74.523438 26.226562 L 74.746094 26.214844 L 74.964844 26.207031 L 75.179688 26.203125 L 75.398438 26.203125 L 75.617188 26.207031 L 75.832031 26.214844 L 76.261719 26.246094 L 76.476562 26.265625 L 76.898438 26.320312 L 77.113281 26.351562 L 77.324219 26.386719 L 77.535156 26.425781 L 77.75 26.464844 L 77.964844 26.511719 L 78.175781 26.5625 L 78.390625 26.613281 L 78.605469 26.671875 L 78.824219 26.730469 L 79.039062 26.792969 L 79.257812 26.863281 L 79.472656 26.933594 L 79.691406 27.007812 L 79.90625 27.089844 L 80.117188 27.175781 L 80.332031 27.265625 L 80.539062 27.359375 L 80.75 27.460938 L 80.957031 27.566406 L 81.160156 27.675781 L 81.363281 27.789062 L 81.566406 27.910156 L 81.765625 28.035156 L 81.960938 28.164062 L 82.15625 28.296875 L 82.351562 28.433594 L 82.539062 28.574219 L 82.730469 28.722656 L 82.914062 28.875 L 83.097656 29.03125 L 83.277344 29.191406 L 83.457031 29.355469 L 83.632812 29.523438 L 83.804688 29.695312 L 84.140625 30.054688 L 84.304688 30.242188 L 84.464844 30.433594 L 84.621094 30.625 L 84.773438 30.824219 L 84.925781 31.027344 L 85.074219 31.234375 L 85.21875 31.441406 L 85.359375 31.65625 L 85.496094 31.875 L 85.628906 32.097656 L 85.757812 32.320312 L 85.886719 32.550781 L 86.128906 33.019531 L 86.242188 33.257812 L 86.355469 33.503906 L 86.460938 33.75 L 86.664062 34.25 L 86.757812 34.507812 L 86.796875 34.617188 L 86.882812 34.851562 L 86.96875 35.082031 L 87.148438 35.550781 L 87.523438 36.472656 L 87.621094 36.703125 L 87.722656 36.933594 L 87.824219 37.160156 L 87.925781 37.390625 L 88.027344 37.617188 L 88.132812 37.84375 L 88.238281 38.066406 L 88.457031 38.519531 L 88.566406 38.742188 L 88.90625 39.410156 L 89.023438 39.628906 L 89.140625 39.851562 L 89.257812 40.070312 L 89.378906 40.289062 L 89.5 40.503906 L 89.625 40.722656 L 89.746094 40.9375 L 89.875 41.15625 L 90 41.371094 L 90.128906 41.582031 L 90.257812 41.796875 L 90.390625 42.007812 L 90.523438 42.222656 L 90.65625 42.433594 L 90.789062 42.640625 L 90.925781 42.851562 L 91.066406 43.058594 L 91.203125 43.265625 L 91.484375 43.679688 L 91.628906 43.882812 L 91.6875 43.96875 L 91.707031 43.988281 L 91.871094 44.179688 L 92.035156 44.367188 L 92.203125 44.550781 L 92.371094 44.738281 L 92.707031 45.105469 L 93.050781 45.464844 L 93.226562 45.644531 L 93.398438 45.824219 L 93.574219 46.003906 L 93.75 46.179688 L 93.929688 46.355469 L 94.105469 46.527344 L 94.285156 46.703125 L 94.46875 46.875 L 94.648438 47.042969 L 94.832031 47.214844 L 95.015625 47.382812 L 95.203125 47.550781 L 95.386719 47.714844 L 95.574219 47.882812 L 95.761719 48.046875 L 95.953125 48.207031 L 96.144531 48.371094 L 96.335938 48.53125 L 96.527344 48.6875 L 96.71875 48.847656 L 97.109375 49.160156 L 97.304688 49.3125 L 97.503906 49.464844 L 97.699219 49.617188 L 97.898438 49.769531 L 98.101562 49.917969 L 98.300781 50.066406 L 98.503906 50.210938 L 98.707031 50.359375 L 98.910156 50.5 L 99.113281 50.644531 L 99.320312 50.785156 L 99.433594 50.863281 L 99.667969 50.910156 L 99.914062 50.957031 L 100.15625 51 L 100.894531 51.128906 L 101.140625 51.167969 L 101.390625 51.203125 L 102.128906 51.308594 L 102.378906 51.339844 L 102.625 51.367188 L 102.875 51.394531 L 103.121094 51.421875 L 103.371094 51.449219 L 103.617188 51.472656 L 104.117188 51.511719 L 104.363281 51.53125 L 104.613281 51.550781 L 104.863281 51.566406 L 105.113281 51.578125 L 105.363281 51.59375 L 105.609375 51.601562 L 105.859375 51.613281 L 106.109375 51.621094 L 106.359375 51.625 L 106.609375 51.632812 L 106.859375 51.632812 L 107.109375 51.636719 Z M 129.816406 51.636719 "/>
<path style=" stroke:none;fill-rule:evenodd;fill:rgb(0%,0%,0%);fill-opacity:1;" d="M 41.757812 31.851562 C 41.757812 31.621094 41.703125 31.417969 41.496094 31.210938 C 41.378906 31.097656 41.28125 31.070312 40.773438 30.9375 C 40.40625 30.839844 40.355469 30.820312 40.257812 30.734375 C 40.164062 30.640625 40.09375 30.507812 40.09375 30.320312 C 40.09375 29.859375 40.558594 29.386719 41.082031 29.386719 C 41.621094 29.386719 41.875 29.714844 41.875 30.238281 C 41.875 30.382812 41.847656 30.53125 41.847656 30.550781 C 41.847656 30.601562 41.890625 30.601562 41.90625 30.601562 C 41.957031 30.601562 41.960938 30.585938 41.984375 30.496094 L 42.28125 29.289062 C 42.28125 29.238281 42.230469 29.238281 42.230469 29.238281 C 42.210938 29.238281 42.203125 29.242188 42.140625 29.324219 L 41.875 29.65625 C 41.691406 29.296875 41.332031 29.238281 41.097656 29.238281 C 40.398438 29.238281 39.769531 29.875 39.769531 30.496094 C 39.769531 30.910156 40.015625 31.152344 40.285156 31.246094 C 40.34375 31.269531 40.667969 31.355469 40.835938 31.394531 C 41.117188 31.472656 41.1875 31.492188 41.300781 31.613281 C 41.324219 31.640625 41.433594 31.769531 41.433594 32.027344 C 41.433594 32.539062 40.960938 33.066406 40.410156 33.066406 C 39.960938 33.066406 39.460938 32.875 39.460938 32.257812 C 39.460938 32.152344 39.480469 32.023438 39.496094 31.964844 C 39.496094 31.949219 39.503906 31.910156 39.503906 31.910156 C 39.503906 31.890625 39.492188 31.863281 39.449219 31.863281 C 39.398438 31.863281 39.394531 31.871094 39.371094 31.964844 L 39.089844 33.09375 L 39.070312 33.175781 C 39.070312 33.226562 39.125 33.226562 39.125 33.226562 C 39.144531 33.226562 39.152344 33.222656 39.21875 33.136719 L 39.46875 32.808594 C 39.601562 33.007812 39.886719 33.226562 40.398438 33.226562 C 41.109375 33.226562 41.757812 32.539062 41.757812 31.851562 Z M 41.757812 31.851562 "/>
<path style=" stroke:none;fill-rule:evenodd;fill:rgb(0%,0%,0%);fill-opacity:1;" d="M 45.015625 32.617188 C 45.015625 31.847656 44.40625 31.222656 43.667969 31.222656 C 42.914062 31.222656 42.3125 31.851562 42.3125 32.617188 C 42.3125 33.394531 42.9375 33.992188 43.664062 33.992188 C 44.402344 33.992188 45.015625 33.386719 45.015625 32.617188 Z M 44.644531 32.617188 C 44.644531 33.539062 44.082031 33.875 43.667969 33.875 C 43.230469 33.875 42.683594 33.523438 42.683594 32.617188 C 42.683594 31.699219 43.226562 31.328125 43.664062 31.328125 C 44.117188 31.328125 44.644531 31.714844 44.644531 32.617188 Z M 44.414062 32.882812 L 44.414062 32.320312 L 44.296875 32.320312 L 44.296875 32.453125 L 43.03125 32.453125 L 43.03125 32.320312 L 42.914062 32.320312 L 42.914062 32.882812 L 43.03125 32.882812 L 43.03125 32.753906 L 44.296875 32.753906 L 44.296875 32.882812 Z M 44.414062 32.882812 "/>
<path style=" stroke:none;fill-rule:evenodd;fill:rgb(0%,0%,0%);fill-opacity:1;" d="M 90.707031 52 C 90.707031 51.8125 90.632812 51.632812 90.5 51.5 C 90.367188 51.367188 90.1875 51.292969 90 51.292969 C 89.8125 51.292969 89.632812 51.367188 89.5 51.5 C 89.367188 51.632812 89.292969 51.8125 89.292969 52 C 89.292969 52.1875 89.367188 52.367188 89.5 52.5 C 89.632812 52.632812 89.8125 52.707031 90 52.707031 C 90.1875 52.707031 90.367188 52.632812 90.5 52.5 C 90.632812 52.367188 90.707031 52.1875 90.707031 52 Z M 90.707031 52 "/>
<path style=" stroke:none;fill-rule:evenodd;fill:rgb(0%,0%,0%);fill-opacity:1;" d="M 87.707031 36 C 87.707031 35.8125 87.632812 35.632812 87.5 35.5 C 87.367188 35.367188 87.1875 35.292969 87 35.292969 C 86.8125 35.292969 86.632812 35.367188 86.5 35.5 C 86.367188 35.632812 86.292969 35.8125 86.292969 36 C 86.292969 36.1875 86.367188 36.367188 86.5 36.5 C 86.632812 36.632812 86.8125 36.707031 87 36.707031 C 87.1875 36.707031 87.367188 36.632812 87.5 36.5 C 87.632812 36.367188 87.707031 36.1875 87.707031 36 Z M 87.707031 36 "/>
<path style=" stroke:none;fill-rule:evenodd;fill:rgb(0%,0%,0%);fill-opacity:1;" d="M 79.707031 27 C 79.707031 26.8125 79.632812 26.632812 79.5 26.5 C 79.367188 26.367188 79.1875 26.292969 79 26.292969 C 78.8125 26.292969 78.632812 26.367188 78.5 26.5 C 78.367188 26.632812 78.292969 26.8125 78.292969 27 C 78.292969 27.1875 78.367188 27.367188 78.5 27.5 C 78.632812 27.632812 78.8125 27.707031 79 27.707031 C 79.1875 27.707031 79.367188 27.632812 79.5 27.5 C 79.632812 27.367188 79.707031 27.1875 79.707031 27 Z M 79.707031 27 "/>
<path style=" stroke:none;fill-rule:evenodd;fill:rgb(0%,0%,0%);fill-opacity:1;" d="M 68.707031 28 C 68.707031 27.8125 68.632812 27.632812 68.5 27.5 C 68.367188 27.367188 68.1875 27.292969 68 27.292969 C 67.8125 27.292969 67.632812 27.367188 67.5 27.5 C 67.367188 27.632812 67.292969 27.8125 67.292969 28 C 67.292969 28.1875 67.367188 28.367188 67.5 28.5 C 67.632812 28.632812 67.8125 28.707031 68 28.707031 C 68.1875 28.707031 68.367188 28.632812 68.5 28.5 C 68.632812 28.367188 68.707031 28.1875 68.707031 28 Z M 68.707031 28 "/>
<path style=" stroke:none;fill-rule:evenodd;fill:rgb(0%,0%,0%);fill-opacity:1;" d="M 58.707031 38 C 58.707031 37.8125 58.632812 37.632812 58.5 37.5 C 58.367188 37.367188 58.1875 37.292969 58 37.292969 C 57.8125 37.292969 57.632812 37.367188 57.5 37.5 C 57.367188 37.632812 57.292969 37.8125 57.292969 38 C 57.292969 38.1875 57.367188 38.367188 57.5 38.5 C 57.632812 38.632812 57.8125 38.707031 58 38.707031 C 58.1875 38.707031 58.367188 38.632812 58.5 38.5 C 58.632812 38.367188 58.707031 38.1875 58.707031 38 Z M 58.707031 38 "/>
<path style=" stroke:none;fill-rule:evenodd;fill:rgb(0%,0%,0%);fill-opacity:1;" d="M 52.707031 52 C 52.707031 51.8125 52.632812 51.632812 52.5 51.5 C 52.367188 51.367188 52.1875 51.292969 52 51.292969 C 51.8125 51.292969 51.632812 51.367188 51.5 51.5 C 51.367188 51.632812 51.292969 51.8125 51.292969 52 C 51.292969 52.1875 51.367188 52.367188 51.5 52.5 C 51.632812 52.632812 51.8125 52.707031 52 52.707031 C 52.1875 52.707031 52.367188 52.632812 52.5 52.5 C 52.632812 52.367188 52.707031 52.1875 52.707031 52 Z M 52.707031 52 "/>
<path style=" stroke:none;fill-rule:evenodd;fill:rgb(0%,0%,0%);fill-opacity:1;" d="M 90.496094 49.183594 L 90.496094 48.949219 L 90.113281 48.949219 L 89.183594 47.828125 L 89.820312 47.09375 C 89.882812 47.023438 89.929688 46.980469 90.386719 46.980469 L 90.386719 46.742188 L 89.882812 46.753906 C 89.722656 46.753906 89.484375 46.753906 89.332031 46.742188 L 89.332031 46.980469 C 89.4375 46.980469 89.550781 47.007812 89.550781 47.046875 C 89.550781 47.046875 89.523438 47.09375 89.511719 47.105469 L 89.035156 47.644531 L 88.488281 46.980469 L 88.722656 46.980469 L 88.722656 46.742188 C 88.59375 46.753906 88.21875 46.753906 88.070312 46.753906 C 87.90625 46.753906 87.609375 46.753906 87.453125 46.742188 L 87.453125 46.980469 L 87.84375 46.980469 L 88.703125 48.023438 L 87.988281 48.832031 C 87.921875 48.910156 87.882812 48.949219 87.425781 48.949219 L 87.425781 49.183594 L 87.9375 49.175781 C 88.097656 49.175781 88.332031 49.175781 88.484375 49.183594 L 88.484375 48.949219 C 88.378906 48.949219 88.265625 48.921875 88.265625 48.882812 C 88.265625 48.882812 88.265625 48.871094 88.300781 48.828125 L 88.851562 48.207031 L 89.464844 48.949219 L 89.234375 48.949219 L 89.234375 49.183594 C 89.363281 49.175781 89.734375 49.175781 89.886719 49.175781 C 90.050781 49.175781 90.34375 49.175781 90.496094 49.183594 Z M 90.496094 49.183594 "/>
<path style=" stroke:none;fill-rule:evenodd;fill:rgb(0%,0%,0%);fill-opacity:1;" d="M 92.449219 48.765625 C 92.449219 48.359375 92.40625 48.109375 92.28125 47.863281 C 92.113281 47.527344 91.800781 47.445312 91.589844 47.445312 C 91.109375 47.445312 90.933594 47.804688 90.878906 47.910156 C 90.742188 48.1875 90.734375 48.566406 90.734375 48.765625 C 90.734375 49.019531 90.746094 49.40625 90.929688 49.710938 C 91.105469 49.992188 91.390625 50.066406 91.589844 50.066406 C 91.773438 50.066406 92.105469 50.007812 92.296875 49.628906 C 92.4375 49.355469 92.449219 49.015625 92.449219 48.765625 Z M 92.109375 48.71875 C 92.109375 48.945312 92.109375 49.289062 92.0625 49.503906 C 91.980469 49.90625 91.71875 49.957031 91.589844 49.957031 C 91.460938 49.957031 91.199219 49.898438 91.117188 49.496094 C 91.074219 49.277344 91.074219 48.917969 91.074219 48.71875 C 91.074219 48.457031 91.074219 48.1875 91.117188 47.980469 C 91.199219 47.589844 91.496094 47.550781 91.589844 47.550781 C 91.722656 47.550781 91.984375 47.617188 92.0625 47.964844 C 92.109375 48.175781 92.109375 48.460938 92.109375 48.71875 Z M 92.109375 48.71875 "/>
<path style=" stroke:none;fill-rule:evenodd;fill:rgb(0%,0%,0%);fill-opacity:1;" d="M 90.835938 33.386719 L 90.835938 33.148438 L 90.453125 33.148438 L 89.523438 32.027344 L 90.160156 31.292969 C 90.222656 31.222656 90.269531 31.179688 90.726562 31.179688 L 90.726562 30.941406 L 90.222656 30.953125 C 90.0625 30.953125 89.824219 30.953125 89.671875 30.941406 L 89.671875 31.179688 C 89.777344 31.179688 89.890625 31.207031 89.890625 31.246094 C 89.890625 31.246094 89.863281 31.292969 89.851562 31.304688 L 89.375 31.84375 L 88.828125 31.179688 L 89.0625 31.179688 L 89.0625 30.941406 C 88.933594 30.953125 88.558594 30.953125 88.410156 30.953125 C 88.246094 30.953125 87.949219 30.953125 87.796875 30.941406 L 87.796875 31.179688 L 88.1875 31.179688 L 89.042969 32.226562 L 88.328125 33.035156 C 88.261719 33.109375 88.222656 33.148438 87.769531 33.148438 L 87.769531 33.386719 L 88.28125 33.375 C 88.4375 33.375 88.671875 33.375 88.824219 33.386719 L 88.824219 33.148438 C 88.71875 33.148438 88.605469 33.121094 88.605469 33.082031 C 88.605469 33.082031 88.605469 33.074219 88.640625 33.027344 L 89.191406 32.40625 L 89.804688 33.148438 L 89.574219 33.148438 L 89.574219 33.386719 C 89.703125 33.375 90.074219 33.375 90.226562 33.375 C 90.390625 33.375 90.683594 33.375 90.835938 33.386719 Z M 90.835938 33.386719 "/>
<path style=" stroke:none;fill-rule:evenodd;fill:rgb(0%,0%,0%);fill-opacity:1;" d="M 92.628906 34.1875 L 92.628906 34.058594 L 92.492188 34.058594 C 92.128906 34.058594 92.121094 34.015625 92.121094 33.871094 L 92.121094 31.75 C 92.121094 31.648438 92.113281 31.644531 92.007812 31.644531 C 91.851562 31.796875 91.648438 31.890625 91.285156 31.890625 L 91.285156 32.015625 C 91.390625 32.015625 91.597656 32.015625 91.816406 31.914062 L 91.816406 33.871094 C 91.816406 34.015625 91.804688 34.058594 91.441406 34.058594 L 91.308594 34.058594 L 91.308594 34.1875 C 91.464844 34.175781 91.792969 34.175781 91.964844 34.175781 C 92.136719 34.175781 92.472656 34.175781 92.628906 34.1875 Z M 92.628906 34.1875 "/>
<path style=" stroke:none;fill-rule:evenodd;fill:rgb(0%,0%,0%);fill-opacity:1;" d="M 79.65625 24.410156 L 79.65625 24.175781 L 79.273438 24.175781 L 78.34375 23.050781 L 78.980469 22.320312 C 79.042969 22.246094 79.089844 22.203125 79.546875 22.203125 L 79.546875 21.96875 L 79.042969 21.976562 C 78.882812 21.976562 78.644531 21.976562 78.492188 21.96875 L 78.492188 22.203125 C 78.59375 22.203125 78.710938 22.230469 78.710938 22.269531 C 78.710938 22.269531 78.683594 22.320312 78.671875 22.332031 L 78.195312 22.871094 L 77.648438 22.203125 L 77.878906 22.203125 L 77.878906 21.96875 C 77.753906 21.976562 77.378906 21.976562 77.230469 21.976562 C 77.066406 21.976562 76.769531 21.976562 76.613281 21.96875 L 76.613281 22.203125 L 77.003906 22.203125 L 77.863281 23.25 L 77.148438 24.058594 C 77.082031 24.136719 77.042969 24.175781 76.585938 24.175781 L 76.585938 24.410156 L 77.097656 24.398438 C 77.257812 24.398438 77.488281 24.398438 77.644531 24.410156 L 77.644531 24.175781 C 77.539062 24.175781 77.421875 24.148438 77.421875 24.109375 C 77.421875 24.109375 77.421875 24.097656 77.460938 24.054688 L 78.011719 23.429688 L 78.621094 24.175781 L 78.390625 24.175781 L 78.390625 24.410156 C 78.523438 24.398438 78.894531 24.398438 79.046875 24.398438 C 79.210938 24.398438 79.503906 24.398438 79.65625 24.410156 Z M 79.65625 24.410156 "/>
<path style=" stroke:none;fill-rule:evenodd;fill:rgb(0%,0%,0%);fill-opacity:1;" d="M 81.5625 24.527344 L 81.441406 24.527344 C 81.429688 24.601562 81.402344 24.792969 81.355469 24.867188 C 81.332031 24.898438 81.042969 24.898438 80.980469 24.898438 L 80.300781 24.898438 L 80.816406 24.429688 C 80.878906 24.375 81.039062 24.25 81.097656 24.195312 C 81.335938 23.976562 81.5625 23.765625 81.5625 23.417969 C 81.5625 22.964844 81.179688 22.671875 80.703125 22.671875 C 80.242188 22.671875 79.941406 23.019531 79.941406 23.359375 C 79.941406 23.546875 80.089844 23.570312 80.144531 23.570312 C 80.222656 23.570312 80.34375 23.515625 80.34375 23.371094 C 80.34375 23.171875 80.152344 23.171875 80.105469 23.171875 C 80.214844 22.890625 80.472656 22.796875 80.660156 22.796875 C 81.015625 22.796875 81.199219 23.097656 81.199219 23.417969 C 81.199219 23.816406 80.917969 24.105469 80.46875 24.570312 L 79.988281 25.066406 C 79.941406 25.109375 79.941406 25.117188 79.941406 25.210938 L 81.449219 25.210938 Z M 81.5625 24.527344 "/>
<path style=" stroke:none;fill-rule:evenodd;fill:rgb(0%,0%,0%);fill-opacity:1;" d="M 68.851562 25.925781 L 68.851562 25.6875 L 68.464844 25.6875 L 67.535156 24.566406 L 68.171875 23.835938 C 68.234375 23.761719 68.285156 23.71875 68.738281 23.71875 L 68.738281 23.480469 L 68.234375 23.492188 C 68.074219 23.492188 67.839844 23.492188 67.683594 23.480469 L 67.683594 23.71875 C 67.789062 23.71875 67.902344 23.746094 67.902344 23.785156 C 67.902344 23.785156 67.875 23.835938 67.867188 23.84375 L 67.386719 24.386719 L 66.839844 23.71875 L 67.074219 23.71875 L 67.074219 23.480469 C 66.945312 23.492188 66.570312 23.492188 66.421875 23.492188 C 66.257812 23.492188 65.960938 23.492188 65.808594 23.480469 L 65.808594 23.71875 L 66.199219 23.71875 L 67.054688 24.765625 L 66.339844 25.574219 C 66.273438 25.652344 66.234375 25.6875 65.78125 25.6875 L 65.78125 25.925781 L 66.292969 25.914062 C 66.449219 25.914062 66.683594 25.914062 66.835938 25.925781 L 66.835938 25.6875 C 66.730469 25.6875 66.617188 25.660156 66.617188 25.625 C 66.617188 25.625 66.617188 25.613281 66.652344 25.566406 L 67.203125 24.945312 L 67.816406 25.6875 L 67.585938 25.6875 L 67.585938 25.925781 C 67.71875 25.914062 68.085938 25.914062 68.238281 25.914062 C 68.40625 25.914062 68.695312 25.914062 68.851562 25.925781 Z M 68.851562 25.925781 "/>
<path style=" stroke:none;fill-rule:evenodd;fill:rgb(0%,0%,0%);fill-opacity:1;" d="M 70.789062 26.074219 C 70.789062 25.753906 70.535156 25.464844 70.144531 25.382812 C 70.449219 25.273438 70.671875 25.015625 70.671875 24.707031 C 70.671875 24.402344 70.328125 24.183594 69.933594 24.183594 C 69.523438 24.183594 69.214844 24.40625 69.214844 24.695312 C 69.214844 24.839844 69.308594 24.898438 69.410156 24.898438 C 69.527344 24.898438 69.605469 24.816406 69.605469 24.703125 C 69.605469 24.5625 69.480469 24.511719 69.398438 24.507812 C 69.558594 24.296875 69.851562 24.285156 69.921875 24.285156 C 70.019531 24.285156 70.308594 24.316406 70.308594 24.707031 C 70.308594 24.976562 70.199219 25.136719 70.144531 25.199219 C 70.03125 25.316406 69.945312 25.324219 69.710938 25.339844 C 69.636719 25.34375 69.609375 25.347656 69.609375 25.394531 C 69.609375 25.449219 69.640625 25.449219 69.707031 25.449219 L 69.898438 25.449219 C 70.199219 25.449219 70.390625 25.671875 70.390625 26.074219 C 70.390625 26.550781 70.121094 26.691406 69.917969 26.691406 C 69.707031 26.691406 69.421875 26.613281 69.285156 26.414062 C 69.425781 26.414062 69.519531 26.324219 69.519531 26.199219 C 69.519531 26.078125 69.433594 25.988281 69.308594 25.988281 C 69.207031 25.988281 69.097656 26.054688 69.097656 26.207031 C 69.097656 26.570312 69.488281 26.804688 69.925781 26.804688 C 70.433594 26.804688 70.789062 26.453125 70.789062 26.074219 Z M 70.789062 26.074219 "/>
<path style=" stroke:none;fill-rule:evenodd;fill:rgb(0%,0%,0%);fill-opacity:1;" d="M 55.28125 35.28125 L 55.28125 35.042969 L 54.894531 35.042969 L 53.964844 33.921875 L 54.601562 33.1875 C 54.664062 33.117188 54.714844 33.074219 55.167969 33.074219 L 55.167969 32.835938 L 54.664062 32.847656 C 54.503906 32.847656 54.265625 32.847656 54.113281 32.835938 L 54.113281 33.074219 C 54.21875 33.074219 54.332031 33.101562 54.332031 33.140625 C 54.332031 33.140625 54.304688 33.1875 54.292969 33.199219 L 53.816406 33.738281 L 53.269531 33.074219 L 53.503906 33.074219 L 53.503906 32.835938 C 53.375 32.847656 53 32.847656 52.851562 32.847656 C 52.6875 32.847656 52.390625 32.847656 52.238281 32.835938 L 52.238281 33.074219 L 52.628906 33.074219 L 53.484375 34.117188 L 52.769531 34.929688 C 52.703125 35.003906 52.664062 35.042969 52.210938 35.042969 L 52.210938 35.28125 L 52.722656 35.269531 C 52.878906 35.269531 53.113281 35.269531 53.265625 35.28125 L 53.265625 35.042969 C 53.160156 35.042969 53.046875 35.015625 53.046875 34.976562 C 53.046875 34.976562 53.046875 34.96875 53.082031 34.921875 L 53.632812 34.300781 L 54.246094 35.042969 L 54.015625 35.042969 L 54.015625 35.28125 C 54.144531 35.269531 54.515625 35.269531 54.667969 35.269531 C 54.835938 35.269531 55.125 35.269531 55.28125 35.28125 Z M 55.28125 35.28125 "/>
<path style=" stroke:none;fill-rule:evenodd;fill:rgb(0%,0%,0%);fill-opacity:1;" d="M 57.269531 35.453125 L 57.269531 35.328125 L 56.867188 35.328125 L 56.867188 33.609375 C 56.867188 33.53125 56.867188 33.5 56.785156 33.5 C 56.738281 33.5 56.734375 33.503906 56.695312 33.558594 L 55.476562 35.328125 L 55.476562 35.453125 L 56.554688 35.453125 L 56.554688 35.769531 C 56.554688 35.914062 56.542969 35.953125 56.246094 35.953125 L 56.160156 35.953125 L 56.160156 36.082031 L 56.710938 36.070312 L 57.261719 36.082031 L 57.261719 35.953125 L 57.171875 35.953125 C 56.878906 35.953125 56.867188 35.914062 56.867188 35.769531 L 56.867188 35.453125 Z M 56.578125 35.328125 L 55.609375 35.328125 L 56.578125 33.917969 Z M 56.578125 35.328125 "/>
<path style=" stroke:none;fill-rule:evenodd;fill:rgb(0%,0%,0%);fill-opacity:1;" d="M 55.304688 49.183594 L 55.304688 48.949219 L 54.921875 48.949219 L 53.992188 47.828125 L 54.628906 47.09375 C 54.691406 47.023438 54.738281 46.980469 55.195312 46.980469 L 55.195312 46.742188 L 54.691406 46.753906 C 54.53125 46.753906 54.292969 46.753906 54.140625 46.742188 L 54.140625 46.980469 C 54.242188 46.980469 54.359375 47.007812 54.359375 47.046875 C 54.359375 47.046875 54.332031 47.09375 54.320312 47.105469 L 53.839844 47.644531 L 53.296875 46.980469 L 53.527344 46.980469 L 53.527344 46.742188 C 53.402344 46.753906 53.027344 46.753906 52.878906 46.753906 C 52.714844 46.753906 52.417969 46.753906 52.261719 46.742188 L 52.261719 46.980469 L 52.652344 46.980469 L 53.511719 48.023438 L 52.796875 48.832031 C 52.730469 48.910156 52.691406 48.949219 52.234375 48.949219 L 52.234375 49.183594 L 52.746094 49.175781 C 52.90625 49.175781 53.136719 49.175781 53.292969 49.183594 L 53.292969 48.949219 C 53.1875 48.949219 53.070312 48.921875 53.070312 48.882812 C 53.070312 48.882812 53.070312 48.871094 53.109375 48.828125 L 53.660156 48.207031 L 54.269531 48.949219 L 54.039062 48.949219 L 54.039062 49.183594 C 54.171875 49.175781 54.539062 49.175781 54.695312 49.175781 C 54.859375 49.175781 55.152344 49.175781 55.304688 49.183594 Z M 55.304688 49.183594 "/>
<path style=" stroke:none;fill-rule:evenodd;fill:rgb(0%,0%,0%);fill-opacity:1;" d="M 57.210938 49.222656 C 57.210938 48.777344 56.886719 48.382812 56.4375 48.382812 C 56.246094 48.382812 56.066406 48.445312 55.921875 48.574219 L 55.921875 47.839844 C 55.972656 47.851562 56.125 47.890625 56.285156 47.890625 C 56.761719 47.890625 57.050781 47.554688 57.050781 47.496094 C 57.050781 47.457031 57.027344 47.445312 57.007812 47.445312 C 57.007812 47.445312 56.992188 47.445312 56.957031 47.464844 C 56.808594 47.519531 56.632812 47.566406 56.425781 47.566406 C 56.199219 47.566406 56.011719 47.507812 55.894531 47.464844 C 55.855469 47.445312 55.84375 47.445312 55.84375 47.445312 C 55.796875 47.445312 55.796875 47.488281 55.796875 47.554688 L 55.796875 48.675781 C 55.796875 48.742188 55.796875 48.789062 55.855469 48.789062 C 55.886719 48.789062 55.898438 48.773438 55.917969 48.742188 C 55.964844 48.6875 56.109375 48.492188 56.433594 48.492188 C 56.648438 48.492188 56.75 48.667969 56.785156 48.738281 C 56.851562 48.878906 56.859375 49.054688 56.859375 49.203125 C 56.859375 49.34375 56.855469 49.550781 56.746094 49.71875 C 56.675781 49.832031 56.519531 49.949219 56.320312 49.949219 C 56.070312 49.949219 55.824219 49.792969 55.738281 49.546875 C 55.75 49.550781 55.777344 49.550781 55.777344 49.550781 C 55.882812 49.550781 55.96875 49.480469 55.96875 49.363281 C 55.96875 49.222656 55.855469 49.171875 55.78125 49.171875 C 55.710938 49.171875 55.589844 49.210938 55.589844 49.375 C 55.589844 49.71875 55.886719 50.066406 56.328125 50.066406 C 56.804688 50.066406 57.210938 49.695312 57.210938 49.222656 Z M 57.210938 49.222656 "/>
</g>
</svg>
