<?xml version="1.0" encoding="UTF-8"?>
<svg xmlns="http://www.w3.org/2000/svg" xmlns:xlink="http://www.w3.org/1999/xlink" width="404pt" height="157pt" viewBox="0 0 404 157" version="1.1">
<g id="surface23">
<path style="fill-rule:nonzero;fill:rgb(100%,100%,86.999313%);fill-opacity:1;stroke-width:1;stroke-linecap:square;stroke-linejoin:miter;stroke:rgb(0%,0%,0%);stroke-opacity:1;stroke-miterlimit:3.25;" d="M 396.863281 134.707031 L 389.125 100.808594 L 374.535156 70.511719 L 357.011719 48.535156 L 339.984375 34.960938 L 322.070312 26.332031 L 305.066406 22.449219 L 96.183594 22.449219 L 79.183594 26.332031 L 61.265625 34.960938 L 44.242188 48.535156 L 26.714844 70.511719 L 12.125 100.808594 L 4.390625 134.707031 L 108.832031 134.707031 L 116.492188 132.957031 L 120.355469 131.097656 L 128.09375 97.199219 L 137.429688 99.332031 L 152.023438 69.035156 L 166.078125 75.804688 L 183.601562 53.828125 L 200.625 67.402344 L 217.648438 53.828125 L 235.175781 75.804688 L 249.230469 69.035156 L 263.820312 99.332031 L 273.160156 97.199219 L 280.894531 131.097656 L 284.757812 132.957031 L 292.417969 134.707031 Z M 396.863281 134.707031 "/>
<path style="fill:none;stroke-width:0.2;stroke-linecap:square;stroke-linejoin:miter;stroke:rgb(50.000763%,50.000763%,50.000763%);stroke-opacity:0.5;stroke-miterlimit:3.25;" d="M -135.441406 134.707031 L 313.582031 134.707031 "/>
<path style="fill:none;stroke-width:0.2;stroke-linecap:square;stroke-linejoin:miter;stroke:rgb(50.000763%,50.000763%,50.000763%);stroke-opacity:0.5;stroke-miterlimit:3.25;" d="M 313.582031 314.359375 L 313.582031 134.707031 "/>
<path style=" stroke:none;fill-rule:nonzero;fill:rgb(50.000763%,50.000763%,50.000763%);fill-opacity:0.5;" d="M 313.582031 134.707031 L 313.679688 134.804688 L 313.679688 134.605469 L 313.582031 134.605469 Z M 313.582031 134.707031 "/>
<path style="fill:none;stroke-width:0.2;stroke-linecap:square;stroke-linejoin:miter;stroke:rgb(50.000763%,50.000763%,50.000763%);stroke-opacity:0.5;stroke-miterlimit:3.25;" d="M 313.582031 314.359375 L 313.582031 134.707031 "/>
<path style=" stroke:none;fill-rule:nonzero;fill:rgb(50.000763%,50.000763%,50.000763%);fill-opacity:0.5;" d="M 313.582031 134.707031 L 313.679688 134.804688 L 313.679688 134.605469 L 313.582031 134.605469 Z M 313.582031 134.707031 "/>
<path style="fill:none;stroke-width:0.2;stroke-linecap:square;stroke-linejoin:miter;stroke:rgb(50.000763%,50.000763%,50.000763%);stroke-opacity:0.5;stroke-miterlimit:3.25;" d="M -135.441406 22.449219 L 425.835938 22.449219 "/>
<path style="fill:none;stroke-width:0.2;stroke-linecap:square;stroke-linejoin:miter;stroke:rgb(50.000763%,50.000763%,50.000763%);stroke-opacity:0.5;stroke-miterlimit:3.25;" d="M -164.605469 197.117188 L 273.160156 97.199219 "/>
<path style="fill:none;stroke-width:0.2;stroke-linecap:square;stroke-linejoin:miter;stroke:rgb(50.000763%,50.000763%,50.000763%);stroke-opacity:0.5;stroke-miterlimit:3.25;" d="M 322.722656 314.359375 L 273.160156 97.199219 "/>
<path style=" stroke:none;fill-rule:nonzero;fill:rgb(50.000763%,50.000763%,50.000763%);fill-opacity:0.5;" d="M 273.160156 97.199219 L 273.257812 97.296875 L 273.234375 97.078125 L 273.136719 97.101562 Z M 273.160156 97.199219 "/>
<path style="fill:none;stroke-width:0.2;stroke-linecap:square;stroke-linejoin:miter;stroke:rgb(50.000763%,50.000763%,50.000763%);stroke-opacity:0.5;stroke-miterlimit:3.25;" d="M 322.722656 314.359375 L 273.160156 97.199219 "/>
<path style=" stroke:none;fill-rule:nonzero;fill:rgb(50.000763%,50.000763%,50.000763%);fill-opacity:0.5;" d="M 273.160156 97.199219 L 273.257812 97.296875 L 273.234375 97.078125 L 273.136719 97.101562 Z M 273.160156 97.199219 "/>
<path style="fill:none;stroke-width:0.2;stroke-linecap:square;stroke-linejoin:miter;stroke:rgb(50.000763%,50.000763%,50.000763%);stroke-opacity:0.5;stroke-miterlimit:3.25;" d="M -189.582031 87.675781 L 357.621094 -37.21875 "/>
<path style="fill:none;stroke-width:0.2;stroke-linecap:square;stroke-linejoin:miter;stroke:rgb(50.000763%,50.000763%,50.000763%);stroke-opacity:0.5;stroke-miterlimit:3.25;" d="M 437.867188 314.359375 L 357.621094 -37.21875 "/>
<path style="fill:none;stroke-width:0.2;stroke-linecap:square;stroke-linejoin:miter;stroke:rgb(50.000763%,50.000763%,50.000763%);stroke-opacity:0.5;stroke-miterlimit:3.25;" d="M 437.867188 314.359375 L 357.621094 -37.21875 "/>
<path style="fill:none;stroke-width:0.2;stroke-linecap:square;stroke-linejoin:miter;stroke:rgb(50.000763%,50.000763%,50.000763%);stroke-opacity:0.5;stroke-miterlimit:3.25;" d="M -155.324219 263.859375 L 249.230469 69.035156 "/>
<path style="fill:none;stroke-width:0.2;stroke-linecap:square;stroke-linejoin:miter;stroke:rgb(50.000763%,50.000763%,50.000763%);stroke-opacity:0.5;stroke-miterlimit:3.25;" d="M 367.371094 314.359375 L 249.230469 69.035156 "/>
<path style=" stroke:none;fill-rule:nonzero;fill:rgb(50.000763%,50.000763%,50.000763%);fill-opacity:0.5;" d="M 249.230469 69.035156 L 249.320312 69.125 L 249.277344 68.902344 L 249.1875 68.945312 Z M 249.230469 69.035156 "/>
<path style="fill:none;stroke-width:0.2;stroke-linecap:square;stroke-linejoin:miter;stroke:rgb(50.000763%,50.000763%,50.000763%);stroke-opacity:0.5;stroke-miterlimit:3.25;" d="M 367.371094 314.359375 L 249.230469 69.035156 "/>
<path style=" stroke:none;fill-rule:nonzero;fill:rgb(50.000763%,50.000763%,50.000763%);fill-opacity:0.5;" d="M 249.230469 69.035156 L 249.320312 69.125 L 249.277344 68.902344 L 249.1875 68.945312 Z M 249.230469 69.035156 "/>
<path style="fill:none;stroke-width:0.2;stroke-linecap:square;stroke-linejoin:miter;stroke:rgb(50.000763%,50.000763%,50.000763%);stroke-opacity:0.5;stroke-miterlimit:3.25;" d="M -204.03125 162.71875 L 301.664062 -80.808594 "/>
<path style="fill:none;stroke-width:0.2;stroke-linecap:square;stroke-linejoin:miter;stroke:rgb(50.000763%,50.000763%,50.000763%);stroke-opacity:0.5;stroke-miterlimit:3.25;" d="M 491.964844 314.359375 L 301.664062 -80.808594 "/>
<path style="fill:none;stroke-width:0.2;stroke-linecap:square;stroke-linejoin:miter;stroke:rgb(50.000763%,50.000763%,50.000763%);stroke-opacity:0.5;stroke-miterlimit:3.25;" d="M 491.964844 314.359375 L 301.664062 -80.808594 "/>
<path style="fill:none;stroke-width:0.2;stroke-linecap:square;stroke-linejoin:miter;stroke:rgb(50.000763%,50.000763%,50.000763%);stroke-opacity:0.5;stroke-miterlimit:3.25;" d="M -109.042969 314.359375 L 217.648438 53.828125 "/>
<path style="fill:none;stroke-width:0.2;stroke-linecap:square;stroke-linejoin:miter;stroke:rgb(50.000763%,50.000763%,50.000763%);stroke-opacity:0.5;stroke-miterlimit:3.25;" d="M -109.042969 314.359375 L 217.648438 53.828125 "/>
<path style=" stroke:none;fill-rule:nonzero;fill:rgb(50.000763%,50.000763%,50.000763%);fill-opacity:0.5;" d="M 217.648438 53.828125 L 217.585938 53.765625 L 217.664062 53.6875 L 217.726562 53.765625 Z M 217.648438 53.828125 "/>
<path style="fill:none;stroke-width:0.2;stroke-linecap:square;stroke-linejoin:miter;stroke:rgb(50.000763%,50.000763%,50.000763%);stroke-opacity:0.5;stroke-miterlimit:3.25;" d="M 425.414062 314.359375 L 217.648438 53.828125 "/>
<path style="fill:none;stroke-width:0.2;stroke-linecap:square;stroke-linejoin:miter;stroke:rgb(50.000763%,50.000763%,50.000763%);stroke-opacity:0.5;stroke-miterlimit:3.25;" d="M 425.414062 314.359375 L 217.648438 53.828125 "/>
<path style="fill:none;stroke-width:0.2;stroke-linecap:square;stroke-linejoin:miter;stroke:rgb(50.000763%,50.000763%,50.000763%);stroke-opacity:0.5;stroke-miterlimit:3.25;" d="M -203.398438 246.023438 L 235.425781 -103.925781 "/>
<path style="fill:none;stroke-width:0.2;stroke-linecap:square;stroke-linejoin:miter;stroke:rgb(50.000763%,50.000763%,50.000763%);stroke-opacity:0.5;stroke-miterlimit:3.25;" d="M 568.996094 314.359375 L 235.425781 -103.925781 "/>
<path style="fill:none;stroke-width:0.2;stroke-linecap:square;stroke-linejoin:miter;stroke:rgb(50.000763%,50.000763%,50.000763%);stroke-opacity:0.5;stroke-miterlimit:3.25;" d="M 568.996094 314.359375 L 235.425781 -103.925781 "/>
<path style="fill:none;stroke-width:0.2;stroke-linecap:square;stroke-linejoin:miter;stroke:rgb(50.000763%,50.000763%,50.000763%);stroke-opacity:0.5;stroke-miterlimit:3.25;" d="M -24.164062 314.359375 L 183.601562 53.828125 "/>
<path style="fill:none;stroke-width:0.2;stroke-linecap:square;stroke-linejoin:miter;stroke:rgb(50.000763%,50.000763%,50.000763%);stroke-opacity:0.5;stroke-miterlimit:3.25;" d="M -24.164062 314.359375 L 183.601562 53.828125 "/>
<path style=" stroke:none;fill-rule:nonzero;fill:rgb(50.000763%,50.000763%,50.000763%);fill-opacity:0.5;" d="M 183.601562 53.828125 L 183.523438 53.75 L 183.585938 53.6875 L 183.664062 53.75 Z M 183.601562 53.828125 "/>
<path style="fill:none;stroke-width:0.2;stroke-linecap:square;stroke-linejoin:miter;stroke:rgb(50.000763%,50.000763%,50.000763%);stroke-opacity:0.5;stroke-miterlimit:3.25;" d="M 510.296875 314.359375 L 183.601562 53.828125 "/>
<path style="fill:none;stroke-width:0.2;stroke-linecap:square;stroke-linejoin:miter;stroke:rgb(50.000763%,50.000763%,50.000763%);stroke-opacity:0.5;stroke-miterlimit:3.25;" d="M 510.296875 314.359375 L 183.601562 53.828125 "/>
<path style="fill:none;stroke-width:0.2;stroke-linecap:square;stroke-linejoin:miter;stroke:rgb(50.000763%,50.000763%,50.000763%);stroke-opacity:0.5;stroke-miterlimit:3.25;" d="M -167.746094 314.359375 L 165.828125 -103.925781 "/>
<path style="fill:none;stroke-width:0.2;stroke-linecap:square;stroke-linejoin:miter;stroke:rgb(50.000763%,50.000763%,50.000763%);stroke-opacity:0.5;stroke-miterlimit:3.25;" d="M -167.746094 314.359375 L 165.828125 -103.925781 "/>
<path style="fill:none;stroke-width:0.2;stroke-linecap:square;stroke-linejoin:miter;stroke:rgb(50.000763%,50.000763%,50.000763%);stroke-opacity:0.5;stroke-miterlimit:3.25;" d="M 165.828125 -103.925781 L 604.652344 246.023438 "/>
<path style="fill:none;stroke-width:0.2;stroke-linecap:square;stroke-linejoin:miter;stroke:rgb(50.000763%,50.000763%,50.000763%);stroke-opacity:0.5;stroke-miterlimit:3.25;" d="M 33.878906 314.359375 L 152.023438 69.035156 "/>
<path style="fill:none;stroke-width:0.2;stroke-linecap:square;stroke-linejoin:miter;stroke:rgb(50.000763%,50.000763%,50.000763%);stroke-opacity:0.5;stroke-miterlimit:3.25;" d="M 33.878906 314.359375 L 152.023438 69.035156 "/>
<path style=" stroke:none;fill-rule:nonzero;fill:rgb(50.000763%,50.000763%,50.000763%);fill-opacity:0.5;" d="M 152.023438 69.035156 L 151.929688 68.945312 L 151.976562 68.902344 L 152.066406 68.945312 Z M 152.023438 69.035156 "/>
<path style="fill:none;stroke-width:0.2;stroke-linecap:square;stroke-linejoin:miter;stroke:rgb(50.000763%,50.000763%,50.000763%);stroke-opacity:0.5;stroke-miterlimit:3.25;" d="M 152.023438 69.035156 L 556.574219 263.859375 "/>
<path style="fill:none;stroke-width:0.2;stroke-linecap:square;stroke-linejoin:miter;stroke:rgb(50.000763%,50.000763%,50.000763%);stroke-opacity:0.5;stroke-miterlimit:3.25;" d="M -90.714844 314.359375 L 99.589844 -80.808594 "/>
<path style="fill:none;stroke-width:0.2;stroke-linecap:square;stroke-linejoin:miter;stroke:rgb(50.000763%,50.000763%,50.000763%);stroke-opacity:0.5;stroke-miterlimit:3.25;" d="M -90.714844 314.359375 L 99.589844 -80.808594 "/>
<path style="fill:none;stroke-width:0.2;stroke-linecap:square;stroke-linejoin:miter;stroke:rgb(50.000763%,50.000763%,50.000763%);stroke-opacity:0.5;stroke-miterlimit:3.25;" d="M 99.589844 -80.808594 L 605.28125 162.71875 "/>
<path style="fill:none;stroke-width:0.2;stroke-linecap:square;stroke-linejoin:miter;stroke:rgb(50.000763%,50.000763%,50.000763%);stroke-opacity:0.5;stroke-miterlimit:3.25;" d="M 78.527344 314.359375 L 128.09375 97.199219 "/>
<path style="fill:none;stroke-width:0.2;stroke-linecap:square;stroke-linejoin:miter;stroke:rgb(50.000763%,50.000763%,50.000763%);stroke-opacity:0.5;stroke-miterlimit:3.25;" d="M 78.527344 314.359375 L 128.09375 97.199219 "/>
<path style=" stroke:none;fill-rule:nonzero;fill:rgb(50.000763%,50.000763%,50.000763%);fill-opacity:0.5;" d="M 128.09375 97.199219 L 127.996094 97.101562 L 128.015625 97.078125 L 128.113281 97.101562 Z M 128.09375 97.199219 "/>
<path style="fill:none;stroke-width:0.2;stroke-linecap:square;stroke-linejoin:miter;stroke:rgb(50.000763%,50.000763%,50.000763%);stroke-opacity:0.5;stroke-miterlimit:3.25;" d="M 128.09375 97.199219 L 565.855469 197.117188 "/>
<path style="fill:none;stroke-width:0.2;stroke-linecap:square;stroke-linejoin:miter;stroke:rgb(50.000763%,50.000763%,50.000763%);stroke-opacity:0.5;stroke-miterlimit:3.25;" d="M -36.613281 314.359375 L 43.628906 -37.21875 "/>
<path style="fill:none;stroke-width:0.2;stroke-linecap:square;stroke-linejoin:miter;stroke:rgb(50.000763%,50.000763%,50.000763%);stroke-opacity:0.5;stroke-miterlimit:3.25;" d="M -36.613281 314.359375 L 43.628906 -37.21875 "/>
<path style="fill:none;stroke-width:0.2;stroke-linecap:square;stroke-linejoin:miter;stroke:rgb(50.000763%,50.000763%,50.000763%);stroke-opacity:0.5;stroke-miterlimit:3.25;" d="M 43.628906 -37.21875 L 590.835938 87.675781 "/>
<path style="fill:none;stroke-width:0.2;stroke-linecap:square;stroke-linejoin:miter;stroke:rgb(50.000763%,50.000763%,50.000763%);stroke-opacity:0.5;stroke-miterlimit:3.25;" d="M 87.671875 314.359375 L 87.671875 134.707031 "/>
<path style="fill:none;stroke-width:0.2;stroke-linecap:square;stroke-linejoin:miter;stroke:rgb(50.000763%,50.000763%,50.000763%);stroke-opacity:0.5;stroke-miterlimit:3.25;" d="M 87.671875 314.359375 L 87.671875 134.707031 "/>
<path style=" stroke:none;fill-rule:nonzero;fill:rgb(50.000763%,50.000763%,50.000763%);fill-opacity:0.5;" d="M 87.671875 134.707031 L 87.570312 134.605469 L 87.570312 128 L 87.671875 134.605469 Z M 87.671875 134.707031 "/>
<path style="fill:none;stroke-width:0.2;stroke-linecap:square;stroke-linejoin:miter;stroke:rgb(50.000763%,50.000763%,50.000763%);stroke-opacity:0.5;stroke-miterlimit:3.25;" d="M 87.671875 134.707031 L 536.691406 134.707031 "/>
<path style="fill:none;stroke-width:0.2;stroke-linecap:square;stroke-linejoin:miter;stroke:rgb(50.000763%,50.000763%,50.000763%);stroke-opacity:0.5;stroke-miterlimit:3.25;" d="M -24.585938 22.449219 L 536.691406 22.449219 "/>
</g>
</svg>
