<?xml version="1.0" encoding="UTF-8"?>
<svg xmlns="http://www.w3.org/2000/svg" xmlns:xlink="http://www.w3.org/1999/xlink" width="283pt" height="127pt" viewBox="0 0 283 127" version="1.1">
<g id="surface7">
<path style=" stroke:none;fill-rule:nonzero;fill:rgb(74.999619%,74.999619%,74.999619%);fill-opacity:0.1;" d="M -137.566406 103.273438 L 180.191406 103.273438 L 180.191406 421.03125 L 259.632812 421.03125 L 259.632812 23.832031 L -137.566406 23.832031 Z M -137.566406 103.273438 "/>
<path style="fill:none;stroke-width:0.75;stroke-linecap:square;stroke-linejoin:miter;stroke:rgb(0%,0%,0%);stroke-opacity:0.1;stroke-miterlimit:3.25;" d="M -137.566406 103.273438 L 180.191406 103.273438 "/>
<path style="fill:none;stroke-width:0.75;stroke-linecap:square;stroke-linejoin:miter;stroke:rgb(0%,0%,0%);stroke-opacity:0.1;stroke-miterlimit:3.25;" d="M 180.191406 254.304688 L 180.191406 103.273438 "/>
<path style=" stroke:none;fill-rule:nonzero;fill:rgb(0%,0%,0%);fill-opacity:0.1;" d="M 180.191406 103.273438 L 180.566406 103.648438 L 180.566406 102.898438 L 180.191406 102.898438 Z M 180.191406 103.273438 "/>
<path style="fill:none;stroke-width:0.75;stroke-linecap:square;stroke-linejoin:miter;stroke:rgb(0%,0%,0%);stroke-opacity:0.1;stroke-miterlimit:3.25;" d="M 180.191406 254.304688 L 180.191406 103.273438 "/>
<path style=" stroke:none;fill-rule:nonzero;fill:rgb(0%,0%,0%);fill-opacity:0.1;" d="M 180.191406 103.273438 L 180.566406 103.648438 L 180.566406 102.898438 L 180.191406 102.898438 Z M 180.191406 103.273438 "/>
<path style="fill:none;stroke-width:0.75;stroke-linecap:square;stroke-linejoin:miter;stroke:rgb(0%,0%,0%);stroke-opacity:0.1;stroke-miterlimit:3.25;" d="M -137.566406 23.832031 L 259.632812 23.832031 "/>
<path style="fill:none;stroke-width:0.75;stroke-linecap:square;stroke-linejoin:miter;stroke:rgb(0%,0%,0%);stroke-opacity:0.1;stroke-miterlimit:3.25;" d="M 259.632812 254.304688 L 259.632812 23.832031 "/>
<path style=" stroke:none;fill-rule:nonzero;fill:rgb(0%,0%,0%);fill-opacity:0.1;" d="M 259.632812 23.832031 L 260.007812 24.207031 L 260.007812 23.457031 L 259.632812 23.457031 Z M 259.632812 23.832031 "/>
<path style="fill:none;stroke-width:0.75;stroke-linecap:square;stroke-linejoin:miter;stroke:rgb(0%,0%,0%);stroke-opacity:0.1;stroke-miterlimit:3.25;" d="M 259.632812 254.304688 L 259.632812 23.832031 "/>
<path style=" stroke:none;fill-rule:nonzero;fill:rgb(0%,0%,0%);fill-opacity:0.1;" d="M 259.632812 23.832031 L 260.007812 24.207031 L 260.007812 23.457031 L 259.632812 23.457031 Z M 259.632812 23.832031 "/>
<path style=" stroke:none;fill-rule:nonzero;fill:rgb(74.999619%,74.999619%,74.999619%);fill-opacity:0.1;" d="M -127.871094 169.867188 L 174.335938 71.671875 L 272.53125 373.878906 L 348.082031 349.332031 L 225.339844 -28.425781 L -152.417969 94.3125 Z M -127.871094 169.867188 "/>
<path style="fill:none;stroke-width:0.75;stroke-linecap:square;stroke-linejoin:miter;stroke:rgb(0%,0%,0%);stroke-opacity:0.1;stroke-miterlimit:3.25;" d="M -127.871094 169.867188 L 174.335938 71.671875 "/>
<path style="fill:none;stroke-width:0.75;stroke-linecap:square;stroke-linejoin:miter;stroke:rgb(0%,0%,0%);stroke-opacity:0.1;stroke-miterlimit:3.25;" d="M 233.675781 254.304688 L 174.335938 71.671875 "/>
<path style=" stroke:none;fill-rule:nonzero;fill:rgb(0%,0%,0%);fill-opacity:0.1;" d="M 174.335938 71.671875 L 174.691406 72.03125 L 174.578125 71.199219 L 174.21875 71.316406 Z M 174.335938 71.671875 "/>
<path style="fill:none;stroke-width:0.75;stroke-linecap:square;stroke-linejoin:miter;stroke:rgb(0%,0%,0%);stroke-opacity:0.1;stroke-miterlimit:3.25;" d="M 233.675781 254.304688 L 174.335938 71.671875 "/>
<path style=" stroke:none;fill-rule:nonzero;fill:rgb(0%,0%,0%);fill-opacity:0.1;" d="M 174.335938 71.671875 L 174.691406 72.03125 L 174.578125 71.199219 L 174.21875 71.316406 Z M 174.335938 71.671875 "/>
<path style="fill:none;stroke-width:0.75;stroke-linecap:square;stroke-linejoin:miter;stroke:rgb(0%,0%,0%);stroke-opacity:0.1;stroke-miterlimit:3.25;" d="M -152.417969 94.3125 L 225.339844 -28.425781 "/>
<path style="fill:none;stroke-width:0.75;stroke-linecap:square;stroke-linejoin:miter;stroke:rgb(0%,0%,0%);stroke-opacity:0.1;stroke-miterlimit:3.25;" d="M 317.203125 254.304688 L 225.339844 -28.425781 "/>
<path style="fill:none;stroke-width:0.75;stroke-linecap:square;stroke-linejoin:miter;stroke:rgb(0%,0%,0%);stroke-opacity:0.1;stroke-miterlimit:3.25;" d="M 317.203125 254.304688 L 225.339844 -28.425781 "/>
<path style=" stroke:none;fill-rule:nonzero;fill:rgb(74.999619%,74.999619%,74.999619%);fill-opacity:0.1;" d="M -98.558594 240.496094 L 158.511719 53.722656 L 345.285156 310.796875 L 409.554688 264.101562 L 176.085938 -57.238281 L -145.253906 176.230469 Z M -98.558594 240.496094 "/>
<path style="fill:none;stroke-width:0.75;stroke-linecap:square;stroke-linejoin:miter;stroke:rgb(0%,0%,0%);stroke-opacity:0.1;stroke-miterlimit:3.25;" d="M -98.558594 240.496094 L 158.511719 53.722656 "/>
<path style="fill:none;stroke-width:0.75;stroke-linecap:square;stroke-linejoin:miter;stroke:rgb(0%,0%,0%);stroke-opacity:0.1;stroke-miterlimit:3.25;" d="M 304.242188 254.304688 L 158.511719 53.722656 "/>
<path style=" stroke:none;fill-rule:nonzero;fill:rgb(0%,0%,0%);fill-opacity:0.1;" d="M 158.511719 53.722656 L 158.816406 54.027344 L 158.59375 53.199219 L 158.292969 53.417969 Z M 158.511719 53.722656 "/>
<path style="fill:none;stroke-width:0.75;stroke-linecap:square;stroke-linejoin:miter;stroke:rgb(0%,0%,0%);stroke-opacity:0.1;stroke-miterlimit:3.25;" d="M 304.242188 254.304688 L 158.511719 53.722656 "/>
<path style=" stroke:none;fill-rule:nonzero;fill:rgb(0%,0%,0%);fill-opacity:0.1;" d="M 158.511719 53.722656 L 158.816406 54.027344 L 158.59375 53.199219 L 158.292969 53.417969 Z M 158.511719 53.722656 "/>
<path style="fill:none;stroke-width:0.75;stroke-linecap:square;stroke-linejoin:miter;stroke:rgb(0%,0%,0%);stroke-opacity:0.1;stroke-miterlimit:3.25;" d="M -145.253906 176.230469 L 176.085938 -57.238281 "/>
<path style="fill:none;stroke-width:0.75;stroke-linecap:square;stroke-linejoin:miter;stroke:rgb(0%,0%,0%);stroke-opacity:0.1;stroke-miterlimit:3.25;" d="M 402.4375 254.304688 L 176.085938 -57.238281 "/>
<path style="fill:none;stroke-width:0.75;stroke-linecap:square;stroke-linejoin:miter;stroke:rgb(0%,0%,0%);stroke-opacity:0.1;stroke-miterlimit:3.25;" d="M 402.4375 254.304688 L 176.085938 -57.238281 "/>
<path style=" stroke:none;fill-rule:nonzero;fill:rgb(74.999619%,74.999619%,74.999619%);fill-opacity:0.1;" d="M -49.875 313.824219 L 136.898438 56.753906 L 393.96875 243.527344 L 440.664062 179.257812 L 119.324219 -54.210938 L -114.144531 267.132812 Z M -49.875 313.824219 "/>
<path style="fill:none;stroke-width:0.75;stroke-linecap:square;stroke-linejoin:miter;stroke:rgb(0%,0%,0%);stroke-opacity:0.1;stroke-miterlimit:3.25;" d="M -6.632812 254.304688 L 136.898438 56.753906 "/>
<path style="fill:none;stroke-width:0.75;stroke-linecap:square;stroke-linejoin:miter;stroke:rgb(0%,0%,0%);stroke-opacity:0.1;stroke-miterlimit:3.25;" d="M -6.632812 254.304688 L 136.898438 56.753906 "/>
<path style=" stroke:none;fill-rule:nonzero;fill:rgb(0%,0%,0%);fill-opacity:0.1;" d="M 136.898438 56.753906 L 136.59375 56.449219 L 136.8125 56.230469 L 137.117188 56.449219 Z M 136.898438 56.753906 "/>
<path style="fill:none;stroke-width:0.75;stroke-linecap:square;stroke-linejoin:miter;stroke:rgb(0%,0%,0%);stroke-opacity:0.1;stroke-miterlimit:3.25;" d="M 136.898438 56.753906 L 393.96875 243.527344 "/>
<path style="fill:none;stroke-width:0.75;stroke-linecap:square;stroke-linejoin:miter;stroke:rgb(0%,0%,0%);stroke-opacity:0.1;stroke-miterlimit:3.25;" d="M -104.824219 254.304688 L 119.324219 -54.210938 "/>
<path style="fill:none;stroke-width:0.75;stroke-linecap:square;stroke-linejoin:miter;stroke:rgb(0%,0%,0%);stroke-opacity:0.1;stroke-miterlimit:3.25;" d="M -104.824219 254.304688 L 119.324219 -54.210938 "/>
<path style="fill:none;stroke-width:0.75;stroke-linecap:square;stroke-linejoin:miter;stroke:rgb(0%,0%,0%);stroke-opacity:0.1;stroke-miterlimit:3.25;" d="M 119.324219 -54.210938 L 440.664062 179.257812 "/>
<path style=" stroke:none;fill-rule:nonzero;fill:rgb(74.999619%,74.999619%,74.999619%);fill-opacity:0.1;" d="M 18.101562 377.667969 L 116.292969 75.460938 L 418.5 173.65625 L 443.046875 98.101562 L 65.289062 -24.636719 L -57.453125 353.121094 Z M 18.101562 377.667969 "/>
<path style="fill:none;stroke-width:0.75;stroke-linecap:square;stroke-linejoin:miter;stroke:rgb(0%,0%,0%);stroke-opacity:0.1;stroke-miterlimit:3.25;" d="M 58.183594 254.304688 L 116.292969 75.460938 "/>
<path style="fill:none;stroke-width:0.75;stroke-linecap:square;stroke-linejoin:miter;stroke:rgb(0%,0%,0%);stroke-opacity:0.1;stroke-miterlimit:3.25;" d="M 58.183594 254.304688 L 116.292969 75.460938 "/>
<path style=" stroke:none;fill-rule:nonzero;fill:rgb(0%,0%,0%);fill-opacity:0.1;" d="M 116.292969 75.460938 L 115.9375 75.105469 L 116.050781 74.988281 L 116.410156 75.105469 Z M 116.292969 75.460938 "/>
<path style="fill:none;stroke-width:0.75;stroke-linecap:square;stroke-linejoin:miter;stroke:rgb(0%,0%,0%);stroke-opacity:0.1;stroke-miterlimit:3.25;" d="M 116.292969 75.460938 L 418.5 173.65625 "/>
<path style="fill:none;stroke-width:0.75;stroke-linecap:square;stroke-linejoin:miter;stroke:rgb(0%,0%,0%);stroke-opacity:0.1;stroke-miterlimit:3.25;" d="M -25.34375 254.304688 L 65.289062 -24.636719 "/>
<path style="fill:none;stroke-width:0.75;stroke-linecap:square;stroke-linejoin:miter;stroke:rgb(0%,0%,0%);stroke-opacity:0.1;stroke-miterlimit:3.25;" d="M -25.34375 254.304688 L 65.289062 -24.636719 "/>
<path style="fill:none;stroke-width:0.75;stroke-linecap:square;stroke-linejoin:miter;stroke:rgb(0%,0%,0%);stroke-opacity:0.1;stroke-miterlimit:3.25;" d="M 65.289062 -24.636719 L 443.046875 98.101562 "/>
<path style=" stroke:none;fill-rule:nonzero;fill:rgb(74.999619%,74.999619%,74.999619%);fill-opacity:0.1;" d="M 103.273438 421.03125 L 103.273438 103.273438 L 421.03125 103.273438 L 421.03125 23.832031 L 23.832031 23.832031 L 23.832031 421.03125 Z M 103.273438 421.03125 "/>
<path style="fill:none;stroke-width:0.75;stroke-linecap:square;stroke-linejoin:miter;stroke:rgb(0%,0%,0%);stroke-opacity:0.1;stroke-miterlimit:3.25;" d="M 103.273438 254.304688 L 103.273438 103.273438 "/>
<path style="fill:none;stroke-width:0.75;stroke-linecap:square;stroke-linejoin:miter;stroke:rgb(0%,0%,0%);stroke-opacity:0.1;stroke-miterlimit:3.25;" d="M 103.273438 254.304688 L 103.273438 103.273438 "/>
<path style=" stroke:none;fill-rule:nonzero;fill:rgb(0%,0%,0%);fill-opacity:0.1;" d="M 103.273438 103.273438 L 102.898438 102.898438 L 103.273438 102.898438 Z M 103.273438 103.273438 "/>
<path style="fill:none;stroke-width:0.75;stroke-linecap:square;stroke-linejoin:miter;stroke:rgb(0%,0%,0%);stroke-opacity:0.1;stroke-miterlimit:3.25;" d="M 103.273438 103.273438 L 421.03125 103.273438 "/>
<path style="fill:none;stroke-width:0.75;stroke-linecap:square;stroke-linejoin:miter;stroke:rgb(0%,0%,0%);stroke-opacity:0.1;stroke-miterlimit:3.25;" d="M 23.832031 254.304688 L 23.832031 23.832031 "/>
<path style="fill:none;stroke-width:0.75;stroke-linecap:square;stroke-linejoin:miter;stroke:rgb(0%,0%,0%);stroke-opacity:0.1;stroke-miterlimit:3.25;" d="M 23.832031 254.304688 L 23.832031 23.832031 "/>
<path style=" stroke:none;fill-rule:nonzero;fill:rgb(0%,0%,0%);fill-opacity:0.1;" d="M 23.832031 23.832031 L 23.457031 23.457031 L 23.832031 23.457031 Z M 23.832031 23.832031 "/>
<path style="fill:none;stroke-width:0.75;stroke-linecap:square;stroke-linejoin:miter;stroke:rgb(0%,0%,0%);stroke-opacity:0.1;stroke-miterlimit:3.25;" d="M 23.832031 23.832031 L 421.03125 23.832031 "/>
<path style="fill-rule:nonzero;fill:rgb(100%,92.500191%,92.500191%);fill-opacity:1;stroke-width:0.75;stroke-linecap:square;stroke-linejoin:miter;stroke:rgb(0%,0%,0%);stroke-opacity:1;stroke-miterlimit:3.25;" d="M 259.632812 103.273438 L 259.632812 77.113281 L 248.25 42.085938 L 244.214844 36.53125 L 236.664062 31.042969 L 214.464844 23.832031 L 64.503906 23.832031 L 60.519531 26.726562 L 38.957031 56.40625 L 23.832031 102.953125 L 23.832031 103.273438 L 77.085938 103.273438 L 101.015625 95.496094 L 112.492188 87.160156 L 116.292969 75.460938 L 121.964844 77.304688 L 136.898438 56.753906 L 145.621094 63.089844 L 158.511719 53.722656 L 172.085938 72.402344 L 174.335938 71.671875 L 176.585938 78.601562 L 187.339844 93.402344 L 200.148438 102.707031 L 201.882812 103.273438 Z M 259.632812 103.273438 "/>
<path style="fill:none;stroke-width:0.25;stroke-linecap:square;stroke-linejoin:miter;stroke:rgb(0%,0%,0%);stroke-opacity:1;stroke-miterlimit:3.25;" d="M 259.632812 103.273438 L 259.03125 99.304688 L 257.96875 92.597656 L 256.921875 86.25 L 255.894531 80.257812 L 254.894531 74.621094 L 253.917969 69.335938 L 252.976562 64.398438 L 252.070312 59.804688 L 251.203125 55.554688 L 250.382812 51.640625 L 249.605469 48.058594 L 248.878906 44.804688 L 248.25 42.085938 L 247.851562 41.539062 L 247.445312 40.984375 L 247.046875 40.449219 L 246.65625 39.929688 L 246.273438 39.429688 L 245.898438 38.949219 L 245.535156 38.488281 L 245.179688 38.042969 L 244.835938 37.617188 L 244.503906 37.210938 L 244.183594 36.820312 L 243.875 36.453125 L 243.578125 36.101562 L 243.496094 36.007812 L 242.996094 35.753906 L 242.214844 35.363281 L 241.367188 34.945312 L 240.457031 34.5 L 239.480469 34.035156 L 238.4375 33.542969 L 237.324219 33.027344 L 236.144531 32.492188 L 234.898438 31.933594 L 233.578125 31.351562 L 232.1875 30.75 L 230.726562 30.128906 L 229.191406 29.488281 L 227.585938 28.828125 L 225.902344 28.148438 L 224.144531 27.453125 L 222.3125 26.742188 L 220.40625 26.011719 L 218.417969 25.269531 L 216.355469 24.511719 L 214.464844 23.832031 L 64.503906 23.832031 L 64.269531 24.023438 L 64.011719 24.238281 L 63.761719 24.445312 L 63.515625 24.652344 L 63.28125 24.855469 L 63.050781 25.054688 L 62.828125 25.253906 L 62.609375 25.445312 L 62.398438 25.636719 L 62.191406 25.828125 L 61.992188 26.015625 L 61.792969 26.199219 L 61.410156 26.566406 L 61.222656 26.746094 L 60.859375 27.109375 L 60.683594 27.289062 L 60.503906 27.46875 L 60.332031 27.652344 L 60.15625 27.835938 L 59.8125 28.203125 L 59.640625 28.390625 L 59.296875 28.773438 L 59.125 28.96875 L 58.949219 29.167969 L 58.777344 29.371094 L 58.597656 29.582031 L 58.421875 29.792969 L 58.238281 30.011719 L 58.058594 30.238281 L 57.871094 30.46875 L 57.683594 30.703125 L 57.488281 30.949219 L 57.292969 31.203125 L 57.09375 31.460938 L 56.890625 31.730469 L 56.683594 32.007812 L 56.472656 32.296875 L 56.25 32.601562 L 56 32.953125 L 55.710938 33.359375 L 55.390625 33.816406 L 55.039062 34.328125 L 54.660156 34.890625 L 54.246094 35.503906 L 53.808594 36.164062 L 53.34375 36.878906 L 52.855469 37.636719 L 52.339844 38.445312 L 51.804688 39.300781 L 51.25 40.203125 L 50.671875 41.152344 L 50.078125 42.144531 L 49.464844 43.175781 L 48.839844 44.253906 L 48.195312 45.375 L 47.539062 46.53125 L 46.871094 47.730469 L 46.191406 48.964844 L 45.503906 50.238281 L 44.804688 51.546875 L 44.097656 52.890625 L 43.386719 54.269531 L 42.667969 55.675781 L 41.945312 57.117188 L 41.21875 58.585938 L 40.492188 60.085938 L 39.761719 61.609375 L 39.035156 63.160156 L 38.304688 64.734375 L 37.578125 66.332031 L 36.851562 67.949219 L 36.132812 69.585938 L 35.414062 71.242188 L 34.703125 72.914062 L 34 74.601562 L 33.300781 76.304688 L 32.609375 78.019531 L 31.925781 79.742188 L 31.253906 81.476562 L 30.589844 83.214844 L 29.9375 84.960938 L 29.292969 86.710938 L 28.664062 88.460938 L 28.042969 90.214844 L 27.4375 91.964844 L 26.847656 93.710938 L 26.269531 95.453125 L 25.710938 97.175781 L 25.1875 98.816406 L 24.703125 100.367188 L 24.261719 101.832031 L 23.851562 103.210938 L 23.832031 103.273438 L 64.753906 103.273438 L 65.25 103.269531 L 66.25 103.253906 L 66.75 103.242188 L 67.246094 103.226562 L 67.746094 103.207031 L 68.246094 103.183594 L 68.742188 103.160156 L 69.242188 103.128906 L 69.738281 103.097656 L 70.238281 103.066406 L 70.734375 103.027344 L 71.234375 102.988281 L 72.226562 102.894531 L 73.21875 102.792969 L 74.210938 102.675781 L 74.707031 102.613281 L 75.203125 102.546875 L 75.695312 102.480469 L 76.191406 102.40625 L 76.683594 102.332031 L 77.175781 102.253906 L 78.160156 102.089844 L 79.144531 101.910156 L 79.632812 101.816406 L 80.125 101.722656 L 81.101562 101.519531 L 81.589844 101.414062 L 82.074219 101.304688 L 82.5625 101.191406 L 83.046875 101.078125 L 83.53125 100.960938 L 84.015625 100.839844 L 84.5 100.714844 L 84.984375 100.585938 L 85.464844 100.457031 L 85.945312 100.324219 L 86.425781 100.1875 L 86.90625 100.046875 L 87.382812 99.90625 L 87.863281 99.761719 L 88.339844 99.613281 L 88.8125 99.460938 L 89.289062 99.304688 L 89.761719 99.148438 L 90.234375 98.988281 L 90.707031 98.824219 L 91.175781 98.660156 L 91.648438 98.492188 L 92.117188 98.320312 L 92.582031 98.144531 L 93.050781 97.964844 L 93.515625 97.785156 L 93.980469 97.601562 L 94.902344 97.226562 L 95.824219 96.835938 L 96.28125 96.640625 L 97.195312 96.234375 L 97.648438 96.027344 L 98.101562 95.816406 L 98.550781 95.605469 L 99.003906 95.390625 L 99.453125 95.171875 L 100.34375 94.726562 L 100.789062 94.5 L 101.234375 94.269531 L 101.675781 94.039062 L 102.117188 93.804688 L 102.554688 93.566406 L 103.429688 93.082031 L 103.863281 92.835938 L 104.296875 92.585938 L 104.726562 92.335938 L 104.910156 92.226562 L 104.9375 91.984375 L 105.136719 91.363281 L 105.34375 90.75 L 105.5625 90.144531 L 105.789062 89.546875 L 106.027344 88.953125 L 106.277344 88.363281 L 106.535156 87.785156 L 106.804688 87.210938 L 107.085938 86.644531 L 107.371094 86.085938 L 107.671875 85.53125 L 107.976562 84.988281 L 108.292969 84.449219 L 108.621094 83.921875 L 108.953125 83.398438 L 109.300781 82.886719 L 109.652344 82.382812 L 110.011719 81.882812 L 110.382812 81.394531 L 110.761719 80.914062 L 111.148438 80.441406 L 111.542969 79.980469 L 111.945312 79.527344 L 112.355469 79.082031 L 112.773438 78.644531 L 113.199219 78.21875 L 113.632812 77.800781 L 114.074219 77.390625 L 114.523438 76.992188 L 114.96875 76.597656 L 115.414062 76.214844 L 115.855469 75.835938 L 116.292969 75.460938 L 116.726562 75.09375 L 117.15625 74.734375 L 117.578125 74.378906 L 118 74.027344 L 118.414062 73.683594 L 118.828125 73.332031 L 119.246094 72.972656 L 119.660156 72.605469 L 120.074219 72.234375 L 120.488281 71.851562 L 120.90625 71.46875 L 121.734375 70.679688 L 122.152344 70.277344 L 122.566406 69.871094 L 122.984375 69.460938 L 123.398438 69.050781 L 123.816406 68.632812 L 124.230469 68.214844 L 125.066406 67.371094 L 125.480469 66.945312 L 125.898438 66.523438 L 126.734375 65.671875 L 127.148438 65.25 L 127.5625 64.832031 L 128.386719 64.007812 L 128.796875 63.605469 L 129.203125 63.207031 L 129.613281 62.8125 L 130.015625 62.425781 L 130.421875 62.042969 L 130.824219 61.667969 L 131.226562 61.296875 L 131.628906 60.929688 L 132.03125 60.570312 L 132.433594 60.214844 L 132.835938 59.867188 L 133.238281 59.523438 L 133.640625 59.1875 L 134.042969 58.859375 L 134.445312 58.535156 L 134.851562 58.222656 L 135.257812 57.914062 L 135.664062 57.609375 L 136.074219 57.316406 L 136.484375 57.03125 L 136.898438 56.753906 L 137.3125 56.484375 L 137.730469 56.222656 L 138.148438 55.96875 L 138.570312 55.722656 L 138.996094 55.484375 L 139.421875 55.257812 L 139.847656 55.039062 L 140.277344 54.828125 L 140.707031 54.625 L 141.140625 54.429688 L 141.574219 54.246094 L 142.007812 54.070312 L 142.445312 53.902344 L 142.882812 53.742188 L 143.320312 53.59375 L 143.757812 53.453125 L 144.199219 53.320312 L 144.636719 53.199219 L 145.078125 53.085938 L 145.519531 52.980469 L 145.960938 52.882812 L 146.40625 52.792969 L 146.847656 52.714844 L 147.289062 52.644531 L 147.730469 52.585938 L 148.167969 52.535156 L 148.609375 52.488281 L 149.050781 52.457031 L 149.488281 52.429688 L 149.925781 52.414062 L 150.363281 52.40625 L 150.796875 52.40625 L 151.230469 52.414062 L 151.664062 52.429688 L 152.09375 52.457031 L 152.523438 52.492188 L 152.949219 52.535156 L 153.375 52.585938 L 153.800781 52.640625 L 154.222656 52.707031 L 154.648438 52.773438 L 155.074219 52.851562 L 155.5 52.933594 L 155.925781 53.023438 L 156.355469 53.121094 L 156.785156 53.226562 L 157.214844 53.339844 L 157.644531 53.460938 L 158.078125 53.589844 L 158.511719 53.722656 L 158.949219 53.863281 L 159.378906 54.015625 L 159.808594 54.179688 L 160.238281 54.351562 L 160.660156 54.53125 L 161.082031 54.722656 L 161.5 54.921875 L 161.914062 55.132812 L 162.324219 55.351562 L 162.730469 55.582031 L 163.132812 55.820312 L 163.53125 56.070312 L 163.925781 56.324219 L 164.316406 56.59375 L 164.699219 56.867188 L 165.082031 57.152344 L 165.457031 57.445312 L 165.828125 57.75 L 166.195312 58.058594 L 166.554688 58.378906 L 166.910156 58.710938 L 167.261719 59.046875 L 167.605469 59.394531 L 167.945312 59.75 L 168.277344 60.113281 L 168.605469 60.484375 L 168.925781 60.863281 L 169.242188 61.253906 L 169.550781 61.648438 L 169.851562 62.054688 L 170.148438 62.464844 L 170.433594 62.886719 L 170.71875 63.316406 L 170.992188 63.75 L 171.257812 64.195312 L 171.519531 64.644531 L 171.773438 65.101562 L 172.015625 65.566406 L 172.253906 66.039062 L 172.484375 66.519531 L 172.707031 67.003906 L 172.921875 67.496094 L 173.128906 67.996094 L 173.324219 68.503906 L 173.515625 69.015625 L 173.59375 69.230469 L 173.765625 69.699219 L 173.941406 70.167969 L 174.117188 70.632812 L 174.296875 71.097656 L 174.480469 71.5625 L 174.667969 72.023438 L 174.859375 72.488281 L 175.050781 72.949219 L 175.246094 73.40625 L 175.644531 74.320312 L 175.847656 74.777344 L 176.054688 75.230469 L 176.476562 76.136719 L 176.695312 76.585938 L 176.910156 77.035156 L 177.132812 77.484375 L 177.355469 77.929688 L 177.582031 78.375 L 178.042969 79.257812 L 178.28125 79.699219 L 178.515625 80.136719 L 179 81.011719 L 179.246094 81.445312 L 179.496094 81.878906 L 179.746094 82.308594 L 180 82.738281 L 180.257812 83.167969 L 180.515625 83.59375 L 180.78125 84.019531 L 181.042969 84.441406 L 181.3125 84.863281 L 181.582031 85.28125 L 182.128906 86.117188 L 182.40625 86.53125 L 182.6875 86.945312 L 183.257812 87.765625 L 183.378906 87.9375 L 183.417969 87.980469 L 183.742188 88.355469 L 184.074219 88.730469 L 184.40625 89.101562 L 184.742188 89.472656 L 185.078125 89.839844 L 185.417969 90.207031 L 185.757812 90.570312 L 186.101562 90.933594 L 186.449219 91.292969 L 186.796875 91.648438 L 187.5 92.359375 L 187.855469 92.707031 L 188.214844 93.058594 L 188.933594 93.746094 L 189.300781 94.089844 L 189.664062 94.429688 L 190.035156 94.765625 L 190.402344 95.101562 L 190.777344 95.433594 L 191.148438 95.761719 L 191.90625 96.417969 L 192.285156 96.738281 L 192.667969 97.058594 L 193.054688 97.378906 L 193.441406 97.695312 L 193.828125 98.007812 L 194.609375 98.625 L 195.003906 98.933594 L 196.199219 99.835938 L 196.601562 100.128906 L 197.003906 100.425781 L 197.410156 100.714844 L 197.820312 101.003906 L 198.226562 101.289062 L 198.640625 101.570312 L 198.863281 101.726562 L 199.335938 101.816406 L 199.824219 101.910156 L 200.808594 102.089844 L 201.792969 102.253906 L 202.285156 102.332031 L 202.777344 102.40625 L 203.273438 102.480469 L 203.765625 102.546875 L 204.261719 102.613281 L 204.757812 102.675781 L 205.253906 102.734375 L 205.746094 102.792969 L 206.246094 102.84375 L 206.742188 102.894531 L 207.734375 102.988281 L 208.234375 103.027344 L 208.730469 103.066406 L 209.226562 103.097656 L 210.226562 103.160156 L 210.722656 103.183594 L 211.222656 103.207031 L 211.71875 103.226562 L 212.21875 103.242188 L 212.71875 103.253906 L 213.21875 103.261719 L 213.714844 103.269531 L 214.214844 103.273438 Z M 259.632812 103.273438 "/>
<path style=" stroke:none;fill-rule:evenodd;fill:rgb(0%,0%,0%);fill-opacity:1;" d="M 83.734375 63.773438 C 83.734375 63.3125 83.621094 62.902344 83.207031 62.496094 C 82.972656 62.265625 82.777344 62.210938 81.761719 61.945312 C 81.027344 61.75 80.925781 61.714844 80.730469 61.539062 C 80.542969 61.351562 80.398438 61.085938 80.398438 60.714844 C 80.398438 59.789062 81.335938 58.84375 82.378906 58.84375 C 83.457031 58.84375 83.964844 59.503906 83.964844 60.546875 C 83.964844 60.835938 83.910156 61.132812 83.910156 61.175781 C 83.910156 61.273438 83.996094 61.273438 84.03125 61.273438 C 84.128906 61.273438 84.140625 61.242188 84.183594 61.066406 L 84.777344 58.644531 C 84.777344 58.546875 84.679688 58.546875 84.679688 58.546875 C 84.636719 58.546875 84.625 58.558594 84.492188 58.722656 L 83.964844 59.382812 C 83.601562 58.667969 82.875 58.546875 82.414062 58.546875 C 81.015625 58.546875 79.75 59.824219 79.75 61.066406 C 79.75 61.890625 80.246094 62.375 80.785156 62.5625 C 80.90625 62.605469 81.554688 62.78125 81.886719 62.859375 C 82.445312 63.011719 82.589844 63.058594 82.820312 63.300781 C 82.863281 63.355469 83.082031 63.609375 83.082031 64.125 C 83.082031 65.148438 82.136719 66.203125 81.035156 66.203125 C 80.136719 66.203125 79.132812 65.820312 79.132812 64.585938 C 79.132812 64.378906 79.175781 64.113281 79.210938 64.003906 C 79.210938 63.96875 79.222656 63.894531 79.222656 63.894531 C 79.222656 63.851562 79.199219 63.792969 79.113281 63.792969 C 79.011719 63.792969 79.003906 63.816406 78.957031 64.003906 L 78.394531 66.257812 L 78.351562 66.425781 C 78.351562 66.523438 78.464844 66.523438 78.464844 66.523438 C 78.507812 66.523438 78.519531 66.511719 78.648438 66.347656 L 79.15625 65.6875 C 79.417969 66.082031 79.992188 66.523438 81.015625 66.523438 C 82.433594 66.523438 83.734375 65.148438 83.734375 63.773438 Z M 83.734375 63.773438 "/>
<path style=" stroke:none;fill-rule:evenodd;fill:rgb(0%,0%,0%);fill-opacity:1;" d="M 90.246094 65.300781 C 90.246094 63.765625 89.027344 62.511719 87.546875 62.511719 C 86.042969 62.511719 84.84375 63.773438 84.84375 65.300781 C 84.84375 66.859375 86.089844 68.054688 87.539062 68.054688 C 89.023438 68.054688 90.246094 66.84375 90.246094 65.300781 Z M 89.503906 65.300781 C 89.503906 67.152344 88.378906 67.824219 87.546875 67.824219 C 86.675781 67.824219 85.582031 67.121094 85.582031 65.300781 C 85.582031 63.46875 86.667969 62.726562 87.539062 62.726562 C 88.449219 62.726562 89.503906 63.5 89.503906 65.300781 Z M 89.042969 65.835938 L 89.042969 64.714844 L 88.808594 64.714844 L 88.808594 64.972656 L 86.277344 64.972656 L 86.277344 64.714844 L 86.042969 64.714844 L 86.042969 65.835938 L 86.277344 65.835938 L 86.277344 65.578125 L 88.808594 65.578125 L 88.808594 65.835938 Z M 89.042969 65.835938 "/>
<path style=" stroke:none;fill-rule:evenodd;fill:rgb(0%,0%,0%);fill-opacity:1;" d="M 181.417969 103 C 181.417969 102.625 181.269531 102.261719 181.003906 101.996094 C 180.738281 101.730469 180.375 101.582031 180 101.582031 C 179.625 101.582031 179.261719 101.730469 178.996094 101.996094 C 178.730469 102.261719 178.582031 102.625 178.582031 103 C 178.582031 103.375 178.730469 103.738281 178.996094 104.003906 C 179.261719 104.269531 179.625 104.417969 180 104.417969 C 180.375 104.417969 180.738281 104.269531 181.003906 104.003906 C 181.269531 103.738281 181.417969 103.375 181.417969 103 Z M 181.417969 103 "/>
<path style=" stroke:none;fill-rule:evenodd;fill:rgb(0%,0%,0%);fill-opacity:1;" d="M 175.417969 72 C 175.417969 71.625 175.269531 71.261719 175.003906 70.996094 C 174.738281 70.730469 174.375 70.582031 174 70.582031 C 173.625 70.582031 173.261719 70.730469 172.996094 70.996094 C 172.730469 71.261719 172.582031 71.625 172.582031 72 C 172.582031 72.375 172.730469 72.738281 172.996094 73.003906 C 173.261719 73.269531 173.625 73.417969 174 73.417969 C 174.375 73.417969 174.738281 73.269531 175.003906 73.003906 C 175.269531 72.738281 175.417969 72.375 175.417969 72 Z M 175.417969 72 "/>
<path style=" stroke:none;fill-rule:evenodd;fill:rgb(0%,0%,0%);fill-opacity:1;" d="M 160.417969 54 C 160.417969 53.625 160.269531 53.261719 160.003906 52.996094 C 159.738281 52.730469 159.375 52.582031 159 52.582031 C 158.625 52.582031 158.261719 52.730469 157.996094 52.996094 C 157.730469 53.261719 157.582031 53.625 157.582031 54 C 157.582031 54.375 157.730469 54.738281 157.996094 55.003906 C 158.261719 55.269531 158.625 55.417969 159 55.417969 C 159.375 55.417969 159.738281 55.269531 160.003906 55.003906 C 160.269531 54.738281 160.417969 54.375 160.417969 54 Z M 160.417969 54 "/>
<path style=" stroke:none;fill-rule:evenodd;fill:rgb(0%,0%,0%);fill-opacity:1;" d="M 138.417969 57 C 138.417969 56.625 138.269531 56.261719 138.003906 55.996094 C 137.738281 55.730469 137.375 55.582031 137 55.582031 C 136.625 55.582031 136.261719 55.730469 135.996094 55.996094 C 135.730469 56.261719 135.582031 56.625 135.582031 57 C 135.582031 57.375 135.730469 57.738281 135.996094 58.003906 C 136.261719 58.269531 136.625 58.417969 137 58.417969 C 137.375 58.417969 137.738281 58.269531 138.003906 58.003906 C 138.269531 57.738281 138.417969 57.375 138.417969 57 Z M 138.417969 57 "/>
<path style=" stroke:none;fill-rule:evenodd;fill:rgb(0%,0%,0%);fill-opacity:1;" d="M 117.417969 75 C 117.417969 74.625 117.269531 74.261719 117.003906 73.996094 C 116.738281 73.730469 116.375 73.582031 116 73.582031 C 115.625 73.582031 115.261719 73.730469 114.996094 73.996094 C 114.730469 74.261719 114.582031 74.625 114.582031 75 C 114.582031 75.375 114.730469 75.738281 114.996094 76.003906 C 115.261719 76.269531 115.625 76.417969 116 76.417969 C 116.375 76.417969 116.738281 76.269531 117.003906 76.003906 C 117.269531 75.738281 117.417969 75.375 117.417969 75 Z M 117.417969 75 "/>
<path style=" stroke:none;fill-rule:evenodd;fill:rgb(0%,0%,0%);fill-opacity:1;" d="M 104.417969 103 C 104.417969 102.625 104.269531 102.261719 104.003906 101.996094 C 103.738281 101.730469 103.375 101.582031 103 101.582031 C 102.625 101.582031 102.261719 101.730469 101.996094 101.996094 C 101.730469 102.261719 101.582031 102.625 101.582031 103 C 101.582031 103.375 101.730469 103.738281 101.996094 104.003906 C 102.261719 104.269531 102.625 104.417969 103 104.417969 C 103.375 104.417969 103.738281 104.269531 104.003906 104.003906 C 104.269531 103.738281 104.417969 103.375 104.417969 103 Z M 104.417969 103 "/>
<path style=" stroke:none;fill-rule:evenodd;fill:rgb(0%,0%,0%);fill-opacity:1;" d="M 181.03125 98.515625 L 181.03125 98.039062 L 180.261719 98.039062 L 178.402344 95.796875 L 179.679688 94.332031 C 179.800781 94.1875 179.898438 94.101562 180.8125 94.101562 L 180.8125 93.625 L 179.800781 93.648438 C 179.480469 93.648438 179.007812 93.648438 178.699219 93.625 L 178.699219 94.101562 C 178.90625 94.101562 179.140625 94.15625 179.140625 94.234375 C 179.140625 94.234375 179.085938 94.332031 179.0625 94.355469 L 178.105469 95.433594 L 177.015625 94.101562 L 177.476562 94.101562 L 177.476562 93.625 C 177.226562 93.648438 176.476562 93.648438 176.179688 93.648438 C 175.847656 93.648438 175.253906 93.648438 174.945312 93.625 L 174.945312 94.101562 L 175.726562 94.101562 L 177.445312 96.191406 L 176.015625 97.808594 C 175.882812 97.964844 175.804688 98.039062 174.890625 98.039062 L 174.890625 98.515625 L 175.914062 98.492188 C 176.234375 98.492188 176.695312 98.492188 177.003906 98.515625 L 177.003906 98.039062 C 176.796875 98.039062 176.5625 97.984375 176.5625 97.910156 C 176.5625 97.910156 176.5625 97.886719 176.640625 97.796875 L 177.742188 96.554688 L 178.960938 98.039062 L 178.5 98.039062 L 178.5 98.515625 C 178.765625 98.492188 179.5 98.492188 179.8125 98.492188 C 180.140625 98.492188 180.722656 98.492188 181.03125 98.515625 Z M 181.03125 98.515625 "/>
<path style=" stroke:none;fill-rule:evenodd;fill:rgb(0%,0%,0%);fill-opacity:1;" d="M 184.929688 97.675781 C 184.929688 96.859375 184.847656 96.363281 184.59375 95.871094 C 184.257812 95.199219 183.640625 95.03125 183.21875 95.03125 C 182.257812 95.03125 181.90625 95.75 181.796875 95.964844 C 181.523438 96.519531 181.507812 97.277344 181.507812 97.675781 C 181.507812 98.179688 181.53125 98.953125 181.898438 99.5625 C 182.25 100.128906 182.816406 100.273438 183.21875 100.273438 C 183.585938 100.273438 184.242188 100.160156 184.625 99.402344 C 184.910156 98.851562 184.929688 98.171875 184.929688 97.675781 Z M 184.25 97.582031 C 184.25 98.035156 184.25 98.722656 184.160156 99.152344 C 184 99.953125 183.472656 100.0625 183.21875 100.0625 C 182.960938 100.0625 182.433594 99.9375 182.273438 99.136719 C 182.1875 98.699219 182.1875 97.984375 182.1875 97.582031 C 182.1875 97.058594 182.1875 96.519531 182.273438 96.101562 C 182.433594 95.324219 183.027344 95.246094 183.21875 95.246094 C 183.480469 95.246094 184.007812 95.375 184.160156 96.070312 C 184.25 96.492188 184.25 97.066406 184.25 97.582031 Z M 184.25 97.582031 "/>
<path style=" stroke:none;fill-rule:evenodd;fill:rgb(0%,0%,0%);fill-opacity:1;" d="M 181.675781 66.914062 L 181.675781 66.441406 L 180.90625 66.441406 L 179.046875 64.195312 L 180.320312 62.734375 C 180.445312 62.589844 180.542969 62.5 181.457031 62.5 L 181.457031 62.027344 L 180.445312 62.050781 C 180.125 62.050781 179.652344 62.050781 179.34375 62.027344 L 179.34375 62.5 C 179.550781 62.5 179.78125 62.554688 179.78125 62.632812 C 179.78125 62.632812 179.726562 62.734375 179.707031 62.753906 L 178.75 63.832031 L 177.660156 62.5 L 178.121094 62.5 L 178.121094 62.027344 C 177.867188 62.050781 177.121094 62.050781 176.824219 62.050781 C 176.492188 62.050781 175.898438 62.050781 175.589844 62.027344 L 175.589844 62.5 L 176.371094 62.5 L 178.089844 64.59375 L 176.65625 66.210938 C 176.527344 66.363281 176.449219 66.441406 175.535156 66.441406 L 175.535156 66.914062 L 176.558594 66.894531 C 176.878906 66.894531 177.339844 66.894531 177.648438 66.914062 L 177.648438 66.441406 C 177.4375 66.441406 177.207031 66.386719 177.207031 66.308594 C 177.207031 66.308594 177.207031 66.289062 177.285156 66.199219 L 178.386719 64.957031 L 179.605469 66.441406 L 179.144531 66.441406 L 179.144531 66.914062 C 179.410156 66.894531 180.144531 66.894531 180.453125 66.894531 C 180.785156 66.894531 181.367188 66.894531 181.675781 66.914062 Z M 181.675781 66.914062 "/>
<path style=" stroke:none;fill-rule:evenodd;fill:rgb(0%,0%,0%);fill-opacity:1;" d="M 185.253906 68.515625 L 185.253906 68.261719 L 184.988281 68.261719 C 184.261719 68.261719 184.238281 68.171875 184.238281 67.886719 L 184.238281 63.648438 C 184.238281 63.441406 184.222656 63.433594 184.015625 63.433594 C 183.703125 63.738281 183.296875 63.921875 182.570312 63.921875 L 182.570312 64.171875 C 182.777344 64.171875 183.191406 64.171875 183.632812 63.96875 L 183.632812 67.886719 C 183.632812 68.171875 183.613281 68.261719 182.886719 68.261719 L 182.617188 68.261719 L 182.617188 68.515625 C 182.929688 68.492188 183.589844 68.492188 183.933594 68.492188 C 184.277344 68.492188 184.941406 68.492188 185.253906 68.515625 Z M 185.253906 68.515625 "/>
<path style=" stroke:none;fill-rule:evenodd;fill:rgb(0%,0%,0%);fill-opacity:1;" d="M 159.351562 48.964844 L 159.351562 48.492188 L 158.582031 48.492188 L 156.722656 46.246094 L 158 44.78125 C 158.121094 44.640625 158.21875 44.550781 159.132812 44.550781 L 159.132812 44.078125 L 158.121094 44.101562 C 157.800781 44.101562 157.328125 44.101562 157.019531 44.078125 L 157.019531 44.550781 C 157.226562 44.550781 157.460938 44.605469 157.460938 44.683594 C 157.460938 44.683594 157.40625 44.78125 157.382812 44.804688 L 156.425781 45.882812 L 155.335938 44.550781 L 155.796875 44.550781 L 155.796875 44.078125 C 155.542969 44.101562 154.796875 44.101562 154.5 44.101562 C 154.167969 44.101562 153.574219 44.101562 153.265625 44.078125 L 153.265625 44.550781 L 154.046875 44.550781 L 155.765625 46.644531 L 154.332031 48.261719 C 154.203125 48.414062 154.125 48.492188 153.210938 48.492188 L 153.210938 48.964844 L 154.234375 48.941406 C 154.554688 48.941406 155.015625 48.941406 155.324219 48.964844 L 155.324219 48.492188 C 155.113281 48.492188 154.882812 48.4375 154.882812 48.359375 C 154.882812 48.359375 154.882812 48.339844 154.960938 48.25 L 156.0625 47.003906 L 157.28125 48.492188 L 156.820312 48.492188 L 156.820312 48.964844 C 157.085938 48.941406 157.820312 48.941406 158.132812 48.941406 C 158.460938 48.941406 159.042969 48.941406 159.351562 48.964844 Z M 159.351562 48.964844 "/>
<path style=" stroke:none;fill-rule:evenodd;fill:rgb(0%,0%,0%);fill-opacity:1;" d="M 163.160156 49.199219 L 162.921875 49.199219 C 162.898438 49.347656 162.839844 49.734375 162.746094 49.878906 C 162.699219 49.9375 162.121094 49.9375 161.996094 49.9375 L 160.636719 49.9375 L 161.667969 49.003906 C 161.792969 48.890625 162.113281 48.640625 162.234375 48.53125 C 162.707031 48.097656 163.160156 47.675781 163.160156 46.980469 C 163.160156 46.070312 162.394531 45.484375 161.441406 45.484375 C 160.523438 45.484375 159.917969 46.179688 159.917969 46.859375 C 159.917969 47.234375 160.21875 47.285156 160.324219 47.285156 C 160.484375 47.285156 160.722656 47.171875 160.722656 46.882812 C 160.722656 46.484375 160.339844 46.484375 160.246094 46.484375 C 160.46875 45.925781 160.980469 45.734375 161.355469 45.734375 C 162.066406 45.734375 162.433594 46.339844 162.433594 46.980469 C 162.433594 47.777344 161.875 48.355469 160.972656 49.28125 L 160.011719 50.273438 C 159.917969 50.359375 159.917969 50.375 159.917969 50.566406 L 162.9375 50.566406 Z M 163.160156 49.199219 "/>
<path style=" stroke:none;fill-rule:evenodd;fill:rgb(0%,0%,0%);fill-opacity:1;" d="M 137.734375 51.996094 L 137.734375 51.519531 L 136.964844 51.519531 L 135.105469 49.277344 L 136.382812 47.8125 C 136.503906 47.667969 136.601562 47.582031 137.515625 47.582031 L 137.515625 47.109375 L 136.503906 47.128906 C 136.183594 47.128906 135.710938 47.128906 135.402344 47.109375 L 135.402344 47.582031 C 135.613281 47.582031 135.84375 47.636719 135.84375 47.714844 C 135.84375 47.714844 135.789062 47.8125 135.765625 47.835938 L 134.808594 48.914062 L 133.71875 47.582031 L 134.183594 47.582031 L 134.183594 47.109375 C 133.929688 47.128906 133.179688 47.128906 132.882812 47.128906 C 132.550781 47.128906 131.957031 47.128906 131.652344 47.109375 L 131.652344 47.582031 L 132.433594 47.582031 L 134.148438 49.671875 L 132.71875 51.289062 C 132.585938 51.445312 132.507812 51.519531 131.597656 51.519531 L 131.597656 51.996094 L 132.621094 51.972656 C 132.9375 51.972656 133.402344 51.972656 133.707031 51.996094 L 133.707031 51.519531 C 133.5 51.519531 133.269531 51.464844 133.269531 51.390625 C 133.269531 51.390625 133.269531 51.367188 133.34375 51.277344 L 134.445312 50.035156 L 135.667969 51.519531 L 135.207031 51.519531 L 135.207031 51.996094 C 135.46875 51.972656 136.207031 51.972656 136.515625 51.972656 C 136.84375 51.972656 137.429688 51.972656 137.734375 51.996094 Z M 137.734375 51.996094 "/>
<path style=" stroke:none;fill-rule:evenodd;fill:rgb(0%,0%,0%);fill-opacity:1;" d="M 141.613281 52.289062 C 141.613281 51.652344 141.109375 51.074219 140.328125 50.90625 C 140.933594 50.691406 141.382812 50.171875 141.382812 49.558594 C 141.382812 48.949219 140.695312 48.511719 139.902344 48.511719 C 139.082031 48.511719 138.464844 48.957031 138.464844 49.535156 C 138.464844 49.820312 138.65625 49.941406 138.855469 49.941406 C 139.089844 49.941406 139.246094 49.773438 139.246094 49.550781 C 139.246094 49.269531 139 49.164062 138.832031 49.15625 C 139.152344 48.734375 139.742188 48.710938 139.878906 48.710938 C 140.078125 48.710938 140.65625 48.773438 140.65625 49.558594 C 140.65625 50.09375 140.4375 50.417969 140.328125 50.539062 C 140.097656 50.773438 139.925781 50.789062 139.457031 50.820312 C 139.3125 50.828125 139.253906 50.835938 139.253906 50.933594 C 139.253906 51.042969 139.320312 51.042969 139.449219 51.042969 L 139.832031 51.042969 C 140.4375 51.042969 140.816406 51.484375 140.816406 52.289062 C 140.816406 53.242188 140.277344 53.527344 139.871094 53.527344 C 139.449219 53.527344 138.878906 53.375 138.609375 52.96875 C 138.886719 52.96875 139.074219 52.792969 139.074219 52.539062 C 139.074219 52.296875 138.902344 52.121094 138.65625 52.121094 C 138.449219 52.121094 138.234375 52.25 138.234375 52.554688 C 138.234375 53.28125 139.015625 53.757812 139.886719 53.757812 C 140.902344 53.757812 141.613281 53.054688 141.613281 52.289062 Z M 141.613281 52.289062 "/>
<path style=" stroke:none;fill-rule:evenodd;fill:rgb(0%,0%,0%);fill-opacity:1;" d="M 110.632812 70.703125 L 110.632812 70.230469 L 109.859375 70.230469 L 108 67.984375 L 109.277344 66.523438 C 109.398438 66.378906 109.5 66.289062 110.410156 66.289062 L 110.410156 65.816406 L 109.398438 65.839844 C 109.078125 65.839844 108.609375 65.839844 108.296875 65.816406 L 108.296875 66.289062 C 108.507812 66.289062 108.738281 66.34375 108.738281 66.421875 C 108.738281 66.421875 108.683594 66.523438 108.664062 66.542969 L 107.703125 67.621094 L 106.617188 66.289062 L 107.078125 66.289062 L 107.078125 65.816406 C 106.824219 65.839844 106.074219 65.839844 105.777344 65.839844 C 105.449219 65.839844 104.855469 65.839844 104.546875 65.816406 L 104.546875 66.289062 L 105.328125 66.289062 L 107.046875 68.382812 L 105.613281 70 C 105.480469 70.152344 105.402344 70.230469 104.492188 70.230469 L 104.492188 70.703125 L 105.515625 70.683594 C 105.832031 70.683594 106.296875 70.683594 106.605469 70.703125 L 106.605469 70.230469 C 106.394531 70.230469 106.164062 70.175781 106.164062 70.097656 C 106.164062 70.097656 106.164062 70.078125 106.238281 69.988281 L 107.34375 68.742188 L 108.5625 70.230469 L 108.101562 70.230469 L 108.101562 70.703125 C 108.367188 70.683594 109.101562 70.683594 109.410156 70.683594 C 109.742188 70.683594 110.324219 70.683594 110.632812 70.703125 Z M 110.632812 70.703125 "/>
<path style=" stroke:none;fill-rule:evenodd;fill:rgb(0%,0%,0%);fill-opacity:1;" d="M 114.617188 71.050781 L 114.617188 70.800781 L 113.804688 70.800781 L 113.804688 67.359375 C 113.804688 67.207031 113.804688 67.144531 113.644531 67.144531 C 113.546875 67.144531 113.539062 67.152344 113.460938 67.257812 L 111.023438 70.800781 L 111.023438 71.050781 L 113.179688 71.050781 L 113.179688 71.683594 C 113.179688 71.96875 113.15625 72.050781 112.566406 72.050781 L 112.390625 72.050781 L 112.390625 72.304688 L 113.492188 72.28125 L 114.59375 72.304688 L 114.59375 72.050781 L 114.417969 72.050781 C 113.828125 72.050781 113.804688 71.96875 113.804688 71.683594 L 113.804688 71.050781 Z M 113.230469 70.800781 L 111.292969 70.800781 L 113.230469 67.976562 Z M 113.230469 70.800781 "/>
<path style=" stroke:none;fill-rule:evenodd;fill:rgb(0%,0%,0%);fill-opacity:1;" d="M 110.609375 98.515625 L 110.609375 98.039062 L 109.839844 98.039062 L 107.980469 95.796875 L 109.257812 94.332031 C 109.378906 94.1875 109.476562 94.101562 110.390625 94.101562 L 110.390625 93.625 L 109.378906 93.648438 C 109.058594 93.648438 108.585938 93.648438 108.277344 93.625 L 108.277344 94.101562 C 108.488281 94.101562 108.71875 94.15625 108.71875 94.234375 C 108.71875 94.234375 108.664062 94.332031 108.640625 94.355469 L 107.683594 95.433594 L 106.59375 94.101562 L 107.058594 94.101562 L 107.058594 93.625 C 106.804688 93.648438 106.054688 93.648438 105.757812 93.648438 C 105.425781 93.648438 104.832031 93.648438 104.523438 93.625 L 104.523438 94.101562 L 105.304688 94.101562 L 107.023438 96.191406 L 105.59375 97.808594 C 105.460938 97.964844 105.382812 98.039062 104.46875 98.039062 L 104.46875 98.515625 L 105.492188 98.492188 C 105.8125 98.492188 106.277344 98.492188 106.582031 98.515625 L 106.582031 98.039062 C 106.375 98.039062 106.144531 97.984375 106.144531 97.910156 C 106.144531 97.910156 106.144531 97.886719 106.21875 97.796875 L 107.320312 96.554688 L 108.542969 98.039062 L 108.082031 98.039062 L 108.082031 98.515625 C 108.34375 98.492188 109.082031 98.492188 109.390625 98.492188 C 109.71875 98.492188 110.304688 98.492188 110.609375 98.515625 Z M 110.609375 98.515625 "/>
<path style=" stroke:none;fill-rule:evenodd;fill:rgb(0%,0%,0%);fill-opacity:1;" d="M 114.417969 98.585938 C 114.417969 97.699219 113.777344 96.910156 112.875 96.910156 C 112.492188 96.910156 112.132812 97.035156 111.84375 97.292969 L 111.84375 95.820312 C 111.941406 95.847656 112.25 95.925781 112.570312 95.925781 C 113.527344 95.925781 114.105469 95.253906 114.105469 95.136719 C 114.105469 95.054688 114.050781 95.03125 114.015625 95.03125 C 114.015625 95.03125 113.984375 95.03125 113.914062 95.070312 C 113.617188 95.183594 113.265625 95.277344 112.851562 95.277344 C 112.402344 95.277344 112.027344 95.160156 111.789062 95.070312 C 111.714844 95.03125 111.691406 95.03125 111.691406 95.03125 C 111.589844 95.03125 111.589844 95.117188 111.589844 95.253906 L 111.589844 97.492188 C 111.589844 97.632812 111.589844 97.722656 111.714844 97.722656 C 111.773438 97.722656 111.796875 97.691406 111.835938 97.632812 C 111.925781 97.515625 112.21875 97.125 112.867188 97.125 C 113.296875 97.125 113.503906 97.476562 113.570312 97.625 C 113.699219 97.898438 113.714844 98.25 113.714844 98.546875 C 113.714844 98.828125 113.707031 99.242188 113.496094 99.578125 C 113.347656 99.808594 113.042969 100.046875 112.636719 100.046875 C 112.140625 100.046875 111.652344 99.730469 111.476562 99.234375 C 111.5 99.242188 111.554688 99.242188 111.554688 99.242188 C 111.765625 99.242188 111.933594 99.105469 111.933594 98.867188 C 111.933594 98.585938 111.714844 98.484375 111.5625 98.484375 C 111.421875 98.484375 111.179688 98.5625 111.179688 98.890625 C 111.179688 99.578125 111.773438 100.273438 112.652344 100.273438 C 113.609375 100.273438 114.417969 99.53125 114.417969 98.585938 Z M 114.417969 98.585938 "/>
</g>
</svg>
