<?xml version="1.0" encoding="UTF-8"?>
<svg xmlns="http://www.w3.org/2000/svg" xmlns:xlink="http://www.w3.org/1999/xlink" width="202pt" height="79pt" viewBox="0 0 202 79" version="1.1">
<defs>
<clipPath id="clip1">
  <path d="M 156 67 L 157 67 L 157 78.71875 L 156 78.71875 Z M 156 67 "/>
</clipPath>
<clipPath id="clip2">
  <path d="M 156 67 L 157 67 L 157 78.71875 L 156 78.71875 Z M 156 67 "/>
</clipPath>
<clipPath id="clip3">
  <path d="M 0 47 L 138 47 L 138 78.71875 L 0 78.71875 Z M 0 47 "/>
</clipPath>
<clipPath id="clip4">
  <path d="M 135 47 L 163 47 L 163 78.71875 L 135 78.71875 Z M 135 47 "/>
</clipPath>
<clipPath id="clip5">
  <path d="M 135 47 L 163 47 L 163 78.71875 L 135 78.71875 Z M 135 47 "/>
</clipPath>
<clipPath id="clip6">
  <path d="M 177 0 L 202 0 L 202 78.71875 L 177 78.71875 Z M 177 0 "/>
</clipPath>
<clipPath id="clip7">
  <path d="M 0 33 L 126 33 L 126 78.71875 L 0 78.71875 Z M 0 33 "/>
</clipPath>
<clipPath id="clip8">
  <path d="M 123 33 L 185 33 L 185 78.71875 L 123 78.71875 Z M 123 33 "/>
</clipPath>
<clipPath id="clip9">
  <path d="M 123 33 L 185 33 L 185 78.71875 L 123 78.71875 Z M 123 33 "/>
</clipPath>
<clipPath id="clip10">
  <path d="M 0 0 L 152 0 L 152 78.71875 L 0 78.71875 Z M 0 0 "/>
</clipPath>
<clipPath id="clip11">
  <path d="M 149 0 L 202 0 L 202 78.71875 L 149 78.71875 Z M 149 0 "/>
</clipPath>
<clipPath id="clip12">
  <path d="M 0 25 L 110 25 L 110 78.71875 L 0 78.71875 Z M 0 25 "/>
</clipPath>
<clipPath id="clip13">
  <path d="M 107 25 L 202 25 L 202 78.71875 L 107 78.71875 Z M 107 25 "/>
</clipPath>
<clipPath id="clip14">
  <path d="M 0 0 L 119 0 L 119 78.71875 L 0 78.71875 Z M 0 0 "/>
</clipPath>
<clipPath id="clip15">
  <path d="M 116 0 L 202 0 L 202 78.71875 L 116 78.71875 Z M 116 0 "/>
</clipPath>
<clipPath id="clip16">
  <path d="M 0 25 L 93 25 L 93 78.71875 L 0 78.71875 Z M 0 25 "/>
</clipPath>
<clipPath id="clip17">
  <path d="M 90 25 L 202 25 L 202 78.71875 L 90 78.71875 Z M 90 25 "/>
</clipPath>
<clipPath id="clip18">
  <path d="M 0 0 L 84 0 L 84 78.71875 L 0 78.71875 Z M 0 0 "/>
</clipPath>
<clipPath id="clip19">
  <path d="M 81 0 L 202 0 L 202 78.71875 L 81 78.71875 Z M 81 0 "/>
</clipPath>
<clipPath id="clip20">
  <path d="M 15 33 L 77 33 L 77 78.71875 L 15 78.71875 Z M 15 33 "/>
</clipPath>
<clipPath id="clip21">
  <path d="M 75 33 L 202 33 L 202 78.71875 L 75 78.71875 Z M 75 33 "/>
</clipPath>
<clipPath id="clip22">
  <path d="M 0 0 L 51 0 L 51 78.71875 L 0 78.71875 Z M 0 0 "/>
</clipPath>
<clipPath id="clip23">
  <path d="M 48 0 L 202 0 L 202 78.71875 L 48 78.71875 Z M 48 0 "/>
</clipPath>
<clipPath id="clip24">
  <path d="M 38 47 L 65 47 L 65 78.71875 L 38 78.71875 Z M 38 47 "/>
</clipPath>
<clipPath id="clip25">
  <path d="M 63 47 L 202 47 L 202 78.71875 L 63 78.71875 Z M 63 47 "/>
</clipPath>
<clipPath id="clip26">
  <path d="M 0 0 L 23 0 L 23 78.71875 L 0 78.71875 Z M 0 0 "/>
</clipPath>
<clipPath id="clip27">
  <path d="M 43 67 L 44 67 L 44 78.71875 L 43 78.71875 Z M 43 67 "/>
</clipPath>
</defs>
<g id="surface350">
<path style="fill-rule:nonzero;fill:rgb(100%,100%,86.999313%);fill-opacity:1;stroke-width:1;stroke-linecap:square;stroke-linejoin:miter;stroke:rgb(0%,0%,0%);stroke-opacity:1;stroke-miterlimit:3.25;" d="M 198.429688 67.351562 L 194.5625 50.402344 L 187.269531 35.257812 L 178.503906 24.269531 L 169.992188 17.480469 L 161.035156 13.164062 L 152.535156 11.226562 L 48.089844 11.226562 L 39.589844 13.164062 L 30.632812 17.480469 L 22.121094 24.269531 L 13.359375 35.257812 L 6.0625 50.402344 L 2.195312 67.351562 L 54.414062 67.351562 L 58.246094 66.480469 L 60.175781 65.550781 L 64.046875 48.601562 L 68.714844 49.664062 L 76.011719 34.515625 L 83.039062 37.902344 L 91.800781 26.914062 L 100.3125 33.703125 L 108.824219 26.914062 L 117.585938 37.902344 L 124.613281 34.515625 L 131.910156 49.664062 L 136.578125 48.601562 L 140.449219 65.550781 L 142.378906 66.480469 L 146.210938 67.351562 Z M 198.429688 67.351562 "/>
<path style="fill:none;stroke-width:0.2;stroke-linecap:square;stroke-linejoin:miter;stroke:rgb(50.000763%,50.000763%,50.000763%);stroke-opacity:0.5;stroke-miterlimit:3.25;" d="M -67.71875 67.351562 L 156.789062 67.351562 "/>
<g clip-path="url(#clip1)" clip-rule="nonzero">
<path style="fill:none;stroke-width:0.2;stroke-linecap:square;stroke-linejoin:miter;stroke:rgb(50.000763%,50.000763%,50.000763%);stroke-opacity:0.5;stroke-miterlimit:3.25;" d="M 156.789062 157.296875 L 156.789062 67.351562 "/>
</g>
<path style=" stroke:none;fill-rule:nonzero;fill:rgb(50.000763%,50.000763%,50.000763%);fill-opacity:0.5;" d="M 156.789062 67.351562 L 156.890625 67.453125 L 156.890625 67.253906 L 156.789062 67.253906 Z M 156.789062 67.351562 "/>
<g clip-path="url(#clip2)" clip-rule="nonzero">
<path style="fill:none;stroke-width:0.2;stroke-linecap:square;stroke-linejoin:miter;stroke:rgb(50.000763%,50.000763%,50.000763%);stroke-opacity:0.5;stroke-miterlimit:3.25;" d="M 156.789062 157.296875 L 156.789062 67.351562 "/>
</g>
<path style=" stroke:none;fill-rule:nonzero;fill:rgb(50.000763%,50.000763%,50.000763%);fill-opacity:0.5;" d="M 156.789062 67.351562 L 156.890625 67.453125 L 156.890625 67.253906 L 156.789062 67.253906 Z M 156.789062 67.351562 "/>
<path style="fill:none;stroke-width:0.2;stroke-linecap:square;stroke-linejoin:miter;stroke:rgb(50.000763%,50.000763%,50.000763%);stroke-opacity:0.5;stroke-miterlimit:3.25;" d="M -67.71875 11.226562 L 212.917969 11.226562 "/>
<g clip-path="url(#clip3)" clip-rule="nonzero">
<path style="fill:none;stroke-width:0.2;stroke-linecap:square;stroke-linejoin:miter;stroke:rgb(50.000763%,50.000763%,50.000763%);stroke-opacity:0.5;stroke-miterlimit:3.25;" d="M -82.300781 98.558594 L 136.578125 48.601562 "/>
</g>
<g clip-path="url(#clip4)" clip-rule="nonzero">
<path style="fill:none;stroke-width:0.2;stroke-linecap:square;stroke-linejoin:miter;stroke:rgb(50.000763%,50.000763%,50.000763%);stroke-opacity:0.5;stroke-miterlimit:3.25;" d="M 161.390625 157.296875 L 136.578125 48.601562 "/>
</g>
<path style=" stroke:none;fill-rule:nonzero;fill:rgb(50.000763%,50.000763%,50.000763%);fill-opacity:0.5;" d="M 136.578125 48.601562 L 136.675781 48.699219 L 136.65625 48.480469 L 136.558594 48.503906 Z M 136.578125 48.601562 "/>
<g clip-path="url(#clip5)" clip-rule="nonzero">
<path style="fill:none;stroke-width:0.2;stroke-linecap:square;stroke-linejoin:miter;stroke:rgb(50.000763%,50.000763%,50.000763%);stroke-opacity:0.5;stroke-miterlimit:3.25;" d="M 161.390625 157.296875 L 136.578125 48.601562 "/>
</g>
<path style=" stroke:none;fill-rule:nonzero;fill:rgb(50.000763%,50.000763%,50.000763%);fill-opacity:0.5;" d="M 136.578125 48.601562 L 136.675781 48.699219 L 136.65625 48.480469 L 136.558594 48.503906 Z M 136.578125 48.601562 "/>
<path style="fill:none;stroke-width:0.2;stroke-linecap:square;stroke-linejoin:miter;stroke:rgb(50.000763%,50.000763%,50.000763%);stroke-opacity:0.5;stroke-miterlimit:3.25;" d="M -94.792969 43.835938 L 178.808594 -18.609375 "/>
<g clip-path="url(#clip6)" clip-rule="nonzero">
<path style="fill:none;stroke-width:0.2;stroke-linecap:square;stroke-linejoin:miter;stroke:rgb(50.000763%,50.000763%,50.000763%);stroke-opacity:0.5;stroke-miterlimit:3.25;" d="M 218.960938 157.296875 L 178.808594 -18.609375 "/>
<path style="fill:none;stroke-width:0.2;stroke-linecap:square;stroke-linejoin:miter;stroke:rgb(50.000763%,50.000763%,50.000763%);stroke-opacity:0.5;stroke-miterlimit:3.25;" d="M 218.960938 157.296875 L 178.808594 -18.609375 "/>
</g>
<g clip-path="url(#clip7)" clip-rule="nonzero">
<path style="fill:none;stroke-width:0.2;stroke-linecap:square;stroke-linejoin:miter;stroke:rgb(50.000763%,50.000763%,50.000763%);stroke-opacity:0.5;stroke-miterlimit:3.25;" d="M -77.664062 131.929688 L 124.613281 34.515625 "/>
</g>
<g clip-path="url(#clip8)" clip-rule="nonzero">
<path style="fill:none;stroke-width:0.2;stroke-linecap:square;stroke-linejoin:miter;stroke:rgb(50.000763%,50.000763%,50.000763%);stroke-opacity:0.5;stroke-miterlimit:3.25;" d="M 183.742188 157.296875 L 124.613281 34.515625 "/>
</g>
<path style=" stroke:none;fill-rule:nonzero;fill:rgb(50.000763%,50.000763%,50.000763%);fill-opacity:0.5;" d="M 124.613281 34.515625 L 124.703125 34.609375 L 124.660156 34.382812 L 124.570312 34.425781 Z M 124.613281 34.515625 "/>
<g clip-path="url(#clip9)" clip-rule="nonzero">
<path style="fill:none;stroke-width:0.2;stroke-linecap:square;stroke-linejoin:miter;stroke:rgb(50.000763%,50.000763%,50.000763%);stroke-opacity:0.5;stroke-miterlimit:3.25;" d="M 183.742188 157.296875 L 124.613281 34.515625 "/>
</g>
<path style=" stroke:none;fill-rule:nonzero;fill:rgb(50.000763%,50.000763%,50.000763%);fill-opacity:0.5;" d="M 124.613281 34.515625 L 124.703125 34.609375 L 124.660156 34.382812 L 124.570312 34.425781 Z M 124.613281 34.515625 "/>
<g clip-path="url(#clip10)" clip-rule="nonzero">
<path style="fill:none;stroke-width:0.2;stroke-linecap:square;stroke-linejoin:miter;stroke:rgb(50.000763%,50.000763%,50.000763%);stroke-opacity:0.5;stroke-miterlimit:3.25;" d="M -102.015625 81.359375 L 150.832031 -40.40625 "/>
</g>
<g clip-path="url(#clip11)" clip-rule="nonzero">
<path style="fill:none;stroke-width:0.2;stroke-linecap:square;stroke-linejoin:miter;stroke:rgb(50.000763%,50.000763%,50.000763%);stroke-opacity:0.5;stroke-miterlimit:3.25;" d="M 246.039062 157.296875 L 150.832031 -40.40625 "/>
<path style="fill:none;stroke-width:0.2;stroke-linecap:square;stroke-linejoin:miter;stroke:rgb(50.000763%,50.000763%,50.000763%);stroke-opacity:0.5;stroke-miterlimit:3.25;" d="M 246.039062 157.296875 L 150.832031 -40.40625 "/>
</g>
<g clip-path="url(#clip12)" clip-rule="nonzero">
<path style="fill:none;stroke-width:0.2;stroke-linecap:square;stroke-linejoin:miter;stroke:rgb(50.000763%,50.000763%,50.000763%);stroke-opacity:0.5;stroke-miterlimit:3.25;" d="M -54.671875 157.296875 L 108.824219 26.914062 "/>
<path style="fill:none;stroke-width:0.2;stroke-linecap:square;stroke-linejoin:miter;stroke:rgb(50.000763%,50.000763%,50.000763%);stroke-opacity:0.5;stroke-miterlimit:3.25;" d="M -54.671875 157.296875 L 108.824219 26.914062 "/>
</g>
<path style=" stroke:none;fill-rule:nonzero;fill:rgb(50.000763%,50.000763%,50.000763%);fill-opacity:0.5;" d="M 108.824219 26.914062 L 108.761719 26.851562 L 108.839844 26.773438 L 108.902344 26.851562 Z M 108.824219 26.914062 "/>
<g clip-path="url(#clip13)" clip-rule="nonzero">
<path style="fill:none;stroke-width:0.2;stroke-linecap:square;stroke-linejoin:miter;stroke:rgb(50.000763%,50.000763%,50.000763%);stroke-opacity:0.5;stroke-miterlimit:3.25;" d="M 212.804688 157.296875 L 108.824219 26.914062 "/>
<path style="fill:none;stroke-width:0.2;stroke-linecap:square;stroke-linejoin:miter;stroke:rgb(50.000763%,50.000763%,50.000763%);stroke-opacity:0.5;stroke-miterlimit:3.25;" d="M 212.804688 157.296875 L 108.824219 26.914062 "/>
</g>
<g clip-path="url(#clip14)" clip-rule="nonzero">
<path style="fill:none;stroke-width:0.2;stroke-linecap:square;stroke-linejoin:miter;stroke:rgb(50.000763%,50.000763%,50.000763%);stroke-opacity:0.5;stroke-miterlimit:3.25;" d="M -101.699219 123.011719 L 117.710938 -51.964844 "/>
</g>
<g clip-path="url(#clip15)" clip-rule="nonzero">
<path style="fill:none;stroke-width:0.2;stroke-linecap:square;stroke-linejoin:miter;stroke:rgb(50.000763%,50.000763%,50.000763%);stroke-opacity:0.5;stroke-miterlimit:3.25;" d="M 284.59375 157.296875 L 117.710938 -51.964844 "/>
<path style="fill:none;stroke-width:0.2;stroke-linecap:square;stroke-linejoin:miter;stroke:rgb(50.000763%,50.000763%,50.000763%);stroke-opacity:0.5;stroke-miterlimit:3.25;" d="M 284.59375 157.296875 L 117.710938 -51.964844 "/>
</g>
<g clip-path="url(#clip16)" clip-rule="nonzero">
<path style="fill:none;stroke-width:0.2;stroke-linecap:square;stroke-linejoin:miter;stroke:rgb(50.000763%,50.000763%,50.000763%);stroke-opacity:0.5;stroke-miterlimit:3.25;" d="M -12.179688 157.296875 L 91.800781 26.914062 "/>
<path style="fill:none;stroke-width:0.2;stroke-linecap:square;stroke-linejoin:miter;stroke:rgb(50.000763%,50.000763%,50.000763%);stroke-opacity:0.5;stroke-miterlimit:3.25;" d="M -12.179688 157.296875 L 91.800781 26.914062 "/>
</g>
<path style=" stroke:none;fill-rule:nonzero;fill:rgb(50.000763%,50.000763%,50.000763%);fill-opacity:0.5;" d="M 91.800781 26.914062 L 91.722656 26.835938 L 91.785156 26.773438 L 91.863281 26.835938 Z M 91.800781 26.914062 "/>
<g clip-path="url(#clip17)" clip-rule="nonzero">
<path style="fill:none;stroke-width:0.2;stroke-linecap:square;stroke-linejoin:miter;stroke:rgb(50.000763%,50.000763%,50.000763%);stroke-opacity:0.5;stroke-miterlimit:3.25;" d="M 255.296875 157.296875 L 91.800781 26.914062 "/>
<path style="fill:none;stroke-width:0.2;stroke-linecap:square;stroke-linejoin:miter;stroke:rgb(50.000763%,50.000763%,50.000763%);stroke-opacity:0.5;stroke-miterlimit:3.25;" d="M 255.296875 157.296875 L 91.800781 26.914062 "/>
</g>
<g clip-path="url(#clip18)" clip-rule="nonzero">
<path style="fill:none;stroke-width:0.2;stroke-linecap:square;stroke-linejoin:miter;stroke:rgb(50.000763%,50.000763%,50.000763%);stroke-opacity:0.5;stroke-miterlimit:3.25;" d="M -83.96875 157.296875 L 82.914062 -51.964844 "/>
<path style="fill:none;stroke-width:0.2;stroke-linecap:square;stroke-linejoin:miter;stroke:rgb(50.000763%,50.000763%,50.000763%);stroke-opacity:0.5;stroke-miterlimit:3.25;" d="M -83.96875 157.296875 L 82.914062 -51.964844 "/>
</g>
<g clip-path="url(#clip19)" clip-rule="nonzero">
<path style="fill:none;stroke-width:0.2;stroke-linecap:square;stroke-linejoin:miter;stroke:rgb(50.000763%,50.000763%,50.000763%);stroke-opacity:0.5;stroke-miterlimit:3.25;" d="M 82.914062 -51.964844 L 302.324219 123.011719 "/>
</g>
<g clip-path="url(#clip20)" clip-rule="nonzero">
<path style="fill:none;stroke-width:0.2;stroke-linecap:square;stroke-linejoin:miter;stroke:rgb(50.000763%,50.000763%,50.000763%);stroke-opacity:0.5;stroke-miterlimit:3.25;" d="M 16.882812 157.296875 L 76.011719 34.515625 "/>
<path style="fill:none;stroke-width:0.2;stroke-linecap:square;stroke-linejoin:miter;stroke:rgb(50.000763%,50.000763%,50.000763%);stroke-opacity:0.5;stroke-miterlimit:3.25;" d="M 16.882812 157.296875 L 76.011719 34.515625 "/>
</g>
<path style=" stroke:none;fill-rule:nonzero;fill:rgb(50.000763%,50.000763%,50.000763%);fill-opacity:0.5;" d="M 76.011719 34.515625 L 75.921875 34.425781 L 75.964844 34.382812 L 76.054688 34.425781 Z M 76.011719 34.515625 "/>
<g clip-path="url(#clip21)" clip-rule="nonzero">
<path style="fill:none;stroke-width:0.2;stroke-linecap:square;stroke-linejoin:miter;stroke:rgb(50.000763%,50.000763%,50.000763%);stroke-opacity:0.5;stroke-miterlimit:3.25;" d="M 76.011719 34.515625 L 278.289062 131.929688 "/>
</g>
<g clip-path="url(#clip22)" clip-rule="nonzero">
<path style="fill:none;stroke-width:0.2;stroke-linecap:square;stroke-linejoin:miter;stroke:rgb(50.000763%,50.000763%,50.000763%);stroke-opacity:0.5;stroke-miterlimit:3.25;" d="M -45.414062 157.296875 L 49.792969 -40.40625 "/>
<path style="fill:none;stroke-width:0.2;stroke-linecap:square;stroke-linejoin:miter;stroke:rgb(50.000763%,50.000763%,50.000763%);stroke-opacity:0.5;stroke-miterlimit:3.25;" d="M -45.414062 157.296875 L 49.792969 -40.40625 "/>
</g>
<g clip-path="url(#clip23)" clip-rule="nonzero">
<path style="fill:none;stroke-width:0.2;stroke-linecap:square;stroke-linejoin:miter;stroke:rgb(50.000763%,50.000763%,50.000763%);stroke-opacity:0.5;stroke-miterlimit:3.25;" d="M 49.792969 -40.40625 L 302.640625 81.359375 "/>
</g>
<g clip-path="url(#clip24)" clip-rule="nonzero">
<path style="fill:none;stroke-width:0.2;stroke-linecap:square;stroke-linejoin:miter;stroke:rgb(50.000763%,50.000763%,50.000763%);stroke-opacity:0.5;stroke-miterlimit:3.25;" d="M 39.234375 157.296875 L 64.046875 48.601562 "/>
<path style="fill:none;stroke-width:0.2;stroke-linecap:square;stroke-linejoin:miter;stroke:rgb(50.000763%,50.000763%,50.000763%);stroke-opacity:0.5;stroke-miterlimit:3.25;" d="M 39.234375 157.296875 L 64.046875 48.601562 "/>
</g>
<path style=" stroke:none;fill-rule:nonzero;fill:rgb(50.000763%,50.000763%,50.000763%);fill-opacity:0.5;" d="M 64.046875 48.601562 L 63.949219 48.503906 L 63.972656 48.480469 L 64.066406 48.503906 Z M 64.046875 48.601562 "/>
<g clip-path="url(#clip25)" clip-rule="nonzero">
<path style="fill:none;stroke-width:0.2;stroke-linecap:square;stroke-linejoin:miter;stroke:rgb(50.000763%,50.000763%,50.000763%);stroke-opacity:0.5;stroke-miterlimit:3.25;" d="M 64.046875 48.601562 L 282.929688 98.558594 "/>
</g>
<g clip-path="url(#clip26)" clip-rule="nonzero">
<path style="fill:none;stroke-width:0.2;stroke-linecap:square;stroke-linejoin:miter;stroke:rgb(50.000763%,50.000763%,50.000763%);stroke-opacity:0.5;stroke-miterlimit:3.25;" d="M -18.335938 157.296875 L 21.816406 -18.609375 "/>
<path style="fill:none;stroke-width:0.2;stroke-linecap:square;stroke-linejoin:miter;stroke:rgb(50.000763%,50.000763%,50.000763%);stroke-opacity:0.5;stroke-miterlimit:3.25;" d="M -18.335938 157.296875 L 21.816406 -18.609375 "/>
</g>
<path style="fill:none;stroke-width:0.2;stroke-linecap:square;stroke-linejoin:miter;stroke:rgb(50.000763%,50.000763%,50.000763%);stroke-opacity:0.5;stroke-miterlimit:3.25;" d="M 21.816406 -18.609375 L 295.417969 43.835938 "/>
<g clip-path="url(#clip27)" clip-rule="nonzero">
<path style="fill:none;stroke-width:0.2;stroke-linecap:square;stroke-linejoin:miter;stroke:rgb(50.000763%,50.000763%,50.000763%);stroke-opacity:0.5;stroke-miterlimit:3.25;" d="M 43.835938 157.296875 L 43.835938 67.351562 "/>
<path style="fill:none;stroke-width:0.2;stroke-linecap:square;stroke-linejoin:miter;stroke:rgb(50.000763%,50.000763%,50.000763%);stroke-opacity:0.5;stroke-miterlimit:3.25;" d="M 43.835938 157.296875 L 43.835938 67.351562 "/>
</g>
<path style=" stroke:none;fill-rule:nonzero;fill:rgb(50.000763%,50.000763%,50.000763%);fill-opacity:0.5;" d="M 43.835938 67.351562 L 43.734375 67.253906 L 43.734375 64 L 43.835938 67.253906 Z M 43.835938 67.351562 "/>
<path style="fill:none;stroke-width:0.2;stroke-linecap:square;stroke-linejoin:miter;stroke:rgb(50.000763%,50.000763%,50.000763%);stroke-opacity:0.5;stroke-miterlimit:3.25;" d="M 43.835938 67.351562 L 268.347656 67.351562 "/>
<path style="fill:none;stroke-width:0.2;stroke-linecap:square;stroke-linejoin:miter;stroke:rgb(50.000763%,50.000763%,50.000763%);stroke-opacity:0.5;stroke-miterlimit:3.25;" d="M -12.292969 11.226562 L 268.347656 11.226562 "/>
</g>
</svg>
