<?xml version="1.0" encoding="UTF-8"?>
<svg xmlns="http://www.w3.org/2000/svg" xmlns:xlink="http://www.w3.org/1999/xlink" width="283pt" height="97pt" viewBox="0 0 283 97" version="1.1">
<g id="surface303">
<path style=" stroke:none;fill-rule:nonzero;fill:rgb(100%,100%,86.999313%);fill-opacity:1;" d="M 265.742188 81.863281 L 265.738281 80.847656 L 265.726562 79.835938 L 265.703125 78.828125 L 265.671875 77.828125 L 265.632812 76.835938 L 265.585938 75.847656 L 265.53125 74.867188 L 265.464844 73.890625 L 265.394531 72.921875 L 265.3125 71.957031 L 265.226562 71 L 265.128906 70.050781 L 265.027344 69.105469 L 264.917969 68.171875 L 264.796875 67.238281 L 264.671875 66.316406 L 264.539062 65.398438 L 264.398438 64.488281 L 264.253906 63.585938 L 264.097656 62.6875 L 263.9375 61.800781 L 263.769531 60.917969 L 263.59375 60.039062 L 263.414062 59.171875 L 263.226562 58.3125 L 263.035156 57.457031 L 262.835938 56.609375 L 262.628906 55.769531 L 262.417969 54.9375 L 262.203125 54.113281 L 261.976562 53.296875 L 261.75 52.488281 L 261.515625 51.683594 L 261.277344 50.890625 L 261.03125 50.101562 L 260.78125 49.320312 L 260.527344 48.550781 L 260.269531 47.785156 L 260.003906 47.027344 L 259.734375 46.277344 L 259.460938 45.535156 L 259.183594 44.800781 L 258.902344 44.074219 L 258.613281 43.355469 L 258.324219 42.644531 L 258.027344 41.945312 L 257.730469 41.25 L 257.425781 40.5625 L 257.121094 39.882812 L 256.8125 39.210938 L 256.5 38.546875 L 256.183594 37.890625 L 255.863281 37.242188 L 255.539062 36.601562 L 255.214844 35.96875 L 254.886719 35.34375 L 254.554688 34.726562 L 254.21875 34.121094 L 253.882812 33.519531 L 253.546875 32.925781 L 253.203125 32.339844 L 252.859375 31.761719 L 252.515625 31.195312 L 252.167969 30.632812 L 251.816406 30.078125 L 251.46875 29.535156 L 251.113281 28.996094 L 250.761719 28.464844 L 250.40625 27.941406 L 250.046875 27.429688 L 249.691406 26.921875 L 249.332031 26.421875 L 248.96875 25.929688 L 248.609375 25.449219 L 248.246094 24.972656 L 247.882812 24.503906 L 247.519531 24.042969 L 247.15625 23.589844 L 246.792969 23.144531 L 246.429688 22.707031 L 246.066406 22.277344 L 245.699219 21.851562 L 245.335938 21.4375 L 244.972656 21.03125 L 244.609375 20.628906 L 244.246094 20.234375 L 243.882812 19.851562 L 243.519531 19.472656 L 243.15625 19.097656 L 242.796875 18.734375 L 242.4375 18.378906 L 242.078125 18.027344 L 241.71875 17.683594 L 241.363281 17.347656 L 241.003906 17.019531 L 240.652344 16.699219 L 240.296875 16.382812 L 239.945312 16.074219 L 239.597656 15.773438 L 239.25 15.480469 L 238.902344 15.191406 L 238.558594 14.910156 L 238.214844 14.632812 L 237.875 14.367188 L 237.535156 14.105469 L 237.199219 13.847656 L 236.867188 13.597656 L 236.535156 13.355469 L 235.878906 12.886719 L 235.554688 12.664062 L 235.234375 12.445312 L 234.917969 12.234375 L 234.601562 12.027344 L 234.289062 11.824219 L 233.980469 11.628906 L 233.675781 11.441406 L 233.371094 11.257812 L 233.070312 11.078125 L 232.777344 10.90625 L 232.484375 10.738281 L 232.195312 10.578125 L 231.910156 10.421875 L 231.625 10.269531 L 231.347656 10.121094 L 231.074219 9.980469 L 230.535156 9.710938 L 230.273438 9.585938 L 230.015625 9.464844 L 229.757812 9.347656 L 229.507812 9.234375 L 229.261719 9.125 L 229.019531 9.019531 L 228.78125 8.921875 L 228.546875 8.824219 L 228.320312 8.734375 L 228.09375 8.648438 L 227.875 8.5625 L 227.660156 8.484375 L 227.449219 8.410156 L 227.242188 8.335938 L 226.84375 8.203125 L 226.652344 8.140625 L 226.285156 8.03125 L 226.109375 7.976562 L 225.9375 7.929688 L 225.769531 7.882812 L 225.609375 7.839844 L 225.453125 7.800781 L 225.300781 7.765625 L 225.152344 7.730469 L 225.011719 7.699219 L 224.878906 7.667969 L 224.746094 7.640625 L 224.621094 7.617188 L 224.503906 7.59375 L 224.386719 7.574219 L 224.277344 7.554688 L 224.175781 7.539062 L 224.078125 7.523438 L 223.984375 7.507812 L 223.898438 7.496094 L 223.816406 7.488281 L 223.742188 7.476562 L 223.671875 7.46875 L 223.605469 7.464844 L 223.546875 7.457031 L 223.492188 7.453125 L 223.445312 7.449219 L 223.402344 7.449219 L 223.363281 7.445312 L 223.332031 7.445312 L 223.308594 7.441406 L 59.492188 7.441406 L 59.464844 7.445312 L 59.433594 7.445312 L 59.398438 7.449219 L 59.355469 7.449219 L 59.308594 7.453125 L 59.253906 7.457031 L 59.195312 7.464844 L 59.128906 7.46875 L 59.058594 7.476562 L 58.984375 7.488281 L 58.902344 7.496094 L 58.816406 7.507812 L 58.722656 7.523438 L 58.625 7.539062 L 58.519531 7.554688 L 58.410156 7.574219 L 58.296875 7.59375 L 58.179688 7.617188 L 58.054688 7.640625 L 57.921875 7.667969 L 57.785156 7.699219 L 57.644531 7.730469 L 57.5 7.765625 L 57.347656 7.800781 L 57.191406 7.839844 L 57.03125 7.882812 L 56.863281 7.929688 L 56.691406 7.976562 L 56.515625 8.03125 L 56.332031 8.085938 L 56.144531 8.140625 L 55.953125 8.203125 L 55.757812 8.269531 L 55.558594 8.335938 L 55.351562 8.410156 L 55.140625 8.484375 L 54.925781 8.5625 L 54.480469 8.734375 L 54.25 8.824219 L 54.019531 8.921875 L 53.78125 9.019531 L 53.539062 9.125 L 53.292969 9.234375 L 53.039062 9.347656 L 52.785156 9.464844 L 52.527344 9.585938 L 52.265625 9.710938 L 51.996094 9.84375 L 51.726562 9.980469 L 51.453125 10.121094 L 51.171875 10.269531 L 50.890625 10.421875 L 50.605469 10.578125 L 50.316406 10.738281 L 50.023438 10.90625 L 49.726562 11.078125 L 49.429688 11.257812 L 49.125 11.441406 L 48.820312 11.628906 L 48.511719 11.824219 L 48.199219 12.027344 L 47.882812 12.234375 L 47.566406 12.445312 L 47.242188 12.664062 L 46.921875 12.886719 L 46.265625 13.355469 L 45.933594 13.597656 L 45.601562 13.847656 L 45.265625 14.105469 L 44.925781 14.367188 L 44.585938 14.632812 L 44.242188 14.910156 L 43.898438 15.191406 L 43.550781 15.480469 L 43.203125 15.773438 L 42.851562 16.074219 L 42.5 16.382812 L 42.148438 16.699219 L 41.792969 17.019531 L 41.4375 17.347656 L 41.082031 17.683594 L 40.722656 18.027344 L 40.363281 18.378906 L 40.003906 18.734375 L 39.644531 19.097656 L 39.28125 19.472656 L 38.917969 19.851562 L 38.554688 20.234375 L 38.191406 20.628906 L 37.828125 21.03125 L 37.464844 21.4375 L 37.097656 21.851562 L 36.734375 22.277344 L 36.371094 22.707031 L 36.007812 23.144531 L 35.640625 23.589844 L 35.277344 24.042969 L 34.914062 24.503906 L 34.554688 24.972656 L 34.191406 25.449219 L 33.828125 25.929688 L 33.46875 26.421875 L 33.109375 26.921875 L 32.753906 27.429688 L 32.394531 27.941406 L 32.039062 28.464844 L 31.683594 28.996094 L 31.332031 29.535156 L 30.980469 30.078125 L 30.632812 30.632812 L 30.285156 31.195312 L 29.941406 31.761719 L 29.597656 32.339844 L 29.253906 32.925781 L 28.917969 33.519531 L 28.578125 34.121094 L 28.246094 34.726562 L 27.914062 35.34375 L 27.585938 35.96875 L 27.261719 36.601562 L 26.9375 37.242188 L 26.617188 37.890625 L 26.300781 38.546875 L 25.988281 39.210938 L 25.679688 39.882812 L 25.371094 40.5625 L 25.070312 41.25 L 24.773438 41.945312 L 24.476562 42.644531 L 24.1875 43.355469 L 23.898438 44.074219 L 23.617188 44.800781 L 23.339844 45.535156 L 23.066406 46.277344 L 22.796875 47.027344 L 22.53125 47.785156 L 22.273438 48.550781 L 22.015625 49.320312 L 21.769531 50.101562 L 21.523438 50.890625 L 21.285156 51.683594 L 21.050781 52.488281 L 20.820312 53.296875 L 20.597656 54.113281 L 20.382812 54.9375 L 20.171875 55.769531 L 19.964844 56.609375 L 19.765625 57.457031 L 19.570312 58.3125 L 19.386719 59.171875 L 19.203125 60.039062 L 19.03125 60.917969 L 18.863281 61.800781 L 18.703125 62.6875 L 18.546875 63.585938 L 18.402344 64.488281 L 18.261719 65.398438 L 18.128906 66.316406 L 18.003906 67.238281 L 17.882812 68.171875 L 17.773438 69.105469 L 17.667969 70.050781 L 17.574219 71 L 17.484375 71.957031 L 17.40625 72.921875 L 17.332031 73.890625 L 17.269531 74.867188 L 17.214844 75.847656 L 17.167969 76.835938 L 17.128906 77.828125 L 17.097656 78.828125 L 17.074219 79.835938 L 17.0625 80.847656 L 17.058594 81.863281 L 59.859375 81.863281 L 60.503906 81.859375 L 61.140625 81.847656 L 61.773438 81.828125 L 62.402344 81.808594 L 63.023438 81.78125 L 63.636719 81.75 L 64.246094 81.710938 L 64.847656 81.667969 L 65.445312 81.621094 L 66.035156 81.570312 L 66.617188 81.515625 L 67.195312 81.453125 L 67.769531 81.386719 L 68.335938 81.320312 L 68.894531 81.246094 L 69.449219 81.167969 L 69.996094 81.085938 L 70.535156 81 L 71.070312 80.910156 L 71.597656 80.816406 L 72.121094 80.722656 L 72.632812 80.621094 L 73.144531 80.515625 L 73.644531 80.410156 L 74.140625 80.300781 L 74.628906 80.1875 L 75.113281 80.070312 L 75.589844 79.953125 L 76.058594 79.832031 L 76.523438 79.707031 L 76.980469 79.582031 L 77.429688 79.453125 L 77.871094 79.320312 L 78.308594 79.1875 L 78.738281 79.050781 L 79.164062 78.914062 L 79.578125 78.773438 L 79.988281 78.632812 L 80.394531 78.488281 L 80.792969 78.34375 L 81.183594 78.199219 L 81.566406 78.050781 L 81.945312 77.902344 L 82.316406 77.753906 L 82.679688 77.601562 L 83.035156 77.449219 L 83.386719 77.296875 L 83.734375 77.144531 L 84.070312 76.988281 L 84.402344 76.835938 L 84.726562 76.679688 L 85.046875 76.523438 L 85.664062 76.214844 L 85.964844 76.058594 L 86.257812 75.902344 L 86.546875 75.746094 L 87.101562 75.433594 L 87.367188 75.28125 L 87.628906 75.125 L 87.886719 74.972656 L 88.378906 74.667969 L 88.613281 74.515625 L 88.84375 74.367188 L 89.070312 74.21875 L 89.289062 74.070312 L 89.503906 73.921875 L 89.710938 73.777344 L 89.910156 73.636719 L 90.105469 73.492188 L 90.296875 73.351562 L 90.480469 73.214844 L 90.65625 73.078125 L 90.828125 72.945312 L 90.996094 72.8125 L 91.15625 72.679688 L 91.3125 72.550781 L 91.609375 72.300781 L 91.746094 72.179688 L 91.882812 72.0625 L 92.011719 71.945312 L 92.132812 71.832031 L 92.253906 71.722656 L 92.367188 71.613281 L 92.578125 71.410156 L 92.675781 71.308594 L 92.769531 71.214844 L 92.859375 71.121094 L 93.023438 70.949219 L 93.097656 70.867188 L 93.167969 70.789062 L 93.179688 70.773438 L 98.523438 50.835938 L 98.980469 49.949219 L 99.449219 49.078125 L 99.929688 48.21875 L 100.421875 47.371094 L 100.925781 46.53125 L 101.441406 45.707031 L 101.96875 44.898438 L 102.511719 44.097656 L 103.0625 43.308594 L 103.625 42.535156 L 104.199219 41.773438 L 104.78125 41.027344 L 105.375 40.292969 L 105.980469 39.570312 L 106.597656 38.863281 L 107.222656 38.167969 L 107.855469 37.488281 L 108.5 36.820312 L 109.15625 36.167969 L 109.820312 35.53125 L 110.492188 34.90625 L 111.171875 34.296875 L 111.859375 33.699219 L 112.558594 33.121094 L 113.265625 32.554688 L 113.980469 32 L 114.699219 31.464844 L 115.429688 30.941406 L 116.167969 30.4375 L 116.910156 29.945312 L 117.660156 29.46875 L 118.417969 29.007812 L 119.179688 28.5625 L 119.949219 28.132812 L 120.726562 27.71875 L 121.507812 27.320312 L 122.292969 26.9375 L 123.085938 26.570312 L 123.882812 26.21875 L 124.6875 25.882812 L 125.492188 25.5625 L 126.304688 25.257812 L 127.121094 24.972656 L 127.941406 24.699219 L 128.761719 24.445312 L 129.589844 24.207031 L 130.417969 23.984375 L 131.253906 23.777344 L 132.089844 23.585938 L 132.925781 23.414062 L 133.765625 23.257812 L 134.609375 23.117188 L 135.453125 22.992188 L 136.300781 22.882812 L 137.148438 22.792969 L 137.996094 22.71875 L 138.847656 22.660156 L 139.699219 22.621094 L 140.546875 22.59375 L 141.398438 22.585938 L 142.25 22.59375 L 143.101562 22.621094 L 143.953125 22.660156 L 144.800781 22.71875 L 145.652344 22.792969 L 146.5 22.882812 L 147.34375 22.992188 L 148.191406 23.117188 L 149.03125 23.257812 L 149.875 23.414062 L 150.710938 23.585938 L 151.546875 23.777344 L 152.378906 23.984375 L 153.210938 24.207031 L 154.035156 24.445312 L 154.859375 24.699219 L 155.679688 24.972656 L 156.496094 25.257812 L 157.304688 25.5625 L 158.113281 25.882812 L 158.914062 26.21875 L 159.714844 26.570312 L 160.503906 26.9375 L 161.292969 27.320312 L 162.074219 27.71875 L 162.847656 28.132812 L 163.617188 28.5625 L 164.382812 29.007812 L 165.140625 29.46875 L 165.890625 29.945312 L 166.632812 30.4375 L 167.371094 30.941406 L 168.097656 31.464844 L 168.820312 32 L 169.535156 32.554688 L 170.242188 33.121094 L 170.9375 33.699219 L 171.628906 34.296875 L 172.308594 34.90625 L 172.980469 35.53125 L 173.644531 36.167969 L 174.296875 36.820312 L 174.941406 37.488281 L 175.578125 38.167969 L 176.203125 38.863281 L 176.820312 39.570312 L 177.421875 40.292969 L 178.019531 41.027344 L 178.601562 41.773438 L 179.175781 42.535156 L 179.738281 43.308594 L 180.289062 44.097656 L 180.828125 44.898438 L 181.359375 45.707031 L 181.875 46.53125 L 182.378906 47.371094 L 182.871094 48.21875 L 183.351562 49.078125 L 183.820312 49.949219 L 184.277344 50.835938 L 189.617188 70.773438 L 189.632812 70.789062 L 189.703125 70.867188 L 189.777344 70.949219 L 189.855469 71.035156 L 189.941406 71.121094 L 190.03125 71.214844 L 190.125 71.308594 L 190.222656 71.410156 L 190.324219 71.511719 L 190.433594 71.613281 L 190.546875 71.722656 L 190.667969 71.832031 L 190.789062 71.945312 L 190.917969 72.0625 L 191.054688 72.179688 L 191.191406 72.300781 L 191.335938 72.425781 L 191.488281 72.550781 L 191.644531 72.679688 L 191.804688 72.8125 L 191.972656 72.945312 L 192.144531 73.078125 L 192.320312 73.214844 L 192.503906 73.351562 L 192.695312 73.492188 L 192.890625 73.636719 L 193.089844 73.777344 L 193.296875 73.921875 L 193.511719 74.070312 L 193.730469 74.21875 L 193.953125 74.367188 L 194.1875 74.515625 L 194.421875 74.667969 L 194.664062 74.820312 L 194.914062 74.972656 L 195.171875 75.125 L 195.433594 75.28125 L 195.699219 75.433594 L 195.972656 75.589844 L 196.253906 75.746094 L 196.542969 75.902344 L 196.835938 76.058594 L 197.132812 76.214844 L 197.441406 76.367188 L 197.753906 76.523438 L 198.070312 76.679688 L 198.398438 76.835938 L 198.730469 76.988281 L 199.066406 77.144531 L 199.410156 77.296875 L 199.761719 77.449219 L 200.121094 77.601562 L 200.484375 77.753906 L 200.855469 77.902344 L 201.234375 78.050781 L 201.617188 78.199219 L 202.007812 78.34375 L 202.40625 78.488281 L 202.808594 78.632812 L 203.21875 78.773438 L 203.636719 78.914062 L 204.0625 79.050781 L 204.492188 79.1875 L 204.929688 79.320312 L 205.371094 79.453125 L 205.820312 79.582031 L 206.277344 79.707031 L 206.742188 79.832031 L 207.210938 79.953125 L 207.6875 80.070312 L 208.167969 80.1875 L 208.660156 80.300781 L 209.15625 80.410156 L 209.65625 80.515625 L 210.164062 80.621094 L 210.679688 80.722656 L 211.203125 80.816406 L 211.730469 80.910156 L 212.265625 81 L 212.804688 81.085938 L 213.351562 81.167969 L 213.90625 81.246094 L 214.464844 81.320312 L 215.03125 81.386719 L 215.601562 81.453125 L 216.179688 81.515625 L 216.765625 81.570312 L 217.355469 81.621094 L 217.953125 81.667969 L 218.554688 81.710938 L 219.164062 81.75 L 219.777344 81.78125 L 220.398438 81.808594 L 221.023438 81.828125 L 221.65625 81.847656 L 222.296875 81.859375 L 222.9375 81.863281 Z M 265.742188 81.863281 "/>
<path style="fill:none;stroke-width:0.5;stroke-linecap:butt;stroke-linejoin:miter;stroke:rgb(50.000763%,50.000763%,50.000763%);stroke-opacity:1;stroke-dasharray:1,2;stroke-miterlimit:3.25;" d="M 172.648438 7.441406 L 192.589844 81.863281 "/>
<path style="fill:none;stroke-width:0.5;stroke-linecap:butt;stroke-linejoin:miter;stroke:rgb(50.000763%,50.000763%,50.000763%);stroke-opacity:1;stroke-dasharray:1,2;stroke-miterlimit:3.25;" d="M 110.152344 7.441406 L 90.210938 81.863281 "/>
<path style="fill:none;stroke-width:0.5;stroke-linecap:butt;stroke-linejoin:miter;stroke:rgb(50.000763%,50.000763%,50.000763%);stroke-opacity:1;stroke-dasharray:1,2;stroke-miterlimit:3.25;" d="M 59.859375 81.863281 L 222.9375 81.863281 "/>
<path style="fill:none;stroke-width:1;stroke-linecap:square;stroke-linejoin:miter;stroke:rgb(0%,0%,0%);stroke-opacity:1;stroke-miterlimit:3.25;" d="M 265.742188 81.863281 L 265.738281 80.847656 L 265.726562 79.835938 L 265.703125 78.828125 L 265.671875 77.828125 L 265.632812 76.835938 L 265.585938 75.847656 L 265.53125 74.867188 L 265.464844 73.890625 L 265.394531 72.921875 L 265.3125 71.957031 L 265.226562 71 L 265.128906 70.050781 L 265.027344 69.105469 L 264.917969 68.171875 L 264.796875 67.238281 L 264.671875 66.316406 L 264.539062 65.398438 L 264.398438 64.488281 L 264.253906 63.585938 L 264.097656 62.6875 L 263.9375 61.800781 L 263.769531 60.917969 L 263.59375 60.039062 L 263.414062 59.171875 L 263.226562 58.3125 L 263.035156 57.457031 L 262.835938 56.609375 L 262.628906 55.769531 L 262.417969 54.9375 L 262.203125 54.113281 L 261.976562 53.296875 L 261.75 52.488281 L 261.515625 51.683594 L 261.277344 50.890625 L 261.03125 50.101562 L 260.78125 49.320312 L 260.527344 48.550781 L 260.269531 47.785156 L 260.003906 47.027344 L 259.734375 46.277344 L 259.460938 45.535156 L 259.183594 44.800781 L 258.902344 44.074219 L 258.613281 43.355469 L 258.324219 42.644531 L 258.027344 41.945312 L 257.730469 41.25 L 257.425781 40.5625 L 257.121094 39.882812 L 256.8125 39.210938 L 256.5 38.546875 L 256.183594 37.890625 L 255.863281 37.242188 L 255.539062 36.601562 L 255.214844 35.96875 L 254.886719 35.34375 L 254.554688 34.726562 L 254.21875 34.121094 L 253.882812 33.519531 L 253.546875 32.925781 L 253.203125 32.339844 L 252.859375 31.761719 L 252.515625 31.195312 L 252.167969 30.632812 L 251.816406 30.078125 L 251.46875 29.535156 L 251.113281 28.996094 L 250.761719 28.464844 L 250.40625 27.941406 L 250.046875 27.429688 L 249.691406 26.921875 L 249.332031 26.421875 L 248.96875 25.929688 L 248.609375 25.449219 L 248.246094 24.972656 L 247.882812 24.503906 L 247.519531 24.042969 L 247.15625 23.589844 L 246.792969 23.144531 L 246.429688 22.707031 L 246.066406 22.277344 L 245.699219 21.851562 L 245.335938 21.4375 L 244.972656 21.03125 L 244.609375 20.628906 L 244.246094 20.234375 L 243.882812 19.851562 L 243.519531 19.472656 L 243.15625 19.097656 L 242.796875 18.734375 L 242.4375 18.378906 L 242.078125 18.027344 L 241.71875 17.683594 L 241.363281 17.347656 L 241.003906 17.019531 L 240.652344 16.699219 L 240.296875 16.382812 L 239.945312 16.074219 L 239.597656 15.773438 L 239.25 15.480469 L 238.902344 15.191406 L 238.558594 14.910156 L 238.214844 14.632812 L 237.875 14.367188 L 237.535156 14.105469 L 237.199219 13.847656 L 236.867188 13.597656 L 236.535156 13.355469 L 235.878906 12.886719 L 235.554688 12.664062 L 235.234375 12.445312 L 234.917969 12.234375 L 234.601562 12.027344 L 234.289062 11.824219 L 233.980469 11.628906 L 233.675781 11.441406 L 233.371094 11.257812 L 233.070312 11.078125 L 232.777344 10.90625 L 232.484375 10.738281 L 232.195312 10.578125 L 231.910156 10.421875 L 231.625 10.269531 L 231.347656 10.121094 L 231.074219 9.980469 L 230.535156 9.710938 L 230.273438 9.585938 L 230.015625 9.464844 L 229.757812 9.347656 L 229.507812 9.234375 L 229.261719 9.125 L 229.019531 9.019531 L 228.78125 8.921875 L 228.546875 8.824219 L 228.320312 8.734375 L 228.09375 8.648438 L 227.875 8.5625 L 227.660156 8.484375 L 227.449219 8.410156 L 227.242188 8.335938 L 226.84375 8.203125 L 226.652344 8.140625 L 226.285156 8.03125 L 226.109375 7.976562 L 225.9375 7.929688 L 225.769531 7.882812 L 225.609375 7.839844 L 225.453125 7.800781 L 225.300781 7.765625 L 225.152344 7.730469 L 225.011719 7.699219 L 224.878906 7.667969 L 224.746094 7.640625 L 224.621094 7.617188 L 224.503906 7.59375 L 224.386719 7.574219 L 224.277344 7.554688 L 224.175781 7.539062 L 224.078125 7.523438 L 223.984375 7.507812 L 223.898438 7.496094 L 223.816406 7.488281 L 223.742188 7.476562 L 223.671875 7.46875 L 223.605469 7.464844 L 223.546875 7.457031 L 223.492188 7.453125 L 223.445312 7.449219 L 223.402344 7.449219 L 223.363281 7.445312 L 223.332031 7.445312 L 223.308594 7.441406 L 59.492188 7.441406 L 59.464844 7.445312 L 59.433594 7.445312 L 59.398438 7.449219 L 59.355469 7.449219 L 59.308594 7.453125 L 59.253906 7.457031 L 59.195312 7.464844 L 59.128906 7.46875 L 59.058594 7.476562 L 58.984375 7.488281 L 58.902344 7.496094 L 58.816406 7.507812 L 58.722656 7.523438 L 58.625 7.539062 L 58.519531 7.554688 L 58.410156 7.574219 L 58.296875 7.59375 L 58.179688 7.617188 L 58.054688 7.640625 L 57.921875 7.667969 L 57.785156 7.699219 L 57.644531 7.730469 L 57.5 7.765625 L 57.347656 7.800781 L 57.191406 7.839844 L 57.03125 7.882812 L 56.863281 7.929688 L 56.691406 7.976562 L 56.515625 8.03125 L 56.332031 8.085938 L 56.144531 8.140625 L 55.953125 8.203125 L 55.757812 8.269531 L 55.558594 8.335938 L 55.351562 8.410156 L 55.140625 8.484375 L 54.925781 8.5625 L 54.480469 8.734375 L 54.25 8.824219 L 54.019531 8.921875 L 53.78125 9.019531 L 53.539062 9.125 L 53.292969 9.234375 L 53.039062 9.347656 L 52.785156 9.464844 L 52.527344 9.585938 L 52.265625 9.710938 L 51.996094 9.84375 L 51.726562 9.980469 L 51.453125 10.121094 L 51.171875 10.269531 L 50.890625 10.421875 L 50.605469 10.578125 L 50.316406 10.738281 L 50.023438 10.90625 L 49.726562 11.078125 L 49.429688 11.257812 L 49.125 11.441406 L 48.820312 11.628906 L 48.511719 11.824219 L 48.199219 12.027344 L 47.882812 12.234375 L 47.566406 12.445312 L 47.242188 12.664062 L 46.921875 12.886719 L 46.265625 13.355469 L 45.933594 13.597656 L 45.601562 13.847656 L 45.265625 14.105469 L 44.925781 14.367188 L 44.585938 14.632812 L 44.242188 14.910156 L 43.898438 15.191406 L 43.550781 15.480469 L 43.203125 15.773438 L 42.851562 16.074219 L 42.5 16.382812 L 42.148438 16.699219 L 41.792969 17.019531 L 41.4375 17.347656 L 41.082031 17.683594 L 40.722656 18.027344 L 40.363281 18.378906 L 40.003906 18.734375 L 39.644531 19.097656 L 39.28125 19.472656 L 38.917969 19.851562 L 38.554688 20.234375 L 38.191406 20.628906 L 37.828125 21.03125 L 37.464844 21.4375 L 37.097656 21.851562 L 36.734375 22.277344 L 36.371094 22.707031 L 36.007812 23.144531 L 35.640625 23.589844 L 35.277344 24.042969 L 34.914062 24.503906 L 34.554688 24.972656 L 34.191406 25.449219 L 33.828125 25.929688 L 33.46875 26.421875 L 33.109375 26.921875 L 32.753906 27.429688 L 32.394531 27.941406 L 32.039062 28.464844 L 31.683594 28.996094 L 31.332031 29.535156 L 30.980469 30.078125 L 30.632812 30.632812 L 30.285156 31.195312 L 29.941406 31.761719 L 29.597656 32.339844 L 29.253906 32.925781 L 28.917969 33.519531 L 28.578125 34.121094 L 28.246094 34.726562 L 27.914062 35.34375 L 27.585938 35.96875 L 27.261719 36.601562 L 26.9375 37.242188 L 26.617188 37.890625 L 26.300781 38.546875 L 25.988281 39.210938 L 25.679688 39.882812 L 25.371094 40.5625 L 25.070312 41.25 L 24.773438 41.945312 L 24.476562 42.644531 L 24.1875 43.355469 L 23.898438 44.074219 L 23.617188 44.800781 L 23.339844 45.535156 L 23.066406 46.277344 L 22.796875 47.027344 L 22.53125 47.785156 L 22.273438 48.550781 L 22.015625 49.320312 L 21.769531 50.101562 L 21.523438 50.890625 L 21.285156 51.683594 L 21.050781 52.488281 L 20.820312 53.296875 L 20.597656 54.113281 L 20.382812 54.9375 L 20.171875 55.769531 L 19.964844 56.609375 L 19.765625 57.457031 L 19.570312 58.3125 L 19.386719 59.171875 L 19.203125 60.039062 L 19.03125 60.917969 L 18.863281 61.800781 L 18.703125 62.6875 L 18.546875 63.585938 L 18.402344 64.488281 L 18.261719 65.398438 L 18.128906 66.316406 L 18.003906 67.238281 L 17.882812 68.171875 L 17.773438 69.105469 L 17.667969 70.050781 L 17.574219 71 L 17.484375 71.957031 L 17.40625 72.921875 L 17.332031 73.890625 L 17.269531 74.867188 L 17.214844 75.847656 L 17.167969 76.835938 L 17.128906 77.828125 L 17.097656 78.828125 L 17.074219 79.835938 L 17.0625 80.847656 L 17.058594 81.863281 L 59.859375 81.863281 L 60.503906 81.859375 L 61.140625 81.847656 L 61.773438 81.828125 L 62.402344 81.808594 L 63.023438 81.78125 L 63.636719 81.75 L 64.246094 81.710938 L 64.847656 81.667969 L 65.445312 81.621094 L 66.035156 81.570312 L 66.617188 81.515625 L 67.195312 81.453125 L 67.769531 81.386719 L 68.335938 81.320312 L 68.894531 81.246094 L 69.449219 81.167969 L 69.996094 81.085938 L 70.535156 81 L 71.070312 80.910156 L 71.597656 80.816406 L 72.121094 80.722656 L 72.632812 80.621094 L 73.144531 80.515625 L 73.644531 80.410156 L 74.140625 80.300781 L 74.628906 80.1875 L 75.113281 80.070312 L 75.589844 79.953125 L 76.058594 79.832031 L 76.523438 79.707031 L 76.980469 79.582031 L 77.429688 79.453125 L 77.871094 79.320312 L 78.308594 79.1875 L 78.738281 79.050781 L 79.164062 78.914062 L 79.578125 78.773438 L 79.988281 78.632812 L 80.394531 78.488281 L 80.792969 78.34375 L 81.183594 78.199219 L 81.566406 78.050781 L 81.945312 77.902344 L 82.316406 77.753906 L 82.679688 77.601562 L 83.035156 77.449219 L 83.386719 77.296875 L 83.734375 77.144531 L 84.070312 76.988281 L 84.402344 76.835938 L 84.726562 76.679688 L 85.046875 76.523438 L 85.664062 76.214844 L 85.964844 76.058594 L 86.257812 75.902344 L 86.546875 75.746094 L 87.101562 75.433594 L 87.367188 75.28125 L 87.628906 75.125 L 87.886719 74.972656 L 88.378906 74.667969 L 88.613281 74.515625 L 88.84375 74.367188 L 89.070312 74.21875 L 89.289062 74.070312 L 89.503906 73.921875 L 89.710938 73.777344 L 89.910156 73.636719 L 90.105469 73.492188 L 90.296875 73.351562 L 90.480469 73.214844 L 90.65625 73.078125 L 90.828125 72.945312 L 90.996094 72.8125 L 91.15625 72.679688 L 91.3125 72.550781 L 91.609375 72.300781 L 91.746094 72.179688 L 91.882812 72.0625 L 92.011719 71.945312 L 92.132812 71.832031 L 92.253906 71.722656 L 92.367188 71.613281 L 92.578125 71.410156 L 92.675781 71.308594 L 92.769531 71.214844 L 92.859375 71.121094 L 93.023438 70.949219 L 93.097656 70.867188 L 93.167969 70.789062 L 93.179688 70.773438 L 98.523438 50.835938 L 98.980469 49.949219 L 99.449219 49.078125 L 99.929688 48.21875 L 100.421875 47.371094 L 100.925781 46.53125 L 101.441406 45.707031 L 101.96875 44.898438 L 102.511719 44.097656 L 103.0625 43.308594 L 103.625 42.535156 L 104.199219 41.773438 L 104.78125 41.027344 L 105.375 40.292969 L 105.980469 39.570312 L 106.597656 38.863281 L 107.222656 38.167969 L 107.855469 37.488281 L 108.5 36.820312 L 109.15625 36.167969 L 109.820312 35.53125 L 110.492188 34.90625 L 111.171875 34.296875 L 111.859375 33.699219 L 112.558594 33.121094 L 113.265625 32.554688 L 113.980469 32 L 114.699219 31.464844 L 115.429688 30.941406 L 116.167969 30.4375 L 116.910156 29.945312 L 117.660156 29.46875 L 118.417969 29.007812 L 119.179688 28.5625 L 119.949219 28.132812 L 120.726562 27.71875 L 121.507812 27.320312 L 122.292969 26.9375 L 123.085938 26.570312 L 123.882812 26.21875 L 124.6875 25.882812 L 125.492188 25.5625 L 126.304688 25.257812 L 127.121094 24.972656 L 127.941406 24.699219 L 128.761719 24.445312 L 129.589844 24.207031 L 130.417969 23.984375 L 131.253906 23.777344 L 132.089844 23.585938 L 132.925781 23.414062 L 133.765625 23.257812 L 134.609375 23.117188 L 135.453125 22.992188 L 136.300781 22.882812 L 137.148438 22.792969 L 137.996094 22.71875 L 138.847656 22.660156 L 139.699219 22.621094 L 140.546875 22.59375 L 141.398438 22.585938 L 142.25 22.59375 L 143.101562 22.621094 L 143.953125 22.660156 L 144.800781 22.71875 L 145.652344 22.792969 L 146.5 22.882812 L 147.34375 22.992188 L 148.191406 23.117188 L 149.03125 23.257812 L 149.875 23.414062 L 150.710938 23.585938 L 151.546875 23.777344 L 152.378906 23.984375 L 153.210938 24.207031 L 154.035156 24.445312 L 154.859375 24.699219 L 155.679688 24.972656 L 156.496094 25.257812 L 157.304688 25.5625 L 158.113281 25.882812 L 158.914062 26.21875 L 159.714844 26.570312 L 160.503906 26.9375 L 161.292969 27.320312 L 162.074219 27.71875 L 162.847656 28.132812 L 163.617188 28.5625 L 164.382812 29.007812 L 165.140625 29.46875 L 165.890625 29.945312 L 166.632812 30.4375 L 167.371094 30.941406 L 168.097656 31.464844 L 168.820312 32 L 169.535156 32.554688 L 170.242188 33.121094 L 170.9375 33.699219 L 171.628906 34.296875 L 172.308594 34.90625 L 172.980469 35.53125 L 173.644531 36.167969 L 174.296875 36.820312 L 174.941406 37.488281 L 175.578125 38.167969 L 176.203125 38.863281 L 176.820312 39.570312 L 177.421875 40.292969 L 178.019531 41.027344 L 178.601562 41.773438 L 179.175781 42.535156 L 179.738281 43.308594 L 180.289062 44.097656 L 180.828125 44.898438 L 181.359375 45.707031 L 181.875 46.53125 L 182.378906 47.371094 L 182.871094 48.21875 L 183.351562 49.078125 L 183.820312 49.949219 L 184.277344 50.835938 L 189.617188 70.773438 L 189.632812 70.789062 L 189.703125 70.867188 L 189.777344 70.949219 L 189.855469 71.035156 L 189.941406 71.121094 L 190.03125 71.214844 L 190.125 71.308594 L 190.222656 71.410156 L 190.324219 71.511719 L 190.433594 71.613281 L 190.546875 71.722656 L 190.667969 71.832031 L 190.789062 71.945312 L 190.917969 72.0625 L 191.054688 72.179688 L 191.191406 72.300781 L 191.335938 72.425781 L 191.488281 72.550781 L 191.644531 72.679688 L 191.804688 72.8125 L 191.972656 72.945312 L 192.144531 73.078125 L 192.320312 73.214844 L 192.503906 73.351562 L 192.695312 73.492188 L 192.890625 73.636719 L 193.089844 73.777344 L 193.296875 73.921875 L 193.511719 74.070312 L 193.730469 74.21875 L 193.953125 74.367188 L 194.1875 74.515625 L 194.421875 74.667969 L 194.664062 74.820312 L 194.914062 74.972656 L 195.171875 75.125 L 195.433594 75.28125 L 195.699219 75.433594 L 195.972656 75.589844 L 196.253906 75.746094 L 196.542969 75.902344 L 196.835938 76.058594 L 197.132812 76.214844 L 197.441406 76.367188 L 197.753906 76.523438 L 198.070312 76.679688 L 198.398438 76.835938 L 198.730469 76.988281 L 199.066406 77.144531 L 199.410156 77.296875 L 199.761719 77.449219 L 200.121094 77.601562 L 200.484375 77.753906 L 200.855469 77.902344 L 201.234375 78.050781 L 201.617188 78.199219 L 202.007812 78.34375 L 202.40625 78.488281 L 202.808594 78.632812 L 203.21875 78.773438 L 203.636719 78.914062 L 204.0625 79.050781 L 204.492188 79.1875 L 204.929688 79.320312 L 205.371094 79.453125 L 205.820312 79.582031 L 206.277344 79.707031 L 206.742188 79.832031 L 207.210938 79.953125 L 207.6875 80.070312 L 208.167969 80.1875 L 208.660156 80.300781 L 209.15625 80.410156 L 209.65625 80.515625 L 210.164062 80.621094 L 210.679688 80.722656 L 211.203125 80.816406 L 211.730469 80.910156 L 212.265625 81 L 212.804688 81.085938 L 213.351562 81.167969 L 213.90625 81.246094 L 214.464844 81.320312 L 215.03125 81.386719 L 215.601562 81.453125 L 216.179688 81.515625 L 216.765625 81.570312 L 217.355469 81.621094 L 217.953125 81.667969 L 218.554688 81.710938 L 219.164062 81.75 L 219.777344 81.78125 L 220.398438 81.808594 L 221.023438 81.828125 L 221.65625 81.847656 L 222.296875 81.859375 L 222.9375 81.863281 Z M 265.742188 81.863281 "/>
<path style=" stroke:none;fill-rule:evenodd;fill:rgb(0%,0%,0%);fill-opacity:1;" d="M 175.550781 30.546875 C 175.550781 30.492188 175.503906 30.449219 175.441406 30.449219 C 175.339844 30.449219 175.332031 30.503906 175.285156 30.667969 C 175.089844 31.421875 174.890625 32.003906 174.453125 32.003906 C 174.125 32.003906 174.125 31.652344 174.125 31.5 C 174.125 31.457031 174.125 31.226562 174.199219 30.917969 L 175.746094 24.785156 C 175.757812 24.742188 175.777344 24.675781 175.777344 24.621094 C 175.777344 24.511719 175.648438 24.511719 175.648438 24.511719 L 175.042969 24.566406 C 174.859375 24.578125 174.695312 24.597656 174.496094 24.609375 C 174.234375 24.632812 174.15625 24.640625 174.15625 24.839844 C 174.15625 24.949219 174.265625 24.949219 174.378906 24.949219 C 174.933594 24.949219 174.933594 25.046875 174.933594 25.15625 C 174.933594 25.199219 174.933594 25.222656 174.878906 25.421875 L 173.523438 30.855469 C 173.492188 30.972656 173.46875 31.0625 173.46875 31.238281 C 173.46875 31.785156 173.871094 32.222656 174.433594 32.222656 C 174.792969 32.222656 175.035156 31.980469 175.207031 31.640625 C 175.394531 31.28125 175.550781 30.589844 175.550781 30.546875 Z M 175.550781 30.546875 "/>
<path style=" stroke:none;fill-rule:evenodd;fill:rgb(0%,0%,0%);fill-opacity:1;" d="M 182.332031 26.816406 C 182.332031 26.769531 182.332031 26.671875 182.207031 26.671875 C 182.097656 26.671875 182.097656 26.753906 182.09375 26.808594 C 182.054688 27.292969 181.785156 27.460938 181.570312 27.460938 C 181.15625 27.460938 181.109375 27.109375 180.972656 26.132812 C 180.917969 25.695312 180.84375 25.167969 180 24.90625 C 180.597656 24.753906 181.332031 24.316406 181.332031 23.65625 C 181.332031 22.894531 180.359375 22.277344 179.214844 22.277344 L 176.714844 22.277344 L 176.714844 22.527344 L 176.886719 22.527344 C 177.476562 22.527344 177.492188 22.613281 177.492188 22.894531 L 177.492188 26.890625 C 177.492188 27.175781 177.476562 27.261719 176.886719 27.261719 L 176.714844 27.261719 L 176.714844 27.515625 L 177.828125 27.492188 L 178.949219 27.515625 L 178.949219 27.261719 L 178.777344 27.261719 C 178.1875 27.261719 178.171875 27.175781 178.171875 26.890625 L 178.171875 25 L 179.140625 25 C 179.707031 25 179.960938 25.28125 180.015625 25.34375 C 180.234375 25.589844 180.234375 25.734375 180.234375 26.257812 C 180.234375 26.738281 180.234375 27.070312 180.558594 27.351562 C 180.890625 27.636719 181.320312 27.675781 181.539062 27.675781 C 182.175781 27.675781 182.332031 27.046875 182.332031 26.816406 Z M 180.535156 23.65625 C 180.535156 24.507812 179.921875 24.78125 179.117188 24.78125 L 178.171875 24.78125 L 178.171875 22.84375 C 178.171875 22.644531 178.179688 22.558594 178.363281 22.535156 C 178.433594 22.527344 178.679688 22.527344 178.832031 22.527344 C 179.523438 22.527344 180.535156 22.527344 180.535156 23.65625 Z M 180.535156 23.65625 "/>
<path style=" stroke:none;fill-rule:evenodd;fill:rgb(0%,0%,0%);fill-opacity:1;" d="M 182.175781 34.667969 C 182.175781 34.558594 182.070312 34.558594 182.023438 34.558594 C 181.722656 34.550781 181.625 34.5 181.5 34.238281 L 180.28125 31.730469 L 180.234375 31.628906 C 180.234375 31.628906 180.367188 31.523438 180.445312 31.46875 C 181.046875 31.023438 181.878906 30.425781 182.132812 30.265625 C 182.519531 30.019531 182.804688 29.855469 183.152344 29.828125 C 183.210938 29.820312 183.320312 29.8125 183.320312 29.675781 C 183.3125 29.621094 183.265625 29.574219 183.210938 29.574219 C 183.210938 29.574219 182.988281 29.597656 182.933594 29.597656 L 182.628906 29.597656 C 182.496094 29.597656 182.308594 29.597656 182.238281 29.589844 C 182.183594 29.589844 181.882812 29.574219 181.832031 29.574219 C 181.777344 29.574219 181.671875 29.574219 181.671875 29.71875 C 181.671875 29.71875 181.679688 29.820312 181.792969 29.828125 C 181.855469 29.835938 181.976562 29.851562 181.976562 29.941406 C 181.976562 30.066406 181.824219 30.195312 181.808594 30.203125 L 181.746094 30.257812 C 181.722656 30.277344 181.695312 30.308594 181.65625 30.332031 L 178.523438 32.605469 L 179.132812 30.171875 C 179.199219 29.894531 179.214844 29.828125 179.773438 29.828125 C 179.929688 29.828125 180.019531 29.828125 180.019531 29.683594 C 180.019531 29.683594 180.015625 29.574219 179.890625 29.574219 C 179.746094 29.574219 179.5625 29.589844 179.414062 29.597656 L 178.929688 29.597656 C 178.195312 29.597656 177.996094 29.574219 177.941406 29.574219 C 177.902344 29.574219 177.789062 29.574219 177.789062 29.71875 C 177.789062 29.828125 177.882812 29.828125 178.011719 29.828125 C 178.265625 29.828125 178.488281 29.828125 178.488281 29.949219 C 178.488281 29.980469 178.480469 29.988281 178.457031 30.089844 L 177.429688 34.207031 C 177.359375 34.5 177.34375 34.558594 176.777344 34.558594 C 176.628906 34.558594 176.539062 34.558594 176.539062 34.703125 C 176.539062 34.734375 176.5625 34.8125 176.660156 34.8125 C 176.808594 34.8125 176.992188 34.796875 177.136719 34.789062 L 178.125 34.789062 C 178.25 34.796875 178.5 34.8125 178.617188 34.8125 C 178.65625 34.8125 178.769531 34.8125 178.769531 34.675781 C 178.769531 34.558594 178.679688 34.558594 178.546875 34.558594 C 178.492188 34.558594 178.386719 34.558594 178.257812 34.542969 C 178.09375 34.527344 178.070312 34.515625 178.070312 34.4375 C 178.070312 34.390625 178.125 34.199219 178.148438 34.078125 C 178.234375 33.738281 178.132812 34.160156 178.441406 32.917969 L 179.675781 32.027344 L 180.597656 33.921875 L 180.742188 34.222656 C 180.789062 34.296875 180.789062 34.3125 180.789062 34.34375 C 180.789062 34.550781 180.503906 34.558594 180.421875 34.558594 C 180.34375 34.558594 180.234375 34.558594 180.234375 34.703125 C 180.234375 34.703125 180.242188 34.8125 180.367188 34.8125 C 180.445312 34.8125 180.734375 34.796875 180.804688 34.789062 L 181.25 34.789062 C 181.953125 34.789062 181.929688 34.8125 182.03125 34.8125 C 182.058594 34.8125 182.175781 34.8125 182.175781 34.667969 Z M 182.175781 34.667969 "/>
<path style=" stroke:none;fill-rule:evenodd;fill:rgb(0%,0%,0%);fill-opacity:1;" d="M 101.421875 30.546875 C 101.421875 30.492188 101.378906 30.449219 101.3125 30.449219 C 101.214844 30.449219 101.203125 30.503906 101.160156 30.667969 C 100.964844 31.421875 100.765625 32.003906 100.328125 32.003906 C 100 32.003906 100 31.652344 100 31.5 C 100 31.457031 100 31.226562 100.074219 30.917969 L 101.621094 24.785156 C 101.632812 24.742188 101.652344 24.675781 101.652344 24.621094 C 101.652344 24.511719 101.523438 24.511719 101.523438 24.511719 L 100.917969 24.566406 C 100.734375 24.578125 100.570312 24.597656 100.371094 24.609375 C 100.109375 24.632812 100.03125 24.640625 100.03125 24.839844 C 100.03125 24.949219 100.140625 24.949219 100.253906 24.949219 C 100.808594 24.949219 100.808594 25.046875 100.808594 25.15625 C 100.808594 25.199219 100.808594 25.222656 100.753906 25.421875 L 99.398438 30.855469 C 99.363281 30.972656 99.34375 31.0625 99.34375 31.238281 C 99.34375 31.785156 99.746094 32.222656 100.308594 32.222656 C 100.667969 32.222656 100.910156 31.980469 101.082031 31.640625 C 101.269531 31.28125 101.421875 30.589844 101.421875 30.546875 Z M 101.421875 30.546875 "/>
<path style=" stroke:none;fill-rule:evenodd;fill:rgb(0%,0%,0%);fill-opacity:1;" d="M 106.984375 25.519531 L 106.746094 25.519531 C 106.65625 26.316406 106.539062 27.261719 105.136719 27.261719 L 104.421875 27.261719 C 104.070312 27.261719 104.054688 27.207031 104.054688 26.945312 L 104.054688 22.902344 C 104.054688 22.636719 104.054688 22.527344 104.777344 22.527344 L 105.023438 22.527344 L 105.023438 22.277344 C 104.675781 22.300781 104.117188 22.300781 103.757812 22.300781 L 102.574219 22.277344 L 102.574219 22.527344 L 102.742188 22.527344 C 103.335938 22.527344 103.351562 22.613281 103.351562 22.894531 L 103.351562 26.890625 C 103.351562 27.175781 103.335938 27.261719 102.742188 27.261719 L 102.574219 27.261719 L 102.574219 27.515625 L 106.761719 27.515625 Z M 106.984375 25.519531 "/>
<path style=" stroke:none;fill-rule:evenodd;fill:rgb(0%,0%,0%);fill-opacity:1;" d="M 108.050781 34.667969 C 108.050781 34.558594 107.941406 34.558594 107.898438 34.558594 C 107.597656 34.550781 107.5 34.5 107.375 34.238281 L 106.15625 31.730469 L 106.109375 31.628906 C 106.109375 31.628906 106.238281 31.523438 106.316406 31.46875 C 106.921875 31.023438 107.753906 30.425781 108.003906 30.265625 C 108.394531 30.019531 108.679688 29.855469 109.027344 29.828125 C 109.085938 29.820312 109.195312 29.8125 109.195312 29.675781 C 109.1875 29.621094 109.140625 29.574219 109.085938 29.574219 C 109.085938 29.574219 108.863281 29.597656 108.808594 29.597656 L 108.503906 29.597656 C 108.371094 29.597656 108.183594 29.597656 108.113281 29.589844 C 108.058594 29.589844 107.757812 29.574219 107.707031 29.574219 C 107.652344 29.574219 107.542969 29.574219 107.542969 29.71875 C 107.542969 29.71875 107.550781 29.820312 107.667969 29.828125 C 107.730469 29.835938 107.851562 29.851562 107.851562 29.941406 C 107.851562 30.066406 107.699219 30.195312 107.683594 30.203125 L 107.621094 30.257812 C 107.597656 30.277344 107.566406 30.308594 107.527344 30.332031 L 104.398438 32.605469 L 105.007812 30.171875 C 105.074219 29.894531 105.089844 29.828125 105.648438 29.828125 C 105.804688 29.828125 105.894531 29.828125 105.894531 29.683594 C 105.894531 29.683594 105.886719 29.574219 105.765625 29.574219 C 105.621094 29.574219 105.433594 29.589844 105.289062 29.597656 L 104.804688 29.597656 C 104.070312 29.597656 103.871094 29.574219 103.816406 29.574219 C 103.777344 29.574219 103.664062 29.574219 103.664062 29.71875 C 103.664062 29.828125 103.757812 29.828125 103.886719 29.828125 C 104.140625 29.828125 104.363281 29.828125 104.363281 29.949219 C 104.363281 29.980469 104.355469 29.988281 104.332031 30.089844 L 103.304688 34.207031 C 103.234375 34.5 103.21875 34.558594 102.652344 34.558594 C 102.503906 34.558594 102.414062 34.558594 102.414062 34.703125 C 102.414062 34.734375 102.4375 34.8125 102.535156 34.8125 C 102.679688 34.8125 102.867188 34.796875 103.011719 34.789062 L 104 34.789062 C 104.125 34.796875 104.375 34.8125 104.492188 34.8125 C 104.53125 34.8125 104.644531 34.8125 104.644531 34.675781 C 104.644531 34.558594 104.554688 34.558594 104.421875 34.558594 C 104.367188 34.558594 104.261719 34.558594 104.132812 34.542969 C 103.96875 34.527344 103.945312 34.515625 103.945312 34.4375 C 103.945312 34.390625 104 34.199219 104.023438 34.078125 C 104.109375 33.738281 104.007812 34.160156 104.316406 32.917969 L 105.550781 32.027344 L 106.472656 33.921875 L 106.617188 34.222656 C 106.660156 34.296875 106.660156 34.3125 106.660156 34.34375 C 106.660156 34.550781 106.378906 34.558594 106.292969 34.558594 C 106.21875 34.558594 106.109375 34.558594 106.109375 34.703125 C 106.109375 34.703125 106.117188 34.8125 106.238281 34.8125 C 106.316406 34.8125 106.609375 34.796875 106.675781 34.789062 L 107.121094 34.789062 C 107.828125 34.789062 107.804688 34.8125 107.90625 34.8125 C 107.933594 34.8125 108.050781 34.8125 108.050781 34.667969 Z M 108.050781 34.667969 "/>
<path style="fill:none;stroke-width:0.5;stroke-linecap:butt;stroke-linejoin:miter;stroke:rgb(50.000763%,50.000763%,50.000763%);stroke-opacity:1;stroke-dasharray:1,4;stroke-miterlimit:3.25;" d="M 214.324219 81.863281 L 98.523438 50.835938 "/>
<path style=" stroke:none;fill-rule:evenodd;fill:rgb(0%,0%,0%);fill-opacity:1;" d="M 214.582031 46.386719 C 214.582031 46.34375 214.558594 46.300781 214.46875 46.300781 C 214.273438 46.300781 213.746094 46.550781 213.648438 46.835938 C 213.484375 47.296875 213.308594 47.363281 212.949219 47.363281 C 212.222656 47.363281 211.695312 47.175781 210.152344 46.652344 C 212.269531 46.035156 214.4375 44.085938 214.4375 41.578125 C 214.4375 40.078125 213.617188 38.882812 212.015625 38.882812 C 209.789062 38.882812 207.183594 41.160156 207.183594 43.449219 C 207.183594 44.601562 207.863281 45.488281 209.101562 45.488281 C 210.1875 45.488281 211.445312 44.765625 211.445312 44.503906 C 211.445312 44.4375 211.367188 44.4375 211.324219 44.4375 C 211.183594 44.4375 211.019531 44.527344 210.832031 44.625 C 210.40625 44.863281 209.964844 44.886719 209.824219 44.886719 C 208.761719 44.886719 208.113281 44.03125 208.113281 42.992188 C 208.113281 41.632812 209.351562 39.484375 211.292969 39.484375 C 212.695312 39.484375 213.503906 40.625 213.503906 42.039062 C 213.503906 43.265625 212.9375 44.460938 212.039062 45.261719 C 211.359375 45.882812 210.589844 46.300781 208.71875 46.300781 L 208.367188 46.300781 C 207.808594 46.300781 207.4375 46.714844 207.4375 46.824219 C 207.4375 46.902344 207.492188 46.902344 207.546875 46.902344 C 208.125 46.925781 208.597656 46.980469 209.800781 47.417969 C 210.710938 47.746094 211.421875 47.964844 212.222656 47.964844 C 213.496094 47.964844 214.582031 46.835938 214.582031 46.386719 Z M 214.582031 46.386719 "/>
<path style=" stroke:none;fill-rule:evenodd;fill:rgb(0%,0%,0%);fill-opacity:1;" d="M 218.40625 49.269531 C 218.40625 49.238281 218.40625 49.214844 218.222656 49.03125 C 217.125 47.921875 216.511719 46.113281 216.511719 43.878906 C 216.511719 41.753906 217.027344 39.921875 218.296875 38.628906 C 218.40625 38.53125 218.40625 38.507812 218.40625 38.476562 C 218.40625 38.410156 218.351562 38.386719 218.308594 38.386719 C 218.167969 38.386719 217.269531 39.179688 216.730469 40.25 C 216.171875 41.359375 215.917969 42.53125 215.917969 43.878906 C 215.917969 44.855469 216.074219 46.160156 216.644531 47.332031 C 217.289062 48.644531 218.1875 49.359375 218.308594 49.359375 C 218.351562 49.359375 218.40625 49.335938 218.40625 49.269531 Z M 218.40625 49.269531 "/>
<path style=" stroke:none;fill-rule:evenodd;fill:rgb(0%,0%,0%);fill-opacity:1;" d="M 226.96875 46.398438 C 226.96875 46.289062 226.871094 46.289062 226.761719 46.289062 C 226.355469 46.277344 226.214844 46.191406 226.050781 45.796875 L 224.527344 42.179688 C 224.515625 42.148438 224.472656 42.058594 224.472656 42.027344 C 224.472656 42.027344 224.480469 42.003906 224.667969 41.863281 L 225.730469 41.03125 C 227.199219 39.890625 227.683594 39.507812 228.4375 39.441406 C 228.515625 39.429688 228.625 39.429688 228.625 39.242188 C 228.625 39.179688 228.59375 39.125 228.503906 39.125 C 228.382812 39.125 228.25 39.144531 228.132812 39.144531 L 227.714844 39.144531 C 227.375 39.144531 227.011719 39.125 226.683594 39.125 C 226.605469 39.125 226.476562 39.125 226.476562 39.320312 C 226.476562 39.429688 226.550781 39.441406 226.617188 39.441406 C 226.738281 39.453125 226.882812 39.496094 226.882812 39.648438 C 226.882812 39.867188 226.550781 40.132812 226.464844 40.195312 L 222.167969 43.539062 L 223.078125 39.921875 C 223.179688 39.550781 223.199219 39.441406 223.976562 39.441406 C 224.1875 39.441406 224.285156 39.441406 224.285156 39.234375 C 224.285156 39.125 224.175781 39.125 224.121094 39.125 C 223.921875 39.125 223.691406 39.144531 223.484375 39.144531 L 222.191406 39.144531 C 221.992188 39.144531 221.753906 39.125 221.554688 39.125 C 221.46875 39.125 221.347656 39.125 221.347656 39.332031 C 221.347656 39.441406 221.445312 39.441406 221.609375 39.441406 C 222.28125 39.441406 222.28125 39.527344 222.28125 39.648438 C 222.28125 39.648438 222.28125 39.734375 222.234375 39.902344 L 220.757812 45.796875 C 220.65625 46.179688 220.636719 46.289062 219.867188 46.289062 C 219.660156 46.289062 219.550781 46.289062 219.550781 46.488281 C 219.550781 46.605469 219.648438 46.605469 219.714844 46.605469 C 219.921875 46.605469 220.140625 46.585938 220.351562 46.585938 L 221.632812 46.585938 C 221.839844 46.585938 222.070312 46.605469 222.28125 46.605469 C 222.367188 46.605469 222.488281 46.605469 222.488281 46.398438 C 222.488281 46.289062 222.390625 46.289062 222.226562 46.289062 C 221.554688 46.289062 221.554688 46.203125 221.554688 46.089844 C 221.554688 46.015625 221.621094 45.742188 221.664062 45.566406 L 222.09375 43.867188 L 223.757812 42.5625 L 225.105469 45.742188 C 225.140625 45.808594 225.160156 45.871094 225.160156 45.949219 C 225.160156 46.277344 224.722656 46.289062 224.625 46.289062 C 224.527344 46.289062 224.417969 46.289062 224.417969 46.496094 C 224.417969 46.605469 224.535156 46.605469 224.570312 46.605469 C 224.953125 46.605469 225.359375 46.585938 225.742188 46.585938 L 226.269531 46.585938 C 226.433594 46.585938 226.617188 46.605469 226.785156 46.605469 C 226.847656 46.605469 226.96875 46.605469 226.96875 46.398438 Z M 226.96875 46.398438 "/>
<path style=" stroke:none;fill-rule:evenodd;fill:rgb(0%,0%,0%);fill-opacity:1;" d="M 232.039062 43.878906 C 232.039062 43.046875 231.929688 41.6875 231.316406 40.414062 C 230.667969 39.101562 229.769531 38.386719 229.648438 38.386719 C 229.605469 38.386719 229.550781 38.410156 229.550781 38.476562 C 229.550781 38.507812 229.550781 38.53125 229.738281 38.71875 C 230.832031 39.824219 231.445312 41.632812 231.445312 43.867188 C 231.445312 45.992188 230.929688 47.824219 229.660156 49.117188 C 229.550781 49.214844 229.550781 49.238281 229.550781 49.269531 C 229.550781 49.335938 229.605469 49.359375 229.648438 49.359375 C 229.792969 49.359375 230.691406 48.566406 231.226562 47.496094 C 231.785156 46.378906 232.039062 45.191406 232.039062 43.878906 Z M 232.039062 43.878906 "/>
<path style="fill:none;stroke-width:1;stroke-linecap:square;stroke-linejoin:miter;stroke:rgb(0%,0%,0%);stroke-opacity:1;stroke-miterlimit:3.25;" d="M 265.742188 81.863281 L 17.058594 81.863281 "/>
</g>
</svg>
