<?xml version="1.0" encoding="UTF-8"?>
<svg xmlns="http://www.w3.org/2000/svg" xmlns:xlink="http://www.w3.org/1999/xlink" width="283pt" height="193pt" viewBox="0 0 283 193" version="1.1">
<g id="surface314">
<path style="fill:none;stroke-width:0.5;stroke-linecap:square;stroke-linejoin:miter;stroke:rgb(85.000381%,85.000381%,85.000381%);stroke-opacity:1;stroke-miterlimit:3.25;" d="M 265.742188 178.609375 L 265.742188 104.191406 "/>
<path style="fill:none;stroke-width:0.5;stroke-linecap:square;stroke-linejoin:miter;stroke:rgb(85.000381%,85.000381%,85.000381%);stroke-opacity:1;stroke-miterlimit:3.25;" d="M 265.632812 173.582031 L 262.601562 104.191406 "/>
<path style="fill:none;stroke-width:0.5;stroke-linecap:square;stroke-linejoin:miter;stroke:rgb(85.000381%,85.000381%,85.000381%);stroke-opacity:1;stroke-miterlimit:3.25;" d="M 265.3125 168.703125 L 259.667969 104.191406 "/>
<path style="fill:none;stroke-width:0.5;stroke-linecap:square;stroke-linejoin:miter;stroke:rgb(85.000381%,85.000381%,85.000381%);stroke-opacity:1;stroke-miterlimit:3.25;" d="M 264.796875 163.988281 L 256.925781 104.191406 "/>
<path style="fill:none;stroke-width:0.5;stroke-linecap:square;stroke-linejoin:miter;stroke:rgb(85.000381%,85.000381%,85.000381%);stroke-opacity:1;stroke-miterlimit:3.25;" d="M 264.097656 159.4375 L 254.355469 104.191406 "/>
<path style="fill:none;stroke-width:0.5;stroke-linecap:square;stroke-linejoin:miter;stroke:rgb(85.000381%,85.000381%,85.000381%);stroke-opacity:1;stroke-miterlimit:3.25;" d="M 263.226562 155.058594 L 251.949219 104.191406 "/>
<path style="fill:none;stroke-width:0.5;stroke-linecap:square;stroke-linejoin:miter;stroke:rgb(85.000381%,85.000381%,85.000381%);stroke-opacity:1;stroke-miterlimit:3.25;" d="M 262.203125 150.863281 L 236.898438 56.4375 "/>
<path style="fill:none;stroke-width:0.5;stroke-linecap:square;stroke-linejoin:miter;stroke:rgb(85.000381%,85.000381%,85.000381%);stroke-opacity:1;stroke-miterlimit:3.25;" d="M 261.03125 146.847656 L 230.472656 49.925781 "/>
<path style="fill:none;stroke-width:0.5;stroke-linecap:square;stroke-linejoin:miter;stroke:rgb(85.000381%,85.000381%,85.000381%);stroke-opacity:1;stroke-miterlimit:3.25;" d="M 259.734375 143.023438 L 223.65625 43.898438 "/>
<path style="fill:none;stroke-width:0.5;stroke-linecap:square;stroke-linejoin:miter;stroke:rgb(85.000381%,85.000381%,85.000381%);stroke-opacity:1;stroke-miterlimit:3.25;" d="M 258.324219 139.394531 L 216.480469 38.375 "/>
<path style="fill:none;stroke-width:0.5;stroke-linecap:square;stroke-linejoin:miter;stroke:rgb(85.000381%,85.000381%,85.000381%);stroke-opacity:1;stroke-miterlimit:3.25;" d="M 256.8125 135.957031 L 208.976562 33.378906 "/>
<path style="fill:none;stroke-width:0.5;stroke-linecap:square;stroke-linejoin:miter;stroke:rgb(85.000381%,85.000381%,85.000381%);stroke-opacity:1;stroke-miterlimit:3.25;" d="M 255.214844 132.714844 L 201.183594 28.925781 "/>
<path style="fill:none;stroke-width:0.5;stroke-linecap:square;stroke-linejoin:miter;stroke:rgb(85.000381%,85.000381%,85.000381%);stroke-opacity:1;stroke-miterlimit:3.25;" d="M 253.546875 129.671875 L 193.128906 25.03125 "/>
<path style="fill:none;stroke-width:0.5;stroke-linecap:square;stroke-linejoin:miter;stroke:rgb(85.000381%,85.000381%,85.000381%);stroke-opacity:1;stroke-miterlimit:3.25;" d="M 251.816406 126.828125 L 184.851562 21.710938 "/>
<path style="fill:none;stroke-width:0.5;stroke-linecap:square;stroke-linejoin:miter;stroke:rgb(85.000381%,85.000381%,85.000381%);stroke-opacity:1;stroke-miterlimit:3.25;" d="M 250.046875 124.175781 L 176.390625 18.980469 "/>
<path style="fill:none;stroke-width:0.5;stroke-linecap:square;stroke-linejoin:miter;stroke:rgb(85.000381%,85.000381%,85.000381%);stroke-opacity:1;stroke-miterlimit:3.25;" d="M 248.246094 121.71875 L 167.773438 16.84375 "/>
<path style="fill:none;stroke-width:0.5;stroke-linecap:square;stroke-linejoin:miter;stroke:rgb(85.000381%,85.000381%,85.000381%);stroke-opacity:1;stroke-miterlimit:3.25;" d="M 246.429688 119.453125 L 159.046875 15.316406 "/>
<path style="fill:none;stroke-width:0.5;stroke-linecap:square;stroke-linejoin:miter;stroke:rgb(85.000381%,85.000381%,85.000381%);stroke-opacity:1;stroke-miterlimit:3.25;" d="M 244.609375 117.375 L 150.242188 14.394531 "/>
<path style="fill:none;stroke-width:0.5;stroke-linecap:square;stroke-linejoin:miter;stroke:rgb(85.000381%,85.000381%,85.000381%);stroke-opacity:1;stroke-miterlimit:3.25;" d="M 242.796875 115.484375 L 141.398438 14.085938 "/>
<path style="fill:none;stroke-width:0.5;stroke-linecap:square;stroke-linejoin:miter;stroke:rgb(85.000381%,85.000381%,85.000381%);stroke-opacity:1;stroke-miterlimit:3.25;" d="M 241.003906 113.769531 L 132.558594 14.394531 "/>
<path style="fill:none;stroke-width:0.5;stroke-linecap:square;stroke-linejoin:miter;stroke:rgb(85.000381%,85.000381%,85.000381%);stroke-opacity:1;stroke-miterlimit:3.25;" d="M 239.25 112.226562 L 123.753906 15.316406 "/>
<path style="fill:none;stroke-width:0.5;stroke-linecap:square;stroke-linejoin:miter;stroke:rgb(85.000381%,85.000381%,85.000381%);stroke-opacity:1;stroke-miterlimit:3.25;" d="M 237.535156 110.851562 L 115.027344 16.84375 "/>
<path style="fill:none;stroke-width:0.5;stroke-linecap:square;stroke-linejoin:miter;stroke:rgb(85.000381%,85.000381%,85.000381%);stroke-opacity:1;stroke-miterlimit:3.25;" d="M 235.878906 109.636719 L 106.410156 18.980469 "/>
<path style="fill:none;stroke-width:0.5;stroke-linecap:square;stroke-linejoin:miter;stroke:rgb(85.000381%,85.000381%,85.000381%);stroke-opacity:1;stroke-miterlimit:3.25;" d="M 234.289062 108.574219 L 97.945312 21.710938 "/>
<path style="fill:none;stroke-width:0.5;stroke-linecap:square;stroke-linejoin:miter;stroke:rgb(85.000381%,85.000381%,85.000381%);stroke-opacity:1;stroke-miterlimit:3.25;" d="M 232.777344 107.652344 L 89.667969 25.03125 "/>
<path style="fill:none;stroke-width:0.5;stroke-linecap:square;stroke-linejoin:miter;stroke:rgb(85.000381%,85.000381%,85.000381%);stroke-opacity:1;stroke-miterlimit:3.25;" d="M 231.347656 106.871094 L 81.617188 28.925781 "/>
<path style="fill:none;stroke-width:0.5;stroke-linecap:square;stroke-linejoin:miter;stroke:rgb(85.000381%,85.000381%,85.000381%);stroke-opacity:1;stroke-miterlimit:3.25;" d="M 230.015625 106.210938 L 73.820312 33.378906 "/>
<path style="fill:none;stroke-width:0.5;stroke-linecap:square;stroke-linejoin:miter;stroke:rgb(85.000381%,85.000381%,85.000381%);stroke-opacity:1;stroke-miterlimit:3.25;" d="M 228.78125 105.667969 L 66.320312 38.375 "/>
<path style="fill:none;stroke-width:0.5;stroke-linecap:square;stroke-linejoin:miter;stroke:rgb(85.000381%,85.000381%,85.000381%);stroke-opacity:1;stroke-miterlimit:3.25;" d="M 227.660156 105.230469 L 59.144531 43.898438 "/>
<path style="fill:none;stroke-width:0.5;stroke-linecap:square;stroke-linejoin:miter;stroke:rgb(85.000381%,85.000381%,85.000381%);stroke-opacity:1;stroke-miterlimit:3.25;" d="M 226.652344 104.890625 L 52.328125 49.925781 "/>
<path style="fill:none;stroke-width:0.5;stroke-linecap:square;stroke-linejoin:miter;stroke:rgb(85.000381%,85.000381%,85.000381%);stroke-opacity:1;stroke-miterlimit:3.25;" d="M 59.535156 104.191406 L 17.058594 104.191406 "/>
<path style="fill:none;stroke-width:0.5;stroke-linecap:square;stroke-linejoin:miter;stroke:rgb(85.000381%,85.000381%,85.000381%);stroke-opacity:1;stroke-miterlimit:3.25;" d="M 59.253906 104.207031 L 17.058594 107.898438 "/>
<path style="fill:none;stroke-width:0.5;stroke-linecap:square;stroke-linejoin:miter;stroke:rgb(85.000381%,85.000381%,85.000381%);stroke-opacity:1;stroke-miterlimit:3.25;" d="M 58.410156 104.320312 L 17.058594 111.613281 "/>
<path style="fill:none;stroke-width:0.5;stroke-linecap:square;stroke-linejoin:miter;stroke:rgb(85.000381%,85.000381%,85.000381%);stroke-opacity:1;stroke-miterlimit:3.25;" d="M 57.03125 104.632812 L 17.058594 115.34375 "/>
<path style="fill:none;stroke-width:0.5;stroke-linecap:square;stroke-linejoin:miter;stroke:rgb(85.000381%,85.000381%,85.000381%);stroke-opacity:1;stroke-miterlimit:3.25;" d="M 55.140625 105.230469 L 17.058594 119.09375 "/>
<path style="fill:none;stroke-width:0.5;stroke-linecap:square;stroke-linejoin:miter;stroke:rgb(85.000381%,85.000381%,85.000381%);stroke-opacity:1;stroke-miterlimit:3.25;" d="M 52.785156 106.210938 L 17.058594 122.871094 "/>
<path style="fill:none;stroke-width:0.5;stroke-linecap:square;stroke-linejoin:miter;stroke:rgb(85.000381%,85.000381%,85.000381%);stroke-opacity:1;stroke-miterlimit:3.25;" d="M 50.023438 107.652344 L 17.058594 126.6875 "/>
<path style="fill:none;stroke-width:0.5;stroke-linecap:square;stroke-linejoin:miter;stroke:rgb(85.000381%,85.000381%,85.000381%);stroke-opacity:1;stroke-miterlimit:3.25;" d="M 46.921875 109.636719 L 17.058594 130.546875 "/>
<path style="fill:none;stroke-width:0.5;stroke-linecap:square;stroke-linejoin:miter;stroke:rgb(85.000381%,85.000381%,85.000381%);stroke-opacity:1;stroke-miterlimit:3.25;" d="M 43.550781 112.226562 L 17.058594 134.457031 "/>
<path style="fill:none;stroke-width:0.5;stroke-linecap:square;stroke-linejoin:miter;stroke:rgb(85.000381%,85.000381%,85.000381%);stroke-opacity:1;stroke-miterlimit:3.25;" d="M 40.003906 115.484375 L 17.058594 138.429688 "/>
<path style="fill:none;stroke-width:0.5;stroke-linecap:square;stroke-linejoin:miter;stroke:rgb(85.000381%,85.000381%,85.000381%);stroke-opacity:1;stroke-miterlimit:3.25;" d="M 36.371094 119.453125 L 17.058594 142.46875 "/>
<path style="fill:none;stroke-width:0.5;stroke-linecap:square;stroke-linejoin:miter;stroke:rgb(85.000381%,85.000381%,85.000381%);stroke-opacity:1;stroke-miterlimit:3.25;" d="M 32.753906 124.175781 L 17.058594 146.589844 "/>
<path style="fill:none;stroke-width:0.5;stroke-linecap:square;stroke-linejoin:miter;stroke:rgb(85.000381%,85.000381%,85.000381%);stroke-opacity:1;stroke-miterlimit:3.25;" d="M 29.253906 129.671875 L 17.058594 150.800781 "/>
<path style="fill:none;stroke-width:0.5;stroke-linecap:square;stroke-linejoin:miter;stroke:rgb(85.000381%,85.000381%,85.000381%);stroke-opacity:1;stroke-miterlimit:3.25;" d="M 25.988281 135.957031 L 17.058594 155.109375 "/>
<path style="fill:none;stroke-width:0.5;stroke-linecap:square;stroke-linejoin:miter;stroke:rgb(85.000381%,85.000381%,85.000381%);stroke-opacity:1;stroke-miterlimit:3.25;" d="M 23.066406 143.023438 L 17.058594 159.53125 "/>
<path style="fill:none;stroke-width:0.5;stroke-linecap:square;stroke-linejoin:miter;stroke:rgb(85.000381%,85.000381%,85.000381%);stroke-opacity:1;stroke-miterlimit:3.25;" d="M 20.597656 150.863281 L 17.058594 164.078125 "/>
<path style="fill:none;stroke-width:0.5;stroke-linecap:square;stroke-linejoin:miter;stroke:rgb(85.000381%,85.000381%,85.000381%);stroke-opacity:1;stroke-miterlimit:3.25;" d="M 18.703125 159.4375 L 17.058594 168.761719 "/>
<path style="fill:none;stroke-width:0.5;stroke-linecap:square;stroke-linejoin:miter;stroke:rgb(85.000381%,85.000381%,85.000381%);stroke-opacity:1;stroke-miterlimit:3.25;" d="M 17.484375 168.703125 L 17.058594 173.601562 "/>
<path style="fill:none;stroke-width:0.5;stroke-linecap:square;stroke-linejoin:miter;stroke:rgb(85.000381%,85.000381%,85.000381%);stroke-opacity:1;stroke-miterlimit:3.25;" d="M 189.617188 167.519531 L 194.015625 178.609375 "/>
<path style="fill:none;stroke-width:0.5;stroke-linecap:square;stroke-linejoin:miter;stroke:rgb(85.000381%,85.000381%,85.000381%);stroke-opacity:1;stroke-miterlimit:3.25;" d="M 189.617188 167.519531 L 195.863281 178.609375 "/>
<path style="fill:none;stroke-width:0.5;stroke-linecap:square;stroke-linejoin:miter;stroke:rgb(85.000381%,85.000381%,85.000381%);stroke-opacity:1;stroke-miterlimit:3.25;" d="M 189.617188 167.519531 L 198.09375 178.609375 "/>
<path style="fill:none;stroke-width:0.5;stroke-linecap:square;stroke-linejoin:miter;stroke:rgb(85.000381%,85.000381%,85.000381%);stroke-opacity:1;stroke-miterlimit:3.25;" d="M 190.125 168.058594 L 200.675781 178.609375 "/>
<path style="fill:none;stroke-width:0.5;stroke-linecap:square;stroke-linejoin:miter;stroke:rgb(85.000381%,85.000381%,85.000381%);stroke-opacity:1;stroke-miterlimit:3.25;" d="M 192.144531 169.824219 L 203.59375 178.609375 "/>
<path style="fill:none;stroke-width:0.5;stroke-linecap:square;stroke-linejoin:miter;stroke:rgb(85.000381%,85.000381%,85.000381%);stroke-opacity:1;stroke-miterlimit:3.25;" d="M 195.433594 172.027344 L 206.835938 178.609375 "/>
<path style="fill:none;stroke-width:0.5;stroke-linecap:square;stroke-linejoin:miter;stroke:rgb(85.000381%,85.000381%,85.000381%);stroke-opacity:1;stroke-miterlimit:3.25;" d="M 200.484375 174.5 L 210.40625 178.609375 "/>
<path style="fill:none;stroke-width:0.5;stroke-linecap:square;stroke-linejoin:miter;stroke:rgb(85.000381%,85.000381%,85.000381%);stroke-opacity:1;stroke-miterlimit:3.25;" d="M 206.277344 176.453125 L 214.324219 178.609375 "/>
<path style="fill:none;stroke-width:0.5;stroke-linecap:square;stroke-linejoin:miter;stroke:rgb(85.000381%,85.000381%,85.000381%);stroke-opacity:1;stroke-miterlimit:3.25;" d="M 213.90625 177.992188 L 218.597656 178.609375 "/>
<path style="fill:none;stroke-width:0.5;stroke-linecap:square;stroke-linejoin:miter;stroke:rgb(85.000381%,85.000381%,85.000381%);stroke-opacity:1;stroke-miterlimit:3.25;" d="M 59.859375 178.609375 L 90.210938 178.609375 "/>
<path style="fill:none;stroke-width:0.5;stroke-linecap:square;stroke-linejoin:miter;stroke:rgb(85.000381%,85.000381%,85.000381%);stroke-opacity:1;stroke-miterlimit:3.25;" d="M 64.246094 178.457031 L 90.683594 176.839844 "/>
<path style="fill:none;stroke-width:0.5;stroke-linecap:square;stroke-linejoin:miter;stroke:rgb(85.000381%,85.000381%,85.000381%);stroke-opacity:1;stroke-miterlimit:3.25;" d="M 68.335938 178.066406 L 91.105469 175.269531 "/>
<path style="fill:none;stroke-width:0.5;stroke-linecap:square;stroke-linejoin:miter;stroke:rgb(85.000381%,85.000381%,85.000381%);stroke-opacity:1;stroke-miterlimit:3.25;" d="M 72.121094 177.46875 L 91.476562 173.878906 "/>
<path style="fill:none;stroke-width:0.5;stroke-linecap:square;stroke-linejoin:miter;stroke:rgb(85.000381%,85.000381%,85.000381%);stroke-opacity:1;stroke-miterlimit:3.25;" d="M 75.113281 176.820312 L 91.804688 172.65625 "/>
<path style="fill:none;stroke-width:0.5;stroke-linecap:square;stroke-linejoin:miter;stroke:rgb(85.000381%,85.000381%,85.000381%);stroke-opacity:1;stroke-miterlimit:3.25;" d="M 78.738281 175.796875 L 92.089844 171.589844 "/>
<path style="fill:none;stroke-width:0.5;stroke-linecap:square;stroke-linejoin:miter;stroke:rgb(85.000381%,85.000381%,85.000381%);stroke-opacity:1;stroke-miterlimit:3.25;" d="M 81.183594 174.945312 L 92.339844 170.664062 "/>
<path style="fill:none;stroke-width:0.5;stroke-linecap:square;stroke-linejoin:miter;stroke:rgb(85.000381%,85.000381%,85.000381%);stroke-opacity:1;stroke-miterlimit:3.25;" d="M 83.734375 173.890625 L 92.550781 169.871094 "/>
<path style="fill:none;stroke-width:0.5;stroke-linecap:square;stroke-linejoin:miter;stroke:rgb(85.000381%,85.000381%,85.000381%);stroke-opacity:1;stroke-miterlimit:3.25;" d="M 86.257812 172.648438 L 92.730469 169.207031 "/>
<path style="fill:none;stroke-width:0.5;stroke-linecap:square;stroke-linejoin:miter;stroke:rgb(85.000381%,85.000381%,85.000381%);stroke-opacity:1;stroke-miterlimit:3.25;" d="M 88.132812 171.566406 L 92.875 168.660156 "/>
<path style="fill:none;stroke-width:0.5;stroke-linecap:square;stroke-linejoin:miter;stroke:rgb(85.000381%,85.000381%,85.000381%);stroke-opacity:1;stroke-miterlimit:3.25;" d="M 89.503906 170.671875 L 92.992188 168.226562 "/>
<path style="fill:none;stroke-width:0.5;stroke-linecap:square;stroke-linejoin:miter;stroke:rgb(85.000381%,85.000381%,85.000381%);stroke-opacity:1;stroke-miterlimit:3.25;" d="M 90.828125 169.691406 L 93.078125 167.902344 "/>
<path style="fill:none;stroke-width:0.5;stroke-linecap:square;stroke-linejoin:miter;stroke:rgb(85.000381%,85.000381%,85.000381%);stroke-opacity:1;stroke-miterlimit:3.25;" d="M 91.882812 168.808594 L 93.140625 167.675781 "/>
<path style="fill:none;stroke-width:0.5;stroke-linecap:square;stroke-linejoin:miter;stroke:rgb(85.000381%,85.000381%,85.000381%);stroke-opacity:1;stroke-miterlimit:3.25;" d="M 92.769531 167.960938 L 93.171875 167.550781 "/>
<path style="fill:none;stroke-width:0.5;stroke-linecap:square;stroke-linejoin:miter;stroke:rgb(85.000381%,85.000381%,85.000381%);stroke-opacity:1;stroke-miterlimit:3.25;" d="M 93.179688 167.519531 L 93.179688 167.523438 "/>
<path style="fill:none;stroke-width:0.5;stroke-linecap:square;stroke-linejoin:miter;stroke:rgb(85.000381%,85.000381%,85.000381%);stroke-opacity:1;stroke-miterlimit:3.25;" d="M 93.179688 167.519531 L 93.164062 167.585938 "/>
<path style="fill:none;stroke-width:0.5;stroke-linecap:square;stroke-linejoin:miter;stroke:rgb(85.000381%,85.000381%,85.000381%);stroke-opacity:1;stroke-miterlimit:3.25;" d="M 93.179688 167.519531 L 93.121094 167.742188 "/>
<path style="fill:none;stroke-width:0.5;stroke-linecap:square;stroke-linejoin:miter;stroke:rgb(85.000381%,85.000381%,85.000381%);stroke-opacity:1;stroke-miterlimit:3.25;" d="M 93.179688 167.519531 L 93.058594 167.984375 "/>
<path style="fill:none;stroke-width:0.5;stroke-linecap:square;stroke-linejoin:miter;stroke:rgb(85.000381%,85.000381%,85.000381%);stroke-opacity:1;stroke-miterlimit:3.25;" d="M 93.179688 167.519531 L 92.96875 168.316406 "/>
<path style="fill:none;stroke-width:0.5;stroke-linecap:square;stroke-linejoin:miter;stroke:rgb(85.000381%,85.000381%,85.000381%);stroke-opacity:1;stroke-miterlimit:3.25;" d="M 93.179688 167.519531 L 92.855469 168.738281 "/>
<path style="fill:none;stroke-width:0.5;stroke-linecap:square;stroke-linejoin:miter;stroke:rgb(85.000381%,85.000381%,85.000381%);stroke-opacity:1;stroke-miterlimit:3.25;" d="M 93.179688 167.519531 L 92.71875 169.246094 "/>
<path style="fill:none;stroke-width:0.5;stroke-linecap:square;stroke-linejoin:miter;stroke:rgb(85.000381%,85.000381%,85.000381%);stroke-opacity:1;stroke-miterlimit:3.25;" d="M 93.179688 167.519531 L 92.558594 169.839844 "/>
<path style="fill:none;stroke-width:0.5;stroke-linecap:square;stroke-linejoin:miter;stroke:rgb(85.000381%,85.000381%,85.000381%);stroke-opacity:1;stroke-miterlimit:3.25;" d="M 225.769531 104.632812 L 45.898438 56.4375 "/>
<path style="fill:none;stroke-width:0.5;stroke-linecap:square;stroke-linejoin:miter;stroke:rgb(85.000381%,85.000381%,85.000381%);stroke-opacity:1;stroke-miterlimit:3.25;" d="M 225.011719 104.445312 L 43.800781 64.273438 "/>
<path style="fill:none;stroke-width:0.5;stroke-linecap:square;stroke-linejoin:miter;stroke:rgb(85.000381%,85.000381%,85.000381%);stroke-opacity:1;stroke-miterlimit:3.25;" d="M 224.386719 104.320312 L 41.699219 72.109375 "/>
<path style="fill:none;stroke-width:0.5;stroke-linecap:square;stroke-linejoin:miter;stroke:rgb(85.000381%,85.000381%,85.000381%);stroke-opacity:1;stroke-miterlimit:3.25;" d="M 223.898438 104.246094 L 39.589844 79.980469 "/>
<path style="fill:none;stroke-width:0.5;stroke-linecap:square;stroke-linejoin:miter;stroke:rgb(85.000381%,85.000381%,85.000381%);stroke-opacity:1;stroke-miterlimit:3.25;" d="M 223.546875 104.207031 L 37.460938 87.925781 "/>
<path style="fill:none;stroke-width:0.5;stroke-linecap:square;stroke-linejoin:miter;stroke:rgb(85.000381%,85.000381%,85.000381%);stroke-opacity:1;stroke-miterlimit:3.25;" d="M 223.332031 104.191406 L 35.304688 95.980469 "/>
<path style="fill:none;stroke-width:1;stroke-linecap:square;stroke-linejoin:miter;stroke:rgb(66.666667%,66.666667%,66.666667%);stroke-opacity:1;stroke-miterlimit:3.25;" d="M 262.203125 150.863281 L 236.898438 56.4375 "/>
<path style="fill:none;stroke-width:1;stroke-linecap:square;stroke-linejoin:miter;stroke:rgb(66.666667%,66.666667%,66.666667%);stroke-opacity:1;stroke-miterlimit:3.25;" d="M 224.121094 104.191406 L 45.898438 56.4375 "/>
<path style="fill:none;stroke-width:1;stroke-linecap:square;stroke-linejoin:miter;stroke:rgb(66.666667%,66.666667%,66.666667%);stroke-opacity:1;stroke-miterlimit:3.25;" d="M 45.898438 56.4375 L 33.105469 104.191406 "/>
<path style="fill:none;stroke-width:1;stroke-linecap:square;stroke-linejoin:miter;stroke:rgb(66.666667%,66.666667%,66.666667%);stroke-opacity:1;stroke-miterlimit:3.25;" d="M 59.535156 104.191406 L 17.058594 104.191406 "/>
<path style="fill:none;stroke-width:1;stroke-linecap:square;stroke-linejoin:miter;stroke:rgb(66.666667%,66.666667%,66.666667%);stroke-opacity:1;stroke-miterlimit:3.25;" d="M 59.535156 104.191406 L 17.058594 104.191406 L 17.058594 178.609375 "/>
<path style="fill:none;stroke-width:1;stroke-linecap:square;stroke-linejoin:miter;stroke:rgb(66.666667%,66.666667%,66.666667%);stroke-opacity:1;stroke-miterlimit:3.25;" d="M 265.742188 178.609375 L 265.742188 104.191406 "/>
<path style="fill:none;stroke-width:1;stroke-linecap:square;stroke-linejoin:miter;stroke:rgb(66.666667%,66.666667%,66.666667%);stroke-opacity:1;stroke-miterlimit:3.25;" d="M 265.742188 104.191406 L 249.695312 104.191406 "/>
<path style="fill:none;stroke-width:1;stroke-linecap:square;stroke-linejoin:miter;stroke:rgb(66.666667%,66.666667%,66.666667%);stroke-opacity:1;stroke-miterlimit:3.25;" d="M 93.179688 167.519531 L 90.210938 178.609375 L 59.859375 178.609375 "/>
<path style="fill:none;stroke-width:1;stroke-linecap:square;stroke-linejoin:miter;stroke:rgb(66.666667%,66.666667%,66.666667%);stroke-opacity:1;stroke-miterlimit:3.25;" d="M 222.9375 178.609375 L 192.589844 178.609375 L 189.617188 167.519531 "/>
<path style="fill:none;stroke-width:1;stroke-linecap:square;stroke-linejoin:miter;stroke:rgb(66.666667%,66.666667%,66.666667%);stroke-opacity:1;stroke-miterlimit:3.25;" d="M 236.898438 56.4375 L 235.648438 55.097656 L 234.378906 53.773438 L 233.089844 52.472656 L 231.789062 51.1875 L 230.472656 49.925781 L 229.140625 48.679688 L 227.789062 47.453125 L 226.425781 46.25 L 225.046875 45.0625 L 223.65625 43.898438 L 222.246094 42.75 L 220.828125 41.625 L 219.390625 40.523438 L 217.941406 39.4375 L 216.480469 38.375 L 215.003906 37.332031 L 213.515625 36.3125 L 212.015625 35.3125 L 210.503906 34.335938 L 208.976562 33.378906 L 207.441406 32.441406 L 205.894531 31.53125 L 204.335938 30.640625 L 202.765625 29.769531 L 201.183594 28.925781 L 199.59375 28.101562 L 197.992188 27.300781 L 196.378906 26.519531 L 194.761719 25.765625 L 193.128906 25.03125 L 191.492188 24.320312 L 189.84375 23.632812 L 188.1875 22.96875 L 186.523438 22.328125 L 184.851562 21.710938 L 183.175781 21.117188 L 181.488281 20.550781 L 179.796875 20.003906 L 178.09375 19.480469 L 176.390625 18.980469 L 174.675781 18.503906 L 172.960938 18.054688 L 171.234375 17.628906 L 169.507812 17.222656 L 167.773438 16.84375 L 166.035156 16.492188 L 164.292969 16.160156 L 162.546875 15.855469 L 160.800781 15.570312 L 159.046875 15.316406 L 157.289062 15.082031 L 155.53125 14.871094 L 153.769531 14.6875 L 152.007812 14.527344 L 150.242188 14.394531 L 148.476562 14.28125 L 146.707031 14.195312 L 144.9375 14.136719 L 143.167969 14.097656 L 141.398438 14.085938 L 139.628906 14.097656 L 137.859375 14.136719 L 136.09375 14.195312 L 134.324219 14.28125 L 132.558594 14.394531 L 130.792969 14.527344 L 129.03125 14.6875 L 127.269531 14.871094 L 125.507812 15.082031 L 123.753906 15.316406 L 122 15.570312 L 120.25 15.855469 L 118.503906 16.160156 L 116.761719 16.492188 L 115.027344 16.84375 L 113.292969 17.222656 L 111.5625 17.628906 L 109.839844 18.054688 L 108.121094 18.503906 L 106.410156 18.980469 L 104.703125 19.480469 L 103.003906 20.003906 L 101.3125 20.550781 L 99.625 21.117188 L 97.945312 21.710938 L 96.273438 22.328125 L 94.613281 22.96875 L 92.957031 23.632812 L 91.308594 24.320312 L 89.667969 25.03125 L 88.039062 25.765625 L 86.417969 26.519531 L 84.808594 27.300781 L 83.207031 28.101562 L 81.617188 28.925781 L 80.035156 29.769531 L 78.464844 30.640625 L 76.90625 31.53125 L 75.359375 32.441406 L 73.820312 33.378906 L 72.296875 34.335938 L 70.785156 35.3125 L 69.285156 36.3125 L 67.796875 37.332031 L 66.320312 38.375 L 64.859375 39.4375 L 63.410156 40.523438 L 61.972656 41.625 L 60.550781 42.75 L 59.144531 43.898438 L 57.75 45.0625 L 56.375 46.25 L 55.007812 47.453125 L 53.660156 48.679688 L 52.328125 49.925781 L 51.011719 51.1875 L 49.707031 52.472656 L 48.421875 53.773438 L 47.152344 55.097656 L 45.898438 56.4375 "/>
<path style=" stroke:none;fill-rule:nonzero;fill:rgb(100%,100%,86.999313%);fill-opacity:1;" d="M 265.742188 178.609375 L 265.738281 177.59375 L 265.726562 176.582031 L 265.703125 175.574219 L 265.671875 174.574219 L 265.632812 173.582031 L 265.585938 172.59375 L 265.53125 171.613281 L 265.464844 170.636719 L 265.394531 169.667969 L 265.3125 168.703125 L 265.226562 167.75 L 265.128906 166.796875 L 265.027344 165.855469 L 264.917969 164.917969 L 264.796875 163.988281 L 264.671875 163.0625 L 264.539062 162.144531 L 264.398438 161.234375 L 264.253906 160.332031 L 264.097656 159.4375 L 263.9375 158.546875 L 263.769531 157.664062 L 263.59375 156.789062 L 263.414062 155.921875 L 263.226562 155.058594 L 263.035156 154.203125 L 262.835938 153.359375 L 262.628906 152.519531 L 262.417969 151.6875 L 262.203125 150.863281 L 261.976562 150.042969 L 261.75 149.234375 L 261.515625 148.429688 L 261.277344 147.636719 L 261.03125 146.847656 L 260.78125 146.070312 L 260.527344 145.296875 L 260.269531 144.53125 L 260.003906 143.773438 L 259.734375 143.023438 L 259.460938 142.285156 L 259.183594 141.550781 L 258.902344 140.824219 L 258.613281 140.105469 L 258.324219 139.394531 L 258.027344 138.691406 L 257.730469 137.996094 L 257.425781 137.308594 L 257.121094 136.628906 L 256.8125 135.957031 L 256.5 135.292969 L 256.183594 134.636719 L 255.863281 133.988281 L 255.539062 133.347656 L 255.214844 132.714844 L 254.886719 132.09375 L 254.554688 131.476562 L 254.21875 130.867188 L 253.882812 130.265625 L 253.546875 129.671875 L 253.203125 129.089844 L 252.859375 128.511719 L 252.515625 127.941406 L 252.167969 127.378906 L 251.816406 126.828125 L 251.46875 126.28125 L 251.113281 125.742188 L 250.761719 125.210938 L 250.40625 124.691406 L 250.046875 124.175781 L 249.691406 123.667969 L 249.332031 123.171875 L 248.96875 122.679688 L 248.609375 122.195312 L 248.246094 121.71875 L 247.882812 121.25 L 247.519531 120.789062 L 247.15625 120.335938 L 246.792969 119.890625 L 246.429688 119.453125 L 246.066406 119.023438 L 245.699219 118.601562 L 245.335938 118.183594 L 244.972656 117.777344 L 244.609375 117.375 L 244.246094 116.984375 L 243.882812 116.597656 L 243.519531 116.21875 L 243.15625 115.847656 L 242.796875 115.484375 L 242.4375 115.125 L 242.078125 114.777344 L 241.71875 114.433594 L 241.363281 114.097656 L 241.003906 113.769531 L 240.652344 113.445312 L 240.296875 113.128906 L 239.945312 112.824219 L 239.597656 112.519531 L 239.25 112.226562 L 238.902344 111.9375 L 238.558594 111.65625 L 238.214844 111.382812 L 237.875 111.113281 L 237.535156 110.851562 L 237.199219 110.59375 L 236.535156 110.101562 L 236.207031 109.867188 L 235.878906 109.636719 L 235.554688 109.410156 L 235.234375 109.191406 L 234.917969 108.980469 L 234.601562 108.773438 L 234.289062 108.574219 L 233.980469 108.378906 L 233.675781 108.1875 L 233.371094 108.003906 L 233.070312 107.828125 L 232.777344 107.652344 L 232.484375 107.488281 L 232.195312 107.324219 L 231.910156 107.167969 L 231.625 107.015625 L 231.347656 106.871094 L 231.074219 106.726562 L 230.800781 106.589844 L 230.535156 106.460938 L 230.273438 106.332031 L 230.015625 106.210938 L 229.757812 106.09375 L 229.507812 105.980469 L 229.261719 105.871094 L 229.019531 105.769531 L 228.78125 105.667969 L 228.546875 105.574219 L 228.320312 105.480469 L 228.09375 105.394531 L 227.875 105.3125 L 227.660156 105.230469 L 227.449219 105.15625 L 227.242188 105.085938 L 227.042969 105.015625 L 226.84375 104.949219 L 226.652344 104.890625 L 226.46875 104.832031 L 226.285156 104.777344 L 226.109375 104.726562 L 225.9375 104.675781 L 225.769531 104.632812 L 225.609375 104.589844 L 225.453125 104.550781 L 225.300781 104.511719 L 225.152344 104.476562 L 225.011719 104.445312 L 224.746094 104.390625 L 224.621094 104.363281 L 224.503906 104.339844 L 224.386719 104.320312 L 224.277344 104.300781 L 224.175781 104.285156 L 224.078125 104.269531 L 223.984375 104.257812 L 223.898438 104.246094 L 223.816406 104.234375 L 223.742188 104.226562 L 223.671875 104.21875 L 223.605469 104.210938 L 223.546875 104.207031 L 223.492188 104.203125 L 223.445312 104.199219 L 223.402344 104.195312 L 223.363281 104.191406 L 59.433594 104.191406 L 59.398438 104.195312 L 59.355469 104.199219 L 59.308594 104.203125 L 59.253906 104.207031 L 59.195312 104.210938 L 59.128906 104.21875 L 59.058594 104.226562 L 58.984375 104.234375 L 58.902344 104.246094 L 58.816406 104.257812 L 58.722656 104.269531 L 58.625 104.285156 L 58.519531 104.300781 L 58.410156 104.320312 L 58.296875 104.339844 L 58.179688 104.363281 L 58.054688 104.390625 L 57.921875 104.417969 L 57.785156 104.445312 L 57.644531 104.476562 L 57.5 104.511719 L 57.347656 104.550781 L 57.191406 104.589844 L 57.03125 104.632812 L 56.863281 104.675781 L 56.691406 104.726562 L 56.515625 104.777344 L 56.332031 104.832031 L 56.144531 104.890625 L 55.953125 104.949219 L 55.757812 105.015625 L 55.558594 105.085938 L 55.351562 105.15625 L 55.140625 105.230469 L 54.925781 105.3125 L 54.703125 105.394531 L 54.480469 105.480469 L 54.019531 105.667969 L 53.78125 105.769531 L 53.539062 105.871094 L 53.292969 105.980469 L 53.039062 106.09375 L 52.785156 106.210938 L 52.527344 106.332031 L 52.265625 106.460938 L 51.996094 106.589844 L 51.726562 106.726562 L 51.453125 106.871094 L 51.171875 107.015625 L 50.890625 107.167969 L 50.605469 107.324219 L 50.316406 107.488281 L 50.023438 107.652344 L 49.429688 108.003906 L 49.125 108.1875 L 48.820312 108.378906 L 48.511719 108.574219 L 48.199219 108.773438 L 47.882812 108.980469 L 47.566406 109.191406 L 47.242188 109.410156 L 46.921875 109.636719 L 46.59375 109.867188 L 46.265625 110.101562 L 45.601562 110.59375 L 45.265625 110.851562 L 44.925781 111.113281 L 44.585938 111.382812 L 44.242188 111.65625 L 43.898438 111.9375 L 43.550781 112.226562 L 43.203125 112.519531 L 42.5 113.128906 L 42.148438 113.445312 L 41.792969 113.769531 L 41.4375 114.097656 L 41.082031 114.433594 L 40.722656 114.777344 L 40.363281 115.125 L 40.003906 115.484375 L 39.644531 115.847656 L 39.28125 116.21875 L 38.917969 116.597656 L 38.554688 116.984375 L 38.191406 117.375 L 37.828125 117.777344 L 37.464844 118.183594 L 37.097656 118.601562 L 36.734375 119.023438 L 36.371094 119.453125 L 36.007812 119.890625 L 35.640625 120.335938 L 35.277344 120.789062 L 34.914062 121.25 L 34.554688 121.71875 L 34.191406 122.195312 L 33.828125 122.679688 L 33.46875 123.171875 L 33.109375 123.667969 L 32.753906 124.175781 L 32.394531 124.691406 L 32.039062 125.210938 L 31.683594 125.742188 L 31.332031 126.28125 L 30.980469 126.828125 L 30.632812 127.378906 L 30.285156 127.941406 L 29.941406 128.511719 L 29.597656 129.089844 L 29.253906 129.671875 L 28.917969 130.265625 L 28.578125 130.867188 L 28.246094 131.476562 L 27.914062 132.09375 L 27.585938 132.714844 L 27.261719 133.347656 L 26.9375 133.988281 L 26.617188 134.636719 L 26.300781 135.292969 L 25.988281 135.957031 L 25.679688 136.628906 L 25.371094 137.308594 L 25.070312 137.996094 L 24.773438 138.691406 L 24.476562 139.394531 L 24.1875 140.105469 L 23.898438 140.824219 L 23.617188 141.550781 L 23.339844 142.285156 L 23.066406 143.023438 L 22.796875 143.773438 L 22.53125 144.53125 L 22.273438 145.296875 L 22.015625 146.070312 L 21.769531 146.847656 L 21.523438 147.636719 L 21.285156 148.429688 L 21.050781 149.234375 L 20.820312 150.042969 L 20.597656 150.863281 L 20.382812 151.6875 L 20.171875 152.519531 L 19.964844 153.359375 L 19.765625 154.203125 L 19.570312 155.058594 L 19.386719 155.921875 L 19.203125 156.789062 L 19.03125 157.664062 L 18.863281 158.546875 L 18.703125 159.4375 L 18.546875 160.332031 L 18.402344 161.234375 L 18.261719 162.144531 L 18.128906 163.0625 L 18.003906 163.988281 L 17.882812 164.917969 L 17.773438 165.855469 L 17.667969 166.796875 L 17.574219 167.75 L 17.484375 168.703125 L 17.40625 169.667969 L 17.332031 170.636719 L 17.269531 171.613281 L 17.214844 172.59375 L 17.167969 173.582031 L 17.128906 174.574219 L 17.097656 175.574219 L 17.074219 176.582031 L 17.0625 177.59375 L 17.058594 178.609375 L 59.859375 178.609375 L 60.503906 178.605469 L 61.140625 178.59375 L 61.773438 178.578125 L 62.402344 178.554688 L 63.023438 178.527344 L 63.636719 178.496094 L 64.246094 178.457031 L 64.847656 178.417969 L 65.445312 178.371094 L 66.035156 178.316406 L 66.617188 178.261719 L 67.195312 178.199219 L 67.769531 178.136719 L 68.335938 178.066406 L 68.894531 177.992188 L 69.449219 177.914062 L 69.996094 177.832031 L 70.535156 177.746094 L 71.070312 177.65625 L 71.597656 177.566406 L 72.121094 177.46875 L 73.144531 177.265625 L 73.644531 177.15625 L 74.140625 177.046875 L 74.628906 176.933594 L 75.113281 176.820312 L 75.589844 176.699219 L 76.058594 176.578125 L 76.523438 176.453125 L 76.980469 176.328125 L 77.429688 176.199219 L 77.871094 176.066406 L 78.308594 175.933594 L 78.738281 175.796875 L 79.164062 175.660156 L 79.578125 175.523438 L 79.988281 175.378906 L 80.394531 175.238281 L 80.792969 175.09375 L 81.183594 174.945312 L 81.566406 174.800781 L 81.945312 174.652344 L 82.316406 174.5 L 82.679688 174.351562 L 83.035156 174.199219 L 83.386719 174.046875 L 83.734375 173.890625 L 84.070312 173.738281 L 84.402344 173.582031 L 84.726562 173.425781 L 85.046875 173.273438 L 85.359375 173.117188 L 85.664062 172.960938 L 85.964844 172.804688 L 86.257812 172.648438 L 86.546875 172.492188 L 86.824219 172.335938 L 87.101562 172.183594 L 87.367188 172.027344 L 87.628906 171.875 L 87.886719 171.71875 L 88.378906 171.414062 L 88.613281 171.265625 L 88.84375 171.113281 L 89.070312 170.964844 L 89.289062 170.816406 L 89.503906 170.671875 L 89.710938 170.527344 L 89.910156 170.382812 L 90.105469 170.242188 L 90.296875 170.101562 L 90.480469 169.960938 L 90.65625 169.824219 L 90.828125 169.691406 L 90.996094 169.558594 L 91.15625 169.429688 L 91.3125 169.300781 L 91.460938 169.171875 L 91.609375 169.050781 L 91.882812 168.808594 L 92.011719 168.695312 L 92.253906 168.46875 L 92.367188 168.363281 L 92.472656 168.257812 L 92.578125 168.15625 L 92.675781 168.058594 L 92.769531 167.960938 L 92.859375 167.871094 L 92.941406 167.78125 L 93.023438 167.695312 L 93.097656 167.613281 L 93.167969 167.535156 L 93.179688 167.519531 L 98.523438 147.582031 L 98.980469 146.699219 L 99.449219 145.824219 L 99.929688 144.964844 L 100.421875 144.117188 L 100.925781 143.28125 L 101.441406 142.457031 L 101.96875 141.644531 L 102.511719 140.84375 L 103.0625 140.058594 L 103.625 139.285156 L 104.199219 138.523438 L 104.78125 137.773438 L 105.375 137.039062 L 105.980469 136.320312 L 106.597656 135.609375 L 107.222656 134.917969 L 107.855469 134.234375 L 108.5 133.570312 L 109.15625 132.917969 L 109.820312 132.277344 L 110.492188 131.652344 L 111.171875 131.042969 L 111.859375 130.449219 L 112.558594 129.867188 L 113.265625 129.300781 L 113.980469 128.75 L 114.699219 128.210938 L 115.429688 127.691406 L 116.167969 127.183594 L 116.910156 126.691406 L 117.660156 126.214844 L 118.417969 125.753906 L 119.179688 125.308594 L 119.949219 124.878906 L 120.726562 124.464844 L 121.507812 124.066406 L 122.292969 123.683594 L 123.085938 123.316406 L 123.882812 122.964844 L 124.6875 122.628906 L 125.492188 122.308594 L 126.304688 122.007812 L 127.121094 121.71875 L 127.941406 121.449219 L 128.761719 121.191406 L 129.589844 120.953125 L 130.417969 120.730469 L 131.253906 120.523438 L 132.089844 120.335938 L 132.925781 120.160156 L 133.765625 120.003906 L 134.609375 119.863281 L 135.453125 119.738281 L 136.300781 119.632812 L 137.148438 119.539062 L 137.996094 119.464844 L 138.847656 119.410156 L 139.699219 119.367188 L 140.546875 119.34375 L 141.398438 119.332031 L 142.25 119.34375 L 143.101562 119.367188 L 143.953125 119.410156 L 144.800781 119.464844 L 145.652344 119.539062 L 146.5 119.632812 L 147.34375 119.738281 L 148.191406 119.863281 L 149.03125 120.003906 L 149.875 120.160156 L 150.710938 120.335938 L 151.546875 120.523438 L 152.378906 120.730469 L 153.210938 120.953125 L 154.035156 121.191406 L 154.859375 121.449219 L 155.679688 121.71875 L 156.496094 122.007812 L 157.304688 122.308594 L 158.113281 122.628906 L 158.914062 122.964844 L 159.714844 123.316406 L 160.503906 123.683594 L 161.292969 124.066406 L 162.074219 124.464844 L 162.847656 124.878906 L 163.617188 125.308594 L 164.382812 125.753906 L 165.140625 126.214844 L 165.890625 126.691406 L 166.632812 127.183594 L 167.371094 127.691406 L 168.097656 128.210938 L 168.820312 128.75 L 169.535156 129.300781 L 170.242188 129.867188 L 170.9375 130.449219 L 171.628906 131.042969 L 172.308594 131.652344 L 172.980469 132.277344 L 173.644531 132.917969 L 174.296875 133.570312 L 174.941406 134.234375 L 175.578125 134.917969 L 176.203125 135.609375 L 176.820312 136.320312 L 177.421875 137.039062 L 178.019531 137.773438 L 178.601562 138.523438 L 179.175781 139.285156 L 179.738281 140.058594 L 180.289062 140.84375 L 180.828125 141.644531 L 181.359375 142.457031 L 181.875 143.28125 L 182.378906 144.117188 L 182.871094 144.964844 L 183.351562 145.824219 L 183.820312 146.699219 L 184.277344 147.582031 L 189.617188 167.519531 L 189.632812 167.535156 L 189.703125 167.613281 L 189.777344 167.695312 L 189.855469 167.78125 L 189.941406 167.871094 L 190.03125 167.960938 L 190.125 168.058594 L 190.324219 168.257812 L 190.433594 168.363281 L 190.546875 168.46875 L 190.789062 168.695312 L 190.917969 168.808594 L 191.191406 169.050781 L 191.335938 169.171875 L 191.488281 169.300781 L 191.644531 169.429688 L 191.804688 169.558594 L 191.972656 169.691406 L 192.144531 169.824219 L 192.320312 169.960938 L 192.503906 170.101562 L 192.695312 170.242188 L 192.890625 170.382812 L 193.089844 170.527344 L 193.296875 170.671875 L 193.511719 170.816406 L 193.730469 170.964844 L 193.953125 171.113281 L 194.1875 171.265625 L 194.421875 171.414062 L 194.664062 171.566406 L 194.914062 171.71875 L 195.171875 171.875 L 195.433594 172.027344 L 195.699219 172.183594 L 195.972656 172.335938 L 196.253906 172.492188 L 196.542969 172.648438 L 196.835938 172.804688 L 197.132812 172.960938 L 197.441406 173.117188 L 197.753906 173.273438 L 198.070312 173.425781 L 198.398438 173.582031 L 198.730469 173.738281 L 199.066406 173.890625 L 199.410156 174.046875 L 199.761719 174.199219 L 200.121094 174.351562 L 200.484375 174.5 L 200.855469 174.652344 L 201.234375 174.800781 L 201.617188 174.945312 L 202.007812 175.09375 L 202.40625 175.238281 L 202.808594 175.378906 L 203.21875 175.523438 L 203.636719 175.660156 L 204.0625 175.796875 L 204.492188 175.933594 L 204.929688 176.066406 L 205.371094 176.199219 L 205.820312 176.328125 L 206.277344 176.453125 L 206.742188 176.578125 L 207.210938 176.699219 L 207.6875 176.820312 L 208.167969 176.933594 L 208.660156 177.046875 L 209.15625 177.15625 L 209.65625 177.265625 L 210.164062 177.367188 L 210.679688 177.46875 L 211.203125 177.566406 L 211.730469 177.65625 L 212.265625 177.746094 L 212.804688 177.832031 L 213.351562 177.914062 L 213.90625 177.992188 L 214.464844 178.066406 L 215.03125 178.136719 L 215.601562 178.199219 L 216.179688 178.261719 L 216.765625 178.316406 L 217.355469 178.371094 L 217.953125 178.417969 L 218.554688 178.457031 L 219.164062 178.496094 L 219.777344 178.527344 L 220.398438 178.554688 L 221.023438 178.578125 L 221.65625 178.59375 L 222.296875 178.605469 L 222.9375 178.609375 Z M 265.742188 178.609375 "/>
<path style="fill:none;stroke-width:0.5;stroke-linecap:butt;stroke-linejoin:miter;stroke:rgb(50.000763%,50.000763%,50.000763%);stroke-opacity:1;stroke-dasharray:1,2;stroke-miterlimit:3.25;" d="M 172.648438 104.191406 L 192.589844 178.609375 "/>
<path style="fill:none;stroke-width:0.5;stroke-linecap:butt;stroke-linejoin:miter;stroke:rgb(50.000763%,50.000763%,50.000763%);stroke-opacity:1;stroke-dasharray:1,2;stroke-miterlimit:3.25;" d="M 110.152344 104.191406 L 90.210938 178.609375 "/>
<path style="fill:none;stroke-width:0.5;stroke-linecap:butt;stroke-linejoin:miter;stroke:rgb(50.000763%,50.000763%,50.000763%);stroke-opacity:1;stroke-dasharray:1,2;stroke-miterlimit:3.25;" d="M 59.859375 178.609375 L 222.9375 178.609375 "/>
<path style="fill:none;stroke-width:1;stroke-linecap:square;stroke-linejoin:miter;stroke:rgb(0%,0%,0%);stroke-opacity:1;stroke-miterlimit:3.25;" d="M 265.742188 178.609375 L 265.738281 177.59375 L 265.726562 176.582031 L 265.703125 175.574219 L 265.671875 174.574219 L 265.632812 173.582031 L 265.585938 172.59375 L 265.53125 171.613281 L 265.464844 170.636719 L 265.394531 169.667969 L 265.3125 168.703125 L 265.226562 167.75 L 265.128906 166.796875 L 265.027344 165.855469 L 264.917969 164.917969 L 264.796875 163.988281 L 264.671875 163.0625 L 264.539062 162.144531 L 264.398438 161.234375 L 264.253906 160.332031 L 264.097656 159.4375 L 263.9375 158.546875 L 263.769531 157.664062 L 263.59375 156.789062 L 263.414062 155.921875 L 263.226562 155.058594 L 263.035156 154.203125 L 262.835938 153.359375 L 262.628906 152.519531 L 262.417969 151.6875 L 262.203125 150.863281 L 261.976562 150.042969 L 261.75 149.234375 L 261.515625 148.429688 L 261.277344 147.636719 L 261.03125 146.847656 L 260.78125 146.070312 L 260.527344 145.296875 L 260.269531 144.53125 L 260.003906 143.773438 L 259.734375 143.023438 L 259.460938 142.285156 L 259.183594 141.550781 L 258.902344 140.824219 L 258.613281 140.105469 L 258.324219 139.394531 L 258.027344 138.691406 L 257.730469 137.996094 L 257.425781 137.308594 L 257.121094 136.628906 L 256.8125 135.957031 L 256.5 135.292969 L 256.183594 134.636719 L 255.863281 133.988281 L 255.539062 133.347656 L 255.214844 132.714844 L 254.886719 132.09375 L 254.554688 131.476562 L 254.21875 130.867188 L 253.882812 130.265625 L 253.546875 129.671875 L 253.203125 129.089844 L 252.859375 128.511719 L 252.515625 127.941406 L 252.167969 127.378906 L 251.816406 126.828125 L 251.46875 126.28125 L 251.113281 125.742188 L 250.761719 125.210938 L 250.40625 124.691406 L 250.046875 124.175781 L 249.691406 123.667969 L 249.332031 123.171875 L 248.96875 122.679688 L 248.609375 122.195312 L 248.246094 121.71875 L 247.882812 121.25 L 247.519531 120.789062 L 247.15625 120.335938 L 246.792969 119.890625 L 246.429688 119.453125 L 246.066406 119.023438 L 245.699219 118.601562 L 245.335938 118.183594 L 244.972656 117.777344 L 244.609375 117.375 L 244.246094 116.984375 L 243.882812 116.597656 L 243.519531 116.21875 L 243.15625 115.847656 L 242.796875 115.484375 L 242.4375 115.125 L 242.078125 114.777344 L 241.71875 114.433594 L 241.363281 114.097656 L 241.003906 113.769531 L 240.652344 113.445312 L 240.296875 113.128906 L 239.945312 112.824219 L 239.597656 112.519531 L 239.25 112.226562 L 238.902344 111.9375 L 238.558594 111.65625 L 238.214844 111.382812 L 237.875 111.113281 L 237.535156 110.851562 L 237.199219 110.59375 L 236.535156 110.101562 L 236.207031 109.867188 L 235.878906 109.636719 L 235.554688 109.410156 L 235.234375 109.191406 L 234.917969 108.980469 L 234.601562 108.773438 L 234.289062 108.574219 L 233.980469 108.378906 L 233.675781 108.1875 L 233.371094 108.003906 L 233.070312 107.828125 L 232.777344 107.652344 L 232.484375 107.488281 L 232.195312 107.324219 L 231.910156 107.167969 L 231.625 107.015625 L 231.347656 106.871094 L 231.074219 106.726562 L 230.800781 106.589844 L 230.535156 106.460938 L 230.273438 106.332031 L 230.015625 106.210938 L 229.757812 106.09375 L 229.507812 105.980469 L 229.261719 105.871094 L 229.019531 105.769531 L 228.78125 105.667969 L 228.546875 105.574219 L 228.320312 105.480469 L 228.09375 105.394531 L 227.875 105.3125 L 227.660156 105.230469 L 227.449219 105.15625 L 227.242188 105.085938 L 227.042969 105.015625 L 226.84375 104.949219 L 226.652344 104.890625 L 226.46875 104.832031 L 226.285156 104.777344 L 226.109375 104.726562 L 225.9375 104.675781 L 225.769531 104.632812 L 225.609375 104.589844 L 225.453125 104.550781 L 225.300781 104.511719 L 225.152344 104.476562 L 225.011719 104.445312 L 224.746094 104.390625 L 224.621094 104.363281 L 224.503906 104.339844 L 224.386719 104.320312 L 224.277344 104.300781 L 224.175781 104.285156 L 224.078125 104.269531 L 223.984375 104.257812 L 223.898438 104.246094 L 223.816406 104.234375 L 223.742188 104.226562 L 223.671875 104.21875 L 223.605469 104.210938 L 223.546875 104.207031 L 223.492188 104.203125 L 223.445312 104.199219 L 223.402344 104.195312 L 223.363281 104.191406 L 59.433594 104.191406 L 59.398438 104.195312 L 59.355469 104.199219 L 59.308594 104.203125 L 59.253906 104.207031 L 59.195312 104.210938 L 59.128906 104.21875 L 59.058594 104.226562 L 58.984375 104.234375 L 58.902344 104.246094 L 58.816406 104.257812 L 58.722656 104.269531 L 58.625 104.285156 L 58.519531 104.300781 L 58.410156 104.320312 L 58.296875 104.339844 L 58.179688 104.363281 L 58.054688 104.390625 L 57.921875 104.417969 L 57.785156 104.445312 L 57.644531 104.476562 L 57.5 104.511719 L 57.347656 104.550781 L 57.191406 104.589844 L 57.03125 104.632812 L 56.863281 104.675781 L 56.691406 104.726562 L 56.515625 104.777344 L 56.332031 104.832031 L 56.144531 104.890625 L 55.953125 104.949219 L 55.757812 105.015625 L 55.558594 105.085938 L 55.351562 105.15625 L 55.140625 105.230469 L 54.925781 105.3125 L 54.703125 105.394531 L 54.480469 105.480469 L 54.019531 105.667969 L 53.78125 105.769531 L 53.539062 105.871094 L 53.292969 105.980469 L 53.039062 106.09375 L 52.785156 106.210938 L 52.527344 106.332031 L 52.265625 106.460938 L 51.996094 106.589844 L 51.726562 106.726562 L 51.453125 106.871094 L 51.171875 107.015625 L 50.890625 107.167969 L 50.605469 107.324219 L 50.316406 107.488281 L 50.023438 107.652344 L 49.429688 108.003906 L 49.125 108.1875 L 48.820312 108.378906 L 48.511719 108.574219 L 48.199219 108.773438 L 47.882812 108.980469 L 47.566406 109.191406 L 47.242188 109.410156 L 46.921875 109.636719 L 46.59375 109.867188 L 46.265625 110.101562 L 45.601562 110.59375 L 45.265625 110.851562 L 44.925781 111.113281 L 44.585938 111.382812 L 44.242188 111.65625 L 43.898438 111.9375 L 43.550781 112.226562 L 43.203125 112.519531 L 42.5 113.128906 L 42.148438 113.445312 L 41.792969 113.769531 L 41.4375 114.097656 L 41.082031 114.433594 L 40.722656 114.777344 L 40.363281 115.125 L 40.003906 115.484375 L 39.644531 115.847656 L 39.28125 116.21875 L 38.917969 116.597656 L 38.554688 116.984375 L 38.191406 117.375 L 37.828125 117.777344 L 37.464844 118.183594 L 37.097656 118.601562 L 36.734375 119.023438 L 36.371094 119.453125 L 36.007812 119.890625 L 35.640625 120.335938 L 35.277344 120.789062 L 34.914062 121.25 L 34.554688 121.71875 L 34.191406 122.195312 L 33.828125 122.679688 L 33.46875 123.171875 L 33.109375 123.667969 L 32.753906 124.175781 L 32.394531 124.691406 L 32.039062 125.210938 L 31.683594 125.742188 L 31.332031 126.28125 L 30.980469 126.828125 L 30.632812 127.378906 L 30.285156 127.941406 L 29.941406 128.511719 L 29.597656 129.089844 L 29.253906 129.671875 L 28.917969 130.265625 L 28.578125 130.867188 L 28.246094 131.476562 L 27.914062 132.09375 L 27.585938 132.714844 L 27.261719 133.347656 L 26.9375 133.988281 L 26.617188 134.636719 L 26.300781 135.292969 L 25.988281 135.957031 L 25.679688 136.628906 L 25.371094 137.308594 L 25.070312 137.996094 L 24.773438 138.691406 L 24.476562 139.394531 L 24.1875 140.105469 L 23.898438 140.824219 L 23.617188 141.550781 L 23.339844 142.285156 L 23.066406 143.023438 L 22.796875 143.773438 L 22.53125 144.53125 L 22.273438 145.296875 L 22.015625 146.070312 L 21.769531 146.847656 L 21.523438 147.636719 L 21.285156 148.429688 L 21.050781 149.234375 L 20.820312 150.042969 L 20.597656 150.863281 L 20.382812 151.6875 L 20.171875 152.519531 L 19.964844 153.359375 L 19.765625 154.203125 L 19.570312 155.058594 L 19.386719 155.921875 L 19.203125 156.789062 L 19.03125 157.664062 L 18.863281 158.546875 L 18.703125 159.4375 L 18.546875 160.332031 L 18.402344 161.234375 L 18.261719 162.144531 L 18.128906 163.0625 L 18.003906 163.988281 L 17.882812 164.917969 L 17.773438 165.855469 L 17.667969 166.796875 L 17.574219 167.75 L 17.484375 168.703125 L 17.40625 169.667969 L 17.332031 170.636719 L 17.269531 171.613281 L 17.214844 172.59375 L 17.167969 173.582031 L 17.128906 174.574219 L 17.097656 175.574219 L 17.074219 176.582031 L 17.0625 177.59375 L 17.058594 178.609375 L 59.859375 178.609375 L 60.503906 178.605469 L 61.140625 178.59375 L 61.773438 178.578125 L 62.402344 178.554688 L 63.023438 178.527344 L 63.636719 178.496094 L 64.246094 178.457031 L 64.847656 178.417969 L 65.445312 178.371094 L 66.035156 178.316406 L 66.617188 178.261719 L 67.195312 178.199219 L 67.769531 178.136719 L 68.335938 178.066406 L 68.894531 177.992188 L 69.449219 177.914062 L 69.996094 177.832031 L 70.535156 177.746094 L 71.070312 177.65625 L 71.597656 177.566406 L 72.121094 177.46875 L 73.144531 177.265625 L 73.644531 177.15625 L 74.140625 177.046875 L 74.628906 176.933594 L 75.113281 176.820312 L 75.589844 176.699219 L 76.058594 176.578125 L 76.523438 176.453125 L 76.980469 176.328125 L 77.429688 176.199219 L 77.871094 176.066406 L 78.308594 175.933594 L 78.738281 175.796875 L 79.164062 175.660156 L 79.578125 175.523438 L 79.988281 175.378906 L 80.394531 175.238281 L 80.792969 175.09375 L 81.183594 174.945312 L 81.566406 174.800781 L 81.945312 174.652344 L 82.316406 174.5 L 82.679688 174.351562 L 83.035156 174.199219 L 83.386719 174.046875 L 83.734375 173.890625 L 84.070312 173.738281 L 84.402344 173.582031 L 84.726562 173.425781 L 85.046875 173.273438 L 85.359375 173.117188 L 85.664062 172.960938 L 85.964844 172.804688 L 86.257812 172.648438 L 86.546875 172.492188 L 86.824219 172.335938 L 87.101562 172.183594 L 87.367188 172.027344 L 87.628906 171.875 L 87.886719 171.71875 L 88.378906 171.414062 L 88.613281 171.265625 L 88.84375 171.113281 L 89.070312 170.964844 L 89.289062 170.816406 L 89.503906 170.671875 L 89.710938 170.527344 L 89.910156 170.382812 L 90.105469 170.242188 L 90.296875 170.101562 L 90.480469 169.960938 L 90.65625 169.824219 L 90.828125 169.691406 L 90.996094 169.558594 L 91.15625 169.429688 L 91.3125 169.300781 L 91.460938 169.171875 L 91.609375 169.050781 L 91.882812 168.808594 L 92.011719 168.695312 L 92.253906 168.46875 L 92.367188 168.363281 L 92.472656 168.257812 L 92.578125 168.15625 L 92.675781 168.058594 L 92.769531 167.960938 L 92.859375 167.871094 L 92.941406 167.78125 L 93.023438 167.695312 L 93.097656 167.613281 L 93.167969 167.535156 L 93.179688 167.519531 L 98.523438 147.582031 L 98.980469 146.699219 L 99.449219 145.824219 L 99.929688 144.964844 L 100.421875 144.117188 L 100.925781 143.28125 L 101.441406 142.457031 L 101.96875 141.644531 L 102.511719 140.84375 L 103.0625 140.058594 L 103.625 139.285156 L 104.199219 138.523438 L 104.78125 137.773438 L 105.375 137.039062 L 105.980469 136.320312 L 106.597656 135.609375 L 107.222656 134.917969 L 107.855469 134.234375 L 108.5 133.570312 L 109.15625 132.917969 L 109.820312 132.277344 L 110.492188 131.652344 L 111.171875 131.042969 L 111.859375 130.449219 L 112.558594 129.867188 L 113.265625 129.300781 L 113.980469 128.75 L 114.699219 128.210938 L 115.429688 127.691406 L 116.167969 127.183594 L 116.910156 126.691406 L 117.660156 126.214844 L 118.417969 125.753906 L 119.179688 125.308594 L 119.949219 124.878906 L 120.726562 124.464844 L 121.507812 124.066406 L 122.292969 123.683594 L 123.085938 123.316406 L 123.882812 122.964844 L 124.6875 122.628906 L 125.492188 122.308594 L 126.304688 122.007812 L 127.121094 121.71875 L 127.941406 121.449219 L 128.761719 121.191406 L 129.589844 120.953125 L 130.417969 120.730469 L 131.253906 120.523438 L 132.089844 120.335938 L 132.925781 120.160156 L 133.765625 120.003906 L 134.609375 119.863281 L 135.453125 119.738281 L 136.300781 119.632812 L 137.148438 119.539062 L 137.996094 119.464844 L 138.847656 119.410156 L 139.699219 119.367188 L 140.546875 119.34375 L 141.398438 119.332031 L 142.25 119.34375 L 143.101562 119.367188 L 143.953125 119.410156 L 144.800781 119.464844 L 145.652344 119.539062 L 146.5 119.632812 L 147.34375 119.738281 L 148.191406 119.863281 L 149.03125 120.003906 L 149.875 120.160156 L 150.710938 120.335938 L 151.546875 120.523438 L 152.378906 120.730469 L 153.210938 120.953125 L 154.035156 121.191406 L 154.859375 121.449219 L 155.679688 121.71875 L 156.496094 122.007812 L 157.304688 122.308594 L 158.113281 122.628906 L 158.914062 122.964844 L 159.714844 123.316406 L 160.503906 123.683594 L 161.292969 124.066406 L 162.074219 124.464844 L 162.847656 124.878906 L 163.617188 125.308594 L 164.382812 125.753906 L 165.140625 126.214844 L 165.890625 126.691406 L 166.632812 127.183594 L 167.371094 127.691406 L 168.097656 128.210938 L 168.820312 128.75 L 169.535156 129.300781 L 170.242188 129.867188 L 170.9375 130.449219 L 171.628906 131.042969 L 172.308594 131.652344 L 172.980469 132.277344 L 173.644531 132.917969 L 174.296875 133.570312 L 174.941406 134.234375 L 175.578125 134.917969 L 176.203125 135.609375 L 176.820312 136.320312 L 177.421875 137.039062 L 178.019531 137.773438 L 178.601562 138.523438 L 179.175781 139.285156 L 179.738281 140.058594 L 180.289062 140.84375 L 180.828125 141.644531 L 181.359375 142.457031 L 181.875 143.28125 L 182.378906 144.117188 L 182.871094 144.964844 L 183.351562 145.824219 L 183.820312 146.699219 L 184.277344 147.582031 L 189.617188 167.519531 L 189.632812 167.535156 L 189.703125 167.613281 L 189.777344 167.695312 L 189.855469 167.78125 L 189.941406 167.871094 L 190.03125 167.960938 L 190.125 168.058594 L 190.324219 168.257812 L 190.433594 168.363281 L 190.546875 168.46875 L 190.789062 168.695312 L 190.917969 168.808594 L 191.191406 169.050781 L 191.335938 169.171875 L 191.488281 169.300781 L 191.644531 169.429688 L 191.804688 169.558594 L 191.972656 169.691406 L 192.144531 169.824219 L 192.320312 169.960938 L 192.503906 170.101562 L 192.695312 170.242188 L 192.890625 170.382812 L 193.089844 170.527344 L 193.296875 170.671875 L 193.511719 170.816406 L 193.730469 170.964844 L 193.953125 171.113281 L 194.1875 171.265625 L 194.421875 171.414062 L 194.664062 171.566406 L 194.914062 171.71875 L 195.171875 171.875 L 195.433594 172.027344 L 195.699219 172.183594 L 195.972656 172.335938 L 196.253906 172.492188 L 196.542969 172.648438 L 196.835938 172.804688 L 197.132812 172.960938 L 197.441406 173.117188 L 197.753906 173.273438 L 198.070312 173.425781 L 198.398438 173.582031 L 198.730469 173.738281 L 199.066406 173.890625 L 199.410156 174.046875 L 199.761719 174.199219 L 200.121094 174.351562 L 200.484375 174.5 L 200.855469 174.652344 L 201.234375 174.800781 L 201.617188 174.945312 L 202.007812 175.09375 L 202.40625 175.238281 L 202.808594 175.378906 L 203.21875 175.523438 L 203.636719 175.660156 L 204.0625 175.796875 L 204.492188 175.933594 L 204.929688 176.066406 L 205.371094 176.199219 L 205.820312 176.328125 L 206.277344 176.453125 L 206.742188 176.578125 L 207.210938 176.699219 L 207.6875 176.820312 L 208.167969 176.933594 L 208.660156 177.046875 L 209.15625 177.15625 L 209.65625 177.265625 L 210.164062 177.367188 L 210.679688 177.46875 L 211.203125 177.566406 L 211.730469 177.65625 L 212.265625 177.746094 L 212.804688 177.832031 L 213.351562 177.914062 L 213.90625 177.992188 L 214.464844 178.066406 L 215.03125 178.136719 L 215.601562 178.199219 L 216.179688 178.261719 L 216.765625 178.316406 L 217.355469 178.371094 L 217.953125 178.417969 L 218.554688 178.457031 L 219.164062 178.496094 L 219.777344 178.527344 L 220.398438 178.554688 L 221.023438 178.578125 L 221.65625 178.59375 L 222.296875 178.605469 L 222.9375 178.609375 Z M 265.742188 178.609375 "/>
<path style=" stroke:none;fill-rule:evenodd;fill:rgb(0%,0%,0%);fill-opacity:1;" d="M 175.550781 127.292969 C 175.550781 127.238281 175.503906 127.195312 175.441406 127.195312 C 175.339844 127.195312 175.332031 127.25 175.285156 127.414062 C 175.089844 128.167969 174.890625 128.75 174.453125 128.75 C 174.125 128.75 174.125 128.398438 174.125 128.246094 C 174.125 128.203125 174.125 127.972656 174.199219 127.667969 L 175.746094 121.53125 C 175.757812 121.488281 175.777344 121.421875 175.777344 121.367188 C 175.777344 121.257812 175.648438 121.257812 175.648438 121.257812 L 175.042969 121.3125 C 174.859375 121.324219 174.695312 121.347656 174.496094 121.355469 C 174.234375 121.378906 174.15625 121.390625 174.15625 121.585938 C 174.15625 121.695312 174.265625 121.695312 174.378906 121.695312 C 174.933594 121.695312 174.933594 121.792969 174.933594 121.902344 C 174.933594 121.949219 174.933594 121.96875 174.878906 122.167969 L 173.523438 127.601562 C 173.492188 127.722656 173.46875 127.808594 173.46875 127.984375 C 173.46875 128.53125 173.871094 128.96875 174.433594 128.96875 C 174.792969 128.96875 175.035156 128.730469 175.207031 128.386719 C 175.394531 128.027344 175.550781 127.335938 175.550781 127.292969 Z M 175.550781 127.292969 "/>
<path style=" stroke:none;fill-rule:evenodd;fill:rgb(0%,0%,0%);fill-opacity:1;" d="M 182.332031 123.5625 C 182.332031 123.515625 182.332031 123.417969 182.207031 123.417969 C 182.097656 123.417969 182.097656 123.503906 182.09375 123.554688 C 182.054688 124.039062 181.785156 124.207031 181.570312 124.207031 C 181.15625 124.207031 181.109375 123.855469 180.972656 122.878906 C 180.917969 122.441406 180.84375 121.914062 180 121.652344 C 180.597656 121.5 181.332031 121.0625 181.332031 120.402344 C 181.332031 119.644531 180.359375 119.023438 179.214844 119.023438 L 176.714844 119.023438 L 176.714844 119.277344 L 176.886719 119.277344 C 177.476562 119.277344 177.492188 119.359375 177.492188 119.644531 L 177.492188 123.640625 C 177.492188 123.921875 177.476562 124.007812 176.886719 124.007812 L 176.714844 124.007812 L 176.714844 124.261719 L 177.828125 124.238281 L 178.949219 124.261719 L 178.949219 124.007812 L 178.777344 124.007812 C 178.1875 124.007812 178.171875 123.921875 178.171875 123.640625 L 178.171875 121.746094 L 179.140625 121.746094 C 179.707031 121.746094 179.960938 122.027344 180.015625 122.089844 C 180.234375 122.335938 180.234375 122.480469 180.234375 123.003906 C 180.234375 123.488281 180.234375 123.816406 180.558594 124.101562 C 180.890625 124.382812 181.320312 124.421875 181.539062 124.421875 C 182.175781 124.421875 182.332031 123.792969 182.332031 123.5625 Z M 180.535156 120.402344 C 180.535156 121.253906 179.921875 121.53125 179.117188 121.53125 L 178.171875 121.53125 L 178.171875 119.589844 C 178.171875 119.390625 178.179688 119.304688 178.363281 119.285156 C 178.433594 119.277344 178.679688 119.277344 178.832031 119.277344 C 179.523438 119.277344 180.535156 119.277344 180.535156 120.402344 Z M 180.535156 120.402344 "/>
<path style=" stroke:none;fill-rule:evenodd;fill:rgb(0%,0%,0%);fill-opacity:1;" d="M 182.175781 131.414062 C 182.175781 131.308594 182.070312 131.308594 182.023438 131.308594 C 181.722656 131.300781 181.625 131.246094 181.5 130.984375 L 180.28125 128.476562 L 180.234375 128.378906 C 180.234375 128.378906 180.367188 128.269531 180.445312 128.214844 C 181.046875 127.773438 181.878906 127.171875 182.132812 127.011719 C 182.519531 126.765625 182.804688 126.605469 183.152344 126.574219 C 183.210938 126.566406 183.320312 126.558594 183.320312 126.421875 C 183.3125 126.367188 183.265625 126.320312 183.210938 126.320312 C 183.210938 126.320312 182.988281 126.34375 182.933594 126.34375 L 182.628906 126.34375 C 182.496094 126.34375 182.308594 126.34375 182.238281 126.335938 C 182.183594 126.335938 181.882812 126.320312 181.832031 126.320312 C 181.777344 126.320312 181.671875 126.320312 181.671875 126.46875 C 181.671875 126.46875 181.679688 126.566406 181.792969 126.574219 C 181.855469 126.582031 181.976562 126.597656 181.976562 126.6875 C 181.976562 126.8125 181.824219 126.941406 181.808594 126.949219 L 181.746094 127.003906 C 181.722656 127.027344 181.695312 127.058594 181.65625 127.082031 L 178.523438 129.351562 L 179.132812 126.921875 C 179.199219 126.644531 179.214844 126.574219 179.773438 126.574219 C 179.929688 126.574219 180.019531 126.574219 180.019531 126.429688 C 180.019531 126.429688 180.015625 126.320312 179.890625 126.320312 C 179.746094 126.320312 179.5625 126.335938 179.414062 126.34375 L 178.929688 126.34375 C 178.195312 126.34375 177.996094 126.320312 177.941406 126.320312 C 177.902344 126.320312 177.789062 126.320312 177.789062 126.46875 C 177.789062 126.574219 177.882812 126.574219 178.011719 126.574219 C 178.265625 126.574219 178.488281 126.574219 178.488281 126.695312 C 178.488281 126.726562 178.480469 126.734375 178.457031 126.835938 L 177.429688 130.953125 C 177.359375 131.246094 177.34375 131.308594 176.777344 131.308594 C 176.628906 131.308594 176.539062 131.308594 176.539062 131.453125 C 176.539062 131.484375 176.5625 131.558594 176.660156 131.558594 C 176.808594 131.558594 176.992188 131.542969 177.136719 131.535156 L 178.125 131.535156 C 178.25 131.542969 178.5 131.558594 178.617188 131.558594 C 178.65625 131.558594 178.769531 131.558594 178.769531 131.421875 C 178.769531 131.308594 178.679688 131.308594 178.546875 131.308594 C 178.492188 131.308594 178.386719 131.308594 178.257812 131.292969 C 178.09375 131.277344 178.070312 131.261719 178.070312 131.183594 C 178.070312 131.136719 178.125 130.945312 178.148438 130.824219 C 178.234375 130.488281 178.132812 130.910156 178.441406 129.664062 L 179.675781 128.777344 L 180.597656 130.667969 L 180.742188 130.96875 C 180.789062 131.046875 180.789062 131.0625 180.789062 131.09375 C 180.789062 131.300781 180.503906 131.308594 180.421875 131.308594 C 180.34375 131.308594 180.234375 131.308594 180.234375 131.453125 C 180.234375 131.453125 180.242188 131.558594 180.367188 131.558594 C 180.445312 131.558594 180.734375 131.542969 180.804688 131.535156 L 181.25 131.535156 C 181.953125 131.535156 181.929688 131.558594 182.03125 131.558594 C 182.058594 131.558594 182.175781 131.558594 182.175781 131.414062 Z M 182.175781 131.414062 "/>
<path style=" stroke:none;fill-rule:evenodd;fill:rgb(0%,0%,0%);fill-opacity:1;" d="M 101.421875 127.292969 C 101.421875 127.238281 101.378906 127.195312 101.3125 127.195312 C 101.214844 127.195312 101.203125 127.25 101.160156 127.414062 C 100.964844 128.167969 100.765625 128.75 100.328125 128.75 C 100 128.75 100 128.398438 100 128.246094 C 100 128.203125 100 127.972656 100.074219 127.667969 L 101.621094 121.53125 C 101.632812 121.488281 101.652344 121.421875 101.652344 121.367188 C 101.652344 121.257812 101.523438 121.257812 101.523438 121.257812 L 100.917969 121.3125 C 100.734375 121.324219 100.570312 121.347656 100.371094 121.355469 C 100.109375 121.378906 100.03125 121.390625 100.03125 121.585938 C 100.03125 121.695312 100.140625 121.695312 100.253906 121.695312 C 100.808594 121.695312 100.808594 121.792969 100.808594 121.902344 C 100.808594 121.949219 100.808594 121.96875 100.753906 122.167969 L 99.398438 127.601562 C 99.363281 127.722656 99.34375 127.808594 99.34375 127.984375 C 99.34375 128.53125 99.746094 128.96875 100.308594 128.96875 C 100.667969 128.96875 100.910156 128.730469 101.082031 128.386719 C 101.269531 128.027344 101.421875 127.335938 101.421875 127.292969 Z M 101.421875 127.292969 "/>
<path style=" stroke:none;fill-rule:evenodd;fill:rgb(0%,0%,0%);fill-opacity:1;" d="M 106.984375 122.269531 L 106.746094 122.269531 C 106.65625 123.066406 106.539062 124.007812 105.136719 124.007812 L 104.421875 124.007812 C 104.070312 124.007812 104.054688 123.953125 104.054688 123.695312 L 104.054688 119.652344 C 104.054688 119.382812 104.054688 119.277344 104.777344 119.277344 L 105.023438 119.277344 L 105.023438 119.023438 C 104.675781 119.046875 104.117188 119.046875 103.757812 119.046875 L 102.574219 119.023438 L 102.574219 119.277344 L 102.742188 119.277344 C 103.335938 119.277344 103.351562 119.359375 103.351562 119.644531 L 103.351562 123.640625 C 103.351562 123.921875 103.335938 124.007812 102.742188 124.007812 L 102.574219 124.007812 L 102.574219 124.261719 L 106.761719 124.261719 Z M 106.984375 122.269531 "/>
<path style=" stroke:none;fill-rule:evenodd;fill:rgb(0%,0%,0%);fill-opacity:1;" d="M 108.050781 131.414062 C 108.050781 131.308594 107.941406 131.308594 107.898438 131.308594 C 107.597656 131.300781 107.5 131.246094 107.375 130.984375 L 106.15625 128.476562 L 106.109375 128.378906 C 106.109375 128.378906 106.238281 128.269531 106.316406 128.214844 C 106.921875 127.773438 107.753906 127.171875 108.003906 127.011719 C 108.394531 126.765625 108.679688 126.605469 109.027344 126.574219 C 109.085938 126.566406 109.195312 126.558594 109.195312 126.421875 C 109.1875 126.367188 109.140625 126.320312 109.085938 126.320312 C 109.085938 126.320312 108.863281 126.34375 108.808594 126.34375 L 108.503906 126.34375 C 108.371094 126.34375 108.183594 126.34375 108.113281 126.335938 C 108.058594 126.335938 107.757812 126.320312 107.707031 126.320312 C 107.652344 126.320312 107.542969 126.320312 107.542969 126.46875 C 107.542969 126.46875 107.550781 126.566406 107.667969 126.574219 C 107.730469 126.582031 107.851562 126.597656 107.851562 126.6875 C 107.851562 126.8125 107.699219 126.941406 107.683594 126.949219 L 107.621094 127.003906 C 107.597656 127.027344 107.566406 127.058594 107.527344 127.082031 L 104.398438 129.351562 L 105.007812 126.921875 C 105.074219 126.644531 105.089844 126.574219 105.648438 126.574219 C 105.804688 126.574219 105.894531 126.574219 105.894531 126.429688 C 105.894531 126.429688 105.886719 126.320312 105.765625 126.320312 C 105.621094 126.320312 105.433594 126.335938 105.289062 126.34375 L 104.804688 126.34375 C 104.070312 126.34375 103.871094 126.320312 103.816406 126.320312 C 103.777344 126.320312 103.664062 126.320312 103.664062 126.46875 C 103.664062 126.574219 103.757812 126.574219 103.886719 126.574219 C 104.140625 126.574219 104.363281 126.574219 104.363281 126.695312 C 104.363281 126.726562 104.355469 126.734375 104.332031 126.835938 L 103.304688 130.953125 C 103.234375 131.246094 103.21875 131.308594 102.652344 131.308594 C 102.503906 131.308594 102.414062 131.308594 102.414062 131.453125 C 102.414062 131.484375 102.4375 131.558594 102.535156 131.558594 C 102.679688 131.558594 102.867188 131.542969 103.011719 131.535156 L 104 131.535156 C 104.125 131.542969 104.375 131.558594 104.492188 131.558594 C 104.53125 131.558594 104.644531 131.558594 104.644531 131.421875 C 104.644531 131.308594 104.554688 131.308594 104.421875 131.308594 C 104.367188 131.308594 104.261719 131.308594 104.132812 131.292969 C 103.96875 131.277344 103.945312 131.261719 103.945312 131.183594 C 103.945312 131.136719 104 130.945312 104.023438 130.824219 C 104.109375 130.488281 104.007812 130.910156 104.316406 129.664062 L 105.550781 128.777344 L 106.472656 130.667969 L 106.617188 130.96875 C 106.660156 131.046875 106.660156 131.0625 106.660156 131.09375 C 106.660156 131.300781 106.378906 131.308594 106.292969 131.308594 C 106.21875 131.308594 106.109375 131.308594 106.109375 131.453125 C 106.109375 131.453125 106.117188 131.558594 106.238281 131.558594 C 106.316406 131.558594 106.609375 131.542969 106.675781 131.535156 L 107.121094 131.535156 C 107.828125 131.535156 107.804688 131.558594 107.90625 131.558594 C 107.933594 131.558594 108.050781 131.558594 108.050781 131.414062 Z M 108.050781 131.414062 "/>
<path style="fill:none;stroke-width:0.5;stroke-linecap:butt;stroke-linejoin:miter;stroke:rgb(50.000763%,50.000763%,50.000763%);stroke-opacity:1;stroke-dasharray:1,4;stroke-miterlimit:3.25;" d="M 214.324219 178.609375 L 98.523438 147.582031 "/>
<path style=" stroke:none;fill-rule:evenodd;fill:rgb(0%,0%,0%);fill-opacity:1;" d="M 214.582031 143.136719 C 214.582031 143.09375 214.558594 143.046875 214.46875 143.046875 C 214.273438 143.046875 213.746094 143.300781 213.648438 143.585938 C 213.484375 144.046875 213.308594 144.109375 212.949219 144.109375 C 212.222656 144.109375 211.695312 143.925781 210.152344 143.398438 C 212.269531 142.785156 214.4375 140.832031 214.4375 138.324219 C 214.4375 136.824219 213.617188 135.628906 212.015625 135.628906 C 209.789062 135.628906 207.183594 137.910156 207.183594 140.199219 C 207.183594 141.347656 207.863281 142.238281 209.101562 142.238281 C 210.1875 142.238281 211.445312 141.511719 211.445312 141.25 C 211.445312 141.183594 211.367188 141.183594 211.324219 141.183594 C 211.183594 141.183594 211.019531 141.273438 210.832031 141.371094 C 210.40625 141.613281 209.964844 141.632812 209.824219 141.632812 C 208.761719 141.632812 208.113281 140.777344 208.113281 139.738281 C 208.113281 138.378906 209.351562 136.230469 211.292969 136.230469 C 212.695312 136.230469 213.503906 137.371094 213.503906 138.785156 C 213.503906 140.011719 212.9375 141.207031 212.039062 142.007812 C 211.359375 142.632812 210.589844 143.046875 208.71875 143.046875 L 208.367188 143.046875 C 207.808594 143.046875 207.4375 143.464844 207.4375 143.574219 C 207.4375 143.648438 207.492188 143.648438 207.546875 143.648438 C 208.125 143.671875 208.597656 143.726562 209.800781 144.164062 C 210.710938 144.492188 211.421875 144.714844 212.222656 144.714844 C 213.496094 144.714844 214.582031 143.585938 214.582031 143.136719 Z M 214.582031 143.136719 "/>
<path style=" stroke:none;fill-rule:evenodd;fill:rgb(0%,0%,0%);fill-opacity:1;" d="M 218.40625 146.015625 C 218.40625 145.984375 218.40625 145.960938 218.222656 145.777344 C 217.125 144.667969 216.511719 142.859375 216.511719 140.625 C 216.511719 138.5 217.027344 136.671875 218.296875 135.375 C 218.40625 135.277344 218.40625 135.257812 218.40625 135.222656 C 218.40625 135.15625 218.351562 135.136719 218.308594 135.136719 C 218.167969 135.136719 217.269531 135.925781 216.730469 137 C 216.171875 138.105469 215.917969 139.277344 215.917969 140.625 C 215.917969 141.601562 216.074219 142.90625 216.644531 144.078125 C 217.289062 145.390625 218.1875 146.105469 218.308594 146.105469 C 218.351562 146.105469 218.40625 146.082031 218.40625 146.015625 Z M 218.40625 146.015625 "/>
<path style=" stroke:none;fill-rule:evenodd;fill:rgb(0%,0%,0%);fill-opacity:1;" d="M 226.96875 143.148438 C 226.96875 143.039062 226.871094 143.039062 226.761719 143.039062 C 226.355469 143.027344 226.214844 142.9375 226.050781 142.542969 L 224.527344 138.925781 C 224.515625 138.894531 224.472656 138.808594 224.472656 138.773438 C 224.472656 138.773438 224.480469 138.753906 224.667969 138.609375 L 225.730469 137.777344 C 227.199219 136.636719 227.683594 136.253906 228.4375 136.1875 C 228.515625 136.175781 228.625 136.175781 228.625 135.992188 C 228.625 135.925781 228.59375 135.871094 228.503906 135.871094 C 228.382812 135.871094 228.25 135.890625 228.132812 135.890625 L 227.714844 135.890625 C 227.375 135.890625 227.011719 135.871094 226.683594 135.871094 C 226.605469 135.871094 226.476562 135.871094 226.476562 136.066406 C 226.476562 136.175781 226.550781 136.1875 226.617188 136.1875 C 226.738281 136.199219 226.882812 136.242188 226.882812 136.394531 C 226.882812 136.617188 226.550781 136.878906 226.464844 136.945312 L 222.167969 140.285156 L 223.078125 136.671875 C 223.179688 136.296875 223.199219 136.1875 223.976562 136.1875 C 224.1875 136.1875 224.285156 136.1875 224.285156 135.980469 C 224.285156 135.871094 224.175781 135.871094 224.121094 135.871094 C 223.921875 135.871094 223.691406 135.890625 223.484375 135.890625 L 222.191406 135.890625 C 221.992188 135.890625 221.753906 135.871094 221.554688 135.871094 C 221.46875 135.871094 221.347656 135.871094 221.347656 136.078125 C 221.347656 136.1875 221.445312 136.1875 221.609375 136.1875 C 222.28125 136.1875 222.28125 136.273438 222.28125 136.394531 C 222.28125 136.394531 222.28125 136.484375 222.234375 136.648438 L 220.757812 142.542969 C 220.65625 142.929688 220.636719 143.039062 219.867188 143.039062 C 219.660156 143.039062 219.550781 143.039062 219.550781 143.234375 C 219.550781 143.355469 219.648438 143.355469 219.714844 143.355469 C 219.921875 143.355469 220.140625 143.332031 220.351562 143.332031 L 221.632812 143.332031 C 221.839844 143.332031 222.070312 143.355469 222.28125 143.355469 C 222.367188 143.355469 222.488281 143.355469 222.488281 143.148438 C 222.488281 143.039062 222.390625 143.039062 222.226562 143.039062 C 221.554688 143.039062 221.554688 142.949219 221.554688 142.839844 C 221.554688 142.761719 221.621094 142.488281 221.664062 142.3125 L 222.09375 140.613281 L 223.757812 139.3125 L 225.105469 142.488281 C 225.140625 142.554688 225.160156 142.621094 225.160156 142.695312 C 225.160156 143.027344 224.722656 143.039062 224.625 143.039062 C 224.527344 143.039062 224.417969 143.039062 224.417969 143.246094 C 224.417969 143.355469 224.535156 143.355469 224.570312 143.355469 C 224.953125 143.355469 225.359375 143.332031 225.742188 143.332031 L 226.269531 143.332031 C 226.433594 143.332031 226.617188 143.355469 226.785156 143.355469 C 226.847656 143.355469 226.96875 143.355469 226.96875 143.148438 Z M 226.96875 143.148438 "/>
<path style=" stroke:none;fill-rule:evenodd;fill:rgb(0%,0%,0%);fill-opacity:1;" d="M 232.039062 140.625 C 232.039062 139.792969 231.929688 138.433594 231.316406 137.164062 C 230.667969 135.847656 229.769531 135.136719 229.648438 135.136719 C 229.605469 135.136719 229.550781 135.15625 229.550781 135.222656 C 229.550781 135.257812 229.550781 135.277344 229.738281 135.464844 C 230.832031 136.570312 231.445312 138.378906 231.445312 140.613281 C 231.445312 142.742188 230.929688 144.570312 229.660156 145.863281 C 229.550781 145.960938 229.550781 145.984375 229.550781 146.015625 C 229.550781 146.082031 229.605469 146.105469 229.648438 146.105469 C 229.792969 146.105469 230.691406 145.316406 231.226562 144.242188 C 231.785156 143.125 232.039062 141.941406 232.039062 140.625 Z M 232.039062 140.625 "/>
</g>
</svg>
