<?xml version="1.0" encoding="UTF-8"?>
<svg xmlns="http://www.w3.org/2000/svg" xmlns:xlink="http://www.w3.org/1999/xlink" width="283pt" height="97pt" viewBox="0 0 283 97" version="1.1">
<defs>
<clipPath id="clip1">
  <path d="M 0 57 L 192 57 L 192 96.960938 L 0 96.960938 Z M 0 57 "/>
</clipPath>
<clipPath id="clip2">
  <path d="M 9 47 L 188 47 L 188 96.960938 L 9 96.960938 Z M 9 47 "/>
</clipPath>
<clipPath id="clip3">
  <path d="M 27 39 L 183 39 L 183 96.960938 L 27 96.960938 Z M 27 39 "/>
</clipPath>
<clipPath id="clip4">
  <path d="M 38 32 L 177 32 L 177 96.960938 L 38 96.960938 Z M 38 32 "/>
</clipPath>
<clipPath id="clip5">
  <path d="M 46 26 L 170 26 L 170 96.960938 L 46 96.960938 Z M 46 26 "/>
</clipPath>
<clipPath id="clip6">
  <path d="M 53 22 L 162 22 L 162 96.960938 L 53 96.960938 Z M 53 22 "/>
</clipPath>
<clipPath id="clip7">
  <path d="M 59 20 L 154 20 L 154 96.960938 L 59 96.960938 Z M 59 20 "/>
</clipPath>
<clipPath id="clip8">
  <path d="M 64 19 L 145 19 L 145 96.960938 L 64 96.960938 Z M 64 19 "/>
</clipPath>
<clipPath id="clip9">
  <path d="M 68 20 L 137 20 L 137 96.960938 L 68 96.960938 Z M 68 20 "/>
</clipPath>
<clipPath id="clip10">
  <path d="M 71 22 L 128 22 L 128 96.960938 L 71 96.960938 Z M 71 22 "/>
</clipPath>
<clipPath id="clip11">
  <path d="M 75 26 L 121 26 L 121 96.960938 L 75 96.960938 Z M 75 26 "/>
</clipPath>
<clipPath id="clip12">
  <path d="M 78 32 L 114 32 L 114 96.960938 L 78 96.960938 Z M 78 32 "/>
</clipPath>
<clipPath id="clip13">
  <path d="M 80 39 L 107 39 L 107 96.960938 L 80 96.960938 Z M 80 39 "/>
</clipPath>
<clipPath id="clip14">
  <path d="M 83 47 L 102 47 L 102 96.960938 L 83 96.960938 Z M 83 47 "/>
</clipPath>
<clipPath id="clip15">
  <path d="M 85 57 L 98 57 L 98 96.960938 L 85 96.960938 Z M 85 57 "/>
</clipPath>
<clipPath id="clip16">
  <path d="M 86 67 L 96 67 L 96 96.960938 L 86 96.960938 Z M 86 67 "/>
</clipPath>
<clipPath id="clip17">
  <path d="M 90 81 L 92 81 L 92 96.960938 L 90 96.960938 Z M 90 81 "/>
</clipPath>
<clipPath id="clip18">
  <path d="M 190 81 L 192 81 L 192 96.960938 L 190 96.960938 Z M 190 81 "/>
</clipPath>
<clipPath id="clip19">
  <path d="M 187 67 L 196 67 L 196 96.960938 L 187 96.960938 Z M 187 67 "/>
</clipPath>
<clipPath id="clip20">
  <path d="M 184 57 L 198 57 L 198 96.960938 L 184 96.960938 Z M 184 57 "/>
</clipPath>
<clipPath id="clip21">
  <path d="M 181 47 L 200 47 L 200 96.960938 L 181 96.960938 Z M 181 47 "/>
</clipPath>
<clipPath id="clip22">
  <path d="M 175 39 L 203 39 L 203 96.960938 L 175 96.960938 Z M 175 39 "/>
</clipPath>
<clipPath id="clip23">
  <path d="M 169 32 L 205 32 L 205 96.960938 L 169 96.960938 Z M 169 32 "/>
</clipPath>
<clipPath id="clip24">
  <path d="M 162 26 L 208 26 L 208 96.960938 L 162 96.960938 Z M 162 26 "/>
</clipPath>
<clipPath id="clip25">
  <path d="M 154 22 L 211 22 L 211 96.960938 L 154 96.960938 Z M 154 22 "/>
</clipPath>
<clipPath id="clip26">
  <path d="M 146 20 L 215 20 L 215 96.960938 L 146 96.960938 Z M 146 20 "/>
</clipPath>
<clipPath id="clip27">
  <path d="M 138 19 L 219 19 L 219 96.960938 L 138 96.960938 Z M 138 19 "/>
</clipPath>
<clipPath id="clip28">
  <path d="M 129 20 L 224 20 L 224 96.960938 L 129 96.960938 Z M 129 20 "/>
</clipPath>
<clipPath id="clip29">
  <path d="M 121 22 L 230 22 L 230 96.960938 L 121 96.960938 Z M 121 22 "/>
</clipPath>
<clipPath id="clip30">
  <path d="M 113 26 L 236 26 L 236 96.960938 L 113 96.960938 Z M 113 26 "/>
</clipPath>
<clipPath id="clip31">
  <path d="M 106 32 L 245 32 L 245 96.960938 L 106 96.960938 Z M 106 32 "/>
</clipPath>
<clipPath id="clip32">
  <path d="M 100 39 L 256 39 L 256 96.960938 L 100 96.960938 Z M 100 39 "/>
</clipPath>
<clipPath id="clip33">
  <path d="M 95 47 L 274 47 L 274 96.960938 L 95 96.960938 Z M 95 47 "/>
</clipPath>
<clipPath id="clip34">
  <path d="M 91 57 L 282.960938 57 L 282.960938 96.960938 L 91 96.960938 Z M 91 57 "/>
</clipPath>
<clipPath id="clip35">
  <path d="M 89 67 L 282.960938 67 L 282.960938 91 L 89 91 Z M 89 67 "/>
</clipPath>
<clipPath id="clip36">
  <path d="M 90 81 L 282.960938 81 L 282.960938 83 L 90 83 Z M 90 81 "/>
</clipPath>
</defs>
<g id="surface584">
<path style=" stroke:none;fill-rule:nonzero;fill:rgb(100%,100%,86.999313%);fill-opacity:1;" d="M 265.742188 81.863281 L 265.738281 80.847656 L 265.726562 79.835938 L 265.703125 78.828125 L 265.671875 77.828125 L 265.632812 76.835938 L 265.585938 75.847656 L 265.53125 74.867188 L 265.464844 73.890625 L 265.394531 72.921875 L 265.3125 71.957031 L 265.226562 71 L 265.128906 70.050781 L 265.027344 69.105469 L 264.917969 68.171875 L 264.796875 67.238281 L 264.671875 66.316406 L 264.539062 65.398438 L 264.398438 64.488281 L 264.253906 63.585938 L 264.097656 62.6875 L 263.9375 61.800781 L 263.769531 60.917969 L 263.59375 60.039062 L 263.414062 59.171875 L 263.226562 58.3125 L 263.035156 57.457031 L 262.835938 56.609375 L 262.628906 55.769531 L 262.417969 54.9375 L 262.203125 54.113281 L 261.976562 53.296875 L 261.75 52.488281 L 261.515625 51.683594 L 261.277344 50.890625 L 261.03125 50.101562 L 260.78125 49.320312 L 260.527344 48.550781 L 260.269531 47.785156 L 260.003906 47.027344 L 259.734375 46.277344 L 259.460938 45.535156 L 259.183594 44.800781 L 258.902344 44.074219 L 258.613281 43.355469 L 258.324219 42.644531 L 258.027344 41.945312 L 257.730469 41.25 L 257.425781 40.5625 L 257.121094 39.882812 L 256.8125 39.210938 L 256.5 38.546875 L 256.183594 37.890625 L 255.863281 37.242188 L 255.539062 36.601562 L 255.214844 35.96875 L 254.886719 35.34375 L 254.554688 34.726562 L 254.21875 34.121094 L 253.882812 33.519531 L 253.546875 32.925781 L 253.203125 32.339844 L 252.859375 31.761719 L 252.515625 31.195312 L 252.167969 30.632812 L 251.816406 30.078125 L 251.46875 29.535156 L 251.113281 28.996094 L 250.761719 28.464844 L 250.40625 27.941406 L 250.046875 27.429688 L 249.691406 26.921875 L 249.332031 26.421875 L 248.96875 25.929688 L 248.609375 25.449219 L 248.246094 24.972656 L 247.882812 24.503906 L 247.519531 24.042969 L 247.15625 23.589844 L 246.792969 23.144531 L 246.429688 22.707031 L 246.066406 22.277344 L 245.699219 21.851562 L 245.335938 21.4375 L 244.972656 21.03125 L 244.609375 20.628906 L 244.246094 20.234375 L 243.882812 19.851562 L 243.519531 19.472656 L 243.15625 19.097656 L 242.796875 18.734375 L 242.4375 18.378906 L 242.078125 18.027344 L 241.71875 17.683594 L 241.363281 17.347656 L 241.003906 17.019531 L 240.652344 16.699219 L 240.296875 16.382812 L 239.945312 16.074219 L 239.597656 15.773438 L 239.25 15.480469 L 238.902344 15.191406 L 238.558594 14.910156 L 238.214844 14.632812 L 237.875 14.367188 L 237.535156 14.105469 L 237.199219 13.847656 L 236.867188 13.597656 L 236.535156 13.355469 L 235.878906 12.886719 L 235.554688 12.664062 L 235.234375 12.445312 L 234.917969 12.234375 L 234.601562 12.027344 L 234.289062 11.824219 L 233.980469 11.628906 L 233.675781 11.441406 L 233.371094 11.257812 L 233.070312 11.078125 L 232.777344 10.90625 L 232.484375 10.738281 L 232.195312 10.578125 L 231.910156 10.421875 L 231.625 10.269531 L 231.347656 10.121094 L 231.074219 9.980469 L 230.535156 9.710938 L 230.273438 9.585938 L 230.015625 9.464844 L 229.757812 9.347656 L 229.507812 9.234375 L 229.261719 9.125 L 229.019531 9.019531 L 228.78125 8.921875 L 228.546875 8.824219 L 228.320312 8.734375 L 228.09375 8.648438 L 227.875 8.5625 L 227.660156 8.484375 L 227.449219 8.410156 L 227.242188 8.335938 L 226.84375 8.203125 L 226.652344 8.140625 L 226.285156 8.03125 L 226.109375 7.976562 L 225.9375 7.929688 L 225.769531 7.882812 L 225.609375 7.839844 L 225.453125 7.800781 L 225.300781 7.765625 L 225.152344 7.730469 L 225.011719 7.699219 L 224.878906 7.667969 L 224.746094 7.640625 L 224.621094 7.617188 L 224.503906 7.59375 L 224.386719 7.574219 L 224.277344 7.554688 L 224.175781 7.539062 L 224.078125 7.523438 L 223.984375 7.507812 L 223.898438 7.496094 L 223.816406 7.488281 L 223.742188 7.476562 L 223.671875 7.46875 L 223.605469 7.464844 L 223.546875 7.457031 L 223.492188 7.453125 L 223.445312 7.449219 L 223.402344 7.449219 L 223.363281 7.445312 L 223.332031 7.445312 L 223.308594 7.441406 L 59.492188 7.441406 L 59.464844 7.445312 L 59.433594 7.445312 L 59.398438 7.449219 L 59.355469 7.449219 L 59.308594 7.453125 L 59.253906 7.457031 L 59.195312 7.464844 L 59.128906 7.46875 L 59.058594 7.476562 L 58.984375 7.488281 L 58.902344 7.496094 L 58.816406 7.507812 L 58.722656 7.523438 L 58.625 7.539062 L 58.519531 7.554688 L 58.410156 7.574219 L 58.296875 7.59375 L 58.179688 7.617188 L 58.054688 7.640625 L 57.921875 7.667969 L 57.785156 7.699219 L 57.644531 7.730469 L 57.5 7.765625 L 57.347656 7.800781 L 57.191406 7.839844 L 57.03125 7.882812 L 56.863281 7.929688 L 56.691406 7.976562 L 56.515625 8.03125 L 56.332031 8.085938 L 56.144531 8.140625 L 55.953125 8.203125 L 55.757812 8.269531 L 55.558594 8.335938 L 55.351562 8.410156 L 55.140625 8.484375 L 54.925781 8.5625 L 54.480469 8.734375 L 54.25 8.824219 L 54.019531 8.921875 L 53.78125 9.019531 L 53.539062 9.125 L 53.292969 9.234375 L 53.039062 9.347656 L 52.785156 9.464844 L 52.527344 9.585938 L 52.265625 9.710938 L 51.996094 9.84375 L 51.726562 9.980469 L 51.453125 10.121094 L 51.171875 10.269531 L 50.890625 10.421875 L 50.605469 10.578125 L 50.316406 10.738281 L 50.023438 10.90625 L 49.726562 11.078125 L 49.429688 11.257812 L 49.125 11.441406 L 48.820312 11.628906 L 48.511719 11.824219 L 48.199219 12.027344 L 47.882812 12.234375 L 47.566406 12.445312 L 47.242188 12.664062 L 46.921875 12.886719 L 46.265625 13.355469 L 45.933594 13.597656 L 45.601562 13.847656 L 45.265625 14.105469 L 44.925781 14.367188 L 44.585938 14.632812 L 44.242188 14.910156 L 43.898438 15.191406 L 43.550781 15.480469 L 43.203125 15.773438 L 42.851562 16.074219 L 42.5 16.382812 L 42.148438 16.699219 L 41.792969 17.019531 L 41.4375 17.347656 L 41.082031 17.683594 L 40.722656 18.027344 L 40.363281 18.378906 L 40.003906 18.734375 L 39.644531 19.097656 L 39.28125 19.472656 L 38.917969 19.851562 L 38.554688 20.234375 L 38.191406 20.628906 L 37.828125 21.03125 L 37.464844 21.4375 L 37.097656 21.851562 L 36.734375 22.277344 L 36.371094 22.707031 L 36.007812 23.144531 L 35.640625 23.589844 L 35.277344 24.042969 L 34.914062 24.503906 L 34.554688 24.972656 L 34.191406 25.449219 L 33.828125 25.929688 L 33.46875 26.421875 L 33.109375 26.921875 L 32.753906 27.429688 L 32.394531 27.941406 L 32.039062 28.464844 L 31.683594 28.996094 L 31.332031 29.535156 L 30.980469 30.078125 L 30.632812 30.632812 L 30.285156 31.195312 L 29.941406 31.761719 L 29.597656 32.339844 L 29.253906 32.925781 L 28.917969 33.519531 L 28.578125 34.121094 L 28.246094 34.726562 L 27.914062 35.34375 L 27.585938 35.96875 L 27.261719 36.601562 L 26.9375 37.242188 L 26.617188 37.890625 L 26.300781 38.546875 L 25.988281 39.210938 L 25.679688 39.882812 L 25.371094 40.5625 L 25.070312 41.25 L 24.773438 41.945312 L 24.476562 42.644531 L 24.1875 43.355469 L 23.898438 44.074219 L 23.617188 44.800781 L 23.339844 45.535156 L 23.066406 46.277344 L 22.796875 47.027344 L 22.53125 47.785156 L 22.273438 48.550781 L 22.015625 49.320312 L 21.769531 50.101562 L 21.523438 50.890625 L 21.285156 51.683594 L 21.050781 52.488281 L 20.820312 53.296875 L 20.597656 54.113281 L 20.382812 54.9375 L 20.171875 55.769531 L 19.964844 56.609375 L 19.765625 57.457031 L 19.570312 58.3125 L 19.386719 59.171875 L 19.203125 60.039062 L 19.03125 60.917969 L 18.863281 61.800781 L 18.703125 62.6875 L 18.546875 63.585938 L 18.402344 64.488281 L 18.261719 65.398438 L 18.128906 66.316406 L 18.003906 67.238281 L 17.882812 68.171875 L 17.773438 69.105469 L 17.667969 70.050781 L 17.574219 71 L 17.484375 71.957031 L 17.40625 72.921875 L 17.332031 73.890625 L 17.269531 74.867188 L 17.214844 75.847656 L 17.167969 76.835938 L 17.128906 77.828125 L 17.097656 78.828125 L 17.074219 79.835938 L 17.0625 80.847656 L 17.058594 81.863281 L 59.859375 81.863281 L 60.503906 81.859375 L 61.140625 81.847656 L 61.773438 81.828125 L 62.402344 81.808594 L 63.023438 81.78125 L 63.636719 81.75 L 64.246094 81.710938 L 64.847656 81.667969 L 65.445312 81.621094 L 66.035156 81.570312 L 66.617188 81.515625 L 67.195312 81.453125 L 67.769531 81.386719 L 68.335938 81.320312 L 68.894531 81.246094 L 69.449219 81.167969 L 69.996094 81.085938 L 70.535156 81 L 71.070312 80.910156 L 71.597656 80.816406 L 72.121094 80.722656 L 72.632812 80.621094 L 73.144531 80.515625 L 73.644531 80.410156 L 74.140625 80.300781 L 74.628906 80.1875 L 75.113281 80.070312 L 75.589844 79.953125 L 76.058594 79.832031 L 76.523438 79.707031 L 76.980469 79.582031 L 77.429688 79.453125 L 77.871094 79.320312 L 78.308594 79.1875 L 78.738281 79.050781 L 79.164062 78.914062 L 79.578125 78.773438 L 79.988281 78.632812 L 80.394531 78.488281 L 80.792969 78.34375 L 81.183594 78.199219 L 81.566406 78.050781 L 81.945312 77.902344 L 82.316406 77.753906 L 82.679688 77.601562 L 83.035156 77.449219 L 83.386719 77.296875 L 83.734375 77.144531 L 84.070312 76.988281 L 84.402344 76.835938 L 84.726562 76.679688 L 85.046875 76.523438 L 85.664062 76.214844 L 85.964844 76.058594 L 86.257812 75.902344 L 86.546875 75.746094 L 87.101562 75.433594 L 87.367188 75.28125 L 87.628906 75.125 L 87.886719 74.972656 L 88.378906 74.667969 L 88.613281 74.515625 L 88.84375 74.367188 L 89.070312 74.21875 L 89.289062 74.070312 L 89.503906 73.921875 L 89.710938 73.777344 L 89.910156 73.636719 L 90.105469 73.492188 L 90.296875 73.351562 L 90.480469 73.214844 L 90.65625 73.078125 L 90.828125 72.945312 L 90.996094 72.8125 L 91.15625 72.679688 L 91.3125 72.550781 L 91.609375 72.300781 L 91.746094 72.179688 L 91.882812 72.0625 L 92.011719 71.945312 L 92.132812 71.832031 L 92.253906 71.722656 L 92.367188 71.613281 L 92.578125 71.410156 L 92.675781 71.308594 L 92.769531 71.214844 L 92.859375 71.121094 L 93.023438 70.949219 L 93.097656 70.867188 L 93.167969 70.789062 L 93.179688 70.773438 L 98.523438 50.835938 L 98.980469 49.949219 L 99.449219 49.078125 L 99.929688 48.21875 L 100.421875 47.371094 L 100.925781 46.53125 L 101.441406 45.707031 L 101.96875 44.898438 L 102.511719 44.097656 L 103.0625 43.308594 L 103.625 42.535156 L 104.199219 41.773438 L 104.78125 41.027344 L 105.375 40.292969 L 105.980469 39.570312 L 106.597656 38.863281 L 107.222656 38.167969 L 107.855469 37.488281 L 108.5 36.820312 L 109.15625 36.167969 L 109.820312 35.53125 L 110.492188 34.90625 L 111.171875 34.296875 L 111.859375 33.699219 L 112.558594 33.121094 L 113.265625 32.554688 L 113.980469 32 L 114.699219 31.464844 L 115.429688 30.941406 L 116.167969 30.4375 L 116.910156 29.945312 L 117.660156 29.46875 L 118.417969 29.007812 L 119.179688 28.5625 L 119.949219 28.132812 L 120.726562 27.71875 L 121.507812 27.320312 L 122.292969 26.9375 L 123.085938 26.570312 L 123.882812 26.21875 L 124.6875 25.882812 L 125.492188 25.5625 L 126.304688 25.257812 L 127.121094 24.972656 L 127.941406 24.699219 L 128.761719 24.445312 L 129.589844 24.207031 L 130.417969 23.984375 L 131.253906 23.777344 L 132.089844 23.585938 L 132.925781 23.414062 L 133.765625 23.257812 L 134.609375 23.117188 L 135.453125 22.992188 L 136.300781 22.882812 L 137.148438 22.792969 L 137.996094 22.71875 L 138.847656 22.660156 L 139.699219 22.621094 L 140.546875 22.59375 L 141.398438 22.585938 L 142.25 22.59375 L 143.101562 22.621094 L 143.953125 22.660156 L 144.800781 22.71875 L 145.652344 22.792969 L 146.5 22.882812 L 147.34375 22.992188 L 148.191406 23.117188 L 149.03125 23.257812 L 149.875 23.414062 L 150.710938 23.585938 L 151.546875 23.777344 L 152.378906 23.984375 L 153.210938 24.207031 L 154.035156 24.445312 L 154.859375 24.699219 L 155.679688 24.972656 L 156.496094 25.257812 L 157.304688 25.5625 L 158.113281 25.882812 L 158.914062 26.21875 L 159.714844 26.570312 L 160.503906 26.9375 L 161.292969 27.320312 L 162.074219 27.71875 L 162.847656 28.132812 L 163.617188 28.5625 L 164.382812 29.007812 L 165.140625 29.46875 L 165.890625 29.945312 L 166.632812 30.4375 L 167.371094 30.941406 L 168.097656 31.464844 L 168.820312 32 L 169.535156 32.554688 L 170.242188 33.121094 L 170.9375 33.699219 L 171.628906 34.296875 L 172.308594 34.90625 L 172.980469 35.53125 L 173.644531 36.167969 L 174.296875 36.820312 L 174.941406 37.488281 L 175.578125 38.167969 L 176.203125 38.863281 L 176.820312 39.570312 L 177.421875 40.292969 L 178.019531 41.027344 L 178.601562 41.773438 L 179.175781 42.535156 L 179.738281 43.308594 L 180.289062 44.097656 L 180.828125 44.898438 L 181.359375 45.707031 L 181.875 46.53125 L 182.378906 47.371094 L 182.871094 48.21875 L 183.351562 49.078125 L 183.820312 49.949219 L 184.277344 50.835938 L 189.617188 70.773438 L 189.632812 70.789062 L 189.703125 70.867188 L 189.777344 70.949219 L 189.855469 71.035156 L 189.941406 71.121094 L 190.03125 71.214844 L 190.125 71.308594 L 190.222656 71.410156 L 190.324219 71.511719 L 190.433594 71.613281 L 190.546875 71.722656 L 190.667969 71.832031 L 190.789062 71.945312 L 190.917969 72.0625 L 191.054688 72.179688 L 191.191406 72.300781 L 191.335938 72.425781 L 191.488281 72.550781 L 191.644531 72.679688 L 191.804688 72.8125 L 191.972656 72.945312 L 192.144531 73.078125 L 192.320312 73.214844 L 192.503906 73.351562 L 192.695312 73.492188 L 192.890625 73.636719 L 193.089844 73.777344 L 193.296875 73.921875 L 193.511719 74.070312 L 193.730469 74.21875 L 193.953125 74.367188 L 194.1875 74.515625 L 194.421875 74.667969 L 194.664062 74.820312 L 194.914062 74.972656 L 195.171875 75.125 L 195.433594 75.28125 L 195.699219 75.433594 L 195.972656 75.589844 L 196.253906 75.746094 L 196.542969 75.902344 L 196.835938 76.058594 L 197.132812 76.214844 L 197.441406 76.367188 L 197.753906 76.523438 L 198.070312 76.679688 L 198.398438 76.835938 L 198.730469 76.988281 L 199.066406 77.144531 L 199.410156 77.296875 L 199.761719 77.449219 L 200.121094 77.601562 L 200.484375 77.753906 L 200.855469 77.902344 L 201.234375 78.050781 L 201.617188 78.199219 L 202.007812 78.34375 L 202.40625 78.488281 L 202.808594 78.632812 L 203.21875 78.773438 L 203.636719 78.914062 L 204.0625 79.050781 L 204.492188 79.1875 L 204.929688 79.320312 L 205.371094 79.453125 L 205.820312 79.582031 L 206.277344 79.707031 L 206.742188 79.832031 L 207.210938 79.953125 L 207.6875 80.070312 L 208.167969 80.1875 L 208.660156 80.300781 L 209.15625 80.410156 L 209.65625 80.515625 L 210.164062 80.621094 L 210.679688 80.722656 L 211.203125 80.816406 L 211.730469 80.910156 L 212.265625 81 L 212.804688 81.085938 L 213.351562 81.167969 L 213.90625 81.246094 L 214.464844 81.320312 L 215.03125 81.386719 L 215.601562 81.453125 L 216.179688 81.515625 L 216.765625 81.570312 L 217.355469 81.621094 L 217.953125 81.667969 L 218.554688 81.710938 L 219.164062 81.75 L 219.777344 81.78125 L 220.398438 81.808594 L 221.023438 81.828125 L 221.65625 81.847656 L 222.296875 81.859375 L 222.9375 81.863281 Z M 265.742188 81.863281 "/>
<path style="fill:none;stroke-width:0.5;stroke-linecap:butt;stroke-linejoin:miter;stroke:rgb(50.000763%,50.000763%,50.000763%);stroke-opacity:1;stroke-dasharray:1,2;stroke-miterlimit:3.25;" d="M 172.648438 7.441406 L 192.589844 81.863281 "/>
<path style="fill:none;stroke-width:0.5;stroke-linecap:butt;stroke-linejoin:miter;stroke:rgb(50.000763%,50.000763%,50.000763%);stroke-opacity:1;stroke-dasharray:1,2;stroke-miterlimit:3.25;" d="M 110.152344 7.441406 L 90.210938 81.863281 "/>
<path style="fill:none;stroke-width:0.5;stroke-linecap:butt;stroke-linejoin:miter;stroke:rgb(50.000763%,50.000763%,50.000763%);stroke-opacity:1;stroke-dasharray:1,2;stroke-miterlimit:3.25;" d="M 59.859375 81.863281 L 222.9375 81.863281 "/>
<path style="fill:none;stroke-width:1;stroke-linecap:square;stroke-linejoin:miter;stroke:rgb(0%,0%,0%);stroke-opacity:1;stroke-miterlimit:3.25;" d="M 265.742188 81.863281 L 265.738281 80.847656 L 265.726562 79.835938 L 265.703125 78.828125 L 265.671875 77.828125 L 265.632812 76.835938 L 265.585938 75.847656 L 265.53125 74.867188 L 265.464844 73.890625 L 265.394531 72.921875 L 265.3125 71.957031 L 265.226562 71 L 265.128906 70.050781 L 265.027344 69.105469 L 264.917969 68.171875 L 264.796875 67.238281 L 264.671875 66.316406 L 264.539062 65.398438 L 264.398438 64.488281 L 264.253906 63.585938 L 264.097656 62.6875 L 263.9375 61.800781 L 263.769531 60.917969 L 263.59375 60.039062 L 263.414062 59.171875 L 263.226562 58.3125 L 263.035156 57.457031 L 262.835938 56.609375 L 262.628906 55.769531 L 262.417969 54.9375 L 262.203125 54.113281 L 261.976562 53.296875 L 261.75 52.488281 L 261.515625 51.683594 L 261.277344 50.890625 L 261.03125 50.101562 L 260.78125 49.320312 L 260.527344 48.550781 L 260.269531 47.785156 L 260.003906 47.027344 L 259.734375 46.277344 L 259.460938 45.535156 L 259.183594 44.800781 L 258.902344 44.074219 L 258.613281 43.355469 L 258.324219 42.644531 L 258.027344 41.945312 L 257.730469 41.25 L 257.425781 40.5625 L 257.121094 39.882812 L 256.8125 39.210938 L 256.5 38.546875 L 256.183594 37.890625 L 255.863281 37.242188 L 255.539062 36.601562 L 255.214844 35.96875 L 254.886719 35.34375 L 254.554688 34.726562 L 254.21875 34.121094 L 253.882812 33.519531 L 253.546875 32.925781 L 253.203125 32.339844 L 252.859375 31.761719 L 252.515625 31.195312 L 252.167969 30.632812 L 251.816406 30.078125 L 251.46875 29.535156 L 251.113281 28.996094 L 250.761719 28.464844 L 250.40625 27.941406 L 250.046875 27.429688 L 249.691406 26.921875 L 249.332031 26.421875 L 248.96875 25.929688 L 248.609375 25.449219 L 248.246094 24.972656 L 247.882812 24.503906 L 247.519531 24.042969 L 247.15625 23.589844 L 246.792969 23.144531 L 246.429688 22.707031 L 246.066406 22.277344 L 245.699219 21.851562 L 245.335938 21.4375 L 244.972656 21.03125 L 244.609375 20.628906 L 244.246094 20.234375 L 243.882812 19.851562 L 243.519531 19.472656 L 243.15625 19.097656 L 242.796875 18.734375 L 242.4375 18.378906 L 242.078125 18.027344 L 241.71875 17.683594 L 241.363281 17.347656 L 241.003906 17.019531 L 240.652344 16.699219 L 240.296875 16.382812 L 239.945312 16.074219 L 239.597656 15.773438 L 239.25 15.480469 L 238.902344 15.191406 L 238.558594 14.910156 L 238.214844 14.632812 L 237.875 14.367188 L 237.535156 14.105469 L 237.199219 13.847656 L 236.867188 13.597656 L 236.535156 13.355469 L 235.878906 12.886719 L 235.554688 12.664062 L 235.234375 12.445312 L 234.917969 12.234375 L 234.601562 12.027344 L 234.289062 11.824219 L 233.980469 11.628906 L 233.675781 11.441406 L 233.371094 11.257812 L 233.070312 11.078125 L 232.777344 10.90625 L 232.484375 10.738281 L 232.195312 10.578125 L 231.910156 10.421875 L 231.625 10.269531 L 231.347656 10.121094 L 231.074219 9.980469 L 230.535156 9.710938 L 230.273438 9.585938 L 230.015625 9.464844 L 229.757812 9.347656 L 229.507812 9.234375 L 229.261719 9.125 L 229.019531 9.019531 L 228.78125 8.921875 L 228.546875 8.824219 L 228.320312 8.734375 L 228.09375 8.648438 L 227.875 8.5625 L 227.660156 8.484375 L 227.449219 8.410156 L 227.242188 8.335938 L 226.84375 8.203125 L 226.652344 8.140625 L 226.285156 8.03125 L 226.109375 7.976562 L 225.9375 7.929688 L 225.769531 7.882812 L 225.609375 7.839844 L 225.453125 7.800781 L 225.300781 7.765625 L 225.152344 7.730469 L 225.011719 7.699219 L 224.878906 7.667969 L 224.746094 7.640625 L 224.621094 7.617188 L 224.503906 7.59375 L 224.386719 7.574219 L 224.277344 7.554688 L 224.175781 7.539062 L 224.078125 7.523438 L 223.984375 7.507812 L 223.898438 7.496094 L 223.816406 7.488281 L 223.742188 7.476562 L 223.671875 7.46875 L 223.605469 7.464844 L 223.546875 7.457031 L 223.492188 7.453125 L 223.445312 7.449219 L 223.402344 7.449219 L 223.363281 7.445312 L 223.332031 7.445312 L 223.308594 7.441406 L 59.492188 7.441406 L 59.464844 7.445312 L 59.433594 7.445312 L 59.398438 7.449219 L 59.355469 7.449219 L 59.308594 7.453125 L 59.253906 7.457031 L 59.195312 7.464844 L 59.128906 7.46875 L 59.058594 7.476562 L 58.984375 7.488281 L 58.902344 7.496094 L 58.816406 7.507812 L 58.722656 7.523438 L 58.625 7.539062 L 58.519531 7.554688 L 58.410156 7.574219 L 58.296875 7.59375 L 58.179688 7.617188 L 58.054688 7.640625 L 57.921875 7.667969 L 57.785156 7.699219 L 57.644531 7.730469 L 57.5 7.765625 L 57.347656 7.800781 L 57.191406 7.839844 L 57.03125 7.882812 L 56.863281 7.929688 L 56.691406 7.976562 L 56.515625 8.03125 L 56.332031 8.085938 L 56.144531 8.140625 L 55.953125 8.203125 L 55.757812 8.269531 L 55.558594 8.335938 L 55.351562 8.410156 L 55.140625 8.484375 L 54.925781 8.5625 L 54.480469 8.734375 L 54.25 8.824219 L 54.019531 8.921875 L 53.78125 9.019531 L 53.539062 9.125 L 53.292969 9.234375 L 53.039062 9.347656 L 52.785156 9.464844 L 52.527344 9.585938 L 52.265625 9.710938 L 51.996094 9.84375 L 51.726562 9.980469 L 51.453125 10.121094 L 51.171875 10.269531 L 50.890625 10.421875 L 50.605469 10.578125 L 50.316406 10.738281 L 50.023438 10.90625 L 49.726562 11.078125 L 49.429688 11.257812 L 49.125 11.441406 L 48.820312 11.628906 L 48.511719 11.824219 L 48.199219 12.027344 L 47.882812 12.234375 L 47.566406 12.445312 L 47.242188 12.664062 L 46.921875 12.886719 L 46.265625 13.355469 L 45.933594 13.597656 L 45.601562 13.847656 L 45.265625 14.105469 L 44.925781 14.367188 L 44.585938 14.632812 L 44.242188 14.910156 L 43.898438 15.191406 L 43.550781 15.480469 L 43.203125 15.773438 L 42.851562 16.074219 L 42.5 16.382812 L 42.148438 16.699219 L 41.792969 17.019531 L 41.4375 17.347656 L 41.082031 17.683594 L 40.722656 18.027344 L 40.363281 18.378906 L 40.003906 18.734375 L 39.644531 19.097656 L 39.28125 19.472656 L 38.917969 19.851562 L 38.554688 20.234375 L 38.191406 20.628906 L 37.828125 21.03125 L 37.464844 21.4375 L 37.097656 21.851562 L 36.734375 22.277344 L 36.371094 22.707031 L 36.007812 23.144531 L 35.640625 23.589844 L 35.277344 24.042969 L 34.914062 24.503906 L 34.554688 24.972656 L 34.191406 25.449219 L 33.828125 25.929688 L 33.46875 26.421875 L 33.109375 26.921875 L 32.753906 27.429688 L 32.394531 27.941406 L 32.039062 28.464844 L 31.683594 28.996094 L 31.332031 29.535156 L 30.980469 30.078125 L 30.632812 30.632812 L 30.285156 31.195312 L 29.941406 31.761719 L 29.597656 32.339844 L 29.253906 32.925781 L 28.917969 33.519531 L 28.578125 34.121094 L 28.246094 34.726562 L 27.914062 35.34375 L 27.585938 35.96875 L 27.261719 36.601562 L 26.9375 37.242188 L 26.617188 37.890625 L 26.300781 38.546875 L 25.988281 39.210938 L 25.679688 39.882812 L 25.371094 40.5625 L 25.070312 41.25 L 24.773438 41.945312 L 24.476562 42.644531 L 24.1875 43.355469 L 23.898438 44.074219 L 23.617188 44.800781 L 23.339844 45.535156 L 23.066406 46.277344 L 22.796875 47.027344 L 22.53125 47.785156 L 22.273438 48.550781 L 22.015625 49.320312 L 21.769531 50.101562 L 21.523438 50.890625 L 21.285156 51.683594 L 21.050781 52.488281 L 20.820312 53.296875 L 20.597656 54.113281 L 20.382812 54.9375 L 20.171875 55.769531 L 19.964844 56.609375 L 19.765625 57.457031 L 19.570312 58.3125 L 19.386719 59.171875 L 19.203125 60.039062 L 19.03125 60.917969 L 18.863281 61.800781 L 18.703125 62.6875 L 18.546875 63.585938 L 18.402344 64.488281 L 18.261719 65.398438 L 18.128906 66.316406 L 18.003906 67.238281 L 17.882812 68.171875 L 17.773438 69.105469 L 17.667969 70.050781 L 17.574219 71 L 17.484375 71.957031 L 17.40625 72.921875 L 17.332031 73.890625 L 17.269531 74.867188 L 17.214844 75.847656 L 17.167969 76.835938 L 17.128906 77.828125 L 17.097656 78.828125 L 17.074219 79.835938 L 17.0625 80.847656 L 17.058594 81.863281 L 59.859375 81.863281 L 60.503906 81.859375 L 61.140625 81.847656 L 61.773438 81.828125 L 62.402344 81.808594 L 63.023438 81.78125 L 63.636719 81.75 L 64.246094 81.710938 L 64.847656 81.667969 L 65.445312 81.621094 L 66.035156 81.570312 L 66.617188 81.515625 L 67.195312 81.453125 L 67.769531 81.386719 L 68.335938 81.320312 L 68.894531 81.246094 L 69.449219 81.167969 L 69.996094 81.085938 L 70.535156 81 L 71.070312 80.910156 L 71.597656 80.816406 L 72.121094 80.722656 L 72.632812 80.621094 L 73.144531 80.515625 L 73.644531 80.410156 L 74.140625 80.300781 L 74.628906 80.1875 L 75.113281 80.070312 L 75.589844 79.953125 L 76.058594 79.832031 L 76.523438 79.707031 L 76.980469 79.582031 L 77.429688 79.453125 L 77.871094 79.320312 L 78.308594 79.1875 L 78.738281 79.050781 L 79.164062 78.914062 L 79.578125 78.773438 L 79.988281 78.632812 L 80.394531 78.488281 L 80.792969 78.34375 L 81.183594 78.199219 L 81.566406 78.050781 L 81.945312 77.902344 L 82.316406 77.753906 L 82.679688 77.601562 L 83.035156 77.449219 L 83.386719 77.296875 L 83.734375 77.144531 L 84.070312 76.988281 L 84.402344 76.835938 L 84.726562 76.679688 L 85.046875 76.523438 L 85.664062 76.214844 L 85.964844 76.058594 L 86.257812 75.902344 L 86.546875 75.746094 L 87.101562 75.433594 L 87.367188 75.28125 L 87.628906 75.125 L 87.886719 74.972656 L 88.378906 74.667969 L 88.613281 74.515625 L 88.84375 74.367188 L 89.070312 74.21875 L 89.289062 74.070312 L 89.503906 73.921875 L 89.710938 73.777344 L 89.910156 73.636719 L 90.105469 73.492188 L 90.296875 73.351562 L 90.480469 73.214844 L 90.65625 73.078125 L 90.828125 72.945312 L 90.996094 72.8125 L 91.15625 72.679688 L 91.3125 72.550781 L 91.609375 72.300781 L 91.746094 72.179688 L 91.882812 72.0625 L 92.011719 71.945312 L 92.132812 71.832031 L 92.253906 71.722656 L 92.367188 71.613281 L 92.578125 71.410156 L 92.675781 71.308594 L 92.769531 71.214844 L 92.859375 71.121094 L 93.023438 70.949219 L 93.097656 70.867188 L 93.167969 70.789062 L 93.179688 70.773438 L 98.523438 50.835938 L 98.980469 49.949219 L 99.449219 49.078125 L 99.929688 48.21875 L 100.421875 47.371094 L 100.925781 46.53125 L 101.441406 45.707031 L 101.96875 44.898438 L 102.511719 44.097656 L 103.0625 43.308594 L 103.625 42.535156 L 104.199219 41.773438 L 104.78125 41.027344 L 105.375 40.292969 L 105.980469 39.570312 L 106.597656 38.863281 L 107.222656 38.167969 L 107.855469 37.488281 L 108.5 36.820312 L 109.15625 36.167969 L 109.820312 35.53125 L 110.492188 34.90625 L 111.171875 34.296875 L 111.859375 33.699219 L 112.558594 33.121094 L 113.265625 32.554688 L 113.980469 32 L 114.699219 31.464844 L 115.429688 30.941406 L 116.167969 30.4375 L 116.910156 29.945312 L 117.660156 29.46875 L 118.417969 29.007812 L 119.179688 28.5625 L 119.949219 28.132812 L 120.726562 27.71875 L 121.507812 27.320312 L 122.292969 26.9375 L 123.085938 26.570312 L 123.882812 26.21875 L 124.6875 25.882812 L 125.492188 25.5625 L 126.304688 25.257812 L 127.121094 24.972656 L 127.941406 24.699219 L 128.761719 24.445312 L 129.589844 24.207031 L 130.417969 23.984375 L 131.253906 23.777344 L 132.089844 23.585938 L 132.925781 23.414062 L 133.765625 23.257812 L 134.609375 23.117188 L 135.453125 22.992188 L 136.300781 22.882812 L 137.148438 22.792969 L 137.996094 22.71875 L 138.847656 22.660156 L 139.699219 22.621094 L 140.546875 22.59375 L 141.398438 22.585938 L 142.25 22.59375 L 143.101562 22.621094 L 143.953125 22.660156 L 144.800781 22.71875 L 145.652344 22.792969 L 146.5 22.882812 L 147.34375 22.992188 L 148.191406 23.117188 L 149.03125 23.257812 L 149.875 23.414062 L 150.710938 23.585938 L 151.546875 23.777344 L 152.378906 23.984375 L 153.210938 24.207031 L 154.035156 24.445312 L 154.859375 24.699219 L 155.679688 24.972656 L 156.496094 25.257812 L 157.304688 25.5625 L 158.113281 25.882812 L 158.914062 26.21875 L 159.714844 26.570312 L 160.503906 26.9375 L 161.292969 27.320312 L 162.074219 27.71875 L 162.847656 28.132812 L 163.617188 28.5625 L 164.382812 29.007812 L 165.140625 29.46875 L 165.890625 29.945312 L 166.632812 30.4375 L 167.371094 30.941406 L 168.097656 31.464844 L 168.820312 32 L 169.535156 32.554688 L 170.242188 33.121094 L 170.9375 33.699219 L 171.628906 34.296875 L 172.308594 34.90625 L 172.980469 35.53125 L 173.644531 36.167969 L 174.296875 36.820312 L 174.941406 37.488281 L 175.578125 38.167969 L 176.203125 38.863281 L 176.820312 39.570312 L 177.421875 40.292969 L 178.019531 41.027344 L 178.601562 41.773438 L 179.175781 42.535156 L 179.738281 43.308594 L 180.289062 44.097656 L 180.828125 44.898438 L 181.359375 45.707031 L 181.875 46.53125 L 182.378906 47.371094 L 182.871094 48.21875 L 183.351562 49.078125 L 183.820312 49.949219 L 184.277344 50.835938 L 189.617188 70.773438 L 189.632812 70.789062 L 189.703125 70.867188 L 189.777344 70.949219 L 189.855469 71.035156 L 189.941406 71.121094 L 190.03125 71.214844 L 190.125 71.308594 L 190.222656 71.410156 L 190.324219 71.511719 L 190.433594 71.613281 L 190.546875 71.722656 L 190.667969 71.832031 L 190.789062 71.945312 L 190.917969 72.0625 L 191.054688 72.179688 L 191.191406 72.300781 L 191.335938 72.425781 L 191.488281 72.550781 L 191.644531 72.679688 L 191.804688 72.8125 L 191.972656 72.945312 L 192.144531 73.078125 L 192.320312 73.214844 L 192.503906 73.351562 L 192.695312 73.492188 L 192.890625 73.636719 L 193.089844 73.777344 L 193.296875 73.921875 L 193.511719 74.070312 L 193.730469 74.21875 L 193.953125 74.367188 L 194.1875 74.515625 L 194.421875 74.667969 L 194.664062 74.820312 L 194.914062 74.972656 L 195.171875 75.125 L 195.433594 75.28125 L 195.699219 75.433594 L 195.972656 75.589844 L 196.253906 75.746094 L 196.542969 75.902344 L 196.835938 76.058594 L 197.132812 76.214844 L 197.441406 76.367188 L 197.753906 76.523438 L 198.070312 76.679688 L 198.398438 76.835938 L 198.730469 76.988281 L 199.066406 77.144531 L 199.410156 77.296875 L 199.761719 77.449219 L 200.121094 77.601562 L 200.484375 77.753906 L 200.855469 77.902344 L 201.234375 78.050781 L 201.617188 78.199219 L 202.007812 78.34375 L 202.40625 78.488281 L 202.808594 78.632812 L 203.21875 78.773438 L 203.636719 78.914062 L 204.0625 79.050781 L 204.492188 79.1875 L 204.929688 79.320312 L 205.371094 79.453125 L 205.820312 79.582031 L 206.277344 79.707031 L 206.742188 79.832031 L 207.210938 79.953125 L 207.6875 80.070312 L 208.167969 80.1875 L 208.660156 80.300781 L 209.15625 80.410156 L 209.65625 80.515625 L 210.164062 80.621094 L 210.679688 80.722656 L 211.203125 80.816406 L 211.730469 80.910156 L 212.265625 81 L 212.804688 81.085938 L 213.351562 81.167969 L 213.90625 81.246094 L 214.464844 81.320312 L 215.03125 81.386719 L 215.601562 81.453125 L 216.179688 81.515625 L 216.765625 81.570312 L 217.355469 81.621094 L 217.953125 81.667969 L 218.554688 81.710938 L 219.164062 81.75 L 219.777344 81.78125 L 220.398438 81.808594 L 221.023438 81.828125 L 221.65625 81.847656 L 222.296875 81.859375 L 222.9375 81.863281 Z M 265.742188 81.863281 "/>
<path style=" stroke:none;fill-rule:evenodd;fill:rgb(0%,0%,0%);fill-opacity:1;" d="M 175.558594 30.539062 C 175.558594 30.484375 175.515625 30.441406 175.449219 30.441406 C 175.351562 30.441406 175.339844 30.496094 175.296875 30.660156 C 175.097656 31.417969 174.898438 32.003906 174.460938 32.003906 C 174.128906 32.003906 174.128906 31.652344 174.128906 31.496094 C 174.128906 31.453125 174.128906 31.222656 174.207031 30.914062 L 175.757812 24.753906 C 175.769531 24.710938 175.792969 24.640625 175.792969 24.585938 C 175.792969 24.476562 175.660156 24.476562 175.660156 24.476562 L 175.054688 24.53125 C 174.867188 24.542969 174.703125 24.566406 174.503906 24.578125 C 174.238281 24.597656 174.164062 24.609375 174.164062 24.808594 C 174.164062 24.917969 174.273438 24.917969 174.382812 24.917969 C 174.945312 24.917969 174.945312 25.015625 174.945312 25.125 C 174.945312 25.171875 174.945312 25.191406 174.886719 25.390625 L 173.523438 30.847656 C 173.492188 30.96875 173.46875 31.058594 173.46875 31.234375 C 173.46875 31.785156 173.878906 32.222656 174.4375 32.222656 C 174.800781 32.222656 175.042969 31.980469 175.21875 31.640625 C 175.40625 31.277344 175.558594 30.582031 175.558594 30.539062 Z M 175.558594 30.539062 "/>
<path style=" stroke:none;fill-rule:evenodd;fill:rgb(0%,0%,0%);fill-opacity:1;" d="M 182.308594 26.820312 C 182.308594 26.773438 182.308594 26.671875 182.183594 26.671875 C 182.078125 26.671875 182.078125 26.757812 182.070312 26.8125 C 182.03125 27.292969 181.765625 27.460938 181.550781 27.460938 C 181.140625 27.460938 181.09375 27.109375 180.953125 26.140625 C 180.902344 25.703125 180.824219 25.175781 179.984375 24.914062 C 180.582031 24.761719 181.3125 24.328125 181.3125 23.671875 C 181.3125 22.914062 180.34375 22.296875 179.203125 22.296875 L 176.714844 22.296875 L 176.714844 22.546875 L 176.882812 22.546875 C 177.472656 22.546875 177.488281 22.632812 177.488281 22.914062 L 177.488281 26.894531 C 177.488281 27.179688 177.472656 27.261719 176.882812 27.261719 L 176.714844 27.261719 L 176.714844 27.515625 L 177.824219 27.492188 L 178.9375 27.515625 L 178.9375 27.261719 L 178.769531 27.261719 C 178.179688 27.261719 178.164062 27.179688 178.164062 26.894531 L 178.164062 25.007812 L 179.128906 25.007812 C 179.695312 25.007812 179.945312 25.289062 180 25.351562 C 180.222656 25.59375 180.222656 25.742188 180.222656 26.261719 C 180.222656 26.742188 180.222656 27.070312 180.542969 27.351562 C 180.871094 27.636719 181.296875 27.675781 181.519531 27.675781 C 182.15625 27.675781 182.308594 27.046875 182.308594 26.820312 Z M 180.519531 23.671875 C 180.519531 24.519531 179.90625 24.792969 179.105469 24.792969 L 178.164062 24.792969 L 178.164062 22.863281 C 178.164062 22.664062 178.171875 22.578125 178.355469 22.554688 C 178.425781 22.546875 178.671875 22.546875 178.824219 22.546875 C 179.511719 22.546875 180.519531 22.546875 180.519531 23.671875 Z M 180.519531 23.671875 "/>
<path style=" stroke:none;fill-rule:evenodd;fill:rgb(0%,0%,0%);fill-opacity:1;" d="M 182.152344 34.667969 C 182.152344 34.5625 182.046875 34.5625 182 34.5625 C 181.703125 34.554688 181.601562 34.5 181.480469 34.238281 L 180.265625 31.742188 L 180.21875 31.640625 C 180.21875 31.640625 180.351562 31.535156 180.425781 31.480469 C 181.03125 31.039062 181.855469 30.441406 182.105469 30.28125 C 182.496094 30.035156 182.777344 29.878906 183.121094 29.847656 C 183.183594 29.839844 183.292969 29.832031 183.292969 29.691406 C 183.285156 29.640625 183.238281 29.59375 183.183594 29.59375 C 183.183594 29.59375 182.960938 29.617188 182.910156 29.617188 L 182.605469 29.617188 C 182.472656 29.617188 182.28125 29.617188 182.214844 29.609375 C 182.160156 29.609375 181.863281 29.59375 181.808594 29.59375 C 181.757812 29.59375 181.648438 29.59375 181.648438 29.738281 C 181.648438 29.738281 181.65625 29.839844 181.773438 29.847656 C 181.832031 29.855469 181.953125 29.871094 181.953125 29.960938 C 181.953125 30.082031 181.800781 30.214844 181.785156 30.222656 L 181.726562 30.273438 C 181.703125 30.296875 181.671875 30.328125 181.632812 30.351562 L 178.515625 32.613281 L 179.121094 30.191406 C 179.1875 29.914062 179.203125 29.847656 179.761719 29.847656 C 179.914062 29.847656 180.007812 29.847656 180.007812 29.699219 C 180.007812 29.699219 180 29.59375 179.875 29.59375 C 179.730469 29.59375 179.546875 29.609375 179.402344 29.617188 L 178.921875 29.617188 C 178.1875 29.617188 177.988281 29.59375 177.9375 29.59375 C 177.898438 29.59375 177.785156 29.59375 177.785156 29.738281 C 177.785156 29.847656 177.875 29.847656 178.003906 29.847656 C 178.257812 29.847656 178.476562 29.847656 178.476562 29.96875 C 178.476562 30 178.46875 30.007812 178.445312 30.105469 L 177.425781 34.210938 C 177.355469 34.5 177.339844 34.5625 176.773438 34.5625 C 176.628906 34.5625 176.539062 34.5625 176.539062 34.707031 C 176.539062 34.734375 176.558594 34.8125 176.660156 34.8125 C 176.804688 34.8125 176.988281 34.796875 177.132812 34.789062 L 178.117188 34.789062 C 178.242188 34.796875 178.492188 34.8125 178.609375 34.8125 C 178.644531 34.8125 178.761719 34.8125 178.761719 34.675781 C 178.761719 34.5625 178.667969 34.5625 178.539062 34.5625 C 178.484375 34.5625 178.378906 34.5625 178.25 34.546875 C 178.085938 34.53125 178.066406 34.515625 178.066406 34.4375 C 178.066406 34.390625 178.117188 34.203125 178.140625 34.078125 C 178.226562 33.742188 178.125 34.164062 178.429688 32.925781 L 179.664062 32.039062 L 180.578125 33.925781 L 180.726562 34.222656 C 180.769531 34.300781 180.769531 34.316406 180.769531 34.347656 C 180.769531 34.554688 180.488281 34.5625 180.402344 34.5625 C 180.328125 34.5625 180.21875 34.5625 180.21875 34.707031 C 180.21875 34.707031 180.226562 34.8125 180.351562 34.8125 C 180.425781 34.8125 180.71875 34.796875 180.785156 34.789062 L 181.226562 34.789062 C 181.929688 34.789062 181.910156 34.8125 182.007812 34.8125 C 182.039062 34.8125 182.152344 34.8125 182.152344 34.667969 Z M 182.152344 34.667969 "/>
<path style=" stroke:none;fill-rule:evenodd;fill:rgb(0%,0%,0%);fill-opacity:1;" d="M 101.433594 30.539062 C 101.433594 30.484375 101.390625 30.441406 101.324219 30.441406 C 101.226562 30.441406 101.214844 30.496094 101.171875 30.660156 C 100.972656 31.417969 100.773438 32.003906 100.335938 32.003906 C 100.003906 32.003906 100.003906 31.652344 100.003906 31.496094 C 100.003906 31.453125 100.003906 31.222656 100.082031 30.914062 L 101.632812 24.753906 C 101.644531 24.710938 101.664062 24.640625 101.664062 24.585938 C 101.664062 24.476562 101.53125 24.476562 101.53125 24.476562 L 100.929688 24.53125 C 100.742188 24.542969 100.578125 24.566406 100.378906 24.578125 C 100.113281 24.597656 100.039062 24.609375 100.039062 24.808594 C 100.039062 24.917969 100.148438 24.917969 100.257812 24.917969 C 100.820312 24.917969 100.820312 25.015625 100.820312 25.125 C 100.820312 25.171875 100.820312 25.191406 100.761719 25.390625 L 99.398438 30.847656 C 99.367188 30.96875 99.34375 31.058594 99.34375 31.234375 C 99.34375 31.785156 99.753906 32.222656 100.3125 32.222656 C 100.675781 32.222656 100.917969 31.980469 101.09375 31.640625 C 101.28125 31.277344 101.433594 30.582031 101.433594 30.539062 Z M 101.433594 30.539062 "/>
<path style=" stroke:none;fill-rule:evenodd;fill:rgb(0%,0%,0%);fill-opacity:1;" d="M 106.964844 25.527344 L 106.730469 25.527344 C 106.636719 26.320312 106.523438 27.261719 105.125 27.261719 L 104.414062 27.261719 C 104.0625 27.261719 104.046875 27.207031 104.046875 26.949219 L 104.046875 22.921875 C 104.046875 22.65625 104.046875 22.546875 104.765625 22.546875 L 105.011719 22.546875 L 105.011719 22.296875 C 104.667969 22.316406 104.109375 22.316406 103.75 22.316406 L 102.574219 22.296875 L 102.574219 22.546875 L 102.742188 22.546875 C 103.328125 22.546875 103.34375 22.632812 103.34375 22.914062 L 103.34375 26.894531 C 103.34375 27.179688 103.328125 27.261719 102.742188 27.261719 L 102.574219 27.261719 L 102.574219 27.515625 L 106.746094 27.515625 Z M 106.964844 25.527344 "/>
<path style=" stroke:none;fill-rule:evenodd;fill:rgb(0%,0%,0%);fill-opacity:1;" d="M 108.027344 34.667969 C 108.027344 34.5625 107.921875 34.5625 107.875 34.5625 C 107.578125 34.554688 107.476562 34.5 107.355469 34.238281 L 106.140625 31.742188 L 106.09375 31.640625 C 106.09375 31.640625 106.222656 31.535156 106.300781 31.480469 C 106.902344 31.039062 107.730469 30.441406 107.980469 30.28125 C 108.371094 30.035156 108.652344 29.878906 108.996094 29.847656 C 109.058594 29.839844 109.167969 29.832031 109.167969 29.691406 C 109.160156 29.640625 109.113281 29.59375 109.058594 29.59375 C 109.058594 29.59375 108.835938 29.617188 108.785156 29.617188 L 108.480469 29.617188 C 108.347656 29.617188 108.15625 29.617188 108.089844 29.609375 C 108.035156 29.609375 107.738281 29.59375 107.683594 29.59375 C 107.628906 29.59375 107.523438 29.59375 107.523438 29.738281 C 107.523438 29.738281 107.53125 29.839844 107.644531 29.847656 C 107.707031 29.855469 107.828125 29.871094 107.828125 29.960938 C 107.828125 30.082031 107.675781 30.214844 107.660156 30.222656 L 107.597656 30.273438 C 107.578125 30.296875 107.546875 30.328125 107.507812 30.351562 L 104.390625 32.613281 L 104.996094 30.191406 C 105.0625 29.914062 105.078125 29.847656 105.636719 29.847656 C 105.789062 29.847656 105.878906 29.847656 105.878906 29.699219 C 105.878906 29.699219 105.871094 29.59375 105.75 29.59375 C 105.605469 29.59375 105.421875 29.609375 105.277344 29.617188 L 104.796875 29.617188 C 104.0625 29.617188 103.863281 29.59375 103.8125 29.59375 C 103.773438 29.59375 103.65625 29.59375 103.65625 29.738281 C 103.65625 29.847656 103.75 29.847656 103.878906 29.847656 C 104.132812 29.847656 104.351562 29.847656 104.351562 29.96875 C 104.351562 30 104.34375 30.007812 104.320312 30.105469 L 103.296875 34.210938 C 103.230469 34.5 103.214844 34.5625 102.648438 34.5625 C 102.503906 34.5625 102.414062 34.5625 102.414062 34.707031 C 102.414062 34.734375 102.433594 34.8125 102.535156 34.8125 C 102.679688 34.8125 102.863281 34.796875 103.007812 34.789062 L 103.992188 34.789062 C 104.117188 34.796875 104.367188 34.8125 104.484375 34.8125 C 104.519531 34.8125 104.636719 34.8125 104.636719 34.675781 C 104.636719 34.5625 104.542969 34.5625 104.414062 34.5625 C 104.359375 34.5625 104.253906 34.5625 104.125 34.546875 C 103.960938 34.53125 103.941406 34.515625 103.941406 34.4375 C 103.941406 34.390625 103.992188 34.203125 104.015625 34.078125 C 104.101562 33.742188 104 34.164062 104.304688 32.925781 L 105.535156 32.039062 L 106.453125 33.925781 L 106.597656 34.222656 C 106.644531 34.300781 106.644531 34.316406 106.644531 34.347656 C 106.644531 34.554688 106.363281 34.5625 106.277344 34.5625 C 106.199219 34.5625 106.09375 34.5625 106.09375 34.707031 C 106.09375 34.707031 106.101562 34.8125 106.222656 34.8125 C 106.300781 34.8125 106.589844 34.796875 106.660156 34.789062 L 107.101562 34.789062 C 107.804688 34.789062 107.785156 34.8125 107.882812 34.8125 C 107.914062 34.8125 108.027344 34.8125 108.027344 34.667969 Z M 108.027344 34.667969 "/>
<path style="fill:none;stroke-width:0.5;stroke-linecap:butt;stroke-linejoin:miter;stroke:rgb(50.000763%,50.000763%,50.000763%);stroke-opacity:1;stroke-dasharray:1,4;stroke-miterlimit:3.25;" d="M 214.324219 81.863281 L 98.523438 50.835938 "/>
<path style=" stroke:none;fill-rule:evenodd;fill:rgb(0%,0%,0%);fill-opacity:1;" d="M 214.617188 46.386719 C 214.617188 46.34375 214.59375 46.300781 214.507812 46.300781 C 214.308594 46.300781 213.78125 46.550781 213.683594 46.839844 C 213.515625 47.300781 213.339844 47.367188 212.976562 47.367188 C 212.25 47.367188 211.722656 47.179688 210.171875 46.652344 C 212.292969 46.035156 214.472656 44.074219 214.472656 41.554688 C 214.472656 40.046875 213.648438 38.847656 212.039062 38.847656 C 209.808594 38.847656 207.1875 41.136719 207.1875 43.4375 C 207.1875 44.59375 207.871094 45.484375 209.113281 45.484375 C 210.203125 45.484375 211.46875 44.757812 211.46875 44.496094 C 211.46875 44.429688 211.390625 44.429688 211.347656 44.429688 C 211.203125 44.429688 211.039062 44.515625 210.851562 44.613281 C 210.421875 44.855469 209.984375 44.878906 209.839844 44.878906 C 208.773438 44.878906 208.125 44.019531 208.125 42.976562 C 208.125 41.609375 209.367188 39.453125 211.316406 39.453125 C 212.722656 39.453125 213.539062 40.597656 213.539062 42.015625 C 213.539062 43.25 212.964844 44.449219 212.0625 45.253906 C 211.382812 45.878906 210.609375 46.300781 208.730469 46.300781 L 208.375 46.300781 C 207.816406 46.300781 207.441406 46.714844 207.441406 46.828125 C 207.441406 46.902344 207.496094 46.902344 207.550781 46.902344 C 208.132812 46.925781 208.609375 46.980469 209.820312 47.421875 C 210.730469 47.75 211.445312 47.972656 212.25 47.972656 C 213.527344 47.972656 214.617188 46.839844 214.617188 46.386719 Z M 214.617188 46.386719 "/>
<path style=" stroke:none;fill-rule:evenodd;fill:rgb(0%,0%,0%);fill-opacity:1;" d="M 218.421875 49.28125 C 218.421875 49.25 218.421875 49.226562 218.234375 49.039062 C 217.136719 47.925781 216.519531 46.113281 216.519531 43.867188 C 216.519531 41.730469 217.035156 39.894531 218.3125 38.59375 C 218.421875 38.496094 218.421875 38.472656 218.421875 38.441406 C 218.421875 38.375 218.367188 38.351562 218.324219 38.351562 C 218.179688 38.351562 217.277344 39.144531 216.738281 40.226562 C 216.175781 41.335938 215.925781 42.511719 215.925781 43.867188 C 215.925781 44.847656 216.078125 46.15625 216.652344 47.332031 C 217.300781 48.652344 218.203125 49.371094 218.324219 49.371094 C 218.367188 49.371094 218.421875 49.347656 218.421875 49.28125 Z M 218.421875 49.28125 "/>
<path style=" stroke:none;fill-rule:evenodd;fill:rgb(0%,0%,0%);fill-opacity:1;" d="M 227.003906 46.398438 C 227.003906 46.289062 226.902344 46.289062 226.792969 46.289062 C 226.386719 46.277344 226.246094 46.1875 226.078125 45.792969 L 224.550781 42.160156 C 224.539062 42.128906 224.496094 42.039062 224.496094 42.007812 C 224.496094 42.007812 224.503906 41.984375 224.691406 41.84375 L 225.761719 41.007812 C 227.234375 39.859375 227.71875 39.476562 228.476562 39.410156 C 228.554688 39.398438 228.664062 39.398438 228.664062 39.210938 C 228.664062 39.144531 228.632812 39.089844 228.542969 39.089844 C 228.421875 39.089844 228.289062 39.113281 228.171875 39.113281 L 227.75 39.113281 C 227.410156 39.113281 227.046875 39.089844 226.714844 39.089844 C 226.640625 39.089844 226.507812 39.089844 226.507812 39.289062 C 226.507812 39.398438 226.585938 39.410156 226.652344 39.410156 C 226.773438 39.421875 226.914062 39.464844 226.914062 39.617188 C 226.914062 39.839844 226.585938 40.101562 226.496094 40.167969 L 222.183594 43.523438 L 223.097656 39.894531 C 223.195312 39.519531 223.21875 39.410156 224 39.410156 C 224.207031 39.410156 224.308594 39.410156 224.308594 39.203125 C 224.308594 39.089844 224.199219 39.089844 224.144531 39.089844 C 223.945312 39.089844 223.714844 39.113281 223.503906 39.113281 L 222.203125 39.113281 C 222.007812 39.113281 221.765625 39.089844 221.566406 39.089844 C 221.476562 39.089844 221.359375 39.089844 221.359375 39.300781 C 221.359375 39.410156 221.457031 39.410156 221.621094 39.410156 C 222.292969 39.410156 222.292969 39.5 222.292969 39.617188 C 222.292969 39.617188 222.292969 39.707031 222.25 39.871094 L 220.765625 45.792969 C 220.664062 46.175781 220.640625 46.289062 219.871094 46.289062 C 219.664062 46.289062 219.554688 46.289062 219.554688 46.488281 C 219.554688 46.605469 219.652344 46.605469 219.71875 46.605469 C 219.925781 46.605469 220.148438 46.585938 220.355469 46.585938 L 221.644531 46.585938 C 221.851562 46.585938 222.085938 46.605469 222.292969 46.605469 C 222.382812 46.605469 222.5 46.605469 222.5 46.398438 C 222.5 46.289062 222.402344 46.289062 222.238281 46.289062 C 221.566406 46.289062 221.566406 46.199219 221.566406 46.089844 C 221.566406 46.011719 221.632812 45.738281 221.675781 45.5625 L 222.105469 43.855469 L 223.777344 42.546875 L 225.132812 45.738281 C 225.164062 45.804688 225.1875 45.871094 225.1875 45.945312 C 225.1875 46.277344 224.746094 46.289062 224.648438 46.289062 C 224.550781 46.289062 224.441406 46.289062 224.441406 46.496094 C 224.441406 46.605469 224.558594 46.605469 224.59375 46.605469 C 224.980469 46.605469 225.386719 46.585938 225.769531 46.585938 L 226.300781 46.585938 C 226.464844 46.585938 226.652344 46.605469 226.816406 46.605469 C 226.882812 46.605469 227.003906 46.605469 227.003906 46.398438 Z M 227.003906 46.398438 "/>
<path style=" stroke:none;fill-rule:evenodd;fill:rgb(0%,0%,0%);fill-opacity:1;" d="M 232.050781 43.867188 C 232.050781 43.03125 231.941406 41.664062 231.324219 40.390625 C 230.675781 39.070312 229.773438 38.351562 229.652344 38.351562 C 229.609375 38.351562 229.554688 38.375 229.554688 38.441406 C 229.554688 38.472656 229.554688 38.496094 229.742188 38.683594 C 230.839844 39.796875 231.457031 41.609375 231.457031 43.855469 C 231.457031 45.992188 230.941406 47.828125 229.664062 49.128906 C 229.554688 49.226562 229.554688 49.25 229.554688 49.28125 C 229.554688 49.347656 229.609375 49.371094 229.652344 49.371094 C 229.796875 49.371094 230.699219 48.578125 231.238281 47.496094 C 231.796875 46.375 232.050781 45.1875 232.050781 43.867188 Z M 232.050781 43.867188 "/>
<path style="fill:none;stroke-width:1;stroke-linecap:square;stroke-linejoin:miter;stroke:rgb(0%,0%,0%);stroke-opacity:1;stroke-miterlimit:3.25;" d="M 265.742188 81.863281 L 17.058594 81.863281 "/>
<path style="fill:none;stroke-width:0.7;stroke-linecap:square;stroke-linejoin:miter;stroke:rgb(0%,0%,100%);stroke-opacity:0.5;stroke-miterlimit:3.25;" d="M 191.320312 81.863281 L 191.3125 80.714844 L 191.289062 79.574219 L 191.246094 78.441406 L 191.1875 77.3125 L 191.113281 76.1875 L 191.023438 75.074219 L 190.914062 73.964844 L 190.792969 72.863281 L 190.652344 71.769531 L 190.496094 70.679688 L 190.328125 69.601562 L 190.140625 68.53125 L 189.9375 67.46875 L 189.722656 66.414062 L 189.488281 65.367188 L 189.242188 64.332031 L 188.976562 63.304688 L 188.703125 62.285156 L 188.410156 61.273438 L 188.101562 60.273438 L 187.78125 59.285156 L 187.449219 58.304688 L 187.097656 57.332031 L 186.734375 56.371094 L 186.359375 55.421875 L 185.96875 54.484375 L 185.566406 53.554688 L 185.148438 52.636719 L 184.71875 51.730469 L 184.277344 50.835938 L 183.820312 49.949219 L 183.351562 49.078125 L 182.871094 48.21875 L 182.378906 47.371094 L 181.875 46.53125 L 181.359375 45.707031 L 180.828125 44.898438 L 180.289062 44.097656 L 179.738281 43.308594 L 179.175781 42.535156 L 178.601562 41.773438 L 178.019531 41.027344 L 177.421875 40.292969 L 176.820312 39.570312 L 176.203125 38.863281 L 175.578125 38.167969 L 174.941406 37.488281 L 174.296875 36.820312 L 173.644531 36.167969 L 172.980469 35.53125 L 172.308594 34.90625 L 171.628906 34.296875 L 170.9375 33.699219 L 170.242188 33.121094 L 169.535156 32.554688 L 168.820312 32 L 168.097656 31.464844 L 167.371094 30.941406 L 166.632812 30.4375 L 165.890625 29.945312 L 165.140625 29.46875 L 164.382812 29.007812 L 163.617188 28.5625 L 162.847656 28.132812 L 162.074219 27.71875 L 161.292969 27.320312 L 160.503906 26.9375 L 159.714844 26.570312 L 158.914062 26.21875 L 158.113281 25.882812 L 157.304688 25.5625 L 156.496094 25.257812 L 155.679688 24.972656 L 154.859375 24.699219 L 154.035156 24.445312 L 153.210938 24.207031 L 152.378906 23.984375 L 151.546875 23.777344 L 150.710938 23.585938 L 149.875 23.414062 L 149.03125 23.257812 L 148.191406 23.117188 L 147.34375 22.992188 L 146.5 22.882812 L 145.652344 22.792969 L 144.800781 22.71875 L 143.953125 22.660156 L 143.101562 22.621094 L 142.25 22.59375 L 141.398438 22.585938 L 140.546875 22.59375 L 139.699219 22.621094 L 138.847656 22.660156 L 137.996094 22.71875 L 137.148438 22.792969 L 136.300781 22.882812 L 135.453125 22.992188 L 134.609375 23.117188 L 133.765625 23.257812 L 132.925781 23.414062 L 132.089844 23.585938 L 131.253906 23.777344 L 130.417969 23.984375 L 129.589844 24.207031 L 128.761719 24.445312 L 127.941406 24.699219 L 127.121094 24.972656 L 126.304688 25.257812 L 125.492188 25.5625 L 124.6875 25.882812 L 123.882812 26.21875 L 123.085938 26.570312 L 122.292969 26.9375 L 121.507812 27.320312 L 120.726562 27.71875 L 119.949219 28.132812 L 119.179688 28.5625 L 118.417969 29.007812 L 117.660156 29.46875 L 116.910156 29.945312 L 116.167969 30.4375 L 115.429688 30.941406 L 114.699219 31.464844 L 113.980469 32 L 113.265625 32.554688 L 112.558594 33.121094 L 111.859375 33.699219 L 111.171875 34.296875 L 110.492188 34.90625 L 109.820312 35.53125 L 109.15625 36.167969 L 108.5 36.820312 L 107.855469 37.488281 L 107.222656 38.167969 L 106.597656 38.863281 L 105.980469 39.570312 L 105.375 40.292969 L 104.78125 41.027344 L 104.199219 41.773438 L 103.625 42.535156 L 103.0625 43.308594 L 102.511719 44.097656 L 101.96875 44.898438 L 101.441406 45.707031 L 100.925781 46.53125 L 100.421875 47.371094 L 99.929688 48.21875 L 99.449219 49.078125 L 98.980469 49.949219 L 98.523438 50.835938 L 98.082031 51.730469 L 97.652344 52.636719 L 97.234375 53.554688 L 96.832031 54.484375 L 96.441406 55.421875 L 96.0625 56.371094 L 95.703125 57.332031 L 95.351562 58.304688 L 95.015625 59.285156 L 94.695312 60.273438 L 94.390625 61.273438 L 94.097656 62.285156 L 93.820312 63.304688 L 93.558594 64.332031 L 93.3125 65.367188 L 93.078125 66.414062 L 92.863281 67.46875 L 92.660156 68.53125 L 92.472656 69.601562 L 92.304688 70.679688 L 92.148438 71.769531 L 92.007812 72.863281 L 91.886719 73.964844 L 91.777344 75.074219 L 91.6875 76.1875 L 91.613281 77.3125 L 91.554688 78.441406 L 91.511719 79.574219 L 91.488281 80.714844 L 91.480469 81.863281 "/>
<path style="fill:none;stroke-width:0.7;stroke-linecap:square;stroke-linejoin:miter;stroke:rgb(100%,0%,0%);stroke-opacity:0.1;stroke-miterlimit:3.25;" d="M 191.320312 81.863281 L 0 81.863281 "/>
<path style="fill:none;stroke-width:0.7;stroke-linecap:square;stroke-linejoin:miter;stroke:rgb(100%,0%,0%);stroke-opacity:0.1;stroke-miterlimit:3.25;" d="M 190.496094 70.679688 L 0 87.347656 "/>
<g clip-path="url(#clip1)" clip-rule="nonzero">
<path style="fill:none;stroke-width:0.7;stroke-linecap:square;stroke-linejoin:miter;stroke:rgb(100%,0%,0%);stroke-opacity:0.1;stroke-miterlimit:3.25;" d="M 188.101562 60.273438 L 0 93.441406 "/>
</g>
<g clip-path="url(#clip2)" clip-rule="nonzero">
<path style="fill:none;stroke-width:0.7;stroke-linecap:square;stroke-linejoin:miter;stroke:rgb(100%,0%,0%);stroke-opacity:0.1;stroke-miterlimit:3.25;" d="M 184.277344 50.835938 L 12.929688 96.746094 "/>
</g>
<g clip-path="url(#clip3)" clip-rule="nonzero">
<path style="fill:none;stroke-width:0.7;stroke-linecap:square;stroke-linejoin:miter;stroke:rgb(100%,0%,0%);stroke-opacity:0.1;stroke-miterlimit:3.25;" d="M 179.175781 42.535156 L 30.230469 96.746094 "/>
</g>
<g clip-path="url(#clip4)" clip-rule="nonzero">
<path style="fill:none;stroke-width:0.7;stroke-linecap:square;stroke-linejoin:miter;stroke:rgb(100%,0%,0%);stroke-opacity:0.1;stroke-miterlimit:3.25;" d="M 172.980469 35.53125 L 41.703125 96.746094 "/>
</g>
<g clip-path="url(#clip5)" clip-rule="nonzero">
<path style="fill:none;stroke-width:0.7;stroke-linecap:square;stroke-linejoin:miter;stroke:rgb(100%,0%,0%);stroke-opacity:0.1;stroke-miterlimit:3.25;" d="M 165.890625 29.945312 L 50.183594 96.746094 "/>
</g>
<g clip-path="url(#clip6)" clip-rule="nonzero">
<path style="fill:none;stroke-width:0.7;stroke-linecap:square;stroke-linejoin:miter;stroke:rgb(100%,0%,0%);stroke-opacity:0.1;stroke-miterlimit:3.25;" d="M 158.113281 25.882812 L 56.90625 96.746094 "/>
</g>
<g clip-path="url(#clip7)" clip-rule="nonzero">
<path style="fill:none;stroke-width:0.7;stroke-linecap:square;stroke-linejoin:miter;stroke:rgb(100%,0%,0%);stroke-opacity:0.1;stroke-miterlimit:3.25;" d="M 149.875 23.414062 L 62.476562 96.746094 "/>
</g>
<g clip-path="url(#clip8)" clip-rule="nonzero">
<path style="fill:none;stroke-width:0.7;stroke-linecap:square;stroke-linejoin:miter;stroke:rgb(100%,0%,0%);stroke-opacity:0.1;stroke-miterlimit:3.25;" d="M 141.398438 22.585938 L 67.238281 96.746094 "/>
</g>
<g clip-path="url(#clip9)" clip-rule="nonzero">
<path style="fill:none;stroke-width:0.7;stroke-linecap:square;stroke-linejoin:miter;stroke:rgb(100%,0%,0%);stroke-opacity:0.1;stroke-miterlimit:3.25;" d="M 132.925781 23.414062 L 71.390625 96.746094 "/>
</g>
<g clip-path="url(#clip10)" clip-rule="nonzero">
<path style="fill:none;stroke-width:0.7;stroke-linecap:square;stroke-linejoin:miter;stroke:rgb(100%,0%,0%);stroke-opacity:0.1;stroke-miterlimit:3.25;" d="M 124.6875 25.882812 L 75.066406 96.746094 "/>
</g>
<g clip-path="url(#clip11)" clip-rule="nonzero">
<path style="fill:none;stroke-width:0.7;stroke-linecap:square;stroke-linejoin:miter;stroke:rgb(100%,0%,0%);stroke-opacity:0.1;stroke-miterlimit:3.25;" d="M 116.910156 29.945312 L 78.339844 96.746094 "/>
</g>
<g clip-path="url(#clip12)" clip-rule="nonzero">
<path style="fill:none;stroke-width:0.7;stroke-linecap:square;stroke-linejoin:miter;stroke:rgb(100%,0%,0%);stroke-opacity:0.1;stroke-miterlimit:3.25;" d="M 109.820312 35.53125 L 81.273438 96.746094 "/>
</g>
<g clip-path="url(#clip13)" clip-rule="nonzero">
<path style="fill:none;stroke-width:0.7;stroke-linecap:square;stroke-linejoin:miter;stroke:rgb(100%,0%,0%);stroke-opacity:0.1;stroke-miterlimit:3.25;" d="M 103.625 42.535156 L 83.894531 96.746094 "/>
</g>
<g clip-path="url(#clip14)" clip-rule="nonzero">
<path style="fill:none;stroke-width:0.7;stroke-linecap:square;stroke-linejoin:miter;stroke:rgb(100%,0%,0%);stroke-opacity:0.1;stroke-miterlimit:3.25;" d="M 98.523438 50.835938 L 86.222656 96.746094 "/>
</g>
<g clip-path="url(#clip15)" clip-rule="nonzero">
<path style="fill:none;stroke-width:0.7;stroke-linecap:square;stroke-linejoin:miter;stroke:rgb(100%,0%,0%);stroke-opacity:0.1;stroke-miterlimit:3.25;" d="M 94.695312 60.273438 L 88.265625 96.746094 "/>
</g>
<g clip-path="url(#clip16)" clip-rule="nonzero">
<path style="fill:none;stroke-width:0.7;stroke-linecap:square;stroke-linejoin:miter;stroke:rgb(100%,0%,0%);stroke-opacity:0.1;stroke-miterlimit:3.25;" d="M 92.304688 70.679688 L 90.023438 96.746094 "/>
</g>
<g clip-path="url(#clip17)" clip-rule="nonzero">
<path style="fill:none;stroke-width:0.7;stroke-linecap:square;stroke-linejoin:miter;stroke:rgb(100%,0%,0%);stroke-opacity:0.1;stroke-miterlimit:3.25;" d="M 91.480469 81.863281 L 91.480469 96.746094 "/>
</g>
<g clip-path="url(#clip18)" clip-rule="nonzero">
<path style="fill:none;stroke-width:0.7;stroke-linecap:square;stroke-linejoin:miter;stroke:rgb(100%,0%,0%);stroke-opacity:0.1;stroke-miterlimit:3.25;" d="M 191.320312 81.863281 L 191.320312 96.746094 "/>
</g>
<g clip-path="url(#clip19)" clip-rule="nonzero">
<path style="fill:none;stroke-width:0.7;stroke-linecap:square;stroke-linejoin:miter;stroke:rgb(100%,0%,0%);stroke-opacity:0.1;stroke-miterlimit:3.25;" d="M 190.496094 70.679688 L 192.777344 96.746094 "/>
</g>
<g clip-path="url(#clip20)" clip-rule="nonzero">
<path style="fill:none;stroke-width:0.7;stroke-linecap:square;stroke-linejoin:miter;stroke:rgb(100%,0%,0%);stroke-opacity:0.1;stroke-miterlimit:3.25;" d="M 188.101562 60.273438 L 194.535156 96.746094 "/>
</g>
<g clip-path="url(#clip21)" clip-rule="nonzero">
<path style="fill:none;stroke-width:0.7;stroke-linecap:square;stroke-linejoin:miter;stroke:rgb(100%,0%,0%);stroke-opacity:0.1;stroke-miterlimit:3.25;" d="M 184.277344 50.835938 L 196.578125 96.746094 "/>
</g>
<g clip-path="url(#clip22)" clip-rule="nonzero">
<path style="fill:none;stroke-width:0.7;stroke-linecap:square;stroke-linejoin:miter;stroke:rgb(100%,0%,0%);stroke-opacity:0.1;stroke-miterlimit:3.25;" d="M 179.175781 42.535156 L 198.90625 96.746094 "/>
</g>
<g clip-path="url(#clip23)" clip-rule="nonzero">
<path style="fill:none;stroke-width:0.7;stroke-linecap:square;stroke-linejoin:miter;stroke:rgb(100%,0%,0%);stroke-opacity:0.1;stroke-miterlimit:3.25;" d="M 172.980469 35.53125 L 201.527344 96.746094 "/>
</g>
<g clip-path="url(#clip24)" clip-rule="nonzero">
<path style="fill:none;stroke-width:0.7;stroke-linecap:square;stroke-linejoin:miter;stroke:rgb(100%,0%,0%);stroke-opacity:0.1;stroke-miterlimit:3.25;" d="M 165.890625 29.945312 L 204.457031 96.746094 "/>
</g>
<g clip-path="url(#clip25)" clip-rule="nonzero">
<path style="fill:none;stroke-width:0.7;stroke-linecap:square;stroke-linejoin:miter;stroke:rgb(100%,0%,0%);stroke-opacity:0.1;stroke-miterlimit:3.25;" d="M 158.113281 25.882812 L 207.734375 96.746094 "/>
</g>
<g clip-path="url(#clip26)" clip-rule="nonzero">
<path style="fill:none;stroke-width:0.7;stroke-linecap:square;stroke-linejoin:miter;stroke:rgb(100%,0%,0%);stroke-opacity:0.1;stroke-miterlimit:3.25;" d="M 149.875 23.414062 L 211.40625 96.746094 "/>
</g>
<g clip-path="url(#clip27)" clip-rule="nonzero">
<path style="fill:none;stroke-width:0.7;stroke-linecap:square;stroke-linejoin:miter;stroke:rgb(100%,0%,0%);stroke-opacity:0.1;stroke-miterlimit:3.25;" d="M 141.398438 22.585938 L 215.5625 96.746094 "/>
</g>
<g clip-path="url(#clip28)" clip-rule="nonzero">
<path style="fill:none;stroke-width:0.7;stroke-linecap:square;stroke-linejoin:miter;stroke:rgb(100%,0%,0%);stroke-opacity:0.1;stroke-miterlimit:3.25;" d="M 132.925781 23.414062 L 220.320312 96.746094 "/>
</g>
<g clip-path="url(#clip29)" clip-rule="nonzero">
<path style="fill:none;stroke-width:0.7;stroke-linecap:square;stroke-linejoin:miter;stroke:rgb(100%,0%,0%);stroke-opacity:0.1;stroke-miterlimit:3.25;" d="M 124.6875 25.882812 L 225.894531 96.746094 "/>
</g>
<g clip-path="url(#clip30)" clip-rule="nonzero">
<path style="fill:none;stroke-width:0.7;stroke-linecap:square;stroke-linejoin:miter;stroke:rgb(100%,0%,0%);stroke-opacity:0.1;stroke-miterlimit:3.25;" d="M 116.910156 29.945312 L 232.613281 96.746094 "/>
</g>
<g clip-path="url(#clip31)" clip-rule="nonzero">
<path style="fill:none;stroke-width:0.7;stroke-linecap:square;stroke-linejoin:miter;stroke:rgb(100%,0%,0%);stroke-opacity:0.1;stroke-miterlimit:3.25;" d="M 109.820312 35.53125 L 241.097656 96.746094 "/>
</g>
<g clip-path="url(#clip32)" clip-rule="nonzero">
<path style="fill:none;stroke-width:0.7;stroke-linecap:square;stroke-linejoin:miter;stroke:rgb(100%,0%,0%);stroke-opacity:0.1;stroke-miterlimit:3.25;" d="M 103.625 42.535156 L 252.566406 96.746094 "/>
</g>
<g clip-path="url(#clip33)" clip-rule="nonzero">
<path style="fill:none;stroke-width:0.7;stroke-linecap:square;stroke-linejoin:miter;stroke:rgb(100%,0%,0%);stroke-opacity:0.1;stroke-miterlimit:3.25;" d="M 98.523438 50.835938 L 269.871094 96.746094 "/>
</g>
<g clip-path="url(#clip34)" clip-rule="nonzero">
<path style="fill:none;stroke-width:0.7;stroke-linecap:square;stroke-linejoin:miter;stroke:rgb(100%,0%,0%);stroke-opacity:0.1;stroke-miterlimit:3.25;" d="M 94.695312 60.273438 L 282.800781 93.441406 "/>
</g>
<g clip-path="url(#clip35)" clip-rule="nonzero">
<path style="fill:none;stroke-width:0.7;stroke-linecap:square;stroke-linejoin:miter;stroke:rgb(100%,0%,0%);stroke-opacity:0.1;stroke-miterlimit:3.25;" d="M 92.304688 70.679688 L 282.800781 87.347656 "/>
</g>
<g clip-path="url(#clip36)" clip-rule="nonzero">
<path style="fill:none;stroke-width:0.7;stroke-linecap:square;stroke-linejoin:miter;stroke:rgb(100%,0%,0%);stroke-opacity:0.1;stroke-miterlimit:3.25;" d="M 91.480469 81.863281 L 282.800781 81.863281 "/>
</g>
</g>
</svg>
