<?xml version="1.0" encoding="UTF-8"?>
<svg xmlns="http://www.w3.org/2000/svg" xmlns:xlink="http://www.w3.org/1999/xlink" width="530pt" height="142pt" viewBox="0 0 530 142" version="1.1">
<defs>
<clipPath id="clip1">
  <path d="M 13.441406 28 L 319.441406 28 L 319.441406 114 L 13.441406 114 Z M 13.441406 28 "/>
</clipPath>
<clipPath id="clip2">
  <path d="M 13.441406 113 L 319.441406 113 L 319.441406 114 L 13.441406 114 Z M 13.441406 113 "/>
</clipPath>
<clipPath id="clip3">
  <path d="M 13.441406 28 L 319.441406 28 L 319.441406 30 L 13.441406 30 Z M 13.441406 28 "/>
</clipPath>
<clipPath id="clip4">
  <path d="M 13.441406 85 L 287 85 L 287 133.679688 L 13.441406 133.679688 Z M 13.441406 85 "/>
</clipPath>
<clipPath id="clip5">
  <path d="M 53 7.679688 L 319.441406 7.679688 L 319.441406 56 L 53 56 Z M 53 7.679688 "/>
</clipPath>
<clipPath id="clip6">
  <path d="M 351.839844 27 L 494 27 L 494 69.359375 L 351.839844 69.359375 Z M 351.839844 27 "/>
</clipPath>
<clipPath id="clip7">
  <path d="M 351.839844 61 L 460 61 L 460 64 L 351.839844 64 Z M 351.839844 61 "/>
</clipPath>
<clipPath id="clip8">
  <path d="M 457 61 L 460 61 L 460 69.359375 L 457 69.359375 Z M 457 61 "/>
</clipPath>
<clipPath id="clip9">
  <path d="M 457 61 L 460 61 L 460 69.359375 L 457 69.359375 Z M 457 61 "/>
</clipPath>
<clipPath id="clip10">
  <path d="M 351.839844 26 L 495 26 L 495 29 L 351.839844 29 Z M 351.839844 26 "/>
</clipPath>
<clipPath id="clip11">
  <path d="M 492 26 L 495 26 L 495 69.359375 L 492 69.359375 Z M 492 26 "/>
</clipPath>
<clipPath id="clip12">
  <path d="M 492 26 L 495 26 L 495 69.359375 L 492 69.359375 Z M 492 26 "/>
</clipPath>
<clipPath id="clip13">
  <path d="M 373 20.160156 L 499.921875 20.160156 L 499.921875 69.359375 L 373 69.359375 Z M 373 20.160156 "/>
</clipPath>
<clipPath id="clip14">
  <path d="M 424 52 L 449 52 L 449 69.359375 L 424 69.359375 Z M 424 52 "/>
</clipPath>
<clipPath id="clip15">
  <path d="M 351.839844 80 L 494 80 L 494 122.160156 L 351.839844 122.160156 Z M 351.839844 80 "/>
</clipPath>
<clipPath id="clip16">
  <path d="M 351.839844 114 L 460 114 L 460 117 L 351.839844 117 Z M 351.839844 114 "/>
</clipPath>
<clipPath id="clip17">
  <path d="M 457 114 L 460 114 L 460 122.160156 L 457 122.160156 Z M 457 114 "/>
</clipPath>
<clipPath id="clip18">
  <path d="M 457 114 L 460 114 L 460 122.160156 L 457 122.160156 Z M 457 114 "/>
</clipPath>
<clipPath id="clip19">
  <path d="M 351.839844 79 L 495 79 L 495 82 L 351.839844 82 Z M 351.839844 79 "/>
</clipPath>
<clipPath id="clip20">
  <path d="M 492 79 L 495 79 L 495 122.160156 L 492 122.160156 Z M 492 79 "/>
</clipPath>
<clipPath id="clip21">
  <path d="M 492 79 L 495 79 L 495 122.160156 L 492 122.160156 Z M 492 79 "/>
</clipPath>
<clipPath id="clip22">
  <path d="M 373 73 L 499.921875 73 L 499.921875 122.160156 L 373 122.160156 Z M 373 73 "/>
</clipPath>
<clipPath id="clip23">
  <path d="M 424 105 L 449 105 L 449 122.160156 L 424 122.160156 Z M 424 105 "/>
</clipPath>
</defs>
<g id="surface121">
<g clip-path="url(#clip1)" clip-rule="nonzero">
<path style=" stroke:none;fill-rule:nonzero;fill:rgb(86.999313%,94.000153%,100%);fill-opacity:1;" d="M 173.789062 28.945312 L 652.003906 113.269531 L 166.410156 113.269531 L -311.808594 28.945312 Z M 173.789062 28.945312 "/>
</g>
<g clip-path="url(#clip2)" clip-rule="nonzero">
<path style="fill:none;stroke-width:0.2;stroke-linecap:square;stroke-linejoin:miter;stroke:rgb(0%,0%,0%);stroke-opacity:1;stroke-miterlimit:3.25;" d="M 13.46875 113.269531 L 319.351562 113.269531 "/>
</g>
<g clip-path="url(#clip3)" clip-rule="nonzero">
<path style="fill:none;stroke-width:0.2;stroke-linecap:square;stroke-linejoin:miter;stroke:rgb(0%,0%,0%);stroke-opacity:1;stroke-miterlimit:3.25;" d="M 13.46875 28.945312 L 319.351562 28.945312 "/>
</g>
<g clip-path="url(#clip4)" clip-rule="nonzero">
<path style="fill:none;stroke-width:0.2;stroke-linecap:square;stroke-linejoin:miter;stroke:rgb(0%,0%,0%);stroke-opacity:1;stroke-miterlimit:3.25;" d="M 13.46875 86.300781 L 285.964844 134.351562 "/>
</g>
<g clip-path="url(#clip5)" clip-rule="nonzero">
<path style="fill:none;stroke-width:0.2;stroke-linecap:square;stroke-linejoin:miter;stroke:rgb(0%,0%,0%);stroke-opacity:1;stroke-miterlimit:3.25;" d="M 319.351562 54.613281 L 54.234375 7.867188 "/>
</g>
<path style=" stroke:none;fill-rule:evenodd;fill:rgb(0%,0%,0%);fill-opacity:1;" d="M 33.261719 42.675781 C 33.261719 41.816406 32.535156 41.035156 31.148438 41.035156 L 27.75 41.035156 C 27.539062 41.035156 27.441406 41.035156 27.441406 41.246094 C 27.441406 41.355469 27.539062 41.355469 27.703125 41.355469 C 28.375 41.355469 28.375 41.445312 28.375 41.566406 C 28.375 41.566406 28.375 41.652344 28.332031 41.816406 L 26.847656 47.738281 C 26.746094 48.121094 26.726562 48.234375 25.953125 48.234375 C 25.746094 48.234375 25.636719 48.234375 25.636719 48.433594 C 25.636719 48.550781 25.734375 48.550781 25.800781 48.550781 C 26.007812 48.550781 26.230469 48.53125 26.4375 48.53125 L 27.726562 48.53125 C 27.9375 48.53125 28.167969 48.550781 28.375 48.550781 C 28.464844 48.550781 28.585938 48.550781 28.585938 48.34375 C 28.585938 48.234375 28.484375 48.234375 28.320312 48.234375 C 27.660156 48.234375 27.648438 48.15625 27.648438 48.046875 C 27.648438 47.992188 27.660156 47.914062 27.671875 47.859375 L 28.375 45.054688 L 30.226562 45.054688 C 31.742188 45.054688 33.261719 43.929688 33.261719 42.675781 Z M 32.335938 42.445312 C 32.335938 42.730469 32.195312 43.667969 31.6875 44.171875 C 31.5 44.371094 30.972656 44.789062 29.972656 44.789062 L 28.421875 44.789062 L 29.167969 41.785156 C 29.265625 41.378906 29.3125 41.355469 29.742188 41.355469 L 30.828125 41.355469 C 31.65625 41.355469 32.335938 41.621094 32.335938 42.445312 Z M 32.335938 42.445312 "/>
<path style=" stroke:none;fill-rule:evenodd;fill:rgb(0%,0%,0%);fill-opacity:1;" d="M 36.734375 48.324219 C 36.808594 48.011719 36.902344 47.652344 36.902344 47.355469 C 36.902344 47.140625 36.855469 46.957031 36.71875 46.84375 C 36.671875 46.804688 36.601562 46.78125 36.535156 46.78125 C 36.4375 46.78125 36.328125 46.828125 36.242188 46.917969 C 36.175781 46.996094 36.136719 47.089844 36.136719 47.171875 C 36.136719 47.257812 36.167969 47.332031 36.238281 47.386719 C 36.429688 47.539062 36.535156 47.769531 36.535156 48.027344 C 36.535156 48.113281 36.519531 48.195312 36.503906 48.28125 C 36.328125 48.960938 35.855469 49.640625 35.25 49.640625 C 34.839844 49.640625 34.570312 49.386719 34.480469 49.027344 C 34.585938 48.808594 34.671875 48.5625 34.722656 48.324219 C 34.738281 48.273438 34.746094 48.210938 34.746094 48.160156 C 34.746094 48.019531 34.695312 47.914062 34.5625 47.914062 C 34.410156 47.914062 34.296875 48.097656 34.257812 48.28125 C 34.1875 48.53125 34.15625 48.777344 34.164062 49 C 33.90625 49.371094 33.53125 49.640625 33.125 49.640625 C 32.652344 49.640625 32.421875 49.25 32.421875 48.761719 C 32.421875 48.625 32.4375 48.480469 32.476562 48.324219 C 32.59375 47.882812 32.859375 47.464844 33.164062 47.074219 C 33.1875 47.035156 33.203125 46.996094 33.203125 46.964844 C 33.203125 46.910156 33.171875 46.867188 33.125 46.835938 C 33.101562 46.820312 33.082031 46.8125 33.050781 46.8125 C 32.996094 46.8125 32.9375 46.84375 32.898438 46.890625 C 32.578125 47.324219 32.371094 47.800781 32.25 48.28125 C 32.179688 48.546875 32.140625 48.808594 32.140625 49.058594 C 32.140625 49.714844 32.402344 50.230469 33.027344 50.230469 C 33.507812 50.230469 33.914062 49.914062 34.226562 49.472656 C 34.34375 49.921875 34.640625 50.230469 35.144531 50.230469 C 35.953125 50.230469 36.503906 49.257812 36.734375 48.324219 Z M 36.734375 48.324219 "/>
<path style="fill-rule:nonzero;fill:rgb(100%,100%,86.999313%);fill-opacity:1;stroke-width:1.5;stroke-linecap:square;stroke-linejoin:miter;stroke:rgb(0%,0%,0%);stroke-opacity:1;stroke-miterlimit:3.25;" d="M 115.507812 104.292969 L 115.511719 104.265625 L 116.085938 101.351562 L 116.785156 98.496094 L 117.605469 95.695312 L 118.546875 92.960938 L 119.601562 90.292969 L 120.773438 87.699219 L 122.058594 85.183594 L 123.445312 82.75 L 124.941406 80.40625 L 126.535156 78.152344 L 128.222656 75.992188 L 130.003906 73.933594 L 131.871094 71.980469 L 133.820312 70.132812 L 135.851562 68.398438 L 137.953125 66.777344 L 140.125 65.273438 L 142.363281 63.890625 L 144.65625 62.628906 L 147.003906 61.496094 L 149.398438 60.492188 L 151.835938 59.617188 L 154.3125 58.875 L 156.820312 58.269531 L 159.347656 57.804688 L 161.890625 57.480469 L 164.445312 57.296875 L 167.003906 57.261719 L 169.5625 57.367188 L 172.113281 57.613281 L 174.652344 58.003906 L 177.171875 58.535156 L 179.664062 59.203125 L 182.121094 60.007812 L 184.539062 60.945312 L 186.914062 62.007812 L 189.238281 63.199219 L 191.503906 64.519531 L 193.710938 65.957031 L 195.851562 67.515625 L 197.921875 69.191406 L 199.914062 70.980469 L 201.828125 72.875 L 203.65625 74.878906 L 205.394531 76.984375 L 207.039062 79.1875 L 208.585938 81.484375 L 210.03125 83.871094 L 211.371094 86.34375 L 212.605469 88.894531 L 213.722656 91.523438 L 214.726562 94.222656 L 215.613281 96.988281 L 216.375 99.816406 L 217.015625 102.699219 L 217.53125 105.636719 L 217.917969 108.617188 L 218.015625 108.695312 L 218.125 108.777344 L 218.234375 108.863281 L 218.351562 108.949219 L 218.472656 109.039062 L 218.597656 109.128906 L 218.730469 109.222656 L 219.011719 109.410156 L 219.316406 109.605469 L 219.480469 109.703125 L 219.644531 109.804688 L 219.816406 109.902344 L 219.996094 110.003906 L 220.179688 110.105469 L 220.371094 110.210938 L 220.566406 110.3125 L 220.769531 110.414062 L 220.976562 110.519531 L 221.191406 110.621094 L 221.410156 110.722656 L 221.636719 110.828125 L 221.867188 110.929688 L 222.105469 111.03125 L 222.351562 111.132812 L 222.601562 111.230469 L 222.859375 111.332031 L 223.125 111.429688 L 223.394531 111.527344 L 223.667969 111.621094 L 223.949219 111.71875 L 224.238281 111.8125 L 224.53125 111.902344 L 224.832031 111.992188 L 225.140625 112.078125 L 225.453125 112.164062 L 225.773438 112.25 L 226.097656 112.328125 L 226.429688 112.40625 L 226.765625 112.484375 L 227.113281 112.558594 L 227.460938 112.628906 L 227.816406 112.695312 L 228.179688 112.757812 L 228.546875 112.820312 L 228.921875 112.878906 L 229.304688 112.933594 L 229.691406 112.984375 L 230.082031 113.03125 L 230.480469 113.074219 L 230.886719 113.113281 L 231.296875 113.148438 L 231.710938 113.179688 L 232.132812 113.207031 L 232.558594 113.226562 L 233.011719 113.246094 L 233.492188 113.257812 L 233.96875 113.265625 L 234.449219 113.269531 L 302.488281 113.269531 L 302.332031 110.277344 L 302.101562 107.320312 L 301.800781 104.402344 L 301.429688 101.523438 L 300.988281 98.6875 L 300.480469 95.898438 L 299.910156 93.15625 L 299.277344 90.460938 L 298.585938 87.820312 L 297.839844 85.230469 L 297.035156 82.699219 L 296.179688 80.222656 L 295.273438 77.804688 L 294.324219 75.449219 L 293.328125 73.152344 L 292.289062 70.921875 L 291.214844 68.753906 L 290.105469 66.648438 L 288.960938 64.613281 L 287.789062 62.644531 L 286.589844 60.742188 L 285.367188 58.910156 L 284.125 57.144531 L 282.867188 55.449219 L 281.59375 53.824219 L 280.3125 52.269531 L 279.027344 50.792969 L 277.738281 49.386719 L 276.457031 48.054688 L 275.214844 46.832031 L 173.867188 28.960938 L 96.71875 28.980469 L 95.53125 29.042969 L 94.316406 29.136719 L 93.074219 29.265625 L 91.8125 29.425781 L 90.527344 29.625 L 89.21875 29.863281 L 87.890625 30.140625 L 86.542969 30.457031 L 85.175781 30.816406 L 83.796875 31.214844 L 82.398438 31.65625 L 80.984375 32.144531 L 79.5625 32.679688 L 78.125 33.257812 L 76.679688 33.886719 L 75.226562 34.5625 L 73.761719 35.289062 L 72.296875 36.0625 L 70.828125 36.886719 L 69.355469 37.761719 L 67.882812 38.691406 L 66.410156 39.671875 L 64.941406 40.707031 L 63.476562 41.796875 L 62.019531 42.9375 L 60.75 43.984375 L 59.496094 45.074219 L 58.234375 46.230469 L 56.957031 47.460938 L 55.675781 48.757812 L 54.394531 50.128906 L 53.105469 51.574219 L 51.824219 53.09375 L 50.542969 54.683594 L 49.277344 56.347656 L 48.027344 58.078125 L 46.796875 59.878906 L 45.585938 61.75 L 44.402344 63.6875 L 43.242188 65.695312 L 42.117188 67.765625 L 41.027344 69.902344 L 39.96875 72.105469 L 38.957031 74.371094 L 37.984375 76.703125 L 37.054688 79.089844 L 36.175781 81.539062 L 35.347656 84.046875 L 34.574219 86.609375 L 33.855469 89.226562 L 33.695312 89.867188 Z M 115.507812 104.292969 "/>
<path style=" stroke:none;fill-rule:evenodd;fill:rgb(0%,0%,0%);fill-opacity:1;" d="M 90.464844 71.328125 C 90.464844 70.867188 90.351562 70.460938 89.933594 70.050781 C 89.703125 69.824219 89.503906 69.765625 88.492188 69.503906 C 87.753906 69.304688 87.65625 69.269531 87.457031 69.097656 C 87.273438 68.910156 87.128906 68.644531 87.128906 68.269531 C 87.128906 67.347656 88.0625 66.398438 89.109375 66.398438 C 90.1875 66.398438 90.695312 67.058594 90.695312 68.105469 C 90.695312 68.390625 90.636719 68.6875 90.636719 68.730469 C 90.636719 68.832031 90.726562 68.832031 90.761719 68.832031 C 90.859375 68.832031 90.871094 68.800781 90.914062 68.621094 L 91.507812 66.203125 C 91.507812 66.101562 91.410156 66.101562 91.410156 66.101562 C 91.363281 66.101562 91.355469 66.113281 91.222656 66.277344 L 90.695312 66.9375 C 90.332031 66.222656 89.605469 66.101562 89.144531 66.101562 C 87.742188 66.101562 86.480469 67.378906 86.480469 68.621094 C 86.480469 69.449219 86.972656 69.933594 87.511719 70.121094 C 87.632812 70.164062 88.28125 70.339844 88.613281 70.417969 C 89.175781 70.570312 89.316406 70.613281 89.550781 70.859375 C 89.59375 70.914062 89.8125 71.164062 89.8125 71.683594 C 89.8125 72.707031 88.867188 73.761719 87.765625 73.761719 C 86.863281 73.761719 85.863281 73.375 85.863281 72.144531 C 85.863281 71.9375 85.90625 71.671875 85.9375 71.5625 C 85.9375 71.527344 85.949219 71.453125 85.949219 71.453125 C 85.949219 71.40625 85.929688 71.351562 85.839844 71.351562 C 85.742188 71.351562 85.730469 71.375 85.6875 71.5625 L 85.125 73.816406 L 85.082031 73.984375 C 85.082031 74.082031 85.191406 74.082031 85.191406 74.082031 C 85.234375 74.082031 85.246094 74.070312 85.378906 73.90625 L 85.882812 73.246094 C 86.148438 73.640625 86.71875 74.082031 87.742188 74.082031 C 89.164062 74.082031 90.464844 72.707031 90.464844 71.328125 Z M 90.464844 71.328125 "/>
<path style=" stroke:none;fill-rule:evenodd;fill:rgb(0%,0%,0%);fill-opacity:1;" d="M 95.835938 73.625 C 95.914062 73.3125 96.003906 72.953125 96.003906 72.652344 C 96.003906 72.4375 95.960938 72.257812 95.820312 72.140625 C 95.773438 72.101562 95.707031 72.078125 95.636719 72.078125 C 95.539062 72.078125 95.429688 72.125 95.347656 72.21875 C 95.277344 72.292969 95.242188 72.386719 95.242188 72.46875 C 95.242188 72.554688 95.273438 72.628906 95.339844 72.683594 C 95.53125 72.835938 95.636719 73.066406 95.636719 73.324219 C 95.636719 73.410156 95.621094 73.492188 95.609375 73.578125 C 95.429688 74.257812 94.957031 74.9375 94.355469 74.9375 C 93.941406 74.9375 93.671875 74.6875 93.582031 74.328125 C 93.6875 74.105469 93.773438 73.859375 93.828125 73.625 C 93.84375 73.570312 93.851562 73.507812 93.851562 73.457031 C 93.851562 73.320312 93.796875 73.210938 93.667969 73.210938 C 93.515625 73.210938 93.398438 73.394531 93.359375 73.578125 C 93.292969 73.828125 93.261719 74.074219 93.269531 74.296875 C 93.007812 74.671875 92.632812 74.9375 92.230469 74.9375 C 91.753906 74.9375 91.527344 74.550781 91.527344 74.058594 C 91.527344 73.921875 91.542969 73.777344 91.578125 73.625 C 91.695312 73.179688 91.960938 72.761719 92.269531 72.371094 C 92.289062 72.332031 92.304688 72.292969 92.304688 72.265625 C 92.304688 72.210938 92.273438 72.164062 92.230469 72.132812 C 92.207031 72.117188 92.183594 72.109375 92.152344 72.109375 C 92.097656 72.109375 92.039062 72.140625 92 72.1875 C 91.679688 72.625 91.472656 73.097656 91.351562 73.578125 C 91.28125 73.84375 91.242188 74.105469 91.242188 74.359375 C 91.242188 75.015625 91.503906 75.527344 92.132812 75.527344 C 92.613281 75.527344 93.015625 75.214844 93.328125 74.769531 C 93.445312 75.222656 93.742188 75.527344 94.246094 75.527344 C 95.058594 75.527344 95.609375 74.558594 95.835938 73.625 Z M 95.835938 73.625 "/>
<path style="fill-rule:nonzero;fill:rgb(66.666667%,0%,0%);fill-opacity:1;stroke-width:2;stroke-linecap:square;stroke-linejoin:miter;stroke:rgb(66.666667%,0%,0%);stroke-opacity:1;stroke-miterlimit:3.25;" d="M 166.410156 113.269531 L 173.789062 113.269531 L 159.144531 111.988281 Z M 166.410156 113.269531 "/>
<path style=" stroke:none;fill-rule:evenodd;fill:rgb(66.666667%,0%,0%);fill-opacity:1;" d="M 188.515625 95.785156 C 188.515625 95.742188 188.496094 95.675781 188.472656 95.640625 L 184.800781 88.207031 C 184.722656 88.050781 184.699219 88.007812 184.546875 88.007812 C 184.382812 88.007812 184.359375 88.050781 184.28125 88.207031 L 180.609375 95.640625 C 180.585938 95.675781 180.5625 95.742188 180.5625 95.785156 C 180.5625 95.851562 180.574219 95.863281 180.796875 95.863281 L 188.289062 95.863281 C 188.507812 95.863281 188.515625 95.851562 188.515625 95.785156 Z M 187.207031 95.101562 L 181.210938 95.101562 L 184.207031 89.019531 Z M 187.207031 95.101562 "/>
<path style=" stroke:none;fill-rule:evenodd;fill:rgb(66.666667%,0%,0%);fill-opacity:1;" d="M 193.667969 95.636719 C 193.746094 95.324219 193.839844 94.964844 193.839844 94.664062 C 193.839844 94.453125 193.792969 94.269531 193.65625 94.152344 C 193.609375 94.117188 193.539062 94.09375 193.472656 94.09375 C 193.371094 94.09375 193.265625 94.140625 193.179688 94.230469 C 193.113281 94.304688 193.074219 94.398438 193.074219 94.484375 C 193.074219 94.566406 193.105469 94.640625 193.175781 94.695312 C 193.363281 94.847656 193.472656 95.078125 193.472656 95.335938 C 193.472656 95.421875 193.457031 95.507812 193.441406 95.589844 C 193.265625 96.269531 192.792969 96.949219 192.1875 96.949219 C 191.777344 96.949219 191.507812 96.699219 191.417969 96.339844 C 191.523438 96.117188 191.605469 95.871094 191.660156 95.636719 C 191.675781 95.582031 191.683594 95.523438 191.683594 95.46875 C 191.683594 95.332031 191.628906 95.222656 191.5 95.222656 C 191.347656 95.222656 191.230469 95.40625 191.195312 95.589844 C 191.125 95.839844 191.09375 96.085938 191.101562 96.308594 C 190.84375 96.683594 190.46875 96.949219 190.0625 96.949219 C 189.589844 96.949219 189.359375 96.558594 189.359375 96.070312 C 189.359375 95.933594 189.375 95.789062 189.414062 95.636719 C 189.53125 95.195312 189.796875 94.773438 190.101562 94.382812 C 190.125 94.34375 190.140625 94.304688 190.140625 94.277344 C 190.140625 94.222656 190.109375 94.175781 190.0625 94.148438 C 190.039062 94.132812 190.019531 94.125 189.988281 94.125 C 189.933594 94.125 189.875 94.152344 189.835938 94.199219 C 189.515625 94.636719 189.308594 95.109375 189.1875 95.589844 C 189.117188 95.855469 189.078125 96.117188 189.078125 96.371094 C 189.078125 97.027344 189.339844 97.539062 189.964844 97.539062 C 190.445312 97.539062 190.851562 97.222656 191.164062 96.78125 C 191.277344 97.230469 191.574219 97.539062 192.082031 97.539062 C 192.890625 97.539062 193.441406 96.566406 193.667969 95.636719 Z M 193.667969 95.636719 "/>
<path style="fill:none;stroke-width:1;stroke-linecap:square;stroke-linejoin:miter;stroke:rgb(66.666667%,0%,0%);stroke-opacity:1;stroke-miterlimit:3.25;" d="M 166.410156 113.269531 L 179.058594 100.621094 "/>
<path style=" stroke:none;fill-rule:evenodd;fill:rgb(0%,0%,0%);fill-opacity:1;" d="M 167.5 113 C 167.5 112.601562 167.34375 112.21875 167.0625 111.9375 C 166.78125 111.65625 166.398438 111.5 166 111.5 C 165.601562 111.5 165.21875 111.65625 164.9375 111.9375 C 164.65625 112.21875 164.5 112.601562 164.5 113 C 164.5 113.398438 164.65625 113.78125 164.9375 114.0625 C 165.21875 114.34375 165.601562 114.5 166 114.5 C 166.398438 114.5 166.78125 114.34375 167.0625 114.0625 C 167.34375 113.78125 167.5 113.398438 167.5 113 Z M 167.5 113 "/>
<path style=" stroke:none;fill-rule:evenodd;fill:rgb(0%,0%,0%);fill-opacity:1;" d="M 168.398438 121.550781 C 168.398438 119.734375 167.210938 118.625 165.667969 118.625 C 163.3125 118.625 160.9375 121.15625 160.9375 123.695312 C 160.9375 125.425781 162.082031 126.601562 163.679688 126.601562 C 165.988281 126.601562 168.398438 124.191406 168.398438 121.550781 Z M 167.519531 121.15625 C 167.519531 122.132812 167.101562 123.664062 166.363281 124.710938 C 165.558594 125.832031 164.558594 126.347656 163.742188 126.347656 C 162.839844 126.347656 161.882812 125.6875 161.882812 123.972656 C 161.882812 122.96875 162.246094 121.332031 163.148438 120.230469 C 163.953125 119.261719 164.878906 118.867188 165.613281 118.867188 C 166.582031 118.867188 167.519531 119.570312 167.519531 121.15625 Z M 167.519531 121.15625 "/>
<path style=" stroke:none;fill-rule:evenodd;fill:rgb(0%,0%,0%);fill-opacity:1;" d="M 175.5 29 C 175.5 28.601562 175.34375 28.21875 175.0625 27.9375 C 174.78125 27.65625 174.398438 27.5 174 27.5 C 173.601562 27.5 173.21875 27.65625 172.9375 27.9375 C 172.65625 28.21875 172.5 28.601562 172.5 29 C 172.5 29.398438 172.65625 29.78125 172.9375 30.0625 C 173.21875 30.34375 173.601562 30.5 174 30.5 C 174.398438 30.5 174.78125 30.34375 175.0625 30.0625 C 175.34375 29.78125 175.5 29.398438 175.5 29 Z M 175.5 29 "/>
<path style=" stroke:none;fill-rule:evenodd;fill:rgb(0%,0%,0%);fill-opacity:1;" d="M 179.804688 21.160156 C 179.804688 20.117188 179.125 19.335938 178.121094 19.335938 C 176.667969 19.335938 175.238281 20.917969 175.238281 22.472656 C 175.238281 23.515625 175.921875 24.296875 176.921875 24.296875 C 178.386719 24.296875 179.804688 22.714844 179.804688 21.160156 Z M 179.066406 20.765625 C 179.066406 21.207031 178.839844 22.382812 178.417969 23.054688 C 177.96875 23.792969 177.363281 24.078125 176.933594 24.078125 C 176.382812 24.078125 175.976562 23.640625 175.976562 22.867188 C 175.976562 22.363281 176.242188 21.238281 176.546875 20.691406 C 177.042969 19.839844 177.660156 19.554688 178.113281 19.554688 C 178.652344 19.554688 179.066406 19.996094 179.066406 20.765625 Z M 179.066406 20.765625 "/>
<path style=" stroke:none;fill-rule:evenodd;fill:rgb(0%,0%,0%);fill-opacity:1;" d="M 184.703125 23.960938 C 184.78125 23.648438 184.871094 23.289062 184.871094 22.992188 C 184.871094 22.777344 184.828125 22.59375 184.6875 22.480469 C 184.640625 22.441406 184.574219 22.417969 184.503906 22.417969 C 184.40625 22.417969 184.296875 22.464844 184.214844 22.554688 C 184.144531 22.632812 184.109375 22.722656 184.109375 22.808594 C 184.109375 22.894531 184.140625 22.96875 184.207031 23.023438 C 184.398438 23.175781 184.503906 23.40625 184.503906 23.664062 C 184.503906 23.75 184.488281 23.832031 184.476562 23.917969 C 184.296875 24.597656 183.824219 25.277344 183.222656 25.277344 C 182.808594 25.277344 182.539062 25.023438 182.449219 24.664062 C 182.554688 24.445312 182.640625 24.199219 182.695312 23.960938 C 182.710938 23.910156 182.71875 23.847656 182.71875 23.796875 C 182.71875 23.65625 182.664062 23.550781 182.535156 23.550781 C 182.382812 23.550781 182.265625 23.734375 182.226562 23.917969 C 182.160156 24.167969 182.128906 24.414062 182.136719 24.636719 C 181.875 25.007812 181.5 25.277344 181.097656 25.277344 C 180.621094 25.277344 180.394531 24.886719 180.394531 24.398438 C 180.394531 24.261719 180.410156 24.117188 180.445312 23.960938 C 180.5625 23.519531 180.828125 23.101562 181.136719 22.707031 C 181.15625 22.671875 181.171875 22.632812 181.171875 22.601562 C 181.171875 22.546875 181.140625 22.503906 181.097656 22.472656 C 181.074219 22.457031 181.050781 22.449219 181.019531 22.449219 C 180.964844 22.449219 180.90625 22.480469 180.867188 22.527344 C 180.546875 22.960938 180.339844 23.4375 180.21875 23.917969 C 180.148438 24.183594 180.109375 24.445312 180.109375 24.695312 C 180.109375 25.351562 180.371094 25.867188 180.996094 25.867188 C 181.480469 25.867188 181.882812 25.550781 182.195312 25.109375 C 182.3125 25.558594 182.609375 25.867188 183.113281 25.867188 C 183.925781 25.867188 184.476562 24.894531 184.703125 23.960938 Z M 184.703125 23.960938 "/>
<path style="fill:none;stroke-width:1;stroke-linecap:butt;stroke-linejoin:miter;stroke:rgb(0%,0%,0%);stroke-opacity:1;stroke-dasharray:1,4;stroke-miterlimit:3.25;" d="M 173.789062 28.945312 L 173.789062 113.269531 "/>
<path style="fill:none;stroke-width:1;stroke-linecap:butt;stroke-linejoin:miter;stroke:rgb(0%,0%,0%);stroke-opacity:1;stroke-dasharray:1,4;stroke-miterlimit:3.25;" d="M 173.789062 28.945312 L 159.144531 111.988281 "/>
<path style="fill:none;stroke-width:0.2;stroke-linecap:square;stroke-linejoin:miter;stroke:rgb(0%,0%,0%);stroke-opacity:1;stroke-miterlimit:3.25;" d="M 178.847656 113.269531 L 178.847656 108.210938 L 173.789062 108.210938 "/>
<path style="fill:none;stroke-width:0.2;stroke-linecap:square;stroke-linejoin:miter;stroke:rgb(0%,0%,0%);stroke-opacity:1;stroke-miterlimit:3.25;" d="M 154.164062 111.109375 L 155.039062 106.128906 L 160.023438 107.007812 "/>
<g clip-path="url(#clip6)" clip-rule="nonzero">
<path style=" stroke:none;fill-rule:nonzero;fill:rgb(74.999619%,74.999619%,74.999619%);fill-opacity:1;" d="M 316.726562 62.628906 L 458.078125 62.628906 L 458.078125 203.976562 L 493.414062 203.976562 L 493.414062 27.289062 L 316.726562 27.289062 Z M 316.726562 62.628906 "/>
</g>
<g clip-path="url(#clip7)" clip-rule="nonzero">
<path style="fill:none;stroke-width:1.5;stroke-linecap:square;stroke-linejoin:miter;stroke:rgb(0%,0%,0%);stroke-opacity:1;stroke-miterlimit:3.25;" d="M 316.726562 62.628906 L 458.078125 62.628906 "/>
</g>
<g clip-path="url(#clip8)" clip-rule="nonzero">
<path style="fill:none;stroke-width:1.5;stroke-linecap:square;stroke-linejoin:miter;stroke:rgb(0%,0%,0%);stroke-opacity:1;stroke-miterlimit:3.25;" d="M 458.078125 118.832031 L 458.078125 62.628906 "/>
</g>
<path style=" stroke:none;fill-rule:nonzero;fill:rgb(0%,0%,0%);fill-opacity:1;" d="M 458.078125 62.628906 L 458.828125 63.378906 L 458.828125 61.878906 L 458.078125 61.878906 Z M 458.078125 62.628906 "/>
<g clip-path="url(#clip9)" clip-rule="nonzero">
<path style="fill:none;stroke-width:1.5;stroke-linecap:square;stroke-linejoin:miter;stroke:rgb(0%,0%,0%);stroke-opacity:1;stroke-miterlimit:3.25;" d="M 458.078125 118.832031 L 458.078125 62.628906 "/>
</g>
<path style=" stroke:none;fill-rule:nonzero;fill:rgb(0%,0%,0%);fill-opacity:1;" d="M 458.078125 62.628906 L 458.828125 63.378906 L 458.828125 61.878906 L 458.078125 61.878906 Z M 458.078125 62.628906 "/>
<g clip-path="url(#clip10)" clip-rule="nonzero">
<path style="fill:none;stroke-width:1.5;stroke-linecap:square;stroke-linejoin:miter;stroke:rgb(0%,0%,0%);stroke-opacity:1;stroke-miterlimit:3.25;" d="M 316.726562 27.289062 L 493.414062 27.289062 "/>
</g>
<g clip-path="url(#clip11)" clip-rule="nonzero">
<path style="fill:none;stroke-width:1.5;stroke-linecap:square;stroke-linejoin:miter;stroke:rgb(0%,0%,0%);stroke-opacity:1;stroke-miterlimit:3.25;" d="M 493.414062 118.832031 L 493.414062 27.289062 "/>
</g>
<path style=" stroke:none;fill-rule:nonzero;fill:rgb(0%,0%,0%);fill-opacity:1;" d="M 493.414062 27.289062 L 494.164062 28.039062 L 494.164062 26.539062 L 493.414062 26.539062 Z M 493.414062 27.289062 "/>
<g clip-path="url(#clip12)" clip-rule="nonzero">
<path style="fill:none;stroke-width:1.5;stroke-linecap:square;stroke-linejoin:miter;stroke:rgb(0%,0%,0%);stroke-opacity:1;stroke-miterlimit:3.25;" d="M 493.414062 118.832031 L 493.414062 27.289062 "/>
</g>
<path style=" stroke:none;fill-rule:nonzero;fill:rgb(0%,0%,0%);fill-opacity:1;" d="M 493.414062 27.289062 L 494.164062 28.039062 L 494.164062 26.539062 L 493.414062 26.539062 Z M 493.414062 27.289062 "/>
<path style=" stroke:none;fill-rule:nonzero;fill:rgb(100%,100%,86.999313%);fill-opacity:1;" d="M 415.054688 58.867188 L 415.058594 58.855469 L 415.296875 57.632812 L 415.589844 56.4375 L 415.933594 55.261719 L 416.328125 54.117188 L 416.773438 53 L 417.261719 51.910156 L 417.800781 50.855469 L 418.382812 49.835938 L 419.007812 48.855469 L 419.675781 47.910156 L 420.382812 47.007812 L 421.128906 46.144531 L 421.914062 45.324219 L 422.730469 44.550781 L 423.582031 43.824219 L 424.460938 43.144531 L 425.371094 42.515625 L 426.308594 41.933594 L 427.269531 41.40625 L 428.253906 40.929688 L 429.257812 40.511719 L 430.28125 40.144531 L 431.316406 39.832031 L 432.367188 39.578125 L 433.429688 39.382812 L 434.496094 39.246094 L 435.566406 39.171875 L 436.636719 39.15625 L 437.707031 39.199219 L 438.777344 39.304688 L 439.839844 39.46875 L 440.898438 39.691406 L 441.941406 39.96875 L 442.972656 40.308594 L 443.984375 40.699219 L 444.980469 41.144531 L 445.953125 41.644531 L 446.90625 42.199219 L 447.828125 42.800781 L 448.726562 43.453125 L 449.59375 44.15625 L 450.429688 44.90625 L 451.230469 45.699219 L 451.996094 46.539062 L 452.726562 47.421875 L 453.414062 48.34375 L 454.0625 49.308594 L 454.667969 50.308594 L 455.230469 51.34375 L 455.746094 52.414062 L 456.214844 53.515625 L 456.636719 54.644531 L 457.007812 55.804688 L 457.328125 56.988281 L 457.59375 58.199219 L 457.8125 59.429688 L 457.972656 60.675781 L 458.058594 60.746094 L 458.152344 60.816406 L 458.207031 60.855469 L 458.257812 60.894531 L 458.3125 60.933594 L 458.371094 60.972656 L 458.496094 61.050781 L 458.558594 61.09375 L 458.628906 61.132812 L 458.695312 61.175781 L 458.84375 61.261719 L 458.921875 61.300781 L 459 61.34375 L 459.082031 61.386719 L 459.167969 61.429688 L 459.253906 61.476562 L 459.34375 61.519531 L 459.53125 61.605469 L 459.628906 61.648438 L 459.730469 61.691406 L 459.832031 61.730469 L 460.042969 61.816406 L 460.15625 61.855469 L 460.265625 61.898438 L 460.5 61.976562 L 460.621094 62.015625 L 460.871094 62.09375 L 461 62.128906 L 461.265625 62.199219 L 461.402344 62.234375 L 461.539062 62.265625 L 461.683594 62.296875 L 461.824219 62.328125 L 461.972656 62.359375 L 462.121094 62.386719 L 462.273438 62.414062 L 462.429688 62.441406 L 462.585938 62.464844 L 462.746094 62.488281 L 462.90625 62.507812 L 463.070312 62.527344 L 463.238281 62.546875 L 463.40625 62.5625 L 463.578125 62.578125 L 463.929688 62.601562 L 464.109375 62.609375 L 464.296875 62.617188 L 464.5 62.625 L 464.699219 62.625 L 464.902344 62.628906 L 493.414062 62.628906 L 493.347656 61.375 L 493.253906 60.132812 L 493.125 58.910156 L 492.96875 57.707031 L 492.785156 56.515625 L 492.574219 55.347656 L 492.335938 54.199219 L 492.070312 53.070312 L 491.777344 51.960938 L 491.464844 50.878906 L 491.128906 49.816406 L 490.769531 48.777344 L 490.390625 47.765625 L 489.992188 46.777344 L 489.574219 45.816406 L 489.140625 44.878906 L 488.691406 43.972656 L 488.222656 43.089844 L 487.746094 42.238281 L 487.253906 41.410156 L 486.75 40.613281 L 486.238281 39.847656 L 485.71875 39.105469 L 485.191406 38.398438 L 484.65625 37.714844 L 484.121094 37.066406 L 483.582031 36.445312 L 483.042969 35.855469 L 482.503906 35.296875 L 481.984375 34.785156 L 439.511719 27.296875 L 407.183594 27.304688 L 406.683594 27.328125 L 406.175781 27.371094 L 405.65625 27.421875 L 405.125 27.492188 L 404.585938 27.574219 L 404.039062 27.675781 L 403.480469 27.789062 L 402.917969 27.921875 L 402.34375 28.074219 L 401.765625 28.242188 L 401.179688 28.425781 L 400.589844 28.632812 L 399.992188 28.855469 L 399.390625 29.097656 L 398.785156 29.359375 L 398.175781 29.644531 L 397.5625 29.949219 L 396.945312 30.273438 L 396.332031 30.617188 L 395.714844 30.984375 L 395.097656 31.375 L 394.480469 31.785156 L 393.863281 32.21875 L 393.25 32.675781 L 392.640625 33.152344 L 392.109375 33.59375 L 391.582031 34.050781 L 391.054688 34.535156 L 390.519531 35.046875 L 389.984375 35.59375 L 389.445312 36.167969 L 388.90625 36.773438 L 388.367188 37.410156 L 387.832031 38.078125 L 387.300781 38.773438 L 386.777344 39.5 L 386.261719 40.253906 L 385.753906 41.039062 L 385.257812 41.851562 L 384.773438 42.691406 L 384.300781 43.558594 L 383.84375 44.453125 L 383.398438 45.378906 L 382.976562 46.328125 L 382.566406 47.304688 L 382.179688 48.304688 L 381.808594 49.332031 L 381.464844 50.382812 L 381.140625 51.453125 L 380.835938 52.550781 L 380.769531 52.820312 Z M 415.054688 58.867188 "/>
<g clip-path="url(#clip13)" clip-rule="nonzero">
<path style="fill:none;stroke-width:1.5;stroke-linecap:square;stroke-linejoin:miter;stroke:rgb(0%,0%,0%);stroke-opacity:1;stroke-miterlimit:3.25;" d="M 415.054688 58.867188 L 415.058594 58.855469 L 415.296875 57.632812 L 415.589844 56.4375 L 415.933594 55.261719 L 416.328125 54.117188 L 416.773438 53 L 417.261719 51.910156 L 417.800781 50.855469 L 418.382812 49.835938 L 419.007812 48.855469 L 419.675781 47.910156 L 420.382812 47.007812 L 421.128906 46.144531 L 421.914062 45.324219 L 422.730469 44.550781 L 423.582031 43.824219 L 424.460938 43.144531 L 425.371094 42.515625 L 426.308594 41.933594 L 427.269531 41.40625 L 428.253906 40.929688 L 429.257812 40.511719 L 430.28125 40.144531 L 431.316406 39.832031 L 432.367188 39.578125 L 433.429688 39.382812 L 434.496094 39.246094 L 435.566406 39.171875 L 436.636719 39.15625 L 437.707031 39.199219 L 438.777344 39.304688 L 439.839844 39.46875 L 440.898438 39.691406 L 441.941406 39.96875 L 442.972656 40.308594 L 443.984375 40.699219 L 444.980469 41.144531 L 445.953125 41.644531 L 446.90625 42.199219 L 447.828125 42.800781 L 448.726562 43.453125 L 449.59375 44.15625 L 450.429688 44.90625 L 451.230469 45.699219 L 451.996094 46.539062 L 452.726562 47.421875 L 453.414062 48.34375 L 454.0625 49.308594 L 454.667969 50.308594 L 455.230469 51.34375 L 455.746094 52.414062 L 456.214844 53.515625 L 456.636719 54.644531 L 457.007812 55.804688 L 457.328125 56.988281 L 457.59375 58.199219 L 457.8125 59.429688 L 457.972656 60.675781 L 458.058594 60.746094 L 458.152344 60.816406 L 458.207031 60.855469 L 458.257812 60.894531 L 458.3125 60.933594 L 458.371094 60.972656 L 458.496094 61.050781 L 458.558594 61.09375 L 458.628906 61.132812 L 458.695312 61.175781 L 458.84375 61.261719 L 458.921875 61.300781 L 459 61.34375 L 459.082031 61.386719 L 459.167969 61.429688 L 459.253906 61.476562 L 459.34375 61.519531 L 459.53125 61.605469 L 459.628906 61.648438 L 459.730469 61.691406 L 459.832031 61.730469 L 460.042969 61.816406 L 460.15625 61.855469 L 460.265625 61.898438 L 460.5 61.976562 L 460.621094 62.015625 L 460.871094 62.09375 L 461 62.128906 L 461.265625 62.199219 L 461.402344 62.234375 L 461.539062 62.265625 L 461.683594 62.296875 L 461.824219 62.328125 L 461.972656 62.359375 L 462.121094 62.386719 L 462.273438 62.414062 L 462.429688 62.441406 L 462.585938 62.464844 L 462.746094 62.488281 L 462.90625 62.507812 L 463.070312 62.527344 L 463.238281 62.546875 L 463.40625 62.5625 L 463.578125 62.578125 L 463.929688 62.601562 L 464.109375 62.609375 L 464.296875 62.617188 L 464.5 62.625 L 464.699219 62.625 L 464.902344 62.628906 L 493.414062 62.628906 L 493.347656 61.375 L 493.253906 60.132812 L 493.125 58.910156 L 492.96875 57.707031 L 492.785156 56.515625 L 492.574219 55.347656 L 492.335938 54.199219 L 492.070312 53.070312 L 491.777344 51.960938 L 491.464844 50.878906 L 491.128906 49.816406 L 490.769531 48.777344 L 490.390625 47.765625 L 489.992188 46.777344 L 489.574219 45.816406 L 489.140625 44.878906 L 488.691406 43.972656 L 488.222656 43.089844 L 487.746094 42.238281 L 487.253906 41.410156 L 486.75 40.613281 L 486.238281 39.847656 L 485.71875 39.105469 L 485.191406 38.398438 L 484.65625 37.714844 L 484.121094 37.066406 L 483.582031 36.445312 L 483.042969 35.855469 L 482.503906 35.296875 L 481.984375 34.785156 L 439.511719 27.296875 L 407.183594 27.304688 L 406.683594 27.328125 L 406.175781 27.371094 L 405.65625 27.421875 L 405.125 27.492188 L 404.585938 27.574219 L 404.039062 27.675781 L 403.480469 27.789062 L 402.917969 27.921875 L 402.34375 28.074219 L 401.765625 28.242188 L 401.179688 28.425781 L 400.589844 28.632812 L 399.992188 28.855469 L 399.390625 29.097656 L 398.785156 29.359375 L 398.175781 29.644531 L 397.5625 29.949219 L 396.945312 30.273438 L 396.332031 30.617188 L 395.714844 30.984375 L 395.097656 31.375 L 394.480469 31.785156 L 393.863281 32.21875 L 393.25 32.675781 L 392.640625 33.152344 L 392.109375 33.59375 L 391.582031 34.050781 L 391.054688 34.535156 L 390.519531 35.046875 L 389.984375 35.59375 L 389.445312 36.167969 L 388.90625 36.773438 L 388.367188 37.410156 L 387.832031 38.078125 L 387.300781 38.773438 L 386.777344 39.5 L 386.261719 40.253906 L 385.753906 41.039062 L 385.257812 41.851562 L 384.773438 42.691406 L 384.300781 43.558594 L 383.84375 44.453125 L 383.398438 45.378906 L 382.976562 46.328125 L 382.566406 47.304688 L 382.179688 48.304688 L 381.808594 49.332031 L 381.464844 50.382812 L 381.140625 51.453125 L 380.835938 52.550781 L 380.769531 52.820312 Z M 415.054688 58.867188 "/>
</g>
<path style=" stroke:none;fill-rule:nonzero;fill:rgb(66.666667%,0%,0%);fill-opacity:1;" d="M 436.386719 62.628906 L 439.480469 62.628906 L 433.34375 62.089844 Z M 436.386719 62.628906 "/>
<g clip-path="url(#clip14)" clip-rule="nonzero">
<path style="fill:none;stroke-width:2;stroke-linecap:square;stroke-linejoin:miter;stroke:rgb(66.666667%,0%,0%);stroke-opacity:1;stroke-miterlimit:3.25;" d="M 436.386719 62.628906 L 439.480469 62.628906 L 433.34375 62.089844 Z M 436.386719 62.628906 "/>
</g>
<path style=" stroke:none;fill-rule:evenodd;fill:rgb(66.666667%,0%,0%);fill-opacity:1;" d="M 447.613281 56.023438 C 447.613281 55.980469 447.589844 55.914062 447.570312 55.882812 L 443.894531 48.445312 C 443.820312 48.292969 443.796875 48.246094 443.640625 48.246094 C 443.476562 48.246094 443.457031 48.292969 443.378906 48.445312 L 439.703125 55.882812 C 439.683594 55.914062 439.660156 55.980469 439.660156 56.023438 C 439.660156 56.089844 439.671875 56.101562 439.890625 56.101562 L 447.382812 56.101562 C 447.601562 56.101562 447.613281 56.089844 447.613281 56.023438 Z M 446.304688 55.34375 L 440.308594 55.34375 L 443.300781 49.257812 Z M 446.304688 55.34375 "/>
<path style=" stroke:none;fill-rule:evenodd;fill:rgb(66.666667%,0%,0%);fill-opacity:1;" d="M 452.765625 55.875 C 452.839844 55.5625 452.933594 55.203125 452.933594 54.90625 C 452.933594 54.691406 452.886719 54.507812 452.75 54.394531 C 452.703125 54.355469 452.636719 54.332031 452.566406 54.332031 C 452.46875 54.332031 452.359375 54.378906 452.277344 54.46875 C 452.207031 54.546875 452.171875 54.636719 452.171875 54.722656 C 452.171875 54.808594 452.203125 54.882812 452.269531 54.9375 C 452.460938 55.089844 452.566406 55.316406 452.566406 55.578125 C 452.566406 55.660156 452.550781 55.746094 452.539062 55.828125 C 452.359375 56.507812 451.886719 57.1875 451.285156 57.1875 C 450.871094 57.1875 450.601562 56.9375 450.511719 56.578125 C 450.617188 56.355469 450.703125 56.113281 450.757812 55.875 C 450.773438 55.820312 450.78125 55.761719 450.78125 55.707031 C 450.78125 55.570312 450.726562 55.464844 450.597656 55.464844 C 450.445312 55.464844 450.328125 55.644531 450.289062 55.828125 C 450.222656 56.082031 450.191406 56.328125 450.199219 56.546875 C 449.9375 56.921875 449.5625 57.1875 449.160156 57.1875 C 448.6875 57.1875 448.457031 56.800781 448.457031 56.3125 C 448.457031 56.171875 448.472656 56.027344 448.511719 55.875 C 448.625 55.433594 448.894531 55.011719 449.199219 54.621094 C 449.222656 54.585938 449.238281 54.546875 449.238281 54.515625 C 449.238281 54.460938 449.203125 54.417969 449.160156 54.386719 C 449.136719 54.371094 449.113281 54.363281 449.082031 54.363281 C 449.03125 54.363281 448.96875 54.394531 448.929688 54.441406 C 448.609375 54.875 448.402344 55.347656 448.28125 55.828125 C 448.214844 56.097656 448.175781 56.355469 448.175781 56.609375 C 448.175781 57.265625 448.433594 57.777344 449.0625 57.777344 C 449.542969 57.777344 449.945312 57.464844 450.257812 57.023438 C 450.375 57.472656 450.671875 57.777344 451.175781 57.777344 C 451.988281 57.777344 452.539062 56.808594 452.765625 55.875 Z M 452.765625 55.875 "/>
<path style="fill:none;stroke-width:1;stroke-linecap:square;stroke-linejoin:miter;stroke:rgb(66.666667%,0%,0%);stroke-opacity:1;stroke-miterlimit:3.25;" d="M 436.386719 62.628906 L 438.15625 60.859375 "/>
<g clip-path="url(#clip15)" clip-rule="nonzero">
<path style=" stroke:none;fill-rule:nonzero;fill:rgb(74.999619%,74.999619%,74.999619%);fill-opacity:1;" d="M 316.726562 115.398438 L 458.078125 115.398438 L 458.078125 256.746094 L 493.414062 256.746094 L 493.414062 80.0625 L 316.726562 80.0625 Z M 316.726562 115.398438 "/>
</g>
<g clip-path="url(#clip16)" clip-rule="nonzero">
<path style="fill:none;stroke-width:1.5;stroke-linecap:square;stroke-linejoin:miter;stroke:rgb(0%,0%,0%);stroke-opacity:1;stroke-miterlimit:3.25;" d="M 316.726562 115.398438 L 458.078125 115.398438 "/>
</g>
<g clip-path="url(#clip17)" clip-rule="nonzero">
<path style="fill:none;stroke-width:1.5;stroke-linecap:square;stroke-linejoin:miter;stroke:rgb(0%,0%,0%);stroke-opacity:1;stroke-miterlimit:3.25;" d="M 458.078125 171.632812 L 458.078125 115.398438 "/>
</g>
<path style=" stroke:none;fill-rule:nonzero;fill:rgb(0%,0%,0%);fill-opacity:1;" d="M 458.078125 115.398438 L 458.828125 116.148438 L 458.828125 114.648438 L 458.078125 114.648438 Z M 458.078125 115.398438 "/>
<g clip-path="url(#clip18)" clip-rule="nonzero">
<path style="fill:none;stroke-width:1.5;stroke-linecap:square;stroke-linejoin:miter;stroke:rgb(0%,0%,0%);stroke-opacity:1;stroke-miterlimit:3.25;" d="M 458.078125 171.632812 L 458.078125 115.398438 "/>
</g>
<path style=" stroke:none;fill-rule:nonzero;fill:rgb(0%,0%,0%);fill-opacity:1;" d="M 458.078125 115.398438 L 458.828125 116.148438 L 458.828125 114.648438 L 458.078125 114.648438 Z M 458.078125 115.398438 "/>
<g clip-path="url(#clip19)" clip-rule="nonzero">
<path style="fill:none;stroke-width:1.5;stroke-linecap:square;stroke-linejoin:miter;stroke:rgb(0%,0%,0%);stroke-opacity:1;stroke-miterlimit:3.25;" d="M 316.726562 80.0625 L 493.414062 80.0625 "/>
</g>
<g clip-path="url(#clip20)" clip-rule="nonzero">
<path style="fill:none;stroke-width:1.5;stroke-linecap:square;stroke-linejoin:miter;stroke:rgb(0%,0%,0%);stroke-opacity:1;stroke-miterlimit:3.25;" d="M 493.414062 171.632812 L 493.414062 80.0625 "/>
</g>
<path style=" stroke:none;fill-rule:nonzero;fill:rgb(0%,0%,0%);fill-opacity:1;" d="M 493.414062 80.0625 L 494.164062 80.8125 L 494.164062 79.3125 L 493.414062 79.3125 Z M 493.414062 80.0625 "/>
<g clip-path="url(#clip21)" clip-rule="nonzero">
<path style="fill:none;stroke-width:1.5;stroke-linecap:square;stroke-linejoin:miter;stroke:rgb(0%,0%,0%);stroke-opacity:1;stroke-miterlimit:3.25;" d="M 493.414062 171.632812 L 493.414062 80.0625 "/>
</g>
<path style=" stroke:none;fill-rule:nonzero;fill:rgb(0%,0%,0%);fill-opacity:1;" d="M 493.414062 80.0625 L 494.164062 80.8125 L 494.164062 79.3125 L 493.414062 79.3125 Z M 493.414062 80.0625 "/>
<path style=" stroke:none;fill-rule:nonzero;fill:rgb(100%,100%,86.999313%);fill-opacity:1;" d="M 414.726562 115.398438 L 414.726562 115.386719 L 414.75 114.140625 L 414.832031 112.910156 L 414.964844 111.695312 L 415.15625 110.5 L 415.398438 109.320312 L 415.691406 108.164062 L 416.039062 107.035156 L 416.433594 105.929688 L 416.882812 104.851562 L 417.375 103.804688 L 417.914062 102.792969 L 418.5 101.8125 L 419.128906 100.871094 L 419.800781 99.96875 L 420.511719 99.101562 L 421.261719 98.28125 L 422.046875 97.503906 L 422.871094 96.769531 L 423.722656 96.082031 L 424.609375 95.445312 L 425.527344 94.855469 L 426.46875 94.316406 L 427.4375 93.828125 L 428.425781 93.398438 L 429.4375 93.019531 L 430.464844 92.703125 L 431.503906 92.441406 L 432.558594 92.238281 L 433.621094 92.097656 L 434.691406 92.011719 L 435.765625 91.988281 L 436.84375 92.027344 L 437.921875 92.121094 L 438.996094 92.273438 L 440.0625 92.484375 L 441.121094 92.75 L 442.164062 93.074219 L 443.195312 93.453125 L 444.210938 93.886719 L 445.210938 94.375 L 446.183594 94.914062 L 447.136719 95.507812 L 448.066406 96.148438 L 448.964844 96.84375 L 449.835938 97.585938 L 450.675781 98.375 L 451.480469 99.210938 L 452.25 100.089844 L 452.984375 101.011719 L 453.679688 101.976562 L 454.332031 102.980469 L 454.941406 104.023438 L 455.507812 105.097656 L 456.03125 106.210938 L 456.503906 107.355469 L 456.929688 108.527344 L 457.304688 109.730469 L 457.351562 109.753906 L 457.453125 109.808594 L 457.507812 109.835938 L 457.625 109.890625 L 457.6875 109.921875 L 457.75 109.949219 L 457.816406 109.976562 L 457.886719 110.007812 L 457.957031 110.035156 L 458.03125 110.066406 L 458.105469 110.09375 L 458.183594 110.121094 L 458.265625 110.152344 L 458.347656 110.179688 L 458.433594 110.207031 L 458.523438 110.238281 L 458.613281 110.265625 L 458.707031 110.292969 L 458.804688 110.320312 L 458.902344 110.34375 L 459 110.371094 L 459.105469 110.394531 L 459.210938 110.421875 L 459.429688 110.46875 L 459.542969 110.492188 L 459.777344 110.53125 L 459.898438 110.550781 L 460.023438 110.570312 L 460.148438 110.585938 L 460.277344 110.605469 L 460.40625 110.617188 L 460.539062 110.632812 L 460.8125 110.65625 L 460.953125 110.667969 L 461.09375 110.675781 L 461.238281 110.679688 L 461.386719 110.6875 L 461.539062 110.691406 L 462 110.691406 L 462.320312 110.683594 L 462.648438 110.667969 L 462.816406 110.65625 L 462.984375 110.640625 L 463.15625 110.625 L 463.332031 110.609375 L 463.507812 110.589844 L 463.683594 110.566406 L 463.871094 110.542969 L 464.269531 110.480469 L 464.46875 110.445312 L 492.546875 105.496094 L 492.265625 104.273438 L 491.957031 103.066406 L 491.617188 101.886719 L 491.253906 100.726562 L 490.867188 99.585938 L 490.457031 98.472656 L 490.019531 97.382812 L 489.5625 96.316406 L 489.085938 95.277344 L 488.589844 94.261719 L 488.074219 93.277344 L 487.539062 92.316406 L 486.988281 91.382812 L 486.425781 90.480469 L 485.847656 89.605469 L 485.257812 88.761719 L 484.65625 87.945312 L 484.042969 87.15625 L 483.425781 86.398438 L 482.796875 85.671875 L 482.164062 84.972656 L 481.527344 84.304688 L 480.886719 83.667969 L 480.242188 83.0625 L 479.597656 82.484375 L 478.957031 81.933594 L 478.316406 81.417969 L 477.683594 80.933594 L 477.058594 80.476562 L 476.457031 80.0625 L 433.328125 80.0625 L 401.492188 85.683594 L 401.003906 85.792969 L 400.511719 85.921875 L 400.007812 86.066406 L 399.5 86.222656 L 398.984375 86.402344 L 398.460938 86.59375 L 397.933594 86.804688 L 397.398438 87.03125 L 396.863281 87.28125 L 396.320312 87.546875 L 395.777344 87.832031 L 395.230469 88.132812 L 394.679688 88.457031 L 394.128906 88.800781 L 393.578125 89.167969 L 393.027344 89.550781 L 392.476562 89.957031 L 391.929688 90.382812 L 391.382812 90.832031 L 390.835938 91.300781 L 390.296875 91.789062 L 389.761719 92.300781 L 389.230469 92.835938 L 388.707031 93.390625 L 388.1875 93.96875 L 387.738281 94.492188 L 387.300781 95.035156 L 386.863281 95.601562 L 386.425781 96.203125 L 385.992188 96.832031 L 385.5625 97.492188 L 385.136719 98.179688 L 384.71875 98.902344 L 384.304688 99.652344 L 383.902344 100.429688 L 383.515625 101.234375 L 383.136719 102.070312 L 382.773438 102.929688 L 382.425781 103.816406 L 382.09375 104.726562 L 381.78125 105.664062 L 381.484375 106.625 L 381.210938 107.609375 L 380.957031 108.621094 L 380.722656 109.652344 L 380.515625 110.707031 L 380.332031 111.78125 L 380.171875 112.875 L 380.039062 113.988281 L 379.933594 115.121094 L 379.914062 115.398438 Z M 414.726562 115.398438 "/>
<g clip-path="url(#clip22)" clip-rule="nonzero">
<path style="fill:none;stroke-width:1.5;stroke-linecap:square;stroke-linejoin:miter;stroke:rgb(0%,0%,0%);stroke-opacity:1;stroke-miterlimit:3.25;" d="M 414.726562 115.398438 L 414.726562 115.386719 L 414.75 114.140625 L 414.832031 112.910156 L 414.964844 111.695312 L 415.15625 110.5 L 415.398438 109.320312 L 415.691406 108.164062 L 416.039062 107.035156 L 416.433594 105.929688 L 416.882812 104.851562 L 417.375 103.804688 L 417.914062 102.792969 L 418.5 101.8125 L 419.128906 100.871094 L 419.800781 99.96875 L 420.511719 99.101562 L 421.261719 98.28125 L 422.046875 97.503906 L 422.871094 96.769531 L 423.722656 96.082031 L 424.609375 95.445312 L 425.527344 94.855469 L 426.46875 94.316406 L 427.4375 93.828125 L 428.425781 93.398438 L 429.4375 93.019531 L 430.464844 92.703125 L 431.503906 92.441406 L 432.558594 92.238281 L 433.621094 92.097656 L 434.691406 92.011719 L 435.765625 91.988281 L 436.84375 92.027344 L 437.921875 92.121094 L 438.996094 92.273438 L 440.0625 92.484375 L 441.121094 92.75 L 442.164062 93.074219 L 443.195312 93.453125 L 444.210938 93.886719 L 445.210938 94.375 L 446.183594 94.914062 L 447.136719 95.507812 L 448.066406 96.148438 L 448.964844 96.84375 L 449.835938 97.585938 L 450.675781 98.375 L 451.480469 99.210938 L 452.25 100.089844 L 452.984375 101.011719 L 453.679688 101.976562 L 454.332031 102.980469 L 454.941406 104.023438 L 455.507812 105.097656 L 456.03125 106.210938 L 456.503906 107.355469 L 456.929688 108.527344 L 457.304688 109.730469 L 457.351562 109.753906 L 457.453125 109.808594 L 457.507812 109.835938 L 457.625 109.890625 L 457.6875 109.921875 L 457.75 109.949219 L 457.816406 109.976562 L 457.886719 110.007812 L 457.957031 110.035156 L 458.03125 110.066406 L 458.105469 110.09375 L 458.183594 110.121094 L 458.265625 110.152344 L 458.347656 110.179688 L 458.433594 110.207031 L 458.523438 110.238281 L 458.613281 110.265625 L 458.707031 110.292969 L 458.804688 110.320312 L 458.902344 110.34375 L 459 110.371094 L 459.105469 110.394531 L 459.210938 110.421875 L 459.429688 110.46875 L 459.542969 110.492188 L 459.777344 110.53125 L 459.898438 110.550781 L 460.023438 110.570312 L 460.148438 110.585938 L 460.277344 110.605469 L 460.40625 110.617188 L 460.539062 110.632812 L 460.8125 110.65625 L 460.953125 110.667969 L 461.09375 110.675781 L 461.238281 110.679688 L 461.386719 110.6875 L 461.539062 110.691406 L 462 110.691406 L 462.320312 110.683594 L 462.648438 110.667969 L 462.816406 110.65625 L 462.984375 110.640625 L 463.15625 110.625 L 463.332031 110.609375 L 463.507812 110.589844 L 463.683594 110.566406 L 463.871094 110.542969 L 464.269531 110.480469 L 464.46875 110.445312 L 492.546875 105.496094 L 492.265625 104.273438 L 491.957031 103.066406 L 491.617188 101.886719 L 491.253906 100.726562 L 490.867188 99.585938 L 490.457031 98.472656 L 490.019531 97.382812 L 489.5625 96.316406 L 489.085938 95.277344 L 488.589844 94.261719 L 488.074219 93.277344 L 487.539062 92.316406 L 486.988281 91.382812 L 486.425781 90.480469 L 485.847656 89.605469 L 485.257812 88.761719 L 484.65625 87.945312 L 484.042969 87.15625 L 483.425781 86.398438 L 482.796875 85.671875 L 482.164062 84.972656 L 481.527344 84.304688 L 480.886719 83.667969 L 480.242188 83.0625 L 479.597656 82.484375 L 478.957031 81.933594 L 478.316406 81.417969 L 477.683594 80.933594 L 477.058594 80.476562 L 476.457031 80.0625 L 433.328125 80.0625 L 401.492188 85.683594 L 401.003906 85.792969 L 400.511719 85.921875 L 400.007812 86.066406 L 399.5 86.222656 L 398.984375 86.402344 L 398.460938 86.59375 L 397.933594 86.804688 L 397.398438 87.03125 L 396.863281 87.28125 L 396.320312 87.546875 L 395.777344 87.832031 L 395.230469 88.132812 L 394.679688 88.457031 L 394.128906 88.800781 L 393.578125 89.167969 L 393.027344 89.550781 L 392.476562 89.957031 L 391.929688 90.382812 L 391.382812 90.832031 L 390.835938 91.300781 L 390.296875 91.789062 L 389.761719 92.300781 L 389.230469 92.835938 L 388.707031 93.390625 L 388.1875 93.96875 L 387.738281 94.492188 L 387.300781 95.035156 L 386.863281 95.601562 L 386.425781 96.203125 L 385.992188 96.832031 L 385.5625 97.492188 L 385.136719 98.179688 L 384.71875 98.902344 L 384.304688 99.652344 L 383.902344 100.429688 L 383.515625 101.234375 L 383.136719 102.070312 L 382.773438 102.929688 L 382.425781 103.816406 L 382.09375 104.726562 L 381.78125 105.664062 L 381.484375 106.625 L 381.210938 107.609375 L 380.957031 108.621094 L 380.722656 109.652344 L 380.515625 110.707031 L 380.332031 111.78125 L 380.171875 112.875 L 380.039062 113.988281 L 379.933594 115.121094 L 379.914062 115.398438 Z M 414.726562 115.398438 "/>
</g>
<path style=" stroke:none;fill-rule:nonzero;fill:rgb(66.666667%,0%,0%);fill-opacity:1;" d="M 436.386719 115.398438 L 439.433594 114.859375 L 433.296875 115.398438 Z M 436.386719 115.398438 "/>
<g clip-path="url(#clip23)" clip-rule="nonzero">
<path style="fill:none;stroke-width:2;stroke-linecap:square;stroke-linejoin:miter;stroke:rgb(66.666667%,0%,0%);stroke-opacity:1;stroke-miterlimit:3.25;" d="M 436.386719 115.398438 L 439.433594 114.859375 L 433.296875 115.398438 Z M 436.386719 115.398438 "/>
</g>
<path style=" stroke:none;fill-rule:evenodd;fill:rgb(66.666667%,0%,0%);fill-opacity:1;" d="M 427.304688 108.796875 C 427.304688 108.75 427.28125 108.683594 427.257812 108.652344 L 423.585938 101.214844 C 423.507812 101.0625 423.488281 101.019531 423.332031 101.019531 C 423.167969 101.019531 423.144531 101.0625 423.066406 101.214844 L 419.394531 108.652344 C 419.371094 108.683594 419.351562 108.75 419.351562 108.796875 C 419.351562 108.859375 419.359375 108.871094 419.582031 108.871094 L 427.074219 108.871094 C 427.292969 108.871094 427.304688 108.859375 427.304688 108.796875 Z M 425.992188 108.113281 L 420 108.113281 L 422.992188 102.03125 Z M 425.992188 108.113281 "/>
<path style=" stroke:none;fill-rule:evenodd;fill:rgb(66.666667%,0%,0%);fill-opacity:1;" d="M 432.457031 108.644531 C 432.53125 108.332031 432.625 107.972656 432.625 107.675781 C 432.625 107.460938 432.578125 107.277344 432.441406 107.164062 C 432.394531 107.125 432.324219 107.101562 432.257812 107.101562 C 432.160156 107.101562 432.050781 107.148438 431.964844 107.238281 C 431.898438 107.316406 431.859375 107.410156 431.859375 107.492188 C 431.859375 107.578125 431.890625 107.652344 431.960938 107.707031 C 432.152344 107.859375 432.257812 108.089844 432.257812 108.347656 C 432.257812 108.433594 432.242188 108.515625 432.226562 108.601562 C 432.050781 109.28125 431.578125 109.960938 430.972656 109.960938 C 430.5625 109.960938 430.292969 109.707031 430.203125 109.347656 C 430.308594 109.125 430.394531 108.882812 430.445312 108.644531 C 430.460938 108.59375 430.46875 108.53125 430.46875 108.480469 C 430.46875 108.339844 430.417969 108.234375 430.285156 108.234375 C 430.132812 108.234375 430.019531 108.417969 429.980469 108.601562 C 429.910156 108.851562 429.878906 109.097656 429.886719 109.320312 C 429.628906 109.691406 429.253906 109.960938 428.851562 109.960938 C 428.375 109.960938 428.148438 109.570312 428.148438 109.082031 C 428.148438 108.945312 428.164062 108.796875 428.199219 108.644531 C 428.316406 108.203125 428.582031 107.785156 428.890625 107.394531 C 428.910156 107.355469 428.925781 107.316406 428.925781 107.285156 C 428.925781 107.230469 428.894531 107.1875 428.851562 107.15625 C 428.828125 107.140625 428.804688 107.132812 428.773438 107.132812 C 428.71875 107.132812 428.660156 107.164062 428.621094 107.210938 C 428.300781 107.644531 428.09375 108.121094 427.972656 108.601562 C 427.902344 108.867188 427.863281 109.125 427.863281 109.378906 C 427.863281 110.035156 428.125 110.546875 428.75 110.546875 C 429.230469 110.546875 429.636719 110.234375 429.949219 109.792969 C 430.066406 110.242188 430.363281 110.546875 430.867188 110.546875 C 431.675781 110.546875 432.226562 109.578125 432.457031 108.644531 Z M 432.457031 108.644531 "/>
<path style="fill:none;stroke-width:1;stroke-linecap:square;stroke-linejoin:miter;stroke:rgb(66.666667%,0%,0%);stroke-opacity:1;stroke-miterlimit:3.25;" d="M 436.386719 115.398438 L 434.621094 113.632812 "/>
</g>
</svg>
