<?xml version="1.0" encoding="UTF-8"?>
<svg xmlns="http://www.w3.org/2000/svg" xmlns:xlink="http://www.w3.org/1999/xlink" width="565pt" height="142pt" viewBox="0 0 565 142" version="1.1">
<defs>
<clipPath id="clip1">
  <path d="M 378 22 L 533 22 L 533 68.878906 L 378 68.878906 Z M 378 22 "/>
</clipPath>
<clipPath id="clip2">
  <path d="M 378 60 L 495 60 L 495 63 L 378 63 Z M 378 60 "/>
</clipPath>
<clipPath id="clip3">
  <path d="M 492 60 L 495 60 L 495 68.878906 L 492 68.878906 Z M 492 60 "/>
</clipPath>
<clipPath id="clip4">
  <path d="M 492 60 L 495 60 L 495 68.878906 L 492 68.878906 Z M 492 60 "/>
</clipPath>
<clipPath id="clip5">
  <path d="M 378 21 L 534 21 L 534 24 L 378 24 Z M 378 21 "/>
</clipPath>
<clipPath id="clip6">
  <path d="M 531 21 L 534 21 L 534 68.878906 L 531 68.878906 Z M 531 21 "/>
</clipPath>
<clipPath id="clip7">
  <path d="M 531 21 L 534 21 L 534 68.878906 L 531 68.878906 Z M 531 21 "/>
</clipPath>
<clipPath id="clip8">
  <path d="M 402 15 L 540 15 L 540 68.878906 L 402 68.878906 Z M 402 15 "/>
</clipPath>
<clipPath id="clip9">
  <path d="M 457 51 L 483 51 L 483 68.878906 L 457 68.878906 Z M 457 51 "/>
</clipPath>
<clipPath id="clip10">
  <path d="M 378 80 L 533 80 L 533 126.480469 L 378 126.480469 Z M 378 80 "/>
</clipPath>
<clipPath id="clip11">
  <path d="M 378 117 L 495 117 L 495 121 L 378 121 Z M 378 117 "/>
</clipPath>
<clipPath id="clip12">
  <path d="M 492 117 L 495 117 L 495 126.480469 L 492 126.480469 Z M 492 117 "/>
</clipPath>
<clipPath id="clip13">
  <path d="M 492 117 L 495 117 L 495 126.480469 L 492 126.480469 Z M 492 117 "/>
</clipPath>
<clipPath id="clip14">
  <path d="M 378 79 L 534 79 L 534 82 L 378 82 Z M 378 79 "/>
</clipPath>
<clipPath id="clip15">
  <path d="M 531 79 L 534 79 L 534 126.480469 L 531 126.480469 Z M 531 79 "/>
</clipPath>
<clipPath id="clip16">
  <path d="M 531 79 L 534 79 L 534 126.480469 L 531 126.480469 Z M 531 79 "/>
</clipPath>
<clipPath id="clip17">
  <path d="M 457 109 L 483 109 L 483 126.480469 L 457 126.480469 Z M 457 109 "/>
</clipPath>
</defs>
<g id="surface80">
<path style="fill-rule:nonzero;fill:rgb(100%,100%,86.999313%);fill-opacity:1;stroke-width:1.5;stroke-linecap:square;stroke-linejoin:miter;stroke:rgb(0%,0%,0%);stroke-opacity:1;stroke-miterlimit:3.25;" d="M 124.117188 107.28125 L 124.121094 107.25 L 124.75 104.054688 L 125.515625 100.917969 L 126.417969 97.847656 L 127.449219 94.84375 L 128.609375 91.917969 L 129.894531 89.070312 L 131.300781 86.3125 L 132.828125 83.640625 L 134.464844 81.066406 L 136.214844 78.59375 L 138.066406 76.226562 L 140.019531 73.96875 L 142.070312 71.824219 L 144.210938 69.796875 L 146.4375 67.890625 L 148.746094 66.113281 L 151.128906 64.464844 L 153.582031 62.945312 L 156.101562 61.5625 L 158.675781 60.320312 L 161.304688 59.214844 L 163.980469 58.257812 L 166.699219 57.445312 L 169.449219 56.777344 L 172.222656 56.265625 L 175.015625 55.910156 L 177.816406 55.710938 L 180.625 55.671875 L 183.433594 55.785156 L 186.230469 56.058594 L 189.015625 56.484375 L 191.78125 57.070312 L 194.515625 57.804688 L 197.214844 58.6875 L 199.867188 59.710938 L 202.472656 60.878906 L 205.023438 62.1875 L 207.511719 63.636719 L 209.933594 65.214844 L 212.28125 66.925781 L 214.550781 68.761719 L 216.738281 70.726562 L 218.839844 72.808594 L 220.84375 75.003906 L 222.753906 77.316406 L 224.558594 79.730469 L 226.253906 82.253906 L 227.839844 84.871094 L 229.3125 87.585938 L 230.664062 90.386719 L 231.890625 93.269531 L 232.992188 96.230469 L 233.964844 99.265625 L 234.800781 102.371094 L 235.503906 105.535156 L 236.070312 108.753906 L 236.492188 112.023438 L 236.601562 112.113281 L 236.71875 112.203125 L 236.839844 112.296875 L 236.96875 112.394531 L 237.101562 112.488281 L 237.242188 112.589844 L 237.386719 112.691406 L 237.539062 112.792969 L 237.695312 112.898438 L 237.859375 113.003906 L 238.03125 113.109375 L 238.207031 113.21875 L 238.390625 113.328125 L 238.578125 113.4375 L 238.773438 113.550781 L 238.976562 113.660156 L 239.183594 113.773438 L 239.398438 113.886719 L 239.621094 114 L 239.847656 114.113281 L 240.324219 114.339844 L 240.574219 114.449219 L 240.828125 114.5625 L 241.089844 114.675781 L 241.359375 114.785156 L 241.636719 114.894531 L 241.917969 115.003906 L 242.207031 115.113281 L 242.5 115.21875 L 242.804688 115.324219 L 243.113281 115.429688 L 243.429688 115.53125 L 243.753906 115.628906 L 244.082031 115.730469 L 244.417969 115.824219 L 244.761719 115.917969 L 245.113281 116.011719 L 245.46875 116.101562 L 245.835938 116.1875 L 246.203125 116.269531 L 246.582031 116.351562 L 246.964844 116.425781 L 247.359375 116.5 L 247.753906 116.570312 L 248.160156 116.640625 L 248.570312 116.703125 L 248.988281 116.761719 L 249.410156 116.816406 L 249.84375 116.871094 L 250.28125 116.917969 L 250.722656 116.960938 L 251.171875 117 L 251.628906 117.03125 L 252.09375 117.0625 L 252.5625 117.085938 L 253.058594 117.105469 L 253.582031 117.121094 L 254.109375 117.128906 L 254.632812 117.132812 L 329.292969 117.132812 L 329.125 113.847656 L 328.871094 110.601562 L 328.542969 107.398438 L 328.132812 104.242188 L 327.648438 101.128906 L 327.09375 98.070312 L 326.46875 95.058594 L 325.773438 92.101562 L 325.015625 89.203125 L 324.195312 86.363281 L 323.3125 83.585938 L 322.371094 80.867188 L 321.378906 78.214844 L 320.335938 75.628906 L 319.242188 73.109375 L 318.105469 70.660156 L 316.925781 68.28125 L 315.707031 65.972656 L 314.453125 63.738281 L 313.167969 61.578125 L 311.851562 59.492188 L 310.507812 57.480469 L 309.148438 55.542969 L 307.765625 53.683594 L 306.367188 51.898438 L 304.960938 50.195312 L 303.550781 48.574219 L 302.140625 47.03125 L 300.730469 45.570312 L 299.371094 44.226562 L 188.15625 24.617188 L 103.5 24.636719 L 102.191406 24.703125 L 100.859375 24.808594 L 99.5 24.949219 L 98.113281 25.128906 L 96.703125 25.347656 L 95.265625 25.609375 L 93.808594 25.910156 L 92.332031 26.257812 L 90.832031 26.652344 L 89.316406 27.089844 L 87.78125 27.574219 L 86.234375 28.113281 L 84.667969 28.695312 L 83.09375 29.332031 L 81.507812 30.023438 L 79.910156 30.761719 L 78.308594 31.558594 L 76.699219 32.410156 L 75.085938 33.3125 L 73.46875 34.277344 L 71.851562 35.292969 L 70.238281 36.371094 L 68.625 37.507812 L 67.019531 38.699219 L 65.421875 39.953125 L 64.027344 41.105469 L 62.652344 42.296875 L 61.265625 43.570312 L 59.867188 44.914062 L 58.460938 46.339844 L 57.050781 47.84375 L 55.640625 49.429688 L 54.230469 51.097656 L 52.828125 52.84375 L 51.4375 54.667969 L 50.066406 56.570312 L 48.714844 58.546875 L 47.386719 60.597656 L 46.085938 62.722656 L 44.816406 64.925781 L 43.582031 67.199219 L 42.382812 69.546875 L 41.226562 71.960938 L 40.113281 74.449219 L 39.042969 77.003906 L 38.027344 79.625 L 37.0625 82.3125 L 36.152344 85.0625 L 35.304688 87.875 L 34.515625 90.746094 L 34.339844 91.453125 Z M 124.117188 107.28125 "/>
<path style=" stroke:none;fill-rule:evenodd;fill:rgb(0%,0%,0%);fill-opacity:1;" d="M 96.246094 71.105469 C 96.246094 70.417969 96.082031 69.808594 95.457031 69.203125 C 95.113281 68.855469 94.816406 68.773438 93.304688 68.378906 C 92.203125 68.082031 92.054688 68.035156 91.757812 67.769531 C 91.480469 67.492188 91.265625 67.097656 91.265625 66.539062 C 91.265625 65.15625 92.664062 63.742188 94.226562 63.742188 C 95.835938 63.742188 96.59375 64.726562 96.59375 66.292969 C 96.59375 66.71875 96.511719 67.160156 96.511719 67.226562 C 96.511719 67.375 96.640625 67.375 96.691406 67.375 C 96.839844 67.375 96.855469 67.324219 96.921875 67.0625 L 97.808594 63.449219 C 97.808594 63.296875 97.660156 63.296875 97.660156 63.296875 C 97.597656 63.296875 97.578125 63.316406 97.378906 63.5625 L 96.59375 64.546875 C 96.046875 63.480469 94.964844 63.296875 94.273438 63.296875 C 92.1875 63.296875 90.296875 65.207031 90.296875 67.0625 C 90.296875 68.296875 91.035156 69.019531 91.839844 69.300781 C 92.019531 69.367188 92.992188 69.628906 93.488281 69.742188 C 94.324219 69.972656 94.535156 70.039062 94.882812 70.402344 C 94.949219 70.484375 95.277344 70.859375 95.277344 71.632812 C 95.277344 73.164062 93.863281 74.742188 92.21875 74.742188 C 90.871094 74.742188 89.375 74.164062 89.375 72.324219 C 89.375 72.011719 89.441406 71.617188 89.492188 71.453125 C 89.492188 71.402344 89.507812 71.289062 89.507812 71.289062 C 89.507812 71.222656 89.476562 71.140625 89.34375 71.140625 C 89.195312 71.140625 89.179688 71.171875 89.113281 71.453125 L 88.273438 74.824219 L 88.210938 75.070312 C 88.210938 75.214844 88.375 75.214844 88.375 75.214844 C 88.4375 75.214844 88.457031 75.199219 88.652344 74.953125 L 89.410156 73.96875 C 89.804688 74.558594 90.65625 75.214844 92.1875 75.214844 C 94.308594 75.214844 96.246094 73.164062 96.246094 71.105469 Z M 96.246094 71.105469 "/>
<path style=" stroke:none;fill-rule:evenodd;fill:rgb(0%,0%,0%);fill-opacity:1;" d="M 104.375 74.523438 C 104.488281 74.050781 104.625 73.511719 104.625 73.058594 C 104.625 72.738281 104.558594 72.460938 104.351562 72.289062 C 104.28125 72.230469 104.179688 72.195312 104.074219 72.195312 C 103.925781 72.195312 103.765625 72.265625 103.636719 72.402344 C 103.535156 72.519531 103.476562 72.65625 103.476562 72.785156 C 103.476562 72.910156 103.523438 73.023438 103.625 73.105469 C 103.914062 73.335938 104.074219 73.679688 104.074219 74.074219 C 104.074219 74.199219 104.050781 74.324219 104.027344 74.453125 C 103.765625 75.476562 103.050781 76.5 102.140625 76.5 C 101.519531 76.5 101.117188 76.121094 100.980469 75.578125 C 101.140625 75.246094 101.265625 74.878906 101.347656 74.523438 C 101.371094 74.441406 101.382812 74.347656 101.382812 74.269531 C 101.382812 74.0625 101.300781 73.902344 101.105469 73.902344 C 100.875 73.902344 100.703125 74.175781 100.644531 74.453125 C 100.539062 74.832031 100.496094 75.199219 100.507812 75.535156 C 100.117188 76.097656 99.550781 76.5 98.941406 76.5 C 98.226562 76.5 97.882812 75.914062 97.882812 75.175781 C 97.882812 74.96875 97.90625 74.753906 97.964844 74.523438 C 98.136719 73.855469 98.539062 73.222656 98.996094 72.632812 C 99.03125 72.578125 99.054688 72.519531 99.054688 72.472656 C 99.054688 72.390625 99.007812 72.324219 98.941406 72.277344 C 98.90625 72.253906 98.871094 72.242188 98.828125 72.242188 C 98.746094 72.242188 98.652344 72.289062 98.597656 72.359375 C 98.113281 73.011719 97.800781 73.726562 97.617188 74.453125 C 97.515625 74.855469 97.457031 75.246094 97.457031 75.625 C 97.457031 76.617188 97.847656 77.386719 98.792969 77.386719 C 99.515625 77.386719 100.128906 76.917969 100.597656 76.25 C 100.769531 76.929688 101.21875 77.386719 101.980469 77.386719 C 103.199219 77.386719 104.027344 75.925781 104.375 74.523438 Z M 104.375 74.523438 "/>
<path style=" stroke:none;fill-rule:nonzero;fill:rgb(66.666667%,0%,0%);fill-opacity:1;" d="M 179.972656 117.132812 L 188.066406 117.132812 L 172 115.726562 Z M 179.972656 117.132812 "/>
<path style=" stroke:none;fill-rule:evenodd;fill:rgb(66.666667%,0%,0%);fill-opacity:1;" d="M 198.734375 105.042969 C 198.734375 104.976562 198.699219 104.878906 198.667969 104.828125 L 193.179688 93.722656 C 193.066406 93.488281 193.03125 93.425781 192.800781 93.425781 C 192.554688 93.425781 192.523438 93.488281 192.410156 93.722656 L 186.921875 104.828125 C 186.886719 104.878906 186.855469 104.976562 186.855469 105.042969 C 186.855469 105.140625 186.871094 105.15625 187.199219 105.15625 L 198.390625 105.15625 C 198.71875 105.15625 198.734375 105.140625 198.734375 105.042969 Z M 196.777344 104.023438 L 187.824219 104.023438 L 192.292969 94.933594 Z M 196.777344 104.023438 "/>
<path style=" stroke:none;fill-rule:evenodd;fill:rgb(66.666667%,0%,0%);fill-opacity:1;" d="M 206.542969 104.808594 C 206.65625 104.332031 206.796875 103.796875 206.796875 103.34375 C 206.796875 103.023438 206.726562 102.746094 206.519531 102.574219 C 206.453125 102.519531 206.347656 102.484375 206.246094 102.484375 C 206.097656 102.484375 205.933594 102.550781 205.808594 102.6875 C 205.703125 102.804688 205.644531 102.941406 205.644531 103.070312 C 205.644531 103.195312 205.691406 103.308594 205.796875 103.390625 C 206.085938 103.621094 206.246094 103.964844 206.246094 104.355469 C 206.246094 104.484375 206.222656 104.609375 206.199219 104.738281 C 205.933594 105.761719 205.222656 106.785156 204.3125 106.785156 C 203.691406 106.785156 203.289062 106.40625 203.148438 105.863281 C 203.3125 105.53125 203.4375 105.164062 203.519531 104.808594 C 203.542969 104.726562 203.554688 104.632812 203.554688 104.554688 C 203.554688 104.34375 203.472656 104.1875 203.277344 104.1875 C 203.046875 104.1875 202.875 104.460938 202.816406 104.738281 C 202.710938 105.117188 202.667969 105.484375 202.679688 105.820312 C 202.289062 106.382812 201.722656 106.785156 201.113281 106.785156 C 200.398438 106.785156 200.054688 106.199219 200.054688 105.460938 C 200.054688 105.253906 200.078125 105.035156 200.136719 104.808594 C 200.308594 104.140625 200.710938 103.507812 201.171875 102.917969 C 201.207031 102.863281 201.230469 102.804688 201.230469 102.757812 C 201.230469 102.675781 201.183594 102.609375 201.113281 102.5625 C 201.078125 102.539062 201.042969 102.53125 201 102.53125 C 200.917969 102.53125 200.824219 102.574219 200.769531 102.644531 C 200.285156 103.296875 199.976562 104.011719 199.789062 104.738281 C 199.6875 105.140625 199.628906 105.53125 199.628906 105.910156 C 199.628906 106.898438 200.019531 107.671875 200.964844 107.671875 C 201.6875 107.671875 202.300781 107.199219 202.769531 106.53125 C 202.941406 107.210938 203.390625 107.671875 204.152344 107.671875 C 205.371094 107.671875 206.199219 106.210938 206.542969 104.808594 Z M 206.542969 104.808594 "/>
<path style="fill:none;stroke-width:1;stroke-linecap:square;stroke-linejoin:miter;stroke:rgb(66.666667%,0%,0%);stroke-opacity:1;stroke-miterlimit:3.25;" d="M 179.972656 117.132812 L 184.597656 112.503906 "/>
<g clip-path="url(#clip1)" clip-rule="nonzero">
<path style=" stroke:none;fill-rule:nonzero;fill:rgb(74.999619%,74.999619%,74.999619%);fill-opacity:1;" d="M 339.46875 61.359375 L 493.820312 61.359375 L 493.820312 215.710938 L 532.410156 215.710938 L 532.410156 22.769531 L 339.46875 22.769531 Z M 339.46875 61.359375 "/>
</g>
<g clip-path="url(#clip2)" clip-rule="nonzero">
<path style="fill:none;stroke-width:1.5;stroke-linecap:square;stroke-linejoin:miter;stroke:rgb(0%,0%,0%);stroke-opacity:1;stroke-miterlimit:3.25;" d="M 339.46875 61.359375 L 493.820312 61.359375 "/>
</g>
<g clip-path="url(#clip3)" clip-rule="nonzero">
<path style="fill:none;stroke-width:1.5;stroke-linecap:square;stroke-linejoin:miter;stroke:rgb(0%,0%,0%);stroke-opacity:1;stroke-miterlimit:3.25;" d="M 493.820312 122.902344 L 493.820312 61.359375 "/>
</g>
<path style=" stroke:none;fill-rule:nonzero;fill:rgb(0%,0%,0%);fill-opacity:1;" d="M 493.820312 61.359375 L 494.570312 62.109375 L 494.570312 60.609375 L 493.820312 60.609375 Z M 493.820312 61.359375 "/>
<g clip-path="url(#clip4)" clip-rule="nonzero">
<path style="fill:none;stroke-width:1.5;stroke-linecap:square;stroke-linejoin:miter;stroke:rgb(0%,0%,0%);stroke-opacity:1;stroke-miterlimit:3.25;" d="M 493.820312 122.902344 L 493.820312 61.359375 "/>
</g>
<path style=" stroke:none;fill-rule:nonzero;fill:rgb(0%,0%,0%);fill-opacity:1;" d="M 493.820312 61.359375 L 494.570312 62.109375 L 494.570312 60.609375 L 493.820312 60.609375 Z M 493.820312 61.359375 "/>
<g clip-path="url(#clip5)" clip-rule="nonzero">
<path style="fill:none;stroke-width:1.5;stroke-linecap:square;stroke-linejoin:miter;stroke:rgb(0%,0%,0%);stroke-opacity:1;stroke-miterlimit:3.25;" d="M 339.46875 22.769531 L 532.410156 22.769531 "/>
</g>
<g clip-path="url(#clip6)" clip-rule="nonzero">
<path style="fill:none;stroke-width:1.5;stroke-linecap:square;stroke-linejoin:miter;stroke:rgb(0%,0%,0%);stroke-opacity:1;stroke-miterlimit:3.25;" d="M 532.410156 122.902344 L 532.410156 22.769531 "/>
</g>
<path style=" stroke:none;fill-rule:nonzero;fill:rgb(0%,0%,0%);fill-opacity:1;" d="M 532.410156 22.769531 L 533.160156 23.519531 L 533.160156 22.019531 L 532.410156 22.019531 Z M 532.410156 22.769531 "/>
<g clip-path="url(#clip7)" clip-rule="nonzero">
<path style="fill:none;stroke-width:1.5;stroke-linecap:square;stroke-linejoin:miter;stroke:rgb(0%,0%,0%);stroke-opacity:1;stroke-miterlimit:3.25;" d="M 532.410156 122.902344 L 532.410156 22.769531 "/>
</g>
<path style=" stroke:none;fill-rule:nonzero;fill:rgb(0%,0%,0%);fill-opacity:1;" d="M 532.410156 22.769531 L 533.160156 23.519531 L 533.160156 22.019531 L 532.410156 22.019531 Z M 532.410156 22.769531 "/>
<path style=" stroke:none;fill-rule:nonzero;fill:rgb(100%,100%,86.999313%);fill-opacity:1;" d="M 446.84375 57.25 L 446.847656 57.238281 L 447.109375 55.90625 L 447.429688 54.597656 L 447.804688 53.316406 L 448.234375 52.066406 L 448.71875 50.84375 L 449.253906 49.65625 L 449.839844 48.507812 L 450.476562 47.394531 L 451.160156 46.320312 L 451.890625 45.289062 L 452.664062 44.300781 L 453.476562 43.359375 L 454.332031 42.464844 L 455.226562 41.621094 L 456.152344 40.824219 L 457.117188 40.082031 L 458.109375 39.394531 L 459.132812 38.761719 L 460.183594 38.1875 L 461.257812 37.667969 L 462.351562 37.207031 L 463.46875 36.808594 L 464.601562 36.46875 L 465.75 36.191406 L 466.90625 35.976562 L 468.070312 35.828125 L 469.238281 35.746094 L 470.410156 35.726562 L 471.582031 35.777344 L 472.746094 35.890625 L 473.910156 36.066406 L 475.0625 36.3125 L 476.203125 36.617188 L 477.328125 36.984375 L 478.433594 37.414062 L 479.519531 37.902344 L 480.585938 38.445312 L 481.621094 39.050781 L 482.632812 39.707031 L 483.613281 40.421875 L 484.558594 41.1875 L 485.472656 42.007812 L 486.347656 42.875 L 487.183594 43.792969 L 487.976562 44.753906 L 488.730469 45.761719 L 489.4375 46.8125 L 490.101562 47.90625 L 490.714844 49.039062 L 491.277344 50.207031 L 491.789062 51.40625 L 492.25 52.644531 L 492.652344 53.910156 L 493.003906 55.203125 L 493.296875 56.523438 L 493.53125 57.867188 L 493.707031 59.230469 L 493.753906 59.265625 L 493.90625 59.382812 L 493.960938 59.421875 L 494.019531 59.464844 L 494.144531 59.550781 L 494.277344 59.636719 L 494.351562 59.683594 L 494.421875 59.726562 L 494.578125 59.820312 L 494.660156 59.867188 L 494.832031 59.960938 L 495.011719 60.054688 L 495.207031 60.148438 L 495.410156 60.242188 L 495.515625 60.289062 L 495.625 60.335938 L 495.738281 60.382812 L 495.851562 60.425781 L 495.96875 60.472656 L 496.089844 60.515625 L 496.214844 60.5625 L 496.339844 60.605469 L 496.46875 60.648438 L 496.734375 60.734375 L 496.875 60.773438 L 497.015625 60.816406 L 497.15625 60.855469 L 497.304688 60.890625 L 497.453125 60.929688 L 497.757812 61 L 497.917969 61.035156 L 498.238281 61.097656 L 498.574219 61.152344 L 498.917969 61.207031 L 499.097656 61.230469 L 499.457031 61.269531 L 499.644531 61.289062 L 499.832031 61.304688 L 500.019531 61.316406 L 500.410156 61.339844 L 500.617188 61.347656 L 500.835938 61.355469 L 501.054688 61.359375 L 532.410156 61.359375 L 532.339844 59.988281 L 532.234375 58.636719 L 532.09375 57.300781 L 531.925781 55.984375 L 531.722656 54.6875 L 531.492188 53.410156 L 531.230469 52.15625 L 530.941406 50.921875 L 530.625 49.714844 L 530.28125 48.527344 L 529.914062 47.371094 L 529.523438 46.238281 L 529.109375 45.128906 L 528.671875 44.050781 L 528.21875 43 L 527.742188 41.980469 L 527.25 40.988281 L 526.742188 40.023438 L 526.21875 39.09375 L 525.683594 38.191406 L 525.136719 37.320312 L 524.574219 36.484375 L 524.007812 35.675781 L 523.429688 34.898438 L 522.847656 34.15625 L 522.261719 33.445312 L 521.671875 32.769531 L 521.085938 32.125 L 520.496094 31.515625 L 519.929688 30.957031 L 473.550781 22.777344 L 438.246094 22.785156 L 437.703125 22.816406 L 437.144531 22.859375 L 436.578125 22.917969 L 436 22.992188 L 435.410156 23.082031 L 434.8125 23.191406 L 434.207031 23.316406 L 433.589844 23.460938 L 432.964844 23.625 L 432.332031 23.808594 L 431.691406 24.011719 L 431.046875 24.234375 L 430.394531 24.480469 L 429.738281 24.746094 L 429.074219 25.03125 L 428.410156 25.339844 L 427.742188 25.671875 L 427.070312 26.027344 L 426.398438 26.40625 L 425.722656 26.804688 L 425.050781 27.230469 L 424.375 27.679688 L 423.703125 28.152344 L 423.035156 28.652344 L 422.367188 29.171875 L 421.785156 29.652344 L 421.210938 30.152344 L 420.632812 30.679688 L 420.050781 31.242188 L 419.464844 31.835938 L 418.875 32.464844 L 418.289062 33.125 L 417.699219 33.820312 L 417.113281 34.550781 L 416.535156 35.3125 L 415.964844 36.101562 L 415.398438 36.925781 L 414.847656 37.78125 L 414.304688 38.671875 L 413.773438 39.585938 L 413.257812 40.535156 L 412.757812 41.515625 L 412.277344 42.523438 L 411.8125 43.558594 L 411.367188 44.625 L 410.941406 45.71875 L 410.539062 46.839844 L 410.160156 47.984375 L 409.808594 49.160156 L 409.476562 50.355469 L 409.40625 50.652344 Z M 446.84375 57.25 "/>
<g clip-path="url(#clip8)" clip-rule="nonzero">
<path style="fill:none;stroke-width:1.5;stroke-linecap:square;stroke-linejoin:miter;stroke:rgb(0%,0%,0%);stroke-opacity:1;stroke-miterlimit:3.25;" d="M 446.84375 57.25 L 446.847656 57.238281 L 447.109375 55.90625 L 447.429688 54.597656 L 447.804688 53.316406 L 448.234375 52.066406 L 448.71875 50.84375 L 449.253906 49.65625 L 449.839844 48.507812 L 450.476562 47.394531 L 451.160156 46.320312 L 451.890625 45.289062 L 452.664062 44.300781 L 453.476562 43.359375 L 454.332031 42.464844 L 455.226562 41.621094 L 456.152344 40.824219 L 457.117188 40.082031 L 458.109375 39.394531 L 459.132812 38.761719 L 460.183594 38.1875 L 461.257812 37.667969 L 462.351562 37.207031 L 463.46875 36.808594 L 464.601562 36.46875 L 465.75 36.191406 L 466.90625 35.976562 L 468.070312 35.828125 L 469.238281 35.746094 L 470.410156 35.726562 L 471.582031 35.777344 L 472.746094 35.890625 L 473.910156 36.066406 L 475.0625 36.3125 L 476.203125 36.617188 L 477.328125 36.984375 L 478.433594 37.414062 L 479.519531 37.902344 L 480.585938 38.445312 L 481.621094 39.050781 L 482.632812 39.707031 L 483.613281 40.421875 L 484.558594 41.1875 L 485.472656 42.007812 L 486.347656 42.875 L 487.183594 43.792969 L 487.976562 44.753906 L 488.730469 45.761719 L 489.4375 46.8125 L 490.101562 47.90625 L 490.714844 49.039062 L 491.277344 50.207031 L 491.789062 51.40625 L 492.25 52.644531 L 492.652344 53.910156 L 493.003906 55.203125 L 493.296875 56.523438 L 493.53125 57.867188 L 493.707031 59.230469 L 493.753906 59.265625 L 493.90625 59.382812 L 493.960938 59.421875 L 494.019531 59.464844 L 494.144531 59.550781 L 494.277344 59.636719 L 494.351562 59.683594 L 494.421875 59.726562 L 494.578125 59.820312 L 494.660156 59.867188 L 494.832031 59.960938 L 495.011719 60.054688 L 495.207031 60.148438 L 495.410156 60.242188 L 495.515625 60.289062 L 495.625 60.335938 L 495.738281 60.382812 L 495.851562 60.425781 L 495.96875 60.472656 L 496.089844 60.515625 L 496.214844 60.5625 L 496.339844 60.605469 L 496.46875 60.648438 L 496.734375 60.734375 L 496.875 60.773438 L 497.015625 60.816406 L 497.15625 60.855469 L 497.304688 60.890625 L 497.453125 60.929688 L 497.757812 61 L 497.917969 61.035156 L 498.238281 61.097656 L 498.574219 61.152344 L 498.917969 61.207031 L 499.097656 61.230469 L 499.457031 61.269531 L 499.644531 61.289062 L 499.832031 61.304688 L 500.019531 61.316406 L 500.410156 61.339844 L 500.617188 61.347656 L 500.835938 61.355469 L 501.054688 61.359375 L 532.410156 61.359375 L 532.339844 59.988281 L 532.234375 58.636719 L 532.09375 57.300781 L 531.925781 55.984375 L 531.722656 54.6875 L 531.492188 53.410156 L 531.230469 52.15625 L 530.941406 50.921875 L 530.625 49.714844 L 530.28125 48.527344 L 529.914062 47.371094 L 529.523438 46.238281 L 529.109375 45.128906 L 528.671875 44.050781 L 528.21875 43 L 527.742188 41.980469 L 527.25 40.988281 L 526.742188 40.023438 L 526.21875 39.09375 L 525.683594 38.191406 L 525.136719 37.320312 L 524.574219 36.484375 L 524.007812 35.675781 L 523.429688 34.898438 L 522.847656 34.15625 L 522.261719 33.445312 L 521.671875 32.769531 L 521.085938 32.125 L 520.496094 31.515625 L 519.929688 30.957031 L 473.550781 22.777344 L 438.246094 22.785156 L 437.703125 22.816406 L 437.144531 22.859375 L 436.578125 22.917969 L 436 22.992188 L 435.410156 23.082031 L 434.8125 23.191406 L 434.207031 23.316406 L 433.589844 23.460938 L 432.964844 23.625 L 432.332031 23.808594 L 431.691406 24.011719 L 431.046875 24.234375 L 430.394531 24.480469 L 429.738281 24.746094 L 429.074219 25.03125 L 428.410156 25.339844 L 427.742188 25.671875 L 427.070312 26.027344 L 426.398438 26.40625 L 425.722656 26.804688 L 425.050781 27.230469 L 424.375 27.679688 L 423.703125 28.152344 L 423.035156 28.652344 L 422.367188 29.171875 L 421.785156 29.652344 L 421.210938 30.152344 L 420.632812 30.679688 L 420.050781 31.242188 L 419.464844 31.835938 L 418.875 32.464844 L 418.289062 33.125 L 417.699219 33.820312 L 417.113281 34.550781 L 416.535156 35.3125 L 415.964844 36.101562 L 415.398438 36.925781 L 414.847656 37.78125 L 414.304688 38.671875 L 413.773438 39.585938 L 413.257812 40.535156 L 412.757812 41.515625 L 412.277344 42.523438 L 411.8125 43.558594 L 411.367188 44.625 L 410.941406 45.71875 L 410.539062 46.839844 L 410.160156 47.984375 L 409.808594 49.160156 L 409.476562 50.355469 L 409.40625 50.652344 Z M 446.84375 57.25 "/>
</g>
<path style=" stroke:none;fill-rule:nonzero;fill:rgb(66.666667%,0%,0%);fill-opacity:1;" d="M 470.136719 61.359375 L 473.515625 61.359375 L 466.8125 60.773438 Z M 470.136719 61.359375 "/>
<g clip-path="url(#clip9)" clip-rule="nonzero">
<path style="fill:none;stroke-width:2;stroke-linecap:square;stroke-linejoin:miter;stroke:rgb(66.666667%,0%,0%);stroke-opacity:1;stroke-miterlimit:3.25;" d="M 470.136719 61.359375 L 473.515625 61.359375 L 466.8125 60.773438 Z M 470.136719 61.359375 "/>
</g>
<path style=" stroke:none;fill-rule:evenodd;fill:rgb(66.666667%,0%,0%);fill-opacity:1;" d="M 481.492188 54.59375 C 481.492188 54.550781 481.46875 54.484375 481.445312 54.453125 L 477.789062 47.046875 C 477.710938 46.894531 477.691406 46.847656 477.535156 46.847656 C 477.371094 46.847656 477.351562 46.894531 477.273438 47.046875 L 473.617188 54.453125 C 473.59375 54.484375 473.570312 54.550781 473.570312 54.59375 C 473.570312 54.660156 473.582031 54.671875 473.800781 54.671875 L 481.261719 54.671875 C 481.480469 54.671875 481.492188 54.660156 481.492188 54.59375 Z M 480.1875 53.914062 L 474.21875 53.914062 L 477.199219 47.855469 Z M 480.1875 53.914062 "/>
<path style=" stroke:none;fill-rule:evenodd;fill:rgb(66.666667%,0%,0%);fill-opacity:1;" d="M 486.695312 54.4375 C 486.773438 54.121094 486.867188 53.761719 486.867188 53.464844 C 486.867188 53.25 486.820312 53.066406 486.679688 52.949219 C 486.636719 52.910156 486.566406 52.886719 486.5 52.886719 C 486.398438 52.886719 486.289062 52.933594 486.207031 53.027344 C 486.136719 53.101562 486.097656 53.195312 486.097656 53.277344 C 486.097656 53.363281 486.128906 53.441406 486.199219 53.496094 C 486.390625 53.648438 486.5 53.878906 486.5 54.136719 C 486.5 54.222656 486.484375 54.308594 486.46875 54.390625 C 486.289062 55.074219 485.816406 55.757812 485.210938 55.757812 C 484.796875 55.757812 484.527344 55.503906 484.433594 55.144531 C 484.542969 54.921875 484.628906 54.675781 484.679688 54.4375 C 484.695312 54.382812 484.703125 54.324219 484.703125 54.269531 C 484.703125 54.128906 484.648438 54.023438 484.519531 54.023438 C 484.367188 54.023438 484.25 54.207031 484.210938 54.390625 C 484.144531 54.644531 484.113281 54.890625 484.121094 55.113281 C 483.859375 55.488281 483.484375 55.757812 483.078125 55.757812 C 482.601562 55.757812 482.371094 55.367188 482.371094 54.875 C 482.371094 54.738281 482.386719 54.589844 482.425781 54.4375 C 482.539062 53.992188 482.808594 53.570312 483.113281 53.179688 C 483.136719 53.140625 483.152344 53.101562 483.152344 53.074219 C 483.152344 53.019531 483.121094 52.972656 483.078125 52.941406 C 483.054688 52.925781 483.03125 52.917969 483 52.917969 C 482.945312 52.917969 482.886719 52.949219 482.847656 52.996094 C 482.523438 53.433594 482.316406 53.910156 482.195312 54.390625 C 482.125 54.660156 482.089844 54.921875 482.089844 55.175781 C 482.089844 55.832031 482.347656 56.347656 482.976562 56.347656 C 483.460938 56.347656 483.867188 56.03125 484.183594 55.589844 C 484.296875 56.039062 484.597656 56.347656 485.101562 56.347656 C 485.914062 56.347656 486.46875 55.375 486.695312 54.4375 Z M 486.695312 54.4375 "/>
<path style="fill:none;stroke-width:1;stroke-linecap:square;stroke-linejoin:miter;stroke:rgb(66.666667%,0%,0%);stroke-opacity:1;stroke-miterlimit:3.25;" d="M 470.136719 61.359375 L 472.066406 59.429688 "/>
<g clip-path="url(#clip10)" clip-rule="nonzero">
<path style=" stroke:none;fill-rule:nonzero;fill:rgb(74.999619%,74.999619%,74.999619%);fill-opacity:1;" d="M 339.46875 118.984375 L 493.820312 118.984375 L 493.820312 273.335938 L 532.410156 273.335938 L 532.410156 80.394531 L 339.46875 80.394531 Z M 339.46875 118.984375 "/>
</g>
<g clip-path="url(#clip11)" clip-rule="nonzero">
<path style="fill:none;stroke-width:1.5;stroke-linecap:square;stroke-linejoin:miter;stroke:rgb(0%,0%,0%);stroke-opacity:1;stroke-miterlimit:3.25;" d="M 339.46875 118.984375 L 493.820312 118.984375 "/>
</g>
<g clip-path="url(#clip12)" clip-rule="nonzero">
<path style="fill:none;stroke-width:1.5;stroke-linecap:square;stroke-linejoin:miter;stroke:rgb(0%,0%,0%);stroke-opacity:1;stroke-miterlimit:3.25;" d="M 493.820312 180.503906 L 493.820312 118.984375 "/>
</g>
<path style=" stroke:none;fill-rule:nonzero;fill:rgb(0%,0%,0%);fill-opacity:1;" d="M 493.820312 118.984375 L 494.570312 119.734375 L 494.570312 118.234375 L 493.820312 118.234375 Z M 493.820312 118.984375 "/>
<g clip-path="url(#clip13)" clip-rule="nonzero">
<path style="fill:none;stroke-width:1.5;stroke-linecap:square;stroke-linejoin:miter;stroke:rgb(0%,0%,0%);stroke-opacity:1;stroke-miterlimit:3.25;" d="M 493.820312 180.503906 L 493.820312 118.984375 "/>
</g>
<path style=" stroke:none;fill-rule:nonzero;fill:rgb(0%,0%,0%);fill-opacity:1;" d="M 493.820312 118.984375 L 494.570312 119.734375 L 494.570312 118.234375 L 493.820312 118.234375 Z M 493.820312 118.984375 "/>
<g clip-path="url(#clip14)" clip-rule="nonzero">
<path style="fill:none;stroke-width:1.5;stroke-linecap:square;stroke-linejoin:miter;stroke:rgb(0%,0%,0%);stroke-opacity:1;stroke-miterlimit:3.25;" d="M 339.46875 80.394531 L 532.410156 80.394531 "/>
</g>
<g clip-path="url(#clip15)" clip-rule="nonzero">
<path style="fill:none;stroke-width:1.5;stroke-linecap:square;stroke-linejoin:miter;stroke:rgb(0%,0%,0%);stroke-opacity:1;stroke-miterlimit:3.25;" d="M 532.410156 180.503906 L 532.410156 80.394531 "/>
</g>
<path style=" stroke:none;fill-rule:nonzero;fill:rgb(0%,0%,0%);fill-opacity:1;" d="M 532.410156 80.394531 L 533.160156 81.144531 L 533.160156 79.644531 L 532.410156 79.644531 Z M 532.410156 80.394531 "/>
<g clip-path="url(#clip16)" clip-rule="nonzero">
<path style="fill:none;stroke-width:1.5;stroke-linecap:square;stroke-linejoin:miter;stroke:rgb(0%,0%,0%);stroke-opacity:1;stroke-miterlimit:3.25;" d="M 532.410156 180.503906 L 532.410156 80.394531 "/>
</g>
<path style=" stroke:none;fill-rule:nonzero;fill:rgb(0%,0%,0%);fill-opacity:1;" d="M 532.410156 80.394531 L 533.160156 81.144531 L 533.160156 79.644531 L 532.410156 79.644531 Z M 532.410156 80.394531 "/>
<path style="fill-rule:nonzero;fill:rgb(100%,100%,86.999313%);fill-opacity:1;stroke-width:1.5;stroke-linecap:square;stroke-linejoin:miter;stroke:rgb(0%,0%,0%);stroke-opacity:1;stroke-miterlimit:3.25;" d="M 446.484375 118.984375 L 446.484375 118.96875 L 446.511719 117.613281 L 446.597656 116.269531 L 446.746094 114.941406 L 446.953125 113.632812 L 447.21875 112.347656 L 447.539062 111.085938 L 447.917969 109.851562 L 448.351562 108.644531 L 448.835938 107.46875 L 449.375 106.324219 L 449.964844 105.21875 L 450.605469 104.148438 L 451.292969 103.121094 L 452.023438 102.132812 L 452.800781 101.191406 L 453.621094 100.292969 L 454.480469 99.441406 L 455.375 98.640625 L 456.308594 97.890625 L 457.277344 97.195312 L 458.277344 96.550781 L 459.308594 95.960938 L 460.363281 95.433594 L 461.445312 94.960938 L 462.546875 94.546875 L 463.667969 94.199219 L 464.804688 93.914062 L 465.957031 93.695312 L 467.117188 93.539062 L 468.285156 93.449219 L 469.460938 93.421875 L 470.636719 93.460938 L 471.8125 93.566406 L 472.984375 93.730469 L 474.152344 93.960938 L 475.304688 94.253906 L 476.445312 94.605469 L 477.574219 95.019531 L 478.683594 95.492188 L 479.769531 96.023438 L 480.835938 96.617188 L 481.878906 97.261719 L 482.890625 97.964844 L 483.875 98.722656 L 484.824219 99.535156 L 485.742188 100.394531 L 486.621094 101.308594 L 487.460938 102.269531 L 488.261719 103.277344 L 489.019531 104.328125 L 489.734375 105.425781 L 490.398438 106.5625 L 491.019531 107.738281 L 491.585938 108.949219 L 492.105469 110.199219 L 492.570312 111.480469 L 492.980469 112.792969 L 493.03125 112.820312 L 493.085938 112.851562 L 493.144531 112.878906 L 493.203125 112.910156 L 493.328125 112.972656 L 493.394531 113.003906 L 493.464844 113.035156 L 493.613281 113.097656 L 493.769531 113.160156 L 494.027344 113.253906 L 494.117188 113.285156 L 494.210938 113.316406 L 494.308594 113.347656 L 494.410156 113.378906 L 494.511719 113.40625 L 494.613281 113.4375 L 494.722656 113.464844 L 494.832031 113.496094 L 494.945312 113.523438 L 495.0625 113.550781 L 495.179688 113.574219 L 495.300781 113.601562 L 495.550781 113.648438 L 495.679688 113.671875 L 495.945312 113.710938 L 496.082031 113.730469 L 496.222656 113.75 L 496.511719 113.78125 L 496.808594 113.804688 L 496.960938 113.816406 L 497.117188 113.824219 L 497.4375 113.839844 L 497.601562 113.84375 L 498.105469 113.84375 L 498.457031 113.835938 L 498.632812 113.828125 L 498.8125 113.816406 L 498.996094 113.804688 L 499.371094 113.773438 L 499.558594 113.753906 L 499.75 113.730469 L 499.945312 113.707031 L 500.152344 113.679688 L 500.367188 113.648438 L 500.585938 113.613281 L 500.800781 113.578125 L 531.464844 108.171875 L 531.15625 106.835938 L 530.816406 105.519531 L 530.449219 104.226562 L 530.054688 102.960938 L 529.628906 101.71875 L 529.179688 100.5 L 528.703125 99.308594 L 528.207031 98.148438 L 527.683594 97.011719 L 527.140625 95.902344 L 526.578125 94.828125 L 525.996094 93.777344 L 525.394531 92.761719 L 524.777344 91.773438 L 524.148438 90.820312 L 523.503906 89.894531 L 522.847656 89.003906 L 522.179688 88.144531 L 521.5 87.316406 L 520.816406 86.523438 L 520.125 85.761719 L 519.429688 85.03125 L 518.730469 84.335938 L 518.027344 83.671875 L 517.324219 83.039062 L 516.621094 82.441406 L 515.925781 81.878906 L 515.234375 81.347656 L 514.550781 80.847656 L 513.894531 80.394531 L 466.800781 80.394531 L 432.03125 86.535156 L 431.5 86.65625 L 430.960938 86.796875 L 430.414062 86.953125 L 429.855469 87.125 L 429.292969 87.320312 L 428.722656 87.53125 L 428.144531 87.761719 L 427.5625 88.007812 L 426.976562 88.277344 L 426.386719 88.570312 L 425.789062 88.878906 L 425.191406 89.210938 L 424.59375 89.566406 L 423.992188 89.941406 L 423.390625 90.339844 L 422.789062 90.757812 L 422.1875 91.203125 L 421.589844 91.667969 L 420.992188 92.15625 L 420.398438 92.667969 L 419.808594 93.203125 L 419.222656 93.761719 L 418.644531 94.34375 L 418.070312 94.953125 L 417.503906 95.582031 L 417.015625 96.15625 L 416.535156 96.746094 L 416.058594 97.367188 L 415.582031 98.023438 L 415.109375 98.710938 L 414.636719 99.429688 L 414.171875 100.183594 L 413.714844 100.96875 L 413.265625 101.789062 L 412.828125 102.640625 L 412.402344 103.519531 L 411.988281 104.429688 L 411.59375 105.367188 L 411.210938 106.335938 L 410.851562 107.332031 L 410.507812 108.355469 L 410.183594 109.402344 L 409.882812 110.480469 L 409.605469 111.582031 L 409.355469 112.710938 L 409.125 113.859375 L 408.925781 115.03125 L 408.75 116.230469 L 408.605469 117.445312 L 408.488281 118.683594 L 408.46875 118.984375 Z M 446.484375 118.984375 "/>
<path style=" stroke:none;fill-rule:nonzero;fill:rgb(66.666667%,0%,0%);fill-opacity:1;" d="M 470.136719 118.984375 L 473.460938 118.398438 L 466.761719 118.984375 Z M 470.136719 118.984375 "/>
<g clip-path="url(#clip17)" clip-rule="nonzero">
<path style="fill:none;stroke-width:2;stroke-linecap:square;stroke-linejoin:miter;stroke:rgb(66.666667%,0%,0%);stroke-opacity:1;stroke-miterlimit:3.25;" d="M 470.136719 118.984375 L 473.460938 118.398438 L 466.761719 118.984375 Z M 470.136719 118.984375 "/>
</g>
<path style=" stroke:none;fill-rule:evenodd;fill:rgb(66.666667%,0%,0%);fill-opacity:1;" d="M 460.855469 112.21875 C 460.855469 112.175781 460.832031 112.109375 460.8125 112.078125 L 457.152344 104.671875 C 457.078125 104.515625 457.054688 104.472656 456.902344 104.472656 C 456.738281 104.472656 456.714844 104.515625 456.640625 104.671875 L 452.980469 112.078125 C 452.957031 112.109375 452.9375 112.175781 452.9375 112.21875 C 452.9375 112.285156 452.949219 112.296875 453.167969 112.296875 L 460.625 112.296875 C 460.84375 112.296875 460.855469 112.285156 460.855469 112.21875 Z M 459.550781 111.539062 L 453.582031 111.539062 L 456.5625 105.480469 Z M 459.550781 111.539062 "/>
<path style=" stroke:none;fill-rule:evenodd;fill:rgb(66.666667%,0%,0%);fill-opacity:1;" d="M 466.0625 112.0625 C 466.136719 111.746094 466.230469 111.386719 466.230469 111.089844 C 466.230469 110.875 466.183594 110.691406 466.046875 110.574219 C 466 110.535156 465.933594 110.511719 465.863281 110.511719 C 465.761719 110.511719 465.65625 110.558594 465.570312 110.652344 C 465.503906 110.726562 465.464844 110.820312 465.464844 110.902344 C 465.464844 110.988281 465.496094 111.066406 465.5625 111.121094 C 465.753906 111.273438 465.863281 111.5 465.863281 111.761719 C 465.863281 111.847656 465.847656 111.929688 465.832031 112.015625 C 465.65625 112.699219 465.179688 113.382812 464.574219 113.382812 C 464.160156 113.382812 463.890625 113.128906 463.800781 112.765625 C 463.90625 112.546875 463.992188 112.300781 464.046875 112.0625 C 464.0625 112.007812 464.070312 111.945312 464.070312 111.894531 C 464.070312 111.753906 464.015625 111.648438 463.882812 111.648438 C 463.730469 111.648438 463.617188 111.832031 463.578125 112.015625 C 463.507812 112.269531 463.476562 112.515625 463.484375 112.738281 C 463.226562 113.113281 462.847656 113.382812 462.441406 113.382812 C 461.964844 113.382812 461.734375 112.992188 461.734375 112.5 C 461.734375 112.359375 461.75 112.214844 461.789062 112.0625 C 461.90625 111.617188 462.171875 111.195312 462.480469 110.804688 C 462.503906 110.765625 462.519531 110.726562 462.519531 110.699219 C 462.519531 110.644531 462.488281 110.597656 462.441406 110.566406 C 462.417969 110.550781 462.394531 110.542969 462.367188 110.542969 C 462.3125 110.542969 462.25 110.574219 462.210938 110.621094 C 461.890625 111.058594 461.683594 111.53125 461.558594 112.015625 C 461.492188 112.285156 461.453125 112.546875 461.453125 112.796875 C 461.453125 113.457031 461.710938 113.972656 462.34375 113.972656 C 462.824219 113.972656 463.234375 113.65625 463.546875 113.210938 C 463.660156 113.664062 463.960938 113.972656 464.46875 113.972656 C 465.277344 113.972656 465.832031 113 466.0625 112.0625 Z M 466.0625 112.0625 "/>
<path style="fill:none;stroke-width:1;stroke-linecap:square;stroke-linejoin:miter;stroke:rgb(66.666667%,0%,0%);stroke-opacity:1;stroke-miterlimit:3.25;" d="M 470.136719 118.984375 L 468.207031 117.054688 "/>
</g>
</svg>
