<?xml version="1.0" encoding="UTF-8"?>
<svg xmlns="http://www.w3.org/2000/svg" xmlns:xlink="http://www.w3.org/1999/xlink" width="404pt" height="109pt" viewBox="0 0 404 109" version="1.1">
<defs>
<clipPath id="clip1">
  <path d="M 11.039062 22 L 241.679688 22 L 241.679688 87 L 11.039062 87 Z M 11.039062 22 "/>
</clipPath>
<clipPath id="clip2">
  <path d="M 11.039062 86 L 241.679688 86 L 241.679688 87 L 11.039062 87 Z M 11.039062 86 "/>
</clipPath>
<clipPath id="clip3">
  <path d="M 11.039062 22 L 241.679688 22 L 241.679688 23 L 11.039062 23 Z M 11.039062 22 "/>
</clipPath>
<clipPath id="clip4">
  <path d="M 11.039062 64 L 218 64 L 218 101.761719 L 11.039062 101.761719 Z M 11.039062 64 "/>
</clipPath>
<clipPath id="clip5">
  <path d="M 41 6.71875 L 241.679688 6.71875 L 241.679688 43 L 41 43 Z M 41 6.71875 "/>
</clipPath>
<clipPath id="clip6">
  <path d="M 261.359375 17 L 380 17 L 380 52.800781 L 261.359375 52.800781 Z M 261.359375 17 "/>
</clipPath>
<clipPath id="clip7">
  <path d="M 261.359375 46 L 351 46 L 351 48 L 261.359375 48 Z M 261.359375 46 "/>
</clipPath>
<clipPath id="clip8">
  <path d="M 349 46 L 351 46 L 351 52.800781 L 349 52.800781 Z M 349 46 "/>
</clipPath>
<clipPath id="clip9">
  <path d="M 349 46 L 351 46 L 351 52.800781 L 349 52.800781 Z M 349 46 "/>
</clipPath>
<clipPath id="clip10">
  <path d="M 261.359375 17 L 381 17 L 381 19 L 261.359375 19 Z M 261.359375 17 "/>
</clipPath>
<clipPath id="clip11">
  <path d="M 378 17 L 381 17 L 381 52.800781 L 378 52.800781 Z M 378 17 "/>
</clipPath>
<clipPath id="clip12">
  <path d="M 378 17 L 381 17 L 381 52.800781 L 378 52.800781 Z M 378 17 "/>
</clipPath>
<clipPath id="clip13">
  <path d="M 320 37 L 344 37 L 344 52.800781 L 320 52.800781 Z M 320 37 "/>
</clipPath>
<clipPath id="clip14">
  <path d="M 261.359375 61 L 380 61 L 380 96.960938 L 261.359375 96.960938 Z M 261.359375 61 "/>
</clipPath>
<clipPath id="clip15">
  <path d="M 261.359375 90 L 351 90 L 351 93 L 261.359375 93 Z M 261.359375 90 "/>
</clipPath>
<clipPath id="clip16">
  <path d="M 349 90 L 351 90 L 351 96.960938 L 349 96.960938 Z M 349 90 "/>
</clipPath>
<clipPath id="clip17">
  <path d="M 349 90 L 351 90 L 351 96.960938 L 349 96.960938 Z M 349 90 "/>
</clipPath>
<clipPath id="clip18">
  <path d="M 261.359375 61 L 381 61 L 381 63 L 261.359375 63 Z M 261.359375 61 "/>
</clipPath>
<clipPath id="clip19">
  <path d="M 378 61 L 381 61 L 381 96.960938 L 378 96.960938 Z M 378 61 "/>
</clipPath>
<clipPath id="clip20">
  <path d="M 378 61 L 381 61 L 381 96.960938 L 378 96.960938 Z M 378 61 "/>
</clipPath>
<clipPath id="clip21">
  <path d="M 320 81 L 344 81 L 344 96.960938 L 320 96.960938 Z M 320 81 "/>
</clipPath>
</defs>
<g id="surface245">
<g clip-path="url(#clip1)" clip-rule="nonzero">
<path style=" stroke:none;fill-rule:nonzero;fill:rgb(86.999313%,94.000153%,100%);fill-opacity:1;" d="M 132.03125 22.640625 L 492.460938 86.195312 L 126.472656 86.195312 L -233.960938 22.640625 Z M 132.03125 22.640625 "/>
</g>
<g clip-path="url(#clip2)" clip-rule="nonzero">
<path style="fill:none;stroke-width:0.2;stroke-linecap:square;stroke-linejoin:miter;stroke:rgb(0%,0%,0%);stroke-opacity:1;stroke-miterlimit:3.25;" d="M 11.199219 86.195312 L 241.742188 86.195312 "/>
</g>
<g clip-path="url(#clip3)" clip-rule="nonzero">
<path style="fill:none;stroke-width:0.2;stroke-linecap:square;stroke-linejoin:miter;stroke:rgb(0%,0%,0%);stroke-opacity:1;stroke-miterlimit:3.25;" d="M 11.199219 22.640625 L 241.742188 22.640625 "/>
</g>
<g clip-path="url(#clip4)" clip-rule="nonzero">
<path style="fill:none;stroke-width:0.2;stroke-linecap:square;stroke-linejoin:miter;stroke:rgb(0%,0%,0%);stroke-opacity:1;stroke-miterlimit:3.25;" d="M 11.199219 65.871094 L 216.578125 102.082031 "/>
</g>
<g clip-path="url(#clip5)" clip-rule="nonzero">
<path style="fill:none;stroke-width:0.2;stroke-linecap:square;stroke-linejoin:miter;stroke:rgb(0%,0%,0%);stroke-opacity:1;stroke-miterlimit:3.25;" d="M 241.742188 41.984375 L 41.921875 6.753906 "/>
</g>
<path style=" stroke:none;fill-rule:evenodd;fill:rgb(0%,0%,0%);fill-opacity:1;" d="M 26.550781 32.214844 C 26.550781 31.359375 25.824219 30.578125 24.441406 30.578125 L 21.039062 30.578125 C 20.832031 30.578125 20.730469 30.578125 20.730469 30.785156 C 20.730469 30.894531 20.832031 30.894531 20.996094 30.894531 C 21.667969 30.894531 21.667969 30.984375 21.667969 31.105469 C 21.667969 31.105469 21.667969 31.195312 21.621094 31.359375 L 20.136719 37.277344 C 20.039062 37.664062 20.015625 37.773438 19.246094 37.773438 C 19.035156 37.773438 18.925781 37.773438 18.925781 37.972656 C 18.925781 38.09375 19.023438 38.09375 19.09375 38.09375 C 19.300781 38.09375 19.519531 38.070312 19.730469 38.070312 L 21.019531 38.070312 C 21.226562 38.070312 21.457031 38.09375 21.667969 38.09375 C 21.753906 38.09375 21.875 38.09375 21.875 37.882812 C 21.875 37.773438 21.777344 37.773438 21.613281 37.773438 C 20.953125 37.773438 20.941406 37.695312 20.941406 37.585938 C 20.941406 37.53125 20.953125 37.457031 20.964844 37.398438 L 21.667969 34.59375 L 23.515625 34.59375 C 25.035156 34.59375 26.550781 33.46875 26.550781 32.214844 Z M 25.628906 31.984375 C 25.628906 32.273438 25.484375 33.207031 24.980469 33.710938 C 24.792969 33.910156 24.261719 34.328125 23.261719 34.328125 L 21.710938 34.328125 L 22.460938 31.324219 C 22.558594 30.917969 22.601562 30.894531 23.03125 30.894531 L 24.121094 30.894531 C 24.945312 30.894531 25.628906 31.160156 25.628906 31.984375 Z M 25.628906 31.984375 "/>
<path style=" stroke:none;fill-rule:evenodd;fill:rgb(0%,0%,0%);fill-opacity:1;" d="M 30.023438 37.867188 C 30.101562 37.554688 30.191406 37.195312 30.191406 36.894531 C 30.191406 36.683594 30.148438 36.5 30.011719 36.382812 C 29.964844 36.34375 29.894531 36.324219 29.824219 36.324219 C 29.726562 36.324219 29.621094 36.371094 29.535156 36.460938 C 29.464844 36.535156 29.429688 36.628906 29.429688 36.714844 C 29.429688 36.796875 29.460938 36.871094 29.527344 36.925781 C 29.71875 37.078125 29.824219 37.308594 29.824219 37.566406 C 29.824219 37.652344 29.808594 37.738281 29.796875 37.820312 C 29.621094 38.5 29.144531 39.179688 28.542969 39.179688 C 28.128906 39.179688 27.863281 38.929688 27.769531 38.570312 C 27.878906 38.347656 27.960938 38.105469 28.015625 37.867188 C 28.03125 37.8125 28.039062 37.753906 28.039062 37.699219 C 28.039062 37.5625 27.984375 37.453125 27.855469 37.453125 C 27.703125 37.453125 27.585938 37.636719 27.550781 37.820312 C 27.480469 38.074219 27.449219 38.316406 27.457031 38.539062 C 27.199219 38.914062 26.824219 39.179688 26.417969 39.179688 C 25.945312 39.179688 25.714844 38.792969 25.714844 38.300781 C 25.714844 38.164062 25.730469 38.019531 25.769531 37.867188 C 25.882812 37.425781 26.152344 37.003906 26.457031 36.613281 C 26.480469 36.574219 26.496094 36.535156 26.496094 36.507812 C 26.496094 36.453125 26.464844 36.40625 26.417969 36.375 C 26.394531 36.363281 26.371094 36.355469 26.339844 36.355469 C 26.289062 36.355469 26.226562 36.382812 26.1875 36.429688 C 25.867188 36.867188 25.660156 37.339844 25.539062 37.820312 C 25.472656 38.089844 25.433594 38.347656 25.433594 38.601562 C 25.433594 39.257812 25.691406 39.769531 26.320312 39.769531 C 26.800781 39.769531 27.207031 39.457031 27.519531 39.011719 C 27.632812 39.464844 27.929688 39.769531 28.433594 39.769531 C 29.246094 39.769531 29.796875 38.800781 30.023438 37.867188 Z M 30.023438 37.867188 "/>
<path style="fill-rule:nonzero;fill:rgb(100%,100%,86.999313%);fill-opacity:1;stroke-width:1;stroke-linecap:square;stroke-linejoin:miter;stroke:rgb(0%,0%,0%);stroke-opacity:1;stroke-miterlimit:3.25;" d="M 88.105469 79.429688 L 88.109375 79.40625 L 88.542969 77.214844 L 89.066406 75.058594 L 89.6875 72.949219 L 90.394531 70.886719 L 91.191406 68.875 L 92.074219 66.921875 L 93.042969 65.027344 L 94.089844 63.191406 L 95.214844 61.425781 L 96.417969 59.726562 L 97.6875 58.097656 L 99.03125 56.546875 L 100.4375 55.074219 L 101.910156 53.683594 L 103.4375 52.375 L 105.023438 51.152344 L 106.660156 50.019531 L 108.347656 48.976562 L 110.074219 48.027344 L 111.84375 47.175781 L 113.648438 46.417969 L 115.488281 45.757812 L 117.351562 45.199219 L 119.242188 44.742188 L 121.148438 44.390625 L 123.066406 44.144531 L 124.992188 44.007812 L 126.917969 43.980469 L 128.847656 44.058594 L 130.769531 44.246094 L 132.683594 44.539062 L 134.582031 44.941406 L 136.460938 45.445312 L 138.3125 46.050781 L 140.136719 46.757812 L 141.925781 47.558594 L 143.675781 48.457031 L 145.386719 49.449219 L 147.046875 50.535156 L 148.660156 51.710938 L 150.222656 52.972656 L 151.722656 54.320312 L 153.164062 55.75 L 154.542969 57.261719 L 155.855469 58.847656 L 157.09375 60.507812 L 158.257812 62.238281 L 159.347656 64.039062 L 160.359375 65.898438 L 161.289062 67.824219 L 162.128906 69.804688 L 162.886719 71.839844 L 163.554688 73.925781 L 164.128906 76.054688 L 164.613281 78.230469 L 165 80.441406 L 165.292969 82.6875 L 165.367188 82.75 L 165.445312 82.808594 L 165.617188 82.941406 L 165.804688 83.074219 L 165.90625 83.144531 L 166.117188 83.285156 L 166.230469 83.359375 L 166.347656 83.433594 L 166.46875 83.507812 L 166.59375 83.582031 L 166.722656 83.660156 L 166.859375 83.734375 L 166.996094 83.8125 L 167.140625 83.886719 L 167.289062 83.964844 L 167.441406 84.042969 L 167.597656 84.121094 L 167.757812 84.199219 L 168.09375 84.355469 L 168.269531 84.429688 L 168.449219 84.507812 L 168.632812 84.582031 L 168.824219 84.660156 L 169.015625 84.734375 L 169.214844 84.808594 L 169.417969 84.882812 L 169.625 84.953125 L 170.054688 85.09375 L 170.277344 85.164062 L 170.503906 85.230469 L 170.734375 85.296875 L 170.972656 85.363281 L 171.210938 85.425781 L 171.457031 85.484375 L 171.707031 85.546875 L 171.960938 85.601562 L 172.484375 85.710938 L 172.753906 85.761719 L 173.027344 85.808594 L 173.304688 85.855469 L 173.585938 85.898438 L 173.875 85.941406 L 174.164062 85.980469 L 174.460938 86.015625 L 174.761719 86.046875 L 175.066406 86.078125 L 175.375 86.101562 L 175.6875 86.125 L 176.328125 86.164062 L 176.667969 86.175781 L 177.03125 86.1875 L 177.75 86.195312 L 229.03125 86.195312 L 228.914062 83.9375 L 228.742188 81.710938 L 228.515625 79.511719 L 228.234375 77.339844 L 227.902344 75.203125 L 227.519531 73.101562 L 227.089844 71.035156 L 226.613281 69.003906 L 226.09375 67.011719 L 225.527344 65.0625 L 224.921875 63.152344 L 224.277344 61.289062 L 223.59375 59.464844 L 222.878906 57.6875 L 222.128906 55.960938 L 221.347656 54.277344 L 220.535156 52.644531 L 219.699219 51.058594 L 218.835938 49.523438 L 217.953125 48.039062 L 217.050781 46.605469 L 216.128906 45.222656 L 215.191406 43.894531 L 214.246094 42.617188 L 213.285156 41.390625 L 212.316406 40.21875 L 211.347656 39.105469 L 210.378906 38.046875 L 209.414062 37.042969 L 208.476562 36.121094 L 132.089844 22.652344 L 73.945312 22.664062 L 73.050781 22.710938 L 72.132812 22.78125 L 71.199219 22.878906 L 70.246094 23.003906 L 69.277344 23.152344 L 68.292969 23.332031 L 67.289062 23.539062 L 66.273438 23.777344 L 65.246094 24.046875 L 64.203125 24.351562 L 63.152344 24.683594 L 62.085938 25.050781 L 61.011719 25.453125 L 59.929688 25.890625 L 58.839844 26.363281 L 57.746094 26.875 L 56.644531 27.417969 L 55.539062 28.003906 L 54.429688 28.625 L 53.320312 29.285156 L 52.210938 29.984375 L 51.101562 30.726562 L 49.996094 31.503906 L 48.890625 32.324219 L 47.792969 33.183594 L 46.835938 33.976562 L 45.890625 34.796875 L 44.9375 35.667969 L 43.976562 36.59375 L 43.011719 37.574219 L 42.042969 38.605469 L 41.074219 39.695312 L 40.105469 40.839844 L 39.144531 42.039062 L 38.1875 43.292969 L 37.246094 44.597656 L 36.316406 45.957031 L 35.40625 47.363281 L 34.511719 48.824219 L 33.640625 50.335938 L 32.792969 51.898438 L 31.96875 53.511719 L 31.175781 55.171875 L 30.410156 56.878906 L 29.675781 58.632812 L 28.976562 60.433594 L 28.316406 62.28125 L 27.691406 64.167969 L 27.105469 66.101562 L 26.566406 68.074219 L 26.445312 68.558594 Z M 88.105469 79.429688 "/>
<path style=" stroke:none;fill-rule:evenodd;fill:rgb(0%,0%,0%);fill-opacity:1;" d="M 69.214844 54.640625 C 69.214844 54.179688 69.105469 53.769531 68.6875 53.363281 C 68.457031 53.132812 68.257812 53.078125 67.246094 52.8125 C 66.507812 52.617188 66.410156 52.582031 66.210938 52.40625 C 66.023438 52.21875 65.882812 51.953125 65.882812 51.582031 C 65.882812 50.65625 66.816406 49.707031 67.863281 49.707031 C 68.941406 49.707031 69.449219 50.371094 69.449219 51.414062 C 69.449219 51.699219 69.390625 51.996094 69.390625 52.042969 C 69.390625 52.140625 69.480469 52.140625 69.511719 52.140625 C 69.613281 52.140625 69.621094 52.109375 69.667969 51.933594 L 70.261719 49.511719 C 70.261719 49.410156 70.160156 49.410156 70.160156 49.410156 C 70.117188 49.410156 70.105469 49.421875 69.976562 49.589844 L 69.449219 50.246094 C 69.082031 49.535156 68.359375 49.410156 67.894531 49.410156 C 66.496094 49.410156 65.234375 50.6875 65.234375 51.933594 C 65.234375 52.757812 65.726562 53.242188 66.265625 53.429688 C 66.386719 53.472656 67.035156 53.648438 67.367188 53.726562 C 67.929688 53.878906 68.070312 53.925781 68.300781 54.167969 C 68.347656 54.222656 68.566406 54.476562 68.566406 54.992188 C 68.566406 56.015625 67.621094 57.074219 66.519531 57.074219 C 65.617188 57.074219 64.617188 56.6875 64.617188 55.453125 C 64.617188 55.246094 64.660156 54.980469 64.691406 54.871094 C 64.691406 54.835938 64.703125 54.761719 64.703125 54.761719 C 64.703125 54.71875 64.679688 54.660156 64.59375 54.660156 C 64.496094 54.660156 64.484375 54.683594 64.4375 54.871094 L 63.878906 57.128906 L 63.832031 57.292969 C 63.832031 57.390625 63.945312 57.390625 63.945312 57.390625 C 63.988281 57.390625 64 57.378906 64.128906 57.214844 L 64.636719 56.554688 C 64.902344 56.949219 65.472656 57.390625 66.496094 57.390625 C 67.917969 57.390625 69.214844 56.015625 69.214844 54.640625 Z M 69.214844 54.640625 "/>
<path style=" stroke:none;fill-rule:evenodd;fill:rgb(0%,0%,0%);fill-opacity:1;" d="M 74.589844 56.933594 C 74.664062 56.621094 74.757812 56.261719 74.757812 55.960938 C 74.757812 55.75 74.710938 55.566406 74.574219 55.449219 C 74.527344 55.414062 74.460938 55.390625 74.390625 55.390625 C 74.292969 55.390625 74.183594 55.4375 74.101562 55.527344 C 74.03125 55.601562 73.992188 55.695312 73.992188 55.78125 C 73.992188 55.863281 74.023438 55.9375 74.09375 55.992188 C 74.285156 56.144531 74.390625 56.375 74.390625 56.636719 C 74.390625 56.71875 74.375 56.804688 74.359375 56.886719 C 74.183594 57.566406 73.710938 58.246094 73.109375 58.246094 C 72.695312 58.246094 72.425781 57.996094 72.335938 57.636719 C 72.441406 57.414062 72.527344 57.171875 72.578125 56.933594 C 72.59375 56.878906 72.601562 56.820312 72.601562 56.765625 C 72.601562 56.628906 72.550781 56.519531 72.421875 56.519531 C 72.265625 56.519531 72.152344 56.703125 72.113281 56.886719 C 72.046875 57.140625 72.015625 57.386719 72.023438 57.605469 C 71.761719 57.980469 71.386719 58.246094 70.980469 58.246094 C 70.507812 58.246094 70.277344 57.859375 70.277344 57.371094 C 70.277344 57.230469 70.292969 57.085938 70.332031 56.933594 C 70.449219 56.492188 70.714844 56.070312 71.019531 55.679688 C 71.042969 55.640625 71.058594 55.601562 71.058594 55.574219 C 71.058594 55.519531 71.027344 55.472656 70.980469 55.445312 C 70.957031 55.429688 70.9375 55.421875 70.90625 55.421875 C 70.851562 55.421875 70.792969 55.449219 70.753906 55.496094 C 70.433594 55.933594 70.226562 56.40625 70.105469 56.886719 C 70.035156 57.15625 69.996094 57.414062 69.996094 57.667969 C 69.996094 58.324219 70.257812 58.835938 70.882812 58.835938 C 71.363281 58.835938 71.769531 58.523438 72.082031 58.082031 C 72.199219 58.53125 72.496094 58.835938 73 58.835938 C 73.8125 58.835938 74.359375 57.867188 74.589844 56.933594 Z M 74.589844 56.933594 "/>
<path style="fill-rule:nonzero;fill:rgb(66.666667%,0%,0%);fill-opacity:1;stroke-width:2;stroke-linecap:square;stroke-linejoin:miter;stroke:rgb(66.666667%,0%,0%);stroke-opacity:1;stroke-miterlimit:3.25;" d="M 126.472656 86.195312 L 132.03125 86.195312 L 120.996094 85.230469 Z M 126.472656 86.195312 "/>
<path style=" stroke:none;fill-rule:evenodd;fill:rgb(66.666667%,0%,0%);fill-opacity:1;" d="M 145.464844 71.824219 C 145.464844 71.78125 145.441406 71.714844 145.417969 71.683594 L 141.746094 64.246094 C 141.667969 64.09375 141.648438 64.046875 141.492188 64.046875 C 141.328125 64.046875 141.304688 64.09375 141.226562 64.246094 L 137.554688 71.683594 C 137.53125 71.714844 137.511719 71.78125 137.511719 71.824219 C 137.511719 71.890625 137.519531 71.902344 137.742188 71.902344 L 145.234375 71.902344 C 145.453125 71.902344 145.464844 71.890625 145.464844 71.824219 Z M 144.152344 71.144531 L 138.160156 71.144531 L 141.152344 65.058594 Z M 144.152344 71.144531 "/>
<path style=" stroke:none;fill-rule:evenodd;fill:rgb(66.666667%,0%,0%);fill-opacity:1;" d="M 150.613281 71.675781 C 150.691406 71.363281 150.785156 71.003906 150.785156 70.707031 C 150.785156 70.492188 150.738281 70.308594 150.601562 70.195312 C 150.554688 70.15625 150.484375 70.132812 150.417969 70.132812 C 150.316406 70.132812 150.210938 70.179688 150.125 70.269531 C 150.058594 70.347656 150.019531 70.4375 150.019531 70.523438 C 150.019531 70.609375 150.050781 70.683594 150.121094 70.738281 C 150.308594 70.890625 150.417969 71.117188 150.417969 71.378906 C 150.417969 71.460938 150.402344 71.546875 150.386719 71.628906 C 150.210938 72.308594 149.738281 72.988281 149.132812 72.988281 C 148.722656 72.988281 148.453125 72.738281 148.363281 72.378906 C 148.46875 72.15625 148.554688 71.914062 148.605469 71.675781 C 148.621094 71.621094 148.628906 71.5625 148.628906 71.507812 C 148.628906 71.371094 148.578125 71.265625 148.445312 71.265625 C 148.292969 71.265625 148.179688 71.445312 148.140625 71.628906 C 148.070312 71.882812 148.039062 72.128906 148.046875 72.347656 C 147.789062 72.722656 147.414062 72.988281 147.007812 72.988281 C 146.535156 72.988281 146.304688 72.601562 146.304688 72.113281 C 146.304688 71.972656 146.320312 71.828125 146.359375 71.675781 C 146.476562 71.234375 146.742188 70.8125 147.046875 70.421875 C 147.070312 70.386719 147.085938 70.347656 147.085938 70.316406 C 147.085938 70.261719 147.054688 70.21875 147.007812 70.1875 C 146.984375 70.171875 146.964844 70.164062 146.933594 70.164062 C 146.878906 70.164062 146.820312 70.195312 146.78125 70.242188 C 146.460938 70.675781 146.253906 71.148438 146.132812 71.628906 C 146.0625 71.898438 146.023438 72.15625 146.023438 72.410156 C 146.023438 73.066406 146.285156 73.578125 146.910156 73.578125 C 147.390625 73.578125 147.796875 73.265625 148.109375 72.824219 C 148.226562 73.273438 148.523438 73.578125 149.027344 73.578125 C 149.835938 73.578125 150.386719 72.609375 150.613281 71.675781 Z M 150.613281 71.675781 "/>
<path style="fill:none;stroke-width:1;stroke-linecap:square;stroke-linejoin:miter;stroke:rgb(66.666667%,0%,0%);stroke-opacity:1;stroke-miterlimit:3.25;" d="M 126.472656 86.195312 L 136.003906 76.660156 "/>
<path style=" stroke:none;fill-rule:evenodd;fill:rgb(0%,0%,0%);fill-opacity:1;" d="M 127.5 86 C 127.5 85.601562 127.34375 85.21875 127.0625 84.9375 C 126.78125 84.65625 126.398438 84.5 126 84.5 C 125.601562 84.5 125.21875 84.65625 124.9375 84.9375 C 124.65625 85.21875 124.5 85.601562 124.5 86 C 124.5 86.398438 124.65625 86.78125 124.9375 87.0625 C 125.21875 87.34375 125.601562 87.5 126 87.5 C 126.398438 87.5 126.78125 87.34375 127.0625 87.0625 C 127.34375 86.78125 127.5 86.398438 127.5 86 Z M 127.5 86 "/>
<path style=" stroke:none;fill-rule:evenodd;fill:rgb(0%,0%,0%);fill-opacity:1;" d="M 128.460938 94.476562 C 128.460938 92.660156 127.269531 91.546875 125.730469 91.546875 C 123.375 91.546875 121 94.078125 121 96.621094 C 121 98.347656 122.140625 99.527344 123.738281 99.527344 C 126.050781 99.527344 128.460938 97.117188 128.460938 94.476562 Z M 127.578125 94.078125 C 127.578125 95.058594 127.160156 96.589844 126.425781 97.636719 C 125.621094 98.757812 124.621094 99.273438 123.804688 99.273438 C 122.902344 99.273438 121.945312 98.613281 121.945312 96.898438 C 121.945312 95.894531 122.308594 94.257812 123.210938 93.15625 C 124.015625 92.1875 124.9375 91.789062 125.675781 91.789062 C 126.644531 91.789062 127.578125 92.496094 127.578125 94.078125 Z M 127.578125 94.078125 "/>
<path style=" stroke:none;fill-rule:evenodd;fill:rgb(0%,0%,0%);fill-opacity:1;" d="M 133.5 23 C 133.5 22.601562 133.34375 22.21875 133.0625 21.9375 C 132.78125 21.65625 132.398438 21.5 132 21.5 C 131.601562 21.5 131.21875 21.65625 130.9375 21.9375 C 130.65625 22.21875 130.5 22.601562 130.5 23 C 130.5 23.398438 130.65625 23.78125 130.9375 24.0625 C 131.21875 24.34375 131.601562 24.5 132 24.5 C 132.398438 24.5 132.78125 24.34375 133.0625 24.0625 C 133.34375 23.78125 133.5 23.398438 133.5 23 Z M 133.5 23 "/>
<path style=" stroke:none;fill-rule:evenodd;fill:rgb(0%,0%,0%);fill-opacity:1;" d="M 138.050781 14.855469 C 138.050781 13.808594 137.367188 13.027344 136.367188 13.027344 C 134.914062 13.027344 133.484375 14.613281 133.484375 16.164062 C 133.484375 17.210938 134.164062 17.992188 135.167969 17.992188 C 136.628906 17.992188 138.050781 16.40625 138.050781 14.855469 Z M 137.3125 14.460938 C 137.3125 14.902344 137.082031 16.078125 136.664062 16.75 C 136.210938 17.484375 135.605469 17.773438 135.175781 17.773438 C 134.628906 17.773438 134.21875 17.332031 134.21875 16.5625 C 134.21875 16.054688 134.484375 14.933594 134.792969 14.382812 C 135.289062 13.535156 135.902344 13.25 136.355469 13.25 C 136.894531 13.25 137.3125 13.691406 137.3125 14.460938 Z M 137.3125 14.460938 "/>
<path style=" stroke:none;fill-rule:evenodd;fill:rgb(0%,0%,0%);fill-opacity:1;" d="M 142.949219 17.65625 C 143.023438 17.34375 143.117188 16.984375 143.117188 16.6875 C 143.117188 16.472656 143.070312 16.289062 142.933594 16.171875 C 142.886719 16.136719 142.816406 16.113281 142.75 16.113281 C 142.648438 16.113281 142.542969 16.160156 142.457031 16.25 C 142.390625 16.328125 142.351562 16.417969 142.351562 16.503906 C 142.351562 16.585938 142.382812 16.664062 142.453125 16.71875 C 142.644531 16.867188 142.75 17.097656 142.75 17.359375 C 142.75 17.441406 142.734375 17.527344 142.71875 17.609375 C 142.542969 18.289062 142.070312 18.96875 141.464844 18.96875 C 141.054688 18.96875 140.785156 18.71875 140.695312 18.359375 C 140.800781 18.136719 140.882812 17.894531 140.9375 17.65625 C 140.953125 17.601562 140.960938 17.542969 140.960938 17.488281 C 140.960938 17.351562 140.90625 17.242188 140.777344 17.242188 C 140.625 17.242188 140.507812 17.425781 140.472656 17.609375 C 140.402344 17.863281 140.371094 18.109375 140.378906 18.328125 C 140.121094 18.703125 139.746094 18.96875 139.339844 18.96875 C 138.867188 18.96875 138.636719 18.582031 138.636719 18.09375 C 138.636719 17.953125 138.652344 17.808594 138.691406 17.65625 C 138.804688 17.214844 139.074219 16.792969 139.378906 16.402344 C 139.402344 16.367188 139.417969 16.328125 139.417969 16.296875 C 139.417969 16.242188 139.386719 16.195312 139.339844 16.167969 C 139.316406 16.152344 139.296875 16.144531 139.265625 16.144531 C 139.210938 16.144531 139.148438 16.171875 139.109375 16.21875 C 138.789062 16.65625 138.585938 17.128906 138.460938 17.609375 C 138.394531 17.878906 138.355469 18.136719 138.355469 18.390625 C 138.355469 19.046875 138.617188 19.558594 139.242188 19.558594 C 139.722656 19.558594 140.128906 19.246094 140.441406 18.804688 C 140.554688 19.253906 140.851562 19.558594 141.359375 19.558594 C 142.167969 19.558594 142.71875 18.589844 142.949219 17.65625 Z M 142.949219 17.65625 "/>
<path style="fill:none;stroke-width:1;stroke-linecap:butt;stroke-linejoin:miter;stroke:rgb(0%,0%,0%);stroke-opacity:1;stroke-dasharray:1,4;stroke-miterlimit:3.25;" d="M 132.03125 22.640625 L 132.03125 86.195312 "/>
<path style="fill:none;stroke-width:1;stroke-linecap:butt;stroke-linejoin:miter;stroke:rgb(0%,0%,0%);stroke-opacity:1;stroke-dasharray:1,4;stroke-miterlimit:3.25;" d="M 132.03125 22.640625 L 120.996094 85.230469 "/>
<path style="fill:none;stroke-width:0.2;stroke-linecap:square;stroke-linejoin:miter;stroke:rgb(0%,0%,0%);stroke-opacity:1;stroke-miterlimit:3.25;" d="M 135.84375 86.195312 L 135.84375 82.382812 L 132.03125 82.382812 "/>
<path style="fill:none;stroke-width:0.2;stroke-linecap:square;stroke-linejoin:miter;stroke:rgb(0%,0%,0%);stroke-opacity:1;stroke-miterlimit:3.25;" d="M 117.238281 84.566406 L 117.902344 80.8125 L 121.65625 81.472656 "/>
<g clip-path="url(#clip6)" clip-rule="nonzero">
<path style=" stroke:none;fill-rule:nonzero;fill:rgb(74.999619%,74.999619%,74.999619%);fill-opacity:1;" d="M 232.035156 47.28125 L 349.960938 47.28125 L 349.960938 165.207031 L 379.441406 165.207031 L 379.441406 17.800781 L 232.035156 17.800781 Z M 232.035156 47.28125 "/>
</g>
<g clip-path="url(#clip7)" clip-rule="nonzero">
<path style="fill:none;stroke-width:1;stroke-linecap:square;stroke-linejoin:miter;stroke:rgb(0%,0%,0%);stroke-opacity:1;stroke-miterlimit:3.25;" d="M 232.035156 47.28125 L 349.960938 47.28125 "/>
</g>
<g clip-path="url(#clip8)" clip-rule="nonzero">
<path style="fill:none;stroke-width:1;stroke-linecap:square;stroke-linejoin:miter;stroke:rgb(0%,0%,0%);stroke-opacity:1;stroke-miterlimit:3.25;" d="M 349.960938 94.074219 L 349.960938 47.28125 "/>
</g>
<path style=" stroke:none;fill-rule:nonzero;fill:rgb(0%,0%,0%);fill-opacity:1;" d="M 349.960938 47.28125 L 350.460938 47.78125 L 350.460938 46.78125 L 349.960938 46.78125 Z M 349.960938 47.28125 "/>
<g clip-path="url(#clip9)" clip-rule="nonzero">
<path style="fill:none;stroke-width:1;stroke-linecap:square;stroke-linejoin:miter;stroke:rgb(0%,0%,0%);stroke-opacity:1;stroke-miterlimit:3.25;" d="M 349.960938 94.074219 L 349.960938 47.28125 "/>
</g>
<path style=" stroke:none;fill-rule:nonzero;fill:rgb(0%,0%,0%);fill-opacity:1;" d="M 349.960938 47.28125 L 350.460938 47.78125 L 350.460938 46.78125 L 349.960938 46.78125 Z M 349.960938 47.28125 "/>
<g clip-path="url(#clip10)" clip-rule="nonzero">
<path style="fill:none;stroke-width:1;stroke-linecap:square;stroke-linejoin:miter;stroke:rgb(0%,0%,0%);stroke-opacity:1;stroke-miterlimit:3.25;" d="M 232.035156 17.800781 L 379.441406 17.800781 "/>
</g>
<g clip-path="url(#clip11)" clip-rule="nonzero">
<path style="fill:none;stroke-width:1;stroke-linecap:square;stroke-linejoin:miter;stroke:rgb(0%,0%,0%);stroke-opacity:1;stroke-miterlimit:3.25;" d="M 379.441406 94.074219 L 379.441406 17.800781 "/>
</g>
<path style=" stroke:none;fill-rule:nonzero;fill:rgb(0%,0%,0%);fill-opacity:1;" d="M 379.441406 17.800781 L 379.941406 18.300781 L 379.941406 17.300781 L 379.441406 17.300781 Z M 379.441406 17.800781 "/>
<g clip-path="url(#clip12)" clip-rule="nonzero">
<path style="fill:none;stroke-width:1;stroke-linecap:square;stroke-linejoin:miter;stroke:rgb(0%,0%,0%);stroke-opacity:1;stroke-miterlimit:3.25;" d="M 379.441406 94.074219 L 379.441406 17.800781 "/>
</g>
<path style=" stroke:none;fill-rule:nonzero;fill:rgb(0%,0%,0%);fill-opacity:1;" d="M 379.441406 17.800781 L 379.941406 18.300781 L 379.941406 17.300781 L 379.441406 17.300781 Z M 379.441406 17.800781 "/>
<path style="fill-rule:nonzero;fill:rgb(100%,100%,86.999313%);fill-opacity:1;stroke-width:1;stroke-linecap:square;stroke-linejoin:miter;stroke:rgb(0%,0%,0%);stroke-opacity:1;stroke-miterlimit:3.25;" d="M 314.070312 44.144531 L 314.070312 44.132812 L 314.269531 43.117188 L 314.515625 42.117188 L 314.800781 41.136719 L 315.128906 40.179688 L 315.5 39.25 L 315.910156 38.34375 L 316.359375 37.460938 L 316.84375 36.613281 L 317.367188 35.792969 L 317.921875 35.003906 L 318.515625 34.25 L 319.136719 33.53125 L 319.789062 32.847656 L 320.472656 32.203125 L 321.179688 31.59375 L 321.917969 31.027344 L 322.675781 30.5 L 323.457031 30.019531 L 324.257812 29.578125 L 325.082031 29.183594 L 325.917969 28.832031 L 326.769531 28.523438 L 327.636719 28.265625 L 328.511719 28.054688 L 329.394531 27.890625 L 330.285156 27.777344 L 331.179688 27.714844 L 332.074219 27.699219 L 332.96875 27.738281 L 333.859375 27.824219 L 334.746094 27.960938 L 335.628906 28.144531 L 336.5 28.378906 L 337.359375 28.660156 L 338.203125 28.988281 L 339.035156 29.359375 L 339.847656 29.777344 L 340.640625 30.238281 L 341.410156 30.742188 L 342.160156 31.285156 L 342.882812 31.871094 L 343.578125 32.496094 L 344.25 33.160156 L 344.886719 33.859375 L 345.496094 34.597656 L 346.070312 35.367188 L 346.609375 36.171875 L 347.117188 37.003906 L 347.585938 37.867188 L 348.015625 38.761719 L 348.40625 39.679688 L 348.757812 40.625 L 349.066406 41.589844 L 349.335938 42.578125 L 349.558594 43.585938 L 349.738281 44.613281 L 349.875 45.65625 L 349.945312 45.710938 L 350.023438 45.773438 L 350.066406 45.804688 L 350.113281 45.835938 L 350.15625 45.867188 L 350.207031 45.902344 L 350.257812 45.933594 L 350.308594 45.96875 L 350.363281 46 L 350.417969 46.035156 L 350.476562 46.070312 L 350.664062 46.175781 L 350.730469 46.210938 L 350.800781 46.25 L 350.941406 46.320312 L 351.015625 46.355469 L 351.09375 46.394531 L 351.171875 46.429688 L 351.253906 46.464844 L 351.339844 46.5 L 351.421875 46.535156 L 351.691406 46.640625 L 351.789062 46.671875 L 351.882812 46.707031 L 351.984375 46.738281 L 352.082031 46.773438 L 352.398438 46.867188 L 352.507812 46.894531 L 352.621094 46.925781 L 352.847656 46.980469 L 352.96875 47.007812 L 353.085938 47.035156 L 353.460938 47.105469 L 353.589844 47.125 L 353.988281 47.183594 L 354.125 47.199219 L 354.265625 47.214844 L 354.40625 47.226562 L 354.695312 47.25 L 354.84375 47.261719 L 354.992188 47.269531 L 355.152344 47.273438 L 355.316406 47.277344 L 355.484375 47.28125 L 379.441406 47.28125 L 379.386719 46.238281 L 379.304688 45.203125 L 379.199219 44.183594 L 379.070312 43.175781 L 378.917969 42.183594 L 378.738281 41.210938 L 378.539062 40.25 L 378.320312 39.308594 L 378.078125 38.386719 L 377.816406 37.480469 L 377.535156 36.59375 L 377.234375 35.730469 L 376.917969 34.882812 L 376.585938 34.058594 L 376.238281 33.257812 L 375.875 32.476562 L 375.5 31.71875 L 375.113281 30.984375 L 374.710938 30.269531 L 374.300781 29.582031 L 373.882812 28.917969 L 373.457031 28.277344 L 373.019531 27.660156 L 372.582031 27.066406 L 372.136719 26.5 L 371.6875 25.957031 L 371.238281 25.4375 L 370.789062 24.949219 L 370.339844 24.480469 L 369.90625 24.054688 L 334.472656 17.804688 L 307.5 17.8125 L 307.082031 17.835938 L 306.660156 17.867188 L 306.226562 17.914062 L 305.785156 17.96875 L 305.332031 18.039062 L 304.875 18.121094 L 304.414062 18.21875 L 303.941406 18.328125 L 303.464844 18.453125 L 302.980469 18.59375 L 302.492188 18.75 L 302 18.921875 L 301.5 19.105469 L 301 19.308594 L 300.492188 19.527344 L 299.984375 19.765625 L 299.472656 20.019531 L 298.960938 20.289062 L 298.445312 20.578125 L 297.933594 20.882812 L 297.417969 21.207031 L 296.902344 21.550781 L 296.390625 21.914062 L 295.878906 22.292969 L 295.367188 22.691406 L 294.921875 23.058594 L 294.484375 23.441406 L 294.042969 23.84375 L 293.597656 24.273438 L 293.148438 24.726562 L 292.699219 25.207031 L 292.25 25.710938 L 291.800781 26.242188 L 291.355469 26.800781 L 290.914062 27.382812 L 290.476562 27.988281 L 290.046875 28.617188 L 289.621094 29.269531 L 289.207031 29.949219 L 288.804688 30.648438 L 288.410156 31.375 L 288.027344 32.121094 L 287.660156 32.890625 L 287.304688 33.683594 L 286.964844 34.496094 L 286.640625 35.332031 L 286.332031 36.1875 L 286.042969 37.066406 L 285.773438 37.960938 L 285.519531 38.875 L 285.464844 39.101562 Z M 314.070312 44.144531 "/>
<path style=" stroke:none;fill-rule:nonzero;fill:rgb(66.666667%,0%,0%);fill-opacity:1;" d="M 331.863281 47.28125 L 334.445312 47.28125 L 329.324219 46.835938 Z M 331.863281 47.28125 "/>
<g clip-path="url(#clip13)" clip-rule="nonzero">
<path style="fill:none;stroke-width:2;stroke-linecap:square;stroke-linejoin:miter;stroke:rgb(66.666667%,0%,0%);stroke-opacity:1;stroke-miterlimit:3.25;" d="M 331.863281 47.28125 L 334.445312 47.28125 L 329.324219 46.835938 Z M 331.863281 47.28125 "/>
</g>
<path style=" stroke:none;fill-rule:evenodd;fill:rgb(66.666667%,0%,0%);fill-opacity:1;" d="M 338.832031 44.050781 C 338.832031 44.003906 338.808594 43.9375 338.789062 43.90625 L 335.113281 36.46875 C 335.039062 36.316406 335.015625 36.269531 334.859375 36.269531 C 334.695312 36.269531 334.675781 36.316406 334.597656 36.46875 L 330.921875 43.90625 C 330.902344 43.9375 330.878906 44.003906 330.878906 44.050781 C 330.878906 44.113281 330.890625 44.125 331.109375 44.125 L 338.601562 44.125 C 338.820312 44.125 338.832031 44.113281 338.832031 44.050781 Z M 337.523438 43.367188 L 331.527344 43.367188 L 334.519531 37.285156 Z M 337.523438 43.367188 "/>
<path style=" stroke:none;fill-rule:evenodd;fill:rgb(66.666667%,0%,0%);fill-opacity:1;" d="M 343.984375 43.898438 C 344.058594 43.585938 344.152344 43.226562 344.152344 42.929688 C 344.152344 42.714844 344.105469 42.53125 343.96875 42.417969 C 343.921875 42.378906 343.855469 42.355469 343.785156 42.355469 C 343.6875 42.355469 343.578125 42.402344 343.496094 42.492188 C 343.425781 42.570312 343.390625 42.660156 343.390625 42.746094 C 343.390625 42.832031 343.421875 42.90625 343.488281 42.960938 C 343.679688 43.113281 343.785156 43.339844 343.785156 43.601562 C 343.785156 43.683594 343.769531 43.769531 343.753906 43.855469 C 343.578125 44.535156 343.105469 45.214844 342.503906 45.214844 C 342.089844 45.214844 341.820312 44.960938 341.730469 44.601562 C 341.835938 44.378906 341.921875 44.136719 341.976562 43.898438 C 341.992188 43.847656 342 43.785156 342 43.730469 C 342 43.59375 341.945312 43.488281 341.816406 43.488281 C 341.664062 43.488281 341.546875 43.667969 341.507812 43.855469 C 341.441406 44.105469 341.410156 44.351562 341.417969 44.574219 C 341.15625 44.945312 340.78125 45.214844 340.378906 45.214844 C 339.90625 45.214844 339.675781 44.824219 339.675781 44.335938 C 339.675781 44.199219 339.691406 44.050781 339.730469 43.898438 C 339.84375 43.457031 340.113281 43.035156 340.417969 42.644531 C 340.441406 42.609375 340.453125 42.570312 340.453125 42.539062 C 340.453125 42.484375 340.421875 42.441406 340.378906 42.410156 C 340.355469 42.394531 340.332031 42.386719 340.300781 42.386719 C 340.25 42.386719 340.1875 42.417969 340.148438 42.464844 C 339.828125 42.898438 339.621094 43.371094 339.5 43.855469 C 339.433594 44.121094 339.394531 44.378906 339.394531 44.632812 C 339.394531 45.289062 339.652344 45.800781 340.28125 45.800781 C 340.761719 45.800781 341.164062 45.488281 341.476562 45.046875 C 341.59375 45.496094 341.890625 45.800781 342.394531 45.800781 C 343.207031 45.800781 343.753906 44.832031 343.984375 43.898438 Z M 343.984375 43.898438 "/>
<g clip-path="url(#clip14)" clip-rule="nonzero">
<path style=" stroke:none;fill-rule:nonzero;fill:rgb(74.999619%,74.999619%,74.999619%);fill-opacity:1;" d="M 232.035156 91.308594 L 349.960938 91.308594 L 349.960938 209.234375 L 379.441406 209.234375 L 379.441406 61.828125 L 232.035156 61.828125 Z M 232.035156 91.308594 "/>
</g>
<g clip-path="url(#clip15)" clip-rule="nonzero">
<path style="fill:none;stroke-width:1;stroke-linecap:square;stroke-linejoin:miter;stroke:rgb(0%,0%,0%);stroke-opacity:1;stroke-miterlimit:3.25;" d="M 232.035156 91.308594 L 349.960938 91.308594 "/>
</g>
<g clip-path="url(#clip16)" clip-rule="nonzero">
<path style="fill:none;stroke-width:1;stroke-linecap:square;stroke-linejoin:miter;stroke:rgb(0%,0%,0%);stroke-opacity:1;stroke-miterlimit:3.25;" d="M 349.960938 138.234375 L 349.960938 91.308594 "/>
</g>
<path style=" stroke:none;fill-rule:nonzero;fill:rgb(0%,0%,0%);fill-opacity:1;" d="M 349.960938 91.308594 L 350.460938 91.808594 L 350.460938 90.808594 L 349.960938 90.808594 Z M 349.960938 91.308594 "/>
<g clip-path="url(#clip17)" clip-rule="nonzero">
<path style="fill:none;stroke-width:1;stroke-linecap:square;stroke-linejoin:miter;stroke:rgb(0%,0%,0%);stroke-opacity:1;stroke-miterlimit:3.25;" d="M 349.960938 138.234375 L 349.960938 91.308594 "/>
</g>
<path style=" stroke:none;fill-rule:nonzero;fill:rgb(0%,0%,0%);fill-opacity:1;" d="M 349.960938 91.308594 L 350.460938 91.808594 L 350.460938 90.808594 L 349.960938 90.808594 Z M 349.960938 91.308594 "/>
<g clip-path="url(#clip18)" clip-rule="nonzero">
<path style="fill:none;stroke-width:1;stroke-linecap:square;stroke-linejoin:miter;stroke:rgb(0%,0%,0%);stroke-opacity:1;stroke-miterlimit:3.25;" d="M 232.035156 61.828125 L 379.441406 61.828125 "/>
</g>
<g clip-path="url(#clip19)" clip-rule="nonzero">
<path style="fill:none;stroke-width:1;stroke-linecap:square;stroke-linejoin:miter;stroke:rgb(0%,0%,0%);stroke-opacity:1;stroke-miterlimit:3.25;" d="M 379.441406 138.234375 L 379.441406 61.828125 "/>
</g>
<path style=" stroke:none;fill-rule:nonzero;fill:rgb(0%,0%,0%);fill-opacity:1;" d="M 379.441406 61.828125 L 379.941406 62.328125 L 379.941406 61.328125 L 379.441406 61.328125 Z M 379.441406 61.828125 "/>
<g clip-path="url(#clip20)" clip-rule="nonzero">
<path style="fill:none;stroke-width:1;stroke-linecap:square;stroke-linejoin:miter;stroke:rgb(0%,0%,0%);stroke-opacity:1;stroke-miterlimit:3.25;" d="M 379.441406 138.234375 L 379.441406 61.828125 "/>
</g>
<path style=" stroke:none;fill-rule:nonzero;fill:rgb(0%,0%,0%);fill-opacity:1;" d="M 379.441406 61.828125 L 379.941406 62.328125 L 379.941406 61.328125 L 379.441406 61.328125 Z M 379.441406 61.828125 "/>
<path style="fill-rule:nonzero;fill:rgb(100%,100%,86.999313%);fill-opacity:1;stroke-width:1;stroke-linecap:square;stroke-linejoin:miter;stroke:rgb(0%,0%,0%);stroke-opacity:1;stroke-miterlimit:3.25;" d="M 313.792969 91.308594 L 313.792969 91.296875 L 313.8125 90.261719 L 313.882812 89.234375 L 313.992188 88.21875 L 314.152344 87.21875 L 314.355469 86.238281 L 314.601562 85.273438 L 314.890625 84.328125 L 315.21875 83.40625 L 315.589844 82.511719 L 316.003906 81.636719 L 316.453125 80.792969 L 316.941406 79.976562 L 317.464844 79.1875 L 318.027344 78.433594 L 318.617188 77.714844 L 319.246094 77.027344 L 319.902344 76.378906 L 320.585938 75.765625 L 321.300781 75.191406 L 322.039062 74.660156 L 322.804688 74.167969 L 323.589844 73.71875 L 324.398438 73.3125 L 325.222656 72.953125 L 326.066406 72.640625 L 326.921875 72.375 L 327.789062 72.15625 L 328.667969 71.988281 L 329.554688 71.867188 L 330.449219 71.796875 L 331.347656 71.777344 L 332.246094 71.808594 L 333.144531 71.886719 L 334.042969 72.015625 L 334.929688 72.191406 L 335.8125 72.414062 L 336.683594 72.683594 L 337.546875 73 L 338.394531 73.359375 L 339.226562 73.765625 L 340.039062 74.21875 L 340.832031 74.710938 L 341.609375 75.25 L 342.359375 75.828125 L 343.085938 76.449219 L 343.785156 77.105469 L 344.457031 77.804688 L 345.101562 78.539062 L 345.710938 79.308594 L 346.289062 80.109375 L 346.835938 80.949219 L 347.34375 81.816406 L 347.816406 82.714844 L 348.253906 83.640625 L 348.648438 84.597656 L 349.003906 85.574219 L 349.316406 86.578125 L 349.355469 86.601562 L 349.398438 86.621094 L 349.441406 86.644531 L 349.582031 86.714844 L 349.632812 86.738281 L 349.742188 86.785156 L 349.800781 86.808594 L 349.859375 86.835938 L 349.984375 86.882812 L 350.117188 86.929688 L 350.257812 86.976562 L 350.40625 87.023438 L 350.484375 87.046875 L 350.648438 87.09375 L 350.730469 87.113281 L 350.816406 87.136719 L 350.996094 87.175781 L 351.183594 87.214844 L 351.28125 87.230469 L 351.378906 87.25 L 351.582031 87.28125 L 351.6875 87.292969 L 351.792969 87.308594 L 351.902344 87.320312 L 352.128906 87.34375 L 352.242188 87.351562 L 352.476562 87.367188 L 352.597656 87.371094 L 352.722656 87.378906 L 352.847656 87.378906 L 352.972656 87.382812 L 353.101562 87.382812 L 353.234375 87.378906 L 353.367188 87.378906 L 353.5 87.375 L 353.773438 87.359375 L 353.914062 87.351562 L 354.054688 87.339844 L 354.199219 87.328125 L 354.488281 87.296875 L 354.636719 87.277344 L 354.796875 87.257812 L 354.960938 87.230469 L 355.125 87.207031 L 355.292969 87.175781 L 378.71875 83.046875 L 378.484375 82.027344 L 378.222656 81.019531 L 377.941406 80.035156 L 377.640625 79.066406 L 377.316406 78.117188 L 376.972656 77.1875 L 376.609375 76.277344 L 376.230469 75.386719 L 375.832031 74.519531 L 375.414062 73.675781 L 374.984375 72.851562 L 374.539062 72.050781 L 374.082031 71.273438 L 373.609375 70.519531 L 373.128906 69.789062 L 372.636719 69.085938 L 372.132812 68.402344 L 371.625 67.746094 L 371.105469 67.113281 L 370.582031 66.507812 L 370.054688 65.925781 L 369.523438 65.367188 L 368.988281 64.835938 L 368.453125 64.328125 L 367.914062 63.847656 L 367.378906 63.390625 L 366.847656 62.960938 L 366.320312 62.554688 L 365.796875 62.171875 L 365.292969 61.828125 L 329.3125 61.828125 L 302.753906 66.515625 L 302.347656 66.609375 L 301.933594 66.714844 L 301.515625 66.835938 L 301.089844 66.96875 L 300.660156 67.117188 L 300.222656 67.277344 L 299.78125 67.453125 L 299.339844 67.644531 L 298.890625 67.847656 L 298.4375 68.070312 L 297.984375 68.308594 L 297.527344 68.5625 L 297.070312 68.832031 L 296.609375 69.121094 L 296.148438 69.421875 L 295.691406 69.742188 L 295.230469 70.082031 L 294.773438 70.4375 L 294.316406 70.8125 L 293.863281 71.203125 L 293.414062 71.613281 L 292.964844 72.039062 L 292.523438 72.484375 L 292.085938 72.949219 L 291.652344 73.429688 L 291.277344 73.867188 L 290.914062 74.316406 L 290.546875 74.792969 L 290.183594 75.292969 L 289.820312 75.820312 L 289.460938 76.367188 L 289.109375 76.945312 L 288.757812 77.546875 L 288.414062 78.171875 L 288.078125 78.820312 L 287.753906 79.492188 L 287.4375 80.1875 L 287.136719 80.90625 L 286.84375 81.644531 L 286.570312 82.40625 L 286.308594 83.1875 L 286.0625 83.988281 L 285.832031 84.8125 L 285.621094 85.652344 L 285.425781 86.515625 L 285.25 87.394531 L 285.097656 88.289062 L 284.964844 89.203125 L 284.855469 90.132812 L 284.765625 91.078125 L 284.75 91.308594 Z M 313.792969 91.308594 "/>
<path style=" stroke:none;fill-rule:nonzero;fill:rgb(66.666667%,0%,0%);fill-opacity:1;" d="M 331.863281 91.308594 L 334.40625 90.859375 L 329.285156 91.308594 Z M 331.863281 91.308594 "/>
<g clip-path="url(#clip21)" clip-rule="nonzero">
<path style="fill:none;stroke-width:2;stroke-linecap:square;stroke-linejoin:miter;stroke:rgb(66.666667%,0%,0%);stroke-opacity:1;stroke-miterlimit:3.25;" d="M 331.863281 91.308594 L 334.40625 90.859375 L 329.285156 91.308594 Z M 331.863281 91.308594 "/>
</g>
<path style=" stroke:none;fill-rule:evenodd;fill:rgb(66.666667%,0%,0%);fill-opacity:1;" d="M 329.988281 88.074219 C 329.988281 88.03125 329.964844 87.964844 329.945312 87.929688 L 326.269531 80.496094 C 326.191406 80.339844 326.171875 80.296875 326.015625 80.296875 C 325.851562 80.296875 325.832031 80.339844 325.753906 80.496094 L 322.078125 87.929688 C 322.054688 87.964844 322.035156 88.03125 322.035156 88.074219 C 322.035156 88.140625 322.046875 88.152344 322.265625 88.152344 L 329.757812 88.152344 C 329.976562 88.152344 329.988281 88.140625 329.988281 88.074219 Z M 328.679688 87.390625 L 322.683594 87.390625 L 325.675781 81.308594 Z M 328.679688 87.390625 "/>
<path style=" stroke:none;fill-rule:evenodd;fill:rgb(66.666667%,0%,0%);fill-opacity:1;" d="M 335.140625 87.925781 C 335.214844 87.613281 335.308594 87.253906 335.308594 86.953125 C 335.308594 86.742188 335.261719 86.558594 335.125 86.441406 C 335.078125 86.40625 335.011719 86.382812 334.941406 86.382812 C 334.84375 86.382812 334.734375 86.429688 334.652344 86.519531 C 334.582031 86.59375 334.542969 86.6875 334.542969 86.773438 C 334.542969 86.855469 334.574219 86.929688 334.644531 86.984375 C 334.835938 87.136719 334.941406 87.367188 334.941406 87.625 C 334.941406 87.710938 334.925781 87.792969 334.910156 87.878906 C 334.734375 88.558594 334.261719 89.238281 333.660156 89.238281 C 333.246094 89.238281 332.976562 88.988281 332.886719 88.628906 C 332.992188 88.40625 333.078125 88.160156 333.128906 87.925781 C 333.144531 87.871094 333.152344 87.808594 333.152344 87.757812 C 333.152344 87.621094 333.101562 87.511719 332.972656 87.511719 C 332.816406 87.511719 332.703125 87.695312 332.664062 87.878906 C 332.597656 88.128906 332.566406 88.375 332.574219 88.597656 C 332.3125 88.972656 331.9375 89.238281 331.535156 89.238281 C 331.0625 89.238281 330.832031 88.847656 330.832031 88.359375 C 330.832031 88.222656 330.847656 88.078125 330.882812 87.925781 C 331 87.480469 331.265625 87.0625 331.574219 86.671875 C 331.59375 86.632812 331.609375 86.59375 331.609375 86.566406 C 331.609375 86.511719 331.578125 86.464844 331.535156 86.4375 C 331.511719 86.421875 331.488281 86.414062 331.457031 86.414062 C 331.40625 86.414062 331.34375 86.441406 331.304688 86.488281 C 330.984375 86.925781 330.777344 87.398438 330.65625 87.878906 C 330.585938 88.144531 330.546875 88.40625 330.546875 88.660156 C 330.546875 89.316406 330.808594 89.828125 331.4375 89.828125 C 331.917969 89.828125 332.320312 89.511719 332.632812 89.070312 C 332.75 89.519531 333.046875 89.828125 333.550781 89.828125 C 334.363281 89.828125 334.910156 88.855469 335.140625 87.925781 Z M 335.140625 87.925781 "/>
</g>
</svg>
