<?xml version="1.0" encoding="UTF-8"?>
<svg xmlns="http://www.w3.org/2000/svg" xmlns:xlink="http://www.w3.org/1999/xlink" width="404pt" height="109pt" viewBox="0 0 404 109" version="1.1">
<defs>
<clipPath id="clip1">
  <path d="M 11.039062 22 L 241.679688 22 L 241.679688 87 L 11.039062 87 Z M 11.039062 22 "/>
</clipPath>
<clipPath id="clip2">
  <path d="M 11.039062 86 L 241.679688 86 L 241.679688 87 L 11.039062 87 Z M 11.039062 86 "/>
</clipPath>
<clipPath id="clip3">
  <path d="M 11.039062 22 L 241.679688 22 L 241.679688 23 L 11.039062 23 Z M 11.039062 22 "/>
</clipPath>
<clipPath id="clip4">
  <path d="M 11.039062 64 L 218 64 L 218 101.761719 L 11.039062 101.761719 Z M 11.039062 64 "/>
</clipPath>
<clipPath id="clip5">
  <path d="M 41 6.71875 L 241.679688 6.71875 L 241.679688 43 L 41 43 Z M 41 6.71875 "/>
</clipPath>
<clipPath id="clip6">
  <path d="M 261.359375 17 L 380 17 L 380 52.800781 L 261.359375 52.800781 Z M 261.359375 17 "/>
</clipPath>
<clipPath id="clip7">
  <path d="M 261.359375 46 L 351 46 L 351 48 L 261.359375 48 Z M 261.359375 46 "/>
</clipPath>
<clipPath id="clip8">
  <path d="M 349 46 L 351 46 L 351 52.800781 L 349 52.800781 Z M 349 46 "/>
</clipPath>
<clipPath id="clip9">
  <path d="M 349 46 L 351 46 L 351 52.800781 L 349 52.800781 Z M 349 46 "/>
</clipPath>
<clipPath id="clip10">
  <path d="M 261.359375 17 L 381 17 L 381 19 L 261.359375 19 Z M 261.359375 17 "/>
</clipPath>
<clipPath id="clip11">
  <path d="M 378 17 L 381 17 L 381 52.800781 L 378 52.800781 Z M 378 17 "/>
</clipPath>
<clipPath id="clip12">
  <path d="M 378 17 L 381 17 L 381 52.800781 L 378 52.800781 Z M 378 17 "/>
</clipPath>
<clipPath id="clip13">
  <path d="M 320 37 L 344 37 L 344 52.800781 L 320 52.800781 Z M 320 37 "/>
</clipPath>
<clipPath id="clip14">
  <path d="M 261.359375 61 L 380 61 L 380 96.960938 L 261.359375 96.960938 Z M 261.359375 61 "/>
</clipPath>
<clipPath id="clip15">
  <path d="M 261.359375 90 L 351 90 L 351 93 L 261.359375 93 Z M 261.359375 90 "/>
</clipPath>
<clipPath id="clip16">
  <path d="M 349 90 L 351 90 L 351 96.960938 L 349 96.960938 Z M 349 90 "/>
</clipPath>
<clipPath id="clip17">
  <path d="M 349 90 L 351 90 L 351 96.960938 L 349 96.960938 Z M 349 90 "/>
</clipPath>
<clipPath id="clip18">
  <path d="M 261.359375 61 L 381 61 L 381 63 L 261.359375 63 Z M 261.359375 61 "/>
</clipPath>
<clipPath id="clip19">
  <path d="M 378 61 L 381 61 L 381 96.960938 L 378 96.960938 Z M 378 61 "/>
</clipPath>
<clipPath id="clip20">
  <path d="M 378 61 L 381 61 L 381 96.960938 L 378 96.960938 Z M 378 61 "/>
</clipPath>
<clipPath id="clip21">
  <path d="M 320 81 L 344 81 L 344 96.960938 L 320 96.960938 Z M 320 81 "/>
</clipPath>
</defs>
<g id="surface51">
<g clip-path="url(#clip1)" clip-rule="nonzero">
<path style=" stroke:none;fill-rule:nonzero;fill:rgb(86.999313%,94.000153%,100%);fill-opacity:1;" d="M 132.03125 22.640625 L 492.460938 86.195312 L 126.472656 86.195312 L -233.960938 22.640625 Z M 132.03125 22.640625 "/>
</g>
<g clip-path="url(#clip2)" clip-rule="nonzero">
<path style="fill:none;stroke-width:0.2;stroke-linecap:square;stroke-linejoin:miter;stroke:rgb(0%,0%,0%);stroke-opacity:1;stroke-miterlimit:3.25;" d="M 11.199219 86.195312 L 241.742188 86.195312 "/>
</g>
<g clip-path="url(#clip3)" clip-rule="nonzero">
<path style="fill:none;stroke-width:0.2;stroke-linecap:square;stroke-linejoin:miter;stroke:rgb(0%,0%,0%);stroke-opacity:1;stroke-miterlimit:3.25;" d="M 11.199219 22.640625 L 241.742188 22.640625 "/>
</g>
<g clip-path="url(#clip4)" clip-rule="nonzero">
<path style="fill:none;stroke-width:0.2;stroke-linecap:square;stroke-linejoin:miter;stroke:rgb(0%,0%,0%);stroke-opacity:1;stroke-miterlimit:3.25;" d="M 11.199219 65.871094 L 216.578125 102.082031 "/>
</g>
<g clip-path="url(#clip5)" clip-rule="nonzero">
<path style="fill:none;stroke-width:0.2;stroke-linecap:square;stroke-linejoin:miter;stroke:rgb(0%,0%,0%);stroke-opacity:1;stroke-miterlimit:3.25;" d="M 241.742188 41.984375 L 41.921875 6.753906 "/>
</g>
<path style=" stroke:none;fill-rule:evenodd;fill:rgb(0%,0%,0%);fill-opacity:1;" d="M 26.519531 32.242188 C 26.519531 31.386719 25.792969 30.609375 24.414062 30.609375 L 21.027344 30.609375 C 20.820312 30.609375 20.722656 30.609375 20.722656 30.816406 C 20.722656 30.925781 20.820312 30.925781 20.984375 30.925781 C 21.652344 30.925781 21.652344 31.015625 21.652344 31.132812 C 21.652344 31.132812 21.652344 31.222656 21.609375 31.386719 L 20.128906 37.28125 C 20.03125 37.667969 20.011719 37.777344 19.242188 37.777344 C 19.035156 37.777344 18.925781 37.777344 18.925781 37.972656 C 18.925781 38.09375 19.023438 38.09375 19.089844 38.09375 C 19.296875 38.09375 19.515625 38.070312 19.722656 38.070312 L 21.007812 38.070312 C 21.214844 38.070312 21.445312 38.09375 21.652344 38.09375 C 21.742188 38.09375 21.863281 38.09375 21.863281 37.886719 C 21.863281 37.777344 21.761719 37.777344 21.597656 37.777344 C 20.941406 37.777344 20.929688 37.699219 20.929688 37.589844 C 20.929688 37.535156 20.941406 37.457031 20.953125 37.402344 L 21.652344 34.609375 L 23.496094 34.609375 C 25.003906 34.609375 26.519531 33.492188 26.519531 32.242188 Z M 25.597656 32.011719 C 25.597656 32.296875 25.457031 33.226562 24.949219 33.730469 C 24.765625 33.929688 24.238281 34.34375 23.242188 34.34375 L 21.699219 34.34375 L 22.441406 31.355469 C 22.542969 30.949219 22.585938 30.925781 23.011719 30.925781 L 24.097656 30.925781 C 24.917969 30.925781 25.597656 31.1875 25.597656 32.011719 Z M 25.597656 32.011719 "/>
<path style=" stroke:none;fill-rule:evenodd;fill:rgb(0%,0%,0%);fill-opacity:1;" d="M 30.042969 37.859375 C 30.121094 37.542969 30.210938 37.183594 30.210938 36.886719 C 30.210938 36.671875 30.167969 36.488281 30.027344 36.371094 C 29.980469 36.332031 29.914062 36.308594 29.84375 36.308594 C 29.746094 36.308594 29.636719 36.355469 29.550781 36.449219 C 29.484375 36.523438 29.445312 36.617188 29.445312 36.699219 C 29.445312 36.785156 29.476562 36.863281 29.542969 36.917969 C 29.738281 37.070312 29.84375 37.300781 29.84375 37.558594 C 29.84375 37.644531 29.828125 37.730469 29.8125 37.8125 C 29.636719 38.496094 29.160156 39.179688 28.554688 39.179688 C 28.140625 39.179688 27.871094 38.925781 27.78125 38.566406 C 27.886719 38.34375 27.972656 38.097656 28.027344 37.859375 C 28.042969 37.804688 28.050781 37.746094 28.050781 37.691406 C 28.050781 37.550781 27.996094 37.445312 27.863281 37.445312 C 27.710938 37.445312 27.597656 37.628906 27.558594 37.8125 C 27.488281 38.066406 27.457031 38.3125 27.464844 38.535156 C 27.207031 38.910156 26.828125 39.179688 26.421875 39.179688 C 25.945312 39.179688 25.714844 38.789062 25.714844 38.296875 C 25.714844 38.160156 25.730469 38.011719 25.769531 37.859375 C 25.886719 37.414062 26.152344 36.992188 26.460938 36.601562 C 26.484375 36.5625 26.5 36.523438 26.5 36.496094 C 26.5 36.441406 26.46875 36.394531 26.421875 36.363281 C 26.398438 36.347656 26.375 36.339844 26.347656 36.339844 C 26.292969 36.339844 26.230469 36.371094 26.191406 36.417969 C 25.871094 36.855469 25.664062 37.332031 25.539062 37.8125 C 25.472656 38.082031 25.433594 38.34375 25.433594 38.597656 C 25.433594 39.253906 25.691406 39.769531 26.324219 39.769531 C 26.804688 39.769531 27.214844 39.457031 27.527344 39.011719 C 27.640625 39.464844 27.941406 39.769531 28.449219 39.769531 C 29.261719 39.769531 29.8125 38.796875 30.042969 37.859375 Z M 30.042969 37.859375 "/>
<path style="fill-rule:nonzero;fill:rgb(100%,100%,86.999313%);fill-opacity:1;stroke-width:1;stroke-linecap:square;stroke-linejoin:miter;stroke:rgb(0%,0%,0%);stroke-opacity:1;stroke-miterlimit:3.25;" d="M 88.105469 79.429688 L 88.109375 79.40625 L 88.542969 77.214844 L 89.066406 75.058594 L 89.6875 72.949219 L 90.394531 70.886719 L 91.191406 68.875 L 92.074219 66.921875 L 93.042969 65.027344 L 94.089844 63.191406 L 95.214844 61.425781 L 96.417969 59.726562 L 97.6875 58.097656 L 99.03125 56.546875 L 100.4375 55.074219 L 101.910156 53.683594 L 103.4375 52.375 L 105.023438 51.152344 L 106.660156 50.019531 L 108.347656 48.976562 L 110.074219 48.027344 L 111.84375 47.175781 L 113.648438 46.417969 L 115.488281 45.757812 L 117.351562 45.199219 L 119.242188 44.742188 L 121.148438 44.390625 L 123.066406 44.144531 L 124.992188 44.007812 L 126.917969 43.980469 L 128.847656 44.058594 L 130.769531 44.246094 L 132.683594 44.539062 L 134.582031 44.941406 L 136.460938 45.445312 L 138.3125 46.050781 L 140.136719 46.757812 L 141.925781 47.558594 L 143.675781 48.457031 L 145.386719 49.449219 L 147.046875 50.535156 L 148.660156 51.710938 L 150.222656 52.972656 L 151.722656 54.320312 L 153.164062 55.75 L 154.542969 57.261719 L 155.855469 58.847656 L 157.09375 60.507812 L 158.257812 62.238281 L 159.347656 64.039062 L 160.359375 65.898438 L 161.289062 67.824219 L 162.128906 69.804688 L 162.886719 71.839844 L 163.554688 73.925781 L 164.128906 76.054688 L 164.613281 78.230469 L 165 80.441406 L 165.292969 82.6875 L 165.367188 82.75 L 165.445312 82.808594 L 165.617188 82.941406 L 165.804688 83.074219 L 165.90625 83.144531 L 166.117188 83.285156 L 166.230469 83.359375 L 166.347656 83.433594 L 166.46875 83.507812 L 166.59375 83.582031 L 166.722656 83.660156 L 166.859375 83.734375 L 166.996094 83.8125 L 167.140625 83.886719 L 167.289062 83.964844 L 167.441406 84.042969 L 167.597656 84.121094 L 167.757812 84.199219 L 168.09375 84.355469 L 168.269531 84.429688 L 168.449219 84.507812 L 168.632812 84.582031 L 168.824219 84.660156 L 169.015625 84.734375 L 169.214844 84.808594 L 169.417969 84.882812 L 169.625 84.953125 L 170.054688 85.09375 L 170.277344 85.164062 L 170.503906 85.230469 L 170.734375 85.296875 L 170.972656 85.363281 L 171.210938 85.425781 L 171.457031 85.484375 L 171.707031 85.546875 L 171.960938 85.601562 L 172.484375 85.710938 L 172.753906 85.761719 L 173.027344 85.808594 L 173.304688 85.855469 L 173.585938 85.898438 L 173.875 85.941406 L 174.164062 85.980469 L 174.460938 86.015625 L 174.761719 86.046875 L 175.066406 86.078125 L 175.375 86.101562 L 175.6875 86.125 L 176.328125 86.164062 L 176.667969 86.175781 L 177.03125 86.1875 L 177.75 86.195312 L 229.03125 86.195312 L 228.914062 83.9375 L 228.742188 81.710938 L 228.515625 79.511719 L 228.234375 77.339844 L 227.902344 75.203125 L 227.519531 73.101562 L 227.089844 71.035156 L 226.613281 69.003906 L 226.09375 67.011719 L 225.527344 65.0625 L 224.921875 63.152344 L 224.277344 61.289062 L 223.59375 59.464844 L 222.878906 57.6875 L 222.128906 55.960938 L 221.347656 54.277344 L 220.535156 52.644531 L 219.699219 51.058594 L 218.835938 49.523438 L 217.953125 48.039062 L 217.050781 46.605469 L 216.128906 45.222656 L 215.191406 43.894531 L 214.246094 42.617188 L 213.285156 41.390625 L 212.316406 40.21875 L 211.347656 39.105469 L 210.378906 38.046875 L 209.414062 37.042969 L 208.476562 36.121094 L 132.089844 22.652344 L 73.945312 22.664062 L 73.050781 22.710938 L 72.132812 22.78125 L 71.199219 22.878906 L 70.246094 23.003906 L 69.277344 23.152344 L 68.292969 23.332031 L 67.289062 23.539062 L 66.273438 23.777344 L 65.246094 24.046875 L 64.203125 24.351562 L 63.152344 24.683594 L 62.085938 25.050781 L 61.011719 25.453125 L 59.929688 25.890625 L 58.839844 26.363281 L 57.746094 26.875 L 56.644531 27.417969 L 55.539062 28.003906 L 54.429688 28.625 L 53.320312 29.285156 L 52.210938 29.984375 L 51.101562 30.726562 L 49.996094 31.503906 L 48.890625 32.324219 L 47.792969 33.183594 L 46.835938 33.976562 L 45.890625 34.796875 L 44.9375 35.667969 L 43.976562 36.59375 L 43.011719 37.574219 L 42.042969 38.605469 L 41.074219 39.695312 L 40.105469 40.839844 L 39.144531 42.039062 L 38.1875 43.292969 L 37.246094 44.597656 L 36.316406 45.957031 L 35.40625 47.363281 L 34.511719 48.824219 L 33.640625 50.335938 L 32.792969 51.898438 L 31.96875 53.511719 L 31.175781 55.171875 L 30.410156 56.878906 L 29.675781 58.632812 L 28.976562 60.433594 L 28.316406 62.28125 L 27.691406 64.167969 L 27.105469 66.101562 L 26.566406 68.074219 L 26.445312 68.558594 Z M 88.105469 79.429688 "/>
<path style=" stroke:none;fill-rule:evenodd;fill:rgb(0%,0%,0%);fill-opacity:1;" d="M 69.191406 54.648438 C 69.191406 54.191406 69.082031 53.785156 68.664062 53.378906 C 68.433594 53.148438 68.238281 53.09375 67.226562 52.832031 C 66.496094 52.632812 66.394531 52.601562 66.199219 52.425781 C 66.011719 52.238281 65.871094 51.976562 65.871094 51.605469 C 65.871094 50.683594 66.800781 49.742188 67.84375 49.742188 C 68.917969 49.742188 69.421875 50.398438 69.421875 51.441406 C 69.421875 51.722656 69.367188 52.019531 69.367188 52.0625 C 69.367188 52.160156 69.453125 52.160156 69.488281 52.160156 C 69.585938 52.160156 69.597656 52.128906 69.640625 51.953125 L 70.230469 49.542969 C 70.230469 49.445312 70.132812 49.445312 70.132812 49.445312 C 70.089844 49.445312 70.078125 49.457031 69.945312 49.621094 L 69.421875 50.277344 C 69.058594 49.566406 68.335938 49.445312 67.875 49.445312 C 66.484375 49.445312 65.222656 50.714844 65.222656 51.953125 C 65.222656 52.777344 65.71875 53.257812 66.253906 53.445312 C 66.375 53.488281 67.019531 53.664062 67.351562 53.742188 C 67.90625 53.894531 68.050781 53.9375 68.28125 54.179688 C 68.324219 54.234375 68.542969 54.484375 68.542969 55 C 68.542969 56.019531 67.601562 57.074219 66.507812 57.074219 C 65.609375 57.074219 64.609375 56.6875 64.609375 55.460938 C 64.609375 55.253906 64.65625 54.992188 64.6875 54.878906 C 64.6875 54.847656 64.699219 54.769531 64.699219 54.769531 C 64.699219 54.726562 64.675781 54.671875 64.585938 54.671875 C 64.488281 54.671875 64.476562 54.695312 64.433594 54.878906 L 63.875 57.128906 L 63.832031 57.292969 C 63.832031 57.390625 63.941406 57.390625 63.941406 57.390625 C 63.984375 57.390625 63.996094 57.378906 64.128906 57.214844 L 64.632812 56.558594 C 64.894531 56.953125 65.464844 57.390625 66.484375 57.390625 C 67.898438 57.390625 69.191406 56.019531 69.191406 54.648438 Z M 69.191406 54.648438 "/>
<path style=" stroke:none;fill-rule:evenodd;fill:rgb(0%,0%,0%);fill-opacity:1;" d="M 74.609375 56.925781 C 74.683594 56.613281 74.777344 56.25 74.777344 55.953125 C 74.777344 55.738281 74.730469 55.554688 74.59375 55.4375 C 74.546875 55.398438 74.476562 55.375 74.410156 55.375 C 74.308594 55.375 74.203125 55.421875 74.117188 55.515625 C 74.046875 55.589844 74.007812 55.683594 74.007812 55.765625 C 74.007812 55.851562 74.039062 55.929688 74.109375 55.984375 C 74.300781 56.136719 74.410156 56.367188 74.410156 56.628906 C 74.410156 56.710938 74.394531 56.796875 74.378906 56.878906 C 74.203125 57.5625 73.726562 58.246094 73.121094 58.246094 C 72.707031 58.246094 72.4375 57.992188 72.34375 57.632812 C 72.453125 57.410156 72.539062 57.164062 72.589844 56.925781 C 72.605469 56.871094 72.613281 56.8125 72.613281 56.757812 C 72.613281 56.621094 72.558594 56.511719 72.429688 56.511719 C 72.277344 56.511719 72.160156 56.695312 72.121094 56.878906 C 72.054688 57.132812 72.023438 57.378906 72.03125 57.601562 C 71.769531 57.976562 71.394531 58.246094 70.988281 58.246094 C 70.511719 58.246094 70.28125 57.855469 70.28125 57.363281 C 70.28125 57.226562 70.296875 57.082031 70.335938 56.925781 C 70.449219 56.480469 70.71875 56.058594 71.023438 55.667969 C 71.046875 55.628906 71.0625 55.589844 71.0625 55.5625 C 71.0625 55.507812 71.03125 55.460938 70.988281 55.429688 C 70.964844 55.414062 70.941406 55.40625 70.910156 55.40625 C 70.855469 55.40625 70.792969 55.4375 70.757812 55.484375 C 70.433594 55.921875 70.226562 56.398438 70.105469 56.878906 C 70.035156 57.148438 69.996094 57.410156 69.996094 57.664062 C 69.996094 58.324219 70.257812 58.835938 70.886719 58.835938 C 71.371094 58.835938 71.777344 58.523438 72.09375 58.078125 C 72.207031 58.53125 72.507812 58.835938 73.011719 58.835938 C 73.824219 58.835938 74.378906 57.863281 74.609375 56.925781 Z M 74.609375 56.925781 "/>
<path style="fill-rule:nonzero;fill:rgb(66.666667%,0%,0%);fill-opacity:1;stroke-width:2;stroke-linecap:square;stroke-linejoin:miter;stroke:rgb(66.666667%,0%,0%);stroke-opacity:1;stroke-miterlimit:3.25;" d="M 126.472656 86.195312 L 132.03125 86.195312 L 120.996094 85.230469 Z M 126.472656 86.195312 "/>
<path style=" stroke:none;fill-rule:evenodd;fill:rgb(66.666667%,0%,0%);fill-opacity:1;" d="M 145.425781 71.824219 C 145.425781 71.78125 145.40625 71.714844 145.382812 71.683594 L 141.726562 64.277344 C 141.648438 64.125 141.625 64.082031 141.472656 64.082031 C 141.308594 64.082031 141.289062 64.125 141.210938 64.277344 L 137.550781 71.683594 C 137.53125 71.714844 137.507812 71.78125 137.507812 71.824219 C 137.507812 71.890625 137.519531 71.902344 137.738281 71.902344 L 145.199219 71.902344 C 145.417969 71.902344 145.425781 71.890625 145.425781 71.824219 Z M 144.125 71.148438 L 138.152344 71.148438 L 141.132812 65.089844 Z M 144.125 71.148438 "/>
<path style=" stroke:none;fill-rule:evenodd;fill:rgb(66.666667%,0%,0%);fill-opacity:1;" d="M 150.632812 71.667969 C 150.710938 71.355469 150.800781 70.996094 150.800781 70.695312 C 150.800781 70.480469 150.757812 70.296875 150.617188 70.179688 C 150.574219 70.144531 150.503906 70.121094 150.433594 70.121094 C 150.335938 70.121094 150.226562 70.164062 150.144531 70.257812 C 150.074219 70.335938 150.035156 70.425781 150.035156 70.511719 C 150.035156 70.59375 150.066406 70.671875 150.136719 70.726562 C 150.328125 70.878906 150.433594 71.109375 150.433594 71.371094 C 150.433594 71.453125 150.417969 71.539062 150.402344 71.621094 C 150.226562 72.304688 149.753906 72.988281 149.148438 72.988281 C 148.734375 72.988281 148.464844 72.734375 148.371094 72.375 C 148.480469 72.152344 148.5625 71.90625 148.617188 71.667969 C 148.632812 71.613281 148.640625 71.554688 148.640625 71.5 C 148.640625 71.363281 148.585938 71.257812 148.457031 71.257812 C 148.304688 71.257812 148.1875 71.4375 148.148438 71.621094 C 148.078125 71.875 148.050781 72.121094 148.058594 72.34375 C 147.796875 72.71875 147.421875 72.988281 147.015625 72.988281 C 146.539062 72.988281 146.308594 72.597656 146.308594 72.105469 C 146.308594 71.96875 146.324219 71.824219 146.363281 71.667969 C 146.476562 71.226562 146.746094 70.804688 147.050781 70.410156 C 147.074219 70.375 147.089844 70.335938 147.089844 70.304688 C 147.089844 70.25 147.058594 70.203125 147.015625 70.171875 C 146.992188 70.15625 146.96875 70.152344 146.9375 70.152344 C 146.882812 70.152344 146.820312 70.179688 146.785156 70.226562 C 146.460938 70.664062 146.253906 71.140625 146.132812 71.621094 C 146.0625 71.890625 146.023438 72.152344 146.023438 72.40625 C 146.023438 73.066406 146.285156 73.578125 146.914062 73.578125 C 147.398438 73.578125 147.804688 73.265625 148.117188 72.820312 C 148.234375 73.273438 148.53125 73.578125 149.039062 73.578125 C 149.851562 73.578125 150.402344 72.605469 150.632812 71.667969 Z M 150.632812 71.667969 "/>
<path style="fill:none;stroke-width:1;stroke-linecap:square;stroke-linejoin:miter;stroke:rgb(66.666667%,0%,0%);stroke-opacity:1;stroke-miterlimit:3.25;" d="M 126.472656 86.195312 L 136.003906 76.660156 "/>
<path style=" stroke:none;fill-rule:evenodd;fill:rgb(0%,0%,0%);fill-opacity:1;" d="M 127.5 86 C 127.5 85.601562 127.34375 85.21875 127.0625 84.9375 C 126.78125 84.65625 126.398438 84.5 126 84.5 C 125.601562 84.5 125.21875 84.65625 124.9375 84.9375 C 124.65625 85.21875 124.5 85.601562 124.5 86 C 124.5 86.398438 124.65625 86.78125 124.9375 87.0625 C 125.21875 87.34375 125.601562 87.5 126 87.5 C 126.398438 87.5 126.78125 87.34375 127.0625 87.0625 C 127.34375 86.78125 127.5 86.398438 127.5 86 Z M 127.5 86 "/>
<path style=" stroke:none;fill-rule:evenodd;fill:rgb(0%,0%,0%);fill-opacity:1;" d="M 128.425781 94.496094 C 128.425781 92.6875 127.242188 91.582031 125.707031 91.582031 C 123.363281 91.582031 120.996094 94.101562 120.996094 96.632812 C 120.996094 98.355469 122.136719 99.527344 123.726562 99.527344 C 126.027344 99.527344 128.425781 97.128906 128.425781 94.496094 Z M 127.550781 94.101562 C 127.550781 95.078125 127.132812 96.601562 126.398438 97.640625 C 125.597656 98.757812 124.601562 99.273438 123.789062 99.273438 C 122.890625 99.273438 121.9375 98.617188 121.9375 96.90625 C 121.9375 95.910156 122.300781 94.277344 123.199219 93.179688 C 124 92.21875 124.917969 91.824219 125.652344 91.824219 C 126.617188 91.824219 127.550781 92.523438 127.550781 94.101562 Z M 127.550781 94.101562 "/>
<path style=" stroke:none;fill-rule:evenodd;fill:rgb(0%,0%,0%);fill-opacity:1;" d="M 133.5 23 C 133.5 22.601562 133.34375 22.21875 133.0625 21.9375 C 132.78125 21.65625 132.398438 21.5 132 21.5 C 131.601562 21.5 131.21875 21.65625 130.9375 21.9375 C 130.65625 22.21875 130.5 22.601562 130.5 23 C 130.5 23.398438 130.65625 23.78125 130.9375 24.0625 C 131.21875 24.34375 131.601562 24.5 132 24.5 C 132.398438 24.5 132.78125 24.34375 133.0625 24.0625 C 133.34375 23.78125 133.5 23.398438 133.5 23 Z M 133.5 23 "/>
<path style=" stroke:none;fill-rule:evenodd;fill:rgb(0%,0%,0%);fill-opacity:1;" d="M 138.027344 14.871094 C 138.027344 13.828125 137.347656 13.050781 136.351562 13.050781 C 134.90625 13.050781 133.480469 14.628906 133.480469 16.171875 C 133.480469 17.214844 134.160156 17.992188 135.15625 17.992188 C 136.613281 17.992188 138.027344 16.414062 138.027344 14.871094 Z M 137.292969 14.472656 C 137.292969 14.914062 137.0625 16.085938 136.648438 16.753906 C 136.199219 17.488281 135.597656 17.773438 135.167969 17.773438 C 134.621094 17.773438 134.214844 17.335938 134.214844 16.570312 C 134.214844 16.0625 134.480469 14.945312 134.785156 14.398438 C 135.277344 13.554688 135.890625 13.269531 136.339844 13.269531 C 136.878906 13.269531 137.292969 13.707031 137.292969 14.472656 Z M 137.292969 14.472656 "/>
<path style=" stroke:none;fill-rule:evenodd;fill:rgb(0%,0%,0%);fill-opacity:1;" d="M 142.964844 17.648438 C 143.042969 17.335938 143.136719 16.976562 143.136719 16.675781 C 143.136719 16.460938 143.089844 16.277344 142.949219 16.160156 C 142.90625 16.125 142.835938 16.101562 142.769531 16.101562 C 142.667969 16.101562 142.558594 16.144531 142.476562 16.238281 C 142.40625 16.3125 142.367188 16.40625 142.367188 16.492188 C 142.367188 16.574219 142.398438 16.652344 142.46875 16.707031 C 142.660156 16.859375 142.769531 17.089844 142.769531 17.351562 C 142.769531 17.433594 142.753906 17.519531 142.734375 17.601562 C 142.558594 18.285156 142.085938 18.96875 141.476562 18.96875 C 141.0625 18.96875 140.796875 18.714844 140.703125 18.355469 C 140.8125 18.132812 140.894531 17.886719 140.949219 17.648438 C 140.964844 17.59375 140.972656 17.535156 140.972656 17.480469 C 140.972656 17.34375 140.917969 17.234375 140.789062 17.234375 C 140.632812 17.234375 140.519531 17.417969 140.480469 17.601562 C 140.410156 17.855469 140.382812 18.101562 140.390625 18.324219 C 140.128906 18.699219 139.75 18.96875 139.34375 18.96875 C 138.867188 18.96875 138.640625 18.578125 138.640625 18.085938 C 138.640625 17.949219 138.65625 17.804688 138.695312 17.648438 C 138.808594 17.203125 139.078125 16.78125 139.382812 16.390625 C 139.40625 16.351562 139.421875 16.3125 139.421875 16.285156 C 139.421875 16.230469 139.390625 16.183594 139.34375 16.152344 C 139.320312 16.136719 139.296875 16.132812 139.269531 16.132812 C 139.214844 16.132812 139.152344 16.160156 139.117188 16.207031 C 138.792969 16.644531 138.585938 17.121094 138.460938 17.601562 C 138.394531 17.871094 138.355469 18.132812 138.355469 18.386719 C 138.355469 19.046875 138.617188 19.558594 139.246094 19.558594 C 139.726562 19.558594 140.136719 19.246094 140.449219 18.800781 C 140.5625 19.253906 140.863281 19.558594 141.371094 19.558594 C 142.183594 19.558594 142.734375 18.585938 142.964844 17.648438 Z M 142.964844 17.648438 "/>
<path style="fill:none;stroke-width:1;stroke-linecap:butt;stroke-linejoin:miter;stroke:rgb(0%,0%,0%);stroke-opacity:1;stroke-dasharray:1,4;stroke-miterlimit:3.25;" d="M 132.03125 22.640625 L 132.03125 86.195312 "/>
<path style="fill:none;stroke-width:1;stroke-linecap:butt;stroke-linejoin:miter;stroke:rgb(0%,0%,0%);stroke-opacity:1;stroke-dasharray:1,4;stroke-miterlimit:3.25;" d="M 132.03125 22.640625 L 120.996094 85.230469 "/>
<path style="fill:none;stroke-width:0.2;stroke-linecap:square;stroke-linejoin:miter;stroke:rgb(0%,0%,0%);stroke-opacity:1;stroke-miterlimit:3.25;" d="M 135.84375 86.195312 L 135.84375 82.382812 L 132.03125 82.382812 "/>
<path style="fill:none;stroke-width:0.2;stroke-linecap:square;stroke-linejoin:miter;stroke:rgb(0%,0%,0%);stroke-opacity:1;stroke-miterlimit:3.25;" d="M 117.238281 84.566406 L 117.902344 80.8125 L 121.65625 81.472656 "/>
<g clip-path="url(#clip6)" clip-rule="nonzero">
<path style=" stroke:none;fill-rule:nonzero;fill:rgb(74.999619%,74.999619%,74.999619%);fill-opacity:1;" d="M 232.035156 47.28125 L 349.960938 47.28125 L 349.960938 165.207031 L 379.441406 165.207031 L 379.441406 17.800781 L 232.035156 17.800781 Z M 232.035156 47.28125 "/>
</g>
<g clip-path="url(#clip7)" clip-rule="nonzero">
<path style="fill:none;stroke-width:1;stroke-linecap:square;stroke-linejoin:miter;stroke:rgb(0%,0%,0%);stroke-opacity:1;stroke-miterlimit:3.25;" d="M 232.035156 47.28125 L 349.960938 47.28125 "/>
</g>
<g clip-path="url(#clip8)" clip-rule="nonzero">
<path style="fill:none;stroke-width:1;stroke-linecap:square;stroke-linejoin:miter;stroke:rgb(0%,0%,0%);stroke-opacity:1;stroke-miterlimit:3.25;" d="M 349.960938 94.074219 L 349.960938 47.28125 "/>
</g>
<path style=" stroke:none;fill-rule:nonzero;fill:rgb(0%,0%,0%);fill-opacity:1;" d="M 349.960938 47.28125 L 350.460938 47.78125 L 350.460938 46.78125 L 349.960938 46.78125 Z M 349.960938 47.28125 "/>
<g clip-path="url(#clip9)" clip-rule="nonzero">
<path style="fill:none;stroke-width:1;stroke-linecap:square;stroke-linejoin:miter;stroke:rgb(0%,0%,0%);stroke-opacity:1;stroke-miterlimit:3.25;" d="M 349.960938 94.074219 L 349.960938 47.28125 "/>
</g>
<path style=" stroke:none;fill-rule:nonzero;fill:rgb(0%,0%,0%);fill-opacity:1;" d="M 349.960938 47.28125 L 350.460938 47.78125 L 350.460938 46.78125 L 349.960938 46.78125 Z M 349.960938 47.28125 "/>
<g clip-path="url(#clip10)" clip-rule="nonzero">
<path style="fill:none;stroke-width:1;stroke-linecap:square;stroke-linejoin:miter;stroke:rgb(0%,0%,0%);stroke-opacity:1;stroke-miterlimit:3.25;" d="M 232.035156 17.800781 L 379.441406 17.800781 "/>
</g>
<g clip-path="url(#clip11)" clip-rule="nonzero">
<path style="fill:none;stroke-width:1;stroke-linecap:square;stroke-linejoin:miter;stroke:rgb(0%,0%,0%);stroke-opacity:1;stroke-miterlimit:3.25;" d="M 379.441406 94.074219 L 379.441406 17.800781 "/>
</g>
<path style=" stroke:none;fill-rule:nonzero;fill:rgb(0%,0%,0%);fill-opacity:1;" d="M 379.441406 17.800781 L 379.941406 18.300781 L 379.941406 17.300781 L 379.441406 17.300781 Z M 379.441406 17.800781 "/>
<g clip-path="url(#clip12)" clip-rule="nonzero">
<path style="fill:none;stroke-width:1;stroke-linecap:square;stroke-linejoin:miter;stroke:rgb(0%,0%,0%);stroke-opacity:1;stroke-miterlimit:3.25;" d="M 379.441406 94.074219 L 379.441406 17.800781 "/>
</g>
<path style=" stroke:none;fill-rule:nonzero;fill:rgb(0%,0%,0%);fill-opacity:1;" d="M 379.441406 17.800781 L 379.941406 18.300781 L 379.941406 17.300781 L 379.441406 17.300781 Z M 379.441406 17.800781 "/>
<path style="fill-rule:nonzero;fill:rgb(100%,100%,86.999313%);fill-opacity:1;stroke-width:1;stroke-linecap:square;stroke-linejoin:miter;stroke:rgb(0%,0%,0%);stroke-opacity:1;stroke-miterlimit:3.25;" d="M 314.070312 44.144531 L 314.070312 44.132812 L 314.269531 43.117188 L 314.515625 42.117188 L 314.800781 41.136719 L 315.128906 40.179688 L 315.5 39.25 L 315.910156 38.34375 L 316.359375 37.460938 L 316.84375 36.613281 L 317.367188 35.792969 L 317.921875 35.003906 L 318.515625 34.25 L 319.136719 33.53125 L 319.789062 32.847656 L 320.472656 32.203125 L 321.179688 31.59375 L 321.917969 31.027344 L 322.675781 30.5 L 323.457031 30.019531 L 324.257812 29.578125 L 325.082031 29.183594 L 325.917969 28.832031 L 326.769531 28.523438 L 327.636719 28.265625 L 328.511719 28.054688 L 329.394531 27.890625 L 330.285156 27.777344 L 331.179688 27.714844 L 332.074219 27.699219 L 332.96875 27.738281 L 333.859375 27.824219 L 334.746094 27.960938 L 335.628906 28.144531 L 336.5 28.378906 L 337.359375 28.660156 L 338.203125 28.988281 L 339.035156 29.359375 L 339.847656 29.777344 L 340.640625 30.238281 L 341.410156 30.742188 L 342.160156 31.285156 L 342.882812 31.871094 L 343.578125 32.496094 L 344.25 33.160156 L 344.886719 33.859375 L 345.496094 34.597656 L 346.070312 35.367188 L 346.609375 36.171875 L 347.117188 37.003906 L 347.585938 37.867188 L 348.015625 38.761719 L 348.40625 39.679688 L 348.757812 40.625 L 349.066406 41.589844 L 349.335938 42.578125 L 349.558594 43.585938 L 349.738281 44.613281 L 349.875 45.65625 L 349.945312 45.710938 L 350.023438 45.773438 L 350.066406 45.804688 L 350.113281 45.835938 L 350.15625 45.867188 L 350.207031 45.902344 L 350.257812 45.933594 L 350.308594 45.96875 L 350.363281 46 L 350.417969 46.035156 L 350.476562 46.070312 L 350.664062 46.175781 L 350.730469 46.210938 L 350.800781 46.25 L 350.941406 46.320312 L 351.015625 46.355469 L 351.09375 46.394531 L 351.171875 46.429688 L 351.253906 46.464844 L 351.339844 46.5 L 351.421875 46.535156 L 351.691406 46.640625 L 351.789062 46.671875 L 351.882812 46.707031 L 351.984375 46.738281 L 352.082031 46.773438 L 352.398438 46.867188 L 352.507812 46.894531 L 352.621094 46.925781 L 352.847656 46.980469 L 352.96875 47.007812 L 353.085938 47.035156 L 353.460938 47.105469 L 353.589844 47.125 L 353.988281 47.183594 L 354.125 47.199219 L 354.265625 47.214844 L 354.40625 47.226562 L 354.695312 47.25 L 354.84375 47.261719 L 354.992188 47.269531 L 355.152344 47.273438 L 355.316406 47.277344 L 355.484375 47.28125 L 379.441406 47.28125 L 379.386719 46.238281 L 379.304688 45.203125 L 379.199219 44.183594 L 379.070312 43.175781 L 378.917969 42.183594 L 378.738281 41.210938 L 378.539062 40.25 L 378.320312 39.308594 L 378.078125 38.386719 L 377.816406 37.480469 L 377.535156 36.59375 L 377.234375 35.730469 L 376.917969 34.882812 L 376.585938 34.058594 L 376.238281 33.257812 L 375.875 32.476562 L 375.5 31.71875 L 375.113281 30.984375 L 374.710938 30.269531 L 374.300781 29.582031 L 373.882812 28.917969 L 373.457031 28.277344 L 373.019531 27.660156 L 372.582031 27.066406 L 372.136719 26.5 L 371.6875 25.957031 L 371.238281 25.4375 L 370.789062 24.949219 L 370.339844 24.480469 L 369.90625 24.054688 L 334.472656 17.804688 L 307.5 17.8125 L 307.082031 17.835938 L 306.660156 17.867188 L 306.226562 17.914062 L 305.785156 17.96875 L 305.332031 18.039062 L 304.875 18.121094 L 304.414062 18.21875 L 303.941406 18.328125 L 303.464844 18.453125 L 302.980469 18.59375 L 302.492188 18.75 L 302 18.921875 L 301.5 19.105469 L 301 19.308594 L 300.492188 19.527344 L 299.984375 19.765625 L 299.472656 20.019531 L 298.960938 20.289062 L 298.445312 20.578125 L 297.933594 20.882812 L 297.417969 21.207031 L 296.902344 21.550781 L 296.390625 21.914062 L 295.878906 22.292969 L 295.367188 22.691406 L 294.921875 23.058594 L 294.484375 23.441406 L 294.042969 23.84375 L 293.597656 24.273438 L 293.148438 24.726562 L 292.699219 25.207031 L 292.25 25.710938 L 291.800781 26.242188 L 291.355469 26.800781 L 290.914062 27.382812 L 290.476562 27.988281 L 290.046875 28.617188 L 289.621094 29.269531 L 289.207031 29.949219 L 288.804688 30.648438 L 288.410156 31.375 L 288.027344 32.121094 L 287.660156 32.890625 L 287.304688 33.683594 L 286.964844 34.496094 L 286.640625 35.332031 L 286.332031 36.1875 L 286.042969 37.066406 L 285.773438 37.960938 L 285.519531 38.875 L 285.464844 39.101562 Z M 314.070312 44.144531 "/>
<path style=" stroke:none;fill-rule:nonzero;fill:rgb(66.666667%,0%,0%);fill-opacity:1;" d="M 331.863281 47.28125 L 334.445312 47.28125 L 329.324219 46.835938 Z M 331.863281 47.28125 "/>
<g clip-path="url(#clip13)" clip-rule="nonzero">
<path style="fill:none;stroke-width:2;stroke-linecap:square;stroke-linejoin:miter;stroke:rgb(66.666667%,0%,0%);stroke-opacity:1;stroke-miterlimit:3.25;" d="M 331.863281 47.28125 L 334.445312 47.28125 L 329.324219 46.835938 Z M 331.863281 47.28125 "/>
</g>
<path style=" stroke:none;fill-rule:evenodd;fill:rgb(66.666667%,0%,0%);fill-opacity:1;" d="M 338.796875 44.050781 C 338.796875 44.003906 338.773438 43.941406 338.753906 43.90625 L 335.09375 36.503906 C 335.015625 36.347656 334.996094 36.304688 334.84375 36.304688 C 334.679688 36.304688 334.65625 36.347656 334.578125 36.503906 L 330.921875 43.90625 C 330.898438 43.941406 330.878906 44.003906 330.878906 44.050781 C 330.878906 44.113281 330.886719 44.125 331.105469 44.125 L 338.566406 44.125 C 338.785156 44.125 338.796875 44.113281 338.796875 44.050781 Z M 337.492188 43.371094 L 331.523438 43.371094 L 334.503906 37.3125 Z M 337.492188 43.371094 "/>
<path style=" stroke:none;fill-rule:evenodd;fill:rgb(66.666667%,0%,0%);fill-opacity:1;" d="M 344.003906 43.894531 C 344.078125 43.578125 344.171875 43.21875 344.171875 42.917969 C 344.171875 42.703125 344.125 42.519531 343.988281 42.402344 C 343.941406 42.367188 343.871094 42.34375 343.804688 42.34375 C 343.703125 42.34375 343.597656 42.386719 343.511719 42.480469 C 343.445312 42.558594 343.40625 42.648438 343.40625 42.734375 C 343.40625 42.816406 343.4375 42.894531 343.503906 42.949219 C 343.695312 43.101562 343.804688 43.332031 343.804688 43.59375 C 343.804688 43.675781 343.789062 43.761719 343.773438 43.847656 C 343.597656 44.527344 343.121094 45.210938 342.515625 45.210938 C 342.101562 45.210938 341.832031 44.957031 341.742188 44.597656 C 341.847656 44.375 341.933594 44.128906 341.984375 43.894531 C 342 43.839844 342.007812 43.777344 342.007812 43.722656 C 342.007812 43.585938 341.953125 43.480469 341.824219 43.480469 C 341.671875 43.480469 341.554688 43.660156 341.515625 43.847656 C 341.449219 44.097656 341.417969 44.34375 341.425781 44.566406 C 341.164062 44.941406 340.789062 45.210938 340.382812 45.210938 C 339.90625 45.210938 339.675781 44.820312 339.675781 44.328125 C 339.675781 44.191406 339.691406 44.046875 339.730469 43.894531 C 339.847656 43.449219 340.113281 43.027344 340.421875 42.632812 C 340.445312 42.597656 340.460938 42.558594 340.460938 42.527344 C 340.460938 42.472656 340.429688 42.425781 340.382812 42.394531 C 340.359375 42.378906 340.335938 42.375 340.304688 42.375 C 340.253906 42.375 340.191406 42.402344 340.152344 42.449219 C 339.832031 42.886719 339.625 43.363281 339.5 43.847656 C 339.433594 44.113281 339.394531 44.375 339.394531 44.628906 C 339.394531 45.289062 339.652344 45.800781 340.28125 45.800781 C 340.765625 45.800781 341.171875 45.488281 341.488281 45.042969 C 341.601562 45.496094 341.902344 45.800781 342.40625 45.800781 C 343.21875 45.800781 343.773438 44.828125 344.003906 43.894531 Z M 344.003906 43.894531 "/>
<g clip-path="url(#clip14)" clip-rule="nonzero">
<path style=" stroke:none;fill-rule:nonzero;fill:rgb(74.999619%,74.999619%,74.999619%);fill-opacity:1;" d="M 232.035156 91.308594 L 349.960938 91.308594 L 349.960938 209.234375 L 379.441406 209.234375 L 379.441406 61.828125 L 232.035156 61.828125 Z M 232.035156 91.308594 "/>
</g>
<g clip-path="url(#clip15)" clip-rule="nonzero">
<path style="fill:none;stroke-width:1;stroke-linecap:square;stroke-linejoin:miter;stroke:rgb(0%,0%,0%);stroke-opacity:1;stroke-miterlimit:3.25;" d="M 232.035156 91.308594 L 349.960938 91.308594 "/>
</g>
<g clip-path="url(#clip16)" clip-rule="nonzero">
<path style="fill:none;stroke-width:1;stroke-linecap:square;stroke-linejoin:miter;stroke:rgb(0%,0%,0%);stroke-opacity:1;stroke-miterlimit:3.25;" d="M 349.960938 138.234375 L 349.960938 91.308594 "/>
</g>
<path style=" stroke:none;fill-rule:nonzero;fill:rgb(0%,0%,0%);fill-opacity:1;" d="M 349.960938 91.308594 L 350.460938 91.808594 L 350.460938 90.808594 L 349.960938 90.808594 Z M 349.960938 91.308594 "/>
<g clip-path="url(#clip17)" clip-rule="nonzero">
<path style="fill:none;stroke-width:1;stroke-linecap:square;stroke-linejoin:miter;stroke:rgb(0%,0%,0%);stroke-opacity:1;stroke-miterlimit:3.25;" d="M 349.960938 138.234375 L 349.960938 91.308594 "/>
</g>
<path style=" stroke:none;fill-rule:nonzero;fill:rgb(0%,0%,0%);fill-opacity:1;" d="M 349.960938 91.308594 L 350.460938 91.808594 L 350.460938 90.808594 L 349.960938 90.808594 Z M 349.960938 91.308594 "/>
<g clip-path="url(#clip18)" clip-rule="nonzero">
<path style="fill:none;stroke-width:1;stroke-linecap:square;stroke-linejoin:miter;stroke:rgb(0%,0%,0%);stroke-opacity:1;stroke-miterlimit:3.25;" d="M 232.035156 61.828125 L 379.441406 61.828125 "/>
</g>
<g clip-path="url(#clip19)" clip-rule="nonzero">
<path style="fill:none;stroke-width:1;stroke-linecap:square;stroke-linejoin:miter;stroke:rgb(0%,0%,0%);stroke-opacity:1;stroke-miterlimit:3.25;" d="M 379.441406 138.234375 L 379.441406 61.828125 "/>
</g>
<path style=" stroke:none;fill-rule:nonzero;fill:rgb(0%,0%,0%);fill-opacity:1;" d="M 379.441406 61.828125 L 379.941406 62.328125 L 379.941406 61.328125 L 379.441406 61.328125 Z M 379.441406 61.828125 "/>
<g clip-path="url(#clip20)" clip-rule="nonzero">
<path style="fill:none;stroke-width:1;stroke-linecap:square;stroke-linejoin:miter;stroke:rgb(0%,0%,0%);stroke-opacity:1;stroke-miterlimit:3.25;" d="M 379.441406 138.234375 L 379.441406 61.828125 "/>
</g>
<path style=" stroke:none;fill-rule:nonzero;fill:rgb(0%,0%,0%);fill-opacity:1;" d="M 379.441406 61.828125 L 379.941406 62.328125 L 379.941406 61.328125 L 379.441406 61.328125 Z M 379.441406 61.828125 "/>
<path style="fill-rule:nonzero;fill:rgb(100%,100%,86.999313%);fill-opacity:1;stroke-width:1;stroke-linecap:square;stroke-linejoin:miter;stroke:rgb(0%,0%,0%);stroke-opacity:1;stroke-miterlimit:3.25;" d="M 313.792969 91.308594 L 313.792969 91.296875 L 313.8125 90.261719 L 313.882812 89.234375 L 313.992188 88.21875 L 314.152344 87.21875 L 314.355469 86.238281 L 314.601562 85.273438 L 314.890625 84.328125 L 315.21875 83.40625 L 315.589844 82.511719 L 316.003906 81.636719 L 316.453125 80.792969 L 316.941406 79.976562 L 317.464844 79.1875 L 318.027344 78.433594 L 318.617188 77.714844 L 319.246094 77.027344 L 319.902344 76.378906 L 320.585938 75.765625 L 321.300781 75.191406 L 322.039062 74.660156 L 322.804688 74.167969 L 323.589844 73.71875 L 324.398438 73.3125 L 325.222656 72.953125 L 326.066406 72.640625 L 326.921875 72.375 L 327.789062 72.15625 L 328.667969 71.988281 L 329.554688 71.867188 L 330.449219 71.796875 L 331.347656 71.777344 L 332.246094 71.808594 L 333.144531 71.886719 L 334.042969 72.015625 L 334.929688 72.191406 L 335.8125 72.414062 L 336.683594 72.683594 L 337.546875 73 L 338.394531 73.359375 L 339.226562 73.765625 L 340.039062 74.21875 L 340.832031 74.710938 L 341.609375 75.25 L 342.359375 75.828125 L 343.085938 76.449219 L 343.785156 77.105469 L 344.457031 77.804688 L 345.101562 78.539062 L 345.710938 79.308594 L 346.289062 80.109375 L 346.835938 80.949219 L 347.34375 81.816406 L 347.816406 82.714844 L 348.253906 83.640625 L 348.648438 84.597656 L 349.003906 85.574219 L 349.316406 86.578125 L 349.355469 86.601562 L 349.398438 86.621094 L 349.441406 86.644531 L 349.582031 86.714844 L 349.632812 86.738281 L 349.742188 86.785156 L 349.800781 86.808594 L 349.859375 86.835938 L 349.984375 86.882812 L 350.117188 86.929688 L 350.257812 86.976562 L 350.40625 87.023438 L 350.484375 87.046875 L 350.648438 87.09375 L 350.730469 87.113281 L 350.816406 87.136719 L 350.996094 87.175781 L 351.183594 87.214844 L 351.28125 87.230469 L 351.378906 87.25 L 351.582031 87.28125 L 351.6875 87.292969 L 351.792969 87.308594 L 351.902344 87.320312 L 352.128906 87.34375 L 352.242188 87.351562 L 352.476562 87.367188 L 352.597656 87.371094 L 352.722656 87.378906 L 352.847656 87.378906 L 352.972656 87.382812 L 353.101562 87.382812 L 353.234375 87.378906 L 353.367188 87.378906 L 353.5 87.375 L 353.773438 87.359375 L 353.914062 87.351562 L 354.054688 87.339844 L 354.199219 87.328125 L 354.488281 87.296875 L 354.636719 87.277344 L 354.796875 87.257812 L 354.960938 87.230469 L 355.125 87.207031 L 355.292969 87.175781 L 378.71875 83.046875 L 378.484375 82.027344 L 378.222656 81.019531 L 377.941406 80.035156 L 377.640625 79.066406 L 377.316406 78.117188 L 376.972656 77.1875 L 376.609375 76.277344 L 376.230469 75.386719 L 375.832031 74.519531 L 375.414062 73.675781 L 374.984375 72.851562 L 374.539062 72.050781 L 374.082031 71.273438 L 373.609375 70.519531 L 373.128906 69.789062 L 372.636719 69.085938 L 372.132812 68.402344 L 371.625 67.746094 L 371.105469 67.113281 L 370.582031 66.507812 L 370.054688 65.925781 L 369.523438 65.367188 L 368.988281 64.835938 L 368.453125 64.328125 L 367.914062 63.847656 L 367.378906 63.390625 L 366.847656 62.960938 L 366.320312 62.554688 L 365.796875 62.171875 L 365.292969 61.828125 L 329.3125 61.828125 L 302.753906 66.515625 L 302.347656 66.609375 L 301.933594 66.714844 L 301.515625 66.835938 L 301.089844 66.96875 L 300.660156 67.117188 L 300.222656 67.277344 L 299.78125 67.453125 L 299.339844 67.644531 L 298.890625 67.847656 L 298.4375 68.070312 L 297.984375 68.308594 L 297.527344 68.5625 L 297.070312 68.832031 L 296.609375 69.121094 L 296.148438 69.421875 L 295.691406 69.742188 L 295.230469 70.082031 L 294.773438 70.4375 L 294.316406 70.8125 L 293.863281 71.203125 L 293.414062 71.613281 L 292.964844 72.039062 L 292.523438 72.484375 L 292.085938 72.949219 L 291.652344 73.429688 L 291.277344 73.867188 L 290.914062 74.316406 L 290.546875 74.792969 L 290.183594 75.292969 L 289.820312 75.820312 L 289.460938 76.367188 L 289.109375 76.945312 L 288.757812 77.546875 L 288.414062 78.171875 L 288.078125 78.820312 L 287.753906 79.492188 L 287.4375 80.1875 L 287.136719 80.90625 L 286.84375 81.644531 L 286.570312 82.40625 L 286.308594 83.1875 L 286.0625 83.988281 L 285.832031 84.8125 L 285.621094 85.652344 L 285.425781 86.515625 L 285.25 87.394531 L 285.097656 88.289062 L 284.964844 89.203125 L 284.855469 90.132812 L 284.765625 91.078125 L 284.75 91.308594 Z M 313.792969 91.308594 "/>
<path style=" stroke:none;fill-rule:nonzero;fill:rgb(66.666667%,0%,0%);fill-opacity:1;" d="M 331.863281 91.308594 L 334.40625 90.859375 L 329.285156 91.308594 Z M 331.863281 91.308594 "/>
<g clip-path="url(#clip21)" clip-rule="nonzero">
<path style="fill:none;stroke-width:2;stroke-linecap:square;stroke-linejoin:miter;stroke:rgb(66.666667%,0%,0%);stroke-opacity:1;stroke-miterlimit:3.25;" d="M 331.863281 91.308594 L 334.40625 90.859375 L 329.285156 91.308594 Z M 331.863281 91.308594 "/>
</g>
<path style=" stroke:none;fill-rule:evenodd;fill:rgb(66.666667%,0%,0%);fill-opacity:1;" d="M 329.953125 88.074219 C 329.953125 88.03125 329.929688 87.964844 329.90625 87.933594 L 326.25 80.527344 C 326.171875 80.371094 326.152344 80.328125 325.996094 80.328125 C 325.832031 80.328125 325.8125 80.371094 325.734375 80.527344 L 322.078125 87.933594 C 322.054688 87.964844 322.03125 88.03125 322.03125 88.074219 C 322.03125 88.140625 322.042969 88.152344 322.261719 88.152344 L 329.722656 88.152344 C 329.941406 88.152344 329.953125 88.140625 329.953125 88.074219 Z M 328.648438 87.394531 L 322.679688 87.394531 L 325.660156 81.335938 Z M 328.648438 87.394531 "/>
<path style=" stroke:none;fill-rule:evenodd;fill:rgb(66.666667%,0%,0%);fill-opacity:1;" d="M 335.160156 87.917969 C 335.234375 87.601562 335.328125 87.242188 335.328125 86.945312 C 335.328125 86.730469 335.28125 86.546875 335.144531 86.429688 C 335.097656 86.390625 335.027344 86.367188 334.960938 86.367188 C 334.859375 86.367188 334.753906 86.414062 334.667969 86.507812 C 334.597656 86.582031 334.558594 86.675781 334.558594 86.757812 C 334.558594 86.84375 334.589844 86.921875 334.660156 86.976562 C 334.851562 87.128906 334.960938 87.359375 334.960938 87.617188 C 334.960938 87.703125 334.945312 87.785156 334.929688 87.871094 C 334.753906 88.554688 334.277344 89.238281 333.671875 89.238281 C 333.257812 89.238281 332.988281 88.984375 332.894531 88.621094 C 333.003906 88.402344 333.089844 88.15625 333.140625 87.917969 C 333.15625 87.863281 333.164062 87.800781 333.164062 87.75 C 333.164062 87.609375 333.109375 87.503906 332.980469 87.503906 C 332.828125 87.503906 332.710938 87.6875 332.671875 87.871094 C 332.605469 88.125 332.574219 88.371094 332.582031 88.59375 C 332.320312 88.96875 331.945312 89.238281 331.539062 89.238281 C 331.0625 89.238281 330.832031 88.847656 330.832031 88.355469 C 330.832031 88.214844 330.847656 88.070312 330.886719 87.917969 C 331 87.472656 331.269531 87.050781 331.578125 86.660156 C 331.601562 86.621094 331.617188 86.582031 331.617188 86.554688 C 331.617188 86.5 331.585938 86.453125 331.539062 86.421875 C 331.515625 86.40625 331.492188 86.398438 331.460938 86.398438 C 331.40625 86.398438 331.347656 86.429688 331.308594 86.476562 C 330.984375 86.914062 330.78125 87.390625 330.65625 87.871094 C 330.585938 88.140625 330.550781 88.402344 330.550781 88.652344 C 330.550781 89.3125 330.808594 89.828125 331.4375 89.828125 C 331.921875 89.828125 332.328125 89.511719 332.644531 89.066406 C 332.757812 89.519531 333.058594 89.828125 333.5625 89.828125 C 334.375 89.828125 334.929688 88.855469 335.160156 87.917969 Z M 335.160156 87.917969 "/>
</g>
</svg>
